<svg xmlns="http://www.w3.org/2000/svg" xmlns:xlink="http://www.w3.org/1999/xlink" width="1920" height="97" viewBox="0 0 1920 97"><defs><radialGradient id="a" cx="0.5" cy="0.5" r="0.5" gradientUnits="objectBoundingBox"><stop offset="0" stop-color="#ff5d5d"/><stop offset="1" stop-color="#cf2323"/></radialGradient><clipPath id="b"><rect width="1920" height="73" transform="translate(0 3.901)" fill="url(#a)"/></clipPath><clipPath id="d"><rect width="120" height="97" transform="translate(-152 1334)" fill="none"/></clipPath><clipPath id="e"><path d="M664.414,527.027l.566,2.77,3.187,15.6.616,3.01v.007l.022.092,36.54,15.9V505.322l-48.083-13.294Z" transform="translate(-657.261 -492.028)" fill="none"/></clipPath><linearGradient id="f" x1="-4.071" y1="2.817" x2="-4.055" y2="2.817" gradientUnits="objectBoundingBox"><stop offset="0" stop-color="#ff2757"/><stop offset="0.984" stop-color="#ff4c4c"/><stop offset="1" stop-color="#ff4c4c"/></linearGradient><clipPath id="g"><path d="M717.337,505.32v59.089l36.421-15.9.075-.37.557-2.717,2.988-14.634.727-3.545,3.463-16.939.556-2.749,3.176-15.524Z" transform="translate(-717.337 -492.031)" fill="none"/></clipPath><linearGradient id="h" x1="-3.072" y1="3.709" x2="-3.061" y2="3.709" gradientUnits="objectBoundingBox"><stop offset="0" stop-color="#ea1327"/><stop offset="0.984" stop-color="#b4004c"/><stop offset="1" stop-color="#b4004c"/></linearGradient><clipPath id="i"><path d="M656.948,502.466l47.8,16.631.057-13.776-50.276-13.29Z" transform="translate(-654.523 -492.031)" fill="none"/></clipPath><linearGradient id="j" x1="-3.85" y1="7.533" x2="-3.834" y2="7.533" xlink:href="#f"/><clipPath id="k"><path d="M717.326,505.321l-.057,13.776,47.776-16.927,2.429-10.139Z" transform="translate(-717.269 -492.031)" fill="none"/></clipPath><linearGradient id="l" x1="-8.482" y1="4.175" x2="-8.455" y2="4.175" gradientUnits="objectBoundingBox"><stop offset="0" stop-color="#ff1327"/><stop offset="0.984" stop-color="#b4004c"/><stop offset="1" stop-color="#b4004c"/></linearGradient><clipPath id="m"><rect width="44.207" height="64.172" fill="none"/></clipPath><clipPath id="n"><rect width="44.046" height="64.172" fill="none"/></clipPath><clipPath id="o"><rect width="45.75" height="17.065" fill="none"/></clipPath><clipPath id="p"><path d="M686.435,555.685l5.118,2.227-2.834-56.841-12.659-3.346Z" transform="translate(-676.06 -497.724)" fill="#5d1c5e"/></clipPath><clipPath id="q"><rect width="45.803" height="17.374" fill="none"/></clipPath><clipPath id="r"><rect width="22.012" height="61.532" fill="none"/></clipPath><clipPath id="s"><rect width="20.128" height="61.532" fill="none"/></clipPath><clipPath id="t"><path d="M745.608,460.493c2.933,13.444-1.083,30.731-1.083,30.731L756.8,488.57c8.385-9.775,6.8-29.975,6.8-29.975Z" transform="translate(-744.525 -458.595)" fill="#6f2871"/></clipPath><clipPath id="u"><path d="M679.7,456.025c22.373,9.334,26.3,29.553,26.3,29.553h6.845c3.026-15.377-8.291-29.553-8.291-29.553-8.023,1.236-24.851,0-24.851,0" transform="translate(-679.697 -456.025)" fill="#6f2871"/></clipPath><clipPath id="v"><path d="M711.011,492.147l7.393,1.274,2.486-4.567s-6.662.468-9.879,3.293" transform="translate(-711.011 -488.854)" fill="#532654"/></clipPath><clipPath id="w"><rect width="20.987" height="6.409" fill="none"/></clipPath><clipPath id="x"><rect width="16.915" height="7.641" fill="none"/></clipPath><linearGradient id="y" x1="1.009" y1="0.5" x2="-0.032" y2="0.5" gradientUnits="objectBoundingBox"><stop offset="0" stop-color="#ffe680"/><stop offset="0.489" stop-color="#ffa60d"/><stop offset="1" stop-color="#ffce09"/></linearGradient><filter id="z" x="1288" y="31" width="206" height="66" filterUnits="userSpaceOnUse"><feOffset dy="3" input="SourceAlpha"/><feGaussianBlur stdDeviation="3" result="aa"/><feFlood flood-color="#470000" flood-opacity="0.329"/><feComposite operator="in" in2="aa"/><feComposite in="SourceGraphic"/></filter><linearGradient id="ab" y1="0.5" x2="1.031" y2="0.5" gradientUnits="objectBoundingBox"><stop offset="0" stop-color="#ffe680"/><stop offset="1" stop-color="#ffce09"/></linearGradient></defs><g transform="translate(643 -99)"><g transform="translate(-159 -1235)"><g transform="translate(173 238.099)"><g transform="translate(-657 1116)"><g clip-path="url(#b)"><rect width="1920" height="73" transform="translate(0 3.901)" fill="url(#a)"/><g transform="translate(-190.166 -96.976)"><path d="M232.72,134.194a15.8,15.8,0,1,1-20.424-9.057A15.8,15.8,0,0,1,232.72,134.194Z" transform="translate(0)" fill="#db3131"/><g transform="translate(208.366 129.998)"><path d="M217.535,143.829a29.33,29.33,0,0,1-3.644,1.277,4.126,4.126,0,0,1-1.3.051,1.512,1.512,0,0,1-1.332-1.05c-.693-1.868-1.417-3.727-2.148-5.582a3.659,3.659,0,0,1-.172-2.019c.161-.92.348-1.836.555-2.746a4.756,4.756,0,0,0-.331-3.506c-.21-.382-.342-.8-.514-1.2a.978.978,0,0,1,.478-1.492,2.282,2.282,0,0,1,2.86.357,5.714,5.714,0,0,1,1.454,2.5,14.354,14.354,0,0,1,.4,1.505c.077.385.225.467.591.315.9-.37,1.817-.712,2.731-1.056a9.034,9.034,0,0,1,1.007-.321,1.972,1.972,0,0,1,2.656,2,.763.763,0,0,0,.444.765,2.019,2.019,0,0,1,.652,2.533.516.516,0,0,0,.036.648,1.754,1.754,0,0,1-.07,2.293.441.441,0,0,0-.057.54,2.011,2.011,0,0,1-1.218,3C219.664,143.017,218.712,143.376,217.535,143.829Z" transform="translate(-202.761 -127.211)" fill="#f95555"/><path d="M211.746,137.438c.516,1.334,1.035,2.667,1.543,4,.314.825.128,1.239-.689,1.562s-1.621.637-2.438.937a.986.986,0,0,1-1.441-.637q-1.592-4.088-3.156-8.184a1,1,0,0,1,.638-1.451c.8-.334,1.619-.642,2.437-.943s1.243-.11,1.562.706C210.723,134.766,211.233,136.1,211.746,137.438Z" transform="translate(-205.453 -122.427)" fill="#f95555"/></g></g><rect width="2" height="52" rx="1" transform="translate(1874.232 -27.266) rotate(30)" fill="#e33939"/><rect width="2" height="52" rx="1" transform="translate(1633.232 -23.116) rotate(30)" fill="#e33939"/><rect width="2" height="52" rx="1" transform="translate(267.813 -27.266) rotate(30)" fill="#e33939"/><rect width="2" height="52" rx="1" transform="translate(1802.366 -3.434) rotate(30)" fill="#e33939"/><rect width="2" height="52" rx="1" transform="translate(59.813 -16.283) rotate(30)" fill="#e33939"/><rect width="2" height="52" rx="1" transform="translate(1893.653 56.884) rotate(30)" fill="#e33939"/><rect width="2" height="52" rx="1" transform="translate(187.813 9.734) rotate(30)" fill="#e33939"/><rect width="3.955" height="102.834" rx="1.978" transform="translate(1828.094 34.384) rotate(30)" fill="#e33939"/><rect width="2" height="52" rx="1" transform="translate(309 45.734) rotate(30)" fill="#e33939"/><rect width="3.955" height="102.834" rx="1.978" transform="translate(1711.252 42.267) rotate(30)" fill="#e33939"/><rect width="3.955" height="102.834" rx="1.978" transform="translate(245.675 33.267) rotate(30)" fill="#e33939"/><rect width="10.556" height="102.834" rx="5" transform="translate(1916.522 -43.147) rotate(30)" fill="#e33939"/><rect width="3.955" height="102.834" rx="1.978" transform="translate(143.833 52.267) rotate(30)" fill="#e33939"/><rect width="10.556" height="102.834" rx="5" transform="translate(1667.515 27.583) rotate(30)" fill="#e33939"/><rect width="10.556" height="102.834" rx="5" transform="translate(334.417 -61.068) rotate(30)" fill="#e33939"/><g transform="translate(1530.851 -107.492)"><path d="M232.72,134.194a15.8,15.8,0,1,1-20.424-9.057A15.8,15.8,0,0,1,232.72,134.194Z" transform="translate(0)" fill="#db3131"/><g transform="translate(210.021 131.826)"><path d="M216,141.019a24.37,24.37,0,0,1-3.028,1.061,3.428,3.428,0,0,1-1.081.042,1.257,1.257,0,0,1-1.106-.873c-.576-1.552-1.177-3.1-1.785-4.638a3.041,3.041,0,0,1-.143-1.678c.133-.764.289-1.526.461-2.282a3.952,3.952,0,0,0-.275-2.913c-.174-.317-.284-.667-.427-1a.812.812,0,0,1,.4-1.24,1.9,1.9,0,0,1,2.376.3,4.748,4.748,0,0,1,1.208,2.08,11.931,11.931,0,0,1,.33,1.251c.064.32.187.388.491.262.75-.308,1.51-.592,2.269-.877a7.508,7.508,0,0,1,.837-.267,1.639,1.639,0,0,1,2.207,1.664.634.634,0,0,0,.369.636,1.677,1.677,0,0,1,.541,2.1.429.429,0,0,0,.03.538,1.457,1.457,0,0,1-.058,1.905.366.366,0,0,0-.047.449,1.671,1.671,0,0,1-1.012,2.491C217.773,140.345,216.982,140.643,216,141.019Z" transform="translate(-203.728 -127.211)" fill="#f95555"/><path d="M210.682,136.619c.428,1.108.86,2.216,1.282,3.327.26.686.107,1.03-.573,1.3s-1.347.529-2.026.778a.819.819,0,0,1-1.2-.529q-1.323-3.4-2.623-6.8a.829.829,0,0,1,.53-1.205c.667-.278,1.345-.534,2.025-.783s1.033-.091,1.3.587C209.832,134.4,210.255,135.509,210.682,136.619Z" transform="translate(-205.453 -124.146)" fill="#f95555"/></g></g><rect width="10.556" height="102.834" rx="5" transform="translate(90.103 21.583) rotate(30)" fill="#e33939"/><circle cx="17" cy="17" r="17" transform="translate(266 21.901)" fill="#df3737"/><g transform="matrix(0.819, 0.574, -0.574, 0.819, 375.556, -1091.229)"><g transform="translate(563.191 969.629)"><path d="M576.365,988.045h-7.933a5.247,5.247,0,0,1-5.241-5.241V974.87a5.247,5.247,0,0,1,5.241-5.241h7.933a5.247,5.247,0,0,1,5.242,5.241V982.8A5.247,5.247,0,0,1,576.365,988.045Zm-7.933-16.837a3.667,3.667,0,0,0-3.663,3.663V982.8a3.667,3.667,0,0,0,3.663,3.663h7.933a3.667,3.667,0,0,0,3.663-3.663V974.87a3.667,3.667,0,0,0-3.663-3.663Z" transform="translate(-563.191 -969.629)" fill="#f95555"/></g><g transform="translate(567.683 974.122)"><path d="M606.413,1017.567a4.715,4.715,0,1,1,4.715-4.715A4.72,4.72,0,0,1,606.413,1017.567Zm0-7.852a3.137,3.137,0,1,0,3.137,3.137A3.14,3.14,0,0,0,606.413,1009.715Z" transform="translate(-601.698 -1008.137)" fill="#f95555"/></g><g transform="translate(576.183 972.719)"><path d="M676.817,997.244a1.133,1.133,0,1,1-1.133-1.133A1.133,1.133,0,0,1,676.817,997.244Z" transform="translate(-674.551 -996.111)" fill="#f95555"/></g></g></g></g></g><path d="M-37,0H440L401.382,72.951H-3.09Z" transform="translate(-84 1358.049)" fill="#8c4c8d"/><path d="M-24.323-.048,440,0,401.382,72.951H-3.09Z" transform="translate(-88 1358.049)" fill="#5d1c5e"/><g transform="matrix(0.914, 0.407, -0.407, 0.914, 4540.089, -2611.033)"><path d="M14.94,0A14.94,14.94,0,1,1,0,14.94,14.94,14.94,0,0,1,14.94,0Z" transform="translate(-2793.998 5613.268)" fill="#de3535"/><path d="M9.977,17.124a2.08,2.08,0,0,1-1.157-.539C4.712,12.859,2,10.4,2,7.387A4.345,4.345,0,0,1,6.387,3a4.777,4.777,0,0,1,3.59,1.667A4.777,4.777,0,0,1,13.566,3a4.345,4.345,0,0,1,4.387,4.387c0,3.015-2.712,5.472-6.82,9.205A2.063,2.063,0,0,1,9.977,17.124Z" transform="translate(-2789.065 5618.897)" fill="#f95555"/></g><g transform="matrix(0.914, 0.407, -0.407, 0.914, 6167.354, -2621.154)"><path d="M17.875,0A17.875,17.875,0,1,1,0,17.875,17.875,17.875,0,0,1,17.875,0Z" transform="translate(-2793.998 5613.268)" fill="#de3535"/><path d="M11.544,19.9a2.488,2.488,0,0,1-1.384-.645C5.245,14.8,2,11.857,2,8.249A5.2,5.2,0,0,1,7.249,3a5.716,5.716,0,0,1,4.295,1.995A5.716,5.716,0,0,1,15.839,3a5.2,5.2,0,0,1,5.249,5.249c0,3.608-3.245,6.547-8.16,11.014A2.468,2.468,0,0,1,11.544,19.9Z" transform="translate(-2787.703 5620.593)" fill="#f95555"/></g><g transform="translate(1339.624 -2524.507) rotate(31)"><path d="M19.414,0A19.414,19.414,0,1,1,0,19.414,19.414,19.414,0,0,1,19.414,0Z" transform="translate(507 4221)" fill="#db3131"/><path d="M14.942,11.967a3.983,3.983,0,1,0-3.984-3.983A3.982,3.982,0,0,0,14.942,11.967ZM5.979,9.975V6.988H3.988V9.975H1v1.992H3.988v2.988H5.979V11.967H8.967V9.975Zm8.963,3.984c-2.659,0-7.967,1.334-7.967,3.983v1.992H22.909V17.942C22.909,15.293,17.6,13.959,14.942,13.959Z" transform="translate(513.355 4228.273)" fill="#f95555"/></g><g transform="translate(2906.014 -2484.726) rotate(31)"><path d="M13,0A13,13,0,1,1,0,13,13,13,0,0,1,13,0Z" transform="translate(507 4221)" fill="#db3131"/><path d="M10.334,9.334A2.667,2.667,0,1,0,7.667,6.667,2.666,2.666,0,0,0,10.334,9.334ZM4.333,8V6H3V8H1V9.334H3v2H4.333v-2h2V8Zm6,2.667C8.554,10.667,5,11.56,5,13.334v1.333H15.667V13.334C15.667,11.56,12.114,10.667,10.334,10.667Z" transform="translate(510.924 4224.547)" fill="#f95555"/></g><circle cx="20.5" cy="20.5" r="20.5" transform="translate(1095 1372)" fill="#e23535"/><g transform="matrix(0.819, 0.574, -0.574, 0.819, 1112.955, 1378.328)"><g transform="translate(0)"><path d="M15.072,21.069H6a6,6,0,0,1-6-6V6A6,6,0,0,1,6,0h9.076a6,6,0,0,1,6,6v9.076A6,6,0,0,1,15.072,21.069ZM6,1.806A4.2,4.2,0,0,0,1.806,6v9.076A4.2,4.2,0,0,0,6,19.263h9.076a4.2,4.2,0,0,0,4.191-4.19V6a4.2,4.2,0,0,0-4.191-4.191Z" fill="#f95555"/></g><g transform="translate(5.14 5.14)"><path d="M5.395,10.789a5.394,5.394,0,1,1,5.395-5.395A5.4,5.4,0,0,1,5.395,10.789Zm0-8.983A3.589,3.589,0,1,0,8.983,5.394,3.593,3.593,0,0,0,5.395,1.806Z" fill="#f95555"/></g><g transform="translate(14.864 3.535)"><path d="M2.593,1.3A1.3,1.3,0,1,1,1.3,0,1.3,1.3,0,0,1,2.593,1.3Z" fill="#f95555"/></g></g><g transform="translate(152.331 1314.789)"><g transform="translate(-112.852 66.333)"><path d="M-333.7-458.7c1.994.136,4.486,2.927,5.675,4.459.831-1.751,2.664-5.014,4.582-5.577,3.23-.946,4.355,2.109,4.072,4.967-.435,4.406-7.48,11.465-7.48,11.465s-8.382-5.379-9.756-9.588C-337.494-455.7-337.053-458.929-333.7-458.7Z" transform="translate(481.037 535.985) rotate(17)" fill="#fb9267"/><path d="M-384.87-499.434c-.81.943-.659,3.263-.5,4.456-1.137-.4-3.379-1.006-4.464-.4-1.826,1.018-.964,2.847.424,3.967,2.139,1.727,8.333,1.685,8.333,1.685s1.272-6.053.008-8.5C-381.89-499.809-383.509-501.02-384.87-499.434Z" transform="translate(459.57 532.846)" fill="#fd4b65"/><path d="M7.526.339C6.465.976,5.879,3.214,5.655,4.393,4.7,3.662,2.776,2.381,1.562,2.611-.484,3-.244,5,.716,6.493,2.2,8.8,8.064,10.7,8.064,10.7s3.1-5.322,2.675-8.027C10.461.921,9.311-.732,7.526.339Z" transform="matrix(0.899, 0.438, -0.438, 0.899, 59.007, -19.908)" fill="#fb9267"/><path d="M-423.436-320.78c-1.762,1.007-2.8,4.66-3.213,6.586-1.536-1.234-4.653-3.4-6.655-3.069-3.371.564-3.048,3.853-1.526,6.34,2.348,3.835,11.909,7.169,11.909,7.169s5.281-8.623,4.673-13.079C-418.639-319.721-420.469-322.475-423.436-320.78Z" transform="translate(356.091 339.355)" fill="#a33240"/><path d="M-695.669-506.538c-1.218,1.116-1.388,4.2-1.366,5.8-1.44-.7-4.3-1.864-5.833-1.24-2.572,1.056-1.725,3.606-.068,5.306,2.552,2.62,10.738,3.546,10.738,3.546s2.639-7.792,1.357-11.218C-691.673-506.561-693.619-508.416-695.669-506.538Z" transform="translate(859.299 490.683)" fill="#fc8594"/></g><g transform="translate(77 29.345)"><path d="M-741.488-303.347c-1.336-.744-4.1.01-5.5.5.2-1.47.38-4.327-.616-5.486-1.678-1.953-3.673-.461-4.682,1.489-1.557,3.009.022,10.473.022,10.473s7.618.041,10.254-2.087C-740.3-299.842-739.237-302.095-741.488-303.347Z" transform="translate(533.798 -586.897) rotate(-77)" fill="#843185"/><path d="M-359.565-606.2c-1.2-.259-3.138.962-4.1,1.661-.192-1.172-.717-3.4-1.751-4.061-1.741-1.106-2.923.5-3.241,2.233-.492,2.669,2.459,8.021,2.459,8.021s5.849-1.744,7.373-3.99C-357.837-603.793-357.549-605.767-359.565-606.2Z" transform="translate(177.712 633.041)" fill="#843185"/></g></g></g><g transform="translate(-159 -1235)" clip-path="url(#d)"><rect width="120" height="97" transform="translate(-152 1334)" fill="none"/><g transform="translate(-806.307 901.671) rotate(-1)"><g transform="translate(656.715 484.84)"><g clip-path="url(#e)"><rect width="48.083" height="72.381" transform="translate(0 0)" fill="url(#f)"/></g></g><g transform="translate(704.797 484.843)"><g clip-path="url(#g)"><rect width="75.08" height="52.146" transform="translate(-4.261 72.126) rotate(-86.619)" fill="url(#h)"/></g></g><path d="M654.524,490.506l50.149-6.117,50.276,6.117L704.8,503.8Z" transform="translate(0 -5.662)" fill="#ff6b7c"/><g transform="translate(654.523 484.843)"><g clip-path="url(#i)"><rect width="50.277" height="27.066" transform="translate(0)" fill="url(#j)"/></g></g><g transform="translate(704.743 484.843)"><g clip-path="url(#k)"><rect width="29.979" height="51.714" transform="translate(-1.593 26.972) rotate(-86.619)" fill="url(#l)"/></g></g><path d="M688.719,498.972l46.473-10.828-7.636-.929-51.5,8.411Z" transform="translate(-4.299 -6.227)" fill="#532654" fill-rule="evenodd"/><path d="M731.726,498.528l-51.315-10.05,13.029-1.589,53.144,7.7Z" transform="translate(-5.168 -6.161)" fill="#532654" fill-rule="evenodd"/><g transform="translate(660.228 489.237)" style="mix-blend-mode:soft-light;isolation:isolate"><g clip-path="url(#m)"><path d="M671.559,561.789c-.021-.021-.035-.043-.056-.064v-.007l-.615-3.011a2.306,2.306,0,0,1,.226.411c.051-.311.234-.459.5-.361a1.73,1.73,0,0,1,.819,1.265v.028a1.745,1.745,0,0,1-.869,1.739" transform="translate(-663.495 -509.736)" fill="#fff"/><path d="M680.114,562.938a1.656,1.656,0,0,0-.794-1.261c-.263-.1-.457.051-.516.354a1.425,1.425,0,0,0-.676-.808c-.364-.138-.594.205-.513.764,0,0,0,.84,1.552,2.695v0h0l0,0v0a1.762,1.762,0,0,0,.945-1.718l0-.027" transform="translate(-664.834 -510.232)" fill="#fff"/><path d="M688.087,565.977a1.577,1.577,0,0,0-.767-1.254c-.265-.1-.467.048-.536.347a1.375,1.375,0,0,0-.662-.8c-.366-.14-.611.2-.547.753,0,0-.025.833,1.493,2.678v0h0v0c1.106-.716,1.043-1.538,1.019-1.7a.19.19,0,0,0,0-.026" transform="translate(-666.424 -510.839)" fill="#fff"/><path d="M696.105,569.032a1.509,1.509,0,0,0-.74-1.247c-.267-.1-.478.047-.558.341a1.312,1.312,0,0,0-.648-.8c-.368-.14-.628.193-.582.743,0,0-.053.825,1.431,2.661v0h0l0,0v0c1.151-.7,1.113-1.517,1.095-1.674l0-.026" transform="translate(-668.023 -511.45)" fill="#fff"/><path d="M704.172,572.107a1.439,1.439,0,0,0-.712-1.239c-.268-.1-.487.042-.579.335a1.271,1.271,0,0,0-.633-.8c-.37-.14-.647.189-.618.733,0,0-.081.816,1.369,2.643v0h0l0,0v0c1.195-.691,1.184-1.495,1.17-1.651Z" transform="translate(-669.631 -512.065)" fill="#fff"/><path d="M712.285,575.2a1.376,1.376,0,0,0-.684-1.231.448.448,0,0,0-.6.328,1.212,1.212,0,0,0-.619-.792c-.373-.142-.665.182-.653.72,0,0-.11.808,1.306,2.626v0h0l0,0v0c1.241-.675,1.257-1.473,1.247-1.627V575.2" transform="translate(-671.248 -512.683)" fill="#fff"/><path d="M674.047,550.463a1.815,1.815,0,0,0-.849-1.359c-.272-.1-.469.069-.52.4a1.531,1.531,0,0,0-.716-.866c-.378-.142-.6.239-.506.847,0,0,.025.92,1.666,2.907v0h0l0,0v0a1.975,1.975,0,0,0,.927-1.9l0-.029" transform="translate(-663.604 -507.72)" fill="#fff"/><path d="M682.32,553.585a1.734,1.734,0,0,0-.82-1.351c-.275-.1-.479.065-.543.394a1.468,1.468,0,0,0-.7-.862c-.38-.143-.623.233-.544.836,0,0,0,.911,1.6,2.89v0h0v0a1.983,1.983,0,0,0,1.006-1.878l0-.029" transform="translate(-665.253 -508.344)" fill="#fff"/><path d="M690.642,556.726a1.658,1.658,0,0,0-.79-1.344c-.277-.1-.491.062-.566.387a1.418,1.418,0,0,0-.685-.859c-.382-.143-.643.228-.581.827,0,0-.035.9,1.534,2.871h0l0,0v0a2,2,0,0,0,1.087-1.855l0-.029" transform="translate(-666.913 -508.972)" fill="#fff"/><path d="M699.014,559.886a1.586,1.586,0,0,0-.759-1.336c-.279-.1-.5.059-.591.381a1.358,1.358,0,0,0-.669-.855c-.385-.145-.662.222-.62.815,0,0-.065.893,1.468,2.852v0h0l0,0v0c1.216-.781,1.186-1.661,1.169-1.83a.247.247,0,0,0,0-.028" transform="translate(-668.582 -509.603)" fill="#fff"/><path d="M707.437,563.066a1.512,1.512,0,0,0-.73-1.328c-.28-.106-.513.054-.613.374a1.3,1.3,0,0,0-.653-.851c-.387-.146-.682.215-.659.8,0,0-.1.884,1.4,2.834v0h0l0,0v0c1.264-.767,1.264-1.637,1.251-1.805Z" transform="translate(-670.261 -510.239)" fill="#fff"/><path d="M715.911,566.265a1.439,1.439,0,0,0-.7-1.319c-.282-.107-.524.05-.637.366a1.25,1.25,0,0,0-.637-.846c-.389-.148-.7.209-.7.791,0,0-.127.876,1.333,2.815v0h0l0,0v0c1.313-.753,1.342-1.615,1.335-1.782v-.027" transform="translate(-671.949 -510.879)" fill="#fff"/><path d="M668.658,538.027a2.366,2.366,0,0,1-.932,1.81h-.007a15.072,15.072,0,0,1-.954-1.315l-.567-2.77a.33.33,0,0,1,.248.007,1.66,1.66,0,0,1,.756.932c.042-.367.24-.558.523-.451a1.986,1.986,0,0,1,.9,1.462c0,.014.007.022.007.036a1.994,1.994,0,0,1,.021.289" transform="translate(-662.558 -505.149)" fill="#fff"/><path d="M677.149,540.914a1.9,1.9,0,0,0-.873-1.457c-.285-.106-.492.082-.551.443a1.588,1.588,0,0,0-.74-.925c-.395-.146-.637.271-.543.928,0,0,.015,1,1.711,3.117v0h0l0,0v0a2.225,2.225,0,0,0,1-2.075c0-.01,0-.02,0-.031" transform="translate(-664.2 -505.791)" fill="#fff"/><path d="M685.793,544.142a1.821,1.821,0,0,0-.842-1.449c-.286-.106-.5.079-.575.437a1.525,1.525,0,0,0-.724-.921c-.4-.148-.658.264-.583.916,0,0-.019.986,1.64,3.1v0h0l0,0v0a2.241,2.241,0,0,0,1.085-2.05l0-.031" transform="translate(-665.924 -506.436)" fill="#fff"/><path d="M694.492,547.392a1.736,1.736,0,0,0-.809-1.441c-.289-.108-.516.076-.6.429a1.456,1.456,0,0,0-.707-.917c-.4-.15-.678.258-.624.9,0,0-.05.976,1.568,3.078v0l0,0v0a2.26,2.26,0,0,0,1.172-2.025l0-.03" transform="translate(-667.658 -507.086)" fill="#fff"/><path d="M703.245,550.662a1.654,1.654,0,0,0-.777-1.432c-.291-.108-.528.072-.627.422a1.393,1.393,0,0,0-.689-.912c-.4-.15-.7.25-.666.892,0,0-.084.968,1.5,3.058v0h0l0,0v0a2.287,2.287,0,0,0,1.26-2c0-.011,0-.02,0-.031" transform="translate(-669.403 -507.74)" fill="#fff"/><path d="M712.053,553.952a1.578,1.578,0,0,0-.743-1.423c-.293-.11-.541.068-.652.414a1.344,1.344,0,0,0-.672-.908c-.405-.151-.722.246-.708.881,0,0-.118.958,1.422,3.039v0h0v0c1.344-.852,1.362-1.792,1.351-1.974v-.03" transform="translate(-671.158 -508.397)" fill="#fff"/><path d="M670.416,526.38a2.111,2.111,0,0,0-.94-1.581c-.3-.109-.505.1-.555.5a1.718,1.718,0,0,0-.788-1c-.411-.151-.649.315-.534,1.036,0,0,.042,1.095,1.847,3.382v0h0l0,0v0a2.536,2.536,0,0,0,.972-2.311l0-.035" transform="translate(-662.832 -502.862)" fill="#fff"/><path d="M679.413,529.7a2.015,2.015,0,0,0-.905-1.572c-.3-.111-.518.1-.583.5a1.651,1.651,0,0,0-.77-.995c-.414-.152-.671.309-.578,1.025,0,0,.007,1.086,1.769,3.363v0l0,0,0,0v0a2.54,2.54,0,0,0,1.066-2.284.313.313,0,0,1,0-.034" transform="translate(-664.627 -503.526)" fill="#fff"/><path d="M688.469,533.043a1.923,1.923,0,0,0-.87-1.563c-.3-.111-.531.1-.611.488a1.58,1.58,0,0,0-.751-.989c-.416-.154-.694.3-.622,1.012,0,0-.029,1.075,1.692,3.342v0l0,0,0,0v0a2.55,2.55,0,0,0,1.16-2.257l0-.035" transform="translate(-666.432 -504.194)" fill="#fff"/><path d="M697.584,536.408a1.836,1.836,0,0,0-.834-1.554c-.3-.112-.545.093-.639.48a1.513,1.513,0,0,0-.733-.985c-.419-.155-.717.294-.667,1,0,0-.065,1.065,1.614,3.322v0h0l0,0v0a2.576,2.576,0,0,0,1.258-2.23l0-.034" transform="translate(-668.249 -504.867)" fill="#fff"/><path d="M706.76,539.795a1.751,1.751,0,0,0-.8-1.545c-.306-.112-.559.089-.667.472a1.452,1.452,0,0,0-.714-.98c-.422-.156-.741.288-.713.987,0,0-.1,1.056,1.533,3.3v0h0l0,0v0a2.6,2.6,0,0,0,1.356-2.2c0-.011,0-.021,0-.033" transform="translate(-670.078 -505.544)" fill="#fff"/><path d="M716,543.2a1.67,1.67,0,0,0-.762-1.536c-.308-.114-.571.086-.695.464a1.4,1.4,0,0,0-.695-.976c-.425-.156-.766.282-.76.974,0,0-.139,1.046,1.453,3.282v0l0,0,0,0v0a2.649,2.649,0,0,0,1.455-2.176V543.2" transform="translate(-671.918 -506.226)" fill="#fff"/><path d="M664.6,513.485a2.307,2.307,0,0,0-1-1.694c-.308-.112-.517.125-.56.559a1.846,1.846,0,0,0-.831-1.066c-.425-.154-.66.356-.525,1.138,0,0,.068,1.187,1.971,3.628v0l0,0,0,0v0a2.844,2.844,0,0,0,.946-2.529c0-.013,0-.024,0-.038" transform="translate(-661.65 -500.263)" fill="#fff"/><path d="M673.914,516.884a2.2,2.2,0,0,0-.962-1.686c-.31-.113-.531.121-.589.552a1.77,1.77,0,0,0-.812-1.062c-.428-.155-.684.35-.572,1.125,0,0,.03,1.178,1.888,3.609v0l0,0v0a2.839,2.839,0,0,0,1.048-2.5l0-.038" transform="translate(-663.508 -500.942)" fill="#fff"/><path d="M683.289,520.308a2.105,2.105,0,0,0-.924-1.677c-.312-.114-.545.117-.619.543a1.69,1.69,0,0,0-.792-1.057c-.431-.158-.708.342-.62,1.112,0,0-.008,1.168,1.8,3.588v0l0,0,0,0v0a2.846,2.846,0,0,0,1.15-2.475c0-.013,0-.024,0-.037" transform="translate(-665.377 -501.627)" fill="#fff"/><path d="M692.728,523.754a2.007,2.007,0,0,0-.887-1.668c-.315-.115-.559.114-.648.536a1.627,1.627,0,0,0-.773-1.053c-.434-.159-.733.336-.668,1.1,0,0-.046,1.157,1.721,3.567v0h0l0,0v0a2.856,2.856,0,0,0,1.253-2.446v-.037" transform="translate(-667.259 -502.316)" fill="#fff"/><path d="M702.232,527.225a1.913,1.913,0,0,0-.849-1.658c-.316-.116-.573.108-.678.527a1.564,1.564,0,0,0-.753-1.049c-.437-.158-.758.329-.717,1.087,0,0-.087,1.147,1.635,3.546v0h0l0,0v0a2.886,2.886,0,0,0,1.358-2.417c0-.013,0-.024,0-.036" transform="translate(-669.153 -503.01)" fill="#fff"/><path d="M711.8,530.719a1.829,1.829,0,0,0-.81-1.649c-.318-.115-.587.1-.708.52a1.491,1.491,0,0,0-.732-1.044c-.439-.16-.783.323-.767,1.072,0,0-.126,1.137,1.548,3.525v0h0l0,0v0a2.923,2.923,0,0,0,1.465-2.388v-.036" transform="translate(-671.059 -503.708)" fill="#fff"/><path d="M666.426,499.916a2.468,2.468,0,0,0-1.042-1.842c-.323-.116-.545.15-.594.629a1.937,1.937,0,0,0-.868-1.154c-.447-.161-.7.408-.56,1.266,0,0,.064,1.305,2.051,3.946v0l0,0,0,0v0a3.291,3.291,0,0,0,1.014-2.8l0-.041" transform="translate(-661.985 -497.521)" fill="#fff"/><path d="M676.217,503.44a2.356,2.356,0,0,0-1-1.834c-.326-.117-.561.146-.626.621a1.856,1.856,0,0,0-.848-1.149c-.45-.162-.724.4-.612,1.252,0,0,.022,1.294,1.961,3.924v0h0l0,0v0a3.279,3.279,0,0,0,1.125-2.775l0-.041" transform="translate(-663.937 -498.226)" fill="#fff"/><path d="M686.079,506.989a2.251,2.251,0,0,0-.96-1.824c-.327-.118-.576.141-.659.612a1.776,1.776,0,0,0-.825-1.144c-.453-.162-.751.394-.666,1.238,0,0-.02,1.284,1.87,3.9v0h0l0,0v0a3.282,3.282,0,0,0,1.239-2.745Z" transform="translate(-665.903 -498.935)" fill="#fff"/><path d="M696.01,510.563a2.146,2.146,0,0,0-.917-1.815c-.331-.118-.592.138-.691.6a1.708,1.708,0,0,0-.8-1.141c-.457-.164-.778.387-.719,1.225,0,0-.062,1.274,1.776,3.88v0l0,0,0,0v0a3.3,3.3,0,0,0,1.353-2.716l0-.04" transform="translate(-667.883 -499.65)" fill="#fff"/><path d="M706.015,514.164a2.049,2.049,0,0,0-.876-1.8c-.333-.119-.607.133-.724.594a1.639,1.639,0,0,0-.781-1.135c-.46-.165-.806.379-.773,1.211,0,0-.106,1.262,1.681,3.858v0l0,0v0a3.325,3.325,0,0,0,1.47-2.684v-.04" transform="translate(-669.877 -500.369)" fill="#fff"/><path d="M716.09,517.791a1.952,1.952,0,0,0-.832-1.794c-.335-.121-.624.128-.758.586a1.564,1.564,0,0,0-.76-1.131c-.463-.167-.834.371-.828,1.2,0,0-.15,1.252,1.585,3.835v0l0,0,0,0v0a3.37,3.37,0,0,0,1.587-2.654c0-.013,0-.026,0-.039" transform="translate(-671.883 -501.095)" fill="#fff"/></g></g><g transform="translate(705.538 489.237)" style="mix-blend-mode:soft-light;isolation:isolate"><g clip-path="url(#n)"><path d="M763.366,558.737l-.557,2.718a1.616,1.616,0,0,1-.489-1.4.053.053,0,0,0,.006-.031,1.721,1.721,0,0,1,.821-1.266.391.391,0,0,1,.218-.025" transform="translate(-727.054 -509.74)" fill="#fff"/><path d="M754.4,562.938a1.651,1.651,0,0,1,.793-1.261c.263-.1.457.051.516.354a1.421,1.421,0,0,1,.675-.808c.365-.138.594.205.513.764,0,0,0,.84-1.552,2.695v0h0l0,0v0a1.764,1.764,0,0,1-.946-1.718l0-.027" transform="translate(-725.473 -510.232)" fill="#fff"/><path d="M746.426,565.977a1.578,1.578,0,0,1,.767-1.254c.265-.1.467.048.537.347a1.372,1.372,0,0,1,.661-.8c.366-.14.612.2.548.753,0,0,.024.833-1.493,2.678v0h0l0,0v0c-1.106-.716-1.043-1.538-1.018-1.7v-.026" transform="translate(-723.883 -510.839)" fill="#fff"/><path d="M738.406,569.032a1.51,1.51,0,0,1,.74-1.247c.267-.1.478.047.558.341a1.311,1.311,0,0,1,.647-.8c.368-.14.628.193.582.743,0,0,.054.825-1.431,2.661v0h0l0,0v0c-1.15-.7-1.113-1.517-1.094-1.674a.239.239,0,0,1,0-.026" transform="translate(-722.282 -511.45)" fill="#fff"/><path d="M730.337,572.107a1.442,1.442,0,0,1,.712-1.239c.268-.1.487.042.579.335a1.268,1.268,0,0,1,.632-.8c.371-.14.647.189.619.733,0,0,.081.816-1.369,2.643v0h0l0,0v0c-1.2-.691-1.185-1.495-1.171-1.651,0-.009,0-.017,0-.027" transform="translate(-720.672 -512.065)" fill="#fff"/><path d="M722.222,575.2a1.376,1.376,0,0,1,.683-1.231.449.449,0,0,1,.6.328,1.212,1.212,0,0,1,.618-.792c.373-.142.665.182.654.72,0,0,.11.808-1.307,2.626v0h0v0c-1.241-.675-1.257-1.473-1.248-1.627V575.2" transform="translate(-719.053 -512.683)" fill="#fff"/><path d="M760.44,550.463a1.814,1.814,0,0,1,.849-1.359c.273-.1.469.069.521.4a1.528,1.528,0,0,1,.714-.866c.378-.142.6.239.508.847,0,0-.026.92-1.666,2.907v0h0l0,0v0a1.972,1.972,0,0,1-.926-1.9c0-.01,0-.019,0-.029" transform="translate(-726.678 -507.72)" fill="#fff"/><path d="M752.168,553.585a1.734,1.734,0,0,1,.819-1.351c.275-.1.479.065.543.394a1.467,1.467,0,0,1,.7-.862c.38-.143.623.233.544.836,0,0,0,.911-1.6,2.89v0h0v0a1.984,1.984,0,0,1-1.007-1.878c0-.01,0-.018,0-.029" transform="translate(-725.028 -508.344)" fill="#fff"/><path d="M743.844,556.726a1.663,1.663,0,0,1,.79-1.344c.277-.1.491.062.567.387a1.414,1.414,0,0,1,.685-.859c.382-.143.643.228.581.827,0,0,.034.9-1.535,2.871h0v0a2,2,0,0,1-1.087-1.855l0-.029" transform="translate(-723.367 -508.972)" fill="#fff"/><path d="M735.471,559.886a1.585,1.585,0,0,1,.761-1.336c.278-.1.5.059.59.381a1.357,1.357,0,0,1,.668-.855c.385-.145.663.222.62.815,0,0,.065.893-1.468,2.852v0h0l0,0v0c-1.216-.781-1.186-1.661-1.169-1.83,0-.01,0-.018,0-.028" transform="translate(-721.697 -509.603)" fill="#fff"/><path d="M727.044,563.066a1.512,1.512,0,0,1,.73-1.328c.28-.106.513.054.614.374a1.305,1.305,0,0,1,.652-.851c.387-.146.682.215.659.8,0,0,.1.884-1.4,2.834v0h0l0,0v0c-1.264-.767-1.264-1.637-1.251-1.805,0-.01,0-.018,0-.028" transform="translate(-720.015 -510.239)" fill="#fff"/><path d="M718.567,566.265a1.441,1.441,0,0,1,.7-1.319c.283-.107.524.05.637.366a1.25,1.25,0,0,1,.637-.846c.389-.148.7.209.7.791,0,0,.127.876-1.333,2.815v0h0v0c-1.314-.753-1.343-1.615-1.335-1.782a.209.209,0,0,1,0-.027" transform="translate(-718.323 -510.879)" fill="#fff"/><path d="M767.792,536.026l-.726,3.545c-.081.107-.17.212-.258.325H766.8a2.228,2.228,0,0,1-.908-2.1.254.254,0,0,1,.006-.031,1.992,1.992,0,0,1,.9-1.465c.288-.107.482.081.526.45a2.128,2.128,0,0,1,.463-.726" transform="translate(-727.766 -505.208)" fill="#fff"/><path d="M757.31,540.914a1.9,1.9,0,0,1,.873-1.457c.286-.106.493.082.552.443a1.588,1.588,0,0,1,.74-.925c.394-.146.637.271.542.928,0,0-.015,1-1.71,3.117v0h0l0,0v0a2.225,2.225,0,0,1-1-2.075c0-.01,0-.02,0-.031" transform="translate(-726.053 -505.791)" fill="#fff"/><path d="M748.665,544.142a1.822,1.822,0,0,1,.842-1.449c.288-.106.5.079.576.437a1.522,1.522,0,0,1,.724-.921c.4-.148.657.264.583.916,0,0,.018.986-1.64,3.1v0h0l0,0v0a2.243,2.243,0,0,1-1.084-2.05c0-.011,0-.021,0-.031" transform="translate(-724.329 -506.436)" fill="#fff"/><path d="M739.966,547.392a1.737,1.737,0,0,1,.81-1.441c.289-.108.516.076.6.429a1.455,1.455,0,0,1,.707-.917c.4-.15.679.258.624.9,0,0,.05.976-1.568,3.078v0l0,0v0a2.259,2.259,0,0,1-1.172-2.025c0-.01,0-.02,0-.03" transform="translate(-722.594 -507.086)" fill="#fff"/><path d="M731.21,550.662a1.658,1.658,0,0,1,.777-1.432c.291-.108.529.072.627.422a1.392,1.392,0,0,1,.689-.912c.4-.15.7.25.666.892,0,0,.085.968-1.495,3.058v0h0l0,0v0a2.287,2.287,0,0,1-1.261-2Z" transform="translate(-720.846 -507.74)" fill="#fff"/><path d="M722.4,553.952a1.578,1.578,0,0,1,.744-1.423c.292-.11.54.068.652.414a1.34,1.34,0,0,1,.672-.908c.4-.151.722.246.709.881,0,0,.117.958-1.422,3.039v0h0l0,0v0c-1.345-.852-1.362-1.792-1.351-1.974v-.03" transform="translate(-719.088 -508.397)" fill="#fff"/><path d="M764.011,526.38a2.113,2.113,0,0,1,.94-1.581c.3-.109.506.1.556.5a1.717,1.717,0,0,1,.788-1c.41-.151.648.315.533,1.036,0,0-.042,1.095-1.846,3.382v0h0l0,0v0a2.534,2.534,0,0,1-.972-2.311l0-.035" transform="translate(-727.389 -502.862)" fill="#fff"/><path d="M755.016,529.7a2.012,2.012,0,0,1,.9-1.572c.3-.111.518.1.582.5a1.654,1.654,0,0,1,.77-.995c.414-.152.672.309.578,1.025,0,0-.007,1.086-1.77,3.363v0l0,0,0,0v0a2.536,2.536,0,0,1-1.065-2.284c0-.012,0-.022,0-.034" transform="translate(-725.596 -503.526)" fill="#fff"/><path d="M745.959,533.043a1.921,1.921,0,0,1,.87-1.563c.3-.111.531.1.611.488a1.58,1.58,0,0,1,.75-.989c.417-.154.695.3.623,1.012,0,0,.029,1.075-1.692,3.342v0l0,0v0a2.552,2.552,0,0,1-1.161-2.257c0-.012,0-.023,0-.035" transform="translate(-723.789 -504.194)" fill="#fff"/><path d="M736.841,536.408a1.837,1.837,0,0,1,.835-1.554c.3-.112.545.093.638.48a1.515,1.515,0,0,1,.733-.985c.419-.155.717.294.668,1,0,0,.065,1.065-1.614,3.322v0h0l0,0v0a2.573,2.573,0,0,1-1.258-2.23c0-.012,0-.022,0-.034" transform="translate(-721.97 -504.867)" fill="#fff"/><path d="M727.662,539.795a1.752,1.752,0,0,1,.8-1.545c.3-.112.558.089.666.472a1.452,1.452,0,0,1,.715-.98c.421-.156.74.288.713.987,0,0,.1,1.056-1.533,3.3v0h0l0,0v0a2.607,2.607,0,0,1-1.356-2.2Z" transform="translate(-720.138 -505.544)" fill="#fff"/><path d="M718.422,543.2a1.67,1.67,0,0,1,.762-1.536c.307-.114.572.086.695.464a1.4,1.4,0,0,1,.695-.976c.425-.156.766.282.761.974,0,0,.139,1.046-1.453,3.282v0l0,0v0a2.652,2.652,0,0,1-1.455-2.176V543.2" transform="translate(-718.294 -506.226)" fill="#fff"/><path d="M772.589,511.392l-.557,2.749a15.717,15.717,0,0,1-1.291,1.91h-.006a3.013,3.013,0,0,1-.977-2.147,1.964,1.964,0,0,1,.031-.382c0-.012.006-.025.006-.038a2.318,2.318,0,0,1,1-1.7c.308-.106.513.125.557.563a1.844,1.844,0,0,1,.833-1.071.326.326,0,0,1,.4.113" transform="translate(-728.543 -500.262)" fill="#fff"/><path d="M760.485,516.884a2.2,2.2,0,0,1,.962-1.686c.31-.113.531.121.588.552a1.772,1.772,0,0,1,.812-1.062c.427-.155.683.35.572,1.125,0,0-.03,1.178-1.888,3.609v0l0,0,0,0v0a2.836,2.836,0,0,1-1.048-2.5c0-.013,0-.025,0-.038" transform="translate(-726.686 -500.942)" fill="#fff"/><path d="M751.11,520.308a2.1,2.1,0,0,1,.925-1.677c.312-.114.544.117.619.543a1.685,1.685,0,0,1,.792-1.057c.431-.158.708.342.619,1.112,0,0,.008,1.168-1.8,3.588v0l0,0,0,0v0a2.842,2.842,0,0,1-1.15-2.475l0-.037" transform="translate(-724.817 -501.627)" fill="#fff"/><path d="M741.671,523.754a2.006,2.006,0,0,1,.886-1.668c.314-.115.559.114.648.536a1.626,1.626,0,0,1,.772-1.053c.434-.159.733.336.669,1.1,0,0,.046,1.157-1.722,3.567v0h0l0,0v0a2.858,2.858,0,0,1-1.252-2.446l0-.037" transform="translate(-722.934 -502.316)" fill="#fff"/><path d="M732.164,527.225a1.915,1.915,0,0,1,.848-1.658c.316-.116.573.108.678.527a1.563,1.563,0,0,1,.752-1.049c.437-.158.758.329.717,1.087,0,0,.086,1.147-1.634,3.546v0h0l0,0v0a2.887,2.887,0,0,1-1.358-2.417c0-.013,0-.024,0-.036" transform="translate(-721.037 -503.01)" fill="#fff"/><path d="M722.592,530.719a1.829,1.829,0,0,1,.809-1.649c.319-.115.588.1.708.52a1.493,1.493,0,0,1,.732-1.044c.439-.16.783.323.767,1.072,0,0,.125,1.137-1.548,3.525v0h0l0,0v0a2.919,2.919,0,0,1-1.465-2.388v-.036" transform="translate(-719.127 -503.708)" fill="#fff"/><path d="M767.936,499.916a2.463,2.463,0,0,1,1.041-1.842c.323-.116.545.15.594.629a1.938,1.938,0,0,1,.869-1.154c.447-.161.7.408.559,1.266,0,0-.064,1.305-2.051,3.946v0l0,0,0,0v0a3.292,3.292,0,0,1-1.015-2.8c0-.014,0-.026.006-.041" transform="translate(-728.171 -497.521)" fill="#fff"/><path d="M758.144,503.44a2.355,2.355,0,0,1,1-1.834c.326-.117.56.146.625.621a1.855,1.855,0,0,1,.848-1.149c.45-.162.723.4.611,1.252,0,0-.022,1.294-1.961,3.924v0h0l0,0v0a3.282,3.282,0,0,1-1.126-2.775l0-.041" transform="translate(-726.219 -498.226)" fill="#fff"/><path d="M748.283,506.989a2.252,2.252,0,0,1,.96-1.824c.328-.118.576.141.658.612a1.78,1.78,0,0,1,.827-1.144c.453-.162.75.394.665,1.238,0,0,.019,1.284-1.87,3.9v0h0l0,0v0a3.284,3.284,0,0,1-1.239-2.745c0-.014,0-.026,0-.04" transform="translate(-724.253 -498.935)" fill="#fff"/><path d="M738.35,510.563a2.148,2.148,0,0,1,.917-1.815c.331-.118.592.138.691.6a1.705,1.705,0,0,1,.8-1.141c.456-.164.777.387.719,1.225,0,0,.062,1.274-1.776,3.88v0l0,0,0,0v0a3.3,3.3,0,0,1-1.353-2.716c0-.014,0-.026,0-.04" transform="translate(-722.271 -499.65)" fill="#fff"/><path d="M728.343,514.164a2.046,2.046,0,0,1,.875-1.8c.333-.119.608.133.725.594a1.635,1.635,0,0,1,.782-1.135c.459-.165.805.379.772,1.211,0,0,.106,1.262-1.68,3.858v0l0,0v0a3.324,3.324,0,0,1-1.469-2.684c0-.014,0-.026,0-.04" transform="translate(-720.274 -500.369)" fill="#fff"/><path d="M718.262,517.791a1.954,1.954,0,0,1,.832-1.794c.335-.121.624.128.759.586a1.563,1.563,0,0,1,.759-1.131c.464-.167.835.371.829,1.2,0,0,.15,1.252-1.585,3.835v0l0,0,0,0v0a3.369,3.369,0,0,1-1.588-2.654c0-.013,0-.026,0-.039" transform="translate(-718.262 -501.095)" fill="#fff"/></g></g><g transform="translate(658.993 495.99)" opacity="0.8" style="mix-blend-mode:multiply;isolation:isolate"><g clip-path="url(#o)"><path d="M660.108,505.959l45.749,15.919,0,1.146-45.665-16.671Z" transform="translate(-660.108 -505.959)" fill="#b672a9" fill-rule="evenodd"/></g></g><g transform="translate(671.76 489.399)"><g clip-path="url(#p)"><rect width="15.493" height="60.187" transform="translate(0)" fill="#5d1c5e"/></g></g><g transform="translate(704.739 495.682)" opacity="0.3" style="mix-blend-mode:multiply;isolation:isolate"><g clip-path="url(#q)"><path d="M717.268,521.8l45.8-16.226-.109.531-45.7,16.842Z" transform="translate(-717.265 -505.574)" fill="#b672a9" fill-rule="evenodd"/></g></g><path d="M743.459,500.449l-4.276,57.22,6.495-2.835,12.639-58.322Z" transform="translate(-16.901 -8.083)" fill="#5d1c5e" fill-rule="evenodd"/><g transform="translate(704.546 488.056)" opacity="0.8" style="mix-blend-mode:multiply;isolation:isolate"><g clip-path="url(#r)"><path d="M717.023,496.045l22.012,4.311-4.277,57.22,1.79-44.478,1.117-.366.873-12.293Z" transform="translate(-717.023 -496.045)" fill="#b672a9" fill-rule="evenodd"/></g></g><g transform="translate(684.418 488.056)" opacity="0.8" style="mix-blend-mode:multiply;isolation:isolate"><g clip-path="url(#s)"><path d="M694.711,557.577l-.644-43.987-.814-.283-.687-12.389L712,496.045l-20.127,4.689Z" transform="translate(-691.875 -496.045)" fill="#b672a9" fill-rule="evenodd"/></g></g><path d="M740.762,460.493S730.7,467.2,720.249,487.379l11.536-1.289a115.1,115.1,0,0,1,26.974-27.5Z" transform="translate(-13.121 -0.513)" fill="#7d2f7e" fill-rule="evenodd"/><g transform="translate(726.558 458.082)"><g clip-path="url(#t)"><rect width="20.665" height="32.628" transform="translate(0 0)" fill="#6f2871"/></g></g><path d="M679.251,456.025s-5.794,9.56,3.486,25.936c0,0,12,3.823,22.812,3.617h6.845l-13.332-5.608s-1.37-8.817,2.825-21.493Z" transform="translate(-4.58)" fill="#532654" fill-rule="evenodd"/><g transform="translate(674.672 456.025)"><g clip-path="url(#u)"><path d="M0,0H36.168V29.553H0Z" transform="translate(0 0)" fill="#6f2871"/></g></g><g transform="translate(699.734 482.3)"><g clip-path="url(#v)"><rect width="9.879" height="4.567" transform="translate(0 0)" fill="#532654"/></g></g><path d="M699.09,479.969s-12.259-.825-16.324,1.991a28.743,28.743,0,0,1-3.486-25.936,50.326,50.326,0,0,1,19.811,15.646,37.2,37.2,0,0,0,0,8.3" transform="translate(-4.608)" fill="#7d2f7e" fill-rule="evenodd"/><path d="M693.486,502.245l19.092,5.047,20.33-5.387-20.457,4.525Z" transform="translate(-7.778 -9.159)" fill="#ff87b1" fill-rule="evenodd"/><path d="M715.631,508.184,717,509.666l1.365-1.482Z" transform="translate(-12.199 -10.413)" fill="#ff87b1" fill-rule="evenodd"/><g transform="translate(683.741 459.573)" style="mix-blend-mode:soft-light;isolation:isolate"><g clip-path="url(#w)"><path d="M691.028,461.88a14.334,14.334,0,0,0,3.4,1.28c1.148.118,14.393-1.084,14.951-1.28s-.166-1.421-.166-1.421a56.764,56.764,0,0,1,2.8,5.3A7.869,7.869,0,0,0,707.4,463.4c-3.046-.475-10.244,1.225-10.442,1.541a6.163,6.163,0,0,0,.011,1.928,60.637,60.637,0,0,0-5.944-4.987" transform="translate(-691.028 -460.458)" fill="#fff"/></g></g><g transform="translate(728.56 468.443)" style="mix-blend-mode:soft-light;isolation:isolate"><g clip-path="url(#x)"><path d="M747.144,472.091s.761,2.931,1.168,3.05,14.28-.988,14.844-1.237.785-2.362.785-2.362a48.937,48.937,0,0,1-.755,5.59,7.173,7.173,0,0,0-.821-.329c-.475-.159-13.708.632-14.053.691s-1.286,1.688-1.286,1.688.173-5.786.118-7.09" transform="translate(-747.026 -471.541)" fill="#fff"/></g></g></g></g><g transform="translate(654 136)"><g transform="matrix(1, 0, 0, 1, -1297, -37)" filter="url(#z)"><rect width="188" height="48" rx="24" transform="translate(1297 37)" fill="url(#y)"/></g><rect width="180" height="40" rx="20" transform="translate(4 4)" fill="url(#ab)"/><path d="M-33.381-6.534a3.227,3.227,0,0,1,1.728,1.107,3.176,3.176,0,0,1,.63,2.025,2.912,2.912,0,0,1-1.233,2.52A6.136,6.136,0,0,1-35.847,0h-6.012V-12.6h5.652a5.572,5.572,0,0,1,3.339.864,2.8,2.8,0,0,1,1.179,2.394,3.113,3.113,0,0,1-.459,1.71A2.99,2.99,0,0,1-33.381-6.534Zm-6.678-4.608V-7.11h3.69a3.747,3.747,0,0,0,2.133-.513,1.707,1.707,0,0,0,.747-1.5,1.707,1.707,0,0,0-.747-1.5,3.747,3.747,0,0,0-2.133-.513Zm4.14,9.684a4.262,4.262,0,0,0,2.3-.5,1.754,1.754,0,0,0,.774-1.584q0-2.106-3.078-2.106h-4.14v4.194ZM-19.593-9.54V0h-1.638V-1.44A3.473,3.473,0,0,1-22.608-.3a4.3,4.3,0,0,1-1.863.4A4.163,4.163,0,0,1-27.477-.945a4.107,4.107,0,0,1-1.1-3.105V-9.54h1.728v5.292a2.963,2.963,0,0,0,.666,2.1,2.487,2.487,0,0,0,1.908.711,2.848,2.848,0,0,0,2.16-.828,3.25,3.25,0,0,0,.792-2.34V-9.54Zm11.736,0L-12.483.954a4.732,4.732,0,0,1-1.431,2.052,3.266,3.266,0,0,1-1.971.594,4.166,4.166,0,0,1-1.359-.225,2.79,2.79,0,0,1-1.089-.657l.738-1.3a2.406,2.406,0,0,0,1.71.7,1.65,1.65,0,0,0,1.053-.333A2.84,2.84,0,0,0-14.067.648l.306-.666L-17.973-9.54h1.8l3.33,7.632L-9.549-9.54ZM9.693-12.6V0H8.217L.657-9.4V0h-1.8V-12.6H.333l7.56,9.4v-9.4ZM17.307.108a5.173,5.173,0,0,1-2.556-.63,4.569,4.569,0,0,1-1.773-1.737,4.931,4.931,0,0,1-.639-2.511,4.931,4.931,0,0,1,.639-2.511,4.506,4.506,0,0,1,1.773-1.728,5.233,5.233,0,0,1,2.556-.621,5.182,5.182,0,0,1,2.547.621,4.522,4.522,0,0,1,1.764,1.728,4.931,4.931,0,0,1,.639,2.511,4.931,4.931,0,0,1-.639,2.511A4.586,4.586,0,0,1,19.854-.522,5.123,5.123,0,0,1,17.307.108Zm0-1.512a3.221,3.221,0,0,0,1.647-.423A2.986,2.986,0,0,0,20.1-3.015a3.629,3.629,0,0,0,.414-1.755A3.629,3.629,0,0,0,20.1-6.525,2.924,2.924,0,0,0,18.954-7.7a3.276,3.276,0,0,0-1.647-.414A3.276,3.276,0,0,0,15.66-7.7a2.985,2.985,0,0,0-1.152,1.179,3.566,3.566,0,0,0-.423,1.755,3.566,3.566,0,0,0,.423,1.755A3.048,3.048,0,0,0,15.66-1.827,3.221,3.221,0,0,0,17.307-1.4ZM38.817-9.54,35.253,0H33.6L30.843-7.236,28.053,0H26.4L22.851-9.54h1.638l2.772,7.6,2.88-7.6H31.6l2.826,7.632L37.269-9.54Zm1.512-3.06h2.034l-.342,8.622H40.653ZM41.355.108a1.165,1.165,0,0,1-.846-.333,1.1,1.1,0,0,1-.342-.819,1.1,1.1,0,0,1,.342-.819,1.165,1.165,0,0,1,.846-.333,1.105,1.105,0,0,1,.828.333,1.129,1.129,0,0,1,.324.819,1.113,1.113,0,0,1-.333.819A1.113,1.113,0,0,1,41.355.108Z" transform="translate(94 30)"/></g><g transform="translate(899.579 128.861)"><path d="M8.3,10.885,5.71,8.3,3.123,10.884A1.829,1.829,0,0,1,.535,8.3L3.123,5.709.537,3.123A1.829,1.829,0,0,1,3.124.535L5.711,3.122,8.3.535a1.83,1.83,0,1,1,2.588,2.588L8.3,5.709,10.885,8.3A1.83,1.83,0,0,1,8.3,10.885Z" transform="translate(0 0)" fill="#610000" opacity="0.21"/></g><path d="M-143.086.269l-3.648-17.134-.3-1.366a3.041,3.041,0,0,0-.276-1.2,4.942,4.942,0,0,0-1.409-.19l-.255-.014.255-1.317h8.125l-.255,1.317h-.269q-1.416,0-1.416.874a11.124,11.124,0,0,0,.283,1.93l2.573,12.149,7.348-12.089a11.041,11.041,0,0,0,1.3-2.441q0-.423-1.515-.423h-.255l.269-1.317h5.318l-.269,1.317-.255.014a2.2,2.2,0,0,0-1.232.31,26.692,26.692,0,0,0-1.628,2.494L-140.981.269ZM-119.774,0l1.306-6.556a15.527,15.527,0,0,1-3.624,4.977A6.391,6.391,0,0,1-126.224.354a2.845,2.845,0,0,1-2.26-1.041,3.9,3.9,0,0,1-.89-2.627A12.484,12.484,0,0,1-128.1-8.56a14.564,14.564,0,0,1,3.336-4.652,9.174,9.174,0,0,1,6.475-2.521q.466,0,1.735.127.169.028.55.057h3.47l-2.236,11.435-.227,1.491-.085.326q0,.852,1.77.965l.255.014L-113.323,0Zm1.851-9.289.839-4.206a5.421,5.421,0,0,0-2.728-.864q-3.431,0-4.879,7.188a18.2,18.2,0,0,0-.436,3.034,1.7,1.7,0,0,0,.261,1.028.916.916,0,0,0,.782.347q1.748,0,5.878-6.1Q-118.135-8.963-117.923-9.289ZM-110.541,0l3.638-18.252.3-1.817q0-.831-1.756-.944l-.269-.028.269-1.317h6.449l-3.624,18.251q-.312,1.757-.312,1.828,0,.836,1.77.949l.255.014L-104.091,0Zm22.954-3.866L-88-1.926A18.338,18.338,0,0,1-95.843.354a5.845,5.845,0,0,1-4.114-1.423,4.894,4.894,0,0,1-1.551-3.788,10.934,10.934,0,0,1,3.158-7.661A9.558,9.558,0,0,1-91.213-15.9a4.1,4.1,0,0,1,2.719.9,2.836,2.836,0,0,1,1.076,2.273q0,2.7-2.9,4.673a11.991,11.991,0,0,1-6.9,1.968q-.028.4-.028.708a3.514,3.514,0,0,0,.927,2.556,3.3,3.3,0,0,0,2.485.956A14.086,14.086,0,0,0-87.588-3.866Zm-9.459-3.583A6.475,6.475,0,0,0-92.954-8.7,3.862,3.862,0,0,0-91.34-11.88a3.185,3.185,0,0,0-.411-1.8A1.412,1.412,0,0,0-93-14.273q-1.458,0-2.6,1.919A11.994,11.994,0,0,0-97.047-7.448ZM-85.209,0l2.281-11.441q.17-.977.312-1.827,0-.835-1.77-.949l-.255-.014.255-1.317h6.449l-1.3,6.538a16.919,16.919,0,0,1,3.75-5.059,6.3,6.3,0,0,1,4.09-1.833,2.455,2.455,0,0,1,1.857.814,2.778,2.778,0,0,1,.765,1.975,10.985,10.985,0,0,1-.241,1.954l-1.406,7.051q-.312,1.757-.312,1.828,0,.836,1.77.949l.255.014L-68.974,0h-6.45l2.185-10.96a5.993,5.993,0,0,0,.127-1.1q0-.731-.553-.731-1.688,0-6.127,6.586L-81.022,0Zm29.227-14.146h-3.543l-1.788,8.9a11.884,11.884,0,0,0-.3,2.158,1.619,1.619,0,0,0,.437,1.235,1.856,1.856,0,0,0,1.316.412,3.456,3.456,0,0,0,1.426-.4l-.326,1.628A9.691,9.691,0,0,1-61.7.354,4.871,4.871,0,0,1-64.8-.474a2.981,2.981,0,0,1-1.031-2.471,8.707,8.707,0,0,1,.212-1.728l1.916-9.473h-2.281l.411-1.4h2.122l.54-2.648,4.333-.75-.672,3.4H-55.6ZM-55.331,0l2.281-11.441.312-1.827q0-.835-1.77-.949l-.255-.014.255-1.317h6.464l-2.28,11.44-.227,1.487-.071.34q0,.836,1.756.949l.255.014L-48.867,0Zm3.611-18.167.736-3.667h4.191l-.722,3.667ZM-46.07,0l2.281-11.441q.17-.977.312-1.827,0-.835-1.77-.949l-.255-.014.255-1.317H-38.8L-40.1-9.01a16.919,16.919,0,0,1,3.75-5.059,6.3,6.3,0,0,1,4.09-1.833,2.455,2.455,0,0,1,1.857.814,2.778,2.778,0,0,1,.765,1.975,10.985,10.985,0,0,1-.241,1.954L-31.28-4.108q-.312,1.757-.312,1.828,0,.836,1.77.949l.255.014L-29.835,0h-6.45L-34.1-10.96a5.993,5.993,0,0,0,.127-1.1q0-.731-.553-.731-1.688,0-6.127,6.586L-41.883,0Zm32.54-3.866-.411,1.94A18.338,18.338,0,0,1-21.785.354,5.845,5.845,0,0,1-25.9-1.069a4.894,4.894,0,0,1-1.551-3.788,10.934,10.934,0,0,1,3.158-7.661A9.558,9.558,0,0,1-17.155-15.9a4.1,4.1,0,0,1,2.719.9A2.836,2.836,0,0,1-13.36-12.73q0,2.7-2.9,4.673a11.991,11.991,0,0,1-6.9,1.968q-.028.4-.028.708a3.514,3.514,0,0,0,.927,2.556,3.3,3.3,0,0,0,2.485.956A14.086,14.086,0,0,0-13.53-3.866Zm-9.459-3.583A6.475,6.475,0,0,0-18.9-8.7a3.862,3.862,0,0,0,1.614-3.179,3.185,3.185,0,0,0-.411-1.8,1.412,1.412,0,0,0-1.246-.595q-1.458,0-2.6,1.919A11.994,11.994,0,0,0-22.989-7.448Zm15.647-6.174L-8.9-22.359h4.545l-1.558,8.737ZM-5.006-.694-4.3-4.276h1.742l-.042.255q-.071.524-.17,1.444A1.361,1.361,0,0,0-1.9-1.423,4.381,4.381,0,0,0,.227-.949a2.606,2.606,0,0,0,1.9-.758A2.488,2.488,0,0,0,2.9-3.554,3.479,3.479,0,0,0,1.607-5.876L.474-7q-2.648-2.62-2.648-4.418a3.8,3.8,0,0,1,1.763-3.25A7.9,7.9,0,0,1,4.227-15.9a14.569,14.569,0,0,1,4.234.666l-.708,3.625H6.011l.028-.269.212-1.543q0-1.232-2-1.232a3.011,3.011,0,0,0-2.01.581,2.172,2.172,0,0,0-.675,1.742A3.723,3.723,0,0,0,3.023-9.785L4.17-8.723Q6.846-6.245,6.846-4.446A4.129,4.129,0,0,1,5.069-.963,7.672,7.672,0,0,1,.389.354,14.768,14.768,0,0,1-5.006-.694ZM17.308,0l.255-1.317.269-.014a3.255,3.255,0,0,0,1.8-.418A7.413,7.413,0,0,0,20.4-4.106l2.543-12.758.312-1.8q0-.817-1.756-.958l-.269-.014.269-1.317h9.321a28.2,28.2,0,0,1,5.086.326,6.5,6.5,0,0,1,2.8,1.289q2.341,1.883,2.341,5.749a13.679,13.679,0,0,1-3.6,9.763A12.069,12.069,0,0,1,28.246,0ZM27.933-19.612l-3.1,15.5a8.23,8.23,0,0,0-.142,1.577.765.765,0,0,0,.412.781,5.308,5.308,0,0,0,1.776.185,8.5,8.5,0,0,0,6.957-3.313,13.428,13.428,0,0,0,2.665-8.68q0-3.313-1.7-4.68t-5.838-1.366ZM51.762,0l1.306-6.556a15.527,15.527,0,0,1-3.624,4.977A6.391,6.391,0,0,1,45.312.354a2.845,2.845,0,0,1-2.26-1.041,3.9,3.9,0,0,1-.89-2.627A12.484,12.484,0,0,1,43.438-8.56a14.564,14.564,0,0,1,3.336-4.652,9.174,9.174,0,0,1,6.475-2.521q.466,0,1.735.127.169.028.55.057H59L56.769-4.113l-.227,1.491-.085.326q0,.852,1.77.965l.255.014L58.213,0Zm1.851-9.289.839-4.206a5.421,5.421,0,0,0-2.728-.864q-3.431,0-4.879,7.188a18.2,18.2,0,0,0-.436,3.034,1.7,1.7,0,0,0,.261,1.028.916.916,0,0,0,.782.347q1.748,0,5.878-6.1Q53.4-8.963,53.613-9.289ZM57.865,5.593A31.542,31.542,0,0,0,65.688-.453,66.527,66.527,0,0,0,63.46-11.385,9.25,9.25,0,0,0,62.4-13.728a1.587,1.587,0,0,0-1.3-.489l-.425-.014.255-1.317h5.516A49.059,49.059,0,0,1,68.94-4.572L70-5.83q3.947-4.7,3.947-6.6a4.169,4.169,0,0,0-1.473-3.116h4.829a3.734,3.734,0,0,1,.34,1.416,4.943,4.943,0,0,1-.916,2.761Q75.816-10,71.813-5.409L68.55-1.675A48.869,48.869,0,0,0,63.2,5.593ZM86.639-.34l.85-4.276h2.1l-.028.268q-.2,1.552-.2,1.651,0,.719,1.14,1.291a5.721,5.721,0,0,0,2.6.571A3.552,3.552,0,0,0,95.779-2.11a4.194,4.194,0,0,0,1.168-2.917q0-1.9-2.733-3.993l-.935-.708q-3.54-2.719-3.54-5.282a5.725,5.725,0,0,1,2.251-4.645,8.787,8.787,0,0,1,5.721-1.827,22.451,22.451,0,0,1,5.777.906l-.821,4.149h-2.1l.042-.255.227-1.728q0-.708-.935-1.2a4.882,4.882,0,0,0-2.308-.5,3.513,3.513,0,0,0-2.634,1.048,3.679,3.679,0,0,0-1.02,2.676q0,1.572,2.351,3.455l1.292,1.015a15.853,15.853,0,0,1,3.126,3.053,4.791,4.791,0,0,1,.806,2.741A5.645,5.645,0,0,1,98.9-1.339,11.337,11.337,0,0,1,92.176.524,15.759,15.759,0,0,1,89.811.308Q88.423.092,86.639-.34ZM113.218,0l1.306-6.556A15.527,15.527,0,0,1,110.9-1.579,6.391,6.391,0,0,1,106.767.354a2.845,2.845,0,0,1-2.26-1.041,3.9,3.9,0,0,1-.89-2.627,12.484,12.484,0,0,1,1.277-5.246,14.564,14.564,0,0,1,3.336-4.652,9.174,9.174,0,0,1,6.475-2.521q.466,0,1.735.127.169.028.55.057h3.47L118.224-4.113,118-2.623l-.085.326q0,.852,1.77.965l.255.014L119.668,0Zm1.851-9.289.839-4.206a5.421,5.421,0,0,0-2.728-.864q-3.431,0-4.879,7.188a18.2,18.2,0,0,0-.436,3.034,1.7,1.7,0,0,0,.261,1.028.916.916,0,0,0,.782.347q1.748,0,5.878-6.1Q114.857-8.963,115.068-9.289ZM122.45,0l3.638-18.252.3-1.817q0-.831-1.756-.944l-.269-.028.269-1.317h6.449L127.456-4.108q-.312,1.757-.312,1.828,0,.836,1.77.949l.255.014L128.9,0ZM145.4-3.866l-.411,1.94a18.338,18.338,0,0,1-7.845,2.28,5.845,5.845,0,0,1-4.114-1.423,4.894,4.894,0,0,1-1.551-3.788,10.934,10.934,0,0,1,3.158-7.661,9.558,9.558,0,0,1,7.137-3.384,4.1,4.1,0,0,1,2.719.9,2.836,2.836,0,0,1,1.076,2.273q0,2.7-2.9,4.673a11.991,11.991,0,0,1-6.9,1.968q-.028.4-.028.708a3.514,3.514,0,0,0,.927,2.556,3.3,3.3,0,0,0,2.485.956A14.086,14.086,0,0,0,145.4-3.866Zm-9.459-3.583A6.475,6.475,0,0,0,140.037-8.7a3.862,3.862,0,0,0,1.614-3.179,3.185,3.185,0,0,0-.411-1.8,1.412,1.412,0,0,0-1.246-.595q-1.459,0-2.6,1.919A11.994,11.994,0,0,0,135.945-7.448ZM146.9,0l.7-3.5h4.187l-.7,3.5ZM149.1-5.933l1.149-10.833.835-4.191h4.187l-.835,4.191L151.278-5.933Z" transform="translate(-19 169)" fill="#f3b87a"/><path d="M-83.244.288a7.6,7.6,0,0,1-5.6-1.992,7.669,7.669,0,0,1-2-5.688V-16.8h3.888v9.264q0,4.512,3.744,4.512a3.509,3.509,0,0,0,2.784-1.092,5.09,5.09,0,0,0,.96-3.42V-16.8h3.84v9.408a7.669,7.669,0,0,1-2,5.688A7.6,7.6,0,0,1-83.244.288ZM-64.428-13.1a6.58,6.58,0,0,1,3.276.828,5.946,5.946,0,0,1,2.316,2.328A7.028,7.028,0,0,1-58-6.456a7.028,7.028,0,0,1-.84,3.492A5.946,5.946,0,0,1-61.152-.636a6.58,6.58,0,0,1-3.276.828,4.987,4.987,0,0,1-3.888-1.56V4.656H-72.06V-12.912h3.576v1.488A4.966,4.966,0,0,1-64.428-13.1ZM-65.076-2.88a3.118,3.118,0,0,0,2.364-.972,3.623,3.623,0,0,0,.924-2.6,3.623,3.623,0,0,0-.924-2.6,3.118,3.118,0,0,0-2.364-.972,3.118,3.118,0,0,0-2.364.972,3.623,3.623,0,0,0-.924,2.6,3.623,3.623,0,0,0,.924,2.6A3.118,3.118,0,0,0-65.076-2.88Zm24.7,2.256a3.848,3.848,0,0,1-1.356.612,6.856,6.856,0,0,1-1.692.2A5.027,5.027,0,0,1-46.992-.984a4.5,4.5,0,0,1-1.26-3.456v-5.3h-1.992v-2.88h1.992v-3.144h3.744v3.144h3.216v2.88h-3.216v5.256a1.763,1.763,0,0,0,.42,1.26,1.557,1.557,0,0,0,1.188.444,2.406,2.406,0,0,0,1.512-.48Zm7.848.816a7.742,7.742,0,0,1-3.66-.852,6.334,6.334,0,0,1-2.532-2.364,6.514,6.514,0,0,1-.912-3.432,6.514,6.514,0,0,1,.912-3.432,6.334,6.334,0,0,1,2.532-2.364,7.742,7.742,0,0,1,3.66-.852,7.671,7.671,0,0,1,3.648.852,6.353,6.353,0,0,1,2.52,2.364,6.514,6.514,0,0,1,.912,3.432,6.514,6.514,0,0,1-.912,3.432A6.353,6.353,0,0,1-28.884-.66,7.671,7.671,0,0,1-32.532.192Zm0-3.072a3.118,3.118,0,0,0,2.364-.972,3.623,3.623,0,0,0,.924-2.6,3.623,3.623,0,0,0-.924-2.6,3.118,3.118,0,0,0-2.364-.972,3.157,3.157,0,0,0-2.376.972,3.6,3.6,0,0,0-.936,2.6,3.6,3.6,0,0,0,.936,2.6A3.157,3.157,0,0,0-32.532-2.88ZM-3.588-16.8v2.976L-9.516,0H-14.7l5.664-13.032h-4.416v2.592h-4.056V-16.8ZM4.86.336A7.187,7.187,0,0,1,1.02-.7,6.942,6.942,0,0,1-1.608-3.708,10.768,10.768,0,0,1-2.556-8.4a10.768,10.768,0,0,1,.948-4.692A6.942,6.942,0,0,1,1.02-16.1a7.187,7.187,0,0,1,3.84-1.032A7.142,7.142,0,0,1,8.676-16.1,6.942,6.942,0,0,1,11.3-13.092,10.768,10.768,0,0,1,12.252-8.4,10.768,10.768,0,0,1,11.3-3.708,6.942,6.942,0,0,1,8.676-.7,7.142,7.142,0,0,1,4.86.336Zm0-3.888A2.152,2.152,0,0,0,6.768-4.716,7.334,7.334,0,0,0,7.476-8.4a7.334,7.334,0,0,0-.708-3.684A2.152,2.152,0,0,0,4.86-13.248a2.169,2.169,0,0,0-1.932,1.164A7.334,7.334,0,0,0,2.22-8.4a7.334,7.334,0,0,0,.708,3.684A2.169,2.169,0,0,0,4.86-3.552ZM17.892-7.7a4.1,4.1,0,0,1-3.1-1.248,4.711,4.711,0,0,1-1.2-3.408,5.264,5.264,0,0,1,.552-2.472,3.926,3.926,0,0,1,1.524-1.62,4.342,4.342,0,0,1,2.22-.564,4.114,4.114,0,0,1,3.12,1.26,4.72,4.72,0,0,1,1.2,3.4,4.711,4.711,0,0,1-1.2,3.408A4.134,4.134,0,0,1,17.892-7.7Zm9.936-9.1h3.456L19.812,0H16.356ZM17.892-9.984a1.184,1.184,0,0,0,1.032-.576,3.308,3.308,0,0,0,.384-1.8,3.308,3.308,0,0,0-.384-1.8,1.184,1.184,0,0,0-1.032-.576,1.188,1.188,0,0,0-1.02.588,3.235,3.235,0,0,0-.4,1.788,3.235,3.235,0,0,0,.4,1.788A1.188,1.188,0,0,0,17.892-9.984ZM29.748.216A4.1,4.1,0,0,1,26.64-1.032,4.74,4.74,0,0,1,25.452-4.44a4.72,4.72,0,0,1,1.2-3.4,4.085,4.085,0,0,1,3.1-1.26,4.114,4.114,0,0,1,3.12,1.26,4.72,4.72,0,0,1,1.2,3.4,4.711,4.711,0,0,1-1.2,3.408A4.134,4.134,0,0,1,29.748.216Zm0-2.28A1.184,1.184,0,0,0,30.78-2.64a3.308,3.308,0,0,0,.384-1.8,3.308,3.308,0,0,0-.384-1.8,1.184,1.184,0,0,0-1.032-.576,1.184,1.184,0,0,0-1.032.576,3.308,3.308,0,0,0-.384,1.8,3.308,3.308,0,0,0,.384,1.8A1.184,1.184,0,0,0,29.748-2.064ZM51.732.336A10.048,10.048,0,0,1,46.944-.792a8.475,8.475,0,0,1-3.336-3.12A8.462,8.462,0,0,1,42.4-8.4a8.462,8.462,0,0,1,1.212-4.488,8.475,8.475,0,0,1,3.336-3.12,10.048,10.048,0,0,1,4.788-1.128,10.048,10.048,0,0,1,4.788,1.128,8.475,8.475,0,0,1,3.336,3.12A8.462,8.462,0,0,1,61.068-8.4a8.462,8.462,0,0,1-1.212,4.488A8.475,8.475,0,0,1,56.52-.792,10.048,10.048,0,0,1,51.732.336Zm0-3.936a4.5,4.5,0,0,0,2.3-.6,4.316,4.316,0,0,0,1.632-1.692,5.123,5.123,0,0,0,.6-2.508,5.123,5.123,0,0,0-.6-2.508A4.316,4.316,0,0,0,54.036-12.6a4.5,4.5,0,0,0-2.3-.6,4.5,4.5,0,0,0-2.3.6A4.316,4.316,0,0,0,47.8-10.908,5.123,5.123,0,0,0,47.2-8.4a5.123,5.123,0,0,0,.6,2.508A4.316,4.316,0,0,0,49.428-4.2,4.5,4.5,0,0,0,51.732-3.6Zm16.584-9.528v3.7h7.416V-5.76H68.316V0H63.564V-16.8H76.74v3.672Zm15.408,0v3.7H91.14V-5.76H83.724V0H78.972V-16.8H92.148v3.672Z" transform="translate(402 157)" fill="#ffeb9b"/><path d="M-186.936-5.808a2.869,2.869,0,0,1,1.536.984,2.823,2.823,0,0,1,.56,1.8,2.588,2.588,0,0,1-1.1,2.24A5.454,5.454,0,0,1-189.128,0h-5.344V-11.2h5.024a4.953,4.953,0,0,1,2.968.768A2.491,2.491,0,0,1-185.432-8.3a2.767,2.767,0,0,1-.408,1.52A2.658,2.658,0,0,1-186.936-5.808Zm-5.936-4.1V-6.32h3.28a3.331,3.331,0,0,0,1.9-.456,1.518,1.518,0,0,0,.664-1.336,1.518,1.518,0,0,0-.664-1.336,3.331,3.331,0,0,0-1.9-.456Zm3.68,8.608a3.788,3.788,0,0,0,2.048-.448,1.559,1.559,0,0,0,.688-1.408q0-1.872-2.736-1.872h-3.68V-1.3ZM-174.68-8.48V0h-1.456V-1.28A3.087,3.087,0,0,1-177.36-.264a3.819,3.819,0,0,1-1.656.36,3.7,3.7,0,0,1-2.672-.936,3.651,3.651,0,0,1-.976-2.76V-8.48h1.536v4.7a2.633,2.633,0,0,0,.592,1.864,2.211,2.211,0,0,0,1.7.632,2.531,2.531,0,0,0,1.92-.736,2.889,2.889,0,0,0,.7-2.08V-8.48Zm10.432,0L-168.36.848a4.207,4.207,0,0,1-1.272,1.824,2.9,2.9,0,0,1-1.752.528,3.7,3.7,0,0,1-1.208-.2,2.48,2.48,0,0,1-.968-.584l.656-1.152a2.139,2.139,0,0,0,1.52.624,1.466,1.466,0,0,0,.936-.3,2.524,2.524,0,0,0,.68-1.016l.272-.592L-173.24-8.48h1.6l2.96,6.784,2.928-6.784Zm13.1,5.68H-157.1L-158.328,0h-1.648l5.072-11.2h1.584L-148.232,0h-1.68Zm-.56-1.28-2.416-5.488-2.416,5.488Zm19.072-7.12V0h-1.6V-4.992h-6.432V0h-1.6V-11.2h1.6v4.816h6.432V-11.2Zm11.04,2.72V0h-1.456V-1.28a3.087,3.087,0,0,1-1.224,1.016,3.819,3.819,0,0,1-1.656.36A3.7,3.7,0,0,1-128.6-.84a3.651,3.651,0,0,1-.976-2.76V-8.48h1.536v4.7a2.633,2.633,0,0,0,.592,1.864,2.211,2.211,0,0,0,1.7.632,2.531,2.531,0,0,0,1.92-.736,2.889,2.889,0,0,0,.7-2.08V-8.48Zm7.456-.08a3.5,3.5,0,0,1,2.568.936,3.682,3.682,0,0,1,.952,2.744V0h-1.536V-4.7a2.6,2.6,0,0,0-.592-1.856,2.227,2.227,0,0,0-1.7-.624,2.643,2.643,0,0,0-1.968.728,2.844,2.844,0,0,0-.72,2.088V0h-1.536V-8.48h1.472V-7.2a2.986,2.986,0,0,1,1.256-1.008A4.389,4.389,0,0,1-114.136-8.56Zm14.416-3.312V0h-1.472V-1.344a3.326,3.326,0,0,1-1.3,1.072A4.016,4.016,0,0,1-104.216.1a4.457,4.457,0,0,1-2.208-.544,3.9,3.9,0,0,1-1.528-1.528A4.548,4.548,0,0,1-108.5-4.24a4.5,4.5,0,0,1,.552-2.256,3.913,3.913,0,0,1,1.528-1.52,4.457,4.457,0,0,1,2.208-.544,4.063,4.063,0,0,1,1.68.344,3.261,3.261,0,0,1,1.28,1.016v-4.672Zm-4.368,10.624a2.876,2.876,0,0,0,1.456-.376,2.638,2.638,0,0,0,1.024-1.056,3.226,3.226,0,0,0,.368-1.56,3.226,3.226,0,0,0-.368-1.56,2.584,2.584,0,0,0-1.024-1.048,2.925,2.925,0,0,0-1.456-.368,2.912,2.912,0,0,0-1.464.368A2.653,2.653,0,0,0-106.576-5.8a3.17,3.17,0,0,0-.376,1.56,3.17,3.17,0,0,0,.376,1.56,2.709,2.709,0,0,0,1.024,1.056A2.863,2.863,0,0,0-104.088-1.248Zm8.752-5.808a2.621,2.621,0,0,1,1.184-1.12,4.3,4.3,0,0,1,1.9-.384v1.488a3,3,0,0,0-.352-.016,2.584,2.584,0,0,0-1.96.744,2.945,2.945,0,0,0-.712,2.12V0h-1.536V-8.48h1.472Zm12.56,2.864a4.4,4.4,0,0,1-.032.464h-6.88a2.663,2.663,0,0,0,.984,1.8,3.211,3.211,0,0,0,2.088.68,3.145,3.145,0,0,0,2.448-1.024l.848.992A3.714,3.714,0,0,1-84.752-.256,4.984,4.984,0,0,1-86.664.1a5.008,5.008,0,0,1-2.384-.552A3.937,3.937,0,0,1-90.656-2a4.427,4.427,0,0,1-.568-2.24,4.5,4.5,0,0,1,.552-2.224,3.954,3.954,0,0,1,1.52-1.544,4.33,4.33,0,0,1,2.184-.552,4.242,4.242,0,0,1,2.168.552,3.876,3.876,0,0,1,1.488,1.544A4.7,4.7,0,0,1-82.776-4.192Zm-4.192-3.072a2.655,2.655,0,0,0-1.848.672,2.709,2.709,0,0,0-.872,1.76h5.44a2.727,2.727,0,0,0-.872-1.752A2.636,2.636,0,0,0-86.968-7.264Zm14.32-4.608V0H-74.12V-1.344a3.326,3.326,0,0,1-1.3,1.072A4.016,4.016,0,0,1-77.144.1a4.457,4.457,0,0,1-2.208-.544A3.9,3.9,0,0,1-80.88-1.976a4.548,4.548,0,0,1-.552-2.264A4.5,4.5,0,0,1-80.88-6.5a3.913,3.913,0,0,1,1.528-1.52,4.457,4.457,0,0,1,2.208-.544,4.063,4.063,0,0,1,1.68.344A3.261,3.261,0,0,1-74.184-7.2v-4.672ZM-77.016-1.248a2.876,2.876,0,0,0,1.456-.376A2.638,2.638,0,0,0-74.536-2.68a3.226,3.226,0,0,0,.368-1.56,3.226,3.226,0,0,0-.368-1.56A2.584,2.584,0,0,0-75.56-6.848a2.925,2.925,0,0,0-1.456-.368,2.912,2.912,0,0,0-1.464.368A2.653,2.653,0,0,0-79.5-5.8a3.17,3.17,0,0,0-.376,1.56A3.17,3.17,0,0,0-79.5-2.68,2.709,2.709,0,0,0-78.48-1.624,2.863,2.863,0,0,0-77.016-1.248ZM-65.208-11.2h1.6V0h-1.6Zm9.264,2.64a3.5,3.5,0,0,1,2.568.936,3.682,3.682,0,0,1,.952,2.744V0H-53.96V-4.7a2.6,2.6,0,0,0-.592-1.856,2.227,2.227,0,0,0-1.7-.624,2.643,2.643,0,0,0-1.968.728,2.844,2.844,0,0,0-.72,2.088V0h-1.536V-8.48H-59V-7.2a2.985,2.985,0,0,1,1.256-1.008A4.389,4.389,0,0,1-55.944-8.56ZM-47.144.1a7.106,7.106,0,0,1-2-.28,4.392,4.392,0,0,1-1.5-.712l.64-1.216a4.594,4.594,0,0,0,1.36.64,5.6,5.6,0,0,0,1.616.24q2.016,0,2.016-1.152a.746.746,0,0,0-.272-.608,1.722,1.722,0,0,0-.68-.328q-.408-.1-1.16-.232A11.368,11.368,0,0,1-48.8-3.92a2.577,2.577,0,0,1-1.112-.7,1.959,1.959,0,0,1-.464-1.392,2.174,2.174,0,0,1,.96-1.848,4.3,4.3,0,0,1,2.576-.7,7.1,7.1,0,0,1,1.7.208,4.561,4.561,0,0,1,1.392.56l-.656,1.216a4.411,4.411,0,0,0-2.448-.672,2.83,2.83,0,0,0-1.488.32.966.966,0,0,0-.512.848.808.808,0,0,0,.288.656,1.821,1.821,0,0,0,.712.352q.424.112,1.192.256a12.937,12.937,0,0,1,1.656.376,2.473,2.473,0,0,1,1.08.68,1.894,1.894,0,0,1,.448,1.344,2.119,2.119,0,0,1-.984,1.832A4.647,4.647,0,0,1-47.144.1ZM-36.792-.5a2.292,2.292,0,0,1-.832.44A3.475,3.475,0,0,1-38.648.1a2.72,2.72,0,0,1-1.984-.688,2.627,2.627,0,0,1-.7-1.968V-7.216h-1.44V-8.48h1.44v-1.856H-39.8V-8.48h2.432v1.264H-39.8v4.592a1.49,1.49,0,0,0,.344,1.056,1.281,1.281,0,0,0,.984.368,1.851,1.851,0,0,0,1.2-.4Zm4.944-8.064a3.835,3.835,0,0,1,2.7.864,3.336,3.336,0,0,1,.936,2.576V0h-1.456V-1.12a2.428,2.428,0,0,1-1.1.9A4.183,4.183,0,0,1-32.456.1a3.533,3.533,0,0,1-2.28-.688A2.207,2.207,0,0,1-35.592-2.4a2.227,2.227,0,0,1,.816-1.8,4.021,4.021,0,0,1,2.592-.68h2.432v-.3a1.958,1.958,0,0,0-.576-1.52,2.43,2.43,0,0,0-1.7-.528,4.49,4.49,0,0,0-1.472.248,3.792,3.792,0,0,0-1.216.664l-.64-1.152a4.644,4.644,0,0,1,1.568-.808A6.561,6.561,0,0,1-31.848-8.56ZM-32.2-1.088a2.853,2.853,0,0,0,1.52-.392,2.243,2.243,0,0,0,.928-1.112V-3.776H-32.12q-1.952,0-1.952,1.312a1.187,1.187,0,0,0,.5,1.008A2.268,2.268,0,0,0-32.2-1.088ZM-17.208-8.48v7.328a4.38,4.38,0,0,1-1.1,3.288,4.579,4.579,0,0,1-3.3,1.064A7.884,7.884,0,0,1-23.9,2.872a4.53,4.53,0,0,1-1.76-.936L-24.92.752a4.343,4.343,0,0,0,1.464.808,5.562,5.562,0,0,0,1.8.3,3.02,3.02,0,0,0,2.2-.7,2.9,2.9,0,0,0,.712-2.144v-.672A3.4,3.4,0,0,1-20.08-.68a4.451,4.451,0,0,1-1.72.328A4.635,4.635,0,0,1-24-.872a3.868,3.868,0,0,1-1.544-1.456,4.079,4.079,0,0,1-.56-2.136,4.079,4.079,0,0,1,.56-2.136A3.813,3.813,0,0,1-24-8.048a4.694,4.694,0,0,1,2.2-.512,4.493,4.493,0,0,1,1.784.352,3.312,3.312,0,0,1,1.352,1.04V-8.48ZM-21.624-1.7a3.144,3.144,0,0,0,1.5-.352,2.6,2.6,0,0,0,1.04-.984,2.747,2.747,0,0,0,.376-1.432,2.6,2.6,0,0,0-.816-1.992,2.953,2.953,0,0,0-2.1-.76,2.975,2.975,0,0,0-2.112.76,2.6,2.6,0,0,0-.816,1.992,2.747,2.747,0,0,0,.376,1.432,2.6,2.6,0,0,0,1.04.984A3.179,3.179,0,0,0-21.624-1.7Zm8.816-5.36a2.621,2.621,0,0,1,1.184-1.12,4.3,4.3,0,0,1,1.9-.384v1.488a3,3,0,0,0-.352-.016,2.584,2.584,0,0,0-1.96.744,2.945,2.945,0,0,0-.712,2.12V0H-14.28V-8.48h1.472Zm8.048-1.5a3.835,3.835,0,0,1,2.7.864A3.336,3.336,0,0,1-1.128-5.12V0H-2.584V-1.12a2.428,2.428,0,0,1-1.1.9A4.183,4.183,0,0,1-5.368.1a3.533,3.533,0,0,1-2.28-.688A2.207,2.207,0,0,1-8.5-2.4a2.227,2.227,0,0,1,.816-1.8A4.021,4.021,0,0,1-5.1-4.88h2.432v-.3A1.958,1.958,0,0,0-3.24-6.7a2.43,2.43,0,0,0-1.7-.528,4.49,4.49,0,0,0-1.472.248,3.792,3.792,0,0,0-1.216.664l-.64-1.152A4.644,4.644,0,0,1-6.7-8.28,6.561,6.561,0,0,1-4.76-8.56Zm-.352,7.472a2.853,2.853,0,0,0,1.52-.392,2.243,2.243,0,0,0,.928-1.112V-3.776H-5.032q-1.952,0-1.952,1.312a1.187,1.187,0,0,0,.5,1.008A2.268,2.268,0,0,0-5.112-1.088ZM12.328-8.56a3.444,3.444,0,0,1,2.536.928A3.714,3.714,0,0,1,15.8-4.88V0H14.264V-4.7A2.675,2.675,0,0,0,13.7-6.56a2.084,2.084,0,0,0-1.624-.624,2.432,2.432,0,0,0-1.856.728,2.925,2.925,0,0,0-.688,2.088V0H7.992V-4.7A2.675,2.675,0,0,0,7.424-6.56,2.084,2.084,0,0,0,5.8-7.184a2.432,2.432,0,0,0-1.856.728,2.925,2.925,0,0,0-.688,2.088V0H1.72V-8.48H3.192v1.264a2.976,2.976,0,0,1,1.216-1A4.072,4.072,0,0,1,6.12-8.56a3.755,3.755,0,0,1,1.76.4A2.78,2.78,0,0,1,9.064-6.992,3.249,3.249,0,0,1,10.4-8.144,4.354,4.354,0,0,1,12.328-8.56ZM24.76-9.808v3.9h5.616v1.376H24.76V0h-1.6V-11.2h7.9v1.392ZM36.456.1a4.6,4.6,0,0,1-2.272-.56,4.061,4.061,0,0,1-1.576-1.544A4.383,4.383,0,0,1,32.04-4.24a4.383,4.383,0,0,1,.568-2.232,4.005,4.005,0,0,1,1.576-1.536,4.652,4.652,0,0,1,2.272-.552,4.606,4.606,0,0,1,2.264.552,4.02,4.02,0,0,1,1.568,1.536,4.383,4.383,0,0,1,.568,2.232,4.383,4.383,0,0,1-.568,2.232A4.076,4.076,0,0,1,38.72-.464,4.553,4.553,0,0,1,36.456.1Zm0-1.344a2.863,2.863,0,0,0,1.464-.376A2.654,2.654,0,0,0,38.936-2.68,3.226,3.226,0,0,0,39.3-4.24a3.226,3.226,0,0,0-.368-1.56A2.6,2.6,0,0,0,37.92-6.848a2.912,2.912,0,0,0-1.464-.368,2.912,2.912,0,0,0-1.464.368A2.653,2.653,0,0,0,33.968-5.8a3.17,3.17,0,0,0-.376,1.56,3.17,3.17,0,0,0,.376,1.56,2.709,2.709,0,0,0,1.024,1.056A2.863,2.863,0,0,0,36.456-1.248Zm6.528-10.624H44.52V0H42.984Zm4.464,0h1.536V0H47.448ZM55.544.1a4.6,4.6,0,0,1-2.272-.56A4.061,4.061,0,0,1,51.7-2.008a4.383,4.383,0,0,1-.568-2.232A4.383,4.383,0,0,1,51.7-6.472a4.005,4.005,0,0,1,1.576-1.536,4.652,4.652,0,0,1,2.272-.552,4.606,4.606,0,0,1,2.264.552,4.02,4.02,0,0,1,1.568,1.536,4.383,4.383,0,0,1,.568,2.232,4.383,4.383,0,0,1-.568,2.232A4.076,4.076,0,0,1,57.808-.464,4.553,4.553,0,0,1,55.544.1Zm0-1.344a2.863,2.863,0,0,0,1.464-.376A2.654,2.654,0,0,0,58.024-2.68a3.226,3.226,0,0,0,.368-1.56,3.226,3.226,0,0,0-.368-1.56,2.6,2.6,0,0,0-1.016-1.048,2.912,2.912,0,0,0-1.464-.368,2.912,2.912,0,0,0-1.464.368A2.653,2.653,0,0,0,53.056-5.8a3.17,3.17,0,0,0-.376,1.56,3.17,3.17,0,0,0,.376,1.56A2.709,2.709,0,0,0,54.08-1.624,2.863,2.863,0,0,0,55.544-1.248ZM74.664-8.48,71.5,0H70.024L67.576-6.432,65.1,0H63.624L60.472-8.48h1.456l2.464,6.752,2.56-6.752h1.3L70.76-1.7,73.288-8.48ZM83.64-4.192a4.4,4.4,0,0,1-.032.464h-6.88a2.663,2.663,0,0,0,.984,1.8,3.211,3.211,0,0,0,2.088.68,3.145,3.145,0,0,0,2.448-1.024l.848.992A3.714,3.714,0,0,1,81.664-.256,4.984,4.984,0,0,1,79.752.1a5.008,5.008,0,0,1-2.384-.552A3.937,3.937,0,0,1,75.76-2a4.427,4.427,0,0,1-.568-2.24,4.5,4.5,0,0,1,.552-2.224,3.954,3.954,0,0,1,1.52-1.544,4.33,4.33,0,0,1,2.184-.552,4.242,4.242,0,0,1,2.168.552A3.876,3.876,0,0,1,83.1-6.464,4.7,4.7,0,0,1,83.64-4.192ZM79.448-7.264a2.655,2.655,0,0,0-1.848.672,2.709,2.709,0,0,0-.872,1.76h5.44A2.727,2.727,0,0,0,81.3-6.584,2.636,2.636,0,0,0,79.448-7.264Zm7.792.208a2.621,2.621,0,0,1,1.184-1.12,4.3,4.3,0,0,1,1.9-.384v1.488a3,3,0,0,0-.352-.016,2.584,2.584,0,0,0-1.96.744,2.945,2.945,0,0,0-.712,2.12V0H85.768V-8.48H87.24ZM94.712.1a7.106,7.106,0,0,1-2-.28,4.392,4.392,0,0,1-1.5-.712l.64-1.216a4.594,4.594,0,0,0,1.36.64,5.6,5.6,0,0,0,1.616.24q2.016,0,2.016-1.152a.746.746,0,0,0-.272-.608,1.722,1.722,0,0,0-.68-.328q-.408-.1-1.16-.232a11.368,11.368,0,0,1-1.672-.368,2.577,2.577,0,0,1-1.112-.7,1.959,1.959,0,0,1-.464-1.392,2.174,2.174,0,0,1,.96-1.848,4.3,4.3,0,0,1,2.576-.7,7.1,7.1,0,0,1,1.7.208,4.561,4.561,0,0,1,1.392.56l-.656,1.216A4.411,4.411,0,0,0,95-7.248a2.83,2.83,0,0,0-1.488.32A.966.966,0,0,0,93-6.08a.808.808,0,0,0,.288.656A1.821,1.821,0,0,0,94-5.072q.424.112,1.192.256a12.937,12.937,0,0,1,1.656.376,2.473,2.473,0,0,1,1.08.68,1.894,1.894,0,0,1,.448,1.344,2.119,2.119,0,0,1-.984,1.832A4.647,4.647,0,0,1,94.712.1ZM107.688-8.56a3.835,3.835,0,0,1,2.7.864,3.336,3.336,0,0,1,.936,2.576V0h-1.456V-1.12a2.428,2.428,0,0,1-1.1.9A4.183,4.183,0,0,1,107.08.1a3.533,3.533,0,0,1-2.28-.688,2.207,2.207,0,0,1-.856-1.808,2.227,2.227,0,0,1,.816-1.8,4.021,4.021,0,0,1,2.592-.68h2.432v-.3a1.958,1.958,0,0,0-.576-1.52,2.43,2.43,0,0,0-1.7-.528,4.49,4.49,0,0,0-1.472.248,3.792,3.792,0,0,0-1.216.664l-.64-1.152a4.644,4.644,0,0,1,1.568-.808A6.561,6.561,0,0,1,107.688-8.56Zm-.352,7.472a2.853,2.853,0,0,0,1.52-.392,2.243,2.243,0,0,0,.928-1.112V-3.776h-2.368q-1.952,0-1.952,1.312a1.187,1.187,0,0,0,.5,1.008A2.268,2.268,0,0,0,107.336-1.088ZM118.7-8.56a3.5,3.5,0,0,1,2.568.936,3.682,3.682,0,0,1,.952,2.744V0H120.68V-4.7a2.6,2.6,0,0,0-.592-1.856,2.227,2.227,0,0,0-1.7-.624,2.643,2.643,0,0,0-1.968.728,2.844,2.844,0,0,0-.72,2.088V0h-1.536V-8.48h1.472V-7.2A2.986,2.986,0,0,1,116.9-8.208,4.389,4.389,0,0,1,118.7-8.56Zm14.416-3.312V0H131.64V-1.344a3.326,3.326,0,0,1-1.3,1.072A4.016,4.016,0,0,1,128.616.1a4.457,4.457,0,0,1-2.208-.544,3.9,3.9,0,0,1-1.528-1.528,4.548,4.548,0,0,1-.552-2.264A4.5,4.5,0,0,1,124.88-6.5a3.913,3.913,0,0,1,1.528-1.52,4.457,4.457,0,0,1,2.208-.544,4.063,4.063,0,0,1,1.68.344,3.261,3.261,0,0,1,1.28,1.016v-4.672ZM128.744-1.248a2.876,2.876,0,0,0,1.456-.376,2.638,2.638,0,0,0,1.024-1.056,3.226,3.226,0,0,0,.368-1.56,3.226,3.226,0,0,0-.368-1.56A2.584,2.584,0,0,0,130.2-6.848a2.925,2.925,0,0,0-1.456-.368,2.912,2.912,0,0,0-1.464.368A2.653,2.653,0,0,0,126.256-5.8a3.17,3.17,0,0,0-.376,1.56,3.17,3.17,0,0,0,.376,1.56,2.709,2.709,0,0,0,1.024,1.056A2.863,2.863,0,0,0,128.744-1.248ZM140.552-11.2h1.6v9.808h6.064V0h-7.664Zm9.28,2.72h1.536V0h-1.536Zm.768-1.632a1.024,1.024,0,0,1-.744-.288.945.945,0,0,1-.3-.7.971.971,0,0,1,.3-.712,1.009,1.009,0,0,1,.744-.3,1.04,1.04,0,0,1,.744.28.919.919,0,0,1,.3.7.989.989,0,0,1-.3.728A1.009,1.009,0,0,1,150.6-10.112Zm6.992,6.16-1.76,1.632V0H154.3V-11.872h1.536v7.616l4.624-4.224h1.856l-3.568,3.5L162.664,0h-1.888Zm13.872-.24a4.4,4.4,0,0,1-.032.464h-6.88a2.663,2.663,0,0,0,.984,1.8,3.211,3.211,0,0,0,2.088.68,3.145,3.145,0,0,0,2.448-1.024l.848.992a3.714,3.714,0,0,1-1.432,1.024A4.984,4.984,0,0,1,167.576.1a5.008,5.008,0,0,1-2.384-.552A3.937,3.937,0,0,1,163.584-2a4.427,4.427,0,0,1-.568-2.24,4.5,4.5,0,0,1,.552-2.224,3.954,3.954,0,0,1,1.52-1.544,4.33,4.33,0,0,1,2.184-.552,4.242,4.242,0,0,1,2.168.552,3.876,3.876,0,0,1,1.488,1.544A4.7,4.7,0,0,1,171.464-4.192Zm-4.192-3.072a2.655,2.655,0,0,0-1.848.672,2.709,2.709,0,0,0-.872,1.76h5.44a2.727,2.727,0,0,0-.872-1.752A2.636,2.636,0,0,0,167.272-7.264ZM176.024.1a7.106,7.106,0,0,1-2-.28,4.392,4.392,0,0,1-1.5-.712l.64-1.216a4.594,4.594,0,0,0,1.36.64,5.6,5.6,0,0,0,1.616.24q2.016,0,2.016-1.152a.746.746,0,0,0-.272-.608,1.722,1.722,0,0,0-.68-.328q-.408-.1-1.16-.232a11.368,11.368,0,0,1-1.672-.368,2.577,2.577,0,0,1-1.112-.7,1.959,1.959,0,0,1-.464-1.392,2.174,2.174,0,0,1,.96-1.848,4.3,4.3,0,0,1,2.576-.7,7.1,7.1,0,0,1,1.7.208,4.561,4.561,0,0,1,1.392.56l-.656,1.216a4.411,4.411,0,0,0-2.448-.672,2.83,2.83,0,0,0-1.488.32.966.966,0,0,0-.512.848.808.808,0,0,0,.288.656,1.821,1.821,0,0,0,.712.352q.424.112,1.192.256a12.937,12.937,0,0,1,1.656.376,2.473,2.473,0,0,1,1.08.68,1.894,1.894,0,0,1,.448,1.344A2.119,2.119,0,0,1,178.7-.584,4.647,4.647,0,0,1,176.024.1Zm13.355-12.768-.43,9.523h-1.617l-.445-9.523Zm-2.4,11.078h2.273V.563H186.98Z" transform="translate(413 178)" fill="#fff"/></g></svg>