<svg xmlns="http://www.w3.org/2000/svg" xmlns:xlink="http://www.w3.org/1999/xlink" width="728.619" height="132.807" viewBox="0 0 728.619 132.807"><defs><clipPath id="a"><rect width="718" height="88" rx="18" transform="translate(2 1116)" fill="#532654"/></clipPath><radialGradient id="b" cx="0.5" cy="0.5" r="0.5" gradientUnits="objectBoundingBox"><stop offset="0" stop-color="#ff5d5d"/><stop offset="1" stop-color="#cf2323"/></radialGradient><clipPath id="c"><path d="M664.77,528.771l.594,2.908,3.346,16.377.646,3.16v.008l.023.1,38.361,16.7V505.984l-50.479-13.956Z" transform="translate(-657.261 -492.028)" fill="none"/></clipPath><linearGradient id="d" x1="-4.071" y1="2.817" x2="-4.055" y2="2.817" gradientUnits="objectBoundingBox"><stop offset="0" stop-color="#ff2757"/><stop offset="0.984" stop-color="#ff4c4c"/><stop offset="1" stop-color="#ff4c4c"/></linearGradient><clipPath id="e"><path d="M717.337,505.982v62.033l38.235-16.692.078-.388.585-2.853,3.137-15.363.763-3.721,3.636-17.783.584-2.886,3.334-16.3Z" transform="translate(-717.337 -492.031)" fill="none"/></clipPath><linearGradient id="f" x1="-3.072" y1="3.709" x2="-3.061" y2="3.709" gradientUnits="objectBoundingBox"><stop offset="0" stop-color="#ea1327"/><stop offset="0.984" stop-color="#b4004c"/><stop offset="1" stop-color="#b4004c"/></linearGradient><clipPath id="g"><path d="M657.068,502.986l50.177,17.46.06-14.462-52.782-13.952Z" transform="translate(-654.523 -492.031)" fill="none"/></clipPath><linearGradient id="h" x1="-3.85" y1="7.533" x2="-3.834" y2="7.533" xlink:href="#d"/><clipPath id="i"><path d="M717.329,505.983l-.06,14.462,50.157-17.771,2.55-10.644Z" transform="translate(-717.269 -492.031)" fill="none"/></clipPath><linearGradient id="j" x1="-8.482" y1="4.175" x2="-8.455" y2="4.175" gradientUnits="objectBoundingBox"><stop offset="0" stop-color="#ff1327"/><stop offset="0.984" stop-color="#b4004c"/><stop offset="1" stop-color="#b4004c"/></linearGradient><clipPath id="k"><rect width="46.409" height="67.37" fill="none"/></clipPath><clipPath id="l"><rect width="46.241" height="67.37" fill="none"/></clipPath><clipPath id="m"><rect width="48.029" height="17.916" fill="none"/></clipPath><clipPath id="n"><path d="M686.951,558.573l5.373,2.338-2.975-59.674-13.29-3.513Z" transform="translate(-676.06 -497.724)" fill="#5d1c5e"/></clipPath><clipPath id="o"><rect width="48.086" height="18.239" fill="none"/></clipPath><clipPath id="p"><rect width="23.109" height="64.598" fill="none"/></clipPath><clipPath id="q"><rect width="21.131" height="64.598" fill="none"/></clipPath><clipPath id="r"><path d="M745.662,460.587c3.079,14.114-1.137,32.262-1.137,32.262l12.891-2.786c8.8-10.262,7.139-31.468,7.139-31.468Z" transform="translate(-744.525 -458.595)" fill="#532654"/></clipPath><clipPath id="s"><path d="M679.7,456.025c23.487,9.8,27.608,31.025,27.608,31.025h7.186c3.177-16.144-8.7-31.025-8.7-31.025-8.423,1.3-26.089,0-26.089,0" transform="translate(-679.697 -456.025)" fill="#532654"/></clipPath><clipPath id="t"><path d="M711.011,492.311l7.761,1.338,2.61-4.795s-6.994.492-10.371,3.457" transform="translate(-711.011 -488.854)" fill="#532654"/></clipPath><clipPath id="u"><rect width="22.033" height="6.728" fill="none"/></clipPath><clipPath id="v"><rect width="17.758" height="8.022" fill="none"/></clipPath><clipPath id="w"><rect width="30.31" height="33.846" fill="none"/></clipPath><clipPath id="x"><path d="M708.482,491.181a6.147,6.147,0,0,0-4.97,4.747c-2.922,9.938,12.7,21.887,14.68,23.352a4.312,4.312,0,0,0-.182,1.883.311.311,0,0,0,.306.25.3.3,0,0,0,.06-.007.311.311,0,0,0,.247-.365,4.012,4.012,0,0,1,.23-1.786l.071-.216-.184-.133c-.177-.127-17.557-12.846-14.627-22.8a5.561,5.561,0,0,1,4.482-4.309c3.7-.676,8.146,1.692,8.675,2.392a.312.312,0,0,0,.5-.376c-.645-.853-4.269-2.761-7.768-2.761a8.424,8.424,0,0,0-1.516.131" transform="translate(-703.149 -491.05)" fill="none"/></clipPath><radialGradient id="y" cx="0.57" cy="0.5" r="0.398" gradientTransform="matrix(1.656, 0, 0, -1, 9.472, 14.246)" gradientUnits="objectBoundingBox"><stop offset="0" stop-color="#7e86d1"/><stop offset="0.017" stop-color="#7e86d1"/><stop offset="0.966" stop-color="#86336d"/><stop offset="1" stop-color="#86336d"/></radialGradient></defs><g transform="translate(-16 -93.18)"><g transform="translate(-159 -1235)"><g transform="translate(173 234)"><g clip-path="url(#a)"><rect width="718" height="88" transform="translate(2 1116)" fill="url(#b)"/><path d="M743.7,322.711c-28.54-56.407-81.439-11.78-91.5,8.043-28.089-36.953-82.039-40.194-96.438,15.554C539.8,408.057,664.487,472.366,667.536,471.819,669.926,471.671,770.907,376.506,743.7,322.711Z" transform="translate(-502.433 804.535)" fill="#ac2828"/></g></g><g transform="translate(217.846 788.839) rotate(8)"><g transform="translate(656.824 486.276)"><g clip-path="url(#c)"><rect width="50.479" height="75.988" transform="translate(0 0)" fill="url(#d)"/></g></g><g transform="translate(707.303 486.279)"><g clip-path="url(#e)"><rect width="78.821" height="54.745" transform="translate(-4.473 75.72) rotate(-86.619)" fill="url(#f)"/></g></g><path d="M654.523,490.811l52.648-6.422,52.781,6.422L707.3,504.762Z" transform="translate(0 -4.531)" fill="#ff6b7c"/><g transform="translate(654.523 486.279)"><g clip-path="url(#g)"><rect width="52.782" height="28.415" transform="translate(0)" fill="url(#h)"/></g></g><g transform="translate(707.246 486.279)"><g clip-path="url(#i)"><rect width="31.473" height="54.291" transform="translate(-1.673 28.316) rotate(-86.619)" fill="url(#j)"/></g></g><path d="M689.349,499.558l48.789-11.368-8.017-.976-54.062,8.83Z" transform="translate(-3.44 -4.983)" fill="#532654" fill-rule="evenodd"/><path d="M734.283,499.108,680.41,488.557l13.678-1.669,55.792,8.087Z" transform="translate(-4.135 -4.93)" fill="#532654" fill-rule="evenodd"/><g transform="translate(660.512 490.892)" style="mix-blend-mode:soft-light;isolation:isolate"><g clip-path="url(#k)"><path d="M671.593,561.943c-.022-.022-.037-.045-.059-.067v-.008l-.646-3.161a2.414,2.414,0,0,1,.237.431c.053-.327.245-.482.52-.379a1.816,1.816,0,0,1,.86,1.328v.029a1.832,1.832,0,0,1-.913,1.826" transform="translate(-663.126 -507.296)" fill="#fff"/><path d="M680.24,563.025a1.738,1.738,0,0,0-.834-1.324c-.277-.106-.48.054-.541.371a1.5,1.5,0,0,0-.709-.848c-.382-.144-.623.215-.538.8,0,0,0,.882,1.629,2.829v0h0l0,0v0a1.85,1.85,0,0,0,.992-1.8l0-.028" transform="translate(-664.198 -507.692)" fill="#fff"/><path d="M688.212,566.063a1.656,1.656,0,0,0-.8-1.317c-.278-.106-.49.051-.563.365a1.444,1.444,0,0,0-.695-.844c-.384-.147-.641.208-.575.791,0,0-.026.875,1.567,2.811v0h0v0c1.161-.752,1.095-1.614,1.07-1.781a.209.209,0,0,0,0-.027" transform="translate(-665.471 -508.179)" fill="#fff"/><path d="M696.232,569.118a1.584,1.584,0,0,0-.777-1.309c-.28-.106-.5.049-.586.359a1.378,1.378,0,0,0-.68-.839c-.387-.147-.66.2-.611.78,0,0-.056.866,1.5,2.794v0h0l0,0v0c1.208-.739,1.168-1.592,1.149-1.757l0-.028" transform="translate(-666.75 -508.667)" fill="#fff"/><path d="M704.3,572.193a1.51,1.51,0,0,0-.748-1.3c-.281-.107-.512.044-.608.352a1.334,1.334,0,0,0-.665-.837c-.389-.147-.679.2-.649.77,0,0-.085.857,1.437,2.775v0h0l0,0v0c1.254-.725,1.243-1.569,1.228-1.733Z" transform="translate(-668.037 -509.159)" fill="#fff"/><path d="M712.412,575.285a1.444,1.444,0,0,0-.718-1.292.47.47,0,0,0-.631.345,1.273,1.273,0,0,0-.65-.831c-.392-.149-.7.191-.686.756,0,0-.116.849,1.371,2.757v0h0l0,0v0c1.3-.708,1.319-1.546,1.309-1.708v-.027" transform="translate(-669.331 -509.654)" fill="#fff"/><path d="M674.177,550.556a1.905,1.905,0,0,0-.891-1.427c-.286-.108-.492.072-.546.421a1.607,1.607,0,0,0-.751-.909c-.4-.149-.633.251-.532.889,0,0,.026.966,1.748,3.052v0h0l0,0v0a2.074,2.074,0,0,0,.973-2l0-.031" transform="translate(-663.213 -505.682)" fill="#fff"/><path d="M682.451,553.677a1.821,1.821,0,0,0-.86-1.418c-.289-.109-.5.068-.57.414a1.542,1.542,0,0,0-.735-.905c-.4-.15-.655.245-.571.877,0,0,0,.956,1.68,3.034v0h0v0a2.081,2.081,0,0,0,1.056-1.972l0-.03" transform="translate(-664.534 -506.182)" fill="#fff"/><path d="M690.773,556.818a1.741,1.741,0,0,0-.829-1.411c-.291-.109-.515.065-.594.407a1.489,1.489,0,0,0-.719-.9c-.4-.15-.675.24-.61.868,0,0-.037.947,1.611,3.014v0h0l0,0v0a2.1,2.1,0,0,0,1.141-1.947l0-.03" transform="translate(-665.862 -506.684)" fill="#fff"/><path d="M699.145,559.977a1.665,1.665,0,0,0-.8-1.4c-.292-.11-.527.062-.62.4a1.425,1.425,0,0,0-.7-.9c-.4-.152-.695.233-.651.855,0,0-.068.938,1.541,2.995v0h0l0,0v0c1.276-.82,1.245-1.744,1.227-1.922a.274.274,0,0,0,0-.03" transform="translate(-667.197 -507.19)" fill="#fff"/><path d="M707.57,563.157a1.587,1.587,0,0,0-.766-1.394c-.294-.111-.539.057-.644.392a1.37,1.37,0,0,0-.685-.893c-.407-.153-.716.226-.691.844,0,0-.1.929,1.47,2.976v0h0l0,0v0c1.327-.8,1.327-1.719,1.313-1.9Z" transform="translate(-668.541 -507.698)" fill="#fff"/><path d="M716.044,566.356a1.511,1.511,0,0,0-.734-1.385c-.3-.112-.55.053-.669.384a1.312,1.312,0,0,0-.669-.888c-.409-.155-.737.219-.733.831,0,0-.134.919,1.4,2.955v0h0l0,0v0c1.379-.791,1.409-1.7,1.4-1.871v-.028" transform="translate(-669.891 -508.21)" fill="#fff"/><path d="M668.781,538.142a2.484,2.484,0,0,1-.979,1.9h-.008a15.831,15.831,0,0,1-1-1.381l-.6-2.908a.347.347,0,0,1,.26.008,1.742,1.742,0,0,1,.794.979c.044-.386.252-.586.549-.474a2.085,2.085,0,0,1,.949,1.535c0,.015.008.023.008.038a2.11,2.11,0,0,1,.022.3" transform="translate(-662.377 -503.625)" fill="#fff"/><path d="M677.285,541.012a2,2,0,0,0-.917-1.529c-.3-.112-.517.087-.578.466a1.668,1.668,0,0,0-.777-.971c-.414-.154-.669.284-.57.974,0,0,.016,1.045,1.8,3.272v0h0l0,0v0a2.336,2.336,0,0,0,1.046-2.179c0-.011,0-.021,0-.033" transform="translate(-663.691 -504.139)" fill="#fff"/><path d="M685.93,544.24a1.912,1.912,0,0,0-.884-1.522c-.3-.112-.529.083-.6.459a1.6,1.6,0,0,0-.76-.967c-.417-.155-.691.277-.612.962,0,0-.02,1.035,1.722,3.252v0h0l0,0v0a2.353,2.353,0,0,0,1.139-2.153l0-.033" transform="translate(-665.07 -504.655)" fill="#fff"/><path d="M694.629,547.489a1.822,1.822,0,0,0-.849-1.513c-.3-.113-.542.079-.632.451a1.529,1.529,0,0,0-.742-.962c-.419-.157-.712.271-.655.95,0,0-.053,1.025,1.646,3.231v0l0,0v0a2.373,2.373,0,0,0,1.23-2.126l0-.032" transform="translate(-666.458 -505.175)" fill="#fff"/><path d="M703.383,550.759a1.737,1.737,0,0,0-.816-1.5c-.305-.114-.555.076-.658.443a1.463,1.463,0,0,0-.724-.957c-.422-.158-.735.263-.7.937,0,0-.088,1.016,1.57,3.211v0h0l0,0v0a2.4,2.4,0,0,0,1.323-2.1c0-.012,0-.021,0-.032" transform="translate(-667.854 -505.698)" fill="#fff"/><path d="M712.191,554.049a1.656,1.656,0,0,0-.781-1.494c-.307-.115-.568.071-.685.434a1.411,1.411,0,0,0-.706-.954c-.425-.158-.758.258-.744.925,0,0-.123,1.006,1.493,3.19v0h0v0c1.411-.894,1.43-1.881,1.418-2.072v-.032" transform="translate(-669.258 -506.224)" fill="#fff"/><path d="M670.558,526.485a2.217,2.217,0,0,0-.986-1.659c-.312-.114-.53.11-.583.529a1.8,1.8,0,0,0-.828-1.048c-.431-.159-.681.33-.56,1.088,0,0,.044,1.149,1.939,3.551v0h0l0,0v0a2.662,2.662,0,0,0,1.02-2.426l0-.036" transform="translate(-662.596 -501.795)" fill="#fff"/><path d="M679.555,529.8a2.116,2.116,0,0,0-.95-1.65c-.314-.116-.544.106-.612.521a1.734,1.734,0,0,0-.808-1.044c-.434-.16-.7.324-.607,1.076,0,0,.007,1.14,1.858,3.531v0l0,0,0,0v0a2.666,2.666,0,0,0,1.12-2.4.313.313,0,0,1,0-.036" transform="translate(-664.032 -502.326)" fill="#fff"/><path d="M688.612,533.147a2.019,2.019,0,0,0-.913-1.641c-.317-.117-.558.1-.641.512a1.658,1.658,0,0,0-.789-1.038c-.437-.161-.729.317-.653,1.062,0,0-.031,1.129,1.776,3.509v0l0,0,0,0v0a2.677,2.677,0,0,0,1.218-2.369l0-.036" transform="translate(-665.477 -502.861)" fill="#fff"/><path d="M697.727,536.512a1.928,1.928,0,0,0-.875-1.632c-.319-.118-.573.1-.671.5a1.588,1.588,0,0,0-.769-1.034c-.44-.163-.753.309-.7,1.049,0,0-.068,1.118,1.694,3.488v0h0l0,0v0a2.7,2.7,0,0,0,1.321-2.341l0-.035" transform="translate(-666.931 -503.399)" fill="#fff"/><path d="M706.9,539.9a1.838,1.838,0,0,0-.838-1.623c-.321-.118-.586.093-.7.5a1.524,1.524,0,0,0-.749-1.029c-.443-.164-.778.3-.749,1.036,0,0-.107,1.108,1.609,3.467v0h0l0,0v0a2.732,2.732,0,0,0,1.423-2.313c0-.012,0-.023,0-.035" transform="translate(-668.394 -503.941)" fill="#fff"/><path d="M716.141,543.308a1.753,1.753,0,0,0-.8-1.612c-.323-.119-.6.09-.729.487a1.468,1.468,0,0,0-.729-1.025c-.446-.164-.8.3-.8,1.022,0,0-.145,1.1,1.525,3.445v0l0,0,0,0v0c1.5-1,1.536-2.077,1.527-2.284v-.035" transform="translate(-669.867 -504.487)" fill="#fff"/><path d="M664.751,513.6a2.422,2.422,0,0,0-1.049-1.779c-.323-.118-.543.131-.588.587a1.939,1.939,0,0,0-.872-1.119c-.446-.162-.693.374-.551,1.2,0,0,.072,1.246,2.069,3.809v0l0,0,0,0v0a2.986,2.986,0,0,0,.993-2.655c0-.014,0-.025,0-.039" transform="translate(-661.65 -499.715)" fill="#fff"/><path d="M674.062,516.995a2.314,2.314,0,0,0-1.01-1.77c-.326-.118-.557.127-.619.579a1.858,1.858,0,0,0-.852-1.115c-.45-.163-.718.367-.6,1.181,0,0,.032,1.237,1.982,3.789v0l0,0,0,0v0a2.981,2.981,0,0,0,1.1-2.626l0-.04" transform="translate(-663.136 -500.259)" fill="#fff"/><path d="M683.437,520.418a2.21,2.21,0,0,0-.97-1.76c-.328-.119-.573.122-.65.571a1.774,1.774,0,0,0-.832-1.11c-.452-.166-.744.359-.65,1.168,0,0-.008,1.226,1.895,3.767v0l0,0,0,0v0a2.988,2.988,0,0,0,1.207-2.6c0-.013,0-.025,0-.039" transform="translate(-664.632 -500.807)" fill="#fff"/><path d="M692.877,523.864a2.108,2.108,0,0,0-.931-1.751c-.33-.12-.587.119-.68.563a1.708,1.708,0,0,0-.811-1.106c-.456-.166-.77.353-.7,1.154,0,0-.049,1.215,1.807,3.745v0h0l0,0v0a3,3,0,0,0,1.315-2.568v-.039" transform="translate(-666.138 -501.358)" fill="#fff"/><path d="M702.381,527.335a2.009,2.009,0,0,0-.891-1.741c-.332-.122-.6.113-.712.554a1.642,1.642,0,0,0-.79-1.1c-.459-.166-.8.345-.753,1.141,0,0-.091,1.2,1.716,3.722v0h0l0,0v0a3.03,3.03,0,0,0,1.426-2.538c0-.013,0-.025,0-.038" transform="translate(-667.654 -501.913)" fill="#fff"/><path d="M711.951,530.829a1.92,1.92,0,0,0-.85-1.732c-.334-.121-.617.11-.744.545a1.565,1.565,0,0,0-.768-1.1c-.461-.168-.822.339-.806,1.126,0,0-.132,1.194,1.625,3.7v0h0l0,0v0a3.069,3.069,0,0,0,1.538-2.507v-.038" transform="translate(-669.18 -502.472)" fill="#fff"/><path d="M666.581,500.035a2.591,2.591,0,0,0-1.094-1.934c-.339-.122-.572.157-.623.66a2.034,2.034,0,0,0-.912-1.212c-.47-.169-.732.429-.588,1.329,0,0,.067,1.37,2.154,4.143v0l0,0,0,0v0a3.455,3.455,0,0,0,1.065-2.944l-.005-.043" transform="translate(-661.918 -497.521)" fill="#fff"/><path d="M676.372,503.559a2.473,2.473,0,0,0-1.05-1.925c-.342-.123-.589.154-.657.652a1.948,1.948,0,0,0-.89-1.206c-.472-.17-.76.421-.643,1.314,0,0,.023,1.359,2.059,4.12v0h0l0,0v0a3.442,3.442,0,0,0,1.181-2.913l0-.043" transform="translate(-663.48 -498.085)" fill="#fff"/><path d="M686.234,507.108a2.363,2.363,0,0,0-1.007-1.915c-.344-.123-.6.148-.692.643a1.865,1.865,0,0,0-.866-1.2c-.475-.171-.788.413-.7,1.3,0,0-.021,1.348,1.963,4.1v0h0l0,0v0a3.446,3.446,0,0,0,1.3-2.882Z" transform="translate(-665.054 -498.653)" fill="#fff"/><path d="M696.167,510.682a2.253,2.253,0,0,0-.963-1.905c-.347-.124-.622.144-.726.634a1.793,1.793,0,0,0-.844-1.2c-.48-.172-.817.406-.755,1.285,0,0-.065,1.338,1.865,4.074v0l0,0,0,0v0a3.464,3.464,0,0,0,1.421-2.851l0-.042" transform="translate(-666.638 -499.224)" fill="#fff"/><path d="M706.172,514.282a2.151,2.151,0,0,0-.92-1.894c-.35-.125-.638.139-.76.624a1.72,1.72,0,0,0-.82-1.192c-.483-.173-.846.4-.811,1.271,0,0-.112,1.325,1.765,4.05v0l0,0v0a3.489,3.489,0,0,0,1.543-2.818v-.042" transform="translate(-668.234 -499.8)" fill="#fff"/><path d="M716.248,517.909a2.049,2.049,0,0,0-.873-1.883c-.352-.127-.655.134-.8.615a1.643,1.643,0,0,0-.8-1.187c-.486-.175-.875.39-.87,1.255,0,0-.157,1.315,1.664,4.027v0l0,0,0,0v0a3.537,3.537,0,0,0,1.666-2.786c0-.014,0-.027,0-.041" transform="translate(-669.839 -500.381)" fill="#fff"/></g></g><g transform="translate(708.08 490.892)" style="mix-blend-mode:soft-light;isolation:isolate"><g clip-path="url(#l)"><path d="M763.419,558.738l-.585,2.853a1.7,1.7,0,0,1-.513-1.466.055.055,0,0,0,.007-.032,1.806,1.806,0,0,1,.862-1.329.411.411,0,0,1,.229-.026" transform="translate(-725.298 -507.299)" fill="#fff"/><path d="M754.4,563.025a1.734,1.734,0,0,1,.833-1.324c.276-.106.48.054.542.371a1.492,1.492,0,0,1,.708-.848c.383-.144.624.215.539.8,0,0,0,.882-1.629,2.829v0h0l0,0v0a1.851,1.851,0,0,1-.993-1.8l0-.028" transform="translate(-724.032 -507.692)" fill="#fff"/><path d="M746.427,566.063a1.657,1.657,0,0,1,.8-1.317c.278-.106.491.051.564.365a1.44,1.44,0,0,1,.694-.844c.384-.147.642.208.576.791,0,0,.025.875-1.567,2.811v0h0l0,0v0c-1.161-.752-1.095-1.614-1.069-1.781v-.027" transform="translate(-722.76 -508.179)" fill="#fff"/><path d="M738.406,569.118a1.586,1.586,0,0,1,.776-1.309c.28-.106.5.049.586.359a1.376,1.376,0,0,1,.68-.839c.387-.147.66.2.611.78,0,0,.056.866-1.5,2.794v0h0l0,0v0c-1.207-.739-1.169-1.592-1.149-1.757a.262.262,0,0,1,0-.028" transform="translate(-721.479 -508.667)" fill="#fff"/><path d="M730.338,572.193a1.513,1.513,0,0,1,.748-1.3c.281-.107.512.044.608.352a1.331,1.331,0,0,1,.664-.837c.389-.147.68.2.649.77,0,0,.085.857-1.438,2.775v0h0l0,0v0c-1.255-.725-1.244-1.569-1.229-1.733,0-.009,0-.018,0-.028" transform="translate(-720.191 -509.159)" fill="#fff"/><path d="M722.222,575.285a1.445,1.445,0,0,1,.718-1.292.471.471,0,0,1,.632.345,1.273,1.273,0,0,1,.649-.831c.391-.149.7.191.686.756,0,0,.115.849-1.372,2.757v0h0v0c-1.3-.708-1.32-1.546-1.31-1.708v-.027" transform="translate(-718.895 -509.654)" fill="#fff"/><path d="M760.441,550.556a1.9,1.9,0,0,1,.891-1.427c.287-.108.492.072.547.421a1.6,1.6,0,0,1,.749-.909c.4-.149.635.251.533.889,0,0-.027.966-1.749,3.052v0h0l0,0v0a2.071,2.071,0,0,1-.972-2c0-.011,0-.02,0-.031" transform="translate(-724.996 -505.682)" fill="#fff"/><path d="M752.169,553.677a1.82,1.82,0,0,1,.86-1.418c.289-.109.5.068.57.414a1.54,1.54,0,0,1,.735-.905c.4-.15.654.245.571.877,0,0,.005.956-1.68,3.034v0h0l0,0v0a2.083,2.083,0,0,1-1.057-1.972c0-.01,0-.019,0-.03" transform="translate(-723.676 -506.182)" fill="#fff"/><path d="M743.845,556.818a1.746,1.746,0,0,1,.829-1.411c.291-.109.516.065.595.407a1.485,1.485,0,0,1,.719-.9c.4-.15.675.24.61.868,0,0,.036.947-1.611,3.014v0h0v0a2.1,2.1,0,0,1-1.141-1.947l0-.03" transform="translate(-722.347 -506.684)" fill="#fff"/><path d="M735.471,559.977a1.664,1.664,0,0,1,.8-1.4c.292-.11.526.062.619.4a1.424,1.424,0,0,1,.7-.9c.4-.152.7.233.651.855,0,0,.069.938-1.541,2.995v0h0l0,0v0c-1.276-.82-1.246-1.744-1.227-1.922,0-.01,0-.018,0-.03" transform="translate(-721.01 -507.19)" fill="#fff"/><path d="M727.045,563.157a1.587,1.587,0,0,1,.766-1.394c.294-.111.539.057.645.392a1.371,1.371,0,0,1,.685-.893c.407-.153.716.226.691.844,0,0,.1.929-1.47,2.976v0h0l0,0v0c-1.327-.8-1.327-1.719-1.313-1.9,0-.01,0-.019,0-.029" transform="translate(-719.665 -507.698)" fill="#fff"/><path d="M718.567,566.356a1.513,1.513,0,0,1,.734-1.385c.3-.112.55.053.669.384a1.312,1.312,0,0,1,.669-.888c.408-.155.737.219.733.831,0,0,.134.919-1.4,2.955v0h0v0c-1.38-.791-1.41-1.7-1.4-1.871a.243.243,0,0,1,0-.028" transform="translate(-718.311 -508.21)" fill="#fff"/><path d="M767.888,536.026l-.762,3.721c-.086.112-.178.223-.271.341h-.006a2.339,2.339,0,0,1-.954-2.2.262.262,0,0,1,.007-.033,2.09,2.09,0,0,1,.947-1.538c.3-.112.506.085.552.472a2.232,2.232,0,0,1,.486-.762" transform="translate(-725.868 -503.672)" fill="#fff"/><path d="M757.311,541.012a2,2,0,0,1,.917-1.529c.3-.112.518.087.579.466a1.667,1.667,0,0,1,.777-.971c.414-.154.669.284.569.974,0,0-.016,1.045-1.8,3.272v0h0l0,0v0a2.336,2.336,0,0,1-1.046-2.179c0-.011,0-.021,0-.033" transform="translate(-724.497 -504.139)" fill="#fff"/><path d="M748.666,544.24a1.912,1.912,0,0,1,.884-1.522c.3-.112.529.083.6.459a1.6,1.6,0,0,1,.76-.967c.417-.155.69.277.612.962,0,0,.019,1.035-1.722,3.252v0h0l0,0v0a2.354,2.354,0,0,1-1.138-2.153c0-.012,0-.022,0-.033" transform="translate(-723.117 -504.655)" fill="#fff"/><path d="M739.966,547.489a1.823,1.823,0,0,1,.85-1.513c.3-.113.542.079.631.451a1.528,1.528,0,0,1,.742-.962c.419-.157.712.271.655.95,0,0,.052,1.025-1.646,3.231v0l0,0v0a2.371,2.371,0,0,1-1.23-2.126c0-.011,0-.021,0-.032" transform="translate(-721.729 -505.175)" fill="#fff"/><path d="M731.21,550.759a1.74,1.74,0,0,1,.816-1.5c.306-.114.555.076.658.443a1.462,1.462,0,0,1,.723-.957c.423-.158.735.263.7.937,0,0,.089,1.016-1.569,3.211v0h0l0,0v0a2.4,2.4,0,0,1-1.324-2.1Z" transform="translate(-720.33 -505.698)" fill="#fff"/><path d="M722.4,554.049a1.657,1.657,0,0,1,.782-1.494c.307-.115.567.071.685.434a1.407,1.407,0,0,1,.705-.954c.425-.158.758.258.744.925,0,0,.123,1.006-1.493,3.19v0h0l0,0v0c-1.412-.894-1.429-1.881-1.418-2.072v-.032" transform="translate(-718.923 -506.224)" fill="#fff"/><path d="M764.013,526.485a2.219,2.219,0,0,1,.987-1.659c.312-.114.531.11.584.529a1.8,1.8,0,0,1,.828-1.048c.43-.159.681.33.56,1.088,0,0-.045,1.149-1.938,3.551v0h0l0,0v0a2.661,2.661,0,0,1-1.02-2.426l0-.036" transform="translate(-725.566 -501.795)" fill="#fff"/><path d="M755.017,529.8a2.113,2.113,0,0,1,.95-1.65c.314-.116.543.106.612.521a1.737,1.737,0,0,1,.808-1.044c.435-.16.706.324.607,1.076,0,0-.008,1.14-1.858,3.531v0l0,0,0,0v0a2.663,2.663,0,0,1-1.118-2.4c0-.013,0-.023,0-.036" transform="translate(-724.131 -502.326)" fill="#fff"/><path d="M745.959,533.147a2.016,2.016,0,0,1,.913-1.641c.316-.117.558.1.641.512a1.658,1.658,0,0,1,.788-1.038c.438-.161.729.317.654,1.062,0,0,.03,1.129-1.776,3.509v0l0,0v0a2.678,2.678,0,0,1-1.219-2.369c0-.013,0-.024,0-.036" transform="translate(-722.685 -502.861)" fill="#fff"/><path d="M736.842,536.512a1.928,1.928,0,0,1,.876-1.632c.319-.118.572.1.67.5a1.591,1.591,0,0,1,.77-1.034c.44-.163.753.309.7,1.049,0,0,.068,1.118-1.694,3.488v0h0l0,0v0a2.7,2.7,0,0,1-1.32-2.341c0-.013,0-.023,0-.035" transform="translate(-721.229 -503.399)" fill="#fff"/><path d="M727.662,539.9a1.84,1.84,0,0,1,.839-1.623c.32-.118.586.093.7.5a1.525,1.525,0,0,1,.75-1.029c.442-.164.777.3.749,1.036,0,0,.106,1.108-1.61,3.467v0h0l0,0v0a2.736,2.736,0,0,1-1.423-2.313Z" transform="translate(-719.764 -503.941)" fill="#fff"/><path d="M718.422,543.308a1.753,1.753,0,0,1,.8-1.612c.323-.119.6.09.729.487a1.465,1.465,0,0,1,.729-1.025c.446-.164.8.3.8,1.022,0,0,.146,1.1-1.526,3.445v0l0,0,0,0v0a2.784,2.784,0,0,1-1.528-2.284v-.035" transform="translate(-718.288 -504.487)" fill="#fff"/><path d="M772.73,511.4l-.585,2.886a16.488,16.488,0,0,1-1.355,2h-.006a3.162,3.162,0,0,1-1.026-2.254,2.076,2.076,0,0,1,.033-.4c0-.013.006-.026.006-.039a2.433,2.433,0,0,1,1.052-1.781c.323-.112.539.131.585.591a1.936,1.936,0,0,1,.875-1.124.342.342,0,0,1,.421.118" transform="translate(-726.489 -499.715)" fill="#fff"/><path d="M760.487,516.995a2.311,2.311,0,0,1,1.01-1.77c.325-.118.557.127.618.579a1.86,1.86,0,0,1,.853-1.115c.449-.163.717.367.6,1.181,0,0-.031,1.237-1.982,3.789v0l0,0,0,0v0a2.977,2.977,0,0,1-1.1-2.626c0-.014,0-.026,0-.04" transform="translate(-725.003 -500.259)" fill="#fff"/><path d="M751.111,520.418a2.207,2.207,0,0,1,.971-1.76c.328-.119.571.122.65.571a1.769,1.769,0,0,1,.831-1.11c.452-.166.743.359.65,1.168,0,0,.008,1.226-1.895,3.767v0l0,0,0,0v0a2.984,2.984,0,0,1-1.208-2.6l0-.039" transform="translate(-723.507 -500.807)" fill="#fff"/><path d="M741.671,523.864a2.106,2.106,0,0,1,.93-1.751c.33-.12.587.119.68.563a1.707,1.707,0,0,1,.811-1.106c.455-.166.77.353.7,1.154,0,0,.048,1.215-1.807,3.745v0h0l0,0v0a3,3,0,0,1-1.315-2.568l0-.039" transform="translate(-722 -501.358)" fill="#fff"/><path d="M732.164,527.335a2.011,2.011,0,0,1,.891-1.741c.332-.122.6.113.712.554a1.641,1.641,0,0,1,.79-1.1c.459-.166.8.345.753,1.141,0,0,.091,1.2-1.716,3.722v0h0l0,0v0a3.031,3.031,0,0,1-1.426-2.538c0-.013,0-.025,0-.038" transform="translate(-720.482 -501.913)" fill="#fff"/><path d="M722.592,530.829a1.92,1.92,0,0,1,.849-1.732c.335-.121.617.11.744.545a1.567,1.567,0,0,1,.769-1.1c.46-.168.822.339.806,1.126,0,0,.131,1.194-1.626,3.7v0h0l0,0v0a3.065,3.065,0,0,1-1.538-2.507v-.038" transform="translate(-718.954 -502.472)" fill="#fff"/><path d="M767.938,500.035a2.585,2.585,0,0,1,1.092-1.934c.339-.122.572.157.623.66a2.034,2.034,0,0,1,.913-1.212c.469-.169.733.429.587,1.329,0,0-.067,1.37-2.153,4.143v0l0,0,0,0v0a3.456,3.456,0,0,1-1.065-2.944c0-.014,0-.028.007-.043" transform="translate(-726.192 -497.521)" fill="#fff"/><path d="M758.146,503.559a2.472,2.472,0,0,1,1.052-1.925c.342-.123.588.154.656.652a1.947,1.947,0,0,1,.891-1.206c.472-.17.759.421.642,1.314,0,0-.024,1.359-2.058,4.12v0h0l0,0v0a3.445,3.445,0,0,1-1.182-2.913l0-.043" transform="translate(-724.629 -498.085)" fill="#fff"/><path d="M748.284,507.108a2.365,2.365,0,0,1,1.008-1.915c.344-.123.6.148.691.643a1.869,1.869,0,0,1,.868-1.2c.476-.171.787.413.7,1.3,0,0,.02,1.348-1.963,4.1v0h0l0,0v0a3.447,3.447,0,0,1-1.3-2.882c0-.014,0-.028,0-.042" transform="translate(-723.056 -498.653)" fill="#fff"/><path d="M738.35,510.682a2.255,2.255,0,0,1,.963-1.905c.348-.124.622.144.726.634a1.79,1.79,0,0,1,.844-1.2c.479-.172.816.406.755,1.285,0,0,.065,1.338-1.865,4.074v0l0,0,0,0v0a3.462,3.462,0,0,1-1.42-2.851c0-.014,0-.028,0-.042" transform="translate(-721.47 -499.224)" fill="#fff"/><path d="M728.343,514.282a2.148,2.148,0,0,1,.918-1.894c.35-.125.639.139.761.624a1.717,1.717,0,0,1,.821-1.192c.482-.173.845.4.811,1.271,0,0,.112,1.325-1.764,4.05v0l0,0v0a3.49,3.49,0,0,1-1.543-2.818c0-.014,0-.028,0-.042" transform="translate(-719.872 -499.8)" fill="#fff"/><path d="M718.262,517.909a2.051,2.051,0,0,1,.873-1.883c.352-.127.655.134.8.615a1.642,1.642,0,0,1,.8-1.187c.487-.175.877.39.871,1.255,0,0,.157,1.315-1.664,4.027v0l0,0,0,0v0a3.536,3.536,0,0,1-1.667-2.786c0-.014,0-.027,0-.041" transform="translate(-718.262 -500.381)" fill="#fff"/></g></g><g transform="translate(659.215 497.982)" opacity="0.8" style="mix-blend-mode:multiply;isolation:isolate"><g clip-path="url(#m)"><path d="M660.108,505.959l48.029,16.712,0,1.2-47.941-17.5Z" transform="translate(-660.108 -505.959)" fill="#b672a9" fill-rule="evenodd"/></g></g><g transform="translate(672.619 491.062)"><g clip-path="url(#n)"><rect width="16.265" height="63.187" transform="translate(0)" fill="#5d1c5e"/></g></g><g transform="translate(707.241 497.658)" opacity="0.3" style="mix-blend-mode:multiply;isolation:isolate"><g clip-path="url(#o)"><path d="M717.268,522.609l48.082-17.035-.114.558-47.972,17.681Z" transform="translate(-717.264 -505.574)" fill="#b672a9" fill-rule="evenodd"/></g></g><path d="M743.672,500.645l-4.489,60.072L746,557.741l13.269-61.229Z" transform="translate(-13.524 -6.468)" fill="#5d1c5e" fill-rule="evenodd"/><g transform="translate(707.039 489.652)" opacity="0.8" style="mix-blend-mode:multiply;isolation:isolate"><g clip-path="url(#p)"><path d="M717.023,496.045l23.109,4.526-4.49,60.072,1.879-46.695,1.172-.384.917-12.905Z" transform="translate(-717.023 -496.045)" fill="#b672a9" fill-rule="evenodd"/></g></g><g transform="translate(685.908 489.652)" opacity="0.8" style="mix-blend-mode:multiply;isolation:isolate"><g clip-path="url(#q)"><path d="M694.852,560.643l-.676-46.179-.855-.3L692.6,501.16l20.406-5.114-21.13,4.923Z" transform="translate(-691.875 -496.045)" fill="#b672a9" fill-rule="evenodd"/></g></g><path d="M741.784,460.587s-10.56,7.044-21.535,28.226l12.11-1.354a120.831,120.831,0,0,1,28.318-28.866Z" transform="translate(-10.5 -0.41)" fill="#5d1c5e" fill-rule="evenodd"/><g transform="translate(730.147 458.184)"><g clip-path="url(#r)"><rect width="21.694" height="34.254" transform="translate(0 0)" fill="#532654"/></g></g><path d="M679.34,456.025s-6.083,10.037,3.659,27.228c0,0,12.6,4.014,23.949,3.8h7.186l-14-5.888S698.7,471.906,703.1,458.6Z" transform="translate(-3.665 0)" fill="#532654" fill-rule="evenodd"/><g transform="translate(675.676 456.025)"><g clip-path="url(#s)"><path d="M0,0H37.971V31.025H0Z" transform="translate(0 0)" fill="#532654"/></g></g><g transform="translate(701.987 483.609)"><g clip-path="url(#t)"><rect width="10.371" height="4.794" transform="translate(0 0)" fill="#532654"/></g></g><path d="M700.161,481.163s-12.87-.866-17.138,2.09a30.175,30.175,0,0,1-3.66-27.228,52.834,52.834,0,0,1,20.8,16.426,39.047,39.047,0,0,0,0,8.712" transform="translate(-3.688 0)" fill="#5d1c5e" fill-rule="evenodd"/><path d="M693.486,502.262l20.043,5.3,21.343-5.656L713.4,506.655Z" transform="translate(-6.224 -7.329)" fill="#ff87b1" fill-rule="evenodd"/><path d="M715.631,508.184l1.436,1.556,1.433-1.556Z" transform="translate(-9.762 -8.333)" fill="#ff87b1" fill-rule="evenodd"/><g transform="translate(685.197 459.75)" style="mix-blend-mode:soft-light;isolation:isolate"><g clip-path="url(#u)"><path d="M691.028,461.95a15.05,15.05,0,0,0,3.572,1.343c1.2.124,15.11-1.138,15.7-1.343s-.174-1.492-.174-1.492a59.6,59.6,0,0,1,2.94,5.56,8.261,8.261,0,0,0-4.842-2.475c-3.2-.5-10.754,1.286-10.962,1.618a6.469,6.469,0,0,0,.011,2.024,63.667,63.667,0,0,0-6.241-5.236" transform="translate(-691.028 -460.458)" fill="#fff"/></g></g><g transform="translate(732.249 469.062)" style="mix-blend-mode:soft-light;isolation:isolate"><g clip-path="url(#v)"><path d="M747.15,472.118s.8,3.077,1.226,3.2,14.992-1.037,15.583-1.3.824-2.48.824-2.48a51.388,51.388,0,0,1-.792,5.868,7.531,7.531,0,0,0-.862-.345c-.5-.167-14.392.664-14.753.726s-1.35,1.772-1.35,1.772.182-6.074.124-7.444" transform="translate(-747.026 -471.541)" fill="#fff"/></g></g><g transform="translate(695.697 521.842)" opacity="0.8" style="mix-blend-mode:multiply;isolation:isolate"><g clip-path="url(#w)"><path d="M703.525,562.746l2.755,4.017,8.852-.443,13.1,1.882,5.6-33.846-28.5,6Z" transform="translate(-703.525 -534.356)" fill="#b672a9"/></g></g><path d="M731.462,526.125l-27.921-4.049L700.9,523.82l-3.662,33.5,1.806,2.9,25.4,4.141,2.056-1.485,7.383-34.284ZM716.7,530.08a2.2,2.2,0,1,1,2.559-1.782,2.2,2.2,0,0,1-2.559,1.782" transform="translate(-6.824 -10.552)" fill="#ffcee5"/><path d="M701.6,523.82l.34.273,2.379-1.457,27.558,3.626,2.541,2.4.168-.069-2.422-2.465-27.921-4.049Z" transform="translate(-7.52 -10.552)" fill="#ffeff7"/><g transform="translate(695.381 485.455)"><g clip-path="url(#x)"><rect width="18.333" height="30.363" transform="translate(-2.559 0)" fill="url(#y)"/></g></g></g></g><path d="M-167.032,6.75l4.749-23.823h-2.446l.357-1.692h2.427a14.16,14.16,0,0,1,3.793-6.486,8.583,8.583,0,0,1,5.913-2.162,13.166,13.166,0,0,1,2.232.188,11.424,11.424,0,0,1,2.129.581l-.991,4.922h-2.1l.034-.308q.273-1.948.273-2.256a1.393,1.393,0,0,0-.529-1.2,2.666,2.666,0,0,0-1.595-.393,2.63,2.63,0,0,0-2.358,1.128,15.264,15.264,0,0,0-1.485,4.666l-.262,1.316h5.408l-.342,1.692h-5.4L-161.979,6.75Zm15.342-12.424a13.38,13.38,0,0,1,3.82-9.451,11.851,11.851,0,0,1,8.9-4.067,6.981,6.981,0,0,1,4.956,1.735,6.036,6.036,0,0,1,1.863,4.64,13.361,13.361,0,0,1-3.281,8.528,11.747,11.747,0,0,1-9.5,4.717,7,7,0,0,1-4.871-1.692A5.654,5.654,0,0,1-151.689-5.674Zm5.469-1.008a7.986,7.986,0,0,0,.718,3.82,2.324,2.324,0,0,0,2.153,1.273q2.29,0,4.1-3.3a15.219,15.219,0,0,0,1.812-7.451,7.85,7.85,0,0,0-.7-3.743,2.267,2.267,0,0,0-2.1-1.248q-2.273,0-4.127,3.307A14.748,14.748,0,0,0-146.221-6.682ZM-130.19,0l2.753-13.809q.205-1.179.376-2.2,0-1.008-2.136-1.145l-.308-.017.308-1.589h7.79l-1.577,7.871a20.518,20.518,0,0,1,4.393-6q2.526-2.3,4.7-2.3a2.662,2.662,0,0,1,1.319.325l-1.778,4.836a2.735,2.735,0,0,0-1.556-.6q-3.163,0-7.71,7.057L-125.166,0Zm36.857.325-4.4-20.679L-98.1-22a3.67,3.67,0,0,0-.333-1.454,5.965,5.965,0,0,0-1.7-.23l-.308-.017.308-1.589h9.807L-90.63-23.7h-.325q-1.709,0-1.709,1.054a13.424,13.424,0,0,0,.342,2.33l3.1,14.663,8.869-14.59a13.324,13.324,0,0,0,1.572-2.946q0-.511-1.829-.511h-.308l.325-1.589h6.418l-.325,1.589-.308.017a2.661,2.661,0,0,0-1.487.374,32.215,32.215,0,0,0-1.965,3.01L-90.793.325ZM-65.2,0l1.576-7.913A18.739,18.739,0,0,1-68-1.906,7.713,7.713,0,0,1-72.982.427,3.433,3.433,0,0,1-75.71-.829,4.706,4.706,0,0,1-76.785-4a15.067,15.067,0,0,1,1.541-6.332,17.577,17.577,0,0,1,4.027-5.614A11.073,11.073,0,0,1-63.4-18.987q.562,0,2.094.154.2.034.664.068h4.188l-2.7,13.8-.273,1.8-.1.394q0,1.028,2.136,1.165l.308.017L-57.412,0Zm2.233-11.211,1.013-5.076a6.542,6.542,0,0,0-3.292-1.042q-4.141,0-5.889,8.675a21.968,21.968,0,0,0-.526,3.661,2.05,2.05,0,0,0,.315,1.241,1.105,1.105,0,0,0,.944.419q2.11,0,7.094-7.365Q-63.22-10.817-62.964-11.211ZM-54.055,0l4.391-22.029.359-2.193q0-1-2.119-1.139l-.325-.034.325-1.589h7.784L-48.014-4.958q-.376,2.12-.376,2.206,0,1.009,2.136,1.146l.308.017L-46.271,0Zm27.7-4.666-.5,2.341Q-32.385.427-36.316.427A7.055,7.055,0,0,1-41.281-1.29a5.906,5.906,0,0,1-1.871-4.572,13.2,13.2,0,0,1,3.811-9.246,11.535,11.535,0,0,1,8.613-4.084,4.944,4.944,0,0,1,3.281,1.085,3.423,3.423,0,0,1,1.3,2.743q0,3.264-3.5,5.64a14.472,14.472,0,0,1-8.323,2.375q-.034.479-.034.854a4.241,4.241,0,0,0,1.119,3.085,3.987,3.987,0,0,0,3,1.154Q-30.881-2.256-26.353-4.666ZM-37.769-8.989A7.815,7.815,0,0,0-32.83-10.5a4.661,4.661,0,0,0,1.948-3.837,3.844,3.844,0,0,0-.5-2.17,1.7,1.7,0,0,0-1.5-.718q-1.76,0-3.136,2.316A14.475,14.475,0,0,0-37.769-8.989ZM-23.481,0l2.753-13.809q.205-1.179.376-2.2,0-1.008-2.136-1.145l-.308-.017.308-1.589h7.784l-1.566,7.89a20.419,20.419,0,0,1,4.526-6.105,7.6,7.6,0,0,1,4.936-2.212,2.963,2.963,0,0,1,2.241.983,3.353,3.353,0,0,1,.924,2.384,13.258,13.258,0,0,1-.291,2.358l-1.7,8.51q-.376,2.12-.376,2.206,0,1.009,2.136,1.146l.308.017L-3.888,0h-7.784l2.637-13.228a7.233,7.233,0,0,0,.154-1.323q0-.882-.667-.882-2.037,0-7.395,7.948L-18.428,0ZM11.792-17.073H7.516L5.358-6.335A14.342,14.342,0,0,0,5-3.731,1.954,1.954,0,0,0,5.527-2.24a2.24,2.24,0,0,0,1.588.5,4.171,4.171,0,0,0,1.721-.479L8.442-.256A11.7,11.7,0,0,1,4.888.427a5.879,5.879,0,0,1-3.734-1A3.6,3.6,0,0,1-.089-3.555,10.508,10.508,0,0,1,.167-5.64L2.48-17.073H-.273l.5-1.692H2.784l.652-3.2,5.229-.906-.811,4.1h4.4ZM12.578,0l2.753-13.809.376-2.2q0-1.008-2.136-1.145l-.308-.017.308-1.589h7.8L18.619-4.958l-.273,1.8-.085.41q0,1.009,2.119,1.146l.308.017L20.38,0Zm4.358-21.926.889-4.426h5.059l-.872,4.426ZM23.755,0l2.753-13.809q.205-1.179.376-2.2,0-1.008-2.136-1.145l-.308-.017.308-1.589h7.784l-1.566,7.89a20.419,20.419,0,0,1,4.526-6.105,7.6,7.6,0,0,1,4.936-2.212,2.963,2.963,0,0,1,2.241.983,3.353,3.353,0,0,1,.924,2.384,13.258,13.258,0,0,1-.291,2.358l-1.7,8.51q-.376,2.12-.376,2.206,0,1.009,2.136,1.146l.308.017L43.348,0H35.564L38.2-13.228a7.233,7.233,0,0,0,.154-1.323q0-.882-.667-.882-2.037,0-7.395,7.948L28.808,0ZM63.027-4.666l-.5,2.341Q56.995.427,53.064.427A7.055,7.055,0,0,1,48.1-1.29a5.906,5.906,0,0,1-1.871-4.572,13.2,13.2,0,0,1,3.811-9.246,11.535,11.535,0,0,1,8.613-4.084,4.944,4.944,0,0,1,3.281,1.085,3.423,3.423,0,0,1,1.3,2.743q0,3.264-3.5,5.64a14.472,14.472,0,0,1-8.323,2.375q-.034.479-.034.854a4.241,4.241,0,0,0,1.119,3.085,3.987,3.987,0,0,0,3,1.154Q58.5-2.256,63.027-4.666ZM51.611-8.989A7.815,7.815,0,0,0,56.55-10.5,4.661,4.661,0,0,0,58.5-14.338a3.844,3.844,0,0,0-.5-2.17,1.7,1.7,0,0,0-1.5-.718q-1.76,0-3.136,2.316A14.475,14.475,0,0,0,51.611-8.989ZM70.5-16.44l-1.88-10.544H74.1L72.222-16.44Zm2.82,15.6.854-4.324h2.1l-.051.308q-.085.632-.205,1.743a1.643,1.643,0,0,0,1.045,1.393,5.287,5.287,0,0,0,2.57.573,3.145,3.145,0,0,0,2.287-.914,3,3,0,0,0,.934-2.23,4.2,4.2,0,0,0-1.555-2.8l-1.367-1.35q-3.2-3.162-3.2-5.332A4.589,4.589,0,0,1,78.861-17.7a9.538,9.538,0,0,1,5.6-1.5,17.584,17.584,0,0,1,5.11.8l-.854,4.375h-2.1l.034-.325L86.9-16.2q0-1.487-2.416-1.487a3.634,3.634,0,0,0-2.426.7,2.622,2.622,0,0,0-.814,2.1,4.493,4.493,0,0,0,1.76,3.076l1.384,1.282q3.23,2.991,3.23,5.161a4.983,4.983,0,0,1-2.145,4.2A9.259,9.259,0,0,1,79.827.427,17.824,17.824,0,0,1,73.315-.837ZM100.246,0l.308-1.589.325-.017a3.928,3.928,0,0,0,2.17-.5,8.947,8.947,0,0,0,.923-2.845l3.069-15.4.376-2.176q0-.986-2.119-1.156l-.325-.017.325-1.589h11.249a34.029,34.029,0,0,1,6.138.393,7.846,7.846,0,0,1,3.382,1.555q2.825,2.273,2.825,6.938a16.509,16.509,0,0,1-4.349,11.783A14.565,14.565,0,0,1,113.447,0Zm12.823-23.669-3.746,18.7a9.933,9.933,0,0,0-.171,1.9.924.924,0,0,0,.5.943,6.406,6.406,0,0,0,2.144.223,10.264,10.264,0,0,0,8.4-4q3.216-4,3.216-10.476,0-4-2.057-5.648T114.3-23.669ZM141.829,0,143.4-7.913a18.739,18.739,0,0,1-4.374,6.007A7.713,7.713,0,0,1,134.044.427a3.433,3.433,0,0,1-2.728-1.256A4.706,4.706,0,0,1,130.242-4a15.067,15.067,0,0,1,1.541-6.332,17.577,17.577,0,0,1,4.027-5.614,11.073,11.073,0,0,1,7.814-3.042q.562,0,2.094.154.2.034.664.068h4.188l-2.7,13.8-.273,1.8-.1.394q0,1.028,2.136,1.165l.308.017L149.614,0Zm2.233-11.211,1.013-5.076a6.542,6.542,0,0,0-3.292-1.042q-4.141,0-5.889,8.675a21.969,21.969,0,0,0-.526,3.661,2.05,2.05,0,0,0,.315,1.241,1.105,1.105,0,0,0,.944.419q2.11,0,7.094-7.365Q143.807-10.817,144.062-11.211ZM149.194,6.75a38.068,38.068,0,0,0,9.441-7.3,80.292,80.292,0,0,0-2.688-13.193,11.163,11.163,0,0,0-1.275-2.828,1.916,1.916,0,0,0-1.564-.59l-.513-.017.308-1.589h6.657a59.209,59.209,0,0,1,3,13.246l1.285-1.519q4.763-5.676,4.763-7.967a5.032,5.032,0,0,0-1.777-3.761h5.828a4.507,4.507,0,0,1,.41,1.709,5.966,5.966,0,0,1-1.1,3.333q-1.1,1.658-5.936,7.195l-3.938,4.507a58.979,58.979,0,0,0-6.452,8.772ZM172.642,0l.841-4.221h5.053L177.695,0Zm2.647-7.161,1.386-13.074,1.008-5.059h5.053l-1.008,5.058L177.919-7.161Z" transform="translate(439 171)" fill="#fff59a"/><g transform="translate(-6.669 79.789)"><g transform="translate(21.148 0)"><path d="M-333.7-458.7c1.994.136,4.486,2.927,5.675,4.459.831-1.751,2.664-5.014,4.582-5.577,3.23-.946,4.355,2.109,4.072,4.967-.435,4.406-7.48,11.465-7.48,11.465s-8.382-5.379-9.756-9.588C-337.494-455.7-337.053-458.929-333.7-458.7Z" transform="translate(945.646 567.806)" fill="#fb9267"/><path d="M-382.237-499.108c-1.165,1.356-.948,4.693-.719,6.41-1.636-.57-4.862-1.448-6.422-.58-2.627,1.465-1.387,4.1.611,5.707,3.078,2.484,11.987,2.423,11.987,2.423s1.83-8.708.012-12.222C-377.95-499.647-380.28-501.389-382.237-499.108Z" transform="translate(844.901 545.264)" fill="#fd4b65"/><path d="M-431.9-511.287c-1.06.636-1.647,2.875-1.871,4.054-.951-.731-2.878-2.012-4.093-1.783-2.046.388-1.806,2.387-.845,3.882,1.48,2.3,7.347,4.21,7.347,4.21s3.1-5.322,2.675-8.027C-428.962-510.705-430.113-512.358-431.9-511.287Z" transform="matrix(0.899, 0.438, -0.438, 0.899, 859.192, 670.181)" fill="#fb9267"/><path d="M-423.436-320.78c-1.762,1.007-2.8,4.66-3.213,6.586-1.536-1.234-4.653-3.4-6.655-3.069-3.371.564-3.048,3.853-1.526,6.34,2.348,3.835,11.909,7.169,11.909,7.169s5.281-8.623,4.673-13.079C-418.639-319.721-420.469-322.475-423.436-320.78Z" transform="translate(1064.091 334.69)" fill="#a33240"/><path d="M-692.4-506.251c-1.669,1.53-1.9,5.759-1.871,7.953-1.972-.962-5.9-2.554-7.991-1.7-3.524,1.446-2.363,4.941-.093,7.27,3.5,3.589,14.712,4.858,14.712,4.858s3.615-10.675,1.859-15.37C-686.926-506.283-689.592-508.824-692.4-506.251Z" transform="translate(730.129 595.683)" fill="#fc8594"/></g><g transform="translate(77 29.345)"><path d="M-734.947-299.983c-2.1-1.167-6.431.015-8.63.779.309-2.308.6-6.791-.968-8.611-2.634-3.066-5.765-.724-7.348,2.338-2.444,4.723.035,16.438.035,16.438s11.957.064,16.094-3.275C-733.083-294.481-731.415-298.018-734.947-299.983Z" transform="translate(858.368 90.443) rotate(-22)" fill="#fb9267"/><path d="M-355.193-604.881c-1.769-.382-4.637,1.422-6.058,2.455-.284-1.732-1.06-5.032-2.588-6-2.573-1.635-4.32.742-4.791,3.3-.727,3.944,3.634,11.855,3.634,11.855s8.644-2.578,10.9-5.9C-352.639-601.32-352.213-604.239-355.193-604.881Z" transform="translate(367.712 595.965)" fill="#fb9267"/></g></g><circle cx="13" cy="13" r="13" transform="translate(672 168)" fill="#f5abce"/><path d="M277.359,261.436v15.058l89.636-19.79-89.636-19.2v14.424H239v9.505Z" transform="translate(148.996 -50.507)" fill="none" fill-rule="evenodd"/><path d="M245.876,247.108v5.11l7.545-7.584-7.545-7.127V242.4H233v4.706Z" transform="translate(441.521 -63.482)" fill="#5d1c5e" fill-rule="evenodd"/><path d="M-80.793,1.263A14.324,14.324,0,0,1-78.525-5.21a88.826,88.826,0,0,1,8.486-9.648l6.841-7.087H-79.205l.964-4.763h18.994L-60-22.984l-1.285,1.531-1.436,1.606Q-73.989-7.393-74.859,1.263Zm30.257.7a7.571,7.571,0,0,1-6.237-2.7q-2.192-2.7-2.192-7.654a21.692,21.692,0,0,1,4.233-13.333q4.233-5.679,9.922-5.679a7.561,7.561,0,0,1,6.218,2.693Q-36.4-22.021-36.4-17.05A21.7,21.7,0,0,1-40.633-3.726Q-44.866,1.962-50.536,1.962Zm8.58-21.833a9.251,9.251,0,0,0-.8-4.334,2.58,2.58,0,0,0-2.4-1.445q-3.37,0-5.774,6.761a39.789,39.789,0,0,0-2.48,13.352,9.139,9.139,0,0,0,.8,4.306A2.568,2.568,0,0,0-50.228.2q3.37,0,5.793-6.761A39.582,39.582,0,0,0-41.955-19.87ZM-28.972-12.7a6.061,6.061,0,0,1-4.139-1.228A4.655,4.655,0,0,1-34.49-17.6a9.371,9.371,0,0,1,2.334-6.52,7.566,7.566,0,0,1,5.868-2.589,5.721,5.721,0,0,1,4.044,1.4,4.852,4.852,0,0,1,1.512,3.742,8.909,8.909,0,0,1-2.381,6.3A7.687,7.687,0,0,1-28.972-12.7Zm.359-1.739q1.55,0,2.684-2.4a13.209,13.209,0,0,0,1.134-5.7,2.676,2.676,0,0,0-.472-1.726,1.75,1.75,0,0,0-1.436-.575q-1.512,0-2.608,2.405a13.667,13.667,0,0,0-1.1,5.707,2.721,2.721,0,0,0,.454,1.707A1.605,1.605,0,0,0-28.613-14.442ZM-35.275,1.263-9.353-26.707h3.806L-31.468,1.263Zm20.968,0A6.093,6.093,0,0,1-18.445.044a4.625,4.625,0,0,1-1.38-3.657,9.371,9.371,0,0,1,2.334-6.52,7.566,7.566,0,0,1,5.868-2.589,5.744,5.744,0,0,1,4.044,1.389A4.822,4.822,0,0,1-6.066-7.6,8.909,8.909,0,0,1-8.448-1.3,7.687,7.687,0,0,1-14.306,1.263Zm.359-1.739q1.569,0,2.7-2.4a13.209,13.209,0,0,0,1.134-5.7,2.638,2.638,0,0,0-.482-1.726,1.779,1.779,0,0,0-1.446-.575q-1.512,0-2.608,2.4a13.7,13.7,0,0,0-1.1,5.735,2.679,2.679,0,0,0,.454,1.7A1.617,1.617,0,0,0-13.947-.476ZM19.032,1.962A10.9,10.9,0,0,1,11.085-.9a10.283,10.283,0,0,1-2.939-7.72,18.244,18.244,0,0,1,5.471-13.192A17.436,17.436,0,0,1,26.5-27.407q5.178,0,8.1,2.788a10.191,10.191,0,0,1,2.92,7.739A18.3,18.3,0,0,1,32.063-3.594,17.62,17.62,0,0,1,19.032,1.962ZM20.241.091Q24.834.091,28.1-5a22.17,22.17,0,0,0,3.27-12.237q0-4.139-1.455-6.2a5.012,5.012,0,0,0-4.385-2.06q-4.649,0-7.909,5.093a22.471,22.471,0,0,0-3.26,12.369q0,4.063,1.474,6.095A5.088,5.088,0,0,0,20.241.091Zm28.637-12L47.339-4.226a14.582,14.582,0,0,0-.3,2.69q0,.625.359.758a13.615,13.615,0,0,0,2.362.265l.34.019-.34,1.758H37.379l.34-1.758.359-.019a4.344,4.344,0,0,0,2.4-.558A9.894,9.894,0,0,0,41.5-4.218l3.394-17.028.416-2.407q0-1.091-2.362-1.279l-.34-.019.359-1.758h20.4l-1.039,5.254h-2.8l.076-.34a11.979,11.979,0,0,0,.34-1.89q0-1.153-2.589-1.153H51.467L49.2-13.535h3.884a14.947,14.947,0,0,0,2.58-.112q.35-.112.52-.862.038-.206.227-.881l.094-.356h1.984L57.3-9.7H55.318l.057-.34q.038-.378.094-.756a2.885,2.885,0,0,0,.057-.567q0-.548-2.721-.548Zm23.284,0L70.623-4.226a14.582,14.582,0,0,0-.3,2.69q0,.625.359.758a13.615,13.615,0,0,0,2.362.265l.34.019-.34,1.758H60.663L61-.495l.359-.019a4.344,4.344,0,0,0,2.4-.558,9.894,9.894,0,0,0,1.021-3.147l3.394-17.028.416-2.407q0-1.091-2.362-1.279l-.34-.019.359-1.758h20.4l-1.039,5.254h-2.8l.076-.34a11.98,11.98,0,0,0,.34-1.89q0-1.153-2.589-1.153H74.751l-2.263,11.3h3.884a14.947,14.947,0,0,0,2.58-.112q.35-.112.52-.862.038-.206.227-.881l.094-.356h1.984L80.586-9.7H78.6l.057-.34q.038-.378.094-.756a2.885,2.885,0,0,0,.057-.567q0-.548-2.721-.548Z" transform="translate(158.623 172.222)" fill="#fff59a" stroke="#fff59a" stroke-width="1"/></g></svg>