<svg xmlns="http://www.w3.org/2000/svg" width="82.999" height="58.101" viewBox="0 0 82.999 58.101"><g transform="translate(-919 -2842.9)"><path d="M-5340.425,69.443h-37.35A6.232,6.232,0,0,1-5384,63.218V59.483a14.841,14.841,0,0,1,4.377-10.564,14.84,14.84,0,0,1,10.563-4.377h1.076a20.464,20.464,0,0,0,8.884,2.075,20.369,20.369,0,0,0,8.883-2.075h1.077a14.841,14.841,0,0,1,10.563,4.377,14.841,14.841,0,0,1,4.377,10.564v3.735A6.232,6.232,0,0,1-5340.425,69.443Zm-18.675-29.05a14.432,14.432,0,0,1-10.273-4.252,14.433,14.433,0,0,1-4.252-10.273,14.432,14.432,0,0,1,4.252-10.273,14.432,14.432,0,0,1,10.273-4.252,14.432,14.432,0,0,1,10.273,4.252,14.433,14.433,0,0,1,4.252,10.273,14.433,14.433,0,0,1-4.252,10.273A14.432,14.432,0,0,1-5359.1,40.393Z" transform="translate(6303 2831.558)" fill="#a833fc"/><path d="M-5294.573,59.812h-22.9c0-.115.02-.232.035-.346l0-.017v-.007a3.638,3.638,0,0,0,.039-.461V54a19.015,19.015,0,0,0-5.147-12.943,14.335,14.335,0,0,1,7.224-2h.492A17.385,17.385,0,0,0-5309.1,40.1a17.379,17.379,0,0,0,5.731-1.038h.493a14.43,14.43,0,0,1,10.272,4.252,14.431,14.431,0,0,1,4.252,10.273A6.232,6.232,0,0,1-5294.573,59.812Zm-14.524-24.9a12.464,12.464,0,0,1-12.451-12.45,12.464,12.464,0,0,1,12.451-12.45,12.464,12.464,0,0,1,12.45,12.45A12.464,12.464,0,0,1-5309.1,34.912Z" transform="translate(6290.347 2837.038)" fill="#ff6363"/></g></svg>