<svg xmlns="http://www.w3.org/2000/svg" width="99" height="76.66" viewBox="0 0 99 76.66"><g transform="translate(-1316 -2821.34)"><rect width="29" height="39" rx="5" transform="translate(1351 2859)" fill="#a833fc"/><rect width="29" height="32" rx="5" transform="translate(1386 2866)" fill="#a833fc"/><rect width="29" height="20" rx="5" transform="translate(1316 2878)" fill="#a833fc"/><path d="M35.553,1.11,31.436,9.456,22.227,10.8a2.018,2.018,0,0,0-1.116,3.442l6.663,6.493L26.2,29.905a2.016,2.016,0,0,0,2.925,2.124L37.362,27.7,45.6,32.03a2.018,2.018,0,0,0,2.925-2.124L46.95,20.733l6.663-6.493A2.018,2.018,0,0,0,52.5,10.8l-9.21-1.343L39.171,1.11a2.019,2.019,0,0,0-3.618,0Z" transform="translate(1328.029 2821.353)" fill="#ff6363"/></g></svg>