<svg xmlns="http://www.w3.org/2000/svg" width="67" height="40" viewBox="0 0 67 40"><defs><style>.a{fill:#fff;opacity:0;}.b{fill-rule:evenodd;}</style></defs><g transform="translate(0.11 -0.347)"><rect class="a" width="67" height="40" rx="6" transform="translate(-0.11 0.347)"/><path class="b" d="M28.015,23.561A3.783,3.783,0,0,0,30.394,27a9.141,9.141,0,0,1-1.227,2.418c-.739,1.036-1.506,2.066-2.713,2.088-1.187.022-1.568-.674-2.925-.674s-1.781.653-2.9.7c-1.165.042-2.054-1.12-2.8-2.152-1.522-2.11-2.686-5.962-1.123-8.562a4.367,4.367,0,0,1,3.667-2.13c1.145-.021,2.226.738,2.925.738s2.013-.913,3.394-.779a4.2,4.2,0,0,1,3.241,1.685,3.837,3.837,0,0,0-1.916,3.235m-2.231-6.316a3.647,3.647,0,0,0,.922-2.713A4.026,4.026,0,0,0,24.1,15.82a3.466,3.466,0,0,0-.941,2.629,3.343,3.343,0,0,0,2.629-1.2m8.959-1.231q.756-.124,1.518-.206a16.674,16.674,0,0,1,1.826-.091,8.029,8.029,0,0,1,2.454.332,4.439,4.439,0,0,1,1.7.952,3.908,3.908,0,0,1,.89,1.307,4.448,4.448,0,0,1,.319,1.743,4.688,4.688,0,0,1-.438,2.087,4.346,4.346,0,0,1-1.2,1.5,5.1,5.1,0,0,1-1.8.906,8.288,8.288,0,0,1-2.278.3,9.234,9.234,0,0,1-1.873-.161v6.6H34.744V16.015Zm1.115,7.706a5.041,5.041,0,0,0,.9.159q.5.045,1.067.046a5.086,5.086,0,0,0,3.309-.963,3.437,3.437,0,0,0,1.174-2.82A3.686,3.686,0,0,0,42,18.583a2.8,2.8,0,0,0-.878-1.089,4.076,4.076,0,0,0-1.352-.642,6.456,6.456,0,0,0-1.732-.218,12.678,12.678,0,0,0-1.3.058q-.545.057-.877.126v6.9Zm16.455,4.953q0,.665.023,1.33a8.416,8.416,0,0,0,.143,1.284H51.436l-.165-1.559h-.048a3.906,3.906,0,0,1-.545.642,4.148,4.148,0,0,1-1.767,1.009,4.42,4.42,0,0,1-1.222.161,3.772,3.772,0,0,1-1.459-.264,3.014,3.014,0,0,1-1.032-.688,2.784,2.784,0,0,1-.6-.975,3.174,3.174,0,0,1-.2-1.1,3.345,3.345,0,0,1,1.7-3A9.6,9.6,0,0,1,51.2,24.5v-.3a6.95,6.95,0,0,0-.083-1,3.062,3.062,0,0,0-.368-1.066,2.329,2.329,0,0,0-.854-.847,2.959,2.959,0,0,0-1.541-.345,5.153,5.153,0,0,0-2.774.826l-.356-.8a5.343,5.343,0,0,1,1.565-.722,6.435,6.435,0,0,1,1.685-.218,4.167,4.167,0,0,1,1.933.39,3.175,3.175,0,0,1,1.174,1.009,3.68,3.68,0,0,1,.581,1.387,7.782,7.782,0,0,1,.155,1.524v4.335h0ZM51.2,25.394a15.918,15.918,0,0,0-1.886.069,7.008,7.008,0,0,0-1.814.4,3.464,3.464,0,0,0-1.375.906,2.253,2.253,0,0,0-.546,1.582,2.069,2.069,0,0,0,.688,1.719,2.4,2.4,0,0,0,1.541.551,3.837,3.837,0,0,0,1.233-.184,3.166,3.166,0,0,0,1.624-1.192,3.232,3.232,0,0,0,.416-.8,3.069,3.069,0,0,0,.119-.666V25.394Zm3.3-5.114,2.892,7.155q.238.6.451,1.227t.379,1.158h.048q.166-.5.379-1.135t.474-1.3l2.7-7.108h1.185l-3.3,8.072q-.453,1.17-.937,2.327-.4.961-.89,1.881a13.374,13.374,0,0,1-.914,1.479,6.244,6.244,0,0,1-1.031,1.123A5.589,5.589,0,0,1,54.719,36q-.367.181-.746.333l-.381-.894a9.389,9.389,0,0,0,.949-.481,5.155,5.155,0,0,0,1.02-.78,9.238,9.238,0,0,0,.937-1.089,7.556,7.556,0,0,0,.913-1.639,1.809,1.809,0,0,0,.143-.481,1.334,1.334,0,0,0-.143-.481l-4.1-10.205h1.187Z" transform="translate(-5.228 -4.76)"/></g></svg>