<svg xmlns="http://www.w3.org/2000/svg" width="68" height="39.652" viewBox="0 0 68 39.652"><defs><style>.a{fill:#fff;opacity:0;}.b{fill:#0061c2;}</style></defs><g transform="translate(0.496 -0.347)"><rect class="a" width="68" height="39.652" rx="6" transform="translate(-0.496 0.347)"/><path class="b" d="M14.665,11.843l1.576,1.721H13.1l1.566-1.721Zm32.748.072H41.347v.758h5.968V13.81H41.361v.845h6.066v.678l4.231-2.058-4.232-2.146-.012.787ZM18.764,9.769H26.9l1.808,1.774,1.673-1.779H51.511l2.2,1.091,2.271-1.091h9.7L58.513,13.3l7.1,3.51H55.761l-2.2-1.091-2.292,1.091H16.822l-1.005-1.091h-2.3l-1.01,1.091H4.537l6.695-7.042h6.987l.544.005Zm17.648.989H31.852L28.8,14l-3.311-3.243H20.959v4.41l-4.2-4.411H12.7L7.849,15.811h3.167l1.007-1.091h5.289l1.007,1.091H23.86V12.2l3.566,3.614h2.425l3.545-3.6v3.6h2.97l.049-5.062h0ZM55.442,13.3,60.6,10.758H56.886L53.623,12.34l-3.152-1.582H38.462v5.06H50.3l3.288-1.594,3.152,1.594h3.822L55.443,13.3h0Z" transform="translate(-1.486 6.715)"/></g></svg>