<svg id="组件_22_1" data-name="组件 22 – 1" xmlns="http://www.w3.org/2000/svg" xmlns:xlink="http://www.w3.org/1999/xlink" width="277.704" height="70.055" viewBox="0 0 277.704 70.055">
  <defs>
    <linearGradient id="linear-gradient" x1="-0.023" y1="0.5" x2="0.955" y2="0.594" gradientUnits="objectBoundingBox">
      <stop offset="0" stop-color="#fecb48"/>
      <stop offset="1" stop-color="#f4e2ff" stop-opacity="0"/>
    </linearGradient>
    <filter id="路径_12785" x="209.282" y="1.633" width="68.422" height="68.422" filterUnits="userSpaceOnUse">
      <feOffset dy="4" input="SourceAlpha"/>
      <feGaussianBlur stdDeviation="3" result="blur"/>
      <feFlood flood-color="#67573b" flood-opacity="0.431"/>
      <feComposite operator="in" in2="blur"/>
      <feComposite in="SourceGraphic"/>
    </filter>
  </defs>
  <g id="join_us" data-name="join us" transform="translate(-1085.507 -3578.156)">
    <rect id="矩形_871" data-name="矩形 871" width="210" height="34" rx="17" transform="translate(1125 3594)" fill="url(#linear-gradient)"/>
    <text id="Get_Followers_Now" data-name="Get Followers Now" transform="translate(1157 3618)" fill="#ef18a7" font-size="14" font-family="Montserrat-Bold, Montserrat" font-weight="700"><tspan x="0" y="0">Get Followers Now</tspan></text>
    <g transform="matrix(1, 0, 0, 1, 1085.51, 3578.16)" filter="url(#路径_12785)">
      <path id="路径_12785-2" data-name="路径 12785" d="M25.211,0A25.211,25.211,0,1,1,0,25.211,25.211,25.211,0,0,1,25.211,0Z" transform="translate(218.28 6.63)" fill="#bb26f0"/>
    </g>
    <path id="路径_12773" data-name="路径 12773" d="M295.5,260.771h15.632v6.544l8.841-8.157L311.131,251v6.543H295.5Z" transform="translate(1020.9 3351.436)" fill="#fff" fill-rule="evenodd"/>
    <g id="组_4315" data-name="组 4315" transform="translate(929.604 3382.105)">
      <path id="路径_12774" data-name="路径 12774" d="M385.607,202.686a.5.5,0,0,0-.375.22,6.3,6.3,0,0,0-.553.768c-.1.191-.206.389-.289.591.067.126.008.3.211.34a.28.28,0,0,0,.337-.139c.081-.154.167-.307.244-.46a3.122,3.122,0,0,1,.589-1.009.176.176,0,0,0,.028-.233C385.759,202.689,385.694,202.679,385.607,202.686Z" transform="translate(-10.187)" fill="#8618ef"/>
      <path id="路径_12775" data-name="路径 12775" d="M372.545,211.821c.132-.011.231.009.233-.137s-.081-.192-.231-.22a5.931,5.931,0,0,0-1.553,0c-.176.058-.519-.012-.8.2-.079.06-.155.116-.134.229s.119.058.183.079a1.2,1.2,0,0,0,.742-.055A7.852,7.852,0,0,1,372.545,211.821Z" transform="translate(0 -6.205)" fill="#8618ef"/>
      <path id="路径_12776" data-name="路径 12776" d="M376.521,215.49a4.511,4.511,0,0,0-1.008.778c-.112.151-.322.246-.3.442,0,.149.027.25.135.3s.163-.054.232-.108c.133-.1.2-.266.342-.37.3-.217.573-.466.872-.68.166-.118.059-.222.007-.311A.19.19,0,0,0,376.521,215.49Z" transform="translate(-3.662 -9.075)" fill="#8618ef"/>
      <path id="路径_12777" data-name="路径 12777" d="M388.113,210.552a.217.217,0,0,0-.092.33c.076.124.22.172.312.071a.861.861,0,0,1,.448-.2,3.479,3.479,0,0,1,.61-.2c.164-.023.318-.155.5-.133.122.015.173-.047.208-.163-.06-.075-.079-.176-.231-.185a3.6,3.6,0,0,0-.869.167A5.8,5.8,0,0,0,388.113,210.552Z" transform="translate(-12.74 -5.249)" fill="#8618ef"/>
      <path id="路径_12778" data-name="路径 12778" d="M390.931,217.711a2.864,2.864,0,0,1-1.049-.32.325.325,0,0,0-.362-.008c-.058.036-.113.084-.091.161.042.147.172.191.3.237a.187.187,0,0,0,.083.015.657.657,0,0,1,.412.145,1.862,1.862,0,0,0,.858.331c.113,0,.231.01.287-.123s-.02-.184-.1-.267A.488.488,0,0,0,390.931,217.711Z" transform="translate(-13.765 -10.411)" fill="#8618ef"/>
      <path id="路径_12779" data-name="路径 12779" d="M378.436,204.742a8.627,8.627,0,0,1-.892-1.052c-.078-.107-.2-.2-.339-.1s-.094.235-.022.355a15.162,15.162,0,0,0,1,1.2.147.147,0,0,0,.2.034c.067-.048.154-.088.126-.214C378.492,204.9,378.489,204.8,378.436,204.742Z" transform="translate(-5.017 -0.613)" fill="#8618ef"/>
      <path id="路径_12780" data-name="路径 12780" d="M384.711,221.345c.186,0,.177-.178.171-.317a5.953,5.953,0,0,0-.027-.838.791.791,0,0,1,.047-.523.284.284,0,0,0-.147-.419c-.128-.06-.241.071-.318.2a.425.425,0,0,0-.038.237c-.014.448.165.877.115,1.332C384.5,221.131,384.547,221.341,384.711,221.345Z" transform="translate(-10.193 -11.763)" fill="#8618ef"/>
    </g>
    <g id="组_4316" data-name="组 4316" transform="translate(1328.596 3183.49) rotate(82)">
      <path id="路径_12774-2" data-name="路径 12774" d="M385.226,202.686a.345.345,0,0,0-.257.151,4.331,4.331,0,0,0-.38.527c-.07.131-.142.267-.2.406.046.087.006.207.145.234a.192.192,0,0,0,.232-.1c.055-.106.115-.21.167-.315a2.143,2.143,0,0,1,.4-.693.121.121,0,0,0,.019-.16C385.33,202.687,385.285,202.681,385.226,202.686Z" transform="translate(-11.487)" fill="#8618ef"/>
      <path id="路径_12775-2" data-name="路径 12775" d="M371.766,211.693c.09-.008.159.006.16-.094s-.055-.132-.159-.151a4.07,4.07,0,0,0-1.066,0c-.121.04-.356-.008-.548.137-.054.041-.107.08-.092.157s.081.039.125.054a.821.821,0,0,0,.509-.038A5.39,5.39,0,0,1,371.766,211.693Z" transform="translate(0 -6.996)" fill="#8618ef"/>
      <path id="路径_12776-2" data-name="路径 12776" d="M376.11,215.478a3.093,3.093,0,0,0-.692.534c-.077.1-.221.169-.207.3,0,.1.019.172.093.207s.112-.037.159-.074c.091-.072.137-.183.234-.254.2-.149.393-.32.6-.466.114-.081.041-.152,0-.213A.13.13,0,0,0,376.11,215.478Z" transform="translate(-4.129 -10.233)" fill="#8618ef"/>
      <path id="路径_12777-2" data-name="路径 12777" d="M388.072,210.4a.149.149,0,0,0-.063.226c.052.085.151.118.214.049a.591.591,0,0,1,.308-.137,2.389,2.389,0,0,1,.418-.138c.113-.016.218-.107.346-.091.084.01.118-.032.143-.112-.041-.052-.054-.121-.158-.127a2.473,2.473,0,0,0-.6.115A3.98,3.98,0,0,0,388.072,210.4Z" transform="translate(-14.365 -5.918)" fill="#8618ef"/>
      <path id="路径_12778-2" data-name="路径 12778" d="M390.459,217.592a1.966,1.966,0,0,1-.72-.22.223.223,0,0,0-.249-.005c-.04.025-.078.058-.063.111.029.1.118.131.2.162a.128.128,0,0,0,.057.011.451.451,0,0,1,.283.1,1.278,1.278,0,0,0,.589.227c.077,0,.158.007.2-.085s-.014-.126-.066-.183A.335.335,0,0,0,390.459,217.592Z" transform="translate(-15.522 -11.74)" fill="#8618ef"/>
      <path id="路径_12779-2" data-name="路径 12779" d="M378.023,204.367a5.922,5.922,0,0,1-.612-.722c-.053-.073-.137-.139-.233-.069s-.065.162-.015.244a10.4,10.4,0,0,0,.686.824.1.1,0,0,0,.14.023c.046-.033.106-.061.087-.147C378.061,204.475,378.059,204.4,378.023,204.367Z" transform="translate(-5.658 -0.691)" fill="#8618ef"/>
      <path id="路径_12780-2" data-name="路径 12780" d="M384.613,220.682c.128,0,.122-.122.117-.218a4.09,4.09,0,0,0-.018-.575.543.543,0,0,1,.032-.359.2.2,0,0,0-.1-.288c-.088-.041-.165.049-.219.139a.292.292,0,0,0-.026.163c-.009.308.113.6.079.914C384.469,220.535,384.5,220.68,384.613,220.682Z" transform="translate(-11.493 -13.264)" fill="#8618ef"/>
    </g>
    <g id="组_4317" data-name="组 4317" transform="matrix(0.485, 0.875, -0.875, 0.485, 1043.042, 3320.012)">
      <path id="路径_12781" data-name="路径 12781" d="M273.187,99.448h0a.393.393,0,0,0,.392-.392V96.392a.393.393,0,0,0-.392-.392h0a.393.393,0,0,0-.392.392v2.664A.393.393,0,0,0,273.187,99.448Z" transform="translate(-4.463)" fill="#a151f2"/>
      <path id="路径_12782" data-name="路径 12782" d="M267,102.188h0a.393.393,0,0,0,.392.392h2.664a.393.393,0,0,0,.392-.392h0a.393.393,0,0,0-.392-.392h-2.664A.393.393,0,0,0,267,102.188Z" transform="translate(0 -4.464)" fill="#a151f2"/>
    </g>
    <g id="组_4327" data-name="组 4327" transform="matrix(0.485, 0.875, -0.875, 0.485, 1212.042, 3309.012)">
      <path id="路径_12781-2" data-name="路径 12781" d="M273.187,99.448h0a.393.393,0,0,0,.392-.392V96.392a.393.393,0,0,0-.392-.392h0a.393.393,0,0,0-.392.392v2.664A.393.393,0,0,0,273.187,99.448Z" transform="translate(-4.463)" fill="#a151f2"/>
      <path id="路径_12782-2" data-name="路径 12782" d="M267,102.188h0a.393.393,0,0,0,.392.392h2.664a.393.393,0,0,0,.392-.392h0a.393.393,0,0,0-.392-.392h-2.664A.393.393,0,0,0,267,102.188Z" transform="translate(0 -4.464)" fill="#a151f2"/>
    </g>
    <g id="组_4318" data-name="组 4318" transform="matrix(0.999, -0.035, 0.035, 0.999, 1017.818, 3546.633)">
      <path id="路径_12781-3" data-name="路径 12781" d="M273.118,98.844h0a.324.324,0,0,0,.323-.323v-2.2a.324.324,0,0,0-.323-.323h0a.324.324,0,0,0-.323.323v2.2A.324.324,0,0,0,273.118,98.844Z" transform="translate(-4.696)" fill="#a151f2"/>
      <path id="路径_12782-3" data-name="路径 12782" d="M267,102.119h0a.324.324,0,0,0,.323.323h2.2a.324.324,0,0,0,.323-.323h0a.324.324,0,0,0-.323-.323h-2.2A.324.324,0,0,0,267,102.119Z" transform="translate(0 -4.697)" fill="#a151f2"/>
    </g>
    <g id="椭圆_262" data-name="椭圆 262" transform="translate(1187 3636)" fill="none" stroke="#c19dd8" stroke-width="1">
      <circle cx="2" cy="2" r="2" stroke="none"/>
      <circle cx="2" cy="2" r="1.5" fill="none"/>
    </g>
  </g>
  <g id="南瓜" transform="translate(15.962 -3.069)">
    <path id="路径_16768" data-name="路径 16768" d="M1160.5-161.8c.01-.055.031-.106.038-.162a.207.207,0,0,0-.168-.221c-1.334-3.579-6.507-10.4-12.516-7.961-3.048-2.808-7.3-2.938-11.578-1.428-1.389.49-1.6.142-3.016-.211a11.374,11.374,0,0,0-3.716-.281,9.216,9.216,0,0,0-5.328,2.206,19.14,19.14,0,0,0-1.892-.507,8.311,8.311,0,0,0-5.676,2.02,17.161,17.161,0,0,0-4.586,7.27c-.362,1.011-.589,2.186.55,2.869a27.815,27.815,0,0,0,3.849,1.94,40.558,40.558,0,0,0,17.1,3.487,62.571,62.571,0,0,0,16.706-2.7c3.527-1.07,9.207-2.9,10.153-5.965A.37.37,0,0,0,1160.5-161.8Z" transform="translate(-1110.201 189.218)" fill="#c9431f"/>
    <path id="路径_16774" data-name="路径 16774" d="M1132.291-162.593a49.2,49.2,0,0,0-11.418.2,15.132,15.132,0,0,0-13.059,13.558,19.653,19.653,0,0,0,1.23,9.3,13.9,13.9,0,0,0,5.461,7.092c2.707,1.623,6.156,1.992,9.461,1.918a.428.428,0,0,0,.428-.6.613.613,0,0,0,.573-.407c1.566-5.079,3.874-9.981,5.624-15.018,1.764-5.08,1.58-10.3,3.154-15.361C1133.97-162.628,1132.86-162.968,1132.291-162.593Z" transform="translate(-1107.395 183.793)" fill="#dd5a31"/>
    <path id="路径_18895" data-name="路径 18895" d="M0,8.947S2.994,4.78,1.153.638L3.02,0S7.167,4.768,5.691,9.21s-4.938,1.9-4.938,1.9Z" transform="translate(24.833 9.341) rotate(11)" fill="#722803"/>
    <path id="路径_16775" data-name="路径 16775" d="M1116.634-157.893c.453-.336.924-.65,1.4-.96.219-.143.476-.291.71-.459a15.123,15.123,0,0,0-10.592,12.877,1.562,1.562,0,0,0,.508.507,2.11,2.11,0,0,0,2.765-.868c1.015-1.493,1.135-3.306,1.475-4.989a11.822,11.822,0,0,1,1.409-3.723A8.611,8.611,0,0,1,1116.634-157.893Z" transform="translate(-1107.714 179.878)" fill="#f47c40"/>
    <path id="路径_16776" data-name="路径 16776" d="M1214.267-152.019a23.417,23.417,0,0,0-1.488-4.389c-2.272-5.048-8.553-6.885-14.694-7.775-1.071-.155-3.125-.035-2.9,1.144.676,3.533,1.78,7,2.539,10.517,1.181,5.468,2.347,11.009,3.478,16.511.224,1.091.51,3.128,2.5,2.839,2.844-.412,5.562-1.339,7.284-3.263a15.872,15.872,0,0,0,3.4-7.449A19.284,19.284,0,0,0,1214.267-152.019Z" transform="translate(-1162.438 184.805)" fill="#dd5a31"/>
    <path id="路径_16777" data-name="路径 16777" d="M1183.282-162.567a13.123,13.123,0,0,0-9.016-3.834c-1.207.016-2.328.338-3.519.459-1.843.188-3.676.435-5.524.592-.681.058-.463,1.008-.424,1.366a22.175,22.175,0,0,1-.32,4.021,41.579,41.579,0,0,0,.008,5.565,103.58,103.58,0,0,0,2.228,13.648,14.123,14.123,0,0,0,1.984,5.177,3.99,3.99,0,0,0,.809,1,4.576,4.576,0,0,0,.952.55,15.841,15.841,0,0,0,6.933,1.666,11.486,11.486,0,0,0,7.7-3.091,12.972,12.972,0,0,0,3.768-7.614,25.831,25.831,0,0,0-.806-11.5A17.578,17.578,0,0,0,1183.282-162.567Z" transform="translate(-1141.251 186.358)" fill="#dd5a31"/>
    <path id="路径_16778" data-name="路径 16778" d="M1206.611-154.665c.732-1.058.05-2.615-.285-3.676a10.441,10.441,0,0,0-2.547-4.35,15.213,15.213,0,0,0-3.164-2.372,11.706,11.706,0,0,0-5.5-1.339c-.146,0-.292.009-.436.019a.534.534,0,0,0,.247.149l.048.014c.017.005.034.006.051.009a25.845,25.845,0,0,1,4.269,4.286,38.669,38.669,0,0,1,3.074,6.249C1203.053-154.169,1205.293-152.761,1206.611-154.665Z" transform="translate(-1163.224 184.797)" fill="#f47c40"/>
    <path id="路径_16779" data-name="路径 16779" d="M1144.511-164.089c-.884-1.515-3.089-1.776-4.913-1.743a15.592,15.592,0,0,0-7.042,1.611,12.548,12.548,0,0,0-6.16,8.6c-1.606,6.755-1.1,15.027,4.019,20.747a8.21,8.21,0,0,0,2.7,2.041,14.028,14.028,0,0,0,6.872,1.259c4.791-.482,5.434-5.334,5.72-8.853a88.575,88.575,0,0,0-.108-9.973c0-.03,0-.061,0-.091-.061-2.588-.151-5.175-.319-7.76C1145.167-160.017,1145.484-162.421,1144.511-164.089Z" transform="translate(-1119.715 185.95)" fill="#dd5a31"/>
    <path id="路径_16780" data-name="路径 16780" d="M1135.737-163.992a6.625,6.625,0,0,0-.792.8c-3.147,2.758-5.246,7.282-4.46,11,.729,3.445,5.288,4.637,6.015.59.478-2.656-.312-5.233.781-7.819a10.083,10.083,0,0,1,2.675-3.577c.606-.547,1.64-1.205,1.635-2.1a1.337,1.337,0,0,0-.079-.47,14.708,14.708,0,0,0-5.7,1.541C1135.788-164.022,1135.764-164.006,1135.737-163.992Z" transform="translate(-1121.949 184.312)" fill="#f47c40"/>
    <path id="路径_16781" data-name="路径 16781" d="M1174.284-152.222a36.752,36.752,0,0,0-.971-6.055c-.765-3-2.255-6.565-5.786-7.623a7.446,7.446,0,0,0-1.883-.3,8.275,8.275,0,0,0-3.774.729c-3.594,1.7-4.7,5.91-5.093,8.982a58.525,58.525,0,0,0,.321,15.971c.549,3.673,1.933,8.27,7.286,8.783,2.454.235,5.49.07,7.138-1.615,2.145-2.194,2.673-5.123,2.814-7.954A82.846,82.846,0,0,0,1174.284-152.222Z" transform="translate(-1138.176 186.215)" fill="#dd5a31"/>
    <path id="路径_16782" data-name="路径 16782" d="M1175.384-154.475a5.625,5.625,0,0,0,.006-3.631,20.646,20.646,0,0,0-2.082-4.836c-.807-1.307-1.9-2.989-3.664-3.2a8.626,8.626,0,0,0-4.061.483.727.727,0,0,0,.195.165,17.548,17.548,0,0,1-1.25,1.393,13.531,13.531,0,0,0-1.064,1.536,15.481,15.481,0,0,0-1.489,3.392,20.883,20.883,0,0,0-.808,7.327q.039.684.117,1.366c.369,3.224,2.563,8.134,6.639,8.618a5.35,5.35,0,0,0,4.272-1.473,5.95,5.95,0,0,0,1.579-3.386c.31-2.022-.517-4.268.75-6.1A6.932,6.932,0,0,0,1175.384-154.475Z" transform="translate(-1141.512 185.043)" fill="#f47c40"/>
    <path id="路径_16783" data-name="路径 16783" d="M1202.591-165.811a33.183,33.183,0,0,1,4.248,1.7,12.051,12.051,0,0,1,3.932,3.681c.157.231.538.028.4-.213a13.967,13.967,0,0,0-3.153-3.714c-.854-.223-1.725-.417-2.606-.583A12.052,12.052,0,0,0,1202.591-165.811Z" transform="translate(-1168.721 184.267)" fill="#c9431f"/>
    <path id="路径_16784" data-name="路径 16784" d="M1231.4-121.538c-.175,3.792.487,7.6-.549,11.329a20.013,20.013,0,0,1-3.791,7.857,11.258,11.258,0,0,0,.9-.71c.349-.095.69-.2,1.026-.321a25.445,25.445,0,0,0,2.5-5.889c1.26-4,.739-8.225.054-12.283C1231.535-121.635,1231.4-121.611,1231.4-121.538Z" transform="translate(-1184.392 154.222)" fill="#c9431f"/>
    <path id="路径_16785" data-name="路径 16785" d="M1133.679-94.33c-2.614-1.843-4.607-4.84-6.115-7.41-1.829-3.115-1.932-7.437-2.371-10.883-.013-.1-.182-.108-.18,0,.089,3.625-.189,8.017,1.727,11.319a55.456,55.456,0,0,0,3.662,5.234,12.943,12.943,0,0,0,1.066,1.261c.471.07.947.127,1.427.165Q1133.279-94.478,1133.679-94.33Z" transform="translate(-1119.323 147.835)" fill="#c9431f"/>
    <path id="路径_16786" data-name="路径 16786" d="M1136.537-163.46a13.394,13.394,0,0,0-1.663.607l-.067.009q-.772.117-1.5.294c-.413.405-.8.818-1.148,1.191a15.516,15.516,0,0,0-4.229,7.031c-.043.178.252.255.3.076C1129.264-157.849,1132.783-161.627,1136.537-163.46Z" transform="translate(-1121.329 182.679)" fill="#c9431f"/>
    <g id="组_5128" data-name="组 5128" transform="translate(18.409 18.354)">
      <path id="路径_16787" data-name="路径 16787" d="M1189.244-165.671c-.336-.22-.7-.446-1.091-.666a14.058,14.058,0,0,0-1.466.188,7.811,7.811,0,0,0-1.249-.145c-.1,0-.207,0-.31,0a9.782,9.782,0,0,1,4.625,2.241c1.881,1.657,2.637,4.757,3.512,6.93.055.137.292.084.245-.061C1192.547-160.206,1192.247-163.7,1189.244-165.671Z" transform="translate(-1176.428 166.337)" fill="#c9431f"/>
      <path id="路径_16788" data-name="路径 16788" d="M1163.7-165.6a9.354,9.354,0,0,0-1.337-.159,13.976,13.976,0,0,0-5.143,7.738c-.034.136.187.193.231.058.777-2.4,2.695-4.322,4.519-6.135a7.949,7.949,0,0,1,2.3-1.629C1164.073-165.69,1163.884-165.649,1163.7-165.6Z" transform="translate(-1157.214 165.922)" fill="#c9431f"/>
    </g>
    <path id="路径_16789" data-name="路径 16789" d="M1161.832-85.535a7.844,7.844,0,0,1-4.257-4.524,27.279,27.279,0,0,1-2.453-10.911c0-.053-.085-.052-.09,0a25.82,25.82,0,0,0,1.659,11.193,9.934,9.934,0,0,0,2.212,3.557,5.337,5.337,0,0,0,1.761,1.084,6.156,6.156,0,0,0,.891-.213,8.267,8.267,0,0,0,1.712.367C1162.863-85.194,1162.417-85.306,1161.832-85.535Z" transform="translate(-1137.954 139.448)" fill="#c9431f"/>
    <path id="路径_16790" data-name="路径 16790" d="M1204.543-96c.008-.134-.206-.126-.225,0a97.434,97.434,0,0,1-1.59,10.232,6.384,6.384,0,0,1-2.528,3.739,13.137,13.137,0,0,0,1.478.1C1204.615-85.582,1204.273-91.536,1204.543-96Z" transform="translate(-1167.568 135.924)" fill="#c9431f"/>
    <path id="路径_16791" data-name="路径 16791" d="M1232.9-148.991a23.427,23.427,0,0,0-1.489-4.389c-1.582-3.515-5.108-5.47-9.176-6.636.1.061.193.122.286.185a19.6,19.6,0,0,1,3.593,3.274,15.206,15.206,0,0,1,2.306,3.433,11.477,11.477,0,0,1,.727,1.94,4.645,4.645,0,0,0,.6,1.833,2.445,2.445,0,0,0,2.046.878,2.024,2.024,0,0,0,1.131-.418C1232.914-148.924,1232.909-148.958,1232.9-148.991Z" transform="translate(-1181.071 180.318)" fill="#f47c40"/>
    <g id="组_5129" data-name="组 5129" transform="translate(22.006 50.52)">
      <path id="路径_16792" data-name="路径 16792" d="M1171.98-53.8a1.4,1.4,0,0,0-1.032-.475,1.2,1.2,0,0,0-.943.49,1.291,1.291,0,0,0,.5,1.746,1.209,1.209,0,0,0,1.461-.234A1.022,1.022,0,0,0,1171.98-53.8Z" transform="translate(-1169.832 55.405)" fill="#c9431f"/>
      <path id="路径_16793" data-name="路径 16793" d="M1178.665-58a.787.787,0,0,0-.578-.266.672.672,0,0,0-.529.275.724.724,0,0,0,.281.978.678.678,0,0,0,.819-.131A.573.573,0,0,0,1178.665-58Z" transform="translate(-1175.083 58.262)" fill="#c9431f"/>
      <path id="路径_16794" data-name="路径 16794" d="M1181.336-51.041a.451.451,0,0,0-.333-.153.387.387,0,0,0-.3.158.416.416,0,0,0,.161.563.39.39,0,0,0,.471-.075A.329.329,0,0,0,1181.336-51.041Z" transform="translate(-1177.274 53.192)" fill="#c9431f"/>
    </g>
    <g id="组_5130" data-name="组 5130" transform="translate(28.352 37.007)">
      <path id="路径_16795" data-name="路径 16795" d="M1190.139-99.038a1.4,1.4,0,0,0-1.032-.475,1.2,1.2,0,0,0-.943.49,1.291,1.291,0,0,0,.5,1.746,1.209,1.209,0,0,0,1.461-.234A1.023,1.023,0,0,0,1190.139-99.038Z" transform="translate(-1187.991 100.639)" fill="#dd5a31"/>
      <path id="路径_16796" data-name="路径 16796" d="M1196.824-103.229a.785.785,0,0,0-.578-.266.671.671,0,0,0-.529.274.723.723,0,0,0,.281.978.678.678,0,0,0,.819-.131A.573.573,0,0,0,1196.824-103.229Z" transform="translate(-1193.242 103.495)" fill="#dd5a31"/>
      <path id="路径_16797" data-name="路径 16797" d="M1199.495-96.275a.453.453,0,0,0-.333-.153.386.386,0,0,0-.3.158.417.417,0,0,0,.162.563.39.39,0,0,0,.471-.076A.33.33,0,0,0,1199.495-96.275Z" transform="translate(-1195.433 98.426)" fill="#dd5a31"/>
    </g>
    <g id="组_5131" data-name="组 5131" transform="translate(42.032 46.451)">
      <path id="路径_16798" data-name="路径 16798" d="M1226.413-66.069a1.438,1.438,0,0,0-1.094.341.991.991,0,0,0-.27.955,1.531,1.531,0,0,0,1.73.891,1.033,1.033,0,0,0,.833-1.113A1.156,1.156,0,0,0,1226.413-66.069Z" transform="translate(-1225.015 67.932)" fill="#c9431f"/>
      <path id="路径_16799" data-name="路径 16799" d="M1227.588-72.655a.806.806,0,0,0-.613.191.556.556,0,0,0-.151.535.858.858,0,0,0,.97.5.579.579,0,0,0,.467-.624A.648.648,0,0,0,1227.588-72.655Z" transform="translate(-1226.247 72.656)" fill="#c9431f"/>
      <path id="路径_16800" data-name="路径 16800" d="M1234.179-69.114a.465.465,0,0,0-.353.11.319.319,0,0,0-.087.308.493.493,0,0,0,.558.287.333.333,0,0,0,.268-.359A.373.373,0,0,0,1234.179-69.114Z" transform="translate(-1231.013 70.115)" fill="#c9431f"/>
    </g>
    <g id="组_5132" data-name="组 5132" transform="translate(6.597 42.041)">
      <path id="路径_16801" data-name="路径 16801" d="M1130.855-80.992a1.282,1.282,0,0,0-.787.769.99.99,0,0,0,.259.958,1.621,1.621,0,0,0,1.989.044.956.956,0,0,0,.154-1.338A1.272,1.272,0,0,0,1130.855-80.992Z" transform="translate(-1129.375 82.678)" fill="#c9431f"/>
      <path id="路径_16802" data-name="路径 16802" d="M1128.38-86.574a.719.719,0,0,0-.442.431.555.555,0,0,0,.146.537.908.908,0,0,0,1.114.025.536.536,0,0,0,.086-.75A.713.713,0,0,0,1128.38-86.574Z" transform="translate(-1127.92 86.644)" fill="#c9431f"/>
      <path id="路径_16803" data-name="路径 16803" d="M1135.646-86.145a.415.415,0,0,0-.254.248.32.32,0,0,0,.083.309.523.523,0,0,0,.641.014.308.308,0,0,0,.049-.431A.41.41,0,0,0,1135.646-86.145Z" transform="translate(-1133.056 86.315)" fill="#c9431f"/>
    </g>
    <g id="组_5133" data-name="组 5133" transform="translate(6.176 48.543)">
      <path id="路径_16804" data-name="路径 16804" d="M1127.67-65.1a.817.817,0,0,0-.631-.133.631.631,0,0,0-.441.381.754.754,0,0,0,.53.889.657.657,0,0,0,.76-.3A.581.581,0,0,0,1127.67-65.1Z" transform="translate(-1126.567 65.255)" fill="#c9431f"/>
      <path id="路径_16805" data-name="路径 16805" d="M1131.792-58.83a.47.47,0,0,0-.363-.077.363.363,0,0,0-.254.219.433.433,0,0,0,.305.512.377.377,0,0,0,.437-.175A.334.334,0,0,0,1131.792-58.83Z" transform="translate(-1129.727 60.709)" fill="#c9431f"/>
    </g>
    <g id="组_5134" data-name="组 5134" transform="translate(33.79 41.199)">
      <path id="路径_16806" data-name="路径 16806" d="M1205.921-88.757a.68.68,0,0,0-.334-.5.716.716,0,0,0-.609-.022.729.729,0,0,0-.335.964.66.66,0,0,0,.771.283A.615.615,0,0,0,1205.921-88.757Z" transform="translate(-1204.449 89.341)" fill="#c9431f"/>
      <path id="路径_16807" data-name="路径 16807" d="M1204.95-81.66a.393.393,0,0,0-.192-.29.412.412,0,0,0-.35-.013.42.42,0,0,0-.193.555.381.381,0,0,0,.443.163A.354.354,0,0,0,1204.95-81.66Z" transform="translate(-1204.174 84.072)" fill="#c9431f"/>
    </g>
    <g id="组_5135" data-name="组 5135" transform="translate(48.182 35.837)">
      <path id="路径_16808" data-name="路径 16808" d="M1246.006-107a.76.76,0,0,0-.53-.339.691.691,0,0,0-.567.2.714.714,0,0,0,.122,1.005.682.682,0,0,0,.831-.023A.576.576,0,0,0,1246.006-107Z" transform="translate(-1244.753 107.342)" fill="#c9431f"/>
      <path id="路径_16809" data-name="路径 16809" d="M1247.747-99.811a.435.435,0,0,0-.3-.195.4.4,0,0,0-.326.116.411.411,0,0,0,.07.578.393.393,0,0,0,.478-.013A.331.331,0,0,0,1247.747-99.811Z" transform="translate(-1246.318 102.081)" fill="#c9431f"/>
    </g>
    <g id="组_5136" data-name="组 5136" transform="translate(7.824 31.148)">
      <path id="路径_16810" data-name="路径 16810" d="M1133.11-122.745a.759.759,0,0,0-.53-.339.691.691,0,0,0-.567.2.714.714,0,0,0,.122,1.005.682.682,0,0,0,.831-.023A.576.576,0,0,0,1133.11-122.745Z" transform="translate(-1131.857 123.087)" fill="#dd5a31"/>
      <path id="路径_16811" data-name="路径 16811" d="M1134.851-115.556a.437.437,0,0,0-.3-.195.4.4,0,0,0-.326.116.411.411,0,0,0,.07.578.392.392,0,0,0,.478-.013A.331.331,0,0,0,1134.851-115.556Z" transform="translate(-1133.422 117.826)" fill="#dd5a31"/>
    </g>
    <path id="路径_16812" data-name="路径 16812" d="M1167.5-154.58c-2.248,2.817-2.6,6.935-2.135,10.271a.2.2,0,0,0,.39,0,23.011,23.011,0,0,1,2.651-9.791C1168.722-154.652,1167.893-155.07,1167.5-154.58Z" transform="translate(-1144.848 176.653)" fill="#f7ad2b"/>
    <path id="路径_16813" data-name="路径 16813" d="M1140.035-155.56a4.664,4.664,0,0,0-2.066,2,10.448,10.448,0,0,0-1.265,3c-.036.131.164.173.217.054a12.553,12.553,0,0,1,1.891-2.863,9.449,9.449,0,0,0,1.583-1.871C1140.477-155.417,1140.232-155.626,1140.035-155.56Z" transform="translate(-1126.282 177.083)" fill="#f7ad2b"/>
    <path id="路径_16814" data-name="路径 16814" d="M1117.992-143.873c-.654.216-1.066.909-1.411,1.424a7.937,7.937,0,0,0-.958,2.1c-.057.182.227.24.3.076a11.41,11.41,0,0,1,1.155-1.913c.351-.481.952-.936,1.123-1.5A.166.166,0,0,0,1117.992-143.873Z" transform="translate(-1112.853 168.853)" fill="#f7ad2b"/>
    <path id="路径_16815" data-name="路径 16815" d="M1211.661-157.159a10.624,10.624,0,0,0-1.634-2.8,5.857,5.857,0,0,0-1.266-1.014,2.51,2.51,0,0,0-1.381-.618.344.344,0,0,0-.352.319c-.008.871,1.407,1.156,2.032,1.639a11.711,11.711,0,0,1,2.3,2.589C1211.455-156.91,1211.737-156.995,1211.661-157.159Z" transform="translate(-1171.982 181.297)" fill="#f7ad2b"/>
    <path id="路径_16816" data-name="路径 16816" d="M1244.633-142.728a7.372,7.372,0,0,0-2.174-3.37c-.164-.145-.48,0-.4.211a3.924,3.924,0,0,0,.992,1.255,5.591,5.591,0,0,1,1.293,1.975C1244.41-142.494,1244.684-142.557,1244.633-142.728Z" transform="translate(-1194.707 170.448)" fill="#f7ad2b"/>
    <path id="路径_16817" data-name="路径 16817" d="M1175.735-160.787a.241.241,0,0,0-.215-.148.369.369,0,0,0-.4-.025,1.036,1.036,0,0,0-.6,1.21.353.353,0,0,0,.421.217,1.26,1.26,0,0,0,.642-.558C1175.707-160.272,1175.86-160.577,1175.735-160.787Z" transform="translate(-1150.999 180.843)" fill="#f7ad2b"/>
    <path id="路径_16818" data-name="路径 16818" d="M1149.272-159.3c-.3.088-.753.349-.729.68a.436.436,0,0,0,.744.239,1.439,1.439,0,0,0,.35-.408A.327.327,0,0,0,1149.272-159.3Z" transform="translate(-1134.077 179.649)" fill="#f7ad2b"/>
    <g id="gift" transform="translate(-8.537 31.841)">
      <rect id="矩形_865" data-name="矩形 865" width="15.249" height="13.724" transform="translate(4.454 8.116)" fill="#a94eff"/>
      <rect id="矩形_866" data-name="矩形 866" width="1.525" height="15.249" transform="translate(19.701 14.486) rotate(90)" fill="#8618ef"/>
      <path id="路径_12786" data-name="路径 12786" d="M1835.858,699.569s2.7-1.753,4.532-1.19l-.378.354.17.594a6.723,6.723,0,0,0-4.38.343Z" transform="translate(-1823.226 -691.313)" fill="#bd77ff"/>
      <path id="路径_12787" data-name="路径 12787" d="M1260.03,305.3s-.476-.058-1.186-.155c-1.884-.259-5.412-.8-6.045-1.3-1-.788,1.363-4.135,2.383-4.6S1260.03,305.3,1260.03,305.3Z" transform="translate(-1247.549 -297.443)" fill="#a94eff"/>
      <path id="路径_12788" data-name="路径 12788" d="M1830.6,165.795c.17.829-7.535,4.411-7.535,4.411s.14-.379.369-.973h0c.832-2.168,2.839-7.2,3.5-7.128a.793.793,0,0,1,.23.068A10.023,10.023,0,0,1,1830.6,165.795Z" transform="translate(-1810.658 -162.103)" fill="#9227f8"/>
      <path id="路径_12789" data-name="路径 12789" d="M1855.169,162.909c-.47.817-3.615,6.238-3.664,6.323.833-2.168,2.84-7.2,3.5-7.128a.419.419,0,0,1,.23.068C1855.354,162.26,1855.429,162.458,1855.169,162.909Z" transform="translate(-1838.726 -162.103)" fill="#a94eff"/>
      <path id="路径_12790" data-name="路径 12790" d="M1272.267,586.228h0c-1.883-.259-5.411-.8-6.044-1.3-.286-.805.456-.871,1-.928S1272.267,586.228,1272.267,586.228Z" transform="translate(-1260.972 -578.524)" fill="#9227f8"/>
      <path id="路径_12791" data-name="路径 12791" d="M1717.69,708.7s.432-.983,1.282-1.037c.888-.057,1.392,1.037,1.392,1.037Z" transform="translate(-1706.646 -700.581)" fill="#a94eff"/>
      <rect id="矩形_868" data-name="矩形 868" width="15.249" height="2.287" transform="translate(4.454 8.116)" fill="#9227f8"/>
      <path id="路径_12792" data-name="路径 12792" d="M1303.163,742.962a8.459,8.459,0,0,0-4.1-.263c-1.9.591-1.791,2.94-1.791,2.94l.448-.184.6.284s.1-2.487,1.654-2.836A9.425,9.425,0,0,1,1303.163,742.962Z" transform="translate(-1291.682 -734.995)" fill="#bd77ff"/>
      <rect id="矩形_870" data-name="矩形 870" width="0.911" height="13.724" transform="translate(12.363 8.116)" fill="#8618ef"/>
      <g id="组_4564" data-name="组 4564" transform="translate(0 11.739)">
        <ellipse id="椭圆_313" data-name="椭圆 313" cx="8.344" cy="0.853" rx="8.344" ry="0.853" transform="translate(0 11.853)" fill="#47260f" opacity="0.1" style="mix-blend-mode: multiply;isolation: isolate"/>
        <g id="组_4561" data-name="组 4561" transform="translate(4.415 7.463)">
          <path id="路径_13877" data-name="路径 13877" d="M559.229,442.931a10.882,10.882,0,0,0,.234,1.59,4.771,4.771,0,0,0-.514-.159,6.621,6.621,0,0,0-2.27-.13c-.22.022-.44.055-.662.093a.225.225,0,0,0-.136.3,7.369,7.369,0,0,0,2.347,2.662,6.625,6.625,0,0,0-1.081.59c-.136.091-.269.187-.4.286a.112.112,0,0,0,.033.19,6.738,6.738,0,0,0,2.7.4,4.324,4.324,0,0,0,1.9-.768c.226-.156.418-.353.632-.523a.013.013,0,0,0,.006-.007s0,0,0,0,0,0,0,0a2.791,2.791,0,0,0,.055-.89,3.619,3.619,0,0,0-.155-.839,4.319,4.319,0,0,0-.819-1.467,6.283,6.283,0,0,0-1.294-1.157c-.135-.092-.274-.18-.414-.264A.112.112,0,0,0,559.229,442.931Z" transform="translate(-555.862 -442.816)" fill="#ffc217"/>
          <path id="路径_13878" data-name="路径 13878" d="M559.394,442.83a.112.112,0,0,0-.164.1,10.882,10.882,0,0,0,.234,1.59,4.771,4.771,0,0,0-.514-.159,6.621,6.621,0,0,0-2.27-.13c-.22.022-.44.055-.662.093a.225.225,0,0,0-.136.3l.116.185a5.445,5.445,0,0,1,1.628.851,5.773,5.773,0,0,1,1.547,1.662,1.391,1.391,0,0,1,.206.619.728.728,0,0,1-.328.637,2.01,2.01,0,0,1-.405.187,4,4,0,0,0,.836-.009,4.324,4.324,0,0,0,1.9-.768c.226-.156.418-.353.632-.523a.013.013,0,0,0,.006-.007s0,0,0,0,0,0,0,0a2.791,2.791,0,0,0,.055-.89,3.619,3.619,0,0,0-.155-.839,4.319,4.319,0,0,0-.819-1.467,6.283,6.283,0,0,0-1.294-1.157C559.673,443,559.534,442.914,559.394,442.83Z" transform="translate(-555.862 -442.816)" fill="#f7ad2b"/>
          <path id="路径_13879" data-name="路径 13879" d="M559.811,443.094c-.135-.092-.274-.18-.414-.264a.112.112,0,0,0-.164.1,10.891,10.891,0,0,0,.234,1.59,4.767,4.767,0,0,0-.514-.159,6.621,6.621,0,0,0-2.27-.13c-.22.022-.44.055-.662.093a.231.231,0,0,0-.154.225,33.093,33.093,0,0,1,6.105,2.949l.045-.038a.013.013,0,0,0,.006-.007s0,0,0,0,0,0,0,0a2.793,2.793,0,0,0,.055-.89,3.616,3.616,0,0,0-.155-.839,4.319,4.319,0,0,0-.819-1.467A6.286,6.286,0,0,0,559.811,443.094Z" transform="translate(-555.866 -442.816)" fill="#ea9a1b"/>
          <path id="路径_13880" data-name="路径 13880" d="M568.437,442.931a11.393,11.393,0,0,0,.213,1.493,1.274,1.274,0,0,1,.02-.52.328.328,0,0,1,.337-.241,1.727,1.727,0,0,1,.754.3,3.12,3.12,0,0,1,.648.474c.067.066.13.135.191.205-.091-.134-.188-.264-.291-.388a6.282,6.282,0,0,0-1.294-1.157c-.135-.092-.274-.18-.415-.264A.112.112,0,0,0,568.437,442.931Z" transform="translate(-565.07 -442.816)" fill="#ffc217"/>
          <path id="路径_13881" data-name="路径 13881" d="M559.952,450.771a40.593,40.593,0,0,1,5.583,3.077l.221-.346A46.766,46.766,0,0,0,559.952,450.771Z" transform="translate(-558.857 -448.641)" fill="#84182f"/>
        </g>
        <g id="组_5591" data-name="组 5591" transform="matrix(0.951, 0.309, -0.309, 0.951, 54.514, 0)">
          <path id="路径_13877-2" data-name="路径 13877" d="M4.6.157A14.871,14.871,0,0,0,4.923,2.33a6.527,6.527,0,0,0-.7-.217,9.052,9.052,0,0,0-3.1-.177c-.3.031-.6.075-.9.127a.307.307,0,0,0-.186.4A10.075,10.075,0,0,0,3.235,6.106a9.05,9.05,0,0,0-1.477.806c-.186.124-.367.256-.546.391a.154.154,0,0,0,.045.26,9.213,9.213,0,0,0,3.694.553,5.912,5.912,0,0,0,2.6-1.05c.309-.213.572-.482.865-.716a.019.019,0,0,0,.008-.01s0,0,0,0,0,0,0-.007A3.821,3.821,0,0,0,8.5,5.113a4.952,4.952,0,0,0-.212-1.147,5.9,5.9,0,0,0-1.12-2.006A8.592,8.592,0,0,0,5.394.379C5.21.253,5.02.134,4.828.018A.154.154,0,0,0,4.6.157Z" fill="#ffc217"/>
          <path id="路径_13878-2" data-name="路径 13878" d="M4.828.018A.154.154,0,0,0,4.6.157,14.871,14.871,0,0,0,4.923,2.33a6.527,6.527,0,0,0-.7-.217,9.052,9.052,0,0,0-3.1-.177c-.3.031-.6.075-.9.127a.307.307,0,0,0-.186.4l.158.253A7.443,7.443,0,0,1,2.411,3.883,7.893,7.893,0,0,1,4.527,6.155,1.9,1.9,0,0,1,4.809,7a1,1,0,0,1-.448.87,2.751,2.751,0,0,1-.554.256A5.476,5.476,0,0,0,4.95,8.116a5.912,5.912,0,0,0,2.6-1.05c.309-.213.572-.482.865-.716a.019.019,0,0,0,.008-.01s0,0,0,0,0,0,0-.007A3.821,3.821,0,0,0,8.5,5.113a4.952,4.952,0,0,0-.212-1.147,5.9,5.9,0,0,0-1.12-2.006A8.592,8.592,0,0,0,5.394.379C5.21.253,5.02.134,4.828.018Z" fill="#f7ad2b"/>
          <path id="路径_13879-2" data-name="路径 13879" d="M5.393.379C5.208.253,5.018.134,4.826.018A.154.154,0,0,0,4.6.157a14.9,14.9,0,0,0,.32,2.173,6.524,6.524,0,0,0-.7-.217,9.053,9.053,0,0,0-3.1-.177c-.3.031-.6.075-.9.127A.316.316,0,0,0,0,2.371,45.237,45.237,0,0,1,8.347,6.4l.061-.052a.018.018,0,0,0,.008-.01s0,0,0,0,0,0,0-.007a3.819,3.819,0,0,0,.076-1.217,4.945,4.945,0,0,0-.212-1.147,5.9,5.9,0,0,0-1.12-2.006A8.6,8.6,0,0,0,5.393.379Z" transform="translate(0.002)" fill="#ea9a1b"/>
          <path id="路径_13880-2" data-name="路径 13880" d="M0,.157A15.6,15.6,0,0,0,.292,2.2a1.739,1.739,0,0,1,.027-.711.449.449,0,0,1,.46-.329,2.362,2.362,0,0,1,1.031.406,4.272,4.272,0,0,1,.886.648c.091.09.177.184.262.28-.124-.183-.257-.361-.4-.531A8.592,8.592,0,0,0,.792.379C.607.253.417.134.225.018A.154.154,0,0,0,0,.157Z" transform="translate(4.603)" fill="#ffc217"/>
          <path id="路径_13881-2" data-name="路径 13881" d="M0,0A55.5,55.5,0,0,1,7.633,4.206l.3-.473A63.944,63.944,0,0,0,0,0Z" transform="translate(1.497 2.912)" fill="#84182f"/>
        </g>
      </g>
    </g>
  </g>
</svg>
