<svg xmlns="http://www.w3.org/2000/svg" xmlns:xlink="http://www.w3.org/1999/xlink" width="262.381" height="66.604" viewBox="0 0 262.381 66.604">
  <defs>
    <linearGradient id="linear-gradient" x1="-0.023" y1="0.5" x2="0.955" y2="0.594" gradientUnits="objectBoundingBox">
      <stop offset="0" stop-color="#fecb48"/>
      <stop offset="1" stop-color="#f4e2ff" stop-opacity="0"/>
    </linearGradient>
    <filter id="路径_12785" x="215.756" y="17.291" width="46.625" height="46.625" filterUnits="userSpaceOnUse">
      <feOffset dy="4" input="SourceAlpha"/>
      <feGaussianBlur stdDeviation="3" result="blur"/>
      <feFlood flood-color="#67573b" flood-opacity="0.431"/>
      <feComposite operator="in" in2="blur"/>
      <feComposite in="SourceGraphic"/>
    </filter>
  </defs>
  <g id="组_5604" data-name="组 5604" transform="translate(19292.068 18066.604)">
    <rect id="矩形_871" data-name="矩形 871" width="210" height="34" rx="17" transform="translate(-19259 -18046)" fill="url(#linear-gradient)"/>
    <path id="路径_18936" data-name="路径 18936" d="M13.424-5.776h2.368v4.544A6.765,6.765,0,0,1,13.68-.176a8.2,8.2,0,0,1-2.416.368A6.547,6.547,0,0,1,8.128-.552,5.538,5.538,0,0,1,5.944-2.616,5.687,5.687,0,0,1,5.152-5.6a5.687,5.687,0,0,1,.792-2.984,5.512,5.512,0,0,1,2.2-2.064,6.675,6.675,0,0,1,3.168-.744,6.933,6.933,0,0,1,2.672.5A5.294,5.294,0,0,1,16-9.456L14.336-7.92a3.849,3.849,0,0,0-2.9-1.264,3.953,3.953,0,0,0-1.9.448,3.214,3.214,0,0,0-1.3,1.264A3.72,3.72,0,0,0,7.776-5.6,3.688,3.688,0,0,0,8.24-3.744,3.282,3.282,0,0,0,9.528-2.472a3.817,3.817,0,0,0,1.88.456,4.2,4.2,0,0,0,2.016-.48Zm13.024,1.5q0,.048-.048.672H19.888a2.028,2.028,0,0,0,.832,1.264,2.756,2.756,0,0,0,1.632.464,3.3,3.3,0,0,0,1.192-.2,2.887,2.887,0,0,0,.968-.632l1.328,1.44A4.463,4.463,0,0,1,22.288.128,5.619,5.619,0,0,1,19.712-.44a4.164,4.164,0,0,1-1.728-1.576A4.342,4.342,0,0,1,17.376-4.3a4.4,4.4,0,0,1,.6-2.28,4.2,4.2,0,0,1,1.648-1.584,4.839,4.839,0,0,1,2.344-.568,4.8,4.8,0,0,1,2.288.544,3.971,3.971,0,0,1,1.608,1.56A4.652,4.652,0,0,1,26.448-4.272ZM21.984-6.848a2.15,2.15,0,0,0-1.424.48,2.043,2.043,0,0,0-.7,1.312H24.1a2.064,2.064,0,0,0-.7-1.3A2.1,2.1,0,0,0,21.984-6.848ZM33.664-.416a2.566,2.566,0,0,1-.9.408,4.571,4.571,0,0,1-1.128.136,3.351,3.351,0,0,1-2.376-.784,3,3,0,0,1-.84-2.3V-6.5H27.088v-1.92h1.328v-2.1h2.5v2.1h2.144V-6.5H30.912v3.5a1.175,1.175,0,0,0,.28.84,1.038,1.038,0,0,0,.792.3,1.6,1.6,0,0,0,1.008-.32Zm8.7-8.7v2.96h5.184v2.08H42.368V0H39.776V-11.2H48.24v2.08ZM53.7.128a5.162,5.162,0,0,1-2.44-.568,4.222,4.222,0,0,1-1.688-1.576A4.342,4.342,0,0,1,48.96-4.3a4.342,4.342,0,0,1,.608-2.288,4.223,4.223,0,0,1,1.688-1.576,5.162,5.162,0,0,1,2.44-.568,5.114,5.114,0,0,1,2.432.568,4.236,4.236,0,0,1,1.68,1.576A4.342,4.342,0,0,1,58.416-4.3a4.342,4.342,0,0,1-.608,2.288A4.236,4.236,0,0,1,56.128-.44,5.114,5.114,0,0,1,53.7.128Zm0-2.048a2.079,2.079,0,0,0,1.576-.648A2.416,2.416,0,0,0,55.888-4.3a2.416,2.416,0,0,0-.616-1.736A2.079,2.079,0,0,0,53.7-6.688a2.1,2.1,0,0,0-1.584.648A2.4,2.4,0,0,0,51.488-4.3a2.4,2.4,0,0,0,.624,1.736A2.1,2.1,0,0,0,53.7-1.92Zm6.384-9.952h2.5V0h-2.5Zm4.816,0h2.5V0H64.9Zm8.912,12a5.162,5.162,0,0,1-2.44-.568A4.222,4.222,0,0,1,69.68-2.016,4.342,4.342,0,0,1,69.072-4.3a4.342,4.342,0,0,1,.608-2.288,4.222,4.222,0,0,1,1.688-1.576,5.162,5.162,0,0,1,2.44-.568,5.114,5.114,0,0,1,2.432.568,4.236,4.236,0,0,1,1.68,1.576A4.342,4.342,0,0,1,78.528-4.3a4.342,4.342,0,0,1-.608,2.288A4.236,4.236,0,0,1,76.24-.44,5.114,5.114,0,0,1,73.808.128Zm0-2.048a2.079,2.079,0,0,0,1.576-.648A2.416,2.416,0,0,0,76-4.3a2.416,2.416,0,0,0-.616-1.736,2.079,2.079,0,0,0-1.576-.648,2.1,2.1,0,0,0-1.584.648A2.4,2.4,0,0,0,71.6-4.3a2.4,2.4,0,0,0,.624,1.736A2.1,2.1,0,0,0,73.808-1.92ZM93.776-8.608,90.656,0h-2.4L86.32-5.344,84.32,0h-2.4l-3.1-8.608h2.352L83.2-2.784l2.112-5.824h2.112l2.048,5.824,2.1-5.824Zm9.36,4.336q0,.048-.048.672H96.576a2.028,2.028,0,0,0,.832,1.264,2.756,2.756,0,0,0,1.632.464,3.3,3.3,0,0,0,1.192-.2A2.887,2.887,0,0,0,101.2-2.7l1.328,1.44A4.463,4.463,0,0,1,98.976.128,5.619,5.619,0,0,1,96.4-.44a4.164,4.164,0,0,1-1.728-1.576A4.342,4.342,0,0,1,94.064-4.3a4.4,4.4,0,0,1,.6-2.28,4.2,4.2,0,0,1,1.648-1.584,4.839,4.839,0,0,1,2.344-.568,4.8,4.8,0,0,1,2.288.544,3.971,3.971,0,0,1,1.608,1.56A4.652,4.652,0,0,1,103.136-4.272ZM98.672-6.848a2.15,2.15,0,0,0-1.424.48,2.043,2.043,0,0,0-.7,1.312h4.24a2.064,2.064,0,0,0-.7-1.3A2.1,2.1,0,0,0,98.672-6.848Zm8.512-.624a2.776,2.776,0,0,1,1.208-.944,4.483,4.483,0,0,1,1.752-.32v2.3q-.416-.032-.56-.032a2.288,2.288,0,0,0-1.68.6,2.425,2.425,0,0,0-.608,1.8V0h-2.5V-8.608h2.384Zm7.376,7.6a8.362,8.362,0,0,1-2.1-.264A5.476,5.476,0,0,1,110.832-.8l.832-1.792a5.236,5.236,0,0,0,1.392.6,5.834,5.834,0,0,0,1.6.232q1.584,0,1.584-.784a.555.555,0,0,0-.432-.528,6.4,6.4,0,0,0-1.328-.272,12.811,12.811,0,0,1-1.744-.368,2.706,2.706,0,0,1-1.192-.736,2.093,2.093,0,0,1-.5-1.5,2.356,2.356,0,0,1,.472-1.448,3.038,3.038,0,0,1,1.376-.984,5.877,5.877,0,0,1,2.136-.352,8.383,8.383,0,0,1,1.816.2,5.076,5.076,0,0,1,1.5.552L117.5-6.208a4.967,4.967,0,0,0-2.48-.64,2.523,2.523,0,0,0-1.2.224.659.659,0,0,0-.4.576.572.572,0,0,0,.432.56,7.648,7.648,0,0,0,1.376.3,14.729,14.729,0,0,1,1.728.376,2.6,2.6,0,0,1,1.168.728,2.066,2.066,0,0,1,.5,1.472,2.273,2.273,0,0,1-.48,1.424,3.064,3.064,0,0,1-1.4.968A6.237,6.237,0,0,1,114.56.128ZM135.136-11.2V0h-2.128l-5.584-6.8V0h-2.56V-11.2h2.144l5.568,6.8v-6.8ZM141.712.128a5.162,5.162,0,0,1-2.44-.568,4.222,4.222,0,0,1-1.688-1.576,4.342,4.342,0,0,1-.608-2.288,4.342,4.342,0,0,1,.608-2.288,4.222,4.222,0,0,1,1.688-1.576,5.162,5.162,0,0,1,2.44-.568,5.114,5.114,0,0,1,2.432.568,4.236,4.236,0,0,1,1.68,1.576,4.342,4.342,0,0,1,.608,2.288,4.342,4.342,0,0,1-.608,2.288,4.236,4.236,0,0,1-1.68,1.576A5.114,5.114,0,0,1,141.712.128Zm0-2.048a2.079,2.079,0,0,0,1.576-.648A2.416,2.416,0,0,0,143.9-4.3a2.416,2.416,0,0,0-.616-1.736,2.079,2.079,0,0,0-1.576-.648,2.1,2.1,0,0,0-1.584.648A2.4,2.4,0,0,0,139.5-4.3a2.4,2.4,0,0,0,.624,1.736A2.1,2.1,0,0,0,141.712-1.92ZM161.68-8.608,158.56,0h-2.4l-1.936-5.344-2,5.344h-2.4l-3.1-8.608h2.352L151.1-2.784l2.112-5.824h2.112l2.048,5.824,2.1-5.824Z" transform="translate(-19236 -18023)" fill="#ef18a7"/>
    <g transform="matrix(1, 0, 0, 1, -19292.07, -18066.6)" filter="url(#路径_12785)">
      <path id="路径_12785-2" data-name="路径 12785" d="M14.312,0A14.312,14.312,0,1,1,0,14.312,14.312,14.312,0,0,1,14.312,0Z" transform="translate(224.76 22.29)" fill="#b718ef"/>
    </g>
    <path id="路径_12773" data-name="路径 12773" d="M295.5,256.547h8.874v3.715l5.019-4.631L304.373,251v3.714H295.5Z" transform="translate(-19355.652 -18285.293)" fill="#fff" fill-rule="evenodd"/>
    <g id="组_4315" data-name="组 4315" transform="translate(-19477.396 -18253.895)">
      <path id="路径_12774" data-name="路径 12774" d="M385.607,202.686a.5.5,0,0,0-.375.22,6.3,6.3,0,0,0-.553.768c-.1.191-.206.389-.289.591.067.126.008.3.211.34a.28.28,0,0,0,.337-.139c.081-.154.167-.307.244-.46a3.122,3.122,0,0,1,.589-1.009.176.176,0,0,0,.028-.233C385.759,202.689,385.694,202.679,385.607,202.686Z" transform="translate(-10.187)" fill="#8618ef"/>
      <path id="路径_12775" data-name="路径 12775" d="M372.545,211.821c.132-.011.231.009.233-.137s-.081-.192-.231-.22a5.931,5.931,0,0,0-1.553,0c-.176.058-.519-.012-.8.2-.079.06-.155.116-.134.229s.119.058.183.079a1.2,1.2,0,0,0,.742-.055A7.852,7.852,0,0,1,372.545,211.821Z" transform="translate(0 -6.205)" fill="#8618ef"/>
      <path id="路径_12776" data-name="路径 12776" d="M376.521,215.49a4.511,4.511,0,0,0-1.008.778c-.112.151-.322.246-.3.442,0,.149.027.25.135.3s.163-.054.232-.108c.133-.1.2-.266.342-.37.3-.217.573-.466.872-.68.166-.118.059-.222.007-.311A.19.19,0,0,0,376.521,215.49Z" transform="translate(-3.662 -9.075)" fill="#8618ef"/>
      <path id="路径_12777" data-name="路径 12777" d="M388.113,210.552a.217.217,0,0,0-.092.33c.076.124.22.172.312.071a.861.861,0,0,1,.448-.2,3.479,3.479,0,0,1,.61-.2c.164-.023.318-.155.5-.133.122.015.173-.047.208-.163-.06-.075-.079-.176-.231-.185a3.6,3.6,0,0,0-.869.167A5.8,5.8,0,0,0,388.113,210.552Z" transform="translate(-12.74 -5.249)" fill="#8618ef"/>
      <path id="路径_12778" data-name="路径 12778" d="M390.931,217.711a2.864,2.864,0,0,1-1.049-.32.325.325,0,0,0-.362-.008c-.058.036-.113.084-.091.161.042.147.172.191.3.237a.187.187,0,0,0,.083.015.657.657,0,0,1,.412.145,1.862,1.862,0,0,0,.858.331c.113,0,.231.01.287-.123s-.02-.184-.1-.267A.488.488,0,0,0,390.931,217.711Z" transform="translate(-13.765 -10.411)" fill="#8618ef"/>
      <path id="路径_12779" data-name="路径 12779" d="M378.436,204.742a8.627,8.627,0,0,1-.892-1.052c-.078-.107-.2-.2-.339-.1s-.094.235-.022.355a15.162,15.162,0,0,0,1,1.2.147.147,0,0,0,.2.034c.067-.048.154-.088.126-.214C378.492,204.9,378.489,204.8,378.436,204.742Z" transform="translate(-5.017 -0.613)" fill="#8618ef"/>
      <path id="路径_12780" data-name="路径 12780" d="M384.711,221.345c.186,0,.177-.178.171-.317a5.953,5.953,0,0,0-.027-.838.791.791,0,0,1,.047-.523.284.284,0,0,0-.147-.419c-.128-.06-.241.071-.318.2a.425.425,0,0,0-.038.237c-.014.448.165.877.115,1.332C384.5,221.131,384.547,221.341,384.711,221.345Z" transform="translate(-10.193 -11.763)" fill="#8618ef"/>
    </g>
    <g id="组_4316" data-name="组 4316" transform="translate(-19075.404 -18461.51) rotate(82)">
      <path id="路径_12774-2" data-name="路径 12774" d="M385.226,202.686a.345.345,0,0,0-.257.151,4.331,4.331,0,0,0-.38.527c-.07.131-.142.267-.2.406.046.087.006.207.145.234a.192.192,0,0,0,.232-.1c.055-.106.115-.21.167-.315a2.143,2.143,0,0,1,.4-.693.121.121,0,0,0,.019-.16C385.33,202.687,385.285,202.681,385.226,202.686Z" transform="translate(-11.487)" fill="#8618ef"/>
      <path id="路径_12775-2" data-name="路径 12775" d="M371.766,211.693c.09-.008.159.006.16-.094s-.055-.132-.159-.151a4.07,4.07,0,0,0-1.066,0c-.121.04-.356-.008-.548.137-.054.041-.107.08-.092.157s.081.039.125.054a.821.821,0,0,0,.509-.038A5.39,5.39,0,0,1,371.766,211.693Z" transform="translate(0 -6.996)" fill="#8618ef"/>
      <path id="路径_12776-2" data-name="路径 12776" d="M376.11,215.478a3.093,3.093,0,0,0-.692.534c-.077.1-.221.169-.207.3,0,.1.019.172.093.207s.112-.037.159-.074c.091-.072.137-.183.234-.254.2-.149.393-.32.6-.466.114-.081.041-.152,0-.213A.13.13,0,0,0,376.11,215.478Z" transform="translate(-4.129 -10.233)" fill="#8618ef"/>
      <path id="路径_12777-2" data-name="路径 12777" d="M388.072,210.4a.149.149,0,0,0-.063.226c.052.085.151.118.214.049a.591.591,0,0,1,.308-.137,2.389,2.389,0,0,1,.418-.138c.113-.016.218-.107.346-.091.084.01.118-.032.143-.112-.041-.052-.054-.121-.158-.127a2.473,2.473,0,0,0-.6.115A3.98,3.98,0,0,0,388.072,210.4Z" transform="translate(-14.365 -5.918)" fill="#8618ef"/>
      <path id="路径_12778-2" data-name="路径 12778" d="M390.459,217.592a1.966,1.966,0,0,1-.72-.22.223.223,0,0,0-.249-.005c-.04.025-.078.058-.063.111.029.1.118.131.2.162a.128.128,0,0,0,.057.011.451.451,0,0,1,.283.1,1.278,1.278,0,0,0,.589.227c.077,0,.158.007.2-.085s-.014-.126-.066-.183A.335.335,0,0,0,390.459,217.592Z" transform="translate(-15.522 -11.74)" fill="#8618ef"/>
      <path id="路径_12779-2" data-name="路径 12779" d="M378.023,204.367a5.922,5.922,0,0,1-.612-.722c-.053-.073-.137-.139-.233-.069s-.065.162-.015.244a10.4,10.4,0,0,0,.686.824.1.1,0,0,0,.14.023c.046-.033.106-.061.087-.147C378.061,204.475,378.059,204.4,378.023,204.367Z" transform="translate(-5.658 -0.691)" fill="#8618ef"/>
      <path id="路径_12780-2" data-name="路径 12780" d="M384.613,220.682c.128,0,.122-.122.117-.218a4.09,4.09,0,0,0-.018-.575.543.543,0,0,1,.032-.359.2.2,0,0,0-.1-.288c-.088-.041-.165.049-.219.139a.292.292,0,0,0-.026.163c-.009.308.113.6.079.914C384.469,220.535,384.5,220.68,384.613,220.682Z" transform="translate(-11.493 -13.264)" fill="#8618ef"/>
    </g>
    <g id="组_4317" data-name="组 4317" transform="translate(-19443.848 -18222.471) rotate(16)">
      <path id="路径_12781" data-name="路径 12781" d="M273.055,98.285h0a.26.26,0,0,0,.26-.26V96.26a.26.26,0,0,0-.26-.26h0a.26.26,0,0,0-.26.26v1.766A.26.26,0,0,0,273.055,98.285Z" transform="translate(-4.912)" fill="#a151f2"/>
      <path id="路径_12782" data-name="路径 12782" d="M267,102.056h0a.26.26,0,0,0,.26.26h1.766a.26.26,0,0,0,.26-.26h0a.26.26,0,0,0-.26-.26H267.26A.26.26,0,0,0,267,102.056Z" transform="translate(0 -4.913)" fill="#a151f2"/>
    </g>
    <g id="组_4318" data-name="组 4318" transform="translate(-19337.848 -18186.471) rotate(16)">
      <path id="路径_12781-2" data-name="路径 12781" d="M273.055,98.285h0a.26.26,0,0,0,.26-.26V96.26a.26.26,0,0,0-.26-.26h0a.26.26,0,0,0-.26.26v1.766A.26.26,0,0,0,273.055,98.285Z" transform="translate(-4.912)" fill="#a151f2"/>
      <path id="路径_12782-2" data-name="路径 12782" d="M267,102.056h0a.26.26,0,0,0,.26.26h1.766a.26.26,0,0,0,.26-.26h0a.26.26,0,0,0-.26-.26H267.26A.26.26,0,0,0,267,102.056Z" transform="translate(0 -4.913)" fill="#a151f2"/>
    </g>
    <g id="椭圆_262" data-name="椭圆 262" transform="translate(-19197 -18004)" fill="none" stroke="#c19dd8" stroke-width="1">
      <circle cx="2" cy="2" r="2" stroke="none"/>
      <circle cx="2" cy="2" r="1.5" fill="none"/>
    </g>
    <g id="南瓜" transform="translate(-19283.531 -18065.332)">
      <path id="路径_16768" data-name="路径 16768" d="M1158.884-162.157c.01-.053.03-.1.037-.156a.2.2,0,0,0-.162-.214c-1.29-3.461-6.292-10.051-12.1-7.7-2.948-2.715-7.059-2.841-11.195-1.381-1.343.474-1.544.137-2.916-.2a11,11,0,0,0-3.593-.272,8.911,8.911,0,0,0-5.152,2.133,18.5,18.5,0,0,0-1.83-.491,8.036,8.036,0,0,0-5.488,1.953,16.593,16.593,0,0,0-4.434,7.029c-.35.978-.57,2.114.532,2.774a26.888,26.888,0,0,0,3.721,1.876,39.216,39.216,0,0,0,16.531,3.372,60.5,60.5,0,0,0,16.153-2.611c3.41-1.035,8.9-2.8,9.817-5.767A.357.357,0,0,0,1158.884-162.157Z" transform="translate(-1110.535 188.975)" fill="#c9431f"/>
      <path id="路径_16774" data-name="路径 16774" d="M1131.478-162.6a47.577,47.577,0,0,0-11.041.2,14.631,14.631,0,0,0-12.627,13.11A19,19,0,0,0,1109-140.3a13.438,13.438,0,0,0,5.28,6.857c2.617,1.569,5.952,1.926,9.148,1.855a.414.414,0,0,0,.414-.576.593.593,0,0,0,.554-.394c1.514-4.911,3.746-9.65,5.438-14.521,1.706-4.912,1.527-9.961,3.05-14.853C1133.1-162.634,1132.027-162.964,1131.478-162.6Z" transform="translate(-1107.687 183.408)" fill="#dd5a31"/>
      <path id="路径_18895" data-name="路径 18895" d="M.1,8.689S3,4.661,1.218.655L3.024.038s4.011,4.61,2.583,8.906S.832,10.783.832,10.783Z" transform="translate(23.635 9.283) rotate(11)" fill="#722803"/>
      <path id="路径_16775" data-name="路径 16775" d="M1116.353-157.94c.438-.325.894-.629,1.353-.928.211-.138.46-.281.686-.444a14.623,14.623,0,0,0-10.242,12.451,1.512,1.512,0,0,0,.491.491,2.041,2.041,0,0,0,2.673-.84c.981-1.444,1.1-3.2,1.426-4.824a11.432,11.432,0,0,1,1.363-3.6A8.327,8.327,0,0,1,1116.353-157.94Z" transform="translate(-1108.01 179.506)" fill="#f47c40"/>
      <path id="路径_16776" data-name="路径 16776" d="M1213.636-152.424a22.648,22.648,0,0,0-1.439-4.244c-2.2-4.881-8.27-6.657-14.208-7.518-1.036-.15-3.022-.034-2.8,1.106.654,3.416,1.721,6.768,2.455,10.169,1.142,5.287,2.269,10.645,3.363,15.965.217,1.055.494,3.024,2.421,2.745,2.75-.4,5.378-1.295,7.043-3.155a15.346,15.346,0,0,0,3.288-7.2A18.647,18.647,0,0,0,1213.636-152.424Z" transform="translate(-1163.803 184.434)" fill="#dd5a31"/>
      <path id="路径_16777" data-name="路径 16777" d="M1182.657-162.694a12.689,12.689,0,0,0-8.718-3.708c-1.167.016-2.251.327-3.4.444-1.782.182-3.555.421-5.341.573-.658.056-.447.975-.41,1.321a21.436,21.436,0,0,1-.309,3.888,40.2,40.2,0,0,0,.008,5.381,100.129,100.129,0,0,0,2.155,13.2,13.657,13.657,0,0,0,1.919,5.005,3.859,3.859,0,0,0,.782.97,4.426,4.426,0,0,0,.92.532,15.317,15.317,0,0,0,6.7,1.611,11.106,11.106,0,0,0,7.448-2.989,12.542,12.542,0,0,0,3.643-7.362,24.978,24.978,0,0,0-.779-11.119A17,17,0,0,0,1182.657-162.694Z" transform="translate(-1142.299 186.007)" fill="#dd5a31"/>
      <path id="路径_16778" data-name="路径 16778" d="M1206.216-155.053c.708-1.023.049-2.528-.276-3.554a10.1,10.1,0,0,0-2.463-4.206,14.71,14.71,0,0,0-3.059-2.293,11.319,11.319,0,0,0-5.315-1.295c-.142,0-.282.008-.421.018a.517.517,0,0,0,.239.144l.047.013c.017,0,.032.006.049.009a24.99,24.99,0,0,1,4.128,4.145,37.4,37.4,0,0,1,2.972,6.042C1202.776-154.573,1204.942-153.212,1206.216-155.053Z" transform="translate(-1164.547 184.497)" fill="#f47c40"/>
      <path id="路径_16779" data-name="路径 16779" d="M1143.885-164.146c-.855-1.465-2.986-1.717-4.751-1.685a15.077,15.077,0,0,0-6.809,1.558,12.133,12.133,0,0,0-5.956,8.32c-1.553,6.532-1.064,14.53,3.886,20.061a7.937,7.937,0,0,0,2.615,1.973,13.564,13.564,0,0,0,6.644,1.217c4.633-.466,5.254-5.158,5.531-8.56a85.66,85.66,0,0,0-.1-9.643c0-.029,0-.059,0-.088-.059-2.5-.146-5-.308-7.5C1144.519-160.209,1144.826-162.534,1143.885-164.146Z" transform="translate(-1120.192 185.594)" fill="#dd5a31"/>
      <path id="路径_16780" data-name="路径 16780" d="M1135.558-164.044a6.411,6.411,0,0,0-.766.773c-3.043,2.666-5.072,7.041-4.313,10.633.7,3.331,5.113,4.483,5.816.57.462-2.568-.3-5.06.755-7.561a9.75,9.75,0,0,1,2.587-3.459c.586-.529,1.585-1.166,1.581-2.035a1.293,1.293,0,0,0-.076-.454,14.221,14.221,0,0,0-5.51,1.49C1135.607-164.073,1135.584-164.058,1135.558-164.044Z" transform="translate(-1122.508 184.001)" fill="#f47c40"/>
      <path id="路径_16781" data-name="路径 16781" d="M1173.692-152.685a35.534,35.534,0,0,0-.939-5.854c-.74-2.9-2.18-6.348-5.6-7.37a7.2,7.2,0,0,0-1.821-.288,8,8,0,0,0-3.649.7c-3.475,1.642-4.549,5.714-4.924,8.685a56.586,56.586,0,0,0,.31,15.443c.531,3.552,1.869,8,7.045,8.493,2.373.228,5.308.068,6.9-1.562,2.074-2.121,2.585-4.953,2.721-7.691A80.124,80.124,0,0,0,1173.692-152.685Z" transform="translate(-1139.06 185.862)" fill="#dd5a31"/>
      <path id="路径_16782" data-name="路径 16782" d="M1174.913-154.863a5.438,5.438,0,0,0,.006-3.511,19.964,19.964,0,0,0-2.013-4.676c-.78-1.264-1.832-2.89-3.542-3.1a8.341,8.341,0,0,0-3.926.467.7.7,0,0,0,.188.16,16.971,16.971,0,0,1-1.209,1.346,13.1,13.1,0,0,0-1.029,1.485,14.97,14.97,0,0,0-1.44,3.28,20.193,20.193,0,0,0-.782,7.085q.038.662.113,1.321c.356,3.117,2.479,7.865,6.419,8.333a5.173,5.173,0,0,0,4.13-1.424,5.753,5.753,0,0,0,1.526-3.274c.3-1.955-.5-4.126.725-5.9A6.7,6.7,0,0,0,1174.913-154.863Z" transform="translate(-1142.443 184.729)" fill="#f47c40"/>
      <path id="路径_16783" data-name="路径 16783" d="M1202.591-165.811a32.092,32.092,0,0,1,4.108,1.64,11.653,11.653,0,0,1,3.8,3.559c.152.224.52.027.388-.206a13.5,13.5,0,0,0-3.049-3.591c-.825-.216-1.668-.4-2.52-.564A11.653,11.653,0,0,0,1202.591-165.811Z" transform="translate(-1170.124 183.965)" fill="#c9431f"/>
      <path id="路径_16784" data-name="路径 16784" d="M1231.257-121.541c-.169,3.666.471,7.353-.531,10.954a19.351,19.351,0,0,1-3.666,7.6,10.873,10.873,0,0,0,.874-.687c.338-.092.667-.2.992-.31a24.6,24.6,0,0,0,2.42-5.694c1.218-3.868.714-7.953.053-11.876C1231.387-121.634,1231.26-121.611,1231.257-121.541Z" transform="translate(-1186.086 153.452)" fill="#c9431f"/>
      <path id="路径_16785" data-name="路径 16785" d="M1133.392-94.938c-2.527-1.782-4.454-4.68-5.913-7.165-1.768-3.012-1.868-7.191-2.292-10.523-.013-.1-.177-.1-.174,0,.086,3.5-.183,7.751,1.67,10.945a53.633,53.633,0,0,0,3.541,5.061,12.532,12.532,0,0,0,1.031,1.219c.456.068.916.123,1.38.16Q1133.006-95.081,1133.392-94.938Z" transform="translate(-1119.793 146.982)" fill="#c9431f"/>
      <path id="路径_16786" data-name="路径 16786" d="M1136.253-163.46a12.952,12.952,0,0,0-1.608.586l-.065.009q-.747.114-1.448.284c-.4.392-.769.791-1.11,1.152a15,15,0,0,0-4.089,6.8c-.042.172.244.246.293.073C1129.22-158.035,1132.623-161.688,1136.253-163.46Z" transform="translate(-1121.83 182.353)" fill="#c9431f"/>
      <g id="组_5128" data-name="组 5128" transform="translate(17.518 18.056)">
        <path id="路径_16787" data-name="路径 16787" d="M1189.108-165.693c-.325-.213-.682-.432-1.055-.644a13.6,13.6,0,0,0-1.418.182,7.552,7.552,0,0,0-1.207-.14c-.1,0-.2,0-.3,0a9.458,9.458,0,0,1,4.472,2.167c1.819,1.6,2.549,4.6,3.4,6.7.054.133.282.081.237-.059C1192.3-160.409,1192.011-163.791,1189.108-165.693Z" transform="translate(-1176.716 166.337)" fill="#c9431f"/>
        <path id="路径_16788" data-name="路径 16788" d="M1163.482-165.6a9.044,9.044,0,0,0-1.293-.153,13.514,13.514,0,0,0-4.972,7.482c-.033.132.181.186.224.056.752-2.32,2.606-4.179,4.37-5.932a7.685,7.685,0,0,1,2.222-1.575C1163.847-165.693,1163.663-165.652,1163.482-165.6Z" transform="translate(-1157.214 165.916)" fill="#c9431f"/>
      </g>
      <path id="路径_16789" data-name="路径 16789" d="M1161.6-86.047a7.585,7.585,0,0,1-4.116-4.375,26.377,26.377,0,0,1-2.371-10.55c0-.051-.083-.05-.087,0a24.964,24.964,0,0,0,1.6,10.823,9.605,9.605,0,0,0,2.139,3.439,5.159,5.159,0,0,0,1.7,1.048,5.949,5.949,0,0,0,.861-.206,8,8,0,0,0,1.656.355C1162.6-85.717,1162.17-85.825,1161.6-86.047Z" transform="translate(-1138.798 138.485)" fill="#c9431f"/>
      <path id="路径_16790" data-name="路径 16790" d="M1204.4-96c.008-.13-.2-.122-.217,0a94.212,94.212,0,0,1-1.538,9.893A6.173,6.173,0,0,1,1200.2-82.5a12.7,12.7,0,0,0,1.429.1C1204.469-85.929,1204.138-91.686,1204.4-96Z" transform="translate(-1168.93 134.916)" fill="#c9431f"/>
      <path id="路径_16791" data-name="路径 16791" d="M1232.548-149.356a22.648,22.648,0,0,0-1.439-4.244c-1.53-3.4-4.939-5.289-8.872-6.416.093.059.186.118.276.179a18.948,18.948,0,0,1,3.474,3.166,14.7,14.7,0,0,1,2.23,3.319,11.094,11.094,0,0,1,.7,1.876,4.491,4.491,0,0,0,.576,1.772,2.364,2.364,0,0,0,1.979.849,1.957,1.957,0,0,0,1.094-.4C1232.561-149.291,1232.556-149.323,1232.548-149.356Z" transform="translate(-1182.715 179.955)" fill="#f47c40"/>
      <g id="组_5129" data-name="组 5129" transform="translate(20.996 49.158)">
        <path id="路径_16792" data-name="路径 16792" d="M1171.909-53.82a1.355,1.355,0,0,0-1-.459,1.159,1.159,0,0,0-.912.474,1.248,1.248,0,0,0,.484,1.688,1.169,1.169,0,0,0,1.412-.227A.989.989,0,0,0,1171.909-53.82Z" transform="translate(-1169.832 55.368)" fill="#c9431f"/>
        <path id="路径_16793" data-name="路径 16793" d="M1178.625-58a.761.761,0,0,0-.559-.257.65.65,0,0,0-.511.266.7.7,0,0,0,.272.946.656.656,0,0,0,.792-.127A.554.554,0,0,0,1178.625-58Z" transform="translate(-1175.162 58.262)" fill="#c9431f"/>
        <path id="路径_16794" data-name="路径 16794" d="M1181.313-51.046a.436.436,0,0,0-.321-.148.374.374,0,0,0-.294.153.4.4,0,0,0,.156.544.377.377,0,0,0,.455-.073A.319.319,0,0,0,1181.313-51.046Z" transform="translate(-1177.385 53.126)" fill="#c9431f"/>
      </g>
      <g id="组_5130" data-name="组 5130" transform="translate(27.131 36.092)">
        <path id="路径_16795" data-name="路径 16795" d="M1190.068-99.054a1.356,1.356,0,0,0-1-.459,1.16,1.16,0,0,0-.912.474,1.248,1.248,0,0,0,.484,1.688,1.169,1.169,0,0,0,1.412-.226A.989.989,0,0,0,1190.068-99.054Z" transform="translate(-1187.991 100.601)" fill="#dd5a31"/>
        <path id="路径_16796" data-name="路径 16796" d="M1196.784-103.238a.759.759,0,0,0-.559-.257.649.649,0,0,0-.511.265.7.7,0,0,0,.271.946.656.656,0,0,0,.792-.127A.554.554,0,0,0,1196.784-103.238Z" transform="translate(-1193.321 103.495)" fill="#dd5a31"/>
        <path id="路径_16797" data-name="路径 16797" d="M1199.472-96.28a.438.438,0,0,0-.322-.148.374.374,0,0,0-.294.153.4.4,0,0,0,.156.545.377.377,0,0,0,.455-.073A.319.319,0,0,0,1199.472-96.28Z" transform="translate(-1195.544 98.36)" fill="#dd5a31"/>
      </g>
      <g id="组_5131" data-name="组 5131" transform="translate(40.359 45.224)">
        <path id="路径_16798" data-name="路径 16798" d="M1226.367-66.069a1.391,1.391,0,0,0-1.058.329.958.958,0,0,0-.261.923,1.48,1.48,0,0,0,1.673.861,1,1,0,0,0,.805-1.076A1.118,1.118,0,0,0,1226.367-66.069Z" transform="translate(-1225.015 67.871)" fill="#c9431f"/>
        <path id="路径_16799" data-name="路径 16799" d="M1227.562-72.655a.779.779,0,0,0-.593.184.538.538,0,0,0-.146.518.83.83,0,0,0,.938.483.56.56,0,0,0,.451-.6A.626.626,0,0,0,1227.562-72.655Z" transform="translate(-1226.265 72.656)" fill="#c9431f"/>
        <path id="路径_16800" data-name="路径 16800" d="M1234.164-69.114a.45.45,0,0,0-.341.106.308.308,0,0,0-.084.3.477.477,0,0,0,.539.278.322.322,0,0,0,.26-.347A.36.36,0,0,0,1234.164-69.114Z" transform="translate(-1231.103 70.082)" fill="#c9431f"/>
      </g>
      <g id="组_5132" data-name="组 5132" transform="translate(6.096 40.96)">
        <path id="路径_16801" data-name="路径 16801" d="M1130.828-81a1.24,1.24,0,0,0-.761.744.957.957,0,0,0,.251.926,1.568,1.568,0,0,0,1.923.042.924.924,0,0,0,.149-1.293A1.23,1.23,0,0,0,1130.828-81Z" transform="translate(-1129.397 82.626)" fill="#c9431f"/>
        <path id="路径_16802" data-name="路径 16802" d="M1128.365-86.577a.7.7,0,0,0-.427.417.537.537,0,0,0,.141.519.878.878,0,0,0,1.077.024.518.518,0,0,0,.083-.725A.689.689,0,0,0,1128.365-86.577Z" transform="translate(-1127.92 86.644)" fill="#c9431f"/>
        <path id="路径_16803" data-name="路径 16803" d="M1135.637-86.147a.4.4,0,0,0-.245.24.309.309,0,0,0,.081.3.506.506,0,0,0,.62.014.3.3,0,0,0,.048-.417A.4.4,0,0,0,1135.637-86.147Z" transform="translate(-1133.133 86.311)" fill="#c9431f"/>
      </g>
      <g id="组_5133" data-name="组 5133" transform="translate(5.689 47.247)">
        <path id="路径_16804" data-name="路径 16804" d="M1127.634-65.107a.789.789,0,0,0-.61-.129.611.611,0,0,0-.427.368.729.729,0,0,0,.512.86.636.636,0,0,0,.735-.294A.561.561,0,0,0,1127.634-65.107Z" transform="translate(-1126.567 65.255)" fill="#c9431f"/>
        <path id="路径_16805" data-name="路径 16805" d="M1131.771-58.833a.455.455,0,0,0-.351-.074.351.351,0,0,0-.246.212.419.419,0,0,0,.295.495.365.365,0,0,0,.423-.169A.323.323,0,0,0,1131.771-58.833Z" transform="translate(-1129.774 60.65)" fill="#c9431f"/>
      </g>
      <g id="组_5134" data-name="组 5134" transform="translate(32.39 40.145)">
        <path id="路径_16806" data-name="路径 16806" d="M1205.876-88.776a.658.658,0,0,0-.323-.487.692.692,0,0,0-.588-.021.7.7,0,0,0-.324.932.638.638,0,0,0,.745.274A.6.6,0,0,0,1205.876-88.776Z" transform="translate(-1204.453 89.341)" fill="#c9431f"/>
        <path id="路径_16807" data-name="路径 16807" d="M1204.924-81.671a.379.379,0,0,0-.186-.28.4.4,0,0,0-.339-.012.406.406,0,0,0-.187.537.368.368,0,0,0,.429.157A.342.342,0,0,0,1204.924-81.671Z" transform="translate(-1204.174 84.003)" fill="#c9431f"/>
      </g>
      <g id="组_5135" data-name="组 5135" transform="translate(46.306 34.961)">
        <path id="路径_16808" data-name="路径 16808" d="M1245.964-107.011a.735.735,0,0,0-.513-.327.668.668,0,0,0-.548.2.69.69,0,0,0,.118.972.66.66,0,0,0,.8-.022A.557.557,0,0,0,1245.964-107.011Z" transform="translate(-1244.753 107.342)" fill="#c9431f"/>
        <path id="路径_16809" data-name="路径 16809" d="M1247.723-99.818a.421.421,0,0,0-.295-.188.385.385,0,0,0-.315.113.4.4,0,0,0,.068.559.38.38,0,0,0,.462-.013A.321.321,0,0,0,1247.723-99.818Z" transform="translate(-1246.341 102.012)" fill="#c9431f"/>
      </g>
      <g id="组_5136" data-name="组 5136" transform="translate(7.283 30.427)">
        <path id="路径_16810" data-name="路径 16810" d="M1133.069-122.756a.734.734,0,0,0-.513-.328.668.668,0,0,0-.548.2.691.691,0,0,0,.118.972.66.66,0,0,0,.8-.022A.557.557,0,0,0,1133.069-122.756Z" transform="translate(-1131.857 123.087)" fill="#dd5a31"/>
        <path id="路径_16811" data-name="路径 16811" d="M1134.827-115.563a.422.422,0,0,0-.295-.188.385.385,0,0,0-.316.113.4.4,0,0,0,.068.559.379.379,0,0,0,.462-.013A.321.321,0,0,0,1134.827-115.563Z" transform="translate(-1133.445 117.757)" fill="#dd5a31"/>
      </g>
      <path id="路径_16812" data-name="路径 16812" d="M1167.425-154.587c-2.174,2.724-2.515,6.705-2.064,9.931a.19.19,0,0,0,.377,0,22.25,22.25,0,0,1,2.563-9.467C1168.6-154.657,1167.8-155.061,1167.425-154.587Z" transform="translate(-1145.803 176.239)" fill="#f7ad2b"/>
      <path id="路径_16813" data-name="路径 16813" d="M1139.925-155.561a4.509,4.509,0,0,0-2,1.937,10.1,10.1,0,0,0-1.223,2.9c-.035.126.158.167.21.052a12.139,12.139,0,0,1,1.828-2.769,9.137,9.137,0,0,0,1.531-1.809C1140.352-155.422,1140.115-155.624,1139.925-155.561Z" transform="translate(-1126.909 176.68)" fill="#f7ad2b"/>
      <path id="路径_16814" data-name="路径 16814" d="M1117.914-143.873c-.632.209-1.03.879-1.365,1.377a7.674,7.674,0,0,0-.927,2.033c-.055.176.22.232.293.073a11.035,11.035,0,0,1,1.117-1.85c.339-.465.921-.9,1.086-1.447A.16.16,0,0,0,1117.914-143.873Z" transform="translate(-1113.226 168.336)" fill="#f7ad2b"/>
      <path id="路径_16815" data-name="路径 16815" d="M1211.508-157.305a10.274,10.274,0,0,0-1.58-2.708,5.667,5.667,0,0,0-1.224-.98,2.428,2.428,0,0,0-1.335-.6.333.333,0,0,0-.34.309c-.008.842,1.361,1.117,1.965,1.585a11.324,11.324,0,0,1,2.224,2.5C1211.309-157.065,1211.581-157.147,1211.508-157.305Z" transform="translate(-1173.424 180.954)" fill="#f7ad2b"/>
      <path id="路径_16816" data-name="路径 16816" d="M1244.548-142.842a7.128,7.128,0,0,0-2.1-3.258c-.158-.14-.464,0-.387.2a3.8,3.8,0,0,0,.96,1.214,5.409,5.409,0,0,1,1.25,1.909C1244.331-142.615,1244.6-142.676,1244.548-142.842Z" transform="translate(-1196.556 169.953)" fill="#f7ad2b"/>
      <path id="路径_16817" data-name="路径 16817" d="M1175.694-160.794a.233.233,0,0,0-.208-.143.356.356,0,0,0-.388-.024,1,1,0,0,0-.577,1.17.342.342,0,0,0,.407.21,1.218,1.218,0,0,0,.621-.539C1175.666-160.3,1175.814-160.592,1175.694-160.794Z" transform="translate(-1152.058 180.496)" fill="#f7ad2b"/>
      <path id="路径_16818" data-name="路径 16818" d="M1149.248-159.3c-.29.086-.728.338-.7.658a.421.421,0,0,0,.719.231,1.393,1.393,0,0,0,.339-.394A.316.316,0,0,0,1149.248-159.3Z" transform="translate(-1134.838 179.285)" fill="#f7ad2b"/>
      <g id="gift" transform="translate(-1183.197 -133.229)">
        <rect id="矩形_865" data-name="矩形 865" width="14.744" height="13.27" transform="translate(1178.967 172.173)" fill="#a94eff"/>
        <rect id="矩形_866" data-name="矩形 866" width="1.474" height="14.744" transform="translate(1193.71 178.332) rotate(90)" fill="#8618ef"/>
        <path id="路径_12786" data-name="路径 12786" d="M1835.856,699.526s2.608-1.7,4.382-1.151l-.365.342.164.574a6.5,6.5,0,0,0-4.235.331Z" transform="translate(-648.982 -527.218)" fill="#bd77ff"/>
        <path id="路径_12787" data-name="路径 12787" d="M1259.783,305.1s-.46-.056-1.146-.15c-1.822-.251-5.233-.775-5.845-1.26-.962-.762,1.318-4,2.3-4.447S1259.783,305.1,1259.783,305.1Z" transform="translate(-73.055 -133.177)" fill="#a94eff"/>
        <path id="路径_12788" data-name="路径 12788" d="M1830.353,165.673c.164.8-7.286,4.265-7.286,4.265s.135-.366.356-.94h0c.8-2.1,2.745-6.96,3.383-6.893a.768.768,0,0,1,.223.066A9.691,9.691,0,0,1,1830.353,165.673Z" transform="translate(-636.409 2.223)" fill="#9227f8"/>
        <path id="路径_12789" data-name="路径 12789" d="M1855.048,162.882c-.455.79-3.5,6.032-3.543,6.114.805-2.1,2.746-6.96,3.383-6.893a.4.4,0,0,1,.223.066C1855.227,162.254,1855.3,162.446,1855.048,162.882Z" transform="translate(-664.489 2.223)" fill="#a94eff"/>
        <path id="路径_12790" data-name="路径 12790" d="M1272.065,586.154h0c-1.821-.251-5.232-.775-5.845-1.26-.276-.779.441-.842.963-.9S1272.065,586.154,1272.065,586.154Z" transform="translate(-86.483 -414.38)" fill="#9227f8"/>
        <path id="路径_12791" data-name="路径 12791" d="M1717.69,708.663s.418-.95,1.24-1c.859-.055,1.346,1,1.346,1Z" transform="translate(-532.352 -536.49)" fill="#a94eff"/>
        <rect id="矩形_868" data-name="矩形 868" width="14.744" height="2.212" transform="translate(1178.967 172.173)" fill="#9227f8"/>
        <path id="路径_12792" data-name="路径 12792" d="M1302.968,742.947a8.18,8.18,0,0,0-3.964-.254c-1.841.571-1.732,2.843-1.732,2.843l.433-.178.584.274s.1-2.405,1.6-2.742A9.114,9.114,0,0,1,1302.968,742.947Z" transform="translate(-117.207 -570.918)" fill="#bd77ff"/>
        <rect id="矩形_870" data-name="矩形 870" width="0.881" height="13.27" transform="translate(1186.614 172.173)" fill="#8618ef"/>
        <g id="组_4564" data-name="组 4564" transform="translate(667.332 -221.672)">
          <ellipse id="椭圆_313" data-name="椭圆 313" cx="8.068" cy="0.825" rx="8.068" ry="0.825" transform="translate(507.328 408.809)" fill="#47260f" opacity="0.1" style="mix-blend-mode: multiply;isolation: isolate"/>
          <g id="组_4561" data-name="组 4561" transform="translate(511.597 404.565)">
            <path id="路径_13877" data-name="路径 13877" d="M559.118,442.927a10.528,10.528,0,0,0,.226,1.537,4.611,4.611,0,0,0-.5-.154,6.4,6.4,0,0,0-2.2-.125c-.213.022-.426.053-.64.09a.217.217,0,0,0-.131.285,7.125,7.125,0,0,0,2.269,2.574,6.4,6.4,0,0,0-1.045.57c-.132.088-.26.181-.386.277a.109.109,0,0,0,.032.184,6.515,6.515,0,0,0,2.612.391,4.181,4.181,0,0,0,1.836-.742c.219-.15.4-.341.611-.506a.013.013,0,0,0,.006-.007s0,0,0,0,0,0,0,0a2.7,2.7,0,0,0,.053-.861,3.5,3.5,0,0,0-.15-.811,4.175,4.175,0,0,0-.792-1.418,6.077,6.077,0,0,0-1.251-1.119c-.131-.089-.265-.174-.4-.255A.109.109,0,0,0,559.118,442.927Z" transform="translate(-555.862 -442.816)" fill="#ffc217"/>
            <path id="路径_13878" data-name="路径 13878" d="M559.277,442.829a.109.109,0,0,0-.159.1,10.528,10.528,0,0,0,.226,1.537,4.611,4.611,0,0,0-.5-.154,6.4,6.4,0,0,0-2.2-.125c-.213.022-.426.053-.64.09a.217.217,0,0,0-.131.285l.112.179a5.265,5.265,0,0,1,1.575.823,5.582,5.582,0,0,1,1.5,1.607,1.346,1.346,0,0,1,.2.6.7.7,0,0,1-.317.616,1.945,1.945,0,0,1-.392.181,3.869,3.869,0,0,0,.808-.009,4.181,4.181,0,0,0,1.836-.742c.219-.15.4-.341.611-.506a.013.013,0,0,0,.006-.007s0,0,0,0,0,0,0,0a2.7,2.7,0,0,0,.053-.861,3.5,3.5,0,0,0-.15-.811,4.175,4.175,0,0,0-.792-1.418,6.077,6.077,0,0,0-1.251-1.119C559.547,443,559.413,442.911,559.277,442.829Z" transform="translate(-555.862 -442.816)" fill="#f7ad2b"/>
            <path id="路径_13879" data-name="路径 13879" d="M559.681,443.084c-.131-.089-.265-.174-.4-.255a.109.109,0,0,0-.159.1,10.528,10.528,0,0,0,.226,1.537,4.612,4.612,0,0,0-.5-.154,6.4,6.4,0,0,0-2.2-.125c-.213.022-.426.053-.64.09a.224.224,0,0,0-.149.218,32,32,0,0,1,5.9,2.851l.044-.037a.013.013,0,0,0,.006-.007s0,0,0,0,0,0,0,0a2.7,2.7,0,0,0,.053-.861,3.5,3.5,0,0,0-.15-.811,4.176,4.176,0,0,0-.792-1.418A6.078,6.078,0,0,0,559.681,443.084Z" transform="translate(-555.866 -442.816)" fill="#ea9a1b"/>
            <path id="路径_13880" data-name="路径 13880" d="M568.437,442.927a11.02,11.02,0,0,0,.206,1.444,1.232,1.232,0,0,1,.019-.5.317.317,0,0,1,.326-.233,1.67,1.67,0,0,1,.729.287,3.017,3.017,0,0,1,.627.458c.064.064.125.13.185.2-.088-.13-.182-.255-.281-.375A6.076,6.076,0,0,0,569,443.084c-.131-.089-.265-.174-.4-.255A.109.109,0,0,0,568.437,442.927Z" transform="translate(-565.181 -442.816)" fill="#ffc217"/>
            <path id="路径_13881" data-name="路径 13881" d="M559.952,450.771a39.249,39.249,0,0,1,5.4,2.975l.214-.335A45.216,45.216,0,0,0,559.952,450.771Z" transform="translate(-558.893 -448.712)" fill="#84182f"/>
          </g>
          <g id="组_5591" data-name="组 5591" transform="matrix(0.951, 0.309, -0.309, 0.951, 560.039, 397.348)">
            <path id="路径_13877-2" data-name="路径 13877" d="M560.313,442.968a14.377,14.377,0,0,0,.309,2.1,6.31,6.31,0,0,0-.679-.21,8.753,8.753,0,0,0-3-.171c-.291.03-.582.073-.875.123a.3.3,0,0,0-.179.39,9.742,9.742,0,0,0,3.1,3.519,8.749,8.749,0,0,0-1.429.78c-.18.12-.355.247-.528.378a.149.149,0,0,0,.043.251,8.908,8.908,0,0,0,3.572.535,5.716,5.716,0,0,0,2.51-1.015c.3-.206.553-.466.836-.692a.018.018,0,0,0,.008-.009s0,0,0,0,0,0,0-.006a3.694,3.694,0,0,0,.073-1.177,4.785,4.785,0,0,0-.205-1.109,5.708,5.708,0,0,0-1.083-1.939,8.308,8.308,0,0,0-1.711-1.53c-.179-.122-.362-.237-.548-.349A.149.149,0,0,0,560.313,442.968Z" transform="translate(-555.862 -442.816)" fill="#ffc217"/>
            <path id="路径_13878-2" data-name="路径 13878" d="M560.53,442.834a.149.149,0,0,0-.217.134,14.377,14.377,0,0,0,.309,2.1,6.31,6.31,0,0,0-.679-.21,8.753,8.753,0,0,0-3-.171c-.291.03-.582.073-.875.123a.3.3,0,0,0-.179.39l.153.245a7.2,7.2,0,0,1,2.153,1.125,7.631,7.631,0,0,1,2.046,2.2,1.84,1.84,0,0,1,.273.818.962.962,0,0,1-.433.842,2.659,2.659,0,0,1-.536.248,5.3,5.3,0,0,0,1.1-.012,5.716,5.716,0,0,0,2.51-1.015c.3-.206.553-.466.836-.692a.018.018,0,0,0,.008-.009s0,0,0,0,0,0,0-.006a3.694,3.694,0,0,0,.073-1.177,4.785,4.785,0,0,0-.205-1.109,5.708,5.708,0,0,0-1.083-1.939,8.308,8.308,0,0,0-1.711-1.53C560.9,443.061,560.716,442.945,560.53,442.834Z" transform="translate(-555.862 -442.816)" fill="#f7ad2b"/>
            <path id="路径_13879-2" data-name="路径 13879" d="M561.081,443.183c-.179-.122-.362-.237-.548-.349a.149.149,0,0,0-.217.134,14.411,14.411,0,0,0,.309,2.1,6.31,6.31,0,0,0-.679-.21,8.754,8.754,0,0,0-3-.171c-.291.03-.582.073-.875.123a.306.306,0,0,0-.2.3,43.74,43.74,0,0,1,8.071,3.9l.059-.05a.018.018,0,0,0,.008-.009s0,0,0,0,0,0,0-.006a3.694,3.694,0,0,0,.073-1.177,4.785,4.785,0,0,0-.205-1.109,5.71,5.71,0,0,0-1.083-1.939A8.311,8.311,0,0,0,561.081,443.183Z" transform="translate(-555.865 -442.816)" fill="#ea9a1b"/>
            <path id="路径_13880-2" data-name="路径 13880" d="M568.437,442.968a15.083,15.083,0,0,0,.282,1.974,1.682,1.682,0,0,1,.026-.688.434.434,0,0,1,.445-.318,2.284,2.284,0,0,1,1,.392,4.129,4.129,0,0,1,.857.626c.088.087.171.178.253.271-.12-.177-.248-.349-.385-.513a8.307,8.307,0,0,0-1.711-1.53c-.179-.122-.362-.237-.548-.349A.149.149,0,0,0,568.437,442.968Z" transform="translate(-563.986 -442.816)" fill="#ffc217"/>
            <path id="路径_13881-2" data-name="路径 13881" d="M559.952,450.771a53.66,53.66,0,0,1,7.38,4.067l.292-.458A61.827,61.827,0,0,0,559.952,450.771Z" transform="translate(-558.504 -447.955)" fill="#84182f"/>
          </g>
        </g>
      </g>
    </g>
  </g>
</svg>
