<svg xmlns="http://www.w3.org/2000/svg" width="925.877" height="155.884" viewBox="0 0 925.877 155.884">
  <g id="组_5592" data-name="组 5592" transform="translate(61.85 -1676.116)">
    <g id="标题" transform="translate(0 -187)">
      <path id="路径_12661" data-name="路径 12661" d="M1.684,0H863.936l-24.18,69H25.639Z" transform="translate(-33.533 1950)" fill="#6b2acf"/>
      <path id="路径_12719" data-name="路径 12719" d="M607.8,2007.875h44.223L636.6,2030.5l3.6,25.711H595.977Z" transform="translate(212 -43)" fill="#6b2acf"/>
      <path id="路径_12720" data-name="路径 12720" d="M623,2007.875H569.75l11.385,21.953-14.984,23.785H624.8Z" transform="translate(-628 -40)" fill="#6b2acf"/>
      <path id="路径_18896" data-name="路径 18896" d="M-375.36-10.92a5.538,5.538,0,0,1,2.82,1.905,5.252,5.252,0,0,1,1.02,3.285,4.853,4.853,0,0,1-2.145,4.245A10.966,10.966,0,0,1-379.92,0h-10.86V-21h10.26a10.043,10.043,0,0,1,5.895,1.47,4.653,4.653,0,0,1,2.055,3.99,5.121,5.121,0,0,1-.735,2.73A5.148,5.148,0,0,1-375.36-10.92Zm-10.59-6.42v4.95h4.83a4.876,4.876,0,0,0,2.73-.63,2.1,2.1,0,0,0,.93-1.86,2.064,2.064,0,0,0-.93-1.845,4.971,4.971,0,0,0-2.73-.615Zm5.67,13.68a5.385,5.385,0,0,0,2.9-.63,2.158,2.158,0,0,0,.975-1.95q0-2.61-3.87-2.61h-5.67v5.19Zm28.38-12.48V0h-4.44V-1.92a6.207,6.207,0,0,1-2.22,1.605,6.984,6.984,0,0,1-2.79.555,6.874,6.874,0,0,1-5.04-1.83,7.3,7.3,0,0,1-1.86-5.43v-9.12h4.68v8.43q0,3.9,3.27,3.9a3.515,3.515,0,0,0,2.7-1.1,4.62,4.62,0,0,0,1.02-3.255v-7.98Zm20.37,0L-338.82.99a8.431,8.431,0,0,1-2.745,3.93,6.724,6.724,0,0,1-3.945,1.14A8.194,8.194,0,0,1-348,5.67a5.5,5.5,0,0,1-2.01-1.08l1.71-3.33a4.018,4.018,0,0,0,1.245.75,3.88,3.88,0,0,0,1.395.27,2.475,2.475,0,0,0,1.56-.465A3.948,3.948,0,0,0-343.02.27l.06-.15-6.99-16.26h4.83l4.53,10.95,4.56-10.95ZM-320.79-21h4.86V0h-4.86Zm19.32,4.62a6.642,6.642,0,0,1,4.845,1.8,7.138,7.138,0,0,1,1.845,5.34V0h-4.68V-8.52a4.207,4.207,0,0,0-.84-2.865,3.081,3.081,0,0,0-2.43-.945,3.724,3.724,0,0,0-2.82,1.095A4.534,4.534,0,0,0-306.6-7.98V0h-4.68V-16.14h4.47v1.89a6.206,6.206,0,0,1,2.31-1.575A8.048,8.048,0,0,1-301.47-16.38ZM-285.12.24a15.679,15.679,0,0,1-3.93-.5A10.268,10.268,0,0,1-292.11-1.5l1.56-3.36a9.818,9.818,0,0,0,2.61,1.125,10.939,10.939,0,0,0,3,.435q2.97,0,2.97-1.47a1.04,1.04,0,0,0-.81-.99,12,12,0,0,0-2.49-.51,24.02,24.02,0,0,1-3.27-.69,5.073,5.073,0,0,1-2.235-1.38,3.924,3.924,0,0,1-.945-2.82,4.418,4.418,0,0,1,.885-2.715,5.7,5.7,0,0,1,2.58-1.845,11.019,11.019,0,0,1,4.005-.66,15.718,15.718,0,0,1,3.4.375,9.518,9.518,0,0,1,2.805,1.035l-1.56,3.33a9.313,9.313,0,0,0-4.65-1.2,4.731,4.731,0,0,0-2.25.42,1.235,1.235,0,0,0-.75,1.08,1.072,1.072,0,0,0,.81,1.05,14.339,14.339,0,0,0,2.58.57,27.618,27.618,0,0,1,3.24.7,4.867,4.867,0,0,1,2.19,1.365,3.873,3.873,0,0,1,.93,2.76,4.262,4.262,0,0,1-.9,2.67,5.745,5.745,0,0,1-2.625,1.815A11.7,11.7,0,0,1-285.12.24Zm20.91-1.02a4.81,4.81,0,0,1-1.7.765A8.57,8.57,0,0,1-268.02.24a6.283,6.283,0,0,1-4.455-1.47,5.625,5.625,0,0,1-1.575-4.32v-6.63h-2.49v-3.6h2.49v-3.93h4.68v3.93h4.02v3.6h-4.02v6.57a2.2,2.2,0,0,0,.525,1.575,1.946,1.946,0,0,0,1.485.555,3.008,3.008,0,0,0,1.89-.6Zm9.15-15.6A8.4,8.4,0,0,1-249.3-14.6a6.831,6.831,0,0,1,2.01,5.385V0h-4.38V-2.01Q-252.99.24-256.59.24a7.636,7.636,0,0,1-3.225-.63A4.809,4.809,0,0,1-261.9-2.13a4.529,4.529,0,0,1-.72-2.52,4.205,4.205,0,0,1,1.7-3.54,8.638,8.638,0,0,1,5.235-1.29h3.72a2.983,2.983,0,0,0-.93-2.355,4.1,4.1,0,0,0-2.79-.825,8.146,8.146,0,0,0-2.535.405,6.707,6.707,0,0,0-2.115,1.1l-1.68-3.27a10.137,10.137,0,0,1,3.165-1.44A14.178,14.178,0,0,1-255.06-16.38Zm-.36,13.47a4.076,4.076,0,0,0,2.13-.555A3.037,3.037,0,0,0-251.97-5.1V-6.75h-3.21q-2.88,0-2.88,1.89a1.683,1.683,0,0,0,.7,1.425A3.176,3.176,0,0,0-255.42-2.91Zm29.19-13.23V-2.7q0,4.44-2.31,6.6t-6.75,2.16a16.882,16.882,0,0,1-4.44-.57,9.707,9.707,0,0,1-3.48-1.65l1.86-3.36a7.655,7.655,0,0,0,2.58,1.335,10.266,10.266,0,0,0,3.12.5,5.06,5.06,0,0,0,3.585-1.1A4.364,4.364,0,0,0-230.91-2.1v-.69a6.548,6.548,0,0,1-5.1,2.01,8.565,8.565,0,0,1-4.065-.975A7.431,7.431,0,0,1-243-4.5a7.675,7.675,0,0,1-1.08-4.08A7.675,7.675,0,0,1-243-12.66a7.431,7.431,0,0,1,2.925-2.745,8.565,8.565,0,0,1,4.065-.975,6.406,6.406,0,0,1,5.34,2.31v-2.07Zm-8.85,11.52a4.31,4.31,0,0,0,3.045-1.095A3.719,3.719,0,0,0-230.85-8.58a3.719,3.719,0,0,0-1.185-2.865,4.31,4.31,0,0,0-3.045-1.1,4.365,4.365,0,0,0-3.06,1.1,3.7,3.7,0,0,0-1.2,2.865,3.7,3.7,0,0,0,1.2,2.865A4.365,4.365,0,0,0-235.08-4.62Zm17.67-9.39a5.2,5.2,0,0,1,2.265-1.77,8.407,8.407,0,0,1,3.285-.6v4.32q-.78-.06-1.05-.06A4.29,4.29,0,0,0-216.06-11,4.547,4.547,0,0,0-217.2-7.62V0h-4.68V-16.14h4.47Zm14.76-2.37a8.4,8.4,0,0,1,5.76,1.785,6.831,6.831,0,0,1,2.01,5.385V0h-4.38V-2.01Q-200.58.24-204.18.24A7.636,7.636,0,0,1-207.4-.39a4.809,4.809,0,0,1-2.085-1.74,4.529,4.529,0,0,1-.72-2.52,4.205,4.205,0,0,1,1.695-3.54,8.638,8.638,0,0,1,5.235-1.29h3.72a2.983,2.983,0,0,0-.93-2.355,4.1,4.1,0,0,0-2.79-.825,8.146,8.146,0,0,0-2.535.405,6.707,6.707,0,0,0-2.115,1.1l-1.68-3.27a10.137,10.137,0,0,1,3.165-1.44A14.178,14.178,0,0,1-202.65-16.38Zm-.36,13.47a4.076,4.076,0,0,0,2.13-.555A3.037,3.037,0,0,0-199.56-5.1V-6.75h-3.21q-2.88,0-2.88,1.89a1.683,1.683,0,0,0,.705,1.425A3.176,3.176,0,0,0-203.01-2.91Zm33.03-13.47a6.506,6.506,0,0,1,4.815,1.785A7.273,7.273,0,0,1-163.38-9.24V0h-4.68V-8.52a4.373,4.373,0,0,0-.795-2.865,2.8,2.8,0,0,0-2.265-.945,3.338,3.338,0,0,0-2.61,1.065,4.59,4.59,0,0,0-.96,3.165V0h-4.68V-8.52q0-3.81-3.06-3.81a3.3,3.3,0,0,0-2.58,1.065,4.59,4.59,0,0,0-.96,3.165V0h-4.68V-16.14h4.47v1.86a5.907,5.907,0,0,1,2.205-1.56,7.422,7.422,0,0,1,2.865-.54,6.939,6.939,0,0,1,3.09.675,5.472,5.472,0,0,1,2.22,1.965,6.621,6.621,0,0,1,2.505-1.95A7.9,7.9,0,0,1-169.98-16.38Zm24.48-.72v5.55h9.72v3.9h-9.72V0h-4.86V-21h15.87v3.9ZM-124.26.24a9.678,9.678,0,0,1-4.575-1.065A7.917,7.917,0,0,1-132-3.78a8.142,8.142,0,0,1-1.14-4.29A8.142,8.142,0,0,1-132-12.36a7.917,7.917,0,0,1,3.165-2.955,9.678,9.678,0,0,1,4.575-1.065,9.589,9.589,0,0,1,4.56,1.065,7.942,7.942,0,0,1,3.15,2.955,8.142,8.142,0,0,1,1.14,4.29,8.142,8.142,0,0,1-1.14,4.29A7.942,7.942,0,0,1-119.7-.825,9.589,9.589,0,0,1-124.26.24Zm0-3.84A3.9,3.9,0,0,0-121.3-4.815,4.529,4.529,0,0,0-120.15-8.07a4.529,4.529,0,0,0-1.155-3.255,3.9,3.9,0,0,0-2.955-1.215,3.946,3.946,0,0,0-2.97,1.215A4.5,4.5,0,0,0-128.4-8.07a4.5,4.5,0,0,0,1.17,3.255A3.946,3.946,0,0,0-124.26-3.6Zm11.97-18.66h4.68V0h-4.68Zm9.03,0h4.68V0h-4.68ZM-86.55.24A9.678,9.678,0,0,1-91.125-.825,7.917,7.917,0,0,1-94.29-3.78a8.142,8.142,0,0,1-1.14-4.29,8.142,8.142,0,0,1,1.14-4.29,7.917,7.917,0,0,1,3.165-2.955A9.678,9.678,0,0,1-86.55-16.38a9.589,9.589,0,0,1,4.56,1.065,7.942,7.942,0,0,1,3.15,2.955A8.142,8.142,0,0,1-77.7-8.07a8.142,8.142,0,0,1-1.14,4.29A7.942,7.942,0,0,1-81.99-.825,9.589,9.589,0,0,1-86.55.24Zm0-3.84a3.9,3.9,0,0,0,2.955-1.215A4.529,4.529,0,0,0-82.44-8.07a4.529,4.529,0,0,0-1.155-3.255A3.9,3.9,0,0,0-86.55-12.54a3.946,3.946,0,0,0-2.97,1.215A4.5,4.5,0,0,0-90.69-8.07a4.5,4.5,0,0,0,1.17,3.255A3.946,3.946,0,0,0-86.55-3.6Zm37.44-12.54L-54.96,0h-4.5l-3.63-10.02L-66.84,0h-4.5l-5.82-16.14h4.41l3.81,10.92,3.96-10.92h3.96l3.84,10.92,3.93-10.92Zm17.55,8.13q0,.09-.09,1.26H-43.86A3.8,3.8,0,0,0-42.3-4.38a5.167,5.167,0,0,0,3.06.87A6.2,6.2,0,0,0-37-3.885,5.413,5.413,0,0,0-35.19-5.07l2.49,2.7Q-34.98.24-39.36.24A10.535,10.535,0,0,1-44.19-.825,7.807,7.807,0,0,1-47.43-3.78a8.142,8.142,0,0,1-1.14-4.29,8.248,8.248,0,0,1,1.125-4.275,7.881,7.881,0,0,1,3.09-2.97,9.073,9.073,0,0,1,4.4-1.065,9,9,0,0,1,4.29,1.02,7.445,7.445,0,0,1,3.015,2.925A8.722,8.722,0,0,1-31.56-8.01Zm-8.37-4.83a4.03,4.03,0,0,0-2.67.9,3.831,3.831,0,0,0-1.32,2.46h7.95a3.87,3.87,0,0,0-1.32-2.445A3.945,3.945,0,0,0-39.93-12.84Zm15.96-1.17A5.2,5.2,0,0,1-21.7-15.78a8.407,8.407,0,0,1,3.285-.6v4.32q-.78-.06-1.05-.06A4.29,4.29,0,0,0-22.62-11,4.547,4.547,0,0,0-23.76-7.62V0h-4.68V-16.14h4.47ZM-10.14.24a15.679,15.679,0,0,1-3.93-.5A10.268,10.268,0,0,1-17.13-1.5l1.56-3.36a9.818,9.818,0,0,0,2.61,1.125,10.939,10.939,0,0,0,3,.435q2.97,0,2.97-1.47a1.04,1.04,0,0,0-.81-.99,12,12,0,0,0-2.49-.51,24.021,24.021,0,0,1-3.27-.69,5.073,5.073,0,0,1-2.235-1.38,3.924,3.924,0,0,1-.945-2.82,4.417,4.417,0,0,1,.885-2.715,5.7,5.7,0,0,1,2.58-1.845,11.019,11.019,0,0,1,4.005-.66,15.718,15.718,0,0,1,3.4.375A9.518,9.518,0,0,1-3.06-14.97l-1.56,3.33a9.313,9.313,0,0,0-4.65-1.2,4.731,4.731,0,0,0-2.25.42,1.235,1.235,0,0,0-.75,1.08,1.072,1.072,0,0,0,.81,1.05,14.339,14.339,0,0,0,2.58.57,27.617,27.617,0,0,1,3.24.7A4.867,4.867,0,0,1-3.45-7.65a3.873,3.873,0,0,1,.93,2.76,4.262,4.262,0,0,1-.9,2.67A5.745,5.745,0,0,1-6.045-.405,11.7,11.7,0,0,1-10.14.24ZM34.77-16.14,28.92,0h-4.5L20.79-10.02,17.04,0h-4.5L6.72-16.14h4.41L14.94-5.22,18.9-16.14h3.96L26.7-5.22l3.93-10.92Zm2.19,0h4.68V0H36.96Zm2.34-2.25a2.968,2.968,0,0,1-2.1-.75A2.432,2.432,0,0,1,36.39-21a2.432,2.432,0,0,1,.81-1.86,2.968,2.968,0,0,1,2.1-.75,3.043,3.043,0,0,1,2.1.72,2.309,2.309,0,0,1,.81,1.8,2.547,2.547,0,0,1-.81,1.935A2.934,2.934,0,0,1,39.3-18.39ZM56.4-.78a4.81,4.81,0,0,1-1.695.765A8.57,8.57,0,0,1,52.59.24a6.283,6.283,0,0,1-4.455-1.47A5.625,5.625,0,0,1,46.56-5.55v-6.63H44.07v-3.6h2.49v-3.93h4.68v3.93h4.02v3.6H51.24v6.57a2.2,2.2,0,0,0,.525,1.575,1.946,1.946,0,0,0,1.485.555,3.008,3.008,0,0,0,1.89-.6Zm12.45-15.6a6.642,6.642,0,0,1,4.845,1.8A7.138,7.138,0,0,1,75.54-9.24V0H70.86V-8.52a4.207,4.207,0,0,0-.84-2.865,3.081,3.081,0,0,0-2.43-.945,3.724,3.724,0,0,0-2.82,1.095A4.534,4.534,0,0,0,63.72-7.98V0H59.04V-22.26h4.68v7.8a6.226,6.226,0,0,1,2.25-1.425A8.14,8.14,0,0,1,68.85-16.38ZM98.67-.78a4.811,4.811,0,0,1-1.695.765A8.57,8.57,0,0,1,94.86.24a6.283,6.283,0,0,1-4.455-1.47A5.625,5.625,0,0,1,88.83-5.55v-6.63H86.34v-3.6h2.49v-3.93h4.68v3.93h4.02v3.6H93.51v6.57a2.2,2.2,0,0,0,.525,1.575,1.946,1.946,0,0,0,1.485.555,3.008,3.008,0,0,0,1.89-.6Zm12.45-15.6a6.642,6.642,0,0,1,4.845,1.8,7.138,7.138,0,0,1,1.845,5.34V0h-4.68V-8.52a4.207,4.207,0,0,0-.84-2.865,3.081,3.081,0,0,0-2.43-.945,3.724,3.724,0,0,0-2.82,1.095,4.534,4.534,0,0,0-1.05,3.255V0h-4.68V-22.26h4.68v7.8a6.225,6.225,0,0,1,2.25-1.425A8.14,8.14,0,0,1,111.12-16.38Zm26.91,8.37q0,.09-.09,1.26H125.73a3.8,3.8,0,0,0,1.56,2.37,5.167,5.167,0,0,0,3.06.87,6.2,6.2,0,0,0,2.235-.375A5.413,5.413,0,0,0,134.4-5.07l2.49,2.7Q134.61.24,130.23.24A10.535,10.535,0,0,1,125.4-.825a7.807,7.807,0,0,1-3.24-2.955,8.142,8.142,0,0,1-1.14-4.29,8.248,8.248,0,0,1,1.125-4.275,7.881,7.881,0,0,1,3.09-2.97,9.072,9.072,0,0,1,4.4-1.065,9,9,0,0,1,4.29,1.02,7.445,7.445,0,0,1,3.015,2.925A8.722,8.722,0,0,1,138.03-8.01Zm-8.37-4.83a4.03,4.03,0,0,0-2.67.9,3.831,3.831,0,0,0-1.32,2.46h7.95a3.87,3.87,0,0,0-1.32-2.445A3.945,3.945,0,0,0,129.66-12.84Zm35.73,1.92a5.538,5.538,0,0,1,2.82,1.905,5.252,5.252,0,0,1,1.02,3.285,4.853,4.853,0,0,1-2.145,4.245A10.966,10.966,0,0,1,160.83,0H149.97V-21h10.26a10.043,10.043,0,0,1,5.9,1.47,4.653,4.653,0,0,1,2.055,3.99,5.121,5.121,0,0,1-.735,2.73A5.148,5.148,0,0,1,165.39-10.92ZM154.8-17.34v4.95h4.83a4.876,4.876,0,0,0,2.73-.63,2.1,2.1,0,0,0,.93-1.86,2.064,2.064,0,0,0-.93-1.845,4.971,4.971,0,0,0-2.73-.615Zm5.67,13.68a5.385,5.385,0,0,0,2.895-.63,2.158,2.158,0,0,0,.975-1.95q0-2.61-3.87-2.61H154.8v5.19ZM188.4-8.01q0,.09-.09,1.26H176.1a3.8,3.8,0,0,0,1.56,2.37,5.167,5.167,0,0,0,3.06.87,6.2,6.2,0,0,0,2.235-.375A5.413,5.413,0,0,0,184.77-5.07l2.49,2.7Q184.98.24,180.6.24a10.536,10.536,0,0,1-4.83-1.065,7.807,7.807,0,0,1-3.24-2.955,8.142,8.142,0,0,1-1.14-4.29,8.248,8.248,0,0,1,1.125-4.275,7.881,7.881,0,0,1,3.09-2.97A9.072,9.072,0,0,1,180-16.38a9,9,0,0,1,4.29,1.02,7.445,7.445,0,0,1,3.015,2.925A8.722,8.722,0,0,1,188.4-8.01Zm-8.37-4.83a4.03,4.03,0,0,0-2.67.9,3.831,3.831,0,0,0-1.32,2.46h7.95a3.87,3.87,0,0,0-1.32-2.445A3.945,3.945,0,0,0,180.03-12.84ZM196.95.24a15.679,15.679,0,0,1-3.93-.5A10.268,10.268,0,0,1,189.96-1.5l1.56-3.36a9.818,9.818,0,0,0,2.61,1.125,10.939,10.939,0,0,0,3,.435q2.97,0,2.97-1.47a1.04,1.04,0,0,0-.81-.99,12,12,0,0,0-2.49-.51,24.022,24.022,0,0,1-3.27-.69,5.073,5.073,0,0,1-2.235-1.38,3.924,3.924,0,0,1-.945-2.82,4.418,4.418,0,0,1,.885-2.715,5.7,5.7,0,0,1,2.58-1.845,11.019,11.019,0,0,1,4.005-.66,15.718,15.718,0,0,1,3.4.375,9.518,9.518,0,0,1,2.8,1.035l-1.56,3.33a9.313,9.313,0,0,0-4.65-1.2,4.731,4.731,0,0,0-2.25.42,1.235,1.235,0,0,0-.75,1.08,1.072,1.072,0,0,0,.81,1.05,14.339,14.339,0,0,0,2.58.57,27.617,27.617,0,0,1,3.24.7,4.867,4.867,0,0,1,2.19,1.365,3.873,3.873,0,0,1,.93,2.76,4.262,4.262,0,0,1-.9,2.67,5.745,5.745,0,0,1-2.625,1.815A11.7,11.7,0,0,1,196.95.24ZM217.86-.78a4.811,4.811,0,0,1-1.7.765A8.57,8.57,0,0,1,214.05.24a6.283,6.283,0,0,1-4.455-1.47,5.625,5.625,0,0,1-1.575-4.32v-6.63h-2.49v-3.6h2.49v-3.93h4.68v3.93h4.02v3.6H212.7v6.57a2.2,2.2,0,0,0,.525,1.575,1.946,1.946,0,0,0,1.485.555,3.008,3.008,0,0,0,1.89-.6ZM238.41-21a11.666,11.666,0,0,1,4.845.93,7.2,7.2,0,0,1,3.165,2.64,7.273,7.273,0,0,1,1.11,4.05,7.292,7.292,0,0,1-1.11,4.035,7.07,7.07,0,0,1-3.165,2.64,11.832,11.832,0,0,1-4.845.915h-4.23V0h-4.86V-21Zm-.27,11.25a5.1,5.1,0,0,0,3.33-.945,3.291,3.291,0,0,0,1.14-2.685,3.326,3.326,0,0,0-1.14-2.715,5.1,5.1,0,0,0-3.33-.945h-3.96v7.29Zm16.98-4.26a5.2,5.2,0,0,1,2.265-1.77,8.407,8.407,0,0,1,3.285-.6v4.32q-.78-.06-1.05-.06A4.29,4.29,0,0,0,256.47-11a4.547,4.547,0,0,0-1.14,3.375V0h-4.68V-16.14h4.47Zm8.34-2.13h4.68V0h-4.68Zm2.34-2.25a2.968,2.968,0,0,1-2.1-.75,2.432,2.432,0,0,1-.81-1.86,2.432,2.432,0,0,1,.81-1.86,2.968,2.968,0,0,1,2.1-.75,3.043,3.043,0,0,1,2.1.72,2.309,2.309,0,0,1,.81,1.8,2.547,2.547,0,0,1-.81,1.935A2.934,2.934,0,0,1,265.8-18.39ZM280.29.24a9.923,9.923,0,0,1-4.635-1.065,7.975,7.975,0,0,1-3.21-2.955,8.061,8.061,0,0,1-1.155-4.29,8.061,8.061,0,0,1,1.155-4.29,7.975,7.975,0,0,1,3.21-2.955,9.923,9.923,0,0,1,4.635-1.065,8.981,8.981,0,0,1,4.455,1.065,6.316,6.316,0,0,1,2.775,3.045l-3.63,1.95a3.968,3.968,0,0,0-3.63-2.22,4.107,4.107,0,0,0-3.03,1.2,4.419,4.419,0,0,0-1.2,3.27,4.419,4.419,0,0,0,1.2,3.27,4.107,4.107,0,0,0,3.03,1.2,3.927,3.927,0,0,0,3.63-2.22l3.63,1.98a6.443,6.443,0,0,1-2.775,3A8.88,8.88,0,0,1,280.29.24Zm25.53-8.25q0,.09-.09,1.26H293.52a3.8,3.8,0,0,0,1.56,2.37,5.167,5.167,0,0,0,3.06.87,6.2,6.2,0,0,0,2.235-.375A5.413,5.413,0,0,0,302.19-5.07l2.49,2.7Q302.4.24,298.02.24a10.535,10.535,0,0,1-4.83-1.065,7.807,7.807,0,0,1-3.24-2.955,8.142,8.142,0,0,1-1.14-4.29,8.248,8.248,0,0,1,1.125-4.275,7.881,7.881,0,0,1,3.09-2.97,9.073,9.073,0,0,1,4.4-1.065,9,9,0,0,1,4.29,1.02,7.445,7.445,0,0,1,3.015,2.925A8.722,8.722,0,0,1,305.82-8.01Zm-8.37-4.83a4.03,4.03,0,0,0-2.67.9,3.831,3.831,0,0,0-1.32,2.46h7.95a3.87,3.87,0,0,0-1.32-2.445A3.945,3.945,0,0,0,297.45-12.84ZM334.02-3.9V0H317.76V-21h15.87v3.9H322.59v4.56h9.75v3.78h-9.75V-3.9Zm19.41-12.24L346.62,0h-4.83l-6.78-16.14h4.83l4.47,10.98,4.62-10.98Zm17.28,8.13q0,.09-.09,1.26H358.41a3.8,3.8,0,0,0,1.56,2.37,5.167,5.167,0,0,0,3.06.87,6.2,6.2,0,0,0,2.235-.375A5.413,5.413,0,0,0,367.08-5.07l2.49,2.7Q367.29.24,362.91.24a10.535,10.535,0,0,1-4.83-1.065,7.807,7.807,0,0,1-3.24-2.955,8.142,8.142,0,0,1-1.14-4.29,8.248,8.248,0,0,1,1.125-4.275,7.881,7.881,0,0,1,3.09-2.97,9.073,9.073,0,0,1,4.4-1.065,9,9,0,0,1,4.29,1.02,7.445,7.445,0,0,1,3.015,2.925A8.722,8.722,0,0,1,370.71-8.01Zm-8.37-4.83a4.03,4.03,0,0,0-2.67.9,3.831,3.831,0,0,0-1.32,2.46h7.95a3.87,3.87,0,0,0-1.32-2.445A3.945,3.945,0,0,0,362.34-12.84Zm15.96-1.17a5.2,5.2,0,0,1,2.265-1.77,8.407,8.407,0,0,1,3.285-.6v4.32q-.78-.06-1.05-.06A4.29,4.29,0,0,0,379.65-11a4.547,4.547,0,0,0-1.14,3.375V0h-4.68V-16.14h4.47ZM386.16-21h5.58l-.93,13.71h-3.72ZM388.95.24a2.845,2.845,0,0,1-2.055-.8,2.586,2.586,0,0,1-.825-1.935,2.513,2.513,0,0,1,.81-1.9,2.894,2.894,0,0,1,2.07-.765,2.894,2.894,0,0,1,2.07.765,2.513,2.513,0,0,1,.81,1.9A2.586,2.586,0,0,1,391-.555,2.845,2.845,0,0,1,388.95.24Z" transform="translate(399 1995)" fill="#fff" stroke="rgba(0,0,0,0)" stroke-width="1"/>
    </g>
    <g id="叶子元素">
      <g id="组_4544" data-name="组 4544" transform="translate(740.807 1409.891)">
        <path id="路径_13798" data-name="路径 13798" d="M-217.9,310.45a42.575,42.575,0,0,1,.609,6.249,18.824,18.824,0,0,1,1.8-1.086A25.873,25.873,0,0,1-207,312.987c.855-.122,1.722-.206,2.6-.27a.877.877,0,0,1,.792.991c-1.455,4.495-3.139,9.236-6.4,12.3a25.913,25.913,0,0,1,4.653,1.221c.6.217,1.2.458,1.784.71a.44.44,0,0,1,.055.753c-3.028,1.794-6.322,3.643-9.867,4.074a16.9,16.9,0,0,1-7.923-1.127c-1-.378-1.918-.944-2.891-1.389a.053.053,0,0,1-.028-.022s0-.008,0-.013-.013-.007-.017-.014a10.939,10.939,0,0,1-1.047-3.325,14.1,14.1,0,0,1-.2-3.327,16.838,16.838,0,0,1,1.726-6.333,24.574,24.574,0,0,1,3.819-5.607c.427-.478.871-.939,1.324-1.391A.44.44,0,0,1-217.9,310.45Z" transform="translate(0.02)" fill="#ffc217"/>
        <path id="路径_13800" data-name="路径 13800" d="M-219.938,311.611c.427-.478.871-.939,1.324-1.391a.44.44,0,0,1,.718.231,42.575,42.575,0,0,1,.609,6.249,18.824,18.824,0,0,1,1.8-1.086A25.873,25.873,0,0,1-207,312.987c.855-.122,1.722-.206,2.6-.27a.9.9,0,0,1,.8.709c-7.984,5.025-16.017,12.567-20.382,16.927-.07-.034-.137-.069-.207-.1a.053.053,0,0,1-.028-.022s0-.008,0-.013-.013-.007-.017-.014a10.939,10.939,0,0,1-1.047-3.325,14.1,14.1,0,0,1-.2-3.327,16.838,16.838,0,0,1,1.726-6.333A24.574,24.574,0,0,1-219.938,311.611Z" transform="translate(0.02)" fill="#ea9a1b"/>
        <path id="路径_13801" data-name="路径 13801" d="M-217.911,310.45a44.537,44.537,0,0,1,.6,5.866,4.98,4.98,0,0,0-.566-1.955,1.281,1.281,0,0,0-1.5-.6,6.746,6.746,0,0,0-2.583,1.836,12.133,12.133,0,0,0-2.012,2.406c-.192.312-.366.633-.533.957.217-.593.463-1.177.738-1.745a24.574,24.574,0,0,1,3.819-5.607c.427-.478.871-.939,1.324-1.391A.44.44,0,0,1-217.911,310.45Z" transform="translate(0.036)" fill="#ffc217"/>
        <path id="路径_13802" data-name="路径 13802" d="M-207.362,315.867a158.645,158.645,0,0,0-18.282,16.919l-1.163-1.1S-215.244,320.913-207.362,315.867Z" transform="translate(0 0.09)" fill="#84182f"/>
      </g>
      <g id="组_4545" data-name="组 4545" transform="matrix(0.985, 0.174, -0.174, 0.985, 1080.365, 1509.119)">
        <path id="路径_13798-2" data-name="路径 13798" d="M-217.9,310.45a42.575,42.575,0,0,1,.609,6.249,18.824,18.824,0,0,1,1.8-1.086A25.873,25.873,0,0,1-207,312.987c.855-.122,1.722-.206,2.6-.27a.877.877,0,0,1,.792.991c-1.455,4.495-3.139,9.236-6.4,12.3a25.913,25.913,0,0,1,4.653,1.221c.6.217,1.2.458,1.784.71a.44.44,0,0,1,.055.753c-3.028,1.794-6.322,3.643-9.867,4.074a16.9,16.9,0,0,1-7.923-1.127c-1-.378-1.918-.944-2.891-1.389a.053.053,0,0,1-.028-.022s0-.008,0-.013-.013-.007-.017-.014a10.939,10.939,0,0,1-1.047-3.325,14.1,14.1,0,0,1-.2-3.327,16.838,16.838,0,0,1,1.726-6.333,24.574,24.574,0,0,1,3.819-5.607c.427-.478.871-.939,1.324-1.391A.44.44,0,0,1-217.9,310.45Z" transform="translate(0.02)" fill="#ffc217"/>
        <path id="路径_13800-2" data-name="路径 13800" d="M-219.938,311.611c.427-.478.871-.939,1.324-1.391a.44.44,0,0,1,.718.231,42.575,42.575,0,0,1,.609,6.249,18.824,18.824,0,0,1,1.8-1.086A25.873,25.873,0,0,1-207,312.987c.855-.122,1.722-.206,2.6-.27a.9.9,0,0,1,.8.709c-7.984,5.025-16.017,12.567-20.382,16.927-.07-.034-.137-.069-.207-.1a.053.053,0,0,1-.028-.022s0-.008,0-.013-.013-.007-.017-.014a10.939,10.939,0,0,1-1.047-3.325,14.1,14.1,0,0,1-.2-3.327,16.838,16.838,0,0,1,1.726-6.333A24.574,24.574,0,0,1-219.938,311.611Z" transform="translate(0.02)" fill="#ea9a1b"/>
        <path id="路径_13801-2" data-name="路径 13801" d="M-217.911,310.45a44.537,44.537,0,0,1,.6,5.866,4.98,4.98,0,0,0-.566-1.955,1.281,1.281,0,0,0-1.5-.6,6.746,6.746,0,0,0-2.583,1.836,12.133,12.133,0,0,0-2.012,2.406c-.192.312-.366.633-.533.957.217-.593.463-1.177.738-1.745a24.574,24.574,0,0,1,3.819-5.607c.427-.478.871-.939,1.324-1.391A.44.44,0,0,1-217.911,310.45Z" transform="translate(0.036)" fill="#ffc217"/>
        <path id="路径_13802-2" data-name="路径 13802" d="M-207.362,315.867a158.645,158.645,0,0,0-18.282,16.919l-1.163-1.1S-215.244,320.913-207.362,315.867Z" transform="translate(0 0.09)" fill="#84182f"/>
      </g>
      <g id="组_4546" data-name="组 4546" transform="translate(596.98 1337.914) rotate(-11)">
        <path id="路径_13803" data-name="路径 13803" d="M-399.228,269.084a68.382,68.382,0,0,0-2.556,9.762,29.894,29.894,0,0,0-2.577-2.181,41.565,41.565,0,0,0-12.8-6.326c-1.326-.411-2.681-.765-4.051-1.091a1.411,1.411,0,0,0-1.51,1.372c1.166,7.5,2.631,15.455,7.021,21.151a41.634,41.634,0,0,0-7.7.754c-1.01.192-2.013.422-3.012.672a.706.706,0,0,0-.278,1.179c4.348,3.619,9.1,7.389,14.621,8.977a27.165,27.165,0,0,0,12.858.227c1.69-.343,3.285-1.009,4.942-1.469a.08.08,0,0,0,.05-.028c0-.006,0-.014,0-.021s.024-.008.033-.019a17.567,17.567,0,0,0,2.506-5.01,22.592,22.592,0,0,0,1.163-5.228,27.1,27.1,0,0,0-1.128-10.49,39.5,39.5,0,0,0-4.635-9.869c-.555-.866-1.143-1.711-1.747-2.544A.708.708,0,0,0-399.228,269.084Z" fill="#ffc217"/>
        <path id="路径_13804" data-name="路径 13804" d="M-398.609,268.9a.708.708,0,0,0-1.2.182,68.382,68.382,0,0,0-2.556,9.762,29.894,29.894,0,0,0-2.577-2.181,41.565,41.565,0,0,0-12.8-6.326c-1.326-.411-2.681-.765-4.051-1.091a1.411,1.411,0,0,0-1.51,1.372q.1.676.214,1.354a34.188,34.188,0,0,1,7.319,8.921,36.217,36.217,0,0,1,4.858,13.408,8.72,8.72,0,0,1-.328,4.086,4.576,4.576,0,0,1-3.456,2.876,12.685,12.685,0,0,1-2.8.087,25.152,25.152,0,0,0,4.853,2,27.165,27.165,0,0,0,12.858.227c1.69-.343,3.285-1.009,4.942-1.469a.08.08,0,0,0,.05-.028c0-.006,0-.014,0-.021s.024-.008.033-.019a17.567,17.567,0,0,0,2.506-5.01A22.592,22.592,0,0,0-391.1,291.8a27.1,27.1,0,0,0-1.128-10.49,39.5,39.5,0,0,0-4.635-9.869C-397.417,270.579-398,269.734-398.609,268.9Z" transform="translate(0.58)" fill="#f7ad2b"/>
        <path id="路径_13805" data-name="路径 13805" d="M-396.873,271.445c-.555-.866-1.143-1.711-1.747-2.544a.708.708,0,0,0-1.2.182,68.382,68.382,0,0,0-2.556,9.762,29.894,29.894,0,0,0-2.577-2.181,41.566,41.566,0,0,0-12.8-6.326c-1.326-.411-2.681-.765-4.051-1.091a1.45,1.45,0,0,0-1.443.923c11.39,10,22.218,24.018,28.036,32.047.118-.035.236-.075.354-.108a.08.08,0,0,0,.05-.028c0-.006,0-.014,0-.021s.024-.008.033-.019a17.568,17.568,0,0,0,2.506-5.01,22.59,22.59,0,0,0,1.163-5.228,27.1,27.1,0,0,0-1.128-10.49A39.5,39.5,0,0,0-396.873,271.445Z" transform="translate(0.591)" fill="#ea9a1b"/>
        <path id="路径_13806" data-name="路径 13806" d="M-402.736,269.084a71.819,71.819,0,0,0-2.438,9.157,7.986,7.986,0,0,1,1.395-2.958,2.06,2.06,0,0,1,2.538-.566c1.523.693,2.649,2.279,3.63,3.571a19.546,19.546,0,0,1,2.582,4.329c.224.544.418,1.1.6,1.655-.2-1-.436-1.986-.728-2.958a39.5,39.5,0,0,0-4.635-9.869c-.555-.866-1.143-1.711-1.747-2.544A.708.708,0,0,0-402.736,269.084Z" transform="translate(3.509)" fill="#ffc217"/>
        <path id="路径_13807" data-name="路径 13807" d="M-418.644,274.243s14.5,15.511,24.705,31.5l2.127-1.458S-407.421,284.256-418.644,274.243Z" transform="translate(1.334 0.904)" fill="#84182f"/>
      </g>
    </g>
  </g>
</svg>
