<svg xmlns="http://www.w3.org/2000/svg" width="49.662" height="50.059" viewBox="0 0 49.662 50.059"><g transform="translate(0 0)"><path d="M634.379,624.5H601a50.063,50.063,0,0,0,49.662,50.059V640.783A16.282,16.282,0,0,0,634.379,624.5Z" transform="translate(-601 -624.5)" fill="#8761fd"/><path d="M704.128,623.839l-1.946-1.946a1.376,1.376,0,0,0-1.946,0l-11.676,11.676-7.3-7.3a1.376,1.376,0,0,0-1.946,0l-1.946,1.946a1.375,1.375,0,0,0,0,1.946l8.27,8.27,1.946,1.946a1.376,1.376,0,0,0,1.946,0l1.946-1.946,12.648-12.649A1.374,1.374,0,0,0,704.128,623.839Z" transform="translate(-661.332 -608.997)" fill="#fff"/></g></svg>