<svg xmlns="http://www.w3.org/2000/svg" width="1175.487" height="571.759" viewBox="0 0 1175.487 571.759">
  <g id="元素" transform="translate(-85.205 -5.926)">
    <g id="组_4364" data-name="组 4364" transform="translate(-9 8)">
      <g id="组_4357" data-name="组 4357" transform="translate(93 28)">
        <path id="路径_12857" data-name="路径 12857" d="M604.01,73.47a23.154,23.154,0,0,0-.614,3.364,10.259,10.259,0,0,0-.927-.671,14.1,14.1,0,0,0-4.488-1.811c-.458-.1-.925-.19-1.4-.265a.478.478,0,0,0-.475.5c.585,2.506,1.283,5.156,2.912,6.968a14.119,14.119,0,0,0-2.581.451c-.337.091-.669.194-1,.3a.24.24,0,0,0-.064.406,14.348,14.348,0,0,0,5.17,2.66,9.2,9.2,0,0,0,4.351-.252c.562-.159,1.084-.425,1.632-.623a.029.029,0,0,0,.016-.01v-.007l.01-.007a5.961,5.961,0,0,0,.719-1.758,7.613,7.613,0,0,0,.259-1.8,9.165,9.165,0,0,0-.649-3.516,13.38,13.38,0,0,0-1.818-3.216c-.21-.279-.43-.549-.655-.815A.24.24,0,0,0,604.01,73.47Z" fill="#ffc217"/>
        <path id="路径_12858" data-name="路径 12858" d="M604.411,73.378a.24.24,0,0,0-.4.092,23.154,23.154,0,0,0-.614,3.364,10.259,10.259,0,0,0-.927-.671,14.1,14.1,0,0,0-4.488-1.811c-.458-.1-.925-.19-1.4-.265a.478.478,0,0,0-.475.5c.035.151.07.3.106.453a11.539,11.539,0,0,1,2.7,2.827,12.261,12.261,0,0,1,1.985,4.407,2.951,2.951,0,0,1-.007,1.389,1.549,1.549,0,0,1-1.094,1.059,4.346,4.346,0,0,1-.945.1,8.573,8.573,0,0,0,1.691.552,9.2,9.2,0,0,0,4.351-.252c.562-.159,1.084-.425,1.632-.623a.029.029,0,0,0,.016-.01v-.007l.01-.007a5.961,5.961,0,0,0,.719-1.758,7.613,7.613,0,0,0,.259-1.8,9.165,9.165,0,0,0-.649-3.516,13.38,13.38,0,0,0-1.818-3.216C604.856,73.914,604.636,73.644,604.411,73.378Z" fill="#f7ad2b"/>
        <path id="路径_12859" data-name="路径 12859" d="M605.066,74.193c-.21-.279-.43-.549-.655-.815a.24.24,0,0,0-.4.092,23.154,23.154,0,0,0-.614,3.364,10.259,10.259,0,0,0-.927-.671,14.1,14.1,0,0,0-4.488-1.811c-.458-.1-.925-.19-1.4-.265a.493.493,0,0,0-.464.349,70.4,70.4,0,0,1,10.292,10.113c.039-.015.078-.032.117-.046a.029.029,0,0,0,.016-.01v-.007l.01-.007a5.961,5.961,0,0,0,.719-1.758,7.613,7.613,0,0,0,.259-1.8,9.165,9.165,0,0,0-.649-3.516A13.38,13.38,0,0,0,605.066,74.193Z" fill="#ea9a1b"/>
        <path id="路径_12860" data-name="路径 12860" d="M604.01,73.47a24.276,24.276,0,0,0-.589,3.157,2.705,2.705,0,0,1,.395-1.036.7.7,0,0,1,.843-.255,3.671,3.671,0,0,1,1.318,1.113,6.648,6.648,0,0,1,.983,1.4c.089.178.169.361.246.544-.092-.332-.2-.659-.322-.981a13.38,13.38,0,0,0-1.818-3.216c-.21-.279-.43-.549-.655-.815A.24.24,0,0,0,604.01,73.47Z" fill="#ffc217"/>
        <path id="路径_12861" data-name="路径 12861" d="M598.055,75.981a86.41,86.41,0,0,1,9.152,10.013l.682-.547A99.589,99.589,0,0,0,598.055,75.981Z" fill="#84182f"/>
      </g>
      <g id="组_4360" data-name="组 4360" transform="translate(147 -38)">
        <path id="路径_12872" data-name="路径 12872" d="M645.756,212.452a23.212,23.212,0,0,0-2.367-2.468,10.061,10.061,0,0,0,1.086-.358,14.094,14.094,0,0,0,4.1-2.578c.353-.31.7-.639,1.032-.977a.478.478,0,0,0-.129-.68c-2.374-.992-4.931-1.977-7.354-1.717a14.171,14.171,0,0,0,1.146-2.357c.123-.326.234-.656.339-.989a.239.239,0,0,0-.292-.289,14.34,14.34,0,0,0-5.183,2.634,9.215,9.215,0,0,0-2.343,3.674c-.2.549-.29,1.128-.45,1.688a.028.028,0,0,0,0,.02l.006,0s0,.008,0,.012a5.943,5.943,0,0,0,1,1.612,7.674,7.674,0,0,0,1.3,1.262,9.185,9.185,0,0,0,3.23,1.532,13.36,13.36,0,0,0,3.672.408c.349-.006.7-.027,1.045-.054A.239.239,0,0,0,645.756,212.452Z" fill="#ffc217"/>
        <path id="路径_12873" data-name="路径 12873" d="M645.6,212.83a.239.239,0,0,0,.159-.378,23.212,23.212,0,0,0-2.367-2.468,10.061,10.061,0,0,0,1.086-.358,14.094,14.094,0,0,0,4.1-2.578c.353-.31.7-.639,1.032-.977a.478.478,0,0,0-.129-.68l-.429-.178a11.565,11.565,0,0,1-3.873.535,12.285,12.285,0,0,1-4.735-.971,2.969,2.969,0,0,1-1.122-.819,1.55,1.55,0,0,1-.218-1.508,4.291,4.291,0,0,1,.471-.825,8.577,8.577,0,0,0-1.438,1.048,9.215,9.215,0,0,0-2.343,3.674c-.2.549-.29,1.128-.45,1.688a.028.028,0,0,0,0,.02l.006,0s0,.008,0,.012a5.943,5.943,0,0,0,1,1.612,7.674,7.674,0,0,0,1.3,1.262,9.185,9.185,0,0,0,3.23,1.532,13.36,13.36,0,0,0,3.672.408C644.9,212.878,645.249,212.857,645.6,212.83Z" fill="#f7ad2b"/>
        <path id="路径_12874" data-name="路径 12874" d="M644.552,212.884c.349-.006.7-.027,1.045-.054a.239.239,0,0,0,.159-.378,23.212,23.212,0,0,0-2.367-2.468,10.061,10.061,0,0,0,1.086-.358,14.094,14.094,0,0,0,4.1-2.578c.353-.31.7-.639,1.032-.977a.493.493,0,0,0-.011-.581,70.392,70.392,0,0,1-14.224,2.424c-.011.04-.02.081-.031.121a.028.028,0,0,0,0,.02l.006,0s0,.008,0,.012a5.943,5.943,0,0,0,1,1.612,7.674,7.674,0,0,0,1.3,1.262,9.185,9.185,0,0,0,3.23,1.532A13.36,13.36,0,0,0,644.552,212.884Z" fill="#ea9a1b"/>
        <path id="路径_12875" data-name="路径 12875" d="M645.756,212.452a24.339,24.339,0,0,0-2.213-2.326,2.708,2.708,0,0,1,.607.927.7.7,0,0,1-.286.833,3.674,3.674,0,0,1-1.674.416,6.6,6.6,0,0,1-1.708-.021c-.2-.031-.392-.074-.585-.119.322.12.65.226.983.314a13.36,13.36,0,0,0,3.672.408c.349-.006.7-.027,1.045-.054A.239.239,0,0,0,645.756,212.452Z" fill="#ffc217"/>
        <path id="路径_12876" data-name="路径 12876" d="M647.207,206.154a86.444,86.444,0,0,1-13.475,1.558l.044.873A99.53,99.53,0,0,0,647.207,206.154Z" fill="#84182f"/>
      </g>
      <g id="组_4363" data-name="组 4363" transform="translate(32 -40)">
        <path id="路径_12887" data-name="路径 12887" d="M490.492,133.555a41.927,41.927,0,0,1,.6,6.153,18.537,18.537,0,0,1,1.771-1.069,25.476,25.476,0,0,1,8.359-2.586c.842-.12,1.7-.2,2.557-.266a.863.863,0,0,1,.78.976c-1.433,4.426-3.091,9.1-6.3,12.115a25.531,25.531,0,0,1,4.583,1.2c.593.214,1.177.451,1.757.7a.433.433,0,0,1,.054.74c-2.982,1.768-6.225,3.588-9.717,4.013a16.637,16.637,0,0,1-7.8-1.11c-.989-.372-1.889-.93-2.847-1.368a.052.052,0,0,1-.028-.022s0-.008,0-.013-.013-.007-.017-.014a10.771,10.771,0,0,1-1.031-3.274,13.831,13.831,0,0,1-.2-3.276,16.581,16.581,0,0,1,1.7-6.236,24.2,24.2,0,0,1,3.761-5.521c.42-.471.857-.925,1.3-1.37A.433.433,0,0,1,490.492,133.555Z" fill="#ffc217"/>
        <path id="路径_12888" data-name="路径 12888" d="M489.785,133.328a.433.433,0,0,1,.707.227,41.927,41.927,0,0,1,.6,6.153,18.537,18.537,0,0,1,1.771-1.069,25.476,25.476,0,0,1,8.359-2.586c.842-.12,1.7-.2,2.557-.266a.863.863,0,0,1,.78.976c-.086.265-.173.532-.261.8a20.93,20.93,0,0,0-5.293,4.686,22.187,22.187,0,0,0-4.24,7.641,5.347,5.347,0,0,0-.2,2.5,2.8,2.8,0,0,0,1.812,2.074,7.746,7.746,0,0,0,1.687.325,15.441,15.441,0,0,1-3.13.74,16.637,16.637,0,0,1-7.8-1.11c-.989-.372-1.889-.93-2.847-1.368a.052.052,0,0,1-.028-.022s0-.008,0-.013-.013-.007-.017-.014a10.771,10.771,0,0,1-1.031-3.274,13.831,13.831,0,0,1-.2-3.276,16.581,16.581,0,0,1,1.7-6.236,24.2,24.2,0,0,1,3.761-5.521C488.9,134.227,489.338,133.773,489.785,133.328Z" fill="#f7ad2b"/>
        <path id="路径_12889" data-name="路径 12889" d="M488.481,134.7c.42-.471.857-.925,1.3-1.37a.433.433,0,0,1,.707.227,41.927,41.927,0,0,1,.6,6.153,18.537,18.537,0,0,1,1.771-1.069,25.476,25.476,0,0,1,8.359-2.586c.842-.12,1.7-.2,2.557-.266a.889.889,0,0,1,.783.7c-7.862,4.948-15.772,12.375-20.071,16.668-.068-.033-.134-.068-.2-.1a.052.052,0,0,1-.028-.022s0-.008,0-.013-.013-.007-.017-.014a10.771,10.771,0,0,1-1.031-3.274,13.831,13.831,0,0,1-.2-3.276,16.581,16.581,0,0,1,1.7-6.236A24.2,24.2,0,0,1,488.481,134.7Z" fill="#ea9a1b"/>
        <path id="路径_12890" data-name="路径 12890" d="M490.492,133.555a44.025,44.025,0,0,1,.587,5.775,4.9,4.9,0,0,0-.557-1.924,1.263,1.263,0,0,0-1.48-.589,6.655,6.655,0,0,0-2.543,1.809,12.008,12.008,0,0,0-1.982,2.368c-.188.308-.359.624-.525.943.215-.584.457-1.159.728-1.718a24.2,24.2,0,0,1,3.761-5.521c.42-.471.857-.925,1.3-1.37A.433.433,0,0,1,490.492,133.555Z" fill="#ffc217"/>
        <path id="路径_12891" data-name="路径 12891" d="M500.844,138.977a156.215,156.215,0,0,0-18,16.66l-1.145-1.088S493.083,143.945,500.844,138.977Z" fill="#84182f"/>
      </g>
    </g>
    <ellipse id="椭圆_284" data-name="椭圆 284" cx="19.166" cy="3.186" rx="19.166" ry="3.186" transform="translate(660.875 180.781)" fill="#47260f" opacity="0.1" style="mix-blend-mode: multiply;isolation: isolate"/>
    <g id="组_4381" data-name="组 4381" transform="translate(560.051 -567.712)">
      <path id="路径_12999" data-name="路径 12999" d="M150.261,737.165c-.455.749-.635,1.623-1.084,2.378a13.9,13.9,0,0,1-1.547,2.009.569.569,0,0,0-.112.163c-.079.2.24.585.442.6.165.008.3-.2.407-.3a28.756,28.756,0,0,0,2.425-2.479,3.281,3.281,0,0,0,.629-.97.406.406,0,0,0-.046-.374,6.006,6.006,0,0,0-.983-1.048.094.094,0,0,0-.057-.032.054.054,0,0,0-.026.006A.14.14,0,0,0,150.261,737.165Z" transform="translate(-12.903)" fill="#47260f"/>
      <path id="路径_13000" data-name="路径 13000" d="M148.021,743.008c.015-.015.029-.03.044-.044a16.565,16.565,0,0,0,2.052-2.209,24.17,24.17,0,0,0,1.205-2.173,3.191,3.191,0,0,1,.337.42.406.406,0,0,1,.046.374,3.281,3.281,0,0,1-.629.97,28.756,28.756,0,0,1-2.425,2.479c-.1.1-.242.31-.407.3A.411.411,0,0,1,148.021,743.008Z" transform="translate(-13.189 -0.815)" fill="#331a09"/>
      <path id="路径_13001" data-name="路径 13001" d="M128.955,745.21a1.344,1.344,0,0,0-1.278.162A6.166,6.166,0,0,0,126.1,747.3a12.617,12.617,0,0,0-1.519,3.358c-.415,1.457-.926,3.6.589,4.624a5.512,5.512,0,0,0,3.4.63,13.1,13.1,0,0,0,5.532-1.451,1.906,1.906,0,0,0,.624-.495c.536-.724-.424-1.891-.807-2.47-1.439-2.172-2.589-4.659-4.8-6.183A1.285,1.285,0,0,0,128.955,745.21Z" transform="translate(0 -4.424)" fill="#993e22"/>
      <path id="路径_13002" data-name="路径 13002" d="M128.932,765.162a1.069,1.069,0,0,1,.362-.593c.16-.123.324-.033.371.15a1.076,1.076,0,0,1-.105.715c-.085.18-.233.4-.464.309C128.9,765.668,128.9,765.331,128.932,765.162Z" transform="translate(-2.631 -15.145)" fill="#872f1a"/>
      <path id="路径_13003" data-name="路径 13003" d="M127.869,763.385a.729.729,0,0,1,.406-.242c.136-.023.2.084.176.208a.734.734,0,0,1-.291.4c-.109.081-.267.164-.377.038C127.689,763.679,127.8,763.476,127.869,763.385Z" transform="translate(-1.984 -14.387)" fill="#872f1a"/>
      <path id="路径_13004" data-name="路径 13004" d="M130.6,763.381a.372.372,0,0,1,.106-.217c.051-.047.11-.021.133.04a.374.374,0,0,1-.013.25c-.024.065-.068.145-.151.121S130.6,763.44,130.6,763.381Z" transform="translate(-3.561 -14.387)" fill="#872f1a"/>
      <path id="路径_13005" data-name="路径 13005" d="M124.336,751.692a3.059,3.059,0,0,0,.654,2.349,2.773,2.773,0,0,0,3.816.01c1-.958.994-1.981.006-3.481a9.1,9.1,0,0,1-1.956-4.32.053.053,0,0,1,0-.017,3.445,3.445,0,0,1,.821-.8,1.648,1.648,0,0,1,.482-.214,3.4,3.4,0,0,1,1.126.809,8.018,8.018,0,0,0,2.034,1.506c.964,1.266,1.733,2.7,2.607,4.021.383.578,1.343,1.746.807,2.47a1.907,1.907,0,0,1-.624.495,13.09,13.09,0,0,1-5.532,1.451,5.508,5.508,0,0,1-3.4-.63C123.974,754.527,124.048,753.011,124.336,751.692Z" transform="translate(-0.001 -4.481)" fill="#872f1a"/>
      <path id="路径_13006" data-name="路径 13006" d="M130.721,744.868a6.029,6.029,0,0,0,1.238,2.164c.567.8,1.163,1.572,1.806,2.308a22.606,22.606,0,0,0,4.2,3.773.579.579,0,0,0,.275.124.436.436,0,0,0,.285-.121c2.391-1.848,2.5-5.638.788-7.979a5.538,5.538,0,0,0-4.162-2.031c-1.376-.118-3.226-.127-4.22,1.01A.853.853,0,0,0,130.721,744.868Z" transform="translate(-3.619 -3.287)" fill="#47260f"/>
      <path id="路径_13007" data-name="路径 13007" d="M133.765,750.552c-.643-.736-1.239-1.512-1.806-2.308a6.024,6.024,0,0,1-1.238-2.164.853.853,0,0,1,.212-.752c.025-.029.053-.054.079-.081a6.812,6.812,0,0,0,3.762,4.891,2.868,2.868,0,0,0,4.09-1.058,3.672,3.672,0,0,0,0-3.254,4.3,4.3,0,0,1,.456.524c1.716,2.34,1.6,6.131-.788,7.979a.436.436,0,0,1-.285.121.579.579,0,0,1-.275-.124A22.607,22.607,0,0,1,133.765,750.552Z" transform="translate(-3.619 -4.498)" fill="#331a09"/>
      <path id="路径_13008" data-name="路径 13008" d="M140.506,751.644a1.465,1.465,0,0,1,.5-.812c.219-.169.444-.045.509.205a1.477,1.477,0,0,1-.144.98c-.117.247-.32.544-.636.424C140.463,752.339,140.462,751.876,140.506,751.644Z" transform="translate(-9.024 -7.542)" fill="#331a09"/>
      <path id="路径_13009" data-name="路径 13009" d="M139.05,749.21a.993.993,0,0,1,.556-.33c.185-.032.28.114.24.285a1.006,1.006,0,0,1-.4.543c-.149.111-.365.225-.517.052C138.8,749.613,138.95,749.335,139.05,749.21Z" transform="translate(-8.138 -6.503)" fill="#331a09"/>
      <path id="路径_13010" data-name="路径 13010" d="M137.189,753.711a1,1,0,0,1,.413-.5c.164-.092.3.013.323.188a1.007,1.007,0,0,1-.193.646c-.1.155-.268.335-.469.223C137.093,754.174,137.138,753.862,137.189,753.711Z" transform="translate(-7.177 -8.882)" fill="#331a09"/>
      <path id="路径_13011" data-name="路径 13011" d="M141.547,756.193a1,1,0,0,1,.246-.6.21.21,0,0,1,.363.083,1,1,0,0,1,.009.673c-.052.178-.156.4-.381.353C141.593,756.664,141.543,756.354,141.547,756.193Z" transform="translate(-9.611 -10.175)" fill="#331a09"/>
      <path id="路径_13012" data-name="路径 13012" d="M131.774,745.706a1,1,0,0,1,.646.041.21.21,0,0,1,.038.371,1,1,0,0,1-.636.223c-.186.008-.429-.02-.456-.249C131.342,745.9,131.621,745.753,131.774,745.706Z" transform="translate(-3.983 -4.733)" fill="#331a09"/>
      <path id="路径_13013" data-name="路径 13013" d="M142.792,749.2a.509.509,0,0,1,.145-.3.107.107,0,0,1,.183.055.513.513,0,0,1-.019.344c-.033.089-.093.2-.206.166C142.8,749.446,142.784,749.286,142.792,749.2Z" transform="translate(-10.298 -6.503)" fill="#331a09"/>
      <path id="路径_13014" data-name="路径 13014" d="M146.336,754.815a1.466,1.466,0,0,1,.255-.917.309.309,0,0,1,.546.058,1.478,1.478,0,0,1,.13.982c-.045.269-.159.611-.5.581C146.485,755.495,146.358,755.05,146.336,754.815Z" transform="translate(-12.255 -9.202)" fill="#331a09"/>
      <path id="路径_13015" data-name="路径 13015" d="M144.18,752.855a1,1,0,0,1,.445-.47c.169-.081.3.034.309.209a1,1,0,0,1-.234.631c-.113.148-.29.316-.483.191C144.053,753.311,144.118,753,144.18,752.855Z" transform="translate(-11.029 -8.429)" fill="#331a09"/>
      <path id="路径_13016" data-name="路径 13016" d="M147.653,752.02a.508.508,0,0,1,.059-.325.107.107,0,0,1,.191,0,.513.513,0,0,1,.076.336c-.007.094-.035.216-.153.216C147.726,752.25,147.668,752.1,147.653,752.02Z" transform="translate(-12.982 -8.031)" fill="#331a09"/>
      <path id="路径_13017" data-name="路径 13017" d="M141.529,746.816a.51.51,0,0,1,.3-.144c.1-.008.138.071.11.156a.51.51,0,0,1-.227.259c-.081.05-.2.1-.265,0S141.473,746.875,141.529,746.816Z" transform="translate(-9.544 -5.286)" fill="#331a09"/>
      <path id="路径_13018" data-name="路径 13018" d="M140.348,743.85a.506.506,0,0,1,.33-.005.107.107,0,0,1,.034.187.512.512,0,0,1-.314.14c-.094.011-.219.007-.242-.108C140.136,743.967,140.272,743.88,140.348,743.85Z" transform="translate(-8.841 -3.71)" fill="#331a09"/>
      <path id="路径_13019" data-name="路径 13019" d="M146.136,749.029a.509.509,0,0,1,.193-.268c.08-.053.154,0,.17.084a.511.511,0,0,1-.075.336c-.047.082-.125.18-.231.13C146.1,749.268,146.115,749.108,146.136,749.029Z" transform="translate(-12.139 -6.428)" fill="#331a09"/>
      <path id="路径_13020" data-name="路径 13020" d="M134.314,746.911a1.466,1.466,0,0,1,.95-.052.309.309,0,0,1,.119.536,1.478,1.478,0,0,1-.889.437c-.27.044-.629.045-.71-.284C133.717,747.269,134.1,747.006,134.314,746.911Z" transform="translate(-5.317 -5.358)" fill="#331a09"/>
      <path id="路径_13021" data-name="路径 13021" d="M136.172,744.223a1,1,0,0,1,.587.271.21.21,0,0,1-.1.36,1,1,0,0,1-.673-.021c-.176-.06-.392-.173-.336-.4C135.7,744.248,136.012,744.212,136.172,744.223Z" transform="translate(-6.348 -3.931)" fill="#331a09"/>
      <path id="路径_13022" data-name="路径 13022" d="M138.631,747.062a.508.508,0,0,1,.327-.048.107.107,0,0,1,.058.182.515.515,0,0,1-.293.179c-.092.024-.216.035-.254-.076C138.436,747.2,138.56,747.1,138.631,747.062Z" transform="translate(-7.907 -5.47)" fill="#331a09"/>
      <path id="路径_13023" data-name="路径 13023" d="M133.362,744.287c1.63-.237,4.088-.576,5.571.334a.318.318,0,0,1-.244.579,16.946,16.946,0,0,0-5.3-.686C133.266,744.517,133.23,744.307,133.362,744.287Z" transform="translate(-5.042 -3.823)" fill="#993e22" opacity="0.5"/>
      <path id="路径_13024" data-name="路径 13024" d="M127.122,751.605a.268.268,0,0,1,.438.3,13.578,13.578,0,0,0-1.616,3.942c-.017.1-.191.1-.189-.014A6.331,6.331,0,0,1,127.122,751.605Z" transform="translate(-0.884 -7.965)" fill="#f47c40" opacity="0.3"/>
    </g>
    <g id="组_4406" data-name="组 4406" transform="translate(-965.408 316.432)">
      <path id="路径_13117" data-name="路径 13117" d="M1682.934-101.118a5.266,5.266,0,0,0-2.541,1.43,2.522,2.522,0,0,0-.483,2.737,3.353,3.353,0,0,0,1.4,1.26,5.925,5.925,0,0,0,5.043.712,6.333,6.333,0,0,0,2.11-1.581c.9-.94,1.727-2.243,1.275-3.461a2.521,2.521,0,0,0-1.707-1.45,5.44,5.44,0,0,0-2.305-.05" transform="translate(-45.347 -49.368)" fill="#4a7573" stroke="#4a7573" stroke-miterlimit="10" stroke-width="1"/>
      <path id="路径_13118" data-name="路径 13118" d="M1634.635-69.124l.756-1.5a.647.647,0,0,0,.084-.592c-.134-.233-.476-.2-.733-.126a9.612,9.612,0,0,0-3.257,1.845,11.384,11.384,0,0,0-3.73,4.979,6.734,6.734,0,0,0,.675,6.03,4.825,4.825,0,0,0,5.559,1.78c.254-.107.529-.289.538-.564a.775.775,0,0,0-.167-.431,12.309,12.309,0,0,1-1.994-3.459,8.317,8.317,0,0,1,.308-4.009c.413-1.687.347-2.233,1.583-3.454" transform="translate(0 -75.553)" fill="#f7ac62" stroke="#f7ac62" stroke-miterlimit="10" stroke-width="1"/>
      <path id="路径_13119" data-name="路径 13119" d="M1660.951-92.076c.6.025,1.32.2,1.514.772a1.135,1.135,0,0,1-.314,1.1,3.665,3.665,0,0,1-1,.662,25.067,25.067,0,0,0-2.954,1.832,7.463,7.463,0,0,1,1.783-3.694,2.269,2.269,0,0,1,1.2-.8" transform="translate(-26.733 -57.519)" fill="#f7ac62" stroke="#f7ac62" stroke-miterlimit="10" stroke-width="1"/>
      <path id="路径_13120" data-name="路径 13120" d="M1680.771-101.388a7.464,7.464,0,0,0,1.8.627,1.047,1.047,0,0,0,.811-.518,3.087,3.087,0,0,0,.346-.935c.023-.091.324-.165.243-.212-.024-.014-.342-.064-.37-.067-.809-.095-1.141.126-2.148.571Z" transform="translate(-46.286 -48.592)" fill="#f7ac62" stroke="#f7ac62" stroke-miterlimit="10" stroke-width="1"/>
      <path id="路径_13121" data-name="路径 13121" d="M1726.188-107.508a4.808,4.808,0,0,1,1.259-.329c.172-.021.392-.006.458.155a.422.422,0,0,1-.006.256l-.141.607c-.038.163-.1.351-.255.406a.446.446,0,0,1-.317-.042,1.855,1.855,0,0,1-.958-.963" transform="translate(-85.633 -43.975)" fill="#f7ac62" stroke="#f7ac62" stroke-miterlimit="10" stroke-width="1"/>
      <path id="路径_13122" data-name="路径 13122" d="M1740.414-103.944a.434.434,0,0,1,.066-.613,1.222,1.222,0,0,1,.645-.232,2.888,2.888,0,0,1,1.29.01.372.372,0,0,1,.234.159.381.381,0,0,1,.012.246,1.943,1.943,0,0,1-.767,1.194.479.479,0,0,1-.292.113.508.508,0,0,1-.278-.136,3.393,3.393,0,0,1-.805-.946" transform="translate(-97.87 -46.561)" fill="#f7ac62" stroke="#f7ac62" stroke-miterlimit="10" stroke-width="1"/>
      <path id="路径_13123" data-name="路径 13123" d="M1752.835-95.444a3.09,3.09,0,0,1-1.223-.424,1.055,1.055,0,0,1-.463-1.126,1.3,1.3,0,0,1,.923-.726,4.811,4.811,0,0,1,2.98.15,10.047,10.047,0,0,1,2.624,1.5,5.767,5.767,0,0,1,2.151,2.517,5.189,5.189,0,0,1-.125,3.216c-.059.192-.19.426-.387.386-.117-.024-.189-.138-.248-.242a14.894,14.894,0,0,0-1.7-2.553,8.055,8.055,0,0,0-4.715-2.61" transform="translate(-107.225 -52.597)" fill="#f7ac62" stroke="#f7ac62" stroke-miterlimit="10" stroke-width="1"/>
      <path id="路径_13124" data-name="路径 13124" d="M1710.224-49.784a6.283,6.283,0,0,1-3.705-3.918,10.169,10.169,0,0,1,.769-8.716,3.437,3.437,0,0,1,1.908-1.705c1.421-.372,2.749.819,3.64,1.987a13.375,13.375,0,0,1,2.428,4.63,7.264,7.264,0,0,1-.414,5.129,5.024,5.024,0,0,1-4.168,2.788" transform="translate(-68.037 -81.792)" fill="#f7ac62" stroke="#f7ac62" stroke-miterlimit="10" stroke-width="1"/>
      <path id="路径_13125" data-name="路径 13125" d="M1671.432-63.869a2.532,2.532,0,0,0,.026-2.151,1.662,1.662,0,0,0-1.956-.472,4.038,4.038,0,0,0-1.631,1.4,11,11,0,0,0-2.51,6.652,6.921,6.921,0,0,0,3.342,6.04,3.092,3.092,0,0,0,1.756.437,1.634,1.634,0,0,0,1.4-1.025,2.917,2.917,0,0,0-.338-1.922,12.439,12.439,0,0,1,.078-9.255" transform="translate(-32.934 -79.689)" fill="#f7ac62" stroke="#f7ac62" stroke-miterlimit="10" stroke-width="1"/>
      <path id="路径_13126" data-name="路径 13126" d="M1745.7-75.845a11.1,11.1,0,0,1,3.719,7.284c.078.857.054,1.719.112,2.577a.641.641,0,0,0,.229.542c.2.115.446-.008.637-.135a10.109,10.109,0,0,0,3.021-3.132,4.714,4.714,0,0,0,.825-2.606,4.906,4.906,0,0,0-.5-1.778,8.483,8.483,0,0,0-5.532-5,2.684,2.684,0,0,0-2.365.379c-.621.55-.613,1.768.16,2.069" transform="translate(-102.277 -69.663)" fill="#f7ac62" stroke="#f7ac62" stroke-miterlimit="10" stroke-width="1"/>
      <path id="路径_13127" data-name="路径 13127" d="M1671.432-63.869a2.532,2.532,0,0,0,.026-2.151,1.662,1.662,0,0,0-1.956-.472,4.038,4.038,0,0,0-1.631,1.4,11,11,0,0,0-2.51,6.652,6.921,6.921,0,0,0,3.342,6.04,3.092,3.092,0,0,0,1.756.437,1.634,1.634,0,0,0,1.4-1.025,2.917,2.917,0,0,0-.338-1.922,12.439,12.439,0,0,1,.078-9.255" transform="translate(-32.934 -79.689)" fill="#f7ac62" stroke="#f7ac62" stroke-miterlimit="10" stroke-width="1"/>
      <path id="路径_13128" data-name="路径 13128" d="M1745.7-75.845a11.1,11.1,0,0,1,3.719,7.284c.078.857.054,1.719.112,2.577a.641.641,0,0,0,.229.542c.2.115.446-.008.637-.135a10.109,10.109,0,0,0,3.021-3.132,4.714,4.714,0,0,0,.825-2.606,4.906,4.906,0,0,0-.5-1.778,8.483,8.483,0,0,0-5.532-5,2.684,2.684,0,0,0-2.365.379c-.621.55-.613,1.768.16,2.069" transform="translate(-102.277 -69.663)" fill="#f7ac62" stroke="#f7ac62" stroke-miterlimit="10" stroke-width="1"/>
      <path id="路径_13129" data-name="路径 13129" d="M1710.224-49.784a6.283,6.283,0,0,1-3.705-3.918,10.169,10.169,0,0,1,.769-8.716,3.437,3.437,0,0,1,1.908-1.705c1.421-.372,2.749.819,3.64,1.987a13.375,13.375,0,0,1,2.428,4.63,7.264,7.264,0,0,1-.414,5.129,5.024,5.024,0,0,1-4.168,2.788" transform="translate(-68.037 -81.792)" fill="#f7ac62" stroke="#f7ac62" stroke-miterlimit="10" stroke-width="1"/>
      <g id="组_4403" data-name="组 4403" transform="translate(1629.898 -150.945)">
        <path id="路径_13130" data-name="路径 13130" d="M1701.137-57.115a18.508,18.508,0,0,0,.369,11.3c-.327.062-.6-.246-.785-.519a8.665,8.665,0,0,1-1.542-2.976,8.456,8.456,0,0,1-.061-2.442,11.562,11.562,0,0,1,1.455-5.664" transform="translate(-1692.028 63.281)" fill="#d47046" stroke="#d47046" stroke-miterlimit="10" stroke-width="1" opacity="0.52"/>
        <path id="路径_13131" data-name="路径 13131" d="M1743.689-65.249a17.316,17.316,0,0,1,3.768,4.449,7.989,7.989,0,0,1,.927,5.65,7.049,7.049,0,0,1,.515-1.8,6.425,6.425,0,0,0-.745-5.268,8.636,8.636,0,0,0-4.209-3.378" transform="translate(-1730.693 70.367)" fill="#d47046" stroke="#d47046" stroke-miterlimit="10" stroke-width="1" opacity="0.52"/>
        <path id="路径_13132" data-name="路径 13132" d="M1762.068-83.808a9.71,9.71,0,0,1,5.016,2.253,3.322,3.322,0,0,1,1.34,2.226c-.306-.613-.452-1.292-.71-1.927a5.977,5.977,0,0,0-5.384-3.638" transform="translate(-1746.615 87.088)" fill="#d47046" stroke="#d47046" stroke-miterlimit="10" stroke-width="1" opacity="0.52"/>
        <path id="路径_13133" data-name="路径 13133" d="M1652.358-64.364c-1.98,2.095-5.453,5.013-5,7.86.5,3.131,1.5,4.665,2.789,5.45-.341.231-1.361.77-2.57-.655-1.438-1.7-1.353-5.018-.572-7.1a12.386,12.386,0,0,1,5.076-5.6" transform="translate(-1646.448 69.342)" fill="#d47046" stroke="#d47046" stroke-miterlimit="10" stroke-width="1" opacity="0.52"/>
        <path id="路径_13134" data-name="路径 13134" d="M1657.177-75.434a7.324,7.324,0,0,1,2.708-1.237c.267-.061.62-.241.519-.5a.464.464,0,0,0-.321-.222,2.823,2.823,0,0,0-1.321-.181,2.053,2.053,0,0,0-1.231.815,7.034,7.034,0,0,0-.574,1.5" transform="translate(-1655.553 80.763)" fill="#d47046" stroke="#d47046" stroke-miterlimit="10" stroke-width="1" opacity="0.52"/>
        <path id="路径_13135" data-name="路径 13135" d="M1746.564-100.937a6.643,6.643,0,0,1-1.315.843.645.645,0,0,1-.044-.878,1.054,1.054,0,0,1,.88-.334,3.114,3.114,0,0,1,.938.255" transform="translate(-1731.876 101.308)" fill="#d47046" stroke="#d47046" stroke-miterlimit="10" stroke-width="1" opacity="0.52"/>
      </g>
      <g id="组_4404" data-name="组 4404" transform="translate(1641.279 -155.484)">
        <path id="路径_13136" data-name="路径 13136" d="M1733.26-134.621a1.634,1.634,0,0,0-.9-.615c-.525-.138-.713.178-.755.588a1.049,1.049,0,0,1,.134-.03,4.6,4.6,0,0,1,1.052.119A1.1,1.1,0,0,0,1733.26-134.621Z" transform="translate(-1731.603 135.269)" fill="#598e8b"/>
      </g>
      <path id="路径_13137" data-name="路径 13137" d="M1706.965-148.49a1.069,1.069,0,0,1-.814-.952c-.086-.98.116-2.553.086-3.857-.119-5.126,2.252-5.3,2.252-5.3l2.726,3.289s-1.452-.83-1.6-.03-1.215,4.5-.3,6.163a.977.977,0,0,1-.83.83A4.146,4.146,0,0,1,1706.965-148.49Z" transform="translate(-68.256 0)" fill="#4a7573" stroke="#4a7573" stroke-miterlimit="10" stroke-width="1"/>
    </g>
    <g id="圈圈" transform="translate(-147.957 -563.836)">
      <path id="路径_12928" data-name="路径 12928" d="M414.582,649.17a3.146,3.146,0,1,0-3.146,3.146A3.147,3.147,0,0,0,414.582,649.17Z" fill="#c46ae3"/>
      <circle id="椭圆_267" data-name="椭圆 267" cx="1.348" cy="1.348" r="1.348" transform="translate(397.99 662.282)" fill="#47260f"/>
      <path id="路径_12934" data-name="路径 12934" d="M602.115,604.982a1.348,1.348,0,1,0-1.348,1.348A1.347,1.347,0,0,0,602.115,604.982Z" transform="translate(23 32)" fill="#47260f"/>
      <circle id="椭圆_268" data-name="椭圆 268" cx="1.348" cy="1.348" r="1.348" transform="translate(680.009 631.075)" fill="#47260f"/>
      <circle id="椭圆_269" data-name="椭圆 269" cx="1.348" cy="1.348" r="1.348" transform="translate(758.984 743.779)" fill="#c46ae3"/>
      <path id="路径_12935" data-name="路径 12935" d="M757.4,638.269a1.349,1.349,0,1,0-1.348,1.349A1.349,1.349,0,0,0,757.4,638.269Z" fill="#dd5a31"/>
      <circle id="椭圆_271" data-name="椭圆 271" cx="1.348" cy="1.348" r="1.348" transform="translate(353.742 628.682)" fill="#dd5a31"/>
      <circle id="椭圆_272" data-name="椭圆 272" cx="1.348" cy="1.348" r="1.348" transform="translate(615.694 665.575)" fill="#fff"/>
      <path id="路径_12939" data-name="路径 12939" d="M370.862,759.5a1.348,1.348,0,1,0-1.348,1.348A1.349,1.349,0,0,0,370.862,759.5Z" transform="translate(8 -8)" fill="#fff"/>
      <path id="路径_12940" data-name="路径 12940" d="M751.345,652.17A1.348,1.348,0,1,0,750,653.519,1.348,1.348,0,0,0,751.345,652.17Z" fill="#fff"/>
      <circle id="椭圆_274" data-name="椭圆 274" cx="1.348" cy="1.348" r="1.348" transform="translate(645.163 642.735)" fill="#fff"/>
      <circle id="椭圆_275" data-name="椭圆 275" cx="1.348" cy="1.348" r="1.348" transform="translate(433.027 666.924)" fill="#fff"/>
      <circle id="椭圆_276" data-name="椭圆 276" cx="1.348" cy="1.348" r="1.348" transform="translate(233.162 647.822)" fill="#fff"/>
      <path id="路径_12941" data-name="路径 12941" d="M606.982,619.743a1.348,1.348,0,1,0-1.348,1.348A1.347,1.347,0,0,0,606.982,619.743Z" transform="translate(73 114)" fill="#fff"/>
      <circle id="椭圆_277" data-name="椭圆 277" cx="1.348" cy="1.348" r="1.348" transform="translate(485.014 569.762)" fill="#fff"/>
      <circle id="椭圆_280" data-name="椭圆 280" cx="1.348" cy="1.348" r="1.348" transform="translate(548.58 743.513)" fill="#dd5a31"/>
      <path id="路径_12943" data-name="路径 12943" d="M813.02,784.993a3.146,3.146,0,1,0-3.146,3.146A3.146,3.146,0,0,0,813.02,784.993Z" transform="translate(108 -135)" fill="#dd5a31"/>
      <circle id="椭圆_282" data-name="椭圆 282" cx="1.646" cy="1.646" r="1.646" transform="translate(869.879 745.893)" fill="#dd5a31"/>
      <path id="路径_12945" data-name="路径 12945" d="M622.063,600.391a3.146,3.146,0,1,0-3.146,3.146A3.146,3.146,0,0,0,622.063,600.391Z" transform="translate(-64 60)" fill="#c46ae3"/>
      <path id="路径_12946" data-name="路径 12946" d="M701.039,615.8a3.146,3.146,0,1,0-3.146,3.146A3.147,3.147,0,0,0,701.039,615.8Z" transform="translate(14 36)" fill="#fff"/>
      <circle id="椭圆_283" data-name="椭圆 283" cx="3.146" cy="3.146" r="3.146" transform="translate(906.358 667.229)" fill="#fff"/>
      <circle id="椭圆_293" data-name="椭圆 293" cx="5.646" cy="5.646" r="5.646" transform="translate(1346.358 1130.229)" fill="#fff" opacity="0.33"/>
      <circle id="椭圆_294" data-name="椭圆 294" cx="3.146" cy="3.146" r="3.146" transform="translate(1402.358 1095.229)" fill="#dd5a31" opacity="0.33"/>
      <path id="路径_12947" data-name="路径 12947" d="M375.574,608.128a3.146,3.146,0,1,0-3.146,3.146A3.146,3.146,0,0,0,375.574,608.128Z" transform="translate(146 37)" fill="#fff"/>
    </g>
  </g>
</svg>
