<svg xmlns="http://www.w3.org/2000/svg" width="725.729" height="305.22" viewBox="0 0 725.729 305.22">
  <g id="飘带" transform="translate(-30.548 -78.047)">
    <path id="路径_2636" data-name="路径 2636" d="M46.717,135.893c-3.247.747-9.317-6.335-10.832-8.123-2.079-2.453-5.1-7-5.337-10.361.864-.415,8.848-3.439,8.668-4.284A27.569,27.569,0,0,0,43.9,123.558c.507.7,7.154,7.689,7.528,7.109a29.238,29.238,0,0,1-3.763,4.695A1.907,1.907,0,0,1,46.717,135.893Z" transform="translate(0 19.631)" fill="#d4eeff"/>
    <path id="路径_2637" data-name="路径 2637" d="M39.767,85.282c-1.775,1.44-3.434,3.361-5.757,3.852a.861.861,0,0,1-.571-.019c-.292-.148-.337-.54-.345-.867a94.89,94.89,0,0,0-.7-10.2,24.142,24.142,0,0,1,7.5,5.094,1.563,1.563,0,0,1,.6,1.1A1.6,1.6,0,0,1,39.767,85.282Z" transform="translate(1.034 0)" fill="#fcd033"/>
    <path id="路径_2638" data-name="路径 2638" d="M124.9,142.014a.625.625,0,0,1-.076.047,1.053,1.053,0,0,1-.763-.036c-3.31-.5-5.3-2.824-7.6-5a.4.4,0,0,1,.02-.719l6.373-5.541c.873,2.251,2.785,3.762,4.688,5.12a.444.444,0,0,1,.193.649,25.364,25.364,0,0,1-2.533,5.126A1.26,1.26,0,0,1,124.9,142.014Z" transform="translate(47.961 29.501)" fill="#fcd033"/>
    <path id="路径_2639" data-name="路径 2639" d="M64.362,267.154c2.255.373,4.793.34,6.7,1.753a.867.867,0,0,1,.365.438c.083.317-.179.61-.42.833a94.433,94.433,0,0,0-7.17,7.293,24.156,24.156,0,0,1-1.165-8.993A1.56,1.56,0,0,1,63.1,267.3,1.591,1.591,0,0,1,64.362,267.154Z" transform="translate(17.954 105.797)" fill="#fcd033"/>
    <path id="路径_2640" data-name="路径 2640" d="M241.505,244.9c1.046,2.032,2.587,4.049,2.594,6.423a.87.87,0,0,1-.134.555c-.206.256-.6.22-.92.161a94.736,94.736,0,0,0-10.13-1.4,24.177,24.177,0,0,1,6.521-6.3,1.564,1.564,0,0,1,1.2-.36C241.056,244.088,241.306,244.513,241.505,244.9Z" transform="translate(113.25 92.843)" fill="#fcd033"/>
    <path id="路径_2641" data-name="路径 2641" d="M41.606,262c-2.148.039-4.949.362-6.836-.8a8.537,8.537,0,0,1-3.3-4.634c-.708-2.109.147-4.32,1.036-6.317a3.627,3.627,0,0,1,1.672-2,4.064,4.064,0,0,1,2.692.142l5.045,1.45c-2.592,3.04-2.449,8.35,1.106,10.557.367.226.078.909-.2,1.234A1.6,1.6,0,0,1,41.606,262Z" transform="translate(0.372 95.145)" fill="#ef487c"/>
    <path id="路径_2642" data-name="路径 2642" d="M85.241,91.263a6.3,6.3,0,0,0-2.188,3.058,6.57,6.57,0,0,0,.111,4.467.72.72,0,0,1,.059.267c-.006.3-.329.466-.6.582a15.1,15.1,0,0,0-4.359,2.8c-1.46-3.314-2.4-8.271-.769-11.663a10.483,10.483,0,0,1,4.723-4.738,12.353,12.353,0,0,1,6.613-1.22,13.38,13.38,0,0,0,.412,3.009c.034.158.438,1.843.172,1.886a12.36,12.36,0,0,0-3.738,1.265C85.523,91.065,85.38,91.16,85.241,91.263Z" transform="translate(25.792 3.76)" fill="#754ff0"/>
    <g id="组_1679" data-name="组 1679" transform="translate(31.254 259.875)">
      <path id="路径_2643" data-name="路径 2643" d="M38.366,206.676a15.278,15.278,0,0,0-.586,2.689,10.7,10.7,0,0,0,1.2,5.543c.526,1.062,2.422,4.175,3.832,4.189a11.909,11.909,0,0,1-8.266-3.55,12.6,12.6,0,0,1-3.534-8.3c-.129-3.582,1.24-6.984,2.8-10.136.221-.446.858-2.307,1.316-2.46.485-.162,1.4.707,1.759.942,1.128.739,2.288,1.446,3.439,2.152.434.267,1.535.685,1.8,1.128.613,1.014-.391,1.546-1.015,2.389A18.5,18.5,0,0,0,38.366,206.676Z" transform="translate(-31.001 -194.631)" fill="#754ff0"/>
      <path id="路径_2644" data-name="路径 2644" d="M43.291,207.323a43.941,43.941,0,0,0-3.539-3.03,6.716,6.716,0,0,1-3.947,4.074c.15.4.31.783.483,1.134.526,1.062,2.422,4.175,3.832,4.189a10.941,10.941,0,0,1-1.153-.072c1.847.755,4.027-1.861,4.974-3.218a2.392,2.392,0,0,0,.455-.962A2.638,2.638,0,0,0,43.291,207.323Z" transform="translate(-28.312 -189.224)" fill="#5c2a8b"/>
    </g>
    <path id="路径_2645" data-name="路径 2645" d="M134.367,101.227a6.43,6.43,0,0,0,4.956-3.324,10.107,10.107,0,0,0,1.293-7.093c-.264-1.383-.817-2.709-.975-4.11a7.487,7.487,0,0,1,3.086-6.82,50.71,50.71,0,0,0,5.58,1.466,13.632,13.632,0,0,0-2.391,4.485,12.4,12.4,0,0,0,.034,4.668c.168,1.182.574,2.2.639,3.428a12.194,12.194,0,0,1-2.333,7.714,9.345,9.345,0,0,1-2.553,2.625,13.534,13.534,0,0,1-4.245,1.557.76.76,0,0,1-.416.022c-.418-.142-.866-1.441-1.1-1.826-.519-.848-1.031-1.7-1.53-2.558" transform="translate(58.1 1.026)" fill="#ef487c"/>
    <g id="组_1680" data-name="组 1680" transform="translate(213.942 215.742)">
      <path id="路径_2646" data-name="路径 2646" d="M158.774,185.872c-3.4-.253-7.653-2.026-9.431-5.15a11.948,11.948,0,0,1-1.171-4.484c.6,2.314,4.147,3.465,6.26,3.62a21.929,21.929,0,0,0,6.928-.984,29.349,29.349,0,0,1,1.078,5.92.782.782,0,0,1-.055.449.713.713,0,0,1-.34.262A6.618,6.618,0,0,1,158.774,185.872Z" transform="translate(-148.117 -160.792)" fill="#ef487c"/>
      <path id="路径_2647" data-name="路径 2647" d="M148.192,181.78c.385,1.494,2,2.5,3.671,3.071.321-.26.629-.538.884-.772,2.873-2.611,6.507-7.533,5.311-11.663a9.814,9.814,0,0,0-1.755-3.389,8.024,8.024,0,0,0-4.256-2.506,3.509,3.509,0,0,0-2.957.289,4.121,4.121,0,0,1,4.053,3.086,7.849,7.849,0,0,1-.686,5.368,14.8,14.8,0,0,1-2.718,4.038,8.692,8.692,0,0,0-1.36,1.614,3.686,3.686,0,0,0,.123,2.856C148.37,183.114,148.275,182.443,148.192,181.78Z" transform="translate(-148.136 -166.334)" fill="#d82766"/>
    </g>
    <path id="路径_2648" data-name="路径 2648" d="M393.392,231.19c2.26.519,6.48-4.406,7.533-5.649,1.447-1.706,3.545-4.869,3.713-7.205-.6-.289-6.154-2.392-6.028-2.979a19.221,19.221,0,0,1-3.255,7.255c-.352.483-4.975,5.346-5.236,4.942a20.371,20.371,0,0,0,2.617,3.266A1.329,1.329,0,0,0,393.392,231.19Z" transform="translate(201.226 76.842)" fill="#5cd4ed"/>
    <path id="路径_2649" data-name="路径 2649" d="M491.219,235a.549.549,0,0,0-.083.036,1.055,1.055,0,0,0-.409.644c-1.5,2.994-.739,5.959-.282,9.093a.531.531,0,0,0,.168.382.54.54,0,0,0,.43.017l8.2-2.024c-1.337-2.01-1.474-4.442-1.489-6.781a.589.589,0,0,0-.072-.34.579.579,0,0,0-.348-.19,25.277,25.277,0,0,0-5.65-.878A1.251,1.251,0,0,0,491.219,235Z" transform="translate(257.034 87.81)" fill="#fcd033"/>
    <path id="路径_2650" data-name="路径 2650" d="M358.753,243.989c-2.254.374-4.793.342-6.7,1.753a.864.864,0,0,0-.365.44c-.083.317.181.61.42.833a95,95,0,0,1,7.171,7.291,24.146,24.146,0,0,0,1.165-8.991,1.571,1.571,0,0,0-.427-1.178A1.6,1.6,0,0,0,358.753,243.989Z" transform="translate(179.709 92.834)" fill="#fcd033"/>
    <path id="路径_2651" data-name="路径 2651" d="M491.249,139.755c2.285.078,4.768.61,6.917-.4a.871.871,0,0,0,.445-.359c.142-.295-.056-.633-.248-.9a94.541,94.541,0,0,1-5.593-8.561,24.152,24.152,0,0,0-2.913,8.586,1.564,1.564,0,0,0,.186,1.237A1.6,1.6,0,0,0,491.249,139.755Z" transform="translate(257.019 28.816)" fill="#ef487c"/>
    <g id="组_1681" data-name="组 1681" transform="translate(564.069 107.208)">
      <path id="路径_2652" data-name="路径 2652" d="M380.041,108.576a15.187,15.187,0,0,1-.218-2.742,10.7,10.7,0,0,1,1.932-5.332c.664-.981,2.962-3.812,4.362-3.635a11.912,11.912,0,0,0-8.668,2.4,12.6,12.6,0,0,0-4.621,7.748c-.61,3.533.289,7.089,1.415,10.421.159.471.54,2.4.973,2.615.459.225,1.483-.513,1.87-.7,1.218-.582,2.463-1.124,3.7-1.67.466-.2,1.614-.471,1.939-.873.742-.923-.181-1.586-.685-2.506A18.49,18.49,0,0,1,380.041,108.576Z" transform="translate(-372.631 -96.725)" fill="#754ff0"/>
      <path id="路径_2653" data-name="路径 2653" d="M385.355,103.622a44.313,44.313,0,0,1-3.916,2.525,6.718,6.718,0,0,0-3.363-4.568c.2-.371.412-.733.632-1.057.664-.981,2.962-3.812,4.362-3.635a10.982,10.982,0,0,0-1.153-.084c1.932-.5,3.74,2.386,4.495,3.859a2.379,2.379,0,0,1,.321,1.015C386.751,102.5,386.025,103.135,385.355,103.622Z" transform="translate(-369.583 -96.744)" fill="#5c2a8b"/>
    </g>
    <g id="组_1682" data-name="组 1682" transform="translate(566.604 228.839)">
      <path id="路径_2654" data-name="路径 2654" d="M387.082,182.154a15.228,15.228,0,0,1-1.929,1.964,10.711,10.711,0,0,1-5.293,2.035c-1.176.142-4.819.26-5.6-.911a11.915,11.915,0,0,0,7.5,4.969,12.594,12.594,0,0,0,8.88-1.588c3.068-1.856,5.164-4.864,6.943-7.9.253-.429,1.461-1.982,1.337-2.45-.129-.493-1.358-.783-1.751-.955-1.237-.54-2.463-1.123-3.684-1.7-.46-.217-1.415-.909-1.931-.889-1.184.044-1.079,1.174-1.443,2.159A18.544,18.544,0,0,1,387.082,182.154Z" transform="translate(-374.256 -174.732)" fill="#ef487c"/>
    </g>
    <g id="组_1683" data-name="组 1683" transform="translate(727.731 230.733)">
      <path id="路径_2655" data-name="路径 2655" d="M484.517,176.81c-3.069,1.482-6.377,4.691-6.886,8.249a11.956,11.956,0,0,0,.555,4.6c-.295-2.372,2.587-4.746,4.5-5.665a21.943,21.943,0,0,1,6.808-1.625,29.507,29.507,0,0,0-1.17-5.9.774.774,0,0,0-.217-.4.71.71,0,0,0-.41-.119A6.6,6.6,0,0,0,484.517,176.81Z" transform="translate(-477.567 -175.946)" fill="#5cd4ed"/>
      <path id="路径_2656" data-name="路径 2656" d="M478.122,186.249c-.19-1.533.947-3.063,2.29-4.2.395.125.781.27,1.106.393,3.631,1.376,8.817,4.623,9.219,8.9a9.832,9.832,0,0,1-.39,3.8,8.025,8.025,0,0,1-3.041,3.893,3.51,3.51,0,0,1-2.857.816,4.122,4.122,0,0,0,2.64-4.358,7.858,7.858,0,0,0-2.609-4.743,14.815,14.815,0,0,0-4.01-2.761,8.654,8.654,0,0,1-1.856-1,3.689,3.689,0,0,1-.933-2.7C477.8,184.942,477.955,185.6,478.122,186.249Z" transform="translate(-477.504 -172.533)" fill="#24b4e6"/>
    </g>
  </g>
</svg>
