<svg xmlns="http://www.w3.org/2000/svg" width="48.168" height="56.392" viewBox="0 0 48.168 56.392">
  <g id="组_4299" data-name="组 4299" transform="translate(-37.336)">
    <path id="路径_12682" data-name="路径 12682" d="M259.027,0a13.233,13.233,0,0,0-8.568,4.638c-1.868,2.273-3.4,5.65-2.806,8.931A11.169,11.169,0,0,0,256.3,9.153,12.408,12.408,0,0,0,259.027,0Z" transform="translate(-187.036)" fill="#fff"/>
    <path id="路径_12683" data-name="路径 12683" d="M83.872,125.56c-2.887-3.62-6.943-5.72-10.774-5.72-5.058,0-7.2,2.421-10.711,2.421-3.623,0-6.376-2.414-10.75-2.414-4.3,0-8.871,2.626-11.772,7.116-4.078,6.323-3.38,18.211,3.228,28.337,2.365,3.623,5.523,7.7,9.654,7.733,3.676.035,4.712-2.358,9.692-2.383s5.925,2.414,9.594,2.376c4.134-.032,7.465-4.547,9.83-8.17a40.632,40.632,0,0,0,3.641-6.838C75.942,144.378,74.409,130.78,83.872,125.56Z" transform="translate(0 -106.641)" fill="#fff"/>
  </g>
</svg>
