<svg xmlns="http://www.w3.org/2000/svg" xmlns:xlink="http://www.w3.org/1999/xlink" width="1855.513" height="652.933" viewBox="0 0 1855.513 652.933">
  <defs>
    <filter id="路径_2438" x="0" y="0" width="1005.557" height="652.933" filterUnits="userSpaceOnUse">
      <feOffset dx="-6" dy="11" input="SourceAlpha"/>
      <feGaussianBlur stdDeviation="12" result="blur"/>
      <feFlood flood-color="#3d5991" flood-opacity="0.212"/>
      <feComposite operator="in" in2="blur"/>
      <feComposite in="SourceGraphic"/>
    </filter>
    <filter id="椭圆_191" x="82.537" y="51.193" width="840.483" height="550.548" filterUnits="userSpaceOnUse">
      <feOffset dx="-6" dy="11" input="SourceAlpha"/>
      <feGaussianBlur stdDeviation="12" result="blur-2"/>
      <feFlood flood-color="#3d5991" flood-opacity="0.059"/>
      <feComposite operator="in" in2="blur-2"/>
      <feComposite in="SourceGraphic"/>
    </filter>
    <filter id="椭圆_190" x="129.743" y="75.414" width="747.289" height="492.181" filterUnits="userSpaceOnUse">
      <feOffset dx="-6" dy="11" input="SourceAlpha"/>
      <feGaussianBlur stdDeviation="12" result="blur-3"/>
      <feFlood flood-color="#3d5991" flood-opacity="0.278"/>
      <feComposite operator="in" in2="blur-3"/>
      <feComposite in="SourceGraphic"/>
    </filter>
    <linearGradient id="linear-gradient" x1="0.5" y1="-8.607" x2="0.5" y2="-7.531" gradientUnits="objectBoundingBox">
      <stop offset="0" stop-color="#00003b"/>
      <stop offset="0.119" stop-color="#00066e"/>
      <stop offset="0.232" stop-color="#000b98"/>
      <stop offset="0.334" stop-color="#000eb7"/>
      <stop offset="0.421" stop-color="#0011c9"/>
      <stop offset="0.483" stop-color="#0012d0"/>
      <stop offset="0.591" stop-color="#000ca1"/>
      <stop offset="0.711" stop-color="#000775"/>
      <stop offset="0.819" stop-color="#000355"/>
      <stop offset="0.909" stop-color="#000042"/>
      <stop offset="0.97" stop-color="#00003b"/>
    </linearGradient>
    <linearGradient id="linear-gradient-2" x1="0.269" y1="-0.676" x2="0.514" y2="0.645" xlink:href="#linear-gradient"/>
    <linearGradient id="linear-gradient-3" x1="0.5" y1="-39.278" x2="0.5" y2="-37.29" xlink:href="#linear-gradient"/>
    <linearGradient id="linear-gradient-4" x1="0.5" y1="-59.387" x2="0.5" y2="-56.336" xlink:href="#linear-gradient"/>
    <linearGradient id="linear-gradient-5" x1="0.5" y1="-37.726" x2="0.5" y2="-35.738" xlink:href="#linear-gradient"/>
    <linearGradient id="linear-gradient-6" x1="0.5" y1="-57.004" x2="0.5" y2="-53.952" xlink:href="#linear-gradient"/>
    <linearGradient id="linear-gradient-7" x1="0.5" y1="-36.176" x2="0.5" y2="-34.188" xlink:href="#linear-gradient"/>
    <linearGradient id="linear-gradient-8" x1="0.5" y1="-53.543" x2="0.5" y2="-50.491" xlink:href="#linear-gradient"/>
    <linearGradient id="linear-gradient-9" x1="159.813" y1="-26.551" x2="159.813" y2="-24.563" xlink:href="#linear-gradient"/>
    <linearGradient id="linear-gradient-10" x1="162.917" y1="-27.329" x2="162.917" y2="-25.341" xlink:href="#linear-gradient"/>
    <linearGradient id="linear-gradient-11" x1="124.976" y1="-43.421" x2="124.976" y2="-40.369" xlink:href="#linear-gradient"/>
    <linearGradient id="linear-gradient-12" x1="169.076" y1="-28.881" x2="169.076" y2="-26.893" xlink:href="#linear-gradient"/>
    <linearGradient id="linear-gradient-13" x1="172.181" y1="-29.657" x2="172.181" y2="-27.67" xlink:href="#linear-gradient"/>
    <linearGradient id="linear-gradient-14" x1="178.146" y1="-31.134" x2="178.146" y2="-29.146" xlink:href="#linear-gradient"/>
    <linearGradient id="linear-gradient-15" x1="0.5" x2="0.5" y2="1" gradientUnits="objectBoundingBox">
      <stop offset="0" stop-color="#bbd4ff"/>
      <stop offset="1" stop-color="#ffd6f8"/>
    </linearGradient>
    <linearGradient id="linear-gradient-17" x1="-0.065" y1="1.474" x2="3.241" y2="-4.229" xlink:href="#linear-gradient"/>
    <linearGradient id="linear-gradient-18" x1="-5.216" y1="10.342" x2="11.731" y2="-18.836" xlink:href="#linear-gradient"/>
    <linearGradient id="linear-gradient-21" x1="0.5" x2="0.5" y2="1" gradientUnits="objectBoundingBox">
      <stop offset="0" stop-color="#ffb16d"/>
      <stop offset="0.246" stop-color="#ff437c"/>
      <stop offset="0.65" stop-color="#b035f1"/>
      <stop offset="1" stop-color="#a733ff"/>
    </linearGradient>
    <filter id="路径_2180" x="614.781" y="231.461" width="85.619" height="78.877" filterUnits="userSpaceOnUse">
      <feOffset dy="3" input="SourceAlpha"/>
      <feGaussianBlur stdDeviation="3" result="blur-4"/>
      <feFlood flood-opacity="0.161"/>
      <feComposite operator="in" in2="blur-4"/>
      <feComposite in="SourceGraphic"/>
    </filter>
    <filter id="路径_2181" x="324.244" y="292.337" width="80.415" height="80.463" filterUnits="userSpaceOnUse">
      <feOffset dy="3" input="SourceAlpha"/>
      <feGaussianBlur stdDeviation="3" result="blur-5"/>
      <feFlood flood-opacity="0.161"/>
      <feComposite operator="in" in2="blur-5"/>
      <feComposite in="SourceGraphic"/>
    </filter>
    <filter id="路径_2371" x="357.176" y="163.785" width="362.785" height="297.298" filterUnits="userSpaceOnUse">
      <feOffset dy="3" input="SourceAlpha"/>
      <feGaussianBlur stdDeviation="3" result="blur-6"/>
      <feFlood flood-color="#42008e" flood-opacity="0.161"/>
      <feComposite operator="in" in2="blur-6"/>
      <feComposite in="SourceGraphic"/>
    </filter>
  </defs>
  <g id="组件_21_1" data-name="组件 21 – 1" transform="translate(42 2.992)">
    <g id="组_5535" data-name="组 5535" transform="translate(541.686 279.694)">
      <g id="组_5532" data-name="组 5532" transform="translate(1214.113 -277.939)">
        <circle id="椭圆_387" data-name="椭圆 387" cx="20.405" cy="20.405" r="20.405" transform="translate(0 53.389) rotate(-45)" fill="#dd81b2"/>
        <g id="组_5531" data-name="组 5531" transform="translate(16.291)">
          <path id="路径_18818" data-name="路径 18818" d="M1221.712-226.26a22.914,22.914,0,0,1,6.041-2.121,7.726,7.726,0,0,1,6.079,1.386,7.654,7.654,0,0,1,2.307,6.759,20.257,20.257,0,0,1-2.544,6.949c-.3.577-.738,1.231-1.39,1.222-.789-.011-1.171-.953-1.351-1.722q-.96-4.089-1.919-8.18a48.1,48.1,0,0,1-4.093,4.959,2.209,2.209,0,0,1-1.268.818,1.873,1.873,0,0,1-1.584-.962,6.641,6.641,0,0,1-.678-5.632,14.243,14.243,0,0,1,2.972-5.012" transform="translate(-1220.987 294.302)" fill="#cb4f4a" stroke="#cb4f4a" stroke-miterlimit="10" stroke-width="1"/>
          <path id="路径_18819" data-name="路径 18819" d="M1228.827-252.626a16.331,16.331,0,0,1,16.149,7.7" transform="translate(-1218.481 286.535)" fill="none" stroke="#a050d9" stroke-miterlimit="10" stroke-width="1"/>
          <path id="路径_18820" data-name="路径 18820" d="M1235.978-243.332c2.474-6.495,11.519-28.536,13.993-35.032" transform="translate(-1216.196 278.364)" fill="none" stroke="#a050d9" stroke-miterlimit="10" stroke-width="1"/>
        </g>
      </g>
      <g id="组_5534" data-name="组 5534" transform="translate(1191.519 -279.694)">
        <path id="路径_18821" data-name="路径 18821" d="M1219.145-244.2c-5,6.871-14.106,8.763-20.337,4.227s-7.227-13.782-2.226-20.653,14.107-8.762,20.339-4.227S1224.146-251.068,1219.145-244.2Z" transform="translate(-1190.919 283.649)" fill="#dd81b2"/>
        <g id="组_5533" data-name="组 5533">
          <path id="路径_18822" data-name="路径 18822" d="M1195.413-252.864a14.725,14.725,0,0,1,4.282,1.139,4.91,4.91,0,0,1,2.746,3.292,6.131,6.131,0,0,1-1.725,5.047,16.28,16.28,0,0,1-4.49,3.213c-.424.23-.954.453-1.31.186-.432-.325-.226-1.053.016-1.594q1.287-2.88,2.571-5.76a35.67,35.67,0,0,1-4.464,1.376,1.5,1.5,0,0,1-1.063-.012,1.268,1.268,0,0,1-.45-1.223,5.454,5.454,0,0,1,2.126-3.707,11.055,11.055,0,0,1,3.866-1.861" transform="translate(-1191.519 288.268)" fill="#cb4f4a" stroke="#cb4f4a" stroke-miterlimit="10" stroke-width="0.718"/>
          <path id="路径_18823" data-name="路径 18823" d="M1209.981-265.7a10.848,10.848,0,0,1,5.513,11.193" transform="translate(-1185.619 284.167)" fill="none" stroke="#a050d9" stroke-miterlimit="10" stroke-width="0.718"/>
          <path id="路径_18824" data-name="路径 18824" d="M1213.557-256.743c4.252-2.964,38.743-19.988,42.995-22.951" transform="translate(-1184.476 279.694)" fill="none" stroke="#a050d9" stroke-miterlimit="10" stroke-width="0.718"/>
        </g>
      </g>
      <g id="组_5546" data-name="组 5546" transform="translate(-540.619 451.853)">
        <g id="组_5537" data-name="组 5537" transform="translate(586.709 -230.604)">
          <path id="路径_18825" data-name="路径 18825" d="M625.78-220.168a6.953,6.953,0,0,1,8.9,4.182,6.952,6.952,0,0,1-4.181,8.9,6.953,6.953,0,0,1-8.9-4.182A6.952,6.952,0,0,1,625.78-220.168Z" transform="translate(-608.574 220.583)" fill="#f56447"/>
          <g id="组_5536" data-name="组 5536" transform="translate(0 3.622)">
            <path id="路径_18826" data-name="路径 18826" d="M639.112-209.948a7.815,7.815,0,0,1-1.378-1.691,2.632,2.632,0,0,1-.258-2.109,2.606,2.606,0,0,1,1.9-1.52,6.882,6.882,0,0,1,2.521.013c.22.03.48.094.552.3.088.254-.17.485-.4.632l-2.4,1.56a16.424,16.424,0,0,1,2.063.739.747.747,0,0,1,.408.312.637.637,0,0,1-.125.618,2.261,2.261,0,0,1-1.727.869,4.861,4.861,0,0,1-1.95-.373" transform="translate(-613.481 215.382)" fill="#a62329" stroke="#a62329" stroke-miterlimit="10" stroke-width="0.646"/>
            <path id="路径_18827" data-name="路径 18827" d="M622.3-208.986a5.564,5.564,0,0,1,.6-6.066" transform="translate(-608.72 215.282)" fill="none" stroke="#a62329" stroke-miterlimit="10" stroke-width="0.646"/>
            <path id="路径_18828" data-name="路径 18828" d="M615.926-211.062c-2.368-.042-10.479-.393-12.847-.435" transform="translate(-603.079 214.203)" fill="none" stroke="#a62329" stroke-miterlimit="10" stroke-width="0.646"/>
          </g>
        </g>
        <g id="组_5539" data-name="组 5539" transform="translate(584.321 -222.329)">
          <path id="路径_18829" data-name="路径 18829" d="M624.18-201a6.953,6.953,0,0,1,4.747,8.611,6.953,6.953,0,0,1-8.611,4.747,6.953,6.953,0,0,1-4.747-8.611A6.953,6.953,0,0,1,624.18-201Z" transform="translate(-604.398 206.447)" fill="#f58447"/>
          <g id="组_5538" data-name="组 5538" transform="translate(0)">
            <path id="路径_18830" data-name="路径 18830" d="M630.441-185.644a7.8,7.8,0,0,1-.122-2.179,2.63,2.63,0,0,1,1.029-1.858,2.607,2.607,0,0,1,2.43-.115,6.918,6.918,0,0,1,2.034,1.491c.16.154.333.359.268.57-.078.258-.423.293-.692.28l-2.859-.147a16.288,16.288,0,0,1,1.236,1.81.747.747,0,0,1,.148.492.639.639,0,0,1-.465.428,2.262,2.262,0,0,1-1.908-.312,4.871,4.871,0,0,1-1.36-1.447" transform="translate(-608.917 203.038)" fill="#a62329" stroke="#a62329" stroke-miterlimit="10" stroke-width="0.646"/>
            <path id="路径_18831" data-name="路径 18831" d="M615.822-194.876a5.564,5.564,0,0,1,4.049-4.557" transform="translate(-604.559 205.889)" fill="none" stroke="#a62329" stroke-miterlimit="10" stroke-width="0.646"/>
            <path id="路径_18832" data-name="路径 18832" d="M612.175-200.671c-1.892-1.426-10.632-6.606-12.524-8.031" transform="translate(-599.651 208.702)" fill="none" stroke="#a62329" stroke-miterlimit="10" stroke-width="0.646"/>
          </g>
        </g>
        <g id="组_5541" data-name="组 5541" transform="translate(585.872 -247.307)">
          <path id="路径_18833" data-name="路径 18833" d="M618.653-230.648a6.952,6.952,0,0,0,1.913-9.645,6.952,6.952,0,0,0-9.645-1.913,6.952,6.952,0,0,0-1.913,9.645A6.952,6.952,0,0,0,618.653-230.648Z" transform="translate(-603.685 244.204)" fill="#f56447"/>
          <g id="组_5540" data-name="组 5540">
            <path id="路径_18834" data-name="路径 18834" d="M620.553-242.915a7.788,7.788,0,0,0,.544,2.113,2.631,2.631,0,0,0,1.545,1.459,2.6,2.6,0,0,0,2.351-.628,6.894,6.894,0,0,0,1.486-2.037c.106-.2.209-.442.083-.625-.153-.221-.492-.151-.743-.056l-2.681,1.006a16.329,16.329,0,0,0,.629-2.1.752.752,0,0,0-.008-.514.638.638,0,0,0-.573-.267,2.265,2.265,0,0,0-1.724.876,4.871,4.871,0,0,0-.856,1.791" transform="translate(-607.546 244.562)" fill="#a62329" stroke="#a62329" stroke-miterlimit="10" stroke-width="0.646"/>
            <path id="路径_18835" data-name="路径 18835" d="M609.292-229a5.565,5.565,0,0,0,5.24,3.115" transform="translate(-604.128 239.839)" fill="none" stroke="#a62329" stroke-miterlimit="10" stroke-width="0.646"/>
            <path id="路径_18836" data-name="路径 18836" d="M609.148-225.469c-1.371,1.932-5.9,8.669-7.27,10.6" transform="translate(-601.878 238.768)" fill="none" stroke="#a62329" stroke-miterlimit="10" stroke-width="0.646"/>
          </g>
        </g>
        <g id="组_5543" data-name="组 5543" transform="translate(576.758 -253.604)">
          <circle id="椭圆_388" data-name="椭圆 388" cx="6.953" cy="6.953" r="6.953" transform="translate(0 2.447)" fill="#f58447"/>
          <g id="组_5542" data-name="组 5542" transform="translate(3.946)">
            <path id="路径_18837" data-name="路径 18837" d="M595.821-250.285a7.79,7.79,0,0,0,1.681,1.39,2.63,2.63,0,0,0,2.107.274,2.606,2.606,0,0,0,1.534-1.888,6.878,6.878,0,0,0,.006-2.521c-.029-.22-.091-.481-.3-.555-.254-.089-.487.166-.635.391l-1.578,2.389a16.406,16.406,0,0,0-.724-2.069.754.754,0,0,0-.309-.411.637.637,0,0,0-.619.12,2.263,2.263,0,0,0-.881,1.721,4.853,4.853,0,0,0,.359,1.952" transform="translate(-594.872 253.604)" fill="#a62329" stroke="#a62329" stroke-miterlimit="10" stroke-width="0.646"/>
            <path id="路径_18838" data-name="路径 18838" d="M594.458-231.786a5.565,5.565,0,0,0,6.07-.557" transform="translate(-594.458 247.152)" fill="none" stroke="#a62329" stroke-miterlimit="10" stroke-width="0.646"/>
            <path id="路径_18839" data-name="路径 18839" d="M598.976-230.462c.025,2.368-.149,20.295.415,16.71" transform="translate(-595.827 246.581)" fill="none" stroke="#a62329" stroke-miterlimit="10" stroke-width="0.646"/>
          </g>
        </g>
        <g id="组_5545" data-name="组 5545" transform="translate(549.139 -225.787)">
          <g id="组_5544" data-name="组 5544">
            <path id="路径_18840" data-name="路径 18840" d="M589.564-213.666c-2.864,1.547-28.888,22.825-40.425,5.729" transform="translate(-549.139 213.666)" fill="none" stroke="#a62329" stroke-miterlimit="10" stroke-width="0.887"/>
          </g>
        </g>
      </g>
    </g>
    <g id="组_5547" data-name="组 5547" transform="translate(-302.179 -17.273)">
      <path id="路径_13882" data-name="路径 13882" d="M614.967,489.565c-.893,1.153-1.354,2.562-2.238,3.724a23.13,23.13,0,0,1-2.935,3.027.947.947,0,0,0-.215.247c-.168.323.286,1.012.617,1.068.271.045.541-.272.728-.421a47.3,47.3,0,0,0,4.473-3.638,5.47,5.47,0,0,0,1.223-1.484.679.679,0,0,0-.006-.626,10.015,10.015,0,0,0-1.426-1.916.161.161,0,0,0-.089-.063.084.084,0,0,0-.043.006A.223.223,0,0,0,614.967,489.565Z" transform="translate(1.432 0)" fill="#47260f"/>
      <path id="路径_13883" data-name="路径 13883" d="M609.825,497.3c.027-.022.053-.044.081-.065a27.466,27.466,0,0,0,3.8-3.264,40.186,40.186,0,0,0,2.4-3.362,5.415,5.415,0,0,1,.478.756.68.68,0,0,1,.006.626,5.49,5.49,0,0,1-1.223,1.485,47.5,47.5,0,0,1-4.472,3.638c-.188.148-.457.466-.728.42A.68.68,0,0,1,609.825,497.3Z" transform="translate(1.456 0.094)" fill="#331a09"/>
      <path id="路径_13884" data-name="路径 13884" d="M601.838,493.638a2.237,2.237,0,0,0-2.141.027,10.269,10.269,0,0,0-2.961,2.884,20.928,20.928,0,0,0-3.141,5.26c-.96,2.328-2.21,5.778.1,7.749a9.155,9.155,0,0,0,5.5,1.682,21.769,21.769,0,0,0,9.412-1.355,3.182,3.182,0,0,0,1.123-.7c1.023-1.1-.343-3.2-.868-4.232-1.968-3.861-3.4-8.185-6.761-11.118A2.209,2.209,0,0,0,601.838,493.638Z" transform="translate(0 0.325)" fill="#993e22"/>
      <path id="路径_13885" data-name="路径 13885" d="M595.466,507.3a1.775,1.775,0,0,1,.708-.911c.287-.174.541.007.585.318a1.783,1.783,0,0,1-.308,1.161c-.175.281-.46.612-.826.424C595.318,508.135,595.381,507.577,595.466,507.3Z" transform="translate(0.252 1.406)" fill="#872f1a"/>
      <path id="路径_13886" data-name="路径 13886" d="M595.022,505.628a1.21,1.21,0,0,1,.716-.322c.227-.013.323.176.25.377a1.216,1.216,0,0,1-.555.6c-.2.114-.471.221-.631-.008C594.669,506.081,594.885,505.765,595.022,505.628Z" transform="translate(0.199 1.321)" fill="#872f1a"/>
      <path id="路径_13887" data-name="路径 13887" d="M596.764,505.827a.622.622,0,0,1,.216-.338c.094-.069.187-.014.212.091a.618.618,0,0,1-.07.412c-.051.1-.139.226-.271.172C596.739,506.119,596.744,505.924,596.764,505.827Z" transform="translate(0.365 1.334)" fill="#872f1a"/>
      <path id="路径_13888" data-name="路径 13888" d="M593,503.379a5.086,5.086,0,0,0,.638,4c1.372,2.053,4.592,2.04,6.3.736,1.827-1.395,2.016-3.085.666-5.75-1.215-2.4-2.539-4.71-2.418-7.5a.09.09,0,0,1,.007-.029,5.757,5.757,0,0,1,1.507-1.17,2.763,2.763,0,0,1,.837-.263,5.68,5.68,0,0,1,1.708,1.548,13.3,13.3,0,0,0,3.076,2.871c1.352,2.272,2.352,4.788,3.548,7.133.524,1.027,1.891,3.137.869,4.232a3.176,3.176,0,0,1-1.124.7,21.766,21.766,0,0,1-9.411,1.356,9.158,9.158,0,0,1-5.5-1.682C591.865,507.995,592.272,505.5,593,503.379Z" transform="translate(0 0.327)" fill="#872f1a"/>
      <path id="路径_13889" data-name="路径 13889" d="M598.147,494.7a10.01,10.01,0,0,0,1.638,3.809c.786,1.421,1.625,2.816,2.548,4.153a37.615,37.615,0,0,0,6.23,7.023.96.96,0,0,0,.431.257.726.726,0,0,0,.493-.146c4.3-2.6,5.2-8.842,2.805-13.031a9.207,9.207,0,0,0-6.493-4.14c-2.25-.453-5.305-.817-7.16.873A1.419,1.419,0,0,0,598.147,494.7Z" transform="translate(0.481 0.231)" fill="#47260f"/>
      <path id="路径_13890" data-name="路径 13890" d="M602.333,502.571c-.923-1.336-1.762-2.731-2.548-4.153a10.012,10.012,0,0,1-1.638-3.81,1.418,1.418,0,0,1,.492-1.2c.047-.042.1-.078.146-.118a11.324,11.324,0,0,0,5.292,8.786c2.337,1.569,5.294,1.513,6.956-.977a6.11,6.11,0,0,0,.6-5.376,7.259,7.259,0,0,1,.655.952c2.394,4.189,1.492,10.43-2.805,13.031a.726.726,0,0,1-.493.146.962.962,0,0,1-.431-.257A37.6,37.6,0,0,1,602.333,502.571Z" transform="translate(0.481 0.318)" fill="#331a09"/>
      <path id="路径_13891" data-name="路径 13891" d="M604.393,499.216a2.434,2.434,0,0,1,.972-1.249c.393-.237.741.01.8.435a2.455,2.455,0,0,1-.423,1.592c-.239.386-.631.839-1.13.58C604.192,500.355,604.278,499.59,604.393,499.216Z" transform="translate(0.995 0.701)" fill="#331a09"/>
      <path id="路径_13892" data-name="路径 13892" d="M603.787,496.919a1.659,1.659,0,0,1,.981-.441c.312-.017.443.241.343.517a1.669,1.669,0,0,1-.76.823c-.266.155-.646.3-.863-.012C603.3,497.54,603.6,497.107,603.787,496.919Z" transform="translate(0.922 0.584)" fill="#331a09"/>
      <path id="路径_13893" data-name="路径 13893" d="M602.029,500.026a1.658,1.658,0,0,1,.776-.745c.288-.121.5.079.5.372a1.66,1.66,0,0,1-.44,1.029c-.2.236-.506.5-.817.28C601.782,500.773,601.916,500.265,602.029,500.026Z" transform="translate(0.794 0.815)" fill="#331a09"/>
      <path id="路径_13894" data-name="路径 13894" d="M604.746,502.193a1.655,1.655,0,0,1,.518-.943c.238-.2.5-.073.585.206a1.67,1.67,0,0,1-.113,1.115c-.12.284-.333.631-.7.51C604.732,502.98,604.709,502.456,604.746,502.193Z" transform="translate(1.031 0.974)" fill="#331a09"/>
      <path id="路径_13895" data-name="路径 13895" d="M599.36,493.7a1.654,1.654,0,0,1,1.059.189.35.35,0,0,1-.009.621,1.664,1.664,0,0,1-1.091.249c-.309-.023-.7-.115-.707-.5C598.61,493.941,599.1,493.752,599.36,493.7Z" transform="translate(0.52 0.351)" fill="#331a09"/>
      <path id="路径_13896" data-name="路径 13896" d="M606.173,497.192a.848.848,0,0,1,.3-.461c.129-.1.257-.021.292.124a.857.857,0,0,1-.1.563c-.07.141-.192.31-.373.236C606.14,497.592,606.145,497.325,606.173,497.192Z" transform="translate(1.15 0.602)" fill="#331a09"/>
      <path id="路径_13897" data-name="路径 13897" d="M608.085,502a2.428,2.428,0,0,1,.594-1.466.513.513,0,0,1,.89.2,2.466,2.466,0,0,1,.029,1.648c-.126.437-.378.979-.929.867C608.2,503.147,608.076,502.387,608.085,502Z" transform="translate(1.311 0.907)" fill="#331a09"/>
      <path id="路径_13898" data-name="路径 13898" d="M606.886,499.952a1.661,1.661,0,0,1,.824-.692c.295-.1.49.112.472.4a1.675,1.675,0,0,1-.506,1c-.215.222-.539.468-.834.225C606.592,500.682,606.758,500.185,606.886,499.952Z" transform="translate(1.196 0.814)" fill="#331a09"/>
      <path id="路径_13899" data-name="路径 13899" d="M609.267,499.541a.838.838,0,0,1,.159-.525.177.177,0,0,1,.313.04.846.846,0,0,1,.063.569c-.029.155-.1.35-.293.328C609.344,499.936,609.277,499.677,609.267,499.541Z" transform="translate(1.409 0.789)" fill="#331a09"/>
      <path id="路径_13900" data-name="路径 13900" d="M605.617,495.293a.844.844,0,0,1,.518-.181c.16,0,.215.142.152.278a.848.848,0,0,1-.423.384c-.142.067-.341.126-.439-.044C605.344,495.587,605.514,495.381,605.617,495.293Z" transform="translate(1.087 0.47)" fill="#331a09"/>
      <path id="路径_13901" data-name="路径 13901" d="M605.139,493.079a.85.85,0,0,1,.547.053.179.179,0,0,1,.021.316.856.856,0,0,1-.545.171c-.158,0-.363-.029-.379-.224C604.768,493.232,605.008,493.114,605.139,493.079Z" transform="translate(1.035 0.298)" fill="#331a09"/>
      <path id="路径_13902" data-name="路径 13902" d="M608.485,497.294a.855.855,0,0,1,.369-.406c.143-.072.256.023.266.171a.851.851,0,0,1-.187.539c-.093.127-.239.274-.406.171C608.386,497.683,608.436,497.421,608.485,497.294Z" transform="translate(1.34 0.616)" fill="#331a09"/>
      <path id="路径_13903" data-name="路径 13903" d="M601.118,494.8a2.44,2.44,0,0,1,1.579.093.513.513,0,0,1,.1.907,2.451,2.451,0,0,1-1.551.555c-.454.021-1.048-.044-1.119-.6C600.065,495.28,600.744,494.917,601.118,494.8Z" transform="translate(0.646 0.437)" fill="#331a09"/>
      <path id="路径_13904" data-name="路径 13904" d="M602.592,493.017a1.656,1.656,0,0,1,.919.558c.192.247.052.5-.231.575a1.663,1.663,0,0,1-1.108-.16c-.28-.131-.616-.36-.48-.717C601.807,492.969,602.33,492.968,602.592,493.017Z" transform="translate(0.775 0.293)" fill="#331a09"/>
      <path id="路径_13905" data-name="路径 13905" d="M603.691,495.158a.852.852,0,0,1,.549-.017.178.178,0,0,1,.062.31.849.849,0,0,1-.519.241c-.156.021-.363.018-.405-.172C603.344,495.358,603.567,495.211,603.691,495.158Z" transform="translate(0.918 0.469)" fill="#331a09"/>
      <path id="路径_13906" data-name="路径 13906" d="M600.21,493.02c2.738-.084,6.861-.181,9.14,1.6a.529.529,0,0,1-.513.911,28.218,28.218,0,0,0-8.62-2.131C600.009,493.382,599.989,493.026,600.21,493.02Z" transform="translate(0.64 0.292)" fill="#993e22" opacity="0.5"/>
      <path id="路径_13907" data-name="路径 13907" d="M596.707,497.505a.445.445,0,0,1,.667.572c-1.331,2.019-2.735,3.829-3.412,6.206-.048.17-.333.122-.31-.057C593.977,501.786,594.777,499.172,596.707,497.505Z" transform="translate(0.106 0.661)" fill="#f47c40" opacity="0.3"/>
    </g>
    <g id="元素" transform="translate(637.205 -2448.999)">
      <g id="组_4549" data-name="组 4549" transform="translate(-370.787 2442.805)">
        <path id="路径_13817" data-name="路径 13817" d="M-89.161,250.65a63.88,63.88,0,0,0-1.7,9.278,28.292,28.292,0,0,0-2.557-1.851,38.875,38.875,0,0,0-12.376-5c-1.266-.29-2.554-.524-3.853-.731a1.318,1.318,0,0,0-1.31,1.385c1.614,6.912,3.539,14.221,8.034,19.219a38.975,38.975,0,0,0-7.122,1.244c-.93.251-1.845.535-2.758.838a.662.662,0,0,0-.177,1.12c4.308,3.067,9.005,6.244,14.26,7.337a25.388,25.388,0,0,0,12-.7c1.55-.439,2.99-1.172,4.5-1.718a.068.068,0,0,0,.044-.028l0-.019.028-.019a16.455,16.455,0,0,0,1.983-4.846,21.042,21.042,0,0,0,.714-4.956,25.259,25.259,0,0,0-1.79-9.695,36.873,36.873,0,0,0-5.014-8.873c-.579-.769-1.186-1.514-1.807-2.248A.661.661,0,0,0-89.161,250.65Z" transform="translate(0)" fill="#ffc217"/>
        <path id="路径_13818" data-name="路径 13818" d="M-89.487,250.4a.661.661,0,0,0-1.1.254,63.883,63.883,0,0,0-1.7,9.278,28.291,28.291,0,0,0-2.557-1.851,38.875,38.875,0,0,0-12.376-5c-1.266-.29-2.554-.524-3.853-.731a1.318,1.318,0,0,0-1.31,1.385c.1.416.193.833.3,1.249a31.93,31.93,0,0,1,7.45,7.8,33.863,33.863,0,0,1,5.472,12.155,8.139,8.139,0,0,1-.019,3.831,4.268,4.268,0,0,1-3.017,2.921,11.826,11.826,0,0,1-2.606.281,23.657,23.657,0,0,0,4.664,1.522,25.388,25.388,0,0,0,12-.7c1.55-.439,2.99-1.172,4.5-1.718a.068.068,0,0,0,.044-.028l0-.019.028-.019a16.455,16.455,0,0,0,1.983-4.846,21.042,21.042,0,0,0,.714-4.956,25.258,25.258,0,0,0-1.79-9.695,36.873,36.873,0,0,0-5.014-8.873C-88.26,251.875-88.866,251.13-89.487,250.4Z" transform="translate(1.429)" fill="#f7ad2b"/>
        <path id="路径_13819" data-name="路径 13819" d="M-87.711,252.644c-.579-.769-1.186-1.514-1.807-2.248a.661.661,0,0,0-1.1.254,63.883,63.883,0,0,0-1.7,9.278,28.291,28.291,0,0,0-2.557-1.851,38.875,38.875,0,0,0-12.376-5c-1.266-.29-2.554-.524-3.853-.731a1.359,1.359,0,0,0-1.28.963c11.319,8.523,22.4,20.821,28.387,27.893l.323-.127a.068.068,0,0,0,.044-.028l0-.019.028-.019a16.455,16.455,0,0,0,1.983-4.846,21.041,21.041,0,0,0,.714-4.956,25.259,25.259,0,0,0-1.79-9.695A36.872,36.872,0,0,0-87.711,252.644Z" transform="translate(1.46)" fill="#ea9a1b"/>
        <path id="路径_13820" data-name="路径 13820" d="M-103.456,250.65a67.084,67.084,0,0,0-1.627,8.707,7.478,7.478,0,0,1,1.089-2.857,1.927,1.927,0,0,1,2.325-.7,10.1,10.1,0,0,1,3.635,3.073,18.192,18.192,0,0,1,2.711,3.853c.248.491.466.993.679,1.5a28.137,28.137,0,0,0-.888-2.7,36.873,36.873,0,0,0-5.014-8.873c-.579-.769-1.186-1.514-1.807-2.248A.661.661,0,0,0-103.456,250.65Z" transform="translate(14.294)" fill="#ffc217"/>
        <path id="路径_13821" data-name="路径 13821" d="M-110.449,252.871s14.6,13.435,25.243,27.617l1.881-1.509S-99.284,261.413-110.449,252.871Z" transform="translate(4.86 4.705)" fill="#84182f"/>
      </g>
      <g id="组_4575" data-name="组 4575" transform="translate(-669.396 2087.826)">
        <g id="组_4561" data-name="组 4561" transform="translate(478.856 416.013)">
          <path id="路径_13877" data-name="路径 13877" d="M570.862,443.328a48.53,48.53,0,0,0,1.041,7.081,21.224,21.224,0,0,0-2.289-.707,29.5,29.5,0,0,0-10.114-.577c-.979.1-1.962.244-2.947.414a1,1,0,0,0-.6,1.314c2.844,4.574,6.008,9.359,10.455,11.859a29.467,29.467,0,0,0-4.815,2.628c-.607.405-1.2.834-1.779,1.275a.5.5,0,0,0,.145.847c3.843,1.156,8,2.3,12.036,1.8a19.262,19.262,0,0,0,8.458-3.421c1.008-.693,1.864-1.571,2.817-2.332a.062.062,0,0,0,.026-.031c0-.006-.007-.008-.008-.013s.013-.012.015-.021a12.447,12.447,0,0,0,.246-3.966,16.137,16.137,0,0,0-.692-3.736,19.238,19.238,0,0,0-3.649-6.535,28.006,28.006,0,0,0-5.766-5.155c-.6-.412-1.22-.8-1.847-1.176A.5.5,0,0,0,570.862,443.328Z" transform="translate(-555.863 -442.816)" fill="#ffc217"/>
          <path id="路径_13878" data-name="路径 13878" d="M571.593,442.876a.5.5,0,0,0-.731.452,48.53,48.53,0,0,0,1.041,7.081,21.224,21.224,0,0,0-2.289-.707,29.5,29.5,0,0,0-10.114-.577c-.979.1-1.962.244-2.947.414a1,1,0,0,0-.6,1.314q.255.412.515.824a24.254,24.254,0,0,1,7.255,3.792,25.716,25.716,0,0,1,6.894,7.4,6.2,6.2,0,0,1,.92,2.758,3.244,3.244,0,0,1-1.459,2.837,8.975,8.975,0,0,1-1.8.835,17.831,17.831,0,0,0,3.723-.041,19.262,19.262,0,0,0,8.458-3.421c1.008-.693,1.864-1.571,2.817-2.332a.062.062,0,0,0,.026-.031c0-.006-.007-.008-.008-.013s.013-.012.015-.021a12.447,12.447,0,0,0,.246-3.966,16.137,16.137,0,0,0-.692-3.736,19.238,19.238,0,0,0-3.649-6.535,28.006,28.006,0,0,0-5.766-5.155C572.838,443.64,572.22,443.251,571.593,442.876Z" transform="translate(-555.863 -442.816)" fill="#f7ad2b"/>
          <path id="路径_13879" data-name="路径 13879" d="M573.439,444.052c-.6-.412-1.22-.8-1.846-1.176a.5.5,0,0,0-.731.452,48.5,48.5,0,0,0,1.041,7.081,21.224,21.224,0,0,0-2.289-.707,29.5,29.5,0,0,0-10.114-.577c-.979.1-1.962.244-2.947.414a1.03,1.03,0,0,0-.686,1c10.214,3.37,21.172,9.511,27.2,13.137.067-.056.132-.114.2-.169a.059.059,0,0,0,.026-.031c0-.006-.007-.008-.008-.013s.013-.012.015-.021a12.449,12.449,0,0,0,.246-3.966,16.114,16.114,0,0,0-.691-3.736,19.241,19.241,0,0,0-3.649-6.535A28.008,28.008,0,0,0,573.439,444.052Z" transform="translate(-555.862 -442.816)" fill="#ea9a1b"/>
          <path id="路径_13880" data-name="路径 13880" d="M568.438,443.328a50.78,50.78,0,0,0,.951,6.654,5.678,5.678,0,0,1,.088-2.318,1.462,1.462,0,0,1,1.5-1.073,7.694,7.694,0,0,1,3.36,1.322,13.9,13.9,0,0,1,2.888,2.11c.3.293.577.6.853.914-.4-.6-.836-1.176-1.3-1.73a28,28,0,0,0-5.766-5.155c-.6-.412-1.22-.8-1.847-1.176A.5.5,0,0,0,568.438,443.328Z" transform="translate(-553.438 -442.816)" fill="#ffc217"/>
          <path id="路径_13881" data-name="路径 13881" d="M559.952,450.771a180.827,180.827,0,0,1,24.872,13.706l.984-1.542S570.058,454.192,559.952,450.771Z" transform="translate(-555.074 -441.283)" fill="#84182f"/>
        </g>
      </g>
      <g id="组_4547" data-name="组 4547" transform="translate(-389.359 2281.125)">
        <path id="路径_13808" data-name="路径 13808" d="M446.721,529.507a61.349,61.349,0,0,1-1.148,8.963,26.944,26.944,0,0,1,2.871-.947,37.236,37.236,0,0,1,12.752-.965c1.238.1,2.482.263,3.729.453a1.263,1.263,0,0,1,.794,1.645c-3.482,5.84-7.363,11.953-12.917,15.211a37.409,37.409,0,0,1,6.138,3.2c.776.5,1.531,1.025,2.276,1.567a.633.633,0,0,1-.165,1.073c-4.823,1.548-10.036,3.086-15.149,2.556a24.33,24.33,0,0,1-10.754-4.12c-1.288-.852-2.389-1.94-3.611-2.877a.074.074,0,0,1-.033-.039c0-.007.008-.011.01-.017s-.017-.015-.02-.026a15.71,15.71,0,0,1-.4-5,20.232,20.232,0,0,1,.786-4.731,24.25,24.25,0,0,1,4.451-8.333,35.362,35.362,0,0,1,7.156-6.642c.751-.534,1.522-1.038,2.3-1.527A.633.633,0,0,1,446.721,529.507Z" fill="#ffc217"/>
        <path id="路径_13809" data-name="路径 13809" d="M445.787,528.955a.633.633,0,0,1,.934.552,61.349,61.349,0,0,1-1.148,8.963,26.944,26.944,0,0,1,2.871-.947,37.236,37.236,0,0,1,12.752-.965c1.238.1,2.482.263,3.729.453a1.263,1.263,0,0,1,.794,1.645q-.313.525-.631,1.053a30.594,30.594,0,0,0-9.067,4.955,32.434,32.434,0,0,0-8.527,9.506,7.82,7.82,0,0,0-1.1,3.5,4.1,4.1,0,0,0,1.907,3.546,11.359,11.359,0,0,0,2.3,1.012,22.586,22.586,0,0,1-4.7.036,24.33,24.33,0,0,1-10.754-4.12c-1.288-.852-2.389-1.94-3.611-2.877a.074.074,0,0,1-.033-.039c0-.007.008-.011.01-.017s-.017-.015-.02-.026a15.71,15.71,0,0,1-.4-5,20.232,20.232,0,0,1,.786-4.731,24.25,24.25,0,0,1,4.451-8.333,35.362,35.362,0,0,1,7.156-6.642C444.235,529.948,445.006,529.444,445.787,528.955Z" fill="#f7ad2b"/>
        <path id="路径_13810" data-name="路径 13810" d="M443.484,530.482c.751-.534,1.522-1.038,2.3-1.527a.633.633,0,0,1,.934.552,61.349,61.349,0,0,1-1.148,8.963,26.944,26.944,0,0,1,2.871-.947,37.236,37.236,0,0,1,12.752-.965c1.238.1,2.482.263,3.729.453a1.3,1.3,0,0,1,.889,1.25c-12.811,4.491-26.5,12.5-34.02,17.217-.086-.068-.17-.14-.257-.208a.074.074,0,0,1-.033-.039c0-.007.008-.011.01-.017s-.017-.015-.02-.026a15.71,15.71,0,0,1-.4-5,20.232,20.232,0,0,1,.786-4.731,24.25,24.25,0,0,1,4.451-8.333A35.362,35.362,0,0,1,443.484,530.482Z" fill="#ea9a1b"/>
        <path id="路径_13811" data-name="路径 13811" d="M446.721,529.507a64.324,64.324,0,0,1-1.044,8.421A7.159,7.159,0,0,0,445.51,535a1.845,1.845,0,0,0-1.918-1.32,9.718,9.718,0,0,0-4.21,1.749,17.54,17.54,0,0,0-3.6,2.731c-.368.376-.714.771-1.054,1.172.5-.763,1.027-1.5,1.6-2.212a35.362,35.362,0,0,1,7.156-6.642c.751-.534,1.522-1.038,2.3-1.527A.633.633,0,0,1,446.721,529.507Z" fill="#ffc217"/>
        <path id="路径_13812" data-name="路径 13812" d="M459.706,540.6s-17.237,8.022-31.07,17.88l-1.277-1.923S447.031,545.155,459.706,540.6Z" fill="#84182f"/>
      </g>
    </g>
    <g id="pic" transform="translate(-320.152 -2037.06) rotate(7)">
      <g transform="matrix(0.99, -0.12, 0.12, 0.99, 523.97, 1985.01)" filter="url(#路径_2438)">
        <path id="路径_2438-2" data-name="路径 2438" d="M441,0C684.558,0,882,106.78,882,238.5S684.558,477,441,477,0,370.22,0,238.5,197.442,0,441,0Z" transform="translate(100.13 25) rotate(7)" fill="#6322c4" opacity="0.25"/>
      </g>
      <g transform="matrix(0.99, -0.12, 0.12, 0.99, 523.97, 1985.01)" filter="url(#椭圆_191)">
        <g id="椭圆_191-2" data-name="椭圆 191" transform="translate(172.43 76.19) rotate(7)" fill="none" stroke="#eaeef6" stroke-width="1" opacity="0.13">
          <ellipse cx="363" cy="196.5" rx="363" ry="196.5" stroke="none"/>
          <ellipse cx="363" cy="196.5" rx="362.5" ry="196" fill="none"/>
        </g>
      </g>
      <g transform="matrix(0.99, -0.12, 0.12, 0.99, 523.97, 1985.01)" filter="url(#椭圆_190)">
        <ellipse id="椭圆_190-2" data-name="椭圆 190" cx="319" cy="172.5" rx="319" ry="172.5" transform="translate(213.79 100.41) rotate(7)" fill="#8129c5" opacity="0.37"/>
      </g>
      <g id="组_1446" data-name="组 1446" transform="translate(913.16 2043.897) rotate(20)">
        <g id="组_1443" data-name="组 1443" transform="translate(0 0)">
          <path id="路径_2139" data-name="路径 2139" d="M413.684,98.423,305.251,161.438c-10.005,5.814-26.32,5.814-36.38.005L7.624,10.613C2.556,7.687.025,3.841.036,0L0,12.674c-.011,3.841,2.52,7.687,7.588,10.612L268.835,174.118c10.06,5.808,26.375,5.808,36.38-.007L413.648,111.1c4.965-2.886,7.451-6.67,7.461-10.46l.036-12.673C421.133,91.754,418.649,95.537,413.684,98.423Z" transform="translate(0 77.836)" fill="#7c56ff"/>
          <g id="组_1431" data-name="组 1431" transform="translate(0.036 0)">
            <path id="路径_2140" data-name="路径 2140" d="M413.529,155.193c10.06,5.807,10.112,15.257.119,21.066L305.215,239.274c-10.005,5.814-26.32,5.814-36.38.005L7.588,88.45c-10.071-5.815-10.124-15.265-.119-21.08L115.9,4.356c9.994-5.808,26.31-5.808,36.38.006Z" transform="translate(0 0)" fill="#7c56ff"/>
          </g>
          <g id="组_1442" data-name="组 1442" transform="translate(305.939 178.864)">
            <g id="组_1436" data-name="组 1436" transform="translate(45.365 25.013)">
              <path id="路径_2142" data-name="路径 2142" d="M2.722,17.9a1.924,1.924,0,0,1-2.249.109,2.227,2.227,0,0,1-.284-2.362L1.42,11.8A5.966,5.966,0,0,1,3.955,8.6L18.122.425c1.127-.651,2.122-.547,2.533.265l1.233,2.429A3.183,3.183,0,0,1,21.6,5.811,5.98,5.98,0,0,1,19.355,8.3Z" transform="translate(0 0)" fill="url(#linear-gradient)"/>
              <path id="路径_2143" data-name="路径 2143" d="M18.8,7.094,2.166,16.7C.641,17.577-.406,16.645.152,14.9l1.233-3.853A4.77,4.77,0,0,1,3.4,8.515L17.566.334c.89-.514,1.689-.43,2.014.211l1.233,2.431C21.369,4.074,20.324,6.212,18.8,7.094Z" transform="translate(0.556 0.648)" fill="url(#linear-gradient-2)"/>
            </g>
            <g id="组_1441" data-name="组 1441" transform="translate(0 0)">
              <g id="组_1438" data-name="组 1438" transform="translate(0 39.785)">
                <g id="组_1437" data-name="组 1437" transform="translate(0 7.903)">
                  <path id="路径_2144" data-name="路径 2144" d="M4.19,1.21A4.346,4.346,0,0,1,2.1,4.514C.938,5.182,0,4.786,0,3.628A4.345,4.345,0,0,1,2.1.324C3.252-.343,4.19.053,4.19,1.21Z" transform="translate(0 15.022)" fill="url(#linear-gradient-3)" style="mix-blend-mode: multiply;isolation: isolate"/>
                  <ellipse id="椭圆_175" data-name="椭圆 175" cx="2.785" cy="1.576" rx="2.785" ry="1.576" transform="translate(5.667 14.964) rotate(-53.051)" fill="url(#linear-gradient-4)" style="mix-blend-mode: multiply;isolation: isolate"/>
                  <path id="路径_2145" data-name="路径 2145" d="M4.189,1.211a4.346,4.346,0,0,1-2.094,3.3C.938,5.182,0,4.786,0,3.629A4.347,4.347,0,0,1,2.094.325C3.251-.344,4.189.053,4.189,1.211Z" transform="translate(13.011 7.511)" fill="url(#linear-gradient-5)" style="mix-blend-mode: multiply;isolation: isolate"/>
                  <ellipse id="椭圆_176" data-name="椭圆 176" cx="2.785" cy="1.576" rx="2.785" ry="1.576" transform="matrix(0.601, -0.799, 0.799, 0.601, 18.676, 7.453)" fill="url(#linear-gradient-6)" style="mix-blend-mode: multiply;isolation: isolate"/>
                  <path id="路径_2146" data-name="路径 2146" d="M4.189,1.209a4.346,4.346,0,0,1-2.094,3.3C.938,5.182,0,4.786,0,3.628A4.342,4.342,0,0,1,2.094.325C3.251-.344,4.189.053,4.189,1.209Z" transform="translate(26.02 0)" fill="url(#linear-gradient-7)" style="mix-blend-mode: multiply;isolation: isolate"/>
                </g>
                <ellipse id="椭圆_177" data-name="椭圆 177" cx="2.785" cy="1.576" rx="2.785" ry="1.576" transform="matrix(0.601, -0.799, 0.799, 0.601, 37.563, 4.451)" fill="url(#linear-gradient-8)" style="mix-blend-mode: multiply;isolation: isolate"/>
              </g>
              <g id="组_1440" data-name="组 1440" transform="translate(70.216 0)" style="mix-blend-mode: multiply;isolation: isolate">
                <g id="组_1439" data-name="组 1439" transform="translate(12.381 0)">
                  <path id="路径_2147" data-name="路径 2147" d="M0,3.628c0,1.158.938,1.554,2.094.886a4.347,4.347,0,0,0,2.095-3.3c0-1.157-.938-1.553-2.095-.886A4.346,4.346,0,0,0,0,3.628Z" transform="translate(26.02 0)" fill="url(#linear-gradient-9)"/>
                  <path id="路径_2148" data-name="路径 2148" d="M0,3.629c0,1.157.938,1.553,2.094.884a4.344,4.344,0,0,0,2.095-3.3c0-1.157-.938-1.553-2.095-.885A4.342,4.342,0,0,0,0,3.629Z" transform="translate(19.515 3.756)" fill="url(#linear-gradient-10)"/>
                  <ellipse id="椭圆_178" data-name="椭圆 178" cx="2.785" cy="1.576" rx="2.785" ry="1.576" transform="translate(12.172 11.209) rotate(-53.051)" fill="url(#linear-gradient-11)"/>
                  <path id="路径_2149" data-name="路径 2149" d="M0,3.629c0,1.157.939,1.553,2.1.886A4.347,4.347,0,0,0,4.19,1.21C4.19.054,3.252-.344,2.1.324A4.348,4.348,0,0,0,0,3.629Z" transform="translate(6.505 11.267)" fill="url(#linear-gradient-12)"/>
                  <path id="路径_2150" data-name="路径 2150" d="M0,3.628c0,1.157.938,1.554,2.1.886A4.347,4.347,0,0,0,4.19,1.21C4.19.053,3.252-.343,2.1.324A4.344,4.344,0,0,0,0,3.628Z" transform="translate(0 15.022)" fill="url(#linear-gradient-13)"/>
                </g>
                <path id="路径_2151" data-name="路径 2151" d="M0,3.629c0,1.157.938,1.553,2.095.886a4.347,4.347,0,0,0,2.094-3.3c0-1.158-.938-1.554-2.094-.886A4.347,4.347,0,0,0,0,3.629Z" transform="translate(0 22.171)" fill="url(#linear-gradient-14)"/>
              </g>
            </g>
          </g>
        </g>
        <g id="组_1444" data-name="组 1444" transform="translate(39.56 112.071)">
          <path id="路径_2152" data-name="路径 2152" d="M20.829,15.744,2.3,4.963A4.779,4.779,0,0,1,0,1.33H0C0,.059,1.031-.377,2.3.356L20.829,11.139a4.775,4.775,0,0,1,2.3,3.632h0C23.132,16.043,22.1,16.479,20.829,15.744Z" transform="translate(0 0)" fill="url(#linear-gradient-15)"/>
          <path id="路径_2153" data-name="路径 2153" d="M20.828,15.744,2.3,4.962A4.779,4.779,0,0,1,0,1.33H0C0,.058,1.031-.378,2.3.357L20.828,11.139a4.777,4.777,0,0,1,2.3,3.633h0C23.132,16.043,22.1,16.479,20.828,15.744Z" transform="translate(26.687 15.805)" fill="url(#linear-gradient-15)"/>
        </g>
        <g id="组_1445" data-name="组 1445" transform="translate(5.568 2.547)">
          <path id="路径_2154" data-name="路径 2154" d="M117.759,2.73,105.018,9.586c-3.335,1.932-4.1,4.864-1.864,7.125h0c2.24,2.262,1.473,5.2-1.866,7.133L43.368,57.409a16.037,16.037,0,0,1-12.286,1.062h0A16.033,16.033,0,0,0,18.8,59.533L4.765,67.666c-6.084,3.525-6.382,9.118-.659,12.495L269.425,237.718c5.951,3.511,15.794,3.429,21.977-.185l117.354-67.874c6.159-3.6,6.286-9.334.288-12.8L141.678,2.411C135.909-.925,123.821-.781,117.759,2.73Z" transform="translate(0 0)" fill="#fff"/>
          <path id="路径_2155" data-name="路径 2155" d="M38.218,1.95,3.344,22.156a3.073,3.073,0,0,1-2.8.037h0c-.751-.44-.715-1.171.083-1.633L35.49.358A3.084,3.084,0,0,1,38.3.318h0C39.048.758,39.013,1.488,38.218,1.95Z" transform="translate(39.717 29.045)" fill="url(#linear-gradient-17)" style="mix-blend-mode: multiply;isolation: isolate"/>
          <path id="路径_2156" data-name="路径 2156" d="M6.539.606c1.439.838,1.374,2.23-.145,3.111a5.888,5.888,0,0,1-5.356.076C-.4,2.956-.336,1.563,1.184.684A5.889,5.889,0,0,1,6.539.606Z" transform="translate(82.229 22.237)" fill="url(#linear-gradient-18)" style="mix-blend-mode: multiply;isolation: isolate"/>
        </g>
      </g>
      <path id="路径_2175" data-name="路径 2175" d="M18.937,9.468c0-.742-3.474-1.353-8-1.465-.111-4.528-.723-8-1.465-8S8.115,3.474,8,8c-4.53.112-8,.723-8,1.465s3.474,1.354,8,1.465c.111,4.53.722,8,1.465,8s1.353-3.474,1.465-8C15.463,10.822,18.937,10.211,18.937,9.468Z" transform="matrix(0.921, -0.391, 0.391, 0.921, 1148.455, 2014.759)" fill="url(#linear-gradient-15)"/>
      <path id="路径_2176" data-name="路径 2176" d="M18.937,9.468c0-.742-3.474-1.353-8-1.465-.111-4.528-.723-8-1.465-8S8.115,3.474,8,8c-4.53.112-8,.723-8,1.465s3.474,1.354,8,1.465c.111,4.53.722,8,1.465,8s1.353-3.474,1.465-8C15.463,10.822,18.937,10.211,18.937,9.468Z" transform="matrix(0.921, -0.391, 0.391, 0.921, 730.812, 2108.461)" fill="#2a2a2a" opacity="0.09"/>
      <path id="路径_2177" data-name="路径 2177" d="M16.708,8.353c0-.655-3.065-1.194-7.06-1.293C9.55,3.065,9.009,0,8.355,0S7.16,3.065,7.062,7.06C3.065,7.16,0,7.7,0,8.353S3.065,9.548,7.062,9.646c.1,4,.637,7.062,1.293,7.062s1.193-3.065,1.293-7.062C13.643,9.548,16.708,9.009,16.708,8.353Z" transform="matrix(0.966, 0.259, -0.259, 0.966, 1035.899, 2440.294)" fill="#fff" opacity="0.14"/>
      <circle id="椭圆_185" data-name="椭圆 185" cx="7" cy="7" r="7" transform="translate(935.14 2007.039)" fill="url(#linear-gradient-15)"/>
      <circle id="椭圆_186" data-name="椭圆 186" cx="3.5" cy="3.5" r="3.5" transform="translate(920.182 2429.076)" opacity="0.3" fill="url(#linear-gradient-21)"/>
      <ellipse id="椭圆_188" data-name="椭圆 188" cx="3.5" cy="4" rx="3.5" ry="4" transform="translate(679.401 2196.619)" fill="#e8e8e8"/>
      <g transform="matrix(0.99, -0.12, 0.12, 0.99, 523.97, 1985.01)" filter="url(#路径_2180)">
        <path id="路径_2180-2" data-name="路径 2180" d="M436.991,276.039H392.349a8.608,8.608,0,0,0-8.44,8.766v45.014c5.785-11.352,12.952-10.827,12.952-10.827h40.13a8.608,8.608,0,0,0,8.441-8.765V284.806A8.609,8.609,0,0,0,436.991,276.039Z" transform="translate(282.93 -83.31) rotate(7)" fill="#fff"/>
      </g>
      <path id="路径_2179" data-name="路径 2179" d="M337.3,229.389c-.253,1.342-1.974,5.717-13.025,15.1h-1.179s-9-7.655-12.338-13.9a7.189,7.189,0,0,1-1.236-4.038,6.957,6.957,0,0,1,6.838-7.071,6.668,6.668,0,0,1,4.571,1.845,10.147,10.147,0,0,1,2.8,2.813h.907l.015-.032a6.838,6.838,0,0,1,6.394-4.626,6.957,6.957,0,0,1,6.838,7.071A7.232,7.232,0,0,1,337.3,229.389Z" transform="translate(887.748 1931.539)" fill="#ff6363" fill-rule="evenodd"/>
      <g transform="matrix(0.99, -0.12, 0.12, 0.99, 523.97, 1985.01)" filter="url(#路径_2181)">
        <path id="路径_2181-2" data-name="路径 2181" d="M9.539,0h39.4a9.541,9.541,0,0,1,9.54,9.54V58.527C51.935,46.172,43.837,46.744,43.837,46.744H9.539A9.539,9.539,0,0,1,0,37.205V9.54A9.54,9.54,0,0,1,9.539,0Z" transform="translate(333.24 302.42) rotate(-4)" fill="#fff"/>
      </g>
      <path id="路径_2182" data-name="路径 2182" d="M28.058,12.925a3.9,3.9,0,0,0-3.894-3.894H18.113V4.665a4.565,4.565,0,0,0-1.6-3.94,5,5,0,0,0-4.077-.5.686.686,0,0,0-.48.656V5.777c0,3.856-4.473,5.174-4.664,5.227a.645.645,0,0,0-.236.122,1.285,1.285,0,0,0-1.006-.488H1.288A1.291,1.291,0,0,0,0,11.927V25.346a1.291,1.291,0,0,0,1.288,1.288H6.035a1.281,1.281,0,0,0,1.113-.648,3.875,3.875,0,0,0,2.69,1.082H21.8c2.644,0,4.328-1.387,4.626-3.8l1.608-10.234a.241.241,0,0,0,.023-.107ZM25.07,23.067" transform="translate(907.694 2248.535) rotate(-11)" fill="#ff6363"/>
      <g id="组_1632" data-name="组 1632" transform="translate(937.428 2105.302)">
        <g id="组_1588" data-name="组 1588" transform="translate(182.513 196.833)">
          <path id="路径_2366" data-name="路径 2366" d="M99.067,1138.838l4.178,7.879-4.756-2.954-4.906-1.6Z" transform="translate(-93.584 -1138.838)" fill="#cbcbcb"/>
        </g>
        <g id="组_1589" data-name="组 1589" transform="translate(169.423 199.407)">
          <path id="路径_2367" data-name="路径 2367" d="M89.856,1140.075a7.98,7.98,0,0,1,6.742,2.558c1.152,1.4,1.011,2.778-.179,3.491l-.565.239.311,1.373-1.724-1.115a8.126,8.126,0,0,1-5.992-2.626C86.974,1142.2,87.605,1140.448,89.856,1140.075Z" transform="translate(-87.652 -1140.005)" fill="#cbcbcb"/>
        </g>
        <g id="组_1590" data-name="组 1590" transform="translate(182.349 212.843)">
          <path id="路径_2368" data-name="路径 2368" d="M131.214,1146.093l4.418,5.363-37.713,6.257-4.409-5.353Z" transform="translate(-93.51 -1146.093)" fill="#cbcbcb"/>
        </g>
        <g id="组_1591" data-name="组 1591" transform="translate(171.663 219.283)">
          <path id="路径_2369" data-name="路径 2369" d="M90.374,1149.061c2.044-.34,5.12,1.112,6.874,3.242,1.772,2.136,1.527,4.137-.516,4.475s-5.129-1.11-6.883-3.239S88.322,1149.4,90.374,1149.061Z" transform="translate(-88.668 -1149.012)" fill="#7c56ff"/>
        </g>
        <g id="组_1592" data-name="组 1592" transform="translate(156.492 201.667)">
          <path id="路径_2370" data-name="路径 2370" d="M86.268,1141.053a4.6,4.6,0,0,1,3.621,1.785c2.063,2.5.87,5.01.291,5.352l-.179.031c-.927-.093-5.469-1.637-7.539-4.151-.958-1.163-.878-2.242.163-2.414a4.263,4.263,0,0,1,3.068,1.207C85.2,1141.946,85.408,1141.2,86.268,1141.053Z" transform="translate(-81.793 -1141.029)" fill="#fe2c71"/>
        </g>
        <g id="组_1628" data-name="组 1628" transform="translate(0)" style="isolation: isolate">
          <g id="组_1593" data-name="组 1593">
            <g transform="matrix(0.99, -0.12, 0.12, 0.99, -413.46, -120.29)" filter="url(#路径_2371)">
              <path id="路径_2371-2" data-name="路径 2371" d="M147.419,1049.647l181.074,219.718-136.529,22.68L156.078,1248.5l9.779-1.624,126.607-21.031L175.32,1083.52,38.787,1106.191l-27.906-33.862Zm-99.672,44.612c3.3-1.077,3.465-4.815.21-8.766-3.529-4.272-9.695-7.19-13.793-6.51-4.125.682-4.586,4.7-1.07,8.971a18.851,18.851,0,0,0,11.6,6.557l.241.022.249.016.256.008c.11,0,.19,0,.269,0s.161,0,.227,0l.077,0,.15-.007.086-.006.139-.011.084-.009.148-.015.071-.009c.073-.009.143-.02.214-.031l.212-.04.055-.011.15-.033.06-.016.15-.04c.1-.029.159-.046.216-.064m44.678-12.826-4.416-5.363L50.3,1082.335l4.409,5.354,37.713-6.256m142.927,186.422-4.416-5.363-37.7,6.265,4.409,5.354,37.711-6.256m-52.843-18.73c-2.251.373-2.884,2.123-1.406,3.919a8.126,8.126,0,0,0,5.992,2.626l1.724,1.115-.311-1.373.565-.239c1.189-.713,1.331-2.092.179-3.491a7.979,7.979,0,0,0-6.742-2.558m8.1,27.573c2.044-.338,2.289-2.34.516-4.476-1.754-2.13-4.831-3.582-6.874-3.242s-2.286,2.339-.525,4.477,4.84,3.58,6.883,3.24m8.269-30.216-5.484,3.328,4.906,1.6,4.756,2.955-4.178-7.879m97.722-6.854-6.8-8.252-6.292,1.044,6.806,8.249,1.525-2.483,4.758,1.441m-120.838,18.849c.578-.342,1.772-2.847-.291-5.352a4.6,4.6,0,0,0-3.621-1.785c-.861.141-1.07.894-.574,1.81a4.26,4.26,0,0,0-3.068-1.207c-1.042.172-1.121,1.251-.163,2.414,2.07,2.514,6.612,4.058,7.539,4.151l.179-.031m-22.389-188.886c.757-.124.834-.865.192-1.644a3.146,3.146,0,0,0-2.522-1.185c-.748.124-.834.856-.192,1.635a3.155,3.155,0,0,0,2.522,1.194m3.2,3.884c.757-.124.843-.856.2-1.635a3.146,3.146,0,0,0-2.531-1.194c-.748.126-.834.856-.183,1.644a3.124,3.124,0,0,0,2.514,1.185m-6.407-7.777c.746-.124.841-.856.2-1.636a3.177,3.177,0,0,0-2.531-1.194c-.748.124-.834.854-.185,1.644a3.138,3.138,0,0,0,2.516,1.185" transform="translate(512.84 -873.36) rotate(7)" fill="#fefefe"/>
            </g>
          </g>
          <g id="组_1594" data-name="组 1594" transform="translate(272.629 181.728)">
            <path id="路径_2372" data-name="路径 2372" d="M140.71,1131.994l6.8,8.251-4.757-1.442-1.525,2.482-6.806-8.25Z" transform="translate(-134.419 -1131.994)" fill="#cbcbcb"/>
          </g>
          <g id="组_1595" data-name="组 1595" transform="translate(211.891 132.151)">
            <path id="路径_2373" data-name="路径 2373" d="M106.9,1109.529c.21.033.417.066.625.1l-.095.821A6.43,6.43,0,0,0,106.9,1109.529Z" transform="translate(-106.896 -1109.529)" fill="#311aa2"/>
          </g>
          <g id="组_1596" data-name="组 1596" transform="translate(160.789 33.878)">
            <path id="路径_2374" data-name="路径 2374" d="M87.372,1065l52.185,63.314-4.092,35.06c-.207-.035-.415-.069-.625-.1a9.319,9.319,0,0,0-1.046-1.258c-3.613-3.681-10.78-6-16.957-7.532-5.1-1.267-10.171-2.353-15.185-3.253l-4.946-12.956c-.04-.188-.082-.378-.128-.567l-.386-1.373a8.038,8.038,0,0,0,2.494.02c2.392-.4,3.626-2.112,2.911-4.654a12.812,12.812,0,0,0-4.718-6.093c1.3-6.612-3.981-21.566-11.771-28.336q-.662-.576-1.368-1.139Z" transform="translate(-83.74 -1064.998)" fill="#eee"/>
          </g>
          <g id="组_1597" data-name="组 1597" transform="translate(164.421 33.878)">
            <path id="路径_2375" data-name="路径 2375" d="M85.386,1065,202.68,1207.3l-14.36-17.407c-14.965-12.175-32.619-22.877-54.84-26.52l4.091-35.06Z" transform="translate(-85.386 -1064.998)" fill="#ececec"/>
          </g>
          <g id="组_1598" data-name="组 1598" transform="translate(211.864 133.073)">
            <path id="路径_2376" data-name="路径 2376" d="M106.884,1114.7l.556-4.751A4.459,4.459,0,0,1,106.884,1114.7Z" transform="translate(-106.884 -1109.947)" fill="#180d4d"/>
          </g>
          <g id="组_1599" data-name="组 1599" transform="translate(158.357 65.009)">
            <path id="路径_2377" data-name="路径 2377" d="M85.07,1079.1q.705.563,1.368,1.139c7.79,6.77,13.073,21.724,11.771,28.336a3.861,3.861,0,0,1-1.913,3,2.157,2.157,0,0,1-.554.166,2.454,2.454,0,0,1-.34.035c-2.275.084-5.537-2.443-7.042-4.511-1.732-2.388-2.858-5.309-5.722-7.314Z" transform="translate(-82.638 -1079.105)" fill="#7e6cbc"/>
          </g>
          <g id="组_1600" data-name="组 1600" transform="translate(171.121 94.484)">
            <path id="路径_2378" data-name="路径 2378" d="M91.229,1092.461a12.815,12.815,0,0,1,4.718,6.093c.715,2.542-.519,4.259-2.911,4.655a8.047,8.047,0,0,1-2.494-.02l-2.121-7.525a2.511,2.511,0,0,0,.34-.035,2.152,2.152,0,0,0,.554-.166A3.861,3.861,0,0,0,91.229,1092.461Z" transform="translate(-88.422 -1092.461)" fill="#f5b7a4"/>
          </g>
          <g id="组_1601" data-name="组 1601" transform="translate(155.51 100.8)">
            <path id="路径_2379" data-name="路径 2379" d="M82.454,1095.323l4.451,1.053c.677,4.234-1.3,7.724-5.557,8.43Z" transform="translate(-81.348 -1095.323)" fill="#fefefe"/>
          </g>
          <g id="组_1602" data-name="组 1602" transform="translate(101.417 47.123)">
            <path id="路径_2380" data-name="路径 2380" d="M62.624,1071.337a39.334,39.334,0,0,1,11.414.188c11.758,1.741,30.867,8.328,42.171,17.361l-2.432,20.853a10.68,10.68,0,0,0-1.3-.777,8.38,8.38,0,0,0-5.279-.837,9.244,9.244,0,0,0-1.428.355,10.633,10.633,0,0,1-1.66.417,11.86,11.86,0,0,1-8.059-1.785c-3.875-2.238-7.141-5.563-11.268-7.232a25.5,25.5,0,0,0-7.556-1.483,21.148,21.148,0,0,1-5.581-1.2c-3.445-1.313-6.835-4.279-6.312-6.618a7.8,7.8,0,0,1,1.671-2.686c1.026-1.47,1.161-3.654-1.962-5.9-3.522-2.542-10.127-5.628-7.675-8.353C58.451,1072.432,60.351,1071.713,62.624,1071.337Z" transform="translate(-56.836 -1071)" fill="#7e6cbc"/>
          </g>
          <g id="组_1603" data-name="组 1603" transform="translate(135.637 95.837)">
            <path id="路径_2381" data-name="路径 2381" d="M72.343,1093.074l20.978,4.963-1.108,9.483a13.182,13.182,0,0,1-5.583-.444A21.088,21.088,0,0,1,72.343,1093.074Z" transform="translate(-72.343 -1093.074)" fill="#fefefe"/>
          </g>
          <g id="组_1604" data-name="组 1604" transform="translate(154.493 85.862)">
            <path id="路径_2382" data-name="路径 2382" d="M84.751,1088.554c2.864,2,3.99,4.926,5.722,7.313,1.505,2.068,4.767,4.595,7.042,4.511l2.121,7.526.386,1.372c.046.19.088.38.128.567a11.956,11.956,0,0,1-.082,6.027,8.022,8.022,0,0,1-1.765,3.078,12.252,12.252,0,0,1-7.1,3.443,24.54,24.54,0,0,1-10.313-.715l1.015-8.7c4.264-.706,6.237-4.2,5.559-8.43l-4.451-1.053Z" transform="translate(-80.887 -1088.554)" fill="#ffcabb"/>
          </g>
          <g id="组_1605" data-name="组 1605" transform="translate(119.789 80.705)">
            <path id="路径_2383" data-name="路径 2383" d="M68.272,1086.29c.21-.033.428-.057.653-.073a75.891,75.891,0,0,0,3.112,12.122c-3.233-1.867-5.923-4.729-6.671-7.4C64.646,1088.4,65.876,1086.687,68.272,1086.29Z" transform="translate(-65.161 -1086.217)" fill="#f5b7a4"/>
          </g>
          <g id="组_1606" data-name="组 1606" transform="translate(151.712 118.089)">
            <path id="路径_2384" data-name="路径 2384" d="M79.627,1103.157c.936.349,1.865.647,2.781.9l-.417,3.58Z" transform="translate(-79.627 -1103.157)" fill="#f5b7a4"/>
          </g>
          <g id="组_1607" data-name="组 1607" transform="translate(151.668 118.071)">
            <path id="路径_2385" data-name="路径 2385" d="M79.607,1103.149l.044.017,2.364,4.476,0,.031Z" transform="translate(-79.607 -1103.149)" fill="#fe9c7f"/>
          </g>
          <g id="组_1608" data-name="组 1608" transform="translate(154.072 122.563)">
            <path id="路径_2386" data-name="路径 2386" d="M80.7,1105.217l0-.032,3.338,6.318Z" transform="translate(-80.697 -1105.185)" fill="#fea68c"/>
          </g>
          <g id="组_1609" data-name="组 1609" transform="translate(154.076 113.178)">
            <path id="路径_2387" data-name="路径 2387" d="M100.3,1100.932c2.8,7.849-.3,14.638-8.554,16.006a23.456,23.456,0,0,1-7.616-.132l-.09-.17-3.339-6.318.417-3.58a24.542,24.542,0,0,0,10.313.715,12.253,12.253,0,0,0,7.1-3.443A8.024,8.024,0,0,0,100.3,1100.932Z" transform="translate(-80.698 -1100.932)" fill="#f5b7a4"/>
          </g>
          <g id="组_1610" data-name="组 1610" transform="translate(121.809 74.521)">
            <path id="路径_2388" data-name="路径 2388" d="M66.077,1083.415a25.5,25.5,0,0,1,7.556,1.483c4.127,1.668,7.393,4.994,11.268,7.232a11.861,11.861,0,0,0,8.059,1.785,10.674,10.674,0,0,0,1.66-.417,9.273,9.273,0,0,1,1.428-.356,8.384,8.384,0,0,1,5.279.837,10.7,10.7,0,0,1,1.3.777l-1.741,14.938-20.978-4.963a21.089,21.089,0,0,0,14.287,14,13.187,13.187,0,0,0,5.583.443l-1.015,8.7c-.916-.249-1.845-.547-2.781-.9-.9-.338-1.759-.7-2.62-1.108a37.12,37.12,0,0,1-5.451-3.178c-9.858-6.916-14.477-14.3-16.977-20.976A75.879,75.879,0,0,1,67.82,1089.6a33.316,33.316,0,0,0-1.393-5.276Q66.249,1083.859,66.077,1083.415Z" transform="translate(-66.077 -1083.415)" fill="#ffcabb"/>
          </g>
          <g id="组_1611" data-name="组 1611" transform="translate(152.242 120.108)">
            <path id="路径_2389" data-name="路径 2389" d="M81.7,1106.559l3.341,6.287.09.17,1.39,2.615c3.244,6.1,11.52,11.637,18.478,12.343a12.127,12.127,0,0,0,3.173-.064c4.615-.766,6.239-4.643,3.542-9.719l-5.387-14.119c5.014.9,10.09,1.986,15.188,3.253,6.175,1.531,13.343,3.851,16.955,7.532a9.323,9.323,0,0,1,1.046,1.258,6.432,6.432,0,0,1,.53.923l-.556,4.751a10.858,10.858,0,0,1-3.039,2.679,51.313,51.313,0,0,1-18.476,7.031,43.342,43.342,0,0,1-15.183-.124c-6.122-1.149-14.848-4.687-22.925-9.121Z" transform="translate(-79.867 -1104.072)" fill="#30265f"/>
          </g>
          <g id="组_1612" data-name="组 1612" transform="translate(157.505 107.152)">
            <path id="路径_2390" data-name="路径 2390" d="M98.422,1104.227a11.955,11.955,0,0,0,.082-6.027l4.946,12.956,5.387,14.12c2.7,5.076,1.073,8.953-3.544,9.719a12.162,12.162,0,0,1-3.171.064c-6.958-.706-15.234-6.239-18.478-12.343l-1.39-2.615a23.464,23.464,0,0,0,7.616.133C98.126,1118.865,101.224,1112.078,98.422,1104.227Z" transform="translate(-82.252 -1098.201)" fill="#ffcabb"/>
          </g>
          <g id="组_1613" data-name="组 1613" transform="translate(39.422 26.422)">
            <path id="路径_2391" data-name="路径 2391" d="M66.449,1061.62l4.418,5.363-37.713,6.258-4.409-5.353Z" transform="translate(-28.744 -1061.62)" fill="#cbcbcb"/>
          </g>
          <g id="组_1614" data-name="组 1614" transform="translate(131.344 116.931)">
            <path id="路径_2392" data-name="路径 2392" d="M81.064,1102.664q3.476-.073,7.082.017,1.291.61,2.575,1.091l2.405,4.524-1.832,15.7c-7.929-4.352-15.234-9.564-18.838-14.228a13.236,13.236,0,0,1-1.885-3.167c-.8-2.028,1.256-3,4.125-3.474A47.1,47.1,0,0,1,81.064,1102.664Z" transform="translate(-70.398 -1102.632)" fill="#180d4d"/>
          </g>
          <g id="组_1615" data-name="组 1615" transform="translate(37.543 44.183)">
            <path id="路径_2393" data-name="路径 2393" d="M27.893,1069.815c.093-.048.181-.1.265-.148C28.072,1069.719,27.986,1069.767,27.893,1069.815Z" transform="translate(-27.893 -1069.668)" fill="#666"/>
          </g>
          <g id="组_1616" data-name="组 1616" transform="translate(37.249 44.347)">
            <path id="路径_2394" data-name="路径 2394" d="M27.76,1069.861c.09-.038.179-.078.263-.119C27.939,1069.784,27.85,1069.824,27.76,1069.861Z" transform="translate(-27.76 -1069.742)" fill="#666"/>
          </g>
          <g id="组_1617" data-name="组 1617" transform="translate(36.879 44.488)">
            <path id="路径_2395" data-name="路径 2395" d="M27.916,1069.806q-.159.063-.324.119Q27.758,1069.869,27.916,1069.806Z" transform="translate(-27.592 -1069.806)" fill="#666"/>
          </g>
          <g id="组_1618" data-name="组 1618" transform="translate(27.506 39.092)">
            <path id="路径_2396" data-name="路径 2396" d="M27.267,1067.469a14.738,14.738,0,0,1,7.971,1.514,3.472,3.472,0,0,1-2.52,3.893l-.188.057-.042.011-.15.04-.06.016-.15.033-.055.011-.21.04c-.073.011-.143.022-.216.031l-.071.009-.148.018-.084.007-.139.011-.086.006-.15.007-.077,0c-.066,0-.135,0-.2,0-.106,0-.185,0-.265,0l-.245-.006-.042,0-.207-.013-.042,0-.234-.02a16.405,16.405,0,0,1-6.312-2.18,4.281,4.281,0,0,1,3.888-3.478Z" transform="translate(-23.345 -1067.36)" fill="#fff"/>
          </g>
          <g id="组_1619" data-name="组 1619" transform="translate(19.852 29.239)">
            <path id="路径_2397" data-name="路径 2397" d="M37.1,1069.5c2.911,3.533,3.087,6.894.737,8.333a3.451,3.451,0,0,0,1.587-3.465,14.734,14.734,0,0,0-7.971-1.514,4.3,4.3,0,0,0-3.922,3.484,16.356,16.356,0,0,0,6.3,2.178,18.85,18.85,0,0,1-11.6-6.556c-3.516-4.268-3.054-8.289,1.053-8.968S33.571,1065.23,37.1,1069.5Zm-6.4,2.481c1.543-.256,1.721-1.775.388-3.392s-3.661-2.708-5.2-2.454-1.737,1.768-.406,3.383,3.67,2.721,5.221,2.463" transform="translate(-19.876 -1062.896)" fill="#7c56ff"/>
          </g>
          <g id="组_1620" data-name="组 1620" transform="translate(24.569 32.444)">
            <path id="路径_2398" data-name="路径 2398" d="M23.309,1064.385c1.543-.253,3.873.839,5.2,2.454s1.154,3.138-.388,3.392-3.888-.845-5.221-2.463S21.758,1064.643,23.309,1064.385Z" transform="translate(-22.014 -1064.348)" fill="#fff"/>
          </g>
          <g id="组_1621" data-name="组 1621" transform="translate(27.892 33.878)">
            <path id="路径_2399" data-name="路径 2399" d="M23.52,1087.667,160.049,1065l-3.632,31.132c-11.3-9.033-30.413-15.62-42.171-17.363a39.414,39.414,0,0,0-11.414-.186c-2.273.375-4.173,1.095-5.255,2.3-2.452,2.725,4.153,5.811,7.675,8.353,3.123,2.249,2.988,4.434,1.962,5.9a7.8,7.8,0,0,0-1.671,2.686c-.523,2.339,2.867,5.305,6.312,6.618a21.24,21.24,0,0,0,5.581,1.2q.172.443.351.907a33.335,33.335,0,0,1,1.393,5.277c-.225.015-.444.04-.653.073-2.4.4-3.626,2.114-2.906,4.654.748,2.664,3.438,5.528,6.671,7.4,2.5,6.675,7.119,14.06,16.977,20.976a37.1,37.1,0,0,0,5.451,3.178q-3.6-.089-7.082-.018a47.08,47.08,0,0,0-6.367.459c-2.869.477-4.928,1.446-4.125,3.474a13.234,13.234,0,0,0,1.885,3.167c-27.963-9.081-53.953-19.615-80.5-37.172Z" transform="translate(-23.52 -1064.998)" fill="#ececec"/>
          </g>
          <g id="组_1622" data-name="组 1622" transform="translate(154.978 132.252)">
            <path id="路径_2400" data-name="路径 2400" d="M193.484,1136.094l14.349,17.41L81.107,1174.56l50.941-8.47,5.945-50.943a4.459,4.459,0,0,0,.556-4.751l.095-.821C160.865,1113.218,178.52,1123.92,193.484,1136.094Z" transform="translate(-81.107 -1109.575)" fill="#1a0098"/>
          </g>
          <g id="组_1623" data-name="组 1623" transform="translate(147.082 137.824)">
            <path id="路径_2401" data-name="路径 2401" d="M120.8,1121.81a51.311,51.311,0,0,0,18.476-7.031,10.855,10.855,0,0,0,3.039-2.679l-5.945,50.943-50.943,8.466-7.894-14.7,5.16-44.241c8.077,4.433,16.8,7.971,22.925,9.121A43.354,43.354,0,0,0,120.8,1121.81Z" transform="translate(-77.529 -1112.1)" fill="#311aa2"/>
          </g>
          <g id="组_1624" data-name="组 1624" transform="translate(52.872 86.87)">
            <path id="路径_2402" data-name="路径 2402" d="M129.049,1184.671l-11.306-21.056c-5.866-1.562-26.972-7.366-27.617-7.541l-55.288-67.064c26.579,17.577,52.569,28.111,80.457,37.11,3.679,4.745,10.984,9.957,18.913,14.309Z" transform="translate(-34.839 -1089.011)" fill="#1a0098"/>
          </g>
          <g id="组_1625" data-name="组 1625" transform="translate(108.16 153.935)">
            <path id="路径_2403" data-name="路径 2403" d="M96.91,1164.316,59.892,1119.4c.644.174,21.751,5.979,27.617,7.541L98.814,1148Z" transform="translate(-59.892 -1119.4)" fill="#ececec"/>
          </g>
          <g id="组_1626" data-name="组 1626" transform="translate(145.186 182.53)">
            <path id="路径_2404" data-name="路径 2404" d="M76.67,1148.687l1.9-16.329,7.894,14.7Z" transform="translate(-76.67 -1132.358)" fill="#eee"/>
          </g>
          <g id="组_1627" data-name="组 1627" transform="translate(145.176 198.85)">
            <path id="路径_2405" data-name="路径 2405" d="M76.667,1139.753l.008.01-.009,0Z" transform="translate(-76.665 -1139.753)" fill="gray" opacity="0.102"/>
          </g>
        </g>
        <g id="组_1629" data-name="组 1629" transform="translate(139.539 17.094)">
          <path id="路径_2406" data-name="路径 2406" d="M74.733,1057.411a3.152,3.152,0,0,1,2.525,1.185c.64.779.563,1.521-.194,1.644a3.154,3.154,0,0,1-2.522-1.194C73.9,1058.267,73.985,1057.536,74.733,1057.411Z" transform="translate(-74.111 -1057.393)" fill="#cbcbcb"/>
        </g>
        <g id="组_1630" data-name="组 1630" transform="translate(136.333 13.201)">
          <path id="路径_2407" data-name="路径 2407" d="M73.28,1055.647a3.176,3.176,0,0,1,2.531,1.194c.64.779.545,1.511-.2,1.635a3.136,3.136,0,0,1-2.516-1.185C72.446,1056.5,72.532,1055.77,73.28,1055.647Z" transform="translate(-72.658 -1055.629)" fill="#cbcbcb"/>
        </g>
        <g id="组_1631" data-name="组 1631" transform="translate(142.74 20.978)">
          <path id="路径_2408" data-name="路径 2408" d="M76.183,1059.171a3.141,3.141,0,0,1,2.531,1.2c.642.777.556,1.51-.2,1.635A3.132,3.132,0,0,1,76,1060.814C75.348,1060.027,75.435,1059.3,76.183,1059.171Z" transform="translate(-75.562 -1059.153)" fill="#cbcbcb"/>
        </g>
      </g>
    </g>
  </g>
</svg>
