<svg xmlns="http://www.w3.org/2000/svg" width="518.966" height="130.953" viewBox="0 0 518.966 130.953">
  <g id="组_4359" data-name="组 4359" transform="translate(-122.639 -507.972)">
    <g id="组_4352" data-name="组 4352" transform="translate(122.639 511.996)">
      <path id="路径_12830" data-name="路径 12830" d="M-256.692,98.866a3.382,3.382,0,0,0-3.382,3.382,3.383,3.383,0,0,0,3.382,3.382,3.382,3.382,0,0,0,3.382-3.382A3.382,3.382,0,0,0-256.692,98.866Z" transform="translate(274.974 -57.5)" fill="#ff6f00"/>
      <g id="组_4341" data-name="组 4341" transform="translate(4.012 18.59)">
        <g id="组_4335" data-name="组 4335" transform="translate(28.508)">
          <line id="直线_51" data-name="直线 51" x1="18.466" y1="12.452" transform="translate(8.732 5.888)" fill="none" stroke="#ffe8be" stroke-linecap="round" stroke-linejoin="round" stroke-width="2"/>
          <line id="直线_52" data-name="直线 52" x1="10.02" y1="6.757" transform="translate(33.782 22.78)" fill="none" stroke="#ffe8be" stroke-linecap="round" stroke-linejoin="round" stroke-width="2"/>
          <line id="直线_53" data-name="直线 53" x1="3.865" y1="2.606" fill="none" stroke="#ffe8be" stroke-linecap="round" stroke-linejoin="round" stroke-width="2"/>
        </g>
        <g id="组_4336" data-name="组 4336" transform="translate(14.27 62.06)">
          <line id="直线_54" data-name="直线 54" x1="21.322" transform="translate(10.083)" fill="none" stroke="#ffe8be" stroke-linecap="round" stroke-linejoin="round" stroke-width="2"/>
          <line id="直线_55" data-name="直线 55" x1="11.57" transform="translate(39.008)" fill="none" stroke="#ffe8be" stroke-linecap="round" stroke-linejoin="round" stroke-width="2"/>
          <line id="直线_56" data-name="直线 56" x1="4.463" fill="none" stroke="#ffe8be" stroke-linecap="round" stroke-linejoin="round" stroke-width="2"/>
        </g>
        <g id="组_4337" data-name="组 4337" transform="translate(12.343 14.767)">
          <line id="直线_57" data-name="直线 57" x2="31.08" y2="13.585" transform="translate(21.244 9.285)" fill="none" stroke="#ffe8be" stroke-linecap="round" stroke-linejoin="round" stroke-width="2"/>
          <line id="直线_58" data-name="直线 58" x2="12.819" y2="5.603" fill="none" stroke="#ffe8be" stroke-linecap="round" stroke-linejoin="round" stroke-width="2"/>
        </g>
        <g id="组_4338" data-name="组 4338" transform="translate(6.592 76.913)">
          <line id="直线_59" data-name="直线 59" y1="3.012" x2="16.424" transform="translate(22.373 0)" fill="none" stroke="#ffe8be" stroke-linecap="round" stroke-linejoin="round" stroke-width="2"/>
          <line id="直线_60" data-name="直线 60" y1="2.634" x2="13.501" transform="translate(0 4.743)" fill="none" stroke="#ffe8be" stroke-linecap="round" stroke-linejoin="round" stroke-width="2"/>
        </g>
        <g id="组_4339" data-name="组 4339" transform="translate(0 32.722)">
          <line id="直线_61" data-name="直线 61" x1="10.852" y1="3.022" transform="translate(43.593 10.61)" fill="none" stroke="#ffe8be" stroke-linecap="round" stroke-linejoin="round" stroke-width="2"/>
          <line id="直线_62" data-name="直线 62" x1="34.227" y1="8.33" fill="none" stroke="#ffe8be" stroke-linecap="round" stroke-linejoin="round" stroke-width="2"/>
        </g>
        <g id="组_4340" data-name="组 4340" transform="translate(3.59 82.475)">
          <line id="直线_63" data-name="直线 63" x1="21.586" y2="8.303" transform="translate(42.294)" fill="none" stroke="#ffe8be" stroke-linecap="round" stroke-linejoin="round" stroke-width="2"/>
          <line id="直线_64" data-name="直线 64" x1="33.208" y2="12.773" transform="translate(0 11.798)" fill="none" stroke="#ffe8be" stroke-linecap="round" stroke-linejoin="round" stroke-width="2"/>
        </g>
      </g>
      <path id="路径_12831" data-name="路径 12831" d="M-223.815,75.075c0-.621-2.9-1.131-6.686-1.224-.093-3.783-.6-6.686-1.224-6.686s-1.131,2.9-1.224,6.686c-3.783.093-6.686.6-6.686,1.224s2.9,1.131,6.686,1.224c.093,3.783.6,6.686,1.224,6.686s1.131-2.9,1.224-6.686C-226.719,76.207-223.815,75.7-223.815,75.075Z" transform="translate(281.206 -67.166)" fill="#ff6f00"/>
      <path id="路径_12832" data-name="路径 12832" d="M-261.115,138.98c0-.407-1.9-.742-4.386-.8-.061-2.481-.4-4.385-.8-4.385s-.742,1.9-.8,4.385c-2.481.061-4.385.4-4.385.8s1.9.741,4.385.8c.061,2.481.4,4.385.8,4.385s.741-1.9.8-4.385C-263.019,139.722-261.115,139.388-261.115,138.98Z" transform="translate(271.492 -46.85)" fill="#ff6f00"/>
    </g>
    <g id="组_4353" data-name="组 4353" transform="translate(550.258 492.973)">
      <path id="路径_12833" data-name="路径 12833" d="M-98.269,116.176a3.681,3.681,0,0,0-3.681,3.681,3.68,3.68,0,0,0,3.681,3.681,3.681,3.681,0,0,0,3.681-3.681A3.682,3.682,0,0,0-98.269,116.176Z" transform="translate(155.092 -38.637)" fill="#ff6f00"/>
      <path id="路径_12834" data-name="路径 12834" d="M-115.533,73.205a6.2,6.2,0,0,1-3.093.821,6.227,6.227,0,0,1-6.227-6.228,6.227,6.227,0,0,1,6.227-6.228A6.228,6.228,0,0,1-112.4,67.8" transform="translate(118.473 -45.571)" fill="none" stroke="#ff6f00" stroke-linecap="round" stroke-linejoin="round" stroke-width="2"/>
      <g id="组_4349" data-name="组 4349" transform="translate(0 28.175)">
        <g id="组_4343" data-name="组 4343">
          <line id="直线_65" data-name="直线 65" y1="13.55" x2="20.094" transform="translate(18.069 6.407)" fill="none" stroke="#ffe8be" stroke-linecap="round" stroke-linejoin="round" stroke-width="2"/>
          <line id="直线_66" data-name="直线 66" y1="7.353" x2="10.904" transform="translate(0 24.788)" fill="none" stroke="#ffe8be" stroke-linecap="round" stroke-linejoin="round" stroke-width="2"/>
          <line id="直线_67" data-name="直线 67" y1="2.836" x2="4.206" transform="translate(43.459)" fill="none" stroke="#ffe8be" stroke-linecap="round" stroke-linejoin="round" stroke-width="2"/>
        </g>
        <g id="组_4344" data-name="组 4344" transform="translate(8.119 67.532)">
          <line id="直线_68" data-name="直线 68" x2="23.203" transform="translate(20.864)" fill="none" stroke="#ffe8be" stroke-linecap="round" stroke-linejoin="round" stroke-width="2"/>
          <line id="直线_69" data-name="直线 69" x2="12.591" fill="none" stroke="#ffe8be" stroke-linecap="round" stroke-linejoin="round" stroke-width="2"/>
          <line id="直线_70" data-name="直线 70" x2="4.856" transform="translate(50.182)" fill="none" stroke="#ffe8be" stroke-linecap="round" stroke-linejoin="round" stroke-width="2"/>
        </g>
        <g id="组_4345" data-name="组 4345" transform="translate(8.318 16.069)">
          <line id="直线_71" data-name="直线 71" x1="33.821" y2="14.783" transform="translate(0 10.104)" fill="none" stroke="#ffe8be" stroke-linecap="round" stroke-linejoin="round" stroke-width="2"/>
          <line id="直线_72" data-name="直线 72" x1="13.95" y2="6.097" transform="translate(42.988)" fill="none" stroke="#ffe8be" stroke-linecap="round" stroke-linejoin="round" stroke-width="2"/>
        </g>
        <g id="组_4346" data-name="组 4346" transform="translate(23.562 82.955)">
          <line id="直线_73" data-name="直线 73" x1="23.605" y1="4.017" transform="translate(0 0)" fill="none" stroke="#ffe8be" stroke-linecap="round" stroke-linejoin="round" stroke-width="2"/>
          <line id="直线_74" data-name="直线 74" x1="14.691" y1="2.866" transform="translate(33.259 5.9)" fill="none" stroke="#ffe8be" stroke-linecap="round" stroke-linejoin="round" stroke-width="2"/>
        </g>
        <g id="组_4347" data-name="组 4347" transform="translate(12.245 35.607)">
          <line id="直线_75" data-name="直线 75" y1="4.114" x2="19.005" transform="translate(0 11.545)" fill="none" stroke="#ffe8be" stroke-linecap="round" stroke-linejoin="round" stroke-width="2"/>
          <line id="直线_76" data-name="直线 76" y1="9.065" x2="37.245" transform="translate(29.196)" fill="none" stroke="#ffe8be" stroke-linecap="round" stroke-linejoin="round" stroke-width="2"/>
        </g>
        <g id="组_4348" data-name="组 4348" transform="translate(5.266 89.747)">
          <line id="直线_77" data-name="直线 77" x2="23.49" y2="9.035" fill="none" stroke="#ffe8be" stroke-linecap="round" stroke-linejoin="round" stroke-width="2"/>
          <line id="直线_78" data-name="直线 78" x2="36.136" y2="13.9" transform="translate(33.378 12.839)" fill="none" stroke="#ffe8be" stroke-linecap="round" stroke-linejoin="round" stroke-width="2"/>
        </g>
      </g>
      <path id="路径_12835" data-name="路径 12835" d="M-69.953,156.2c0-.676-3.159-1.231-7.276-1.332-.1-4.117-.656-7.276-1.332-7.276s-1.231,3.159-1.332,7.276c-4.117.1-7.276.656-7.276,1.332s3.159,1.231,7.276,1.332c.1,4.117.656,7.276,1.332,7.276s1.231-3.159,1.332-7.276C-73.113,157.433-69.953,156.878-69.953,156.2Z" transform="translate(161.3 -25.442)" fill="#ff6f00"/>
    </g>
  </g>
</svg>
