<svg xmlns="http://www.w3.org/2000/svg" xmlns:xlink="http://www.w3.org/1999/xlink" width="187.415" height="160.705" viewBox="0 0 187.415 160.705">
  <defs>
    <filter id="路径_18938" x="13.204" y="20.913" width="171.59" height="49.031" filterUnits="userSpaceOnUse">
      <feOffset dy="2" input="SourceAlpha"/>
      <feGaussianBlur stdDeviation="1.5" result="blur"/>
      <feFlood flood-color="#ffcd89"/>
      <feComposite operator="in" in2="blur"/>
      <feComposite in="SourceGraphic"/>
    </filter>
    <filter id="路径_18937" x="11.589" y="19.021" width="175.826" height="55.924" filterUnits="userSpaceOnUse">
      <feOffset dy="3" input="SourceAlpha"/>
      <feGaussianBlur stdDeviation="3" result="blur-2"/>
      <feFlood flood-color="#ffcd89"/>
      <feComposite operator="in" in2="blur-2"/>
      <feComposite in="SourceGraphic"/>
    </filter>
    <filter id="路径_12785" x="113.907" y="99.279" width="61.428" height="61.426" filterUnits="userSpaceOnUse">
      <feOffset dy="4" input="SourceAlpha"/>
      <feGaussianBlur stdDeviation="3" result="blur-3"/>
      <feFlood flood-color="#67573b" flood-opacity="0.431"/>
      <feComposite operator="in" in2="blur-3"/>
      <feComposite in="SourceGraphic"/>
    </filter>
  </defs>
  <g id="组_5605" data-name="组 5605" transform="translate(-519.294 -5231.342)">
    <g transform="matrix(1, 0, 0, 1, 519.29, 5231.34)" filter="url(#路径_18938)">
      <path id="路径_18938-2" data-name="路径 18938" d="M-55.056-3.993a16.339,16.339,0,0,1-4.7,3.217,13.482,13.482,0,0,1-3.2,7.433,7.489,7.489,0,0,1-5.563,2.628A3.566,3.566,0,0,1-70.837,8.6a2.317,2.317,0,0,1-.84-1.9q0-3.361,6.528-6.524.684-2.437,1.331-4.387A10.133,10.133,0,0,1-67.124-1.3,8.089,8.089,0,0,1-71.153-.036,6.128,6.128,0,0,1-76.2-2.665a10.629,10.629,0,0,1-2.014-6.657,15.424,15.424,0,0,1,2.276-8.049,17.753,17.753,0,0,1,5.98-6.088,13.667,13.667,0,0,1,7.172-2.285,7.2,7.2,0,0,1,5.05,1.771A5.923,5.923,0,0,1-55.8-19.385a7.551,7.551,0,0,1-2.186,5.348A6.733,6.733,0,0,1-63-11.725a4.49,4.49,0,0,1-2.755-.813,2.424,2.424,0,0,1-1.093-2.005,2.067,2.067,0,0,1,.425-1.283,1.223,1.223,0,0,1,.985-.56q.542,0,.542.632a1.015,1.015,0,0,0,.416.867,1.568,1.568,0,0,0,.958.307q1.445,0,2.773-1.978a7.463,7.463,0,0,0,1.328-4.237,3.459,3.459,0,0,0-1.03-2.593,3.647,3.647,0,0,0-2.656-1,6.862,6.862,0,0,0-4.724,2.168,16.049,16.049,0,0,0-3.722,5.7A17.828,17.828,0,0,0-73-9.81a7.71,7.71,0,0,0,1.264,4.652,3.963,3.963,0,0,0,3.359,1.725q3.539,0,6.771-5l3.395-.488q.632-.09.632.305a10.384,10.384,0,0,1-.488,1.553q-.488,1.373-1.339,4.588A14.9,14.9,0,0,0-55.056-6.07Zm-10.515,6q-4.7,2.349-4.7,4.625,0,1.21,1.156,1.21Q-66.835,7.841-65.57,2.005ZM-44.7-22.384q0,4.336-3.2,4.336a3.957,3.957,0,0,1-2.656-.939,13.107,13.107,0,0,0,1.626-3.577,4.785,4.785,0,0,0,2.294.885A3.242,3.242,0,0,0-44.7-22.384Zm.361,18.392Q-48.562.452-50.658.452A2.313,2.313,0,0,1-52.609-.732,5.217,5.217,0,0,1-53.4-3.7q0-3.848,2.6-10.659l4.589-.958H-46L-47.8-9.666a19.238,19.238,0,0,0-1.12,5,1.638,1.638,0,0,0,.262.967.782.782,0,0,0,.659.37,2.419,2.419,0,0,0,1.418-.515A17.419,17.419,0,0,0-44.335-6.07Zm18.074,0a5.37,5.37,0,0,1-1.68,1.03,4.218,4.218,0,0,1-1.319.307,4.181,4.181,0,0,1-2.6-1.012Q-35.078.416-38.673.416A3.584,3.584,0,0,1-41.609-.876a5.541,5.541,0,0,1-1.057-3.6A20.023,20.023,0,0,1-41.4-10.731l1.265-3.7,4.895-.918-2.172,6.518a25.552,25.552,0,0,0-.647,2.529,11.793,11.793,0,0,0-.306,2.1,2.576,2.576,0,0,0,.515,1.635,1.544,1.544,0,0,0,1.256.66q1.734,0,3.74-2.963a8.212,8.212,0,0,1-.921-3.7,8.307,8.307,0,0,1,1.364-4.661q1.364-2.078,2.99-2.078,1.229,0,1.229,1.9,0,3.667-2.963,8.473a2.831,2.831,0,0,0,1.933.849Q-28-4.1-26.261-6.07Zm15.346,0A22.317,22.317,0,0,1-15.035-.659,7.791,7.791,0,0,1-19.064.416a5.245,5.245,0,0,1-3.966-1.572,5.725,5.725,0,0,1-1.509-4.137,10.38,10.38,0,0,1,2.656-6.928,7.7,7.7,0,0,1,5.89-3.1,3.994,3.994,0,0,1,2.692.867,2.853,2.853,0,0,1,1.012,2.276q0,3.74-7.949,6.07.723,3.523,3.776,3.523a4.4,4.4,0,0,0,2.276-.641,19.742,19.742,0,0,0,3.27-2.845Zm-9.467-3.342q4.625-1.3,4.625-4.806,0-1.734-1.265-1.734-1.192,0-2.276,1.816A9.13,9.13,0,0,0-20.383-7.335ZM10.229-3.993A38.026,38.026,0,0,1,6.092-.416,4.328,4.328,0,0,1,3.707.416Q.853.416,1.015-4.625A18.645,18.645,0,0,1-2.318-.813,4.983,4.983,0,0,1-5.471.416a3.283,3.283,0,0,1-2.7-1.49A5.949,5.949,0,0,1-9.283-4.733,9.811,9.811,0,0,1-7.792-9.9a12.251,12.251,0,0,1,3.821-3.975A7.842,7.842,0,0,1,.148-15.393,3.2,3.2,0,0,1,3.31-13.315L7-15.356H8.016L6.423-10.063A22.881,22.881,0,0,0,5.191-4.588q0,1.553,1.1,1.553a2.465,2.465,0,0,0,1.553-.75q.849-.75,2.383-2.285ZM-3-3Q-1.189-3,.41-6.079a12.467,12.467,0,0,0,1.6-5.682,2.481,2.481,0,0,0-.452-1.581,1.466,1.466,0,0,0-1.21-.569q-1.807,0-3.424,3.071A12.282,12.282,0,0,0-4.694-5.185,2.473,2.473,0,0,0-4.215-3.6,1.489,1.489,0,0,0-3-3Zm40.115-.994a5.723,5.723,0,0,1-1.734,1.03,4.377,4.377,0,0,1-1.337.307,4.11,4.11,0,0,1-2.583-1.012Q28.176.416,24.69.416q-2.565,0-3.667-2.818Q18.6.416,15.8.416a3.613,3.613,0,0,1-2.873-1.2A4.875,4.875,0,0,1,11.88-4.1a17.5,17.5,0,0,1,.641-4.625,60.275,60.275,0,0,1,1.96-5.745l4.763-.884-1.337,4.027A28.373,28.373,0,0,0,16.216-4.1a2.476,2.476,0,0,0,.452,1.536,1.374,1.374,0,0,0,1.138.6q1.445,0,2.891-2.24a18.4,18.4,0,0,1,1.03-5.89l1.481-4.372,4.838-.885-2.024,6.25a16.582,16.582,0,0,0-.976,4.77,2.785,2.785,0,0,0,.47,1.7,1.479,1.479,0,0,0,1.248.633,2.789,2.789,0,0,0,1.808-.7,12.624,12.624,0,0,0,1.917-2.132,7.478,7.478,0,0,1-.958-3.631,8.611,8.611,0,0,1,1.355-4.8q1.355-2.087,3.053-2.087,1.174,0,1.174,1.771,0,3.812-2.945,8.636a2.769,2.769,0,0,0,1.915.849q1.21,0,3.035-1.969Zm21.127,0A38.025,38.025,0,0,1,54.109-.416a4.328,4.328,0,0,1-2.385.831q-2.854,0-2.692-5.041A18.645,18.645,0,0,1,45.7-.813,4.983,4.983,0,0,1,42.546.416a3.283,3.283,0,0,1-2.7-1.49,5.949,5.949,0,0,1-1.111-3.658A9.811,9.811,0,0,1,40.225-9.9a12.251,12.251,0,0,1,3.821-3.975,7.842,7.842,0,0,1,4.119-1.518,3.2,3.2,0,0,1,3.162,2.078l3.693-2.042h1.014l-1.594,5.294a22.881,22.881,0,0,0-1.231,5.474q0,1.553,1.1,1.553a2.465,2.465,0,0,0,1.553-.75q.849-.75,2.383-2.285ZM45.021-3q1.807,0,3.406-3.08a12.467,12.467,0,0,0,1.6-5.682,2.481,2.481,0,0,0-.452-1.581,1.466,1.466,0,0,0-1.21-.569q-1.807,0-3.424,3.071a12.282,12.282,0,0,0-1.617,5.655A2.473,2.473,0,0,0,43.8-3.6,1.489,1.489,0,0,0,45.021-3Zm34.351-.994A27.107,27.107,0,0,1,72.043.558q-1.681,4.771-3.778,6.749a6.346,6.346,0,0,1-4.374,1.979,2.487,2.487,0,0,1-1.853-.7,2.557,2.557,0,0,1-.7-1.879q0-3.559,6.522-6.45l1.1-3.884q-3.415,3.812-6,3.812A2.686,2.686,0,0,1,60.719-.958a4.92,4.92,0,0,1-.858-3.035,16.509,16.509,0,0,1,1.19-5.854l1.73-4.589,5.244-.918L65.775-9.99a17.558,17.558,0,0,0-1.542,5.852q0,1.627,1.1,1.627,1.12,0,2.556-1.807A16.015,16.015,0,0,0,70.3-8.762l2.06-5.673,4.927-.92-4.7,14.127a20.355,20.355,0,0,0,6.78-4.842ZM67.341,2.042a10.973,10.973,0,0,0-3.424,2.231,3.572,3.572,0,0,0-1.2,2.43q0,1.21,1.03,1.21Q65.751,7.913,67.341,2.042Z" transform="translate(98.42 51.66)" fill="#e5630a" stroke="#fff" stroke-width="5"/>
    </g>
    <g transform="matrix(1, 0, 0, 1, 519.29, 5231.34)" filter="url(#路径_18937)">
      <path id="路径_18937-2" data-name="路径 18937" d="M-48.2-4.208A17.222,17.222,0,0,1-53.157-.818a14.211,14.211,0,0,1-3.37,7.835,7.894,7.894,0,0,1-5.864,2.77,3.759,3.759,0,0,1-2.447-.724,2.442,2.442,0,0,1-.885-2q0-3.543,6.88-6.877.721-2.569,1.4-4.624a10.68,10.68,0,0,1-3.485,3.066A8.526,8.526,0,0,1-65.171-.038a6.459,6.459,0,0,1-5.323-2.771,11.2,11.2,0,0,1-2.123-7.017,16.258,16.258,0,0,1,2.4-8.484,18.712,18.712,0,0,1,6.3-6.417,14.406,14.406,0,0,1,7.56-2.409,7.594,7.594,0,0,1,5.323,1.866,6.243,6.243,0,0,1,2.047,4.837,7.959,7.959,0,0,1-2.3,5.637,7.1,7.1,0,0,1-5.294,2.438,4.733,4.733,0,0,1-2.9-.857,2.555,2.555,0,0,1-1.152-2.114,2.178,2.178,0,0,1,.448-1.352,1.289,1.289,0,0,1,1.038-.59q.571,0,.571.667a1.07,1.07,0,0,0,.438.914,1.653,1.653,0,0,0,1.009.324q1.523,0,2.923-2.085a7.867,7.867,0,0,0,1.4-4.466A3.646,3.646,0,0,0-53.9-24.651a3.844,3.844,0,0,0-2.8-1.057,7.232,7.232,0,0,0-4.98,2.285A16.917,16.917,0,0,0-65.6-17.415a18.792,18.792,0,0,0-1.514,7.074,8.127,8.127,0,0,0,1.332,4.9,4.177,4.177,0,0,0,3.54,1.819q3.73,0,7.137-5.275l3.578-.514q.666-.1.666.322a10.945,10.945,0,0,1-.515,1.637Q-51.889-6-52.785-2.612A15.706,15.706,0,0,0-48.2-6.4ZM-59.287,2.114q-4.951,2.476-4.951,4.875,0,1.276,1.219,1.276Q-60.62,8.265-59.287,2.114ZM-38.61-23.594q0,4.57-3.371,4.57a4.171,4.171,0,0,1-2.8-.99,13.815,13.815,0,0,0,1.714-3.771,5.043,5.043,0,0,0,2.418.933A3.418,3.418,0,0,0-38.61-23.594Zm.381,19.386Q-42.686.476-44.894.476A2.438,2.438,0,0,1-46.951-.771,5.5,5.5,0,0,1-47.789-3.9q0-4.056,2.742-11.235l4.837-1.009h.229l-1.9,5.96a20.278,20.278,0,0,0-1.181,5.275,1.727,1.727,0,0,0,.276,1.019.825.825,0,0,0,.7.39A2.549,2.549,0,0,0-40.6-4.047,18.361,18.361,0,0,0-38.229-6.4Zm17.725,0a5.661,5.661,0,0,1-1.771,1.085,4.446,4.446,0,0,1-1.39.324,4.407,4.407,0,0,1-2.742-1.066q-3.39,4.3-7.179,4.3A3.778,3.778,0,0,1-36.682-.924a5.84,5.84,0,0,1-1.114-3.8,21.105,21.105,0,0,1,1.333-6.589l1.333-3.9,5.159-.967-2.289,6.87a26.933,26.933,0,0,0-.682,2.666,12.431,12.431,0,0,0-.322,2.209,2.716,2.716,0,0,0,.543,1.724,1.628,1.628,0,0,0,1.323.7q1.828,0,3.942-3.123a8.656,8.656,0,0,1-.971-3.9,8.756,8.756,0,0,1,1.438-4.913q1.438-2.19,3.152-2.19,1.295,0,1.295,2,0,3.866-3.123,8.931a2.984,2.984,0,0,0,2.038.9q1.295,0,3.123-2.076Zm14.849,0A23.523,23.523,0,0,1-10-.7,8.212,8.212,0,0,1-14.244.438a5.529,5.529,0,0,1-4.18-1.657,6.034,6.034,0,0,1-1.59-4.361,10.941,10.941,0,0,1,2.8-7.3q2.8-3.266,6.208-3.266a4.21,4.21,0,0,1,2.837.914,3.007,3.007,0,0,1,1.066,2.4q0,3.942-8.379,6.4.762,3.713,3.98,3.713A4.642,4.642,0,0,0-9.1-3.4a20.809,20.809,0,0,0,3.447-3Zm-9.979-3.523Q-10.759-9.1-10.759-12.8q0-1.828-1.333-1.828-1.257,0-2.4,1.914A9.623,9.623,0,0,0-15.634-7.731Zm30.94,3.523A40.081,40.081,0,0,1,10.945-.438,4.562,4.562,0,0,1,8.432.438q-3.009,0-2.837-5.313A19.653,19.653,0,0,1,2.081-.857,5.252,5.252,0,0,1-1.242.438,3.46,3.46,0,0,1-4.089-1.133,6.27,6.27,0,0,1-5.26-4.989a10.342,10.342,0,0,1,1.571-5.446A12.913,12.913,0,0,1,.338-14.625a8.266,8.266,0,0,1,4.342-1.6,3.368,3.368,0,0,1,3.333,2.19L11.9-16.187h1.068l-1.68,5.58A24.118,24.118,0,0,0,10-4.836Q10-3.2,11.157-3.2a2.6,2.6,0,0,0,1.637-.79q.895-.79,2.512-2.409ZM1.367-3.161q1.9,0,3.59-3.247A13.141,13.141,0,0,0,6.642-12.4a2.616,2.616,0,0,0-.476-1.666,1.545,1.545,0,0,0-1.276-.6q-1.9,0-3.609,3.237a12.946,12.946,0,0,0-1.7,5.96A2.607,2.607,0,0,0,.081-3.8,1.57,1.57,0,0,0,1.367-3.161ZM42.324-4.208A6.032,6.032,0,0,1,40.5-3.123a4.614,4.614,0,0,1-1.409.324,4.332,4.332,0,0,1-2.723-1.066Q32.9.438,29.222.438q-2.7,0-3.866-2.971Q22.8.438,19.853.438A3.809,3.809,0,0,1,16.825-.828a5.139,5.139,0,0,1-1.1-3.494A18.451,18.451,0,0,1,16.4-9.2a63.533,63.533,0,0,1,2.066-6.056l5.021-.932L22.074-11.94q-1.79,5.521-1.783,7.616a2.61,2.61,0,0,0,.476,1.62,1.449,1.449,0,0,0,1.2.629q1.523,0,3.047-2.361A19.391,19.391,0,0,1,26.1-10.645l1.562-4.608,5.1-.933L30.627-9.6A17.478,17.478,0,0,0,29.6-4.571a2.935,2.935,0,0,0,.5,1.791,1.559,1.559,0,0,0,1.315.667,2.94,2.94,0,0,0,1.906-.743A13.307,13.307,0,0,0,35.335-5.1a7.882,7.882,0,0,1-1.009-3.828,9.076,9.076,0,0,1,1.428-5.056q1.428-2.2,3.218-2.2,1.238,0,1.238,1.866,0,4.018-3.1,9.1a2.919,2.919,0,0,0,2.019.9q1.276,0,3.2-2.076Zm20.943,0A40.081,40.081,0,0,1,58.906-.438a4.562,4.562,0,0,1-2.514.876q-3.009,0-2.837-5.313A19.653,19.653,0,0,1,50.041-.857,5.252,5.252,0,0,1,46.718.438a3.46,3.46,0,0,1-2.847-1.571A6.27,6.27,0,0,1,42.7-4.989a10.342,10.342,0,0,1,1.571-5.446A12.913,12.913,0,0,1,48.3-14.625a8.266,8.266,0,0,1,4.342-1.6,3.368,3.368,0,0,1,3.333,2.19l3.892-2.152h1.068l-1.68,5.58a24.118,24.118,0,0,0-1.3,5.77q0,1.637,1.161,1.637a2.6,2.6,0,0,0,1.637-.79q.895-.79,2.512-2.409ZM49.327-3.161q1.9,0,3.59-3.247A13.141,13.141,0,0,0,54.6-12.4a2.616,2.616,0,0,0-.476-1.666,1.545,1.545,0,0,0-1.276-.6q-1.9,0-3.609,3.237a12.946,12.946,0,0,0-1.7,5.96,2.607,2.607,0,0,0,.5,1.666A1.57,1.57,0,0,0,49.327-3.161ZM84.209-4.208a28.573,28.573,0,0,1-7.727,4.8Q74.711,5.617,72.5,7.7a6.69,6.69,0,0,1-4.61,2.086,2.621,2.621,0,0,1-1.953-.743,2.7,2.7,0,0,1-.733-1.98q0-3.751,6.875-6.8l1.162-4.094Q69.642.19,66.918.19a2.831,2.831,0,0,1-2.371-1.2,5.186,5.186,0,0,1-.9-3.2,17.4,17.4,0,0,1,1.254-6.17l1.823-4.837,5.528-.967L69.877-10.53a18.507,18.507,0,0,0-1.625,6.169q0,1.715,1.162,1.715,1.181,0,2.695-1.9A16.88,16.88,0,0,0,74.65-9.236l2.171-5.979,5.193-.97L77.063-1.295a21.456,21.456,0,0,0,7.147-5.1ZM71.527,2.152A11.567,11.567,0,0,0,67.918,4.5a3.765,3.765,0,0,0-1.266,2.561q0,1.276,1.085,1.276Q69.851,8.341,71.527,2.152Z" transform="translate(93.71 52.66)" fill="#ef7826" stroke="rgba(0,0,0,0)" stroke-width="1"/>
    </g>
    <path id="路径_13822" data-name="路径 13822" d="M0,1.419C1.1,1.068,2.145.735,3.188.405a8.944,8.944,0,0,1,2.2-.4,7.492,7.492,0,0,1,2.7.381,11.016,11.016,0,0,1,3.938,2.256,30.252,30.252,0,0,1,2.466,2.472,1.825,1.825,0,0,0,.378.306c.522.33,1.051.649,1.574.976a3.708,3.708,0,0,1,.452.318c.227.2.246.332.1.518-.112.145-.271.161-.492.014a6,6,0,0,1-.583-.452,3,3,0,0,0-1.564-.689,1.916,1.916,0,0,0-1.036.119,6.079,6.079,0,0,0-.618.287,4.936,4.936,0,0,1-2.64.558A13.371,13.371,0,0,1,7.07,6.545,12.655,12.655,0,0,1,.637,2.4c-.2-.231-.37-.485-.546-.734A1.093,1.093,0,0,1,0,1.419Zm5.876.732L5.767,2a.113.113,0,0,0-.027-.085c-.13-.256-.13-.256-.365-.173l.22.327a.107.107,0,0,0,.04.081l.087.167a.081.081,0,0,0,.037.077l.1.152-.019.2c-.25-.046-.487-.108-.728-.13A1.233,1.233,0,0,1,4,1.911a1.308,1.308,0,0,0-.51-.7c-.02.133-.062.218-.035.265.118.2.256.4.387.6v.2a5.051,5.051,0,0,1-1.207-.243l-.264-.091a.319.319,0,0,0-.111-.03.477.477,0,0,0-.141-.092.448.448,0,0,0-.162.025l.052.185,0,0,.121.089,1.747.562L3.25,3.04l-.133.078A.152.152,0,0,0,3,3.153l-.139.084a.142.142,0,0,0-.111.043l-.132.08-.108.123c.081.2.182.111.285.02a.083.083,0,0,0,.082-.03l.172-.094a.074.074,0,0,0,.077-.027l.168-.095a.085.085,0,0,0,.082-.03l.166-.092c.207-.09.41-.189.622-.265a.881.881,0,0,1,.411-.077c.373.063.739.162,1.213.27C5.132,3.408,4.575,3.7,4.02,4c-.016.009,0,.07,0,.158a2.312,2.312,0,0,0,.391-.1q.815-.373,1.62-.766A.634.634,0,0,1,6.5,3.216c.433.113.873.2,1.331.309l-.089.2c-.485.215-.972.425-1.452.65-.1.046-.125.154.021.263A9.048,9.048,0,0,0,8,3.85c.175-.042.366-.15.522-.115a6.573,6.573,0,0,1,1.538.506l-.479.315-.462.176-.138.078a.168.168,0,0,0-.112.038l-.123.09h0L8.66,5l.085.056h0c.037.091.087.08.143.016a.13.13,0,0,0,.1-.023l.174-.087a.089.089,0,0,0,.076-.027L9.5,4.817l.243-.13c.187-.074.372-.155.563-.218a.707.707,0,0,1,.35-.057,3.549,3.549,0,0,1,.993.385l-.533.293-.148.078a.117.117,0,0,0-.1.027l-.185.085a.047.047,0,0,0-.063.021c-.213.079-.5.041-.616.343a1.083,1.083,0,0,0,.877-.22.145.145,0,0,0,.113-.034l.158-.081H11.2l.043-.022.255-.109.624-.226.974.355.148.08a.21.21,0,0,0,.114.033c.084.062.17.139.247-.008,0-.013.014-.027.011-.039a.493.493,0,0,0-.028-.071l-.107-.087a2.953,2.953,0,0,1-1.548-1.128c-.009-.015-.035-.02-.053-.029a.1.1,0,0,0-.053-.09l-.089-.116,0,0-.112-.135,0,0L11.5,3.564a.1.1,0,0,0-.053-.087l-.089-.114h0l-.118-.145c-.063-.153-.152-.255-.344-.2-.018.234.136.342.246.471l.091.11,0,0,.118.137-.011-.005.118.144a.112.112,0,0,0,.053.085l.1.111.006.007.11.133.006-.008.1.242a.141.141,0,0,0-.115.018c-.211-.077-.419-.168-.635-.228a1.206,1.206,0,0,1-.6-.395l-.355-.523L9.893,2.96a.087.087,0,0,0-.042-.075c-.067-.1-.13-.2-.2-.286a.118.118,0,0,0-.109,0c-.029.019-.062.08-.051.1.069.116.15.226.227.338a.1.1,0,0,0,.036.08l.231.37.131.24,0,.126c-.371-.1-.738-.227-1.116-.3a1.191,1.191,0,0,1-.863-.589L7.87,2.516,7.765,2.36a.107.107,0,0,0-.036-.084l-.1-.143c-.039-.1-.1-.176-.216-.136-.023.008-.016.1-.023.155l.091.149a.11.11,0,0,0,.045.092l.092.124h0l.131.231.235.376c-.058.122-.164.093-.259.07-.471-.116-.94-.236-1.4-.353l-.358-.566-.087-.127Z" transform="matrix(0.743, 0.669, -0.669, 0.743, 557.342, 5240.695)" fill="#a94eff"/>
    <path id="路径_13823" data-name="路径 13823" d="M7.029.011A1.091,1.091,0,0,1,6.9.257C5.636,1.51,4.376,2.767,3.1,4.006a8.3,8.3,0,0,1-1.175.967,2.189,2.189,0,0,1-.936.347A.835.835,0,0,1,.024,4.265a3.114,3.114,0,0,1,.438-1,4.224,4.224,0,0,1,1.3-1.2A10.931,10.931,0,0,1,4.25.809C5.05.531,5.857.273,6.664.015A1.379,1.379,0,0,1,7.029.011Z" transform="matrix(0.799, 0.602, -0.602, 0.799, 557.755, 5251.309)" fill="#a94eff"/>
    <path id="路径_13825" data-name="路径 13825" d="M5.783.009a.9.9,0,0,1-.106.2C4.637,1.242,3.6,2.276,2.549,3.3a6.831,6.831,0,0,1-.967.8,1.8,1.8,0,0,1-.77.286A.687.687,0,0,1,.02,3.509,2.562,2.562,0,0,1,.38,2.69,3.476,3.476,0,0,1,1.448,1.7,9,9,0,0,1,3.5.666C4.155.437,4.819.224,5.483.012A1.136,1.136,0,0,1,5.783.009Z" transform="translate(697.368 5270.689) rotate(-105)" fill="#a94eff"/>
    <path id="路径_13824" data-name="路径 13824" d="M3.074,6.108A7.505,7.505,0,0,1,.76,5.736a5.579,5.579,0,0,1-.647-.264c-.139-.063-.148-.158-.041-.262a.278.278,0,0,1,.051-.037,3.416,3.416,0,0,0,.663-.561A11.419,11.419,0,0,0,2.275,2.738c.2-.31.4-.615.61-.919A4.038,4.038,0,0,1,4.387.506,4.391,4.391,0,0,1,5.9.051,7.609,7.609,0,0,1,6.937,0a4.3,4.3,0,0,1,1.4.3c.3.107.607.188.911.278a.643.643,0,0,0,.315,0A9.2,9.2,0,0,0,10.6.357a.534.534,0,0,1,.146-.025.338.338,0,0,1,.124.019.186.186,0,0,1,.1.172.139.139,0,0,1-.114.112.565.565,0,0,1-.147.016A4.7,4.7,0,0,0,9.626.819a.431.431,0,0,0-.161.094,3.691,3.691,0,0,0-.552.585A7.432,7.432,0,0,0,7.8,3.49c-.1.25-.212.494-.33.735a2.812,2.812,0,0,1-1.322,1.3,5.37,5.37,0,0,1-1.531.481A9.452,9.452,0,0,1,3.074,6.108Zm-.842-.869.041,0h0l.04-.081.045-.214.111-.4.523-.319a.409.409,0,0,1,.069-.024l-.068.567a.261.261,0,0,0-.03.216c.008.041.044.046.071,0l.012-.072a.242.242,0,0,0,.033-.18,3.988,3.988,0,0,0,.08-.454.4.4,0,0,1,.155-.3l.32-.239.172-.126c0,.078,0,.125,0,.172-.012.189-.026.379-.039.568a.484.484,0,0,0-.012.33l.059-.1c.011-.061.024-.122.031-.184.034-.306.066-.613.1-.915.115-.106.22-.208.331-.305a2.084,2.084,0,0,1,.339-.282l-.041.4-.007.073L4.533,3.5l-.01.1-.034.192c-.014.083-.031.166-.038.25,0,.02.032.042.066.086.019-.084.036-.137.043-.192s.011-.14.016-.21l.032-.144V3.5l.01-.07c.028-.145.062-.288.083-.434a.561.561,0,0,1,.217-.418.565.565,0,0,0,.085-.093l.415-.348.041.046a.022.022,0,0,0-.007.025l-.027.1a.051.051,0,0,0-.009.039l-.035.132c-.045.192-.093.383-.136.575-.029.13-.053.262-.077.394-.008.042-.007.086.055.09a4.526,4.526,0,0,0,.2-.878l.035-.139a.044.044,0,0,0,.006-.035L5.5,2.391l0-.042a.042.042,0,0,0,.007-.035l.03-.092a1.239,1.239,0,0,0,.047-.14.24.24,0,0,1,.109-.15,3.17,3.17,0,0,1,.7-.4L6.45,1.6l-.012.069L6.4,1.754h0l-.038.086a.026.026,0,0,0-.01.027l-.029.059a.049.049,0,0,0-.01.035l-.039.093-.045.118L6.2,2.22l-.019.072-.028.056a.044.044,0,0,0-.012.037l-.031.091a.063.063,0,0,0-.011.038l-.036.09a.046.046,0,0,0-.008.035c-.022.032-.042.063,0,.092h0l.037,0,0,0,.04-.08a.05.05,0,0,0,.008-.037l.034-.091a.048.048,0,0,0,.009-.035l.034-.092a.038.038,0,0,0,.009-.034l.039-.094.047-.118L6.344,2.1l.012-.041L6.4,1.967A.026.026,0,0,0,6.4,1.939l.029-.056a.041.041,0,0,0,.012-.036l.038-.093.157-.317a2.13,2.13,0,0,1,.724-.206l-.025.1h0l-.046.082h0l-.03.046-.01.042,0,0L7.2,1.584l-.041.086-.338.722-.131.294-.134.325c-.046.061-.045.068.008.1l.045-.032.038-.091.086-.213.13-.292.341-.725h0l.04-.088.045-.082.028-.049A.045.045,0,0,0,7.334,1.5l.028-.047.022-.068.146-.215A2.062,2.062,0,0,1,8.1,1.124V1.2l-.044.087h0l-.031.046a.039.039,0,0,0-.013.033l-.028.049-.058.117-.03.053-.011.042v0l-.029.046a.043.043,0,0,0-.015.035l-.028.05-.093.214,0,0-.041.085a.03.03,0,0,0-.008.028l-.031.057a.034.034,0,0,0-.011.03,1.27,1.27,0,0,0-.061.124.054.054,0,0,0,.019.049.055.055,0,0,0,.052-.009.269.269,0,0,0,.034-.069.036.036,0,0,0,.009-.031L7.7,2.18a.048.048,0,0,0,.012-.038l.027-.047.014-.042.087-.167L7.885,1.8h0l.04-.086a.028.028,0,0,0,.011-.027l.121-.223L8.1,1.374h0l.03-.045.144-.238c.129-.06.276-.012.384-.117A.273.273,0,0,0,8.439.956.574.574,0,0,1,8.07.911c-.1-.04-.2-.064-.3-.1C7.5.719,7.228.622,6.956.529c-.032-.011-.07-.01-.083.036a2.541,2.541,0,0,0,.8.294l.265.113C7.932.99,7.93,1,7.926,1a1.663,1.663,0,0,1-.689.036C7.047.987,6.849.964,6.656.923,6.387.865,6.119.8,5.85.743,5.808.733,5.762.725,5.766.812c.441.153.912.2,1.4.324-.143.047-.259.077-.369.122a1.046,1.046,0,0,1-.456.071L5.662,1.3c-.2-.01-.395-.024-.593-.032a.279.279,0,0,0-.091.032c.019.025.026.044.034.045l1.257.1c0,.029-.017.034-.036.044a3.98,3.98,0,0,0-.682.426.313.313,0,0,1-.217.066c-.29-.008-.579-.013-.869-.018a.282.282,0,0,0-.219.039.66.66,0,0,0,.336.058c.12.008.24.006.36.015a1.734,1.734,0,0,1,.358.027c-.041.035-.062.052-.081.07l-.272.262c-.092.076-.188.148-.275.228a.208.208,0,0,1-.191.059q-.333-.056-.668-.1c-.053-.008-.11-.037-.171.024.027.02.05.049.077.054.166.033.333.059.5.09a.542.542,0,0,1,.243.064c-.195.179-.377.344-.557.511a.2.2,0,0,1-.194.048c-.075-.017-.152-.026-.229-.038l-.1-.028L3.3,3.325,3.212,3.3c-.047-.006-.1-.05-.13.031l.043.035.069.014.1.029a3.206,3.206,0,0,1,.408.114c-.047.045-.081.08-.117.111-.111.1-.223.191-.335.286a.252.252,0,0,0-.056.028.207.207,0,0,1-.25.028,2.678,2.678,0,0,0-.275-.1l-.055-.026-.041-.011c-.029-.02-.059-.069-.088,0l.008.042.037.031c.111.045.223.089.333.136a.776.776,0,0,1,.1.066L2.4,4.447a.148.148,0,0,1-.141.009.87.87,0,0,0-.1-.028c-.3-.145-.343-.158-.484-.143a.729.729,0,0,0,.393.187l.124.079-.171.127-.38.193L1.595,4.9h0l-.066.039-.061.017-.047.027h0c-.05.029-.05.056,0,.079l.041,0,.051-.027a.047.047,0,0,0,.036-.015L1.6,4.985a.043.043,0,0,0,.037-.014l.046-.029.04-.016L1.77,4.9l.3-.165.2-.093.049.047L2.312,4.8l-.086.374c-.02.024-.037.047.006.064ZM1.879,5.7H1.867l0,.012Z" transform="matrix(-0.998, -0.07, 0.07, -0.998, 706.123, 5265.297)" fill="#a759f6"/>
    <g id="南瓜" transform="translate(554.469 5268.717)">
      <path id="路径_16768" data-name="路径 16768" d="M1229.573-148.243c.025-.123.075-.241.092-.366.034-.258-.151-.422-.405-.5-3.225-8.1-15.731-23.53-30.258-18.021-7.369-6.356-17.648-6.649-27.989-3.233-3.358,1.109-3.859.321-7.291-.479a29.311,29.311,0,0,0-8.982-.637,23.087,23.087,0,0,0-12.882,4.993c.082-.066-4.122-1.1-4.575-1.148-4.885-.473-10.475,1.973-13.72,4.572-5.452,4.365-8.906,10.762-11.086,16.456-.876,2.289-1.424,4.948,1.33,6.493a69.12,69.12,0,0,0,9.3,4.391c13.315,5.1,25.885,8.228,41.329,7.893a160.7,160.7,0,0,0,40.387-6.111c8.526-2.423,22.257-6.561,24.545-13.5A.8.8,0,0,0,1229.573-148.243Z" transform="translate(-1108.693 197.153)" fill="#c9431f"/>
      <path id="路径_16774" data-name="路径 16774" d="M1167.167-162.3a126.984,126.984,0,0,0-27.6.461c-19.662,2.8-29.766,16.776-31.57,30.689a41.877,41.877,0,0,0,2.974,21.046c2.4,5.854,6.507,12.294,13.2,16.052,6.544,3.673,14.882,4.51,22.871,4.342.938-.02,1.339-.817,1.036-1.349a1.48,1.48,0,0,0,1.385-.922c3.787-11.5,9.365-22.591,13.595-33.993,4.265-11.5,3.819-23.319,7.625-34.77C1171.224-162.377,1168.542-163.148,1167.167-162.3Z" transform="translate(-1107.687 193.656)" fill="#dd5a31"/>
      <path id="路径_18895" data-name="路径 18895" d="M0,20.388S7.342,10.848,3.019,1.5L7.541,0s9.867,10.7,6.179,20.822S1.755,25.279,1.755,25.279Z" transform="translate(59.091 9.283) rotate(11)" fill="#722803"/>
      <path id="路径_16775" data-name="路径 16775" d="M1128.659-156.1c1.095-.76,2.234-1.472,3.382-2.173.529-.324,1.151-.658,1.716-1.038a34.824,34.824,0,0,0-25.607,29.146,3.667,3.667,0,0,0,1.227,1.148c2.489,1.445,5.33-.1,6.684-1.965,2.453-3.38,2.745-7.482,3.565-11.293a25.738,25.738,0,0,1,3.408-8.427A20.159,20.159,0,0,1,1128.659-156.1Z" transform="translate(-1107.802 192.39)" fill="#f47c40"/>
      <path id="路径_16776" data-name="路径 16776" d="M1241.341-136.582a50.735,50.735,0,0,0-3.6-9.935c-5.493-11.427-20.677-15.584-35.523-17.6-2.589-.351-7.555-.08-7.011,2.588,1.634,8,4.3,15.844,6.138,23.806,2.854,12.376,5.673,24.919,8.409,37.373.542,2.469,1.234,7.08,6.053,6.427,6.875-.933,13.445-3.03,17.61-7.385,4.585-4.794,6.979-11.121,8.22-16.861A40.94,40.94,0,0,0,1241.341-136.582Z" transform="translate(-1116.748 194.164)" fill="#dd5a31"/>
      <path id="路径_16777" data-name="路径 16777" d="M1210.061-157.721c-5.783-5.053-13.344-8.786-21.8-8.679-2.918.037-5.629.765-8.506,1.04-4.454.425-8.887.985-13.353,1.34-1.646.131-1.119,2.282-1.024,3.093.355,3.046-.534,6.071-.773,9.1a88.206,88.206,0,0,0,.021,12.6c.663,10.42,3.241,20.624,5.387,30.893a30.781,30.781,0,0,0,4.8,11.718,9.166,9.166,0,0,0,1.956,2.271,11.261,11.261,0,0,0,2.3,1.245,40.43,40.43,0,0,0,16.76,3.771,28.8,28.8,0,0,0,18.622-7c5.438-4.8,7.924-10.753,9.108-17.235a54.9,54.9,0,0,0-1.947-26.03A39.376,39.376,0,0,0,1210.061-157.721Z" transform="translate(-1109.157 194.944)" fill="#dd5a31"/>
      <path id="路径_16778" data-name="路径 16778" d="M1223.52-139.835c1.769-2.4.121-5.919-.69-8.32a23.348,23.348,0,0,0-6.157-9.847,36.679,36.679,0,0,0-7.649-5.368,29.86,29.86,0,0,0-13.289-3.03c-.354,0-.705.02-1.053.043a1.309,1.309,0,0,0,.6.337l.117.031c.042.012.081.013.123.021,3.638,3.044,7.612,6.013,10.32,9.7,3.262,4.445,5.115,9.352,7.432,14.145C1214.92-138.711,1220.335-135.524,1223.52-139.835Z" transform="translate(-1119.339 194.944)" fill="#f47c40"/>
      <path id="路径_16779" data-name="路径 16779" d="M1171.339-161.883c-2.138-3.43-7.466-4.02-11.878-3.945a39.822,39.822,0,0,0-17.024,3.647c-8.684,4.245-12.986,11.978-14.891,19.476-3.883,15.29-2.661,34.013,9.715,46.961a19.773,19.773,0,0,0,6.539,4.62,35.937,35.937,0,0,0,16.612,2.85c11.583-1.092,13.137-12.075,13.829-20.039.656-7.543-.011-15.037-.261-22.574,0-.068,0-.137-.006-.205-.148-5.858-.365-11.714-.771-17.565C1172.925-152.666,1173.692-158.109,1171.339-161.883Z" transform="translate(-1112.102 194.739)" fill="#dd5a31"/>
      <path id="路径_16780" data-name="路径 16780" d="M1143.416-161.989a15.529,15.529,0,0,0-1.914,1.809c-7.609,6.242-12.682,16.483-10.783,24.891,1.762,7.8,12.784,10.5,14.541,1.335,1.154-6.011-.755-11.845,1.888-17.7a23.014,23.014,0,0,1,6.468-8.1c1.465-1.239,3.964-2.729,3.953-4.764a2.859,2.859,0,0,0-.19-1.064,37.455,37.455,0,0,0-13.775,3.489C1143.54-162.057,1143.48-162.021,1143.416-161.989Z" transform="translate(-1110.789 194.647)" fill="#f47c40"/>
      <path id="路径_16781" data-name="路径 16781" d="M1199.674-134.558a78.358,78.358,0,0,0-2.348-13.7c-1.85-6.788-5.45-14.861-13.989-17.254a19.12,19.12,0,0,0-4.552-.674,21.186,21.186,0,0,0-9.124,1.649c-8.689,3.845-11.374,13.376-12.311,20.331a124.126,124.126,0,0,0,.776,36.151c1.327,8.314,4.672,18.718,17.615,19.881,5.932.533,13.272.159,17.256-3.656,5.185-4.965,6.462-11.6,6.8-18A175.64,175.64,0,0,0,1199.674-134.558Z" transform="translate(-1113.089 194.872)" fill="#dd5a31"/>
      <path id="路径_16782" data-name="路径 16782" d="M1195.595-139.649a11.965,11.965,0,0,0,.014-8.218,45.218,45.218,0,0,0-5.034-10.946c-1.95-2.959-4.581-6.765-8.857-7.254a22.175,22.175,0,0,0-9.816,1.093,1.725,1.725,0,0,0,.471.374,40.729,40.729,0,0,1-3.023,3.152,30.67,30.67,0,0,0-2.572,3.476,33.945,33.945,0,0,0-3.6,7.678,44.42,44.42,0,0,0-1.954,16.585q.095,1.549.283,3.092c.891,7.3,6.2,18.412,16.049,19.507a13.476,13.476,0,0,0,10.327-3.334,13.114,13.114,0,0,0,3.816-7.664c.75-4.577-1.251-9.659,1.812-13.8A15.35,15.35,0,0,0,1195.595-139.649Z" transform="translate(-1114.415 194.874)" fill="#f47c40"/>
      <path id="路径_16783" data-name="路径 16783" d="M1202.591-165.811c3.426,1.322,7.024,2.072,10.271,3.84a28.46,28.46,0,0,1,9.507,8.331c.38.524,1.3.063.969-.482a32.231,32.231,0,0,0-7.622-8.407c-2.063-.505-4.17-.945-6.3-1.32A30.6,30.6,0,0,0,1202.591-165.811Z" transform="translate(-1121.417 194.731)" fill="#c9431f"/>
      <path id="路径_16784" data-name="路径 16784" d="M1237.552-121.454c-.423,8.582,1.178,17.212-1.327,25.642-1.812,6.1-4.452,12.738-9.164,17.784a27.016,27.016,0,0,0,2.185-1.608c.845-.214,1.669-.462,2.48-.727a55.664,55.664,0,0,0,6.049-13.33c3.046-9.056,1.786-18.617.132-27.8C1237.876-121.672,1237.56-121.619,1237.552-121.454Z" transform="translate(-1124.615 178.805)" fill="#c9431f"/>
      <path id="路径_16785" data-name="路径 16785" d="M1145.962-71.117c-6.319-4.172-11.137-10.956-14.783-16.773-4.421-7.051-4.671-16.833-5.731-24.634-.032-.23-.441-.244-.435,0,.215,8.2-.457,18.146,4.175,25.622a125.857,125.857,0,0,0,8.852,11.848,29.96,29.96,0,0,0,2.576,2.854c1.14.158,2.29.287,3.45.374Q1145-71.453,1145.962-71.117Z" transform="translate(-1111.961 175.598)" fill="#c9431f"/>
      <path id="路径_16786" data-name="路径 16786" d="M1148.74-163.46a33.855,33.855,0,0,0-4.021,1.373l-.163.02q-1.867.266-3.619.665c-1,.917-1.922,1.852-2.775,2.7-4.836,4.788-8.61,9.678-10.223,15.914-.1.4.61.576.734.171C1131.156-150.76,1139.664-159.312,1148.74-163.46Z" transform="translate(-1112.68 193.884)" fill="#c9431f"/>
      <g id="组_5128" data-name="组 5128" transform="translate(43.799 28.583)">
        <path id="路径_16787" data-name="路径 16787" d="M1195.079-164.83c-.813-.5-1.7-1.01-2.638-1.507-1.2.072-2.375.239-3.545.425a20.1,20.1,0,0,0-3.019-.328c-.25-.008-.5,0-.75,0a24.337,24.337,0,0,1,11.181,5.073c4.547,3.751,6.373,10.768,8.489,15.687.134.311.7.189.594-.139C1203.066-152.46,1202.339-160.377,1195.079-164.83Z" transform="translate(-1164.098 166.337)" fill="#c9431f"/>
        <path id="路径_16788" data-name="路径 16788" d="M1172.886-165.4a24.077,24.077,0,0,0-3.232-.359,31.585,31.585,0,0,0-12.432,17.514c-.082.308.453.436.559.131,1.879-5.432,6.515-9.783,10.925-13.887a19.271,19.271,0,0,1,5.554-3.688C1173.8-165.605,1173.338-165.511,1172.886-165.4Z" transform="translate(-1157.214 166.128)" fill="#c9431f"/>
      </g>
      <path id="路径_16789" data-name="路径 16789" d="M1171.581-65.982c-5.32-1.952-8.19-5.847-10.291-10.241-3.608-7.546-6.013-16.587-5.929-24.7,0-.12-.206-.117-.217,0a55.052,55.052,0,0,0,4.012,25.336,22.319,22.319,0,0,0,5.347,8.051,13.074,13.074,0,0,0,4.256,2.453,15.744,15.744,0,0,0,2.154-.481,21.166,21.166,0,0,0,4.14.83C1174.074-65.211,1173-65.463,1171.581-65.982Z" transform="translate(-1114.563 171.386)" fill="#c9431f"/>
      <path id="路径_16790" data-name="路径 16790" d="M1210.7-95.877c.02-.3-.5-.285-.543,0-1.2,7.623-1.773,15.682-3.844,23.159a14.476,14.476,0,0,1-6.112,8.463,33.893,33.893,0,0,0,3.573.23C1210.874-72.294,1210.046-85.771,1210.7-95.877Z" transform="translate(-1122.018 169.616)" fill="#c9431f"/>
      <path id="路径_16791" data-name="路径 16791" d="M1248.017-135.061a50.736,50.736,0,0,0-3.6-9.935c-3.825-7.955-12.348-12.382-22.182-15.02.233.138.466.276.691.42a46.414,46.414,0,0,1,8.685,7.411,34.382,34.382,0,0,1,5.575,7.77,24.973,24.973,0,0,1,1.757,4.391c.411,1.418.4,2.9,1.439,4.149a6.1,6.1,0,0,0,4.947,1.987,5.1,5.1,0,0,0,2.734-.946C1248.049-134.909,1248.036-134.985,1248.017-135.061Z" transform="translate(-1123.425 192.643)" fill="#f47c40"/>
      <g id="组_5129" data-name="组 5129" transform="translate(52.494 97.724)">
        <path id="路径_16792" data-name="路径 16792" d="M1175.026-53.2a3.489,3.489,0,0,0-2.494-1.074,2.96,2.96,0,0,0-2.281,1.109,2.826,2.826,0,0,0,1.211,3.952,3.069,3.069,0,0,0,3.531-.53A2.218,2.218,0,0,0,1175.026-53.2Z" transform="translate(-1169.832 56.827)" fill="#c9431f"/>
        <path id="路径_16793" data-name="路径 16793" d="M1180.372-57.659a1.958,1.958,0,0,0-1.4-.6,1.66,1.66,0,0,0-1.279.622,1.584,1.584,0,0,0,.679,2.215,1.722,1.722,0,0,0,1.979-.3A1.244,1.244,0,0,0,1180.372-57.659Z" transform="translate(-1171.713 58.262)" fill="#c9431f"/>
        <path id="路径_16794" data-name="路径 16794" d="M1182.318-50.847a1.124,1.124,0,0,0-.8-.347.956.956,0,0,0-.736.358.911.911,0,0,0,.391,1.274.99.99,0,0,0,1.138-.171A.715.715,0,0,0,1182.318-50.847Z" transform="translate(-1172.498 55.716)" fill="#c9431f"/>
      </g>
      <g id="组_5130" data-name="组 5130" transform="translate(67.834 68.786)">
        <path id="路径_16795" data-name="路径 16795" d="M1193.185-98.438a3.492,3.492,0,0,0-2.494-1.074,2.961,2.961,0,0,0-2.281,1.109,2.825,2.825,0,0,0,1.211,3.952,3.07,3.07,0,0,0,3.531-.53A2.218,2.218,0,0,0,1193.185-98.438Z" transform="translate(-1187.991 102.061)" fill="#dd5a31"/>
        <path id="路径_16796" data-name="路径 16796" d="M1198.531-102.892a1.953,1.953,0,0,0-1.4-.6,1.659,1.659,0,0,0-1.279.621,1.583,1.583,0,0,0,.679,2.215,1.722,1.722,0,0,0,1.979-.3A1.243,1.243,0,0,0,1198.531-102.892Z" transform="translate(-1189.872 103.495)" fill="#dd5a31"/>
        <path id="路径_16797" data-name="路径 16797" d="M1200.477-96.081a1.126,1.126,0,0,0-.8-.347.955.955,0,0,0-.736.358.912.912,0,0,0,.391,1.275.991.991,0,0,0,1.138-.171A.715.715,0,0,0,1200.477-96.081Z" transform="translate(-1190.657 100.949)" fill="#dd5a31"/>
      </g>
      <g id="组_5131" data-name="组 5131" transform="translate(100.905 88.515)">
        <path id="路径_16798" data-name="路径 16798" d="M1228.395-66.067a3.635,3.635,0,0,0-2.646.771,2.15,2.15,0,0,0-.653,2.162c.451,1.473,2.5,2.316,4.182,2.016a2.364,2.364,0,0,0,2.013-2.52A2.729,2.729,0,0,0,1228.395-66.067Z" transform="translate(-1225.015 70.284)" fill="#c9431f"/>
        <path id="路径_16799" data-name="路径 16799" d="M1228.7-72.654a2.038,2.038,0,0,0-1.483.432,1.207,1.207,0,0,0-.366,1.212,2.109,2.109,0,0,0,2.344,1.13,1.325,1.325,0,0,0,1.128-1.412A1.53,1.53,0,0,0,1228.7-72.654Z" transform="translate(-1225.457 72.656)" fill="#c9431f"/>
        <path id="路径_16800" data-name="路径 16800" d="M1234.818-69.113a1.176,1.176,0,0,0-.854.249.693.693,0,0,0-.21.7,1.213,1.213,0,0,0,1.349.651.763.763,0,0,0,.649-.812A.88.88,0,0,0,1234.818-69.113Z" transform="translate(-1227.164 71.38)" fill="#c9431f"/>
      </g>
      <g id="组_5132" data-name="组 5132" transform="translate(15.242 79.567)">
        <path id="路径_16801" data-name="路径 16801" d="M1132.019-80.835a3.011,3.011,0,0,0-1.9,1.741,2.145,2.145,0,0,0,.627,2.167,4.131,4.131,0,0,0,4.808.1,2.072,2.072,0,0,0,.372-3.028A3.2,3.2,0,0,0,1132.019-80.835Z" transform="translate(-1128.441 84.652)" fill="#c9431f"/>
        <path id="路径_16802" data-name="路径 16802" d="M1129.032-86.487a1.689,1.689,0,0,0-1.067.976,1.2,1.2,0,0,0,.352,1.215,2.315,2.315,0,0,0,2.694.056,1.161,1.161,0,0,0,.209-1.7A1.793,1.793,0,0,0,1129.032-86.487Z" transform="translate(-1127.92 86.644)" fill="#c9431f"/>
        <path id="路径_16803" data-name="路径 16803" d="M1136.021-86.095a.973.973,0,0,0-.613.562.691.691,0,0,0,.2.7,1.332,1.332,0,0,0,1.55.032.668.668,0,0,0,.12-.976A1.032,1.032,0,0,0,1136.021-86.095Z" transform="translate(-1129.76 86.479)" fill="#c9431f"/>
      </g>
      <g id="组_5133" data-name="组 5133" transform="translate(14.223 93.25)">
        <path id="路径_16804" data-name="路径 16804" d="M1129.233-64.909a2.082,2.082,0,0,0-1.526-.3,1.5,1.5,0,0,0-1.067.862,1.7,1.7,0,0,0,1.281,2.013,1.636,1.636,0,0,0,1.838-.689A1.271,1.271,0,0,0,1129.233-64.909Z" transform="translate(-1126.567 65.255)" fill="#c9431f"/>
        <path id="路径_16805" data-name="路径 16805" d="M1132.692-58.719a1.2,1.2,0,0,0-.878-.173.863.863,0,0,0-.614.5.977.977,0,0,0,.738,1.158.94.94,0,0,0,1.057-.4A.732.732,0,0,0,1132.692-58.719Z" transform="translate(-1127.699 62.972)" fill="#c9431f"/>
      </g>
      <g id="组_5134" data-name="组 5134" transform="translate(80.982 77.841)">
        <path id="路径_16806" data-name="路径 16806" d="M1207.83-88.02a1.539,1.539,0,0,0-.808-1.141,1.837,1.837,0,0,0-1.471-.05,1.6,1.6,0,0,0-.81,2.183,1.649,1.649,0,0,0,1.863.641A1.4,1.4,0,0,0,1207.83-88.02Z" transform="translate(-1204.273 89.341)" fill="#c9431f"/>
        <path id="路径_16807" data-name="路径 16807" d="M1206.049-81.236a.887.887,0,0,0-.465-.656,1.057,1.057,0,0,0-.847-.029.923.923,0,0,0-.466,1.256.95.95,0,0,0,1.072.368A.807.807,0,0,0,1206.049-81.236Z" transform="translate(-1204.174 86.695)" fill="#c9431f"/>
      </g>
      <g id="组_5135" data-name="组 5135" transform="translate(115.775 66.325)">
        <path id="路径_16808" data-name="路径 16808" d="M1247.782-106.568a1.854,1.854,0,0,0-1.282-.766,1.737,1.737,0,0,0-1.37.459,1.548,1.548,0,0,0,.3,2.275,1.739,1.739,0,0,0,2.008-.052A1.255,1.255,0,0,0,1247.782-106.568Z" transform="translate(-1244.753 107.342)" fill="#c9431f"/>
        <path id="路径_16809" data-name="路径 16809" d="M1248.768-99.563a1.062,1.062,0,0,0-.737-.441,1,1,0,0,0-.789.264.891.891,0,0,0,.17,1.309,1,1,0,0,0,1.156-.03A.722.722,0,0,0,1248.768-99.563Z" transform="translate(-1245.314 104.7)" fill="#c9431f"/>
      </g>
      <g id="组_5136" data-name="组 5136" transform="translate(18.208 56.252)">
        <path id="路径_16810" data-name="路径 16810" d="M1134.886-122.312a1.852,1.852,0,0,0-1.282-.767,1.737,1.737,0,0,0-1.37.459,1.549,1.549,0,0,0,.3,2.275,1.739,1.739,0,0,0,2.009-.052A1.255,1.255,0,0,0,1134.886-122.312Z" transform="translate(-1131.857 123.087)" fill="#dd5a31"/>
        <path id="路径_16811" data-name="路径 16811" d="M1135.872-115.308a1.063,1.063,0,0,0-.737-.441,1,1,0,0,0-.789.264.891.891,0,0,0,.17,1.309,1,1,0,0,0,1.156-.03A.722.722,0,0,0,1135.872-115.308Z" transform="translate(-1132.418 120.445)" fill="#dd5a31"/>
      </g>
      <path id="路径_16812" data-name="路径 16812" d="M1170.781-154.305c-5.436,6.376-6.288,15.7-5.161,23.248.075.5.9.526.942,0,.625-7.65,2.235-15.307,6.409-22.162C1173.732-154.47,1171.728-155.416,1170.781-154.305Z" transform="translate(-1116.722 190.763)" fill="#f7ad2b"/>
      <path id="路径_16813" data-name="路径 16813" d="M1144.763-155.545c-2.187.683-3.842,2.876-5,4.535a22.862,22.862,0,0,0-3.057,6.8c-.088.3.4.391.524.123a28.329,28.329,0,0,1,4.571-6.481c1.239-1.378,3.059-2.634,3.827-4.235C1145.831-155.22,1145.239-155.693,1144.763-155.545Z" transform="translate(-1112.22 191.042)" fill="#f7ad2b"/>
      <path id="路径_16814" data-name="路径 16814" d="M1121.361-143.862c-1.58.489-2.576,2.057-3.412,3.223a17.428,17.428,0,0,0-2.317,4.76c-.137.413.55.542.734.171a25.54,25.54,0,0,1,2.792-4.331c.848-1.089,2.3-2.118,2.715-3.388A.391.391,0,0,0,1121.361-143.862Z" transform="translate(-1109.643 186.83)" fill="#f7ad2b"/>
      <path id="路径_16815" data-name="路径 16815" d="M1218.229-151.557a23.734,23.734,0,0,0-3.951-6.339,14.043,14.043,0,0,0-3.061-2.294c-1.01-.589-2.066-1.471-3.339-1.4a.813.813,0,0,0-.851.723c-.019,1.971,3.4,2.616,4.913,3.709a27.174,27.174,0,0,1,5.56,5.861C1217.732-150.993,1218.412-151.185,1218.229-151.557Z" transform="translate(-1123.01 193.211)" fill="#f7ad2b"/>
      <path id="路径_16816" data-name="路径 16816" d="M1248.3-138.4a16.613,16.613,0,0,0-5.255-7.627c-.4-.328-1.161,0-.968.479a9,9,0,0,0,2.4,2.842,12.625,12.625,0,0,1,3.126,4.47C1247.76-137.867,1248.423-138.008,1248.3-138.4Z" transform="translate(-1128.311 187.65)" fill="#f7ad2b"/>
      <path id="路径_16817" data-name="路径 16817" d="M1177.534-160.509a.587.587,0,0,0-.521-.334.941.941,0,0,0-.969-.056c-1.046.514-1.922,1.72-1.443,2.738a.867.867,0,0,0,1.018.491,2.992,2.992,0,0,0,1.553-1.263C1177.464-159.343,1177.834-160.035,1177.534-160.509Z" transform="translate(-1118.439 193)" fill="#f7ad2b"/>
      <path id="路径_16818" data-name="路径 16818" d="M1150.306-159.275c-.724.2-1.82.791-1.761,1.539a1.073,1.073,0,0,0,1.8.541,3.343,3.343,0,0,0,.847-.923A.752.752,0,0,0,1150.306-159.275Z" transform="translate(-1114.277 192.391)" fill="#f7ad2b"/>
    </g>
    <g id="元素" transform="translate(-1092.203 2487)">
      <g id="join_us" data-name="join us" transform="translate(1604.458 2719.504)">
        <g id="组_4315" data-name="组 4315" transform="translate(170.652 97.934)">
          <path id="路径_12774" data-name="路径 12774" d="M386.776,202.688a.985.985,0,0,0-.735.431,12.349,12.349,0,0,0-1.085,1.506c-.2.374-.4.764-.567,1.159.13.247.016.59.414.667a.549.549,0,0,0,.661-.273c.158-.3.327-.6.478-.9A6.12,6.12,0,0,1,387.1,203.3a.344.344,0,0,0,.054-.457C387.074,202.693,386.947,202.674,386.776,202.688Z" transform="translate(-376.266 -202.684)" fill="#8618ef"/>
          <path id="路径_12775" data-name="路径 12775" d="M374.933,212.212c.258-.022.453.017.456-.269,0-.259-.158-.376-.453-.431a11.627,11.627,0,0,0-3.044.008c-.345.113-1.017-.024-1.564.391-.154.117-.3.228-.263.449s.232.113.358.155a2.344,2.344,0,0,0,1.455-.108A15.391,15.391,0,0,1,374.933,212.212Z" transform="translate(-370.059 -206.465)" fill="#8618ef"/>
          <path id="路径_12776" data-name="路径 12776" d="M377.78,215.527a8.843,8.843,0,0,0-1.975,1.524c-.219.3-.632.482-.592.866.01.292.054.49.265.591s.32-.107.454-.211c.261-.2.392-.522.669-.724.583-.426,1.122-.913,1.71-1.332.325-.232.116-.434.014-.609A.372.372,0,0,0,377.78,215.527Z" transform="translate(-372.29 -208.214)" fill="#8618ef"/>
          <path id="路径_12777" data-name="路径 12777" d="M388.24,211.016a.425.425,0,0,0-.18.647c.148.243.431.337.611.139a1.688,1.688,0,0,1,.879-.392,6.822,6.822,0,0,1,1.2-.395c.322-.045.624-.3.987-.261.239.029.338-.092.408-.32-.117-.147-.155-.346-.452-.363a7.065,7.065,0,0,0-1.7.327A11.369,11.369,0,0,0,388.24,211.016Z" transform="translate(-377.822 -205.882)" fill="#8618ef"/>
          <path id="路径_12778" data-name="路径 12778" d="M392.379,218.075a5.615,5.615,0,0,1-2.057-.628.637.637,0,0,0-.71-.015c-.113.071-.222.164-.179.316.082.289.338.374.584.464a.366.366,0,0,0,.163.03,1.289,1.289,0,0,1,.807.285,3.65,3.65,0,0,0,1.682.648c.221,0,.452.019.564-.241.1-.234-.039-.361-.189-.523A.956.956,0,0,0,392.379,218.075Z" transform="translate(-378.447 -209.028)" fill="#8618ef"/>
          <path id="路径_12779" data-name="路径 12779" d="M379.7,205.891a16.908,16.908,0,0,1-1.749-2.063c-.152-.209-.392-.4-.665-.2-.258.19-.185.461-.043.7a29.741,29.741,0,0,0,1.96,2.353.287.287,0,0,0,.4.067c.131-.094.3-.173.248-.419C379.811,206.2,379.807,205.995,379.7,205.891Z" transform="translate(-373.116 -203.057)" fill="#8618ef"/>
          <path id="路径_12780" data-name="路径 12780" d="M385.012,223.373c.365.009.347-.349.335-.622a11.669,11.669,0,0,0-.052-1.642,1.55,1.55,0,0,1,.091-1.025.556.556,0,0,0-.287-.822c-.251-.118-.473.139-.624.4a.833.833,0,0,0-.074.464c-.027.879.324,1.72.225,2.611C384.6,222.953,384.69,223.365,385.012,223.373Z" transform="translate(-376.27 -209.852)" fill="#8618ef"/>
        </g>
        <g id="组_4316" data-name="组 4316" transform="translate(18.302 85.38) rotate(82)">
          <path id="路径_12774-2" data-name="路径 12774" d="M2.193,0a.9.9,0,0,0-.675.4,11.363,11.363,0,0,0-1,1.383c-.183.344-.372.7-.521,1.065.12.227.015.542.38.613A.5.5,0,0,0,.988,3.21c.145-.277.3-.552.439-.828A5.622,5.622,0,0,1,2.488.565a.316.316,0,0,0,.05-.42C2.466.008,2.349-.009,2.193,0Z" transform="translate(7.464 0)" fill="#8618ef"/>
          <path id="路径_12775-2" data-name="路径 12775" d="M4.479.734c.237-.02.416.016.419-.247,0-.238-.145-.345-.416-.4A10.68,10.68,0,0,0,1.685.1C1.368.2.751.077.248.458.106.566-.032.668.006.871s.214.1.329.142a2.153,2.153,0,0,0,1.336-.1A14.143,14.143,0,0,1,4.479.734Z" transform="translate(0 4.546)" fill="#8618ef"/>
          <path id="路径_12776-2" data-name="路径 12776" d="M2.361.07A8.113,8.113,0,0,0,.546,1.47c-.2.271-.58.443-.544.8.009.268.05.451.243.543s.294-.1.417-.194c.24-.188.36-.48.615-.666C1.814,1.558,2.309,1.11,2.849.725c.3-.213.107-.4.012-.56A.342.342,0,0,0,2.361.07Z" transform="translate(2.683 6.649)" fill="#8618ef"/>
          <path id="路径_12777-2" data-name="路径 12777" d="M.237.871a.391.391,0,0,0-.165.594c.136.223.4.309.561.128a1.55,1.55,0,0,1,.808-.36A6.261,6.261,0,0,1,2.54.87c.3-.042.573-.28.907-.24.22.027.311-.084.375-.294C3.714.2,3.68.019,3.406,0A6.491,6.491,0,0,0,1.842.3,10.436,10.436,0,0,0,.237.871Z" transform="translate(9.334 3.846)" fill="#8618ef"/>
          <path id="路径_12778-2" data-name="路径 12778" d="M2.715.684A5.16,5.16,0,0,1,.826.107.585.585,0,0,0,.173.093c-.1.065-.2.151-.164.29.075.265.31.344.536.426A.336.336,0,0,0,.695.837a1.184,1.184,0,0,1,.742.262,3.352,3.352,0,0,0,1.546.6c.2,0,.416.018.518-.222.092-.215-.036-.332-.174-.481A.878.878,0,0,0,2.715.684Z" transform="translate(10.086 7.628)" fill="#8618ef"/>
          <path id="路径_12779-2" data-name="路径 12779" d="M2.375,2.155A15.546,15.546,0,0,1,.769.259C.628.067.409-.106.158.079S-.012.5.119.719a27.309,27.309,0,0,0,1.8,2.162.264.264,0,0,0,.367.061c.12-.087.278-.159.228-.385C2.475,2.438,2.471,2.25,2.375,2.155Z" transform="translate(3.676 0.449)" fill="#8618ef"/>
          <path id="路径_12780-2" data-name="路径 12780" d="M.564,3.8c.335.008.319-.32.307-.571A10.727,10.727,0,0,0,.823,1.724,1.424,1.424,0,0,1,.907.782.511.511,0,0,0,.643.027C.413-.082.209.155.07.392A.766.766,0,0,0,0,.819c-.024.807.3,1.58.207,2.4C.186,3.418.268,3.8.564,3.8Z" transform="translate(7.468 8.619)" fill="#8618ef"/>
        </g>
        <g id="组_4317" data-name="组 4317" transform="translate(16.321 142.096) rotate(16)">
          <path id="路径_12781" data-name="路径 12781" d="M.443,3.9h0a.445.445,0,0,0,.443-.443V.443A.445.445,0,0,0,.443,0h0A.445.445,0,0,0,0,.443V3.458A.445.445,0,0,0,.443,3.9Z" transform="translate(1.507 0)" fill="#a151f2"/>
          <path id="路径_12782" data-name="路径 12782" d="M0,.443H0A.444.444,0,0,0,.443.886H3.458A.444.444,0,0,0,3.9.443h0A.445.445,0,0,0,3.458,0H.443A.445.445,0,0,0,0,.443Z" transform="translate(0 1.507)" fill="#a151f2"/>
        </g>
        <g id="组_4318" data-name="组 4318" transform="translate(77.9 24) rotate(16)">
          <path id="路径_12781-2" data-name="路径 12781" d="M.9,7.875h0A.9.9,0,0,0,1.79,6.98V.895A.9.9,0,0,0,.9,0h0A.9.9,0,0,0,0,.895V6.98A.9.9,0,0,0,.9,7.875Z" transform="translate(3.042 0)" fill="#a151f2"/>
          <path id="路径_12782-2" data-name="路径 12782" d="M0,.895H0a.9.9,0,0,0,.894.895H6.98a.9.9,0,0,0,.9-.895h0A.9.9,0,0,0,6.98,0H.894A.9.9,0,0,0,0,.895Z" transform="translate(0 3.043)" fill="#a151f2"/>
        </g>
        <g id="椭圆_262" data-name="椭圆 262" transform="translate(17.099 115.599)" fill="none" stroke="#c19dd8" stroke-width="1">
          <circle cx="1.66" cy="1.66" r="1.66" stroke="none"/>
          <circle cx="1.66" cy="1.66" r="1.16" fill="none"/>
        </g>
        <g id="组_4562" data-name="组 4562" transform="translate(2.677 146.555)">
          <ellipse id="椭圆_313" data-name="椭圆 313" cx="15.012" cy="1.534" rx="15.012" ry="1.534" transform="translate(47 22.15)" fill="#47260f" opacity="0.1" style="mix-blend-mode: multiply;isolation: isolate"/>
          <g id="组_4561" data-name="组 4561" transform="translate(174.608 -13.821) rotate(137)">
            <path id="路径_13877" data-name="路径 13877" d="M563.168,443.065a23.594,23.594,0,0,0,.507,3.449,10.359,10.359,0,0,0-1.115-.344,14.365,14.365,0,0,0-4.926-.281c-.477.049-.956.119-1.436.2a.487.487,0,0,0-.294.64c1.385,2.228,2.926,4.558,5.092,5.776a14.354,14.354,0,0,0-2.345,1.28c-.3.2-.583.406-.867.621a.244.244,0,0,0,.071.412,14.621,14.621,0,0,0,5.862.877,9.384,9.384,0,0,0,4.12-1.666c.491-.338.908-.765,1.372-1.136a.029.029,0,0,0,.013-.015s0,0,0-.006.006-.006.008-.01a6.065,6.065,0,0,0,.12-1.932,7.858,7.858,0,0,0-.337-1.82,9.369,9.369,0,0,0-1.777-3.183,13.639,13.639,0,0,0-2.808-2.511c-.293-.2-.594-.39-.9-.573A.244.244,0,0,0,563.168,443.065Z" transform="translate(-555.862 -442.816)" fill="#ffc217"/>
            <path id="路径_13878" data-name="路径 13878" d="M563.524,442.845a.244.244,0,0,0-.356.22,23.594,23.594,0,0,0,.507,3.449,10.359,10.359,0,0,0-1.115-.344,14.365,14.365,0,0,0-4.926-.281c-.477.049-.956.119-1.436.2a.487.487,0,0,0-.294.64l.251.4a11.813,11.813,0,0,1,3.533,1.847,12.526,12.526,0,0,1,3.358,3.606,3.021,3.021,0,0,1,.448,1.343,1.58,1.58,0,0,1-.711,1.382,4.366,4.366,0,0,1-.879.407,8.683,8.683,0,0,0,1.813-.02,9.384,9.384,0,0,0,4.12-1.666c.491-.338.908-.765,1.372-1.136a.029.029,0,0,0,.013-.015s0,0,0-.006.006-.006.008-.01a6.065,6.065,0,0,0,.12-1.932,7.858,7.858,0,0,0-.337-1.82,9.369,9.369,0,0,0-1.777-3.183,13.639,13.639,0,0,0-2.808-2.511C564.13,443.217,563.829,443.028,563.524,442.845Z" transform="translate(-555.862 -442.816)" fill="#f7ad2b"/>
            <path id="路径_13879" data-name="路径 13879" d="M564.425,443.418c-.293-.2-.594-.39-.9-.573a.244.244,0,0,0-.356.22,23.627,23.627,0,0,0,.507,3.449,10.346,10.346,0,0,0-1.115-.344,14.365,14.365,0,0,0-4.926-.281c-.477.049-.956.119-1.436.2a.5.5,0,0,0-.334.489,71.8,71.8,0,0,1,13.247,6.4c.033-.027.064-.056.1-.083a.03.03,0,0,0,.013-.015s0,0,0-.006.006-.006.007-.01a6.062,6.062,0,0,0,.12-1.932,7.864,7.864,0,0,0-.337-1.82,9.371,9.371,0,0,0-1.777-3.183A13.642,13.642,0,0,0,564.425,443.418Z" transform="translate(-555.864 -442.816)" fill="#ea9a1b"/>
            <path id="路径_13880" data-name="路径 13880" d="M568.437,443.065a24.718,24.718,0,0,0,.463,3.241,2.766,2.766,0,0,1,.043-1.129.712.712,0,0,1,.731-.523,3.749,3.749,0,0,1,1.637.644,6.779,6.779,0,0,1,1.406,1.028c.145.143.281.293.415.445-.2-.291-.407-.573-.632-.842a13.637,13.637,0,0,0-2.808-2.511c-.294-.2-.594-.39-.9-.573A.244.244,0,0,0,568.437,443.065Z" transform="translate(-561.132 -442.816)" fill="#ffc217"/>
            <path id="路径_13881" data-name="路径 13881" d="M559.952,450.771a88.073,88.073,0,0,1,12.114,6.676l.479-.751A101.465,101.465,0,0,0,559.952,450.771Z" transform="translate(-557.576 -446.15)" fill="#84182f"/>
          </g>
        </g>
      </g>
      <g transform="matrix(1, 0, 0, 1, 1611.5, 2744.34)" filter="url(#路径_12785)">
        <path id="路径_12785-2" data-name="路径 12785" d="M21.714,0A21.713,21.713,0,1,1,0,21.713,21.713,21.713,0,0,1,21.714,0Z" transform="translate(122.91 104.28)" fill="#a759f6"/>
      </g>
      <path id="路径_12773" data-name="路径 12773" d="M295.5,259.415h13.463v5.636l7.615-7.025L308.962,251v5.635H295.5Z" transform="translate(1449.766 2612.818)" fill="#fff" fill-rule="evenodd"/>
      <g id="组_5589" data-name="组 5589" transform="translate(1761.957 2615.666)">
        <path id="路径_13817" data-name="路径 13817" d="M-96.889,250.486a38.716,38.716,0,0,0-1.151,5.932,19.206,19.206,0,0,0-1.735-1.183,27.33,27.33,0,0,0-8.4-3.193c-.859-.185-1.733-.335-2.615-.467-.438-.062-.992.474-.889.885,1.1,4.419,2.4,9.092,5.453,12.287a27.933,27.933,0,0,0-4.834.8c-.631.161-1.252.342-1.872.536a.412.412,0,0,0-.12.716c2.924,1.961,6.112,3.992,9.678,4.69a18.253,18.253,0,0,0,8.145-.444c1.052-.28,2.029-.749,3.055-1.1.011,0,.024-.007.03-.018l0-.012.019-.012a10.187,10.187,0,0,0,1.346-3.1,12.725,12.725,0,0,0,.485-3.169,15.324,15.324,0,0,0-1.215-6.2,23.244,23.244,0,0,0-3.4-5.673c-.393-.492-.8-.968-1.226-1.437A.46.46,0,0,0-96.889,250.486Z" transform="translate(0 0)" fill="#ffc217"/>
        <path id="路径_13818" data-name="路径 13818" d="M-96.541,250.324a.474.474,0,0,0-.764.162,38.05,38.05,0,0,0-1.174,5.932,19.609,19.609,0,0,0-1.77-1.183,28.21,28.21,0,0,0-8.566-3.193c-.876-.185-1.768-.335-2.667-.467-.447-.062-1.012.474-.907.885.067.266.134.533.2.8a21.225,21.225,0,0,1,5.156,4.985,20.894,20.894,0,0,1,3.788,7.771,4.817,4.817,0,0,1-.013,2.449,2.861,2.861,0,0,1-2.089,1.868,8.837,8.837,0,0,1-1.8.18,17.347,17.347,0,0,0,3.228.973,18.97,18.97,0,0,0,8.306-.444c1.073-.28,2.069-.749,3.116-1.1.011,0,.025-.007.031-.018l0-.012.019-.012a10.086,10.086,0,0,0,1.373-3.1,12.5,12.5,0,0,0,.494-3.169,15.066,15.066,0,0,0-1.239-6.2,23.157,23.157,0,0,0-3.471-5.673C-95.691,251.269-96.111,250.793-96.541,250.324Z" transform="translate(0.285 0)" fill="#f7ad2b"/>
        <path id="路径_13819" data-name="路径 13819" d="M-95.3,251.793c-.4-.5-.821-.988-1.251-1.467a.47.47,0,0,0-.764.166,39.52,39.52,0,0,0-1.175,6.054,19.6,19.6,0,0,0-1.771-1.207,27.88,27.88,0,0,0-8.57-3.259c-.877-.189-1.769-.342-2.668-.477a.936.936,0,0,0-.886.628c7.838,5.561,15.511,13.585,19.657,18.2l.223-.083a.048.048,0,0,0,.031-.018l0-.013.019-.013a10.4,10.4,0,0,0,1.373-3.162,12.99,12.99,0,0,0,.495-3.234,15.642,15.642,0,0,0-1.24-6.325A23.722,23.722,0,0,0-95.3,251.793Z" transform="translate(0.291)" fill="#ea9a1b"/>
        <path id="路径_13820" data-name="路径 13820" d="M-104.286,250.418a32.846,32.846,0,0,0-.8,4.264,3.661,3.661,0,0,1,.533-1.4.944.944,0,0,1,1.138-.344,4.948,4.948,0,0,1,1.78,1.5,8.908,8.908,0,0,1,1.328,1.887c.122.24.228.486.332.733a13.775,13.775,0,0,0-.435-1.324,18.054,18.054,0,0,0-2.455-4.345c-.284-.377-.581-.741-.885-1.1A.324.324,0,0,0-104.286,250.418Z" transform="translate(9.235)" fill="#ffc217"/>
        <path id="路径_13821" data-name="路径 13821" d="M-110.449,252.871a116.7,116.7,0,0,1,12.36,13.523l.921-.739S-104.982,257.054-110.449,252.871Z" transform="translate(7.355 5.987)" fill="#84182f"/>
      </g>
    </g>
  </g>
</svg>
