<svg xmlns="http://www.w3.org/2000/svg" xmlns:xlink="http://www.w3.org/1999/xlink" width="188.473" height="211.083" viewBox="0 0 188.473 211.083"><defs><linearGradient id="a" x1="0.638" y1="2.449" x2="0.5" y2="-0.607" gradientUnits="objectBoundingBox"><stop offset="0" stop-color="#111ec5"/><stop offset="0.941" stop-color="#ad34d8"/><stop offset="1" stop-color="#6166ff"/></linearGradient><linearGradient id="b" x1="0.5" x2="0.5" y2="1" gradientUnits="objectBoundingBox"><stop offset="0" stop-color="#ac3efe"/><stop offset="1" stop-color="#6c7ffe"/></linearGradient><filter id="c" x="5.308" y="29.138" width="179.791" height="179.791" filterUnits="userSpaceOnUse"><feOffset dy="6" input="SourceAlpha"/><feGaussianBlur stdDeviation="6" result="d"/><feFlood flood-color="#535353" flood-opacity="0.329"/><feComposite operator="in" in2="d"/><feComposite in="SourceGraphic"/></filter><linearGradient id="e" x1="0.5" x2="0.5" y2="1" gradientUnits="objectBoundingBox"><stop offset="0" stop-color="#8763fe"/><stop offset="1" stop-color="#680adc"/></linearGradient><filter id="f" x="72.707" y="92.218" width="45.009" height="45.01" filterUnits="userSpaceOnUse"><feOffset dy="2" input="SourceAlpha"/><feGaussianBlur stdDeviation="2" result="g"/><feFlood flood-color="#7e2e00" flood-opacity="0.31"/><feComposite operator="in" in2="g"/><feComposite in="SourceGraphic"/></filter><radialGradient id="h" cx="0.5" cy="0.5" r="0.5" gradientUnits="objectBoundingBox"><stop offset="0" stop-color="#fff"/><stop offset="1" stop-color="#fceaa0"/></radialGradient><filter id="u" x="82.888" y="104.481" width="23.544" height="16.651" filterUnits="userSpaceOnUse"><feOffset dy="1" input="SourceAlpha"/><feGaussianBlur stdDeviation="1" result="v"/><feFlood flood-opacity="0.161"/><feComposite operator="in" in2="v"/><feComposite in="SourceGraphic"/></filter><filter id="w" x="125.946" y="149.657" width="61.428" height="61.426" filterUnits="userSpaceOnUse"><feOffset dy="4" input="SourceAlpha"/><feGaussianBlur stdDeviation="3" result="x"/><feFlood flood-color="#67573b" flood-opacity="0.431"/><feComposite operator="in" in2="x"/><feComposite in="SourceGraphic"/></filter></defs><g transform="translate(0 4)"><g transform="translate(-1604.458 -2682.964)"><g transform="translate(1627.766 2717.404)"><path d="M726.243,518.66a2.663,2.663,0,1,0-3.1,4.332,80.266,80.266,0,0,1,26.162,31.551,2.662,2.662,0,0,0,2.418,1.544,2.611,2.611,0,0,0,1.118-.248,2.663,2.663,0,0,0,1.3-3.534,85.684,85.684,0,0,0-27.9-33.647Z" transform="translate(-604.867 -513.449)" fill="#a85af8"/><path d="M767.727,519.1a2.663,2.663,0,1,0,4.1-3.4q-.041-.05-.085-.1a96.152,96.152,0,0,0-11.256-10.955,2.663,2.663,0,0,0-3.475,4.036c.028.024.056.047.085.07A91.65,91.65,0,0,1,767.727,519.1Z" transform="translate(-627.587 -504)" fill="#a859f7"/><path d="M812.718,561.284a2.663,2.663,0,0,0-4.365,3.052l.7,1.025a2.663,2.663,0,0,0,4.415-2.98h0Z" transform="translate(-662.147 -541.472)" fill="#a445fe"/><path d="M501.348,928.1h67.9l11.316,27.487H490.032Z" transform="translate(-463.402 -791.121)" fill="url(#a)"/><g transform="matrix(1, 0, 0, 1, -23.31, -38.44)" filter="url(#c)"><path d="M71.9,0A71.9,71.9,0,1,1,0,71.9,71.9,71.9,0,0,1,71.9,0Z" transform="translate(23.31 41.14)" fill="url(#b)"/></g><path d="M504.114,546.785a71.879,71.879,0,0,1-99.4,99.4,71.9,71.9,0,1,0,99.4-99.4Z" transform="translate(-393.169 -532.544)" fill="#7f44f5"/><circle cx="61.244" cy="61.244" r="61.244" transform="translate(10.651 13.349)" fill="#ffd33f"/><path d="M562.465,548.76a61.351,61.351,0,0,0-46.881,0l23.449,56.59Z" transform="translate(-467.137 -530.756)" fill="#ffc888"/><path d="M449.173,558.089a61.453,61.453,0,0,0-33.157,33.157l56.59,23.432Z" transform="translate(-400.71 -540.085)" fill="#feda9b"/><path d="M406.687,657.7a61.345,61.345,0,0,0,0,46.878l56.59-23.446Z" transform="translate(-391.381 -606.544)" fill="#ffc888"/><path d="M642.622,657.673l-56.59,23.433,56.59,23.432a61.352,61.352,0,0,0,0-46.881Z" transform="translate(-514.137 -606.512)" fill="#ffc888"/><path d="M722.488,657.673l-6,2.479a71.524,71.524,0,0,1-10.747,37.463l16.744,6.923a61.352,61.352,0,0,0,0-46.881Z" transform="translate(-594.003 -606.512)" fill="#f6ba74"/><path d="M642.622,591.246a61.452,61.452,0,0,0-33.157-33.157l-23.433,56.59Z" transform="translate(-514.137 -540.085)" fill="#feda9b"/><path d="M740.671,631.088A61.091,61.091,0,0,0,733,617.809a72.109,72.109,0,0,1,1.675,15.41v.349Z" transform="translate(-612.186 -579.928)" fill="#f5cb83"/><path d="M515.632,784.695a61.348,61.348,0,0,0,46.881,0L539.065,728.1Z" transform="translate(-467.169 -653.512)" fill="#ffc888"/><path d="M518.111,858.564l-2.479,6a61.349,61.349,0,0,0,46.881,0l-6.923-16.744a71.521,71.521,0,0,1-37.479,10.747Z" transform="translate(-467.169 -733.378)" fill="#f6ba74"/><path d="M609.465,784.695a61.449,61.449,0,0,0,33.157-33.157L586.032,728.1Z" transform="translate(-514.137 -653.512)" fill="#feda9b"/><path d="M658.969,777.7a72.193,72.193,0,0,1-23.337,23.337l6.923,16.744a61.452,61.452,0,0,0,33.157-33.157Z" transform="translate(-547.227 -686.602)" fill="#f5cb83"/><path d="M416.016,751.537a61.448,61.448,0,0,0,33.157,33.157l23.432-56.59Z" transform="translate(-400.71 -653.512)" fill="#feda9b"/><path d="M491.13,876.748a72.088,72.088,0,0,1-15.418-1.675A61.057,61.057,0,0,0,489,882.744l2.479-6Z" transform="translate(-440.536 -751.562)" fill="#f5cb83"/><path d="M585.788,702.337l-22.78-32.485,6.117,37.97Z" transform="translate(-505.531 -630.446)" fill="#7e4af4"/><g transform="matrix(1, 0, 0, 1, -23.31, -38.44)" filter="url(#f)"><g transform="translate(78.71 96.22)" fill="url(#e)"><path d="M 16.50450134277344 32.50951766967773 C 12.22955131530762 32.50951766967773 8.210461616516113 30.8447380065918 5.18761157989502 27.82183837890625 C 2.164761304855347 24.7989387512207 0.5000013709068298 20.77978897094727 0.5000013709068298 16.50475883483887 C 0.5000013709068298 12.22972869873047 2.164761304855347 8.210578918457031 5.18761157989502 5.187678813934326 C 8.210461616516113 2.1647789478302 12.22955131530762 0.4999988377094269 16.50450134277344 0.4999988377094269 C 20.77946090698242 0.4999988377094269 24.79854202270508 2.1647789478302 27.82139205932617 5.187678813934326 C 30.84424209594727 8.210578918457031 32.50900268554688 12.22972869873047 32.50900268554688 16.50475883483887 C 32.50900268554688 20.77978897094727 30.84424209594727 24.7989387512207 27.82139205932617 27.82183837890625 C 24.79854202270508 30.8447380065918 20.77946090698242 32.50951766967773 16.50450134277344 32.50951766967773 Z" stroke="none"/><path d="M 16.50450134277344 1 C 12.36310195922852 1 8.469581604003906 2.612768173217773 5.541172027587891 5.541229248046875 C 2.612751007080078 8.469688415527344 1 12.36327934265137 1 16.50475883483887 C 1 20.646240234375 2.612751007080078 24.53982925415039 5.541172027587891 27.46828842163086 C 8.469581604003906 30.39674949645996 12.36310195922852 32.00951766967773 16.50450134277344 32.00951766967773 C 20.64590072631836 32.00951766967773 24.53942108154297 30.39674949645996 27.46783065795898 27.46828842163086 C 30.3962516784668 24.53982925415039 32.00900268554688 20.646240234375 32.00900268554688 16.50475883483887 C 32.00900268554688 12.36327934265137 30.3962516784668 8.469688415527344 27.46783065795898 5.541229248046875 C 24.53942108154297 2.612768173217773 20.64590072631836 1 16.50450134277344 1 M 16.50450134277344 0 C 25.61969184875488 0 33.00900268554688 7.389429092407227 33.00900268554688 16.50475883483887 C 33.00900268554688 25.62008857727051 25.61969184875488 33.00951766967773 16.50450134277344 33.00951766967773 C 7.389310836791992 33.00951766967773 0 25.62008857727051 0 16.50475883483887 C 0 7.389429092407227 7.389310836791992 0 16.50450134277344 0 Z" stroke="none" fill="#fff"/></g></g></g><g transform="translate(1604.458 2714.504)"><g transform="translate(173.652 86.934)"><path d="M386.776,202.688a.985.985,0,0,0-.735.431,12.349,12.349,0,0,0-1.085,1.506c-.2.374-.4.764-.567,1.159.13.247.016.59.414.667a.549.549,0,0,0,.661-.273c.158-.3.327-.6.478-.9A6.12,6.12,0,0,1,387.1,203.3a.344.344,0,0,0,.054-.457C387.074,202.693,386.947,202.674,386.776,202.688Z" transform="translate(-376.266 -202.684)" fill="#8618ef"/><path d="M374.933,212.212c.258-.022.453.017.456-.269,0-.259-.158-.376-.453-.431a11.627,11.627,0,0,0-3.044.008c-.345.113-1.017-.024-1.564.391-.154.117-.3.228-.263.449s.232.113.358.155a2.344,2.344,0,0,0,1.455-.108A15.391,15.391,0,0,1,374.933,212.212Z" transform="translate(-370.059 -206.465)" fill="#8618ef"/><path d="M377.78,215.527a8.843,8.843,0,0,0-1.975,1.524c-.219.3-.632.482-.592.866.01.292.054.49.265.591s.32-.107.454-.211c.261-.2.392-.522.669-.724.583-.426,1.122-.913,1.71-1.332.325-.232.116-.434.014-.609A.372.372,0,0,0,377.78,215.527Z" transform="translate(-372.29 -208.214)" fill="#8618ef"/><path d="M388.24,211.016a.425.425,0,0,0-.18.647c.148.243.431.337.611.139a1.688,1.688,0,0,1,.879-.392,6.822,6.822,0,0,1,1.2-.395c.322-.045.624-.3.987-.261.239.029.338-.092.408-.32-.117-.147-.155-.346-.452-.363a7.065,7.065,0,0,0-1.7.327A11.369,11.369,0,0,0,388.24,211.016Z" transform="translate(-377.822 -205.882)" fill="#8618ef"/><path d="M392.379,218.075a5.615,5.615,0,0,1-2.057-.628.637.637,0,0,0-.71-.015c-.113.071-.222.164-.179.316.082.289.338.374.584.464a.366.366,0,0,0,.163.03,1.289,1.289,0,0,1,.807.285,3.65,3.65,0,0,0,1.682.648c.221,0,.452.019.564-.241.1-.234-.039-.361-.189-.523A.956.956,0,0,0,392.379,218.075Z" transform="translate(-378.447 -209.028)" fill="#8618ef"/><path d="M379.7,205.891a16.908,16.908,0,0,1-1.749-2.063c-.152-.209-.392-.4-.665-.2-.258.19-.185.461-.043.7a29.741,29.741,0,0,0,1.96,2.353.287.287,0,0,0,.4.067c.131-.094.3-.173.248-.419C379.811,206.2,379.807,205.995,379.7,205.891Z" transform="translate(-373.116 -203.057)" fill="#8618ef"/><path d="M385.012,223.373c.365.009.347-.349.335-.622a11.669,11.669,0,0,0-.052-1.642,1.55,1.55,0,0,1,.091-1.025.556.556,0,0,0-.287-.822c-.251-.118-.473.139-.624.4a.833.833,0,0,0-.074.464c-.027.879.324,1.72.225,2.611C384.6,222.953,384.69,223.365,385.012,223.373Z" transform="translate(-376.27 -209.852)" fill="#8618ef"/></g><g transform="translate(12.302 80.38) rotate(82)"><path d="M2.193,0a.9.9,0,0,0-.675.4,11.363,11.363,0,0,0-1,1.383c-.183.344-.372.7-.521,1.065.12.227.015.542.38.613A.5.5,0,0,0,.988,3.21c.145-.277.3-.552.439-.828A5.622,5.622,0,0,1,2.488.565a.316.316,0,0,0,.05-.42C2.466.008,2.349-.009,2.193,0Z" transform="translate(7.464 0)" fill="#8618ef"/><path d="M4.479.734c.237-.02.416.016.419-.247,0-.238-.145-.345-.416-.4A10.68,10.68,0,0,0,1.685.1C1.368.2.751.077.248.458.106.566-.032.668.006.871s.214.1.329.142a2.153,2.153,0,0,0,1.336-.1A14.143,14.143,0,0,1,4.479.734Z" transform="translate(0 4.546)" fill="#8618ef"/><path d="M2.361.07A8.113,8.113,0,0,0,.546,1.47c-.2.271-.58.443-.544.8.009.268.05.451.243.543s.294-.1.417-.194c.24-.188.36-.48.615-.666C1.814,1.558,2.309,1.11,2.849.725c.3-.213.107-.4.012-.56A.342.342,0,0,0,2.361.07Z" transform="translate(2.683 6.649)" fill="#8618ef"/><path d="M.237.871a.391.391,0,0,0-.165.594c.136.223.4.309.561.128a1.55,1.55,0,0,1,.808-.36A6.261,6.261,0,0,1,2.54.87c.3-.042.573-.28.907-.24.22.027.311-.084.375-.294C3.714.2,3.68.019,3.406,0A6.491,6.491,0,0,0,1.842.3,10.436,10.436,0,0,0,.237.871Z" transform="translate(9.334 3.846)" fill="#8618ef"/><path d="M2.715.684A5.16,5.16,0,0,1,.826.107.585.585,0,0,0,.173.093c-.1.065-.2.151-.164.29.075.265.31.344.536.426A.336.336,0,0,0,.695.837a1.184,1.184,0,0,1,.742.262,3.352,3.352,0,0,0,1.546.6c.2,0,.416.018.518-.222.092-.215-.036-.332-.174-.481A.878.878,0,0,0,2.715.684Z" transform="translate(10.086 7.628)" fill="#8618ef"/><path d="M2.375,2.155A15.546,15.546,0,0,1,.769.259C.628.067.409-.106.158.079S-.012.5.119.719a27.309,27.309,0,0,0,1.8,2.162.264.264,0,0,0,.367.061c.12-.087.278-.159.228-.385C2.475,2.438,2.471,2.25,2.375,2.155Z" transform="translate(3.676 0.449)" fill="#8618ef"/><path d="M.564,3.8c.335.008.319-.32.307-.571A10.727,10.727,0,0,0,.823,1.724,1.424,1.424,0,0,1,.907.782.511.511,0,0,0,.643.027C.413-.082.209.155.07.392A.766.766,0,0,0,0,.819c-.024.807.3,1.58.207,2.4C.186,3.418.268,3.8.564,3.8Z" transform="translate(7.468 8.619)" fill="#8618ef"/></g><g transform="translate(34.321 138.096) rotate(16)"><path d="M.443,3.9h0a.445.445,0,0,0,.443-.443V.443A.445.445,0,0,0,.443,0h0A.445.445,0,0,0,0,.443V3.458A.445.445,0,0,0,.443,3.9Z" transform="translate(1.507 0)" fill="#a151f2"/><path d="M0,.443H0A.444.444,0,0,0,.443.886H3.458A.444.444,0,0,0,3.9.443h0A.445.445,0,0,0,3.458,0H.443A.445.445,0,0,0,0,.443Z" transform="translate(0 1.507)" fill="#a151f2"/></g><g transform="translate(47.9 0) rotate(16)"><path d="M.9,7.875h0A.9.9,0,0,0,1.79,6.98V.895A.9.9,0,0,0,.9,0h0A.9.9,0,0,0,0,.895V6.98A.9.9,0,0,0,.9,7.875Z" transform="translate(3.042 0)" fill="#a151f2"/><path d="M0,.895H0a.9.9,0,0,0,.894.895H6.98a.9.9,0,0,0,.9-.895h0A.9.9,0,0,0,6.98,0H.894A.9.9,0,0,0,0,.895Z" transform="translate(0 3.043)" fill="#a151f2"/></g><g transform="translate(19.42 110.179)"><rect width="39.96" height="35.964" transform="translate(0 21.271)" fill="#a94eff"/><rect width="3.996" height="39.96" transform="translate(39.96 37.963) rotate(90)" fill="#8618ef"/><path d="M1835.948,701.678s7.071-4.594,11.876-3.118l-.991.926.446,1.556a17.616,17.616,0,0,0-11.478.9Z" transform="translate(-1814.517 -680.042)" fill="#bd77ff"/><path d="M1272.136,315.157s-1.247-.151-3.107-.407c-4.936-.679-14.182-2.1-15.841-3.414-2.608-2.065,3.571-10.835,6.246-12.052S1272.136,315.157,1272.136,315.157Z" transform="translate(-1251.101 -294.561)" fill="#a94eff"/><path d="M1842.813,171.778c.446,2.173-19.746,11.559-19.746,11.559s.368-.993.965-2.549l0,0c2.182-5.681,7.441-18.863,9.169-18.681a2.1,2.1,0,0,1,.6.179C1836.462,163.452,1842.4,169.777,1842.813,171.778Z" transform="translate(-1802.216 -162.103)" fill="#9227f8"/><path d="M1861.107,164.216c-1.232,2.142-9.474,16.348-9.6,16.569,2.183-5.681,7.442-18.863,9.169-18.681a1.1,1.1,0,0,1,.6.179C1861.593,162.514,1861.788,163.033,1861.107,164.216Z" transform="translate(-1829.687 -162.103)" fill="#a94eff"/><path d="M1282.168,589.844h0c-4.936-.679-14.182-2.1-15.842-3.414-.749-2.111,1.195-2.283,2.61-2.431S1282.168,589.844,1282.168,589.844Z" transform="translate(-1264.237 -569.655)" fill="#9227f8"/><path d="M1717.69,710.381s1.132-2.575,3.36-2.717c2.327-.149,3.649,2.717,3.649,2.717Z" transform="translate(-1700.421 -689.113)" fill="#a94eff"/><rect width="39.96" height="5.994" transform="translate(0 21.271)" fill="#9227f8"/><path d="M1312.709,743.671s-6.414-2.032-10.742-.688c-4.988,1.548-4.693,7.7-4.693,7.7l1.173-.483,1.584.743s.267-6.518,4.335-7.431C1307.883,742.728,1312.709,743.671,1312.709,743.671Z" transform="translate(-1294.294 -722.794)" fill="#bd77ff"/><rect width="2.388" height="35.964" transform="translate(20.73 21.271)" fill="#8618ef"/></g><g transform="translate(16.099 135.599)" fill="none" stroke="#c19dd8" stroke-width="1"><circle cx="1.66" cy="1.66" r="1.66" stroke="none"/><circle cx="1.66" cy="1.66" r="1.16" fill="none"/></g></g><g transform="translate(1632.346 2724.096)"><ellipse cx="1.897" cy="1.897" rx="1.897" ry="1.897" transform="translate(65.953 0)" fill="url(#h)"/><ellipse cx="1.833" cy="1.833" rx="1.833" ry="1.833" transform="translate(32.943 8.899)" fill="url(#h)"/><ellipse cx="1.833" cy="1.833" rx="1.833" ry="1.833" transform="translate(8.793 33.049)" fill="url(#h)"/><ellipse cx="1.751" cy="1.897" rx="1.751" ry="1.897" transform="translate(0 65.953)" fill="url(#h)"/><ellipse cx="1.833" cy="1.833" rx="1.833" ry="1.833" transform="translate(8.793 99.028)" fill="url(#h)"/><ellipse cx="1.833" cy="1.833" rx="1.833" ry="1.833" transform="translate(32.943 123.178)" fill="url(#h)"/><ellipse cx="1.897" cy="1.751" rx="1.897" ry="1.751" transform="translate(65.953 131.906)" fill="url(#h)"/><ellipse cx="1.833" cy="1.833" rx="1.833" ry="1.833" transform="translate(98.922 123.178)" fill="url(#h)"/><ellipse cx="1.833" cy="1.833" rx="1.833" ry="1.833" transform="translate(123.072 99.028)" fill="url(#h)"/><ellipse cx="1.751" cy="1.897" rx="1.751" ry="1.897" transform="translate(131.905 65.953)" fill="url(#h)"/><ellipse cx="1.833" cy="1.833" rx="1.833" ry="1.833" transform="translate(123.072 33.049)" fill="url(#h)"/><ellipse cx="1.833" cy="1.833" rx="1.833" ry="1.833" transform="translate(98.922 8.899)" fill="url(#h)"/><ellipse cx="1.897" cy="1.897" rx="1.897" ry="1.897" transform="translate(65.953 0)" fill="url(#h)"/></g><g transform="matrix(1, 0, 0, 1, 1604.46, 2678.96)" filter="url(#u)"><path d="M9.081,10.427a2.338,2.338,0,0,1-.973-.657,2.6,2.6,0,0,1-.539-1.091A6.246,6.246,0,0,1,7.4,7.168V3.035A2.975,2.975,0,0,1,8.219.779,3.257,3.257,0,0,1,10.56,0a3.186,3.186,0,0,1,2.321.779,3.018,3.018,0,0,1,.8,2.256V7.168a6.5,6.5,0,0,1-.158,1.511,2.589,2.589,0,0,1-.526,1.091,2.294,2.294,0,0,1-.96.657,4.2,4.2,0,0,1-1.473.224A4.256,4.256,0,0,1,9.081,10.427Zm1.026-8.469a.822.822,0,0,0-.25.325,1.5,1.5,0,0,0-.112.44,4.388,4.388,0,0,0-.026.474V7.371a4.645,4.645,0,0,0,.026.474,1.769,1.769,0,0,0,.112.474.874.874,0,0,0,.256.359.676.676,0,0,0,.447.142A.65.65,0,0,0,11,8.679a.85.85,0,0,0,.243-.359,1.776,1.776,0,0,0,.1-.474q.02-.257.02-.474V3.2q0-.23-.02-.474a1.5,1.5,0,0,0-.1-.44A.772.772,0,0,0,11,1.958a.719.719,0,0,0-.454-.129A.7.7,0,0,0,10.107,1.958ZM1.361,10.407a2.047,2.047,0,0,1-.8-.684,2.916,2.916,0,0,1-.434-1.03A5.87,5.87,0,0,1,0,7.412V3.239A3.431,3.431,0,0,1,.756.786,3.126,3.126,0,0,1,3.1,0,3.512,3.512,0,0,1,5.418.691,2.773,2.773,0,0,1,6.247,2.94V3.7H3.932V3.144A2.749,2.749,0,0,0,3.8,2.168a.586.586,0,0,0-.592-.339.759.759,0,0,0-.717.271,1.481,1.481,0,0,0-.177.786V7.913a1.021,1.021,0,0,0,.2.671.811.811,0,0,0,.658.237.817.817,0,0,0,.454-.108.649.649,0,0,0,.243-.291,1.334,1.334,0,0,0,.1-.42q.02-.237.02-.481v-.8H3.156V4.892H6.3V10.42H4.721l-.105-.908H4.59a2.145,2.145,0,0,1-.8.894,2.5,2.5,0,0,1-1.2.244A2.761,2.761,0,0,1,1.361,10.407Zm13.92,0V8.09H17.5v2.317Zm.513-3.266L15.229,2.8V.244h2.315V2.8l-.566,4.336Z" transform="translate(85.89 106.48)" fill="#fff"/></g><g transform="matrix(1, 0, 0, 1, 1604.46, 2678.96)" filter="url(#w)"><path d="M21.714,0A21.713,21.713,0,1,1,0,21.713,21.713,21.713,0,0,1,21.714,0Z" transform="translate(134.95 154.66)" fill="#ff6f00"/></g><path d="M295.5,259.415h13.463v5.636l7.615-7.025L308.962,251v5.635H295.5Z" transform="translate(1454.766 2597.818)" fill="#fff" fill-rule="evenodd"/></g><g transform="translate(15.745 22.036)" fill="#fff" stroke-linecap="round" stroke-linejoin="round"><path d="M 130.0319976806641 7.655999660491943 C 129.0438995361328 7.655999660491943 128.0610504150391 7.501332759857178 127.1107559204102 7.196290969848633 C 126.0827560424805 6.8663330078125 125.2364807128906 6.402249336242676 124.595458984375 5.816978454589844 L 123.3486938476563 4.678624629974365 L 124.2616500854492 3.25847864151001 L 125.070671081543 1.999999523162842 L 124.9640045166016 1.999999523162842 L 120.8200073242188 1.999999523162842 L 118.5932388305664 1.999999523162842 C 117.9226760864258 2.149102687835693 117.2176284790039 2.223999500274658 116.4800033569336 2.223999500274658 C 114.9701690673828 2.223999500274658 113.5543823242188 1.868207812309265 112.2719802856445 1.166520357131958 C 110.9612731933594 0.4493328034877777 109.905647277832 -0.5908547043800354 109.1344223022461 -1.925188064575195 C 108.5498809814453 -2.936532497406006 108.1859893798828 -4.080742835998535 108.0475845336914 -5.338453769683838 L 104.5669174194336 0.9665827751159668 L 103.9964218139648 1.999999523162842 L 102.8160018920898 1.999999523162842 L 98.50400543212891 1.999999523162842 L 96.84019470214844 1.999999523162842 L 96.53739929199219 0.3639577925205231 L 95.81807708740234 -3.522696733474731 L 93.33877563476563 0.9668536186218262 L 92.76823425292969 1.999999523162842 L 91.58800506591797 1.999999523162842 L 87.33200073242188 1.999999523162842 L 85.65421295166016 1.999999523162842 L 85.36248016357422 0.3477703034877777 L 83.63344573974609 -9.444022178649902 L 81.67758941650391 0.3901244699954987 L 81.35739898681641 1.999999523162842 L 79.71600341796875 1.999999523162842 L 75.57200622558594 1.999999523162842 L 73.34523773193359 1.999999523162842 C 72.67467498779297 2.149102687835693 71.96962738037109 2.223999500274658 71.23200225830078 2.223999500274658 C 69.72216796875 2.223999500274658 68.30638122558594 1.868207812309265 67.02398681640625 1.166520357131958 C 65.71327209472656 0.4493328034877777 64.65764617919922 -0.5908547043800354 63.88642120361328 -1.925188064575195 C 63.45792007446289 -2.666566610336304 63.1479606628418 -3.479460000991821 62.9585075378418 -4.356000423431396 L 62.94400405883789 -4.356000423431396 L 61.89890670776367 -4.356000423431396 L 62.84337997436523 -2.859375476837158 L 63.79763031005859 -1.347250580787659 L 62.40140151977539 -0.2302713692188263 C 61.36933898925781 0.5953744649887085 60.17810821533203 1.221311926841736 58.86079406738281 1.630124449729919 C 57.59104537963867 2.024186849594116 56.24227523803711 2.223999500274658 54.85200500488281 2.223999500274658 C 53.0124397277832 2.223999500274658 51.35454559326172 1.881707787513733 49.92431640625 1.206645250320435 C 48.40319061279297 0.4886869788169861 47.21135711669922 -0.5658338665962219 46.38190078735352 -1.927604675292969 C 45.65715026855469 -3.117496252059937 45.24969100952148 -4.47017765045166 45.16755294799805 -5.955812931060791 L 40.81519317626953 1.054874420166016 L 40.22844314575195 1.999999523162842 L 39.11600494384766 1.999999523162842 L 34.60800552368164 1.999999523162842 L 33.00204467773438 1.999999523162842 L 32.65521240234375 0.4319369792938232 L 30.42162322998047 -9.666134834289551 L 28.42158699035645 0.3901244699954987 L 28.10140037536621 1.999999523162842 L 26.46000480651855 1.999999523162842 L 22.12000465393066 1.999999523162842 L 19.68306732177734 1.999999523162842 L 20.15842056274414 -0.3901255428791046 L 20.23255157470703 -0.7628616094589233 L 19.84375381469727 -0.4620838761329651 C 18.67131614685059 0.4448744654655457 17.3026294708252 1.148082852363586 15.77565002441406 1.627978682518005 C 14.280837059021 2.097791194915771 12.71308708190918 2.335999488830566 11.11600399017334 2.335999488830566 C 8.859086990356445 2.335999488830566 6.840420722961426 1.910041093826294 5.116066455841064 1.069978594779968 C 3.320316314697266 0.1951244622468948 1.906899690628052 -1.064917206764221 0.9151080846786499 -2.675125598907471 C -0.07166276127099991 -4.277167320251465 -0.5719960927963257 -6.127938270568848 -0.5719960927963257 -8.176000595092773 C -0.5719960927963257 -10.7401876449585 0.03517057374119759 -13.10010433197021 1.23262894153595 -15.19022941589355 C 2.441191434860229 -17.29970932006836 4.163233280181885 -18.97383308410645 6.350920677185059 -20.1661262512207 C 8.50577449798584 -21.34052085876465 10.99452495574951 -21.93600082397461 13.74800395965576 -21.93600082397461 C 15.87435817718506 -21.93600082397461 17.77033805847168 -21.59106254577637 19.38323402404785 -20.91079139709473 C 21.0794620513916 -20.19537544250488 22.47262954711914 -19.12183380126953 23.52400398254395 -17.72000122070313 L 24.01600456237793 -17.06400108337402 L 24.21297073364258 -17.06400108337402 C 23.73092460632324 -17.75338935852051 23.48000335693359 -18.55769348144531 23.48000335693359 -19.4320011138916 C 23.48000335693359 -20.73475074768066 23.97660827636719 -21.88508415222168 24.91610717773438 -22.7586669921875 C 25.81481552124023 -23.59431266784668 27.00708770751953 -24.03600120544434 28.36400413513184 -24.03600120544434 C 29.60975456237793 -24.03600120544434 30.71119117736816 -23.64514541625977 31.54925346374512 -22.90566635131836 C 32.45908737182617 -22.10287475585938 32.94000244140625 -21.04693794250488 32.94000244140625 -19.85200119018555 C 32.94000244140625 -18.7939281463623 32.63584136962891 -17.84472465515137 32.05298614501953 -17.06400108337402 L 35.58800506591797 -17.06400108337402 L 37.20760726928711 -17.06400108337402 L 37.54431533813477 -15.47979259490967 L 38.68941116333008 -10.09197235107422 L 42.39700317382813 -16.11270904541016 L 42.98281478881836 -17.06400108337402 L 44.10000228881836 -17.06400108337402 L 48.46800231933594 -17.06400108337402 L 52.06371307373047 -17.06400108337402 L 51.71163177490234 -16.49687576293945 C 53.0322151184082 -17.02239990234375 54.47851943969727 -17.28800010681152 56.02800369262695 -17.28800010681152 C 57.79291915893555 -17.28800010681152 59.37242126464844 -16.94270896911621 60.72262954711914 -16.2617301940918 C 62.1417121887207 -15.54602146148682 63.25835800170898 -14.50237560272217 64.04156494140625 -13.15975093841553 C 64.16799163818359 -12.94301986694336 64.28407287597656 -12.72086143493652 64.38987731933594 -12.49323844909668 C 65.26750183105469 -13.89961528778076 66.42204284667969 -15.03460025787354 67.82859039306641 -15.87231349945068 C 69.40581512451172 -16.81168746948242 71.16323089599609 -17.28800010681152 73.052001953125 -17.28800010681152 C 74.49665832519531 -17.28800010681152 75.66550445556641 -17.03385162353516 76.60948944091797 -16.63839721679688 L 76.69110870361328 -17.06400108337402 L 78.34400177001953 -17.06400108337402 L 82.71200561523438 -17.06400108337402 L 85.14894104003906 -17.06400108337402 L 88.64800262451172 -17.06400108337402 L 90.34841918945313 -17.06400108337402 L 90.62196350097656 -15.38572978973389 L 91.35059356689453 -10.91516399383545 L 94.20950317382813 -16.0385627746582 L 94.78171539306641 -17.06400108337402 L 95.95600128173828 -17.06400108337402 L 99.70800018310547 -17.06400108337402 L 101.3991928100586 -17.06400108337402 L 101.6801910400391 -15.39633369445801 L 102.4361419677734 -10.91019535064697 L 105.2654190063477 -16.03118896484375 L 105.8360214233398 -17.06400108337402 L 107.0160064697266 -17.06400108337402 L 111.1320037841797 -17.06400108337402 L 114.5206069946289 -17.06400108337402 L 114.1757583618164 -16.43931770324707 C 115.4568557739258 -17.0030517578125 116.8391571044922 -17.28800010681152 118.3000030517578 -17.28800010681152 C 119.7446594238281 -17.28800010681152 120.9135055541992 -17.03385162353516 121.8574905395508 -16.63839721679688 L 121.9391098022461 -17.06400108337402 L 123.5920028686523 -17.06400108337402 L 127.2396469116211 -17.06400108337402 L 129.7519989013672 -17.06400108337402 L 134.1200103759766 -17.06400108337402 L 135.7300720214844 -17.06400108337402 L 136.0738830566406 -15.49108409881592 L 137.2514190673828 -10.10381603240967 L 140.9261322021484 -16.1080207824707 L 141.5112152099609 -17.06400108337402 L 142.6320037841797 -17.06400108337402 L 146.7157745361328 -17.06400108337402 L 147.0895843505859 -19.86460494995117 L 147.3212127685547 -21.60000038146973 L 149.0720062255859 -21.60000038146973 L 154.280029296875 -21.60000038146973 L 156.8894805908203 -21.60000038146973 L 156.2112884521484 -19.08020973205566 L 152.7672882080078 -6.28420877456665 L 152.368896484375 -4.804000377655029 L 152.2265014648438 -4.804000377655029 C 152.66455078125 -4.13575267791748 152.8920288085938 -3.361732006072998 152.8920288085938 -2.520000457763672 C 152.8920288085938 -1.220354676246643 152.4044036865234 -0.05416719987988472 151.4818572998047 0.8524578213691711 C 150.5688629150391 1.749728679656982 149.3966522216797 2.223999500274658 148.0920104980469 2.223999500274658 C 146.8399658203125 2.223999500274658 145.7266235351563 1.79852032661438 144.8724060058594 0.9935827851295471 C 143.9850463867188 0.1574161350727081 143.5160064697266 -0.9220213890075684 143.5160064697266 -2.128000497817993 C 143.5160064697266 -3.466875553131104 144.0171051025391 -4.641125679016113 144.9651641845703 -5.523792266845703 C 145.0426483154297 -5.595925807952881 145.1219329833984 -5.665087223052979 145.203125 -5.731387138366699 L 145.3816070556641 -7.068604469299316 L 145.6721801757813 -9.24553394317627 L 138.6177673339844 2.065175294876099 C 137.3706207275391 4.085075855255127 136.1453857421875 5.475871562957764 134.8723297119141 6.31679105758667 C 133.5270385742188 7.205416202545166 131.8985290527344 7.655999660491943 130.0319976806641 7.655999660491943 Z M 127.5614242553711 -1.874500513076782 L 129.3114624023438 -0.270313024520874 C 129.6160278320313 0.008874465711414814 129.9320068359375 0.1279994696378708 130.3680114746094 0.1279994696378708 C 130.591064453125 0.1279994696378708 130.6682281494141 0.07537446916103363 130.6972961425781 0.05556196719408035 C 130.7301330566406 0.03317385166883469 130.86572265625 -0.06828460842370987 131.0849914550781 -0.3491725325584412 L 128.9330139160156 -9.703319549560547 L 127.2929153442383 -1.456829905509949 L 127.5614242553711 -1.874500513076782 Z M 118.8040008544922 -9.676000595092773 C 118.3232727050781 -9.676000595092773 117.9189834594727 -9.569375991821289 117.568000793457 -9.350000381469727 C 117.2108154296875 -9.126770973205566 116.9363403320313 -8.816542625427246 116.7288589477539 -8.401562690734863 C 116.4941101074219 -7.932084083557129 116.3800048828125 -7.382042407989502 116.3800048828125 -6.720000743865967 C 116.3800048828125 -6.017521381378174 116.6075439453125 -5.793479919433594 116.6932144165039 -5.709125518798828 C 116.7738800048828 -5.629708766937256 117.0193557739258 -5.38800048828125 117.8240051269531 -5.38800048828125 C 118.3047332763672 -5.38800048828125 118.7090225219727 -5.494625568389893 119.0600051879883 -5.714000701904297 C 119.4171905517578 -5.937229633331299 119.6916732788086 -6.247458934783936 119.8991470336914 -6.662437915802002 C 120.133903503418 -7.131916999816895 120.2480010986328 -7.681958675384521 120.2480010986328 -8.344000816345215 C 120.2480010986328 -9.046479225158691 120.0204620361328 -9.27052116394043 119.9347991943359 -9.354875564575195 C 119.8541259765625 -9.434291839599609 119.6086502075195 -9.676000595092773 118.8040008544922 -9.676000595092773 Z M 73.55600738525391 -9.676000595092773 C 73.07527160644531 -9.676000595092773 72.67098236083984 -9.569375991821289 72.32000732421875 -9.350000381469727 C 71.96281433105469 -9.126770973205566 71.68833923339844 -8.816542625427246 71.48085784912109 -8.401562690734863 C 71.24610900878906 -7.932084083557129 71.13200378417969 -7.382042407989502 71.13200378417969 -6.720000743865967 C 71.13200378417969 -6.017521381378174 71.35954284667969 -5.793479919433594 71.44521331787109 -5.709125518798828 C 71.52587890625 -5.629708766937256 71.77135467529297 -5.38800048828125 72.57600402832031 -5.38800048828125 C 73.05673217773438 -5.38800048828125 73.46102142333984 -5.494625568389893 73.81200408935547 -5.714000701904297 C 74.169189453125 -5.937229633331299 74.44367218017578 -6.247458934783936 74.65114593505859 -6.662437915802002 C 74.88590240478516 -7.131916999816895 75.00000762939453 -7.681958675384521 75.00000762939453 -8.344000816345215 C 75.00000762939453 -9.046479225158691 74.7724609375 -9.27052116394043 74.68679809570313 -9.354875564575195 C 74.60613250732422 -9.434291839599609 74.36064910888672 -9.676000595092773 73.55600738525391 -9.676000595092773 Z M 13.55200386047363 -14.07200050354004 C 12.40781593322754 -14.07200050354004 11.44546222686768 -13.8356466293335 10.60998344421387 -13.34941673278809 C 9.787837028503418 -12.87095928192139 9.168816566467285 -12.23239612579346 8.717587471008301 -11.39727115631104 C 8.248191833496094 -10.52854251861572 8.020004272460938 -9.566437721252441 8.020004272460938 -8.456000328063965 C 8.020004272460938 -7.218688011169434 8.483316421508789 -6.656375408172607 8.83183765411377 -6.341063022613525 C 9.428129196166992 -5.801563262939453 10.39448261260986 -5.528000354766846 11.70400428771973 -5.528000354766846 C 12.23170185089111 -5.528000354766846 12.72861099243164 -5.589735984802246 13.20462226867676 -5.715317249298096 L 14.13706684112549 -10.49125099182129 L 14.452712059021 -12.10800075531006 L 16.10000419616699 -12.10800075531006 L 17.56589698791504 -12.10800075531006 L 17.15487861633301 -12.58947944641113 C 16.70285797119141 -13.11895847320557 16.22331619262695 -13.48560428619385 15.68881607055664 -13.71033382415771 C 15.11804580688477 -13.95031261444092 14.39912891387939 -14.07200050354004 13.55200386047363 -14.07200050354004 Z M 19.6561222076416 -12.10800075531006 L 20.24400329589844 -12.10800075531006 L 22.48892784118652 -12.10800075531006 L 23.03319358825684 -14.8445930480957 L 19.93517112731934 -12.33412551879883 L 19.6561222076416 -12.10800075531006 Z" stroke="none"/><path d="M 28.36400604248047 -22.03600120544434 C 27.50534057617188 -22.03600120544434 26.80999755859375 -21.78866004943848 26.27799987792969 -21.29400062561035 C 25.74600219726563 -20.79934120178223 25.48001098632813 -20.17865943908691 25.48001098632813 -19.4320011138916 C 25.48001098632813 -18.79734039306641 25.71800231933594 -18.26066017150879 26.19400024414063 -17.82200050354004 C 26.66999816894531 -17.38334083557129 27.28134155273438 -17.16400146484375 28.02800750732422 -17.16400146484375 C 28.88666534423828 -17.16400146484375 29.58666229248047 -17.41134071350098 30.12800598144531 -17.9060001373291 C 30.66931915283203 -18.40065956115723 30.94000244140625 -19.04934120178223 30.94000244140625 -19.85200119018555 C 30.94000244140625 -20.4680004119873 30.70200347900391 -20.98600006103516 30.22600555419922 -21.4060001373291 C 29.75000762939453 -21.82600021362305 29.12932586669922 -22.03600120544434 28.36400604248047 -22.03600120544434 M 13.74800109863281 -19.93600082397461 C 11.32131958007813 -19.93600082397461 9.174667358398438 -19.42734146118164 7.307998657226563 -18.40999984741211 C 5.441314697265625 -17.39266014099121 3.994659423828125 -15.98800086975098 2.968002319335938 -14.19600105285645 C 1.941314697265625 -12.4040002822876 1.427978515625 -10.39734077453613 1.427978515625 -8.176000595092773 C 1.427978515625 -6.496000289916992 1.824661254882813 -5.01200008392334 2.618011474609375 -3.724000930786133 C 3.41131591796875 -2.436000823974609 4.5360107421875 -1.437341690063477 5.99200439453125 -0.7280006408691406 C 7.447998046875 -0.01865959167480469 9.156005859375 0.33599853515625 11.11599731445313 0.33599853515625 C 12.51600646972656 0.33599853515625 13.86933898925781 0.1306591033935547 15.17597961425781 -0.2800006866455078 C 16.482666015625 -0.6906595230102539 17.63066101074219 -1.278659820556641 18.61997985839844 -2.044000625610352 L 20.24400329589844 -10.10800075531006 L 16.10000610351563 -10.10800075531006 L 14.95201110839844 -4.228000640869141 C 13.94400024414063 -3.761341094970703 12.861328125 -3.528000831604004 11.7039794921875 -3.528000831604004 C 9.874664306640625 -3.528000831604004 8.470001220703125 -3.971341133117676 7.490005493164063 -4.858000755310059 C 6.509979248046875 -5.744659423828125 6.020004272460938 -6.944000244140625 6.020004272460938 -8.456000328063965 C 6.020004272460938 -9.893341064453125 6.332656860351563 -11.19065952301025 6.9580078125 -12.34800052642822 C 7.583328247070313 -13.50534152984619 8.465316772460938 -14.4153413772583 9.60400390625 -15.07800102233887 C 10.74266052246094 -15.74065971374512 12.05867004394531 -16.07200050354004 13.552001953125 -16.07200050354004 C 14.6719970703125 -16.07200050354004 15.64266967773438 -15.89934158325195 16.46400451660156 -15.55400085449219 C 17.28533935546875 -15.20866012573242 18.02265930175781 -14.65334129333496 18.67597961425781 -13.88800048828125 L 21.92401123046875 -16.52000045776367 C 21.08399963378906 -17.64000129699707 19.97799682617188 -18.48934173583984 18.60600280761719 -19.06800079345703 C 17.23397827148438 -19.64665985107422 15.61466979980469 -19.93600082397461 13.74800109863281 -19.93600082397461 M 149.0720062255859 -19.60000038146973 L 147.3639984130859 -6.804000854492188 L 150.8359985351563 -6.804000854492188 L 154.2799987792969 -19.60000038146973 L 149.0720062255859 -19.60000038146973 M 56.02800750732422 -15.28800010681152 C 54.31066131591797 -15.28800010681152 52.78000640869141 -14.91000080108643 51.43600463867188 -14.1540002822876 C 50.09200286865234 -13.39800071716309 49.04200744628906 -12.35265922546387 48.28600311279297 -11.01800060272217 C 47.53000640869141 -9.683341979980469 47.15200042724609 -8.185341835021973 47.15200042724609 -6.52400016784668 C 47.15200042724609 -5.180000305175781 47.46468353271484 -3.994659423828125 48.09000396728516 -2.968000411987305 C 48.71532440185547 -1.941341400146484 49.61134338378906 -1.15265941619873 50.77800750732422 -0.6020002365112305 C 51.94466400146484 -0.05134201049804688 53.30266571044922 0.2239990234375 54.85200500488281 0.2239990234375 C 56.04668426513672 0.2239990234375 57.18532562255859 0.055999755859375 58.26800537109375 -0.2800006866455078 C 59.35068511962891 -0.6160001754760742 60.31200408935547 -1.120000839233398 61.15200042724609 -1.792000770568848 L 59.33200073242188 -4.676000595092773 C 58.80934143066406 -4.228000640869141 58.19800567626953 -3.882659912109375 57.49800109863281 -3.640000343322754 C 56.79800415039063 -3.397341728210449 56.06534576416016 -3.2760009765625 55.30000305175781 -3.2760009765625 C 52.85466003417969 -3.2760009765625 51.55734252929688 -4.30265998840332 51.40800476074219 -6.356000900268555 L 62.94400024414063 -6.356000900268555 C 63.11200714111328 -7.196000099182129 63.19600677490234 -7.961341857910156 63.19600677490234 -8.652000427246094 C 63.19600677490234 -9.977341651916504 62.90200042724609 -11.14400100708008 62.31400299072266 -12.15200042724609 C 61.72600555419922 -13.16000080108643 60.89534759521484 -13.93465995788574 59.82200622558594 -14.47600078582764 C 58.74866485595703 -15.01734161376953 57.48400115966797 -15.28800010681152 56.02800750732422 -15.28800010681152 M 59.19200134277344 -8.904001235961914 L 51.71600341796875 -8.904001235961914 C 52.01466369628906 -9.874659538269043 52.51868438720703 -10.63534164428711 53.22800445556641 -11.18600082397461 C 53.93732452392578 -11.73666000366211 54.80534362792969 -12.01200103759766 55.83200073242188 -12.01200103759766 C 56.85866546630859 -12.01200103759766 57.67534637451172 -11.73666000366211 58.28200531005859 -11.18600082397461 C 58.88866424560547 -10.63534164428711 59.19200134277344 -9.874659538269043 59.19200134277344 -8.904001235961914 M 73.052001953125 -15.28800010681152 C 71.52134704589844 -15.28800010681152 70.12134552001953 -14.91000080108643 68.85200500488281 -14.1540002822876 C 67.58266448974609 -13.39800071716309 66.579345703125 -12.35265922546387 65.84200286865234 -11.01800060272217 C 65.10466003417969 -9.683341979980469 64.73600769042969 -8.185341835021973 64.73600769042969 -6.52400016784668 C 64.73600769042969 -5.142659187316895 65.03000640869141 -3.943341255187988 65.61800384521484 -2.926000595092773 C 66.20600128173828 -1.908659934997559 66.99465942382813 -1.129341125488281 67.98400115966797 -0.5880002975463867 C 68.97334289550781 -0.04665946960449219 70.05600738525391 0.2239990234375 71.23200225830078 0.2239990234375 C 73.06134796142578 0.2239990234375 74.60134124755859 -0.3453407287597656 75.85200500488281 -1.484000205993652 L 75.57200622558594 0 L 79.71600341796875 0 L 82.71200561523438 -15.06400012969971 L 78.34400177001953 -15.06400012969971 L 77.95200347900391 -13.02000045776367 C 77.00000762939453 -14.53200054168701 75.36666107177734 -15.28800010681152 73.052001953125 -15.28800010681152 M 72.57600402832031 -3.38800048828125 C 71.49334716796875 -3.38800048828125 70.64866638183594 -3.686659812927246 70.04200744628906 -4.284000396728516 C 69.43534851074219 -4.881340980529785 69.13200378417969 -5.693341255187988 69.13200378417969 -6.720000267028809 C 69.13200378417969 -7.690659523010254 69.31866455078125 -8.549341201782227 69.69200134277344 -9.296000480651855 C 70.06534576416016 -10.04265975952148 70.58800506591797 -10.62600040435791 71.26000213623047 -11.04600048065186 C 71.9320068359375 -11.4660005569458 72.69734191894531 -11.67600059509277 73.55600738525391 -11.67600059509277 C 74.63866424560547 -11.67600059509277 75.48334503173828 -11.37734127044678 76.09000396728516 -10.78000068664551 C 76.69666290283203 -10.18265914916992 77.00000762939453 -9.370659828186035 77.00000762939453 -8.344000816345215 C 77.00000762939453 -7.37334156036377 76.81332397460938 -6.514659881591797 76.44000244140625 -5.768000602722168 C 76.06666564941406 -5.021341323852539 75.54400634765625 -4.438000679016113 74.87200164794922 -4.018000602722168 C 74.20000457763672 -3.598000526428223 73.43466186523438 -3.38800048828125 72.57600402832031 -3.38800048828125 M 118.3000030517578 -15.28800010681152 C 116.7693481445313 -15.28800010681152 115.3693466186523 -14.91000080108643 114.1000061035156 -14.1540002822876 C 112.8306579589844 -13.39800071716309 111.8273468017578 -12.35265922546387 111.0900039672852 -11.01800060272217 C 110.3526611328125 -9.683341979980469 109.9840087890625 -8.185341835021973 109.9840087890625 -6.52400016784668 C 109.9840087890625 -5.142659187316895 110.2779998779297 -3.943341255187988 110.8660049438477 -2.926000595092773 C 111.4540023803711 -1.908659934997559 112.2426605224609 -1.129341125488281 113.2320022583008 -0.5880002975463867 C 114.2213439941406 -0.04665946960449219 115.3040008544922 0.2239990234375 116.4800033569336 0.2239990234375 C 118.3093414306641 0.2239990234375 119.8493499755859 -0.3453407287597656 121.1000061035156 -1.484000205993652 L 120.8200073242188 0 L 124.9640045166016 0 L 127.9600067138672 -15.06400012969971 L 123.5920028686523 -15.06400012969971 L 123.2000045776367 -13.02000045776367 C 122.2480010986328 -14.53200054168701 120.6146621704102 -15.28800010681152 118.3000030517578 -15.28800010681152 M 117.8240051269531 -3.38800048828125 C 116.7413482666016 -3.38800048828125 115.8966674804688 -3.686659812927246 115.2900085449219 -4.284000396728516 C 114.683349609375 -4.881340980529785 114.3800048828125 -5.693341255187988 114.3800048828125 -6.720000267028809 C 114.3800048828125 -7.690659523010254 114.5666656494141 -8.549341201782227 114.9400024414063 -9.296000480651855 C 115.3133392333984 -10.04265975952148 115.8359985351563 -10.62600040435791 116.5080032348633 -11.04600048065186 C 117.1800079345703 -11.4660005569458 117.9453430175781 -11.67600059509277 118.8040008544922 -11.67600059509277 C 119.8866577148438 -11.67600059509277 120.7313461303711 -11.37734127044678 121.338005065918 -10.78000068664551 C 121.9446640014648 -10.18265914916992 122.2480010986328 -9.370659828186035 122.2480010986328 -8.344000816345215 C 122.2480010986328 -7.37334156036377 122.0613250732422 -6.514659881591797 121.6880035400391 -5.768000602722168 C 121.3146667480469 -5.021341323852539 120.7920074462891 -4.438000679016113 120.120002746582 -4.018000602722168 C 119.4480056762695 -3.598000526428223 118.6826629638672 -3.38800048828125 117.8240051269531 -3.38800048828125 M 25.11599731445313 -15.06400012969971 L 22.11997985839844 0 L 26.46000671386719 0 L 29.45600128173828 -15.06400012969971 L 25.11599731445313 -15.06400012969971 M 31.2760009765625 -15.06400012969971 L 34.60800170898438 0 L 39.11600494384766 0 L 48.46800231933594 -15.06400012969971 L 44.10000610351563 -15.06400012969971 L 37.77200317382813 -4.788000106811523 L 35.58800506591797 -15.06400012969971 L 31.2760009765625 -15.06400012969971 M 84.67200469970703 -15.06400012969971 L 87.33200073242188 0 L 91.58800506591797 0 L 96.76800537109375 -9.380001068115234 L 98.50400543212891 0 L 102.8160095214844 0 L 111.1320037841797 -15.06400012969971 L 107.0160064697266 -15.06400012969971 L 101.4160003662109 -4.928000450134277 L 99.7080078125 -15.06400012969971 L 95.95600891113281 -15.06400012969971 L 90.30000305175781 -4.928000450134277 L 88.64800262451172 -15.06400012969971 L 84.67200469970703 -15.06400012969971 M 129.7519989013672 -15.06400012969971 L 133.2239990234375 0.0279998779296875 L 133.0839996337891 0.279998779296875 C 132.6546630859375 0.9519996643066406 132.2346649169922 1.427999496459961 131.8240051269531 1.708000183105469 C 131.4133453369141 1.987998962402344 130.9280090332031 2.128000259399414 130.3680114746094 2.128000259399414 C 129.4346618652344 2.128000259399414 128.6320037841797 1.819999694824219 127.9600067138672 1.203998565673828 L 125.9440002441406 4.340000152587891 C 126.3733444213867 4.732000350952148 126.9660034179688 5.049341201782227 127.7220001220703 5.291999816894531 C 128.4779968261719 5.534658432006836 129.2480010986328 5.656000137329102 130.0319976806641 5.656000137329102 C 131.5066680908203 5.656000137329102 132.7526550292969 5.319999694824219 133.7700042724609 4.647998809814453 C 134.7873382568359 3.97599983215332 135.8373413085938 2.762659072875977 136.9199981689453 1.007999420166016 L 146.9440002441406 -15.06400012969971 L 142.6320037841797 -15.06400012969971 L 136.3600006103516 -4.816000938415527 L 134.1200103759766 -15.06400012969971 L 129.7519989013672 -15.06400012969971 M 148.3440093994141 -4.816000938415527 C 147.5413513183594 -4.816000938415527 146.8693389892578 -4.564000129699707 146.3280029296875 -4.060000419616699 C 145.7866668701172 -3.556000709533691 145.5160064697266 -2.91200065612793 145.5160064697266 -2.128000259399414 C 145.5160064697266 -1.47465991973877 145.7586669921875 -0.9193410873413086 146.2440032958984 -0.462000846862793 C 146.7293395996094 -0.004659652709960938 147.3453369140625 0.2239990234375 148.0920104980469 0.2239990234375 C 148.8760070800781 0.2239990234375 149.5386657714844 -0.04199981689453125 150.0800018310547 -0.574000358581543 C 150.621337890625 -1.106000900268555 150.8919982910156 -1.754659652709961 150.8919982910156 -2.520000457763672 C 150.8919982910156 -3.173341751098633 150.6493377685547 -3.719341278076172 150.1640014648438 -4.158000946044922 C 149.6786651611328 -4.596659660339355 149.0720062255859 -4.816000938415527 148.3440093994141 -4.816000938415527 M 28.36400604248047 -26.0359992980957 C 30.10446166992188 -26.0359992980957 31.66348266601563 -25.47213745117188 32.87248229980469 -24.40534210205078 C 34.20575714111328 -23.22895431518555 34.94000244140625 -21.61186408996582 34.94000244140625 -19.85200119018555 C 34.94000244140625 -19.58571815490723 34.92545318603516 -19.32269096374512 34.89675140380859 -19.06400108337402 L 35.58800506591797 -19.06400108337402 C 37.47666168212891 -19.06400108337402 39.10797882080078 -17.74295425415039 39.50061798095703 -15.89556884765625 L 39.60680389404297 -15.39593887329102 L 40.69400024414063 -17.16143226623535 C 41.42214202880859 -18.34381866455078 42.71138763427734 -19.06400108337402 44.10000610351563 -19.06400108337402 L 48.46800231933594 -19.06400108337402 C 49.33000183105469 -19.06400108337402 50.15174102783203 -18.7867431640625 50.82494354248047 -18.29586982727051 C 52.42020416259766 -18.95488548278809 54.16409301757813 -19.28800010681152 56.02800750732422 -19.28800010681152 C 58.108642578125 -19.28800010681152 59.99116516113281 -18.87063598632813 61.62327575683594 -18.04747772216797 C 62.74962615966797 -17.47939109802246 63.72418975830078 -16.74402618408203 64.53680419921875 -15.85091495513916 C 65.216552734375 -16.51440048217773 65.97380065917969 -17.09549140930176 66.80518341064453 -17.59066009521484 C 68.69622802734375 -18.71693229675293 70.79798126220703 -19.28800010681152 73.052001953125 -19.28800010681152 C 74.39212799072266 -19.28800010681152 75.6280517578125 -19.1002311706543 76.73991394042969 -18.72870254516602 C 77.23348236083984 -18.94497871398926 77.77698516845703 -19.06400108337402 78.34400177001953 -19.06400108337402 L 82.71200561523438 -19.06400108337402 C 83.04583740234375 -19.06400108337402 83.37471771240234 -19.02231597900391 83.69200897216797 -18.9421215057373 C 84.00932312011719 -19.02231788635254 84.3382568359375 -19.06400108337402 84.67200469970703 -19.06400108337402 L 88.64800262451172 -19.06400108337402 C 90.25082397460938 -19.06400108337402 91.66053009033203 -18.11419868469238 92.29408264160156 -16.71035957336426 L 92.46302795410156 -17.01311492919922 C 93.16957092285156 -18.27931785583496 94.50602722167969 -19.06400108337402 95.95600891113281 -19.06400108337402 L 99.7080078125 -19.06400108337402 C 101.3108520507813 -19.06400108337402 102.7214050292969 -18.11408615112305 103.3547973632813 -16.7087230682373 L 103.5148239135742 -16.99836349487305 C 104.2189331054688 -18.27281951904297 105.5599822998047 -19.06400108337402 107.0160064697266 -19.06400108337402 L 111.1320037841797 -19.06400108337402 C 111.9834289550781 -19.06400108337402 112.7967376708984 -18.7933177947998 113.4662704467773 -18.31228065490723 C 114.9732513427734 -18.96045112609863 116.5929794311523 -19.28800010681152 118.3000030517578 -19.28800010681152 C 119.6401290893555 -19.28800010681152 120.8760528564453 -19.1002311706543 121.9879150390625 -18.72870254516602 C 122.4814834594727 -18.94497871398926 123.0249862670898 -19.06400108337402 123.5920028686523 -19.06400108337402 L 127.9600067138672 -19.06400108337402 C 128.2644500732422 -19.06400108337402 128.5648193359375 -19.02932548522949 128.8559875488281 -18.9623908996582 C 129.1471405029297 -19.02932548522949 129.4474487304688 -19.06400108337402 129.7519989013672 -19.06400108337402 L 134.1200103759766 -19.06400108337402 C 136 -19.06400108337402 137.6262969970703 -17.75479507446289 138.0277557373047 -15.91815948486328 L 138.1428375244141 -15.3916482925415 L 139.2202453613281 -17.15206909179688 C 139.9471893310547 -18.33979606628418 141.2394866943359 -19.06400108337402 142.6320037841797 -19.06400108337402 L 144.9649810791016 -19.06400108337402 L 145.1071624755859 -20.12922859191895 C 145.3723907470703 -22.11618232727051 147.0674133300781 -23.60000038146973 149.0720062255859 -23.60000038146973 L 154.2799987792969 -23.60000038146973 C 155.5243377685547 -23.60000038146973 156.6978149414063 -23.02091026306152 157.4547729492188 -22.03327369689941 C 158.2117309570313 -21.0456371307373 158.4659576416016 -19.76200103759766 158.1425476074219 -18.56040954589844 L 154.6985473632813 -5.764410018920898 C 154.6238098144531 -5.486703872680664 154.5208892822266 -5.222427368164063 154.3934173583984 -4.974398612976074 C 154.7206726074219 -4.212745666503906 154.8919982910156 -3.383038520812988 154.8919982910156 -2.520000457763672 C 154.8919982910156 -0.6716823577880859 154.1975555419922 0.9877719879150391 152.8837127685547 2.2789306640625 C 151.5888977050781 3.551408767700195 149.9319610595703 4.2239990234375 148.0920104980469 4.2239990234375 C 146.3206176757813 4.2239990234375 144.7330017089844 3.610271453857422 143.5007934570313 2.44915771484375 C 142.8629608154297 1.848112106323242 142.3679351806641 1.142906188964844 142.0317687988281 0.3705673217773438 L 140.3195495605469 3.115873336791992 C 138.9165344238281 5.388195037841797 137.4951934814453 6.981195449829102 135.9746398925781 7.985589981079102 C 134.2966461181641 9.093999862670898 132.2972564697266 9.656000137329102 130.0319976806641 9.656000137329102 C 128.8361663818359 9.656000137329102 127.6476593017578 9.469135284423828 126.4995269775391 9.100612640380859 C 125.1960296630859 8.682226181030273 124.1017074584961 8.074386596679688 123.2469635009766 7.293954849243164 C 122.3023986816406 6.431556701660156 121.8560028076172 5.204971313476563 121.9581832885742 4 L 120.8200073242188 4 C 120.3970336914063 4 119.9817962646484 3.933036804199219 119.5882034301758 3.805624008178711 C 118.6041107177734 4.082565307617188 117.5627975463867 4.2239990234375 116.4800033569336 4.2239990234375 C 114.6308212280273 4.2239990234375 112.8920288085938 3.785614013671875 111.3119583129883 2.921045303344727 C 109.8177642822266 2.103477478027344 108.5915222167969 0.9539871215820313 107.6610412597656 -0.4999675750732422 L 106.3178405761719 1.933158874511719 C 105.6139144897461 3.208295822143555 104.2725219726563 4 102.8160095214844 4 L 98.50400543212891 4 C 97.04629516601563 4 95.74547576904297 3.213865280151367 95.04571533203125 2.011022567749023 C 94.33082580566406 3.240444183349609 93.01461029052734 4 91.58800506591797 4 L 87.33200073242188 4 C 85.57552337646484 4 84.04836273193359 2.858709335327148 83.52395629882813 1.225185394287109 C 82.99851226806641 2.86182975769043 81.46942901611328 4 79.71600341796875 4 L 75.57200622558594 4 C 75.14902496337891 4 74.73380279541016 3.933036804199219 74.34020233154297 3.805624008178711 C 73.35611724853516 4.082565307617188 72.31479644775391 4.2239990234375 71.23200225830078 4.2239990234375 C 69.38282012939453 4.2239990234375 67.64402770996094 3.785614013671875 66.06395721435547 2.921045303344727 C 65.21751403808594 2.457901000976563 64.45699310302734 1.888181686401367 63.78758239746094 1.217006683349609 C 63.74298858642578 1.256025314331055 63.69746398925781 1.29412841796875 63.65077972412109 1.331476211547852 C 62.4227294921875 2.313907623291016 61.01059722900391 3.05706787109375 59.45359802246094 3.540248870849609 C 57.99166107177734 3.993953704833984 56.44345855712891 4.2239990234375 54.85200500488281 4.2239990234375 C 52.71500396728516 4.2239990234375 50.76986694335938 3.817340850830078 49.07064056396484 3.015317916870117 C 47.1895751953125 2.12745475769043 45.71025085449219 0.8144321441650391 44.67379760742188 -0.8872509002685547 C 44.62406158447266 -0.9689102172851563 44.57549285888672 -1.051214218139648 44.52817535400391 -1.134025573730469 L 42.51436614990234 2.109771728515625 C 41.78468322753906 3.285135269165039 40.49945831298828 4 39.11600494384766 4 L 34.60800170898438 4 C 32.73172760009766 4 31.10762023925781 2.695863723754883 30.70241546630859 0.8638858795166016 L 30.52555084228516 0.06430435180664063 L 30.38316345214844 0.7802486419677734 C 30.01091003417969 2.651931762695313 28.36834716796875 4 26.46000671386719 4 L 22.11997985839844 4 C 20.92236328125 4 19.78775024414063 3.463386535644531 19.02798461914063 2.537612915039063 C 19.00794982910156 2.513202667236328 18.98828125 2.488645553588867 18.9688720703125 2.463836669921875 C 18.15599060058594 2.890232086181641 17.289306640625 3.248716354370117 16.37525939941406 3.535976409912109 C 14.68620300292969 4.066841125488281 12.91673278808594 4.33599853515625 11.11599731445313 4.33599853515625 C 8.553009033203125 4.33599853515625 6.2396240234375 3.842067718505859 4.2401123046875 2.867954254150391 C 2.0977783203125 1.824226379394531 0.4061431884765625 0.3121585845947266 -0.7877960205078125 -1.626273155212402 C -1.971694946289063 -3.548364639282227 -2.572021484375 -5.752023696899414 -2.572021484375 -8.176000595092773 C -2.572021484375 -11.09340953826904 -1.875808715820313 -13.78786468505859 -0.502716064453125 -16.18447875976563 C 0.892486572265625 -18.61977386474609 2.876373291015625 -20.55025100708008 5.393829345703125 -21.92225074768066 C 7.845565795898438 -23.25847816467285 10.65634155273438 -23.93600082397461 13.74800109863281 -23.93600082397461 C 16.14273071289063 -23.93600082397461 18.30018615722656 -23.53818130493164 20.16043090820313 -22.75361442565918 C 20.7840576171875 -22.49059104919434 21.37374877929688 -22.18648529052734 21.928466796875 -21.84215545654297 C 22.27867126464844 -22.73750305175781 22.82781982421875 -23.54792022705078 23.55426025390625 -24.22336387634277 C 24.82958984375 -25.40920639038086 26.4927978515625 -26.0359992980957 28.36400604248047 -26.0359992980957 Z M 11.52122497558594 -7.530386924743652 L 12.17411804199219 -10.87447738647461 C 12.25083923339844 -11.26744270324707 12.38362121582031 -11.63763999938965 12.56304931640625 -11.97720623016357 C 12.21110534667969 -11.90290451049805 11.89729309082031 -11.78454780578613 11.61595153808594 -11.62081909179688 C 11.11407470703125 -11.32875061035156 10.75222778320313 -10.95563697814941 10.47718811035156 -10.44656848907471 C 10.16952514648438 -9.877204895019531 10.02000427246094 -9.226114273071289 10.02000427246094 -8.456000328063965 C 10.02000427246094 -7.963159561157227 10.12763977050781 -7.86577320098877 10.17361450195313 -7.824182510375977 C 10.28715515136719 -7.721466064453125 10.69483947753906 -7.552390098571777 11.52122497558594 -7.530386924743652 Z" stroke="none" fill="#a346fe"/></g></g></svg>