<svg xmlns="http://www.w3.org/2000/svg" xmlns:xlink="http://www.w3.org/1999/xlink" width="114" height="114" viewBox="0 0 114 114"><defs><style>.a{fill:#a2a2a2;opacity:0;}.b{opacity:0.6;}.b,.c{fill:url(#a);}.c{opacity:0.3;}.d,.e{fill:#39d64e;}.e{opacity:0.5;}</style><linearGradient id="a" x1="0.5" x2="0.5" y2="1" gradientUnits="objectBoundingBox"><stop offset="0" stop-color="#bbffc4"/><stop offset="1" stop-color="#d6fbff" stop-opacity="0.549"/></linearGradient></defs><g transform="translate(-1131 -1939)"><path class="a" d="M126.286,40h81.429C216.709,40,224,49.28,224,60.727v72.545C224,144.72,216.709,154,207.714,154H126.286C117.291,154,110,144.72,110,133.273V60.727C110,49.28,117.291,40,126.286,40Z" transform="translate(1021 1899)"/><rect class="b" width="78" height="78" rx="39" transform="translate(1167 1946)"/><rect class="c" width="23" height="23" rx="11.5" transform="translate(1131 2014)"/><g transform="translate(954.027 1696.646)"><path class="d" d="M255.9,272.354h-43.85a7.082,7.082,0,0,0-7.074,7.073v39.11a7.082,7.082,0,0,0,7.074,7.073H255.9a7.082,7.082,0,0,0,7.074-7.073v-39.11A7.082,7.082,0,0,0,255.9,272.354Zm2.408,46.184a2.41,2.41,0,0,1-2.407,2.407H212.047a2.41,2.41,0,0,1-2.407-2.407v-28.17a1.5,1.5,0,0,1,1.5-1.5h45.673a1.5,1.5,0,0,1,1.5,1.5Zm0-35.828a1.5,1.5,0,0,1-1.5,1.5H211.135a1.5,1.5,0,0,1-1.5-1.5v-3.283a2.41,2.41,0,0,1,2.407-2.407H255.9a2.41,2.41,0,0,1,2.407,2.407Zm-44.158-3.2a1.1,1.1,0,1,0,1.1,1.1A1.1,1.1,0,0,0,214.147,279.512Zm3.623,0a1.1,1.1,0,1,0,1.1,1.1A1.1,1.1,0,0,0,217.77,279.512Zm3.623,0a1.1,1.1,0,1,0,1.1,1.1A1.1,1.1,0,0,0,221.393,279.512Z"/><g transform="translate(213.161 293.779)"><g transform="translate(0.471 6.362)"><path class="d" d="M249.827,405.274H247.5a.58.58,0,0,0-.55.4l-.293.871a.58.58,0,0,1-.55.4h-1.591a.58.58,0,0,1-.542-.787l2.893-7.591a1.8,1.8,0,0,1,1.68-1.158h.277a1.8,1.8,0,0,1,1.68,1.158l2.893,7.591a.58.58,0,0,1-.542.787h-1.639a.58.58,0,0,1-.55-.4l-.293-.871A.58.58,0,0,0,249.827,405.274Zm-.612-3.081h0a.58.58,0,0,0-1.1,0h0a.58.58,0,0,0,.55.765h0A.58.58,0,0,0,249.215,402.193Z" transform="translate(-243.939 -397.4)"/><path class="d" d="M289.9,398.353a.953.953,0,0,1,.953-.953h3.144a5.046,5.046,0,0,1,2.452.579,4.061,4.061,0,0,1,1.651,1.655,5.753,5.753,0,0,1,0,5.067,4.058,4.058,0,0,1-1.651,1.655,5.043,5.043,0,0,1-2.452.579H290.85a.953.953,0,0,1-.953-.953Zm3.978,6.076a1.858,1.858,0,0,0,1.443-.593,2.847,2.847,0,0,0,0-3.337,1.859,1.859,0,0,0-1.443-.593h-.223a.953.953,0,0,0-.953.953v2.616a.953.953,0,0,0,.953.953Z" transform="translate(-279.684 -397.4)"/></g><rect class="e" width="19.941" height="2.551" rx="1.275" transform="translate(0 0)"/><rect class="e" width="19.941" height="2.551" rx="1.275" transform="translate(21.68 0)"/><rect class="e" width="19.941" height="2.551" rx="1.275" transform="translate(21.68 10.598)"/><rect class="e" width="10.608" height="2.551" rx="1.275" transform="translate(21.68 15.898)"/><rect class="e" width="19.941" height="2.551" rx="1.275" transform="translate(21.68 5.299)"/><rect class="e" width="19.941" height="2.551" rx="1.275" transform="translate(0 19.709)"/></g></g></g></svg>