<svg class="animated" id="freepik_stories-new-message" xmlns="http://www.w3.org/2000/svg" viewBox="160 0 300 300" version="1.1"><style>@keyframes slideRight{0%{opacity:0;transform:translateX(30px)}to{opacity:1;transform:translateX(0)}}@keyframes slideUp{0%{opacity:0;transform:translateY(30px)}to{opacity:1;transform:inherit}}@keyframes lightSpeedRight{60%{transform:skewX(10deg);opacity:1}80%{transform:skewX(-2deg)}}@keyframes slideLeft{0%{opacity:0;transform:translateX(-30px)}to{opacity:1;transform:translateX(0)}}svg#freepik_stories-new-message:not(.animated) .animable{opacity:0}</style><g id="freepik--Clouds--inject-44" class="animable" style="transform-origin:393.735px 76.7359px;animation:1s 1 forwards cubic-bezier(.36,-.01,.5,1.38) lightSpeedRight;animation-delay:0s"><path id="freepik--Cloud--inject-44" d="M387.73 54.71l8.62 5a9 9 0 0 1-.08-1.14V56c0-4.44 3.12-6.24 7-4a13.53 13.53 0 0 1 4.15 4c.63-5.58 5-7.66 10.33-4.59 5.75 3.32 10.42 11.4 10.42 18v3.73a9.78 9.78 0 0 1-.89 4.33l7.16 4.13a8.53 8.53 0 0 1 3.86 6.68c0 2.47-1.73 3.46-3.86 2.23l-46.71-26.89a8.53 8.53 0 0 1-3.86-6.68c0-2.47 1.73-3.47 3.86-2.23z" style="transform-origin:411.085px 70.5142px" class="animable" fill="#ebebeb"/><path id="freepik--cloud--inject-44" d="M352 76.89l6.31 3.64a7.86 7.86 0 0 1 0-.83v-1.83c0-3.26 2.28-4.58 5.1-3a9.93 9.93 0 0 1 3 2.93c.46-4.1 3.67-5.62 7.57-3.37a16.89 16.89 0 0 1 7.64 13.22v2.74a7.26 7.26 0 0 1-.65 3.17l5.24 3a6.25 6.25 0 0 1 2.84 4.9c0 1.81-1.27 2.54-2.84 1.63L352 83.43a6.26 6.26 0 0 1-2.83-4.91c-.04-1.8 1.22-2.52 2.83-1.63z" style="transform-origin:369.11px 88.4352px" class="animable" fill="#ebebeb"/></g><g id="freepik--Message--inject-44" class="animable" style="transform-origin:259.135px 178.954px;animation:1s 1 forwards cubic-bezier(.36,-.01,.5,1.38) slideLeft;animation-delay:0s"><g id="freepik--Envelope--inject-44" class="animable" style="transform-origin:244.155px 178.954px"><path d="M173.55 181.54l133.38-77 5.34 3.08a5.57 5.57 0 0 1 2.5 4.35v98.39a5.56 5.56 0 0 1-2.5 4.35l-128.37 74.1a5.61 5.61 0 0 1-5 0l-2.82-1.63a5.59 5.59 0 0 1-2.51-4.35z" style="transform-origin:244.16px 196.969px" id="ely0us349npy" class="animable" fill="#ba68c8"/><path d="M173.55 181.54l133.38-77 5.34 3.08a5.57 5.57 0 0 1 2.5 4.35v98.39a5.56 5.56 0 0 1-2.5 4.35l-128.37 74.1a5.61 5.61 0 0 1-5 0l-2.82-1.63a5.59 5.59 0 0 1-2.51-4.35z" style="transform-origin:244.16px 196.969px" class="animable" opacity=".05" id="elmks9f3w783"/><path d="M306.19 95.88l.55-.3-2.07-1.2a4 4 0 0 0-.56-.26l-58.7-21.75a4 4 0 0 0-4.5 1.43l-65.67 95.89a11.44 11.44 0 0 0-1.69 5.48v6.37l2 1.18 131.35-78.19v-6.37a4.34 4.34 0 0 0-.71-2.28z" style="transform-origin:240.225px 127.441px" id="elpnsq4eb562" class="animable" fill="#ba68c8"/><path d="M243.62 74.27a3.32 3.32 0 0 0-.68.72l-65.67 95.89a10.2 10.2 0 0 0-1.22 2.74l-2-1.18a13.1 13.1 0 0 1 .53-1.45c.09-.2.18-.39.28-.58v-.09a5.23 5.23 0 0 1 .35-.58l65.69-95.93a3.19 3.19 0 0 1 .33-.4l.35-.32z" style="transform-origin:208.835px 123.355px" class="animable" opacity=".1" id="elq1v6uct0f6r"/><path d="M306.71 95.58a3.2 3.2 0 0 0-.56-.27l-58.71-21.76a4 4 0 0 0-3.82.72l-2-1.18a4.07 4.07 0 0 1 3.83-.72l58.7 21.75a3.11 3.11 0 0 1 .55.27z" style="transform-origin:274.165px 83.8759px" class="animable" fill="#fff" opacity=".35" id="el42c74fjvpch"/><path d="M174.89 170.27a6.36 6.36 0 0 1 .35-.58 6.36 6.36 0 0 0-.35.58z" style="transform-origin:175.065px 169.98px" id="el14jtly55qru" class="animable" fill="#ba68c8"/><path d="M241.24 73.41a2.66 2.66 0 0 1 .35-.32 2.15 2.15 0 0 0-.35.32z" style="transform-origin:241.415px 73.25px" id="elwq7i0myo7oh" class="animable" fill="#ba68c8"/><path d="M174 172.44a13.27 13.27 0 0 1 .53-1.46 13.27 13.27 0 0 0-.53 1.46z" style="transform-origin:174.265px 171.71px" id="elfuzh4zh5bdq" class="animable" fill="#ba68c8"/><path d="M174.56 170.94c.09-.2.19-.39.28-.57-.09.18-.19.37-.28.57z" style="transform-origin:174.7px 170.655px" id="elc1hnelzjwbt" class="animable" fill="#ba68c8"/><path d="M174.54 171z" style="transform-origin:174.54px 171px" class="animable" opacity=".2" id="el5hswc378ns8"/><path style="transform-origin:174.01px 172.44px" class="animable" opacity=".2" d="M174.01 172.44z" id="eltwf7rmfonhp"/><path style="transform-origin:241.59px 73.09px" class="animable" opacity=".2" d="M241.59 73.09z" id="el0boenq694xpf"/><path d="M174.84 170.37v-.1c0-.03.02.07 0 .1z" style="transform-origin:174.844px 170.317px" class="animable" opacity=".2" id="el5jx5f2nc0oe"/><path d="M240.91 73.8a2.44 2.44 0 0 1 .33-.39 2 2 0 0 0-.33.39z" style="transform-origin:241.075px 73.605px" class="animable" opacity=".2" id="elzlvgbio573"/><path d="M242.94 75l-65.66 95.9a11.27 11.27 0 0 0-1.7 5.47v6.37l133.38-77v-6.4a4.64 4.64 0 0 0-2.81-4l-58.7-21.75a4.05 4.05 0 0 0-4.51 1.41z" style="transform-origin:242.27px 128.062px" id="eldnaavfpvkt" class="animable" fill="#ba68c8"/><path d="M190.1 275.41l-4.28-2.47a2.58 2.58 0 0 1-1-2.33V137.25a7.66 7.66 0 0 1 1.2-3.81l4.35 2.5a7.6 7.6 0 0 0-1.2 3.83v133.31a2.61 2.61 0 0 0 .93 2.33z" style="transform-origin:187.587px 204.425px" id="elpqgh9hdnmfl" class="animable" fill="#e0e0e0"/><path d="M192.77 133.4l107.14-61.84c2-1.18 3.67-.23 3.67 2.12V207a8.11 8.11 0 0 1-3.67 6.37L192.77 275.2c-2 1.17-3.67.22-3.67-2.13v-133.3a8.14 8.14 0 0 1 3.67-6.37z" style="transform-origin:246.34px 173.377px" id="elwgyzra4a3w" class="animable" fill="#f0f0f0"/><path d="M298.16 68.79l4.2 2.44a2.6 2.6 0 0 0-2.46.35l-107.13 61.83a7.08 7.08 0 0 0-2.48 2.53l-4.35-2.5a7.38 7.38 0 0 1 2.47-2.55L295.55 69a2.52 2.52 0 0 1 2.61-.23z" style="transform-origin:244.15px 102.225px" id="eldifw3193zg7" class="animable" fill="#fafafa"/><path d="M201.13 140.38l89.09-51.44c1.2-.69 2.17-.2 2.17 1.1a4.64 4.64 0 0 1-2.17 3.59l-89.09 51.44c-1.2.69-2.17.2-2.17-1.09a4.64 4.64 0 0 1 2.17-3.6z" style="transform-origin:245.675px 117.005px" id="elsmftoljr3xn" class="animable" fill="#e0e0e0"/><path d="M201.13 149.73l89.09-51.44c1.2-.69 2.17-.2 2.17 1.1a4.64 4.64 0 0 1-2.17 3.59l-89.09 51.44c-1.2.69-2.17.2-2.17-1.09a4.64 4.64 0 0 1 2.17-3.6z" style="transform-origin:245.675px 126.355px" id="elmgrq1jvvex" class="animable" fill="#e0e0e0"/><path d="M201.13 159.08l89.09-51.44c1.2-.69 2.17-.2 2.17 1.09a4.64 4.64 0 0 1-2.17 3.6l-89.09 51.44c-1.2.69-2.17.2-2.17-1.09a4.64 4.64 0 0 1 2.17-3.6z" style="transform-origin:245.675px 135.705px" id="elltraq6k8a2n" class="animable" fill="#e0e0e0"/><path d="M201.13 168.43L290.22 117c1.2-.69 2.17-.2 2.17 1.09a4.64 4.64 0 0 1-2.17 3.6l-89.09 51.44c-1.2.69-2.17.2-2.17-1.1a4.64 4.64 0 0 1 2.17-3.6z" style="transform-origin:245.675px 145.065px" id="el2rv899jf28p" class="animable" fill="#e0e0e0"/><path d="M201.13 177.78l89.09-51.44c1.2-.69 2.17-.2 2.17 1.09a4.64 4.64 0 0 1-2.17 3.6l-89.09 51.44c-1.2.69-2.17.2-2.17-1.1a4.64 4.64 0 0 1 2.17-3.59z" style="transform-origin:245.675px 154.405px" id="eljagjaitqcz8" class="animable" fill="#e0e0e0"/><path d="M201.13 187.13l89.09-51.44c1.2-.69 2.17-.2 2.17 1.09a4.64 4.64 0 0 1-2.17 3.6l-89.09 51.44c-1.2.69-2.17.2-2.17-1.1a4.64 4.64 0 0 1 2.17-3.59z" style="transform-origin:245.675px 163.755px" id="elht5brg5k51a" class="animable" fill="#e0e0e0"/><path d="M201.13 196.48L290.22 145c1.2-.69 2.17-.2 2.17 1.09a4.64 4.64 0 0 1-2.17 3.6l-89.09 51.44c-1.2.69-2.17.2-2.17-1.1a4.64 4.64 0 0 1 2.17-3.55z" style="transform-origin:245.675px 173.065px" id="elwc9iupfq8a" class="animable" fill="#e0e0e0"/><path d="M201.13 205.83l89.09-51.44c1.2-.7 2.17-.2 2.17 1.09a4.64 4.64 0 0 1-2.17 3.6l-89.09 51.44c-1.2.69-2.17.2-2.17-1.1a4.64 4.64 0 0 1 2.17-3.59z" style="transform-origin:245.675px 182.453px" id="elflifyxq56d" class="animable" fill="#e0e0e0"/><path d="M311.39 211.66a1.21 1.21 0 0 1-.14.2l-55.58-24.65a9.57 9.57 0 0 0-12 3.7l-59.42 95.34-2.2 1.27a1.79 1.79 0 0 1-1.7.19l61.11-98.06a9.6 9.6 0 0 1 12-3.71z" style="transform-origin:245.87px 236.487px" id="elvxhbidmgf6" class="animable" fill="#ba68c8"/><path d="M238.18 199.58l.14-.12-54.09 86.8-2.2 1.27a1.82 1.82 0 0 1-1.7.19L236 198.3z" style="transform-origin:209.325px 243.074px" class="animable" fill="#fff" opacity=".4" id="elaf6bk74nmp5"/><path d="M311.39 211.67a1.21 1.21 0 0 1-.14.2l-55.59-24.66a9.57 9.57 0 0 0-12 3.7l-2.2-1.28a9.6 9.6 0 0 1 12-3.68z" style="transform-origin:276.425px 198.503px" class="animable" fill="#fff" opacity=".4" id="elplo4nm1arf"/><path d="M314.73 111.33c-.12-.72-.5-.92-1-.58a2.89 2.89 0 0 0-.64.66l-.28.39L258 188.16l-8.19 11.41a4.67 4.67 0 0 1-4.51 1.69l-7.07-1.68-54-12.84a2.75 2.75 0 0 0-1.1 0 2 2 0 0 0-.41.13l1.49-.86 52 12.37 7.09 1.62a4.65 4.65 0 0 0 4.51-1.69l8.19-11.4 55.12-76.75a2.2 2.2 0 0 1 .62-.57l-4.74-2.73 2-1.15 3.3 1.9a5.72 5.72 0 0 1 2.43 3.72z" style="transform-origin:248.725px 153.524px" id="elsg673qr5i3" class="animable" fill="#ba68c8"/><path d="M258 188.16l-8.19 11.41a4.67 4.67 0 0 1-4.51 1.69l-7.07-1.68.14-.12.34-.54 4.63 1.1a4.65 4.65 0 0 0 4.51-1.69l8.11-11.28z" style="transform-origin:248.115px 194.194px" class="animable" fill="#fff" opacity=".4" id="elldhskq8ptjm"/><path d="M312.26 107.61l-3.3-1.9-2 1.15 4.77 2.75a2.24 2.24 0 0 0-.62.57L256 186.93l-.08.11 2 1.11 54.88-76.35.28-.39a2.89 2.89 0 0 1 .64-.66c.49-.34.87-.14 1 .58a5.72 5.72 0 0 0-2.46-3.72z" style="transform-origin:285.32px 146.93px" class="animable" opacity=".1" id="elack775rmvh"/><path d="M185.31 188.34l-11.76-6.8v101.29a5.59 5.59 0 0 0 2.51 4.35l2.82 1.63a5.61 5.61 0 0 0 5 0l1.41-.82z" style="transform-origin:179.43px 235.469px" id="elr9ncbt34j2" class="animable" fill="#ba68c8"/><path d="M185.31 188.34l-11.76-6.8v101.29a5.59 5.59 0 0 0 2.51 4.35l2.82 1.63a5.61 5.61 0 0 0 5 0l1.41-.82z" style="transform-origin:179.43px 235.469px" class="animable" opacity=".15" id="elrpzwglx04b"/><path d="M312.81 111.8v97.32a5 5 0 0 1-.78 2.54 5.2 5.2 0 0 1-1.47 1.64l-.09.06-.17.11-128.36 74.1a2.38 2.38 0 0 1-.49.23 3.19 3.19 0 0 1 0-.45V189a2.18 2.18 0 0 1 2.82-2.22l54 12.84 7.07 1.68a4.67 4.67 0 0 0 4.51-1.69l8.15-11.45z" style="transform-origin:247.126px 199.8px" id="eljxa2difcmu" class="animable" fill="#455a64"/><path d="M314.78 112v98.39a5.11 5.11 0 0 1-.78 2.54 5.48 5.48 0 0 1-1.47 1.65l-.1.05a1.53 1.53 0 0 1-.16.11L183.91 288.8a1.79 1.79 0 0 1-1.71.2 1.52 1.52 0 0 1-.75-1.2 3.19 3.19 0 0 1 0-.45V189a2.18 2.18 0 0 1 2.82-2.22l54 12.84 7.07 1.68a4.67 4.67 0 0 0 4.51-1.69l8.15-11.45 54.85-76.36.28-.39c.87-1.29 1.65-1.05 1.65.59z" style="transform-origin:248.111px 199.858px" id="eli9w3ezarqr" class="animable" fill="#ba68c8"/><path d="M312.27 214.7l.16-.11.1-.05a5.48 5.48 0 0 0 1.47-1.65 5.13 5.13 0 0 0 .77-2.49L258 188.16l38 35.93z" style="transform-origin:286.385px 206.125px" id="el4yw3xew5mwy" class="animable" fill="#ba68c8"/><path d="M312.27 214.7l.16-.11.1-.05a5.48 5.48 0 0 0 1.47-1.65 5.13 5.13 0 0 0 .77-2.49L258 188.16l38 35.93z" style="transform-origin:286.385px 206.125px" class="animable" opacity=".2" id="el3jay8axkxvy"/><path d="M181.4 287.36a1.73 1.73 0 0 0 .78 1.65 1.79 1.79 0 0 0 1.71-.2l44.19-25.51 10.09-63.71-56.77 86.13z" style="transform-origin:209.779px 244.366px" id="elfqz6u0sem1f" class="animable" fill="#ba68c8"/><path d="M243.63 190.9L182.17 289a1.73 1.73 0 0 1-.78-1.65v-1.63L235.62 199l.42-.67 5.39-8.64z" style="transform-origin:212.504px 239.345px" class="animable" opacity=".15" id="el1xg7tb57eqj"/><path d="M314 212.89a5.48 5.48 0 0 1-1.47 1.65l-.1.05-128.52 74.21a1.79 1.79 0 0 1-1.71.2l61.46-98.13a9.66 9.66 0 0 1 12.09-3.71z" style="transform-origin:248.1px 237.734px" id="eliob746n7asm" class="animable" fill="#ba68c8"/><path d="M314 212.9a5.2 5.2 0 0 1-1.47 1.64l-.09.06-128.54 74.21a1.81 1.81 0 0 1-1.71.19l1.71-2.72 126.31-72.94.1-.06a5.11 5.11 0 0 0 1.33-1.44z" style="transform-origin:248.095px 250.486px" id="eldpa5fbhuep" class="animable" fill="#ba68c8"/><path d="M174 172.44l2 1.18a10 10 0 0 0-.47 2.74v6.36l-2-1.18v-6.37a10 10 0 0 1 .47-2.73z" style="transform-origin:174.765px 177.58px" class="animable" opacity=".15" id="el66uip7ukul"/><path style="transform-origin:180.83px 184.19px" id="elxvtizs3tiie" class="animable" fill="#ba68c8" d="M186.08 186.42l-1.88-.45-1.49.86-2.06-1.19-5.07-2.92 1.97-1.17 8.53 4.87z"/><path d="M186.08 186.42l-8.52-4.86-2 1.17 5.07 2.92 2.06 1.19a1.29 1.29 0 0 1 .38-.12 2.75 2.75 0 0 1 1.1 0l4.15 1 47.3 11.28.42-.67z" style="transform-origin:205.8px 190.28px" class="animable" opacity=".1" id="elwdrd9qtnrq"/></g><g id="freepik--Notification--inject-44" class="animable" style="transform-origin:317.295px 215.518px"><path d="M338.5 190.34l-9.49-5.5-.08-.05c-4.14-2.34-9.83-2-16.12 1.65-12.66 7.31-22.93 25.09-22.93 39.71 0 7.3 2.57 12.43 6.7 14.83l8.65 5 2-3.39a23.16 23.16 0 0 0 6.58-2.56c12.66-7.31 22.93-25.09 22.93-39.71a24.41 24.41 0 0 0-.72-5.86z" style="transform-origin:314.19px 214.643px" id="elwzefgd2w8p" class="animable" fill="#f28f8f"/><path d="M290.72 218.46a36.88 36.88 0 0 0-.87 7.7c0 7.3 2.57 12.43 6.7 14.83l8.65 5 2-3.39a23.16 23.16 0 0 0 6.58-2.56 36.68 36.68 0 0 0 6.25-4.61z" style="transform-origin:304.94px 232.225px" class="animable" opacity=".15" id="elt38qxpnzo2"/><path d="M321.81 191.65c-12.66 7.31-22.93 25.09-22.93 39.71s10.27 20.55 22.93 13.24 22.93-25.09 22.93-39.71-10.26-20.55-22.93-13.24z" style="transform-origin:321.81px 218.125px" id="el3n88o3cpvob" class="animable" fill="#ffa8a7"/><path d="M330.87 212v-5.62c0-6.41-3.9-9.36-8.7-6.58-4.81 2.78-8.71 10.22-8.71 16.63v5a19.92 19.92 0 0 1-2.93 9.81 5.43 5.43 0 0 0-.71 2.57c0 1.61 1 2.36 2.19 1.66l20.33-11.74a5.26 5.26 0 0 0 2.19-4.19 2.05 2.05 0 0 0-.64-1.7c-1.84-.78-3.02-2.84-3.02-5.84z" style="transform-origin:322.18px 217.243px" id="el3d9fehowcfc" class="animable" fill="#fff"/><path d="M326.34 229c0 3.08-1.87 6.65-4.17 8s-4.18-.08-4.18-3.15z" style="transform-origin:322.165px 233.255px" id="elouecbe785hb" class="animable" fill="#fff"/></g></g><defs><filter id="active" height="200%"><feMorphology in="SourceAlpha" result="DILATED" operator="dilate" radius="2"/><feFlood flood-color="#32DFEC" flood-opacity="1" result="PINK"/><feComposite in="PINK" in2="DILATED" operator="in" result="OUTLINE"/><feMerge><feMergeNode in="OUTLINE"/><feMergeNode in="SourceGraphic"/></feMerge></filter><filter id="hover" height="200%"><feMorphology in="SourceAlpha" result="DILATED" operator="dilate" radius="2"/><feFlood flood-color="red" flood-opacity=".5" result="PINK"/><feComposite in="PINK" in2="DILATED" operator="in" result="OUTLINE"/><feMerge><feMergeNode in="OUTLINE"/><feMergeNode in="SourceGraphic"/></feMerge><feColorMatrix values="0 0 0 0 0 0 1 0 0 0 0 0 0 0 0 0 0 0 1 0"/></filter></defs></svg>