<svg xmlns="http://www.w3.org/2000/svg" xmlns:xlink="http://www.w3.org/1999/xlink" width="114" height="114" viewBox="0 0 114 114"><defs><style>.a{fill:#fff;opacity:0;}.b{opacity:0.6;}.b,.c{fill:url(#a);}.c{opacity:0.3;}.d,.e{fill:#ff6363;}.e{opacity:0.5;}.f{fill:#ff5924;}</style><linearGradient id="a" x1="0.5" x2="0.5" y2="1" gradientUnits="objectBoundingBox"><stop offset="0" stop-color="#fbb"/><stop offset="1" stop-color="#fff3d6"/></linearGradient></defs><g transform="translate(-173.631 -224.236)"><path class="a" d="M126.286,40h81.429C216.709,40,224,49.28,224,60.727v72.545C224,144.72,216.709,154,207.714,154H126.286C117.291,154,110,144.72,110,133.273V60.727C110,49.28,117.291,40,126.286,40Z" transform="translate(63.631 184.236)"/><rect class="b" width="78" height="78" rx="39" transform="translate(209.631 240.236)"/><rect class="c" width="23" height="23" rx="11.5" transform="translate(173.631 297.236)"/><g transform="translate(0 -4.09)"><path class="d" d="M313.093,408.678a1.616,1.616,0,0,0,2.476.009l3.621-4.279a1.242,1.242,0,0,0-.146-1.749l-.575-.487a1.243,1.243,0,0,0-1.749.146l-2.213,2.614a.2.2,0,0,1-.158.074h0a.241.241,0,0,1-.182-.087,1.245,1.245,0,0,0-1.739-.145l-.578.483A1.243,1.243,0,0,0,311.7,407Z" transform="translate(-85.219 -112.014)"/><path class="e" d="M285.088,386.83h9.4a3.814,3.814,0,0,0,2.673-1.107l3.623-3.619a3.771,3.771,0,0,0,1.1-2.673V368.1a3.527,3.527,0,0,0-3.523-3.523H285.088a3.527,3.527,0,0,0-3.523,3.523v15.2A3.527,3.527,0,0,0,285.088,386.83Zm1.846-18.314h.012l9.685.084a1.352,1.352,0,0,1,1.337,1.348v8.711a1.358,1.358,0,0,1-.395.953l-2.894,2.894a1.357,1.357,0,0,1-.954.4h-.016l-6.878-.084a1.351,1.351,0,0,1-1.332-1.359l.088-11.6a1.348,1.348,0,0,1,1.348-1.338Z" transform="translate(-61.492 -81.953)"/><path class="f" d="M252.612,259.962h-4.317a.559.559,0,0,1-.559-.559v-.639a2.421,2.421,0,0,0-2.032-2.413,2.383,2.383,0,0,0-2.732,2.357v.7a.559.559,0,0,1-.558.559H218.05a.559.559,0,0,1-.559-.559v-.7a2.382,2.382,0,0,0-4.764,0v.7a.559.559,0,0,1-.558.559h-4.318a7.229,7.229,0,0,0-7.221,7.221v39.923a7.229,7.229,0,0,0,7.221,7.22h44.762a7.229,7.229,0,0,0,7.22-7.22V267.183A7.23,7.23,0,0,0,252.612,259.962Zm-37.5,8.235a2.384,2.384,0,0,0,2.382-2.382v-.531a.559.559,0,0,1,.559-.558h24.364a.559.559,0,0,1,.558.558v.475A2.421,2.421,0,0,0,245,268.171a2.382,2.382,0,0,0,2.732-2.357v-.531a.559.559,0,0,1,.559-.558h4.318a2.46,2.46,0,0,1,2.457,2.457v3.351a1.529,1.529,0,0,1-1.527,1.527H206.921a1.529,1.529,0,0,1-1.527-1.527v-3.351a2.46,2.46,0,0,1,2.457-2.457h4.318a.559.559,0,0,1,.558.558v.531A2.384,2.384,0,0,0,215.109,268.2Zm-8.189,8.627h46.622a1.528,1.528,0,0,1,1.527,1.527v28.755a2.46,2.46,0,0,1-2.457,2.457H207.851a2.46,2.46,0,0,1-2.457-2.457V278.35A1.529,1.529,0,0,1,206.921,276.823Z"/></g></g></svg>