<svg xmlns="http://www.w3.org/2000/svg" xmlns:xlink="http://www.w3.org/1999/xlink" width="114" height="114" viewBox="0 0 114 114"><defs><style>.a{fill:#a2a2a2;opacity:0;}.b{opacity:0.6;}.b,.c{fill:url(#a);}.c{opacity:0.3;}.d,.e{fill:#ff2e78;}.e{opacity:0.5;}</style><linearGradient id="a" x1="0.5" x2="0.5" y2="1" gradientUnits="objectBoundingBox"><stop offset="0" stop-color="#ffbbe8"/><stop offset="1" stop-color="#ffebd6"/></linearGradient></defs><g transform="translate(-711 -1939)"><path class="a" d="M126.286,40h81.429C216.709,40,224,49.28,224,60.727v72.545C224,144.72,216.709,154,207.714,154H126.286C117.291,154,110,144.72,110,133.273V60.727C110,49.28,117.291,40,126.286,40Z" transform="translate(601 1899)"/><rect class="b" width="78" height="78" rx="39" transform="translate(747 1946)"/><rect class="c" width="23" height="23" rx="11.5" transform="translate(711 2001)"/><g transform="translate(533.079 1693.741)"><path class="d" d="M258.358,274.26H211.482a7.57,7.57,0,0,0-7.561,7.561V323.63a7.57,7.57,0,0,0,7.561,7.561h46.876a7.57,7.57,0,0,0,7.561-7.561V281.822A7.571,7.571,0,0,0,258.358,274.26Zm2.574,49.37a2.576,2.576,0,0,1-2.573,2.573H211.482a2.576,2.576,0,0,1-2.573-2.573V281.822a2.576,2.576,0,0,1,2.573-2.573h46.876a2.576,2.576,0,0,1,2.573,2.573Z"/><path class="d" d="M381.6,315.09h-1.125a.951.951,0,0,1-.951-.951v-1.125a1.9,1.9,0,0,0-3.485-1.084,2,2,0,0,0-.311,1.11v1.1a.951.951,0,0,1-.95.951h-1.125a1.9,1.9,0,0,0-1.093,3.48,1.977,1.977,0,0,0,1.109.316h1.11a.951.951,0,0,1,.95.951v1.125a1.9,1.9,0,0,0,3.488,1.081,1.981,1.981,0,0,0,.308-1.1v-1.109a.951.951,0,0,1,.951-.951h1.11a1.978,1.978,0,0,0,1.109-.316,1.9,1.9,0,0,0-1.093-3.48Z" transform="translate(-127.933 -28.069)"/><path class="e" d="M308.61,352.053a8.042,8.042,0,1,0-8.041-8.042A8.051,8.051,0,0,0,308.61,352.053Z" transform="translate(-73.69 -47.051)"/><path class="e" d="M286.86,408.984c-8.17,0-14.818,5.707-14.818,12.721a1.186,1.186,0,0,0,1.265,1.086h27.1a1.186,1.186,0,0,0,1.265-1.086C301.678,414.691,295.03,408.984,286.86,408.984Z" transform="translate(-51.939 -102.721)"/></g></g></svg>