<svg xmlns="http://www.w3.org/2000/svg" xmlns:xlink="http://www.w3.org/1999/xlink" width="114" height="114" viewBox="0 0 114 114"><defs><style>.a{fill:#fff;opacity:0;}.b{opacity:0.6;}.b,.c{fill:url(#a);}.c{opacity:0.3;}.d{opacity:0.5;}.e{fill:#005fff;}</style><linearGradient id="a" x1="0.5" x2="0.5" y2="1" gradientUnits="objectBoundingBox"><stop offset="0" stop-color="#bbdfff"/><stop offset="1" stop-color="#d6ffe4"/></linearGradient></defs><g transform="translate(-1323 -1434)"><path class="a" d="M126.286,40h81.429C216.709,40,224,49.28,224,60.727v72.545C224,144.72,216.709,154,207.714,154H126.286C117.291,154,110,144.72,110,133.273V60.727C110,49.28,117.291,40,126.286,40Z" transform="translate(1213 1394)"/><rect class="b" width="78" height="78" rx="39" transform="translate(1359 1450)"/><rect class="c" width="23" height="23" rx="11.5" transform="translate(1323 1496)"/><g transform="translate(1150.37 1191.647)"><g class="d" transform="translate(217.892 293.216)"><path class="e" d="M304.354,417.148a2.611,2.611,0,1,0,2.61,2.611A2.614,2.614,0,0,0,304.354,417.148Zm.1,2.611a.1.1,0,1,1-.1-.1A.1.1,0,0,1,304.452,419.759Z" transform="translate(-296.216 -405.376)"/><path class="e" d="M300.853,376.355l-.039-.027a1.612,1.612,0,0,0-1.577-.124,1.473,1.473,0,0,1-2.1-1.339,1.34,1.34,0,0,1,.14-.6,1.605,1.605,0,0,0-1.373-2.322,1.466,1.466,0,0,1-.666-2.737,1.6,1.6,0,0,0-.025-2.8,12.179,12.179,0,0,0-15.192,2.913l-1.1,1.583-.018.029a12.05,12.05,0,0,0,0,12.291L280,384.791l.027.034a12.152,12.152,0,0,0,21.495-7.079A1.614,1.614,0,0,0,300.853,376.355Zm-9.367-4.539a4.72,4.72,0,0,0,2.444,2.872,4.685,4.685,0,0,0,4.059,4.825,8.942,8.942,0,0,1-9.69,6.44h0a8.95,8.95,0,1,1,3.459-17.513A4.675,4.675,0,0,0,291.485,371.816Z" transform="translate(-277.218 -364.916)"/><path class="e" d="M329.623,426.589a2.61,2.61,0,1,0,2.61-2.61A2.613,2.613,0,0,0,329.623,426.589Zm2.61.1a.1.1,0,0,1-.1-.1.1.1,0,1,1,.195,0A.1.1,0,0,1,332.233,426.686Z" transform="translate(-317.812 -410.667)"/><path class="e" d="M315.683,392.426a2.611,2.611,0,1,0,2.611-2.61A2.613,2.613,0,0,0,315.683,392.426Zm2.708,0a.1.1,0,1,1-.1-.1A.1.1,0,0,1,318.391,392.426Z" transform="translate(-307.013 -384.204)"/></g><path class="e" d="M242.365,321.639H207.8a2.441,2.441,0,0,1-2.441-2.441V290.625a1.517,1.517,0,0,1,1.517-1.517h46.325a1.517,1.517,0,0,1,1.517,1.517v7.293a2.3,2.3,0,0,0,2.306,2.3h.085a2.34,2.34,0,0,0,2.342-2.34V279.529a7.175,7.175,0,0,0-7.175-7.175H207.8a7.174,7.174,0,0,0-7.174,7.174V319.2a7.175,7.175,0,0,0,7.174,7.174h34.642a2.3,2.3,0,0,0,1.95-3.518l-.046-.076A2.326,2.326,0,0,0,242.365,321.639Zm-37-42.11a2.444,2.444,0,0,1,2.441-2.441h44.477a2.444,2.444,0,0,1,2.441,2.441v3.329a1.519,1.519,0,0,1-1.517,1.517H206.88a1.519,1.519,0,0,1-1.517-1.517Z"/><g transform="translate(243.999 302.3)"><path class="e" d="M405.085,405.217a12.036,12.036,0,1,0,12.036,12.036A12.036,12.036,0,0,0,405.085,405.217Zm-1.225,15.142a3.132,3.132,0,0,1-1.358,1.129,5.339,5.339,0,0,1-2.283.434,8.829,8.829,0,0,1-1.882-.2q-.186-.04-.362-.088a1.183,1.183,0,0,1-.76-1.637l.017-.037a1.2,1.2,0,0,1,1.458-.631q.1.032.208.059a4.785,4.785,0,0,0,1.218.166,1.717,1.717,0,0,0,.842-.178.559.559,0,0,0,.319-.51q0-.612-1.059-.612H399.7a.672.672,0,0,1-.672-.672v-.9a.672.672,0,0,1,.192-.471.672.672,0,0,0-.48-1.143h-.915a.672.672,0,0,1-.672-.672v-.926a.672.672,0,0,1,.672-.672h5.314a.672.672,0,0,1,.672.672v.9a.672.672,0,0,1-.193.472l-1.465,1.488a2.887,2.887,0,0,1,1.588.925,2.448,2.448,0,0,1,.555,1.614A2.75,2.75,0,0,1,403.86,420.359Zm8.687-.6a3.769,3.769,0,0,1-1.429,1.607,4.245,4.245,0,0,1-4.2,0,3.769,3.769,0,0,1-1.429-1.607,6.338,6.338,0,0,1,0-5.013,3.769,3.769,0,0,1,1.429-1.607,4.245,4.245,0,0,1,4.2,0,3.769,3.769,0,0,1,1.429,1.607,6.34,6.34,0,0,1,0,5.013Z" transform="translate(-393.049 -405.217)"/><path class="e" d="M460.4,448.6q-1.021,0-1.02,2.258t1.02,2.258q1.021,0,1.021-2.258T460.4,448.6Z" transform="translate(-444.432 -438.824)"/></g></g></g></svg>