<svg xmlns="http://www.w3.org/2000/svg" xmlns:xlink="http://www.w3.org/1999/xlink" width="114" height="114" viewBox="0 0 114 114"><defs><style>.a{fill:#fff;opacity:0;}.b{opacity:0.6;}.b,.c{fill:url(#a);}.c{opacity:0.3;}.d,.e{fill:#7c56ff;}.e{opacity:0.5;}</style><linearGradient id="a" x1="0.5" x2="0.5" y2="1" gradientUnits="objectBoundingBox"><stop offset="0" stop-color="#bbd4ff"/><stop offset="1" stop-color="#ffd6f8"/></linearGradient></defs><g transform="translate(29 28)"><path class="a" d="M126.286,40h81.429C216.709,40,224,49.28,224,60.727v72.545C224,144.72,216.709,154,207.714,154H126.286C117.291,154,110,144.72,110,133.273V60.727C110,49.28,117.291,40,126.286,40Z" transform="translate(-139 -68)"/><rect class="b" width="78" height="78" rx="39" transform="translate(7 -12)"/><rect class="c" width="23" height="23" rx="11.5" transform="translate(-29 43)"/><g transform="translate(-208.63 -374.22)"><path class="d" d="M260.91,374.221H212.446a7.827,7.827,0,0,0-7.818,7.818v43.226a7.827,7.827,0,0,0,7.818,7.818h48.465a7.827,7.827,0,0,0,7.818-7.818V382.04A7.828,7.828,0,0,0,260.91,374.221Zm2.661,51.044a2.663,2.663,0,0,1-2.66,2.66H212.446a2.663,2.663,0,0,1-2.66-2.66V382.039a2.664,2.664,0,0,1,2.66-2.66h48.465a2.663,2.663,0,0,1,2.66,2.66Z" transform="translate(0 0)"/><g transform="translate(219.591 385.835)"><path class="d" d="M272.209,426.953a6.656,6.656,0,1,0,6.656,6.656A6.656,6.656,0,0,0,272.209,426.953Zm0,9.231a2.575,2.575,0,1,1,2.575-2.575A2.574,2.574,0,0,1,272.209,436.184Z" transform="translate(-265.553 -425.617)"/><path class="d" d="M357.155,506.953a6.656,6.656,0,1,0,6.656,6.656A6.656,6.656,0,0,0,357.155,506.953Zm0,9.231a2.575,2.575,0,1,1,2.575-2.575A2.574,2.574,0,0,1,357.155,516.184Z" transform="translate(-329.637 -485.969)"/><rect class="e" width="42.188" height="5.158" rx="2.579" transform="matrix(0.643, -0.766, 0.766, 0.643, 1.553, 32.318)"/></g></g></g></svg>