<svg xmlns="http://www.w3.org/2000/svg" xmlns:xlink="http://www.w3.org/1999/xlink" width="491.811" height="381.946" viewBox="0 0 491.811 381.946"><defs><linearGradient id="a" x1="1.348" y1="-0.215" x2="0.043" y2="0.787" gradientUnits="objectBoundingBox"><stop offset="0" stop-color="#1423f9"/><stop offset="0.561" stop-color="#a733ff"/><stop offset="1" stop-color="#ffb16d"/></linearGradient><linearGradient id="b" x1="0.619" y1="1" x2="0.623" gradientUnits="objectBoundingBox"><stop offset="0" stop-color="#bbd4ff"/><stop offset="1" stop-color="#ffd6f8"/></linearGradient><linearGradient id="c" x1="1.235" y1="-4.579" x2="0.138" y2="1" xlink:href="#b"/><linearGradient id="d" x1="0.5" x2="0.5" y2="1" gradientUnits="objectBoundingBox"><stop offset="0" stop-color="#fff"/><stop offset="1" stop-color="#fffefe" stop-opacity="0.102"/></linearGradient><linearGradient id="e" x1="0.036" y1="1.066" x2="1.055" y2="-0.141" gradientUnits="objectBoundingBox"><stop offset="0" stop-color="#ffb16d"/><stop offset="0.492" stop-color="#ff437c"/><stop offset="1" stop-color="#a733ff"/></linearGradient><linearGradient id="f" x1="0.816" y1="0.182" x2="0.172" y2="0.835" gradientUnits="objectBoundingBox"><stop offset="0" stop-color="#833ab4"/><stop offset="0.092" stop-color="#9c3495"/><stop offset="0.293" stop-color="#dc2546"/><stop offset="0.392" stop-color="#fd1d1d"/><stop offset="0.559" stop-color="#fc6831"/><stop offset="0.689" stop-color="#fc9b40"/><stop offset="0.752" stop-color="#fcaf45"/><stop offset="0.781" stop-color="#fdb750"/><stop offset="0.866" stop-color="#fecb6a"/><stop offset="0.942" stop-color="#ffd87a"/><stop offset="1" stop-color="#ffdc80"/></linearGradient></defs><g transform="translate(186.214 89.115)"><g transform="translate(-216.214 -78.257)"><g transform="translate(76.245 47.43)"><rect width="382.513" height="252.959" rx="21" fill="#fff1d6"/><path d="M275.6,13.049c0,8.735-110.093,15.815-245.9,15.815s-245.908-7.079-245.908-15.815S-106.117-2.778,29.693-2.778c39.928,0,111.034,1.7,111.034,1.7S275.6,6.879,275.6,13.049Z" transform="translate(169.969 294.795)" fill="#3226fa" opacity="0.1"/><path d="M-57.029,58.636H-166.545l6.645-79.82h92.89Z" transform="translate(303.404 234.232)" fill="#dfd5fb" opacity="0.6"/><rect width="382.513" height="252.959" rx="17" fill="url(#a)"/><rect width="349.727" height="179.595" transform="translate(14.971 16.812)" fill="url(#b)"/><path d="M-181.817,20.01H167.451A16.615,16.615,0,0,0,184.068,3.389V-21.573H-198.443V3.389A16.628,16.628,0,0,0-181.817,20.01Z" transform="translate(198.444 232.951)" opacity="0.77" fill="url(#c)"/><rect width="211.007" height="14.968" transform="translate(83.497 292.868)" fill="#7c56ff" opacity="0.56"/><path d="M125.126,87.86l6.51,6.51a7.008,7.008,0,0,1,0,9.94l-56.974,57a7.008,7.008,0,0,1-9.94,0l-57-57a7.008,7.008,0,0,1,0-9.94l6.51-6.51a7.045,7.045,0,0,1,10.058.117l33.663,35.334V39.037A7.021,7.021,0,0,1,64.985,32h9.383a7.021,7.021,0,0,1,7.037,7.037v84.274l33.663-35.334a7,7,0,0,1,10.058-.117Z" transform="translate(122.105 8.731)" fill="url(#d)"/></g></g><g transform="translate(96.842 -0.07) rotate(17)"><path d="M100.252,18.244a18.571,18.571,0,0,0-16.5-16.5,308.073,308.073,0,0,0-65.51,0,18.573,18.573,0,0,0-16.5,16.5,308.073,308.073,0,0,0,0,65.51,18.573,18.573,0,0,0,16.5,16.5,308.08,308.08,0,0,0,65.511,0,18.572,18.572,0,0,0,16.5-16.5,308.073,308.073,0,0,0,0-65.51Zm0,0" transform="translate(107.266 -15.412)" fill="#7c56ff"/><path d="M40.36,10.685,31.208,1.534A5.237,5.237,0,0,0,27.506,0H5.237A5.237,5.237,0,0,0,0,5.237V50.621a5.237,5.237,0,0,0,5.237,5.237h31.42a5.237,5.237,0,0,0,5.237-5.237V14.388a5.237,5.237,0,0,0-1.534-3.7Zm-4.126,3.279h-8.3V5.66Zm-31,36.657V5.237H22.692V16.583A2.618,2.618,0,0,0,25.311,19.2H36.657v31.42ZM30.186,27.569l-5.748,5.747V29.238a2.182,2.182,0,0,0-2.182-2.182H10.91a2.182,2.182,0,0,0-2.182,2.182V40.584a2.182,2.182,0,0,0,2.182,2.182H22.256a2.182,2.182,0,0,0,2.182-2.182V36.507l5.748,5.747a1.747,1.747,0,0,0,2.98-1.234V28.8A1.747,1.747,0,0,0,30.186,27.569Z" transform="translate(137.264 7.729)" fill="#fff"/></g><g transform="translate(-184.465 -54.483)"><g transform="translate(94.901 -18.676) rotate(-9)"><path d="M100.252,18.244a18.571,18.571,0,0,0-16.5-16.5,308.073,308.073,0,0,0-65.51,0,18.573,18.573,0,0,0-16.5,16.5,308.073,308.073,0,0,0,0,65.51,18.573,18.573,0,0,0,16.5,16.5,308.08,308.08,0,0,0,65.511,0,18.572,18.572,0,0,0,16.5-16.5,308.073,308.073,0,0,0,0-65.51Zm0,0" transform="translate(0)" fill="url(#e)"/><path d="M95.09,116.558c.212-1.5.374-3.009.644-4.5,1.531-8.436,7.5-14.176,16.043-14.47,10.282-.353,20.6-.372,30.876,0,9.295.335,16.026,7.217,16.316,16.515q.463,14.809,0,29.643c-.29,9.3-7.019,16.179-16.316,16.515-10.281.371-20.6.381-30.876-.005-9.3-.349-15.723-7.247-16.344-16.559-.054-.805-.226-1.6-.344-2.405V116.558Zm32.064,38.191c4.7,0,9.415.141,14.113-.033,7.367-.273,11.9-4.67,12.07-12.03q.32-13.756,0-27.526c-.172-7.359-4.706-11.858-12.07-12.014q-14.02-.3-28.051,0c-7.308.153-11.853,4.562-12.051,11.839q-.378,13.93,0,27.877c.2,7.277,4.743,11.583,12.052,11.854,4.64.173,9.291.033,13.937.033Zm0,0" transform="translate(-76.147 -77.93)" fill="url(#f)"/><g transform="translate(18.943 19.387)"><path d="M95.09,116.558c.212-1.5.374-3.009.644-4.5,1.531-8.436,7.5-14.176,16.043-14.47,10.282-.353,20.6-.372,30.876,0,9.295.335,16.026,7.217,16.316,16.515q.463,14.809,0,29.643c-.29,9.3-7.019,16.179-16.316,16.515-10.281.371-20.6.381-30.876-.005-9.3-.349-15.723-7.247-16.344-16.559-.054-.805-.226-1.6-.344-2.405V116.558Zm32.064,38.191c4.7,0,9.415.141,14.113-.033,7.367-.273,11.9-4.67,12.07-12.03q.32-13.756,0-27.526c-.172-7.359-4.706-11.858-12.07-12.014q-14.02-.3-28.051,0c-7.308.153-11.853,4.562-12.051,11.839q-.378,13.93,0,27.877c.2,7.277,4.743,11.583,12.052,11.854,4.64.173,9.291.033,13.937.033Zm0,0" transform="translate(-95.09 -97.317)" fill="#fff"/><path d="M190.329,174a16.337,16.337,0,1,0,16.337,16.337A16.337,16.337,0,0,0,190.329,174Zm0,27.049a10.713,10.713,0,1,1,10.713-10.713A10.712,10.712,0,0,1,190.329,201.045Zm0,0" transform="translate(-158.274 -158.72)" fill="#fff"/><path d="M331.059,154.629a3.887,3.887,0,1,1-3.886-3.887A3.886,3.886,0,0,1,331.059,154.629Zm0,0" transform="translate(-277.825 -140.099)" fill="#fff"/></g></g><path d="M155-34.333a2.02,2.02,0,0,0,1.19-.4,1.515,1.515,0,0,0,.1-1.11,6.726,6.726,0,0,0-1-2.831,5.051,5.051,0,0,0-.547-.724,2.065,2.065,0,0,0-.531-.418,1.857,1.857,0,0,0-.611-.193,5.92,5.92,0,0,0-.82-.048q-1.93.064-3.908.225t-3.876.4q-1.9.241-3.619.547t-3.1.692a30.352,30.352,0,0,1-.032,3.667q-.129,2.091-.4,4.391t-.627,4.648q-.354,2.348-.676,4.423t-.563,3.731a25.358,25.358,0,0,0-.273,2.557,4,4,0,0,0,.161,1.287,1.745,1.745,0,0,0,.965.836q.611.257,1.431.547a8.588,8.588,0,0,0,1.56.4,3.5,3.5,0,0,0,1.255,0,.665.665,0,0,0,.547-.692q.386-1.737.852-3.973t1.078-4.713q1.834-.386,3.7-.74t3.7-.643a1.82,1.82,0,0,0,1.11-.37q.241-.273-.016-1.013-.161-.643-.37-1.271a6.43,6.43,0,0,0-.6-1.271,2.331,2.331,0,0,0-2.284-1q-1,.032-1.946.113t-1.882.177q.547-1.737.885-3.313a25.534,25.534,0,0,1,.788-2.9q2.284-.322,4.359-.547T155-34.333ZM161.691-19.6a24.962,24.962,0,0,0,1.866,2.043q1.029,1.013,2.059,1.946t1.994,1.7q.965.772,1.7,1.287a4.892,4.892,0,0,0,1.978.756,4.349,4.349,0,0,0,1.56-.113q.579-.1.981-.177a2.554,2.554,0,0,0,.981-.531,1.245,1.245,0,0,0,.547-.676q.064-.322-.579-.869-.8-.643-1.721-1.512t-1.85-1.8q-.933-.933-1.817-1.866t-1.624-1.769a34.99,34.99,0,0,0,6.192-3.474,11.66,11.66,0,0,0,3.715-4.085A5.271,5.271,0,0,0,178-32.274a11.288,11.288,0,0,0-1.431-3.426,20.217,20.217,0,0,0-2.043-2.622,6,6,0,0,0-3.3-1.689,11.919,11.919,0,0,0-3.989.064,21.561,21.561,0,0,0-4.278,1.238q-2.171.869-4.166,1.769a2.267,2.267,0,0,0-.8,1.142,14.381,14.381,0,0,0-.708,2.316q-.322,1.4-.611,3.152t-.531,3.619q-.241,1.866-.45,3.731t-.37,3.49q-.161,1.624-.273,2.911t-.177,1.962a2.765,2.765,0,0,0,.161,1.335,1.93,1.93,0,0,0,.836.852,4.593,4.593,0,0,0,1.287.45q.676.129,1.544.354a1.556,1.556,0,0,0,1.013,0,1.14,1.14,0,0,0,.434-.676q.354-1.737.724-3.538T161.691-19.6Zm3.442-13.06a9.915,9.915,0,0,1,2.38-.836,10.569,10.569,0,0,1,2.059-.225q1.9,0,2.284.9a2.079,2.079,0,0,1-.322,1.544,8.327,8.327,0,0,1-1.673,2.107,17.835,17.835,0,0,1-2.879,2.187,18.3,18.3,0,0,1-3.941,1.817q.611-2.123,1.094-3.989T165.133-32.66Zm15.44-5.082-3.056,21.392a2.8,2.8,0,0,0,.241,1.48,3.245,3.245,0,0,0,.852,1.062q.676.579,1.174.949t1.045.724a3.835,3.835,0,0,0,1.142.5,4.163,4.163,0,0,0,1.946-.145q1.93-.354,4.053-.772t4.182-.8q.869-.161,1.029-.4a1.2,1.2,0,0,0,0-.885q-.257-.579-.466-1.142a7.342,7.342,0,0,0-.6-1.206,1.766,1.766,0,0,0-.852-.772,3.346,3.346,0,0,0-1.4-.129q-1.608.1-2.975.257t-2.879.418q.257-.9.483-1.817t.483-1.946q1.866-.386,3.876-.708t3.941-.676a2.141,2.141,0,0,0,1.11-.45q.209-.257-.048-1-.161-.643-.37-1.271a6.431,6.431,0,0,0-.6-1.271,1.712,1.712,0,0,0-.869-.836,3.77,3.77,0,0,0-1.415-.161q-1.094.032-2.059.1t-1.93.193q.515-1.7.933-3.265t.9-3.008q2.284-.322,4.343-.547t3.989-.45a2.057,2.057,0,0,0,1.19-.418,1.432,1.432,0,0,0,.129-1.126q-.161-.74-.322-1.367a6.271,6.271,0,0,0-.579-1.4,2.166,2.166,0,0,0-2.348-1.415q-1.93.064-3.876.306t-3.8.563q-1.85.322-3.538.708T180.574-37.743Zm18.561,0-3.056,21.392a2.8,2.8,0,0,0,.241,1.48,3.245,3.245,0,0,0,.852,1.062q.676.579,1.174.949t1.045.724a3.835,3.835,0,0,0,1.142.5,4.163,4.163,0,0,0,1.946-.145q1.93-.354,4.053-.772t4.182-.8q.869-.161,1.029-.4a1.2,1.2,0,0,0,0-.885q-.257-.579-.466-1.142a7.342,7.342,0,0,0-.6-1.206,1.766,1.766,0,0,0-.852-.772,3.346,3.346,0,0,0-1.4-.129q-1.608.1-2.975.257t-2.879.418q.257-.9.483-1.817t.483-1.946q1.866-.386,3.876-.708t3.941-.676a2.141,2.141,0,0,0,1.11-.45q.209-.257-.048-1-.161-.643-.37-1.271a6.428,6.428,0,0,0-.6-1.271,1.711,1.711,0,0,0-.869-.836,3.77,3.77,0,0,0-1.415-.161q-1.094.032-2.059.1t-1.93.193q.515-1.7.933-3.265t.9-3.008q2.284-.322,4.343-.547t3.989-.45a2.057,2.057,0,0,0,1.19-.418,1.432,1.432,0,0,0,.129-1.126q-.161-.74-.322-1.367a6.272,6.272,0,0,0-.579-1.4,2.166,2.166,0,0,0-2.348-1.415q-1.93.064-3.876.306t-3.8.563q-1.85.322-3.538.708T199.135-37.743Z" transform="translate(164.965 93.566)" fill="#fff"/></g></g></svg>