<svg xmlns="http://www.w3.org/2000/svg" xmlns:xlink="http://www.w3.org/1999/xlink" width="477.195" height="422" viewBox="0 0 477.195 422"><defs><linearGradient id="a" x1="0.5" x2="0.5" y2="1" gradientUnits="objectBoundingBox"><stop offset="0" stop-color="#ffd6f8"/><stop offset="1" stop-color="#bbd4ff"/></linearGradient><linearGradient id="b" x1="0.036" y1="1.066" x2="1.055" y2="-0.141" gradientUnits="objectBoundingBox"><stop offset="0" stop-color="#ffb16d"/><stop offset="0.492" stop-color="#ff437c"/><stop offset="1" stop-color="#a733ff"/></linearGradient><linearGradient id="c" x1="0.5" y1="-0.451" x2="0.5" y2="1" gradientUnits="objectBoundingBox"><stop offset="0" stop-color="#1423f9"/><stop offset="0.473" stop-color="#ff437c"/><stop offset="1" stop-color="#ffb16d"/></linearGradient><filter id="d" x="137.225" y="58.958" width="177.603" height="144.043" filterUnits="userSpaceOnUse"><feOffset dy="8" input="SourceAlpha"/><feGaussianBlur stdDeviation="3" result="e"/><feFlood flood-color="#ffb16d" flood-opacity="0.341"/><feComposite operator="in" in2="e"/><feComposite in="SourceGraphic"/></filter></defs><g transform="translate(19.75 240.283)"><g transform="translate(127.197 -4686.336)"><g transform="translate(-132 4446)"><g transform="translate(0.053 0.053)" fill="#fff" stroke="#dbd1e6" stroke-width="2" opacity="0.22"><circle cx="211" cy="211" r="211" stroke="none"/><circle cx="211" cy="211" r="210" fill="none"/></g><circle cx="147" cy="147" r="147" transform="translate(64.053 64.053)" fill="url(#a)"/></g></g><g transform="translate(53.252 -181.409)"><path d="M-2507.438-2934.874c-16.264,0-32.754-.439-49.012-1.306s-32.74-2.185-48.975-3.918a55.387,55.387,0,0,1-18.3-5.223,55.469,55.469,0,0,1-15.094-10.736,55.47,55.47,0,0,1-10.736-15.095,55.4,55.4,0,0,1-5.224-18.3c-1.953-18.3-3.375-36.866-4.228-55.191s-1.159-36.9-.912-55.231h304.958c.248,18.33-.059,36.912-.912,55.231s-2.275,36.893-4.228,55.191a55.4,55.4,0,0,1-5.223,18.3,55.468,55.468,0,0,1-10.735,15.095,55.461,55.461,0,0,1-15.094,10.736,55.393,55.393,0,0,1-18.3,5.224c-16.236,1.733-32.713,3.051-48.976,3.918S-2491.174-2934.874-2507.438-2934.874Z" transform="translate(-2354.875 -2933.748) rotate(180)" fill="#7c56ff"/><rect width="178" height="84" rx="8" transform="translate(63.999 26.127)" fill="#9070ff"/><rect width="202" height="94" rx="8" transform="translate(51.999 36.127)" fill="#a68cff"/><path d="M8,1,214,0a8,8,0,0,1,8,8V96a8,8,0,0,1-8,8H8a8,8,0,0,1-8-8V8C0,3.582,3.582,1,8,1Z" transform="translate(41.999 47.127)" fill="#cdbfff"/><rect width="238" height="110" rx="8" transform="translate(33.999 61.127)" fill="#eae4ff"/><rect width="254" height="118" rx="8" transform="translate(25.999 76.127)" fill="#fff"/><path d="M-2507.438-2934.874c-16.264,0-32.754-.439-49.012-1.306s-32.74-2.185-48.975-3.918a55.387,55.387,0,0,1-18.3-5.223,55.469,55.469,0,0,1-15.094-10.736,55.47,55.47,0,0,1-10.736-15.095,55.4,55.4,0,0,1-5.224-18.3c-1.953-18.3-3.375-36.866-4.228-55.191s-1.159-36.9-.912-55.231h304.958c.248,18.33-.059,36.912-.912,55.231s-2.275,36.893-4.228,55.191a55.4,55.4,0,0,1-5.223,18.3,55.468,55.468,0,0,1-10.735,15.095,55.461,55.461,0,0,1-15.094,10.736,55.393,55.393,0,0,1-18.3,5.224c-16.236,1.733-32.713,3.051-48.976,3.918S-2491.174-2934.874-2507.438-2934.874Z" transform="translate(2660 3240)" fill="url(#b)"/><path d="M-2462.347-3019.871c-15.41,0-30.907-.289-46.063-.858a52.268,52.268,0,0,1-19.11-4.263,47.444,47.444,0,0,1-15.067-10.45,50.484,50.484,0,0,1-10.2-15.477,59.337,59.337,0,0,1-4.513-19.345c-.11-1.647-.391-3.312-.663-4.922-.119-.706-.254-1.507-.367-2.273v-49.414h17.661c-.145,17.955.028,36.163.516,54.119.583,21.39,14.06,34.646,36.051,35.461,4.733.176,9.787.258,15.905.258,4.311,0,8.674-.041,12.894-.08h.044c4.212-.039,8.567-.08,12.849-.08h.152c4.292,0,8.654.041,12.873.08h.164c4.248.039,8.64.08,12.958.08,6.182,0,11.289-.082,16.071-.259,22.1-.82,35.6-14.273,36.109-35.988.413-17.776.559-35.807.434-53.592h17.052c.165,18.847-.05,37.943-.639,56.759a54.348,54.348,0,0,1-4.081,19.312,48.5,48.5,0,0,1-10.219,15.443,47.976,47.976,0,0,1-15.27,10.416,53.217,53.217,0,0,1-19.237,4.231C-2431.525-3020.154-2447.1-3019.871-2462.347-3019.871Zm-.091-45.694a48.567,48.567,0,0,1-19.022-3.84,48.712,48.712,0,0,1-15.534-10.474,48.7,48.7,0,0,1-10.474-15.534,48.566,48.566,0,0,1-3.841-19.023,49.022,49.022,0,0,1,1.6-12.437h17.732a31.847,31.847,0,0,0-2.5,12.436,32.082,32.082,0,0,0,32.045,32.046,32.083,32.083,0,0,0,32.046-32.046,31.85,31.85,0,0,0-2.5-12.436h17.733a49.035,49.035,0,0,1,1.6,12.437,48.566,48.566,0,0,1-3.84,19.023,48.713,48.713,0,0,1-10.474,15.534,48.708,48.708,0,0,1-15.535,10.474A48.574,48.574,0,0,1-2462.438-3065.565Z" transform="translate(2615 3267)" fill="#fff"/><circle cx="8" cy="8" r="8" transform="translate(211.999 99.127)" fill="#ef4094"/><g transform="matrix(1, 0, 0, 1, -73, -58.87)" filter="url(#d)"><path d="M154.563,101.153l8.114,8.114a8.735,8.735,0,0,1,0,12.39L91.665,192.7a8.735,8.735,0,0,1-12.39,0L8.227,121.656a8.735,8.735,0,0,1,0-12.39l8.114-8.114a8.781,8.781,0,0,1,12.536.146l41.957,44.04V78.01A8.75,8.75,0,0,1,79.6,69.238H91.3a8.75,8.75,0,0,1,8.771,8.771v67.329l41.957-44.04a8.718,8.718,0,0,1,12.536-.146Z" transform="translate(140.57 -9.28)" fill="url(#c)"/></g><g transform="matrix(0.899, 0.438, -0.438, 0.899, 209.352, 141.763)"><path d="M100.252,18.244a18.571,18.571,0,0,0-16.5-16.5,308.073,308.073,0,0,0-65.51,0,18.573,18.573,0,0,0-16.5,16.5,308.073,308.073,0,0,0,0,65.51,18.573,18.573,0,0,0,16.5,16.5,308.08,308.08,0,0,0,65.511,0,18.572,18.572,0,0,0,16.5-16.5,308.073,308.073,0,0,0,0-65.51Zm0,0" transform="translate(107.266 -15.412)" fill="#7c56ff"/><path d="M63.857,89.433l-8.076,13.844a7.136,7.136,0,0,1-6.164,3.54H5.02a2.676,2.676,0,0,1-2.312-4.024l8.076-13.844a7.136,7.136,0,0,1,6.164-3.54h44.6A2.676,2.676,0,0,1,63.857,89.433ZM16.949,81.841H53.522V76.488a5.352,5.352,0,0,0-5.352-5.352H30.329L23.193,64H5.352A5.352,5.352,0,0,0,0,69.352v31l7.7-13.2A10.741,10.741,0,0,1,16.949,81.841Z" transform="translate(129.385 -51.6)" fill="#fff"/></g><text transform="translate(361.955 240.22) rotate(30)" fill="#fff" font-size="30" font-family="Montserrat-SemiBold, Montserrat" font-weight="600"><tspan x="0" y="0">+</tspan></text></g><g transform="translate(128.25 -4694.282)"><g transform="translate(-148 4672)" fill="none" stroke="#66f" stroke-width="8"><circle cx="16" cy="16" r="16" stroke="none"/><circle cx="16" cy="16" r="12" fill="none"/></g><g transform="translate(-11 4462)" fill="none" stroke="#ff826e" stroke-width="4"><circle cx="8" cy="8" r="8" stroke="none"/><circle cx="8" cy="8" r="6" fill="none"/></g><circle cx="7" cy="7" r="7" transform="translate(182 4835)" fill="#ffb92d"/><circle cx="8" cy="8" r="8" transform="translate(262 4503)" fill="#2d6cff"/></g></g></svg>