<svg xmlns="http://www.w3.org/2000/svg" xmlns:xlink="http://www.w3.org/1999/xlink" width="504" height="367" viewBox="0 0 504 367"><defs><linearGradient id="a" x1="0.071" y1="0.78" x2="1.303" y2="-0.359" gradientUnits="objectBoundingBox"><stop offset="0" stop-color="#ffb16d"/><stop offset="0.492" stop-color="#ff437c"/><stop offset="1" stop-color="#a733ff"/></linearGradient></defs><g transform="translate(-415 -2571)"><g transform="translate(-268 -1889)"><g transform="translate(285 477)"><g transform="translate(398 4318)" fill="none" opacity="0.7"><path d="M16,0A16,16,0,1,1,0,16,16,16,0,0,1,16,0Z" stroke="none"/><path d="M 16 8 C 11.58878707885742 8 8 11.58878707885742 8 16 C 8 20.41121292114258 11.58878707885742 24 16 24 C 20.41121292114258 24 24 20.41121292114258 24 16 C 24 11.58878707885742 20.41121292114258 8 16 8 M 16 0 C 24.83654975891113 0 32 7.163450241088867 32 16 C 32 24.83654975891113 24.83654975891113 32 16 32 C 7.163450241088867 32 0 24.83654975891113 0 16 C 0 7.163450241088867 7.163450241088867 0 16 0 Z" stroke="none" fill="#005fff"/></g><g transform="translate(878 4310)" fill="none" opacity="0.7"><path d="M12,0A12,12,0,1,1,0,12,12,12,0,0,1,12,0Z" stroke="none"/><path d="M 12 5 C 8.140190124511719 5 5 8.140190124511719 5 12 C 5 15.85980987548828 8.140190124511719 19 12 19 C 15.85980987548828 19 19 15.85980987548828 19 12 C 19 8.140190124511719 15.85980987548828 5 12 5 M 12 0 C 18.62742042541504 0 24 5.372579574584961 24 12 C 24 18.62742042541504 18.62742042541504 24 12 24 C 5.372579574584961 24 0 18.62742042541504 0 12 C 0 5.372579574584961 5.372579574584961 0 12 0 Z" stroke="none" fill="#fc0"/></g><g transform="translate(450 3983)" fill="none" opacity="0.7"><path d="M12,0A12,12,0,1,1,0,12,12,12,0,0,1,12,0Z" stroke="none"/><path d="M 12 5 C 8.140190124511719 5 5 8.140190124511719 5 12 C 5 15.85980987548828 8.140190124511719 19 12 19 C 15.85980987548828 19 19 15.85980987548828 19 12 C 19 8.140190124511719 15.85980987548828 5 12 5 M 12 0 C 18.62742042541504 0 24 5.372579574584961 24 12 C 24 18.62742042541504 18.62742042541504 24 12 24 C 5.372579574584961 24 0 18.62742042541504 0 12 C 0 5.372579574584961 5.372579574584961 0 12 0 Z" stroke="none" fill="#7c56ff"/></g><path d="M6,0A6,6,0,1,1,0,6,6,6,0,0,1,6,0Z" transform="translate(767 4005)" fill="#ff2d7c" opacity="0.7"/><path d="M8.5,0A8.5,8.5,0,1,1,0,8.5,8.5,8.5,0,0,1,8.5,0Z" transform="translate(776 4154)" fill="#005fff" opacity="0.7"/></g></g><g transform="translate(1739.357 2965.428)"><rect width="415.676" height="287.02" rx="14" transform="translate(-1280.032 -336.139)" fill="#7c56ff"/><path d="M14,0H387.676a14,14,0,0,1,14,14V252.02a14,14,0,0,1-14,14H14a14,14,0,0,1-14-14V14A14,14,0,0,1,14,0Z" transform="translate(-1273.032 -328.139)" fill="url(#a)"/><g transform="translate(-1139.94 -277.328)"><g transform="translate(0 0)"><path d="M61.242,120.671c-9.834,0-19.723-.184-29.391-.548a33.349,33.349,0,0,1-12.193-2.72,30.266,30.266,0,0,1-9.614-6.667,32.2,32.2,0,0,1-6.509-9.875A37.853,37.853,0,0,1,.656,88.518C.586,87.465.406,86.4.233,85.373.152,84.9.07,84.408,0,83.927v-47.2c.129-.914.251-1.844.369-2.744.251-1.922.511-3.907.862-5.843,1.451-8,5.01-14.787,10.293-19.636A29.541,29.541,0,0,1,20.6,2.807,33.4,33.4,0,0,1,31.849.519C41.885.175,51.938,0,61.729,0c9.765,0,19.54.174,29.052.517a33.943,33.943,0,0,1,12.272,2.7A30.616,30.616,0,0,1,112.8,9.862a30.941,30.941,0,0,1,6.521,9.853,34.666,34.666,0,0,1,2.6,12.321c.372,11.888.51,23.954.41,35.863H111.452c.075-11.222-.019-22.608-.28-33.843C110.844,20,102.231,11.425,88.134,11.126c-8.846-.187-17.836-.282-26.72-.282s-17.907.095-26.817.282c-14.024.294-22.622,8.741-23,22.6-.48,17.653-.48,35.554,0,53.207.372,13.647,8.971,22.1,23,22.625,3.016.112,6.236.164,10.136.164,2.743,0,5.532-.026,8.23-.051s5.491-.051,8.234-.051c2.778,0,5.6.026,8.335.052s5.563.052,8.344.052c3.325,0,6.1-.036,8.741-.115V118.9c0,.457.013.919.039,1.374C78.165,120.537,69.615,120.671,61.242,120.671Zm-.06-29.155a31.084,31.084,0,1,1,12.137-2.45A30.986,30.986,0,0,1,61.182,91.517Zm0-51.628A20.446,20.446,0,1,0,81.628,60.335,20.469,20.469,0,0,0,61.182,39.889Zm33-4.739a7.418,7.418,0,1,1,7.418-7.417A7.426,7.426,0,0,1,94.184,35.15Z" fill="#fff"/><path d="M24.333,14.773V0H2.607A2.6,2.6,0,0,0,0,2.607v50.4a2.6,2.6,0,0,0,2.607,2.607h36.5a2.6,2.6,0,0,0,2.607-2.607V17.381H26.94A2.615,2.615,0,0,1,24.333,14.773Zm8.3,22.96-10.474,10.4a1.852,1.852,0,0,1-2.611,0L9.078,37.733A1.737,1.737,0,0,1,10.3,34.761h7.08v-8.69a1.738,1.738,0,0,1,1.738-1.738h3.476a1.738,1.738,0,0,1,1.738,1.738v8.69h7.08A1.738,1.738,0,0,1,32.637,37.733Zm8.315-26.327L30.318.76A2.605,2.605,0,0,0,28.471,0h-.663V13.9h13.9v-.663A2.6,2.6,0,0,0,40.953,11.406Z" transform="translate(94.618 76.282)" fill="#fff"/></g></g><g transform="translate(-1280.032 -105.878)"><path d="M0,0H415.676a0,0,0,0,1,0,0V42.758a14,14,0,0,1-14,14H14a14,14,0,0,1-14-14V0A0,0,0,0,1,0,0Z" fill="#7c56ff"/><g transform="translate(95.038 18.948)"><rect width="260.655" height="5.104" rx="2.552" transform="translate(0 5.452)" fill="#525252"/><rect width="136.353" height="5.104" rx="2.552" transform="translate(0 5.452)" fill="#fff"/><path d="M-1110.723-158.583a7.956,7.956,0,0,1-7.957,7.957,7.956,7.956,0,0,1-7.955-7.957,7.956,7.956,0,0,1,7.955-7.957A7.956,7.956,0,0,1-1110.723-158.583Z" transform="translate(1251.005 166.54)" fill="#fff"/></g><g transform="translate(17.175 15.949)"><path d="M10.264,3.039a2,2,0,0,1,3.473,0L22.29,18.008A2,2,0,0,1,20.554,21H3.446A2,2,0,0,1,1.71,18.008Z" transform="translate(21) rotate(90)" fill="#fff"/></g><g transform="translate(57.484 22.219)"><g transform="translate(0 0)"><g transform="translate(18.161)"><path d="M-1219.39-160.261l-8.06-5.3c.011,7.985,0,4.068,0,10.594Z" transform="translate(1227.45 165.558)" fill="#fff"/><rect width="1.511" height="10.592" transform="translate(7.921 0.001)" fill="#fff"/></g><g transform="translate(1.371)"><path d="M-1238.34-160.261l8.061,5.3c-.009-7.985,0-4.068,0-10.594Z" transform="translate(1238.34 165.558)" fill="#fff"/></g><rect width="1.511" height="10.592" transform="translate(1.511 10.593) rotate(180)" fill="#fff"/></g></g><g transform="translate(363.322 13.449)"><rect width="38.388" height="27.324" rx="1.98" fill="#fff"/></g><text transform="translate(370.675 32.449)" fill="#2a2a2a" font-size="15" font-family="Montserrat-SemiBold, Montserrat" font-weight="600"><tspan x="0" y="0">HD</tspan></text></g></g></g></svg>