<svg xmlns="http://www.w3.org/2000/svg" xmlns:xlink="http://www.w3.org/1999/xlink" width="343" height="343" viewBox="0 0 343 343"><defs><style>.a,.d{fill:#fff;}.a{stroke:#707070;}.b{fill:url(#a);}.c{clip-path:url(#b);}.e{fill:#ffbdb0;}.f,.g{fill:none;stroke-linecap:round;stroke-linejoin:round;stroke-width:1.5px;}.f{stroke:#fff;}.g{stroke:#ffbdb0;}</style><linearGradient id="a" x1="0.948" y1="-0.226" x2="0.238" y2="1.356" gradientUnits="objectBoundingBox"><stop offset="0" stop-color="#7c56ff"/><stop offset="1" stop-color="#ff8192"/></linearGradient><clipPath id="b"><rect class="a" width="342" height="266" rx="15" transform="translate(402 4400)"/></clipPath></defs><g transform="translate(-401 -4395)"><rect class="b" width="343" height="343" rx="12" transform="translate(401 4395)"/><g class="c"><g transform="translate(295.137 4345.702)"><circle class="d" cx="2.234" cy="2.234" r="2.234" transform="translate(431.584 183.322)"/><path class="d" d="M592.458,118.064a2.234,2.234,0,1,1-2.235-2.234A2.235,2.235,0,0,1,592.458,118.064Z" transform="translate(-403.531 240.624)"/><circle class="e" cx="2.234" cy="2.234" r="2.234" transform="translate(493.333 50.254)"/><circle class="e" cx="2.234" cy="2.234" r="2.234" transform="translate(320.584 45.784)"/><path class="d" d="M279.953,80.89a2.234,2.234,0,1,1-2.234-2.234A2.234,2.234,0,0,1,279.953,80.89Z"/><path class="d" d="M82.446,242.34a2.234,2.234,0,1,1-2.234-2.234A2.235,2.235,0,0,1,82.446,242.34Z"/><path class="d" d="M173.64,224.856a2.234,2.234,0,1,1-2.154-2.312A2.235,2.235,0,0,1,173.64,224.856Z" transform="translate(-39 -53)"/><path class="d" d="M623.539,238.276a2.234,2.234,0,1,1-2.234-2.234A2.234,2.234,0,0,1,623.539,238.276Z"/><path class="e" d="M118.239,193.389A2.235,2.235,0,1,1,116,191.155,2.234,2.234,0,0,1,118.239,193.389Z" transform="translate(-22 -15)"/><path class="e" d="M139.861,352.328a2.234,2.234,0,1,1-2.234-2.234A2.234,2.234,0,0,1,139.861,352.328Z" transform="translate(7.501 19)"/><circle class="d" cx="2.234" cy="2.234" r="2.234" transform="translate(157.587 62.822)"/><circle class="d" cx="2.234" cy="2.234" r="2.234" transform="translate(109.253 169.542)"/><circle class="d" cx="2.234" cy="2.234" r="2.234" transform="translate(381.938 58.353)"/><path class="d" d="M357.4,88.5a2.234,2.234,0,1,1-2.234-2.234A2.235,2.235,0,0,1,357.4,88.5Z"/><circle class="e" cx="3.17" cy="3.17" r="3.17" transform="translate(425.244 121.081)"/><path class="e" d="M630.6,217.359a3.17,3.17,0,1,1-3.17-3.171A3.17,3.17,0,0,1,630.6,217.359Z" transform="translate(-205.355 108.058)"/><path class="e" d="M184.458,141.635a3.17,3.17,0,1,1-3.17-3.17A3.17,3.17,0,0,1,184.458,141.635Z"/><line class="f" x2="7.559" y2="4.377" transform="translate(408.406 351.717)"/><line class="f" x2="8.577" y2="1.654" transform="translate(445.517 148.427)"/><line class="g" y1="6.218" x2="6.135" transform="translate(276.885 44.035)"/><line class="f" x2="8.509" y2="1.976" transform="translate(540.982 52.487)"/><line class="f" y1="5.221" x2="7.003" transform="translate(292.675 359.689)"/><line class="f" y1="2.564" x2="8.35" transform="translate(466.456 369.094)"/><line class="f" y1="2.335" x2="8.417" transform="translate(210.438 67.291)"/><line class="f" y1="2.335" x2="8.417" transform="translate(113.667 86.366)"/><line class="g" x2="7.29" y2="4.813" transform="translate(82.445 305.629)"/><line class="f" y1="4.509" x2="7.481" transform="translate(92.498 125.129)"/><line class="g" x2="5.06" y2="4.328" transform="translate(144.832 48.018)"/><line class="g" x2="5.06" y2="4.328" transform="translate(243.311 45.784)"/><line class="g" x2="6.457" y2="1.628" transform="translate(407.891 58.353)"/><line class="g" x2="6.457" y2="1.628" transform="translate(151.131 307.222)"/><line class="f" y1="3.785" x2="5.478" transform="translate(103.775 354.561)"/><line class="g" x2="5.06" y2="4.328" transform="translate(431.584 259.556)"/><line class="g" y1="4.985" x2="4.415" transform="translate(103.775 273.006)"/><line class="g" y1="4.985" x2="4.415" transform="translate(426.529 76.382)"/></g></g></g></svg>