<svg xmlns="http://www.w3.org/2000/svg" xmlns:xlink="http://www.w3.org/1999/xlink" width="760" height="363" viewBox="0 0 760 363"><defs><style>.a,.aa,.ad,.ae,.ah,.aj,.ap,.aq,.ar,.at,.ax,.ay,.az,.ba,.bb,.bc,.bg,.bh,.n,.p,.s,.t,.w,.x,.y{fill:none;}.b{fill:url(#a);}.c{opacity:0.7;}.d{fill:#fff;}.e{fill:#f9e6e4;}.f{clip-path:url(#d);}.g{fill:#ff886f;}.h{fill:#010101;}.i{fill:#97b7ff;}.j{fill:#e4eef7;opacity:0.35;}.k{clip-path:url(#e);}.l{fill:url(#f);}.m{fill:url(#g);}.n{stroke:#dd513e;}.aa,.ah,.aj,.av,.ay,.az,.bg,.bh,.n,.p,.w{stroke-linejoin:round;}.aa,.ae,.aq,.ar,.at,.n,.p,.z{stroke-width:0.75px;}.o,.z{fill:#fff3e1;}.at,.bc,.p{stroke:#f4c6a6;}.q{fill:#ffdcd2;}.r{clip-path:url(#h);}.s,.t{stroke:#131735;mix-blend-mode:screen;isolation:isolate;}.ad,.ae,.ap,.aq,.ar,.at,.ax,.ba,.bb,.bc,.s,.t,.x,.y,.z{stroke-miterlimit:10;}.bb,.s{stroke-width:3px;}.u{fill:#ffbdb0;}.v{fill:#060a47;}.w{stroke:#060a47;}.x{stroke:#00316e;}.ap,.az,.y{stroke:#010101;}.ad,.ae,.z{stroke:#f4c9aa;}.aa{stroke:#29298b;}.ab{fill:#3e49e1;}.ac{fill:#e23d3d;}.af,.ag{fill:#f7a392;}.af{opacity:0.45;}.ah{stroke:#011e3b;}.ah,.aj,.ap,.az,.bg,.bh{stroke-linecap:round;}.ai,.ak,.bd,.be,.bf{fill:#fc3651;}.aj{stroke:#f7a392;}.ak{font-size:10px;}.ak,.bf{font-family:BalooChettan2-Medium, 'Baloo Chettan \32 ';font-weight:500;}.al{clip-path:url(#l);}.am{fill:url(#m);}.an{fill:url(#n);}.ao{fill:#293396;}.aq{stroke:#3e49e1;}.ar{stroke:#f9dcc2;}.as{fill:#a05d52;}.au{clip-path:url(#q);}.av{fill:#ffebe6;stroke:#ffd3c5;}.av,.ax,.bg,.bh{stroke-width:1.5px;}.aw{fill:#ffceb8;}.ax{stroke:#ffceb8;}.ay{stroke:#ff947b;}.ba,.bb{stroke:#ffb3a6;}.bd{opacity:0.75;}.be{opacity:0.46;}.bf{font-size:13px;}.bg{stroke:#fff;}.bh{stroke:#ffbdb0;}.bi{filter:url(#o);}.bj{filter:url(#i);}.bk{filter:url(#b);}</style><linearGradient id="a" x1="0.948" y1="-0.226" x2="0.238" y2="1.356" gradientUnits="objectBoundingBox"><stop offset="0" stop-color="#7c56ff"/><stop offset="1" stop-color="#ff8192"/></linearGradient><filter id="b" x="21.92" y="62.5" width="199.765" height="263.273" filterUnits="userSpaceOnUse"><feOffset dy="12" input="SourceAlpha"/><feGaussianBlur stdDeviation="5.5" result="c"/><feFlood flood-color="#6e0c75" flood-opacity="0.361"/><feComposite operator="in" in2="c"/><feComposite in="SourceGraphic"/></filter><clipPath id="d"><rect class="a" width="137.544" height="137.544"/></clipPath><clipPath id="e"><path class="a" d="M487.049,227.157l6.9-3.786a.776.776,0,0,0,.376-.8l-2.733-16.819a.5.5,0,0,0-.737-.387l-6.971,3.826a.776.776,0,0,0-.376.8l2.718,16.731A.563.563,0,0,0,487.049,227.157Z"/></clipPath><linearGradient id="f" x1="43.319" y1="-4.006" x2="44.24" y2="-4.936" gradientUnits="objectBoundingBox"><stop offset="0" stop-color="#fff" stop-opacity="0.302"/><stop offset="0.888" stop-color="#fff" stop-opacity="0"/></linearGradient><linearGradient id="g" x1="48.322" y1="-3.997" x2="49.349" y2="-4.963" xlink:href="#f"/><clipPath id="h"><path class="a" d="M529.839,297.625l-3.107,6.56s-8.756,36.059-8.756,72.929c21.262,3.6,78.211.3,78.211.3s-4.848-49.912-16.275-69.877"/></clipPath><filter id="i" x="159.074" y="62.499" width="199.765" height="263.273" filterUnits="userSpaceOnUse"><feOffset dy="12" input="SourceAlpha"/><feGaussianBlur stdDeviation="5.5" result="j"/><feFlood flood-color="#6e0c75" flood-opacity="0.361"/><feComposite operator="in" in2="j"/><feComposite in="SourceGraphic"/></filter><clipPath id="l"><path class="a" d="M119.046,146.179l-3.113-5.247a.924.924,0,0,1,.043-.842l7.789-15.027c.169-.326.476-.415.616-.178l3.147,5.3a.924.924,0,0,1-.043.842l-7.748,14.948C119.548,146.344,119.2,146.444,119.046,146.179Z" transform="translate(-115.851 -124.751)"/></clipPath><linearGradient id="m" x1="-57.116" y1="5.406" x2="-57.837" y2="4.354" xlink:href="#f"/><linearGradient id="n" x1="-59.37" y1="5.969" x2="-60.111" y2="4.86" xlink:href="#f"/><filter id="o" x="75.92" y="35.737" width="235.776" height="312.999" filterUnits="userSpaceOnUse"><feOffset dy="12" input="SourceAlpha"/><feGaussianBlur stdDeviation="5.5" result="p"/><feFlood flood-color="#6e0c75" flood-opacity="0.361"/><feComposite operator="in" in2="p"/><feComposite in="SourceGraphic"/></filter><clipPath id="q"><rect class="a" width="167.246" height="167.246"/></clipPath></defs><g transform="translate(-401 -4395)"><rect class="b" width="760" height="363" rx="12" transform="translate(401 4395)"/><g class="c" transform="translate(439.42 4462)"><g transform="translate(0 0)"><g class="bk" transform="matrix(1, 0, 0, 1, -38.42, -67)"><rect class="d" width="166.765" height="230.273" rx="9" transform="translate(38.42 67)"/></g><rect class="e" width="25.131" height="5.061" rx="1" transform="translate(54.286 31.87)"/><rect class="d" width="158.223" height="158.223" transform="translate(4.271 30.858)"/><g transform="translate(14.61 40.762)"><g class="f"><g transform="translate(-529.517 -187.139)"><path class="g" d="M572.811,203.1c5.305,2.791,8.652,9.357,7.98,15.656a1.852,1.852,0,0,0,.161,1.295,1.483,1.483,0,0,0,.725.445,72.622,72.622,0,0,1,8.5,3.362,16.525,16.525,0,0,1,6.868,6.144,15.982,15.982,0,0,1,1.9,5.822c.414,2.967.065,6.322-1.953,8.4a10.785,10.785,0,0,1-4.265,2.367c-3.116,1.12-6.369,2.1-9.641,1.789-3.054-.294-5.642-1.795-8.534-2.543-2.874-.744-5.845.093-8.769.3a77.251,77.251,0,0,1-21.108-1.4c-2.292-.474-4.849-1.28-5.9-3.516a6.462,6.462,0,0,1,.3-5.38c.539-1.032,2.864-2.408,2.738-3.525a1.731,1.731,0,0,0-.643-1.009c-.829-.759-1.81-1.35-2.578-2.172-2.461-2.636-1.579-8.071-.738-11.174,1.808-6.678,5.744-12.774,11.246-16.45a20.352,20.352,0,0,1,18.647-2.321"/><path class="g" d="M509.5,255.809l-12.45-22.051-10.246,5.491L498.218,284.5"/><path class="g" d="M487.618,236.547l8.747-7.022s-1.628-16.721-3.335-17.01-.716,7.843-.716,7.843-2.6-10.171-3.268-9.692c-1.189.859-.365,9.93-.365,9.93s-3.771-9.193-4.605-8.406,1.066,14.019,1.066,14.019Z"/><path class="h" d="M486.861,227.225l6.441-3.833a.776.776,0,0,0,.376-.8L491.084,205.3l-.505.016a.8.8,0,0,0-.371.067l-6.971,3.827a.775.775,0,0,0-.376.8l2.718,16.731a.592.592,0,0,0,.41.484Z"/><path class="i" d="M487.049,227.157l6.9-3.786a.776.776,0,0,0,.376-.8l-2.733-16.819a.5.5,0,0,0-.737-.387l-6.971,3.826a.776.776,0,0,0-.376.8l2.718,16.731A.563.563,0,0,0,487.049,227.157Z"/><path class="j" d="M494.126,221.368l-8.055,4.422-2.379-14.638,8.055-4.422Z"/><path class="i" d="M487.587,215.416a1.011,1.011,0,0,1-.96-.951,3.862,3.862,0,0,1,1.349-3.294c.941-.771,1.862-.547,2.058.5a3.428,3.428,0,0,1-.4,2.065,1.463,1.463,0,0,1,1.942,1.323l1.079,5.57-5.259,2.858-.809-4.338A5.372,5.372,0,0,1,487.587,215.416Z"/><path class="j" d="M490.317,224.3c.006.225.154.363.332.309a.525.525,0,0,0,.31-.507c-.006-.226-.154-.364-.331-.309A.525.525,0,0,0,490.317,224.3Z"/><path class="j" d="M487,208.479a.123.123,0,0,1-.109-.063.126.126,0,0,1,.048-.17l1.411-.8a.125.125,0,1,1,.123.218l-1.411.795A.127.127,0,0,1,487,208.479Z"/><g class="k"><path class="l" d="M484.455,206.958l-1.625,1.033,10.041,18.973,1.625-1.033Z"/><path class="m" d="M484.889,205.5l-.405.258,10.041,18.973.405-.258Z"/></g><path class="g" d="M489.6,230.394c.432-3.387-3.012-4.457-3.952-6.877-.146-1.009-1.768-7.136-2.746-7.251s-.169,6.181.157,8.467,3.745,14.515,3.745,14.515l4.208,16.787s12.29-6.33,11.957-6.663-8.585-19.765-8.585-19.765"/><path class="g" d="M503.859,249.372l-6.807-15.614s.5-4.751.5-9.009a3.67,3.67,0,0,0-1.339-2.781,1.592,1.592,0,0,0-1.1,0c-.969.247-4.787,1.617-4.867,2.279-.137,1.131,1.718,1.184,4.093.978a6.866,6.866,0,0,0-2.31,4.586,7,7,0,0,0,.624,4.5l2.992,19.294"/><path class="n" d="M485.429,223.786s5.53,4.9,5.53,8.964"/><path class="n" d="M490.815,225.09c.922.7,3.53.138,3.53.138s-2.278,2.639-1.765,5.691"/><path class="o" d="M553.574,236.719s-17.5-.747-33.948,15.369c-3.24,3.174-6.537,6.618-6.537,6.618L508,252.535,481.57,270.183s13.356,25.317,26.087,28.38c15.435,3.713,38.2-28.35,38.2-28.35"/><path class="o" d="M491.331,287.515l21.122-31.176-7.364-10.1-25.6,22.345Z"/><path class="p" d="M513.089,258.706s5.414,6.379,6.415,9.082"/><path class="g" d="M553.858,323.5s5.092,44.288,12.636,80.246c4.977,23.719,16.949,74.577,16.949,74.577l15.792-4.249L588.74,335.524"/><path class="g" d="M521.51,319.329s1.387,44.759,5.706,81.245c2.053,17.339,10.741,76.318,10.741,76.318l16.156-2.806,2.854-139.2"/><path class="q" d="M529.839,297.625l-3.107,6.56s-8.756,36.059-8.756,72.929c21.262,3.6,78.211.3,78.211.3s-4.848-49.912-16.275-69.877"/><g class="r"><path class="s" d="M513.635,370.26c29.722,2.448,94.932.026,94.932.026"/><path class="t" d="M513.635,365.764c29.722,2.447,94.932.025,94.932.025"/><path class="s" d="M513.635,354.652c29.722,2.447,94.932.025,94.932.025"/><path class="t" d="M513.635,350.155c29.722,2.448,94.932.026,94.932.026"/><path class="s" d="M513.635,339.044c29.722,2.447,94.932.025,94.932.025"/><path class="t" d="M513.635,334.547c29.722,2.448,94.932.026,94.932.026"/><path class="s" d="M513.635,323.435c29.722,2.448,94.932.026,94.932.026"/><path class="t" d="M513.635,318.939c29.722,2.447,94.932.025,94.932.025"/><path class="s" d="M526.988,392.613c-2.448-29.722-.026-94.932-.026-94.932"/><path class="t" d="M531.484,392.613c-2.447-29.722-.025-94.932-.025-94.932"/><path class="s" d="M542.6,392.613c-2.42-30.717.04-97.349-.025-94.932"/><path class="t" d="M547.093,392.613c-2.448-29.722-.026-94.932-.026-94.932"/><path class="s" d="M558.2,392.613c-2.447-29.722-.025-94.932-.025-94.932"/><path class="t" d="M562.7,392.613c-2.448-29.722-.026-94.932-.026-94.932"/><path class="s" d="M573.813,392.613c-2.448-29.722-.026-94.932-.026-94.932"/><path class="t" d="M578.309,392.613c-2.447-29.722-.025-94.932-.025-94.932"/><path class="s" d="M588.2,392.613c-2.447-29.722-.025-94.932-.025-94.932"/><path class="t" d="M592.7,392.613c-2.448-29.722-.026-94.932-.026-94.932"/></g><path class="o" d="M542.911,245.5q-3.651,9.18-7.3,18.361c-1.621,4.077-3.244,8.161-4.472,12.373-2.877,9.867-3.528,22.827-4.162,33.086,14.665,1.18,36.479,1.326,53.18.748.131-20.785-.578-38.217-4.094-55.964-.571-2.884-1.22-5.926-3.218-8.082"/><path class="u" d="M541.527,239.483,554,234.25s18.077,1.872,21.671,6.055c-6.865,5.2-9.511,11.857-23.477,9.945S541.527,239.483,541.527,239.483Z"/><path class="u" d="M561.851,222.515l2.259,13.894s-1.492,5.272-8.533,5.272c-5.023,0-4.521-5.02-4.521-5.02l2.008-14.146"/><path class="u" d="M549.858,202.771c-6.4,6.4-10.918,23.088-.815,25.052a14.664,14.664,0,0,0,16.824-9.99C568.88,208.293,556.26,196.369,549.858,202.771Z"/><path class="v" d="M546.751,211.37a.926.926,0,1,0,.926-.925A.926.926,0,0,0,546.751,211.37Z"/><path class="v" d="M556.982,215.092a.926.926,0,1,1-.926-.926A.926.926,0,0,1,556.982,215.092Z"/><path class="w" d="M554.837,211.45a3.842,3.842,0,0,1,5.073,2.493"/><path class="w" d="M546.5,208.2a2.794,2.794,0,0,1,4.493,1.949"/><path class="n" d="M551.032,212.569s-3.578,3.816-3.2,4.687c.623,1.439,2.771,1.439,2.771,1.439"/><path class="d" d="M554,221.855l-7.127-1.865s-.934,4.177,1.4,4.819A4.443,4.443,0,0,0,554,221.855Z"/><path class="g" d="M575.038,205.173c-1.152-4.53-4.092-8.474-8.64-9.657a17.2,17.2,0,0,0-6.35-.335,37.236,37.236,0,0,0-5.213,1.494c-1.753.477-3.255-.385-5.006-.258-3.371.245-6.893,3.112-5.292,6.727a8.141,8.141,0,0,0,3.637,3.6c4.017,2.245,8.795,2.6,13.4,2.671-.71-.01-1.187,4.17-1.157,4.708a16.757,16.757,0,0,0,1.2,4.361,81.762,81.762,0,0,0,4.971,11.364c.146.282.378.609.692.558a.77.77,0,0,0,.4-.271,25.1,25.1,0,0,0,4.143-5.988c.8-1.611,2.127-3.3,2.628-5.036a8.326,8.326,0,0,0,.034-2.8,9.906,9.906,0,0,1,.782-3.368A15,15,0,0,0,575.038,205.173Z"/><path class="n" d="M552.2,228.626a13.614,13.614,0,0,0,8.416-2.619"/><path class="g" d="M561.225,218.191a1.989,1.989,0,0,1,2.9.305c1.129,1.421.68,3.651-.359,5.165-1.164,1.7-2.4,1.754-3.218,1.406s-1.146-1.771-.644-3.233"/><path class="x" d="M561.837,223.588c0-.111.851-.223.851-.334"/><path class="g" d="M568.131,200.53c-2.694-.621-2.733-3.813-2.393-6.009a8.566,8.566,0,0,1,9.318-7.36c5.012.331,10.383,3.689,9.609,10.766-.681,6.229-10.49,7.563-15.013,3.988q-.241-.19-.47-.4"/><path class="y" d="M565.637,195.342s7.917,2.394,8.979,8.44"/><path class="o" d="M566.676,236.414s-6.015,68.045,2.913,127.733l49.547-9.367c-.1-6.332-9.172-63.194-16.172-78.058-11.775-25-27.64-38.213-27.64-38.213"/><path class="z" d="M568.041,236.571s-5.353,81.429,4.8,131.179"/><path class="o" d="M569.589,364.147l1.342,7.063,49.825-9.627-1.62-6.8"/><path class="o" d="M548.117,236.719s-9.528,48.531-14.528,127.592c-12.365-2.414-29.75-13.107-29.75-13.107s11.083-71.829,28-101.977c1.563-2.786,1.9-6.39,3.833-8.253A91.164,91.164,0,0,1,548.117,236.719Z"/><path class="p" d="M514.677,298.146s7.688-34.563,15.376-45.537"/><path class="p" d="M546.117,237.221s-9.528,48.029-14.528,127.09"/><path class="aa" d="M525.089,329.071c-3.865,10.679-16.25,12.679-16.25,12.679"/><path class="ab" d="M503.839,351.2l-.986,7.2,30.494,12.766.242-6.858"/><path class="h" d="M559.17,502.19H515.826l-.316-4.565,43.19.528Z"/><path class="ac" d="M531.6,465.968l24.461-.653,2.641,32.838H516.679c-6.5,0,16.253-11.98,16.253-11.98Z"/><line class="y" y1="0.335" x2="24.539" transform="translate(531.84 469.293)"/><line class="y" x2="2.174" y2="3.28" transform="translate(525.915 490.055)"/><line class="y" x2="2.174" y2="3.28" transform="translate(528.089 488.818)"/><line class="y" x2="2.174" y2="3.28" transform="translate(530.262 487.627)"/><path class="y" d="M549.12,499.41s-1.572-10.315,8.783-11.166"/><path class="h" d="M607.322,502.19H563.978l-.316-4.565,43.19.528Z"/><path class="ac" d="M577.75,465.968l24.461-.653,4.641,32.838H564.831c-6.5,0,16.253-11.98,16.253-11.98Z"/><line class="y" y1="0.335" x2="24.359" transform="translate(578.414 469.293)"/><line class="y" x2="2.174" y2="3.28" transform="translate(574.067 490.055)"/><line class="y" x2="2.174" y2="3.28" transform="translate(576.241 488.818)"/><line class="y" x2="2.174" y2="3.28" transform="translate(578.414 487.627)"/><path class="y" d="M597.272,499.41s-2.167-10.249,8.188-11.1"/><path class="o" d="M574.089,262.5s17.25,22.25,21.25,29.25c1.579,2.763-2.25,19.25-2.25,19.25l28,13.5s2.5-3.75,5-18.25-9.165-37.67-22.75-50.75c-17.172-16.533-33.833-18.317-33.833-18.317"/><path class="g" d="M594.432,308.08l-9.343,26.67,12.5,10.5,20.649-30.5"/><path class="ad" d="M581.944,331.772s9.733,11.139,19.352,14.941"/><path class="ae" d="M595.146,300.28s1.911-5.783.193-8.53-17.083-25.833-17.083-25.833"/><path class="o" d="M594.214,297.625l-4.566,18.04,30.831,13.525,5.76-18.313Z"/></g></g></g><g transform="translate(9.277 9.683)"><ellipse class="af" cx="8.436" cy="8.436" rx="8.436" ry="8.436" transform="translate(0 0)"/><path class="ag" d="M283.2,134.239a3.713,3.713,0,1,0-4.414,0,6.859,6.859,0,0,0-4.43,4.806,8.418,8.418,0,0,0,13.273,0A6.859,6.859,0,0,0,283.2,134.239Z" transform="translate(-272.554 -125.413)"/></g><rect class="e" width="61.527" height="7.123" rx="3.562" transform="translate(33.215 13.912)"/><path class="ah" d="M348.375,127.554" transform="translate(-284.396 -116.263)"/><path class="ah" d="M337.872,129.353" transform="translate(-281.547 -116.751)"/><rect class="e" width="37.663" height="5.713" rx="2.857" transform="translate(9.277 210.38)"/><rect class="e" width="76.651" height="5.713" rx="2.857" transform="translate(51.119 210.38)"/><path class="ai" d="M283.31,382.631a3.249,3.249,0,0,0-6.144-.869,3.25,3.25,0,1,0-5.231,3.7l4.636,4.635a.842.842,0,0,0,1.191,0l4.635-4.635A3.256,3.256,0,0,0,283.31,382.631Z" transform="translate(-262.556 -189.937)"/><path class="aj" d="M316.867,384.825a2.745,2.745,0,0,0,.622-1.721,3.178,3.178,0,1,0-3.167,2.916,3.36,3.36,0,0,0,1.368-.3l1.8.8Z" transform="translate(-263.203 -188.171)"/><g transform="translate(64.653 192.269)"><path class="aj" d="M327.388,380.533l2.73,2.192.588,3.639,4.424-5.831Z" transform="translate(-327.388 -380.533)"/><line class="aj" y1="2.192" x2="5.011" transform="translate(2.73 0)"/></g><path class="aj" d="M481.295,386.958l-3.038-1.482-3.038,1.482v-7.283h6.076Z" transform="translate(-321.532 -188.99)"/><text class="ak" transform="translate(23.759 197.341)"><tspan x="0" y="0">56k</tspan></text></g></g><g class="c" transform="translate(576.574 4461.998)"><g transform="translate(0 0)"><g class="bj" transform="matrix(1, 0, 0, 1, -175.57, -67)"><rect class="d" width="166.765" height="230.273" rx="9" transform="translate(175.57 67)"/></g><rect class="e" width="25.131" height="5.061" rx="1" transform="translate(54.286 31.87)"/><rect class="d" width="158.223" height="158.223" transform="translate(4.271 30.858)"/><g transform="translate(14.61 40.762)"><g class="f"><g transform="translate(54.875 6.238)"><g transform="translate(58.734 10.942)"><path class="u" d="M141.811,168.442l16.5,9.342,30.5-29.8,8.712,8.33s-21.025,49.5-39.946,46.649c-13.453-2.024-31.708-14.834-31.708-14.834" transform="translate(-101.994 -124.751)"/><path class="o" d="M167.618,153.664s9.638-3.118,26.321,5.031c11.125,5.434,27.457,15.543,27.457,15.543l-12.016,29.34-36.415-19.521" transform="translate(-167.618 -124.751)"/><g transform="translate(78.316)"><path class="g" d="M120.1,154.684l-3.155-8.728s7.038-15.21,8.248-15.056-2.343,7.5-2.343,7.5,5.326-8.851,5.585-8.238c.464,1.1-3.316,9.362-3.316,9.362s5.732-7.648,5.991-6.706-5.707,12.826-5.707,12.826Z" transform="translate(-104.993 -124.751)"/><g transform="translate(15.47)"><path class="h" d="M117.112,146.318l-2.237-4.983a.924.924,0,0,1,.043-.842l7.076-15.733s.976.313,1.113.373a.412.412,0,0,1,.216.155l3.147,5.3a.924.924,0,0,1-.043.842l-7.748,14.948a.567.567,0,0,1-.438.349Z" transform="translate(-113.735 -124.751)"/><path class="i" d="M119.046,146.179l-3.113-5.247a.924.924,0,0,1,.043-.842l7.789-15.027c.169-.326.476-.415.616-.178l3.147,5.3a.924.924,0,0,1-.043.842l-7.748,14.948C119.548,146.344,119.2,146.444,119.046,146.179Z" transform="translate(-115.851 -124.751)"/><path class="j" d="M116.513,139.016l3.637,6.129,6.779-13.079-3.637-6.129Z" transform="translate(-115.83 -124.751)"/><path class="i" d="M124.264,135.082c.311.108.666-.1.962-.649a4.847,4.847,0,0,0,.305-3.412c-.334-.954-1.011-.973-1.513-.042a4.744,4.744,0,0,0-.481,2.026c-.516-.49-1.192-.246-1.732.754l-2.692,4.933,2.385,3.975,2.077-3.851A7.248,7.248,0,0,0,124.264,135.082Z" transform="translate(-117.215 -124.751)"/><path class="j" d="M125.856,142.705c-.084.208-.23.3-.325.205a.576.576,0,0,1-.02-.55c.085-.209.23-.3.325-.206A.572.572,0,0,1,125.856,142.705Z" transform="translate(-123.758 -124.751)"/><g transform="translate(9.201 2.664)"><path class="j" d="M118.273,128.758a.129.129,0,0,0,.074-.016.126.126,0,0,0,.046-.171l-.63-1.093a.125.125,0,1,0-.216.125l.629,1.093A.129.129,0,0,0,118.273,128.758Z" transform="translate(-117.53 -127.415)"/></g><g transform="translate(0)"><g class="al" transform="translate(0)"><path class="am" d="M128.118,127.962l.683,1.368-13.295,15.224-.683-1.368Z" transform="translate(-116.014 -124.751)"/><path class="an" d="M128.389,126.488l.17.342-13.295,15.224-.17-.342Z" transform="translate(-116.043 -124.751)"/></g></g></g><path class="g" d="M133.027,148.446a8.421,8.421,0,0,1,5.021-5.44c.456-.906,3.7-6.226,4.374-6.09s-2.376,8.921-3.406,10.975-4.8,8.422-4.8,8.422l-11.273,15.726s-5.7-8.961-5.363-9.19,12.634-16.325,12.634-16.325" transform="translate(-116.999 -124.751)"/><path class="g" d="M125.263,162.628l8.5-14.645a29.46,29.46,0,0,1,3.881-6.827,7.294,7.294,0,0,1,2.377-2.22.792.792,0,0,1,.709.275c.54.471,2.523,2.7,2.338,3.337-.316,1.09-1.536.678-3-.1a8.246,8.246,0,0,1-.143,4.856,9.879,9.879,0,0,1-2.015,4.048l-8.843,17.274" transform="translate(-125.263 -124.751)"/><path class="n" d="M127.744,143.006a11.983,11.983,0,0,0-5.713,5.251" transform="translate(-106.695 -124.751)"/><path class="n" d="M130.205,143.2a6.72,6.72,0,0,1-2.312-.753c.31,2.136.531,3.086-1.928,6.432" transform="translate(-113.09 -124.751)"/></g></g><g transform="translate(24.287 127.182)"><g transform="translate(10.436 13.384)"><g transform="translate(0 101.295)"><path class="h" d="M226.779,389.245l2.116-1,12.974,27.57a4.2,4.2,0,0,0,3.386,2.392l.153.216-3.4,1.6a.554.554,0,0,1-.4.025l-.125-.04a3.234,3.234,0,0,1-1.928-1.7L226.385,390.34A.823.823,0,0,1,226.779,389.245Z" transform="translate(-226.306 -355.67)"/><path class="g" d="M233.118,355.67l-24.029,28.9-8.787,5.238,12.48,26.519a1.763,1.763,0,0,0,2.347.845h0a1.764,1.764,0,0,0,1.008-1.724l-1.276-17.6L241.182,376.2" transform="translate(-196.076 -355.67)"/><path class="ao" d="M242.264,396.51l.554,19.856a2.225,2.225,0,0,1-1.337,2.009h0a2.424,2.424,0,0,1-3-1.17l-13.626-28.956,10.763-3.882S234.587,391.046,242.264,396.51Z" transform="translate(-222.271 -355.67)"/><path class="ap" d="M229.493,400.364a21.554,21.554,0,0,0-5-.515" transform="translate(-208.578 -355.67)"/><path class="ap" d="M228.992,403.026a18.864,18.864,0,0,0-4.221-.372" transform="translate(-208.355 -355.67)"/><path class="ap" d="M228.727,405.209a26.364,26.364,0,0,0-3.864-.321" transform="translate(-208.182 -355.67)"/></g><path class="h" d="M201.266,254.375l3.447,7.975c1.121,2.593,27.2,49.251,27.2,72.064,0,17-42.607,62.447-42.607,62.447l-20.384-22.872,27.658-39.63-22.254-43.371s-16.275-5.737-9.717-34.864" transform="translate(-149.56 -254.375)"/><path class="ao" d="M207.65,369.8l-6.731,6.241,22.027,22.781,6.188-6.554Z" transform="translate(-184.644 -254.375)"/></g><g transform="translate(0)"><g transform="translate(23.48 140.56)"><path class="h" d="M192.693,427.488V425.15h30.47a4.2,4.2,0,0,0,3.606-2.045l.26-.047v3.76a.55.55,0,0,1-.149.377l-.09.1a3.234,3.234,0,0,1-2.358,1.021H193.516A.823.823,0,0,1,192.693,427.488Z" transform="translate(-187.358 -381.551)"/><path class="g" d="M193.85,384.691l6.443,29.46,1,10.181H230.6a1.764,1.764,0,0,0,1.764-1.764h0a1.763,1.763,0,0,0-1.13-1.646l-16.472-6.342-2.235-33.029" transform="translate(-193.85 -381.551)"/><path class="ab" d="M208.157,412.919l17.623,7.954a2.222,2.222,0,0,1,1.249,2.064h0a2.424,2.424,0,0,1-2.335,2.213h-32l1.07-11.392S199.945,417.539,208.157,412.919Z" transform="translate(-187.358 -381.551)"/><path class="ap" d="M210.859,413.726a21.563,21.563,0,0,0-2.595,4.306" transform="translate(-186.759 -381.551)"/><path class="ap" d="M208.108,415.112a18.884,18.884,0,0,0-2.134,3.661" transform="translate(-181.718 -381.551)"/><path class="ap" d="M205.974,416.124a26.55,26.55,0,0,0-1.936,3.36" transform="translate(-177.648 -381.551)"/></g><path class="h" d="M206.269,257.489s-2.422,17.883,4.411,35.352,16.006,118.035,16.006,118.035l29.158-10.4-6.5-127.178s.2-12.656-4.49-32.305" transform="translate(-205.852 -240.991)"/><path class="aq" d="M248.98,407.963,233.323,293.215s-7.112-14.48-6.435-25.126" transform="translate(-219.98 -240.991)"/><path class="aq" d="M247.532,259.979s1.576,11.1-9.695,19.2" transform="translate(-229.6 -240.991)"/><path class="ab" d="M204.038,402.465l1.372,9.157,31.563-5.475-1.427-9.629Z" transform="translate(-185.167 -240.991)"/></g></g><g transform="translate(20.532 0.001)"><path class="o" d="M232.356,154.157s16.309,12.127,20.6,41.176,6.64,64.7,6.64,64.7l-67.323,2.016s-5.959-26.163-2.768-53.9c2.532-22,8.779-44.2,17.547-53.58,1.73-1.393,12.478-3.236,12.478-3.236l12.823,2.818" transform="translate(-188.568 -113.81)"/><path class="ar" d="M201.765,195.353s-1.793-14.284-6.789-25.547" transform="translate(-137.142 -113.81)"/><path class="ae" d="M231.717,153.74c2.91,1.181,4.322,6.887-2.588,7.319a15.6,15.6,0,0,1-14.678-8.519" transform="translate(-188.971 -113.81)"/><g transform="translate(22.958)"><path class="u" d="M231.99,144.793,224.8,129.311l-7.7,11.172-1.029,2.632-2.256,9.644s6.871,8.5,14.736,5.264a1.486,1.486,0,0,0,.863-1.074l2.582-12.156" transform="translate(-209.158 -113.81)"/><path class="u" d="M223.245,121.13c3.414,4.241,10.52,21.168,7.427,24.607s-10.092,4.084-13.666,2.178c-3.1-1.653-11.014-14.405-8.937-19.3S218.458,115.185,223.245,121.13Z" transform="translate(-202.52 -113.81)"/><path class="as" d="M204.9,130.192a12.073,12.073,0,0,1,2.034-5.643c1.908-3.346,4.133-6.872,7.716-8.284a2.275,2.275,0,0,1,2.491.183A9.875,9.875,0,0,1,221.7,114a5.387,5.387,0,0,1,3.11.074,2.859,2.859,0,0,1,1.9,2.313,20.832,20.832,0,0,1,5.306-.392,7.811,7.811,0,0,1,3.5,1.153,2.135,2.135,0,0,1,1.117,2.4,6.835,6.835,0,0,1-3.467,5.181c-2.313,1.358-5.089,1.624-7.767,1.791s-5.436.284-7.875,1.4a3.3,3.3,0,0,0-1.542,1.209,3.914,3.914,0,0,0-.4,1.705l-.513,6.4a13.9,13.9,0,0,1-1.286,5.285c-.679,1.32-2.795,4.688-3.8,2.026-.91-2.408-5.037-12.061-5.07-14.2Q204.9,130.273,204.9,130.192Z" transform="translate(-204.903 -113.81)"/><path class="g" d="M227.2,137.207c-.848-.647-1.894-1.335-2.827-1.019a1.781,1.781,0,0,0-1.021,1.051,5.045,5.045,0,0,0,2.831,6.493c1.065.355,2.26.2,2.537-1.068l-1.11-4.92A.877.877,0,0,0,227.2,137.207Z" transform="translate(-215.099 -113.81)"/><path class="n" d="M223.371,149.208s-5.615.876-8.231-2.542" transform="translate(-201.87 -113.81)"/><path class="u" d="M206.691,130.268s6.083,3.665,5.827,5.2-2.65,1.749-2.65,1.749" transform="translate(-182.576 -113.81)"/><g transform="translate(20.894 16.75)"><path class="h" d="M215.153,130.779a4.179,4.179,0,0,1,.525.924.669.669,0,0,1-.6.928c-.857.09-1.506-1.741-.532-2.044A.564.564,0,0,1,215.153,130.779Z" transform="translate(-214.055 -130.56)"/></g><path class="d" d="M216.086,138.722l-7.224,1.026s1.92,5,6.119,4C217.533,143.139,216.086,138.722,216.086,138.722Z" transform="translate(-188.717 -113.81)"/><g transform="translate(18.012 13.46)"><path class="h" d="M218.6,128.368a10.746,10.746,0,0,0-3.3,2.383c-.153-.011-.732-.455-.7-.881.025-.337,1.656-1.864,3.418-2.6C218.024,127.27,218.775,128.1,218.6,128.368Z" transform="translate(-214.605 -127.27)"/></g><path class="n" d="M223.189,143.092s2.107,1.328,3.568.044" transform="translate(-213.305 -113.81)"/></g></g><g transform="translate(0 39.014)"><path class="g" d="M280.13,192.57l-15.869,26.55,11.14,44.2,2.7,3.216a21.908,21.908,0,0,1-7.383,11.192l-5.365-7.653s-29.8-36.358-28.372-52.483c1.182-13.381,20.136-44.806,20.136-44.806" transform="translate(-236.937 -152.823)"/><path class="o" d="M267.809,152.823c-5.2.667-15.225,3.894-25.349,17.723-14.841,20.273-17.848,27.729-17.848,27.729l32.955,20.035,21.239-35.886" transform="translate(-223.288 -152.823)"/><path class="at" d="M224.612,198.275l32.955,20.035,21.239-35.886" transform="translate(-223.287 -152.823)"/></g></g></g></g><g transform="translate(9.277 9.683)"><ellipse class="af" cx="8.436" cy="8.436" rx="8.436" ry="8.436" transform="translate(0 0)"/><path class="ag" d="M283.2,134.239a3.713,3.713,0,1,0-4.414,0,6.859,6.859,0,0,0-4.43,4.806,8.418,8.418,0,0,0,13.273,0A6.859,6.859,0,0,0,283.2,134.239Z" transform="translate(-272.554 -125.413)"/></g><rect class="e" width="61.527" height="7.123" rx="3.562" transform="translate(33.215 13.912)"/><path class="ah" d="M348.375,127.554" transform="translate(-284.396 -116.263)"/><path class="ah" d="M337.872,129.353" transform="translate(-281.547 -116.751)"/><rect class="e" width="37.663" height="5.713" rx="2.857" transform="translate(9.277 210.38)"/><rect class="e" width="76.651" height="5.713" rx="2.857" transform="translate(51.119 210.38)"/><path class="ai" d="M283.31,382.631a3.249,3.249,0,0,0-6.144-.869,3.25,3.25,0,1,0-5.231,3.7l4.636,4.635a.842.842,0,0,0,1.191,0l4.635-4.635A3.256,3.256,0,0,0,283.31,382.631Z" transform="translate(-262.556 -189.937)"/><path class="aj" d="M316.867,384.825a2.745,2.745,0,0,0,.622-1.721,3.178,3.178,0,1,0-3.167,2.916,3.36,3.36,0,0,0,1.368-.3l1.8.8Z" transform="translate(-263.203 -188.171)"/><g transform="translate(64.653 192.269)"><path class="aj" d="M327.388,380.533l2.73,2.192.588,3.639,4.424-5.831Z" transform="translate(-327.388 -380.533)"/><line class="aj" y1="2.192" x2="5.011" transform="translate(2.73 0)"/></g><path class="aj" d="M481.295,386.958l-3.038-1.482-3.038,1.482v-7.283h6.076Z" transform="translate(-321.532 -188.99)"/><text class="ak" transform="translate(23.759 197.341)"><tspan x="0" y="0">15k</tspan></text></g></g><g transform="translate(439.42 4435.236)"><g transform="translate(54 0)"><g class="bi" transform="matrix(1, 0, 0, 1, -92.42, -40.24)"><rect class="d" width="202.776" height="279.999" rx="9" transform="translate(92.42 40.24)"/></g><rect class="e" width="30.558" height="6.154" rx="1" transform="translate(66.009 38.752)"/><rect class="d" width="192.39" height="192.39" transform="translate(5.193 37.521)"/><g transform="translate(17.765 49.564)"><g class="au"><g transform="translate(-29.296 -14.771)"><path class="av" d="M411.347,163.771a7.759,7.759,0,0,0-7.433,3.9c-.922,1.444-1.732,3.326-3.271,4.234-1.89,1.115-4.441.416-6.532.49-3.4.119-3.417,4.653-3.417,4.653h38.318c2.977,0,2.3-7.135-2.852-7.489-2.77-.19-5.955,1.136-7.919-1.685A8.639,8.639,0,0,0,411.347,163.771Z" transform="translate(-265.686 -141.78)"/><g transform="translate(74.037 99.75)"><path class="q" d="M342.866,358.2A23.788,23.788,0,0,1,326.238,326.1c3.01-7.418,9.788-13.518,10.117-21.517.179-4.372-1.655-8.543-2.53-12.83a29.855,29.855,0,0,1,3.027-20.1c1.661-3.038,4.123-5.953,7.5-6.73,5.952-1.371,11.264,4.6,12.669,10.546s.485,12.268,2.018,18.182c2.991,11.543,14.889,20.134,14.876,32.059-.015,12.719-13.75,22.2-14.043,34.921" transform="translate(-324.526 -264.72)"/><path class="aw" d="M351.684,264.978,354.4,372.794H348.58l3.1-107.815" transform="translate(-330.05 -264.78)"/><line class="ax" x1="21.524" y1="12.476" transform="translate(0.109 67.986)"/><line class="ax" y1="18.906" x2="21.739" transform="translate(21.13 44.503)"/><line class="ax" x2="4.015" y2="6.748" transform="translate(5.816 66.87)"/></g><g transform="translate(0 70.249)"><path class="q" d="M278.3,230.645c5.378,5.205,6.433,13.374,6.488,20.858s-.509,15.315,2.65,22.1c2.82,6.057,8.143,10.437,11.3,16.27,3.879,7.159.307,13.415-1.894,20.762a23.4,23.4,0,0,0-1.34,7c.055,3.618,1.766,6.976,2.7,10.471a25.2,25.2,0,0,1-1.886,17.828,38.145,38.145,0,0,1-6.9,9.077,40.866,40.866,0,0,1-12.592,9.285c-11.519,5.009-27.081-2.068-35.569-10.379-4.982-4.877-8.145-12.243-6.142-18.919.786-2.618,2.3-4.959,3.239-7.524a18.5,18.5,0,0,0,.33-11.673c-2.013-6.607-7.6-11.676-9.562-18.3a18.455,18.455,0,0,1,3.741-17.086c2.748-3.135,6.512-5.254,9.227-8.419,2.389-2.785,3.842-6.232,5.257-9.617,1.669-3.993,3.361-8.08,3.635-12.4.177-2.792-.246-5.6.028-8.388C252.285,228.7,268.594,221.252,278.3,230.645Z" transform="translate(-228.413 -226.424)"/><line class="ax" y1="27.042" x2="29.92" transform="translate(39.451 81.313)"/><line class="ax" x1="16.324" y2="6.021" transform="translate(50.761 92.112)"/><path class="aw" d="M276.277,226.424,272.5,387.241h6.325l-.923-160.75Z" transform="translate(-238.539 -226.424)"/><line class="ax" y1="21.838" x2="27.564" transform="translate(39.451 58.57)"/><line class="ax" x1="15.349" y2="15.176" transform="translate(39.451 12.649)"/><line class="ax" x1="3.571" y2="10.382" transform="translate(47.368 9.991)"/><line class="ax" x1="19.023" y1="16.779" transform="translate(20.427 32.274)"/><line class="ax" x1="37.294" y1="29.718" transform="translate(1.984 57.686)"/><line class="ax" y1="4.287" x2="11.051" transform="translate(44.9 18.161)"/><line class="ax" y1="22.765" x2="17.492" transform="translate(45.214 53.078)"/></g><g transform="translate(143.845)"><path class="q" d="M453.3,326.941c-4.582-3.751-9.207-7.547-12.823-12.236s-6.189-10.42-6.035-16.34c.16-6.183,3.238-12.339,1.736-18.338-1.508-6.025-7.1-9.929-11.464-14.345-4.831-4.885-8.536-11.119-9.379-17.938-.883-7.137,1.5-14.163,5.3-20.131,5.317-8.341,16.129-14.249,18.164-24.676,1.858-9.523-2.749-17.911-5.446-26.682-5.066-16.475,4.1-36.161,21.334-40.473,7.249-1.814,14.926,1.07,21.089,5.3a44.763,44.763,0,0,1,16.608,20.517,36.085,36.085,0,0,1,.092,26.175c-3.793,9.379-11.967,17.1-13.063,27.153-1.378,12.656,8.809,23.368,12.684,35.495,1.775,5.551,2.211,11.432,2.494,17.253.247,5.06.37,10.25-1.222,15.059-2.34,7.064-8.069,12.43-13.9,17.047a147.564,147.564,0,0,1-20.2,13.485" transform="translate(-415.147 -135.229)"/><path class="aw" d="M466.9,135.462l-1.937.373L459.9,329.059h10.444Z" transform="translate(-425.427 -135.282)"/><line class="ax" x1="26.363" y1="31.464" transform="translate(14.011 82.72)"/><line class="ax" x1="22.723" y1="12.679" transform="translate(7.569 89.533)"/><line class="ax" x1="16.723" y1="18.122" transform="translate(23.651 67.708)"/><line class="ax" y1="20.826" x2="23.892" transform="translate(40.374 79.693)"/><line class="ax" y1="27.231" x2="28.374" transform="translate(40.374 14.381)"/><line class="ax" x1="21.444" y1="24.788" transform="translate(18.931 22.383)"/><line class="ax" y1="26.973" x2="38.921" transform="translate(40.374 129.739)"/><line class="ax" x1="1.538" y1="9.435" transform="translate(19.916 82.168)"/><line class="ax" x2="6.303" y2="1.711" transform="translate(25.71 75.058)"/><line class="ax" x1="1.314" y1="10.551" transform="translate(24.778 20.111)"/><line class="ax" x1="38.994" y1="27.912" transform="translate(0.184 112.515)"/></g><g transform="translate(60.053 39.922)"><path class="u" d="M351.842,283.755l-14.05,2.233-10.035,5.623-2.175-35.133-14.432-1.491s-11.087,55.682.514,66.15c13.557,12.233,53.9-20.255,53.9-20.255" transform="translate(-306.371 -202.657)"/><path class="ay" d="M336.428,315.918s-1.021-8.232-2.295-13.387" transform="translate(-312.748 -213.577)"/><path class="o" d="M385.385,268.566c-15.066-1.411-43.435,22.04-43.435,22.04L352.3,320.927l35.59-20.762" transform="translate(-314.543 -205.762)"/><path class="u" d="M355.861,207.048a106.755,106.755,0,0,0-5.919,14.211c-1.329,3.973-2.6,8.222-2.225,12.461A12.7,12.7,0,0,0,358.5,245.155a31.315,31.315,0,0,0,9.839-.261c10.542-2.477,13.939-10.742,16.067-12.87s2.809-26.253-3.152-26.253S362.093,196.528,355.861,207.048Z" transform="translate(-315.852 -190.491)"/><path class="ay" d="M358.332,226.654s-6.185,6.192-5.622,7.65c.832,2.15,4.635,2.15,4.635,2.15" transform="translate(-317.006 -196.149)"/><g transform="translate(37.194 26.389)"><path class="h" d="M356.647,224.09a1.245,1.245,0,0,1,.3-.939,1.093,1.093,0,1,0-1.725-1.33,2.884,2.884,0,0,0-.461,2.524.963.963,0,0,0,1.883-.255Z" transform="translate(-354.655 -221.311)"/></g><g transform="translate(50.133 32.207)"><path class="h" d="M373.444,231.643a1.249,1.249,0,0,1,.3-.939,1.093,1.093,0,1,0-1.724-1.33,2.882,2.882,0,0,0-.461,2.524.963.963,0,0,0,1.883-.255Z" transform="translate(-371.452 -228.864)"/></g><path class="az" d="M370.958,223.531s4.056-2.215,7.27,4.209" transform="translate(-321.206 -195.347)"/><path class="az" d="M355.766,217.136s3.845-1.525,5.026,3.161" transform="translate(-317.716 -193.909)"/><path class="o" d="M355.758,243.518l11.544-.72s-1.06,6.662-6.6,6.662C356.127,249.46,355.758,243.518,355.758,243.518Z" transform="translate(-317.715 -199.857)"/><g transform="translate(51.102 34.298)"><path class="o" d="M372.979,231.749c-.046.217-.228.364-.264.589-.06.366.5.528.565.156.049-.271.216-.458.159-.744a.24.24,0,0,0-.459,0Z" transform="translate(-372.71 -231.579)"/></g><g transform="translate(38.103 28.453)"><path class="o" d="M356.1,224.16c-.046.216-.228.364-.264.589-.06.366.5.528.565.155.049-.27.215-.457.158-.743a.239.239,0,0,0-.458,0Z" transform="translate(-355.835 -223.99)"/></g><path class="o" d="M399.547,262.875l-24.156,8.811c-2.507,7.49-9.965,33.034-9.965,33.034l-5.834,41.844h91.024S433.134,273.906,399.547,262.875Z" transform="translate(-318.595 -204.469)"/><path class="u" d="M374.505,242.328l4.311,20.818s12.331,6.1,24.156-8.811l-17.267-28.644" transform="translate(-322.02 -195.928)"/><path class="u" d="M325.9,250.732c.521-9.185,6.554-26.426,4.475-27.184s-3.107,6.823-4.422,6.823c-.182-5.022,1.993-17.176.012-17.176s-3.535,11.382-3.535,11.382-.555-4.043-2.091-3.622-1.836,3.33-1.85,4.145c-.233-.741-1.323-3.043-2.658-2.716-1.2.3-1.5,3.994-1.5,3.994s-1.967-12.652-4.124-11.49,3.194,23.765.693,36.062" transform="translate(-307.133 -193.058)"/><path class="ay" d="M316.117,231.076s1.12,5.71,2.833,5.073S320,229.126,320,229.126s1.45,6.845,2.9,6.341,1.006-7.5,1.006-7.5" transform="translate(-308.61 -196.452)"/><path class="ay" d="M328.4,237.048a14.134,14.134,0,0,0-4.415,10.148" transform="translate(-310.417 -198.537)"/><path class="ay" d="M317.748,237.048a20.793,20.793,0,0,1,1.645,9.715" transform="translate(-308.984 -198.537)"/><path class="u" d="M370.328,352.04l6.174-44.884,14.562-20.435,23.808,1.546,11.254,13.057,21.09,50.716Z" transform="translate(-321.061 -209.946)"/><path class="o" d="M376.022,306.678s.033-24.441,11.311-36.155c5.458-5.669,17.183-7.632,25.183.045,10.378,9.959,16.7,27.784,16.7,27.784S395.391,295.445,376.022,306.678Z" transform="translate(-322.369 -205.075)"/><path class="ay" d="M376.466,255.7a10.711,10.711,0,0,0,6.667-3.54" transform="translate(-322.471 -202.009)"/><path class="as" d="M384.5,209.256c-.092.009-.128-.132-.193-.195a30.822,30.822,0,0,0-3.582-2.54l-3.916-2.85c-.361-.263-1.459-1.4-1.923-1.4l-17.261-.176c-4.14-.9-12.967.934-10.1,7.217,2.05,4.491,10.772,3.457,14.686,3.336-.916.8-.6,2.414.334,3.2a5.7,5.7,0,0,0,3.443,1.011c2.159.112,4.942-.985,6.861.366a10.434,10.434,0,0,1,3.8,5.723,11.9,11.9,0,0,0,.873,2.479,2.856,2.856,0,0,0,2.014,1.543,8.708,8.708,0,0,1,1.264.087c1.608.444,2.483,3.849,3.359,5.138a22.594,22.594,0,0,0,5.423,5.593c.288-1.677.8-5.124,1.444-6.351,1.472-2.817,2.512-4.429,2.839-6.589C393.869,224.848,395.046,208.229,384.5,209.256Z" transform="translate(-315.694 -190.459)"/><path class="u" d="M386.7,235.227a4.91,4.91,0,0,1,5.5-2.034,3.672,3.672,0,0,1,2.168,3.4,8.113,8.113,0,0,1-3.872,6.867c-2.031,1.236-6.015,1.082-6.015-1.962" transform="translate(-324.313 -197.602)"/><path class="ay" d="M393.4,242.6a8.315,8.315,0,0,1-2.9,3.07c-2.031,1.236-6.015,1.082-6.015-1.962" transform="translate(-324.313 -199.811)"/><g transform="translate(23.68)"><path class="g" d="M393.8,190.017c.891-.556,2.429-1.112,3.415-.47,1.125.732.945,3.114-.214,3.738" transform="translate(-350.131 -187.561)"/><path class="g" d="M357.4,197.513l39.639,23.935s8.034-20.153-8.869-30.683C370.06,179.486,357.4,197.513,357.4,197.513Z" transform="translate(-341.771 -187.054)"/><path class="ba" d="M401.192,215.889s4.819-15.43-4.244-24.587" transform="translate(-350.855 -188.03)"/><path class="ba" d="M384.5,207.5s8.519-11.546,9.247-16.194" transform="translate(-347.996 -188.03)"/><path class="ba" d="M364.728,197.87a21.81,21.81,0,0,1,25.562-6.514" transform="translate(-343.455 -187.645)"/><path class="as" d="M366.049,200.176l10.969,6.655s2.347-6.43-3.1-9.157C370.139,195.787,367.7,198.106,366.049,200.176Z" transform="translate(-343.758 -189.333)"/><line class="ba" x2="38.459" y2="23.571" transform="translate(17.667 8.037)"/><line class="bb" x1="54.838" y1="33.475" transform="translate(0 1.924)"/></g><path class="bc" d="M376.022,309.68s-.273-19.4,7.5-31.095" transform="translate(-322.368 -208.077)"/><path class="bc" d="M441.964,302.084s-6.183-14.906-10.451-20.32" transform="translate(-335.114 -208.807)"/><path class="bc" d="M365.269,323.637c.864-8.49,2.168-17.45,3.5-24.011" transform="translate(-319.899 -212.91)"/></g><path class="av" d="M290.932,182.434c8.37-.566,7.575,9.792,10.04,11.078,2.443,1.274,2.985-.382,6.586-.243,3.684.143,5.73,4.212,5.73,4.212H271.812c-3.223,0-4.038-7.652,1.531-8.072s5.775,3.094,7.865,1.677C283.281,189.681,283.862,182.913,290.932,182.434Z" transform="translate(-237.798 -146.066)"/></g></g></g><g transform="translate(11.28 11.774)"><ellipse class="af" cx="10.257" cy="10.257" rx="10.257" ry="10.257" transform="translate(0 0)"/><path class="ag" d="M285.107,135.682a4.515,4.515,0,1,0-5.367,0,8.34,8.34,0,0,0-5.386,5.844,10.236,10.236,0,0,0,16.139,0A8.34,8.34,0,0,0,285.107,135.682Z" transform="translate(-272.166 -124.951)"/></g><rect class="e" width="74.814" height="8.662" rx="4" transform="translate(40.388 16.917)"/><path class="ah" d="M348.375,127.554" transform="translate(-270.58 -113.825)"/><path class="ah" d="M337.872,129.353" transform="translate(-269.384 -114.03)"/><rect class="e" width="45.797" height="6.947" rx="3" transform="translate(11.28 255.81)"/><rect class="e" width="93.204" height="6.947" rx="3" transform="translate(62.158 255.81)"/><path class="ai" d="M285.972,383.22a3.95,3.95,0,0,0-7.47-1.056,3.952,3.952,0,1,0-6.361,4.494l5.637,5.636a1.024,1.024,0,0,0,1.448,0l5.636-5.636A3.958,3.958,0,0,0,285.972,383.22Z" transform="translate(-260.737 -148.915)"/><path class="bd" d="M280.112,381.923a2.406,2.406,0,0,0-4.55-.643,2.407,2.407,0,1,0-3.874,2.737l3.433,3.432a.623.623,0,0,0,.882,0l3.432-3.432A2.411,2.411,0,0,0,280.112,381.923Z" transform="translate(-444.001 109.239) rotate(-40)"/><path class="be" d="M276.7,381.168a7.017,7.017,0,0,1-4.472-1.243,1.51,1.51,0,0,0-.8,2.554l2.15,2.15a.39.39,0,0,0,.552,0l2.15-2.15A1.51,1.51,0,0,0,276.7,381.168Z" transform="matrix(0.891, 0.454, -0.454, 0.891, -65.307, -242.342)"/><path class="aj" d="M318.1,385.826a3.338,3.338,0,0,0,.757-2.093,3.864,3.864,0,1,0-3.851,3.545,4.085,4.085,0,0,0,1.663-.361l2.188.972Z" transform="translate(-252.848 -146.706)"/><g transform="translate(78.614 233.788)"><path class="aj" d="M327.388,380.533l3.32,2.666.715,4.425,5.379-7.09Z" transform="translate(-327.388 -380.533)"/><line class="aj" y1="2.666" x2="6.093" transform="translate(3.32 0)"/></g><path class="aj" d="M482.607,388.53l-3.694-1.8-3.694,1.8v-8.856h7.389Z" transform="translate(-288.345 -147.813)"/><text class="bf" transform="translate(28.89 240.581)"><tspan x="0" y="0">158k</tspan></text></g></g><g transform="translate(328.137 4366.438)"><circle class="d" cx="2.234" cy="2.234" r="2.234" transform="translate(431.584 183.322)"/><path class="d" d="M592.458,118.064a2.234,2.234,0,1,1-2.235-2.234A2.235,2.235,0,0,1,592.458,118.064Z" transform="translate(-403.531 240.624)"/><circle class="u" cx="2.234" cy="2.234" r="2.234" transform="translate(493.333 50.254)"/><circle class="u" cx="2.234" cy="2.234" r="2.234" transform="translate(320.584 45.784)"/><path class="d" d="M279.953,80.89a2.234,2.234,0,1,1-2.234-2.234A2.234,2.234,0,0,1,279.953,80.89Z"/><path class="d" d="M82.446,242.34a2.234,2.234,0,1,1-2.234-2.234A2.235,2.235,0,0,1,82.446,242.34Z"/><path class="d" d="M173.64,224.856a2.234,2.234,0,1,1-2.154-2.312A2.235,2.235,0,0,1,173.64,224.856Z"/><path class="d" d="M623.539,238.276a2.234,2.234,0,1,1-2.234-2.234A2.234,2.234,0,0,1,623.539,238.276Z"/><path class="u" d="M118.239,193.389A2.235,2.235,0,1,1,116,191.155,2.234,2.234,0,0,1,118.239,193.389Z" transform="translate(-22 -15)"/><path class="u" d="M139.861,352.328a2.234,2.234,0,1,1-2.234-2.234A2.234,2.234,0,0,1,139.861,352.328Z" transform="translate(7.501 19)"/><circle class="d" cx="2.234" cy="2.234" r="2.234" transform="translate(157.587 62.822)"/><circle class="d" cx="2.234" cy="2.234" r="2.234" transform="translate(113.149 253.23)"/><circle class="d" cx="2.234" cy="2.234" r="2.234" transform="translate(381.938 58.353)"/><path class="d" d="M357.4,88.5a2.234,2.234,0,1,1-2.234-2.234A2.235,2.235,0,0,1,357.4,88.5Z"/><circle class="u" cx="3.17" cy="3.17" r="3.17" transform="translate(425.244 121.081)"/><path class="u" d="M630.6,217.359a3.17,3.17,0,1,1-3.17-3.171A3.17,3.17,0,0,1,630.6,217.359Z" transform="translate(-205.355 108.058)"/><path class="u" d="M184.458,141.635a3.17,3.17,0,1,1-3.17-3.17A3.17,3.17,0,0,1,184.458,141.635Z"/><line class="bg" x2="7.559" y2="4.377" transform="translate(408.406 351.717)"/><line class="bg" x2="8.577" y2="1.654" transform="translate(445.517 148.427)"/><line class="bh" y1="6.218" x2="6.135" transform="translate(276.885 44.035)"/><line class="bg" x2="8.509" y2="1.976" transform="translate(540.982 52.487)"/><line class="bg" y1="5.221" x2="7.003" transform="translate(292.675 359.689)"/><line class="bg" y1="2.564" x2="8.35" transform="translate(466.456 369.094)"/><line class="bg" y1="2.335" x2="8.417" transform="translate(210.438 67.291)"/><line class="bg" y1="2.335" x2="8.417" transform="translate(113.667 86.366)"/><line class="bh" x2="7.29" y2="4.813" transform="translate(82.445 305.629)"/><line class="bg" y1="4.509" x2="7.481" transform="translate(92.498 125.129)"/><line class="bh" x2="5.06" y2="4.328" transform="translate(144.832 48.018)"/><line class="bh" x2="5.06" y2="4.328" transform="translate(243.311 45.784)"/><line class="bh" x2="6.457" y2="1.628" transform="translate(407.891 58.353)"/><line class="bh" x2="6.457" y2="1.628" transform="translate(151.131 307.222)"/><line class="bg" y1="3.785" x2="5.478" transform="translate(103.775 354.561)"/><line class="bh" x2="5.06" y2="4.328" transform="translate(431.584 259.556)"/><line class="bh" y1="4.985" x2="4.415" transform="translate(103.775 273.006)"/><line class="bh" y1="4.985" x2="4.415" transform="translate(426.529 76.382)"/></g></g></svg>
