<svg xmlns="http://www.w3.org/2000/svg" xmlns:xlink="http://www.w3.org/1999/xlink" width="1920" height="804.378" viewBox="0 0 1920 804.378"><defs><style>.a{fill:none;}.b{fill:url(#a);}.c{fill:#fff;}.d{fill:#f1feff;opacity:0.94;}.e{fill:#5b877c;}.f{fill:#446d5f;}.g{fill:#e3bf6b;}.h{clip-path:url(#b);}.i{fill:#e9dcaf;}.j{fill:#fc7575;}.k{clip-path:url(#c);}.l{fill:#ec6767;}.m{fill:url(#d);}.n{fill:#ff352b;}.o{fill:#df1c2c;}.p{fill:#f3faff;}.q{fill:#b8eefa;}.r{fill:#36322f;}.s{fill:#fa7524;}.t{fill:#d7591f;}</style><radialGradient id="a" cx="0.5" cy="0.5" r="0.5" gradientUnits="objectBoundingBox"><stop offset="0" stop-color="#f85959"/><stop offset="1" stop-color="#ba343d"/></radialGradient><clipPath id="b"><path class="a" d="M390.978,445.993,352.5,425.434l15.029-32.461,42.278,22.588Z" transform="translate(-352.498 -392.972)"/></clipPath><clipPath id="c"><path class="a" d="M354.541,441.588l41.535-16.251-11.36-34.761-45.635,17.855Z" transform="translate(-339.082 -390.576)"/></clipPath><linearGradient id="d" x1="0.5" x2="0.5" y2="1" gradientUnits="objectBoundingBox"><stop offset="0" stop-color="#def3ff"/><stop offset="0.745" stop-color="#fff"/><stop offset="1" stop-color="#fff"/></linearGradient></defs><g transform="translate(0 269)"><path class="b" d="M0,0H1920V795.2H0Z" transform="translate(0 -269)"/><path class="c" d="M473.148,495.463a18.647,18.647,0,1,1,18.645,18.649,18.647,18.647,0,0,1-18.645-18.649m-10.081,0a28.726,28.726,0,1,0,28.726-28.726,28.725,28.725,0,0,0-28.726,28.726M514.944,465.6a6.713,6.713,0,1,0,6.716-6.711h0a6.716,6.716,0,0,0-6.713,6.711M469.192,541a30.913,30.913,0,0,1-10.389-1.925,18.522,18.522,0,0,1-10.619-10.614,30.894,30.894,0,0,1-1.924-10.389c-.271-5.9-.325-7.668-.325-22.608s.059-16.706.325-22.608a31.137,31.137,0,0,1,1.924-10.389A18.514,18.514,0,0,1,458.8,451.848a30.893,30.893,0,0,1,10.389-1.924c5.9-.271,7.668-.325,22.6-.325s16.706.058,22.608.326a31.118,31.118,0,0,1,10.389,1.924,18.514,18.514,0,0,1,10.62,10.619,30.9,30.9,0,0,1,1.924,10.389c.271,5.9.325,7.668.325,22.608s-.054,16.706-.325,22.608a31.037,31.037,0,0,1-1.924,10.389,18.522,18.522,0,0,1-10.62,10.615A30.877,30.877,0,0,1,514.4,541c-5.9.271-7.668.325-22.608.325s-16.706-.054-22.6-.325m-.463-101.142a41.029,41.029,0,0,0-13.579,2.6,28.6,28.6,0,0,0-16.363,16.363,41.028,41.028,0,0,0-2.6,13.579c-.276,5.965-.339,7.872-.339,23.064s.063,17.1.339,23.064a41.026,41.026,0,0,0,2.6,13.579,28.6,28.6,0,0,0,16.363,16.363,41.06,41.06,0,0,0,13.579,2.6c5.968.271,7.872.339,23.064.339s17.1-.063,23.064-.339a41.035,41.035,0,0,0,13.579-2.6A28.6,28.6,0,0,0,544.8,532.106a40.911,40.911,0,0,0,2.6-13.579c.271-5.969.334-7.872.334-23.064s-.063-17.1-.334-23.064a41.015,41.015,0,0,0-2.6-13.579,28.611,28.611,0,0,0-16.358-16.363,40.972,40.972,0,0,0-13.579-2.6c-5.966-.273-7.872-.339-23.062-.339s-17.1.063-23.069.339" transform="translate(-101.588 -78)"/><path class="d" d="M0,338.039s119.272,36.75,153.072,79,133.3,10.03,184,32,103-6,164,38c37.333,26.928,237.9,54.426,415.763,45.576,112.369-5.591,186.129-46.231,230.063-45.576,113.23,1.69,145.9,15.3,250.677,32.2S1490.6,420.8,1620.6,432.5s164.2-87.28,299.4-80.521V555.04L0,554.783Z" transform="translate(0 -23)"/><g transform="translate(96.229 18.211)"><g transform="translate(338.666 387.425)"><path class="e" d="M390.978,445.993,352.5,425.434l15.029-32.461,42.278,22.588Z" transform="translate(-352.498 -372.832)"/><path class="f" d="M403.895,424.164l-46.5-24.842,3.118-10.716,50.091,26.763Z" transform="translate(-344.247 -380.185)"/><g transform="translate(25.98)"><path class="g" d="M391.151,389.62c-6.629-4.882-23.036,12.311-23.036,12.311,1.814,2.579,15.615,7.236,21.1,7.982S397.777,394.505,391.151,389.62Zm-20.3,12.837s16.208-11.157,17.249-8.081S392.353,411.258,370.855,402.457Z" transform="translate(-352.183 -379.946)"/><path class="g" d="M362.757,396.587c3.06,3.454,12.692,10.867,15.319,10.929,0,0,4.318-19.356-2.144-21.688S359.7,393.13,362.757,396.587Zm11.288-6.441c2.619-.7,2.394,15.714,2.394,15.714C360.365,395.028,371.428,390.849,374.045,390.146Z" transform="translate(-362.179 -385.468)"/></g><g transform="translate(0 20.14)"><g class="h"><g transform="translate(-16.987 -5.491)"><rect class="f" width="5.531" height="63.806" transform="matrix(1, 0.006, -0.006, 1, 20.674, 0.114)"/><rect class="f" width="5.531" height="63.806" transform="translate(30.592 0.17) rotate(0.323)"/><rect class="f" width="5.531" height="63.806" transform="translate(0.359 0) rotate(0.323)"/><rect class="f" width="5.531" height="63.806" transform="translate(10.276 0.056) rotate(0.323)"/><g transform="translate(40.15 0.226)"><rect class="f" width="5.531" height="63.806" transform="translate(20.675 0.114) rotate(0.323)"/><rect class="f" width="5.531" height="63.806" transform="translate(30.592 0.17) rotate(0.323)"/><rect class="f" width="5.531" height="63.806" transform="translate(0.359 0) rotate(0.323)"/><rect class="f" width="5.531" height="63.806" transform="translate(10.276 0.056) rotate(0.323)"/></g></g></g></g><rect class="i" width="5.531" height="46.804" transform="matrix(0.882, 0.471, -0.471, 0.882, 39.409, 20.592)"/></g><g transform="translate(306.771 386.93)"><path class="e" d="M354.541,441.588l41.535-16.251-11.36-34.761-45.635,17.855Z" transform="translate(-330.195 -367.372)"/><path class="f" d="M341.753,416.978l50.188-19.636-1.878-11.254-54.068,21.155Z" transform="translate(-335.393 -374.93)"/><path class="j" d="M340.4,405.586c5.652-.1,20.223-3.17,22.373-5.569,0,0-14.592-19.428-21.906-15.266S334.752,405.682,340.4,405.586Zm2.987-15.642c1.428-3,16.541,10.277,16.541,10.277C337.049,406.571,341.961,392.942,343.391,389.944Z" transform="translate(-335.771 -378.166)"/><path class="j" d="M350.807,382.088c-6.839,1.589-4.783,21.761-4.783,21.761,2.679.252,13.347-6.117,16.868-9.257S357.649,380.5,350.807,382.088Zm-2.92,20.274s1.745-16.694,4.318-15.666S365.507,393.3,347.887,402.361Z" transform="translate(-318.992 -381.93)"/><g transform="translate(8.887 23.204)"><g class="k"><g transform="translate(-5.987 -10.457)"><g transform="translate(40.789 4.593)"><rect class="f" width="5.654" height="65.23" transform="translate(15.692 66.587) rotate(-173.574)"/><rect class="f" width="5.654" height="65.23" transform="translate(5.619 65.453) rotate(-173.577)"/><g transform="translate(20.639 2.324)"><rect class="f" width="5.654" height="65.23" transform="translate(15.692 66.587) rotate(-173.574)"/><rect class="f" width="5.654" height="65.23" transform="matrix(-0.994, -0.112, 0.112, -0.994, 5.619, 65.453)"/></g></g><rect class="f" width="5.654" height="65.23" transform="translate(15.694 66.587) rotate(-173.577)"/><rect class="f" width="5.654" height="65.23" transform="matrix(-0.994, -0.112, 0.112, -0.994, 5.619, 65.453)"/><g transform="translate(20.638 2.324)"><rect class="f" width="5.654" height="65.23" transform="matrix(-0.994, -0.112, 0.112, -0.994, 15.695, 66.587)"/><rect class="f" width="5.654" height="65.23" transform="translate(5.619 65.453) rotate(-173.574)"/></g></g></g></g><rect class="l" width="5.654" height="47.848" transform="translate(47.15 65.294) rotate(158.632)"/></g></g><g transform="translate(-135.114 212.893)"><path class="c" d="M-10238.2-5487.1v-20.831c-14.762,4.519-23.4.473-19.912.064,2-.236,8.434-5.082,13.773-9.354-9.875,1.611-15.1-1.092-12.367-1.416,1.975-.232,8.576-5.274,13.709-9.415-8.572,1.445-13.125-.9-10.771-1.18,1.641-.192,7-4.253,11.324-7.726-6.109.831-9.27-.848-7.516-1.051,2.25-.266,13.494-9.886,13.494-9.886s11.246,9.62,13.5,9.886c1.73.2-1.459,1.84-7.48,1.08,4.318,3.467,9.652,7.5,11.287,7.7,2.324.273-2.27,2.566-10.705,1.232,5.125,4.13,11.68,9.131,13.648,9.362,2.7.32-2.57,2.959-12.291,1.476,5.322,4.258,11.705,9.06,13.7,9.295,3.461.405-5.348,4.394-19.928.036v20.73Z" transform="translate(10492 5689.034)"/></g><g transform="translate(1468.886 206.893)"><path class="c" d="M252.9,150.671c9.791,3.307,15.853.617,13.605.352s-13.5-9.882-13.5-9.882-11.246,9.619-13.5,9.882S243.113,153.978,252.9,150.671Z" transform="translate(2.519)"/><path class="c" d="M254.049,157.564c12.555,4.242,20.329.791,17.444.452s-17.3-12.67-17.3-12.67-14.419,12.331-17.3,12.67S241.494,161.806,254.049,157.564Z" transform="translate(1.342 1.788)"/><path class="c" d="M254.934,165.562c14.687,4.962,23.783.926,20.409.529S255.1,151.267,255.1,151.267s-16.87,14.428-20.244,14.824S240.249,170.524,254.934,165.562Z" transform="translate(0.434 4.308)"/><path class="c" d="M255.359,173.386c15.706,5.307,25.433.991,21.824.567S255.535,158.1,255.535,158.1s-18.043,15.43-21.65,15.855S239.652,178.693,255.359,173.386Z" transform="translate(0 7.214)"/><rect class="c" width="3.456" height="10.717" transform="translate(253.796 177.219)"/></g><path class="c" d="M-20688.09-11052.34v-63.25c-44.824,13.721-71.051,1.434-60.461.2,6.07-.715,25.613-15.43,41.824-28.4-29.988,4.895-45.84-3.314-37.551-4.3,5.992-.709,26.035-16.018,41.625-28.586-26.031,4.385-39.855-2.746-32.707-3.584,4.984-.584,21.254-12.914,34.383-23.457-18.547,2.523-28.141-2.574-22.82-3.191,6.832-.809,40.973-30.014,40.973-30.014s34.145,29.205,40.984,30.014c5.246.609-4.434,5.586-22.723,3.281,13.121,10.523,29.316,22.787,34.277,23.367,7.055.83-6.895,7.793-32.508,3.742,15.57,12.541,35.465,27.723,41.445,28.428,8.191.971-7.8,8.982-37.324,4.479,16.168,12.93,35.543,27.508,41.594,28.223,10.508,1.232-16.234,13.34-60.508.111v62.943Z" transform="translate(22292.887 11509.164)"/><path class="c" d="M0,364.9s121.7,34.45,155.5,76.7,131.3-14.17,182,7.8,122.719,1.69,176.8,33.8,266.057,32.515,379.287,34.2c63.409.946,158.054-37.73,268.78-44.834,87.264-5.6,193.73,18.794,239.833,26.229,104.78,16.9,88.4-78,218.4-66.3s164.2-57.46,299.4-50.7V530.589L0,529.783Z" transform="translate(0 1)"/><path class="m" d="M1346.168,548.046s18.164-34.946,55.441-39.68,30.76-11.838,53.837-18.348,48.521,3.55,88.165,8.875,17.761,23.673,68.648,17.165,149.376-9.994,195.376-7.692,183.707,55.012,183.707,55.012Z" transform="translate(-1035 -28)"/><g transform="translate(-39.115 339.025)"><g transform="translate(281.047 33.529)"><g transform="translate(16.959)"><path class="n" d="M357.5,53.235l-1.112.451a16.149,16.149,0,0,1-2.46-3.408c-.012-.034-.021-.067-.03-.1v0c-.006-.031-.013-.063-.02-.095a7.565,7.565,0,0,1,0,1.39c-.027.4-.076.889-.16,1.484a14.6,14.6,0,0,0-4.829-2.262,29.634,29.634,0,0,0-3.146-.778,51.456,51.456,0,0,0-14.637-.421s.82-4.236,3.5-4.4a1.8,1.8,0,0,1,1.558-2.385s-.82-2.675,2.627-3.985c3.227-1.227,3.3-5.752,8.925-5.141q.577.062,1.236.2c6.868,1.444,6.969,10.764,6.847,14.176A7.438,7.438,0,0,0,357.5,53.235Z" transform="translate(-331.102 -33.529)"/><path class="o" d="M353.875,50.08a7.565,7.565,0,0,1,0,1.39c-.027.4-.076.889-.16,1.484,0,0-.069-.059-.214-.163l-.034-.024-.064-.044c-.024-.018-.051-.035-.078-.054h0l-.113-.074c-.024-.016-.048-.032-.074-.047-.061-.039-.127-.08-.2-.123l-.078-.046c-.276-.164-.623-.353-1.045-.556l-.1-.046-.044-.021-.159-.074c-.347-.159-.738-.325-1.175-.491l-.109-.042q-.278-.1-.583-.209l-.147-.05c-.2-.066-.4-.133-.615-.2a29.634,29.634,0,0,0-3.146-.778,51.456,51.456,0,0,0-14.637-.421s.82-4.236,3.5-4.4a1.8,1.8,0,0,1,1.558-2.385s-.82-2.675,2.627-3.985c3.227-1.227,3.3-5.752,8.925-5.141a6.542,6.542,0,0,0-4.842,3.388c-1.458,3.014-2.135,1.783-3.18,3.321s.82,2.337.82,2.337-1.764.493-1.138,1.661,1.138,1.046,1.138,1.046-1.147,1.107,0,2.03c.685.55,5.087.731,8.769,1.7,2.008-.247,3.321-1.021,3.9-3.748.663-3.1-.95-7.449-.993-7.563a13.386,13.386,0,0,1,1.687,4.565A27.211,27.211,0,0,1,353.875,50.08Z" transform="translate(-331.102 -33.529)"/><path class="o" d="M386.278,81.278c.072.042.138.084.2.123Q386.386,81.342,386.278,81.278Z" transform="translate(-364.442 -62.381)"/><path class="o" d="M386.967,81.707l.113.074Z" transform="translate(-364.859 -62.64)"/></g><g transform="translate(8.901 14.33)"><g transform="translate(0 25.334)"><path class="p" d="M347.951,154.144a18.631,18.631,0,1,1-12.62-19.417A18.576,18.576,0,0,1,347.951,154.144Z" transform="translate(-310.742 -133.755)"/><path class="q" d="M341.627,166.466a18.639,18.639,0,1,1-6.3-31.739c-9.593-.218-16.7,5.822-17.228,14.888C317.3,163.514,330.721,171.72,341.627,166.466Z" transform="translate(-310.742 -133.755)"/></g><g transform="translate(5.304)"><path class="p" d="M350.769,84.327A13.341,13.341,0,1,1,338.733,69.8,13.291,13.291,0,0,1,350.769,84.327Z" transform="translate(-324.144 -69.739)"/><path class="q" d="M346.243,93.144A13.341,13.341,0,1,1,338.733,69.8s-9.446,1.97-10.331,11.4C327.446,91.376,338.44,96.9,346.243,93.144Z" transform="translate(-324.144 -69.739)"/></g><g transform="translate(17.366 34.579)"><path class="r" d="M357.314,158.461a1.345,1.345,0,1,1-1.345-1.345A1.345,1.345,0,0,1,357.314,158.461Z" transform="translate(-354.624 -157.116)"/><path class="r" d="M357.314,172.313a1.345,1.345,0,1,1-1.345-1.345A1.345,1.345,0,0,1,357.314,172.313Z" transform="translate(-354.624 -165.486)"/><path class="r" d="M357.314,186.164a1.345,1.345,0,1,1-1.345-1.345A1.345,1.345,0,0,1,357.314,186.164Z" transform="translate(-354.624 -173.856)"/></g><path class="r" d="M369.365,94.234a1.02,1.02,0,1,1-1.02-1.02A1.02,1.02,0,0,1,369.365,94.234Z" transform="translate(-344.933 -83.924)"/><path class="r" d="M344.409,94.234a1.02,1.02,0,1,1-1.02-1.02A1.02,1.02,0,0,1,344.409,94.234Z" transform="translate(-329.853 -83.924)"/><g transform="translate(8.111 12.115)"><path class="s" d="M342.254,102.247a1.35,1.35,0,0,1-1.652.845l-9.365-2.74,9.766.156a1.326,1.326,0,0,1,1.3,1.126,1.237,1.237,0,0,1,.013.131A1.269,1.269,0,0,1,342.254,102.247Z" transform="translate(-331.237 -100.352)"/><path class="t" d="M342.254,102.247a1.35,1.35,0,0,1-1.652.845l-9.365-2.74Z" transform="translate(-331.237 -100.352)"/></g></g><path class="r" d="M288.25,102.872l3.812,1.982,3.454,4.392.214,5.742,3.12,2.594,3.9,5.515a1.247,1.247,0,0,0,.711-1.476l-3.627-4.84-2.8-2.439-.266-5.221-3.215-4.459,1.619-2.967-.459-.367-1.738,2.3-1.513-3.137-.486.348,1.2,3.005-3.644-1.563Z" transform="translate(-288.25 -73.991)"/><path class="r" d="M406.555,97.015l-3.823,1.962-3.393,4.569-.06,6.162-3.1,2.651-3.813,5.757a1.455,1.455,0,0,1-.764-1.618l3.557-5.042,2.778-2.5.127-5.6,3.147-4.651-1.727-3.261.457-.374,1.83,2.547,1.453-3.305.5.4-1.14,3.177,3.664-1.519Z" transform="translate(-350.681 -70.258)"/><path class="p" d="M352.086,75.442a23.17,23.17,0,0,0-10.92-3.494A29.523,29.523,0,0,0,328.3,74.64a9.614,9.614,0,0,1,.294-2.767,11.651,11.651,0,0,1,.862-2.388c13.455-7.426,21.814.969,21.814.969a6.8,6.8,0,0,1,.93,3.528A7.648,7.648,0,0,1,352.086,75.442Z" transform="translate(-312.444 -53.402)"/><path class="q" d="M352.086,79.77a23.17,23.17,0,0,0-10.92-3.494A29.523,29.523,0,0,0,328.3,78.968a9.614,9.614,0,0,1,.294-2.767c1.973-1.23,5.588-2.713,11.462-2.616,6.758.114,10.494,2.079,12.174,3.872C352.238,78.319,352.086,79.77,352.086,79.77Z" transform="translate(-312.444 -57.73)"/><g transform="translate(40.889 17.79)"><circle class="q" cx="2.336" cy="2.336" r="2.336"/><path class="p" d="M397.543,80.568a1.735,1.735,0,1,1-1.735-1.735A1.735,1.735,0,0,1,397.543,80.568Z" transform="translate(-393.082 -78.693)"/></g><g transform="translate(11.083 39.017)"><g transform="translate(5.422 23.52)"><g transform="translate(0 4.816)"><path class="o" d="M330.169,203.733a.159.159,0,0,1,.054.041l1.381,1.639a.152.152,0,0,1-.233.2l-1.381-1.639a.152.152,0,0,1,.179-.237Z" transform="translate(-329.954 -203.72)"/></g><g transform="translate(0.648 4.132)"><path class="o" d="M331.8,202a.151.151,0,0,1,.054.04l1.407,1.615a.152.152,0,1,1-.229.2l-1.407-1.615a.152.152,0,0,1,.175-.24Z" transform="translate(-331.592 -201.991)"/></g><g transform="translate(1.296 3.448)"><path class="o" d="M333.439,200.274a.154.154,0,0,1,.055.039l1.433,1.59a.152.152,0,0,1-.226.2l-1.433-1.59a.152.152,0,0,1,.171-.243Z" transform="translate(-333.229 -200.262)"/></g><g transform="translate(1.944 2.764)"><path class="o" d="M335.074,198.544a.15.15,0,0,1,.056.038l1.458,1.566a.152.152,0,1,1-.222.207l-1.458-1.566a.152.152,0,0,1,.167-.245Z" transform="translate(-334.866 -198.533)"/></g><g transform="translate(2.592 2.08)"><path class="o" d="M336.709,196.814a.148.148,0,0,1,.056.037l1.484,1.542a.152.152,0,0,1-.219.211l-1.484-1.542a.152.152,0,0,1,.163-.248Z" transform="translate(-336.503 -196.805)"/></g><g transform="translate(3.239 1.395)"><path class="o" d="M338.343,195.084a.149.149,0,0,1,.057.036l1.51,1.517a.152.152,0,0,1-.216.214l-1.51-1.518a.152.152,0,0,1,.159-.251Z" transform="translate(-338.14 -195.075)"/></g><g transform="translate(3.993 0.613)"><path class="o" d="M340.246,193.107a.148.148,0,0,1,.057.035l1.536,1.493a.152.152,0,1,1-.212.218l-1.536-1.493a.152.152,0,0,1,.155-.253Z" transform="translate(-340.045 -193.099)"/></g><g transform="translate(4.702)"><path class="o" d="M343.492,192.827a.151.151,0,0,0-.04-.193l-1.372-1.053a.149.149,0,0,0-.061-.028.152.152,0,0,0-.159.066.16.16,0,0,0,.044.21l1.363,1.046a.151.151,0,0,0,.224-.046Z" transform="translate(-341.837 -191.55)"/></g></g><path class="n" d="M326.644,155.665l-2.54,2.595-2.423,2.475a22.935,22.935,0,0,1-4.863-8.156c-2.142-6.275,2.3-11.413,5.481-14.123a10.26,10.26,0,0,0,3.5-6.337l2.4.345s1.3,3.066-3.093,7.932-3.345,8.627-2.384,11.017S326.644,155.665,326.644,155.665Z" transform="translate(-316.255 -132.118)"/><path class="o" d="M331.884,155.665l-2.54,2.595a4.059,4.059,0,0,0-1.785-4.057c-2.4-1.845-3.289-6.55-2.121-10.209a10.993,10.993,0,0,1,3.328-4.7,1.017,1.017,0,0,0-.3-1.71l-.014-.006a10.206,10.206,0,0,0,2.589-5.459l2.4.345s1.3,3.066-3.093,7.932-3.345,8.627-2.384,11.017S331.884,155.665,331.884,155.665Z" transform="translate(-321.495 -132.118)"/></g><g transform="translate(16.91 37.088)"><path class="n" d="M352.705,132.112a4.616,4.616,0,0,1-.267,1.17s-1.295,1.649-9.114,2.1-12.242-2.3-12.242-2.3a8.294,8.294,0,0,1,1.085-5.838,38.221,38.221,0,0,0,5.967,1.327c8.3,1.138,12.931-1.327,12.931-1.327C352.085,127.614,352.917,130.078,352.705,132.112Z" transform="translate(-330.98 -127.246)"/><path class="o" d="M352.705,132.112a4.616,4.616,0,0,1-.267,1.17s-1.295,1.649-9.114,2.1-12.242-2.3-12.242-2.3a8.294,8.294,0,0,1,1.085-5.838,38.221,38.221,0,0,0,5.967,1.327s-1.968,4.02,4.429,5.312A14.216,14.216,0,0,0,352.705,132.112Z" transform="translate(-330.98 -127.246)"/></g></g></g></g></svg>
