<svg xmlns="http://www.w3.org/2000/svg" xmlns:xlink="http://www.w3.org/1999/xlink" width="375" height="622.858" viewBox="0 0 375 622.858"><defs><style>.a{fill:url(#a);}.b{fill:url(#b);}.c,.l,.m,.u{fill:none;}.d{clip-path:url(#c);}.e{clip-path:url(#d);}.f{fill:#ffd599;}.g,.h,.t{fill:#f75b73;}.h{stroke:rgba(0,0,0,0);}.i,.v{fill:#a354d2;}.j{fill:#6e233a;}.k{fill:#fc97a7;}.l,.m,.v{stroke:#fff;}.l,.m,.u,.v{stroke-miterlimit:10;}.m,.v{stroke-width:0.75px;}.n{clip-path:url(#f);}.o{fill:#fff;}.p,.r{fill:#7d26b0;}.p{opacity:0.5;}.p,.t{mix-blend-mode:multiply;}.p,.q,.t{isolation:isolate;}.q{fill:#42d498;opacity:0.6;mix-blend-mode:screen;}.s{fill:#cb93ec;}.t{opacity:0.2;}.u{stroke:#707070;stroke-width:0.651px;}</style><linearGradient id="a" x1="0.566" y1="0.843" x2="0.559" y2="0.048" gradientUnits="objectBoundingBox"><stop offset="0" stop-color="#fe647c"/><stop offset="1" stop-color="#ffe6ea"/></linearGradient><linearGradient id="b" x1="0.514" y1="0" x2="0.517" y2="1" xlink:href="#a"/><clipPath id="c"><path class="a" d="M0,0H375V622.858H0Z" transform="translate(0 26.858)"/></clipPath><clipPath id="d"><path class="b" d="M0,0H379.33V627.082s-75.172-36.476-190.855-36.476S0,626.974,0,626.974Z" transform="translate(0)"/></clipPath><clipPath id="f"><path class="c" d="M.006,30.76C-.261,43.711,7.856,50.921,18.047,51.131s18.6-6.659,18.865-19.61S29.293.212,19.1,0,.273,17.809.006,30.76Z"/></clipPath></defs><g class="d" transform="translate(0 -26.858)"><g class="e" transform="translate(-4.33 -15.508)"><path class="a" d="M0,0H375V580.689H0Z" transform="translate(4.33)"/><path class="f" d="M-1229.733,242.945a20.357,20.357,0,0,1-4.27,5.91,18.936,18.936,0,0,1-5.207,3,14.289,14.289,0,0,1-1.514,1.531c3.171,7.818,2.545,9.362,2.371,9.6l-.521-.373a.074.074,0,0,0-.01.013c.065-.171.575-1.969-3.1-10.6a16.706,16.706,0,0,0-2.164-.976,19.223,19.223,0,0,1-6.378-.127,20.344,20.344,0,0,1-6.562-3.178,9.606,9.606,0,0,1,6.565-1.4c3.078.487,5.581,3.29,6.39,4.3.634.246,1.366.546,1.9.813a53,53,0,0,1-2.385-6.758,4.445,4.445,0,0,1-3.089-1.879,18.072,18.072,0,0,1-5.134-3.148,19.119,19.119,0,0,1-3.811-5.7,9.031,9.031,0,0,1,5.989,1.993c2.218,1.822,2.932,5.18,3.128,6.447a4.081,4.081,0,0,0,2.806,1.884,51.008,51.008,0,0,1-1.478-7.73c-.729-1.439-1.932-4.358-1.318-7.021a9.605,9.605,0,0,1,3.753-5.564,20.331,20.331,0,0,1,.489,7.274,19.126,19.126,0,0,1-2.214,5.867,51.023,51.023,0,0,0,1.757,8.311,18.784,18.784,0,0,0,.86-1.746c-.128-.843-.544-4.388,1.094-6.761a8.3,8.3,0,0,1,4.787-3.273,17.581,17.581,0,0,1-1.925,6,16.327,16.327,0,0,1-3.454,3.85,18.124,18.124,0,0,1-1.214,2.421,51.82,51.82,0,0,0,1.955,5.3q.406.943.754,1.789a12.287,12.287,0,0,0,1.056-1.052h0c.122-.785.9-5.043,3.646-7.135A9.6,9.6,0,0,1-1229.733,242.945Z" transform="translate(1163.917 -55.787)"/><path class="g" d="M378.147,68.167a68.164,68.164,0,0,1-111.763,52.4A51.3,51.3,0,0,1,184.214,116a68.224,68.224,0,0,1-84.053,23.243,51.294,51.294,0,0,1-81.5-41.457c0-.561.012-1.122.029-1.677a25.988,25.988,0,1,1,26-42.973A51.006,51.006,0,0,1,67.28,46.56,68.177,68.177,0,0,1,178.551,31.126a34.083,34.083,0,0,1,46.6,2.168A25.995,25.995,0,0,1,266.4,15.755,68.166,68.166,0,0,1,378.147,68.167Z" transform="translate(91.843 246.973) rotate(-8)"/><path class="f" d="M24.947,18.285a18.566,18.566,0,0,0-3.895-5.39,17.269,17.269,0,0,0-4.749-2.74,13.027,13.027,0,0,0-1.38-1.4C17.815,1.628,17.244.22,17.086,0l-.475.34A.067.067,0,0,1,16.6.328c.06.156.524,1.8-2.827,9.672a15.229,15.229,0,0,1-1.974.89,17.531,17.531,0,0,0-5.816.116A18.554,18.554,0,0,0,0,13.9a8.761,8.761,0,0,0,5.987,1.273c2.807-.444,5.09-3,5.828-3.918.578-.225,1.246-.5,1.737-.742a48.331,48.331,0,0,0-2.175,6.164A4.054,4.054,0,0,0,8.56,18.394a16.484,16.484,0,0,0-4.682,2.871A17.438,17.438,0,0,0,.4,26.463a8.237,8.237,0,0,0,5.462-1.817c2.023-1.661,2.674-4.724,2.853-5.88a3.722,3.722,0,0,1,2.559-1.718A46.515,46.515,0,0,0,9.929,24.1c-.665,1.313-1.762,3.975-1.2,6.4a8.76,8.76,0,0,0,3.423,5.075,18.541,18.541,0,0,0,.446-6.634,17.443,17.443,0,0,0-2.019-5.35,46.528,46.528,0,0,1,1.6-7.58,17.181,17.181,0,0,1,.784,1.592c-.117.769-.5,4,1,6.166a7.573,7.573,0,0,0,4.366,2.985,16.035,16.035,0,0,0-1.756-5.471,14.892,14.892,0,0,0-3.15-3.511,16.524,16.524,0,0,0-1.107-2.208A47.249,47.249,0,0,1,14.1,10.731q.37-.86.688-1.631a11.2,11.2,0,0,1,.963.959h0c.111.716.82,4.6,3.325,6.507A8.759,8.759,0,0,0,24.947,18.285Z" transform="translate(715.059 186.071) rotate(155)"/><path class="h" d="M0,72.82A72.817,72.817,0,0,0,119.391,128.8a54.8,54.8,0,0,0,87.779-4.877,72.88,72.88,0,0,0,89.789,24.83,54.8,54.8,0,0,0,87.057-44.286c0-.6-.013-1.2-.031-1.791a27.762,27.762,0,1,0-27.774-45.906,54.488,54.488,0,0,0-24.126-7.028A72.83,72.83,0,0,0,213.219,33.25a36.409,36.409,0,0,0-49.78,2.316,27.769,27.769,0,0,0-44.06-18.736A72.819,72.819,0,0,0,0,72.82Z" transform="matrix(0.94, 0.342, -0.342, 0.94, -88.972, 426.18)"/><path class="h" d="M0,72.82A72.817,72.817,0,0,0,119.391,128.8a54.8,54.8,0,0,0,87.779-4.877,72.88,72.88,0,0,0,89.789,24.83,54.8,54.8,0,0,0,87.057-44.286c0-.6-.013-1.2-.031-1.791a27.762,27.762,0,1,0-27.774-45.906,54.488,54.488,0,0,0-24.126-7.028A72.83,72.83,0,0,0,213.219,33.25a36.409,36.409,0,0,0-49.78,2.316,27.769,27.769,0,0,0-44.06-18.736A72.819,72.819,0,0,0,0,72.82Z" transform="matrix(0.94, 0.342, -0.342, 0.94, -88.972, 469.773)"/><path class="h" d="M0,72.82A72.817,72.817,0,0,0,119.391,128.8a54.8,54.8,0,0,0,87.779-4.877,72.88,72.88,0,0,0,89.789,24.83,54.8,54.8,0,0,0,87.057-44.286c0-.6-.013-1.2-.031-1.791a27.762,27.762,0,1,0-27.774-45.906,54.488,54.488,0,0,0-24.126-7.028A72.83,72.83,0,0,0,213.219,33.25a36.409,36.409,0,0,0-49.78,2.316,27.769,27.769,0,0,0-44.06-18.736A72.819,72.819,0,0,0,0,72.82Z" transform="matrix(0.94, 0.342, -0.342, 0.94, 205.998, 469.773)"/><path class="i" d="M0,47.08A32.1,32.1,0,0,0,53.729,70.793,43.728,43.728,0,0,0,108.623,99a22.54,22.54,0,0,0,33.67-29.569,32.177,32.177,0,0,0,20.771-16.819,16.05,16.05,0,1,0-.558-29.622,32.127,32.127,0,0,0-37.3-15.434,24.155,24.155,0,0,0-39.82,7.256c-.76.173-1.51.37-2.251.587a24.169,24.169,0,0,0-29.708,7.712A32.094,32.094,0,0,0,0,47.08Z" transform="translate(423.501 286.886) rotate(-8)"/><g transform="translate(271.414 297.784) rotate(-6)"><g transform="translate(0 5.836)"><path class="j" d="M24.162,0A79.07,79.07,0,0,0,5.479,22.711,80.306,80.306,0,0,0,0,35.013l.543.189A79.627,79.627,0,0,1,5.982,22.989,78.525,78.525,0,0,1,24.531.44Z"/></g><g transform="translate(0.546 27.498)"><path class="j" d="M1.042.116.479,0A25.285,25.285,0,0,0,.6,10.406l.555-.148A24.679,24.679,0,0,1,1.042.116Z"/></g><g transform="translate(0.245 22.824)"><path class="j" d="M.677,7.391S-1.479.129,1.906,0,.677,7.391.677,7.391Z"/></g><g transform="translate(3.386 27.975)"><path class="j" d="M7.459.394,7.04,0C4.658,2.53.046,4.774,0,4.8l.249.517A29.364,29.364,0,0,0,7.459.394Z"/></g><g transform="translate(8.35 24.814)"><path class="j" d="M0,5.313S3.462-1.719,5.459.4,0,5.313,0,5.313Z"/></g><g transform="translate(6.553 17.58)"><path class="j" d="M2.451.277,1.949,0A19.852,19.852,0,0,0,.008,9.157l.574-.024C.579,9.082.394,4.018,2.451.277Z"/></g><g transform="translate(7.717 13.441)"><path class="j" d="M0,6.774S.156-1.291,3.29.179C5.681,1.3,0,6.774,0,6.774Z" transform="translate(0)"/></g><g transform="translate(11.968 16.725)"><path class="j" d="M6.241,0A40.472,40.472,0,0,1,0,1.962l.131.56A40.233,40.233,0,0,0,6.493.516Z"/></g><g transform="translate(16.156 14.633)"><path class="j" d="M0,3.191s4.664-5.1,5.755-2.4S0,3.191,0,3.191Z"/></g><g transform="translate(16.047 5.129)"><path class="j" d="M3.409.319,2.931,0A19.9,19.9,0,0,0,0,8.619l.572.042A19.693,19.693,0,0,1,3.409.319Z" transform="translate(0)"/></g><g transform="translate(17.629 0.887)"><path class="j" d="M0,7.216S.985-1.141,3.552.132,0,7.216,0,7.216Z"/></g><g transform="translate(22.598)"><path class="j" d="M0,7.561S6.7-2.939,8.809.808,0,7.561,0,7.561Z"/></g></g><g transform="translate(584.052 216.02) rotate(-133)"><g transform="translate(0)"><path class="j" d="M24.162,35.2A79.07,79.07,0,0,1,5.479,12.491,80.306,80.306,0,0,1,0,.189L.543,0A79.627,79.627,0,0,0,5.982,12.213,78.525,78.525,0,0,0,24.531,34.761Z"/></g><g transform="translate(0.546 3.135)"><path class="j" d="M1.042,10.29l-.563.116A25.285,25.285,0,0,1,.6,0l.555.148A24.679,24.679,0,0,0,1.042,10.29Z"/></g><g transform="translate(0.245 10.823)"><path class="j" d="M.677,0S-1.479,7.262,1.906,7.39.677,0,.677,0Z" transform="translate(0 0)"/></g><g transform="translate(3.386 7.749)"><path class="j" d="M7.459,4.92l-.418.394C4.658,2.784.046.539,0,.517L.249,0A29.364,29.364,0,0,1,7.459,4.92Z"/></g><g transform="translate(8.35 10.911)"><path class="j" d="M0,0S3.462,7.033,5.459,4.916,0,0,0,0Z" transform="translate(0 0)"/></g><g transform="translate(6.553 14.301)"><path class="j" d="M2.451,8.88l-.5.277A19.852,19.852,0,0,1,.008,0L.581.024C.579.075.394,5.138,2.451,8.88Z"/></g><g transform="translate(7.717 20.823)"><path class="j" d="M0,0S.156,8.065,3.29,6.6C5.681,5.474,0,0,0,0Z" transform="translate(0)"/></g><g transform="translate(11.968 21.791)"><path class="j" d="M6.241,2.522A40.472,40.472,0,0,0,0,.56L.131,0A40.233,40.233,0,0,1,6.493,2.006Z" transform="translate(0 0)"/></g><g transform="translate(16.156 23.205)"><path class="j" d="M0,.01s4.664,5.1,5.755,2.4S0,.01,0,.01Z" transform="translate(0 0)"/></g><g transform="translate(16.047 27.249)"><path class="j" d="M3.409,8.341l-.478.319A19.9,19.9,0,0,1,0,.042L.572,0A19.693,19.693,0,0,0,3.409,8.341Z" transform="translate(0)"/></g><g transform="translate(17.629 32.935)"><path class="j" d="M0,0S.985,8.357,3.552,7.084,0,0,0,0Z" transform="translate(0 0)"/></g><g transform="translate(22.598 33.478)"><path class="j" d="M0,0S6.7,10.5,8.809,6.753,0,0,0,0Z"/></g></g><path class="g" d="M-1669.579,1325.819a68.166,68.166,0,0,1-68.166,68.166,67.872,67.872,0,0,1-43.6-15.766,51.2,51.2,0,0,1-39.386,18.432,51.242,51.242,0,0,1-42.784-23,68.058,68.058,0,0,1-55.982,29.272,67.915,67.915,0,0,1-28.071-6.029,51.054,51.054,0,0,1-30.2,9.833,51.289,51.289,0,0,1-51.291-51.29c0-.561.012-1.122.029-1.677a26,26,0,0,1-18.7-24.948,25.988,25.988,0,0,1,25.983-25.988,25.893,25.893,0,0,1,18.712,7.963,51.006,51.006,0,0,1,22.585-6.579,68.16,68.16,0,0,1,60.953-37.618,67.981,67.981,0,0,1,50.318,22.184,33.936,33.936,0,0,1,22.144-8.174,33.988,33.988,0,0,1,24.455,10.343A25.991,25.991,0,0,1-1796.8,1268.3a25.911,25.911,0,0,1,15.474,5.1,67.875,67.875,0,0,1,43.585-15.755A68.167,68.167,0,0,1-1669.579,1325.819Z" transform="translate(1862.983 -1013.381)"/><path class="k" d="M486.35,127.493a71.2,71.2,0,0,1-87.435,69.264,96.869,96.869,0,0,1-187.079-21.369A71.22,71.22,0,0,1,132.286,151.5a53.587,53.587,0,0,1-63.1-33.2,35.583,35.583,0,1,1-2.442-28.758A53.558,53.558,0,0,1,144.538,52.31a71.185,71.185,0,0,1,57.543-14.064,49.973,49.973,0,0,1,95.278-6.059q2.477-.23,5.017-.231a53.535,53.535,0,0,1,53.149,47.111q2.519,1.427,4.947,2.995A71.136,71.136,0,0,1,486.35,127.493Z" transform="matrix(0.995, -0.105, 0.105, 0.995, -57.042, 311.975)"/><g transform="translate(349.342 208.772)"><path class="i" d="M-296.8,293.253a11.3,11.3,0,0,1,2.786-3.38,4.454,4.454,0,0,1,4.154-.763c2.142.844,2.816,3.53,2.9,5.831a27,27,0,0,1-4.708,16.11,26.361,26.361,0,0,1,9.092-8.676c1.39-.8,3.045-1.479,4.556-.948a4.178,4.178,0,0,1,2.411,4.341,9.867,9.867,0,0,1-2.171,4.811,33.8,33.8,0,0,1-12.38,10.356,16.653,16.653,0,0,1-6.5,1.894A7.78,7.78,0,0,1-304,319.157c-1.354-2.427-.6-4.134.062-6.593C-302.1,305.742-300.519,299.388-296.8,293.253Z" transform="translate(304.758 -288.873)"/><g transform="translate(3.606 4.387)"><line class="l" x1="10.219" y2="24.58" transform="translate(0)"/><line class="l" x1="17.123" y2="13.227" transform="translate(5.109 12.595)"/><line class="m" y1="4.132" x2="3.961" transform="translate(7.984 1.243)"/><line class="m" y1="6.726" x2="0.763" transform="translate(7.222 0.483)"/><line class="m" y1="4.696" x2="6.004" transform="translate(5.941 5.593)"/><line class="m" y1="9.874" x2="0.343" transform="translate(4.076 4.902)"/><line class="m" y1="5.865" x2="7.047" transform="translate(1.896 14.154)"/><path class="m" d="M-241.737,343.656c.088-.211.351-10.216.351-10.216" transform="translate(242.283 -320.391)"/><line class="m" y1="5.09" x2="2.292" transform="translate(18.629 10.289)"/><line class="m" y1="1.418" x2="5.716" transform="translate(16.793 15.379)"/><line class="m" y1="5.814" x2="2.278" transform="translate(13.671 13.395)"/><line class="m" y1="1.367" x2="7.031" transform="translate(10.852 20.019)"/><line class="m" y1="4.687" x2="1.856" transform="translate(7.603 19.209)"/><line class="m" y1="1.09" x2="6.581" transform="translate(6.192 23.897)"/></g></g><g transform="translate(367.667 586.225) rotate(21)"><path class="i" d="M.006,30.76C-.261,43.711,7.856,50.921,18.047,51.131s18.6-6.659,18.865-19.61S29.293.212,19.1,0,.273,17.809.006,30.76Z"/><g transform="translate(0 0)"><g class="n"><g transform="translate(-3.103 -8.48)"><g transform="translate(1.865)"><path class="o" d="M39.944,24.171l.519-.425a61.029,61.029,0,0,0-7.472-8.107,20.4,20.4,0,0,0-9.866-4.922,30.605,30.605,0,0,0-4.775-.269,35.214,35.214,0,0,1-4.063-.173A17.394,17.394,0,0,1,.617,0L0,.264A18.077,18.077,0,0,0,14.206,10.941a35.292,35.292,0,0,0,4.141.179,30.172,30.172,0,0,1,4.671.26,19.732,19.732,0,0,1,9.538,4.771A60.483,60.483,0,0,1,39.944,24.171Z"/></g><g transform="translate(0.785 7.132)"><path class="f" d="M40.089,25.2l2.079-1.7a61.725,61.725,0,0,0-7.6-8.238A21.386,21.386,0,0,0,24.21,10.12a31.156,31.156,0,0,0-4.931-.282,33.476,33.476,0,0,1-3.945-.167A16.369,16.369,0,0,1,2.467,0L0,1.053A19.1,19.1,0,0,0,15.01,12.334a36.448,36.448,0,0,0,4.259.186,29.034,29.034,0,0,1,4.512.248,18.755,18.755,0,0,1,9.048,4.543A59.636,59.636,0,0,1,40.089,25.2Z"/></g><g transform="translate(1.473 19.023)"><path class="o" d="M39.943,24.171l.52-.425A61.033,61.033,0,0,0,32.99,15.64a20.393,20.393,0,0,0-9.866-4.922,30.6,30.6,0,0,0-4.775-.269,35.2,35.2,0,0,1-4.062-.173A17.4,17.4,0,0,1,.616,0L0,.264A18.076,18.076,0,0,0,14.206,10.941a35.453,35.453,0,0,0,4.141.179,30.168,30.168,0,0,1,4.67.26,19.728,19.728,0,0,1,9.538,4.771A60.435,60.435,0,0,1,39.943,24.171Z"/></g><g transform="translate(0.392 26.155)"><path class="f" d="M40.089,25.2l2.08-1.7a61.761,61.761,0,0,0-7.6-8.238A21.381,21.381,0,0,0,24.211,10.12a31.166,31.166,0,0,0-4.932-.282,33.469,33.469,0,0,1-3.944-.167A16.368,16.368,0,0,1,2.468,0L0,1.053A19.1,19.1,0,0,0,15.01,12.334a36.283,36.283,0,0,0,4.259.186,28.858,28.858,0,0,1,4.513.248,18.756,18.756,0,0,1,9.047,4.543A59.666,59.666,0,0,1,40.089,25.2Z"/></g><g transform="translate(1.081 38.047)"><path class="o" d="M39.943,24.171l.519-.425A61.03,61.03,0,0,0,32.99,15.64a20.4,20.4,0,0,0-9.866-4.922,30.656,30.656,0,0,0-4.773-.269,35.075,35.075,0,0,1-4.065-.174A17.394,17.394,0,0,1,.616,0L0,.264A18.075,18.075,0,0,0,14.206,10.941a35.284,35.284,0,0,0,4.142.179,30.228,30.228,0,0,1,4.669.26,19.731,19.731,0,0,1,9.538,4.771A60.483,60.483,0,0,1,39.943,24.171Z"/></g><g transform="translate(0 45.179)"><path class="f" d="M40.089,25.2l2.08-1.7a61.762,61.762,0,0,0-7.6-8.238A21.38,21.38,0,0,0,24.21,10.119a31.154,31.154,0,0,0-4.931-.282,33.642,33.642,0,0,1-3.945-.166A16.371,16.371,0,0,1,2.467,0L0,1.053A19.1,19.1,0,0,0,15.01,12.334a36.447,36.447,0,0,0,4.259.186,28.943,28.943,0,0,1,4.512.248,18.755,18.755,0,0,1,9.048,4.544A59.666,59.666,0,0,1,40.089,25.2Z"/></g></g></g></g><path class="p" d="M18.01,31.412C8.346,31.212.553,24.715,0,13a32.555,32.555,0,0,0,21.072-1.3A32.507,32.507,0,0,0,35.263,0a42.186,42.186,0,0,1,1.612,11.8C36.608,24.753,28.2,31.622,18.01,31.412Z" transform="translate(0.037 19.72)"/><path class="q" d="M2,4.808c-2.284,3.621-2.666,7.483-.855,8.625s5.132-.866,7.416-4.488S11.225,1.463,9.414.32,4.282,1.187,2,4.808Z" transform="translate(6.676 3.12)"/></g><path class="g" d="M446.5,135.085a77.526,77.526,0,0,1-95.2,75.417,105.481,105.481,0,0,1-163.9,46.877,54.4,54.4,0,0,1-84.3-68.354,77.632,77.632,0,0,1-50.123-40.6,38.729,38.729,0,1,1,1.356-71.485,76.851,76.851,0,0,1,5.683-8.914,58.286,58.286,0,1,1,115.75-10.141A77.476,77.476,0,0,1,194.587,85.93,105.068,105.068,0,0,1,227.919,71.6a58.28,58.28,0,0,1,89.633,5.623A77.453,77.453,0,0,1,446.5,135.085Z" transform="translate(122.479 490.981) rotate(-162)"/><g transform="translate(-41.64 231.426) rotate(-159)"><g transform="translate(0 0)"><path class="j" d="M16.218,23.628A53.073,53.073,0,0,1,3.677,8.384,53.9,53.9,0,0,1,0,.127L.364,0A53.446,53.446,0,0,0,4.015,8.2a52.707,52.707,0,0,0,12.45,15.134Z"/></g><g transform="translate(0.366 2.104)"><path class="j" d="M.7,6.907l-.378.078A16.971,16.971,0,0,1,.406,0L.778.1A16.565,16.565,0,0,0,.7,6.907Z"/></g><g transform="translate(0.164 7.264)"><path class="j" d="M.454,0s-1.447,4.874.825,4.96S.454,0,.454,0Z" transform="translate(0 0)"/></g><g transform="translate(2.272 5.201)"><path class="j" d="M5.006,3.3l-.281.264A19.7,19.7,0,0,0,0,.347L.167,0A19.71,19.71,0,0,1,5.006,3.3Z"/></g><g transform="translate(5.605 7.323)"><path class="j" d="M0,0S2.324,4.72,3.664,3.3,0,0,0,0Z"/></g><g transform="translate(4.398 9.599)"><path class="j" d="M1.645,5.96l-.337.186A13.325,13.325,0,0,1,.005,0L.39.016A13.185,13.185,0,0,0,1.645,5.96Z"/></g><g transform="translate(5.18 13.976)"><path class="j" d="M0,0S.1,5.414,2.208,4.427C3.813,3.674,0,0,0,0Z"/></g><g transform="translate(8.033 14.626)"><path class="j" d="M4.189,1.693A27.165,27.165,0,0,0,0,.376L.088,0A27,27,0,0,1,4.358,1.346Z"/></g><g transform="translate(10.844 15.575)"><path class="j" d="M0,.006S3.131,3.431,3.863,1.619,0,.006,0,.006Z"/></g><g transform="translate(10.771 18.29)"><path class="j" d="M2.288,5.6l-.321.214A13.356,13.356,0,0,1,0,.028L.384,0A13.218,13.218,0,0,0,2.288,5.6Z"/></g><g transform="translate(11.833 22.106)"><path class="j" d="M0,0S.661,5.609,2.384,4.755,0,0,0,0Z" transform="translate(0 0)"/></g><g transform="translate(15.168 22.471)"><path class="j" d="M0,0S4.495,7.047,5.913,4.532,0,0,0,0Z"/></g></g><g transform="translate(19.41 221.825) rotate(13)"><path class="r" d="M19.765,16.049c0,6.1-4.425,10.356-9.882,10.356S0,22.147,0,16.049,4.424,0,9.882,0,19.765,9.952,19.765,16.049Z" transform="translate(0 0)"/><g transform="translate(0.153 0)"><path class="s" d="M.895.024A1.715,1.715,0,0,0,0,.326c.018.024.107,0,.364-.1A2.468,2.468,0,0,1,1.282,0,3.321,3.321,0,0,0,.895.024" transform="translate(8.481 0)"/><path class="s" d="M.921,1.024C.383,1.507-.046,2.03,0,2.141c.064.02.22-.079.465-.293S2.414.043,2.439.014l0-.014a2.128,2.128,0,0,0-.462.233,7.2,7.2,0,0,0-1.052.79" transform="translate(4.955 0.685)"/><path class="s" d="M.086.547c-.239.5.053.885.439.774C1.171,1.134.98.158.713.011.671-.012.614-.006.463.1A1.222,1.222,0,0,0,.086.547" transform="translate(9.005 0.083)"/><path class="s" d="M.215,1.471C-.27,2.517.129,3.1.785,2.823,1.939,2.339,2.346.258,1.8.022c-.256-.11-.633.217-.775.34A3.681,3.681,0,0,0,.215,1.471" transform="translate(5.797 2.029)"/><path class="s" d="M.254,1.982C-.166,3.116-.053,3.866.5,3.655,1.574,3.25,2.418.4,1.823.033c-.262-.16-.641.308-.784.484A5.823,5.823,0,0,0,.254,1.982" transform="translate(2.052 5.847)"/><path class="s" d="M0,3.606a.247.247,0,0,0,.007.11h.03A8.862,8.862,0,0,0,.814,0H.787A.41.41,0,0,0,.733.118,22.272,22.272,0,0,0,0,3.606" transform="translate(0 10.588)"/><path class="s" d="M.32,1.18C.888,2.288,1.729,2.655,1.894,2.24,2.188,1.5.446-.208.061.021-.014.066,0,.185.006.281a3.173,3.173,0,0,0,.313.9" transform="translate(11.508 1.03)"/><path class="s" d="M.008,1.839c.125,1.52,1.658,2.115,2.334,1.226.837-1.1-.278-3.2-1.317-3.058A1.069,1.069,0,0,0,.35.472,2.168,2.168,0,0,0,.008,1.839" transform="translate(9.85 4.269)"/><path class="s" d="M0,2.091a1.474,1.474,0,0,0,2.5,1.292C3.748,2.31,3.127.165,1.859.009A1.5,1.5,0,0,0,.624.556,2.6,2.6,0,0,0,0,2.091" transform="translate(5.755 8.772)"/><path class="s" d="M0,1.952C.038,3.229,1.072,4.164,1.953,3.309,3.16,2.137,2.529,0,1.322,0A1.179,1.179,0,0,0,.413.53,2.368,2.368,0,0,0,0,1.952" transform="translate(1.959 13.587)"/><path class="s" d="M.332,1.973C.786,3.08,1.5,3.763,1.672,3.255,1.988,2.325.73-.351.16.038.016.137.006.4,0,.551A3.957,3.957,0,0,0,.332,1.973" transform="translate(0.505 18.276)"/><path class="s" d="M.171,2.027c.447,1.423,1.487,2.111,1.854,1.5C2.559,2.648,1.255-.182.4.009.154.065.074.381.036.532a3.238,3.238,0,0,0,.135,1.5" transform="translate(15.142 6.602)"/><path class="s" d="M.018,2.054A1.621,1.621,0,0,0,2.8,3.155C3.678,2.022,2.655-.155,1.318.009A1.423,1.423,0,0,0,.411.556a2.052,2.052,0,0,0-.392,1.5" transform="translate(12.328 11.393)"/><path class="s" d="M.016,2.132a1.816,1.816,0,0,0,3.2,1A1.9,1.9,0,0,0,1.627.009,1.838,1.838,0,0,0,.5.553,2.051,2.051,0,0,0,.016,2.132" transform="translate(7.752 16.003)"/><path class="s" d="M.2,1.7c.6,1.155,2.057,1.691,2.435.624.44-1.241-1.126-2.8-2.2-2.188A.826.826,0,0,0,.1.49,1.325,1.325,0,0,0,.2,1.7" transform="translate(4.66 20.698)"/><path class="s" d="M.487,1.822c.221.868.3,1.171.345,1.432Q.737,2.726.613,2.186C.449,1.477.248.758.013.041L0,0C.033.1.04.127.087.289c.1.347.156.576.4,1.533" transform="translate(18.528 9.853)"/><path class="s" d="M0,1.975c.034,1.144.451,2.1.89,1.582C1.54,2.793,1.4,0,.707,0,.456,0,.29.361.219.515A3.65,3.65,0,0,0,0,1.975" transform="translate(18.151 14.355)"/><path class="s" d="M.035,1.886C-.155,2.937.438,3.67,1.4,3.027,2.641,2.2,2.957.168,1.87.009A1.5,1.5,0,0,0,.728.526a2.741,2.741,0,0,0-.693,1.36" transform="translate(14.398 19.069)"/><path class="s" d="M0,1.3c-.017.909.947,1.21,1.87.285C2.594.859,2.378,0,1.472,0a1.621,1.621,0,0,0-1,.375A1.3,1.3,0,0,0,0,1.3" transform="translate(10.329 23.085)"/><path class="s" d="M.337.564a1.687,1.687,0,0,0,.682.191C1.031.7,1.057.651,1.064.6A.371.371,0,0,0,1.055.45.533.533,0,0,0,.866.184.8.8,0,0,0,.1.048.175.175,0,0,0,0,.184C0,.236.008.391.337.564" transform="translate(8.672 25.638)"/><path class="s" d="M.807,1.583C.094,2.5,0,2.625,0,2.686c.026,0,.076,0,.381-.284q.151-.141.3-.29A9.7,9.7,0,0,0,1.665.927q.188-.265.359-.545C2.207.08,2.2.032,2.2,0c-.054-.028-.231.156-.479.442S1.3.942.807,1.583" transform="translate(16.073 21.401)"/><path class="s" d="M.816.922A8.259,8.259,0,0,0,0,1.414V1.43C.538,1.491,2.926.414,2.731.042,2.7-.017,2.547-.065,1.88.279,1.565.45,1.523.477.816.922" transform="translate(11.818 24.664)"/><path class="s" d="M0,.115A2.114,2.114,0,0,0,.8.01V0A1.393,1.393,0,0,0,.4.065a1.989,1.989,0,0,1-.4.05" transform="translate(9.763 26.289)"/></g></g><g transform="translate(-37.997 203.355)"><path class="o" d="M-1372.46,1006.5s-4.688-11.879-7.328-12.471-4.779,1.821-2.776,4.916c1.8,2.782,8.921,9.376,8.921,9.376Z" transform="translate(1415.292 -993.874)"/><path class="o" d="M-1371.868,1006.307l-1.184,1.82s-.86-.8-2.058-1.951c-2.246-2.172-5.687-5.609-6.864-7.422-2-3.1.139-5.509,2.776-4.916,2.058.458,5.364,7.781,6.714,10.987C-1372.1,1005.732-1371.868,1006.307-1371.868,1006.307Z" transform="translate(1414.91 -993.748)"/><path class="t" d="M-1357.994,1026.394l-1.184,1.82s-.86-.8-2.058-1.951a6.422,6.422,0,0,1,2.627-1.351C-1358.222,1025.818-1357.994,1026.394-1357.994,1026.394Z" transform="translate(1401.036 -1013.835)"/><path class="o" d="M-1445.4,1112.311s-.341.38-.96.935a18.113,18.113,0,0,1-5.246,3.3c-3.7,1.45-4.955.9-5.641,2.78s-.437,3.963-1.514,3.626a4.9,4.9,0,0,1-2.09-2.716,5.491,5.491,0,0,1-.156-3.985c1.134-2.908,6.224-4.9,6.8-5.129s2.666-1.422,3.5-1.468a19.342,19.342,0,0,0,2.872-.65Z" transform="translate(1465.545 -1068.035)"/><path class="t" d="M-1445.4,1112.311s-.341.38-.96.935a22.549,22.549,0,0,1-1.934,1.269s-4.443,2.627-8.581,2.684a4.522,4.522,0,0,0-3.977,3.036,5.491,5.491,0,0,1-.156-3.985c1.134-2.908,6.224-4.9,6.8-5.129s2.666-1.422,3.5-1.468a19.342,19.342,0,0,0,2.872-.65Z" transform="translate(1465.545 -1068.035)"/><path class="o" d="M-1341.713,1075.9c-1.294,1.383-2.566,2.285-3.878,1.838-.86-.3-3.469.323-6.288,1.251-1.351.441-2.751.956-4.027,1.472l-.359.149c-3.985,1.653-.917-2.787,1.72-4.081h.007c.121-.021,1.742-.281,3.729-.643a51.078,51.078,0,0,0,7.326-1.685C-1341.468,1073.321-1340.419,1074.519-1341.713,1075.9Z" transform="translate(1399.066 -1045.409)"/><path class="t" d="M-1347.533,1079.482a6.063,6.063,0,0,1-1.07,3.1c-1.351.441-2.751.956-4.027,1.472l-.466-2.236,1.834-1.7C-1351.141,1080.1-1349.52,1079.844-1347.533,1079.482Z" transform="translate(1395.79 -1049.008)"/><path class="o" d="M-1439.981,1069.017a10.75,10.75,0,0,1-.164,1.685,2.347,2.347,0,0,1-1.528,1.813,4.958,4.958,0,0,1-4.4-1.34,3.528,3.528,0,0,1-1-1.98c-.43-2.9,3.252-6.391,5.531-4.66C-1440.177,1065.569-1439.945,1067.574-1439.981,1069.017Z" transform="translate(1456.382 -1039.077)"/><path class="t" d="M-1438.114,1077.982a10.778,10.778,0,0,1-.163,1.685,2.348,2.348,0,0,1-1.529,1.813,4.957,4.957,0,0,1-4.4-1.34c.736.295,3.036.9,5.652-1.749C-1438.405,1078.238-1438.256,1078.1-1438.114,1077.982Z" transform="translate(1454.515 -1048.041)"/><path class="o" d="M-1414.535,1061.449a5.358,5.358,0,0,1-5.2.874,13.229,13.229,0,0,0-4.351-.01c-1.607.16-3.352.4-4.838.522a13.709,13.709,0,0,1-1.326,1.354,24.493,24.493,0,0,1-4.7,3.48,43.478,43.478,0,0,1-18.394,3.7c-1.457-.025-2.3-.128-2.3-.128s-4.443,2.627-8.581,2.684c-2.634.032-4.56,2.812-4.344,5.357.192,2.257-.441,3.334-1.28,3.686a1.479,1.479,0,0,1-.323.1c-1,.2-2.435-7.639-1.511-10.237s7.12-3.252,9.824-7.521c2.232-3.53,2.1-4.464,3.217-6.156a12.6,12.6,0,0,1,.9-1.2c2.19-2.613,9.274-3.153,15.458-4.5s10.326-7.162,11.012-8.89,6.405-2.513,8.332,1.4c0,0-.068.857-.292,2.232a42.964,42.964,0,0,1-1.28,5.645,34.456,34.456,0,0,1-1.461,4c-.139.316-.284.633-.437.945.487.068,1.009.139,1.56.206,2.922.363,6.54.647,8.563.22C-1412.509,1058.42-1412.979,1060.453-1414.535,1061.449Z" transform="translate(1472.417 -1025.586)"/><path class="t" d="M-1354.4,1088.732c-1.607.16-3.352.4-4.838.522a13.709,13.709,0,0,1-1.326,1.354,10.962,10.962,0,0,1-3.3-3.473l1.009-.423,1.809-1.976s3.206-.942,4.763-.473c-.139.316-.284.633-.437.946.487.068,1.009.139,1.56.206A7.4,7.4,0,0,1-1354.4,1088.732Z" transform="translate(1402.732 -1052.006)"/><path class="t" d="M-1445.987,1093.932c-.409,2.74-3.619,5.268-5.435,6.5-1.457-.025-2.3-.128-2.3-.128s-4.443,2.627-8.58,2.684c-2.634.032-4.561,2.812-4.344,5.357.192,2.257-.441,3.334-1.28,3.686-.8-2.172-1.482-7.233-.775-9.224.928-2.6,7.12-3.252,9.825-7.521a25.828,25.828,0,0,0,1.927-3.544,5.817,5.817,0,0,1,10.233-.835A4.63,4.63,0,0,1-1445.987,1093.932Z" transform="translate(1470.496 -1054.643)"/><path class="t" d="M-1361.566,1056.851a8.2,8.2,0,0,0,8.225,4.553,43.309,43.309,0,0,0,1.281-5.645l-1.83-.413-4.543-.476Z" transform="translate(1401.249 -1033.145)"/><path class="o" d="M-1366.485,1041.074a9.592,9.592,0,0,0,10.728-1.135c2.674-2.579,4.266-5.22,3.19-7.015s-2.623-1.189-3.83-2.422-2.231-2.38-4.507-2.725a7.359,7.359,0,0,0-7.423,2.978,6.814,6.814,0,0,0-.5.7,9.485,9.485,0,0,0-.752,1.467C-1371.038,1036.551-1369.194,1039.454-1366.485,1041.074Z" transform="translate(1406.744 -1015.602)"/><path class="o" d="M-1355.073,1039.794a9.591,9.591,0,0,1-10.727,1.134c-2.424-1.45-4.155-3.924-3.441-7.034a7.374,7.374,0,0,1,.352-1.12,9.6,9.6,0,0,1,.75-1.468,7.389,7.389,0,0,1,.5-.7,10.647,10.647,0,0,1,.832-.917,7.2,7.2,0,0,1,6.59-2.058c2.278.345,3.3,1.493,4.507,2.723s2.755.629,3.832,2.424S-1352.4,1037.214-1355.073,1039.794Z" transform="translate(1406.301 -1015.509)"/><path class="t" d="M-1365.271,1035.426l-.135.057a11.911,11.911,0,0,1-3.54,2.371,7.374,7.374,0,0,1,.352-1.12,9.589,9.589,0,0,1,.75-1.468,7.408,7.408,0,0,1,.5-.7,10.686,10.686,0,0,1,.832-.917l.263.1Z" transform="translate(1406.006 -1019.468)"/><path class="g" d="M-1345.951,1035.4c.649.82,1.582,1.163,2.083.767s.378-1.383-.271-2.2-1.583-1.163-2.083-.767S-1346.6,1034.578-1345.951,1035.4Zm.675-.952a.412.412,0,0,1,.066-.578.413.413,0,0,1,.579.067.412.412,0,0,1-.068.578A.411.411,0,0,1-1345.276,1034.447Z" transform="translate(1391.558 -1019.068)"/><path class="g" d="M-1323.3,1041.3a1,1,0,0,0,1.379-.044,1,1,0,0,0,.359-1.332,1,1,0,0,0-1.379.044A1,1,0,0,0-1323.3,1041.3Z" transform="translate(1376.672 -1023.35)"/><path class="u" d="M-1334.385,1048.4s-3,2.191-3.115,4.364" transform="translate(1385.738 -1028.972)"/><path class="u" d="M-1330.415,1050.739a6.357,6.357,0,0,0-1.177,3.2" transform="translate(1381.93 -1030.482)"/><g transform="translate(21.856 4.782)"><path class="o" d="M-1409.468,1013.768c2.622,1.243,16.492,4.665,16.492,4.665l.135-.216.536-.87.431-.7s-13.484-10.026-16.944-9.423C-1412.94,1007.948-1412.218,1012.464-1409.468,1013.768Z" transform="translate(1411.72 -1007.202)"/><path class="o" d="M-1409.468,1014.219c2.622,1.244,16.492,4.665,16.492,4.665l.135-.217.536-.87.431-.7s-13.484-10.026-16.944-9.424C-1412.94,1008.4-1412.218,1012.915-1409.468,1014.219Z" transform="translate(1411.72 -1007.492)"/><path class="g" d="M-1403.9,1020.381c1.666.6,12.665,3.636,15.167,4.325l.536-.87c-1.808-.993-13.377-7.3-15.472-6.786C-1405.945,1017.6-1405.785,1019.7-1403.9,1020.381Z" transform="translate(1407.611 -1013.531)"/></g><path class="o" d="M-1346.135,1088.011a5.359,5.359,0,0,1-5.2.874c-1.667-.526-6.018.242-9.188.512-4.091-.373-6.043-2.406-4.187-4.319s6.707.274,6.707.274c3.064.434,7.72.935,10.123.427C-1344.109,1084.983-1344.578,1087.016-1346.135,1088.011Z" transform="translate(1403.733 -1052.111)"/><path class="o" d="M-1345.334,1087.9a5.359,5.359,0,0,1-5.2.874c-1.667-.526-6.018.242-9.188.512-4.091-.373-6.042-2.406-4.187-4.319s6.707.274,6.707.274c3.064.434,7.72.935,10.123.427C-1343.308,1084.876-1343.777,1086.91-1345.334,1087.9Z" transform="translate(1403.216 -1052.042)"/><path class="o" d="M-1450.2,1090.953c-.576,3.849-6.679,7.283-6.679,7.283s-4.443,2.627-8.581,2.684c-2.634.032-4.56,2.812-4.344,5.356s-.611,3.586-1.6,3.786-2.435-7.639-1.511-10.237,7.12-3.252,9.825-7.521a26.163,26.163,0,0,0,1.927-3.543,5.817,5.817,0,0,1,10.233-.837A4.618,4.618,0,0,1-1450.2,1090.953Z" transform="translate(1473.209 -1052.723)"/><path class="o" d="M-1448.968,1091.362c-.576,3.849-6.679,7.283-6.679,7.283s-4.443,2.627-8.581,2.684c-2.634.032-4.56,2.812-4.344,5.357s-.611,3.587-1.6,3.786-2.435-7.639-1.511-10.237,7.12-3.252,9.824-7.521a26.176,26.176,0,0,0,1.927-3.542,5.817,5.817,0,0,1,10.233-.837A4.618,4.618,0,0,1-1448.968,1091.362Z" transform="translate(1472.417 -1052.987)"/></g><path class="k" d="M-1410.883-48.8a56.035,56.035,0,0,1-56.034,56.034,55.825,55.825,0,0,1-37.761-14.638,76.3,76.3,0,0,1-72.6,52.845,75.831,75.831,0,0,1-23.225-3.61,39.191,39.191,0,0,1-26.557,10.316A39.343,39.343,0,0,1-1666.411,12.8a39.132,39.132,0,0,1,7.126-22.586,56.172,56.172,0,0,1-36.26-29.361,28,28,0,0,1-10.307,1.956,28.01,28.01,0,0,1-28.009-28.017,28.015,28.015,0,0,1,28.009-28.017,27.919,27.919,0,0,1,11.28,2.367,56.022,56.022,0,0,1,49.219-29.235,55.782,55.782,0,0,1,15.888,2.291,42.055,42.055,0,0,1,30.628-13.186,42.168,42.168,0,0,1,38.886,25.852c1.327.3,2.636.646,3.929,1.024a42,42,0,0,1,17.76-3.911,42.083,42.083,0,0,1,34.1,17.375,55.785,55.785,0,0,1,37.242-14.177A56.028,56.028,0,0,1-1410.883-48.8Z" transform="translate(1576.702 403.125)"/><g transform="translate(367.832 179.363) rotate(56)"><g transform="translate(7.399 3.125)"><path class="o" d="M0,.178C2.8,1.645,5.132,4.395,6.939,8.352c.8,1.752,1.452,3.6,2.084,5.389.568,1.61,1.155,3.274,1.849,4.866A36.25,36.25,0,0,0,23.457,33.922l.115-.165A36.048,36.048,0,0,1,11.057,18.527c-.691-1.586-1.277-3.246-1.844-4.852-.633-1.793-1.287-3.646-2.091-5.406C5.3,4.27,2.931,1.488.093,0Z"/></g><g transform="translate(15.039 22.048)"><path class="o" d="M5.42,3.571C5.395,3.54,2.816.393.021,0L0,.146C2.738.531,5.28,3.633,5.306,3.665Z"/></g><g transform="translate(17.99 15.488)"><path class="o" d="M.163,5.531c0-.034-.207-3.4.885-5.462L.918,0c-1.11,2.1-.9,5.507-.9,5.54Z"/></g><g transform="translate(17.05 8.377)"><path class="o" d="M3.2,6.474a6.325,6.325,0,0,0-.437-3.443A14.461,14.461,0,0,0,1,0C1.317,1.39.494,2.754.162,4.141A6.185,6.185,0,0,0,.4,7.74c.146.386.421,1.256.87,1.391S2.2,8.6,2.43,8.291A4.4,4.4,0,0,0,3.2,6.474Z"/></g><g transform="translate(8.054 19.976)"><path class="o" d="M6.409,3.331C5.332,3.087,4.342,2.6,3.242,2.277A4.078,4.078,0,0,0,0,2.452,5.773,5.773,0,0,1,4.933.006,5.841,5.841,0,0,1,9.171,2.227c.821,1.042-.545,1.231-1.324,1.254A5.685,5.685,0,0,1,6.409,3.331Z"/></g><g transform="translate(10.982 11.212)"><path class="o" d="M4.962,3.8C4.942,3.772,2.879.7.036,0L0,.143C2.789.833,4.819,3.854,4.839,3.885Z"/></g><g transform="translate(4.6 8.915)"><path class="o" d="M4.407.057A5.26,5.26,0,0,0,0,1.476a1.456,1.456,0,0,1,1.556-.313,3.451,3.451,0,0,1,1.339.994A8.258,8.258,0,0,0,4.09,3.339a3.041,3.041,0,0,0,3.4.06C8.6,2.512,7.185,1.323,6.412.824A5.171,5.171,0,0,0,4.407.057Z"/></g><g transform="translate(13.122 5.448)"><path class="o" d="M.562,4.327C.553,4.3-.252,1.459.412.063L.279,0c-.688,1.442.106,4.249.14,4.368Z"/></g><g transform="translate(12.342)"><path class="o" d="M3.058,5.049A7.718,7.718,0,0,0,3.514,2.5,5.531,5.531,0,0,1,4.135,0,5.423,5.423,0,0,0,.33,3.177,3.835,3.835,0,0,0,.024,5.1C.1,5.73.448,6.743,1.249,6.6A2.652,2.652,0,0,0,3.058,5.049Z"/></g><g transform="translate(0 0.817)"><path class="o" d="M7.107.627A6.468,6.468,0,0,0,3.54.037,14.2,14.2,0,0,0,0,.944,2.546,2.546,0,0,1,2.4,1.3,19.58,19.58,0,0,1,4.3,2.961a5.012,5.012,0,0,0,2.25,1.181c.83.162,2.388.019,2.537-1.068C9.23,2.036,7.9,1.035,7.107.627Z"/></g></g><g transform="translate(362.949 223.105) rotate(20)"><path class="s" d="M23.626,19.182c0,7.289-5.29,12.379-11.813,12.379a11.572,11.572,0,0,1-8.72-3.85A12.65,12.65,0,0,1,0,19.182,27.8,27.8,0,0,1,3.665,6.5C5.783,2.789,8.654,0,11.813,0,18.336,0,23.626,11.895,23.626,19.182Z" transform="translate(0 0)"/><g transform="translate(0.184)"><path class="r" d="M1.07.029A2.048,2.048,0,0,0,0,.39C.022.419.128.39.435.27A2.954,2.954,0,0,1,1.532,0,3.949,3.949,0,0,0,1.07.029" transform="translate(10.137)"/><path class="r" d="M1.1,1.223C.458,1.8-.055,2.426,0,2.559c.076.023.263-.095.556-.351S2.886.052,2.915.016L2.91,0a2.548,2.548,0,0,0-.552.279A8.608,8.608,0,0,0,1.1,1.223" transform="translate(5.923 0.819)"/><path class="r" d="M.1.654c-.286.6.064,1.058.525.925C1.4,1.356,1.172.189.853.013.8-.015.734-.007.554.117A1.461,1.461,0,0,0,.1.654" transform="translate(10.764 0.099)"/><path class="r" d="M.257,1.758c-.58,1.25-.1,1.945.681,1.616C2.317,2.8,2.8.308,2.15.027c-.305-.131-.756.26-.926.407A4.4,4.4,0,0,0,.257,1.758" transform="translate(6.929 2.425)"/><path class="r" d="M.3,2.369c-.5,1.355-.367,2.252.3,2C1.881,3.884,2.89.475,2.179.039c-.313-.192-.766.368-.937.579A6.958,6.958,0,0,0,.3,2.369" transform="translate(2.453 6.989)"/><path class="r" d="M0,4.309a.3.3,0,0,0,.009.132H.046A10.59,10.59,0,0,0,.973,0H.94A.494.494,0,0,0,.876.141,26.616,26.616,0,0,0,0,4.309" transform="translate(0 12.656)"/><path class="r" d="M.382,1.41c.679,1.325,1.684,1.764,1.883,1.267C2.615,1.8.533-.249.073.025-.016.078,0,.221.008.336A3.784,3.784,0,0,0,.382,1.41" transform="translate(13.756 1.231)"/><path class="r" d="M.009,2.2C.159,4.015,1.991,4.726,2.8,3.663,3.8,2.347,2.468-.163,1.225.008A1.277,1.277,0,0,0,.418.563,2.593,2.593,0,0,0,.009,2.2" transform="translate(11.773 5.103)"/><path class="r" d="M0,2.5A1.761,1.761,0,0,0,3,4.044C4.479,2.761,3.738.2,2.222.011A1.792,1.792,0,0,0,.746.665,3.113,3.113,0,0,0,0,2.5" transform="translate(6.879 10.485)"/><path class="r" d="M0,2.333C.045,3.86,1.282,4.977,2.334,3.956,3.778,2.555,3.023,0,1.58,0A1.409,1.409,0,0,0,.494.634,2.829,2.829,0,0,0,0,2.333" transform="translate(2.341 16.24)"/><path class="r" d="M.4,2.358C.939,3.681,1.792,4.5,2,3.891,2.376,2.778.873-.42.191.046.019.163.007.473,0,.658a4.725,4.725,0,0,0,.4,1.7" transform="translate(0.604 21.844)"/><path class="r" d="M.2,2.423c.534,1.7,1.777,2.523,2.216,1.8C3.058,3.165,1.5-.218.482.011.184.078.089.455.043.636A3.867,3.867,0,0,0,.2,2.423" transform="translate(18.099 7.891)"/><path class="r" d="M.022,2.456c.255,1.92,2.4,2.507,3.322,1.316C4.4,2.416,3.174-.185,1.575.01A1.7,1.7,0,0,0,.491.665,2.453,2.453,0,0,0,.022,2.456" transform="translate(14.736 13.618)"/><path class="r" d="M.019,2.549a2.171,2.171,0,0,0,3.82,1.189A2.268,2.268,0,0,0,1.945.011,2.2,2.2,0,0,0,.6.661,2.451,2.451,0,0,0,.019,2.549" transform="translate(9.266 19.128)"/><path class="r" d="M.241,2.032C.958,3.413,2.7,4.053,3.152,2.778,3.677,1.295,1.806-.563.517.162a.987.987,0,0,0-.4.423A1.583,1.583,0,0,0,.241,2.032" transform="translate(5.57 24.739)"/><path class="r" d="M.582,2.178c.264,1.038.354,1.4.412,1.712Q.881,3.258.732,2.613C.537,1.766.3.906.016.049L0,0C.04.122.048.152.1.346c.115.415.187.689.477,1.832" transform="translate(22.146 11.776)"/><path class="r" d="M0,2.361c.04,1.368.539,2.509,1.063,1.891C1.841,3.338,1.667,0,.845,0c-.3,0-.5.431-.583.616A4.36,4.36,0,0,0,0,2.361" transform="translate(21.695 17.158)"/><path class="r" d="M.042,2.254C-.185,3.51.524,4.386,1.674,3.618,3.157,2.629,3.534.2,2.234.011A1.788,1.788,0,0,0,.87.629,3.276,3.276,0,0,0,.042,2.254" transform="translate(17.209 22.793)"/><path class="r" d="M0,1.552C-.02,2.639,1.132,3,2.236,1.893,3.1,1.027,2.842,0,1.759,0A1.936,1.936,0,0,0,.569.448,1.552,1.552,0,0,0,0,1.552" transform="translate(12.346 27.592)"/><path class="r" d="M.4.674A2.019,2.019,0,0,0,1.218.9c.014-.064.046-.124.054-.19A.44.44,0,0,0,1.261.538.637.637,0,0,0,1.035.22.954.954,0,0,0,.121.058.209.209,0,0,0,0,.22C0,.282.01.468.4.674" transform="translate(10.366 30.645)"/><path class="r" d="M.965,1.892C.112,2.993,0,3.138,0,3.21c.032,0,.091,0,.455-.339Q.636,2.7.809,2.525A11.565,11.565,0,0,0,1.99,1.108q.224-.317.429-.652C2.638.1,2.63.038,2.625,0,2.56-.03,2.349.19,2.052.532c-.281.332-.494.594-1.087,1.36" transform="translate(19.212 25.58)"/><path class="r" d="M.975,1.1A9.882,9.882,0,0,0,0,1.69V1.71C.643,1.782,3.5.495,3.264.05c-.037-.071-.219-.128-1.017.283C1.87.538,1.82.57.975,1.1" transform="translate(14.125 29.48)"/><path class="r" d="M0,.138A2.53,2.53,0,0,0,.962.013V.005A1.673,1.673,0,0,0,.476.078,2.384,2.384,0,0,1,0,.138" transform="translate(11.669 31.423)"/></g></g><path class="g" d="M0,47.08A32.1,32.1,0,0,0,53.729,70.793,43.728,43.728,0,0,0,108.623,99a22.54,22.54,0,0,0,33.67-29.569,32.177,32.177,0,0,0,20.771-16.819,16.05,16.05,0,1,0-.558-29.622,32.127,32.127,0,0,0-37.3-15.434,24.155,24.155,0,0,0-39.82,7.256c-.76.173-1.51.37-2.251.587a24.169,24.169,0,0,0-29.708,7.712A32.094,32.094,0,0,0,0,47.08Z" transform="translate(-93.17 196.744)"/><path class="f" d="M24.947,18.285a18.566,18.566,0,0,0-3.895-5.39,17.269,17.269,0,0,0-4.749-2.74,13.027,13.027,0,0,0-1.38-1.4C17.815,1.628,17.244.22,17.086,0l-.475.34A.067.067,0,0,1,16.6.328c.06.156.524,1.8-2.827,9.672a15.229,15.229,0,0,1-1.974.89,17.531,17.531,0,0,0-5.816.116A18.554,18.554,0,0,0,0,13.9a8.761,8.761,0,0,0,5.987,1.273c2.807-.444,5.09-3,5.828-3.918.578-.225,1.246-.5,1.737-.742a48.331,48.331,0,0,0-2.175,6.164A4.054,4.054,0,0,0,8.56,18.394a16.484,16.484,0,0,0-4.682,2.871A17.438,17.438,0,0,0,.4,26.463a8.237,8.237,0,0,0,5.462-1.817c2.023-1.661,2.674-4.724,2.853-5.88a3.722,3.722,0,0,1,2.559-1.718A46.515,46.515,0,0,0,9.929,24.1c-.665,1.313-1.762,3.975-1.2,6.4a8.76,8.76,0,0,0,3.423,5.075,18.541,18.541,0,0,0,.446-6.634,17.443,17.443,0,0,0-2.019-5.35,46.528,46.528,0,0,1,1.6-7.58,17.181,17.181,0,0,1,.784,1.592c-.117.769-.5,4,1,6.166a7.573,7.573,0,0,0,4.366,2.985,16.035,16.035,0,0,0-1.756-5.471,14.892,14.892,0,0,0-3.15-3.511,16.524,16.524,0,0,0-1.107-2.208A47.249,47.249,0,0,1,14.1,10.731q.37-.86.688-1.631a11.2,11.2,0,0,1,.963.959h0c.111.716.82,4.6,3.325,6.507A8.759,8.759,0,0,0,24.947,18.285Z" transform="translate(51.136 218.135) rotate(150)"/><g transform="matrix(0.999, -0.035, 0.035, 0.999, 7.651, 210.102)"><path class="i" d="M23.654,4.886a12.608,12.608,0,0,0-3.108-3.77A4.97,4.97,0,0,0,15.912.265c-2.389.942-3.141,3.938-3.23,6.5a30.124,30.124,0,0,0,5.252,17.973A29.416,29.416,0,0,0,7.791,15.063c-1.551-.888-3.4-1.649-5.083-1.057-1.876.659-2.86,2.862-2.689,4.843a11.009,11.009,0,0,0,2.422,5.367A37.7,37.7,0,0,0,16.252,35.769a18.574,18.574,0,0,0,7.253,2.113,8.68,8.68,0,0,0,8.185-4.1c1.51-2.708.672-4.612-.069-7.356C29.565,18.819,27.8,11.73,23.654,4.886Z"/><g transform="translate(3.399 4.895)"><line class="l" x2="11.4" y2="27.422" transform="translate(13.711)"/><line class="l" x2="19.103" y2="14.756" transform="translate(0.308 14.052)"/><line class="m" x1="4.419" y1="4.61" transform="translate(11.785 1.386)"/><line class="m" x1="0.851" y1="7.504" transform="translate(16.204 0.539)"/><line class="m" x1="6.698" y1="5.239" transform="translate(11.785 6.239)"/><line class="m" x1="0.383" y1="11.016" transform="translate(20.181 5.469)"/><line class="m" x1="7.862" y1="6.543" transform="translate(15.134 15.791)"/><path class="v" d="M.392,11.4C.294,11.162,0,0,0,0" transform="translate(24.109 14.558)"/><line class="m" x1="2.557" y1="5.679" transform="translate(1.772 11.479)"/><line class="m" x1="6.376" y1="1.582" transform="translate(0 17.157)"/><line class="m" x1="2.542" y1="6.487" transform="translate(7.318 14.943)"/><line class="m" x1="7.843" y1="1.526" transform="translate(5.161 22.334)"/><line class="m" x1="2.071" y1="5.229" transform="translate(14.558 21.43)"/><line class="m" x1="7.342" y1="1.216" transform="translate(10.861 26.659)"/></g></g></g></g></svg>