<svg xmlns="http://www.w3.org/2000/svg" width="490.249" height="125.615" viewBox="0 0 490.249 125.615"><defs><style>.a,.b,.c{fill:none;stroke-linecap:round;stroke-linejoin:round;stroke-width:2px;}.a{stroke:#fff;}.b{stroke:#e0fa85;}.c{stroke:#a580de;}.d{fill:#6b3bb6;}.e{fill:#d8f86a;}.f{fill:#fff;}.g{fill:#e0fa85;}.h{fill:#ffb12a;}.i{fill:#ffbe40;}.j{mix-blend-mode:multiply;isolation:isolate;}</style></defs><g transform="translate(1240.929 -1432.222)"><g transform="translate(304.767 1106.516) rotate(150)"><path class="a" d="M1416.016,426.68l3.437,3.5" transform="translate(-3.827 -5.945)"/><path class="b" d="M1440.7,437.337a65.16,65.16,0,0,0,10.5,7.276" transform="translate(-14.89 -12.515)"/></g><g transform="matrix(0.914, -0.407, 0.407, 0.914, -2670.507, 1730.36)"><path class="a" d="M1397.237,388.652a21.923,21.923,0,0,0,8.492,13.427" transform="translate(-3.716)"/><path class="b" d="M1419.851,400.077a37.589,37.589,0,0,0,10.1,11.761" transform="translate(-9.336 -7.229)"/><path class="a" d="M1416.016,426.68l3.437,3.5" transform="translate(20.079 4.611)"/><path class="c" d="M1382.78,419.266a23.4,23.4,0,0,0,6.423,7.431" transform="translate(22.01 -3.216)"/></g><g transform="matrix(0.545, -0.839, 0.839, 0.545, -936.609, 1547.475)"><path class="a" d="M0,0A21.923,21.923,0,0,0,8.492,13.427" transform="translate(10.059 6.405)"/><path class="c" d="M0,0A23.4,23.4,0,0,0,6.423,7.431" transform="translate(16.007 31.427)"/><path class="b" d="M0,0A65.16,65.16,0,0,0,10.5,7.276" transform="translate(39.377 38.543)"/></g><g transform="translate(-995.974 1443.534)"><path class="d" d="M-793.8,1469.338a12.537,12.537,0,0,0,6.028-1.471,13.189,13.189,0,0,0,4.383-3.651,10.3,10.3,0,0,0,2.028-4.687,6.52,6.52,0,0,0-1.041-4.687,10.585,10.585,0,0,0-4.768-3.651,23.242,23.242,0,0,0-9.152-1.471,15.909,15.909,0,0,0-8.385,1.973,15.546,15.546,0,0,0-5.1,4.877,17.862,17.862,0,0,0-2.521,6.193,30.488,30.488,0,0,0-.658,5.918,14.765,14.765,0,0,0,3.005,9.206,35.761,35.761,0,0,0,7.542,7.233,102.21,102.21,0,0,0,9.784,6.248,90.475,90.475,0,0,1,9.782,6.357,35.3,35.3,0,0,1,7.542,7.562,16.231,16.231,0,0,1,3.007,9.755,17.63,17.63,0,0,1-2.192,8.6,26.018,26.018,0,0,1-5.864,7.179,35.3,35.3,0,0,1-8.275,5.316,37.079,37.079,0,0,1-9.48,2.958,30.637,30.637,0,0,1-9.481.164,20.467,20.467,0,0,1-8.275-3.014,16.745,16.745,0,0,1-5.864-6.631,23.4,23.4,0,0,1-2.192-10.74,3.027,3.027,0,0,1,.51-1.809,2.419,2.419,0,0,1,1.133-.932,1.523,1.523,0,0,1,1.133,0c.339.147.51.512.51,1.1q0,6.905,2.786,10.742a14.154,14.154,0,0,0,6.94,5.26,18.729,18.729,0,0,0,9.071.658,25.839,25.839,0,0,0,9.07-3.178,22.352,22.352,0,0,0,6.939-6.248,14.2,14.2,0,0,0,2.788-8.549,7.665,7.665,0,0,0-2.9-5.7,53.126,53.126,0,0,0-7.213-5.37q-4.319-2.739-9.4-5.973a54.589,54.589,0,0,1-9.4-7.563,39.229,39.229,0,0,1-7.213-10.028,29.392,29.392,0,0,1-2.9-13.481,21.485,21.485,0,0,1,1.7-7.891,26.056,26.056,0,0,1,5.042-7.946,27.174,27.174,0,0,1,8.494-6.138,27.642,27.642,0,0,1,12.056-2.466q6.683,0,10.576,2.247a12.989,12.989,0,0,1,5.48,5.59,13.613,13.613,0,0,1,1.206,7.288,17.984,17.984,0,0,1-2.3,7.289,17.33,17.33,0,0,1-5.1,5.59,12.047,12.047,0,0,1-7.124,2.247,2.928,2.928,0,0,1-1.918-.675,3.818,3.818,0,0,1-1.151-1.462,1.863,1.863,0,0,1-.055-1.463Q-794.9,1469.34-793.8,1469.338Z" transform="translate(823.943 -1443.363)"/><g transform="translate(52.987 30.25)"><path class="d" d="M-669.608,1514.2q.876-1.094,1.534-.384a1.2,1.2,0,0,1,.109,1.589,22.565,22.565,0,0,0-1.863,5.7q-.768,3.617-1.48,7.836t-1.644,8.549a38.77,38.77,0,0,1-2.521,7.837,16.366,16.366,0,0,1-4.109,5.7,9.191,9.191,0,0,1-6.248,2.192q-2.412,0-3.452-3.343a33.107,33.107,0,0,1-1.26-8.276,98.3,98.3,0,0,1,.164-10.8q.383-5.862.712-10.8t.493-8.275q.165-3.342-.493-3.343a14.7,14.7,0,0,0-2.192.164q-1.1.164-2.3.383a16.779,16.779,0,0,1-1.37,3.179,29.26,29.26,0,0,1-2.63,4.055,27.955,27.955,0,0,1-3.617,3.891,17.486,17.486,0,0,1-4.111,2.8,20.1,20.1,0,0,1-1.644,6.138,18.416,18.416,0,0,1-3.507,5.26,16.525,16.525,0,0,1-5.481,3.727,18.863,18.863,0,0,1-7.562,1.424,2.756,2.756,0,0,1-2.959-2.63,17.648,17.648,0,0,0-.11,1.973v1.973q0,4.932.11,9.7t.219,8.768q.108,4,.274,6.85t.274,3.727q.329,3.506-.274,4.494a2.419,2.419,0,0,1-2.246.986c-.219,0-.531.018-.932.055a6.148,6.148,0,0,1-1.152,0,2.006,2.006,0,0,1-1.041-.439,1.8,1.8,0,0,1-.6-1.26,168.587,168.587,0,0,1-3.288-22.688q-.765-10.74-.712-19.179t.6-13.974q.549-5.533.548-7.07a3.69,3.69,0,0,1,.658-2.356,4.04,4.04,0,0,1,1.534-1.206,6.5,6.5,0,0,1,1.918-.493q1.04-.108,1.918-.219a4.312,4.312,0,0,1,1.863.164,2.016,2.016,0,0,1,1.151,1.315,7.461,7.461,0,0,1,.274,2.9q-.111,1.866-.548,4.822l-.329,3.618a38.394,38.394,0,0,1,1.918-4.494,28.58,28.58,0,0,1,2.52-4.165,13.125,13.125,0,0,1,3.124-3.069,6.471,6.471,0,0,1,3.726-1.206,7.97,7.97,0,0,1,4.274,1.151,10.031,10.031,0,0,1,3.124,3.069,14.942,14.942,0,0,1,1.918,4.384,20.148,20.148,0,0,1,.658,5.206,9.513,9.513,0,0,0,3.069-2.027,23.366,23.366,0,0,0,2.631-3.014,20.863,20.863,0,0,0,1.973-3.234,18.914,18.914,0,0,0,1.1-2.685h-1.425a10.629,10.629,0,0,1-2.466-.329,8.348,8.348,0,0,1-2.631-1.15,6.261,6.261,0,0,1-2.083-2.357,8.055,8.055,0,0,1-.822-3.836,8.894,8.894,0,0,1,.767-3.891,7.788,7.788,0,0,1,1.918-2.575,6.637,6.637,0,0,1,2.466-1.37,8.68,8.68,0,0,1,2.411-.384,6.187,6.187,0,0,1,3.891,1.315,4.939,4.939,0,0,1,1.7,4.165q0,1.426-.055,2.794t-.164,2.466c-.074.805-.11,1.608-.11,2.412a14.184,14.184,0,0,0,3.343-.384,28.649,28.649,0,0,0,2.959-.877q1.369-.494,2.521-.931a5.819,5.819,0,0,1,2.027-.438q1.753,0,1.973.932a7.9,7.9,0,0,1,.219,1.808q0,.329-.384,3.671t-.822,8.166q-.439,4.823-.932,10.357t-.712,10.193q-.221,4.661-.055,7.618t.932,2.74a6.339,6.339,0,0,0,3.508-3.179,27.791,27.791,0,0,0,2.411-5.918q.987-3.4,1.754-7.343t1.479-7.617q.712-3.671,1.59-6.631A12.2,12.2,0,0,1-669.608,1514.2Zm-57.1,18.413a12.23,12.23,0,0,1,5.1-5.26,57.926,57.926,0,0,1,8.385-4.165,41.483,41.483,0,0,0,.329-5.151,22.447,22.447,0,0,0-.439-4.6,13.249,13.249,0,0,0-1.1-3.343q-.657-1.259-1.644-1.261-1.1,0-2.631,1.7a22.441,22.441,0,0,0-3.124,4.823,45.456,45.456,0,0,0-2.9,7.507A58.92,58.92,0,0,0-726.711,1532.616Zm4.932,2.083a5.977,5.977,0,0,0,4.932-2.356,16.571,16.571,0,0,0,2.85-5.864,57.018,57.018,0,0,0-6.412,3.562q-2.577,1.7-2.576,3.452A1.065,1.065,0,0,0-721.779,1534.7Zm25.537-28.5a18.814,18.814,0,0,0-.11-4.6,11.4,11.4,0,0,0-.877-3.232,2.18,2.18,0,0,0-2.082-1.48q-.879,0-1.644,1.261a5.908,5.908,0,0,0-.767,3.123,5.1,5.1,0,0,0,1.315,3.4A5.191,5.191,0,0,0-696.242,1506.2Z" transform="translate(736.524 -1493.27)"/></g><g transform="translate(117.599 27.839)"><path class="d" d="M-622.964,1505.732a2.843,2.843,0,0,1,1.261,1.37,3.232,3.232,0,0,1,.219,1.644,11.149,11.149,0,0,0-.11,1.48q0,.439-.055,2.247t0,4.274q.054,2.466.164,5.261t.439,5.206a19.928,19.928,0,0,0,.876,3.946q.547,1.536,1.534,1.534a4.423,4.423,0,0,0,3.015-1.644,17.488,17.488,0,0,0,2.9-4.219,27.6,27.6,0,0,0,2.137-5.864,27,27,0,0,0,.822-6.577q0-1.423,1.151-1.644t1.151,1.644a28.877,28.877,0,0,1-1.151,7.892,30.329,30.329,0,0,1-3.123,7.343,20.464,20.464,0,0,1-4.6,5.425,8.724,8.724,0,0,1-5.59,2.137,4.512,4.512,0,0,1-3.671-1.863,14.213,14.213,0,0,1-2.357-4.713,37.806,37.806,0,0,1-1.315-6.247q-.435-3.4-.547-6.467t-.11-5.37a27.1,27.1,0,0,1,.11-3.068,7.922,7.922,0,0,1,.876-3.179q.658-1.095,2.959-1.1A6.229,6.229,0,0,1-622.964,1505.732Zm-5.864-15.673a3,3,0,0,0-.986,2.522,21.044,21.044,0,0,0,.219,2.96,22.793,22.793,0,0,0,.549,2.739,12.882,12.882,0,0,0,.712,2.028c.257.548.493.821.712.821a6.053,6.053,0,0,0,2.74-.6,1.931,1.931,0,0,0,1.206-1.809,8.5,8.5,0,0,1,1.1-4.384,6.437,6.437,0,0,0,1.1-2.74,1.67,1.67,0,0,0-.493-1.315,3.2,3.2,0,0,0-1.261-.658,7.829,7.829,0,0,0-1.643-.275q-.878-.054-1.644-.055A3.651,3.651,0,0,0-628.827,1490.059Z" transform="translate(629.924 -1489.292)"/></g><g transform="translate(137.539 39.785)"><path class="d" d="M-560.085,1521.057a1.15,1.15,0,0,1,.438-.985,1.891,1.891,0,0,1,.932-.384,1.278,1.278,0,0,1,.931.275,1.284,1.284,0,0,1,.439,1.1,52.845,52.845,0,0,1-1.151,10.248,59.568,59.568,0,0,1-3.233,10.85,30.343,30.343,0,0,1-5.1,8.549,8.839,8.839,0,0,1-6.74,3.452,3.97,3.97,0,0,1-3.672-2.63,21.342,21.342,0,0,1-1.753-6.522,67.686,67.686,0,0,1-.493-8.493q0-4.6.164-8.495t.219-6.521q.055-2.63-.383-2.631t-1.424,1.042a27.106,27.106,0,0,0-2.083,2.52q-1.1,1.48-2.083,3.014a27.832,27.832,0,0,0-1.424,2.411,8.566,8.566,0,0,0-.6,2.905q-.165,2.028-.219,4.383t0,4.768q.054,2.412.055,3.946,0,1.973-1.37,2.465a11.122,11.122,0,0,1-3.671.493,3.777,3.777,0,0,1-2.3-.821,3.969,3.969,0,0,1-1.315-2.905q-.107-.657-.219-2.849t-.219-5.041q-.109-2.85-.22-6.138t-.219-6.193q-.108-2.9-.164-5.206t-.055-3.178a4.725,4.725,0,0,1,1.589-4.055,6.186,6.186,0,0,1,4.11-1.425,4.41,4.41,0,0,1,2.3.481,1.923,1.923,0,0,1,.767,1.766q0,.642.055,2.815t.164,4.473q.108,2.851.329,6.029.217,0,.986-1.754a24.052,24.052,0,0,1,2.137-3.782,18.549,18.549,0,0,1,3.453-3.78,7.568,7.568,0,0,1,5.042-1.754q3.178,0,4.274,3.738a38.355,38.355,0,0,1,1.1,10.334q0,3.849-.274,7.806t-.439,7.2a52.508,52.508,0,0,0-.055,5.279q.107,2.035.876,2.033,1.317,0,3.124-2.741a37.32,37.32,0,0,0,3.452-6.959,65.248,65.248,0,0,0,2.795-9.317A44.534,44.534,0,0,0-560.085,1521.057Z" transform="translate(597.027 -1509.001)"/></g><g transform="translate(170.753 37.921)"><path class="d" d="M-503.979,1519.189a1.46,1.46,0,0,1,1.809-.548.8.8,0,0,1,.383,1.315q-.986,1.426-2.027,2.741t-2.521,3.014q-1.478,1.7-3.452,3.945t-4.713,5.489q-.11,3.227-.273,6.677t-.274,7.015q-.111,3.562-.164,6.9t-.055,6.083A29.578,29.578,0,0,1-517.076,1573a17.327,17.327,0,0,1-4.494,6.686,10.193,10.193,0,0,1-5.808,2.576,10.245,10.245,0,0,1-5.809-1.151,11.535,11.535,0,0,1-4.494-4.493,14.676,14.676,0,0,1-1.808-7.563,19.049,19.049,0,0,1,1.37-6.85,41.542,41.542,0,0,1,3.726-7.288,90.25,90.25,0,0,1,5.425-7.617q3.068-3.89,6.467-7.946v-7.343a30.8,30.8,0,0,1-5.042,3.356,11.527,11.527,0,0,1-5.48,1.466,8.445,8.445,0,0,1-4.383-1.042,7.878,7.878,0,0,1-2.8-2.794,13.425,13.425,0,0,1-1.534-4,21.685,21.685,0,0,1-.493-4.659,24.282,24.282,0,0,1,.767-5.589,18.551,18.551,0,0,1,2.686-6.028,16.33,16.33,0,0,1,5.15-4.823,15.212,15.212,0,0,1,8.056-1.973,8.484,8.484,0,0,1,5.316,1.42,8.307,8.307,0,0,1,2.575,3.165,9.025,9.025,0,0,1,.823,3.276q.054,1.528.055,1.745,0,.657-.987.766t-.986-1.093q0-1.525-2.083-2.783a7.535,7.535,0,0,0-4.768-.983,9.266,9.266,0,0,0-5.316,2.73q-2.629,2.455-3.616,8.131a23.5,23.5,0,0,0-.329,3.876,13.419,13.419,0,0,0,.384,3.384,6.126,6.126,0,0,0,1.151,2.4,2.333,2.333,0,0,0,1.863.928,10.008,10.008,0,0,0,4.987-1.261,23.44,23.44,0,0,0,4-2.794v-8.768a2.231,2.231,0,0,1,.549-1.644,2.611,2.611,0,0,1,1.37-.712,5.93,5.93,0,0,1,1.809-.055c.658.074,1.277.148,1.863.219a2.834,2.834,0,0,1,2.083,1.26,6.774,6.774,0,0,1,.658,3.453v4.111q0,1.479-.056,2.849c-.038.915-.055,1.48-.055,1.7q2.52-2.849,4.22-4.822t2.849-3.4q1.151-1.424,1.863-2.3A19.81,19.81,0,0,1-503.979,1519.189Zm-18.742,42.2v-7.891q0-2.081.055-4.439t.055-5.316q-5.59,7.234-9.591,13.317t-4,11.234q0,4.382,2.083,6.521a4.589,4.589,0,0,0,4.659,1.48q2.573-.658,4.658-4.219T-522.721,1561.385Z" transform="translate(542.23 -1505.927)"/></g></g><g transform="translate(-855.205 1457.845)"><path class="e" d="M-591.7,1483.072l1.377-3.055a10.3,10.3,0,0,0,5.783,1.828c2.4,0,3.38-.8,3.38-1.878,0-3.28-10.19-1.026-10.19-7.536,0-2.979,2.4-5.458,7.386-5.458a11.759,11.759,0,0,1,6.084,1.552l-1.252,3.08a9.9,9.9,0,0,0-4.857-1.377c-2.4,0-3.329.9-3.329,2,0,3.23,10.19,1,10.19,7.436,0,2.929-2.429,5.433-7.436,5.433A12.49,12.49,0,0,1-591.7,1483.072Z" transform="translate(591.697 -1466.974)"/><path class="e" d="M-552.081,1481.239h-8.137l-1.552,3.756h-4.156l7.811-17.526h4.006l7.837,17.526h-4.256Zm-1.276-3.08-2.779-6.71-2.779,6.71Z" transform="translate(581.546 -1467.169)"/><path class="e" d="M-529.54,1467.469h4.056v14.221h8.788v3.3H-529.54Z" transform="translate(567.215 -1467.169)"/><path class="e" d="M-490.075,1481.74v3.255h-13.57v-17.526H-490.4v3.255h-9.214v3.805h8.137v3.154h-8.137v4.056Z" transform="translate(557.015 -1467.169)"/></g><g transform="translate(-1210.576 1463.189)"><path class="d" d="M-1213.187,1476.06a1.343,1.343,0,0,1-.625.343,3.507,3.507,0,0,0-.533.113,9.4,9.4,0,0,1-1.359.109c-.939.028-1.113.061-1.019.193.059.082.09.178.065.2a4.578,4.578,0,0,1-1.7.148,1.094,1.094,0,0,0-.672,0c-.313.059-.731.122-.949.144a1.875,1.875,0,0,0-.5.1,7.132,7.132,0,0,1-1.116.173,9.028,9.028,0,0,0-1.246.2.45.45,0,0,1-.353.008c-.062-.045-.224-.019-.375.062a4,4,0,0,1-.881.255c-1.17.215-4.5,1.046-6.474,1.618-.311.09-.841.236-1.179.325a3.552,3.552,0,0,0-.8.3,11.241,11.241,0,0,1-2.547.8c-.747.207-2.192.641-3.224.967-1.836.581-5.178,1.409-8.273,2.049-.864.178-2.1.443-2.75.587a21.05,21.05,0,0,1-4.006.589.908.908,0,0,1-.709-.337,7.314,7.314,0,0,1-.882-2.334,3.2,3.2,0,0,0-.23-.73.507.507,0,0,1-.073-.3c.027-.312-.135-.348-.7-.161a3.961,3.961,0,0,0-1.852,1.636,2.127,2.127,0,0,0-.561,1.428c-.035.4-.085.953-.109,1.2a1.861,1.861,0,0,0,.1.78c.08.179.264.573.418.9a2.5,2.5,0,0,1,.264.777,1.419,1.419,0,0,0,.115.5c.176.412.771,2.054.765,2.115,0,.03.2.481.464,1.009a6.1,6.1,0,0,1,.457,1.086,4.111,4.111,0,0,0,1.377,1.144.3.3,0,0,1,.221.129.413.413,0,0,0,.307.137,2.967,2.967,0,0,1,.718.234,3.428,3.428,0,0,0,2.349.362,5.722,5.722,0,0,0,1.162-.39,1.843,1.843,0,0,1,.779-.214.767.767,0,0,0,.527-.175.662.662,0,0,1,.418-.184c.11.01.207-.033.212-.092s.1-.1.212-.092a1.022,1.022,0,0,0,.5-.177,1.01,1.01,0,0,1,.467-.18.284.284,0,0,0,.244-.089.525.525,0,0,1,.387-.076.4.4,0,0,0,.392-.137c.046-.1.121-.133.178-.089a.364.364,0,0,0,.3-.013,4.354,4.354,0,0,1,.725-.174c.447-.075.514-.12.479-.316s0-.215.184-.15a2.022,2.022,0,0,0,1.263-.213.676.676,0,0,1,.368-.115.175.175,0,0,0,.195-.148c.016-.181.589-.444.906-.417a2.261,2.261,0,0,0,1.153-.474,1.224,1.224,0,0,1,.492-.277,2.611,2.611,0,0,0,.769-.484c.157-.163.328-.261.383-.22s.288-.084.513-.271a3.84,3.84,0,0,1,1.673-.754.45.45,0,0,0,.364-.252.28.28,0,0,1,.292-.2,1.066,1.066,0,0,0,.575-.281,1.073,1.073,0,0,1,.536-.284,1,1,0,0,0,.5-.259,1.23,1.23,0,0,1,.431-.273c.22.005.616-.124.624-.2,0-.049.133-.132.292-.19s.289-.155.295-.222a4.508,4.508,0,0,1,1.306-1.088c.063.005.1.092.1.2-.011.187-.008.187.115.01a.571.571,0,0,0,.117-.26c-.016-.145.3-.214.589-.13.344.1.406,0,.142-.235-.169-.147-.156-.169.137-.249a.659.659,0,0,1,.42-.013c.053.041.225.005.376-.078a1.053,1.053,0,0,1,.409-.141,1.765,1.765,0,0,0,.989-.609c.065-.15.147-.171.383-.1a2.7,2.7,0,0,0,1.673-.572c.125-.135.148-.13.2.039.082.281.281.278.218,0-.042-.19,0-.221.312-.2a4.813,4.813,0,0,1,.5.049.208.208,0,0,0,.2-.115c.042-.09.276-.129.626-.106a1.463,1.463,0,0,0,.689-.072.511.511,0,0,1,.328-.093c.139.012.195-.055.19-.231s.044-.234.144-.2a.251.251,0,0,0,.256-.088c.08-.1.135-.087.232.064.157.245.428.293.363.065s.405-.3.7-.11c.219.145.219.145-.119.578-1.03,1.321-1.833,2.295-2.027,2.457a.663.663,0,0,0-.224.289c0,.063-.074.1-.162.1s-.153.069-.153.179a.369.369,0,0,1-.255.281.41.41,0,0,0-.271.275,10.571,10.571,0,0,1-1.766,2.414c-.477.565-1.126,1.352-1.442,1.748a5.557,5.557,0,0,1-.719.8.336.336,0,0,0-.157.223.463.463,0,0,1-.2.277,20.918,20.918,0,0,0-2.15,2.7.408.408,0,0,1-.115.233c-.088.078-1.291,1.772-2.688,3.788-.243.351-1.186,1.88-3.029,4.916-.985,1.623-2.814,4.894-3.26,5.832-.166.349-.379.777-.473.95s-.423.812-.734,1.424-.736,1.413-.949,1.791a35.183,35.183,0,0,0-1.7,3.378c-.1.267-.35.906-.573,1.438s-.524,1.265-.676,1.649a38.414,38.414,0,0,0-1.85,5.2,11.3,11.3,0,0,1-.633,2.071,13.871,13.871,0,0,0-.566,1.824,1.937,1.937,0,0,1-.114.321c-.072.15-.343,1.183-.763,2.909-.094.389-.218.967-.277,1.3s-.225,1.281-.37,2.116-.346,2.493-.447,3.685c-.178,2.089-.341,5.319-.276,5.451.016.032-.009.892-.056,1.923-.079,1.756-.1,1.874-.31,1.995s-.221.141-.057.541a1.975,1.975,0,0,1,.159.581,5.957,5.957,0,0,0,.383,1.113c.247.594.339.938.25.931s-.186.094-.24.222c-.076.181-.021.309.242.572a1.335,1.335,0,0,0,.536.355c.11.01.193.059.189.11s.184.169.418.262a1.536,1.536,0,0,0,1.07.043,3.119,3.119,0,0,0,.757-.216,1.057,1.057,0,0,1,.528-.053.573.573,0,0,0,.607-.212c.181-.232.252-.241,1.169-.141.622.068.98.063.987-.014a.613.613,0,0,1,.245-.287.627.627,0,0,0,.255-.4c.016-.192.068-.216.316-.149.232.064.391,0,.735-.277l.438-.359.019-.77a6.085,6.085,0,0,0-.082-1.946,13.412,13.412,0,0,1,.273-2.852.768.768,0,0,0,.006-.528,7.122,7.122,0,0,1,.038-1.88c.048-.132.37-2.634.426-3.3a1.613,1.613,0,0,1,.148-.725,3.085,3.085,0,0,0,.241-1c.084-.555.173-1.127.2-1.277a1.044,1.044,0,0,0-.026-.459c-.055-.144-.011-.192.189-.2.227-.014.26-.066.26-.407a5.793,5.793,0,0,1,.181-1.092,4.773,4.773,0,0,0,.28-1.881c-.057-.208-.007-.3.249-.458s.343-.306.452-.826a2.758,2.758,0,0,1,.23-.74,5.511,5.511,0,0,0,.583-1.6c.189-.8.234-.939.349-1.083a4.279,4.279,0,0,0,.19-1.008,2.125,2.125,0,0,1,.232-.961.712.712,0,0,0,.224-.388,4.05,4.05,0,0,1,.535-1.44,1.333,1.333,0,0,0,.233-.592,2.4,2.4,0,0,1,.279-.741,2.212,2.212,0,0,0,.275-.638,3.229,3.229,0,0,1,.275-.692,5.144,5.144,0,0,0,.349-.851,4.657,4.657,0,0,1,.484-1.016,1.886,1.886,0,0,0,.313-.634,2.582,2.582,0,0,1,.338-.72,2.5,2.5,0,0,0,.348-.835,1.345,1.345,0,0,1,.279-.62,1.012,1.012,0,0,0,.243-.552c-.008-.232.167-.558.792-1.473a1.809,1.809,0,0,0,.287-.6.483.483,0,0,1,.187-.314.282.282,0,0,0,.119-.293.3.3,0,0,1,.158-.306.271.271,0,0,0,.152-.307c-.05-.161.022-.328.345-.8a3.3,3.3,0,0,0,.187-.314c.045-.089.214-.389.384-.683a5.711,5.711,0,0,0,.4-.819c.053-.16.161-.289.239-.282.146.013.661-.593.725-.852a.975.975,0,0,1,.154-.284c.33-.423.387-.573.29-.768-.083-.165-.01-.287.354-.6.282-.24.407-.412.325-.445-.1-.042-.075-.161.109-.5.132-.242.281-.438.329-.434s.094-.064.1-.14a.639.639,0,0,1,.249-.326.4.4,0,0,0,.188-.4c-.037-.182,0-.209.178-.144.246.088.349-.16.111-.269-.088-.04-.045-.133.142-.3a1.109,1.109,0,0,0,.277-.334,3.615,3.615,0,0,1,.44-.629,3.154,3.154,0,0,0,.442-.65c0-.061.135-.161.295-.228s.29-.162.295-.216-.038-.076-.107-.042-.109-.015-.1-.113a.157.157,0,0,1,.168-.156.462.462,0,0,0,.31-.149c.128-.133.13-.183.012-.27-.223-.166.065-.491.379-.429.184.037.213.013.13-.1s.021-.318.442-.854a5.42,5.42,0,0,0,.559-.794c0-.052.136-.177.3-.283.187-.122.244-.212.159-.251s-.005-.21.266-.528a2.148,2.148,0,0,0,.411-.62.774.774,0,0,1,.307-.37.779.779,0,0,0,.306-.359,1.812,1.812,0,0,1,.829-.667.459.459,0,0,0,.238-.144c.122-.124.117-.143-.03-.1-.283.079-.416-.084-.261-.32a.4.4,0,0,1,.261-.19c.2.013.579-.289.795-.633a.771.771,0,0,1,.38-.336,2.6,2.6,0,0,0,.716-.759,7.209,7.209,0,0,1,.845-1,3.231,3.231,0,0,0,.531-.6,6.94,6.94,0,0,1,.817-.91,8.123,8.123,0,0,0,.762-.81,6.487,6.487,0,0,1,.941-1.118.32.32,0,0,0,.132-.249.616.616,0,0,1,.252-.358.6.6,0,0,0,.248-.32c.007-.086.14-.22.3-.3s.3-.211.306-.287a1.173,1.173,0,0,1,.361-.421,1.526,1.526,0,0,0,.444-.606,2.226,2.226,0,0,1,.59-.743,4.278,4.278,0,0,0,1.184-1.307,3.926,3.926,0,0,1,.466-.671,1.89,1.89,0,0,0,.36-.6,2.992,2.992,0,0,1,.446-.766,2.154,2.154,0,0,0,.39-.682.182.182,0,0,1,.181-.182c.1.009.173-.084.187-.249a.368.368,0,0,1,.192-.31c.18-.051.181-.539,0-.775a.571.571,0,0,1-.071-.326,2.873,2.873,0,0,0-.361-.9c-.392-.717-.4-.96-.031-.8.187.079.2.062.1-.146a.441.441,0,0,1,.038-.5c.128-.22.127-.27,0-.281a.29.29,0,0,0-.235.09c-.1.133-.611.079-.6-.063.005-.058.089-.131.179-.157.251-.07.23-.237-.033-.26-.131-.011-.212-.089-.2-.194s.079-.152.218-.1c.321.113.372-.175.064-.363a3.1,3.1,0,0,1-.455-.343.439.439,0,0,0-.347-.124c-.113.03-.17-.011-.161-.113s-.09-.168-.254-.182a.46.46,0,0,1-.328-.15c-.041-.084-.1-.08-.167.013-.087.116-.142.113-.318-.016a1.05,1.05,0,0,0-.436-.176,1.6,1.6,0,0,1-.605-.329c-.494-.4-.769-.413-1.158-.044Z" transform="translate(1258.833 -1475.792)"/></g><g transform="translate(-1165.583 1465.728)"><path class="d" d="M-1161.718,1480.085c-.209.06-.515.132-.669.157a13.107,13.107,0,0,0-3.225,1.48.274.274,0,0,1-.221.11c-.5,0-2.6,1.536-3.876,2.843a29.6,29.6,0,0,0-2.983,3.819.453.453,0,0,1-.175.264,22.488,22.488,0,0,0-1.837,2.754c-.669,1.117-2.44,4.61-3.548,7-.819,1.767-1.089,2.389-1.546,3.567-.094.242-.233.587-.31.769a11.91,11.91,0,0,0-.6,1.9,4.774,4.774,0,0,1-.279.873,2.358,2.358,0,0,0-.22.878.882.882,0,0,1-.153.533,2.812,2.812,0,0,0-.285.861c-.039.275-.111.5-.159.5s-.138.164-.2.362a14.824,14.824,0,0,0-.625,2.733,1.914,1.914,0,0,1-.266.96,2.575,2.575,0,0,0-.329.911c-.073.381-.2.994-.3,1.378a3.07,3.07,0,0,0-.093,1.021.563.563,0,0,1-.093.516,2.329,2.329,0,0,0-.233.955,13.65,13.65,0,0,1-.241,1.734c-.04.2-.01.354.079.411.115.075.118.148.011.378a2.678,2.678,0,0,0-.131.878,1.27,1.27,0,0,1-.11.66c-.154.094-.142.229.033.4a.778.778,0,0,1-.005.878c-.362.437-.415,7.628-.073,9.965.031.21.074.757.094,1.207a12.894,12.894,0,0,0,.28,1.866,30.417,30.417,0,0,1,.7,3.348,1.259,1.259,0,0,0,.081.439,1.328,1.328,0,0,1,.049.494,1.591,1.591,0,0,0,.171.713,2.928,2.928,0,0,1,.263.691,3.173,3.173,0,0,0,.231.659,1.363,1.363,0,0,1,.153.422,1.552,1.552,0,0,0,.148.433c.464.966.523,1.14.459,1.35-.039.132-.022.23.04.23a3.1,3.1,0,0,1,.67,1.2,2.349,2.349,0,0,0,.324.588,3.149,3.149,0,0,1,.4.8,2.564,2.564,0,0,0,.137.433.709.709,0,0,1,.077.219c.009.061.023.17.033.247a.182.182,0,0,0,.181.138c.09,0,.252.137.357.3a1.609,1.609,0,0,0,.329.389.282.282,0,0,1,.137.187,1.072,1.072,0,0,0,.28.379c.2.2.261.344.214.5-.036.121-.014.219.049.219a.121.121,0,0,0,.116-.131c0-.169.539.461.544.636a.2.2,0,0,1-.127.182c-.141.054.636.795.834.795.053,0,.179.159.275.346a.72.72,0,0,0,.477.406c.165.033.3.138.3.23s.121.2.275.236.274.1.274.154.121.116.275.153a.928.928,0,0,1,.46.352c.245.375.67.544,2.942,1.164a8.141,8.141,0,0,0,1.427.147c.549.016,1.076.032,1.186.038.45.024.845-.033.845-.12,0-.047.077-.088.165-.088a.157.157,0,0,0,.164-.138c0-.087.029-.1.081-.027.146.2.683.143.752-.077.085-.272.252-.252.371.044.058.142.1.193.107.115a.158.158,0,0,1,.176-.137c.119,0,.15-.066.1-.219-.052-.172-.017-.22.159-.22.143,0,.229.07.236.192s.034.133.066.055a.211.211,0,0,1,.17-.138.671.671,0,0,0,.313-.177,1.934,1.934,0,0,1,1.251-.28,2.169,2.169,0,0,0,1.913-.629.524.524,0,0,1,.331-.236,1.756,1.756,0,0,0,.565-.245,13.64,13.64,0,0,0,2.179-1.671,2.085,2.085,0,0,1,.576-.522,19.082,19.082,0,0,0,2.722-2.583.122.122,0,0,1,.121-.132c.141,0,.529-.439.535-.6a2.626,2.626,0,0,1,.53-.614,8.435,8.435,0,0,0,1.927-2.349,1.158,1.158,0,0,1,.4-.6,3.092,3.092,0,0,0,.878-1.394.261.261,0,0,1,.164-.214.276.276,0,0,0,.165-.241.457.457,0,0,1,.219-.318.469.469,0,0,0,.22-.335.948.948,0,0,1,.247-.466,1.761,1.761,0,0,0,.256-.324,1.618,1.618,0,0,1,.387-.83.652.652,0,0,0,.208-.421,1.4,1.4,0,0,1,.164-.532l.329-.6a.8.8,0,0,1,.411-.362c.2-.049.241-.126.215-.39a.691.691,0,0,1,.175-.549,10.694,10.694,0,0,0,.719-1c.424-.647.494-.823.411-1.037s-.027-.335.406-.8c.474-.505.491-.543.275-.625a.233.233,0,0,1-.173-.318c.063-.253.147-.278.326-.1.1.1.121,0,.088-.384-.041-.482-.029-.511.187-.444s.225.038.159-.379c-.061-.384-.042-.45.126-.45.341,0,.452-.2.313-.559-.13-.341-.036-.547.158-.351.161.161.543-.538.463-.845-.034-.131-.006-.219.07-.219s.1-.082.055-.236c-.056-.186-.035-.222.1-.17s.176.011.178-.121a3.026,3.026,0,0,1,.524-1.371c.219.048.235-.3.022-.484a.6.6,0,0,1-.219-.319c0-.23.241-.306.351-.11a.336.336,0,0,0,.252.176c.187,0,.221-.171.055-.275s-.121-.274.076-.274c.155,0,.143-.041-.065-.236-.143-.133-.21-.263-.154-.3.154-.1.275-.671.143-.671-.061,0-.11-.1-.11-.219,0-.206.017-.209.269-.044a.387.387,0,0,1,.205.494c-.079.4-.01.405.234.033.123-.186.147-.316.076-.406a1.234,1.234,0,0,1-.054-.626c.027-.274.051-.605.054-.746a.585.585,0,0,1,.269-.427c.372-.247.552-.638.644-1.406a1.823,1.823,0,0,1,.184-.724c.065-.041.063-.175-.009-.362-.1-.264-.069-.331.135-.3.042.007.077-.07.077-.169a.764.764,0,0,1,.187-.39c.154-.173.163-.247.049-.433s-.1-.25.061-.373c.11-.082.139-.151.065-.154s-.036-.187.138-.516a2.3,2.3,0,0,0,.269-.966,1.088,1.088,0,0,1,.121-.576c.088-.088.088-.141,0-.2-.2-.122-.136-.518.124-.793.218-.23.222-.264.052-.389s-.17-.2-.049-.686c.076-.307.185-.532.247-.511.157.054.261-.334.149-.553-.141-.275-.117-.418.071-.418.1,0,.169-.1.176-.247s.025-.368.044-.521a.676.676,0,0,0-.142-.472c-.15-.169-.155-.23-.033-.428s.116-.246.005-.313-.093-.126.038-.258a1.243,1.243,0,0,0,.2-1.142,1.1,1.1,0,0,1-.123-.444c0-.145-.115-.256-.357-.346-.34-.125-.345-.136-.11-.225.192-.073.247-.181.247-.489a.93.93,0,0,1,.14-.538,2.233,2.233,0,0,0,.04-1.361.791.791,0,0,1-.01-.461c.055-.253.033-.329-.093-.329-.175,0-.328-.408-.186-.5.172-.107.193-.645.034-.887s-.151-.267.01-.428c.2-.2.227-.446.066-.546a1.4,1.4,0,0,1-.044-.755,1.864,1.864,0,0,0-.17-1.19l-.211-.631v-.017c.044-.242-.133-.868-.246-.868-.054,0-.1-.1-.1-.219s-.049-.219-.11-.219-.11-.071-.11-.17a.254.254,0,0,0-.165-.23.347.347,0,0,1-.164-.318,1.63,1.63,0,0,0-.521-.791,4.919,4.919,0,0,1-.675-.828c-.085-.165-.2-.3-.252-.3a1.618,1.618,0,0,1-.461-.275c-.2-.149-.392-.244-.428-.208s-.141-.082-.236-.268a.865.865,0,0,0-.406-.406,1.433,1.433,0,0,1-.461-.28,1.378,1.378,0,0,0-.615-.275,2.729,2.729,0,0,1-.773-.287,10.947,10.947,0,0,0-3.567-.872c-1.558-.15-3.237-.05-3.237.193,0,.187-.133.2-.308.022-.158-.158-.856.036-1.437.4a4.494,4.494,0,0,1-.835.389,2.068,2.068,0,0,0-1.326.868,2.231,2.231,0,0,1-.644.62.768.768,0,0,0-.433.533c-.075.373-.015.47.187.3.373-.31,1.5-.29,1.5.026a.228.228,0,0,0,.363.206,3.209,3.209,0,0,1,.488-.211c.286-.1.356-.1.356.027a.15.15,0,0,0,.154.154.217.217,0,0,1,.184.373c-.1.116.063.156.831.214a2.422,2.422,0,0,0,1.091-.048,5.9,5.9,0,0,1,2.6.511,2.783,2.783,0,0,0,.9.266c.264,0,.474.148,1.049.741a13.708,13.708,0,0,0,1.229,1.125,2.229,2.229,0,0,1,.515.466,1.417,1.417,0,0,0,.319.384,3.069,3.069,0,0,1,.5.686,2.112,2.112,0,0,0,.428.576c.186.152.2.213.088.291q-.148.1-.028.137a1.8,1.8,0,0,1,.17.851,2.469,2.469,0,0,0,.148.878c.143.1.234.56.11.56-.055,0-.074.159-.044.356s.087.949.126,1.674.09,1.465.113,1.646c.186,1.493.186,1.8,0,1.872-.142.054-.156.106-.06.219s.08.444-.05,1.278c-.1.626-.2,1.4-.224,1.734a7.023,7.023,0,0,1-.683,3.084c-.127.151-.13.23-.015.417s.117.25-.038.368a1.249,1.249,0,0,0-.3.554c-.1.352-.091.4.033.3s.168-.09.223,0c.1.168-.151.768-.327.768-.088,0-.119.087-.082.23s.013.259-.05.3a7.194,7.194,0,0,0-.527,2.083c.031.031-.014.132-.1.23-.216.242-.342.78-.183.78.219,0,.121.506-.142.735a2.129,2.129,0,0,0-.448.976,34.544,34.544,0,0,1-1.357,3.831c-.12.245-.323.68-.461.987a77.869,77.869,0,0,1-4.017,7.848c-.3.511-.935,1.6-1.411,2.414s-1.159,1.9-1.515,2.415-.858,1.252-1.12,1.646a22.6,22.6,0,0,1-5.048,5.182c-2.623,1.986-4.651,2.547-5.938,1.641a3.318,3.318,0,0,0-.559-.348,1.043,1.043,0,0,1-.3-.247c-.129-.135-.445-.436-.7-.664a1.943,1.943,0,0,1-.461-.521c0-.056-.121-.1-.264-.1-.264,0-.4-.23-.442-.735a.918.918,0,0,0-.205-.45.833.833,0,0,1-.187-.285,2.275,2.275,0,0,0-.275-.483,1.608,1.608,0,0,1-.274-.609,1.091,1.091,0,0,0-.2-.494,2.4,2.4,0,0,1-.28-.867,4.84,4.84,0,0,0-.307-1.1,16.3,16.3,0,0,1-.549-1.674c-.176-.636-.392-1.4-.482-1.7a4.624,4.624,0,0,1-.17-.713,7.093,7.093,0,0,0-.2-.878,10.555,10.555,0,0,1-.269-1.344,1.61,1.61,0,0,0-.176-.692.114.114,0,0,1-.044-.165.264.264,0,0,0-.022-.241.849.849,0,0,1-.054-.417,5.54,5.54,0,0,0-.088-.982c-.1-.592-.088-.732.06-.894s.164-.379.093-1.542a19.474,19.474,0,0,1,.028-4.654c.1-.164.115-.265.033-.315-.177-.109-.132-.586.066-.7a.227.227,0,0,0,.115-.281.4.4,0,0,1,.116-.374,2.422,2.422,0,0,0,.47-.724c0-.024-.1-.069-.219-.1-.307-.078-.263-.227.11-.369.231-.087.33-.2.33-.366s-.053-.223-.165-.181-.211-.027-.28-.159c-.095-.181-.065-.259.165-.439s.261-.25.142-.439-.1-.253.176-.494.313-.345.318-.927c0-.362.045-.653.094-.653.16,0,.11-.311-.066-.409-.131-.073-.128-.141.027-.47a2.728,2.728,0,0,1,.242-.439,2.991,2.991,0,0,0,.093-.769,3.628,3.628,0,0,1,.208-1.092,2.87,2.87,0,0,0,.175-.982,3.218,3.218,0,0,1,.192-1.048,6.713,6.713,0,0,0,.324-1.1,3.13,3.13,0,0,1,.274-.856.553.553,0,0,0,.088-.412c-.031-.12-.005-.214.061-.214s.117-.088.119-.187a3.525,3.525,0,0,1,.161-1.1.4.4,0,0,0,.066-.241.468.468,0,0,1,.23-.324c.193-.124.222-.219.176-.582-.038-.3-.01-.451.088-.489a.571.571,0,0,0,.2-.378,4.419,4.419,0,0,1,.285-.812,2.648,2.648,0,0,0,.225-.884,2.336,2.336,0,0,1,.153-.762c.11-.264.121-.4.039-.483s-.04-.192.164-.4a1.443,1.443,0,0,0,.357-.8,1.278,1.278,0,0,1,.351-.768c.209-.2.258-.324.2-.532s.021-.4.318-.807a2.153,2.153,0,0,0,.39-.713,2.626,2.626,0,0,1,.274-.719,2.667,2.667,0,0,0,.274-.713,11.6,11.6,0,0,1,1.236-2.382.694.694,0,0,0,.19-.412.353.353,0,0,1,.11-.28.368.368,0,0,0,.11-.285.309.309,0,0,1,.159-.279.548.548,0,0,0,.225-.362,1.2,1.2,0,0,1,.334-.538.8.8,0,0,0,.269-.45.438.438,0,0,1,.219-.335.407.407,0,0,0,.219-.285,5.262,5.262,0,0,1,1.624-2.265,2.116,2.116,0,0,0,.461-.55c0-.058.121-.2.274-.318a.674.674,0,0,0,.275-.379,1.046,1.046,0,0,1,.329-.483,3.8,3.8,0,0,0,.523-.637c.547-.9,1.087-1.558,1.277-1.558a3.719,3.719,0,0,0,.483-.415,6.406,6.406,0,0,1,1.6-1.239c.252-.125.643-.324.889-.453a2.583,2.583,0,0,1,.6-.247,7.28,7.28,0,0,0,1.569-.732,5.654,5.654,0,0,1,2.074-.2c1.624-.021,1.755-.007,2.069.214a.773.773,0,0,0,.686.165,4.918,4.918,0,0,1,.872-.06l.521.011v-.373c0-.327-.1-.461-.79-1.076-.439-.39-.964-.885-1.18-1.114a1.521,1.521,0,0,0-.516-.412.2.2,0,0,1-.165-.087,5.675,5.675,0,0,0-1.42-1.049,23.424,23.424,0,0,0-3.062-1.154,14.464,14.464,0,0,1-2.25-.787,6.02,6.02,0,0,0-3.786-.645Z" transform="translate(1184.602 -1479.981)"/></g><g transform="translate(-1108.675 1475.261)"><path class="d" d="M-1080.782,1549.545a.827.827,0,0,1,.418-.03,5.509,5.509,0,0,0,1.75-.358.388.388,0,0,1,.251-.1,3.174,3.174,0,0,0,.733-.3,2.989,2.989,0,0,1,.757-.3.3.3,0,0,0,.232-.088,1.93,1.93,0,0,1,.781-.4,4.088,4.088,0,0,0,.782-.443,4.831,4.831,0,0,1,.757-.443c.047,0,.175-.118.289-.266a3.537,3.537,0,0,1,1.024-.79,11.512,11.512,0,0,0,1.711-1.592,8.579,8.579,0,0,0,1-1.09.105.105,0,0,1,.109-.1,9.809,9.809,0,0,0,1.76-1.819,2.511,2.511,0,0,1,.492-.649,2.533,2.533,0,0,0,.492-.649c0-.065.127-.194.285-.287a1.783,1.783,0,0,0,.748-.922.758.758,0,0,1,.147-.293,10.876,10.876,0,0,0,1.574-2.145.807.807,0,0,1,.245-.3.7.7,0,0,0,.246-.359.29.29,0,0,1,.133-.221,1.651,1.651,0,0,0,.347-.472,15.618,15.618,0,0,1,.835-1.368,4.037,4.037,0,0,0,.4-.713.975.975,0,0,1,.231-.354,1.276,1.276,0,0,0,.276-.487.475.475,0,0,1,.2-.315.221.221,0,0,0,.137-.192.412.412,0,0,1,.148-.261.416.416,0,0,0,.147-.266,1.166,1.166,0,0,1,.218-.452,3.407,3.407,0,0,0,.569-1.131.908.908,0,0,1,.2-.389.915.915,0,0,0,.2-.373.419.419,0,0,1,.147-.246.3.3,0,0,0,.089-.31.618.618,0,0,1,.1-.428.772.772,0,0,0,.145-.359c-.036-.256.007-.374.135-.374.158,0,.415-.431.336-.56a.9.9,0,0,1,.132-.5,2.1,2.1,0,0,0,.191-.757,1.851,1.851,0,0,1,.2-.718,8.122,8.122,0,0,0,.747-2.045,2.169,2.169,0,0,1,.241-.974,7.838,7.838,0,0,0,.3-1.278,12.57,12.57,0,0,0,.234-1.573,9.445,9.445,0,0,0,.04-2.517c-.056-.344-.119-.964-.139-1.367a4.707,4.707,0,0,0-.238-1.563,4.277,4.277,0,0,1-.192-.6c-.063-.246-.15-.589-.2-.772a1.481,1.481,0,0,0-.29-.546.774.774,0,0,1-.207-.314.549.549,0,0,0-.2-.266.632.632,0,0,1-.2-.462.476.476,0,0,0-.2-.418.4.4,0,0,1-.2-.25c0-.2-.472-.6-.974-.821a7.07,7.07,0,0,0-1.888-.474,17.561,17.561,0,0,0-3.58.079c-.393.076-.523.067-.649-.046-.177-.158-.58-.184-.58-.036,0,.053-.1.1-.221.1a1.827,1.827,0,0,0-.649.246,1.878,1.878,0,0,1-.595.246,1.784,1.784,0,0,0-.556.2,2.347,2.347,0,0,1-.668.231.628.628,0,0,0-.453.3c-.094.148-.212.27-.261.27-.171,0-.313.2-.377.521a.742.742,0,0,1-.193.413,2.884,2.884,0,0,0-.442.669,2.376,2.376,0,0,0-.335,1.131l-.019.541.541-.01a2.5,2.5,0,0,0,.979-.221,2.374,2.374,0,0,1,.565-.212.119.119,0,0,0,.128-.1c0-.054.211-.192.467-.3s.672-.312.92-.441a2.415,2.415,0,0,1,1.9-.189c.344.118.5.135.531.059.021-.059.138-.108.256-.108a.54.54,0,0,0,.329-.113c.085-.085.2-.061.467.1a1.474,1.474,0,0,0,.59.211,3.87,3.87,0,0,1,2.518,1.642c.4.651.572,1.9.577,4.21a14.933,14.933,0,0,1-.229,3.1,35.883,35.883,0,0,1-.944,3.983c-.046.108-.251.639-.456,1.18a37.394,37.394,0,0,1-2.31,4.622c-.266.433-.513.853-.55.934-.056.124-.225.4-.8,1.327-.065.106-.2.324-.291.472a75.693,75.693,0,0,1-4.349,6.274c-.354.382-.774.866-1.23,1.417a5.511,5.511,0,0,1-.63.678c-.08.049-.477.405-.89.8-1.111,1.052-1.664,1.544-2.242,2a6.2,6.2,0,0,1-3.3,1.421c-.373.005-.466-.042-.8-.407-.2-.226-.4-.389-.423-.359s-.192-.231-.369-.585a3.245,3.245,0,0,0-.575-.846c-.138-.111-.245-.261-.233-.324.036-.187-.12-.649-.219-.649-.056,0-.1-.089-.1-.207a1.641,1.641,0,0,0-.13-.511,12.026,12.026,0,0,1-.459-2.223c0-.118-.042-.192-.093-.162a.1.1,0,0,1-.148-.035c-.03-.049.039-.112.158-.142.166-.042.2-.1.147-.28-.035-.125-.11-.669-.167-1.21s-.125-1.059-.152-1.15-.069-.768-.093-1.505c-.041-1.229-.03-1.333.128-1.283s.173-.064.189-1.3a18.155,18.155,0,0,1,.42-3.855c.355-1.9,1-4.716,1.177-5.163.115-.286.287-.787.557-1.623a10.54,10.54,0,0,1,.435-1.131c.108-.215.355-.817.546-1.327s.392-1.012.442-1.107a.766.766,0,0,0,.093-.3.576.576,0,0,1,.2-.31.6.6,0,0,0,.2-.266,2.638,2.638,0,0,1,.413-.868,3.084,3.084,0,0,0,.479-.932,1.156,1.156,0,0,1,.293-.384,1,1,0,0,0,.29-.422c0-.126.047-.236.318-.748.064-.12.17-.324.24-.462a7.708,7.708,0,0,1,.918-1.18,5.1,5.1,0,0,0,.607-.964,7.609,7.609,0,0,1,.779-.989,3.353,3.353,0,0,0,.58-.757.963.963,0,0,1,.3-.4,1.021,1.021,0,0,0,.3-.384c0-.057.2-.243.442-.418s.443-.358.443-.413a4.792,4.792,0,0,1,1.259-1.544,5.988,5.988,0,0,0,.806-.88c0-.053.216-.221.492-.384a1.639,1.639,0,0,0,.491-.364c0-.038.064-.073.133-.073a.736.736,0,0,0,.359-.246.708.708,0,0,1,.556-.246.478.478,0,0,0,.452-.2.418.418,0,0,1,.3-.2.647.647,0,0,0,.354-.172l.575-.546a2.9,2.9,0,0,1,1.417-.673,12.057,12.057,0,0,1,1.465-.349,3.208,3.208,0,0,0,.856-.246c.324-.155.456-.172.614-.084a.374.374,0,0,0,.295.054,2.735,2.735,0,0,1,.846.138l.752.2.3-.216c.272-.2.29-.251.226-.654-.059-.375-.162-.528-.723-1.072-.361-.351-1.027-.92-1.49-1.273s-.857-.666-.884-.7a11.372,11.372,0,0,0-1.644-1.027,4.025,4.025,0,0,0-.983-.322,9.094,9.094,0,0,1-2.39-.876c-1.534-.769-2.068-.859-2.566-.43a2.346,2.346,0,0,1-.7.329,28.49,28.49,0,0,0-3.57,1.809,18.02,18.02,0,0,0-3.633,2.877,18.475,18.475,0,0,0-1.27,1.421c-.116.176-.566.747-1,1.269a14.714,14.714,0,0,0-.934,1.215,1.186,1.186,0,0,1-.27.344.341.341,0,0,0-.123.27c0,.108-.06.192-.138.192s-.273.241-.433.526a4.513,4.513,0,0,1-.6.826,1.061,1.061,0,0,0-.305.438,1.534,1.534,0,0,1-.29.526,1.811,1.811,0,0,0-.295.5,1.979,1.979,0,0,1-.3.516,1.659,1.659,0,0,0-.3.551,1.2,1.2,0,0,1-.279.467,11,11,0,0,0-1.294,2.626c0,.118-.036.206-.084.206s-.13.1-.186.216a15.624,15.624,0,0,0-.758,1.9c-.144.433-.343.964-.443,1.18s-.3.767-.453,1.229-.328.95-.4,1.092a13.537,13.537,0,0,0-.727,2.281,3.372,3.372,0,0,1-.192.752c-.107.3-.234.719-.287.94-.1.413-.376,1.45-.462,1.74-.038.13,0,.177.149.177s.2.059.2.227c0,.275-.244.641-.354.531-.043-.043-.134.157-.2.443a1.168,1.168,0,0,0-.039.6c.046.046.02.212-.059.369a1.368,1.368,0,0,0-.1.654c.035.325.049.342.116.143.091-.269.315-.236.266.039-.045.256-.206.433-.392.433-.115,0-.133.084-.083.388.038.226.021.415-.039.452a.766.766,0,0,0-.1.477,13,13,0,0,1-.1,2.675.379.379,0,0,0-.018.344c.115.334.087.632-.058.6-.069-.013-.1.021-.069.074a.1.1,0,0,0,.142.049c.045-.026.11.019.14.1a3.806,3.806,0,0,1-.155,1.531,6.165,6.165,0,0,0,.224,2.069c.055.255.116.622.135.821a1.135,1.135,0,0,0,.147.492c.076.088.077.155,0,.2a.646.646,0,0,0,.01.7c.051.032.07.149.039.248s-.016.187.044.187.1.1.1.221a3.982,3.982,0,0,0,.158.762c.085.3.193.7.236.886a5.035,5.035,0,0,0,.246.732,2.9,2.9,0,0,1,.2.743,2.96,2.96,0,0,0,.687,1.515,1.886,1.886,0,0,1,.349.619c0,.187.322.616.458.618a1.584,1.584,0,0,1,.4.395c.227.276.307.453.266.59-.033.108-.015.2.039.2s.173.158.262.344c.172.364.3.48,1.3,1.192a6.767,6.767,0,0,0,2.174,1.136,19.888,19.888,0,0,0,2.026.465,2.282,2.282,0,0,1,.281-.093Zm-9.552-18.218C-1090.353,1531.229-1090.287,1531.573-1090.334,1531.327Zm.32-4.406Z" transform="translate(1090.713 -1495.708)"/></g><g transform="translate(-1075.088 1460.263)"><path class="d" d="M-1014.758,1470.969a7.634,7.634,0,0,0-3.9,1.947,16.974,16.974,0,0,0-4.085,6.628c-.238.72-1.527,6.281-1.733,7.472l-.082.473-3.889-.312c-4.448-.357-4.808-.42-4.711-.83.167-.7-.729-.23-.961.505a1.206,1.206,0,0,1-.352.534,1.447,1.447,0,0,0-.576,1.278,5.622,5.622,0,0,1-.208,2.277.56.56,0,0,0,.021.5c.121.2.275.233.992.2a5.462,5.462,0,0,0,.964-.1,9.781,9.781,0,0,1,1.418-.03,14.044,14.044,0,0,0,1.555-.026,7.283,7.283,0,0,1,1.128-.009,3.208,3.208,0,0,0,1.064-.07,2.3,2.3,0,0,1,.935-.012,5.415,5.415,0,0,0,1.291.013c.321-.052.587-.037.649.037a12.115,12.115,0,0,1-.251,2.424c-.258,1.656-.436,3.651-.641,7.15-.156,2.666-.327,5.406-.381,6.081s-.136,3.011-.185,5.205-.121,4.988-.16,6.232-.054,2.757-.034,3.364.025,1.947.009,2.962.011,2.777.06,3.922.11,2.562.135,3.173.132,2.155.24,3.457.219,2.755.25,3.252a68.05,68.05,0,0,0,.933,7.3,10.4,10.4,0,0,1,.219,1.325,6,6,0,0,0,.975,2.308,2.8,2.8,0,0,0,2.722.906,10.013,10.013,0,0,1,1.515-.108l1.024,0,.163-1.284a5.185,5.185,0,0,1,.313-1.435c.2-.2-.046-.7-.406-.833-.186-.067-.219-.154-.125-.328a1.531,1.531,0,0,0,.233-1.092,4.1,4.1,0,0,1-.142-1.208,4.033,4.033,0,0,0-.242-1.4,1.286,1.286,0,0,1-.015-.62,1.353,1.353,0,0,0-.011-.62,10.018,10.018,0,0,1-.043-2.518,1.673,1.673,0,0,0-.05-.768,1.534,1.534,0,0,1,.055-.84,2.852,2.852,0,0,0,.13-.758,11.307,11.307,0,0,1-.158-2.048,8.633,8.633,0,0,0-.035-1.157c-.039-.448,0-1.965.09-3.359.182-2.856.184-3.842.011-4.108a.255.255,0,0,1,.051-.367,1.486,1.486,0,0,0-.1-1.411c-.162-.194-.153-.254.076-.467s.281-.483.369-1.588a7.983,7.983,0,0,0,0-1.725c-.137-.479-.058-1.421.127-1.512a3.271,3.271,0,0,0,.2-1.3,3.825,3.825,0,0,1,.184-1.292c.158-.081.219-.649.086-.807a1.214,1.214,0,0,1-.076-.536c.006-.233.011-.527.01-.638a11.447,11.447,0,0,1,.35-2.223,1.17,1.17,0,0,0,.054-.7,12.965,12.965,0,0,1,.134-3.052,2.116,2.116,0,0,0-.033-.9,1.2,1.2,0,0,1,.029-.7,11.471,11.471,0,0,0,.218-1.664,4.1,4.1,0,0,1,.174-1.178,17.932,17.932,0,0,0,.289-3.665.573.573,0,0,1,.156-.6,2.584,2.584,0,0,0,.392-1.154,10.621,10.621,0,0,1,.24-1.146c.044-.114.24-1.236.438-2.51a13.978,13.978,0,0,1,.5-2.422.605.605,0,0,0,.163-.363c.016-.181.124-.236.41-.21a1.4,1.4,0,0,0,.768-.213c.357-.233.5-.233,2.288.005a13.2,13.2,0,0,0,2.052.181,39.84,39.84,0,0,1,4.585.209,10.787,10.787,0,0,0,3.055.1c.531-.369-.139-2.134-1.023-2.7a5.512,5.512,0,0,0-2.394-.436c-1.078-.089-3.406-.332-5.16-.538s-3.356-.39-3.551-.408c-.321-.029-.356-.094-.371-.686a1.609,1.609,0,0,1,.1-.76c.064-.057.067-.262.005-.446a.725.725,0,0,1,.074-.674,1.2,1.2,0,0,0,.135-.661.942.942,0,0,1,.18-.63,6.148,6.148,0,0,0,.509-1.583,14.341,14.341,0,0,1,.808-2.745,7.04,7.04,0,0,0,.278-.889,6.4,6.4,0,0,1,.6-1.258,2.986,2.986,0,0,1,2.046-1.609,2.921,2.921,0,0,0,.676-.263,3.334,3.334,0,0,1,1.189-.079,9.954,9.954,0,0,0,1.063.026,3.888,3.888,0,0,1,.619-.007,4.809,4.809,0,0,0,1.747-.331c.359-.135.384-.714.052-1.2a7.63,7.63,0,0,0-3.159-1.7c-.444-.132-1.309-.423-1.935-.65a21.708,21.708,0,0,0-4.24-.985c-.224-.008-.755-.009-1.168,0Z" transform="translate(1035.3 -1470.964)"/></g><g transform="translate(-1044.042 1458.785)"><path class="d" d="M-963.537,1468.531a7.641,7.641,0,0,0-3.9,1.946,16.988,16.988,0,0,0-4.085,6.629c-.238.72-1.527,6.281-1.733,7.472l-.082.474-3.889-.312c-4.448-.357-4.808-.421-4.711-.83.167-.7-.729-.23-.961.5a1.2,1.2,0,0,1-.352.535,1.447,1.447,0,0,0-.576,1.278,5.623,5.623,0,0,1-.208,2.276.56.56,0,0,0,.021.5c.121.2.275.233.992.2a5.474,5.474,0,0,0,.964-.1,9.726,9.726,0,0,1,1.418-.031,13.887,13.887,0,0,0,1.555-.026,7.324,7.324,0,0,1,1.128-.008,3.2,3.2,0,0,0,1.064-.07,2.3,2.3,0,0,1,.935-.012,5.441,5.441,0,0,0,1.291.013.944.944,0,0,1,.649.037,12.137,12.137,0,0,1-.252,2.424c-.258,1.656-.436,3.651-.641,7.151-.156,2.666-.327,5.406-.38,6.081s-.136,3.011-.185,5.205-.121,4.988-.16,6.232-.054,2.757-.034,3.364.025,1.946.009,2.962.012,2.777.061,3.922.11,2.562.135,3.172.133,2.156.24,3.457.219,2.755.25,3.252a68.023,68.023,0,0,0,.933,7.3,10.3,10.3,0,0,1,.219,1.325,6.012,6.012,0,0,0,.975,2.308,2.8,2.8,0,0,0,2.722.906,10.023,10.023,0,0,1,1.515-.108l1.024,0,.163-1.284a5.2,5.2,0,0,1,.313-1.436c.2-.2-.046-.7-.406-.833-.186-.068-.219-.154-.125-.328a1.527,1.527,0,0,0,.233-1.092,4.107,4.107,0,0,1-.142-1.208,4.028,4.028,0,0,0-.242-1.4,1.289,1.289,0,0,1-.015-.62,1.334,1.334,0,0,0-.011-.62,10.016,10.016,0,0,1-.043-2.518,1.674,1.674,0,0,0-.05-.767,1.532,1.532,0,0,1,.055-.84,2.857,2.857,0,0,0,.129-.758,11.317,11.317,0,0,1-.157-2.048,8.749,8.749,0,0,0-.035-1.158c-.039-.448,0-1.965.09-3.359.181-2.856.184-3.842.012-4.108a.255.255,0,0,1,.05-.366,1.486,1.486,0,0,0-.1-1.411c-.162-.194-.152-.254.076-.467s.281-.483.369-1.589a7.928,7.928,0,0,0,0-1.725c-.136-.479-.058-1.421.127-1.512a3.272,3.272,0,0,0,.2-1.3,3.825,3.825,0,0,1,.184-1.292c.159-.081.219-.648.086-.807a1.221,1.221,0,0,1-.075-.536c.006-.233.01-.526.009-.638a11.467,11.467,0,0,1,.35-2.223,1.165,1.165,0,0,0,.054-.7,12.964,12.964,0,0,1,.135-3.052,2.114,2.114,0,0,0-.033-.9,1.2,1.2,0,0,1,.029-.7,11.508,11.508,0,0,0,.218-1.665,4.112,4.112,0,0,1,.175-1.178,17.95,17.95,0,0,0,.288-3.665.574.574,0,0,1,.156-.6,2.582,2.582,0,0,0,.392-1.153,10.881,10.881,0,0,1,.24-1.147c.044-.113.24-1.236.438-2.51a13.946,13.946,0,0,1,.5-2.422.6.6,0,0,0,.163-.363c.016-.181.124-.236.41-.21a1.4,1.4,0,0,0,.768-.213c.356-.233.495-.232,2.288.006a13.271,13.271,0,0,0,2.052.181,39.865,39.865,0,0,1,4.585.209,10.773,10.773,0,0,0,3.055.1c.531-.368-.139-2.133-1.023-2.7a5.527,5.527,0,0,0-2.393-.435c-1.078-.089-3.406-.332-5.16-.538s-3.356-.39-3.551-.408c-.321-.028-.356-.094-.371-.686a1.6,1.6,0,0,1,.1-.76c.065-.057.067-.262.005-.446a.726.726,0,0,1,.074-.674,1.2,1.2,0,0,0,.135-.661.945.945,0,0,1,.18-.63,6.157,6.157,0,0,0,.509-1.583,14.334,14.334,0,0,1,.808-2.745,7.025,7.025,0,0,0,.278-.889,6.425,6.425,0,0,1,.6-1.259,2.989,2.989,0,0,1,2.046-1.609,2.928,2.928,0,0,0,.676-.263,3.345,3.345,0,0,1,1.189-.079,9.822,9.822,0,0,0,1.063.027,3.927,3.927,0,0,1,.619-.007,4.789,4.789,0,0,0,1.747-.331c.359-.134.384-.713.051-1.2a7.633,7.633,0,0,0-3.158-1.7c-.444-.132-1.309-.423-1.934-.65a21.729,21.729,0,0,0-4.241-.985c-.224-.009-.755-.009-1.168,0Z" transform="translate(984.079 -1468.526)"/></g><g transform="translate(-941.749 1432.222)"><g transform="translate(0)"><path class="f" d="M627.815,191.143c-1.828-3.883-.828-8.588,1.3-12.314s5.265-6.753,8.038-10.029a63.067,63.067,0,0,0,13.69-28.526c1.689,5.877,3.39,11.825,3.622,17.936s-1.151,12.5-5.034,17.222c-5.571,6.779-15.144,9-21.273,15.278Z" transform="translate(-626.653 -140.08)"/><path class="f" d="M651.515,172.287c-5.028,9.227-16.263,11.372-23.377,18.412a.2.2,0,0,1-.278-.277c5.489-5.432,13.117-7.744,18.864-12.808,6.238-5.505,8.021-13.961,7.219-21.957a77.333,77.333,0,0,0-2.784-13.159c-.335-1.185-.147-1.893-.65-.582-.047.125-.09.252-.126.383-.22.707-.325,1.5-.514,2.2-.042.158-.084.31-.131.467-.435,1.557-.928,3.1-1.479,4.614A63.335,63.335,0,0,1,637.7,168.1c-4.661,5.673-11.932,12.121-10.679,19.99a11.713,11.713,0,0,0,.367,1.573,10.8,10.8,0,0,0,.409,1.148,1.259,1.259,0,0,0,.047.126c.1.231-.283.335-.377.1-.074-.178-.147-.356-.21-.535a11.384,11.384,0,0,1-.461-1.557c-1.888-8.179,5.484-14.958,10.344-20.787a63.169,63.169,0,0,0,12.535-24.578q.346-1.305.629-2.626c.068-.3.131-.593.189-.891a.2.2,0,0,1,.383,0C653.837,150.393,657.009,162.2,651.515,172.287Z" transform="translate(-626.493 -139.929)"/></g><g transform="translate(5.116 2.697)"><path class="g" d="M635.683,173.619c.805-3.879.266-7.9.374-11.856.157-5.794,1.7-11.451,3.234-17.042,1.754,3.753,3.414,7.706,3.369,11.848a24.308,24.308,0,0,1-2.11,8.757,30.573,30.573,0,0,1-4.966,8.659Z" transform="translate(-635.583 -144.721)"/></g><g transform="translate(0.303 1.033)"><path class="h" d="M644.876,168.838c-5.342,6.878-15.618,12.656-17.254,21.632q-.047.236-.079.472v.006c-.021.126-.037.241-.052.367a11.367,11.367,0,0,1-.461-1.557c.026-.126.058-.252.089-.372v-.006c.042-.162.089-.32.137-.482,1.992-6.606,8.336-11.644,13.243-16.425a28.984,28.984,0,0,0,8.719-15.319,49,49,0,0,0,.755-11.382c-.011-.215-.016-.435-.026-.65v-.01c-.011-.236-.021-.482-.037-.719q.346-1.305.629-2.627c.016.252.032.5.042.75v.011c.016.189.026.383.037.577C651.089,152.119,650.638,161.424,644.876,168.838Z" transform="translate(-627.03 -141.764)"/></g><g transform="translate(4.93 2.501)"><path class="h" d="M636.025,172.778c-.036.168-.084.335-.125.5-.037.147-.074.288-.115.435-.063.084-.136.173-.2.257-.163.194-.441-.084-.278-.278a.93.93,0,0,0,.089-.115.2.2,0,0,1-.042-.168c.152-.828.252-1.662.32-2.5.1-.42.2-.844.294-1.269.062-.272.12-.55.178-.828a102.066,102.066,0,0,0,2.265-21.2c.005-.115.005-.231.005-.351,0-.247,0-.487-.005-.734.184-.676.367-1.347.55-2.024a.2.2,0,0,1,.2-.141c.005.078.005.146.005.225v.005c.011.32.016.645.021.965A103.281,103.281,0,0,1,636.025,172.778Z" transform="translate(-635.252 -144.373)"/></g></g><g transform="translate(-1138.878 1519.699)"><g transform="translate(37.925)"><path class="g" d="M168.5,361.918c-11.265,7.385-15.559,22.388-26.65,30.032,5.714.651,11.941-.35,16.182-4.234,3.4-3.118,5.1-7.662,6.255-12.132s1.887-9.1,3.873-13.266Z" transform="translate(-141.342 -361.382)"/><path class="g" d="M168.165,361.237a.283.283,0,0,0-.1.045c-11.366,7.751-15.525,22.069-26.653,30.036a.516.516,0,0,0-.015.872.531.531,0,0,0,.276.1,30.674,30.674,0,0,0,4.3.112c5.538-.261,10.9-2.176,14.347-6.864,4.912-6.671,4.785-15.525,8.02-22.926.03-.067.06-.142.089-.209a.3.3,0,0,0,.037-.134c.037-.03.082-.052.119-.082C169.111,361.833,168.679,361.013,168.165,361.237Zm-19.281,29.775a22.96,22.96,0,0,1-3.138.343c-.879.037-1.759.037-2.646-.007,9.339-7.364,13.721-19.251,22.635-26.966.38-.328.768-.648,1.163-.954-.268.708-.507,1.424-.738,2.139-1.729,5.53-2.378,11.411-5.016,16.621A16.306,16.306,0,0,1,148.883,391.012Z" transform="translate(-141.167 -361.199)"/></g><g transform="translate(0 15.082)"><path class="f" d="M136.572,382.3c-15.454-1.326-30.014,9.2-45.495,8.237,4.71,4.654,11.061,8.178,17.665,7.677,5.3-.4,10.072-3.307,14.294-6.536s8.181-6.9,12.943-9.257Z" transform="translate(-90.485 -381.626)"/><path class="f" d="M136.438,381.52c-.022,0-.045-.007-.067-.007-1.245-.082-2.482-.1-3.712-.06h-.007c-14.288.514-27.279,8.944-41.775,8.3a.56.56,0,0,0-.477.238.61.61,0,0,0,.052.783q.447.425.917.85c5.642,5.046,13,8.489,20.668,6.4,9.376-2.549,15.644-10.882,24.044-15.272a.354.354,0,0,0,.067-.045c.075,0,.149,0,.224.007C137.117,382.765,137.139,381.64,136.438,381.52Zm-43.877,9.465c12.737-.022,24.364-6.648,36.841-8.079.961-.112,1.923-.194,2.9-.231.507-.03,1.014-.045,1.528-.045-6.328,3.779-11.4,9.4-18.044,12.67-7.341,3.615-14.623,2.02-20.765-2.311a29.3,29.3,0,0,1-2.556-2Z" transform="translate(-90.283 -381.434)"/></g><g transform="translate(38.158)"><path class="i" d="M168.669,362.184c-.037.03-.082.052-.119.082a.3.3,0,0,1-.037.134c-.03.067-.06.142-.089.209-.417.492-.812,1.006-1.215,1.55v.007c-.328.455-.648.917-.969,1.4-5.53,8.385-9.182,20.5-17.276,25.445a13.083,13.083,0,0,1-1.528.82,12.443,12.443,0,0,1-1.379.566,30.674,30.674,0,0,1-4.3-.112.531.531,0,0,1-.276-.1c.171-.007.35-.015.522-.03.037,0,.075-.007.112-.007a14.257,14.257,0,0,0,1.64-.231,13.244,13.244,0,0,0,2.072-.566c10.047-3.578,13.781-17.753,19.989-26.973.388-.574.79-1.133,1.2-1.662.164-.224.343-.44.514-.656l.007-.007c.119-.149.246-.3.373-.44a4.072,4.072,0,0,1,.335-.38C168.759,361.013,169.191,361.833,168.669,362.184Z" transform="translate(-141.48 -361.199)"/></g><g transform="translate(0 15.082)"><path class="i" d="M136.438,381.52c-.224.037-.447.075-.663.119-.082.015-.164.03-.246.052-.425.082-.842.186-1.252.306a17.61,17.61,0,0,0-1.975.678c-3.7,1.491-6.931,4-10.345,6.238A32.108,32.108,0,0,1,109.8,393.93a31.742,31.742,0,0,1-14.78-.939c-.663-.2-1.327-.432-1.975-.678-.007,0-.007-.007-.015-.007-.559-.209-1.118-.44-1.662-.686q-.47-.425-.917-.85a.61.61,0,0,1-.052-.783c.239.127.484.246.73.358.015.015.022.022.03.022h.007c.4.194.8.373,1.2.537a1.51,1.51,0,0,0,.194.082,30.366,30.366,0,0,0,21.085.924c5.8-1.908,10.457-6.208,15.756-9,.552-.291,1.111-.566,1.684-.82h.015c.507-.231,1.021-.447,1.55-.634h.007c1.23-.037,2.467-.022,3.712.06C136.394,381.513,136.416,381.52,136.438,381.52Z" transform="translate(-90.283 -381.434)"/></g></g><g transform="translate(-1118.47 1449.833) rotate(17)"><path class="g" d="M17.829,24.479a4.916,4.916,0,0,1-1.8,1.911.841.841,0,0,1-.132.066,1.7,1.7,0,0,1-.37.124,2.341,2.341,0,0,1-.237.038.4.4,0,0,1-.1.009,2.875,2.875,0,0,1-.4,0h-.01a1.692,1.692,0,0,1-.208-.038c-.018-.009-.047-.009-.066-.019a1.273,1.273,0,0,1-.378-.142l.552.2c-.264-.114-.648.019-.912-.114A33.292,33.292,0,0,1,.785,16.326,2.216,2.216,0,0,1,.2,13.839c0-.009.01-.009.01-.019a1.756,1.756,0,0,1,.454-.529,2.108,2.108,0,0,1,1.315-.473C3.538,12.8,4.654,13.9,5.741,14.889a5.055,5.055,0,0,0,3.2,1.637,17.191,17.191,0,0,1-6-13.658,1.342,1.342,0,0,1,.1-.492,1.418,1.418,0,0,1,.473-.643,1.451,1.451,0,0,1,1.987.217,33.77,33.77,0,0,1,6.233,10.281,19.527,19.527,0,0,1-.388-10.2A4.346,4.346,0,0,1,11.842.758,1.723,1.723,0,0,1,12.57.106a1.341,1.341,0,0,1,.6-.1A1.932,1.932,0,0,1,14.86,1.316a37.285,37.285,0,0,1,2.071,9.174A16.586,16.586,0,0,1,17.6,4.674a3.419,3.419,0,0,1,.35-.833,1.521,1.521,0,0,1,.615-.671,1.009,1.009,0,0,1,.255-.1c1.069-.274,1.816,1.032,2.081,2.1A25.407,25.407,0,0,1,17.829,24.479Z" transform="translate(0 0)"/><g class="j" transform="translate(3.045 1.732)"><path class="i" d="M12.249,24.885a.4.4,0,0,1-.1.009,2.875,2.875,0,0,1-.4,0h-.01a1.692,1.692,0,0,1-.208-.038C11.332,15.635,3.964,8.683,0,.643A1.418,1.418,0,0,1,.473,0C4.106,7.576,10.783,14.149,12.051,22.454v.009a16.349,16.349,0,0,1,.189,2.166A1.137,1.137,0,0,1,12.249,24.885Z" transform="translate(0)"/></g><g class="j" transform="translate(11.837 0.106)"><path class="i" d="M3.921,24.894c-.057.52-.142,1.05-.227,1.58a2.341,2.341,0,0,1-.237.038.4.4,0,0,1-.1.009,2.875,2.875,0,0,1-.4,0c.132-.813.237-1.626.3-2.431v-.009a34.591,34.591,0,0,0-1.2-12.259C1.026,8.048-.081,4.53,0,.652A1.723,1.723,0,0,1,.733,0C.421,5.7,2.946,10.783,3.826,16.343A30.145,30.145,0,0,1,3.921,24.894Z" transform="translate(0)"/></g><g class="j" transform="translate(15.19 3.17)"><path class="i" d="M.842,23.22a.841.841,0,0,1-.132.066,1.7,1.7,0,0,1-.37.124,2.34,2.34,0,0,1-.237.038.4.4,0,0,1-.1.009c.038-.085.066-.18.094-.265.171-.454.331-.908.473-1.361A48.146,48.146,0,0,0,2.762.671,1.521,1.521,0,0,1,3.377,0,48.841,48.841,0,0,1,.842,23.22Z" transform="translate(0 0)"/></g><g class="j" transform="translate(0.209 13.291)"><path class="i" d="M14.475,13.336c-.264-.114-.648.019-.912-.114-.039-.16-.076-.312-.124-.463-.009-.048-.028-.094-.038-.133-1.153-3.84-4.048-6.374-7.793-8.351A22.1,22.1,0,0,1,0,.529,1.756,1.756,0,0,1,.454,0C3.1,2.685,6.914,3.7,9.874,6.053A12.36,12.36,0,0,1,14.3,13.279a1.273,1.273,0,0,1-.378-.142Z" transform="translate(0 0)"/></g></g><g transform="translate(-857.75 1531.309)"><path class="g" d="M113.415,135.74a10.75,10.75,0,0,1-3.564,2.294,4.359,4.359,0,0,1,1.84.2,2.583,2.583,0,0,1,1.713,1.805,1.183,1.183,0,0,1,.035.279,1.839,1.839,0,0,1-.118.885,4.655,4.655,0,0,1-2.282,2.272,26.082,26.082,0,0,1-11.763,3.307c-.151,0-.315.012-.466.012a8.339,8.339,0,0,1-.931-.024,8.519,8.519,0,0,1-1.538-.21,4.324,4.324,0,0,1-.548-.139,3.111,3.111,0,0,1-.3-.094,2.407,2.407,0,0,1-.408-.163.36.36,0,0,1-.116-.047,4.463,4.463,0,0,1-.664-.36,3.5,3.5,0,0,1-.688-.548l.256.408a3.283,3.283,0,0,1-.268-.291,12.52,12.52,0,0,1-.828-.944,23.93,23.93,0,0,1-5.125-10.8.706.706,0,0,1,.245-.7.74.74,0,0,1,.758-.175,4.1,4.1,0,0,1,.489.175,11.337,11.337,0,0,1,5.438,4.227A19.223,19.223,0,0,1,94,125.549a3.577,3.577,0,0,1,.314-.839,1.274,1.274,0,0,1,.723-.675c.011,0,.011,0,.023-.012.933-.291,1.713.769,2.1,1.678a39.4,39.4,0,0,1,2.6,8.6,14.681,14.681,0,0,1,5.368-8.152c.979-.734,2.2-1.386,3.4-.9a2.92,2.92,0,0,1,.269.129,2.43,2.43,0,0,1,.478.349,3.1,3.1,0,0,1,.861,2.807c-.28,1.724-1.538,2.959-2.842,4.077,1.409-1.118,2.958-2.143,4.822-1.957a2.947,2.947,0,0,1,2.387,1.6c.048.105.094.221.129.326a2.257,2.257,0,0,1,.093.909A3.822,3.822,0,0,1,113.415,135.74Z" transform="translate(-87.636 -123.974)"/><g class="j" transform="translate(7.854 8.598)"><path class="i" d="M113.147,131.76c-7.255,2.69-14.791,6.045-18.378,13.078a4.332,4.332,0,0,1-.548-.139,3.107,3.107,0,0,1-.3-.094,17.362,17.362,0,0,1,1.444-2.423c4.064-5.788,10.959-8.828,17.691-11.332A2.257,2.257,0,0,1,113.147,131.76Z" transform="translate(-93.919 -130.851)"/></g><g class="j" transform="translate(10.242 16.343)"><path class="i" d="M111.389,137.046a1.839,1.839,0,0,1-.118.885,29.462,29.462,0,0,0-14.045,5.578c-.151,0-.315.012-.466.012a8.339,8.339,0,0,1-.931-.024A30.475,30.475,0,0,1,111.389,137.046Z" transform="translate(-95.829 -137.046)"/></g><g class="j" transform="translate(7.33 1.272)"><path class="i" d="M107.8,125.469a72.693,72.693,0,0,0-12.334,18.18c-.408.828-.78,1.667-1.141,2.517a3.107,3.107,0,0,1-.3-.094,2.41,2.41,0,0,1-.408-.163.36.36,0,0,1-.116-.048c.128-.3.256-.594.4-.9a73.91,73.91,0,0,1,13.159-19.974,2.92,2.92,0,0,1,.269.129A2.428,2.428,0,0,1,107.8,125.469Z" transform="translate(-93.5 -124.991)"/></g><g class="j" transform="translate(6.667 0.049)"><path class="i" d="M94.029,145.21c-.094.315-.188.629-.28.944a.36.36,0,0,1-.116-.048,4.461,4.461,0,0,1-.664-.36c2.119-6.884,1.536-13.976.011-21.046a1.274,1.274,0,0,1,.723-.675c.011,0,.011,0,.022-.013C95.287,131.129,95.938,138.269,94.029,145.21Z" transform="translate(-92.969 -124.013)"/></g><g class="j" transform="translate(0.261 8.699)"><path class="i" d="M93.563,143.455v.012a.408.408,0,0,1-.011.116,12.518,12.518,0,0,1-.828-.944,15.487,15.487,0,0,0-4.879-11.494.74.74,0,0,1,.758-.175,4.1,4.1,0,0,1,.489.175A16.219,16.219,0,0,1,93.563,143.455Z" transform="translate(-87.845 -130.932)"/></g></g><g transform="translate(-1732.731 906.729) rotate(8)"><path class="c" d="M1027.7,443.7a11.772,11.772,0,0,1,6.784-.02" transform="translate(-8.368 -6.186)"/><path class="b" d="M1067.094,443.818a44.589,44.589,0,0,1,11.282,2.818" transform="translate(-26.663 -6.48)"/><path class="a" d="M1048.081,429.929a38.378,38.378,0,0,1,7.326.282" transform="translate(-17.833)"/></g><g transform="translate(-1015.975 1494.798)"><path class="d" d="M-895.637,1528.449l-.39,1.133h3.8l-.671,1.947h-3.746l-3.826,11.114h-2.366l3.826-11.114h-2.218l.67-1.947h2.218l.4-1.157a5.946,5.946,0,0,1,5.765-4.214,3.332,3.332,0,0,1,2.4.764l-1.335,1.8a2.226,2.226,0,0,0-1.611-.616A2.964,2.964,0,0,0-895.637,1528.449Z" transform="translate(901.841 -1524.211)"/><path class="d" d="M-889.121,1539.524a9.946,9.946,0,0,1,9.094-6.654c3.919,0,5.828,2.76,4.487,6.654a9.95,9.95,0,0,1-9.078,6.677C-888.536,1546.2-890.462,1543.417-889.121,1539.524Zm11.19,0c.959-2.785-.3-4.584-2.809-4.584a6.589,6.589,0,0,0-5.99,4.584c-.959,2.784.311,4.608,2.825,4.608A6.6,6.6,0,0,0-877.931,1539.524Z" transform="translate(896.589 -1527.622)"/><path class="d" d="M-854.36,1532.87l-.789,2.292a3.964,3.964,0,0,0-.533-.025c-2.538,0-4.651,1.553-5.635,4.412l-2.24,6.505h-2.366l4.5-13.061h2.268l-.755,2.193A7.157,7.157,0,0,1-854.36,1532.87Z" transform="translate(887.254 -1527.622)"/></g></g></svg>
