<svg xmlns="http://www.w3.org/2000/svg" xmlns:xlink="http://www.w3.org/1999/xlink" width="1920" height="495.001" viewBox="0 0 1920 495.001"><defs><linearGradient id="a" x1="1.148" y1="-0.181" x2="-0.072" y2="1" gradientUnits="objectBoundingBox"><stop offset="0" stop-color="#111ec5"/><stop offset="0.569" stop-color="#ad34d8"/><stop offset="1" stop-color="#ff9161"/></linearGradient><linearGradient id="b" x1="0.027" y1="1.005" x2="0.974" y2="0.003" gradientUnits="objectBoundingBox"><stop offset="0" stop-color="#fefefe" stop-opacity="0.012"/><stop offset="1" stop-color="#fff" stop-opacity="0.678"/></linearGradient><linearGradient id="c" x1="0.5" x2="0.5" y2="1" gradientUnits="objectBoundingBox"><stop offset="0" stop-color="#fff" stop-opacity="0.471"/><stop offset="0.858" stop-color="#ebefff" stop-opacity="0"/><stop offset="1" stop-color="#fff" stop-opacity="0"/></linearGradient></defs><g transform="translate(-229.086 -4479.801)"><g transform="translate(229.086 4479.802)"><path d="M0,0H1920V495H0Z" fill="url(#a)"/></g><g transform="translate(-135 173.103)"><g transform="translate(-15683.356 -17726)" fill="#fff" opacity="0.03"><path d="M 17601.8515625 22527.197265625 L 16414.03125 22527.197265625 C 16417.2109375 22509.978515625 16421.189453125 22492.7109375 16425.859375 22475.861328125 C 16430.53125 22458.998046875 16436.009765625 22442.13671875 16442.14453125 22425.74609375 C 16448.22265625 22409.501953125 16455.09375 22393.322265625 16462.56640625 22377.654296875 C 16469.984375 22362.1015625 16478.17578125 22346.671875 16486.9140625 22331.796875 C 16495.6015625 22317.005859375 16505.04296875 22302.400390625 16514.97265625 22288.388671875 C 16524.865234375 22274.427734375 16535.482421875 22260.71875 16546.53125 22247.638671875 C 16557.560546875 22234.583984375 16569.283203125 22221.83984375 16581.37890625 22209.76171875 C 16593.474609375 22197.68359375 16606.234375 22185.978515625 16619.302734375 22174.970703125 C 16632.396484375 22163.94140625 16646.119140625 22153.345703125 16660.087890625 22143.4765625 C 16674.111328125 22133.5703125 16688.7265625 22124.15625 16703.525390625 22115.494140625 C 16718.41015625 22106.783203125 16733.84375 22098.619140625 16749.40234375 22091.232421875 C 16765.076171875 22083.791015625 16781.259765625 22076.951171875 16797.505859375 22070.90625 C 16813.8984375 22064.806640625 16830.759765625 22059.36328125 16847.623046875 22054.7265625 C 16864.6640625 22050.04296875 16882.1328125 22046.06640625 16899.54296875 22042.908203125 C 16917.162109375 22039.7109375 16935.166015625 22037.2734375 16953.0546875 22035.66015625 C 16971.177734375 22034.025390625 16989.646484375 22033.197265625 17007.943359375 22033.197265625 C 17026.240234375 22033.197265625 17044.70703125 22034.025390625 17062.83203125 22035.66015625 C 17080.720703125 22037.2734375 17098.72265625 22039.7109375 17116.341796875 22042.908203125 C 17133.751953125 22046.06640625 17151.21875 22050.04296875 17168.26171875 22054.7265625 C 17185.123046875 22059.36328125 17201.984375 22064.806640625 17218.37890625 22070.90625 C 17234.623046875 22076.951171875 17250.806640625 22083.791015625 17266.48046875 22091.232421875 C 17282.037109375 22098.619140625 17297.47265625 22106.783203125 17312.35546875 22115.494140625 C 17327.15625 22124.15625 17341.76953125 22133.5703125 17355.79296875 22143.4765625 C 17369.763671875 22153.345703125 17383.486328125 22163.94140625 17396.580078125 22174.970703125 C 17409.6484375 22185.978515625 17422.40625 22197.68359375 17434.501953125 22209.76171875 C 17446.59765625 22221.83984375 17458.322265625 22234.583984375 17469.349609375 22247.638671875 C 17480.3984375 22260.71875 17491.015625 22274.427734375 17500.908203125 22288.388671875 C 17510.837890625 22302.400390625 17520.279296875 22317.005859375 17528.966796875 22331.796875 C 17537.705078125 22346.671875 17545.896484375 22362.1015625 17553.314453125 22377.654296875 C 17560.787109375 22393.322265625 17567.658203125 22409.501953125 17573.736328125 22425.74609375 C 17579.87109375 22442.13671875 17585.349609375 22458.998046875 17590.0234375 22475.861328125 C 17594.69140625 22492.7109375 17598.669921875 22509.978515625 17601.8515625 22527.197265625 Z" stroke="none"/><path d="M 17601.25 22526.697265625 C 17598.08984375 22509.689453125 17594.15234375 22492.63671875 17589.541015625 22475.994140625 C 17584.87109375 22459.146484375 17579.396484375 22442.298828125 17573.267578125 22425.921875 C 17567.1953125 22409.69140625 17560.330078125 22393.525390625 17552.86328125 22377.869140625 C 17545.451171875 22362.330078125 17537.267578125 22346.9140625 17528.537109375 22332.05078125 C 17519.85546875 22317.271484375 17510.421875 22302.677734375 17500.5 22288.677734375 C 17490.6171875 22274.728515625 17480.0078125 22261.03125 17468.966796875 22247.9609375 C 17457.94921875 22234.91796875 17446.234375 22222.18359375 17434.1484375 22210.115234375 C 17422.064453125 22198.046875 17409.314453125 22186.3515625 17396.2578125 22175.353515625 C 17383.173828125 22164.333984375 17369.462890625 22153.74609375 17355.505859375 22143.884765625 C 17341.4921875 22133.986328125 17326.890625 22124.580078125 17312.103515625 22115.92578125 C 17297.232421875 22107.220703125 17281.810546875 22099.064453125 17266.265625 22091.68359375 C 17250.60546875 22084.248046875 17234.435546875 22077.416015625 17218.203125 22071.375 C 17201.82421875 22065.279296875 17184.9765625 22059.841796875 17168.12890625 22055.208984375 C 17151.1015625 22050.529296875 17133.6484375 22046.5546875 17116.251953125 22043.400390625 C 17098.6484375 22040.20703125 17080.66015625 22037.76953125 17062.787109375 22036.158203125 C 17044.677734375 22034.525390625 17026.2265625 22033.697265625 17007.943359375 22033.697265625 C 16989.66015625 22033.697265625 16971.208984375 22034.525390625 16953.099609375 22036.158203125 C 16935.224609375 22037.76953125 16917.236328125 22040.20703125 16899.6328125 22043.400390625 C 16882.236328125 22046.5546875 16864.783203125 22050.529296875 16847.755859375 22055.208984375 C 16830.90625 22059.841796875 16814.05859375 22065.279296875 16797.6796875 22071.375 C 16781.447265625 22077.416015625 16765.27734375 22084.248046875 16749.6171875 22091.68359375 C 16734.072265625 22099.064453125 16718.650390625 22107.220703125 16703.779296875 22115.92578125 C 16688.9921875 22124.580078125 16674.388671875 22133.986328125 16660.376953125 22143.884765625 C 16646.41796875 22153.74609375 16632.70703125 22164.333984375 16619.625 22175.353515625 C 16606.56640625 22186.3515625 16593.818359375 22198.046875 16581.732421875 22210.115234375 C 16569.646484375 22222.18359375 16557.93359375 22234.91796875 16546.9140625 22247.9609375 C 16535.873046875 22261.03125 16525.265625 22274.728515625 16515.380859375 22288.677734375 C 16505.458984375 22302.677734375 16496.025390625 22317.271484375 16487.34375 22332.05078125 C 16478.61328125 22346.9140625 16470.4296875 22362.330078125 16463.017578125 22377.869140625 C 16455.55078125 22393.525390625 16448.685546875 22409.69140625 16442.61328125 22425.921875 C 16436.484375 22442.298828125 16431.009765625 22459.146484375 16426.33984375 22475.994140625 C 16421.728515625 22492.63671875 16417.791015625 22509.689453125 16414.630859375 22526.697265625 L 17601.25 22526.697265625 M 17602.451171875 22527.697265625 L 16413.4296875 22527.697265625 C 16465.162109375 22246.07421875 16711.66015625 22032.697265625 17007.943359375 22032.697265625 C 17304.220703125 22032.697265625 17550.71875 22246.07421875 17602.451171875 22527.697265625 Z" stroke="none" fill="#707070"/></g><g transform="translate(891.086 4484.7)" fill="#fff" opacity="0.05"><path d="M 849.8798828125 314.5009155273438 L 17.12073135375977 314.5009155273438 C 23.46735954284668 292.278564453125 31.67516708374023 270.4036560058594 41.52091217041016 249.4731292724609 C 51.32390975952148 228.6332397460938 62.90202331542969 208.4063415527344 75.93346405029297 189.3543395996094 C 88.86491394042969 170.4484558105469 103.4181365966797 152.4202423095703 119.1887969970703 135.7702331542969 C 134.9416961669922 119.1391220092773 152.1373596191406 103.6424560546875 170.2981262207031 89.71045684814453 C 188.5591278076172 75.70168304443359 208.0645751953125 63.0693473815918 228.2723541259766 52.16456985473633 C 248.7206878662109 41.12990188598633 270.203125 31.69490242004395 292.1229248046875 24.12145805358887 C 337.4885864257813 8.447457313537598 385.0548095703125 0.5000132918357849 433.5003662109375 0.5000132918357849 C 481.9456787109375 0.5000132918357849 529.5117797851563 8.447457313537598 574.87744140625 24.12145805358887 C 596.797119140625 31.69490242004395 618.2796020507813 41.12990188598633 638.7279052734375 52.16456985473633 C 658.935791015625 63.0693473815918 678.441162109375 75.70168304443359 696.7021484375 89.71045684814453 C 714.8629150390625 103.6424560546875 732.05859375 119.1391220092773 747.8114624023438 135.7702331542969 C 763.5822143554688 152.4202423095703 778.1354370117188 170.4484558105469 791.06689453125 189.3543395996094 C 804.0983276367188 208.4063415527344 815.6764526367188 228.6332397460938 825.4795532226563 249.4731292724609 C 835.3253173828125 270.4036560058594 843.5332641601563 292.278564453125 849.8798828125 314.5009155273438 Z" stroke="none"/><path d="M 849.216552734375 314.0009155273438 C 842.9027099609375 292.02294921875 834.7676391601563 270.3924560546875 825.0271606445313 249.6858978271484 C 815.2353515625 228.8702392578125 803.6707153320313 208.6666870117188 790.6542358398438 189.6365661621094 C 777.737548828125 170.7524566650391 763.2011108398438 152.7449035644531 747.448486328125 136.1141204833984 C 731.7136840820313 119.5021209716797 714.5377807617188 104.0231246948242 696.3978271484375 90.10723876953125 C 678.1577758789063 76.11457061767578 658.6749267578125 63.49679183959961 638.490478515625 52.60456848144531 C 618.0657958984375 41.58267974853516 596.6084594726563 32.1586799621582 574.7142333984375 24.59412384033203 C 529.4012451171875 8.938235282897949 481.8900146484375 1.00001335144043 433.5003662109375 1.00001335144043 C 385.1104736328125 1.00001335144043 337.59912109375 8.938235282897949 292.2861328125 24.59412384033203 C 270.3919067382813 32.1586799621582 248.9344635009766 41.58267974853516 228.5097961425781 52.60456848144531 C 208.3253479003906 63.49679183959961 188.8424682617188 76.11457061767578 170.6024627685547 90.10723876953125 C 152.4624633789063 104.0231246948242 135.2865753173828 119.5021209716797 119.5517959594727 136.1141204833984 C 103.7992477416992 152.7449035644531 89.26280212402344 170.7524566650391 76.34624481201172 189.6365661621094 C 63.32979965209961 208.6666870117188 51.76502227783203 228.8701171875 41.97335433959961 249.6858978271484 C 32.23298263549805 270.3924560546875 24.09788703918457 292.02294921875 17.78406715393066 314.0009155273438 L 849.216552734375 314.0009155273438 M 850.5421142578125 315.0009155273438 L 16.45846557617188 315.0009155273438 C 68.08213043212891 133.1697845458984 235.2483520507813 1.33192270368454e-05 433.5003662109375 1.33192270368454e-05 C 631.7515869140625 1.33192270368454e-05 798.9182739257813 133.1697845458984 850.5421142578125 315.0009155273438 Z" stroke="none" fill="#707070"/></g></g><g transform="translate(-633 60)" opacity="0.38"><path d="M-395.612,315.434l-8.167-26.336-23.182,14.053,9.325,3.654c-28.873,70.665-61.465,109.033-96.876,114.036-11.823,1.67-22.309-.492-32.45-2.584-14.392-2.969-29.275-6.039-43.586,4.478-14.632,10.755-18.5,27.874-22.24,44.429-3.7,16.4-7.2,31.888-21.032,39.287-4.2,2.249-7,2.554-10.878,2.975a61.236,61.236,0,0,0-9.315,1.564c-31.88,8.237-55.144,47.5-71.122,120.034l13.994,3.083c8.258-37.487,18.627-65.894,30.819-84.434,8.982-13.658,19.04-22,29.892-24.809a48.04,48.04,0,0,1,7.281-1.192,39.448,39.448,0,0,0,16.088-4.586c19.6-10.488,24.2-30.823,28.25-48.764,3.306-14.633,6.428-28.454,16.749-36.039,8.747-6.429,17.494-5.025,32.2-1.991,10.812,2.23,23.063,4.759,37.35,2.739,18.249-2.578,35.715-12.221,51.914-28.661,20.16-20.459,39.1-52.2,56.3-94.336Z" transform="translate(2831.348 4237.068)" fill="url(#b)"/><path d="M8.452,0H35.5a8.452,8.452,0,0,1,8.452,8.452V91.283A8.452,8.452,0,0,1,35.5,99.735H8.452A8.452,8.452,0,0,1,0,91.283V8.452A8.452,8.452,0,0,1,8.452,0Z" transform="translate(2258.243 4749.15)" fill="url(#c)"/><path d="M8.452,0H35.5a8.452,8.452,0,0,1,8.452,8.452V159.745A8.452,8.452,0,0,1,35.5,168.2H8.452A8.452,8.452,0,0,1,0,159.745V8.452A8.452,8.452,0,0,1,8.452,0Z" transform="translate(2325.015 4698.438)" fill="url(#c)"/><path d="M8.452,0H35.5a8.452,8.452,0,0,1,8.452,8.452V170.733a8.452,8.452,0,0,1-8.452,8.452H8.452A8.452,8.452,0,0,1,0,170.733V8.452A8.452,8.452,0,0,1,8.452,0Z" transform="translate(2391.787 4687.45)" fill="url(#c)"/><path d="M8.452,0H35.5a8.452,8.452,0,0,1,8.452,8.452v197.78a8.452,8.452,0,0,1-8.452,8.452H8.452A8.452,8.452,0,0,1,0,206.232V8.452A8.452,8.452,0,0,1,8.452,0Z" transform="translate(2458.558 4651.951)" fill="url(#c)"/><path d="M67.544,42.025A19.012,19.012,0,1,0,48.531,23.012,19.007,19.007,0,0,0,67.544,42.025ZM24.766,32.519V18.259H15.259V32.519H1v9.506H15.259V56.284h9.506V42.025H39.025V32.519ZM67.544,51.531c-12.691,0-38.025,6.369-38.025,19.012V80.05h76.05V70.544C105.568,57.9,80.234,51.531,67.544,51.531Z" transform="matrix(0.978, -0.208, 0.208, 0.978, 1172.308, 4620.692)" fill="#fff"/><path d="M30.328,53.159c-2.054-.007-4.108-1.916-4.108-1.916C11.632,38.014,2,29.289,2,18.581A15.429,15.429,0,0,1,17.581,3,16.964,16.964,0,0,1,30.328,8.921,16.964,16.964,0,0,1,43.076,3,15.429,15.429,0,0,1,58.656,18.581c0,10.708-9.632,19.433-24.221,32.691C34.436,51.271,32.382,53.166,30.328,53.159Z" transform="matrix(0.875, 0.485, -0.485, 0.875, 1407.878, 4743.187)" fill="#fff" opacity="0.33"/><path d="M15.278,26.51a3.462,3.462,0,0,1-1.925-.9C6.514,19.411,2,15.322,2,10.3A7.232,7.232,0,0,1,9.3,3a7.951,7.951,0,0,1,5.975,2.775A7.951,7.951,0,0,1,21.253,3a7.232,7.232,0,0,1,7.3,7.3c0,5.019-4.514,9.108-11.352,15.322A3.434,3.434,0,0,1,15.278,26.51Z" transform="matrix(0.883, -0.469, 0.469, 0.883, 1009.412, 4817.192)" fill="none" stroke="#fff" stroke-width="4" opacity="0.73"/><path d="M15.278,26.51a3.462,3.462,0,0,1-1.925-.9C6.514,19.411,2,15.322,2,10.3A7.232,7.232,0,0,1,9.3,3a7.951,7.951,0,0,1,5.975,2.775A7.951,7.951,0,0,1,21.253,3a7.232,7.232,0,0,1,7.3,7.3c0,5.019-4.514,9.108-11.352,15.322A3.434,3.434,0,0,1,15.278,26.51Z" transform="matrix(0.891, 0.454, -0.454, 0.891, 2669.915, 4772.966)" fill="none" stroke="#fff" stroke-width="4" opacity="0.73"/></g></g></svg>