<svg xmlns="http://www.w3.org/2000/svg" width="80" height="130" viewBox="0 0 80 130">
  <defs>
    <style>
      .cls-1, .cls-4 {
        fill: #fff;
      }

      .cls-1 {
        stroke: #707070;
        opacity: 0;
      }

      .cls-2 {
        fill: #4a8dff;
      }

      .cls-3 {
        fill: #ffa250;
      }

      .cls-5 {
        stroke: none;
      }

      .cls-6 {
        fill: none;
      }
    </style>
  </defs>
  <g id="组_286" data-name="组 286" transform="translate(-545 -1269)">
    <g id="矩形_168" data-name="矩形 168" class="cls-1" transform="translate(545 1269)">
      <rect class="cls-5" width="80" height="130"/>
      <rect class="cls-6" x="0.5" y="0.5" width="79" height="129"/>
    </g>
    <g id="icon_login">
      <g id="组_137" data-name="组 137" transform="translate(-424 5.842)">
        <circle id="椭圆_14" data-name="椭圆 14" class="cls-2" cx="16.642" cy="16.642" r="16.642" transform="translate(991.052 1292.633)"/>
        <path id="矩形_15" data-name="矩形 15" class="cls-2" d="M22,0H40A22,22,0,0,1,62,22v5.41a0,0,0,0,1,0,0H0a0,0,0,0,1,0,0V22A22,22,0,0,1,22,0Z" transform="translate(978 1333.748)"/>
      </g>
      <rect id="矩形_31" data-name="矩形 31" class="cls-3" width="62" height="22" rx="11" transform="translate(554 1356)"/>
      <circle id="椭圆_24" data-name="椭圆 24" class="cls-4" cx="4" cy="4" r="4" transform="translate(581 1363)"/>
      <circle id="椭圆_25" data-name="椭圆 25" class="cls-4" cx="4" cy="4" r="4" transform="translate(566 1363)"/>
      <circle id="椭圆_26" data-name="椭圆 26" class="cls-4" cx="4" cy="4" r="4" transform="translate(596 1363)"/>
    </g>
  </g>
</svg>
