<svg xmlns="http://www.w3.org/2000/svg" xmlns:xlink="http://www.w3.org/1999/xlink" width="375" height="523.381" viewBox="0 0 375 523.381"><defs><style>.a{fill:#f1f4f6;}.b{clip-path:url(#a);}.c,.d,.m{fill:#fff;}.c{opacity:0.41;}.d{opacity:0.43;}.e{clip-path:url(#b);}.f,.h{fill:url(#c);}.g{fill:#faf3ff;}.h{opacity:0.14;}.i,.o{fill:none;}.i{stroke:#c249e4;opacity:0.15;}.j{opacity:0.47;}.k{fill:#f2dbfb;}.l{opacity:0.13;}.n{stroke:none;}</style><clipPath id="a"><rect class="a" width="375" height="523.381" transform="translate(654 6909)"/></clipPath><clipPath id="b"><rect class="a" width="1981" height="567" transform="translate(-0.386 6698)"/></clipPath><linearGradient id="c" x1="-0.012" y1="0.54" x2="0.86" y2="0.22" gradientUnits="objectBoundingBox"><stop offset="0" stop-color="#751ae4"/><stop offset="0.109" stop-color="#8121e4"/><stop offset="1" stop-color="#df5be4"/></linearGradient></defs><g class="b" transform="translate(-654 -6909)"><rect class="a" width="375" height="523.381" transform="translate(654 6909)"/><path class="c" d="M-1254.314,10458.375s45.547,32.015,78.68,27.992,74.141-41.609,118.777-61.279,123.316-35.557,175.517-32.531,118.777-1.514,154.334-19.67,51.445-42.366,51.445-42.366l-578.753,1.513Z" transform="translate(1827.623 -3458.568)"/><path class="d" d="M-775.837,10618.415s1.751-82.622,63.938-104.454,144.881-17.2,166.712-13.23,65.329,53.751,156.127,44.986,160.758-78.726,239.483-95.926,113.359-9.335,144.452,22.42,7.939,157.45,7.939,157.45C2.815,10623.708-775.837,10618.415-775.837,10618.415Z" transform="translate(1170.593 -3147.661)"/><g class="e" transform="translate(296.386 194.637)"><rect class="f" width="1981" height="567" transform="translate(-0.386 6698)"/><path class="g" d="M0,364C0,162.969,163.03,0,364.139,0,485.02,0,592.148,58.886,658.38,149.519H1896V581.576H656.094C589.7,670.46,483.646,728,364.139,728,163.03,728,0,565.032,0,364Z" transform="translate(114.614 6733)"/><circle class="h" cx="237" cy="237" r="237" transform="translate(23.614 6370)"/><circle class="g" cx="143.5" cy="143.5" r="143.5" transform="translate(117.614 6464)"/><g class="i" transform="translate(-0.386 6346)"><circle class="n" cx="261" cy="261" r="261"/><circle class="o" cx="261" cy="261" r="260.5"/></g><g class="j" transform="translate(1528.785 7213.093)"><g transform="translate(0 0)"><circle class="k" cx="3.937" cy="3.937" r="3.937"/><circle class="k" cx="3.667" cy="3.667" r="3.667" transform="translate(14.859 0.27)"/><circle class="k" cx="3.421" cy="3.421" r="3.421" transform="translate(29.693 0.516)"/><circle class="k" cx="3.207" cy="3.207" r="3.207" transform="translate(44.497 0.731)"/><circle class="k" cx="3.029" cy="3.029" r="3.029" transform="translate(59.263 0.908)"/><circle class="k" cx="2.895" cy="2.895" r="2.895" transform="translate(73.985 1.042)"/><circle class="k" cx="2.812" cy="2.812" r="2.812" transform="translate(88.657 1.125)"/><circle class="k" cx="2.784" cy="2.784" r="2.784" transform="translate(103.274 1.153)"/><circle class="k" cx="2.812" cy="2.812" r="2.812" transform="translate(117.835 1.125)"/><circle class="k" cx="2.895" cy="2.895" r="2.895" transform="translate(132.34 1.042)"/><circle class="k" cx="3.029" cy="3.029" r="3.029" transform="translate(146.795 0.908)"/><circle class="k" cx="3.207" cy="3.207" r="3.207" transform="translate(161.206 0.731)"/><circle class="k" cx="3.421" cy="3.421" r="3.421" transform="translate(175.58 0.516)"/><circle class="k" cx="3.667" cy="3.667" r="3.667" transform="translate(189.924 0.27)"/><circle class="k" cx="3.937" cy="3.937" r="3.937" transform="translate(204.242)"/></g><g transform="translate(0 13.557)"><circle class="k" cx="3.937" cy="3.937" r="3.937"/><circle class="k" cx="3.667" cy="3.667" r="3.667" transform="translate(14.859 0.27)"/><circle class="k" cx="3.421" cy="3.421" r="3.421" transform="translate(29.693 0.516)"/><circle class="k" cx="3.207" cy="3.207" r="3.207" transform="translate(44.497 0.731)"/><circle class="k" cx="3.029" cy="3.029" r="3.029" transform="translate(59.263 0.908)"/><circle class="k" cx="2.895" cy="2.895" r="2.895" transform="translate(73.985 1.042)"/><circle class="k" cx="2.812" cy="2.812" r="2.812" transform="translate(88.657 1.125)"/><circle class="k" cx="2.784" cy="2.784" r="2.784" transform="translate(103.274 1.153)"/><circle class="k" cx="2.812" cy="2.812" r="2.812" transform="translate(117.835 1.125)"/><circle class="k" cx="2.895" cy="2.895" r="2.895" transform="translate(132.34 1.042)"/><circle class="k" cx="3.029" cy="3.029" r="3.029" transform="translate(146.795 0.908)"/><circle class="k" cx="3.207" cy="3.207" r="3.207" transform="translate(161.206 0.731)"/><circle class="k" cx="3.421" cy="3.421" r="3.421" transform="translate(175.58 0.516)"/><circle class="k" cx="3.667" cy="3.667" r="3.667" transform="translate(189.924 0.27)"/><circle class="k" cx="3.937" cy="3.937" r="3.937" transform="translate(204.242)"/></g><g transform="translate(0 27.115)"><circle class="k" cx="3.937" cy="3.937" r="3.937"/><circle class="k" cx="3.667" cy="3.667" r="3.667" transform="translate(14.859 0.27)"/><circle class="k" cx="3.421" cy="3.421" r="3.421" transform="translate(29.693 0.516)"/><circle class="k" cx="3.207" cy="3.207" r="3.207" transform="translate(44.497 0.731)"/><circle class="k" cx="3.029" cy="3.029" r="3.029" transform="translate(59.263 0.908)"/><circle class="k" cx="2.895" cy="2.895" r="2.895" transform="translate(73.985 1.042)"/><circle class="k" cx="2.812" cy="2.812" r="2.812" transform="translate(88.657 1.125)"/><circle class="k" cx="2.784" cy="2.784" r="2.784" transform="translate(103.274 1.153)"/><circle class="k" cx="2.812" cy="2.812" r="2.812" transform="translate(117.835 1.125)"/><circle class="k" cx="2.895" cy="2.895" r="2.895" transform="translate(132.34 1.042)"/><circle class="k" cx="3.029" cy="3.029" r="3.029" transform="translate(146.795 0.908)"/><circle class="k" cx="3.207" cy="3.207" r="3.207" transform="translate(161.206 0.731)"/><circle class="k" cx="3.421" cy="3.421" r="3.421" transform="translate(175.58 0.516)"/><circle class="k" cx="3.667" cy="3.667" r="3.667" transform="translate(189.924 0.27)"/><circle class="k" cx="3.937" cy="3.937" r="3.937" transform="translate(204.242)"/></g><g transform="translate(0 40.672)"><circle class="k" cx="3.937" cy="3.937" r="3.937"/><circle class="k" cx="3.667" cy="3.667" r="3.667" transform="translate(14.859 0.27)"/><circle class="k" cx="3.421" cy="3.421" r="3.421" transform="translate(29.693 0.516)"/><circle class="k" cx="3.207" cy="3.207" r="3.207" transform="translate(44.497 0.731)"/><circle class="k" cx="3.029" cy="3.029" r="3.029" transform="translate(59.263 0.908)"/><circle class="k" cx="2.895" cy="2.895" r="2.895" transform="translate(73.985 1.042)"/><circle class="k" cx="2.812" cy="2.812" r="2.812" transform="translate(88.657 1.125)"/><circle class="k" cx="2.784" cy="2.784" r="2.784" transform="translate(103.274 1.153)"/><circle class="k" cx="2.812" cy="2.812" r="2.812" transform="translate(117.835 1.125)"/><circle class="k" cx="2.895" cy="2.895" r="2.895" transform="translate(132.34 1.042)"/><circle class="k" cx="3.029" cy="3.029" r="3.029" transform="translate(146.795 0.908)"/><circle class="k" cx="3.207" cy="3.207" r="3.207" transform="translate(161.206 0.731)"/><circle class="k" cx="3.421" cy="3.421" r="3.421" transform="translate(175.58 0.516)"/><circle class="k" cx="3.667" cy="3.667" r="3.667" transform="translate(189.924 0.27)"/><circle class="k" cx="3.937" cy="3.937" r="3.937" transform="translate(204.242)"/></g><g transform="translate(0 54.229)"><circle class="k" cx="3.937" cy="3.937" r="3.937"/><circle class="k" cx="3.667" cy="3.667" r="3.667" transform="translate(14.859 0.27)"/><circle class="k" cx="3.421" cy="3.421" r="3.421" transform="translate(29.693 0.516)"/><circle class="k" cx="3.207" cy="3.207" r="3.207" transform="translate(44.497 0.731)"/><circle class="k" cx="3.029" cy="3.029" r="3.029" transform="translate(59.263 0.908)"/><circle class="k" cx="2.895" cy="2.895" r="2.895" transform="translate(73.985 1.042)"/><circle class="k" cx="2.812" cy="2.812" r="2.812" transform="translate(88.657 1.125)"/><circle class="k" cx="2.784" cy="2.784" r="2.784" transform="translate(103.274 1.153)"/><circle class="k" cx="2.812" cy="2.812" r="2.812" transform="translate(117.835 1.125)"/><circle class="k" cx="2.895" cy="2.895" r="2.895" transform="translate(132.34 1.042)"/><circle class="k" cx="3.029" cy="3.029" r="3.029" transform="translate(146.795 0.908)"/><circle class="k" cx="3.207" cy="3.207" r="3.207" transform="translate(161.206 0.731)"/><circle class="k" cx="3.421" cy="3.421" r="3.421" transform="translate(175.58 0.516)"/><circle class="k" cx="3.667" cy="3.667" r="3.667" transform="translate(189.924 0.27)"/><circle class="k" cx="3.937" cy="3.937" r="3.937" transform="translate(204.242)"/></g><g transform="translate(0 67.787)"><circle class="k" cx="3.937" cy="3.937" r="3.937"/><circle class="k" cx="3.667" cy="3.667" r="3.667" transform="translate(14.859 0.27)"/><circle class="k" cx="3.421" cy="3.421" r="3.421" transform="translate(29.693 0.516)"/><circle class="k" cx="3.207" cy="3.207" r="3.207" transform="translate(44.497 0.731)"/><circle class="k" cx="3.029" cy="3.029" r="3.029" transform="translate(59.263 0.908)"/><circle class="k" cx="2.895" cy="2.895" r="2.895" transform="translate(73.985 1.042)"/><circle class="k" cx="2.812" cy="2.812" r="2.812" transform="translate(88.657 1.125)"/><circle class="k" cx="2.784" cy="2.784" r="2.784" transform="translate(103.274 1.153)"/><circle class="k" cx="2.812" cy="2.812" r="2.812" transform="translate(117.835 1.125)"/><circle class="k" cx="2.895" cy="2.895" r="2.895" transform="translate(132.34 1.042)"/><circle class="k" cx="3.029" cy="3.029" r="3.029" transform="translate(146.795 0.908)"/><circle class="k" cx="3.207" cy="3.207" r="3.207" transform="translate(161.206 0.731)"/><circle class="k" cx="3.421" cy="3.421" r="3.421" transform="translate(175.58 0.516)"/><circle class="k" cx="3.667" cy="3.667" r="3.667" transform="translate(189.924 0.27)"/><circle class="k" cx="3.937" cy="3.937" r="3.937" transform="translate(204.242)"/></g></g><g class="j" transform="translate(1664.953 6865.454)"><g transform="translate(0 0)"><circle class="k" cx="3.937" cy="3.937" r="3.937"/><circle class="k" cx="3.667" cy="3.667" r="3.667" transform="translate(14.859 0.27)"/><circle class="k" cx="3.421" cy="3.421" r="3.421" transform="translate(29.693 0.516)"/><circle class="k" cx="3.207" cy="3.207" r="3.207" transform="translate(44.497 0.731)"/><circle class="k" cx="3.029" cy="3.029" r="3.029" transform="translate(59.263 0.908)"/><circle class="k" cx="2.895" cy="2.895" r="2.895" transform="translate(73.985 1.042)"/><circle class="k" cx="2.812" cy="2.812" r="2.812" transform="translate(88.657 1.125)"/><circle class="k" cx="2.784" cy="2.784" r="2.784" transform="translate(103.274 1.153)"/><circle class="k" cx="2.812" cy="2.812" r="2.812" transform="translate(117.835 1.125)"/><circle class="k" cx="2.895" cy="2.895" r="2.895" transform="translate(132.34 1.042)"/><circle class="k" cx="3.029" cy="3.029" r="3.029" transform="translate(146.795 0.908)"/><circle class="k" cx="3.207" cy="3.207" r="3.207" transform="translate(161.206 0.731)"/><circle class="k" cx="3.421" cy="3.421" r="3.421" transform="translate(175.58 0.516)"/><circle class="k" cx="3.667" cy="3.667" r="3.667" transform="translate(189.924 0.27)"/><circle class="k" cx="3.937" cy="3.937" r="3.937" transform="translate(204.242)"/></g><g transform="translate(0 13.557)"><circle class="k" cx="3.937" cy="3.937" r="3.937"/><circle class="k" cx="3.667" cy="3.667" r="3.667" transform="translate(14.859 0.27)"/><circle class="k" cx="3.421" cy="3.421" r="3.421" transform="translate(29.693 0.516)"/><circle class="k" cx="3.207" cy="3.207" r="3.207" transform="translate(44.497 0.731)"/><circle class="k" cx="3.029" cy="3.029" r="3.029" transform="translate(59.263 0.908)"/><circle class="k" cx="2.895" cy="2.895" r="2.895" transform="translate(73.985 1.042)"/><circle class="k" cx="2.812" cy="2.812" r="2.812" transform="translate(88.657 1.125)"/><circle class="k" cx="2.784" cy="2.784" r="2.784" transform="translate(103.274 1.153)"/><circle class="k" cx="2.812" cy="2.812" r="2.812" transform="translate(117.835 1.125)"/><circle class="k" cx="2.895" cy="2.895" r="2.895" transform="translate(132.34 1.042)"/><circle class="k" cx="3.029" cy="3.029" r="3.029" transform="translate(146.795 0.908)"/><circle class="k" cx="3.207" cy="3.207" r="3.207" transform="translate(161.206 0.731)"/><circle class="k" cx="3.421" cy="3.421" r="3.421" transform="translate(175.58 0.516)"/><circle class="k" cx="3.667" cy="3.667" r="3.667" transform="translate(189.924 0.27)"/><circle class="k" cx="3.937" cy="3.937" r="3.937" transform="translate(204.242)"/></g><g transform="translate(0 27.115)"><circle class="k" cx="3.937" cy="3.937" r="3.937"/><circle class="k" cx="3.667" cy="3.667" r="3.667" transform="translate(14.859 0.27)"/><circle class="k" cx="3.421" cy="3.421" r="3.421" transform="translate(29.693 0.516)"/><circle class="k" cx="3.207" cy="3.207" r="3.207" transform="translate(44.497 0.731)"/><circle class="k" cx="3.029" cy="3.029" r="3.029" transform="translate(59.263 0.908)"/><circle class="k" cx="2.895" cy="2.895" r="2.895" transform="translate(73.985 1.042)"/><circle class="k" cx="2.812" cy="2.812" r="2.812" transform="translate(88.657 1.125)"/><circle class="k" cx="2.784" cy="2.784" r="2.784" transform="translate(103.274 1.153)"/><circle class="k" cx="2.812" cy="2.812" r="2.812" transform="translate(117.835 1.125)"/><circle class="k" cx="2.895" cy="2.895" r="2.895" transform="translate(132.34 1.042)"/><circle class="k" cx="3.029" cy="3.029" r="3.029" transform="translate(146.795 0.908)"/><circle class="k" cx="3.207" cy="3.207" r="3.207" transform="translate(161.206 0.731)"/><circle class="k" cx="3.421" cy="3.421" r="3.421" transform="translate(175.58 0.516)"/><circle class="k" cx="3.667" cy="3.667" r="3.667" transform="translate(189.924 0.27)"/><circle class="k" cx="3.937" cy="3.937" r="3.937" transform="translate(204.242)"/></g><g transform="translate(0 40.672)"><circle class="k" cx="3.937" cy="3.937" r="3.937"/><circle class="k" cx="3.667" cy="3.667" r="3.667" transform="translate(14.859 0.27)"/><circle class="k" cx="3.421" cy="3.421" r="3.421" transform="translate(29.693 0.516)"/><circle class="k" cx="3.207" cy="3.207" r="3.207" transform="translate(44.497 0.731)"/><circle class="k" cx="3.029" cy="3.029" r="3.029" transform="translate(59.263 0.908)"/><circle class="k" cx="2.895" cy="2.895" r="2.895" transform="translate(73.985 1.042)"/><circle class="k" cx="2.812" cy="2.812" r="2.812" transform="translate(88.657 1.125)"/><circle class="k" cx="2.784" cy="2.784" r="2.784" transform="translate(103.274 1.153)"/><circle class="k" cx="2.812" cy="2.812" r="2.812" transform="translate(117.835 1.125)"/><circle class="k" cx="2.895" cy="2.895" r="2.895" transform="translate(132.34 1.042)"/><circle class="k" cx="3.029" cy="3.029" r="3.029" transform="translate(146.795 0.908)"/><circle class="k" cx="3.207" cy="3.207" r="3.207" transform="translate(161.206 0.731)"/><circle class="k" cx="3.421" cy="3.421" r="3.421" transform="translate(175.58 0.516)"/><circle class="k" cx="3.667" cy="3.667" r="3.667" transform="translate(189.924 0.27)"/><circle class="k" cx="3.937" cy="3.937" r="3.937" transform="translate(204.242)"/></g><g transform="translate(0 54.229)"><circle class="k" cx="3.937" cy="3.937" r="3.937"/><circle class="k" cx="3.667" cy="3.667" r="3.667" transform="translate(14.859 0.27)"/><circle class="k" cx="3.421" cy="3.421" r="3.421" transform="translate(29.693 0.516)"/><circle class="k" cx="3.207" cy="3.207" r="3.207" transform="translate(44.497 0.731)"/><circle class="k" cx="3.029" cy="3.029" r="3.029" transform="translate(59.263 0.908)"/><circle class="k" cx="2.895" cy="2.895" r="2.895" transform="translate(73.985 1.042)"/><circle class="k" cx="2.812" cy="2.812" r="2.812" transform="translate(88.657 1.125)"/><circle class="k" cx="2.784" cy="2.784" r="2.784" transform="translate(103.274 1.153)"/><circle class="k" cx="2.812" cy="2.812" r="2.812" transform="translate(117.835 1.125)"/><circle class="k" cx="2.895" cy="2.895" r="2.895" transform="translate(132.34 1.042)"/><circle class="k" cx="3.029" cy="3.029" r="3.029" transform="translate(146.795 0.908)"/><circle class="k" cx="3.207" cy="3.207" r="3.207" transform="translate(161.206 0.731)"/><circle class="k" cx="3.421" cy="3.421" r="3.421" transform="translate(175.58 0.516)"/><circle class="k" cx="3.667" cy="3.667" r="3.667" transform="translate(189.924 0.27)"/><circle class="k" cx="3.937" cy="3.937" r="3.937" transform="translate(204.242)"/></g><g transform="translate(0 67.787)"><circle class="k" cx="3.937" cy="3.937" r="3.937"/><circle class="k" cx="3.667" cy="3.667" r="3.667" transform="translate(14.859 0.27)"/><circle class="k" cx="3.421" cy="3.421" r="3.421" transform="translate(29.693 0.516)"/><circle class="k" cx="3.207" cy="3.207" r="3.207" transform="translate(44.497 0.731)"/><circle class="k" cx="3.029" cy="3.029" r="3.029" transform="translate(59.263 0.908)"/><circle class="k" cx="2.895" cy="2.895" r="2.895" transform="translate(73.985 1.042)"/><circle class="k" cx="2.812" cy="2.812" r="2.812" transform="translate(88.657 1.125)"/><circle class="k" cx="2.784" cy="2.784" r="2.784" transform="translate(103.274 1.153)"/><circle class="k" cx="2.812" cy="2.812" r="2.812" transform="translate(117.835 1.125)"/><circle class="k" cx="2.895" cy="2.895" r="2.895" transform="translate(132.34 1.042)"/><circle class="k" cx="3.029" cy="3.029" r="3.029" transform="translate(146.795 0.908)"/><circle class="k" cx="3.207" cy="3.207" r="3.207" transform="translate(161.206 0.731)"/><circle class="k" cx="3.421" cy="3.421" r="3.421" transform="translate(175.58 0.516)"/><circle class="k" cx="3.667" cy="3.667" r="3.667" transform="translate(189.924 0.27)"/><circle class="k" cx="3.937" cy="3.937" r="3.937" transform="translate(204.242)"/></g></g><g class="l" transform="translate(26.693 7351.553) rotate(-90)"><circle class="m" cx="2.374" cy="2.374" r="2.374" transform="translate(0 0)"/><circle class="m" cx="2.211" cy="2.211" r="2.211" transform="translate(8.959 0.163)"/><circle class="m" cx="2.063" cy="2.063" r="2.063" transform="translate(17.903 0.311)"/><circle class="m" cx="1.933" cy="1.933" r="1.933" transform="translate(26.828 0.441)"/><circle class="m" cx="1.826" cy="1.826" r="1.826" transform="translate(35.731 0.548)"/><circle class="m" cx="1.746" cy="1.746" r="1.746" transform="translate(44.607 0.628)"/><circle class="m" cx="1.696" cy="1.696" r="1.696" transform="translate(53.453 0.678)"/><circle class="m" cx="1.679" cy="1.679" r="1.679" transform="translate(62.265 0.695)"/><circle class="m" cx="1.696" cy="1.696" r="1.696" transform="translate(71.044 0.678)"/><circle class="m" cx="1.746" cy="1.746" r="1.746" transform="translate(79.79 0.628)"/><circle class="m" cx="1.826" cy="1.826" r="1.826" transform="translate(88.505 0.548)"/><circle class="m" cx="1.933" cy="1.933" r="1.933" transform="translate(97.194 0.441)"/><circle class="m" cx="2.063" cy="2.063" r="2.063" transform="translate(105.86 0.311)"/><circle class="m" cx="2.211" cy="2.211" r="2.211" transform="translate(114.508 0.163)"/><circle class="m" cx="2.374" cy="2.374" r="2.374" transform="translate(123.14 0)"/><g transform="translate(0 8.174)"><circle class="m" cx="2.374" cy="2.374" r="2.374" transform="translate(0 0)"/><circle class="m" cx="2.211" cy="2.211" r="2.211" transform="translate(8.959 0.163)"/><circle class="m" cx="2.063" cy="2.063" r="2.063" transform="translate(17.903 0.311)"/><circle class="m" cx="1.933" cy="1.933" r="1.933" transform="translate(26.828 0.441)"/><circle class="m" cx="1.826" cy="1.826" r="1.826" transform="translate(35.731 0.548)"/><circle class="m" cx="1.746" cy="1.746" r="1.746" transform="translate(44.607 0.628)"/><circle class="m" cx="1.696" cy="1.696" r="1.696" transform="translate(53.453 0.678)"/><circle class="m" cx="1.679" cy="1.679" r="1.679" transform="translate(62.265 0.695)"/><circle class="m" cx="1.696" cy="1.696" r="1.696" transform="translate(71.044 0.678)"/><circle class="m" cx="1.746" cy="1.746" r="1.746" transform="translate(79.79 0.628)"/><circle class="m" cx="1.826" cy="1.826" r="1.826" transform="translate(88.505 0.548)"/><circle class="m" cx="1.933" cy="1.933" r="1.933" transform="translate(97.194 0.441)"/><circle class="m" cx="2.063" cy="2.063" r="2.063" transform="translate(105.86 0.311)"/><circle class="m" cx="2.211" cy="2.211" r="2.211" transform="translate(114.508 0.163)"/><circle class="m" cx="2.374" cy="2.374" r="2.374" transform="translate(123.14 0)"/></g><g transform="translate(0 16.348)"><circle class="m" cx="2.374" cy="2.374" r="2.374" transform="translate(0 0)"/><circle class="m" cx="2.211" cy="2.211" r="2.211" transform="translate(8.959 0.163)"/><circle class="m" cx="2.063" cy="2.063" r="2.063" transform="translate(17.903 0.311)"/><circle class="m" cx="1.933" cy="1.933" r="1.933" transform="translate(26.828 0.441)"/><circle class="m" cx="1.826" cy="1.826" r="1.826" transform="translate(35.731 0.548)"/><circle class="m" cx="1.746" cy="1.746" r="1.746" transform="translate(44.607 0.628)"/><circle class="m" cx="1.696" cy="1.696" r="1.696" transform="translate(53.453 0.678)"/><circle class="m" cx="1.679" cy="1.679" r="1.679" transform="translate(62.265 0.695)"/><circle class="m" cx="1.696" cy="1.696" r="1.696" transform="translate(71.044 0.678)"/><circle class="m" cx="1.746" cy="1.746" r="1.746" transform="translate(79.79 0.628)"/><circle class="m" cx="1.826" cy="1.826" r="1.826" transform="translate(88.505 0.548)"/><circle class="m" cx="1.933" cy="1.933" r="1.933" transform="translate(97.194 0.441)"/><circle class="m" cx="2.063" cy="2.063" r="2.063" transform="translate(105.86 0.311)"/><circle class="m" cx="2.211" cy="2.211" r="2.211" transform="translate(114.508 0.163)"/><circle class="m" cx="2.374" cy="2.374" r="2.374" transform="translate(123.14 0)"/></g><g transform="translate(0 24.522)"><circle class="m" cx="2.374" cy="2.374" r="2.374"/><circle class="m" cx="2.211" cy="2.211" r="2.211" transform="translate(8.959 0.163)"/><circle class="m" cx="2.063" cy="2.063" r="2.063" transform="translate(17.903 0.311)"/><circle class="m" cx="1.933" cy="1.933" r="1.933" transform="translate(26.828 0.441)"/><circle class="m" cx="1.826" cy="1.826" r="1.826" transform="translate(35.731 0.548)"/><circle class="m" cx="1.746" cy="1.746" r="1.746" transform="translate(44.607 0.628)"/><circle class="m" cx="1.696" cy="1.696" r="1.696" transform="translate(53.453 0.678)"/><circle class="m" cx="1.679" cy="1.679" r="1.679" transform="translate(62.265 0.695)"/><circle class="m" cx="1.696" cy="1.696" r="1.696" transform="translate(71.044 0.678)"/><circle class="m" cx="1.746" cy="1.746" r="1.746" transform="translate(79.79 0.628)"/><circle class="m" cx="1.826" cy="1.826" r="1.826" transform="translate(88.505 0.548)"/><circle class="m" cx="1.933" cy="1.933" r="1.933" transform="translate(97.194 0.441)"/><circle class="m" cx="2.063" cy="2.063" r="2.063" transform="translate(105.86 0.311)"/><circle class="m" cx="2.211" cy="2.211" r="2.211" transform="translate(114.508 0.163)"/><circle class="m" cx="2.374" cy="2.374" r="2.374" transform="translate(123.14)"/></g><g transform="translate(0 32.696)"><circle class="m" cx="2.374" cy="2.374" r="2.374"/><circle class="m" cx="2.211" cy="2.211" r="2.211" transform="translate(8.959 0.163)"/><circle class="m" cx="2.063" cy="2.063" r="2.063" transform="translate(17.903 0.311)"/><circle class="m" cx="1.933" cy="1.933" r="1.933" transform="translate(26.828 0.441)"/><circle class="m" cx="1.826" cy="1.826" r="1.826" transform="translate(35.731 0.548)"/><circle class="m" cx="1.746" cy="1.746" r="1.746" transform="translate(44.607 0.628)"/><circle class="m" cx="1.696" cy="1.696" r="1.696" transform="translate(53.453 0.678)"/><circle class="m" cx="1.679" cy="1.679" r="1.679" transform="translate(62.265 0.695)"/><circle class="m" cx="1.696" cy="1.696" r="1.696" transform="translate(71.044 0.678)"/><circle class="m" cx="1.746" cy="1.746" r="1.746" transform="translate(79.79 0.628)"/><circle class="m" cx="1.826" cy="1.826" r="1.826" transform="translate(88.505 0.548)"/><circle class="m" cx="1.933" cy="1.933" r="1.933" transform="translate(97.194 0.441)"/><circle class="m" cx="2.063" cy="2.063" r="2.063" transform="translate(105.86 0.311)"/><circle class="m" cx="2.211" cy="2.211" r="2.211" transform="translate(114.508 0.163)"/><circle class="m" cx="2.374" cy="2.374" r="2.374" transform="translate(123.14)"/></g><g transform="translate(0 40.869)"><circle class="m" cx="2.374" cy="2.374" r="2.374"/><circle class="m" cx="2.211" cy="2.211" r="2.211" transform="translate(8.959 0.163)"/><circle class="m" cx="2.063" cy="2.063" r="2.063" transform="translate(17.903 0.311)"/><circle class="m" cx="1.933" cy="1.933" r="1.933" transform="translate(26.828 0.441)"/><circle class="m" cx="1.826" cy="1.826" r="1.826" transform="translate(35.731 0.548)"/><circle class="m" cx="1.746" cy="1.746" r="1.746" transform="translate(44.607 0.628)"/><circle class="m" cx="1.696" cy="1.696" r="1.696" transform="translate(53.453 0.678)"/><circle class="m" cx="1.679" cy="1.679" r="1.679" transform="translate(62.265 0.695)"/><circle class="m" cx="1.696" cy="1.696" r="1.696" transform="translate(71.044 0.678)"/><circle class="m" cx="1.746" cy="1.746" r="1.746" transform="translate(79.79 0.628)"/><circle class="m" cx="1.826" cy="1.826" r="1.826" transform="translate(88.505 0.548)"/><circle class="m" cx="1.933" cy="1.933" r="1.933" transform="translate(97.194 0.441)"/><circle class="m" cx="2.063" cy="2.063" r="2.063" transform="translate(105.86 0.311)"/><circle class="m" cx="2.211" cy="2.211" r="2.211" transform="translate(114.508 0.163)"/><circle class="m" cx="2.374" cy="2.374" r="2.374" transform="translate(123.14)"/></g></g></g></g></svg>