<svg xmlns="http://www.w3.org/2000/svg" xmlns:xlink="http://www.w3.org/1999/xlink" width="1920" height="339" viewBox="0 0 1920 339"><defs><style>.a{fill:#f1f4f6;}.b{clip-path:url(#a);}.c,.e{fill:url(#b);}.d{fill:#faf3ff;}.e{opacity:0.14;}.f,.n{fill:none;}.f{stroke:#c249e4;opacity:0.15;}.g{opacity:0.47;}.h{fill:#f2dbfb;}.i{opacity:0.13;}.j{fill:#fff;}.k{opacity:0.57;}.l{fill:#f5ddfc;}.m{stroke:none;}</style><clipPath id="a"><rect class="a" width="1920" height="339" transform="translate(0 6909)"/></clipPath><linearGradient id="b" x1="-0.012" y1="0.54" x2="0.86" y2="0.22" gradientUnits="objectBoundingBox"><stop offset="0" stop-color="#751ae4"/><stop offset="0.109" stop-color="#8121e4"/><stop offset="1" stop-color="#df5be4"/></linearGradient></defs><g class="b" transform="translate(0 -6909)"><rect class="c" width="1920" height="339" transform="translate(0 6909)"/><path class="d" d="M-3133-5126c0-194.957,158.042-353,353-353,117.184,0,221.035,57.106,285.24,145H-1295v419H-2496.976c-64.363,86.2-167.174,142-283.025,142C-2974.957-4773-3133-4931.044-3133-5126Z" transform="translate(3215 12211)"/><circle class="e" cx="230" cy="230" r="230" transform="translate(205 6855)"/><circle class="d" cx="139" cy="139" r="139" transform="translate(296 6946)"/><g class="f" transform="translate(182 6832)"><circle class="m" cx="253" cy="253" r="253"/><circle class="n" cx="253" cy="253" r="252.5"/></g><g class="g" transform="translate(1434.751 7146.016)"><g transform="translate(47.248 51.314)"><circle class="h" cx="3.817" cy="3.817" r="3.817"/><circle class="h" cx="3.555" cy="3.555" r="3.555" transform="translate(14.404 0.262)"/><circle class="h" cx="3.317" cy="3.317" r="3.317" transform="translate(28.785 0.5)"/><circle class="h" cx="3.108" cy="3.108" r="3.108" transform="translate(43.135 0.708)"/><circle class="h" cx="2.936" cy="2.936" r="2.936" transform="translate(57.449 0.88)"/><circle class="h" cx="2.807" cy="2.807" r="2.807" transform="translate(71.721 1.01)"/><circle class="h" cx="2.726" cy="2.726" r="2.726" transform="translate(85.944 1.09)"/><circle class="h" cx="2.699" cy="2.699" r="2.699" transform="translate(100.114 1.118)"/><circle class="h" cx="2.726" cy="2.726" r="2.726" transform="translate(114.228 1.09)"/><circle class="h" cx="2.807" cy="2.807" r="2.807" transform="translate(128.29 1.01)"/><circle class="h" cx="2.936" cy="2.936" r="2.936" transform="translate(142.303 0.88)"/><circle class="h" cx="3.108" cy="3.108" r="3.108" transform="translate(156.273 0.708)"/><circle class="h" cx="3.317" cy="3.317" r="3.317" transform="translate(170.207 0.5)"/><circle class="h" cx="3.555" cy="3.555" r="3.555" transform="translate(184.111 0.262)"/><circle class="h" cx="3.817" cy="3.817" r="3.817" transform="translate(197.991)"/></g><g transform="translate(47.248 64.456)"><circle class="h" cx="3.817" cy="3.817" r="3.817"/><circle class="h" cx="3.555" cy="3.555" r="3.555" transform="translate(14.404 0.262)"/><circle class="h" cx="3.317" cy="3.317" r="3.317" transform="translate(28.785 0.5)"/><circle class="h" cx="3.108" cy="3.108" r="3.108" transform="translate(43.135 0.708)"/><circle class="h" cx="2.936" cy="2.936" r="2.936" transform="translate(57.449 0.88)"/><circle class="h" cx="2.807" cy="2.807" r="2.807" transform="translate(71.721 1.01)"/><circle class="h" cx="2.726" cy="2.726" r="2.726" transform="translate(85.944 1.09)"/><circle class="h" cx="2.699" cy="2.699" r="2.699" transform="translate(100.114 1.118)"/><circle class="h" cx="2.726" cy="2.726" r="2.726" transform="translate(114.228 1.09)"/><circle class="h" cx="2.807" cy="2.807" r="2.807" transform="translate(128.29 1.01)"/><circle class="h" cx="2.936" cy="2.936" r="2.936" transform="translate(142.303 0.88)"/><circle class="h" cx="3.108" cy="3.108" r="3.108" transform="translate(156.273 0.708)"/><circle class="h" cx="3.317" cy="3.317" r="3.317" transform="translate(170.207 0.5)"/><circle class="h" cx="3.555" cy="3.555" r="3.555" transform="translate(184.111 0.262)"/><circle class="h" cx="3.817" cy="3.817" r="3.817" transform="translate(197.991)"/></g><g transform="translate(47.248 77.599)"><circle class="h" cx="3.817" cy="3.817" r="3.817"/><circle class="h" cx="3.555" cy="3.555" r="3.555" transform="translate(14.404 0.262)"/><circle class="h" cx="3.317" cy="3.317" r="3.317" transform="translate(28.785 0.5)"/><circle class="h" cx="3.108" cy="3.108" r="3.108" transform="translate(43.135 0.708)"/><circle class="h" cx="2.936" cy="2.936" r="2.936" transform="translate(57.449 0.88)"/><circle class="h" cx="2.807" cy="2.807" r="2.807" transform="translate(71.721 1.01)"/><circle class="h" cx="2.726" cy="2.726" r="2.726" transform="translate(85.944 1.09)"/><circle class="h" cx="2.699" cy="2.699" r="2.699" transform="translate(100.114 1.118)"/><circle class="h" cx="2.726" cy="2.726" r="2.726" transform="translate(114.228 1.09)"/><circle class="h" cx="2.807" cy="2.807" r="2.807" transform="translate(128.29 1.01)"/><circle class="h" cx="2.936" cy="2.936" r="2.936" transform="translate(142.303 0.88)"/><circle class="h" cx="3.108" cy="3.108" r="3.108" transform="translate(156.273 0.708)"/><circle class="h" cx="3.317" cy="3.317" r="3.317" transform="translate(170.207 0.5)"/><circle class="h" cx="3.555" cy="3.555" r="3.555" transform="translate(184.111 0.262)"/><circle class="h" cx="3.817" cy="3.817" r="3.817" transform="translate(197.991)"/></g><g transform="translate(47.248 90.741)"><circle class="h" cx="3.817" cy="3.817" r="3.817"/><circle class="h" cx="3.555" cy="3.555" r="3.555" transform="translate(14.404 0.262)"/><circle class="h" cx="3.317" cy="3.317" r="3.317" transform="translate(28.785 0.5)"/><circle class="h" cx="3.108" cy="3.108" r="3.108" transform="translate(43.135 0.708)"/><circle class="h" cx="2.936" cy="2.936" r="2.936" transform="translate(57.449 0.88)"/><circle class="h" cx="2.807" cy="2.807" r="2.807" transform="translate(71.721 1.01)"/><circle class="h" cx="2.726" cy="2.726" r="2.726" transform="translate(85.944 1.09)"/><circle class="h" cx="2.699" cy="2.699" r="2.699" transform="translate(100.114 1.118)"/><circle class="h" cx="2.726" cy="2.726" r="2.726" transform="translate(114.228 1.09)"/><circle class="h" cx="2.807" cy="2.807" r="2.807" transform="translate(128.29 1.01)"/><circle class="h" cx="2.936" cy="2.936" r="2.936" transform="translate(142.303 0.88)"/><circle class="h" cx="3.108" cy="3.108" r="3.108" transform="translate(156.273 0.708)"/><circle class="h" cx="3.317" cy="3.317" r="3.317" transform="translate(170.207 0.5)"/><circle class="h" cx="3.555" cy="3.555" r="3.555" transform="translate(184.111 0.262)"/><circle class="h" cx="3.817" cy="3.817" r="3.817" transform="translate(197.991)"/></g><g transform="translate(47.248 103.884)"><circle class="h" cx="3.817" cy="3.817" r="3.817"/><circle class="h" cx="3.555" cy="3.555" r="3.555" transform="translate(14.404 0.262)"/><circle class="h" cx="3.317" cy="3.317" r="3.317" transform="translate(28.785 0.5)"/><circle class="h" cx="3.108" cy="3.108" r="3.108" transform="translate(43.135 0.708)"/><circle class="h" cx="2.936" cy="2.936" r="2.936" transform="translate(57.449 0.88)"/><circle class="h" cx="2.807" cy="2.807" r="2.807" transform="translate(71.721 1.01)"/><circle class="h" cx="2.726" cy="2.726" r="2.726" transform="translate(85.944 1.09)"/><circle class="h" cx="2.699" cy="2.699" r="2.699" transform="translate(100.114 1.118)"/><circle class="h" cx="2.726" cy="2.726" r="2.726" transform="translate(114.228 1.09)"/><circle class="h" cx="2.807" cy="2.807" r="2.807" transform="translate(128.29 1.01)"/><circle class="h" cx="2.936" cy="2.936" r="2.936" transform="translate(142.303 0.88)"/><circle class="h" cx="3.108" cy="3.108" r="3.108" transform="translate(156.273 0.708)"/><circle class="h" cx="3.317" cy="3.317" r="3.317" transform="translate(170.207 0.5)"/><circle class="h" cx="3.555" cy="3.555" r="3.555" transform="translate(184.111 0.262)"/><circle class="h" cx="3.817" cy="3.817" r="3.817" transform="translate(197.991)"/></g><g transform="translate(47.248 117.026)"><circle class="h" cx="3.817" cy="3.817" r="3.817"/><circle class="h" cx="3.555" cy="3.555" r="3.555" transform="translate(14.404 0.262)"/><circle class="h" cx="3.317" cy="3.317" r="3.317" transform="translate(28.785 0.5)"/><circle class="h" cx="3.108" cy="3.108" r="3.108" transform="translate(43.135 0.708)"/><circle class="h" cx="2.936" cy="2.936" r="2.936" transform="translate(57.449 0.88)"/><circle class="h" cx="2.807" cy="2.807" r="2.807" transform="translate(71.721 1.01)"/><circle class="h" cx="2.726" cy="2.726" r="2.726" transform="translate(85.944 1.09)"/><circle class="h" cx="2.699" cy="2.699" r="2.699" transform="translate(100.114 1.118)"/><circle class="h" cx="2.726" cy="2.726" r="2.726" transform="translate(114.228 1.09)"/><circle class="h" cx="2.807" cy="2.807" r="2.807" transform="translate(128.29 1.01)"/><circle class="h" cx="2.936" cy="2.936" r="2.936" transform="translate(142.303 0.88)"/><circle class="h" cx="3.108" cy="3.108" r="3.108" transform="translate(156.273 0.708)"/><circle class="h" cx="3.317" cy="3.317" r="3.317" transform="translate(170.207 0.5)"/><circle class="h" cx="3.555" cy="3.555" r="3.555" transform="translate(184.111 0.262)"/><circle class="h" cx="3.817" cy="3.817" r="3.817" transform="translate(197.991)"/></g></g><g class="g" transform="translate(1566.751 6809.016)"><g transform="translate(47.248 51.314)"><circle class="h" cx="3.817" cy="3.817" r="3.817"/><circle class="h" cx="3.555" cy="3.555" r="3.555" transform="translate(14.404 0.262)"/><circle class="h" cx="3.317" cy="3.317" r="3.317" transform="translate(28.785 0.5)"/><circle class="h" cx="3.108" cy="3.108" r="3.108" transform="translate(43.135 0.708)"/><circle class="h" cx="2.936" cy="2.936" r="2.936" transform="translate(57.449 0.88)"/><circle class="h" cx="2.807" cy="2.807" r="2.807" transform="translate(71.721 1.01)"/><circle class="h" cx="2.726" cy="2.726" r="2.726" transform="translate(85.944 1.09)"/><circle class="h" cx="2.699" cy="2.699" r="2.699" transform="translate(100.114 1.118)"/><circle class="h" cx="2.726" cy="2.726" r="2.726" transform="translate(114.228 1.09)"/><circle class="h" cx="2.807" cy="2.807" r="2.807" transform="translate(128.29 1.01)"/><circle class="h" cx="2.936" cy="2.936" r="2.936" transform="translate(142.303 0.88)"/><circle class="h" cx="3.108" cy="3.108" r="3.108" transform="translate(156.273 0.708)"/><circle class="h" cx="3.317" cy="3.317" r="3.317" transform="translate(170.207 0.5)"/><circle class="h" cx="3.555" cy="3.555" r="3.555" transform="translate(184.111 0.262)"/><circle class="h" cx="3.817" cy="3.817" r="3.817" transform="translate(197.991)"/></g><g transform="translate(47.248 64.456)"><circle class="h" cx="3.817" cy="3.817" r="3.817"/><circle class="h" cx="3.555" cy="3.555" r="3.555" transform="translate(14.404 0.262)"/><circle class="h" cx="3.317" cy="3.317" r="3.317" transform="translate(28.785 0.5)"/><circle class="h" cx="3.108" cy="3.108" r="3.108" transform="translate(43.135 0.708)"/><circle class="h" cx="2.936" cy="2.936" r="2.936" transform="translate(57.449 0.88)"/><circle class="h" cx="2.807" cy="2.807" r="2.807" transform="translate(71.721 1.01)"/><circle class="h" cx="2.726" cy="2.726" r="2.726" transform="translate(85.944 1.09)"/><circle class="h" cx="2.699" cy="2.699" r="2.699" transform="translate(100.114 1.118)"/><circle class="h" cx="2.726" cy="2.726" r="2.726" transform="translate(114.228 1.09)"/><circle class="h" cx="2.807" cy="2.807" r="2.807" transform="translate(128.29 1.01)"/><circle class="h" cx="2.936" cy="2.936" r="2.936" transform="translate(142.303 0.88)"/><circle class="h" cx="3.108" cy="3.108" r="3.108" transform="translate(156.273 0.708)"/><circle class="h" cx="3.317" cy="3.317" r="3.317" transform="translate(170.207 0.5)"/><circle class="h" cx="3.555" cy="3.555" r="3.555" transform="translate(184.111 0.262)"/><circle class="h" cx="3.817" cy="3.817" r="3.817" transform="translate(197.991)"/></g><g transform="translate(47.248 77.599)"><circle class="h" cx="3.817" cy="3.817" r="3.817"/><circle class="h" cx="3.555" cy="3.555" r="3.555" transform="translate(14.404 0.262)"/><circle class="h" cx="3.317" cy="3.317" r="3.317" transform="translate(28.785 0.5)"/><circle class="h" cx="3.108" cy="3.108" r="3.108" transform="translate(43.135 0.708)"/><circle class="h" cx="2.936" cy="2.936" r="2.936" transform="translate(57.449 0.88)"/><circle class="h" cx="2.807" cy="2.807" r="2.807" transform="translate(71.721 1.01)"/><circle class="h" cx="2.726" cy="2.726" r="2.726" transform="translate(85.944 1.09)"/><circle class="h" cx="2.699" cy="2.699" r="2.699" transform="translate(100.114 1.118)"/><circle class="h" cx="2.726" cy="2.726" r="2.726" transform="translate(114.228 1.09)"/><circle class="h" cx="2.807" cy="2.807" r="2.807" transform="translate(128.29 1.01)"/><circle class="h" cx="2.936" cy="2.936" r="2.936" transform="translate(142.303 0.88)"/><circle class="h" cx="3.108" cy="3.108" r="3.108" transform="translate(156.273 0.708)"/><circle class="h" cx="3.317" cy="3.317" r="3.317" transform="translate(170.207 0.5)"/><circle class="h" cx="3.555" cy="3.555" r="3.555" transform="translate(184.111 0.262)"/><circle class="h" cx="3.817" cy="3.817" r="3.817" transform="translate(197.991)"/></g><g transform="translate(47.248 90.741)"><circle class="h" cx="3.817" cy="3.817" r="3.817"/><circle class="h" cx="3.555" cy="3.555" r="3.555" transform="translate(14.404 0.262)"/><circle class="h" cx="3.317" cy="3.317" r="3.317" transform="translate(28.785 0.5)"/><circle class="h" cx="3.108" cy="3.108" r="3.108" transform="translate(43.135 0.708)"/><circle class="h" cx="2.936" cy="2.936" r="2.936" transform="translate(57.449 0.88)"/><circle class="h" cx="2.807" cy="2.807" r="2.807" transform="translate(71.721 1.01)"/><circle class="h" cx="2.726" cy="2.726" r="2.726" transform="translate(85.944 1.09)"/><circle class="h" cx="2.699" cy="2.699" r="2.699" transform="translate(100.114 1.118)"/><circle class="h" cx="2.726" cy="2.726" r="2.726" transform="translate(114.228 1.09)"/><circle class="h" cx="2.807" cy="2.807" r="2.807" transform="translate(128.29 1.01)"/><circle class="h" cx="2.936" cy="2.936" r="2.936" transform="translate(142.303 0.88)"/><circle class="h" cx="3.108" cy="3.108" r="3.108" transform="translate(156.273 0.708)"/><circle class="h" cx="3.317" cy="3.317" r="3.317" transform="translate(170.207 0.5)"/><circle class="h" cx="3.555" cy="3.555" r="3.555" transform="translate(184.111 0.262)"/><circle class="h" cx="3.817" cy="3.817" r="3.817" transform="translate(197.991)"/></g><g transform="translate(47.248 103.884)"><circle class="h" cx="3.817" cy="3.817" r="3.817"/><circle class="h" cx="3.555" cy="3.555" r="3.555" transform="translate(14.404 0.262)"/><circle class="h" cx="3.317" cy="3.317" r="3.317" transform="translate(28.785 0.5)"/><circle class="h" cx="3.108" cy="3.108" r="3.108" transform="translate(43.135 0.708)"/><circle class="h" cx="2.936" cy="2.936" r="2.936" transform="translate(57.449 0.88)"/><circle class="h" cx="2.807" cy="2.807" r="2.807" transform="translate(71.721 1.01)"/><circle class="h" cx="2.726" cy="2.726" r="2.726" transform="translate(85.944 1.09)"/><circle class="h" cx="2.699" cy="2.699" r="2.699" transform="translate(100.114 1.118)"/><circle class="h" cx="2.726" cy="2.726" r="2.726" transform="translate(114.228 1.09)"/><circle class="h" cx="2.807" cy="2.807" r="2.807" transform="translate(128.29 1.01)"/><circle class="h" cx="2.936" cy="2.936" r="2.936" transform="translate(142.303 0.88)"/><circle class="h" cx="3.108" cy="3.108" r="3.108" transform="translate(156.273 0.708)"/><circle class="h" cx="3.317" cy="3.317" r="3.317" transform="translate(170.207 0.5)"/><circle class="h" cx="3.555" cy="3.555" r="3.555" transform="translate(184.111 0.262)"/><circle class="h" cx="3.817" cy="3.817" r="3.817" transform="translate(197.991)"/></g><g transform="translate(47.248 117.026)"><circle class="h" cx="3.817" cy="3.817" r="3.817"/><circle class="h" cx="3.555" cy="3.555" r="3.555" transform="translate(14.404 0.262)"/><circle class="h" cx="3.317" cy="3.317" r="3.317" transform="translate(28.785 0.5)"/><circle class="h" cx="3.108" cy="3.108" r="3.108" transform="translate(43.135 0.708)"/><circle class="h" cx="2.936" cy="2.936" r="2.936" transform="translate(57.449 0.88)"/><circle class="h" cx="2.807" cy="2.807" r="2.807" transform="translate(71.721 1.01)"/><circle class="h" cx="2.726" cy="2.726" r="2.726" transform="translate(85.944 1.09)"/><circle class="h" cx="2.699" cy="2.699" r="2.699" transform="translate(100.114 1.118)"/><circle class="h" cx="2.726" cy="2.726" r="2.726" transform="translate(114.228 1.09)"/><circle class="h" cx="2.807" cy="2.807" r="2.807" transform="translate(128.29 1.01)"/><circle class="h" cx="2.936" cy="2.936" r="2.936" transform="translate(142.303 0.88)"/><circle class="h" cx="3.108" cy="3.108" r="3.108" transform="translate(156.273 0.708)"/><circle class="h" cx="3.317" cy="3.317" r="3.317" transform="translate(170.207 0.5)"/><circle class="h" cx="3.555" cy="3.555" r="3.555" transform="translate(184.111 0.262)"/><circle class="h" cx="3.817" cy="3.817" r="3.817" transform="translate(197.991)"/></g></g><g class="i" transform="translate(-25.438 7378.8) rotate(-90)"><circle class="j" cx="2.301" cy="2.301" r="2.301" transform="translate(47.248 51.314)"/><circle class="j" cx="2.143" cy="2.143" r="2.143" transform="translate(55.933 51.472)"/><circle class="j" cx="2" cy="2" r="2" transform="translate(64.603 51.615)"/><circle class="j" cx="1.874" cy="1.874" r="1.874" transform="translate(73.255 51.741)"/><circle class="j" cx="1.77" cy="1.77" r="1.77" transform="translate(81.885 51.845)"/><circle class="j" cx="1.692" cy="1.692" r="1.692" transform="translate(90.49 51.923)"/><circle class="j" cx="1.644" cy="1.644" r="1.644" transform="translate(99.065 51.971)"/><circle class="j" cx="1.627" cy="1.627" r="1.627" transform="translate(107.608 51.988)"/><circle class="j" cx="1.644" cy="1.644" r="1.644" transform="translate(116.118 51.971)"/><circle class="j" cx="1.692" cy="1.692" r="1.692" transform="translate(124.596 51.923)"/><circle class="j" cx="1.77" cy="1.77" r="1.77" transform="translate(133.045 51.845)"/><circle class="j" cx="1.874" cy="1.874" r="1.874" transform="translate(141.467 51.741)"/><circle class="j" cx="2" cy="2" r="2" transform="translate(149.868 51.615)"/><circle class="j" cx="2.143" cy="2.143" r="2.143" transform="translate(158.251 51.472)"/><circle class="j" cx="2.301" cy="2.301" r="2.301" transform="translate(166.62 51.314)"/><circle class="j" cx="2.301" cy="2.301" r="2.301" transform="translate(47.248 59.238)"/><circle class="j" cx="2.143" cy="2.143" r="2.143" transform="translate(55.933 59.396)"/><circle class="j" cx="2" cy="2" r="2" transform="translate(64.603 59.539)"/><circle class="j" cx="1.874" cy="1.874" r="1.874" transform="translate(73.255 59.665)"/><circle class="j" cx="1.77" cy="1.77" r="1.77" transform="translate(81.885 59.769)"/><circle class="j" cx="1.692" cy="1.692" r="1.692" transform="translate(90.49 59.847)"/><circle class="j" cx="1.644" cy="1.644" r="1.644" transform="translate(99.065 59.895)"/><circle class="j" cx="1.627" cy="1.627" r="1.627" transform="translate(107.608 59.912)"/><circle class="j" cx="1.644" cy="1.644" r="1.644" transform="translate(116.118 59.895)"/><circle class="j" cx="1.692" cy="1.692" r="1.692" transform="translate(124.596 59.847)"/><circle class="j" cx="1.77" cy="1.77" r="1.77" transform="translate(133.045 59.769)"/><circle class="j" cx="1.874" cy="1.874" r="1.874" transform="translate(141.467 59.665)"/><circle class="j" cx="2" cy="2" r="2" transform="translate(149.868 59.539)"/><circle class="j" cx="2.143" cy="2.143" r="2.143" transform="translate(158.251 59.396)"/><circle class="j" cx="2.301" cy="2.301" r="2.301" transform="translate(166.62 59.238)"/><circle class="j" cx="2.301" cy="2.301" r="2.301" transform="translate(47.248 67.161)"/><circle class="j" cx="2.143" cy="2.143" r="2.143" transform="translate(55.933 67.319)"/><circle class="j" cx="2" cy="2" r="2" transform="translate(64.603 67.463)"/><circle class="j" cx="1.874" cy="1.874" r="1.874" transform="translate(73.255 67.589)"/><circle class="j" cx="1.77" cy="1.77" r="1.77" transform="translate(81.885 67.692)"/><circle class="j" cx="1.692" cy="1.692" r="1.692" transform="translate(90.49 67.77)"/><circle class="j" cx="1.644" cy="1.644" r="1.644" transform="translate(99.065 67.819)"/><circle class="j" cx="1.627" cy="1.627" r="1.627" transform="translate(107.608 67.835)"/><circle class="j" cx="1.644" cy="1.644" r="1.644" transform="translate(116.118 67.819)"/><circle class="j" cx="1.692" cy="1.692" r="1.692" transform="translate(124.596 67.77)"/><circle class="j" cx="1.77" cy="1.77" r="1.77" transform="translate(133.045 67.692)"/><circle class="j" cx="1.874" cy="1.874" r="1.874" transform="translate(141.467 67.589)"/><circle class="j" cx="2" cy="2" r="2" transform="translate(149.868 67.463)"/><circle class="j" cx="2.143" cy="2.143" r="2.143" transform="translate(158.251 67.319)"/><circle class="j" cx="2.301" cy="2.301" r="2.301" transform="translate(166.62 67.161)"/><circle class="j" cx="2.301" cy="2.301" r="2.301" transform="translate(47.248 75.085)"/><circle class="j" cx="2.143" cy="2.143" r="2.143" transform="translate(55.933 75.243)"/><circle class="j" cx="2" cy="2" r="2" transform="translate(64.603 75.387)"/><circle class="j" cx="1.874" cy="1.874" r="1.874" transform="translate(73.255 75.512)"/><circle class="j" cx="1.77" cy="1.77" r="1.77" transform="translate(81.885 75.616)"/><circle class="j" cx="1.692" cy="1.692" r="1.692" transform="translate(90.49 75.694)"/><circle class="j" cx="1.644" cy="1.644" r="1.644" transform="translate(99.065 75.743)"/><circle class="j" cx="1.627" cy="1.627" r="1.627" transform="translate(107.608 75.759)"/><circle class="j" cx="1.644" cy="1.644" r="1.644" transform="translate(116.118 75.743)"/><circle class="j" cx="1.692" cy="1.692" r="1.692" transform="translate(124.596 75.694)"/><circle class="j" cx="1.77" cy="1.77" r="1.77" transform="translate(133.045 75.616)"/><circle class="j" cx="1.874" cy="1.874" r="1.874" transform="translate(141.467 75.512)"/><circle class="j" cx="2" cy="2" r="2" transform="translate(149.868 75.387)"/><circle class="j" cx="2.143" cy="2.143" r="2.143" transform="translate(158.251 75.243)"/><circle class="j" cx="2.301" cy="2.301" r="2.301" transform="translate(166.62 75.085)"/><circle class="j" cx="2.301" cy="2.301" r="2.301" transform="translate(47.248 83.009)"/><circle class="j" cx="2.143" cy="2.143" r="2.143" transform="translate(55.933 83.167)"/><circle class="j" cx="2" cy="2" r="2" transform="translate(64.603 83.31)"/><circle class="j" cx="1.874" cy="1.874" r="1.874" transform="translate(73.255 83.436)"/><circle class="j" cx="1.77" cy="1.77" r="1.77" transform="translate(81.885 83.54)"/><circle class="j" cx="1.692" cy="1.692" r="1.692" transform="translate(90.49 83.618)"/><circle class="j" cx="1.644" cy="1.644" r="1.644" transform="translate(99.065 83.666)"/><circle class="j" cx="1.627" cy="1.627" r="1.627" transform="translate(107.608 83.683)"/><circle class="j" cx="1.644" cy="1.644" r="1.644" transform="translate(116.118 83.666)"/><circle class="j" cx="1.692" cy="1.692" r="1.692" transform="translate(124.596 83.618)"/><circle class="j" cx="1.77" cy="1.77" r="1.77" transform="translate(133.045 83.54)"/><circle class="j" cx="1.874" cy="1.874" r="1.874" transform="translate(141.467 83.436)"/><circle class="j" cx="2" cy="2" r="2" transform="translate(149.868 83.31)"/><circle class="j" cx="2.143" cy="2.143" r="2.143" transform="translate(158.251 83.167)"/><circle class="j" cx="2.301" cy="2.301" r="2.301" transform="translate(166.62 83.009)"/><circle class="j" cx="2.301" cy="2.301" r="2.301" transform="translate(47.248 90.933)"/><circle class="j" cx="2.143" cy="2.143" r="2.143" transform="translate(55.933 91.091)"/><circle class="j" cx="2" cy="2" r="2" transform="translate(64.603 91.234)"/><circle class="j" cx="1.874" cy="1.874" r="1.874" transform="translate(73.255 91.36)"/><circle class="j" cx="1.77" cy="1.77" r="1.77" transform="translate(81.885 91.463)"/><circle class="j" cx="1.692" cy="1.692" r="1.692" transform="translate(90.49 91.542)"/><circle class="j" cx="1.644" cy="1.644" r="1.644" transform="translate(99.065 91.59)"/><circle class="j" cx="1.627" cy="1.627" r="1.627" transform="translate(107.608 91.607)"/><circle class="j" cx="1.644" cy="1.644" r="1.644" transform="translate(116.118 91.59)"/><circle class="j" cx="1.692" cy="1.692" r="1.692" transform="translate(124.596 91.542)"/><circle class="j" cx="1.77" cy="1.77" r="1.77" transform="translate(133.045 91.463)"/><circle class="j" cx="1.874" cy="1.874" r="1.874" transform="translate(141.467 91.36)"/><circle class="j" cx="2" cy="2" r="2" transform="translate(149.868 91.234)"/><circle class="j" cx="2.143" cy="2.143" r="2.143" transform="translate(158.251 91.091)"/><circle class="j" cx="2.301" cy="2.301" r="2.301" transform="translate(166.62 90.933)"/></g><g class="k" transform="translate(-636.44 6057.002)"><g transform="translate(1018.44 984.998)"><path class="l" d="M1089.979,1085H1046.9a28.493,28.493,0,0,1-28.462-28.462V1013.46A28.493,28.493,0,0,1,1046.9,985h43.077a28.5,28.5,0,0,1,28.463,28.462v43.077A28.494,28.494,0,0,1,1089.979,1085ZM1046.9,993.57a19.913,19.913,0,0,0-19.891,19.89v43.077a19.913,19.913,0,0,0,19.891,19.89h43.077a19.913,19.913,0,0,0,19.891-19.89V1013.46a19.913,19.913,0,0,0-19.891-19.89Z" transform="translate(-1018.44 -984.998)"/></g><g transform="translate(1042.836 1009.394)"><path class="l" d="M1082.553,1074.715a25.6,25.6,0,1,1,25.6-25.6A25.633,25.633,0,0,1,1082.553,1074.715Zm0-42.638a17.033,17.033,0,1,0,17.033,17.033A17.053,17.053,0,0,0,1082.553,1032.078Z" transform="translate(-1056.948 -1023.506)"/></g><g transform="translate(1088.99 1001.775)"><path class="l" d="M1142.108,1017.633a6.154,6.154,0,1,1-6.153-6.153A6.153,6.153,0,0,1,1142.108,1017.633Z" transform="translate(-1129.8 -1011.48)"/></g></g></g></svg>