<svg xmlns="http://www.w3.org/2000/svg" width="45.424" height="45.424" viewBox="0 0 45.424 45.424"><defs><style>.a{fill:#ffea82;}.b{fill:#ea3974;}.c{fill:#434343;}</style></defs><g transform="translate(-417.73 -94.872) rotate(-30)"><circle class="a" cx="16.985" cy="16.985" r="16.985" transform="translate(306.883 303.923) rotate(4)"/><path class="b" d="M9.889,5.932A2.777,2.777,0,0,0,5.557,2.87a2.779,2.779,0,1,0-5.423.765L1.847,8.973a.72.72,0,0,0,.906.466L8.09,7.725A2.781,2.781,0,0,0,9.889,5.932Z" transform="translate(331.342 323.232) rotate(4)"/><ellipse class="c" cx="1.57" cy="2.59" rx="1.57" ry="2.59" transform="translate(315.182 319.53)"/><g transform="translate(312.037 313.44)"><path class="c" d="M311.442,316.461a.592.592,0,0,1-.537-.847,6.9,6.9,0,0,1,6.228-3.678.594.594,0,0,1,0,1.188,5.777,5.777,0,0,0-5.155,3A.593.593,0,0,1,311.442,316.461Z" transform="translate(-310.848 -311.936)"/></g><g transform="translate(326.479 315.799)"><path class="c" d="M329.977,317.064a.594.594,0,0,1-.449-.2,5.717,5.717,0,0,0-5.768-1.512.594.594,0,0,1-.318-1.144,6.907,6.907,0,0,1,6.985,1.88.593.593,0,0,1-.45.98Z" transform="translate(-323.007 -313.922)"/></g><g transform="translate(326.7 320.138)"><path class="c" d="M323.788,320.145a.595.595,0,0,1-.479-.947,3.984,3.984,0,0,1,5.516-.9.594.594,0,0,1-.646,1,2.829,2.829,0,0,0-3.914.606A.6.6,0,0,1,323.788,320.145Z" transform="translate(-323.193 -317.575)"/></g><g transform="translate(322.046 326.827)"><path class="c" d="M320.526,330.091a.593.593,0,0,1-.368-1.058l1.725-1.371-1.09-.467a.594.594,0,0,1-.181-.97l1.1-1.077-2.054-.792a.594.594,0,0,1,.426-1.108L323,324.371a.594.594,0,0,1,.2.979l-1.125,1.1,1.191.51a.594.594,0,0,1,.134,1.011l-2.5,1.989A.59.59,0,0,1,320.526,330.091Z" transform="translate(-319.275 -323.207)"/></g></g></svg>