<svg xmlns="http://www.w3.org/2000/svg" xmlns:xlink="http://www.w3.org/1999/xlink" width="121.872" height="109.72" viewBox="0 0 121.872 109.72"><defs><style>.a{fill:url(#a);}.b{fill:#fff;}.c{filter:url(#b);}</style><linearGradient id="a" x1="-0.012" y1="0.54" x2="0.86" y2="0.22" gradientUnits="objectBoundingBox"><stop offset="0" stop-color="#751ae4"/><stop offset="0.109" stop-color="#8121e4"/><stop offset="1" stop-color="#df5be4"/></linearGradient><filter id="b" x="47.292" y="82.432" width="27.288" height="27.288" filterUnits="userSpaceOnUse"><feOffset dy="3" input="SourceAlpha"/><feGaussianBlur stdDeviation="3" result="c"/><feFlood flood-color="#ce51e4" flood-opacity="0.349"/><feComposite operator="in" in2="c"/><feComposite in="SourceGraphic"/></filter></defs><g transform="translate(-235.128 -6991.923)"><path class="a" d="M55.019,86.024,48.87,75.4H16a16,16,0,0,1-16-16V29A16,16,0,0,1,16,13h89.871a16,16,0,0,1,16,16V59.4a16,16,0,0,1-16,16H73.283L67.134,86.024a7,7,0,0,1-12.115,0Z" transform="translate(235.128 6978.924)"/><g transform="translate(258.856 7004)"><path class="b" d="M403.228,2.694h-1.754V.954a.954.954,0,0,0-1.908,0v1.74h-1.754a.954.954,0,1,0,0,1.908h1.754v1.74a.954.954,0,0,0,1.908,0V4.6h1.754a.954.954,0,0,0,0-1.908Z" transform="translate(-371.618 0)"/><path class="b" d="M5.491,314.829c0-.253.011-.5.031-.755a7.094,7.094,0,0,1-3.4-2.052A6.327,6.327,0,0,0,0,316.751v7.99H5.491Z" transform="translate(0 -292.177)"/><path class="b" d="M41.292,160.845a8.123,8.123,0,0,1-1.227-4.3c0-.17.006-.338.016-.506a5.152,5.152,0,0,0-2.407,10.006A9.758,9.758,0,0,1,41.292,160.845Z" transform="translate(-31.813 -146.034)"/><path class="b" d="M166.049,78.987a6.286,6.286,0,1,1,6.313-6.286A6.307,6.307,0,0,1,166.049,78.987Z" transform="translate(-149.576 -62.19)"/><path class="b" d="M131.208,256.369a8.227,8.227,0,0,1-11.614,0,7.8,7.8,0,0,0-3.267,6.347v9.912h18.148v-9.912A7.8,7.8,0,0,0,131.208,256.369Z" transform="translate(-108.928 -240.063)"/></g><path class="b" d="M14.043-18.848a2.142,2.142,0,0,1,.233.527,2.443,2.443,0,0,1,.108.744q0,1.426-1.209,1.426H5.8l-.434,4.836a7.805,7.805,0,0,1,1.395-.465A7.786,7.786,0,0,1,8.649-12a8.006,8.006,0,0,1,2.635.418,5.757,5.757,0,0,1,2.062,1.209,5.567,5.567,0,0,1,1.333,1.906,6.373,6.373,0,0,1,.481,2.542,6.657,6.657,0,0,1-.465,2.5A5.619,5.619,0,0,1,13.33-1.411,6.432,6.432,0,0,1,11.067-.062a9.133,9.133,0,0,1-3.131.5A12.19,12.19,0,0,1,5.456.2,8.1,8.1,0,0,1,3.55-.419,3.86,3.86,0,0,1,2.325-1.3a1.579,1.579,0,0,1-.434-1.054,1.562,1.562,0,0,1,.357-1.023A2.1,2.1,0,0,1,3.038-4,9.512,9.512,0,0,0,4.96-2.806a6.468,6.468,0,0,0,2.852.573A4.05,4.05,0,0,0,10.8-3.271a3.551,3.551,0,0,0,1.039-2.62A3.229,3.229,0,0,0,10.8-8.448,4.094,4.094,0,0,0,8-9.362a5.306,5.306,0,0,0-1.829.294,11.629,11.629,0,0,0-1.55.7,2.716,2.716,0,0,1-1.643-.589,1.846,1.846,0,0,1-.62-1.488q0-.155.016-.4t.046-.589l.465-5.58a2.11,2.11,0,0,1,.527-1.333,1.7,1.7,0,0,1,1.3-.5Zm8.4,10.354V-.031q-.248.062-.651.155a4.006,4.006,0,0,1-.9.093A2.124,2.124,0,0,1,19.514-.14,1.493,1.493,0,0,1,19.1-1.333V-18.817q.248-.062.667-.139a4.847,4.847,0,0,1,.884-.077,2.216,2.216,0,0,1,1.348.341,1.43,1.43,0,0,1,.45,1.209v7.006l7.967-8.494a2.6,2.6,0,0,1,1.705.512,1.485,1.485,0,0,1,.527,1.132,1.817,1.817,0,0,1-.279.976,5.624,5.624,0,0,1-.806.977l-5.89,5.828q2.573,2.635,4.511,4.666t3.333,3.3a1.963,1.963,0,0,1-.574,1.349,1.726,1.726,0,0,1-1.225.481,1.966,1.966,0,0,1-1.255-.4,11.842,11.842,0,0,1-1.039-.93Z" transform="translate(298.272 7031)"/><g class="c" transform="matrix(1, 0, 0, 1, 235.13, 6991.92)"><circle class="b" cx="4.644" cy="4.644" r="4.644" transform="translate(56.29 88.43)"/></g></g></svg>