<svg xmlns="http://www.w3.org/2000/svg" xmlns:xlink="http://www.w3.org/1999/xlink" width="60.123" height="60.124" viewBox="0 0 60.123 60.124"><defs><style>.a{fill:#faf3ff;}.b{fill:#7258df;}.c{filter:url(#a);}</style><filter id="a" x="0" y="0" width="60.123" height="60.124" filterUnits="userSpaceOnUse"><feOffset dy="3" input="SourceAlpha"/><feGaussianBlur stdDeviation="3" result="b"/><feFlood flood-color="#ce51e4" flood-opacity="0.2"/><feComposite operator="in" in2="b"/><feComposite in="SourceGraphic"/></filter></defs><g transform="translate(-505.865 -7145.836)"><g class="c" transform="matrix(1, 0, 0, 1, 505.86, 7145.84)"><ellipse class="a" cx="18.899" cy="18.899" rx="18.899" ry="18.899" transform="translate(13.61 6) rotate(7)"/></g><path class="b" d="M19.3,3.651A12.934,12.934,0,0,1,9.678,0,12.932,12.932,0,0,1,.053,3.651c0,6.542-1.354,15.913,9.625,19.719C20.657,19.564,19.3,10.193,19.3,3.651ZM8.88,15.163,5.674,11.956,7.11,10.52,8.88,12.291l3.366-3.366,1.436,1.436Zm0,0" transform="translate(527.508 7160.619) rotate(7)"/></g></svg>