<svg xmlns="http://www.w3.org/2000/svg" xmlns:xlink="http://www.w3.org/1999/xlink" width="43.856" height="43.855" viewBox="0 0 43.856 43.855"><defs><style>.a{fill:#faf3ff;}.b{fill:#7d1fe4;}.c{filter:url(#a);}</style><filter id="a" x="0" y="0" width="43.856" height="43.855" filterUnits="userSpaceOnUse"><feOffset dy="3" input="SourceAlpha"/><feGaussianBlur stdDeviation="3" result="b"/><feFlood flood-color="#ce51e4" flood-opacity="0.2"/><feComposite operator="in" in2="b"/><feComposite in="SourceGraphic"/></filter></defs><g transform="translate(-86.636 -6934.571)"><g class="c" transform="matrix(1, 0, 0, 1, 86.64, 6934.57)"><ellipse class="a" cx="12.928" cy="12.928" rx="12.928" ry="12.928" transform="translate(9 6)"/></g><g transform="translate(102.068 6946.288)"><path class="b" d="M468.95,298.856a1.159,1.159,0,0,0-.049-1.234,1.183,1.183,0,0,0-1.22-.5c-.634.1-1.268.208-1.9.311-.048.008-.1.033-.145,0a.106.106,0,0,1-.019.014.1.1,0,0,0,.019-.014c.036-.115.074-.23.106-.347a3.547,3.547,0,0,0,.115-1.25,2.92,2.92,0,0,0-.131-.751,1.575,1.575,0,0,0-1.56-1.089.821.821,0,0,0-.856.835,4.612,4.612,0,0,1-.032.759,3.585,3.585,0,0,1-.753,1.617,7.493,7.493,0,0,1-.839.874h0c-.278.228-.558.452-.85.661a.2.2,0,0,0-.083.2l.942,5.731a.2.2,0,0,0,.16.168,7.732,7.732,0,0,0,.928.131,9.2,9.2,0,0,0,2.141-.106c1.029-.156,2.054-.334,3.08-.5a1.456,1.456,0,0,0,.325-.086,1.177,1.177,0,0,0,.542-1.774c-.047-.066-.039-.1.015-.16a1.148,1.148,0,0,0,.12-1.489.106.106,0,0,1,.015-.16,1.16,1.16,0,0,0-.031-1.669C468.918,298.958,468.916,298.919,468.95,298.856Z" transform="translate(-456.362 -293.997)"/><path class="b" d="M455.365,303.9l0-.015-.013-.076a.508.508,0,0,0-.125-.307c-.01-.01-.022-.016-.032-.024a.4.4,0,0,0-.033-.025l-.037-.02-.034-.015a.436.436,0,0,0-.056-.016h-.007a.475.475,0,0,0-.159,0l-1.558.257-1.559.256a.467.467,0,0,0-.15.053l-.006,0a.339.339,0,0,0-.048.034l-.028.024q-.015.015-.028.031a.335.335,0,0,0-.023.034c-.008.012-.016.021-.023.034a.51.51,0,0,0-.021.331l.012.076,0,.015,0,.013q.386,2.348.772,4.695c.076.461.15.923.228,1.384a.4.4,0,0,0,.507.366l.786-.13c.129-.018.257-.044.386-.063l.356-.059.356-.058c.128-.023.258-.039.386-.064l.786-.129a.4.4,0,0,0,.363-.509c-.074-.462-.151-.923-.227-1.385l-.772-4.694Z" transform="translate(-451.406 -298.986)"/></g></g></svg>