<svg xmlns="http://www.w3.org/2000/svg" width="48.365" height="48.365" viewBox="0 0 48.365 48.365"><defs><style>.a{fill:#ffea82;}.b{fill:#434343;}</style></defs><g transform="translate(-435.899 8.004) rotate(-25)"><circle class="a" cx="18.197" cy="18.197" r="18.197" transform="translate(391.941 190.905)"/><path class="b" d="M410.138,219.516a4.758,4.758,0,0,1-4.764-3.674.725.725,0,1,1,1.418-.3,3.482,3.482,0,0,0,6.7,0,.725.725,0,1,1,1.417.3A4.763,4.763,0,0,1,410.138,219.516Z"/><path class="b" d="M399.2,205.01a.724.724,0,0,1-.428-1.31c1.557-1.144,5.391-2.622,8.7-.032a.726.726,0,1,1-.9,1.143c-3.261-2.552-6.794-.048-6.945.061A.721.721,0,0,1,399.2,205.01Z"/><path class="b" d="M405.791,209.827a.724.724,0,0,1-.584-.295,2.95,2.95,0,0,0-4.072-.625.726.726,0,0,1-.791-1.218,4.354,4.354,0,0,1,6.031.981.727.727,0,0,1-.153,1.016A.737.737,0,0,1,405.791,209.827Z"/><path class="b" d="M421.08,205.01a.723.723,0,0,1-.428-.138c-.15-.109-3.681-2.613-6.944-.061a.726.726,0,1,1-.9-1.143c3.312-2.587,7.14-1.111,8.7.032a.724.724,0,0,1-.428,1.31Z"/><path class="b" d="M414.485,209.827a.733.733,0,0,1-.431-.141.725.725,0,0,1-.153-1.016,4.358,4.358,0,0,1,6.034-.981.726.726,0,0,1-.791,1.218,2.947,2.947,0,0,0-4.075.625A.725.725,0,0,1,414.485,209.827Z"/></g></svg>