<svg xmlns="http://www.w3.org/2000/svg" xmlns:xlink="http://www.w3.org/1999/xlink" width="222.432" height="295.988" viewBox="0 0 222.432 295.988"><defs><style>.a,.j,.k,.l{fill:none;}.b{fill:url(#a);}.c,.e{fill:#fff;}.d{fill:#f7546c;}.e{opacity:0.69;}.f{fill:#ffd05a;}.g{fill:#252c37;}.h{clip-path:url(#c);}.i{fill:#fdfdfe;}.j{stroke:#c06bff;}.j,.k,.l{stroke-linecap:round;stroke-linejoin:round;stroke-width:2px;}.k{stroke:#ff78ea;}.l{stroke:#fffede;}.m{fill:#ab5dcf;}.n{opacity:0.34;}.o{fill:#ce94f2;}</style><linearGradient id="a" x1="0.5" x2="0.5" y2="1" gradientUnits="objectBoundingBox"><stop offset="0" stop-color="#d189ec"/><stop offset="1" stop-color="#a86bfb"/></linearGradient><clipPath id="c"><path class="a" d="M1027.762,409.862a8.77,8.77,0,0,0,16.548,5.674Z" transform="translate(-1027.471 -409.862)"/></clipPath></defs><g transform="translate(-1549.092 -6983.461)"><g transform="translate(575.218 6632.413)"><g transform="translate(1132.136 351.048)"><path class="b" d="M999.107,426.8A12.828,12.828,0,1,1,985.3,415.04,12.827,12.827,0,0,1,999.107,426.8Z" transform="translate(-973.492 -414.999)"/><g transform="translate(6.887 8.525)"><path class="c" d="M987.76,421.288a14.21,14.21,0,0,1-9.232-1.787,3.058,3.058,0,0,0-1.21,5.288l4.688,3.994a.792.792,0,0,0,1.115-.089l3.994-4.688A3.06,3.06,0,0,0,987.76,421.288Z" transform="translate(-976.243 -418.964)"/></g></g><g transform="translate(1089.561 466.626)"><ellipse class="d" cx="19.705" cy="19.705" rx="19.705" ry="19.705" transform="translate(6.394 43.457) rotate(-70.123)"/><g transform="translate(19.333 21.6)"><path class="c" d="M1080.143,440.343a6.641,6.641,0,0,0-12.269-3.224,6.646,6.646,0,1,0-11.5,6.263l8.311,10.516a1.723,1.723,0,0,0,2.421.282l10.516-8.31A6.659,6.659,0,0,0,1080.143,440.343Z" transform="translate(-1054.937 -432.598)"/></g></g><g transform="translate(1033.438 482.659)"><path class="b" d="M1038.1,445.619a18.267,18.267,0,1,1-22.681-12.367A18.267,18.267,0,0,1,1038.1,445.619Z" transform="translate(-1002.304 -432.505)"/><g transform="matrix(0.951, 0.309, -0.309, 0.951, -280.946, -135.864)"><path class="e" d="M341.968,52.214a2.712,2.712,0,1,0-3.557,0,4.969,4.969,0,0,0-3.194,4.64v4.134h9.945V56.854A4.97,4.97,0,0,0,341.968,52.214Z" transform="translate(-3.147 -0.943)"/><path class="c" d="M332.116,49.737a3.186,3.186,0,1,0-4.179,0,5.839,5.839,0,0,0-3.753,5.451v4.857h11.684V55.188A5.84,5.84,0,0,0,332.116,49.737Z"/></g></g><g transform="translate(1053.355 434.235)"><circle class="f" cx="13.698" cy="13.698" r="13.698" transform="translate(0 26.567) rotate(-75.87)"/><g transform="translate(7.812 14.521)"><path class="g" d="M1027.762,409.862a8.77,8.77,0,0,0,16.548,5.674Z" transform="translate(-1027.471 -409.862)"/><g class="h"><path class="d" d="M1042.064,422.748c-1.3,3.8-5.946,5.649-10.371,4.132s-6.953-5.826-5.651-9.627,5.946-5.651,10.369-4.132S1043.367,418.947,1042.064,422.748Z" transform="translate(-1028.576 -408.159)"/></g></g><g transform="translate(9.1 6.899)"><g transform="translate(12.045 4.915)"><path class="g" d="M1039.414,413.769a.789.789,0,0,1-.3-.185l-3.19-3.112a.8.8,0,0,1,.388-1.363l4.059-.895a.805.805,0,1,1,.348,1.572l-2.6.575,2.123,2.069a.805.805,0,0,1-.823,1.338Z" transform="translate(-1035.68 -408.195)"/></g><path class="g" d="M1028.81,410.433a.8.8,0,0,1,.17-1.561l2.945-.333-1.7-2.05a.806.806,0,0,1,1.239-1.03l2.654,3.2a.8.8,0,0,1-.528,1.314l-4.428.5A.813.813,0,0,1,1028.81,410.433Z" transform="translate(-1028.264 -405.169)"/></g></g><g transform="translate(1017.075 394.21)"><path class="b" d="M16.153,0A16.153,16.153,0,1,1,0,16.153,16.153,16.153,0,0,1,16.153,0Z" transform="translate(0 4.255) rotate(-7.569)"/><g transform="translate(10.582 9.972)"><path class="i" d="M1003.586,407.4a22.545,22.545,0,0,1-2.879.727,3.115,3.115,0,0,1-1-.051,1.157,1.157,0,0,1-.948-.894c-.4-1.479-.829-2.952-1.262-4.423a2.812,2.812,0,0,1,.007-1.557c.186-.694.392-1.383.614-2.065a3.664,3.664,0,0,0-.013-2.708c-.134-.305-.205-.638-.31-.956-.191-.581-.081-.848.468-1.109a1.755,1.755,0,0,1,2.167.469,4.394,4.394,0,0,1,.942,2.018,11.365,11.365,0,0,1,.2,1.179c.033.3.139.374.43.283.717-.222,1.441-.421,2.164-.622a6.809,6.809,0,0,1,.794-.176,1.516,1.516,0,0,1,1.9,1.716.587.587,0,0,0,.287.616,1.555,1.555,0,0,1,.326,1.985.394.394,0,0,0-.018.5,1.351,1.351,0,0,1-.21,1.751.34.34,0,0,0-.082.41,1.547,1.547,0,0,1-1.138,2.212C1005.271,406.928,1004.517,407.138,1003.586,407.4Z" transform="translate(-992.574 -394.177)"/><path class="i" d="M998.075,404.225c.3,1.058.608,2.114.906,3.173.183.653.013.958-.635,1.149s-1.286.376-1.932.551a.76.76,0,0,1-1.06-.589q-.938-3.239-1.854-6.484a.765.765,0,0,1,.587-1.065c.639-.2,1.285-.381,1.931-.556s.96,0,1.148.649C997.474,402.108,997.772,403.167,998.075,404.225Z" transform="translate(-993.447 -392.813)"/></g></g><g transform="translate(1157.793 412.35)"><path class="b" d="M1113.36,415.8a19.255,19.255,0,1,1-20.724-17.667A19.256,19.256,0,0,1,1113.36,415.8Z" transform="translate(-1074.909 -398.068)"/><g transform="translate(9.047 8.777)"><path class="i" d="M1090.877,420.924a30.444,30.444,0,0,1-3.972.192,4.2,4.2,0,0,1-1.3-.332,1.55,1.55,0,0,1-1.007-1.425c-.137-2.049-.307-4.1-.486-6.142a3.767,3.767,0,0,1,.423-2.044q.642-1.291,1.353-2.549a4.907,4.907,0,0,0,.7-3.559c-.095-.436-.1-.892-.154-1.338-.1-.814.119-1.134.907-1.333a2.353,2.353,0,0,1,2.722,1.19,5.893,5.893,0,0,1,.7,2.9,15.2,15.2,0,0,1-.049,1.6c-.037.4.084.526.49.484,1-.1,2-.172,3.007-.243a9.59,9.59,0,0,1,1.088-.021,2.031,2.031,0,0,1,2.034,2.756.79.79,0,0,0,.214.884,2.083,2.083,0,0,1-.1,2.693.527.527,0,0,0-.155.649,1.807,1.807,0,0,1-.741,2.243.457.457,0,0,0-.215.517,2.072,2.072,0,0,1-2.081,2.6C1093.217,420.746,1092.171,420.82,1090.877,420.924Z" transform="translate(-1077.544 -402.314)"/><path class="i" d="M1084.755,414.417c.117,1.469.239,2.937.349,4.406.067.907-.236,1.261-1.138,1.341s-1.787.154-2.682.211a1.017,1.017,0,0,1-1.237-1.053q-.375-4.5-.718-9a1.026,1.026,0,0,1,1.054-1.245c.892-.095,1.787-.159,2.682-.217s1.26.255,1.337,1.154C1084.526,411.479,1084.638,412.947,1084.755,414.417Z" transform="translate(-1079.323 -399.88)"/></g></g><g transform="translate(1099.322 433.292)"><line class="j" y2="7.511" transform="translate(3.756)"/><line class="j" x1="7.511" transform="translate(0 3.756)"/></g><g transform="translate(1164.469 492.005)"><line class="j" y2="7.511" transform="translate(3.756)"/><line class="j" x1="7.511" transform="translate(0 3.756)"/></g><g transform="translate(999.782 497.176)"><line class="j" y2="7.511" transform="translate(3.756)"/><line class="j" x1="7.511" transform="translate(0 3.756)"/></g><circle class="k" cx="3.586" cy="3.586" r="3.586" transform="translate(1018.818 373.119)"/><circle class="l" cx="3.586" cy="3.586" r="3.586" transform="translate(1137.907 406.179)"/><circle class="j" cx="3.586" cy="3.586" r="3.586" transform="translate(1069.983 527.658)"/><g transform="translate(1077.155 373.118)"><circle class="d" cx="25.51" cy="25.51" r="25.51" transform="translate(0 51.019) rotate(-89.734)"/></g><path class="c" d="M11.065,14.415H6.915V10.266H4.149v4.149H0v2.766H4.149v4.149H6.915V17.182h4.149ZM17.98,15.8a4.149,4.149,0,1,0-4.149-4.149A4.132,4.132,0,0,0,17.98,15.8Zm0,2.766c-2.766,0-8.3,1.383-8.3,4.149V25.48h16.6V22.714C26.278,19.948,20.746,18.565,17.98,18.565Z" transform="translate(1084.607 388.06) rotate(-21)"/></g><g transform="translate(919.121 6224.575) rotate(14)"><g transform="translate(866.42 739.176)"><rect class="m" width="104.732" height="104.732" rx="52" transform="translate(-6.095 2.643)"/></g><g class="n" transform="translate(876.987 758.48)"><path class="o" d="M934.441,827.52h-30.76A20.347,20.347,0,0,1,883.356,807.2V776.435a20.348,20.348,0,0,1,20.325-20.324h30.76a20.348,20.348,0,0,1,20.324,20.324V807.2A20.347,20.347,0,0,1,934.441,827.52Zm-30.76-65.288a14.22,14.22,0,0,0-14.2,14.2V807.2a14.22,14.22,0,0,0,14.2,14.2h30.76a14.219,14.219,0,0,0,14.2-14.2V776.435a14.219,14.219,0,0,0-14.2-14.2Z" transform="translate(-883.356 -756.111)"/><g transform="translate(17.421 17.421)"><path class="o" d="M940.148,831.187A18.284,18.284,0,1,1,958.432,812.9,18.3,18.3,0,0,1,940.148,831.187Zm0-30.447A12.163,12.163,0,1,0,952.311,812.9,12.177,12.177,0,0,0,940.148,800.74Z" transform="translate(-921.864 -794.619)"/></g><g transform="translate(50.379 11.98)"><path class="o" d="M1003.506,786.988a4.394,4.394,0,1,1-4.394-4.395A4.394,4.394,0,0,1,1003.506,786.988Z" transform="translate(-994.717 -782.593)"/></g></g></g></g></svg>