<svg xmlns="http://www.w3.org/2000/svg" xmlns:xlink="http://www.w3.org/1999/xlink" width="27.169" height="32.57" viewBox="0 0 27.169 32.57"><defs><style>.a{fill:url(#a);}.b{fill:#ffe24e;opacity:0.42;}.c{fill:url(#b);}.d{fill:url(#c);}.e{fill:url(#e);}.f{fill:#fff;}</style><linearGradient id="a" x1="0.5" x2="0.5" y2="1" gradientUnits="objectBoundingBox"><stop offset="0" stop-color="#fc8295"/><stop offset="1" stop-color="#f75b73"/></linearGradient><linearGradient id="b" y1="0.5" x2="1" y2="0.5" gradientUnits="objectBoundingBox"><stop offset="0.002" stop-color="#ffc20a"/><stop offset="1" stop-color="#ffd00f"/></linearGradient><linearGradient id="c" y1="0.5" x2="1" y2="0.5" gradientUnits="objectBoundingBox"><stop offset="0" stop-color="#ffeb66"/><stop offset="1" stop-color="#ffdb26"/></linearGradient><linearGradient id="e" y1="0.5" x2="1" y2="0.5" gradientUnits="objectBoundingBox"><stop offset="0" stop-color="#ffe14d"/><stop offset="1" stop-color="#ffeb54"/></linearGradient></defs><g transform="translate(-885 -431.424)"><rect class="a" width="27.169" height="23.856" rx="5" transform="translate(885 440.139)"/><rect class="b" width="3.976" height="23.193" rx="1.988" transform="translate(896.928 440.42)"/><rect class="b" width="3.976" height="2.782" rx="1.391" transform="translate(912.169 450.029) rotate(90)"/><rect class="b" width="3.976" height="2.782" rx="1.391" transform="translate(887.782 450.029) rotate(90)"/><g transform="translate(887.181 431.424)"><g transform="translate(0 0)"><path class="c" d="M-44.055-153.075c-2.361,0-6.806.078-9.061-.553-.98-.273-2.549-.83-2.319-3.468a3.444,3.444,0,0,1,.242-1.039,2.886,2.886,0,0,0,2.076,1.542,26.1,26.1,0,0,0,5.722.544C-45.586-154.521-44.055-153.075-44.055-153.075Z" transform="translate(55.457 162.549)"/><path class="d" d="M-44.056-162.662c-.09-.084-5.842-5.505-8.158-6.381a2.431,2.431,0,0,0-3.221,2.362c-.015.167-.022.326-.022.476h0v3.256l.008,0a5.361,5.361,0,0,1,.015-.769,3.444,3.444,0,0,1,.242-1.039,2.381,2.381,0,0,1,2.978-1.323,22.957,22.957,0,0,1,4.82,3.408c1.808,1.528,3.339,2.974,3.339,2.974v-2.965Z" transform="translate(55.458 169.17)"/><path class="c" d="M-26.954-153.075c2.362,0,6.806.078,9.061-.553.98-.273,2.549-.83,2.319-3.468a3.469,3.469,0,0,0-.242-1.039,2.888,2.888,0,0,1-2.077,1.542,26.1,26.1,0,0,1-5.721.544C-25.423-154.521-26.954-153.075-26.954-153.075Z" transform="translate(38.357 162.549)"/><path class="e" d="M-26.953-162.662c.09-.084,5.842-5.505,8.158-6.381a2.431,2.431,0,0,1,3.221,2.362q.022.25.022.476h0v3.256l-.009,0a5.3,5.3,0,0,0-.014-.769,3.468,3.468,0,0,0-.242-1.039,2.381,2.381,0,0,0-2.979-1.323,22.957,22.957,0,0,0-4.82,3.408c-1.808,1.528-3.34,2.974-3.34,2.974v-2.965Z" transform="translate(38.357 169.17)"/></g></g><path class="f" d="M-11.717-12.69l2.338.072,1.229-.024a2.534,2.534,0,0,1,.036.477.785.785,0,0,1-.089.429.341.341,0,0,1-.3.131q-.215,0-.912-.06t-1.032-.06l-.429.024q-.048.453-.573,2.9.907-.083,1.515-.083A3.6,3.6,0,0,1-9-8.79a2.01,2.01,0,0,1-.215.859,6.012,6.012,0,0,0-1.217-.107,8.414,8.414,0,0,0-1.193.072,17.862,17.862,0,0,0-.441,3.28v.2a4.393,4.393,0,0,1-1.813.239h-.119a20.71,20.71,0,0,1,.555-3.376q.555-2.564.674-3.686a1.171,1.171,0,0,0-.119-.459,2.065,2.065,0,0,0-.25-.435l-.119-.167.036-.179A8.174,8.174,0,0,1-11.717-12.69Zm3.531,8.445H-8.27a2.363,2.363,0,0,1-.024-.435,13.188,13.188,0,0,1,.322-1.831,16.215,16.215,0,0,0,.322-1.706,1.386,1.386,0,0,0-.334-.811l-.107-.143.012-.155a8.488,8.488,0,0,1,2.064-.179,2.13,2.13,0,0,1,.143.871,2.83,2.83,0,0,1,.549-.573,1.313,1.313,0,0,1,.859-.358q.644,0,.644,1.121-.06.072-.161.185a2.344,2.344,0,0,1-.406.316,1.527,1.527,0,0,1-.59.25,2.753,2.753,0,0,1-.2-.322q-.191-.322-.286-.322a1.292,1.292,0,0,0-.525.358,19.74,19.74,0,0,0-.549,3.2q0,.262.012.37A5.3,5.3,0,0,1-8.186-4.245Zm4.055-2.1A3.112,3.112,0,0,1-3.23-8.7a2.875,2.875,0,0,1,2.046-.865,1.853,1.853,0,0,1,1.157.346,1.1,1.1,0,0,1,.453.924,1.585,1.585,0,0,1-.292.972,2.037,2.037,0,0,1-.71.608,5.409,5.409,0,0,1-1.551.525l-.286.036q.083,1.121.918,1.121a1.5,1.5,0,0,0,.608-.143,2.326,2.326,0,0,0,.5-.286L-.206-5.6l.286.382A1.937,1.937,0,0,1-.3-4.877a5.231,5.231,0,0,1-.537.358,3.084,3.084,0,0,1-1.515.382,1.589,1.589,0,0,1-1.3-.584A2.5,2.5,0,0,1-4.131-6.344Zm1.706-.394a1.616,1.616,0,0,0,.966-.513A1.528,1.528,0,0,0-1.1-8.3q0-.644-.382-.644-.453,0-.7.769A4.761,4.761,0,0,0-2.425-6.738Zm3.054.394a3.112,3.112,0,0,1,.9-2.356,2.875,2.875,0,0,1,2.046-.865,1.853,1.853,0,0,1,1.157.346,1.1,1.1,0,0,1,.453.924,1.585,1.585,0,0,1-.292.972,2.037,2.037,0,0,1-.71.608,5.409,5.409,0,0,1-1.551.525l-.286.036q.083,1.121.918,1.121a1.5,1.5,0,0,0,.608-.143,2.326,2.326,0,0,0,.5-.286L4.553-5.6l.286.382a1.937,1.937,0,0,1-.382.346,5.231,5.231,0,0,1-.537.358,3.084,3.084,0,0,1-1.515.382,1.589,1.589,0,0,1-1.3-.584A2.5,2.5,0,0,1,.629-6.344Zm1.706-.394A1.616,1.616,0,0,0,3.3-7.251,1.528,1.528,0,0,0,3.658-8.3q0-.644-.382-.644-.453,0-.7.769A4.761,4.761,0,0,0,2.334-6.738Z" transform="translate(903.321 459.156)"/></g></svg>