<svg xmlns="http://www.w3.org/2000/svg" width="150" height="64.085" viewBox="0 0 150 64.085"><defs><style>.a{fill:#f59453;}.b{fill:#ffa85b;}</style></defs><g transform="translate(-31.594 10)"><path class="a" d="M72.854,59.02l-4.629-6.912H0V0H124a26,26,0,0,1,26,26v.108a26,26,0,0,1-26,26H80.807L76.178,59.02a2,2,0,0,1-3.324,0Z" transform="translate(31.594 -5.822)"/><path class="b" d="M72.762,58.568,68.783,51.3H0V0H124.351a25.649,25.649,0,1,1,0,51.3h-44.1l-3.979,7.269a2,2,0,0,1-3.508,0Z" transform="translate(31.594 -10)"/></g></svg>