<svg xmlns="http://www.w3.org/2000/svg" width="149.999" height="62.892" viewBox="0 0 149.999 62.892"><defs><style>.a{fill:#f59453;}.b{fill:#ffa85b;}</style></defs><g transform="translate(0 8.875)"><path class="a" d="M72.865,57.842l-4.639-6.787h-42.7A25.528,25.528,0,0,1,25.528,0H150V48.11a2.946,2.946,0,0,1-2.945,2.946H80.806l-4.639,6.787a2,2,0,0,1-3.3,0Z" transform="translate(0 -4.697)"/><path class="b" d="M72.778,56.426,68.783,49.4H24.7A24.7,24.7,0,0,1,24.7,0H150V49.4H80.249l-3.994,7.027a2,2,0,0,1-3.478,0Z" transform="translate(0 -8.875)"/></g></svg>