<svg xmlns="http://www.w3.org/2000/svg" xmlns:xlink="http://www.w3.org/1999/xlink" width="64" height="63" viewBox="0 0 64 63"><defs><style>.a{fill:url(#a);}.b{fill:#fff;}.c{filter:url(#b);}</style><linearGradient id="a" x1="0.5" x2="0.5" y2="1" gradientUnits="objectBoundingBox"><stop offset="0" stop-color="#ff7856"/><stop offset="1" stop-color="#db1961"/></linearGradient><filter id="b" x="0" y="0" width="64" height="63" filterUnits="userSpaceOnUse"><feOffset dy="6" input="SourceAlpha"/><feGaussianBlur stdDeviation="3" result="c"/><feFlood flood-color="#cf4343" flood-opacity="0.161"/><feComposite operator="in" in2="c"/><feComposite in="SourceGraphic"/></filter></defs><g transform="translate(-1327 -599)"><g class="c" transform="matrix(1, 0, 0, 1, 1327, 599)"><ellipse class="a" cx="23" cy="22.5" rx="23" ry="22.5" transform="translate(9 3)"/></g><path class="b" d="M8.15,13.844H4.344V10.038H1.806v3.806H-2v2.538H1.806v3.806H4.344V16.382H8.15Zm8.07,1.269a3.806,3.806,0,1,0-3.806-3.806A3.791,3.791,0,0,0,16.221,15.113Zm0,2.538c-2.538,0-7.613,1.269-7.613,3.806v2.538H23.834V21.457C23.834,18.919,18.758,17.65,16.221,17.65Z" transform="translate(1347.898 608.735)"/></g></svg>