<svg xmlns="http://www.w3.org/2000/svg" xmlns:xlink="http://www.w3.org/1999/xlink" width="40" height="40" viewBox="0 0 40 40"><defs><style>.a{fill:url(#a);}.b{fill:#fff;}.c{filter:url(#b);}</style><linearGradient id="a" x1="0.5" x2="0.5" y2="1" gradientUnits="objectBoundingBox"><stop offset="0" stop-color="#ff7856"/><stop offset="1" stop-color="#db1961"/></linearGradient><filter id="b" x="0" y="0" width="40" height="40" filterUnits="userSpaceOnUse"><feOffset dy="6" input="SourceAlpha"/><feGaussianBlur stdDeviation="3" result="c"/><feFlood flood-color="#cf4343" flood-opacity="0.161"/><feComposite operator="in" in2="c"/><feComposite in="SourceGraphic"/></filter></defs><g transform="translate(-314 -628)"><g class="c" transform="matrix(1, 0, 0, 1, 314, 628)"><circle class="a" cx="11" cy="11" r="11" transform="translate(9 3)"/></g><g transform="translate(329 638.376)"><path class="b" d="M6.787,11.477a1.248,1.248,0,0,1-.694-.324C3.628,8.917,2,7.443,2,5.633A2.608,2.608,0,0,1,4.633,3,2.867,2.867,0,0,1,6.787,4,2.867,2.867,0,0,1,8.942,3a2.608,2.608,0,0,1,2.633,2.633c0,1.81-1.628,3.284-4.093,5.525A1.238,1.238,0,0,1,6.787,11.477Z" transform="translate(-2 -3)"/></g></g></svg>