<svg xmlns="http://www.w3.org/2000/svg" xmlns:xlink="http://www.w3.org/1999/xlink" width="63" height="63" viewBox="0 0 63 63"><defs><style>.a{fill:url(#a);}.b{fill:#fff;}.c{filter:url(#b);}</style><linearGradient id="a" x1="0.5" x2="0.5" y2="1" gradientUnits="objectBoundingBox"><stop offset="0" stop-color="#ff7856"/><stop offset="1" stop-color="#db1961"/></linearGradient><filter id="b" x="0" y="0" width="63" height="63" filterUnits="userSpaceOnUse"><feOffset dy="6" input="SourceAlpha"/><feGaussianBlur stdDeviation="3" result="c"/><feFlood flood-color="#cf4343" flood-opacity="0.161"/><feComposite operator="in" in2="c"/><feComposite in="SourceGraphic"/></filter></defs><g transform="translate(-1328 -839)"><g class="c" transform="matrix(1, 0, 0, 1, 1328, 839)"><circle class="a" cx="22.5" cy="22.5" r="22.5" transform="translate(9 3)"/></g><g transform="translate(1348 854)"><path class="b" d="M13.377,23.145a2.966,2.966,0,0,1-1.65-.769C5.868,17.062,2,13.558,2,9.257A6.2,6.2,0,0,1,8.257,3a6.813,6.813,0,0,1,5.12,2.378A6.813,6.813,0,0,1,18.5,3a6.2,6.2,0,0,1,6.257,6.257c0,4.3-3.868,7.8-9.728,13.129A2.942,2.942,0,0,1,13.377,23.145Z" transform="translate(-2 -3)"/></g></g></svg>