<svg xmlns="http://www.w3.org/2000/svg" xmlns:xlink="http://www.w3.org/1999/xlink" width="40" height="40" viewBox="0 0 40 40"><defs><style>.a{fill:url(#a);}.b{fill:#fff;}.c{filter:url(#b);}</style><linearGradient id="a" x1="0.5" x2="0.5" y2="1" gradientUnits="objectBoundingBox"><stop offset="0" stop-color="#ff7856"/><stop offset="1" stop-color="#db1961"/></linearGradient><filter id="b" x="0" y="0" width="40" height="40" filterUnits="userSpaceOnUse"><feOffset dy="6" input="SourceAlpha"/><feGaussianBlur stdDeviation="3" result="c"/><feFlood flood-color="#cf4343" flood-opacity="0.161"/><feComposite operator="in" in2="c"/><feComposite in="SourceGraphic"/></filter></defs><g transform="translate(-314 -628)"><g class="c" transform="matrix(1, 0, 0, 1, 314, 628)"><circle class="a" cx="11" cy="11" r="11" transform="translate(9 3)"/></g><path class="b" d="M2.871,10.544H1.044V8.718H-.173v1.827H-2v1.218H-.173v1.827H1.044V11.762H2.871Zm3.873.609A1.827,1.827,0,1,0,4.917,9.327,1.819,1.819,0,0,0,6.744,11.153Zm0,1.218c-1.218,0-3.653.609-3.653,1.827v1.218H10.4V14.2C10.4,12.98,7.962,12.371,6.744,12.371Z" transform="translate(330 630.5)"/></g></svg>