<svg xmlns="http://www.w3.org/2000/svg" xmlns:xlink="http://www.w3.org/1999/xlink" width="337.819" height="340.445" viewBox="0 0 337.819 340.445"><defs><style>.a{fill:#ffd5d5;}.b{fill:url(#a);}.c{fill:url(#b);}.d{fill:url(#c);}.e{fill:url(#e);}.f{fill:url(#f);}.g{fill:url(#g);}.h{fill:url(#h);}.i{fill:url(#i);}.j{fill:url(#j);}.k{fill:url(#k);}.l{fill:url(#l);}.m{fill:url(#m);}.n{fill:#fff;}.o{fill:#ff6d88;}.p{filter:url(#o);}</style><linearGradient id="a" x1="0.209" y1="0.109" x2="0.749" y2="0.835" gradientUnits="objectBoundingBox"><stop offset="0" stop-color="#fef8fa"/><stop offset="1" stop-color="#fff"/></linearGradient><linearGradient id="b" x1="-12.649" y1="-3.166" x2="-12.113" y2="-2.463" gradientUnits="objectBoundingBox"><stop offset="0" stop-color="#fff"/><stop offset="1" stop-color="#f8d6c7"/></linearGradient><linearGradient id="c" x1="-49.322" y1="-98.901" x2="-48.781" y2="-98.174" xlink:href="#a"/><linearGradient id="e" x1="-39.979" y1="-10.47" x2="-39.439" y2="-9.744" xlink:href="#a"/><linearGradient id="f" x1="-12.21" y1="-6.125" x2="-11.675" y2="-5.421" xlink:href="#b"/><linearGradient id="g" x1="-38.616" y1="-19.9" x2="-38.076" y2="-19.174" xlink:href="#a"/><linearGradient id="h" x1="0.978" y1="0.888" x2="0.13" y2="0.154" gradientUnits="objectBoundingBox"><stop offset="0" stop-color="#ff6d88"/><stop offset="1" stop-color="#ff8698"/></linearGradient><linearGradient id="i" x1="-47.7" y1="-19.867" x2="-47.16" y2="-19.141" xlink:href="#b"/><linearGradient id="j" x1="-6.524" y1="-21.114" x2="-7.36" y2="-21.853" xlink:href="#h"/><linearGradient id="k" x1="-52.508" y1="-100.698" x2="-51.968" y2="-99.972" xlink:href="#b"/><linearGradient id="l" x1="-21.721" y1="-6.49" x2="-21.185" y2="-5.787" xlink:href="#b"/><linearGradient id="m" x1="-68.218" y1="-21.066" x2="-67.677" y2="-20.34" xlink:href="#a"/><filter id="o" x="69.97" y="115.331" width="23.287" height="23.287" filterUnits="userSpaceOnUse"><feOffset dy="3" input="SourceAlpha"/><feGaussianBlur stdDeviation="3" result="p"/><feFlood flood-color="#f62743" flood-opacity="0.459"/><feComposite operator="in" in2="p"/><feComposite in="SourceGraphic"/></filter></defs><g transform="translate(-607.288 -119.098)"><path class="a" d="M944.9,357.934a3.091,3.091,0,0,0-3.246-2.285,11.969,11.969,0,0,0-4.509,1.746,11.965,11.965,0,0,0,.265-4.829,3.31,3.31,0,0,0-6.353,0,11.983,11.983,0,0,0,.267,4.835,11.985,11.985,0,0,0-4.517-1.744,3.311,3.311,0,0,0-1.958,6.045,11.962,11.962,0,0,0,4.675,1.235,11.968,11.968,0,0,0-3.051,3.752,3.31,3.31,0,0,0,5.143,3.731,11.957,11.957,0,0,0,2.62-4.064,11.976,11.976,0,0,0,2.625,4.061A3.311,3.311,0,0,0,942,366.68a11.977,11.977,0,0,0-3.055-3.748,11.974,11.974,0,0,0,4.674-1.241A3.09,3.09,0,0,0,944.9,357.934Z"/><path class="b" d="M937.642,361.52a3.408,3.408,0,1,1-3.408-3.408A3.407,3.407,0,0,1,937.642,361.52Z"/><path class="c" d="M620.589,344.322a2.063,2.063,0,0,0,.1-2.648,7.992,7.992,0,0,0-2.614-1.9,8,8,0,0,0,2.8-1.6,2.211,2.211,0,0,0-2.3-3.563,7.992,7.992,0,0,0-2.614,1.9,8.012,8.012,0,0,0-.66-3.166,2.211,2.211,0,0,0-4.1,1.094,7.985,7.985,0,0,0,1,3.069,7.994,7.994,0,0,0-3.21-.35,2.211,2.211,0,0,0-.227,4.237A7.994,7.994,0,0,0,612,341.4a8,8,0,0,0-1.326,2.945,2.211,2.211,0,0,0,3.959,1.526,8,8,0,0,0,.994-3.072,8,8,0,0,0,2.39,2.171A2.063,2.063,0,0,0,620.589,344.322Z"/><circle class="d" cx="2.275" cy="2.275" r="2.275" transform="translate(612.436 337.365)"/><g transform="translate(-306.795 1)"><path class="c" d="M941.79,207.1a3.089,3.089,0,0,0-3.727-1.366,11.991,11.991,0,0,0-3.9,2.855,11.975,11.975,0,0,0-.994-4.732,3.311,3.311,0,0,0-6.137,1.647,11.976,11.976,0,0,0,1.511,4.6,11.989,11.989,0,0,0-4.815-.513,3.31,3.31,0,0,0-.324,6.345,11.962,11.962,0,0,0,4.836-.019,11.961,11.961,0,0,0-1.974,4.415,3.31,3.31,0,0,0,5.934,2.27,11.961,11.961,0,0,0,1.477-4.6,11.971,11.971,0,0,0,3.588,3.242,3.311,3.311,0,0,0,3.995-4.941,11.972,11.972,0,0,0-3.923-2.829,11.974,11.974,0,0,0,4.193-2.409A3.09,3.09,0,0,0,941.79,207.1Z"/><path class="e" d="M935.708,212.446a3.407,3.407,0,1,1-4.174-2.408A3.407,3.407,0,0,1,935.708,212.446Z"/></g><g transform="translate(173.633 -79.96)"><path class="f" d="M693.411,203.926a3.09,3.09,0,0,0-3.727-1.366,11.965,11.965,0,0,0-3.9,2.855,11.955,11.955,0,0,0-.995-4.732,3.31,3.31,0,0,0-6.136,1.647,11.975,11.975,0,0,0,1.511,4.6,11.991,11.991,0,0,0-4.815-.514,3.311,3.311,0,0,0-.324,6.346,11.962,11.962,0,0,0,4.836-.019,11.955,11.955,0,0,0-1.974,4.415,3.31,3.31,0,0,0,5.934,2.27,11.966,11.966,0,0,0,1.477-4.6,11.991,11.991,0,0,0,3.588,3.243,3.311,3.311,0,0,0,3.994-4.942,11.969,11.969,0,0,0-3.922-2.828,11.975,11.975,0,0,0,4.193-2.41A3.09,3.09,0,0,0,693.411,203.926Z"/><path class="g" d="M687.329,209.27a3.408,3.408,0,1,1-4.175-2.407A3.409,3.409,0,0,1,687.329,209.27Z"/></g><g transform="translate(-83.177 4)"><path class="h" d="M725.261,438.685a3.091,3.091,0,0,0-3.727-1.366,11.981,11.981,0,0,0-3.9,2.856,11.976,11.976,0,0,0-.994-4.733,3.311,3.311,0,0,0-6.137,1.647,11.979,11.979,0,0,0,1.511,4.6,11.973,11.973,0,0,0-4.815-.514,3.311,3.311,0,0,0-.324,6.346,12,12,0,0,0,4.836-.019,11.974,11.974,0,0,0-1.974,4.414,3.31,3.31,0,0,0,5.934,2.271,11.956,11.956,0,0,0,1.477-4.6,11.972,11.972,0,0,0,3.588,3.242,3.311,3.311,0,0,0,4-4.941,11.978,11.978,0,0,0-3.922-2.829A11.962,11.962,0,0,0,725,442.646,3.09,3.09,0,0,0,725.261,438.685Z"/><path class="i" d="M719.179,444.03a3.408,3.408,0,1,1-4.174-2.407A3.407,3.407,0,0,1,719.179,444.03Z"/></g><g transform="translate(272 154.544)"><path class="j" d="M665.167,136.6a2.309,2.309,0,0,0-1.41-2.61,8.931,8.931,0,0,0-3.6-.334,8.952,8.952,0,0,0,1.786-3.142,2.474,2.474,0,0,0-4.251-2.116,8.958,8.958,0,0,0-1.432,3.324,8.955,8.955,0,0,0-2.441-2.672,2.475,2.475,0,0,0-3.324,3.392,8.961,8.961,0,0,0,2.717,2.384,8.949,8.949,0,0,0-3.291,1.494,2.474,2.474,0,0,0,2.2,4.209,8.934,8.934,0,0,0,3.106-1.846,8.948,8.948,0,0,0,.4,3.591,2.474,2.474,0,0,0,4.683-.788,8.935,8.935,0,0,0-.8-3.526,8.957,8.957,0,0,0,3.541.727A2.309,2.309,0,0,0,665.167,136.6Z"/><path class="k" d="M659.115,136.583a2.546,2.546,0,1,1-1.145-3.415A2.546,2.546,0,0,1,659.115,136.583Z"/></g><g transform="translate(3.7 -10.538)"><path class="l" d="M870.465,333.461a2.012,2.012,0,0,0-2.427-.89,7.786,7.786,0,0,0-2.542,1.86,7.8,7.8,0,0,0-.648-3.083,2.156,2.156,0,0,0-4,1.073,7.8,7.8,0,0,0,.985,3,7.793,7.793,0,0,0-3.136-.334,2.156,2.156,0,0,0-.212,4.133,7.788,7.788,0,0,0,3.15-.013,7.808,7.808,0,0,0-1.286,2.875,2.156,2.156,0,0,0,3.865,1.479,7.8,7.8,0,0,0,.963-3,7.8,7.8,0,0,0,2.336,2.112,2.156,2.156,0,0,0,2.6-3.218,7.787,7.787,0,0,0-2.555-1.843,7.785,7.785,0,0,0,2.731-1.569A2.011,2.011,0,0,0,870.465,333.461Z"/><path class="m" d="M866.5,336.942a2.219,2.219,0,1,1-2.719-1.568A2.218,2.218,0,0,1,866.5,336.942Z"/></g><g transform="translate(-184.624 -9)"><path class="c" d="M882.244,252.5a2.4,2.4,0,0,0-1.7-2.569,9.284,9.284,0,0,0-3.751-.015,9.279,9.279,0,0,0,1.559-3.412,2.568,2.568,0,0,0-4.589-1.8,9.3,9.3,0,0,0-1.175,3.567,9.29,9.29,0,0,0-2.769-2.538,2.567,2.567,0,0,0-3.124,3.811,9.275,9.275,0,0,0,3.026,2.215,9.281,9.281,0,0,0-3.264,1.846,2.567,2.567,0,0,0,2.658,4.15,9.286,9.286,0,0,0,3.042-2.193,9.294,9.294,0,0,0,.746,3.676A2.568,2.568,0,0,0,877.675,258a9.283,9.283,0,0,0-1.146-3.572,9.3,9.3,0,0,0,3.727.428A2.4,2.4,0,0,0,882.244,252.5Z"/><g class="p" transform="matrix(1, 0, 0, 1, 791.91, 128.1)"><path class="n" d="M875.986,253.036a2.643,2.643,0,1,1-1.5-3.424A2.644,2.644,0,0,1,875.986,253.036Z" transform="translate(-791.91 -128.1)"/></g></g><path class="o" d="M11.236,14.522H7.022V10.309H4.213v4.213H0v2.809H4.213v4.213H7.022V17.331h4.213Zm7.022,1.4a4.213,4.213,0,1,0-4.213-4.213A4.2,4.2,0,0,0,18.258,15.927Zm0,2.809c-2.809,0-8.427,1.4-8.427,4.213v2.809H26.685V22.949C26.685,20.14,21.067,18.736,18.258,18.736Z" transform="translate(658.05 127.273)"/><path class="n" d="M12.214,20.819l-1.282-1.156C6.38,15.483,3.375,12.77,3.375,9.391A4.807,4.807,0,0,1,8.237,4.5a5.229,5.229,0,0,1,3.978,1.868A5.229,5.229,0,0,1,16.192,4.5a4.807,4.807,0,0,1,4.862,4.891c0,3.379-3.005,6.092-7.558,10.271Z" transform="translate(709.438 311.445)"/><path class="o" d="M8.759,14.439l-.781-.7c-2.773-2.546-4.6-4.2-4.6-6.256A2.928,2.928,0,0,1,6.336,4.5,3.185,3.185,0,0,1,8.759,5.638,3.185,3.185,0,0,1,11.182,4.5a2.928,2.928,0,0,1,2.961,2.979c0,2.058-1.83,3.71-4.6,6.256Z" transform="translate(928.451 148.531)"/></g></svg>