<svg xmlns="http://www.w3.org/2000/svg" width="167.073" height="96.626" viewBox="0 0 167.073 96.626"><g data-name="285"><g data-name="51"><path data-name="547" d="M154.177 53.433c17.115 9.879 17.206 25.911.2 35.795-16.979 9.867-44.657 9.867-61.771-.016L12.887 43.188c-17.119-9.884-17.181-25.9-.2-35.766 17-9.884 44.653-9.9 61.772-.016z" fill="#13cfff"/><g data-name="53"><path data-name="548" d="M57.342 25.457c-.047.03-.1.06-.151.088-5.327 3.1-14.487 2.834-28.383 2.449a7.677 7.677 0 0 1-2.995-.642 2.281 2.281 0 0 1-1.105-1.74c-.234-2.605-.443-4.923-.437-6.972l-.01 3.349c-.006 2.049.2 4.367.437 6.972a2.279 2.279 0 0 0 1.105 1.74 7.691 7.691 0 0 0 2.994.642c13.9.385 23.057.646 28.384-2.449.052-.028.1-.058.151-.088 2.048-1.214 3.074-2.786 3.079-4.367l.009-3.349c-.003 1.581-1.03 3.157-3.078 4.367z" fill="#b40051"/><g data-name="52"><path data-name="549" d="M57.141 17.151c4.308 2.487 4.372 6.446.2 8.918-.046.03-.1.06-.151.088-5.326 3.1-14.486 2.834-28.383 2.449a7.676 7.676 0 0 1-2.995-.642 2.28 2.28 0 0 1-1.106-1.74c-.722-8.041-1.2-13.346 4.123-16.441 4.2-2.487 11.087-2.526 15.395-.088l.152.088c2.44 1.43 3.693 3.4 3.44 5.4a17.788 17.788 0 0 1 9.325 1.968z" fill="#f36"/></g></g></g><g data-name="71"><g data-name="65"><path data-name="554" d="M93.088 44.426c.679.392 1.019.819 1.014 1.281s-.351.893-1.039 1.292l-10.359 6.02a4.213 4.213 0 0 1-1.481.5 5.573 5.573 0 0 1-1.708 0 4.274 4.274 0 0 1-1.513-.51 2.086 2.086 0 0 1-.863-.872 1.132 1.132 0 0 1 0-1 2.013 2.013 0 0 1 .857-.863l8.462-4.917-.671-.387a1.355 1.355 0 0 1-.824-1.212 1.341 1.341 0 0 1 .832-1.189 3.99 3.99 0 0 1 2.04-.5 4.237 4.237 0 0 1 2.044.5z" fill="#bf0073"/></g><g data-name="66"><path data-name="555" d="M76.847 37.43a1.527 1.527 0 0 1 .662.687.94.94 0 0 1-.006.768 1.539 1.539 0 0 1-.673.674l-1.9 1.1 1.8 1.039a1.277 1.277 0 0 1 .783 1.062c.023.411-.228.77-.75 1.073a3.519 3.519 0 0 1-1.792.428 3.573 3.573 0 0 1-1.815-.439l-1.84-1.062-1.878 1.091a3.683 3.683 0 0 1-1.88.445 3.537 3.537 0 0 1-1.8-.428 1.2 1.2 0 0 1-.743-1.061 1.263 1.263 0 0 1 .772-1.062l1.9-1.1-1.88-1.085a1.251 1.251 0 0 1-.763-1.074 1.27 1.27 0 0 1 .76-1.068 3.525 3.525 0 0 1 1.823-.439 3.608 3.608 0 0 1 1.815.445l1.88 1.085 1.857-1.079a3.592 3.592 0 0 1 1.832-.445 3.621 3.621 0 0 1 1.836.445z" fill="#bf0073"/></g><g data-name="67"><path data-name="556" d="M134.714 75.385a9.894 9.894 0 0 1-1.31.877 12.892 12.892 0 0 1-1.52.768 15.965 15.965 0 0 1-2.815.917 16.4 16.4 0 0 1-2.823.39 14.847 14.847 0 0 1-2.755-.125 11.661 11.661 0 0 1-4.153-1.292 5.141 5.141 0 0 1-2.255-2.407 3.039 3.039 0 0 1-.02-2.427 6.389 6.389 0 0 1 2-2.455 13.267 13.267 0 0 1 1.321-.883 16.17 16.17 0 0 1 1.509-.762 16.293 16.293 0 0 1 4.258-1.189 15.356 15.356 0 0 1 4.205 0 11.611 11.611 0 0 1 4.163 1.3 5.183 5.183 0 0 1 2.245 2.4 3.108 3.108 0 0 1-.016 2.447 6.225 6.225 0 0 1-2.034 2.441zm-7.33-.86a13.312 13.312 0 0 0 1.691-.8 5.629 5.629 0 0 0 1.508-1.195 2.034 2.034 0 0 0 .542-1.126.882.882 0 0 0-.355-.8 3.74 3.74 0 0 0-1.5-.509 6.708 6.708 0 0 0-1.893.15 8.875 8.875 0 0 0-2.613 1.022q-.269.156-.705.456-2.323 1.744-.981 2.759a3.671 3.671 0 0 0 1.522.493 5.718 5.718 0 0 0 1.856-.187q.568-.144.925-.271" fill="#bf0073"/></g><g data-name="69"><path data-name="558" d="M120.858 67.386a9.848 9.848 0 0 1-1.31.877 12.874 12.874 0 0 1-1.52.768 15.979 15.979 0 0 1-2.815.917 16.4 16.4 0 0 1-2.823.39 14.85 14.85 0 0 1-2.756-.125 11.665 11.665 0 0 1-4.153-1.292 5.142 5.142 0 0 1-2.255-2.407 3.039 3.039 0 0 1-.019-2.427 6.384 6.384 0 0 1 2-2.455 13.267 13.267 0 0 1 1.321-.883 16.114 16.114 0 0 1 1.509-.761 16.293 16.293 0 0 1 4.258-1.189 15.372 15.372 0 0 1 4.205 0 11.614 11.614 0 0 1 4.163 1.3 5.187 5.187 0 0 1 2.245 2.4 3.111 3.111 0 0 1-.015 2.448 6.229 6.229 0 0 1-2.035 2.439zm-7.329-.86a13.323 13.323 0 0 0 1.691-.8 5.633 5.633 0 0 0 1.508-1.195 2.034 2.034 0 0 0 .542-1.126.882.882 0 0 0-.354-.8 3.74 3.74 0 0 0-1.5-.509 6.711 6.711 0 0 0-1.893.151 8.88 8.88 0 0 0-2.613 1.022q-.269.156-.705.456-2.323 1.744-.981 2.76a3.675 3.675 0 0 0 1.521.493 5.714 5.714 0 0 0 1.856-.187c.379-.1.686-.187.925-.271" fill="#bf0073"/></g><g data-name="70"><path data-name="559" d="M107.003 59.387a9.81 9.81 0 0 1-1.31.877 12.856 12.856 0 0 1-1.52.768 15.948 15.948 0 0 1-2.815.917 16.422 16.422 0 0 1-2.823.391 14.831 14.831 0 0 1-2.755-.125 11.668 11.668 0 0 1-4.153-1.292 5.143 5.143 0 0 1-2.255-2.407 3.04 3.04 0 0 1-.02-2.427 6.394 6.394 0 0 1 2-2.455 13.268 13.268 0 0 1 1.321-.883 16.263 16.263 0 0 1 1.509-.761 16.3 16.3 0 0 1 4.259-1.189 15.369 15.369 0 0 1 4.2 0 11.617 11.617 0 0 1 4.163 1.3 5.187 5.187 0 0 1 2.244 2.4 3.109 3.109 0 0 1-.015 2.448 6.231 6.231 0 0 1-2.03 2.438zm-7.329-.86a13.34 13.34 0 0 0 1.691-.8 5.641 5.641 0 0 0 1.508-1.2 2.036 2.036 0 0 0 .542-1.126.883.883 0 0 0-.355-.8 3.736 3.736 0 0 0-1.5-.509 6.711 6.711 0 0 0-1.893.15 8.875 8.875 0 0 0-2.613 1.022c-.179.1-.414.256-.7.455q-2.324 1.745-.981 2.76a3.671 3.671 0 0 0 1.522.493 5.711 5.711 0 0 0 1.856-.187c.379-.1.686-.187.925-.271" fill="#bf0073"/></g></g><g data-name="72"><g data-name="65"><path data-name="554" d="M93.088 42.23c.679.392 1.019.819 1.014 1.281s-.351.893-1.039 1.292l-10.359 6.02a4.213 4.213 0 0 1-1.481.5 5.573 5.573 0 0 1-1.708 0 4.274 4.274 0 0 1-1.513-.51 2.086 2.086 0 0 1-.863-.872 1.132 1.132 0 0 1 0-1 2.013 2.013 0 0 1 .857-.863l8.462-4.917-.671-.387a1.355 1.355 0 0 1-.824-1.212 1.341 1.341 0 0 1 .832-1.189 3.99 3.99 0 0 1 2.04-.5 4.237 4.237 0 0 1 2.044.5z" fill="#fff"/></g><g data-name="66"><path data-name="555" d="M76.847 35.234a1.527 1.527 0 0 1 .662.687.94.94 0 0 1-.006.768 1.539 1.539 0 0 1-.673.674l-1.9 1.1 1.8 1.039a1.277 1.277 0 0 1 .783 1.062c.023.411-.228.77-.75 1.073a3.519 3.519 0 0 1-1.792.428 3.573 3.573 0 0 1-1.815-.439l-1.84-1.062-1.878 1.091a3.683 3.683 0 0 1-1.88.445 3.537 3.537 0 0 1-1.8-.428 1.2 1.2 0 0 1-.743-1.061 1.263 1.263 0 0 1 .772-1.062l1.9-1.1-1.88-1.085a1.251 1.251 0 0 1-.763-1.074 1.27 1.27 0 0 1 .76-1.068 3.525 3.525 0 0 1 1.823-.439 3.608 3.608 0 0 1 1.815.445l1.88 1.085 1.857-1.079a3.592 3.592 0 0 1 1.832-.445 3.621 3.621 0 0 1 1.836.445z" fill="#fff"/></g><g data-name="67"><path data-name="556" d="M134.714 73.189a9.894 9.894 0 0 1-1.31.877 12.892 12.892 0 0 1-1.52.768 15.965 15.965 0 0 1-2.815.917 16.4 16.4 0 0 1-2.823.39 14.847 14.847 0 0 1-2.755-.125 11.661 11.661 0 0 1-4.153-1.292 5.141 5.141 0 0 1-2.255-2.407 3.039 3.039 0 0 1-.02-2.427 6.389 6.389 0 0 1 2-2.455 13.267 13.267 0 0 1 1.321-.883 16.17 16.17 0 0 1 1.509-.762 16.293 16.293 0 0 1 4.258-1.189 15.356 15.356 0 0 1 4.205 0 11.611 11.611 0 0 1 4.163 1.3 5.183 5.183 0 0 1 2.245 2.4 3.108 3.108 0 0 1-.016 2.447 6.225 6.225 0 0 1-2.034 2.441zm-7.33-.86a13.312 13.312 0 0 0 1.691-.8 5.629 5.629 0 0 0 1.508-1.195 2.034 2.034 0 0 0 .542-1.126.882.882 0 0 0-.355-.8 3.74 3.74 0 0 0-1.5-.509 6.708 6.708 0 0 0-1.893.15 8.875 8.875 0 0 0-2.613 1.022q-.269.156-.705.456-2.323 1.744-.981 2.759a3.671 3.671 0 0 0 1.522.493 5.718 5.718 0 0 0 1.856-.187q.568-.144.925-.271" fill="#fff"/></g><g data-name="69"><path data-name="558" d="M120.858 65.19a9.848 9.848 0 0 1-1.31.877 12.874 12.874 0 0 1-1.52.768 15.979 15.979 0 0 1-2.815.917 16.4 16.4 0 0 1-2.823.39 14.85 14.85 0 0 1-2.756-.125 11.665 11.665 0 0 1-4.153-1.292 5.142 5.142 0 0 1-2.255-2.407 3.039 3.039 0 0 1-.019-2.427 6.384 6.384 0 0 1 2-2.455 13.267 13.267 0 0 1 1.321-.883 16.114 16.114 0 0 1 1.509-.761 16.293 16.293 0 0 1 4.258-1.189 15.372 15.372 0 0 1 4.205 0 11.614 11.614 0 0 1 4.163 1.3 5.187 5.187 0 0 1 2.245 2.4 3.111 3.111 0 0 1-.015 2.448 6.229 6.229 0 0 1-2.035 2.439zm-7.329-.86a13.323 13.323 0 0 0 1.691-.8 5.633 5.633 0 0 0 1.508-1.195 2.034 2.034 0 0 0 .542-1.126.882.882 0 0 0-.354-.8 3.74 3.74 0 0 0-1.5-.509 6.711 6.711 0 0 0-1.893.151 8.88 8.88 0 0 0-2.613 1.022q-.269.156-.705.456-2.323 1.744-.981 2.76a3.675 3.675 0 0 0 1.521.493 5.714 5.714 0 0 0 1.856-.187c.379-.1.686-.187.925-.271" fill="#fff"/></g><g data-name="70"><path data-name="559" d="M107.003 57.191a9.81 9.81 0 0 1-1.31.877 12.856 12.856 0 0 1-1.52.768 15.948 15.948 0 0 1-2.815.917 16.422 16.422 0 0 1-2.823.391 14.831 14.831 0 0 1-2.755-.125 11.668 11.668 0 0 1-4.153-1.292 5.143 5.143 0 0 1-2.255-2.407 3.04 3.04 0 0 1-.02-2.427 6.394 6.394 0 0 1 2-2.455 13.268 13.268 0 0 1 1.321-.883 16.263 16.263 0 0 1 1.509-.761 16.3 16.3 0 0 1 4.259-1.189 15.369 15.369 0 0 1 4.2 0 11.617 11.617 0 0 1 4.163 1.3 5.187 5.187 0 0 1 2.244 2.4 3.109 3.109 0 0 1-.015 2.448 6.231 6.231 0 0 1-2.03 2.438zm-7.329-.86a13.34 13.34 0 0 0 1.691-.8 5.641 5.641 0 0 0 1.508-1.2 2.036 2.036 0 0 0 .542-1.126.883.883 0 0 0-.355-.8 3.736 3.736 0 0 0-1.5-.509 6.711 6.711 0 0 0-1.893.15 8.875 8.875 0 0 0-2.613 1.022c-.179.1-.414.256-.7.455q-2.324 1.745-.981 2.76a3.671 3.671 0 0 0 1.522.493 5.711 5.711 0 0 0 1.856-.187c.379-.1.686-.187.925-.271" fill="#fff"/></g></g></g></svg>
