<svg xmlns="http://www.w3.org/2000/svg" width="190.298" height="110" viewBox="0 0 190.298 110"><g data-name="10000"><g data-name="73"><path data-name="560" d="M179.971 75.439c13.7 7.912 13.775 20.725.178 28.627-13.616 7.912-35.739 7.912-49.441 0l-120.4-69.51c-13.687-7.9-13.759-20.717-.146-28.63s35.724-7.9 49.41 0z" fill="#f36"/></g><g data-name="76"><g data-name="74" fill="#d42e6c"><path data-name="561" d="M41.223 13.817l-4.55 2.644-.007 2.534 4.55-2.644z"/><path data-name="562" d="M30.587 16.462l-4.58-2.644L26 16.352l4.58 2.644z"/><path data-name="563" d="M33.632 20.758l4.58 2.644 3.034-1.763.007-2.534-3.034 1.763-4.58-2.644-4.548 2.643-3.052-1.762-.007 2.534 3.052 1.762z"/><path data-name="564" d="M63.468 28.409a10.058 10.058 0 0 1-9.128.008 5.353 5.353 0 0 1-.753-.524 8.327 8.327 0 0 0 2.9-.966 3.2 3.2 0 0 0 1.876-2.626l.008-2.533a3.207 3.207 0 0 1-1.876 2.626 10.062 10.062 0 0 1-9.128 0l-.038-.022a3.207 3.207 0 0 1-1.881-2.641l-.007 2.534a3.207 3.207 0 0 0 1.88 2.641l.038.022a9.85 9.85 0 0 0 5.8 1.027l-.006 2.073a4.837 4.837 0 0 0 1.178.924 10.057 10.057 0 0 0 9.128-.008 3.2 3.2 0 0 0 1.868-2.62l.007-2.534a3.2 3.2 0 0 1-1.866 2.619z"/><path data-name="565" d="M49.931 35.047l.007-2.534a1.763 1.763 0 0 1-.994 1.573l-3.034 1.763-18.316-10.575-.008 2.533 18.316 10.575 3.034-1.763a1.764 1.764 0 0 0 .995-1.572z"/><path data-name="566" d="M55.916 38.111l-3.034 1.763-4.58-2.644-.008 2.535 4.58 2.644 3.034-1.764a1.765 1.765 0 0 0 1-1.575l.007-2.534a1.766 1.766 0 0 1-.999 1.575z"/></g><g data-name="75" fill="#fff"><path data-name="567" d="M29.174 20.813l4.548-2.643 4.58 2.644 3.034-1.763-4.58-2.644 4.55-2.644-3.052-1.762-4.55 2.644-4.58-2.644-3.034 1.763 4.58 2.644-4.548 2.643z"/><path data-name="568" d="M47.415 24.316l.038.022a10.061 10.061 0 0 0 9.128 0c2.514-1.461 2.5-3.829-.03-5.288a10.059 10.059 0 0 0-9.13 0c-2.512 1.449-2.517 3.805-.006 5.266z"/><path data-name="569" d="M63.508 23.067a7.486 7.486 0 0 0-1.588-.67 6.023 6.023 0 0 1-2.964 3.313 14.579 14.579 0 0 1-5.71 1.728 4.831 4.831 0 0 0 1.178.924 10.057 10.057 0 0 0 9.128-.008c2.504-1.46 2.49-3.824-.044-5.287z"/><path data-name="570" d="M44.417 26.101c-3.054-1.763-10.674-4.406-13.706-2.644l-3.034 1.763 18.316 10.575 3.034-1.763c3.032-1.763-1.558-6.169-4.61-7.931z"/><path data-name="571" d="M53.649 31.732c.16 1.373-.412 2.679-2.2 3.718l-3.034 1.763 4.58 2.644 3.034-1.763c2.334-1.356.158-4.283-2.38-6.362z"/></g></g><g data-name="78"><g data-name="65"><path data-name="554" d="M104.221 52.641c.679.392 1.019.819 1.014 1.281s-.351.893-1.039 1.292l-10.359 6.02a4.213 4.213 0 0 1-1.481.5 5.573 5.573 0 0 1-1.708 0 4.274 4.274 0 0 1-1.513-.51 2.086 2.086 0 0 1-.863-.872 1.132 1.132 0 0 1 0-1 2.013 2.013 0 0 1 .857-.863l8.462-4.917-.671-.387a1.355 1.355 0 0 1-.824-1.212 1.341 1.341 0 0 1 .832-1.189 3.99 3.99 0 0 1 2.04-.5 4.237 4.237 0 0 1 2.044.5z" fill="#bf0073"/></g><g data-name="66"><path data-name="555" d="M87.98 45.645a1.527 1.527 0 0 1 .662.687.94.94 0 0 1-.006.768 1.539 1.539 0 0 1-.673.674l-1.9 1.1 1.8 1.039a1.277 1.277 0 0 1 .783 1.062c.023.411-.228.77-.75 1.073a3.519 3.519 0 0 1-1.792.428 3.573 3.573 0 0 1-1.815-.439l-1.84-1.062-1.878 1.091a3.683 3.683 0 0 1-1.88.445 3.537 3.537 0 0 1-1.8-.428 1.2 1.2 0 0 1-.743-1.061 1.263 1.263 0 0 1 .772-1.062l1.9-1.1-1.88-1.085a1.251 1.251 0 0 1-.763-1.074 1.27 1.27 0 0 1 .76-1.068 3.525 3.525 0 0 1 1.823-.439 3.608 3.608 0 0 1 1.815.445l1.88 1.085 1.857-1.079a3.592 3.592 0 0 1 1.832-.445 3.621 3.621 0 0 1 1.836.445z" fill="#bf0073"/></g><g data-name="67"><path data-name="556" d="M145.847 83.6a9.894 9.894 0 0 1-1.31.877 12.892 12.892 0 0 1-1.52.768 15.965 15.965 0 0 1-2.815.917 16.4 16.4 0 0 1-2.823.39 14.847 14.847 0 0 1-2.755-.125 11.661 11.661 0 0 1-4.153-1.292 5.141 5.141 0 0 1-2.255-2.407 3.039 3.039 0 0 1-.02-2.427 6.389 6.389 0 0 1 2-2.455 13.267 13.267 0 0 1 1.321-.883 16.17 16.17 0 0 1 1.509-.762 16.293 16.293 0 0 1 4.258-1.189 15.356 15.356 0 0 1 4.205 0 11.611 11.611 0 0 1 4.163 1.3 5.183 5.183 0 0 1 2.245 2.4 3.108 3.108 0 0 1-.016 2.447 6.225 6.225 0 0 1-2.034 2.441zm-7.33-.86a13.312 13.312 0 0 0 1.691-.8 5.629 5.629 0 0 0 1.508-1.195 2.034 2.034 0 0 0 .542-1.126.882.882 0 0 0-.355-.8 3.74 3.74 0 0 0-1.5-.509 6.708 6.708 0 0 0-1.893.15 8.875 8.875 0 0 0-2.613 1.022q-.269.156-.705.456-2.323 1.744-.981 2.759a3.671 3.671 0 0 0 1.522.493 5.718 5.718 0 0 0 1.856-.187q.568-.144.925-.271" fill="#bf0073"/></g><g data-name="68"><path data-name="557" d="M159.702 91.6a9.852 9.852 0 0 1-1.31.876 12.879 12.879 0 0 1-1.52.768 15.965 15.965 0 0 1-2.815.917 16.421 16.421 0 0 1-2.823.39 14.835 14.835 0 0 1-2.755-.125 11.656 11.656 0 0 1-4.152-1.292 5.142 5.142 0 0 1-2.255-2.407 3.039 3.039 0 0 1-.02-2.427 6.405 6.405 0 0 1 2-2.455 13.243 13.243 0 0 1 1.321-.883 16.185 16.185 0 0 1 1.509-.761 16.285 16.285 0 0 1 4.258-1.189 15.365 15.365 0 0 1 4.205 0 11.623 11.623 0 0 1 4.163 1.3 5.186 5.186 0 0 1 2.245 2.4 3.109 3.109 0 0 1-.016 2.448 6.23 6.23 0 0 1-2.035 2.44zm-7.329-.86a13.365 13.365 0 0 0 1.691-.8 5.633 5.633 0 0 0 1.508-1.2 2.02 2.02 0 0 0 .542-1.126.882.882 0 0 0-.355-.8 3.742 3.742 0 0 0-1.5-.509 6.711 6.711 0 0 0-1.893.15 8.882 8.882 0 0 0-2.613 1.022q-.268.156-.705.456-2.323 1.744-.981 2.759a3.669 3.669 0 0 0 1.521.493 5.721 5.721 0 0 0 1.857-.187c.379-.1.686-.187.925-.271" fill="#bf0073"/></g><g data-name="69"><path data-name="558" d="M131.991 75.601a9.848 9.848 0 0 1-1.31.877 12.874 12.874 0 0 1-1.52.768 15.979 15.979 0 0 1-2.815.917 16.4 16.4 0 0 1-2.823.39 14.85 14.85 0 0 1-2.756-.125 11.665 11.665 0 0 1-4.153-1.292 5.142 5.142 0 0 1-2.255-2.407 3.039 3.039 0 0 1-.019-2.427 6.384 6.384 0 0 1 2-2.455 13.267 13.267 0 0 1 1.321-.883 16.114 16.114 0 0 1 1.509-.761 16.293 16.293 0 0 1 4.258-1.189 15.372 15.372 0 0 1 4.205 0 11.614 11.614 0 0 1 4.163 1.3 5.187 5.187 0 0 1 2.245 2.4 3.111 3.111 0 0 1-.015 2.448 6.229 6.229 0 0 1-2.035 2.439zm-7.329-.86a13.323 13.323 0 0 0 1.691-.8 5.633 5.633 0 0 0 1.508-1.195 2.034 2.034 0 0 0 .542-1.126.882.882 0 0 0-.354-.8 3.74 3.74 0 0 0-1.5-.509 6.711 6.711 0 0 0-1.893.151 8.88 8.88 0 0 0-2.613 1.022q-.269.156-.705.456-2.323 1.744-.981 2.76a3.675 3.675 0 0 0 1.521.493 5.714 5.714 0 0 0 1.856-.187c.379-.1.686-.187.925-.271" fill="#bf0073"/></g><g data-name="70"><path data-name="559" d="M118.136 67.602a9.81 9.81 0 0 1-1.31.877 12.856 12.856 0 0 1-1.52.768 15.948 15.948 0 0 1-2.815.917 16.422 16.422 0 0 1-2.823.391 14.831 14.831 0 0 1-2.755-.125 11.668 11.668 0 0 1-4.153-1.292 5.143 5.143 0 0 1-2.255-2.407 3.04 3.04 0 0 1-.02-2.427 6.394 6.394 0 0 1 2-2.455 13.268 13.268 0 0 1 1.321-.883 16.263 16.263 0 0 1 1.509-.761 16.3 16.3 0 0 1 4.259-1.189 15.369 15.369 0 0 1 4.2 0 11.617 11.617 0 0 1 4.163 1.3 5.187 5.187 0 0 1 2.244 2.4 3.109 3.109 0 0 1-.015 2.448 6.231 6.231 0 0 1-2.03 2.438zm-7.329-.86a13.34 13.34 0 0 0 1.691-.8 5.641 5.641 0 0 0 1.508-1.2 2.036 2.036 0 0 0 .542-1.126.883.883 0 0 0-.355-.8 3.736 3.736 0 0 0-1.5-.509 6.711 6.711 0 0 0-1.893.15 8.875 8.875 0 0 0-2.613 1.022c-.179.1-.414.256-.7.455q-2.324 1.745-.981 2.76a3.671 3.671 0 0 0 1.522.493 5.711 5.711 0 0 0 1.856-.187c.379-.1.686-.187.925-.271" fill="#bf0073"/></g></g><g data-name="77"><g data-name="65"><path data-name="554" d="M104.221 50.445c.679.392 1.019.819 1.014 1.281s-.351.893-1.039 1.292l-10.359 6.02a4.213 4.213 0 0 1-1.481.5 5.573 5.573 0 0 1-1.708 0 4.274 4.274 0 0 1-1.513-.51 2.086 2.086 0 0 1-.863-.872 1.132 1.132 0 0 1 0-1 2.013 2.013 0 0 1 .857-.863l8.462-4.917-.671-.387a1.355 1.355 0 0 1-.824-1.212 1.341 1.341 0 0 1 .832-1.189 3.99 3.99 0 0 1 2.04-.5 4.237 4.237 0 0 1 2.044.5z" fill="#fff"/></g><g data-name="66"><path data-name="555" d="M87.98 43.449a1.527 1.527 0 0 1 .662.687.94.94 0 0 1-.006.768 1.539 1.539 0 0 1-.673.674l-1.9 1.1 1.8 1.039a1.277 1.277 0 0 1 .783 1.062c.023.411-.228.77-.75 1.073a3.519 3.519 0 0 1-1.792.428 3.573 3.573 0 0 1-1.815-.439l-1.84-1.062-1.878 1.091a3.683 3.683 0 0 1-1.88.445 3.537 3.537 0 0 1-1.8-.428 1.2 1.2 0 0 1-.743-1.061 1.263 1.263 0 0 1 .772-1.062l1.9-1.1-1.88-1.085a1.251 1.251 0 0 1-.763-1.074 1.27 1.27 0 0 1 .76-1.068 3.525 3.525 0 0 1 1.823-.439 3.608 3.608 0 0 1 1.815.445l1.88 1.085 1.857-1.079a3.592 3.592 0 0 1 1.832-.445 3.621 3.621 0 0 1 1.836.445z" fill="#fff"/></g><g data-name="67"><path data-name="556" d="M145.847 81.404a9.894 9.894 0 0 1-1.31.877 12.892 12.892 0 0 1-1.52.768 15.965 15.965 0 0 1-2.815.917 16.4 16.4 0 0 1-2.823.39 14.847 14.847 0 0 1-2.755-.125 11.661 11.661 0 0 1-4.153-1.292 5.141 5.141 0 0 1-2.255-2.407 3.039 3.039 0 0 1-.02-2.427 6.389 6.389 0 0 1 2-2.455 13.267 13.267 0 0 1 1.321-.883 16.17 16.17 0 0 1 1.509-.762 16.293 16.293 0 0 1 4.258-1.189 15.356 15.356 0 0 1 4.205 0 11.611 11.611 0 0 1 4.163 1.3 5.183 5.183 0 0 1 2.245 2.4 3.108 3.108 0 0 1-.016 2.447 6.225 6.225 0 0 1-2.034 2.441zm-7.33-.86a13.312 13.312 0 0 0 1.691-.8 5.629 5.629 0 0 0 1.508-1.195 2.034 2.034 0 0 0 .542-1.126.882.882 0 0 0-.355-.8 3.74 3.74 0 0 0-1.5-.509 6.708 6.708 0 0 0-1.893.15 8.875 8.875 0 0 0-2.613 1.022q-.269.156-.705.456-2.323 1.744-.981 2.759a3.671 3.671 0 0 0 1.522.493 5.718 5.718 0 0 0 1.856-.187q.568-.144.925-.271" fill="#fff"/></g><g data-name="68"><path data-name="557" d="M159.702 89.404a9.852 9.852 0 0 1-1.31.876 12.879 12.879 0 0 1-1.52.768 15.965 15.965 0 0 1-2.815.917 16.421 16.421 0 0 1-2.823.39 14.835 14.835 0 0 1-2.755-.125 11.656 11.656 0 0 1-4.152-1.292 5.142 5.142 0 0 1-2.255-2.407 3.039 3.039 0 0 1-.02-2.427 6.405 6.405 0 0 1 2-2.455 13.243 13.243 0 0 1 1.321-.883 16.185 16.185 0 0 1 1.509-.761 16.285 16.285 0 0 1 4.258-1.189 15.365 15.365 0 0 1 4.205 0 11.623 11.623 0 0 1 4.163 1.3 5.186 5.186 0 0 1 2.245 2.4 3.109 3.109 0 0 1-.016 2.448 6.23 6.23 0 0 1-2.035 2.44zm-7.329-.86a13.365 13.365 0 0 0 1.691-.8 5.633 5.633 0 0 0 1.508-1.2 2.02 2.02 0 0 0 .542-1.126.882.882 0 0 0-.355-.8 3.742 3.742 0 0 0-1.5-.509 6.711 6.711 0 0 0-1.893.15 8.882 8.882 0 0 0-2.613 1.022q-.268.156-.705.456-2.323 1.744-.981 2.759a3.669 3.669 0 0 0 1.521.493 5.721 5.721 0 0 0 1.857-.187c.379-.1.686-.187.925-.271" fill="#fff"/></g><g data-name="69"><path data-name="558" d="M131.991 73.405a9.848 9.848 0 0 1-1.31.877 12.874 12.874 0 0 1-1.52.768 15.979 15.979 0 0 1-2.815.917 16.4 16.4 0 0 1-2.823.39 14.85 14.85 0 0 1-2.756-.125 11.665 11.665 0 0 1-4.153-1.292 5.142 5.142 0 0 1-2.255-2.407 3.039 3.039 0 0 1-.019-2.427 6.384 6.384 0 0 1 2-2.455 13.267 13.267 0 0 1 1.321-.883 16.114 16.114 0 0 1 1.509-.761 16.293 16.293 0 0 1 4.258-1.189 15.372 15.372 0 0 1 4.205 0 11.614 11.614 0 0 1 4.163 1.3 5.187 5.187 0 0 1 2.245 2.4 3.111 3.111 0 0 1-.015 2.448 6.229 6.229 0 0 1-2.035 2.439zm-7.329-.86a13.323 13.323 0 0 0 1.691-.8 5.633 5.633 0 0 0 1.508-1.195 2.034 2.034 0 0 0 .542-1.126.882.882 0 0 0-.354-.8 3.74 3.74 0 0 0-1.5-.509 6.711 6.711 0 0 0-1.893.151 8.88 8.88 0 0 0-2.613 1.022q-.269.156-.705.456-2.323 1.744-.981 2.76a3.675 3.675 0 0 0 1.521.493 5.714 5.714 0 0 0 1.856-.187c.379-.1.686-.187.925-.271" fill="#fff"/></g><g data-name="70"><path data-name="559" d="M118.136 65.406a9.81 9.81 0 0 1-1.31.877 12.856 12.856 0 0 1-1.52.768 15.948 15.948 0 0 1-2.815.917 16.422 16.422 0 0 1-2.823.391 14.831 14.831 0 0 1-2.755-.125 11.668 11.668 0 0 1-4.153-1.292 5.143 5.143 0 0 1-2.255-2.407 3.04 3.04 0 0 1-.02-2.427 6.394 6.394 0 0 1 2-2.455 13.268 13.268 0 0 1 1.321-.883 16.263 16.263 0 0 1 1.509-.761 16.3 16.3 0 0 1 4.259-1.189 15.369 15.369 0 0 1 4.2 0 11.617 11.617 0 0 1 4.163 1.3 5.187 5.187 0 0 1 2.244 2.4 3.109 3.109 0 0 1-.015 2.448 6.231 6.231 0 0 1-2.03 2.438zm-7.329-.86a13.34 13.34 0 0 0 1.691-.8 5.641 5.641 0 0 0 1.508-1.2 2.036 2.036 0 0 0 .542-1.126.883.883 0 0 0-.355-.8 3.736 3.736 0 0 0-1.5-.509 6.711 6.711 0 0 0-1.893.15 8.875 8.875 0 0 0-2.613 1.022c-.179.1-.414.256-.7.455q-2.324 1.745-.981 2.76a3.671 3.671 0 0 0 1.522.493 5.711 5.711 0 0 0 1.856-.187c.379-.1.686-.187.925-.271" fill="#fff"/></g></g></g></svg>
