<svg xmlns="http://www.w3.org/2000/svg" width="19.04" height="28.88" viewBox="0 0 19.04 28.88"><defs><style>.a{fill:#7c56ff;}</style></defs><path class="a" d="M2.76-22.16A9.141,9.141,0,0,1,6-26.5a8.952,8.952,0,0,1,5.66-1.9,7.59,7.59,0,0,1,5.2,1.74,5.419,5.419,0,0,1,1.98,4.22A6.113,6.113,0,0,1,17-18.06a9.645,9.645,0,0,1-4.6,2.62,7.821,7.821,0,0,1,4.46,2.32A6.646,6.646,0,0,1,18.6-8.36,7.891,7.891,0,0,1,15.52-2.1,10.869,10.869,0,0,1,8.32.48,9.621,9.621,0,0,1,1.2-2.16,4.362,4.362,0,0,1-.2-5.4,4.33,4.33,0,0,1,.12-6.86,3.686,3.686,0,0,1,.92-8.2a4.5,4.5,0,0,1,.88-.08A5.9,5.9,0,0,1,6.16-6.76L5.6-2.52a3.093,3.093,0,0,0,1.88.44,4.185,4.185,0,0,0,3.46-2.1A8.5,8.5,0,0,0,12.4-9.16q0-2.88-1.28-3.94a6.676,6.676,0,0,0-4.24-1.06l-.92.04.24-2.04a9.538,9.538,0,0,0,2.94-.66,10.013,10.013,0,0,0,1.82-1.1,4.665,4.665,0,0,0,1.88-4.04,3.218,3.218,0,0,0-.9-2.5,3.07,3.07,0,0,0-2.14-.82q-3.28,0-5.28,3.88Z" transform="translate(0.2 28.4)"/></svg>