<svg xmlns="http://www.w3.org/2000/svg" xmlns:xlink="http://www.w3.org/1999/xlink" width="71" height="73.499" viewBox="0 0 71 73.499">
  <defs>
    <linearGradient id="linear-gradient" x1="0.5" x2="0.5" y2="1" gradientUnits="objectBoundingBox">
      <stop offset="0" stop-color="#ff8173"/>
      <stop offset="1" stop-color="#d530e1"/>
    </linearGradient>
    <filter id="矩形_1005" x="0" y="5.499" width="71" height="68" filterUnits="userSpaceOnUse">
      <feOffset dy="3" input="SourceAlpha"/>
      <feGaussianBlur stdDeviation="3" result="blur"/>
      <feFlood flood-opacity="0.161"/>
      <feComposite operator="in" in2="blur"/>
      <feComposite in="SourceGraphic"/>
    </filter>
    <clipPath id="clip-path">
      <rect id="矩形_1004" data-name="矩形 1004" width="35" height="35" transform="translate(-0.284 0)" fill="#ffd86d"/>
    </clipPath>
  </defs>
  <g id="icon01" transform="translate(-574.5 -168.149)">
    <g transform="matrix(1, 0, 0, 1, 574.5, 168.15)" filter="url(#矩形_1005)">
      <rect id="矩形_1005-2" data-name="矩形 1005" width="52" height="49" rx="8" transform="translate(9.5 12)" stroke="rgba(0,0,0,0)" stroke-width="1" fill="url(#linear-gradient)"/>
    </g>
    <g id="组_3891" data-name="组 3891" transform="translate(609.284 168.149)">
      <g id="组_3890" data-name="组 3890" transform="translate(0 0)" clip-path="url(#clip-path)">
        <path id="路径_22686" data-name="路径 22686" d="M1010.587,179.92l1.021-1.278a4.054,4.054,0,0,0-.635-5.7l-.064-.053a4.054,4.054,0,0,0-5.7.635l-1.017,1.275Zm0,0" transform="translate(-984.797 -172.197)" fill="#ffd86d"/>
        <path id="减去_7" data-name="减去 7" d="M15679.109,20829.568v0l-6.393-5.121,16.356-20.445,6.389,5.123v.006l.061.049-1.531,1.891-.046-.037-6.6,8.242-.649.8,0,0-7.594,9.488Z" transform="translate(-15670.482 -20800.395)" fill="#ffd86d" stroke="rgba(0,0,0,0)" stroke-miterlimit="10" stroke-width="1"/>
        <path id="路径_22688" data-name="路径 22688" d="M601.567,715.947l-6.025-4.826a6.079,6.079,0,0,0-.147.632l-1.381,6.612a.594.594,0,0,0,.828.662l6.15-2.8s.269-.114.575-.28Zm0,0" transform="translate(-594.001 -685.829)" fill="#ffd86d"/>
      </g>
    </g>
    <rect id="矩形_1006" data-name="矩形 1006" width="35" height="3" rx="1.5" transform="translate(592 212.148)" fill="#fff"/>
    <rect id="矩形_1007" data-name="矩形 1007" width="24" height="3" rx="1.5" transform="translate(592 205.148)" fill="#fff"/>
  </g>
</svg>
