<svg xmlns="http://www.w3.org/2000/svg" xmlns:xlink="http://www.w3.org/1999/xlink" width="539" height="491.5" viewBox="0 0 539 491.5"><defs><style>.a,.e,.f,.g,.h,.v{fill:none;}.a{stroke:#d9dafe;}.b{opacity:0.73;}.b,.c{fill:url(#a);}.c{opacity:0.21;}.d,.s{fill:#fff;}.e{stroke:#92eec4;}.e,.f,.g,.q{stroke-width:3px;}.f{stroke:#9597ff;}.g,.h{stroke:#dc95ff;}.h{stroke-width:2px;}.i{fill:url(#o);}.j{fill:url(#p);}.k{fill:url(#q);}.l{fill:#ff819b;}.m{fill:#d0d0de;}.n,.o{opacity:0.56;}.n{fill:url(#r);}.o{fill:url(#u);}.p{opacity:0.55;mix-blend-mode:multiply;isolation:isolate;}.q{fill:#ffcd5c;stroke:#d0d0de;stroke-linecap:round;stroke-linejoin:round;}.r{fill:#3c3cc2;}.s{fill-rule:evenodd;}.t{opacity:0.47;}.u{stroke:none;}.w{filter:url(#v);}.x{filter:url(#s);}.y{filter:url(#m);}.z{filter:url(#k);}.aa{filter:url(#i);}.ab{filter:url(#g);}.ac{filter:url(#e);}.ad{filter:url(#c);}</style><linearGradient id="a" x1="0.5" x2="0.5" y2="1" gradientUnits="objectBoundingBox"><stop offset="0" stop-color="#dcddfe"/><stop offset="1" stop-color="#b584ff"/></linearGradient><filter id="c" x="187.5" y="149.5" width="174" height="173" filterUnits="userSpaceOnUse"><feOffset dy="15" input="SourceAlpha"/><feGaussianBlur stdDeviation="10" result="d"/><feFlood flood-opacity="0.09"/><feComposite operator="in" in2="d"/><feComposite in="SourceGraphic"/></filter><filter id="e" x="13.5" y="173.5" width="135" height="134" filterUnits="userSpaceOnUse"><feOffset dy="15" input="SourceAlpha"/><feGaussianBlur stdDeviation="10" result="f"/><feFlood flood-opacity="0.09"/><feComposite operator="in" in2="f"/><feComposite in="SourceGraphic"/></filter><filter id="g" x="181.5" y="330.5" width="161" height="161" filterUnits="userSpaceOnUse"><feOffset dy="15" input="SourceAlpha"/><feGaussianBlur stdDeviation="10" result="h"/><feFlood flood-opacity="0.09"/><feComposite operator="in" in2="h"/><feComposite in="SourceGraphic"/></filter><filter id="i" x="362.5" y="53.5" width="140" height="140" filterUnits="userSpaceOnUse"><feOffset dy="15" input="SourceAlpha"/><feGaussianBlur stdDeviation="10" result="j"/><feFlood flood-opacity="0.09"/><feComposite operator="in" in2="j"/><feComposite in="SourceGraphic"/></filter><filter id="k" x="333.5" y="234.5" width="119" height="120" filterUnits="userSpaceOnUse"><feOffset dy="15" input="SourceAlpha"/><feGaussianBlur stdDeviation="10" result="l"/><feFlood flood-opacity="0.09"/><feComposite operator="in" in2="l"/><feComposite in="SourceGraphic"/></filter><filter id="m" x="91.5" y="17.5" width="116" height="116" filterUnits="userSpaceOnUse"><feOffset dy="15" input="SourceAlpha"/><feGaussianBlur stdDeviation="10" result="n"/><feFlood flood-opacity="0.09"/><feComposite operator="in" in2="n"/><feComposite in="SourceGraphic"/></filter><radialGradient id="o" cx="0.006" cy="1.097" r="1.43" gradientTransform="translate(0)" gradientUnits="objectBoundingBox"><stop offset="0" stop-color="#fec053"/><stop offset="0.327" stop-color="#f2203e"/><stop offset="0.648" stop-color="#b729a8"/><stop offset="1" stop-color="#5342d6"/></radialGradient><radialGradient id="p" cx="-0.465" cy="1.666" r="2.793" xlink:href="#o"/><radialGradient id="q" cx="-5.687" cy="7.551" r="11.619" gradientTransform="matrix(1, 0, 0, 1, 0, 0)" xlink:href="#o"/><radialGradient id="r" cx="0.5" cy="0.5" r="0.5" gradientUnits="objectBoundingBox"><stop offset="0" stop-color="#d3d3fe"/><stop offset="1" stop-color="#8788ff"/></radialGradient><filter id="s" x="416" y="347" width="123" height="123" filterUnits="userSpaceOnUse"><feOffset dy="14" input="SourceAlpha"/><feGaussianBlur stdDeviation="12.5" result="t"/><feFlood flood-color="#b1b1ff"/><feComposite operator="in" in2="t"/><feComposite in="SourceGraphic"/></filter><radialGradient id="u" cx="0.5" cy="0.5" r="0.5" gradientUnits="objectBoundingBox"><stop offset="0" stop-color="#89f9c7"/><stop offset="1" stop-color="#0cd471"/></radialGradient><filter id="v" x="0" y="0" width="111" height="110" filterUnits="userSpaceOnUse"><feOffset dy="14" input="SourceAlpha"/><feGaussianBlur stdDeviation="12.5" result="w"/><feFlood flood-color="#b1ffc6"/><feComposite operator="in" in2="w"/><feComposite in="SourceGraphic"/></filter></defs><g transform="translate(-1036.112 -2643.584)"><g class="a" transform="translate(1108.612 2662.084)"><ellipse class="u" cx="202" cy="202.5" rx="202" ry="202.5"/><ellipse class="v" cx="202" cy="202.5" rx="201.5" ry="202"/></g><g class="a" transform="translate(1178.612 2732.084)"><circle class="u" cx="132.5" cy="132.5" r="132.5"/><circle class="v" cx="132.5" cy="132.5" r="132"/></g><path class="b" d="M19.911,133.17v0A80.273,80.273,0,0,1,6.3,111.5a80.149,80.149,0,0,1,7.4-76.115A80.639,80.639,0,0,1,35.384,13.705a80.39,80.39,0,0,1,76.113-7.4c.986.412,2,.865,3,1.342l-4.751,6.3A71.87,71.87,0,0,0,80.258,7.691a72.531,72.531,0,0,0-55.59,119.166l-4.756,6.311Z" transform="translate(1230.441 2784.111)"/><path class="c" d="M19.911,133.17v0A80.273,80.273,0,0,1,6.3,111.5a80.149,80.149,0,0,1,7.4-76.115A80.639,80.639,0,0,1,35.384,13.705a80.39,80.39,0,0,1,76.113-7.4c.986.412,2,.865,3,1.342l-4.751,6.3A71.87,71.87,0,0,0,80.258,7.691a72.531,72.531,0,0,0-55.59,119.166l-4.756,6.311Z" transform="translate(1391.223 2947.811) rotate(180)"/><g class="ad" transform="matrix(1, 0, 0, 1, 1036.11, 2643.58)"><ellipse class="d" cx="57" cy="56.5" rx="57" ry="56.5" transform="translate(217.5 164.5)"/></g><g class="ac" transform="matrix(1, 0, 0, 1, 1036.11, 2643.58)"><ellipse class="d" cx="37.5" cy="37" rx="37.5" ry="37" transform="translate(43.5 188.5)"/></g><g class="e" transform="translate(1086.612 2765.084)"><circle class="u" cx="4.5" cy="4.5" r="4.5"/><circle class="v" cx="4.5" cy="4.5" r="3"/></g><g class="f" transform="translate(1529.612 2893.084)"><circle class="u" cx="4.5" cy="4.5" r="4.5"/><circle class="v" cx="4.5" cy="4.5" r="3"/></g><g class="g" transform="translate(1086.612 3045.084)"><circle class="u" cx="7" cy="7" r="7"/><circle class="v" cx="7" cy="7" r="5.5"/></g><g class="h" transform="translate(1460.612 2662.084)"><circle class="u" cx="3.5" cy="3.5" r="3.5"/><circle class="v" cx="3.5" cy="3.5" r="2.5"/></g><g class="ab" transform="matrix(1, 0, 0, 1, 1036.11, 2643.58)"><circle class="d" cx="50.5" cy="50.5" r="50.5" transform="translate(211.5 345.5)"/></g><g class="aa" transform="matrix(1, 0, 0, 1, 1036.11, 2643.58)"><circle class="d" cx="40" cy="40" r="40" transform="translate(392.5 68.5)"/></g><g class="z" transform="matrix(1, 0, 0, 1, 1036.11, 2643.58)"><ellipse class="d" cx="29.5" cy="30" rx="29.5" ry="30" transform="translate(363.5 249.5)"/></g><g class="y" transform="matrix(1, 0, 0, 1, 1036.11, 2643.58)"><circle class="d" cx="28" cy="28" r="28" transform="translate(121.5 32.5)"/></g><g transform="translate(1277.292 2830.963)"><g transform="translate(0 0)"><path class="i" d="M601.192,319.76H572.051A19.275,19.275,0,0,1,552.8,300.506V271.365a19.276,19.276,0,0,1,19.254-19.254h29.141a19.276,19.276,0,0,1,19.254,19.254v29.141A19.275,19.275,0,0,1,601.192,319.76Zm-29.141-61.85A13.47,13.47,0,0,0,558.6,271.365v29.141a13.471,13.471,0,0,0,13.456,13.456h29.141a13.471,13.471,0,0,0,13.455-13.456V271.365a13.47,13.47,0,0,0-13.455-13.455Z" transform="translate(-552.797 -252.111)"/></g><g transform="translate(16.503 16.503)"><path class="j" d="M608.626,325.261a17.321,17.321,0,1,1,17.321-17.321A17.34,17.34,0,0,1,608.626,325.261Zm0-28.844a11.523,11.523,0,1,0,11.522,11.523A11.536,11.536,0,0,0,608.626,296.418Z" transform="translate(-591.305 -290.619)"/></g><g transform="translate(47.726 11.349)"><path class="k" d="M672.483,282.756a4.163,4.163,0,1,1-4.163-4.163A4.163,4.163,0,0,1,672.483,282.756Z" transform="translate(-664.157 -278.593)"/></g></g><g transform="translate(1414.15 2911.959)"><path class="l" d="M286.673,378.619c-.483-2.971-2.141-4.571-4.777-6.034a6.26,6.26,0,0,0-6.708.558c-1.89,1.329-3.007,3.67-3.5,3.6-.251-.034-1.708-2.665-4.1-3.67a7.825,7.825,0,0,0-5.141-.211,8.489,8.489,0,0,0-5.895,6.591c-1.4,8.111,8.418,14.383,14.475,17.914a2.083,2.083,0,0,0,2.275.2,2.3,2.3,0,0,0,.277-.142C279.819,393.405,288.127,387.568,286.673,378.619Z" transform="translate(-256.422 -371.866)"/></g><g transform="translate(1169.386 2688.58)"><g transform="translate(17.029 0.002)"><g transform="translate(0 0)"><path class="m" d="M433.38,461.538V486.4a2.347,2.347,0,0,1-2.36,2.317A2.284,2.284,0,0,1,428.7,486.4V465.667l-1.685.97a2.109,2.109,0,0,1-1.18.337,2.361,2.361,0,0,1-1.222-4.34l5.183-3.076c.042-.042.127-.042.168-.084.084,0,.127-.084.211-.127.084,0,.168-.042.253-.042a.253.253,0,0,1,.169-.043.725.725,0,0,1,.294-.042h.463a.259.259,0,0,0,.169.042.454.454,0,0,1,.253.084.253.253,0,0,1,.169.043c.126.084.168.127.252.127a.61.61,0,0,0,.168.127c.043.042.127.084.168.126.085.042.127.127.168.168a.578.578,0,0,1,.128.169l.168.168.042.084c0,.043.043.084.043.126.042.085.084.127.084.211.042.085.042.169.084.211a1.757,1.757,0,0,0,.042.211.355.355,0,0,0,.084.295Z" transform="translate(-423.491 -459.221)"/></g></g><g transform="translate(5.875 7.943)"><g transform="translate(2.632 2.544)"><path class="m" d="M414.075,470.808V483.9" transform="translate(-414.075 -470.808)"/></g><g transform="translate(0 0)"><path class="m" d="M411.166,470.541v13.091c0,3.388,5.266,3.393,5.266,0V470.541c0-3.389-5.266-3.394-5.266,0Z" transform="translate(-411.166 -467.997)"/></g></g><g transform="translate(0.001 14.399)"><g transform="translate(2.543 2.633)"><path class="m" d="M407.485,478.041h11.927" transform="translate(-407.485 -478.041)"/></g><path class="m" d="M407.218,480.4h11.927c3.389,0,3.394-5.267,0-5.267H407.218c-3.388,0-3.393,5.267,0,5.267Z" transform="translate(-404.675 -475.131)"/></g></g><g class="x" transform="matrix(1, 0, 0, 1, 1036.11, 2643.58)"><path class="n" d="M24,0A24,24,0,1,1,0,24,24,24,0,0,1,24,0Z" transform="translate(453.5 370.5)"/></g><g class="w" transform="matrix(1, 0, 0, 1, 1036.11, 2643.58)"><ellipse class="o" cx="18" cy="17.5" rx="18" ry="17.5" transform="translate(37.5 23.5)"/></g><g transform="translate(605.09 3212.605) rotate(-50)"><path class="m" d="M593.545,421.68C587.834,411,581.673,401.265,576.689,389.3v17.325a3.964,3.964,0,1,1-2.307,0V389.3c-4.978,11.968-9.285,16.713-16.85,32.383l12.021,12.151h11.8Z" transform="translate(0 0)"/><rect class="m" width="11.816" height="6.477" transform="translate(569.512 437.675)"/></g><g transform="translate(1454.292 2727.978)"><g transform="translate(0.663 8.655)"><g transform="translate(0 0)"><path class="m" d="M903.6,466.915a14.932,14.932,0,1,1,27,8.792h0c-2.131,3.212-7.669,6.838-7.669,9.01V487.2a.9.9,0,0,1-.9.9h-7a.9.9,0,0,1-.9-.9v-2.482c0-2.172-5.538-5.8-7.67-9.01h0A14.864,14.864,0,0,1,903.6,466.915Z" transform="translate(-903.598 -451.983)"/></g></g><g transform="translate(6.61 23.805)"><path class="m" d="M949.182,561.606a97.738,97.738,0,0,1,.2-11.621,16.806,16.806,0,0,1-3.781,0,97.735,97.735,0,0,1,.195,11.621l-.263-.012a100.085,100.085,0,0,0-.209-11.645c-4.429-.616-6.411-3.125-6.767-5.493a3.307,3.307,0,0,1,1.124-3.275A2.256,2.256,0,0,1,941.5,541a4.675,4.675,0,0,1,2.681,2.431,19.376,19.376,0,0,1,1.393,6.286,16.453,16.453,0,0,0,3.832,0,19.379,19.379,0,0,1,1.393-6.286A4.675,4.675,0,0,1,953.476,541a2.256,2.256,0,0,1,1.821.183,3.307,3.307,0,0,1,1.124,3.275c-.356,2.368-2.338,4.877-6.767,5.493a100.049,100.049,0,0,0-.209,11.645Zm5.033-20.452a2.415,2.415,0,0,0-.666.1,4.409,4.409,0,0,0-2.519,2.3,19.005,19.005,0,0,0-1.35,6.129c4.242-.612,6.141-3,6.481-5.262a3.089,3.089,0,0,0-1-3.01A1.823,1.823,0,0,0,954.215,541.153Zm-13.458,0a1.822,1.822,0,0,0-.947.254,3.088,3.088,0,0,0-1,3.01c.339,2.258,2.238,4.65,6.481,5.262a19,19,0,0,0-1.35-6.129,4.409,4.409,0,0,0-2.519-2.3A2.415,2.415,0,0,0,940.757,541.153Z" transform="translate(-938.502 -540.889)"/></g><g transform="translate(17.802 10.664)"><path class="m" d="M1014.415,477.552a.857.857,0,0,1-.857-.857,11.574,11.574,0,0,0-8.735-11.236.857.857,0,1,1,.421-1.661,13.286,13.286,0,0,1,10.028,12.9A.857.857,0,0,1,1014.415,477.552Z" transform="translate(-1004.176 -463.772)"/></g><g transform="translate(15.307 10.26)"><path class="m" d="M989.535,462.263a.857.857,0,1,0,.857-.857A.857.857,0,0,0,989.535,462.263Z" transform="translate(-989.535 -461.406)"/></g><g class="p" transform="translate(0.691 24.47)"><g transform="translate(0)"><path class="m" d="M933.574,544.79c-.824,6.123-5.767,12.461-14.9,12.461a14.716,14.716,0,0,1-14.9-12.461,14.854,14.854,0,0,0,2.834,7.91h0c2.131,3.212,7.669,6.838,7.669,9.01v2.482a.9.9,0,0,0,.9.9h7a.9.9,0,0,0,.9-.9V561.71c0-2.173,5.538-5.8,7.67-9.01h0A14.855,14.855,0,0,0,933.574,544.79Z" transform="translate(-903.767 -544.79)"/></g></g><g transform="translate(10.842 42.45)"><path class="m" d="M972.841,650.3h-9.5v4.53a3.9,3.9,0,0,0,.607,2.089h0a4.084,4.084,0,0,0,3.448,1.9h1.393a4.085,4.085,0,0,0,3.449-1.9h0a3.9,3.9,0,0,0,.607-2.089Z" transform="translate(-963.336 -650.301)"/></g><g transform="translate(10.249 43.332)"><g transform="translate(0)"><path class="m" d="M960.448,657.652a.584.584,0,0,0,.082,0l9.5-.985a.57.57,0,0,0,.506-.651.618.618,0,0,0-.669-.529l-9.5.985a.57.57,0,0,0-.506.651A.62.62,0,0,0,960.448,657.652Z" transform="translate(-959.856 -655.48)"/></g></g><g transform="translate(10.249 45.405)"><g transform="translate(0 0)"><path class="m" d="M960.448,669.819a.575.575,0,0,0,.082,0l9.5-.985a.569.569,0,0,0,.506-.651.619.619,0,0,0-.669-.529l-9.5.985a.57.57,0,0,0-.506.651A.62.62,0,0,0,960.448,669.819Z" transform="translate(-959.856 -667.647)"/></g></g><g transform="translate(10.629 47.509)"><g transform="translate(0 0)"><path class="m" d="M962.676,682.111a.619.619,0,0,0,.082,0l9.009-.934a.57.57,0,0,0,.506-.651.618.618,0,0,0-.669-.529l-9.009.934a.569.569,0,0,0-.506.651A.62.62,0,0,0,962.676,682.111Z" transform="translate(-962.083 -679.99)"/></g></g><g transform="translate(0.001 -0.001)"><line class="q" y2="4.692" transform="translate(15.594 0)"/><g transform="translate(0 1.869)"><line class="q" x1="1.895" y2="4.293" transform="translate(22.161)"/><line class="q" x1="3.467" y2="3.162" transform="translate(27.721 5.192)"/><line class="q" x2="1.895" y2="4.293" transform="translate(7.132)"/><line class="q" x2="3.467" y2="3.162" transform="translate(0 5.192)"/></g></g></g><g transform="translate(717.551 2649.439)"><path class="r" d="M451.3,328.523a.818.818,0,0,1-.818.818h-3.605a.818.818,0,1,1,0-1.635h3.605A.817.817,0,0,1,451.3,328.523Z"/><path class="r" d="M457.611,328.523a.818.818,0,0,1-.818.818h-3.605a.818.818,0,1,1,0-1.635h3.605A.817.817,0,0,1,457.611,328.523Z"/><path class="r" d="M452.653,323.463V326.7a.817.817,0,1,1-1.634,0v-3.238a.817.817,0,1,1,1.634,0Z"/><path class="r" d="M452.653,330.345v3.239a.817.817,0,0,1-1.634,0v-3.239a.817.817,0,1,1,1.634,0Z"/></g><g transform="translate(780.551 2322.439)"><path class="r" d="M451.3,328.523a.818.818,0,0,1-.818.818h-3.605a.818.818,0,1,1,0-1.635h3.605A.817.817,0,0,1,451.3,328.523Z"/><path class="r" d="M457.611,328.523a.818.818,0,0,1-.818.818h-3.605a.818.818,0,1,1,0-1.635h3.605A.817.817,0,0,1,457.611,328.523Z"/><path class="r" d="M452.653,323.463V326.7a.817.817,0,1,1-1.634,0v-3.238a.817.817,0,1,1,1.634,0Z"/><path class="r" d="M452.653,330.345v3.239a.817.817,0,0,1-1.634,0v-3.239a.817.817,0,1,1,1.634,0Z"/></g><g transform="translate(1220.283 2278.295)"><g transform="translate(-133.671 573.226)"><g transform="translate(0.373 0.283)"><path class="m" d="M-132.561,611.269a.179.179,0,0,1-.179-.179V577.416a.179.179,0,0,1,.179-.179.179.179,0,0,1,.179.179V611.09A.179.179,0,0,1-132.561,611.269Z" transform="translate(132.74 -577.237)"/></g><path class="m" d="M-132.584,577.074a.544.544,0,0,1-.544.544.544.544,0,0,1-.544-.544.544.544,0,0,1,.544-.544A.544.544,0,0,1-132.584,577.074Z" transform="translate(133.671 -576.53)"/><path class="m" d="M-132.584,660.995a.544.544,0,0,1-.544.544.544.544,0,0,1-.544-.544.544.544,0,0,1,.544-.544A.544.544,0,0,1-132.584,660.995Z" transform="translate(133.671 -626.859)"/></g><g transform="translate(-75.549 573.226)"><g transform="translate(0.373 0.283)"><path class="m" d="M12.642,611.269a.179.179,0,0,1-.179-.179V577.416a.179.179,0,0,1,.358,0V611.09A.179.179,0,0,1,12.642,611.269Z" transform="translate(-12.463 -577.237)"/></g><path class="m" d="M12.619,577.074a.544.544,0,1,1-.544-.544A.544.544,0,0,1,12.619,577.074Z" transform="translate(-11.532 -576.53)"/><path class="m" d="M12.619,660.995a.544.544,0,1,1-.544-.544A.544.544,0,0,1,12.619,660.995Z" transform="translate(-11.532 -626.859)"/></g><path class="m" d="M15.129,2.211H7.669L6.351,5.632H-.38L8.2-14h6.507L23.291,5.632H16.448ZM13.306-2.557,11.4-7.493,9.492-2.557ZM31.031-9.989A9.29,9.29,0,0,1,37.2-8.18q2.131,1.809,2.131,5.567V5.632h-5.89V3.613q-1.094,2.3-4.347,2.3A6.938,6.938,0,0,1,26,5.282a4.567,4.567,0,0,1-1.935-1.711A4.564,4.564,0,0,1,23.4,1.145,3.9,3.9,0,0,1,25.142-2.3a9.49,9.49,0,0,1,5.273-1.178h2.552q-.309-1.795-2.889-1.795a7.235,7.235,0,0,0-2.1.323,5.911,5.911,0,0,0-1.823.883L24.132-8.251a11.152,11.152,0,0,1,3.183-1.276A15.383,15.383,0,0,1,31.031-9.989ZM31,2.1a2.086,2.086,0,0,0,1.206-.365A2.108,2.108,0,0,0,32.995.64V-.426H31.424q-1.935,0-1.935,1.29a1.117,1.117,0,0,0,.407.883A1.64,1.64,0,0,0,31,2.1Z" transform="translate(-125.855 592.386)"/></g><g transform="translate(1500.535 3025.006)"><path class="s" d="M20.6,22.011a11.014,11.014,0,0,1-2.476,1.559l-.144,2.709-4.423.757-1.038-2.506a11.038,11.038,0,0,1-2.853-.646L7.648,25.7,3.986,23.1,5.024,20.6a10.926,10.926,0,0,1-1.559-2.476L.757,17.979,0,13.556l2.506-1.038a10.942,10.942,0,0,1,.648-2.853L1.341,7.648,3.933,3.986,6.439,5.024A11.014,11.014,0,0,1,8.915,3.464L9.059.755,13.482,0l1.038,2.506a11.038,11.038,0,0,1,2.853.646l2.016-1.813,3.663,2.593-1.038,2.5A10.926,10.926,0,0,1,23.573,8.91l2.709.144.757,4.423-2.506,1.038a11.038,11.038,0,0,1-.646,2.853L25.7,19.384l-2.6,3.665L20.6,22.011Zm-3.268-5.545a4.814,4.814,0,1,0-6.71,1.15A4.814,4.814,0,0,0,17.331,16.466Z"/></g><g class="t" transform="translate(1090.817 2671.604) rotate(43)"><path class="s" d="M14.167,15.139a7.575,7.575,0,0,1-1.7,1.073l-.1,1.863L9.324,18.6,8.61,16.873a7.592,7.592,0,0,1-1.962-.444L5.26,17.675,2.741,15.891l.714-1.723a7.515,7.515,0,0,1-1.073-1.7l-1.862-.1L0,9.324,1.723,8.61a7.526,7.526,0,0,1,.446-1.962L.922,5.26,2.705,2.741l1.723.714a7.575,7.575,0,0,1,1.7-1.073l.1-1.863L9.272,0l.714,1.723a7.592,7.592,0,0,1,1.962.444L13.335.921,15.855,2.7l-.714,1.722a7.515,7.515,0,0,1,1.073,1.7l1.863.1L18.6,9.269l-1.723.714a7.592,7.592,0,0,1-.444,1.962l1.247,1.387-1.786,2.521-1.723-.714ZM11.92,11.325a3.311,3.311,0,1,0-4.615.791A3.311,3.311,0,0,0,11.92,11.325Z"/></g></g></svg>