<svg xmlns="http://www.w3.org/2000/svg" xmlns:xlink="http://www.w3.org/1999/xlink" width="228" height="224" viewBox="0 0 228 224"><defs><style>.a,.ag{fill:#fff;}.ac,.ad,.aj,.b,.d,.e,.n,.p,.q,.r{fill:none;}.b{stroke:#f4ebfc;}.c,.k{fill:#7c56ff;}.c{opacity:0.13;}.d{stroke:#66f;stroke-width:3px;}.e{stroke:#fe8673;}.e,.n{stroke-width:2px;}.f{fill:#66f;}.g{fill:#ffb92d;}.h{stroke:rgba(0,0,0,0);fill:url(#a);}.i{fill:#fb797c;}.j{fill:#e249be;}.l{fill:#8968fe;}.m{fill:#6641e8;}.n{stroke:#002751;}.ac,.ad,.n,.p,.q,.r{stroke-miterlimit:10;}.o{fill:#ffc3bd;}.p,.q,.r{stroke:#b5d1e2;}.ac,.p{stroke-width:0.75px;}.q{stroke-linecap:round;}.s{fill:#002751;}.t{fill:#eaa9a1;}.u{fill:#ef3974;}.v{fill:#db2164;}.w{fill:#f45b92;}.x{fill:#fccd5d;}.y{fill:#ffd980;}.z{fill:#11497c;}.aa{fill:#20208c;}.ab{fill:#aba7f1;}.ac,.ad{stroke:#09324c;}.ae{fill:#261818;}.af{fill:#b86d61;opacity:0.3;}.ag{opacity:0.51;}.ah{clip-path:url(#b);}.ai{stroke:none;}</style><linearGradient id="a" x1="0.5" x2="0.5" y2="1" gradientUnits="objectBoundingBox"><stop offset="0" stop-color="#ff8173"/><stop offset="1" stop-color="#d530e1"/></linearGradient><clipPath id="b"><rect class="a" width="80" height="65" rx="5" transform="translate(1318 5319)"/></clipPath></defs><g transform="translate(-427.446 -6064.859)"><g class="b" transform="translate(432.446 6064.859)"><ellipse class="ai" cx="111.5" cy="112" rx="111.5" ry="112"/><ellipse class="aj" cx="111.5" cy="112" rx="111" ry="111.5"/></g><circle class="c" cx="98" cy="98" r="98" transform="translate(445.446 6078.859)"/><ellipse class="a" cx="76" cy="76.5" rx="76" ry="76.5" transform="translate(467.446 6099.859)"/><g class="d" transform="translate(427.446 6164.859)"><circle class="ai" cx="6" cy="6" r="6"/><circle class="aj" cx="6" cy="6" r="4.5"/></g><g class="e" transform="translate(492.446 6072.859)"><circle class="ai" cx="3.5" cy="3.5" r="3.5"/><circle class="aj" cx="3.5" cy="3.5" r="2.5"/></g><circle class="f" cx="5" cy="5" r="5" transform="translate(636.446 6089.859)"/><circle class="g" cx="3" cy="3" r="3" transform="translate(589.446 6274.859)"/><rect class="h" width="102" height="158" rx="10" transform="translate(482.445 6089.859)"/><g transform="translate(493.923 6103.645) rotate(-1)"><ellipse class="a" cx="5.179" cy="5.178" rx="5.179" ry="5.178" transform="translate(-2.22 -2.479)"/><path class="i" d="M5.439,4.1A2.276,2.276,0,1,0,1.8,2.275,2.263,2.263,0,0,0,2.724,4.1,4.209,4.209,0,0,0,0,7.041a5.189,5.189,0,0,0,8.163,0A4.209,4.209,0,0,0,5.439,4.1Z" transform="translate(-1.134 -1.147)"/></g><g transform="translate(-45.636 5763.813)"><g transform="translate(535.572 442.782)"><path class="a" d="M8.032,2.024A2.238,2.238,0,0,0,5.754.006a2.114,2.114,0,0,0-1.829,1.46A2.048,2.048,0,0,0,1.94.3,2.238,2.238,0,0,0,0,2.651a2.169,2.169,0,0,0,.132.818A3.662,3.662,0,0,0,1.391,5.236L4.186,7.4a.3.3,0,0,0,.4-.03L7.062,4.793a3.657,3.657,0,0,0,.967-1.94A2.181,2.181,0,0,0,8.032,2.024Z" transform="matrix(0.998, 0.07, -0.07, 0.998, 2.247, -14.809)"/></g><g transform="translate(583.958 437.953)"><g transform="matrix(0.996, 0.087, -0.087, 0.996, -5.704, -11.075)"><path class="a" d="M8.1,0,.566.6A.615.615,0,0,0,0,1.259L.408,6.393a.614.614,0,0,0,.661.564l4.443-.351a1.23,1.23,0,0,1,.912.3c.844.745,1.764,1.5,1.926,1.421s-.094-.822-.386-1.568a.27.27,0,0,1,.23-.369l.412-.032A.614.614,0,0,0,9.17,5.7L8.764.566A.614.614,0,0,0,8.1,0Z"/><g transform="translate(1.595 2.605)"><path class="j" d="M1.26.581A.631.631,0,1,1,.581,0,.631.631,0,0,1,1.26.581Z" transform="translate(2.355 0.186)"/><path class="j" d="M1.26.581A.631.631,0,1,1,.581,0,.631.631,0,0,1,1.26.581Z" transform="translate(0 0.372)"/><path class="j" d="M1.26.581A.631.631,0,1,1,.581,0,.631.631,0,0,1,1.26.581Z" transform="translate(4.71 0)"/></g></g></g><g transform="translate(558.073 437.967)"><g transform="matrix(0.998, 0.07, -0.07, 0.998, -0.696, -11.136)"><path class="a" d="M623.886,448.345a.848.848,0,0,0,.04-.9.866.866,0,0,0-.859-.438c-.468.034-.937.074-1.406.109-.036,0-.072.018-.105-.009a.086.086,0,0,1-.015.009.074.074,0,0,0,.014-.009c.033-.082.068-.163.1-.246a2.586,2.586,0,0,0,.161-.9,2.136,2.136,0,0,0-.049-.555,1.152,1.152,0,0,0-1.07-.889.6.6,0,0,0-.675.556,3.355,3.355,0,0,1-.07.552,2.618,2.618,0,0,1-.648,1.132,5.48,5.48,0,0,1-.665.585h0c-.216.149-.434.295-.66.429a.147.147,0,0,0-.072.138l.335,4.234a.149.149,0,0,0,.106.132,5.7,5.7,0,0,0,.668.152,6.72,6.72,0,0,0,1.566.054c.759-.05,1.517-.117,2.275-.178a1.093,1.093,0,0,0,.242-.043.861.861,0,0,0,.5-1.259c-.031-.051-.022-.078.021-.116a.84.84,0,0,0,.179-1.077.077.077,0,0,1,.021-.116.848.848,0,0,0,.08-1.218C623.856,448.418,623.857,448.39,623.886,448.345Z" transform="translate(-614.685 -444.508)"/><path class="a" d="M611.433,453.514V453.5l0-.056a.373.373,0,0,0-.072-.232c-.007-.008-.015-.013-.022-.02a.217.217,0,0,0-.023-.02l-.025-.017-.024-.012a.287.287,0,0,0-.04-.015h-.005a.339.339,0,0,0-.116-.011l-1.151.091-1.151.091a.332.332,0,0,0-.113.029l0,0a.265.265,0,0,0-.037.022l-.022.016-.023.021c-.007.008-.013.015-.019.024s-.013.014-.019.023a.374.374,0,0,0-.035.24l0,.056v.02q.137,1.734.274,3.468c.027.341.053.682.081,1.023a.29.29,0,0,0,.347.3l.58-.046c.1-.005.19-.016.285-.023l.263-.021.263-.021c.095-.009.19-.012.285-.023l.58-.046a.29.29,0,0,0,.3-.348c-.025-.341-.054-.682-.08-1.023q-.137-1.734-.274-3.468Z" transform="translate(-608.523 -450.164)"/></g></g></g><g transform="translate(-61.833 5121.77)"><g transform="translate(639.309 1041.298)"><path class="k" d="M1108.439,1041.464l-.609.47h0a.1.1,0,1,1-.121-.157h0l.62-.461a.092.092,0,0,1,.111.147Z" transform="translate(-1092.451 -1041.298)"/><path class="k" d="M1025.644,1093.534q-.577.5-1.135,1.03a.131.131,0,0,1-.179-.191h0q.569-.52,1.16-1.016a.117.117,0,0,1,.153.178Z" transform="translate(-1011.78 -1091.637)"/><path class="k" d="M948.7,1166.6q-.533.55-1.045,1.12a.155.155,0,0,1-.231-.208v0q.524-.566,1.068-1.113a.145.145,0,0,1,.206.2Z" transform="translate(-937.374 -1162.291)"/><path class="k" d="M878.508,1246.138q-.484.593-.946,1.2a.179.179,0,0,1-.286-.216l0,0q.474-.61.97-1.2a.169.169,0,0,1,.26.215Z" transform="translate(-869.509 -1239.216)"/><path class="k" d="M815.82,1331.6q-.43.632-.835,1.281a.2.2,0,1,1-.345-.215l0,0q.418-.65.861-1.283a.193.193,0,0,1,.317.219Z" transform="translate(-808.913 -1321.874)"/><path class="k" d="M761.692,1422.606q-.372.668-.715,1.35a.221.221,0,1,1-.4-.2v0q.353-.688.735-1.36a.215.215,0,0,1,.374.21Z" transform="translate(-756.618 -1409.907)"/><path class="k" d="M716.867,1518.806q-.306.7-.581,1.412a.236.236,0,0,1-.44-.17v0q.285-.72.6-1.426a.229.229,0,0,1,.42.185Z" transform="translate(-713.344 -1502.979)"/><path class="k" d="M682.011,1619.27q-.235.726-.437,1.462a.251.251,0,1,1-.483-.133v0q.212-.745.456-1.479a.244.244,0,0,1,.464.152Z" transform="translate(-679.724 -1600.181)"/><path class="k" d="M657.626,1723.1q-.16.746-.288,1.5a.265.265,0,1,1-.523-.089v0q.136-.762.3-1.518a.259.259,0,0,1,.506.111Z" transform="translate(-656.243 -1700.642)"/><path class="k" d="M644.479,1829.31q-.079.76-.132,1.522a.28.28,0,0,1-.559-.039v0q.06-.771.146-1.54a.274.274,0,0,1,.544.059Z" transform="translate(-643.642 -1803.413)"/><path class="k" d="M639.917,1936.7c-.015.509-.02,1.019-.021,1.528a.294.294,0,1,1-.588,0h0c0-.516.013-1.031.032-1.546a.288.288,0,0,1,.576.019Z" transform="translate(-639.309 -1907.314)"/><path class="k" d="M640.994,2044.528q.032.763.09,1.524a.3.3,0,1,1-.6.045h0q-.057-.772-.087-1.545a.3.3,0,0,1,.593-.024Z" transform="translate(-640.365 -2011.655)"/><path class="k" d="M649.482,2152.123q.093.757.215,1.51a.3.3,0,0,1-.6.1h0q-.122-.765-.215-1.534a.3.3,0,0,1,.6-.073Z" transform="translate(-648.571 -2115.772)"/><path class="k" d="M667.238,2258.554q.163.744.359,1.48a.308.308,0,0,1-.6.159h0q-.2-.75-.361-1.509a.306.306,0,0,1,.6-.13Z" transform="translate(-665.745 -2218.769)"/><path class="k" d="M695.619,2362.628q.243.721.523,1.427a.313.313,0,0,1-.582.231h0q-.286-.724-.531-1.461a.311.311,0,0,1,.59-.2Z" transform="translate(-693.203 -2319.489)"/><path class="k" d="M736.162,2462.552q.333.682.707,1.342a.318.318,0,1,1-.553.314h0q-.383-.678-.722-1.38a.316.316,0,0,1,.568-.276Z" transform="translate(-732.435 -2416.199)"/><path class="k" d="M790.238,2555.8q.43.623.9,1.214a.323.323,0,1,1-.5.4h0q-.486-.61-.928-1.254a.321.321,0,0,1,.529-.364Z" transform="translate(-784.768 -2506.456)"/><path class="k" d="M858.428,2639.235q.527.542,1.095,1.043a.328.328,0,1,1-.434.491h0q-.584-.519-1.128-1.081a.326.326,0,0,1,.468-.454Z" transform="translate(-850.768 -2587.217)"/><path class="k" d="M939.879,2709.741q.306.222.62.433c.209.141.424.273.636.409l.01.006a.327.327,0,0,1-.353.552c-.22-.14-.442-.275-.658-.42s-.431-.292-.642-.445a.33.33,0,1,1,.386-.536Z" transform="translate(-929.605 -2655.467)"/><path class="k" d="M1032.627,2765.505q.679.333,1.382.615a.321.321,0,0,1-.238.6q-.725-.288-1.429-.63a.324.324,0,0,1,.283-.583Z" transform="translate(-1019.395 -2709.448)"/><path class="k" d="M1133.5,2804.691q.726.215,1.467.378a.314.314,0,0,1-.135.614q-.762-.166-1.511-.384a.317.317,0,0,1,.177-.609Z" transform="translate(-1117.05 -2747.38)"/><path class="k" d="M1239.389,2827.05q.752.1,1.51.153a.308.308,0,0,1-.042.614q-.776-.052-1.549-.152a.311.311,0,0,1,.08-.616Z" transform="translate(-1219.55 -2769.023)"/><path class="k" d="M1347.406,2832.5q.76,0,1.521-.045a.3.3,0,0,1,.035.6q-.775.046-1.552.052a.3.3,0,0,1,0-.608Z" transform="translate(-1324.104 -2774.252)"/><path class="k" d="M1455.433,2820.713q.756-.09,1.509-.214a.295.295,0,0,1,.1.581q-.764.129-1.534.224a.3.3,0,0,1-.073-.591Z" transform="translate(-1428.661 -2762.683)"/><path class="k" d="M1562.253,2798.659q.746-.161,1.485-.351a.277.277,0,0,1,.141.536q-.747.2-1.5.373a.286.286,0,0,1-.127-.557Z" transform="translate(-1532.045 -2741.209)"/><path class="k" d="M1667.268,2767.7q.73-.224,1.453-.473a.257.257,0,0,1,.17.485q-.728.26-1.465.495a.266.266,0,0,1-.161-.507Z" transform="translate(-1633.684 -2711.133)"/><path class="k" d="M1769.727,2728.9q.712-.279,1.415-.581a.237.237,0,0,1,.19.435q-.706.313-1.423.6a.246.246,0,0,1-.185-.456Z" transform="translate(-1732.845 -2673.48)"/><path class="k" d="M1869.219,2682.745q.69-.331,1.369-.685a.217.217,0,0,1,.2.385c-.454.242-.911.479-1.373.707a.226.226,0,1,1-.2-.4Z" transform="translate(-1829.131 -2628.723)"/><path class="k" d="M1965.115,2628.86q.66-.386,1.3-.8a.19.19,0,0,1,.208.317q-.642.43-1.3.832a.2.2,0,0,1-.212-.347Z" transform="translate(-1921.938 -2576.472)"/><path class="k" d="M2056.1,2566.418q.62-.448,1.222-.921a.158.158,0,0,1,.2.247q-.6.488-1.216.951a.172.172,0,0,1-.206-.275Z" transform="translate(-2009.999 -2515.938)"/><path class="k" d="M2141.027,2496.092c.384-.336.761-.681,1.133-1.031a.125.125,0,0,1,.174.18c-.365.362-.74.714-1.121,1.06a.14.14,0,0,1-.189-.208Z" transform="translate(-2092.184 -2447.79)"/><path class="k" d="M2219.542,2435.743l.527-.561h0a.092.092,0,0,1,.135.125l-.515.576a.1.1,0,0,1-.151-.135h0Z" transform="translate(-2168.167 -2389.861)"/></g><g transform="translate(677.428 1052.524)"><path class="l" d="M2160.44,2163.328l4.735,6.866,2.614-6.158Z" transform="translate(-2149.133 -2138.095)"/><path class="k" d="M1851.914,1386.776l-7.325,29.05a2.111,2.111,0,0,1-2.64,1.51l-28.89-8.453a.846.846,0,0,1-.157-1.561Z" transform="translate(-1812.45 -1386.776)"/><path class="l" d="M2160.526,1412.008l28.153-25.232-23.5,26.611,1.232,1.96Z" transform="translate(-2149.216 -1386.776)"/><path class="m" d="M2306.65,2206.532l-2.694,4.691-.074-5.488Z" transform="translate(-2287.914 -2179.125)"/></g></g><g transform="translate(571.476 6111.934)"><path class="n" d="M603.9,232.287s-4.444,1.365-5.48,10.041-.346,9.817-4.781,11.118-7.43,2.972-8.063,5.564" transform="translate(-583.734 -213.221)"/><g transform="translate(26.89 128.313)"><path class="o" d="M642.542,474.132l2.844,6.621a10.744,10.744,0,0,0,3.821-1.608l-2.036-7.589" transform="translate(-641.339 -471.556)"/><path class="a" d="M646.928,480.972a7.186,7.186,0,0,0,1.665,1.134c1.482.874,1.8,1.4,1.607,2.558s-2.143,2.494-2.987,3.741-1.594,3.5-2.528,4.55-2.416,2.443-3.783,2.087-.985-1.405-.668-1.885a30.327,30.327,0,0,0,1.572-4.375c.458-1.568.534-3.625.814-4.636.249-.9.494-.905,1.6-.036a1.34,1.34,0,0,0,1.828-.19c.437-.371.183-1.684.465-2.284S646.928,480.972,646.928,480.972Z" transform="translate(-639.931 -476.633)"/><path class="p" d="M641.235,498.639s.662.617,1.987-.131a6.451,6.451,0,0,0,2.448-3.225,18.981,18.981,0,0,1,2.62-4.061,16.265,16.265,0,0,1,1.9-1.5" transform="translate(-640.634 -481.353)"/><path class="q" d="M644.324,496.507a2.306,2.306,0,0,1,1.989.252" transform="translate(-642.3 -484.945)"/><path class="q" d="M644.509,494.151a2.3,2.3,0,0,1,1.989.252" transform="translate(-642.4 -483.675)"/><path class="q" d="M644.919,491.712a2.305,2.305,0,0,1,1.989.251" transform="translate(-642.621 -482.36)"/></g><g transform="translate(31.783 135.137)"><path class="o" d="M658.712,486.587l-.435,7.193a10.741,10.741,0,0,0,4.136.282l1.592-7.695" transform="translate(-654.717 -486.366)"/><path class="a" d="M656.4,496.3a3.235,3.235,0,0,1,2.079,1.36c.8,1.192.769,1.773.688,3.741s.751,3.418.359,5.269-1.918,2.641-4.014,3.066-5.151-.857-4.948-2.713,1.094-2.547,2.12-4.776.516-3.895,1.4-4.812A2.735,2.735,0,0,1,656.4,496.3Z" transform="translate(-650.551 -491.725)"/><path class="r" d="M658.385,503.608a3.63,3.63,0,0,1,3.629.4" transform="translate(-654.775 -495.502)"/><path class="r" d="M657.887,505.908a3.629,3.629,0,0,1,3.629.4" transform="translate(-654.507 -496.742)"/><path class="r" d="M657.567,508.609a3.629,3.629,0,0,1,3.629.4" transform="translate(-654.334 -498.199)"/><path class="p" d="M652.006,512.642a3.24,3.24,0,0,0,2.3,1.8,5.063,5.063,0,0,0,4.77-1.382c.7-.8.518-2.477.489-3.658s.017-2.62.017-2.62" transform="translate(-651.336 -497.378)"/></g><path class="s" d="M608.742,228.948s-6.429-2.031-9.318,1.446-.856,15.1-4.053,18.8-9.814,2.295-13.257,8.829,10.136,20.025,23.92,17.714,18.852-25.1,17.241-35.245c-1.391-8.764-5.882-13.034-9.127-13.525C610.14,226.36,608.742,228.948,608.742,228.948Z" transform="translate(-581.573 -211.302)"/><path class="o" d="M668.611,267.283l-2.267,4.33v.007l-2.729,5.215,3.155-.036,2.66-.033a3.307,3.307,0,0,1,.171-1.321.728.728,0,0,1,.44-.455c3.224-.994,12.792-2.755,13.4-3.643l-4.152-6.263Z" transform="translate(-625.813 -231.907)"/><g transform="translate(19.673 16.214)"><path class="o" d="M654.665,265.16s-.636,5.58-1.663,6.128a3.871,3.871,0,0,1-4.128-.912,4.715,4.715,0,0,1-1.18-3.424,7.431,7.431,0,0,0-.258-3.013c-.06-.272-.134-.548-.212-.811a31.636,31.636,0,0,0-1.092-3.184l5.391-1.212a20.186,20.186,0,0,0,.931,2.719c.129.323.263.631.4.912.018.037.032.069.051.106.286.613.553,1.129.774,1.525.3.562.511.885.511.885Z" transform="translate(-636.059 -244.695)"/><path class="t" d="M657.1,268.243a7.144,7.144,0,0,1-4.617-.456l3.792-1.175c.018.037.032.069.051.106C656.61,267.331,656.878,267.847,657.1,268.243Z" transform="translate(-639.483 -248.944)"/><path class="o" d="M632.051,242.811s6.093,10.41,12.436,8.288-.227-14.853-.227-14.853S633.318,231.65,632.051,242.811Z" transform="translate(-628.466 -232.064)"/><path class="s" d="M634.629,232.287s.63,6.557-6.514,10.93L624.27,237Z" transform="translate(-624.27 -230.435)"/><path class="s" d="M639.455,231.551s4.774,2.954,9.385,1.422l-1.293-3.705-4.57-1-2.847,1.45-1.58.555" transform="translate(-631.97 -228.268)"/></g><path class="t" d="M672.227,279.339l-2.66.033a21.63,21.63,0,0,1-.764-2.9,16.132,16.132,0,0,1,.338-2.274v-.007c.091-.48.167-.888.178-1.055.029-.455.273-2.256.273-2.256l1.816-1.019s-1.027,6.4.99,8.163A3.308,3.308,0,0,0,672.227,279.339Z" transform="translate(-628.609 -234.479)"/><g transform="translate(10.009 18.064)"><path class="u" d="M616.723,236.891a3.6,3.6,0,0,0-.062-1.386,3.739,3.739,0,0,0-3.957-3.2,3.537,3.537,0,0,0-2.943,2.58,3.429,3.429,0,0,0-3.411-1.787,3.745,3.745,0,0,0-3.053,4.073,3.6,3.6,0,0,0,.284,1.356,6.1,6.1,0,0,0,2.236,2.854l5.21,3.663,4.231-4.841A6.11,6.11,0,0,0,616.723,236.891Z" transform="translate(-603.295 -232.283)"/><path class="v" d="M611.027,245.975l-5.21-3.663a6.1,6.1,0,0,1-2.236-2.854,3.6,3.6,0,0,1-.284-1.356,3.745,3.745,0,0,1,3.053-4.073,3.429,3.429,0,0,1,3.411,1.787s-2.954-1.32-4.162,1.017C604.055,239.82,607.743,242.951,611.027,245.975Z" transform="translate(-603.295 -233.21)"/><path class="w" d="M622.377,235.1a1.628,1.628,0,0,1,.322-.2,2.247,2.247,0,0,1,.992-.241,2,2,0,0,1,1.376.564,2.79,2.79,0,0,1,.524.658,2.9,2.9,0,0,1,.325.819,3.209,3.209,0,0,1-.112,1.687,4.837,4.837,0,0,1-.652,1.276,6.068,6.068,0,0,1-.646.76,3.059,3.059,0,0,1-.281.251s.078-.113.2-.312a8.9,8.9,0,0,0,.475-.847,6.31,6.31,0,0,0,.471-1.251,3.137,3.137,0,0,0,.043-1.454,2.537,2.537,0,0,0-.256-.68,3,3,0,0,0-.416-.585,1.871,1.871,0,0,0-1.079-.59,2.443,2.443,0,0,0-.934.039A2.8,2.8,0,0,0,622.377,235.1Z" transform="translate(-613.584 -233.567)"/></g><g transform="translate(8.075 22.871)"><path class="o" d="M621.3,278.182l-.692,5.459-.189.1-3.523,1.878c-.076-.215-.28-.349-.717-.251a14.383,14.383,0,0,0-1.415.484c-2.6.975-7.8,3.1-11.547,3.861l-.044.011c-2.329.415-4.04.422-4.069-.437a35.614,35.614,0,0,1,1.762-9.5c1.787-5.731,4.669-12.209,4.669-12.209l3.2.313s-.56,2.68-.957,5.493c-.364,2.589-.553,5.263-.893,6.7-.179.753-.96,2.944-.96,2.944l11.645-8.1,1.729,1.5Z" transform="translate(-599.098 -256.124)"/><g transform="translate(3.046)"><path class="o" d="M613.322,258.3s1.576-2.086.979-3.146-2.688-2.513-2.887-2.741.569-.985.9-1.226.434.132,1.373.164.929-.612.934-.7a12.178,12.178,0,0,0-2.457-1.18,24.078,24.078,0,0,0-2.5,1.935c-.137.116-1.76,1.544-1.828,1.966s2.3,2.816,2.449,3.252a3.108,3.108,0,0,1-.082,1.3" transform="translate(-606.857 -246.358)"/><path class="o" d="M607.85,251.035s.112-2.09.116-2.874a14.294,14.294,0,0,1,1.78-2.372l3.008-.617a1.158,1.158,0,0,1-.655,1.339,9.788,9.788,0,0,1-1.774.511l-.872,1.487v1.282" transform="translate(-606.863 -244.04)"/><path class="o" d="M606.7,249.8s-.785-2.194-.986-2.953a14.293,14.293,0,0,1,1.1-2.755l2.742-1.381a1.159,1.159,0,0,1-.283,1.463,9.769,9.769,0,0,1-1.579.957l-.453,1.663.335,1.238" transform="translate(-605.709 -242.715)"/></g><path class="t" d="M638.744,292.35l-3.523,1.878c-.077-.215-.28-.349-.717-.251a14.382,14.382,0,0,0-1.416.484c2.613-3.246,2.809-10.917,2.809-10.917l1.485.579.244.924.455,1.743A40.576,40.576,0,0,1,638.744,292.35Z" transform="translate(-617.427 -264.731)"/></g><g transform="translate(21.301 35.376)"><path class="x" d="M627.979,328.367s-1.845,3.147,6.434,3.862l.637-3.862-3.275-1.745Z" transform="translate(-627.803 -300.466)"/><path class="o" d="M657.424,333.909s-3.918,1.909-11.522,1.5a32.263,32.263,0,0,1-8.493-1.532s.626-2.1,1.339-5.641c.185-.935.382-1.969.571-3.093l4.1-1.041,12.544-3.173s.2,4.409.357,5.871C656.518,328.59,657.424,333.909,657.424,333.909Z" transform="translate(-632.983 -297.398)"/><path class="t" d="M658.108,329.751c-3.246,2.071-9.76,4.338-13.552,3.122a19.288,19.288,0,0,0-4.24-.921c.185-.935.382-1.969.571-3.093l4.1-1.041Z" transform="translate(-634.551 -301.112)"/><path class="y" d="M653,297.635s-1.527,2.3-9.28,3.252c-4.4.539-8.136-2.042-11.281-3.252a6.974,6.974,0,0,0-4.251.122c2.154-2.664,3.17-6.75,3.632-10.5v0c3.567-4.56,1.438-11.091,1.438-11.091a32.038,32.038,0,0,1,4.764-3.215s1.754,3.614,3.992,3.45,2.5-5.524,2.5-5.524a49.863,49.863,0,0,0,5-1.019.01.01,0,0,1,0,.007c-.076.233-1.936,5.958.094,8.319a2.687,2.687,0,0,0,.99.728Z" transform="translate(-628.009 -269.856)"/><path class="z" d="M654.23,349.063c.546,4.185.887,9.522.887,9.522H631.486a65.994,65.994,0,0,1,2.729-9.553S640.705,350.943,654.23,349.063Z" transform="translate(-629.789 -312.551)"/></g><path class="o" d="M683.151,203.528a5.809,5.809,0,0,1,.3,1.742c.072,1.246-.289,2.028.313,2.738.329.387,1.2,1.489,2.213,2.87A9.288,9.288,0,0,1,687.3,213.9l3.144-1.418a11.149,11.149,0,0,1-.624-3.114,22.186,22.186,0,0,0,.122-3.119,6.31,6.31,0,0,0-.371-2.054,30.292,30.292,0,0,0-2.463-5.045c-.427-.793-1.222.515-1.145.91a20.884,20.884,0,0,0,.281,2.1c.18.712.055,2.865-.676,3.607s-1.042-.947-1.281-1.7C683.924,202.91,682.966,202.873,683.151,203.528Z" transform="translate(-636.335 -196.217)"/><path class="o" d="M691.5,227.942a38.492,38.492,0,0,1,1.028,5.129c.173,1.539.309,4.272.309,7.375a27.313,27.313,0,0,0,.43,4.591l5.213,5.708c2.728-2.575-.089-12.618-2.1-18.974-1-3.159-1.623-4.9-1.623-4.9Z" transform="translate(-640.851 -211.302)"/><g transform="translate(46.222 0)"><path class="aa" d="M681.937,196.54l2.863,8.165a.53.53,0,0,0,.552.353l2.463-.25a.428.428,0,0,0,.368-.538L685.09,193.3a.269.269,0,0,0-.454-.144L682.11,195.7A.823.823,0,0,0,681.937,196.54Z" transform="translate(-681.889 -193.079)"/><path class="ab" d="M682.33,197.106l2.759,7.948a.483.483,0,0,0,.5.323l2.247-.228a.391.391,0,0,0,.334-.492L685.2,194.171a.245.245,0,0,0-.411-.13l-2.294,2.3A.746.746,0,0,0,682.33,197.106Z" transform="translate(-682.103 -193.559)"/><path class="aa" d="M688.349,193.089l.6.086a.17.17,0,0,1,.136.13L692,204.035a.172.172,0,0,1-.036.158l-.348.414Z" transform="translate(-685.372 -193.084)"/></g><path class="o" d="M693.743,204.248s-.585-1.7-.221-2.01.651.552.794.948.827,1.709.893,1.93.256,2.464.256,2.464l-1.5-2.938" transform="translate(-641.875 -197.982)"/><path class="z" d="M624.036,365.115s-7.207,22.435-6.284,25.651,11.192,25.469,11.192,25.469a4.83,4.83,0,0,0,2.49-.7,24.965,24.965,0,0,0,2.909-2.029s-1.457-5.659-2.6-10.94c-.582-2.692-1.49-6.146-1.72-7.675a30.666,30.666,0,0,0-1.5-5.495,1.873,1.873,0,0,1,.049-1.413l9.3-20.751,1.058-5.161-7.622-.927Z" transform="translate(-601.038 -283.704)"/><path class="z" d="M670.5,357.89a25.418,25.418,0,0,0-1.664-6.882,19.145,19.145,0,0,1-.546-1.91l-10.726,7.667s-.064,17.852.757,26.357a25.364,25.364,0,0,1,.11,3.48c-.3,7.429-.866,27.487-.866,27.487a10.153,10.153,0,0,0,3.022.651c.822.063,3.241-.1,3.241-.1a59.137,59.137,0,0,0,1.215-6.529c.131-1.417.259-3.825.259-3.825h0C667.422,389.136,671.021,362.24,670.5,357.89Z" transform="translate(-622.551 -277.21)"/><path class="ac" d="M677.056,369.765a43.746,43.746,0,0,1-.392,9.225c-.749,3.629-.864,9.043-1.44,12.268s-1.728,14.226-2.073,16.991-.634,10.137-.979,12.21" transform="translate(-630.427 -288.354)"/><path class="ac" d="M656.14,353.412s-.846,8.716-.731,9.906a8.666,8.666,0,0,0,.787,2.534" transform="translate(-621.382 -279.536)"/><path class="ad" d="M644.763,377.024s-3.649,9.74-4.686,11.583-3.467,6.417-3.807,7.372a8.239,8.239,0,0,0-.973,2.592c0,.922,1.9,5.414,2.509,8.639.426,2.255,4.785,14.457,4.785,14.457" transform="translate(-610.543 -292.268)"/><path class="ad" d="M627.777,421.264a5.134,5.134,0,0,1,3.258.834c.022.015.014.053-.013.052-.463-.024-2.484-.073-3.475.841" transform="translate(-606.364 -316.113)"/><path class="ad" d="M637.922,350.974s7.919,2.592,19.036.144" transform="translate(-611.958 -278.221)"/><path class="ae" d="M646.8,252.876s.5.846.837.711.173-.423-.082-.869C647.159,252.022,646.579,252.5,646.8,252.876Z" transform="translate(-616.72 -225.047)"/><path class="ae" d="M656.6,246.011s.337.927.7.856.249-.386.079-.873C657.107,245.234,656.447,245.6,656.6,246.011Z" transform="translate(-622.017 -221.374)"/><path class="s" d="M642.839,251.172a1.563,1.563,0,0,1,.7-.77,13.2,13.2,0,0,1,1.38-.545c.09-.1.008-.2-.46-.116a3.046,3.046,0,0,0-1.566.53,1.194,1.194,0,0,0-.458,1.118C642.5,251.572,642.778,251.271,642.839,251.172Z" transform="translate(-614.377 -223.617)"/><path class="s" d="M654.615,243.25a1.253,1.253,0,0,0-.777.3,10.74,10.74,0,0,0-.8.874c-.1.039-.15-.051.047-.377a2.331,2.331,0,0,1,.874-.933.987.987,0,0,1,.941-.1C655.012,243.112,654.706,243.233,654.615,243.25Z" transform="translate(-620.06 -219.961)"/><path class="af" d="M654.245,252.025a5.615,5.615,0,0,1,1.442,1.424c.082.187-.312,1.051-.482,1.036s.361-.863.265-1.019a13.039,13.039,0,0,0-1.835-1.763C653.361,251.455,653.686,251.611,654.245,252.025Z" transform="translate(-620.378 -224.627)"/><path class="a" d="M657.539,258.349a3,3,0,0,1-1.142,1.334,5.169,5.169,0,0,1-2.016.434,2.056,2.056,0,0,0,2.14.535C658.039,260.234,657.539,258.349,657.539,258.349Z" transform="translate(-620.833 -228.275)"/><path class="s" d="M636.1,246.983s-2.262,3.033-1.422,5.561a14.739,14.739,0,0,0,2.452,4.415l-4.092-1.029-2.244-4.486.65-2.882,2.4-1.265Z" transform="translate(-608.116 -222.146)"/></g><rect class="a" width="16" height="2" rx="1" transform="translate(505.445 6102.859)"/><rect class="a" width="80" height="2" rx="1" transform="translate(491.445 6207.859)"/><rect class="a" width="61" height="2" rx="1" transform="translate(491.445 6215.859)"/><rect class="a" width="52" height="2" rx="1" transform="translate(491.445 6225.859)"/><rect class="a" width="11" height="2" rx="1" transform="translate(505.445 6106.859)"/><rect class="ag" width="84" height="69" rx="5" transform="translate(491.445 6116.859)"/><g class="ah" transform="translate(-824.555 799.859)"><rect class="a" width="80" height="65" rx="5" transform="translate(1318 5319)"/><g transform="matrix(0.998, 0.07, -0.07, 0.998, 1865.29, 5250.021)"><path class="k" d="M-379.585,262.784l.077,1.173-42.782,2.794,8.642-9.844,11.9-13.569Z" transform="translate(-73.111 -96.128)"/><path class="k" d="M-529.964,254.357l-.522-7.989,24.585-28.021,36.532,32.053Z" transform="translate(-7.547 -80.983)"/><circle class="k" cx="13.025" cy="13.025" r="13.025" transform="translate(-502.474 123.219) rotate(-45)"/></g></g></g></svg>