<svg xmlns="http://www.w3.org/2000/svg" xmlns:xlink="http://www.w3.org/1999/xlink" width="223.903" height="201.021" viewBox="0 0 223.903 201.021"><defs><style>.a{fill:#fff;}.b{stroke:rgba(0,0,0,0);fill:url(#a);}.c,.h,.m,.s{fill:none;}.c{stroke:#f4ebfc;}.d,.f{fill:#7c56ff;}.e{clip-path:url(#b);}.f{opacity:0.17;}.g,.i{fill:#66f;}.g{opacity:0.27;}.h{stroke:#fe8673;stroke-width:2px;}.j{fill:#ffb92d;}.k{clip-path:url(#e);}.l{fill:#ff5679;}.m{stroke:#ef5b90;stroke-miterlimit:10;}.n{fill:#ffcf00;}.o{fill:#ef3974;}.p{fill:#622408;}.q{fill:#ec312b;}.r{stroke:none;}</style><linearGradient id="a" x1="0.5" x2="0.5" y2="1" gradientUnits="objectBoundingBox"><stop offset="0" stop-color="#ff8173"/><stop offset="1" stop-color="#d530e1"/></linearGradient><clipPath id="b"><circle class="a" cx="65.5" cy="65.5" r="65.5" transform="translate(466 6100.344)"/></clipPath><clipPath id="e"><rect class="b" width="46.814" height="45.513" rx="6" transform="translate(545.427 6169.946) rotate(-56)"/></clipPath></defs><g transform="translate(-425.617 -6065.344)"><g class="c" transform="translate(431 6065.344)"><circle class="r" cx="100.5" cy="100.5" r="100.5"/><circle class="s" cx="100.5" cy="100.5" r="100"/></g><circle class="d" cx="69.5" cy="69.5" r="69.5" transform="translate(462 6096.344)"/><g class="e"><circle class="a" cx="65.5" cy="65.5" r="65.5" transform="translate(466 6100.344)"/><path class="f" d="M423.946,6185.712c28.44-22.557,55.112-27.532,72.841-8.672s21.5,12.448,35.457,2.641,43.755-32.816,58.914-11.132,10.3,26.97,7.355,33.345-37.267,47.564-37.267,47.564H475.924l-46.584-45.113Z"/><path class="g" d="M451.146,6201.936s17.728-20.746,27.535-14.334,24.519-8.3,42.624-12.07,17.352,17.352,31.308,14.334,33.193-19.615,42.246-10.939,10.185,17.729,10.185,17.729l-32.816,48.659-71.668-1.886-51.677-13.579Z"/></g><g class="h" transform="translate(485 6071.344)"><circle class="r" cx="4" cy="4" r="4"/><circle class="s" cx="4" cy="4" r="3"/></g><circle class="i" cx="4.5" cy="4.5" r="4.5" transform="translate(615 6087.344)"/><circle class="j" cx="3" cy="3" r="3" transform="translate(589 6242.344)"/><rect class="b" width="45.485" height="44.222" rx="6" transform="matrix(0.899, -0.438, 0.438, 0.899, 466.39, 6132.525)"/><rect class="b" width="31.093" height="30.016" rx="6" transform="translate(533.297 6118.271) rotate(-1)"/><g class="k" transform="translate(4906.426 1779.118) rotate(50)"><rect class="b" width="46.814" height="45.513" rx="6" transform="translate(545.427 6169.946) rotate(-56)"/><path class="a" d="M4.223,41.647,0,30.376,4.734,17.561a4.154,4.154,0,0,1,4.993-2.583l9.644,2.583a.683.683,0,0,0,.777-.332L27.56,3.715A7.194,7.194,0,0,1,36.413.472l9.132,3.51,7.288,19.451ZM2.485,30.37l3.1,8.279L49.834,22.07l-6.1-16.29L35.577,2.647A4.851,4.851,0,0,0,29.6,4.835L22.191,18.35a3.007,3.007,0,0,1-3.423,1.462L9.124,17.228a1.829,1.829,0,0,0-2.2,1.14Z" transform="translate(559.599 6170.123) rotate(-36)"/><path class="a" d="M6.7,13.386a6.693,6.693,0,1,1,6.26-9.041h0A6.693,6.693,0,0,1,6.7,13.386ZM6.688,2.329a4.364,4.364,0,1,0,4.091,2.833A4.354,4.354,0,0,0,6.688,2.329Z" transform="translate(563.809 6155.688) rotate(-36)"/></g><rect class="l" width="16.04" height="16.04" rx="4" transform="matrix(0.951, 0.309, -0.309, 0.951, 556.838, 6246.154)"/><rect class="l" width="19.732" height="19.731" rx="4" transform="matrix(0.899, -0.438, 0.438, 0.899, 425.617, 6109.294)"/><path class="a" d="M9.941.825h0a2.817,2.817,0,0,0-3.983,0L5.383,1.4,4.809.825a2.817,2.817,0,0,0-3.984,0h0a2.817,2.817,0,0,0,0,3.983l.574.574h0L5.383,9.367,7.949,6.8,9.367,5.383l.574-.574A2.817,2.817,0,0,0,9.941.825Z" transform="matrix(0.951, 0.309, -0.309, 0.951, 558.145, 6250.891)"/><g transform="matrix(0.891, -0.454, 0.454, 0.891, 431.64, 6110.531)"><path class="a" d="M2.407.815V6.3a.815.815,0,0,1-.815.815H.814A.814.814,0,0,1,0,6.3V.815A.814.814,0,0,1,.814,0h.777a.8.8,0,0,1,.8.71A.3.3,0,0,1,2.407.815Z" transform="translate(0 3.516)"/><path class="a" d="M8.67,6.3c-.389,2.05-1.365,3.555-2.834,3.555H.013V4.279A.352.352,0,0,0,0,4.164C1.31,4.017,2.847,2.974,3.81.609a.9.9,0,0,1,.957-.6A.928.928,0,0,1,5.5.938V1a10.271,10.271,0,0,1-.4,2.392C7.879,3.391,9.207,3.486,8.67,6.3Z" transform="translate(2.394 0)"/></g><path class="m" d="M741.891,266.326,770.24,271.6a2.343,2.343,0,0,1,1.875,2.732l-3.595,19.311a2.343,2.343,0,0,1-2.733,1.875l-16.711-3.111a4.7,4.7,0,0,0-3.581.787c-3.5,2.488-7.291,5-7.874,4.619-.542-.352.686-3.079,2.093-5.791a1.032,1.032,0,0,0-.725-1.492l-1.549-.288a2.344,2.344,0,0,1-1.875-2.733l3.594-19.311A2.344,2.344,0,0,1,741.891,266.326Z" transform="translate(-123.139 5861.119)"/><g transform="translate(620.645 6132.622)"><path class="n" d="M768.364,284.245a8.948,8.948,0,1,1-9.372-8.5A8.947,8.947,0,0,1,768.364,284.245Z" transform="translate(-750.479 -275.733)"/><g transform="translate(0.215 2.27)"><g transform="translate(10.249)"><path class="o" d="M773.125,281.128c-1.593-2.708-4.194-.606-3.621,1.448a13.814,13.814,0,0,0,2.356,3.842,12.869,12.869,0,0,0,3.839-2.361C777.14,282.487,775.773,279.435,773.125,281.128Z" transform="translate(-769.423 -279.843)"/></g><g transform="translate(0 0.356)"><path class="o" d="M753.884,281.949c1.323-2.85,4.116-1.011,3.744,1.089a13.809,13.809,0,0,1-1.971,4.053,12.887,12.887,0,0,1-4.05-1.976C750.02,283.691,751.085,280.521,753.884,281.949Z" transform="translate(-750.868 -280.487)"/></g></g><g transform="translate(5.407 10.566)"><path class="p" d="M760.634,295.2c-.228-.063-.426.189-.348.445a3.812,3.812,0,0,0,7.264-.354c.052-.262-.17-.494-.39-.409a10.732,10.732,0,0,1-6.526.318Z" transform="translate(-760.269 -294.863)"/></g><g transform="translate(7.424 12.28)"><path class="q" d="M765.607,297.968a1.9,1.9,0,0,0-1.686,1.236,3.99,3.99,0,0,0,3.484-.17A1.9,1.9,0,0,0,765.607,297.968Z" transform="translate(-763.921 -297.966)"/></g></g><g transform="translate(441.484 6212.266)"><path class="n" d="M534.875,338.066a15.94,15.94,0,1,1-20.443-9.5A15.939,15.939,0,0,1,534.875,338.066Z" transform="translate(-503.958 -327.592)"/><g transform="translate(16.309 19.044)"><path class="p" d="M535.4,365.958a.494.494,0,0,1-.418-.891c.481-.28,1.21-1.041,1.214-1.551,0-.111-.03-.244-.267-.387-.473-.287-1.2.427-1.543.944a.494.494,0,0,1-.822-.55c.706-1.056,1.87-1.85,2.877-1.241a1.39,1.39,0,0,1,.743,1.242,3.447,3.447,0,0,1-1.705,2.4A.514.514,0,0,1,535.4,365.958Z" transform="translate(-533.485 -362.071)"/><g transform="translate(1.255 2.889)"><path class="p" d="M538.305,370.439a3.458,3.458,0,0,1-2.057-.024.495.495,0,0,1,.273-.951c.6.173,1.613.25,1.788-.273.089-.262.026-.384-.046-.468a2.586,2.586,0,0,0-1.927-.4.494.494,0,0,1-.172-.973,3.438,3.438,0,0,1,2.849.731,1.391,1.391,0,0,1,.232,1.429A1.476,1.476,0,0,1,538.305,370.439Z" transform="translate(-535.757 -367.302)"/></g></g><g transform="translate(19.274 12.12)"><path class="p" d="M539.9,352.591a.779.779,0,0,1-.974-1.06,3.284,3.284,0,0,1,4.484-1.639.779.779,0,0,1-.656,1.414,1.738,1.738,0,0,0-2.415.882A.775.775,0,0,1,539.9,352.591Z" transform="translate(-538.854 -349.535)"/></g><g transform="translate(8.444 15.395)"><path class="p" d="M522.58,357.034a1.744,1.744,0,1,1-2.336-1.489A1.994,1.994,0,0,1,522.58,357.034Z" transform="translate(-519.247 -355.465)"/></g><g transform="translate(22.636 15.589)"><path class="o" d="M550.665,357.286c3.638-3.674,6.934.731,5.189,3.775-1.374,2.392-5.312,5.174-5.312,5.174-.364-.267-3.86-2.89-5.167-5.319C543.711,357.827,547.129,353.515,550.665,357.286Z" transform="translate(-544.941 -355.815)"/></g><g transform="translate(4.541 9.155)"><path class="p" d="M512.931,349.76l-.031.01a.45.45,0,0,1-.555-.309,4.363,4.363,0,0,1,.321-3.184,4.288,4.288,0,0,1,2.425-2.087.449.449,0,0,1,.571.278.432.432,0,0,1-.278.571,3.5,3.5,0,0,0-1.92,1.653,3.452,3.452,0,0,0-.255,2.521A.449.449,0,0,1,512.931,349.76Z" transform="translate(-512.18 -344.167)"/></g><g transform="translate(18.451 9.299)"><path class="p" d="M541.981,345.56a.442.442,0,0,1-.3,0,2.753,2.753,0,0,0-3.493.978.449.449,0,0,1-.742-.506,3.659,3.659,0,0,1,4.534-1.319.449.449,0,0,1,.274.573A.444.444,0,0,1,541.981,345.56Z" transform="translate(-537.364 -344.428)"/></g></g><path class="a" d="M19.2,9.63,2.983.269A1.989,1.989,0,0,0,0,1.992V20.712a1.989,1.989,0,0,0,2.983,1.722L19.2,13.074A1.989,1.989,0,0,0,19.2,9.63Z" transform="matrix(0.899, -0.438, 0.438, 0.899, 485.187, 6134.091)"/><rect class="a" width="20.809" height="2.401" rx="1.201" transform="matrix(1, -0.017, 0.017, 1, 538.657, 6126.752)"/><rect class="a" width="12.806" height="2.401" rx="1.201" transform="matrix(1, -0.017, 0.017, 1, 538.727, 6130.753)"/><rect class="a" width="17.608" height="2.401" rx="1.201" transform="matrix(1, -0.017, 0.017, 1, 538.796, 6134.754)"/><rect class="a" width="20.809" height="2.401" rx="1.201" transform="matrix(1, -0.017, 0.017, 1, 538.866, 6138.756)"/></g></svg>