<svg xmlns="http://www.w3.org/2000/svg" xmlns:xlink="http://www.w3.org/1999/xlink" width="256.007" height="194.4" viewBox="0 0 256.007 194.4"><defs><style>.a{fill:#e6003c;}.b{fill:#ff8282;}.c{fill:rgba(44,219,165,0.81);}.d{fill:url(#a);}.e{fill:url(#b);}.f{fill:url(#c);}.g{fill:url(#d);}.h{fill:url(#e);}.i{fill:url(#f);}.j{fill:url(#g);}.k{fill:url(#h);}.l{fill:#ff8698;}.m,.o{mix-blend-mode:screen;isolation:isolate;}.m{fill:url(#i);}.n{fill:#bbf6e9;}.o{fill:url(#j);}.p{fill:url(#k);}.q{fill:#70dfc1;}.r{fill:#ffabab;}.s,.t,.u,.x{fill:#fff;}.s{stroke:#ff7575;}.s,.t{stroke-width:3px;}.t{stroke:#ffe69f;}.v{fill:#2daa94;}.w{fill:#ff7a7a;font-size:18px;}.w,.x{font-family:Helvetica-Condensed-Bold, Helvetica;font-weight:700;}.x{font-size:20px;}.y{stroke:none;}.z{fill:none;}</style><linearGradient id="a" x1="0.5" y1="0.942" x2="0.5" y2="-0.118" gradientUnits="objectBoundingBox"><stop offset="0" stop-color="#ff726f"/><stop offset="0.07" stop-color="#fe7977"/><stop offset="0.705" stop-color="#f9b9be"/><stop offset="1" stop-color="#f8d3da"/></linearGradient><linearGradient id="b" x1="0.017" y1="-1.591" x2="1.138" y2="-0.774" gradientUnits="objectBoundingBox"><stop offset="0" stop-color="#fef8fa"/><stop offset="0.229" stop-color="#fceef2"/><stop offset="1" stop-color="#f8d3da"/></linearGradient><linearGradient id="c" x1="0.075" y1="0.219" x2="0.621" y2="0.697" xlink:href="#b"/><linearGradient id="d" x1="-0.013" y1="-0.497" x2="1.158" y2="0.304" gradientUnits="objectBoundingBox"><stop offset="0" stop-color="#ff726f"/><stop offset="0.149" stop-color="#fd8180" stop-opacity="0.835"/><stop offset="0.573" stop-color="#faadb0" stop-opacity="0.392"/><stop offset="0.865" stop-color="#f8c8ce" stop-opacity="0.11"/><stop offset="1" stop-color="#f8d3da" stop-opacity="0"/></linearGradient><linearGradient id="e" x1="0.456" y1="0.393" x2="-0.091" y2="0.9" xlink:href="#d"/><linearGradient id="f" x1="0.233" y1="0.169" x2="0.859" y2="0.988" xlink:href="#b"/><linearGradient id="g" x1="0.5" y1="0.031" x2="0.5" y2="0.982" xlink:href="#b"/><linearGradient id="h" x1="0.5" y1="-0.022" x2="0.5" y2="1.015" xlink:href="#d"/><linearGradient id="i" x1="0.306" y1="0.212" x2="0.788" y2="0.927" gradientUnits="objectBoundingBox"><stop offset="0"/><stop offset="0.099" stop-color="#050402"/><stop offset="0.223" stop-color="#14100a"/><stop offset="0.36" stop-color="#2e2316"/><stop offset="0.506" stop-color="#513f28"/><stop offset="0.66" stop-color="#7f623f"/><stop offset="0.82" stop-color="#b78d5b"/><stop offset="0.983" stop-color="#f7bf7b"/><stop offset="1" stop-color="#ffc57f"/></linearGradient><linearGradient id="j" x1="0.139" y1="0.144" x2="0.862" y2="0.857" gradientUnits="objectBoundingBox"><stop offset="0"/><stop offset="0.099" stop-color="#050505"/><stop offset="0.223" stop-color="#141414"/><stop offset="0.36" stop-color="#2e2e2e"/><stop offset="0.506" stop-color="#515151"/><stop offset="0.66" stop-color="#7f7f7f"/><stop offset="0.82" stop-color="#b7b7b7"/><stop offset="0.983" stop-color="#f7f7f7"/><stop offset="1" stop-color="#fff"/></linearGradient><linearGradient id="k" x1="0.5" x2="0.5" y2="1" gradientUnits="objectBoundingBox"><stop offset="0" stop-color="#fae1e7"/><stop offset="1" stop-color="#eca8b9"/></linearGradient></defs><g transform="translate(-1544.321 -837.6)"><g transform="translate(1524.223 790.739)"><circle class="a" cx="0.023" cy="0.023" r="0.023" transform="translate(217.812 85.946)"/><circle class="a" cx="0.15" cy="0.15" r="0.15" transform="translate(221.836 85.82)"/><circle class="a" cx="0.058" cy="0.058" r="0.058" transform="translate(226.079 85.912)"/><path class="a" d="M255.872,92.043a.012.012,0,1,0-.012-.012A.012.012,0,0,0,255.872,92.043Z" transform="translate(-62.939 -1.911)"/><path class="a" d="M261.841,92.081a.081.081,0,1,0,0-.161.081.081,0,0,0,0,.161Z" transform="translate(-64.758 -1.88)"/><circle class="a" cx="0.219" cy="0.219" r="0.219" transform="translate(201.015 89.901)"/><circle class="a" cx="0.357" cy="0.357" r="0.357" transform="translate(205.027 89.763)"/><path class="a" d="M279.651,92.317a.506.506,0,1,0-.506-.506A.507.507,0,0,0,279.651,92.317Z" transform="translate(-70.117 -1.69)"/><circle class="a" cx="0.645" cy="0.645" r="0.645" transform="translate(213.04 89.476)"/><circle class="a" cx="0.76" cy="0.76" r="0.76" transform="translate(217.076 89.36)"/><circle class="a" cx="0.783" cy="0.783" r="0.783" transform="translate(221.203 89.337)"/><path class="a" d="M303.815,92.113a.138.138,0,1,0-.138-.138A.139.139,0,0,0,303.815,92.113Z" transform="translate(-77.679 -1.854)"/><circle class="a" cx="0.035" cy="0.035" r="0.035" transform="translate(172.145 94.236)"/><circle class="a" cx="0.15" cy="0.15" r="0.15" transform="translate(176.181 94.121)"/><path class="a" d="M237.749,98.2a.288.288,0,1,0-.288-.288A.288.288,0,0,0,237.749,98.2Z" transform="translate(-57.268 -3.637)"/><path class="a" d="M243.682,98.278a.437.437,0,1,0-.437-.437A.437.437,0,0,0,243.682,98.278Z" transform="translate(-59.051 -3.571)"/><circle class="a" cx="0.575" cy="0.575" r="0.575" transform="translate(188.206 93.695)"/><path class="a" d="M255.559,98.432a.714.714,0,1,0-.714-.714A.714.714,0,0,0,255.559,98.432Z" transform="translate(-62.627 -3.448)"/><circle class="a" cx="0.783" cy="0.783" r="0.783" transform="translate(196.3 93.488)"/><circle class="a" cx="0.783" cy="0.783" r="0.783" transform="translate(200.451 93.488)"/><circle class="a" cx="0.783" cy="0.783" r="0.783" transform="translate(204.601 93.488)"/><circle class="a" cx="0.783" cy="0.783" r="0.783" transform="translate(208.752 93.488)"/><circle class="a" cx="0.783" cy="0.783" r="0.783" transform="translate(212.902 93.488)"/><circle class="a" cx="0.783" cy="0.783" r="0.783" transform="translate(217.053 93.488)"/><circle class="a" cx="0.783" cy="0.783" r="0.783" transform="translate(221.203 93.488)"/><circle class="a" cx="0.023" cy="0.023" r="0.023" transform="translate(226.113 94.247)"/><path class="a" d="M189.872,104.043a.012.012,0,1,0-.012-.012A.012.012,0,0,0,189.872,104.043Z" transform="translate(-42.595 -5.61)"/><path class="a" d="M195.841,104.081a.081.081,0,1,0,0-.161.081.081,0,0,0,0,.161Z" transform="translate(-44.414 -5.579)"/><path class="a" d="M201.774,104.164a.23.23,0,1,0-.23-.23A.23.23,0,0,0,201.774,104.164Z" transform="translate(-46.196 -5.512)"/><circle class="a" cx="0.368" cy="0.368" r="0.368" transform="translate(159.36 98.053)"/><circle class="a" cx="0.518" cy="0.518" r="0.518" transform="translate(163.361 97.903)"/><path class="a" d="M219.585,104.4a.656.656,0,1,0-.656-.656A.655.655,0,0,0,219.585,104.4Z" transform="translate(-51.555 -5.323)"/><circle class="a" cx="0.76" cy="0.76" r="0.76" transform="translate(171.42 97.661)"/><circle class="a" cx="0.783" cy="0.783" r="0.783" transform="translate(175.548 97.638)"/><circle class="a" cx="0.783" cy="0.783" r="0.783" transform="translate(179.698 97.638)"/><circle class="a" cx="0.783" cy="0.783" r="0.783" transform="translate(183.849 97.638)"/><circle class="a" cx="0.783" cy="0.783" r="0.783" transform="translate(187.999 97.638)"/><circle class="a" cx="0.783" cy="0.783" r="0.783" transform="translate(192.15 97.638)"/><circle class="a" cx="0.783" cy="0.783" r="0.783" transform="translate(196.3 97.638)"/><circle class="a" cx="0.783" cy="0.783" r="0.783" transform="translate(200.451 97.638)"/><circle class="a" cx="0.783" cy="0.783" r="0.783" transform="translate(204.601 97.638)"/><circle class="a" cx="0.783" cy="0.783" r="0.783" transform="translate(208.752 97.638)"/><circle class="a" cx="0.783" cy="0.783" r="0.783" transform="translate(212.902 97.638)"/><circle class="a" cx="0.783" cy="0.783" r="0.783" transform="translate(217.053 97.638)"/><path class="a" d="M297.569,104.419a.69.69,0,1,0-.69-.69A.691.691,0,0,0,297.569,104.419Z" transform="translate(-75.583 -5.307)"/><circle class="a" cx="0.035" cy="0.035" r="0.035" transform="translate(126.49 102.537)"/><circle class="a" cx="0.161" cy="0.161" r="0.161" transform="translate(130.514 102.41)"/><path class="a" d="M171.744,110.2a.3.3,0,1,0-.3-.3A.3.3,0,0,0,171.744,110.2Z" transform="translate(-36.918 -7.331)"/><path class="a" d="M177.682,110.278a.437.437,0,1,0-.437-.437A.437.437,0,0,0,177.682,110.278Z" transform="translate(-38.706 -7.27)"/><circle class="a" cx="0.587" cy="0.587" r="0.587" transform="translate(142.539 101.985)"/><path class="a" d="M189.559,110.432a.714.714,0,1,0-.714-.714A.714.714,0,0,0,189.559,110.432Z" transform="translate(-42.282 -7.147)"/><path class="a" d="M195.528,110.47a.783.783,0,1,0-.782-.783A.783.783,0,0,0,195.528,110.47Z" transform="translate(-44.101 -7.116)"/><path class="a" d="M201.528,110.47a.783.783,0,1,0-.782-.783A.783.783,0,0,0,201.528,110.47Z" transform="translate(-45.95 -7.116)"/><path class="a" d="M207.528,110.47a.783.783,0,1,0-.782-.783A.783.783,0,0,0,207.528,110.47Z" transform="translate(-47.8 -7.116)"/><path class="a" d="M213.528,110.47a.783.783,0,1,0-.782-.783A.783.783,0,0,0,213.528,110.47Z" transform="translate(-49.649 -7.116)"/><path class="a" d="M219.528,110.47a.783.783,0,1,0-.782-.783A.783.783,0,0,0,219.528,110.47Z" transform="translate(-51.499 -7.116)"/><path class="a" d="M225.528,110.47a.783.783,0,1,0-.782-.783A.783.783,0,0,0,225.528,110.47Z" transform="translate(-53.348 -7.116)"/><path class="a" d="M231.528,110.47a.783.783,0,1,0-.782-.783A.783.783,0,0,0,231.528,110.47Z" transform="translate(-55.198 -7.116)"/><path class="a" d="M237.528,110.47a.783.783,0,1,0-.782-.783A.783.783,0,0,0,237.528,110.47Z" transform="translate(-57.047 -7.116)"/><path class="a" d="M243.528,110.47a.783.783,0,1,0-.782-.783A.783.783,0,0,0,243.528,110.47Z" transform="translate(-58.897 -7.116)"/><path class="a" d="M249.528,110.47a.783.783,0,1,0-.782-.783A.783.783,0,0,0,249.528,110.47Z" transform="translate(-60.746 -7.116)"/><path class="a" d="M255.528,110.47a.783.783,0,1,0-.782-.783A.783.783,0,0,0,255.528,110.47Z" transform="translate(-62.596 -7.116)"/><path class="a" d="M261.528,110.47a.783.783,0,1,0-.782-.783A.783.783,0,0,0,261.528,110.47Z" transform="translate(-64.445 -7.116)"/><path class="a" d="M267.528,110.47a.783.783,0,1,0-.782-.783A.783.783,0,0,0,267.528,110.47Z" transform="translate(-66.295 -7.116)"/><path class="a" d="M273.528,110.47a.783.783,0,1,0-.782-.783A.783.783,0,0,0,273.528,110.47Z" transform="translate(-68.144 -7.116)"/><path class="a" d="M279.528,110.47a.783.783,0,1,0-.782-.783A.783.783,0,0,0,279.528,110.47Z" transform="translate(-69.994 -7.116)"/><path class="a" d="M285.528,110.47a.783.783,0,1,0-.782-.783A.783.783,0,0,0,285.528,110.47Z" transform="translate(-71.843 -7.116)"/><path class="a" d="M291.528,110.47a.783.783,0,1,0-.782-.783A.783.783,0,0,0,291.528,110.47Z" transform="translate(-73.693 -7.116)"/><path class="a" d="M297.626,110.349a.564.564,0,1,0-.564-.564A.564.564,0,0,0,297.626,110.349Z" transform="translate(-75.64 -7.213)"/><path class="a" d="M123.872,116.043a.012.012,0,0,0,.012-.012.012.012,0,0,0-.024,0A.012.012,0,0,0,123.872,116.043Z" transform="translate(-22.25 -9.309)"/><circle class="a" cx="0.092" cy="0.092" r="0.092" transform="translate(105.68 106.63)"/><path class="a" d="M135.774,116.164a.23.23,0,1,0-.23-.23A.23.23,0,0,0,135.774,116.164Z" transform="translate(-25.852 -9.211)"/><path class="a" d="M141.713,116.241a.368.368,0,1,0-.368-.369A.368.368,0,0,0,141.713,116.241Z" transform="translate(-27.64 -9.15)"/><circle class="a" cx="0.518" cy="0.518" r="0.518" transform="translate(117.705 106.204)"/><path class="a" d="M153.585,116.4a.656.656,0,1,0-.656-.656A.656.656,0,0,0,153.585,116.4Z" transform="translate(-31.211 -9.022)"/><circle class="a" cx="0.76" cy="0.76" r="0.76" transform="translate(125.765 105.962)"/><path class="a" d="M165.528,116.47a.783.783,0,1,0-.782-.783A.783.783,0,0,0,165.528,116.47Z" transform="translate(-34.854 -8.965)"/><path class="a" d="M171.528,116.47a.783.783,0,1,0-.782-.783A.783.783,0,0,0,171.528,116.47Z" transform="translate(-36.703 -8.965)"/><path class="a" d="M177.528,116.47a.783.783,0,1,0-.782-.783A.783.783,0,0,0,177.528,116.47Z" transform="translate(-38.552 -8.965)"/><path class="a" d="M183.528,116.47a.783.783,0,1,0-.782-.783A.783.783,0,0,0,183.528,116.47Z" transform="translate(-40.402 -8.965)"/><path class="a" d="M189.528,116.47a.783.783,0,1,0-.782-.783A.783.783,0,0,0,189.528,116.47Z" transform="translate(-42.251 -8.965)"/><path class="a" d="M195.528,116.47a.783.783,0,1,0-.782-.783A.783.783,0,0,0,195.528,116.47Z" transform="translate(-44.101 -8.965)"/><path class="a" d="M201.528,116.47a.783.783,0,1,0-.782-.783A.783.783,0,0,0,201.528,116.47Z" transform="translate(-45.95 -8.965)"/><path class="a" d="M207.528,116.47a.783.783,0,1,0-.782-.783A.783.783,0,0,0,207.528,116.47Z" transform="translate(-47.8 -8.965)"/><path class="a" d="M213.528,116.47a.783.783,0,1,0-.782-.783A.783.783,0,0,0,213.528,116.47Z" transform="translate(-49.649 -8.965)"/><path class="a" d="M219.528,116.47a.783.783,0,1,0-.782-.783A.783.783,0,0,0,219.528,116.47Z" transform="translate(-51.499 -8.965)"/><path class="a" d="M225.528,116.47a.783.783,0,1,0-.782-.783A.783.783,0,0,0,225.528,116.47Z" transform="translate(-53.348 -8.965)"/><path class="a" d="M231.528,116.47a.783.783,0,1,0-.782-.783A.783.783,0,0,0,231.528,116.47Z" transform="translate(-55.198 -8.965)"/><path class="a" d="M237.528,116.47a.783.783,0,1,0-.782-.783A.783.783,0,0,0,237.528,116.47Z" transform="translate(-57.047 -8.965)"/><path class="a" d="M243.528,116.47a.783.783,0,1,0-.782-.783A.783.783,0,0,0,243.528,116.47Z" transform="translate(-58.897 -8.965)"/><path class="a" d="M249.528,116.47a.783.783,0,1,0-.782-.783A.783.783,0,0,0,249.528,116.47Z" transform="translate(-60.746 -8.965)"/><path class="a" d="M255.528,116.47a.783.783,0,1,0-.782-.783A.783.783,0,0,0,255.528,116.47Z" transform="translate(-62.596 -8.965)"/><path class="a" d="M261.528,116.47a.783.783,0,1,0-.782-.783A.783.783,0,0,0,261.528,116.47Z" transform="translate(-64.445 -8.965)"/><path class="a" d="M267.528,116.47a.783.783,0,1,0-.782-.783A.783.783,0,0,0,267.528,116.47Z" transform="translate(-66.295 -8.965)"/><path class="a" d="M273.528,116.47a.783.783,0,1,0-.782-.783A.783.783,0,0,0,273.528,116.47Z" transform="translate(-68.144 -8.965)"/><path class="a" d="M279.528,116.47a.783.783,0,1,0-.782-.783A.783.783,0,0,0,279.528,116.47Z" transform="translate(-69.994 -8.965)"/><path class="a" d="M285.528,116.47a.783.783,0,1,0-.782-.783A.783.783,0,0,0,285.528,116.47Z" transform="translate(-71.843 -8.965)"/><path class="a" d="M291.528,116.47a.783.783,0,1,0-.782-.783A.783.783,0,0,0,291.528,116.47Z" transform="translate(-73.693 -8.965)"/><circle class="a" cx="0.449" cy="0.449" r="0.449" transform="translate(221.537 106.273)"/><circle class="a" cx="0.035" cy="0.035" r="0.035" transform="translate(80.834 110.838)"/><circle class="a" cx="0.161" cy="0.161" r="0.161" transform="translate(84.858 110.711)"/><path class="a" d="M105.744,122.2a.3.3,0,1,0-.3-.3A.3.3,0,0,0,105.744,122.2Z" transform="translate(-16.574 -11.03)"/><circle class="a" cx="0.449" cy="0.449" r="0.449" transform="translate(92.871 110.424)"/><circle class="a" cx="0.587" cy="0.587" r="0.587" transform="translate(96.884 110.286)"/><path class="a" d="M123.559,122.432a.714.714,0,1,0-.714-.714A.714.714,0,0,0,123.559,122.432Z" transform="translate(-21.938 -10.846)"/><path class="a" d="M129.528,122.47a.783.783,0,1,0-.782-.783A.783.783,0,0,0,129.528,122.47Z" transform="translate(-23.757 -10.815)"/><path class="a" d="M135.528,122.47a.783.783,0,1,0-.782-.783A.783.783,0,0,0,135.528,122.47Z" transform="translate(-25.606 -10.815)"/><path class="a" d="M141.528,122.47a.783.783,0,1,0-.782-.783A.783.783,0,0,0,141.528,122.47Z" transform="translate(-27.456 -10.815)"/><path class="a" d="M147.528,122.47a.783.783,0,1,0-.782-.783A.783.783,0,0,0,147.528,122.47Z" transform="translate(-29.305 -10.815)"/><path class="a" d="M153.528,122.47a.783.783,0,1,0-.782-.783A.783.783,0,0,0,153.528,122.47Z" transform="translate(-31.155 -10.815)"/><path class="a" d="M159.528,122.47a.783.783,0,1,0-.782-.783A.783.783,0,0,0,159.528,122.47Z" transform="translate(-33.004 -10.815)"/><path class="a" d="M165.528,122.47a.783.783,0,1,0-.782-.783A.783.783,0,0,0,165.528,122.47Z" transform="translate(-34.854 -10.815)"/><path class="a" d="M171.528,122.47a.783.783,0,1,0-.782-.783A.783.783,0,0,0,171.528,122.47Z" transform="translate(-36.703 -10.815)"/><path class="a" d="M177.528,122.47a.783.783,0,1,0-.782-.783A.783.783,0,0,0,177.528,122.47Z" transform="translate(-38.552 -10.815)"/><path class="a" d="M183.528,122.47a.783.783,0,1,0-.782-.783A.783.783,0,0,0,183.528,122.47Z" transform="translate(-40.402 -10.815)"/><path class="a" d="M189.528,122.47a.783.783,0,1,0-.782-.783A.783.783,0,0,0,189.528,122.47Z" transform="translate(-42.251 -10.815)"/><path class="a" d="M195.528,122.47a.783.783,0,1,0-.782-.783A.783.783,0,0,0,195.528,122.47Z" transform="translate(-44.101 -10.815)"/><path class="a" d="M201.528,122.47a.783.783,0,1,0-.782-.783A.783.783,0,0,0,201.528,122.47Z" transform="translate(-45.95 -10.815)"/><path class="a" d="M207.528,122.47a.783.783,0,1,0-.782-.783A.783.783,0,0,0,207.528,122.47Z" transform="translate(-47.8 -10.815)"/><path class="a" d="M213.528,122.47a.783.783,0,1,0-.782-.783A.783.783,0,0,0,213.528,122.47Z" transform="translate(-49.649 -10.815)"/><path class="a" d="M219.528,122.47a.783.783,0,1,0-.782-.783A.783.783,0,0,0,219.528,122.47Z" transform="translate(-51.499 -10.815)"/><path class="a" d="M225.528,122.47a.783.783,0,1,0-.782-.783A.783.783,0,0,0,225.528,122.47Z" transform="translate(-53.348 -10.815)"/><path class="a" d="M231.528,122.47a.783.783,0,1,0-.782-.783A.783.783,0,0,0,231.528,122.47Z" transform="translate(-55.198 -10.815)"/><path class="a" d="M237.528,122.47a.783.783,0,1,0-.782-.783A.783.783,0,0,0,237.528,122.47Z" transform="translate(-57.047 -10.815)"/><path class="a" d="M243.528,122.47a.783.783,0,1,0-.782-.783A.783.783,0,0,0,243.528,122.47Z" transform="translate(-58.897 -10.815)"/><path class="a" d="M249.528,122.47a.783.783,0,1,0-.782-.783A.783.783,0,0,0,249.528,122.47Z" transform="translate(-60.746 -10.815)"/><path class="a" d="M255.528,122.47a.783.783,0,1,0-.782-.783A.783.783,0,0,0,255.528,122.47Z" transform="translate(-62.596 -10.815)"/><path class="a" d="M261.528,122.47a.783.783,0,1,0-.782-.783A.783.783,0,0,0,261.528,122.47Z" transform="translate(-64.445 -10.815)"/><path class="a" d="M267.528,122.47a.783.783,0,1,0-.782-.783A.783.783,0,0,0,267.528,122.47Z" transform="translate(-66.295 -10.815)"/><path class="a" d="M273.528,122.47a.783.783,0,1,0-.782-.783A.783.783,0,0,0,273.528,122.47Z" transform="translate(-68.144 -10.815)"/><path class="a" d="M279.528,122.47a.783.783,0,1,0-.782-.783A.783.783,0,0,0,279.528,122.47Z" transform="translate(-69.994 -10.815)"/><path class="a" d="M285.528,122.47a.783.783,0,1,0-.782-.783A.783.783,0,0,0,285.528,122.47Z" transform="translate(-71.843 -10.815)"/><path class="a" d="M291.528,122.47a.783.783,0,1,0-.782-.783A.783.783,0,0,0,291.528,122.47Z" transform="translate(-73.693 -10.815)"/><circle class="a" cx="0.334" cy="0.334" r="0.334" transform="translate(221.652 110.539)"/><circle class="a" cx="0.058" cy="0.058" r="0.058" transform="translate(60.059 114.965)"/><path class="a" d="M69.769,128.171a.242.242,0,1,0-.241-.242A.242.242,0,0,0,69.769,128.171Z" transform="translate(-5.503 -12.906)"/><path class="a" d="M75.708,128.247a.38.38,0,1,0-.38-.38A.38.38,0,0,0,75.708,128.247Z" transform="translate(-7.29 -12.844)"/><circle class="a" cx="0.518" cy="0.518" r="0.518" transform="translate(72.05 114.505)"/><path class="a" d="M87.585,128.4a.656.656,0,1,0-.656-.656A.656.656,0,0,0,87.585,128.4Z" transform="translate(-10.866 -12.721)"/><path class="a" d="M93.533,128.464a.771.771,0,1,0-.771-.771A.771.771,0,0,0,93.533,128.464Z" transform="translate(-12.664 -12.669)"/><path class="a" d="M99.528,128.47a.783.783,0,1,0-.782-.783A.783.783,0,0,0,99.528,128.47Z" transform="translate(-14.509 -12.664)"/><path class="a" d="M105.528,128.47a.783.783,0,1,0-.782-.783A.783.783,0,0,0,105.528,128.47Z" transform="translate(-16.359 -12.664)"/><path class="a" d="M111.528,128.47a.783.783,0,1,0-.782-.783A.783.783,0,0,0,111.528,128.47Z" transform="translate(-18.208 -12.664)"/><path class="a" d="M117.528,128.47a.783.783,0,1,0-.782-.783A.783.783,0,0,0,117.528,128.47Z" transform="translate(-20.058 -12.664)"/><path class="a" d="M123.528,128.47a.783.783,0,1,0-.782-.783A.783.783,0,0,0,123.528,128.47Z" transform="translate(-21.907 -12.664)"/><path class="a" d="M129.528,128.47a.783.783,0,1,0-.782-.783A.783.783,0,0,0,129.528,128.47Z" transform="translate(-23.757 -12.664)"/><path class="a" d="M135.528,128.47a.783.783,0,1,0-.782-.783A.783.783,0,0,0,135.528,128.47Z" transform="translate(-25.606 -12.664)"/><path class="a" d="M141.528,128.47a.783.783,0,1,0-.782-.783A.783.783,0,0,0,141.528,128.47Z" transform="translate(-27.456 -12.664)"/><path class="a" d="M147.528,128.47a.783.783,0,1,0-.782-.783A.783.783,0,0,0,147.528,128.47Z" transform="translate(-29.305 -12.664)"/><path class="a" d="M153.528,128.47a.783.783,0,1,0-.782-.783A.783.783,0,0,0,153.528,128.47Z" transform="translate(-31.155 -12.664)"/><path class="a" d="M159.528,128.47a.783.783,0,1,0-.782-.783A.783.783,0,0,0,159.528,128.47Z" transform="translate(-33.004 -12.664)"/><path class="a" d="M165.528,128.47a.783.783,0,1,0-.782-.783A.783.783,0,0,0,165.528,128.47Z" transform="translate(-34.854 -12.664)"/><path class="a" d="M171.528,128.47a.783.783,0,1,0-.782-.783A.783.783,0,0,0,171.528,128.47Z" transform="translate(-36.703 -12.664)"/><path class="a" d="M177.528,128.47a.783.783,0,1,0-.782-.783A.783.783,0,0,0,177.528,128.47Z" transform="translate(-38.552 -12.664)"/><path class="a" d="M183.528,128.47a.783.783,0,1,0-.782-.783A.783.783,0,0,0,183.528,128.47Z" transform="translate(-40.402 -12.664)"/><path class="a" d="M189.528,128.47a.783.783,0,1,0-.782-.783A.783.783,0,0,0,189.528,128.47Z" transform="translate(-42.251 -12.664)"/><path class="a" d="M195.528,128.47a.783.783,0,1,0-.782-.783A.783.783,0,0,0,195.528,128.47Z" transform="translate(-44.101 -12.664)"/><path class="a" d="M201.528,128.47a.783.783,0,1,0-.782-.783A.783.783,0,0,0,201.528,128.47Z" transform="translate(-45.95 -12.664)"/><path class="a" d="M207.528,128.47a.783.783,0,1,0-.782-.783A.783.783,0,0,0,207.528,128.47Z" transform="translate(-47.8 -12.664)"/><path class="a" d="M213.528,128.47a.783.783,0,1,0-.782-.783A.783.783,0,0,0,213.528,128.47Z" transform="translate(-49.649 -12.664)"/><path class="a" d="M219.528,128.47a.783.783,0,1,0-.782-.783A.783.783,0,0,0,219.528,128.47Z" transform="translate(-51.499 -12.664)"/><path class="a" d="M225.528,128.47a.783.783,0,1,0-.782-.783A.783.783,0,0,0,225.528,128.47Z" transform="translate(-53.348 -12.664)"/><path class="a" d="M231.528,128.47a.783.783,0,1,0-.782-.783A.783.783,0,0,0,231.528,128.47Z" transform="translate(-55.198 -12.664)"/><path class="a" d="M237.528,128.47a.783.783,0,1,0-.782-.783A.783.783,0,0,0,237.528,128.47Z" transform="translate(-57.047 -12.664)"/><path class="a" d="M243.528,128.47a.783.783,0,1,0-.782-.783A.783.783,0,0,0,243.528,128.47Z" transform="translate(-58.897 -12.664)"/><path class="a" d="M249.528,128.47a.783.783,0,1,0-.782-.783A.783.783,0,0,0,249.528,128.47Z" transform="translate(-60.746 -12.664)"/><path class="a" d="M255.528,128.47a.783.783,0,1,0-.782-.783A.783.783,0,0,0,255.528,128.47Z" transform="translate(-62.596 -12.664)"/><path class="a" d="M261.528,128.47a.783.783,0,1,0-.782-.783A.783.783,0,0,0,261.528,128.47Z" transform="translate(-64.445 -12.664)"/><path class="a" d="M267.528,128.47a.783.783,0,1,0-.782-.783A.783.783,0,0,0,267.528,128.47Z" transform="translate(-66.295 -12.664)"/><path class="a" d="M273.528,128.47a.783.783,0,1,0-.782-.783A.783.783,0,0,0,273.528,128.47Z" transform="translate(-68.144 -12.664)"/><path class="a" d="M279.528,128.47a.783.783,0,1,0-.782-.783A.783.783,0,0,0,279.528,128.47Z" transform="translate(-69.994 -12.664)"/><path class="a" d="M285.528,128.47a.783.783,0,1,0-.782-.783A.783.783,0,0,0,285.528,128.47Z" transform="translate(-71.843 -12.664)"/><path class="a" d="M291.528,128.47a.783.783,0,1,0-.782-.783A.783.783,0,0,0,291.528,128.47Z" transform="translate(-73.693 -12.664)"/><path class="a" d="M297.774,128.164a.23.23,0,1,0-.23-.23A.23.23,0,0,0,297.774,128.164Z" transform="translate(-75.788 -12.91)"/><path class="a" d="M63.687,134.273a.426.426,0,1,0-.426-.426A.426.426,0,0,0,63.687,134.273Z" transform="translate(-3.571 -14.673)"/><path class="a" d="M69.528,134.47a.783.783,0,1,0-.782-.783A.783.783,0,0,0,69.528,134.47Z" transform="translate(-5.262 -14.514)"/><path class="a" d="M75.528,134.47a.783.783,0,1,0-.782-.783A.783.783,0,0,0,75.528,134.47Z" transform="translate(-7.111 -14.514)"/><path class="a" d="M81.528,134.47a.783.783,0,1,0-.782-.783A.783.783,0,0,0,81.528,134.47Z" transform="translate(-8.961 -14.514)"/><path class="a" d="M87.528,134.47a.783.783,0,1,0-.782-.783A.783.783,0,0,0,87.528,134.47Z" transform="translate(-10.81 -14.514)"/><path class="a" d="M93.528,134.47a.783.783,0,1,0-.782-.783A.783.783,0,0,0,93.528,134.47Z" transform="translate(-12.66 -14.514)"/><path class="a" d="M99.528,134.47a.783.783,0,1,0-.782-.783A.783.783,0,0,0,99.528,134.47Z" transform="translate(-14.509 -14.514)"/><path class="a" d="M105.528,134.47a.783.783,0,1,0-.782-.783A.783.783,0,0,0,105.528,134.47Z" transform="translate(-16.359 -14.514)"/><path class="a" d="M111.528,134.47a.783.783,0,1,0-.782-.783A.783.783,0,0,0,111.528,134.47Z" transform="translate(-18.208 -14.514)"/><path class="a" d="M117.528,134.47a.783.783,0,1,0-.782-.783A.783.783,0,0,0,117.528,134.47Z" transform="translate(-20.058 -14.514)"/><path class="a" d="M123.528,134.47a.783.783,0,1,0-.782-.783A.783.783,0,0,0,123.528,134.47Z" transform="translate(-21.907 -14.514)"/><path class="a" d="M129.528,134.47a.783.783,0,1,0-.782-.783A.783.783,0,0,0,129.528,134.47Z" transform="translate(-23.757 -14.514)"/><path class="a" d="M135.528,134.47a.783.783,0,1,0-.782-.783A.783.783,0,0,0,135.528,134.47Z" transform="translate(-25.606 -14.514)"/><path class="a" d="M141.528,134.47a.783.783,0,1,0-.782-.783A.783.783,0,0,0,141.528,134.47Z" transform="translate(-27.456 -14.514)"/><path class="a" d="M147.528,134.47a.783.783,0,1,0-.782-.783A.783.783,0,0,0,147.528,134.47Z" transform="translate(-29.305 -14.514)"/><path class="a" d="M153.528,134.47a.783.783,0,1,0-.782-.783A.783.783,0,0,0,153.528,134.47Z" transform="translate(-31.155 -14.514)"/><path class="a" d="M159.528,134.47a.783.783,0,1,0-.782-.783A.783.783,0,0,0,159.528,134.47Z" transform="translate(-33.004 -14.514)"/><path class="a" d="M165.528,134.47a.783.783,0,1,0-.782-.783A.783.783,0,0,0,165.528,134.47Z" transform="translate(-34.854 -14.514)"/><path class="a" d="M171.528,134.47a.783.783,0,1,0-.782-.783A.783.783,0,0,0,171.528,134.47Z" transform="translate(-36.703 -14.514)"/><path class="a" d="M177.528,134.47a.783.783,0,1,0-.782-.783A.783.783,0,0,0,177.528,134.47Z" transform="translate(-38.552 -14.514)"/><path class="a" d="M183.528,134.47a.783.783,0,1,0-.782-.783A.783.783,0,0,0,183.528,134.47Z" transform="translate(-40.402 -14.514)"/><path class="a" d="M189.528,134.47a.783.783,0,1,0-.782-.783A.783.783,0,0,0,189.528,134.47Z" transform="translate(-42.251 -14.514)"/><path class="a" d="M195.528,134.47a.783.783,0,1,0-.782-.783A.783.783,0,0,0,195.528,134.47Z" transform="translate(-44.101 -14.514)"/><path class="a" d="M201.528,134.47a.783.783,0,1,0-.782-.783A.783.783,0,0,0,201.528,134.47Z" transform="translate(-45.95 -14.514)"/><path class="a" d="M207.528,134.47a.783.783,0,1,0-.782-.783A.783.783,0,0,0,207.528,134.47Z" transform="translate(-47.8 -14.514)"/><path class="a" d="M213.528,134.47a.783.783,0,1,0-.782-.783A.783.783,0,0,0,213.528,134.47Z" transform="translate(-49.649 -14.514)"/><path class="a" d="M219.528,134.47a.783.783,0,1,0-.782-.783A.783.783,0,0,0,219.528,134.47Z" transform="translate(-51.499 -14.514)"/><path class="a" d="M225.528,134.47a.783.783,0,1,0-.782-.783A.783.783,0,0,0,225.528,134.47Z" transform="translate(-53.348 -14.514)"/><path class="a" d="M231.528,134.47a.783.783,0,1,0-.782-.783A.783.783,0,0,0,231.528,134.47Z" transform="translate(-55.198 -14.514)"/><path class="a" d="M237.528,134.47a.783.783,0,1,0-.782-.783A.783.783,0,0,0,237.528,134.47Z" transform="translate(-57.047 -14.514)"/><path class="a" d="M243.528,134.47a.783.783,0,1,0-.782-.783A.783.783,0,0,0,243.528,134.47Z" transform="translate(-58.897 -14.514)"/><path class="a" d="M249.528,134.47a.783.783,0,1,0-.782-.783A.783.783,0,0,0,249.528,134.47Z" transform="translate(-60.746 -14.514)"/><path class="a" d="M255.528,134.47a.783.783,0,1,0-.782-.783A.783.783,0,0,0,255.528,134.47Z" transform="translate(-62.596 -14.514)"/><path class="a" d="M261.528,134.47a.783.783,0,1,0-.782-.783A.783.783,0,0,0,261.528,134.47Z" transform="translate(-64.445 -14.514)"/><path class="a" d="M267.528,134.47a.783.783,0,1,0-.782-.783A.783.783,0,0,0,267.528,134.47Z" transform="translate(-66.295 -14.514)"/><path class="a" d="M273.528,134.47a.783.783,0,1,0-.782-.783A.783.783,0,0,0,273.528,134.47Z" transform="translate(-68.144 -14.514)"/><path class="a" d="M279.528,134.47a.783.783,0,1,0-.782-.783A.783.783,0,0,0,279.528,134.47Z" transform="translate(-69.994 -14.514)"/><path class="a" d="M285.528,134.47a.783.783,0,1,0-.782-.783A.783.783,0,0,0,285.528,134.47Z" transform="translate(-71.843 -14.514)"/><path class="a" d="M291.528,134.47a.783.783,0,1,0-.782-.783A.783.783,0,0,0,291.528,134.47Z" transform="translate(-73.693 -14.514)"/><path class="a" d="M297.831,134.094a.1.1,0,1,0-.1-.1A.1.1,0,0,0,297.831,134.094Z" transform="translate(-75.845 -14.816)"/><circle class="a" cx="0.541" cy="0.541" r="0.541" transform="translate(59.575 122.783)"/><path class="a" d="M69.528,140.47a.783.783,0,1,0-.782-.783A.783.783,0,0,0,69.528,140.47Z" transform="translate(-5.262 -16.363)"/><path class="a" d="M75.528,140.47a.783.783,0,1,0-.782-.783A.783.783,0,0,0,75.528,140.47Z" transform="translate(-7.111 -16.363)"/><path class="a" d="M81.528,140.47a.783.783,0,1,0-.782-.783A.783.783,0,0,0,81.528,140.47Z" transform="translate(-8.961 -16.363)"/><path class="a" d="M87.528,140.47a.783.783,0,1,0-.782-.783A.783.783,0,0,0,87.528,140.47Z" transform="translate(-10.81 -16.363)"/><path class="a" d="M93.528,140.47a.783.783,0,1,0-.782-.783A.783.783,0,0,0,93.528,140.47Z" transform="translate(-12.66 -16.363)"/><path class="a" d="M99.528,140.47a.783.783,0,1,0-.782-.783A.783.783,0,0,0,99.528,140.47Z" transform="translate(-14.509 -16.363)"/><path class="a" d="M105.528,140.47a.783.783,0,1,0-.782-.783A.783.783,0,0,0,105.528,140.47Z" transform="translate(-16.359 -16.363)"/><path class="a" d="M111.528,140.47a.783.783,0,1,0-.782-.783A.783.783,0,0,0,111.528,140.47Z" transform="translate(-18.208 -16.363)"/><path class="a" d="M117.528,140.47a.783.783,0,1,0-.782-.783A.783.783,0,0,0,117.528,140.47Z" transform="translate(-20.058 -16.363)"/><path class="a" d="M123.528,140.47a.783.783,0,1,0-.782-.783A.783.783,0,0,0,123.528,140.47Z" transform="translate(-21.907 -16.363)"/><path class="a" d="M129.528,140.47a.783.783,0,1,0-.782-.783A.783.783,0,0,0,129.528,140.47Z" transform="translate(-23.757 -16.363)"/><path class="a" d="M135.528,140.47a.783.783,0,1,0-.782-.783A.783.783,0,0,0,135.528,140.47Z" transform="translate(-25.606 -16.363)"/><path class="a" d="M141.528,140.47a.783.783,0,1,0-.782-.783A.783.783,0,0,0,141.528,140.47Z" transform="translate(-27.456 -16.363)"/><path class="a" d="M147.528,140.47a.783.783,0,1,0-.782-.783A.783.783,0,0,0,147.528,140.47Z" transform="translate(-29.305 -16.363)"/><path class="a" d="M153.528,140.47a.783.783,0,1,0-.782-.783A.783.783,0,0,0,153.528,140.47Z" transform="translate(-31.155 -16.363)"/><path class="a" d="M159.528,140.47a.783.783,0,1,0-.782-.783A.783.783,0,0,0,159.528,140.47Z" transform="translate(-33.004 -16.363)"/><path class="a" d="M165.528,140.47a.783.783,0,1,0-.782-.783A.783.783,0,0,0,165.528,140.47Z" transform="translate(-34.854 -16.363)"/><path class="a" d="M171.528,140.47a.783.783,0,1,0-.782-.783A.783.783,0,0,0,171.528,140.47Z" transform="translate(-36.703 -16.363)"/><path class="a" d="M177.528,140.47a.783.783,0,1,0-.782-.783A.783.783,0,0,0,177.528,140.47Z" transform="translate(-38.552 -16.363)"/><path class="a" d="M183.528,140.47a.783.783,0,1,0-.782-.783A.783.783,0,0,0,183.528,140.47Z" transform="translate(-40.402 -16.363)"/><path class="a" d="M189.528,140.47a.783.783,0,1,0-.782-.783A.783.783,0,0,0,189.528,140.47Z" transform="translate(-42.251 -16.363)"/><path class="a" d="M195.528,140.47a.783.783,0,1,0-.782-.783A.783.783,0,0,0,195.528,140.47Z" transform="translate(-44.101 -16.363)"/><path class="a" d="M201.528,140.47a.783.783,0,1,0-.782-.783A.783.783,0,0,0,201.528,140.47Z" transform="translate(-45.95 -16.363)"/><path class="a" d="M207.528,140.47a.783.783,0,1,0-.782-.783A.783.783,0,0,0,207.528,140.47Z" transform="translate(-47.8 -16.363)"/><path class="a" d="M213.528,140.47a.783.783,0,1,0-.782-.783A.783.783,0,0,0,213.528,140.47Z" transform="translate(-49.649 -16.363)"/><path class="a" d="M219.528,140.47a.783.783,0,1,0-.782-.783A.783.783,0,0,0,219.528,140.47Z" transform="translate(-51.499 -16.363)"/><path class="a" d="M225.528,140.47a.783.783,0,1,0-.782-.783A.783.783,0,0,0,225.528,140.47Z" transform="translate(-53.348 -16.363)"/><path class="a" d="M231.528,140.47a.783.783,0,1,0-.782-.783A.783.783,0,0,0,231.528,140.47Z" transform="translate(-55.198 -16.363)"/><path class="a" d="M237.528,140.47a.783.783,0,1,0-.782-.783A.783.783,0,0,0,237.528,140.47Z" transform="translate(-57.047 -16.363)"/><path class="a" d="M243.528,140.47a.783.783,0,1,0-.782-.783A.783.783,0,0,0,243.528,140.47Z" transform="translate(-58.897 -16.363)"/><path class="a" d="M249.528,140.47a.783.783,0,1,0-.782-.783A.783.783,0,0,0,249.528,140.47Z" transform="translate(-60.746 -16.363)"/><path class="a" d="M255.528,140.47a.783.783,0,1,0-.782-.783A.783.783,0,0,0,255.528,140.47Z" transform="translate(-62.596 -16.363)"/><path class="a" d="M261.528,140.47a.783.783,0,1,0-.782-.783A.783.783,0,0,0,261.528,140.47Z" transform="translate(-64.445 -16.363)"/><path class="a" d="M267.528,140.47a.783.783,0,1,0-.782-.783A.783.783,0,0,0,267.528,140.47Z" transform="translate(-66.295 -16.363)"/><path class="a" d="M273.528,140.47a.783.783,0,1,0-.782-.783A.783.783,0,0,0,273.528,140.47Z" transform="translate(-68.144 -16.363)"/><path class="a" d="M279.528,140.47a.783.783,0,1,0-.782-.783A.783.783,0,0,0,279.528,140.47Z" transform="translate(-69.994 -16.363)"/><path class="a" d="M285.528,140.47a.783.783,0,1,0-.782-.783A.783.783,0,0,0,285.528,140.47Z" transform="translate(-71.843 -16.363)"/><circle class="a" cx="0.76" cy="0.76" r="0.76" transform="translate(217.076 122.564)"/><path class="a" d="M297.872,140.043a.012.012,0,0,0,.012-.012.012.012,0,0,0-.024,0A.012.012,0,0,0,297.872,140.043Z" transform="translate(-75.886 -16.707)"/><path class="a" d="M63.585,146.4a.656.656,0,1,0-.656-.656A.655.655,0,0,0,63.585,146.4Z" transform="translate(-3.468 -18.269)"/><path class="a" d="M69.528,146.47a.783.783,0,1,0-.782-.783A.783.783,0,0,0,69.528,146.47Z" transform="translate(-5.262 -18.213)"/><path class="a" d="M75.528,146.47a.783.783,0,1,0-.782-.783A.783.783,0,0,0,75.528,146.47Z" transform="translate(-7.111 -18.213)"/><path class="a" d="M81.528,146.47a.783.783,0,1,0-.782-.783A.783.783,0,0,0,81.528,146.47Z" transform="translate(-8.961 -18.213)"/><path class="a" d="M87.528,146.47a.783.783,0,1,0-.782-.783A.783.783,0,0,0,87.528,146.47Z" transform="translate(-10.81 -18.213)"/><path class="a" d="M93.528,146.47a.783.783,0,1,0-.782-.783A.783.783,0,0,0,93.528,146.47Z" transform="translate(-12.66 -18.213)"/><path class="a" d="M99.528,146.47a.783.783,0,1,0-.782-.783A.783.783,0,0,0,99.528,146.47Z" transform="translate(-14.509 -18.213)"/><path class="a" d="M105.528,146.47a.783.783,0,1,0-.782-.783A.783.783,0,0,0,105.528,146.47Z" transform="translate(-16.359 -18.213)"/><path class="a" d="M111.528,146.47a.783.783,0,1,0-.782-.783A.783.783,0,0,0,111.528,146.47Z" transform="translate(-18.208 -18.213)"/><path class="a" d="M117.528,146.47a.783.783,0,1,0-.782-.783A.783.783,0,0,0,117.528,146.47Z" transform="translate(-20.058 -18.213)"/><path class="a" d="M123.528,146.47a.783.783,0,1,0-.782-.783A.783.783,0,0,0,123.528,146.47Z" transform="translate(-21.907 -18.213)"/><path class="a" d="M129.528,146.47a.783.783,0,1,0-.782-.783A.783.783,0,0,0,129.528,146.47Z" transform="translate(-23.757 -18.213)"/><path class="a" d="M135.528,146.47a.783.783,0,1,0-.782-.783A.783.783,0,0,0,135.528,146.47Z" transform="translate(-25.606 -18.213)"/><path class="a" d="M141.528,146.47a.783.783,0,1,0-.782-.783A.783.783,0,0,0,141.528,146.47Z" transform="translate(-27.456 -18.213)"/><path class="a" d="M147.528,146.47a.783.783,0,1,0-.782-.783A.783.783,0,0,0,147.528,146.47Z" transform="translate(-29.305 -18.213)"/><path class="a" d="M153.528,146.47a.783.783,0,1,0-.782-.783A.783.783,0,0,0,153.528,146.47Z" transform="translate(-31.155 -18.213)"/><path class="a" d="M159.528,146.47a.783.783,0,1,0-.782-.783A.783.783,0,0,0,159.528,146.47Z" transform="translate(-33.004 -18.213)"/><path class="a" d="M165.528,146.47a.783.783,0,1,0-.782-.783A.783.783,0,0,0,165.528,146.47Z" transform="translate(-34.854 -18.213)"/><path class="a" d="M171.528,146.47a.783.783,0,1,0-.782-.783A.783.783,0,0,0,171.528,146.47Z" transform="translate(-36.703 -18.213)"/><path class="a" d="M177.528,146.47a.783.783,0,1,0-.782-.783A.783.783,0,0,0,177.528,146.47Z" transform="translate(-38.552 -18.213)"/><path class="a" d="M183.528,146.47a.783.783,0,1,0-.782-.783A.783.783,0,0,0,183.528,146.47Z" transform="translate(-40.402 -18.213)"/><path class="a" d="M189.528,146.47a.783.783,0,1,0-.782-.783A.783.783,0,0,0,189.528,146.47Z" transform="translate(-42.251 -18.213)"/><path class="a" d="M195.528,146.47a.783.783,0,1,0-.782-.783A.783.783,0,0,0,195.528,146.47Z" transform="translate(-44.101 -18.213)"/><path class="a" d="M201.528,146.47a.783.783,0,1,0-.782-.783A.783.783,0,0,0,201.528,146.47Z" transform="translate(-45.95 -18.213)"/><path class="a" d="M207.528,146.47a.783.783,0,1,0-.782-.783A.783.783,0,0,0,207.528,146.47Z" transform="translate(-47.8 -18.213)"/><path class="a" d="M213.528,146.47a.783.783,0,1,0-.782-.783A.783.783,0,0,0,213.528,146.47Z" transform="translate(-49.649 -18.213)"/><path class="a" d="M219.528,146.47a.783.783,0,1,0-.782-.783A.783.783,0,0,0,219.528,146.47Z" transform="translate(-51.499 -18.213)"/><path class="a" d="M225.528,146.47a.783.783,0,1,0-.782-.783A.783.783,0,0,0,225.528,146.47Z" transform="translate(-53.348 -18.213)"/><path class="a" d="M231.528,146.47a.783.783,0,1,0-.782-.783A.783.783,0,0,0,231.528,146.47Z" transform="translate(-55.198 -18.213)"/><path class="a" d="M237.528,146.47a.783.783,0,1,0-.782-.783A.783.783,0,0,0,237.528,146.47Z" transform="translate(-57.047 -18.213)"/><path class="a" d="M243.528,146.47a.783.783,0,1,0-.782-.783A.783.783,0,0,0,243.528,146.47Z" transform="translate(-58.897 -18.213)"/><path class="a" d="M249.528,146.47a.783.783,0,1,0-.782-.783A.783.783,0,0,0,249.528,146.47Z" transform="translate(-60.746 -18.213)"/><path class="a" d="M255.528,146.47a.783.783,0,1,0-.782-.783A.783.783,0,0,0,255.528,146.47Z" transform="translate(-62.596 -18.213)"/><path class="a" d="M261.528,146.47a.783.783,0,1,0-.782-.783A.783.783,0,0,0,261.528,146.47Z" transform="translate(-64.445 -18.213)"/><path class="a" d="M267.528,146.47a.783.783,0,1,0-.782-.783A.783.783,0,0,0,267.528,146.47Z" transform="translate(-66.295 -18.213)"/><path class="a" d="M273.528,146.47a.783.783,0,1,0-.782-.783A.783.783,0,0,0,273.528,146.47Z" transform="translate(-68.144 -18.213)"/><path class="a" d="M279.528,146.47a.783.783,0,1,0-.782-.783A.783.783,0,0,0,279.528,146.47Z" transform="translate(-69.994 -18.213)"/><path class="a" d="M285.528,146.47a.783.783,0,1,0-.782-.783A.783.783,0,0,0,285.528,146.47Z" transform="translate(-71.843 -18.213)"/><path class="a" d="M291.585,146.4a.656.656,0,1,0-.656-.656A.655.655,0,0,0,291.585,146.4Z" transform="translate(-73.749 -18.269)"/><path class="a" d="M57.872,152.043a.012.012,0,1,0-.012-.012A.012.012,0,0,0,57.872,152.043Z" transform="translate(-1.906 -20.406)"/><circle class="a" cx="0.76" cy="0.76" r="0.76" transform="translate(59.357 130.865)"/><path class="a" d="M69.528,152.47a.783.783,0,1,0-.782-.783A.783.783,0,0,0,69.528,152.47Z" transform="translate(-5.262 -20.062)"/><path class="a" d="M75.528,152.47a.783.783,0,1,0-.782-.783A.783.783,0,0,0,75.528,152.47Z" transform="translate(-7.111 -20.062)"/><path class="a" d="M81.528,152.47a.783.783,0,1,0-.782-.783A.783.783,0,0,0,81.528,152.47Z" transform="translate(-8.961 -20.062)"/><path class="a" d="M87.528,152.47a.783.783,0,1,0-.782-.783A.783.783,0,0,0,87.528,152.47Z" transform="translate(-10.81 -20.062)"/><path class="a" d="M93.528,152.47a.783.783,0,1,0-.782-.783A.783.783,0,0,0,93.528,152.47Z" transform="translate(-12.66 -20.062)"/><path class="a" d="M99.528,152.47a.783.783,0,1,0-.782-.783A.783.783,0,0,0,99.528,152.47Z" transform="translate(-14.509 -20.062)"/><path class="a" d="M105.528,152.47a.783.783,0,1,0-.782-.783A.783.783,0,0,0,105.528,152.47Z" transform="translate(-16.359 -20.062)"/><path class="a" d="M111.528,152.47a.783.783,0,1,0-.782-.783A.783.783,0,0,0,111.528,152.47Z" transform="translate(-18.208 -20.062)"/><path class="a" d="M117.528,152.47a.783.783,0,1,0-.782-.783A.783.783,0,0,0,117.528,152.47Z" transform="translate(-20.058 -20.062)"/><path class="a" d="M123.528,152.47a.783.783,0,1,0-.782-.783A.783.783,0,0,0,123.528,152.47Z" transform="translate(-21.907 -20.062)"/><path class="a" d="M129.528,152.47a.783.783,0,1,0-.782-.783A.783.783,0,0,0,129.528,152.47Z" transform="translate(-23.757 -20.062)"/><path class="a" d="M135.528,152.47a.783.783,0,1,0-.782-.783A.783.783,0,0,0,135.528,152.47Z" transform="translate(-25.606 -20.062)"/><path class="a" d="M141.528,152.47a.783.783,0,1,0-.782-.783A.783.783,0,0,0,141.528,152.47Z" transform="translate(-27.456 -20.062)"/><path class="a" d="M147.528,152.47a.783.783,0,1,0-.782-.783A.783.783,0,0,0,147.528,152.47Z" transform="translate(-29.305 -20.062)"/><path class="a" d="M153.528,152.47a.783.783,0,1,0-.782-.783A.783.783,0,0,0,153.528,152.47Z" transform="translate(-31.155 -20.062)"/><path class="a" d="M159.528,152.47a.783.783,0,1,0-.782-.783A.783.783,0,0,0,159.528,152.47Z" transform="translate(-33.004 -20.062)"/><path class="a" d="M165.528,152.47a.783.783,0,1,0-.782-.783A.783.783,0,0,0,165.528,152.47Z" transform="translate(-34.854 -20.062)"/><path class="a" d="M171.528,152.47a.783.783,0,1,0-.782-.783A.783.783,0,0,0,171.528,152.47Z" transform="translate(-36.703 -20.062)"/><path class="a" d="M177.528,152.47a.783.783,0,1,0-.782-.783A.783.783,0,0,0,177.528,152.47Z" transform="translate(-38.552 -20.062)"/><path class="a" d="M183.528,152.47a.783.783,0,1,0-.782-.783A.783.783,0,0,0,183.528,152.47Z" transform="translate(-40.402 -20.062)"/><path class="a" d="M189.528,152.47a.783.783,0,1,0-.782-.783A.783.783,0,0,0,189.528,152.47Z" transform="translate(-42.251 -20.062)"/><path class="a" d="M195.528,152.47a.783.783,0,1,0-.782-.783A.783.783,0,0,0,195.528,152.47Z" transform="translate(-44.101 -20.062)"/><path class="a" d="M201.528,152.47a.783.783,0,1,0-.782-.783A.783.783,0,0,0,201.528,152.47Z" transform="translate(-45.95 -20.062)"/><path class="a" d="M207.528,152.47a.783.783,0,1,0-.782-.783A.783.783,0,0,0,207.528,152.47Z" transform="translate(-47.8 -20.062)"/><path class="a" d="M213.528,152.47a.783.783,0,1,0-.782-.783A.783.783,0,0,0,213.528,152.47Z" transform="translate(-49.649 -20.062)"/><path class="a" d="M219.528,152.47a.783.783,0,1,0-.782-.783A.783.783,0,0,0,219.528,152.47Z" transform="translate(-51.499 -20.062)"/><path class="a" d="M225.528,152.47a.783.783,0,1,0-.782-.783A.783.783,0,0,0,225.528,152.47Z" transform="translate(-53.348 -20.062)"/><path class="a" d="M231.528,152.47a.783.783,0,1,0-.782-.783A.783.783,0,0,0,231.528,152.47Z" transform="translate(-55.198 -20.062)"/><path class="a" d="M237.528,152.47a.783.783,0,1,0-.782-.783A.783.783,0,0,0,237.528,152.47Z" transform="translate(-57.047 -20.062)"/><path class="a" d="M243.528,152.47a.783.783,0,1,0-.782-.783A.783.783,0,0,0,243.528,152.47Z" transform="translate(-58.897 -20.062)"/><path class="a" d="M249.528,152.47a.783.783,0,1,0-.782-.783A.783.783,0,0,0,249.528,152.47Z" transform="translate(-60.746 -20.062)"/><path class="a" d="M255.528,152.47a.783.783,0,1,0-.782-.783A.783.783,0,0,0,255.528,152.47Z" transform="translate(-62.596 -20.062)"/><path class="a" d="M261.528,152.47a.783.783,0,1,0-.782-.783A.783.783,0,0,0,261.528,152.47Z" transform="translate(-64.445 -20.062)"/><path class="a" d="M267.528,152.47a.783.783,0,1,0-.782-.783A.783.783,0,0,0,267.528,152.47Z" transform="translate(-66.295 -20.062)"/><path class="a" d="M273.528,152.47a.783.783,0,1,0-.782-.783A.783.783,0,0,0,273.528,152.47Z" transform="translate(-68.144 -20.062)"/><path class="a" d="M279.528,152.47a.783.783,0,1,0-.782-.783A.783.783,0,0,0,279.528,152.47Z" transform="translate(-69.994 -20.062)"/><path class="a" d="M285.528,152.47a.783.783,0,1,0-.782-.783A.783.783,0,0,0,285.528,152.47Z" transform="translate(-71.843 -20.062)"/><path class="a" d="M291.641,152.329a.529.529,0,1,0-.529-.529A.529.529,0,0,0,291.641,152.329Z" transform="translate(-73.806 -20.175)"/><path class="a" d="M57.831,158.094a.1.1,0,1,0-.1-.1A.1.1,0,0,0,57.831,158.094Z" transform="translate(-1.865 -22.214)"/><path class="a" d="M63.528,158.47a.783.783,0,1,0-.782-.783A.783.783,0,0,0,63.528,158.47Z" transform="translate(-3.412 -21.912)"/><path class="a" d="M69.528,158.47a.783.783,0,1,0-.782-.783A.783.783,0,0,0,69.528,158.47Z" transform="translate(-5.262 -21.912)"/><path class="a" d="M75.528,158.47a.783.783,0,1,0-.782-.783A.783.783,0,0,0,75.528,158.47Z" transform="translate(-7.111 -21.912)"/><path class="a" d="M81.528,158.47a.783.783,0,1,0-.782-.783A.783.783,0,0,0,81.528,158.47Z" transform="translate(-8.961 -21.912)"/><path class="a" d="M87.528,158.47a.783.783,0,1,0-.782-.783A.783.783,0,0,0,87.528,158.47Z" transform="translate(-10.81 -21.912)"/><path class="a" d="M93.528,158.47a.783.783,0,1,0-.782-.783A.783.783,0,0,0,93.528,158.47Z" transform="translate(-12.66 -21.912)"/><path class="a" d="M99.528,158.47a.783.783,0,1,0-.782-.783A.783.783,0,0,0,99.528,158.47Z" transform="translate(-14.509 -21.912)"/><path class="a" d="M105.528,158.47a.783.783,0,1,0-.782-.783A.783.783,0,0,0,105.528,158.47Z" transform="translate(-16.359 -21.912)"/><path class="a" d="M111.528,158.47a.783.783,0,1,0-.782-.783A.783.783,0,0,0,111.528,158.47Z" transform="translate(-18.208 -21.912)"/><path class="a" d="M117.528,158.47a.783.783,0,1,0-.782-.783A.783.783,0,0,0,117.528,158.47Z" transform="translate(-20.058 -21.912)"/><path class="a" d="M123.528,158.47a.783.783,0,1,0-.782-.783A.783.783,0,0,0,123.528,158.47Z" transform="translate(-21.907 -21.912)"/><path class="a" d="M129.528,158.47a.783.783,0,1,0-.782-.783A.783.783,0,0,0,129.528,158.47Z" transform="translate(-23.757 -21.912)"/><path class="a" d="M135.528,158.47a.783.783,0,1,0-.782-.783A.783.783,0,0,0,135.528,158.47Z" transform="translate(-25.606 -21.912)"/><path class="a" d="M141.528,158.47a.783.783,0,1,0-.782-.783A.783.783,0,0,0,141.528,158.47Z" transform="translate(-27.456 -21.912)"/><path class="a" d="M147.528,158.47a.783.783,0,1,0-.782-.783A.783.783,0,0,0,147.528,158.47Z" transform="translate(-29.305 -21.912)"/><path class="a" d="M153.528,158.47a.783.783,0,1,0-.782-.783A.783.783,0,0,0,153.528,158.47Z" transform="translate(-31.155 -21.912)"/><path class="a" d="M159.528,158.47a.783.783,0,1,0-.782-.783A.783.783,0,0,0,159.528,158.47Z" transform="translate(-33.004 -21.912)"/><path class="a" d="M165.528,158.47a.783.783,0,1,0-.782-.783A.783.783,0,0,0,165.528,158.47Z" transform="translate(-34.854 -21.912)"/><path class="a" d="M171.528,158.47a.783.783,0,1,0-.782-.783A.783.783,0,0,0,171.528,158.47Z" transform="translate(-36.703 -21.912)"/><path class="a" d="M177.528,158.47a.783.783,0,1,0-.782-.783A.783.783,0,0,0,177.528,158.47Z" transform="translate(-38.552 -21.912)"/><path class="a" d="M183.528,158.47a.783.783,0,1,0-.782-.783A.783.783,0,0,0,183.528,158.47Z" transform="translate(-40.402 -21.912)"/><path class="a" d="M189.528,158.47a.783.783,0,1,0-.782-.783A.783.783,0,0,0,189.528,158.47Z" transform="translate(-42.251 -21.912)"/><path class="a" d="M195.528,158.47a.783.783,0,1,0-.782-.783A.783.783,0,0,0,195.528,158.47Z" transform="translate(-44.101 -21.912)"/><path class="a" d="M201.528,158.47a.783.783,0,1,0-.782-.783A.783.783,0,0,0,201.528,158.47Z" transform="translate(-45.95 -21.912)"/><path class="a" d="M207.528,158.47a.783.783,0,1,0-.782-.783A.783.783,0,0,0,207.528,158.47Z" transform="translate(-47.8 -21.912)"/><path class="a" d="M213.528,158.47a.783.783,0,1,0-.782-.783A.783.783,0,0,0,213.528,158.47Z" transform="translate(-49.649 -21.912)"/><path class="a" d="M219.528,158.47a.783.783,0,1,0-.782-.783A.783.783,0,0,0,219.528,158.47Z" transform="translate(-51.499 -21.912)"/><path class="a" d="M225.528,158.47a.783.783,0,1,0-.782-.783A.783.783,0,0,0,225.528,158.47Z" transform="translate(-53.348 -21.912)"/><path class="a" d="M231.528,158.47a.783.783,0,1,0-.782-.783A.783.783,0,0,0,231.528,158.47Z" transform="translate(-55.198 -21.912)"/><path class="a" d="M237.528,158.47a.783.783,0,1,0-.782-.783A.783.783,0,0,0,237.528,158.47Z" transform="translate(-57.047 -21.912)"/><path class="a" d="M243.528,158.47a.783.783,0,1,0-.782-.783A.783.783,0,0,0,243.528,158.47Z" transform="translate(-58.897 -21.912)"/><path class="a" d="M249.528,158.47a.783.783,0,1,0-.782-.783A.783.783,0,0,0,249.528,158.47Z" transform="translate(-60.746 -21.912)"/><path class="a" d="M255.528,158.47a.783.783,0,1,0-.782-.783A.783.783,0,0,0,255.528,158.47Z" transform="translate(-62.596 -21.912)"/><path class="a" d="M261.528,158.47a.783.783,0,1,0-.782-.783A.783.783,0,0,0,261.528,158.47Z" transform="translate(-64.445 -21.912)"/><path class="a" d="M267.528,158.47a.783.783,0,1,0-.782-.783A.783.783,0,0,0,267.528,158.47Z" transform="translate(-66.295 -21.912)"/><path class="a" d="M273.528,158.47a.783.783,0,1,0-.782-.783A.783.783,0,0,0,273.528,158.47Z" transform="translate(-68.144 -21.912)"/><path class="a" d="M279.528,158.47a.783.783,0,1,0-.782-.783A.783.783,0,0,0,279.528,158.47Z" transform="translate(-69.994 -21.912)"/><path class="a" d="M285.528,158.47a.783.783,0,1,0-.782-.783A.783.783,0,0,0,285.528,158.47Z" transform="translate(-71.843 -21.912)"/><path class="a" d="M291.692,158.266a.414.414,0,1,0-.414-.414A.414.414,0,0,0,291.692,158.266Z" transform="translate(-73.857 -22.076)"/><path class="a" d="M57.774,164.164a.23.23,0,1,0-.23-.23A.23.23,0,0,0,57.774,164.164Z" transform="translate(-1.809 -24.007)"/><path class="a" d="M63.528,164.47a.783.783,0,1,0-.782-.783A.783.783,0,0,0,63.528,164.47Z" transform="translate(-3.412 -23.761)"/><path class="a" d="M69.528,164.47a.783.783,0,1,0-.782-.783A.783.783,0,0,0,69.528,164.47Z" transform="translate(-5.262 -23.761)"/><path class="a" d="M75.528,164.47a.783.783,0,1,0-.782-.783A.783.783,0,0,0,75.528,164.47Z" transform="translate(-7.111 -23.761)"/><path class="a" d="M81.528,164.47a.783.783,0,1,0-.782-.783A.783.783,0,0,0,81.528,164.47Z" transform="translate(-8.961 -23.761)"/><path class="a" d="M87.528,164.47a.783.783,0,1,0-.782-.783A.783.783,0,0,0,87.528,164.47Z" transform="translate(-10.81 -23.761)"/><path class="a" d="M93.528,164.47a.783.783,0,1,0-.782-.783A.783.783,0,0,0,93.528,164.47Z" transform="translate(-12.66 -23.761)"/><path class="a" d="M99.528,164.47a.783.783,0,1,0-.782-.783A.783.783,0,0,0,99.528,164.47Z" transform="translate(-14.509 -23.761)"/><path class="a" d="M105.528,164.47a.783.783,0,1,0-.782-.783A.783.783,0,0,0,105.528,164.47Z" transform="translate(-16.359 -23.761)"/><path class="a" d="M111.528,164.47a.783.783,0,1,0-.782-.783A.783.783,0,0,0,111.528,164.47Z" transform="translate(-18.208 -23.761)"/><path class="a" d="M117.528,164.47a.783.783,0,1,0-.782-.783A.783.783,0,0,0,117.528,164.47Z" transform="translate(-20.058 -23.761)"/><path class="a" d="M123.528,164.47a.783.783,0,1,0-.782-.783A.783.783,0,0,0,123.528,164.47Z" transform="translate(-21.907 -23.761)"/><path class="a" d="M129.528,164.47a.783.783,0,1,0-.782-.783A.783.783,0,0,0,129.528,164.47Z" transform="translate(-23.757 -23.761)"/><path class="a" d="M135.528,164.47a.783.783,0,1,0-.782-.783A.783.783,0,0,0,135.528,164.47Z" transform="translate(-25.606 -23.761)"/><path class="a" d="M141.528,164.47a.783.783,0,1,0-.782-.783A.783.783,0,0,0,141.528,164.47Z" transform="translate(-27.456 -23.761)"/><path class="a" d="M147.528,164.47a.783.783,0,1,0-.782-.783A.783.783,0,0,0,147.528,164.47Z" transform="translate(-29.305 -23.761)"/><path class="a" d="M153.528,164.47a.783.783,0,1,0-.782-.783A.783.783,0,0,0,153.528,164.47Z" transform="translate(-31.155 -23.761)"/><path class="a" d="M159.528,164.47a.783.783,0,1,0-.782-.783A.783.783,0,0,0,159.528,164.47Z" transform="translate(-33.004 -23.761)"/><path class="a" d="M165.528,164.47a.783.783,0,1,0-.782-.783A.783.783,0,0,0,165.528,164.47Z" transform="translate(-34.854 -23.761)"/><path class="a" d="M171.528,164.47a.783.783,0,1,0-.782-.783A.783.783,0,0,0,171.528,164.47Z" transform="translate(-36.703 -23.761)"/><path class="a" d="M177.528,164.47a.783.783,0,1,0-.782-.783A.783.783,0,0,0,177.528,164.47Z" transform="translate(-38.552 -23.761)"/><path class="a" d="M183.528,164.47a.783.783,0,1,0-.782-.783A.783.783,0,0,0,183.528,164.47Z" transform="translate(-40.402 -23.761)"/><path class="a" d="M189.528,164.47a.783.783,0,1,0-.782-.783A.783.783,0,0,0,189.528,164.47Z" transform="translate(-42.251 -23.761)"/><path class="a" d="M195.528,164.47a.783.783,0,1,0-.782-.783A.783.783,0,0,0,195.528,164.47Z" transform="translate(-44.101 -23.761)"/><path class="a" d="M201.528,164.47a.783.783,0,1,0-.782-.783A.783.783,0,0,0,201.528,164.47Z" transform="translate(-45.95 -23.761)"/><path class="a" d="M207.528,164.47a.783.783,0,1,0-.782-.783A.783.783,0,0,0,207.528,164.47Z" transform="translate(-47.8 -23.761)"/><path class="a" d="M213.528,164.47a.783.783,0,1,0-.782-.783A.783.783,0,0,0,213.528,164.47Z" transform="translate(-49.649 -23.761)"/><path class="a" d="M219.528,164.47a.783.783,0,1,0-.782-.783A.783.783,0,0,0,219.528,164.47Z" transform="translate(-51.499 -23.761)"/><path class="a" d="M225.528,164.47a.783.783,0,1,0-.782-.783A.783.783,0,0,0,225.528,164.47Z" transform="translate(-53.348 -23.761)"/><path class="a" d="M231.528,164.47a.783.783,0,1,0-.782-.783A.783.783,0,0,0,231.528,164.47Z" transform="translate(-55.198 -23.761)"/><path class="a" d="M237.528,164.47a.783.783,0,1,0-.782-.783A.783.783,0,0,0,237.528,164.47Z" transform="translate(-57.047 -23.761)"/><path class="a" d="M243.528,164.47a.783.783,0,1,0-.782-.783A.783.783,0,0,0,243.528,164.47Z" transform="translate(-58.897 -23.761)"/><path class="a" d="M249.528,164.47a.783.783,0,1,0-.782-.783A.783.783,0,0,0,249.528,164.47Z" transform="translate(-60.746 -23.761)"/><path class="a" d="M255.528,164.47a.783.783,0,1,0-.782-.783A.783.783,0,0,0,255.528,164.47Z" transform="translate(-62.596 -23.761)"/><circle class="a" cx="0.76" cy="0.76" r="0.76" transform="translate(196.323 139.166)"/><circle class="a" cx="0.645" cy="0.645" r="0.645" transform="translate(200.589 139.282)"/><path class="a" d="M273.651,164.317a.506.506,0,1,0-.506-.506A.507.507,0,0,0,273.651,164.317Z" transform="translate(-68.267 -23.884)"/><path class="a" d="M279.713,164.241a.368.368,0,1,0-.368-.369A.368.368,0,0,0,279.713,164.241Z" transform="translate(-70.179 -23.946)"/><path class="a" d="M285.774,164.164a.23.23,0,1,0-.23-.23A.23.23,0,0,0,285.774,164.164Z" transform="translate(-72.089 -24.007)"/><circle class="a" cx="0.058" cy="0.058" r="0.058" transform="translate(217.778 139.868)"/><path class="a" d="M57.723,170.227a.345.345,0,1,0-.345-.345A.345.345,0,0,0,57.723,170.227Z" transform="translate(-1.757 -25.806)"/><path class="a" d="M63.528,170.47a.783.783,0,1,0-.782-.783A.783.783,0,0,0,63.528,170.47Z" transform="translate(-3.412 -25.611)"/><path class="a" d="M69.528,170.47a.783.783,0,1,0-.782-.783A.783.783,0,0,0,69.528,170.47Z" transform="translate(-5.262 -25.611)"/><path class="a" d="M75.528,170.47a.783.783,0,1,0-.782-.783A.783.783,0,0,0,75.528,170.47Z" transform="translate(-7.111 -25.611)"/><path class="a" d="M81.528,170.47a.783.783,0,1,0-.782-.783A.783.783,0,0,0,81.528,170.47Z" transform="translate(-8.961 -25.611)"/><path class="a" d="M87.528,170.47a.783.783,0,1,0-.782-.783A.783.783,0,0,0,87.528,170.47Z" transform="translate(-10.81 -25.611)"/><path class="a" d="M93.528,170.47a.783.783,0,1,0-.782-.783A.783.783,0,0,0,93.528,170.47Z" transform="translate(-12.66 -25.611)"/><path class="a" d="M99.528,170.47a.783.783,0,1,0-.782-.783A.783.783,0,0,0,99.528,170.47Z" transform="translate(-14.509 -25.611)"/><path class="a" d="M105.528,170.47a.783.783,0,1,0-.782-.783A.783.783,0,0,0,105.528,170.47Z" transform="translate(-16.359 -25.611)"/><path class="a" d="M111.528,170.47a.783.783,0,1,0-.782-.783A.783.783,0,0,0,111.528,170.47Z" transform="translate(-18.208 -25.611)"/><path class="a" d="M117.528,170.47a.783.783,0,1,0-.782-.783A.783.783,0,0,0,117.528,170.47Z" transform="translate(-20.058 -25.611)"/><path class="a" d="M123.528,170.47a.783.783,0,1,0-.782-.783A.783.783,0,0,0,123.528,170.47Z" transform="translate(-21.907 -25.611)"/><path class="a" d="M129.528,170.47a.783.783,0,1,0-.782-.783A.783.783,0,0,0,129.528,170.47Z" transform="translate(-23.757 -25.611)"/><path class="a" d="M135.528,170.47a.783.783,0,1,0-.782-.783A.783.783,0,0,0,135.528,170.47Z" transform="translate(-25.606 -25.611)"/><path class="a" d="M141.528,170.47a.783.783,0,1,0-.782-.783A.783.783,0,0,0,141.528,170.47Z" transform="translate(-27.456 -25.611)"/><path class="a" d="M147.528,170.47a.783.783,0,1,0-.782-.783A.783.783,0,0,0,147.528,170.47Z" transform="translate(-29.305 -25.611)"/><path class="a" d="M153.528,170.47a.783.783,0,1,0-.782-.783A.783.783,0,0,0,153.528,170.47Z" transform="translate(-31.155 -25.611)"/><path class="a" d="M159.528,170.47a.783.783,0,1,0-.782-.783A.783.783,0,0,0,159.528,170.47Z" transform="translate(-33.004 -25.611)"/><path class="a" d="M165.528,170.47a.783.783,0,1,0-.782-.783A.783.783,0,0,0,165.528,170.47Z" transform="translate(-34.854 -25.611)"/><path class="a" d="M171.528,170.47a.783.783,0,1,0-.782-.783A.783.783,0,0,0,171.528,170.47Z" transform="translate(-36.703 -25.611)"/><path class="a" d="M177.528,170.47a.783.783,0,1,0-.782-.783A.783.783,0,0,0,177.528,170.47Z" transform="translate(-38.552 -25.611)"/><path class="a" d="M183.528,170.47a.783.783,0,1,0-.782-.783A.783.783,0,0,0,183.528,170.47Z" transform="translate(-40.402 -25.611)"/><path class="a" d="M189.528,170.47a.783.783,0,1,0-.782-.783A.783.783,0,0,0,189.528,170.47Z" transform="translate(-42.251 -25.611)"/><path class="a" d="M195.528,170.47a.783.783,0,1,0-.782-.783A.783.783,0,0,0,195.528,170.47Z" transform="translate(-44.101 -25.611)"/><path class="a" d="M201.528,170.47a.783.783,0,1,0-.782-.783A.783.783,0,0,0,201.528,170.47Z" transform="translate(-45.95 -25.611)"/><path class="a" d="M207.528,170.47a.783.783,0,1,0-.782-.783A.783.783,0,0,0,207.528,170.47Z" transform="translate(-47.8 -25.611)"/><path class="a" d="M213.528,170.47a.783.783,0,1,0-.782-.783A.783.783,0,0,0,213.528,170.47Z" transform="translate(-49.649 -25.611)"/><path class="a" d="M219.528,170.47a.783.783,0,1,0-.782-.783A.783.783,0,0,0,219.528,170.47Z" transform="translate(-51.499 -25.611)"/><path class="a" d="M225.533,170.464a.771.771,0,1,0-.771-.771A.771.771,0,0,0,225.533,170.464Z" transform="translate(-53.353 -25.616)"/><path class="a" d="M231.559,170.432a.714.714,0,1,0-.714-.714A.714.714,0,0,0,231.559,170.432Z" transform="translate(-55.229 -25.642)"/><circle class="a" cx="0.575" cy="0.575" r="0.575" transform="translate(179.905 143.501)"/><path class="a" d="M243.687,170.273a.426.426,0,1,0-.426-.426A.426.426,0,0,0,243.687,170.273Z" transform="translate(-59.056 -25.77)"/><path class="a" d="M249.749,170.2a.288.288,0,1,0-.288-.288A.288.288,0,0,0,249.749,170.2Z" transform="translate(-60.967 -25.831)"/><circle class="a" cx="0.15" cy="0.15" r="0.15" transform="translate(192.783 143.927)"/><circle class="a" cx="0.023" cy="0.023" r="0.023" transform="translate(197.06 144.053)"/><circle class="a" cx="0.46" cy="0.46" r="0.46" transform="translate(55.505 147.767)"/><path class="a" d="M63.528,176.47a.783.783,0,1,0-.782-.783A.783.783,0,0,0,63.528,176.47Z" transform="translate(-3.412 -27.46)"/><path class="a" d="M69.528,176.47a.783.783,0,1,0-.782-.783A.783.783,0,0,0,69.528,176.47Z" transform="translate(-5.262 -27.46)"/><path class="a" d="M75.528,176.47a.783.783,0,1,0-.782-.783A.783.783,0,0,0,75.528,176.47Z" transform="translate(-7.111 -27.46)"/><path class="a" d="M81.528,176.47a.783.783,0,1,0-.782-.783A.783.783,0,0,0,81.528,176.47Z" transform="translate(-8.961 -27.46)"/><path class="a" d="M87.528,176.47a.783.783,0,1,0-.782-.783A.783.783,0,0,0,87.528,176.47Z" transform="translate(-10.81 -27.46)"/><path class="a" d="M93.528,176.47a.783.783,0,1,0-.782-.783A.783.783,0,0,0,93.528,176.47Z" transform="translate(-12.66 -27.46)"/><path class="a" d="M99.528,176.47a.783.783,0,1,0-.782-.783A.783.783,0,0,0,99.528,176.47Z" transform="translate(-14.509 -27.46)"/><path class="a" d="M105.528,176.47a.783.783,0,1,0-.782-.783A.783.783,0,0,0,105.528,176.47Z" transform="translate(-16.359 -27.46)"/><path class="a" d="M111.528,176.47a.783.783,0,1,0-.782-.783A.783.783,0,0,0,111.528,176.47Z" transform="translate(-18.208 -27.46)"/><path class="a" d="M117.528,176.47a.783.783,0,1,0-.782-.783A.783.783,0,0,0,117.528,176.47Z" transform="translate(-20.058 -27.46)"/><path class="a" d="M123.528,176.47a.783.783,0,1,0-.782-.783A.783.783,0,0,0,123.528,176.47Z" transform="translate(-21.907 -27.46)"/><path class="a" d="M129.528,176.47a.783.783,0,1,0-.782-.783A.783.783,0,0,0,129.528,176.47Z" transform="translate(-23.757 -27.46)"/><path class="a" d="M135.528,176.47a.783.783,0,1,0-.782-.783A.783.783,0,0,0,135.528,176.47Z" transform="translate(-25.606 -27.46)"/><path class="a" d="M141.528,176.47a.783.783,0,1,0-.782-.783A.783.783,0,0,0,141.528,176.47Z" transform="translate(-27.456 -27.46)"/><path class="a" d="M147.528,176.47a.783.783,0,1,0-.782-.783A.783.783,0,0,0,147.528,176.47Z" transform="translate(-29.305 -27.46)"/><path class="a" d="M153.528,176.47a.783.783,0,1,0-.782-.783A.783.783,0,0,0,153.528,176.47Z" transform="translate(-31.155 -27.46)"/><path class="a" d="M159.528,176.47a.783.783,0,1,0-.782-.783A.783.783,0,0,0,159.528,176.47Z" transform="translate(-33.004 -27.46)"/><path class="a" d="M165.528,176.47a.783.783,0,1,0-.782-.783A.783.783,0,0,0,165.528,176.47Z" transform="translate(-34.854 -27.46)"/><path class="a" d="M171.528,176.47a.783.783,0,1,0-.782-.783A.783.783,0,0,0,171.528,176.47Z" transform="translate(-36.703 -27.46)"/><path class="a" d="M177.528,176.47a.783.783,0,1,0-.782-.783A.783.783,0,0,0,177.528,176.47Z" transform="translate(-38.552 -27.46)"/><path class="a" d="M183.528,176.47a.783.783,0,1,0-.782-.783A.783.783,0,0,0,183.528,176.47Z" transform="translate(-40.402 -27.46)"/><path class="a" d="M189.528,176.47a.783.783,0,1,0-.782-.783A.783.783,0,0,0,189.528,176.47Z" transform="translate(-42.251 -27.46)"/><circle class="a" cx="0.76" cy="0.76" r="0.76" transform="translate(150.668 147.467)"/><circle class="a" cx="0.645" cy="0.645" r="0.645" transform="translate(154.933 147.583)"/><path class="a" d="M207.651,176.317a.506.506,0,1,0-.506-.506A.507.507,0,0,0,207.651,176.317Z" transform="translate(-47.923 -27.583)"/><circle class="a" cx="0.357" cy="0.357" r="0.357" transform="translate(163.522 147.87)"/><circle class="a" cx="0.219" cy="0.219" r="0.219" transform="translate(167.811 148.008)"/><path class="a" d="M225.841,176.081a.081.081,0,1,0,0-.161.081.081,0,0,0,0,.161Z" transform="translate(-53.661 -27.773)"/><circle class="a" cx="0.575" cy="0.575" r="0.575" transform="translate(55.39 151.802)"/><path class="a" d="M63.528,182.47a.783.783,0,1,0-.782-.783A.783.783,0,0,0,63.528,182.47Z" transform="translate(-3.412 -29.31)"/><path class="a" d="M69.528,182.47a.783.783,0,1,0-.782-.783A.783.783,0,0,0,69.528,182.47Z" transform="translate(-5.262 -29.31)"/><path class="a" d="M75.528,182.47a.783.783,0,1,0-.782-.783A.783.783,0,0,0,75.528,182.47Z" transform="translate(-7.111 -29.31)"/><path class="a" d="M81.528,182.47a.783.783,0,1,0-.782-.783A.783.783,0,0,0,81.528,182.47Z" transform="translate(-8.961 -29.31)"/><path class="a" d="M87.528,182.47a.783.783,0,1,0-.782-.783A.783.783,0,0,0,87.528,182.47Z" transform="translate(-10.81 -29.31)"/><path class="a" d="M93.528,182.47a.783.783,0,1,0-.782-.783A.783.783,0,0,0,93.528,182.47Z" transform="translate(-12.66 -29.31)"/><path class="a" d="M99.528,182.47a.783.783,0,1,0-.782-.783A.783.783,0,0,0,99.528,182.47Z" transform="translate(-14.509 -29.31)"/><path class="a" d="M105.528,182.47a.783.783,0,1,0-.782-.783A.783.783,0,0,0,105.528,182.47Z" transform="translate(-16.359 -29.31)"/><path class="a" d="M111.528,182.47a.783.783,0,1,0-.782-.783A.783.783,0,0,0,111.528,182.47Z" transform="translate(-18.208 -29.31)"/><path class="a" d="M117.528,182.47a.783.783,0,1,0-.782-.783A.783.783,0,0,0,117.528,182.47Z" transform="translate(-20.058 -29.31)"/><path class="a" d="M123.528,182.47a.783.783,0,1,0-.782-.783A.783.783,0,0,0,123.528,182.47Z" transform="translate(-21.907 -29.31)"/><path class="a" d="M129.528,182.47a.783.783,0,1,0-.782-.783A.783.783,0,0,0,129.528,182.47Z" transform="translate(-23.757 -29.31)"/><path class="a" d="M135.528,182.47a.783.783,0,1,0-.782-.783A.783.783,0,0,0,135.528,182.47Z" transform="translate(-25.606 -29.31)"/><path class="a" d="M141.528,182.47a.783.783,0,1,0-.782-.783A.783.783,0,0,0,141.528,182.47Z" transform="translate(-27.456 -29.31)"/><path class="a" d="M147.528,182.47a.783.783,0,1,0-.782-.783A.783.783,0,0,0,147.528,182.47Z" transform="translate(-29.305 -29.31)"/><path class="a" d="M153.528,182.47a.783.783,0,1,0-.782-.783A.783.783,0,0,0,153.528,182.47Z" transform="translate(-31.155 -29.31)"/><path class="a" d="M159.533,182.464a.771.771,0,1,0-.771-.771A.771.771,0,0,0,159.533,182.464Z" transform="translate(-33.009 -29.315)"/><path class="a" d="M165.559,182.432a.714.714,0,1,0-.714-.714A.714.714,0,0,0,165.559,182.432Z" transform="translate(-34.884 -29.341)"/><path class="a" d="M171.626,182.349a.564.564,0,1,0-.564-.564A.564.564,0,0,0,171.626,182.349Z" transform="translate(-36.8 -29.407)"/><path class="a" d="M177.687,182.273a.426.426,0,1,0-.426-.426A.426.426,0,0,0,177.687,182.273Z" transform="translate(-38.711 -29.469)"/><path class="a" d="M183.749,182.2a.288.288,0,1,0-.288-.288A.288.288,0,0,0,183.749,182.2Z" transform="translate(-40.622 -29.53)"/><circle class="a" cx="0.15" cy="0.15" r="0.15" transform="translate(147.127 152.228)"/><circle class="a" cx="0.023" cy="0.023" r="0.023" transform="translate(151.404 152.354)"/><path class="a" d="M57.569,188.419a.69.69,0,1,0-.69-.69A.691.691,0,0,0,57.569,188.419Z" transform="translate(-1.604 -31.2)"/><path class="a" d="M63.528,188.47a.783.783,0,1,0-.782-.783A.783.783,0,0,0,63.528,188.47Z" transform="translate(-3.412 -31.159)"/><path class="a" d="M69.528,188.47a.783.783,0,1,0-.782-.783A.783.783,0,0,0,69.528,188.47Z" transform="translate(-5.262 -31.159)"/><path class="a" d="M75.528,188.47a.783.783,0,1,0-.782-.783A.783.783,0,0,0,75.528,188.47Z" transform="translate(-7.111 -31.159)"/><path class="a" d="M81.528,188.47a.783.783,0,1,0-.782-.783A.783.783,0,0,0,81.528,188.47Z" transform="translate(-8.961 -31.159)"/><path class="a" d="M87.528,188.47a.783.783,0,1,0-.782-.783A.783.783,0,0,0,87.528,188.47Z" transform="translate(-10.81 -31.159)"/><path class="a" d="M93.528,188.47a.783.783,0,1,0-.782-.783A.783.783,0,0,0,93.528,188.47Z" transform="translate(-12.66 -31.159)"/><path class="a" d="M99.528,188.47a.783.783,0,1,0-.782-.783A.783.783,0,0,0,99.528,188.47Z" transform="translate(-14.509 -31.159)"/><path class="a" d="M105.528,188.47a.783.783,0,1,0-.782-.783A.783.783,0,0,0,105.528,188.47Z" transform="translate(-16.359 -31.159)"/><path class="a" d="M111.528,188.47a.783.783,0,1,0-.782-.783A.783.783,0,0,0,111.528,188.47Z" transform="translate(-18.208 -31.159)"/><path class="a" d="M117.528,188.47a.783.783,0,1,0-.782-.783A.783.783,0,0,0,117.528,188.47Z" transform="translate(-20.058 -31.159)"/><path class="a" d="M123.528,188.47a.783.783,0,1,0-.782-.783A.783.783,0,0,0,123.528,188.47Z" transform="translate(-21.907 -31.159)"/><circle class="a" cx="0.76" cy="0.76" r="0.76" transform="translate(105.012 155.768)"/><circle class="a" cx="0.633" cy="0.633" r="0.633" transform="translate(109.289 155.895)"/><path class="a" d="M141.657,188.311a.495.495,0,1,0-.495-.5A.5.5,0,0,0,141.657,188.311Z" transform="translate(-27.584 -31.288)"/><circle class="a" cx="0.357" cy="0.357" r="0.357" transform="translate(117.867 156.171)"/><circle class="a" cx="0.219" cy="0.219" r="0.219" transform="translate(122.155 156.309)"/><path class="a" d="M159.841,188.081a.081.081,0,1,0-.081-.081A.081.081,0,0,0,159.841,188.081Z" transform="translate(-33.317 -31.472)"/><circle class="a" cx="0.035" cy="0.035" r="0.035" transform="translate(51.781 160.644)"/><path class="a" d="M57.528,194.47a.783.783,0,1,0-.782-.783A.783.783,0,0,0,57.528,194.47Z" transform="translate(-1.563 -33.009)"/><path class="a" d="M63.528,194.47a.783.783,0,1,0-.782-.783A.783.783,0,0,0,63.528,194.47Z" transform="translate(-3.412 -33.009)"/><path class="a" d="M69.528,194.47a.783.783,0,1,0-.782-.783A.783.783,0,0,0,69.528,194.47Z" transform="translate(-5.262 -33.009)"/><path class="a" d="M75.528,194.47a.783.783,0,1,0-.782-.783A.783.783,0,0,0,75.528,194.47Z" transform="translate(-7.111 -33.009)"/><path class="a" d="M81.528,194.47a.783.783,0,1,0-.782-.783A.783.783,0,0,0,81.528,194.47Z" transform="translate(-8.961 -33.009)"/><path class="a" d="M87.528,194.47a.783.783,0,1,0-.782-.783A.783.783,0,0,0,87.528,194.47Z" transform="translate(-10.81 -33.009)"/><path class="a" d="M93.533,194.464a.771.771,0,1,0-.771-.771A.771.771,0,0,0,93.533,194.464Z" transform="translate(-12.664 -33.014)"/><circle class="a" cx="0.702" cy="0.702" r="0.702" transform="translate(84.317 159.976)"/><path class="a" d="M105.626,194.349a.564.564,0,1,0-.564-.564A.564.564,0,0,0,105.626,194.349Z" transform="translate(-16.456 -33.106)"/><path class="a" d="M111.687,194.273a.426.426,0,1,0-.426-.426A.426.426,0,0,0,111.687,194.273Z" transform="translate(-18.367 -33.168)"/><path class="a" d="M117.749,194.2a.288.288,0,1,0-.288-.288A.288.288,0,0,0,117.749,194.2Z" transform="translate(-20.278 -33.229)"/><path class="a" d="M123.815,194.113a.138.138,0,1,0-.138-.138A.139.139,0,0,0,123.815,194.113Z" transform="translate(-22.194 -33.296)"/><circle class="a" cx="0.023" cy="0.023" r="0.023" transform="translate(105.749 160.656)"/><path class="a" d="M51.815,200.113a.138.138,0,1,0-.138-.138A.139.139,0,0,0,51.815,200.113Z" transform="translate(0 -35.145)"/><path class="a" d="M57.528,200.47a.783.783,0,1,0-.782-.783A.783.783,0,0,0,57.528,200.47Z" transform="translate(-1.563 -34.858)"/><circle class="a" cx="0.76" cy="0.76" r="0.76" transform="translate(59.357 164.069)"/><circle class="a" cx="0.633" cy="0.633" r="0.633" transform="translate(63.634 164.196)"/><path class="a" d="M75.657,200.311a.495.495,0,1,0-.495-.5A.5.5,0,0,0,75.657,200.311Z" transform="translate(-7.239 -34.987)"/><path class="a" d="M81.723,200.227a.345.345,0,1,0-.345-.345A.345.345,0,0,0,81.723,200.227Z" transform="translate(-9.155 -35.053)"/><circle class="a" cx="0.207" cy="0.207" r="0.207" transform="translate(76.511 164.622)"/><circle class="a" cx="0.069" cy="0.069" r="0.069" transform="translate(80.8 164.76)"/><circle class="a" cx="0.058" cy="0.058" r="0.058" transform="translate(51.758 168.922)"/><path class="a" d="M57.815,206.113a.138.138,0,1,0-.138-.138A.139.139,0,0,0,57.815,206.113Z" transform="translate(-1.85 -36.995)"/><circle class="a" cx="0.023" cy="0.023" r="0.023" transform="translate(60.093 168.956)"/></g><g transform="translate(1513.537 793.884)"><g transform="translate(50.925 65.406)"><path class="b" d="M273.2,180.058,75.876,215.817l9.191-61.444L282.4,118.614Z" transform="translate(-58.615 -78.66)"/><path class="c" d="M165.206,155.112,84.876,170.118l5.011-33.5,81.891-16.7Z" transform="translate(-14.32 -19.354)"/><g transform="translate(20.855 -17.375)"><path class="d" d="M1316.9,467.973h-14.448s-10.564,15.57-10.564,35.855h35.577C1327.461,483.543,1316.9,467.973,1316.9,467.973Z" transform="translate(-1288.361 -418.241)"/><path class="e" d="M1298.9,377.227a17.78,17.78,0,0,0-4.834-8.676c-7.979-7.885-12.471-15.372-10.521-24.382a.486.486,0,0,1,.7-.322c2.137,1.145,9.846,5.927,14,17.147a57.74,57.74,0,0,1,3.183,16.555Z" transform="translate(-1283.087 -343.789)"/><path class="f" d="M1359.28,373.227a40.351,40.351,0,0,1-5.609,7.546c-.806.883-1.663,1.774-2.567,2.666a17.758,17.758,0,0,0-4.834,8.674l-2.528.322a57.716,57.716,0,0,1,3.18-16.555,35.88,35.88,0,0,1,2.4-5.2s.017-.034.051-.09c.3-.484,1.963-2.772,5.678-1.68C1356.687,369.391,1358.1,371.084,1359.28,373.227Z" transform="translate(-1319.451 -358.675)"/><path class="g" d="M1286.71,349.121a.136.136,0,0,0-.217.074,16.158,16.158,0,0,0,2.232,11.554c3.562,5.975,9.669,11.381,10.323,13.528C1299.048,374.277,1296.761,356.972,1286.71,349.121Z" transform="translate(-1284.961 -346.968)"/><path class="h" d="M1364.042,372.854c-.022.043-.047.086-.073.129-3.552,5.961-9.651,11.361-10.319,13.516a53.84,53.84,0,0,1,5.648-17Z" transform="translate(-1325.392 -359.203)"/><path class="i" d="M1371.193,385.495a.319.319,0,0,1-.392.376,26.021,26.021,0,0,1-9.382-5.1,22.862,22.862,0,0,1-3.15-2.875c-2.665-3.114-1.2-7.217-1.2-7.217s.017-.034.051-.09c.3-.484,1.963-2.772,5.678-1.68,1.641.48,3.051,2.173,4.234,4.315C1369.4,377.559,1370.819,383.728,1371.193,385.495Z" transform="translate(-1327.2 -358.675)"/><path class="j" d="M1328.539,426.349a20.8,20.8,0,0,1-3.546-6.521c-.179-.563-.384-1.171-.616-1.818-1.859-5.173-8.074-5.217-8.074-5.217s-6.215.044-8.074,5.217c-.232.647-.436,1.255-.615,1.818a20.812,20.812,0,0,1-3.546,6.521,5.016,5.016,0,0,0-1.038,4.106c.68,3.847,4.587,6.441,13.274,6.222,8.687.219,12.594-2.374,13.274-6.222A5.016,5.016,0,0,0,1328.539,426.349Z" transform="translate(-1294.992 -385.159)"/><path class="k" d="M1334.8,446.014c-.318-1.205-2.973-1.205-2.973-1.205s-2.656,0-2.974,1.205c-.184.7,1.531,2.41,2.974,2.464C1333.273,448.425,1334.989,446.713,1334.8,446.014Z" transform="translate(-1310.52 -404.353)"/><ellipse class="l" cx="0.826" cy="1.076" rx="0.826" ry="1.076" transform="translate(16.097 37.02)"/><ellipse class="l" cx="0.826" cy="1.076" rx="0.826" ry="1.076" transform="translate(24.306 37.02)"/></g><path class="m" d="M223.671,131.444l-138.6,25.117L75.876,218l64.966-11.772C155.526,168.887,187.062,147.379,223.671,131.444Z" transform="translate(-58.615 -80.848)"/><path class="n" d="M192.781,124.3,55.066,149.422l5.65-47.14L198.431,77.157Z" transform="translate(-43.969 -67.324)"/><path class="o" d="M107.839,95.045a87.583,87.583,0,0,1,37.606-24.161c.289-.152.581-.292.871-.44L62.38,85.757,55.066,134.65l29.817-5.44A87.641,87.641,0,0,1,107.839,95.045Z" transform="translate(-40.804 -51.951)"/><path class="p" d="M5.3-.028C8.333-.028,11,1.343,11,3c0,.949-2.777,5.646-3.725.958C7.092,5.063,6.8,5.966,5.5,5.966c-1.572-.2-.652-2.254-1.572-2.455C5.115,8.707,0,4.272,0,3,0,1.343,2.258-.028,5.3-.028Z" transform="translate(56.068 25.465) rotate(-8)"/><path class="p" d="M5.3-.028C8.333-.028,11,1.343,11,3c0,.949-1.589,4.15-3.725.958C7.092,5.063,6.8,5.966,5.5,5.966c-1.572-.2-.652-2.254-1.572-2.455C3.082,7.359,0,4.272,0,3,0,1.343,2.258-.028,5.3-.028Z" transform="translate(19.858 31.972) rotate(-8)"/></g><g transform="translate(30.784 40.905)"><path class="q" d="M53.8,225.317l3.88-11.349-11.639,8.5Z" transform="translate(-4.042 -34.443)"/><path class="q" d="M30.784,127.116l14.8,1.568L32.1,116.943Z" transform="translate(-30.784 -53.873)"/><path class="q" d="M144.89,64.251l11.242,3.64-8.558-11.329Z" transform="translate(14.283 -125.102) rotate(34)"/><path class="r" d="M223.747,41.092,224.31,53.9,232.579,40.9Z" transform="translate(-52.695 -35.407)"/><path class="q" d="M336.677,173.849l-13.4-3.308,10.907,12.486Z" transform="translate(-80.671 -63.015)"/><path class="q" d="M309.434,94.824,292.6,107.284l19.642-3.971Z" transform="translate(-75.438 -50.101)"/><path class="q" d="M276.255,212.549l-4.588-3.536,2.079,6.641Z" transform="translate(-67.868 -52.38)"/><path class="q" d="M194.717,229.46l-5.8-5.221,2.109,9.133Z" transform="translate(-57.755 -72.173)"/><g class="s" transform="translate(136.678 185.211)"><circle class="y" cx="6" cy="6" r="6"/><circle class="z" cx="6" cy="6" r="4.5"/></g><g class="t" transform="translate(67.678 158.211)"><circle class="y" cx="5.5" cy="5.5" r="5.5"/><circle class="z" cx="5.5" cy="5.5" r="4"/></g></g></g><g transform="matrix(0.998, 0.07, -0.07, 0.998, 1729.787, 820.384)"><path class="u" d="M0,33.671V1.981H16.815V6.623H5.921v8.046H16.175v4.642H5.921v14.36ZM20.3,23.355V20.611q0-7.077,2.084-9.2T28.72,9.284q4.436,0,6.355,2.228,1.939,2.228,1.939,8.5V22.86q0,6.85-1.774,9.14t-6.52,2.29q-4.91,0-6.664-2.311Q20.3,29.648,20.3,23.355ZM25.79,17.31v8.748a5.551,5.551,0,0,0,.64,3.26,2.9,2.9,0,0,0,2.311.763q1.733,0,2.249-.846a6.489,6.489,0,0,0,.536-3.177V17.29q0-3.8-2.723-3.8a2.809,2.809,0,0,0-2.311.887A4.774,4.774,0,0,0,25.79,17.31ZM28.658,7.3ZM42.3,33.671V1.981h5.488V33.671ZM44.07,0Zm.846,33.671Zm9.119,0V1.981h5.488V33.671ZM55.809,0Zm.846,33.671Zm8.253-10.316V20.611q0-7.077,2.084-9.2t6.334-2.125q4.436,0,6.355,2.228,1.939,2.228,1.939,8.5V22.86q0,6.85-1.774,9.14t-6.52,2.29q-4.91,0-6.664-2.311Q64.908,29.648,64.908,23.355ZM70.4,17.31v8.748a5.551,5.551,0,0,0,.64,3.26,2.9,2.9,0,0,0,2.311.763q1.733,0,2.249-.846a6.489,6.489,0,0,0,.536-3.177V17.29q0-3.8-2.723-3.8a2.809,2.809,0,0,0-2.311.887A4.774,4.774,0,0,0,70.4,17.31ZM73.264,7.3ZM84.24,9.9H90l2.538,18.3h0l2.93-18.3H100l3.219,18.3h0l2.517-18.3h5.488l-4.952,23.768h-6l-2.5-13.823h0l-2.5,13.823H89.192Zm35.466,13h0v3.425a4.885,4.885,0,0,0,.66,2.847,2.531,2.531,0,0,0,2.166.908q2.579,0,2.579-3.26V25.707H130.6q0,8.583-7.613,8.583-4.56,0-6.664-2.249t-2.1-7.428V18.156q0-8.872,8.067-8.872,4.106,0,6.21,1.836t2.1,8.129V22.9H119.707Zm0-4.209h5.406V16.444a3.142,3.142,0,0,0-.66-2.29,2.936,2.936,0,0,0-2.166-.66,2.2,2.2,0,0,0-2.063.867,5.957,5.957,0,0,0-.516,2.888ZM122.6,7.3Zm1.981,26.368Zm11.121,0V9.9h5.323v4.209a9.657,9.657,0,0,1,2.27-3.528,4.917,4.917,0,0,1,3.507-1.3h0v6.458q-.619-.062-1.176-.062-4.436,0-4.436,4V33.671ZM141.845,7.3Zm-3.281,26.368Zm9.945-7.964H154a14.038,14.038,0,0,0-.083,1.465q0,2.909,2.331,2.909,2.414,0,2.414-2.1a2.346,2.346,0,0,0-.846-1.939q-.825-.681-2.187-1.609l-3.074-2.187a8.536,8.536,0,0,1-4.044-7.262q0-5.694,7.985-5.694,3.982,0,5.859,1.939t1.878,5.983h-5.488q0-2.517-.681-3.115a2.6,2.6,0,0,0-1.816-.6q-2.249,0-2.249,1.96A2.227,2.227,0,0,0,154.575,17a11.993,11.993,0,0,0,1.857,1.506l3.982,2.723q3.817,2.62,3.817,6.21,0,6.85-7.778,6.85-8.026,0-8.026-7.51A5.273,5.273,0,0,1,148.509,25.707Zm7.7-18.4Zm.062,26.368Z" transform="translate(-114.388 130.639) rotate(-15)"/><path class="v" d="M8.122,16.32V12.872h7.2V25.5H12.03V22.557a5.215,5.215,0,0,1-1.793,2.574,4.9,4.9,0,0,1-2.958.858q-3.938,0-5.609-2.161Q0,21.653,0,16.32V11.57Q0,5.716,1.824,3.6q1.839-2.13,5.93-2.13,4.107,0,5.869,1.9t1.762,5.946h-4.4a5.955,5.955,0,0,0-.69-3.249A2.846,2.846,0,0,0,7.739,5.026,2.663,2.663,0,0,0,5.318,6.3,6.926,6.926,0,0,0,4.536,9.93v7.631q0,4.873,3.141,4.873a2.668,2.668,0,0,0,2.62-1.563,10.658,10.658,0,0,0,.766-4.551ZM7.693,0ZM7.631,25.5Zm15.554-8h0v2.544a3.628,3.628,0,0,0,.49,2.115,1.88,1.88,0,0,0,1.609.674q1.916,0,1.916-2.421v-.828h4.076q0,6.375-5.655,6.375-3.387,0-4.95-1.67t-1.563-5.517v-4.8q0-6.589,5.992-6.589A6.832,6.832,0,0,1,29.714,8.75q1.563,1.364,1.563,6.038V17.5H23.186Zm0-3.126H27.2V12.7a2.333,2.333,0,0,0-.49-1.7,2.181,2.181,0,0,0-1.609-.49,1.638,1.638,0,0,0-1.532.644,4.425,4.425,0,0,0-.383,2.145Zm2.145-8.459ZM26.8,25.5Zm6.789-14.665V7.846h1.655v-4.9h4.076v4.9h1.716v2.988H39.322V21.423a1.865,1.865,0,0,0,.153.72q.153.368.981.368a4.153,4.153,0,0,0,.582-.046v3.172a15.769,15.769,0,0,1-2.13.138,4.408,4.408,0,0,1-2.728-.72,2.891,2.891,0,0,1-.935-2.437V10.834ZM38.326,25.5ZM50.938,6.068q5.455,0,6.559-3.984H60.73V25.5h-4.4V9.195H50.938ZM66.921,19.125V8.551q0-6.574,6.421-6.574,6.314,0,6.314,6.743V19.171q0,6.8-6.314,6.8Q66.921,25.975,66.921,19.125Zm4.4-10.42V19.247q0,3.279,1.87,3.279,2.069,0,2.069-3.341V8.7q0-3.279-1.977-3.279Q71.319,5.425,71.319,8.7Zm11.294,10.42V8.551q0-6.574,6.421-6.574,6.314,0,6.314,6.743V19.171q0,6.8-6.314,6.8Q82.613,25.975,82.613,19.125Zm4.4-10.42V19.247q0,3.279,1.87,3.279,2.069,0,2.069-3.341V8.7q0-3.279-1.977-3.279Q87.011,5.425,87.011,8.7ZM98.3,19.125V8.551q0-6.574,6.421-6.574,6.314,0,6.314,6.743V19.171q0,6.8-6.314,6.8Q98.3,25.975,98.3,19.125ZM102.7,8.7V19.247q0,3.279,1.87,3.279,2.069,0,2.069-3.341V8.7q0-3.279-1.977-3.279Q102.7,5.425,102.7,8.7Z" transform="translate(-134.609 91.798) rotate(-13.532)"/></g><text class="w" transform="translate(1635.982 887) rotate(-11)"><tspan x="0" y="0">Buy Now</tspan></text><text class="x" transform="translate(1657.578 996.969) rotate(-11)"><tspan x="0" y="0">FREE</tspan></text></g></svg>