<svg xmlns="http://www.w3.org/2000/svg" xmlns:xlink="http://www.w3.org/1999/xlink" width="251.103" height="81.729" viewBox="0 0 251.103 81.729"><defs><linearGradient id="a" x1="-0.023" y1="0.5" x2="0.955" y2="0.594" gradientUnits="objectBoundingBox"><stop offset="0" stop-color="#fecb48"/><stop offset="1" stop-color="#f4e2ff" stop-opacity="0"/></linearGradient><filter id="b" x="190.79" y="26.292" width="46.625" height="46.625" filterUnits="userSpaceOnUse"><feOffset dy="4" input="SourceAlpha"/><feGaussianBlur stdDeviation="3" result="c"/><feFlood flood-color="#67573b" flood-opacity="0.431"/><feComposite operator="in" in2="c"/><feComposite in="SourceGraphic"/></filter><linearGradient id="d" x1="0.638" y1="2.449" x2="0.5" y2="-0.607" gradientUnits="objectBoundingBox"><stop offset="0" stop-color="#111ec5"/><stop offset="0.941" stop-color="#ad34d8"/><stop offset="1" stop-color="#6166ff"/></linearGradient><linearGradient id="e" x1="0.5" x2="0.5" y2="1" gradientUnits="objectBoundingBox"><stop offset="0" stop-color="#ac3efe"/><stop offset="1" stop-color="#6c7ffe"/></linearGradient><filter id="f" x="0" y="0" width="81.729" height="81.729" filterUnits="userSpaceOnUse"><feOffset dy="6" input="SourceAlpha"/><feGaussianBlur stdDeviation="6" result="g"/><feFlood flood-color="#535353" flood-opacity="0.329"/><feComposite operator="in" in2="g"/><feComposite in="SourceGraphic"/></filter><linearGradient id="h" x1="0.5" x2="0.5" y2="1" gradientUnits="objectBoundingBox"><stop offset="0" stop-color="#8763fe"/><stop offset="1" stop-color="#680adc"/></linearGradient><filter id="i" x="29.618" y="25.517" width="22.498" height="22.498" filterUnits="userSpaceOnUse"><feOffset dy="2" input="SourceAlpha"/><feGaussianBlur stdDeviation="2" result="j"/><feFlood flood-color="#7e2e00" flood-opacity="0.31"/><feComposite operator="in" in2="j"/><feComposite in="SourceGraphic"/></filter><radialGradient id="k" cx="0.5" cy="0.5" r="0.5" gradientUnits="objectBoundingBox"><stop offset="0" stop-color="#fff"/><stop offset="1" stop-color="#fceaa0"/></radialGradient><filter id="x" x="34.902" y="30.781" width="11.579" height="9.387" filterUnits="userSpaceOnUse"><feOffset dy="1" input="SourceAlpha"/><feGaussianBlur stdDeviation="1" result="y"/><feFlood flood-opacity="0.161"/><feComposite operator="in" in2="y"/><feComposite in="SourceGraphic"/></filter></defs><g transform="translate(-1104.897 -3567.395)"><g transform="translate(21 3)"><rect width="210" height="34" rx="17" transform="translate(1125 3594)" fill="url(#a)"/><text transform="translate(1148 3617)" fill="#8618ef" font-size="18" font-family="Montserrat-Bold, Montserrat" font-weight="700"><tspan x="0" y="0" xml:space="preserve"> Join Us Now</tspan></text><g transform="matrix(1, 0, 0, 1, 1083.9, 3564.4)" filter="url(#b)"><path d="M14.312,0A14.312,14.312,0,1,1,0,14.312,14.312,14.312,0,0,1,14.312,0Z" transform="translate(199.79 31.29)" fill="#8618ef"/></g><path d="M295.5,256.547h8.874v3.715l5.019-4.631L304.373,251v3.714H295.5Z" transform="translate(995.347 3354.707)" fill="#fff" fill-rule="evenodd"/><g transform="translate(873.604 3386.105)"><path d="M385.607,202.686a.5.5,0,0,0-.375.22,6.3,6.3,0,0,0-.553.768c-.1.191-.206.389-.289.591.067.126.008.3.211.34a.28.28,0,0,0,.337-.139c.081-.154.167-.307.244-.46a3.122,3.122,0,0,1,.589-1.009.176.176,0,0,0,.028-.233C385.759,202.689,385.694,202.679,385.607,202.686Z" transform="translate(-10.187)" fill="#8618ef"/><path d="M372.545,211.821c.132-.011.231.009.233-.137s-.081-.192-.231-.22a5.931,5.931,0,0,0-1.553,0c-.176.058-.519-.012-.8.2-.079.06-.155.116-.134.229s.119.058.183.079a1.2,1.2,0,0,0,.742-.055A7.852,7.852,0,0,1,372.545,211.821Z" transform="translate(0 -6.205)" fill="#8618ef"/><path d="M376.521,215.49a4.511,4.511,0,0,0-1.008.778c-.112.151-.322.246-.3.442,0,.149.027.25.135.3s.163-.054.232-.108c.133-.1.2-.266.342-.37.3-.217.573-.466.872-.68.166-.118.059-.222.007-.311A.19.19,0,0,0,376.521,215.49Z" transform="translate(-3.662 -9.075)" fill="#8618ef"/><path d="M388.113,210.552a.217.217,0,0,0-.092.33c.076.124.22.172.312.071a.861.861,0,0,1,.448-.2,3.479,3.479,0,0,1,.61-.2c.164-.023.318-.155.5-.133.122.015.173-.047.208-.163-.06-.075-.079-.176-.231-.185a3.6,3.6,0,0,0-.869.167A5.8,5.8,0,0,0,388.113,210.552Z" transform="translate(-12.74 -5.249)" fill="#8618ef"/><path d="M390.931,217.711a2.864,2.864,0,0,1-1.049-.32.325.325,0,0,0-.362-.008c-.058.036-.113.084-.091.161.042.147.172.191.3.237a.187.187,0,0,0,.083.015.657.657,0,0,1,.412.145,1.862,1.862,0,0,0,.858.331c.113,0,.231.01.287-.123s-.02-.184-.1-.267A.488.488,0,0,0,390.931,217.711Z" transform="translate(-13.765 -10.411)" fill="#8618ef"/><path d="M378.436,204.742a8.627,8.627,0,0,1-.892-1.052c-.078-.107-.2-.2-.339-.1s-.094.235-.022.355a15.162,15.162,0,0,0,1,1.2.147.147,0,0,0,.2.034c.067-.048.154-.088.126-.214C378.492,204.9,378.489,204.8,378.436,204.742Z" transform="translate(-5.017 -0.613)" fill="#8618ef"/><path d="M384.711,221.345c.186,0,.177-.178.171-.317a5.953,5.953,0,0,0-.027-.838.791.791,0,0,1,.047-.523.284.284,0,0,0-.147-.419c-.128-.06-.241.071-.318.2a.425.425,0,0,0-.038.237c-.014.448.165.877.115,1.332C384.5,221.131,384.547,221.341,384.711,221.345Z" transform="translate(-10.193 -11.763)" fill="#8618ef"/></g><g transform="translate(1308.596 3178.49) rotate(82)"><path d="M385.226,202.686a.345.345,0,0,0-.257.151,4.331,4.331,0,0,0-.38.527c-.07.131-.142.267-.2.406.046.087.006.207.145.234a.192.192,0,0,0,.232-.1c.055-.106.115-.21.167-.315a2.143,2.143,0,0,1,.4-.693.121.121,0,0,0,.019-.16C385.33,202.687,385.285,202.681,385.226,202.686Z" transform="translate(-11.487)" fill="#8618ef"/><path d="M371.766,211.693c.09-.008.159.006.16-.094s-.055-.132-.159-.151a4.07,4.07,0,0,0-1.066,0c-.121.04-.356-.008-.548.137-.054.041-.107.08-.092.157s.081.039.125.054a.821.821,0,0,0,.509-.038A5.39,5.39,0,0,1,371.766,211.693Z" transform="translate(0 -6.996)" fill="#8618ef"/><path d="M376.11,215.478a3.093,3.093,0,0,0-.692.534c-.077.1-.221.169-.207.3,0,.1.019.172.093.207s.112-.037.159-.074c.091-.072.137-.183.234-.254.2-.149.393-.32.6-.466.114-.081.041-.152,0-.213A.13.13,0,0,0,376.11,215.478Z" transform="translate(-4.129 -10.233)" fill="#8618ef"/><path d="M388.072,210.4a.149.149,0,0,0-.063.226c.052.085.151.118.214.049a.591.591,0,0,1,.308-.137,2.389,2.389,0,0,1,.418-.138c.113-.016.218-.107.346-.091.084.01.118-.032.143-.112-.041-.052-.054-.121-.158-.127a2.473,2.473,0,0,0-.6.115A3.98,3.98,0,0,0,388.072,210.4Z" transform="translate(-14.365 -5.918)" fill="#8618ef"/><path d="M390.459,217.592a1.966,1.966,0,0,1-.72-.22.223.223,0,0,0-.249-.005c-.04.025-.078.058-.063.111.029.1.118.131.2.162a.128.128,0,0,0,.057.011.451.451,0,0,1,.283.1,1.278,1.278,0,0,0,.589.227c.077,0,.158.007.2-.085s-.014-.126-.066-.183A.335.335,0,0,0,390.459,217.592Z" transform="translate(-15.522 -11.74)" fill="#8618ef"/><path d="M378.023,204.367a5.922,5.922,0,0,1-.612-.722c-.053-.073-.137-.139-.233-.069s-.065.162-.015.244a10.4,10.4,0,0,0,.686.824.1.1,0,0,0,.14.023c.046-.033.106-.061.087-.147C378.061,204.475,378.059,204.4,378.023,204.367Z" transform="translate(-5.658 -0.691)" fill="#8618ef"/><path d="M384.613,220.682c.128,0,.122-.122.117-.218a4.09,4.09,0,0,0-.018-.575.543.543,0,0,1,.032-.359.2.2,0,0,0-.1-.288c-.088-.041-.165.049-.219.139a.292.292,0,0,0-.026.163c-.009.308.113.6.079.914C384.469,220.535,384.5,220.68,384.613,220.682Z" transform="translate(-11.493 -13.264)" fill="#8618ef"/></g><g transform="translate(940.152 3417.529) rotate(16)"><path d="M273.055,98.285h0a.26.26,0,0,0,.26-.26V96.26a.26.26,0,0,0-.26-.26h0a.26.26,0,0,0-.26.26v1.766A.26.26,0,0,0,273.055,98.285Z" transform="translate(-4.912)" fill="#a151f2"/><path d="M267,102.056h0a.26.26,0,0,0,.26.26h1.766a.26.26,0,0,0,.26-.26h0a.26.26,0,0,0-.26-.26H267.26A.26.26,0,0,0,267,102.056Z" transform="translate(0 -4.913)" fill="#a151f2"/></g><g transform="translate(1046.152 3453.529) rotate(16)"><path d="M273.055,98.285h0a.26.26,0,0,0,.26-.26V96.26a.26.26,0,0,0-.26-.26h0a.26.26,0,0,0-.26.26v1.766A.26.26,0,0,0,273.055,98.285Z" transform="translate(-4.912)" fill="#a151f2"/><path d="M267,102.056h0a.26.26,0,0,0,.26.26h1.766a.26.26,0,0,0,.26-.26h0a.26.26,0,0,0-.26-.26H267.26A.26.26,0,0,0,267,102.056Z" transform="translate(0 -4.913)" fill="#a151f2"/></g><g transform="translate(1187 3636)" fill="none" stroke="#c19dd8" stroke-width="1"><circle cx="2" cy="2" r="2" stroke="none"/><circle cx="2" cy="2" r="1.5" fill="none"/></g></g><g transform="translate(752.865 3074.537)"><path d="M723.37,518.321a.847.847,0,0,0-.986,1.378,25.526,25.526,0,0,1,8.32,10.034.847.847,0,0,0,.769.491.83.83,0,0,0,.356-.079.847.847,0,0,0,.413-1.124,27.249,27.249,0,0,0-8.872-10.7Z" transform="translate(-314.737 -12.663)" fill="#a85af8"/><path d="M759.787,508.8a.847.847,0,1,0,1.3-1.082l-.027-.031a30.574,30.574,0,0,0-3.58-3.484.847.847,0,0,0-1.1,1.284l.027.022A29.135,29.135,0,0,1,759.787,508.8Z" transform="translate(-345.187 0)" fill="#a859f7"/><path d="M809.423,560.522a.847.847,0,0,0-1.388.97l.224.326a.847.847,0,0,0,1.4-.948h0Z" transform="translate(-391.506 -50.222)" fill="#a445fe"/><path d="M493.631,928.105h21.593l3.6,8.775H490.032Z" transform="translate(-111.531 -380.541)" fill="url(#d)"/><g transform="matrix(1, 0, 0, 1, 352.03, 492.86)" filter="url(#f)"><path d="M22.864,0A22.864,22.864,0,1,1,0,22.864,22.864,22.864,0,0,1,22.864,0Z" transform="translate(18 12)" fill="url(#e)"/></g><path d="M436.324,546.785A22.859,22.859,0,0,1,404.712,578.4a22.864,22.864,0,1,0,31.612-31.612Z" transform="translate(-31.009 -38.256)" fill="#7f44f5"/><circle cx="19.477" cy="19.477" r="19.477" transform="translate(373.419 508.245)" fill="#ffd33f"/><path d="M530.493,545.586a19.511,19.511,0,0,0-14.909,0l7.457,18Z" transform="translate(-130.145 -35.86)" fill="#ffc888"/><path d="M426.561,558.089a19.544,19.544,0,0,0-10.545,10.545l18,7.452Z" transform="translate(-41.116 -48.363)" fill="#feda9b"/><path d="M403.513,657.705a19.509,19.509,0,0,0,0,14.908l18-7.456Z" transform="translate(-28.613 -137.435)" fill="#ffc888"/><path d="M604.029,657.662l-18,7.452,18,7.452a19.512,19.512,0,0,0,0-14.909Z" transform="translate(-193.136 -137.392)" fill="#ffc888"/><path d="M711.069,657.662l-1.907.788a22.745,22.745,0,0,1-3.418,11.914l5.325,2.2a19.511,19.511,0,0,0,0-14.909Z" transform="translate(-300.176 -137.392)" fill="#f6ba74"/><path d="M604.029,568.634a19.543,19.543,0,0,0-10.545-10.545l-7.452,18Z" transform="translate(-193.136 -48.363)" fill="#feda9b"/><path d="M735.44,622.032a19.426,19.426,0,0,0-2.44-4.223,22.931,22.931,0,0,1,.533,4.9v.111Z" transform="translate(-324.546 -101.762)" fill="#f5cb83"/><path d="M515.632,746.1a19.51,19.51,0,0,0,14.909,0l-7.457-18Z" transform="translate(-130.188 -200.383)" fill="#ffc888"/><path d="M516.42,851.235l-.788,1.907a19.51,19.51,0,0,0,14.909,0l-2.2-5.325a22.745,22.745,0,0,1-11.919,3.418Z" transform="translate(-130.188 -307.423)" fill="#f6ba74"/><path d="M593.484,746.1a19.542,19.542,0,0,0,10.545-10.545l-18-7.452Z" transform="translate(-193.136 -200.383)" fill="#feda9b"/><path d="M643.054,777.705a22.957,22.957,0,0,1-7.422,7.422l2.2,5.325a19.543,19.543,0,0,0,10.545-10.545Z" transform="translate(-237.485 -244.732)" fill="#f5cb83"/><path d="M416.016,735.557A19.542,19.542,0,0,0,426.561,746.1l7.452-18Z" transform="translate(-41.116 -200.383)" fill="#feda9b"/><path d="M480.615,875.606a22.924,22.924,0,0,1-4.9-.533,19.421,19.421,0,0,0,4.226,2.44l.788-1.907Z" transform="translate(-94.493 -331.793)" fill="#f5cb83"/><path d="M570.253,680.183l-7.245-10.331,1.945,12.075Z" transform="translate(-174.697 -153.32)" fill="#7e4af4"/><g transform="matrix(1, 0, 0, 1, 352.03, 492.86)" filter="url(#i)"><g transform="translate(35.62 29.52)" fill="url(#h)"><path d="M 5.248825550079346 9.997817039489746 C 2.630315542221069 9.997817039489746 0.4999955594539642 7.867466926574707 0.4999955594539642 5.248907089233398 C 0.4999955594539642 2.630347013473511 2.630315542221069 0.499997079372406 5.248825550079346 0.499997079372406 C 7.867335319519043 0.499997079372406 9.997655868530273 2.630347013473511 9.997655868530273 5.248907089233398 C 9.997655868530273 7.867466926574707 7.867335319519043 9.997817039489746 5.248825550079346 9.997817039489746 Z" stroke="none"/><path d="M 5.248825550079346 0.9999971389770508 C 2.906015396118164 0.9999971389770508 0.999995231628418 2.906046867370605 0.999995231628418 5.248907089233398 C 0.999995231628418 7.591767311096191 2.906015396118164 9.497817039489746 5.248825550079346 9.497817039489746 C 7.591635704040527 9.497817039489746 9.497655868530273 7.591767311096191 9.497655868530273 5.248907089233398 C 9.497655868530273 2.906046867370605 7.591635704040527 0.9999971389770508 5.248825550079346 0.9999971389770508 M 5.248825550079346 -2.86102294921875e-06 C 8.147675514221191 -2.86102294921875e-06 10.49765586853027 2.350017547607422 10.49765586853027 5.248907089233398 C 10.49765586853027 8.147796630859375 8.147675514221191 10.49781703948975 5.248825550079346 10.49781703948975 C 2.3499755859375 10.49781703948975 -4.76837158203125e-06 8.147796630859375 -4.76837158203125e-06 5.248907089233398 C -4.76837158203125e-06 2.350017547607422 2.3499755859375 -2.86102294921875e-06 5.248825550079346 -2.86102294921875e-06 Z" stroke="none" fill="#fff"/></g></g><g transform="translate(371.489 506.128)"><ellipse cx="0.603" cy="0.603" rx="0.603" ry="0.603" transform="translate(20.975 0)" fill="url(#k)"/><ellipse cx="0.583" cy="0.583" rx="0.583" ry="0.583" transform="translate(10.477 2.83)" fill="url(#k)"/><ellipse cx="0.583" cy="0.583" rx="0.583" ry="0.583" transform="translate(2.796 10.51)" fill="url(#k)"/><ellipse cx="0.557" cy="0.603" rx="0.557" ry="0.603" transform="translate(0 20.975)" fill="url(#k)"/><ellipse cx="0.583" cy="0.583" rx="0.583" ry="0.583" transform="translate(2.796 31.493)" fill="url(#k)"/><ellipse cx="0.583" cy="0.583" rx="0.583" ry="0.583" transform="translate(10.477 39.174)" fill="url(#k)"/><ellipse cx="0.603" cy="0.557" rx="0.603" ry="0.557" transform="translate(20.975 41.949)" fill="url(#k)"/><ellipse cx="0.583" cy="0.583" rx="0.583" ry="0.583" transform="translate(31.46 39.174)" fill="url(#k)"/><ellipse cx="0.583" cy="0.583" rx="0.583" ry="0.583" transform="translate(39.14 31.493)" fill="url(#k)"/><ellipse cx="0.557" cy="0.603" rx="0.557" ry="0.603" transform="translate(41.949 20.975)" fill="url(#k)"/><ellipse cx="0.583" cy="0.583" rx="0.583" ry="0.583" transform="translate(39.14 10.51)" fill="url(#k)"/><ellipse cx="0.583" cy="0.583" rx="0.583" ry="0.583" transform="translate(31.46 2.83)" fill="url(#k)"/><ellipse cx="0.603" cy="0.603" rx="0.603" ry="0.603" transform="translate(20.975 0)" fill="url(#k)"/></g><g transform="matrix(1, 0, 0, 1, 352.03, 492.86)" filter="url(#x)"><path d="M2.888,3.316a.744.744,0,0,1-.31-.209.828.828,0,0,1-.171-.347,1.986,1.986,0,0,1-.052-.48V.965A.946.946,0,0,1,2.614.248,1.036,1.036,0,0,1,3.358,0,1.013,1.013,0,0,1,4.1.248.96.96,0,0,1,4.35.965V2.28a2.068,2.068,0,0,1-.05.48.823.823,0,0,1-.167.347.729.729,0,0,1-.305.209,1.336,1.336,0,0,1-.468.071A1.354,1.354,0,0,1,2.888,3.316ZM3.214.623a.262.262,0,0,0-.079.1A.475.475,0,0,0,3.1.866a1.4,1.4,0,0,0-.008.151V2.344A1.477,1.477,0,0,0,3.1,2.5a.562.562,0,0,0,.036.151.278.278,0,0,0,.082.114.215.215,0,0,0,.142.045A.207.207,0,0,0,3.5,2.76a.27.27,0,0,0,.077-.114A.565.565,0,0,0,3.607,2.5q.006-.082.006-.151V1.017q0-.073-.006-.151a.478.478,0,0,0-.031-.14A.246.246,0,0,0,3.5.623.229.229,0,0,0,3.354.582.221.221,0,0,0,3.214.623ZM.433,3.31A.651.651,0,0,1,.18,3.092a.927.927,0,0,1-.138-.328A1.867,1.867,0,0,1,0,2.357V1.03A1.091,1.091,0,0,1,.24.25.994.994,0,0,1,.987,0a1.117,1.117,0,0,1,.736.22.882.882,0,0,1,.263.715v.241H1.251V1a.874.874,0,0,0-.042-.31A.186.186,0,0,0,1.02.582.241.241,0,0,0,.793.668a.471.471,0,0,0-.056.25v1.6A.325.325,0,0,0,.8,2.73a.258.258,0,0,0,.209.075.26.26,0,0,0,.144-.034.206.206,0,0,0,.077-.093.424.424,0,0,0,.031-.134q.006-.075.006-.153V2.137H1V1.556H2V3.314H1.5l-.033-.289H1.46A.682.682,0,0,1,1.2,3.31a.8.8,0,0,1-.381.078A.878.878,0,0,1,.433,3.31Zm4.427,0V2.573h.707V3.31Zm.163-1.039L4.843.892V.078h.736V.892L5.4,2.271Z" transform="translate(37.9 32.78)" fill="#fff"/></g></g><g transform="translate(-61.729 3444.439)"><rect width="16.995" height="15.295" transform="translate(1177.966 171.149)" fill="#a94eff"/><rect width="1.699" height="16.995" transform="translate(1194.96 178.248) rotate(90)" fill="#8618ef"/><path d="M1835.864,699.718s3.007-1.954,5.051-1.326l-.421.394.189.662a7.492,7.492,0,0,0-4.882.382Z" transform="translate(-648.784 -528.414)" fill="#bd77ff"/><path d="M1260.885,306s-.531-.064-1.322-.173c-2.1-.289-6.031-.893-6.737-1.452-1.109-.878,1.519-4.608,2.656-5.126S1260.885,306,1260.885,306Z" transform="translate(-73.974 -135.137)" fill="#a94eff"/><path d="M1831.465,166.218c.189.924-8.4,4.916-8.4,4.916s.156-.422.411-1.084h0c.928-2.416,3.164-8.023,3.9-7.945a.886.886,0,0,1,.257.076C1828.765,162.677,1831.291,165.367,1831.465,166.218Z" transform="translate(-636.235)" fill="#9227f8"/><path d="M1855.589,163c-.524.911-4.029,6.953-4.084,7.047.928-2.416,3.165-8.023,3.9-7.945a.466.466,0,0,1,.257.076C1855.8,162.277,1855.879,162.5,1855.589,163Z" transform="translate(-664.261)" fill="#a94eff"/><path d="M1272.967,586.483h0c-2.1-.289-6.031-.893-6.737-1.452-.319-.9.508-.971,1.11-1.034S1272.967,586.483,1272.967,586.483Z" transform="translate(-87.375 -415.794)" fill="#9227f8"/><path d="M1717.69,708.816s.482-1.1,1.429-1.156c.99-.063,1.552,1.156,1.552,1.156Z" transform="translate(-532.38 -537.668)" fill="#a94eff"/><rect width="16.995" height="2.549" transform="translate(1177.966 171.149)" fill="#9227f8"/><path d="M1303.837,743.012a9.428,9.428,0,0,0-4.569-.293c-2.122.658-2,3.276-2,3.276l.5-.205.674.316s.114-2.772,1.844-3.16A10.5,10.5,0,0,1,1303.837,743.012Z" transform="translate(-118.04 -572.03)" fill="#bd77ff"/><rect width="1.016" height="15.295" transform="translate(1186.781 171.149)" fill="#8618ef"/></g></g></svg>