<svg xmlns="http://www.w3.org/2000/svg" xmlns:xlink="http://www.w3.org/1999/xlink" width="1920" height="116" viewBox="0 0 1920 116"><defs><clipPath id="a"><rect width="1920" height="74" transform="translate(-537 14)" fill="#532654"/></clipPath><linearGradient id="b" x1="0.897" y1="2.198" x2="0" y2="-1.242" gradientUnits="objectBoundingBox"><stop offset="0" stop-color="#fe647c"/><stop offset="1" stop-color="#ffe6ea"/></linearGradient><filter id="c" x="1290.003" y="50.004" width="251" height="61" filterUnits="userSpaceOnUse"><feOffset dy="8" input="SourceAlpha"/><feGaussianBlur result="d"/><feFlood flood-color="#bb2e2e" flood-opacity="0.89"/><feComposite operator="in" in2="d"/><feComposite in="SourceGraphic"/></filter><clipPath id="e"><rect width="140" height="116" transform="translate(938 91.833)" fill="#fff" stroke="#707070" stroke-width="1"/></clipPath><clipPath id="f"><rect width="333" height="74" transform="translate(-122 133.477)" fill="none"/></clipPath><clipPath id="g"><path d="M20.392,25.463l1.9-10.143,4.86-1.268V7.713L24.83,2.958,17.645,0H4.438L0,2.958s1.162,6.656,2.113,7.819,5.917,7.4,5.917,7.4,2.671.074,2.882,1.237,1.192.379.875,3.126,2-.75,2-.75l7.449,5.685Z" fill="#fff"/></clipPath><clipPath id="h"><path d="M9.537,35.914,6.855,21.608,0,19.82V10.878L3.278,4.173,13.412,0H32.039L38.3,4.173S36.661,13.561,35.32,15.2s-8.345,10.431-8.345,10.431-3.767.1-4.065,1.744-1.682.534-1.235,4.409-2.822-1.058-2.822-1.058L8.345,38.745Z" fill="#fff"/></clipPath><clipPath id="i"><path d="M9.679,36.446,6.957,21.928,0,20.113V11.04L3.327,4.234,13.611,0h18.9l6.352,4.234S37.2,13.762,35.841,15.425s-8.469,10.586-8.469,10.586-3.823.107-4.126,1.77-1.706.542-1.253,4.474-2.863-1.074-2.863-1.074L8.469,39.319Z" fill="#fff"/></clipPath><clipPath id="j"><path d="M18.375,22.945l1.714-9.14,4.38-1.142V6.95l-2.1-4.284L15.9,0H4L0,2.666s1.047,6,1.9,7.045,5.332,6.665,5.332,6.665,2.407.067,2.6,1.114,1.074.341.789,2.817,1.8-.676,1.8-.676l6.712,5.123Z" fill="#fff"/></clipPath></defs><g transform="translate(521 -91.833)"><g transform="translate(16 119.833)" clip-path="url(#a)"><rect width="1920" height="74" transform="translate(-532 14)" fill="url(#b)"/><path d="M-1291.43,1393.99a136.332,136.332,0,0,1-136.332,136.332,135.742,135.742,0,0,1-87.193-31.533,102.39,102.39,0,0,1-78.772,36.864,102.485,102.485,0,0,1-85.568-45.993,136.117,136.117,0,0,1-111.963,58.545,135.831,135.831,0,0,1-56.142-12.058,102.107,102.107,0,0,1-60.409,19.667,102.579,102.579,0,0,1-102.582-102.584c0-1.118.024-2.239.058-3.349a52,52,0,0,1-37.39-49.9A51.976,51.976,0,0,1-1995.754,1348a51.785,51.785,0,0,1,37.418,15.926,102.012,102.012,0,0,1,45.169-13.158,136.32,136.32,0,0,1,121.906-75.236,135.963,135.963,0,0,1,100.637,44.368,67.872,67.872,0,0,1,44.289-16.349,67.976,67.976,0,0,1,48.91,20.685,51.983,51.983,0,0,1,51.543-45.283,51.822,51.822,0,0,1,30.947,10.2,135.748,135.748,0,0,1,87.171-31.51A136.334,136.334,0,0,1-1291.43,1393.99Z" transform="translate(1395.726 -1314.265)" fill="#f75b73"/><g transform="translate(1116.446 61.804) rotate(-66)"><g transform="translate(0 11.673)"><path d="M48.325,0A158.141,158.141,0,0,0,10.958,45.423,160.61,160.61,0,0,0,0,70.026l1.086.378A159.255,159.255,0,0,1,11.964,45.977a157.05,157.05,0,0,1,37.1-45.1Z" fill="#6e233a"/></g><g transform="translate(1.091 54.996)"><path d="M2.084.231.958,0a50.569,50.569,0,0,0,.251,20.811l1.11-.3A49.358,49.358,0,0,1,2.084.231Z" fill="#6e233a"/></g><g transform="translate(0.49 45.649)"><path d="M1.353,14.782S-2.959.258,3.811,0,1.353,14.782,1.353,14.782Z" fill="#6e233a"/></g><g transform="translate(6.771 55.951)"><path d="M14.917.788,14.081,0C9.315,5.06.092,9.549,0,9.593l.5,1.034C.885,10.44,10.008,6,14.917.788Z" fill="#6e233a"/></g><g transform="translate(16.7 49.629)"><path d="M0,10.627S6.923-3.439,10.918.794,0,10.627,0,10.627Z" fill="#6e233a"/></g><g transform="translate(13.106 35.16)"><path d="M4.9.554,3.9,0C-.376,7.771,0,17.887.016,18.313l1.147-.049C1.158,18.163.787,8.037,4.9.554Z" fill="#6e233a"/></g><g transform="translate(15.435 26.883)"><path d="M0,13.548S.312-2.582,6.581.358C11.362,2.6,0,13.548,0,13.548Z" fill="#6e233a"/></g><g transform="translate(23.936 33.451)"><path d="M12.482,0C8.547,1.926.085,3.906,0,3.925L.262,5.044c.351-.081,8.674-2.03,12.725-4.012Z" fill="#6e233a"/></g><g transform="translate(32.313 29.266)"><path d="M0,6.382s9.328-10.2,11.511-4.806S0,6.382,0,6.382Z" fill="#6e233a"/></g><g transform="translate(32.094 10.257)"><path d="M6.819.638,5.862,0A39.8,39.8,0,0,0,0,17.237l1.145.084C1.152,17.228,1.877,8.049,6.819.638Z" fill="#6e233a"/></g><g transform="translate(35.258 1.775)"><path d="M0,14.432S1.97-2.282,7.1.264,0,14.432,0,14.432Z" fill="#6e233a"/></g><g transform="translate(45.196)"><path d="M0,15.121s13.394-21,17.618-13.505C21.835,9.094,0,15.121,0,15.121Z" fill="#6e233a"/></g></g><path d="M-1267.56,1398.29A140.637,140.637,0,0,1-1408.2,1538.926a140.03,140.03,0,0,1-89.947-32.528,105.623,105.623,0,0,1-81.259,38.027,105.72,105.72,0,0,1-88.269-47.446,140.413,140.413,0,0,1-115.5,60.393,140.119,140.119,0,0,1-57.915-12.439,105.329,105.329,0,0,1-62.316,20.287,105.817,105.817,0,0,1-105.82-105.823c0-1.154.025-2.31.06-3.455a53.641,53.641,0,0,1-38.571-51.47,53.616,53.616,0,0,1,53.608-53.617,53.421,53.421,0,0,1,38.6,16.429,105.232,105.232,0,0,1,46.6-13.573,140.624,140.624,0,0,1,125.754-77.611,140.254,140.254,0,0,1,103.814,45.769A70.014,70.014,0,0,1-1633.66,1305a70.121,70.121,0,0,1,50.454,21.338,53.624,53.624,0,0,1,53.17-46.713,53.458,53.458,0,0,1,31.924,10.527,140.035,140.035,0,0,1,89.923-32.5,140.636,140.636,0,0,1,140.629,140.629Z" transform="translate(3053.215 -1112.618) rotate(7)" fill="#f75b73"/><g transform="translate(1221.759 50.932) rotate(-6)"><g transform="translate(0 7.647)"><path d="M31.656,0A103.6,103.6,0,0,0,7.178,29.755,105.213,105.213,0,0,0,0,45.873l.711.247a104.323,104.323,0,0,1,7.126-16A102.88,102.88,0,0,1,32.139.577Z" fill="#6e233a"/></g><g transform="translate(0.715 36.027)"><path d="M1.365.151.627,0A33.127,33.127,0,0,0,.792,13.633l.727-.193A32.333,32.333,0,0,1,1.365.151Z" fill="#6e233a"/></g><g transform="translate(0.321 29.904)"><path d="M.886,9.684S-1.938.169,2.5,0,.886,9.684.886,9.684Z" fill="#6e233a"/></g><g transform="translate(4.436 36.652)"><path d="M9.772.516,9.224,0C6.1,3.315.06,6.255,0,6.284l.327.678C.579,6.839,6.556,3.931,9.772.516Z" fill="#6e233a"/></g><g transform="translate(10.94 32.511)"><path d="M0,6.961S4.535-2.253,7.152.52,0,6.961,0,6.961Z" fill="#6e233a"/></g><g transform="translate(8.585 23.033)"><path d="M3.212.363,2.553,0C-.246,5.09,0,11.717.01,12l.751-.032C.759,11.9.516,5.265,3.212.363Z" fill="#6e233a"/></g><g transform="translate(10.111 17.61)"><path d="M0,8.875S.2-1.692,4.311.235C7.443,1.7,0,8.875,0,8.875Z" fill="#6e233a"/></g><g transform="translate(15.68 21.913)"><path d="M8.177,0A53.025,53.025,0,0,1,0,2.571L.171,3.3A52.711,52.711,0,0,0,8.507.676Z" fill="#6e233a"/></g><g transform="translate(21.167 19.171)"><path d="M0,4.181S6.111-2.5,7.541,1.032,0,4.181,0,4.181Z" fill="#6e233a"/></g><g transform="translate(21.024 6.719)"><path d="M4.467.418,3.84,0A26.07,26.07,0,0,0,0,11.292l.75.055A25.8,25.8,0,0,1,4.467.418Z" fill="#6e233a"/></g><g transform="translate(23.097 1.163)"><path d="M0,9.454S1.291-1.5,4.654.173,0,9.454,0,9.454Z" fill="#6e233a"/></g><g transform="translate(29.607)"><path d="M0,9.9S8.774-3.85,11.541,1.058,0,9.9,0,9.9Z" fill="#6e233a"/></g></g><path d="M668.67,182.579A97.894,97.894,0,0,0,548.458,87.35a133.183,133.183,0,0,0-257.211,29.38,97.919,97.919,0,0,0-109.37,32.843A73.675,73.675,0,0,0,95.123,195.22a48.922,48.922,0,1,0-3.358,39.538,73.636,73.636,0,0,0,106.956,51.188,97.871,97.871,0,0,0,79.115,19.337,68.707,68.707,0,0,0,131,8.331q3.406.317,6.9.318A73.6,73.6,0,0,0,488.8,249.164q3.464-1.97,6.8-4.122a97.8,97.8,0,0,0,173.07-62.463Z" transform="translate(1480.642 359.831) rotate(174)" fill="#fc97a7"/><path d="M49.894,34.583s-3.178,6.831-7.789,10.78a34.539,34.539,0,0,1-9.5,5.48,26.053,26.053,0,0,1-2.761,2.793c5.784,14.261,4.642,17.077,4.325,17.516l-.951-.68a.133.133,0,0,0-.018.024c.119-.312,1.049-3.592-5.654-19.344a30.459,30.459,0,0,0-3.947-1.78,35.061,35.061,0,0,1-11.633-.232C6.037,47.853,0,43.346,0,43.346A17.521,17.521,0,0,1,11.975,40.8c5.614.888,10.179,6,11.656,7.837,1.156.449,2.492,1,3.475,1.484a96.665,96.665,0,0,1-4.351-12.328,8.107,8.107,0,0,1-5.634-3.427,32.967,32.967,0,0,1-9.364-5.741c-4.2-3.868-6.95-10.4-6.95-10.4A16.473,16.473,0,0,1,11.731,21.86c4.046,3.322,5.348,9.449,5.706,11.759a7.444,7.444,0,0,0,5.118,3.436,93.031,93.031,0,0,1-2.7-14.1c-1.33-2.625-3.524-7.95-2.4-12.807A17.52,17.52,0,0,1,24.3,0s1.919,7.285.891,13.267a34.885,34.885,0,0,1-4.038,10.7,93.057,93.057,0,0,0,3.2,15.16,34.363,34.363,0,0,0,1.569-3.185c-.233-1.538-.993-8,2-12.333a15.146,15.146,0,0,1,8.732-5.971S35.873,24.1,33.142,28.58a29.783,29.783,0,0,1-6.3,7.022,33.048,33.048,0,0,1-2.214,4.416,94.5,94.5,0,0,0,3.565,9.671q.741,1.72,1.375,3.263A22.4,22.4,0,0,0,31.5,51.035h0c.223-1.432,1.64-9.2,6.649-13.014a17.517,17.517,0,0,1,11.745-3.438Z" transform="matrix(0.719, 0.695, -0.695, 0.719, 1320.318, 13.865)" fill="#ffd599"/><g transform="translate(1160.831 34.254)"><path d="M-289.421,297.314a21.782,21.782,0,0,1,5.368-6.513c2.282-1.678,5.369-2.508,8-1.47,4.127,1.626,5.427,6.8,5.579,11.236a52.027,52.027,0,0,1-9.072,31.044,50.8,50.8,0,0,1,17.52-16.719c2.678-1.534,5.867-2.849,8.779-1.826,3.241,1.138,4.941,4.944,4.645,8.365s-2.154,6.5-4.183,9.271a65.123,65.123,0,0,1-23.857,19.956,32.089,32.089,0,0,1-12.529,3.651c-5.64.243-11.308-2.008-14.138-7.078-2.609-4.677-1.161-7.967.119-12.706C-299.632,321.38-296.59,309.135-289.421,297.314Z" transform="translate(304.758 -288.873)" fill="#a354d2"/><g transform="translate(6.948 8.455)"><line x1="19.692" y2="47.367" fill="none" stroke="#fff" stroke-miterlimit="10" stroke-width="1"/><line x1="32.997" y2="25.489" transform="translate(9.846 24.272)" fill="none" stroke="#fff" stroke-miterlimit="10" stroke-width="1"/><line y1="7.963" x2="7.632" transform="translate(15.386 2.395)" fill="none" stroke="#fff" stroke-miterlimit="10" stroke-width="0.75"/><line y1="12.961" x2="1.469" transform="translate(13.916 0.931)" fill="none" stroke="#fff" stroke-miterlimit="10" stroke-width="0.75"/><line y1="9.05" x2="11.569" transform="translate(11.449 10.777)" fill="none" stroke="#fff" stroke-miterlimit="10" stroke-width="0.75"/><line y1="19.028" x2="0.661" transform="translate(7.854 9.447)" fill="none" stroke="#fff" stroke-miterlimit="10" stroke-width="0.75"/><line y1="11.302" x2="13.58" transform="translate(3.654 27.276)" fill="none" stroke="#fff" stroke-miterlimit="10" stroke-width="0.75"/><path d="M-241.737,353.127c.169-.406.677-19.687.677-19.687" transform="translate(242.79 -308.293)" fill="none" stroke="#fff" stroke-miterlimit="10" stroke-width="0.75"/><line y1="9.809" x2="4.417" transform="translate(35.898 19.827)" fill="none" stroke="#fff" stroke-miterlimit="10" stroke-width="0.75"/><line y1="2.732" x2="11.014" transform="translate(32.361 29.637)" fill="none" stroke="#fff" stroke-miterlimit="10" stroke-width="0.75"/><line y1="11.205" x2="4.391" transform="translate(26.344 25.812)" fill="none" stroke="#fff" stroke-miterlimit="10" stroke-width="0.75"/><line y1="2.635" x2="13.548" transform="translate(20.912 38.578)" fill="none" stroke="#fff" stroke-miterlimit="10" stroke-width="0.75"/><line y1="9.033" x2="3.577" transform="translate(14.651 37.017)" fill="none" stroke="#fff" stroke-miterlimit="10" stroke-width="0.75"/><line y1="2.1" x2="12.682" transform="translate(11.933 46.05)" fill="none" stroke="#fff" stroke-miterlimit="10" stroke-width="0.75"/></g></g><g transform="translate(1349.911 43.726) rotate(15.009)"><path d="M33.221,26.976c0,10.249-7.437,17.406-16.61,17.406S0,37.226,0,26.976,7.437,0,16.61,0,33.221,16.727,33.221,26.976Z" fill="#cb93ec"/><g transform="translate(0.001)"><path d="M1.807.033C-.04.244-.5.815.554,1.6A20.338,20.338,0,0,0,4.622,3.5c4.782,1.931,7.77,3.228,8.949,4.95-.4-.661-.815-1.3-1.247-1.907a23.731,23.731,0,0,0-2.083-2.555C9.231,3.046,7.6,2.4,4.322,1.3,2.45.67,1.9.477,1.732.22,1.769.109,1.8,0,2.514,0h0q-.355,0-.707.033" transform="translate(14.094)" fill="#fff"/><path d="M.775.738c-2.419,1.493,1.219,2.976,5.5,4.491,6.1,2.16,10.173,3.713,11.2,5.542q-.319-.648-.659-1.278C15.7,7.8,12.941,6.528,7.18,4.32,3.361,2.855-.968,1.2,2.463,0A9.823,9.823,0,0,0,.775.738" transform="translate(11.678 0.402)" fill="#7d26b0"/><path d="M.15,3.025c-.96,2.493,2.6,4.736,12.7,8,10.281,3.322,15.246,5.289,15.659,7.484q-.054-.749-.153-1.529a35.476,35.476,0,0,0-.629-3.5q-.1-.433-.211-.868c-.716-1.75-4.275-3.32-14.1-6.221C6.88,4.468.618,2.385,2.012,0A32.411,32.411,0,0,0,.15,3.025" transform="translate(4.642 6.75)" fill="#fff"/><path d="M.039,2.272c-.494,2.374,3.7,4.487,14.948,7.537,10,2.71,15.434,4.532,15.531,6.4q.035-.6.036-1.226v-.077c-.357-2.082-5.456-3.954-16.037-7.12C4.125,4.673.212,2.419,1.01,0,.665.745.341,1.5.039,2.272" transform="translate(2.665 11.998)" fill="#7d26b0"/><path d="M0,3.366v.262c.4,1.891,3.23,3.74,16.048,7.113,7.044,1.853,13.75,3.824,11.707,5.751q.3-.281.6-.579a16.263,16.263,0,0,0,1.66-1.992,16.669,16.669,0,0,0,1.1-1.788c.52-1.554-3.252-3.03-13.92-5.445S.326,2.4.233,0A26.2,26.2,0,0,0,0,3.366" transform="translate(0 23.61)" fill="#fff"/><path d="M.288,1.824C1.1,3.675,5.082,5.183,16.077,7.8c7.36,1.753,11.55,3.13,9.7,4.575q.265-.18.523-.37.172-.127.34-.258c1.782-1.631-2.524-3.122-10.564-5.148C6.72,4.244.407,2.22,0,0A18.251,18.251,0,0,0,.288,1.824" transform="translate(0.12 29.2)" fill="#7d26b0"/><path d="M2.469,2.431C3.73,3.27,5.642,3.88,10.338,4.939a13.226,13.226,0,0,1,3.145.838l-.025.081a2.259,2.259,0,0,1-.756.073,17.243,17.243,0,0,0,2.376-.163c.583-.089,1.947-.3,1.36-.779s-2.72-.942-5.426-1.529C4.547,2.056,1.25,1.18,0,0A16.125,16.125,0,0,0,2.469,2.431" transform="translate(3.905 38.452)" fill="#7d26b0"/><path d="M1.7.9c2.228.894,4.645.9,6.941,1.471l-.022.006a2.276,2.276,0,0,0,.233-.014l.023-.042A14.24,14.24,0,0,0,6.888,1.88C3.447,1.209,1.33.711,0,0A16.073,16.073,0,0,0,1.695.9" transform="translate(7.994 42.009)" fill="#903dc1"/></g></g><path d="M102.122,1056.17A154.918,154.918,0,0,1-52.8,1211.09,155.538,155.538,0,0,1-88.281,1207a210.975,210.975,0,0,1-198.085,138.354,210,210,0,0,1-129.714-44.6,108.553,108.553,0,0,1-79.508,34.527,108.8,108.8,0,0,1-108.8-108.788,108.238,108.238,0,0,1,19.7-62.448,155.264,155.264,0,0,1-100.246-81.2,77.167,77.167,0,0,1-28.478,5.409,77.46,77.46,0,0,1-77.465-77.456,77.461,77.461,0,0,1,77.466-77.456,77.14,77.14,0,0,1,31.2,6.538,153.7,153.7,0,0,1,11.366-17.828,115.831,115.831,0,0,1-1.63-19.488A116.575,116.575,0,0,1-555.914,786,116.547,116.547,0,0,1-439.35,901.8a154.952,154.952,0,0,1,37.65,56.063A210.138,210.138,0,0,1-335.033,929.2a116.192,116.192,0,0,1,84.977-36.782,116.383,116.383,0,0,1,94.289,48.027,154.266,154.266,0,0,1,102.974-39.19,154.918,154.918,0,0,1,154.915,154.912Z" transform="translate(-1117.657 1202.619) rotate(-162)" fill="#f75b73"/><g transform="matrix(-0.934, -0.358, 0.358, -0.934, -277.436, 84.335)"><path d="M32.436,47.256A106.145,106.145,0,0,1,7.355,16.768,107.8,107.8,0,0,1,0,.254L.729,0a106.892,106.892,0,0,0,7.3,16.4,105.413,105.413,0,0,0,24.9,30.269Z" fill="#6e233a"/><g transform="translate(0.732 4.208)"><path d="M1.4,13.813l-.756.155A33.943,33.943,0,0,1,.811,0l.745.2A33.129,33.129,0,0,0,1.4,13.813Z" fill="#6e233a"/></g><g transform="translate(0.329 14.529)"><path d="M.908,0s-2.894,9.749,1.65,9.92S.908,0,.908,0Z" fill="#6e233a"/></g><g transform="translate(4.545 10.403)"><path d="M10.013,6.6l-.562.529C6.253,3.737.062.724,0,.694L.335,0C.594.126,6.718,3.106,10.013,6.6Z" fill="#6e233a"/></g><g transform="translate(11.209 14.647)"><path d="M0,0S4.647,9.441,7.328,6.6,0,0,0,0Z" fill="#6e233a"/></g><g transform="translate(8.797 19.198)"><path d="M3.291,11.92l-.675.372C-.252,7.076,0,.286.011,0l.77.033C.777.1.529,6.9,3.291,11.92Z" fill="#6e233a"/></g><g transform="translate(10.36 27.953)"><path d="M0,0S.209,10.827,4.417,8.853C7.626,7.349,0,0,0,0Z" fill="#6e233a"/></g><g transform="translate(16.066 29.252)"><path d="M8.378,3.386A54.329,54.329,0,0,0,0,.751L.176,0A54.011,54.011,0,0,1,8.717,2.693Z" fill="#6e233a"/></g><g transform="translate(21.688 31.151)"><path d="M0,.013S6.261,6.862,7.726,3.239,0,.013,0,.013Z" fill="#6e233a"/></g><g transform="translate(21.542 36.58)"><path d="M4.577,11.2l-.642.428A26.712,26.712,0,0,1,0,.056L.768,0A26.436,26.436,0,0,0,4.577,11.2Z" fill="#6e233a"/></g><g transform="translate(23.665 44.212)"><path d="M0,0S1.322,11.219,4.769,9.509,0,0,0,0Z" fill="#6e233a"/></g><g transform="translate(30.336 44.941)"><path d="M0,0S8.99,14.094,11.826,9.065,0,0,0,0Z" fill="#6e233a"/></g></g><g transform="translate(1124.774 113.554) rotate(175.988)"><g transform="translate(18.734)"><path d="M0,85.447c7.084-3.716,13-10.679,17.571-20.7C19.6,60.313,21.249,55.63,22.848,51.1c1.438-4.076,2.925-8.29,4.683-12.322A91.79,91.79,0,0,1,59.4,0l.29.417A91.278,91.278,0,0,0,28,38.984C26.25,43,24.765,47.2,23.33,51.271c-1.6,4.54-3.259,9.233-5.3,13.688C13.41,75.083,7.422,82.128.236,85.9Z" fill="#fff"/></g><g transform="translate(38.08 28.7)"><path d="M13.725.238C13.661.317,7.132,8.286.052,9.28L0,8.91C6.933,7.934,13.371.081,13.435,0Z" fill="#fff"/></g><g transform="translate(45.553 40.561)"><path d="M.413.024C.407.109-.112,8.631,2.655,13.855l-.332.173C-.488,8.715.036.084.042,0Z" fill="#fff"/></g><g transform="translate(43.172 49.427)"><path d="M8.11,6.775A16.016,16.016,0,0,1,7,15.493a36.616,36.616,0,0,1-4.469,7.676c.8-3.52-1.281-6.973-2.123-10.484A15.663,15.663,0,0,1,1.022,3.57C1.395,2.591,2.09.388,3.226.046s2.353,1.348,2.928,2.13a11.154,11.154,0,0,1,1.956,4.6Z" fill="#fff"/></g><g transform="translate(20.395 34.408)"><path d="M16.229.384C13.5,1,11,2.23,8.209,3.052,5.5,3.852,2.414,4.073,0,2.61A14.619,14.619,0,0,0,12.491,8.8,14.79,14.79,0,0,0,23.222,3.181C25.3.541,21.842.064,19.869.006a14.4,14.4,0,0,0-3.64.378Z" fill="#fff"/></g><g transform="translate(27.809 55.581)"><path d="M12.565.206C12.515.286,7.29,8.055.091,9.837L0,9.474C7.061,7.728,12.2.078,12.253,0Z" fill="#fff"/></g><g transform="translate(11.647 61.377)"><path d="M11.159,9.713A13.319,13.319,0,0,1,0,6.119a3.688,3.688,0,0,0,3.94.794A8.74,8.74,0,0,0,7.331,4.4a20.913,20.913,0,0,1,3.025-3c2.315-1.655,6.284-2.013,8.616-.152,2.813,2.247-.779,5.259-2.737,6.52a13.1,13.1,0,0,1-5.076,1.945Z" fill="#fff"/></g><g transform="translate(33.227 68.955)"><path d="M1.422.1C1.4.175-.638,7.365,1.044,10.9l-.336.16C-1.034,7.41.977.3,1.062,0Z" fill="#fff"/></g><g transform="translate(31.251 77.061)"><path d="M7.743,3.963A19.542,19.542,0,0,1,8.9,10.414a14.005,14.005,0,0,0,1.574,6.333A13.731,13.731,0,0,1,.834,8.7,9.71,9.71,0,0,1,.06,3.833c.2-1.593,1.075-4.16,3.1-3.8a6.716,6.716,0,0,1,4.583,3.93Z" fill="#fff"/></g><g transform="translate(0 81.112)"><path d="M18,9.042a16.377,16.377,0,0,1-9.033,1.493A35.958,35.958,0,0,1,0,8.239c1.937.9,4.28.271,6.069-.9A49.58,49.58,0,0,0,10.891,3.13a12.691,12.691,0,0,1,5.7-2.99c2.1-.411,6.046-.049,6.425,2.7C23.373,5.472,20,8.009,18,9.042Z" fill="#fff"/></g></g><path d="M-1733.86-36.831a64.2,64.2,0,0,0,64.2,64.2A63.958,63.958,0,0,0-1626.4,10.6a87.411,87.411,0,0,0,83.179,60.543A86.878,86.878,0,0,0-1516.61,67a44.9,44.9,0,0,0,30.425,11.818,45.075,45.075,0,0,0,45.08-45.086,44.831,44.831,0,0,0-8.164-25.87,64.354,64.354,0,0,0,41.542-33.637,32.081,32.081,0,0,0,11.808,2.241,32.09,32.09,0,0,0,32.089-32.1,32.1,32.1,0,0,0-32.09-32.1,31.986,31.986,0,0,0-12.923,2.712,64.183,64.183,0,0,0-56.389-33.493,63.905,63.905,0,0,0-18.2,2.625A48.181,48.181,0,0,0-1518.521-131a48.312,48.312,0,0,0-44.551,29.62c-1.519.344-3.019.739-4.5,1.171a48.122,48.122,0,0,0-20.347-4.481A48.213,48.213,0,0,0-1627-84.776a63.911,63.911,0,0,0-42.667-16.242,64.191,64.191,0,0,0-64.193,64.19Z" transform="translate(1159.458 181.991)" fill="#fc97a7"/><g transform="translate(-209.919 45.26) rotate(13)"><path d="M34.378,27.916c0,10.606-7.7,18.012-17.189,18.012S0,38.522,0,27.916,7.7,0,17.189,0,34.378,17.31,34.378,27.916Z" fill="#7d26b0"/><g transform="translate(0.266)"><path d="M1.556.041A2.982,2.982,0,0,0,0,.567C.032.609.186.567.633.393A4.292,4.292,0,0,1,2.229,0a5.776,5.776,0,0,0-.673.041" transform="translate(14.751)" fill="#cb93ec"/><path d="M1.6,1.781C.666,2.622-.08,3.53.007,3.724c.111.034.383-.137.809-.51S4.2.075,4.242.024L4.234,0a3.7,3.7,0,0,0-.8.406A12.526,12.526,0,0,0,1.6,1.781" transform="translate(8.619 1.192)" fill="#cb93ec"/><path d="M.15.951C-.265,1.827.243,2.49.914,2.3,2.036,1.976,1.7.278,1.24.023,1.167-.021,1.069-.01.806.17A2.125,2.125,0,0,0,.15.951" transform="translate(15.664 0.144)" fill="#cb93ec"/><path d="M.374,2.559c-.845,1.819-.15,2.83.991,2.352C3.372,4.068,4.08.449,3.129.039c-.445-.191-1.1.378-1.347.592A6.4,6.4,0,0,0,.374,2.559" transform="translate(10.082 3.529)" fill="#cb93ec"/><path d="M.441,3.448C-.288,5.419-.093,6.724.877,6.357c1.86-.7,3.329-5.665,2.293-6.3C2.714-.222,2.055.593,1.807.9A10.128,10.128,0,0,0,.441,3.448" transform="translate(3.569 10.171)" fill="#cb93ec"/><path d="M0,6.271a.429.429,0,0,0,.013.192H.068C.764,5.7,1.7.73,1.416,0H1.368a.714.714,0,0,0-.093.2A38.739,38.739,0,0,0,0,6.271" transform="translate(0 18.417)" fill="#cb93ec"/><path d="M.556,2.052C1.544,3.98,3.006,4.618,3.3,3.9,3.806,2.617.776-.362.107.036-.024.114,0,.322.011.489A5.519,5.519,0,0,0,.556,2.052" transform="translate(20.017 1.792)" fill="#cb93ec"/><path d="M.014,3.2C.232,5.843,2.9,6.877,4.073,5.331,5.53,3.416,3.591-.237,1.782.012A1.859,1.859,0,0,0,.609.82a3.771,3.771,0,0,0-.6,2.38" transform="translate(17.132 7.425)" fill="#cb93ec"/><path d="M.006,3.636C-.141,6.492,2.555,7.444,4.359,5.884,6.518,4.018,5.439.287,3.234.015A2.606,2.606,0,0,0,1.086.968,4.529,4.529,0,0,0,.006,3.636" transform="translate(10.011 15.258)" fill="#cb93ec"/><path d="M0,3.395C.066,5.617,1.865,7.242,3.4,5.756,5.5,3.717,4.4,0,2.3,0A2.051,2.051,0,0,0,.719.922,4.118,4.118,0,0,0,0,3.4" transform="translate(3.407 23.632)" fill="#cb93ec"/><path d="M.577,3.432c.789,1.925,2.031,3.113,2.331,2.23C3.458,4.043,1.27-.61.278.067.028.238.011.688,0,.958A6.882,6.882,0,0,0,.577,3.432" transform="translate(0.879 31.788)" fill="#cb93ec"/><path d="M.3,3.526C1.074,6,2.883,7.2,3.522,6.141,4.45,4.606,2.184-.317.7.016.267.114.129.662.062.925A5.631,5.631,0,0,0,.3,3.526" transform="translate(26.337 11.483)" fill="#cb93ec"/><path d="M.032,3.573C.4,6.368,3.519,7.222,4.866,5.488,6.4,3.516,4.618-.269,2.292.015A2.475,2.475,0,0,0,.715.967,3.569,3.569,0,0,0,.032,3.573" transform="translate(21.444 19.816)" fill="#cb93ec"/><path d="M.028,3.709A3.159,3.159,0,0,0,5.587,5.44,3.3,3.3,0,0,0,2.83.016,3.2,3.2,0,0,0,.869.963,3.567,3.567,0,0,0,.028,3.709" transform="translate(13.483 27.835)" fill="#cb93ec"/><path d="M.351,2.957C1.394,4.966,3.929,5.9,4.587,4.042,5.351,1.884,2.628-.82.753.236A1.437,1.437,0,0,0,.171.852a2.3,2.3,0,0,0,.18,2.105" transform="translate(8.106 36.001)" fill="#cb93ec"/><path d="M.847,3.169c.384,1.51.515,2.036.6,2.491q-.165-.918-.381-1.86C.782,2.569.432,1.318.023.071L0,0C.057.178.07.221.152.5c.168.6.272,1,.7,2.666" transform="translate(32.227 17.137)" fill="#cb93ec"/><path d="M0,3.436c.058,1.99.784,3.651,1.547,2.751C2.679,4.858,2.427,0,1.23,0,.793,0,.5.628.381.9A6.349,6.349,0,0,0,0,3.436" transform="translate(31.571 24.968)" fill="#cb93ec"/><path d="M.061,3.28c-.33,1.827.7,3.1,2.374,1.985C4.594,3.825,5.143.292,3.252.015a2.6,2.6,0,0,0-1.985.9A4.768,4.768,0,0,0,.061,3.28" transform="translate(25.043 33.168)" fill="#cb93ec"/><path d="M0,2.258c-.03,1.581,1.647,2.1,3.253.5C4.511,1.5,4.136,0,2.56,0A2.819,2.819,0,0,0,.829.652,2.259,2.259,0,0,0,0,2.258" transform="translate(17.966 40.152)" fill="#cb93ec"/><path d="M.587.981a2.934,2.934,0,0,0,1.186.332c.02-.094.067-.18.078-.276A.646.646,0,0,0,1.835.783.927.927,0,0,0,1.506.321,1.388,1.388,0,0,0,.176.084.3.3,0,0,0,0,.321c0,.089.014.36.587.66" transform="translate(15.084 44.595)" fill="#cb93ec"/><path d="M1.4,2.753C.163,4.356,0,4.567,0,4.672c.046,0,.132,0,.663-.493q.263-.246.515-.5A16.869,16.869,0,0,0,2.9,1.613q.326-.462.625-.949c.318-.526.307-.609.3-.659-.094-.049-.4.272-.834.768-.409.482-.719.864-1.582,1.979" transform="translate(27.957 37.225)" fill="#cb93ec"/><path d="M1.419,1.6A14.366,14.366,0,0,0,0,2.46v.028C.937,2.594,5.089.72,4.749.073c-.054-.1-.318-.187-1.48.412-.548.3-.621.345-1.85,1.119" transform="translate(20.555 42.9)" fill="#cb93ec"/><path d="M0,.2A3.676,3.676,0,0,0,1.4.018V.008A2.424,2.424,0,0,0,.693.113,3.46,3.46,0,0,1,0,.2" transform="translate(16.981 45.726)" fill="#cb93ec"/></g></g><path d="M-1202.38,261.9s-3.484,7.49-8.541,11.82a37.871,37.871,0,0,1-10.414,6.009,28.556,28.556,0,0,1-3.027,3.063c6.342,15.636,5.089,18.725,4.742,19.206l-1.042-.745a.147.147,0,0,0-.02.026c.131-.342,1.15-3.938-6.2-21.21a33.4,33.4,0,0,0-4.328-1.951,38.443,38.443,0,0,1-12.755-.255c-6.5-1.413-13.124-6.355-13.124-6.355a19.212,19.212,0,0,1,13.13-2.792c6.156.974,11.161,6.58,12.78,8.593,1.267.493,2.733,1.091,3.81,1.627a106,106,0,0,1-4.77-13.517,8.889,8.889,0,0,1-6.178-3.757,36.148,36.148,0,0,1-10.267-6.3c-4.6-4.241-7.621-11.4-7.621-11.4a18.062,18.062,0,0,1,11.978,3.985c4.437,3.643,5.864,10.36,6.256,12.894a8.162,8.162,0,0,0,5.611,3.768,102.018,102.018,0,0,1-2.957-15.461c-1.459-2.879-3.864-8.716-2.636-14.042a19.21,19.21,0,0,1,7.507-11.128s2.1,7.988.977,14.547a38.249,38.249,0,0,1-4.428,11.733,102.03,102.03,0,0,0,3.514,16.622,37.6,37.6,0,0,0,1.72-3.492c-.256-1.687-1.089-8.776,2.188-13.522a16.606,16.606,0,0,1,9.575-6.547s-.856,7.087-3.851,12a32.658,32.658,0,0,1-6.907,7.7,36.255,36.255,0,0,1-2.427,4.842,103.662,103.662,0,0,0,3.909,10.6q.812,1.886,1.508,3.577a24.587,24.587,0,0,0,2.113-2.1h0c.244-1.57,1.8-10.086,7.291-14.27a19.207,19.207,0,0,1,12.884-3.768Z" transform="translate(768.908 -206.32)" fill="#ffd599"/><path d="M-1026,49.14a122.811,122.811,0,0,1-122.807,122.809,122.352,122.352,0,0,1-82.764-32.083,167.218,167.218,0,0,1-159.119,115.82,166.2,166.2,0,0,1-50.9-7.911,85.894,85.894,0,0,1-58.2,22.609,86.23,86.23,0,0,1-86.239-86.25,85.765,85.765,0,0,1,15.619-49.489A123.11,123.11,0,0,1-1649.88,70.3a61.368,61.368,0,0,1-22.589,4.286,61.388,61.388,0,0,1-61.386-61.4,61.4,61.4,0,0,1,61.389-61.4,61.19,61.19,0,0,1,24.72,5.188A122.783,122.783,0,0,1-1539.874-107.1a122.256,122.256,0,0,1,34.822,5.022,92.17,92.17,0,0,1,67.126-28.9A92.421,92.421,0,0,1-1352.7-74.317c2.906.657,5.775,1.413,8.609,2.24a92.059,92.059,0,0,1,38.925-8.573c30.738,0,60.745,3.3,77.521,26.373,21.689-19.334,47.514-19.365,78.842-19.365A122.8,122.8,0,0,1-1026,49.142Z" transform="translate(1554.279 35.923)" fill="#fed2d9"/><path d="M-1733.86-44.5A58.966,58.966,0,0,0-1674.9,14.466a58.746,58.746,0,0,0,39.738-15.4,80.288,80.288,0,0,0,76.4,55.609,79.8,79.8,0,0,0,24.44-3.8,41.242,41.242,0,0,0,27.946,10.855,41.4,41.4,0,0,0,41.407-41.414,41.178,41.178,0,0,0-7.5-23.761,59.11,59.11,0,0,0,38.157-30.9,29.467,29.467,0,0,0,10.846,2.058,29.475,29.475,0,0,0,29.474-29.481,29.482,29.482,0,0,0-29.476-29.483,29.38,29.38,0,0,0-11.868,2.491,58.953,58.953,0,0,0-51.794-30.764,58.7,58.7,0,0,0-16.719,2.411,44.255,44.255,0,0,0-32.23-13.876,44.376,44.376,0,0,0-40.922,27.2c-1.4.314-2.772.676-4.132,1.073a44.2,44.2,0,0,0-18.689-4.116A44.284,44.284,0,0,0-1635.7-88.542a58.7,58.7,0,0,0-39.19-14.919,58.961,58.961,0,0,0-58.97,58.972Z" transform="translate(1288.217 -13.289) rotate(-8)" fill="#fff"/><g transform="translate(-308.256 9.992)"><g transform="translate(0 12.627)"><path d="M-1364.41,1015.79s-8.154-20.663-12.746-21.691-8.312,3.167-4.829,8.55c3.131,4.839,15.517,16.308,15.517,16.308Z" transform="translate(1438.906 -993.822)" fill="#fff"/><path d="M-1363.81,1015.59l-2.059,3.166s-1.5-1.385-3.58-3.394c-3.907-3.778-9.892-9.756-11.938-12.909-3.481-5.385.241-9.583,4.829-8.55,3.579.8,9.329,13.533,11.679,19.11C-1364.21,1014.59-1363.81,1015.59-1363.81,1015.59Z" transform="translate(1438.68 -993.748)" fill="#fff"/><path d="M-1355.6,1027.49l-2.059,3.165s-1.5-1.385-3.579-3.394a11.168,11.168,0,0,1,4.569-2.349C-1355.99,1026.49-1355.6,1027.49-1355.6,1027.49Z" transform="translate(1430.463 -1005.645)" fill="#f75b73" opacity="0.2"/><path d="M-1433.64,1114.76s-.594.661-1.669,1.626a31.5,31.5,0,0,1-9.125,5.737c-6.43,2.523-8.618,1.564-9.812,4.835s-.76,6.894-2.634,6.306c-1.02-.315-2.665-2.226-3.635-4.723a9.55,9.55,0,0,1-.272-6.931c1.972-5.057,10.825-8.526,11.827-8.921s4.637-2.473,6.09-2.553a33.681,33.681,0,0,0,5-1.131Z" transform="translate(1468.67 -1037.746)" fill="#fff"/><path d="M-1433.64,1114.76s-.594.661-1.669,1.626a39.206,39.206,0,0,1-3.363,2.207s-7.728,4.569-14.924,4.668c-3.178.043-5.762,2.374-6.918,5.28a9.55,9.55,0,0,1-.272-6.931c1.972-5.057,10.825-8.526,11.827-8.921s4.637-2.473,6.09-2.553a33.679,33.679,0,0,0,5-1.131Z" transform="translate(1468.67 -1037.746)" fill="#f75b73" opacity="0.2"/><path d="M-1329.54,1077.38c-2.25,2.4-4.464,3.975-6.745,3.2-1.5-.513-6.034.563-10.937,2.176-2.349.767-4.785,1.663-7,2.56-.21.087-.42.173-.625.26-6.931,2.875-1.6-4.847,2.992-7.1h.012c.21-.037,3.029-.488,6.485-1.119,4.767-.865,10.745-2.059,12.742-2.931C-1329.11,1072.89-1327.29,1074.98-1329.54,1077.38Z" transform="translate(1429.296 -1024.346)" fill="#fff"/><path d="M-1343.42,1079.48a10.549,10.549,0,0,1-1.861,5.4c-2.349.767-4.785,1.663-7,2.56l-.81-3.889,3.19-2.949C-1349.7,1080.56-1346.88,1080.11-1343.42,1079.48Z" transform="translate(1427.356 -1026.477)" fill="#f75b73" opacity="0.2"/><path d="M-1434.71,1072.67a18.72,18.72,0,0,1-.284,2.931,4.083,4.083,0,0,1-2.658,3.153c-1.688.587-5.416-.049-7.654-2.331a6.137,6.137,0,0,1-1.731-3.444c-.748-5.045,5.657-11.116,9.62-8.1C-1435.06,1066.68-1434.65,1070.16-1434.71,1072.67Z" transform="translate(1463.243 -1020.595)" fill="#fff"/><path d="M-1433.61,1077.98a18.735,18.735,0,0,1-.284,2.93,4.083,4.083,0,0,1-2.659,3.153c-1.688.587-5.416-.049-7.654-2.331,1.28.513,5.28,1.564,9.83-3.042C-1434.12,1078.43-1433.86,1078.19-1433.61,1077.98Z" transform="translate(1462.137 -1025.904)" fill="#f75b73" opacity="0.2"/><path d="M-1372.06,1074.98c-2.7,1.737-4.989,2.807-9.051,1.521-1.539-.488-4.4-.34-7.567-.018-2.8.278-5.83.692-8.414.909a23.848,23.848,0,0,1-2.306,2.356,42.613,42.613,0,0,1-8.167,6.053,75.625,75.625,0,0,1-31.995,6.442c-2.535-.043-4.006-.223-4.006-.223s-7.728,4.569-14.925,4.668c-4.581.056-7.932,4.891-7.555,9.317.334,3.926-.767,5.8-2.226,6.411a2.593,2.593,0,0,1-.563.173c-1.731.34-4.235-13.286-2.628-17.806s12.384-5.657,17.089-13.082c3.883-6.139,3.648-7.765,5.595-10.708a21.922,21.922,0,0,1,1.57-2.083c3.808-4.544,16.13-5.484,26.888-7.833s17.96-12.458,19.153-15.462,11.141-4.371,14.492,2.442c0,0-.118,1.49-.507,3.883a74.763,74.763,0,0,1-2.226,9.818,59.874,59.874,0,0,1-2.541,6.955c-.241.55-.495,1.1-.76,1.645.847.118,1.756.241,2.714.359,5.082.63,11.376,1.125,14.894.383C-1368.54,1069.71-1369.35,1073.25-1372.06,1074.98Z" transform="translate(1472.74 -1012.605)" fill="#fff"/><path d="M-1347.41,1092.13c-2.8.278-5.83.693-8.414.909a23.863,23.863,0,0,1-2.306,2.355,19.068,19.068,0,0,1-5.737-6.04l1.756-.736,3.147-3.437s5.577-1.638,8.285-.822c-.241.55-.495,1.1-.76,1.645.847.118,1.756.241,2.714.359a12.873,12.873,0,0,1,1.315,5.767Z" transform="translate(1431.467 -1028.253)" fill="#f75b73" opacity="0.2"/><path d="M-1428.97,1098.15c-.711,4.766-6.294,9.162-9.453,11.3-2.535-.043-4.006-.223-4.006-.223s-7.728,4.569-14.925,4.668c-4.581.056-7.932,4.891-7.555,9.317.334,3.926-.767,5.8-2.226,6.411-1.4-3.777-2.578-12.581-1.348-16.043,1.614-4.526,12.384-5.657,17.089-13.082a44.942,44.942,0,0,0,3.351-6.164c3.271-7.376,13.589-8.34,17.8-1.453A8.052,8.052,0,0,1-1428.97,1098.15Z" transform="translate(1471.602 -1029.814)" fill="#f75b73" opacity="0.2"/><path d="M-1361.57,1058.31s3.968,8.937,14.306,7.919a75.335,75.335,0,0,0,2.228-9.818l-3.183-.718-7.9-.827Z" transform="translate(1430.589 -1017.082)" fill="#f75b73" opacity="0.2"/><path d="M-1363.82,1051c5.328,3.184,14.006,2.516,18.661-1.973s7.42-9.08,5.549-12.2-4.563-2.068-6.661-4.213-3.88-4.139-7.839-4.74c-2.584-.393-8-.934-12.911,5.179a11.9,11.9,0,0,0-.863,1.213,16.5,16.5,0,0,0-1.308,2.552C-1371.74,1043.13-1368.53,1048.18-1363.82,1051Z" transform="translate(1433.844 -1006.691)" fill="#fff"/><path d="M-1344.48,1048.88c-4.655,4.488-13.329,5.156-18.659,1.972-4.217-2.522-7.227-6.826-5.985-12.235a12.8,12.8,0,0,1,.612-1.948,16.7,16.7,0,0,1,1.3-2.553,12.854,12.854,0,0,1,.866-1.212,18.558,18.558,0,0,1,1.447-1.6,12.526,12.526,0,0,1,11.462-3.58c3.963.6,5.744,2.6,7.839,4.736s4.792,1.094,6.665,4.217S-1339.82,1044.39-1344.48,1048.88Z" transform="translate(1433.581 -1006.636)" fill="#fff"/><path d="M-1362.55,1036.74l-.235.1a20.723,20.723,0,0,1-6.158,4.124,12.81,12.81,0,0,1,.612-1.947,16.682,16.682,0,0,1,1.3-2.553,12.828,12.828,0,0,1,.865-1.212,18.577,18.577,0,0,1,1.447-1.6l.458.173Z" transform="translate(1433.406 -1008.981)" fill="#f75b73" opacity="0.2"/><path d="M-1345.52,1037.15c1.129,1.426,2.752,2.023,3.622,1.335s.658-2.406-.471-3.832-2.752-2.023-3.622-1.334S-1346.65,1035.72-1345.52,1037.15Zm1.175-1.655a.718.718,0,0,1,.114-1.005.718.718,0,0,1,1.008.116.717.717,0,0,1-.119,1.006.715.715,0,0,1-.529.149.715.715,0,0,1-.479-.271Z" transform="translate(1424.849 -1008.744)" fill="#f75b73"/><path d="M-1323.19,1042.51a1.735,1.735,0,0,0,2.4-.077,1.735,1.735,0,0,0,.624-2.317,1.735,1.735,0,0,0-2.4.077,1.735,1.735,0,0,0-.624,2.317Z" transform="translate(1416.033 -1011.28)" fill="#f75b73"/><path d="M-1332.08,1048.4s-5.226,3.811-5.419,7.591" transform="translate(1421.402 -1014.61)" fill="none" stroke="#707070" stroke-miterlimit="10" stroke-width="0.651"/><path d="M-1329.54,1050.74s-2.149,2.993-2.047,5.567" transform="translate(1419.147 -1015.504)" fill="none" stroke="#707070" stroke-miterlimit="10" stroke-width="0.651"/><g transform="translate(38.015 8.318)"><path d="M-1407.8,1018.62c4.56,2.163,28.686,8.115,28.686,8.115l.234-.377.932-1.514.75-1.21s-23.454-17.439-29.471-16.391C-1413.84,1008.5-1412.59,1016.35-1407.8,1018.62Z" transform="translate(1411.72 -1007.201)" fill="#fff"/><path d="M-1407.8,1019.07c4.56,2.163,28.686,8.115,28.686,8.115l.234-.377.932-1.513.75-1.21s-23.454-17.438-29.471-16.391C-1413.84,1008.95-1412.59,1016.81-1407.8,1019.07Z" transform="translate(1411.72 -1007.374)" fill="#fff"/><path d="M-1402.83,1022.86c2.9,1.048,22.029,6.325,26.38,7.523l.932-1.513c-3.144-1.727-23.267-12.69-26.91-11.8C-1406.39,1018.03-1406.11,1021.68-1402.83,1022.86Z" transform="translate(1409.286 -1010.95)" fill="#f75b73"/></g><path d="M-1331.88,1090.76c-2.7,1.737-4.989,2.807-9.051,1.521-2.9-.915-10.467.42-15.982.89-7.116-.649-10.51-4.186-7.283-7.512s11.666.476,11.666.476c5.329.754,13.428,1.626,17.608.742C-1328.35,1085.49-1329.17,1089.03-1331.88,1090.76Z" transform="translate(1432.06 -1028.315)" fill="#fff"/><path d="M-1331.08,1090.65c-2.7,1.737-4.99,2.807-9.051,1.521-2.9-.915-10.467.421-15.982.89-7.116-.649-10.51-4.185-7.283-7.512s11.666.476,11.666.476c5.329.754,13.428,1.626,17.608.742C-1327.55,1085.38-1328.37,1088.92-1331.08,1090.65Z" transform="translate(1431.754 -1028.274)" fill="#fff"/><path d="M-1433.18,1095.17c-1,6.7-11.617,12.668-11.617,12.668s-7.728,4.569-14.924,4.668c-4.581.056-7.932,4.89-7.555,9.317s-1.063,6.238-2.788,6.584-4.235-13.286-2.628-17.806,12.384-5.657,17.089-13.082a45.543,45.543,0,0,0,3.352-6.162c3.272-7.377,13.589-8.341,17.8-1.456A8.031,8.031,0,0,1-1433.18,1095.17Z" transform="translate(1473.209 -1028.677)" fill="#fff"/><path d="M-1431.95,1095.58c-1,6.7-11.617,12.668-11.617,12.668s-7.728,4.569-14.925,4.668c-4.581.056-7.932,4.89-7.555,9.317s-1.063,6.238-2.788,6.584-4.235-13.286-2.628-17.806,12.384-5.657,17.089-13.082a45.526,45.526,0,0,0,3.351-6.161c3.272-7.378,13.589-8.342,17.8-1.457a8.032,8.032,0,0,1,1.273,5.269Z" transform="translate(1472.74 -1028.833)" fill="#fff"/></g><g transform="translate(113.385)"><g transform="translate(15.591)"><path d="M-1248.19,980.881c-1.628,3.989-13.41,21.645-13.41,21.645l-2.993-.853s4.739-24.508,9.135-27.312C-1250.22,971.016-1246.48,976.7-1248.19,980.881Z" transform="translate(1264.594 -973.334)" fill="#fff"/><path d="M-1247.67,980.854c-1.629,3.991-13.41,21.646-13.41,21.646l-.365-.1-1.46-.417-1.17-.331s4.739-24.509,9.137-27.315C-1249.69,970.991-1245.96,976.668-1247.67,980.854Z" transform="translate(1264.394 -973.324)" fill="#fff"/></g><path d="M-1252.85,1089.66l4.287,9.681s-9.542-.553-10.649,1.66,4.979,4.7,12.586,3.734,10.511-5.256,10.511-5.256l-4.564-7.607s-3.181-3.319-3.873-3.457S-1252.85,1089.66-1252.85,1089.66Z" transform="translate(1278.178 -1017.257)" fill="#fff"/><path d="M-1255.32,1065.53a14.792,14.792,0,0,1-3.151,5.947,18.061,18.061,0,0,1-6.384,4.6,16.785,16.785,0,0,1-5.522,1.43c-4.034.208-7.7-.636-6.757-2.923.624-1.509,2.25-1.5,4.582-2.6a14.681,14.681,0,0,0,4.146-2.965l.087-.088c4.391-4.458.674-9.385,4.666-11.735C-1261.08,1055.68-1253.05,1056.96-1255.32,1065.53Z" transform="translate(1285.029 -1005.133)" fill="#fff"/><path d="M-1254.38,1065.53a14.8,14.8,0,0,1-3.152,5.947,18.06,18.06,0,0,1-6.383,4.6,16.79,16.79,0,0,1-5.522,1.43c-4.034.208-7.7-.636-6.757-2.923.624-1.509,2.249-1.5,4.582-2.6a14.691,14.691,0,0,0,4.146-2.965l.087-.088c4.391-4.458.674-9.385,4.666-11.735C-1260.15,1055.68-1252.11,1056.96-1254.38,1065.53Z" transform="translate(1284.671 -1005.133)" fill="#fff"/><path d="M-1254.61,1078.64a18.057,18.057,0,0,1-6.383,4.6c-2.911-.665-6.263-3.011-7.7-4.092a14.685,14.685,0,0,0,4.146-2.964l.087-.088,5.111-.682Z" transform="translate(1281.749 -1012.295)" fill="#f75b73" opacity="0.2"/><path d="M-1235.7,1099.48a9.845,9.845,0,0,1-2.237,2.146,17.514,17.514,0,0,1-8.271,3.107,23.474,23.474,0,0,1-8.8-.441c-2.819-.765-4.4-2.071-3.792-3.293,1.106-2.213,10.649-1.659,10.649-1.659l-1.476-3.331-2.811-6.35s3.514-.637,5.983-1a13.522,13.522,0,0,1,2.317-.241c.69.137,3.872,3.456,3.872,3.456Z" transform="translate(1278.021 -1017.257)" fill="#fff"/><path d="M-1234.93,1100.62s-.233.474-.591,1.16a17.509,17.509,0,0,1-8.271,3.107,23.473,23.473,0,0,1-8.8-.441c2.936-1.065,8.342-3.314,7.747-5.24a7.093,7.093,0,0,0-2.367-3.044l-2.811-6.349s3.514-.637,5.984-1a62.874,62.874,0,0,1,5.394,4.533C-1237.35,1094.76-1234.93,1100.62-1234.93,1100.62Z" transform="translate(1275.599 -1017.412)" fill="#f75b73" opacity="0.2"/><path d="M-1223.61,1085.21c-3.24,1.351-24.169,1.485-26.061.408s-2.158-4.188,6.886-5.131a64.176,64.176,0,0,1-9.818-9.839,33.446,33.446,0,0,1-4.358-7.041c-.337-.761-.632-1.505-.9-2.233a26.922,26.922,0,0,1-1.788-9.252,16.4,16.4,0,0,1,1.875-7.959c2.054-3.714,5.319-7.922,8.417-8.45a3.948,3.948,0,0,1,.5-.054s21.6,4.591,29.57,18.227S-1220.37,1083.86-1223.61,1085.21Z" transform="translate(1278.295 -997.12)" fill="#fff"/><path d="M-1215.41,1065.95c.006.482-.006.958-.031,1.428-.037.816-.111,1.62-.216,2.411,0,.013-.006.031-.006.043-.056.414-.124.823-.192,1.224-1.311,7.481-5.175,13.36-7.066,14.152-1.682.7-8.167,1.076-14.263,1.119h-.068c-5.583.043-10.826-.2-11.728-.711-1.521-.872-1.991-3.054,2.6-4.359a25.133,25.133,0,0,1,4.285-.773s-.309-.235-.835-.68a64.162,64.162,0,0,1-8.983-9.156,33.4,33.4,0,0,1-4.359-7.042c-.334-.76-.631-1.5-.9-2.232a26.851,26.851,0,0,1-1.787-9.255,18.144,18.144,0,0,1,.136-2.288,15.32,15.32,0,0,1,1.737-5.669c2.053-3.716,5.317-7.92,8.414-8.452.167-.025.328-.043.495-.056a66.736,66.736,0,0,1,13.348,4.717c6.009,2.881,12.557,7.24,16.223,13.515A23.788,23.788,0,0,1-1215.41,1065.95Z" transform="translate(1278.031 -997.118)" fill="#fff"/><path d="M-1208.2,1082.8c.006.482-.006.958-.031,1.428-.037.816-.111,1.62-.216,2.411,0,.012-.006.031-.006.043-1.317,7.462-5.175,13.317-7.06,14.109-1.682.7-8.167,1.076-14.263,1.119h-.068c-4.538-.043-8.4-.278-9.156-.711a1.715,1.715,0,0,1-1.058-1.493,1.715,1.715,0,0,1,.891-1.6,9.006,9.006,0,0,1,3.45-1.453,28.491,28.491,0,0,1,3.6-.587l7.067-.581s-1.676-9.83,2.232-13.527C-1219.6,1078.92-1212.2,1079-1208.2,1082.8Z" transform="translate(1270.818 -1013.972)" fill="#f75b73" opacity="0.2"/><path d="M-1234.74,1040.37a17.8,17.8,0,0,1-2.275,2.1c-6.164,4.816-18.77,6.924-21.719,7.363a15.323,15.323,0,0,1,1.737-5.669c2.053-3.716,5.317-7.92,8.414-8.452.167-.025.328-.043.495-.056A66.732,66.732,0,0,1-1234.74,1040.37Z" transform="translate(1277.947 -997.118)" fill="#f75b73" opacity="0.2"/><path d="M-1243.62,1075.27s-2.545,7.323-7.635,10.5a33.406,33.406,0,0,1-4.358-7.041c-.337-.761-.632-1.505-.9-2.233Z" transform="translate(1277.099 -1012.241)" fill="#f75b73" opacity="0.2"/><path d="M-1258.73,1030.95c-2.269,5.991-9.719,11.011-16.365,10.362s-11.827-2.59-12.316-6.312,2.368-4.6,2.689-7.685.488-5.836,3.308-8.859c1.836-1.972,5.873-5.886,13.768-4.087.167.037.328.074.495.124.328.08.649.185.983.3.192.068.377.136.556.21a16.755,16.755,0,0,1,2.139,1.02,11.1,11.1,0,0,1,4.89,5.237c.031.068.056.142.086.21A13.051,13.051,0,0,1-1258.73,1030.95Z" transform="translate(1288.915 -988.817)" fill="#fff"/><path d="M-1258.33,1030.95c-2.269,5.991-9.719,11.011-16.365,10.362s-11.827-2.59-12.315-6.312,2.368-4.6,2.689-7.685.488-5.836,3.307-8.859c1.836-1.972,5.874-5.886,13.768-4.087.167.037.328.074.495.124.328.08.649.185.983.3.191.068.377.136.556.21a16.786,16.786,0,0,1,2.139,1.02,11.1,11.1,0,0,1,4.89,5.237c.031.068.056.142.087.21a13.052,13.052,0,0,1-.234,9.48Z" transform="translate(1288.765 -988.817)" fill="#fff"/><path d="M-1245.61,1021.94a60.766,60.766,0,0,1-8.526-2.127l.179-2.522,1.317-1.607a16.786,16.786,0,0,1,2.139,1.02,11.1,11.1,0,0,1,4.891,5.236Z" transform="translate(1276.194 -989.494)" fill="#f75b73" opacity="0.2"/><path d="M-1254.51,1061.61c-4.585-.848-4.979,5.394-11.341,5.809s-8.022-2.628-10.235-1.521,0,4.149,3.181,6.638,11.9,5.809,19.224.83S-1251.57,1062.16-1254.51,1061.61Z" transform="translate(1284.913 -1006.998)" fill="#fff"/><path d="M-1253.92,1061.99c-4.584-.848-4.979,5.394-11.341,5.809s-8.022-2.628-10.234-1.521,0,4.149,3.181,6.639,11.894,5.808,19.225.83S-1250.98,1062.53-1253.92,1061.99Z" transform="translate(1284.685 -1007.142)" fill="#fff"/><path d="M-1273.25,1024.48c-1.146,0-2.075,1.522-2.075,3.4s.93,3.4,2.075,3.4,2.076-1.524,2.076-3.4S-1272.11,1024.48-1273.25,1024.48Zm-.673,3.554a.739.739,0,0,1-.74-.738.742.742,0,0,1,.74-.741.741.741,0,0,1,.738.741.74.74,0,0,1-.22.522.739.739,0,0,1-.525.213Z" transform="translate(1284.282 -992.852)" fill="#f75b73"/><ellipse cx="1.991" cy="1.475" rx="1.991" ry="1.475" transform="translate(0 44.505)" fill="#f75b73"/><path d="M-1276.11,1047.39s6.672-.267,9.252,2.669" transform="translate(1284.582 -1001.596)" fill="none" stroke="#707070" stroke-miterlimit="10" stroke-width="0.673"/><path d="M-1274.98,1049.58s3.657,1.045,5.225,3.193" transform="translate(1284.151 -1002.435)" fill="none" stroke="#707070" stroke-miterlimit="10" stroke-width="0.673"/><path d="M-1211.24,1088.53c-1.311,7.481-5.175,13.361-7.067,14.152-3.233,1.354-24.167,1.484-26.059.408s-2.158-4.186,6.887-5.131l7.067-.581s-1.675-9.83,2.232-13.527,14.015-2.788,16.662,3.833a6.525,6.525,0,0,1,.278.846Z" transform="translate(1272.867 -1014.693)" fill="#fff"/><path d="M-1210.36,1088.69c-1.311,7.481-5.174,13.36-7.067,14.152-3.233,1.354-24.167,1.484-26.059.408s-2.158-4.186,6.887-5.132l7.067-.581s-1.676-9.83,2.232-13.527,14.016-2.788,16.662,3.833a6.426,6.426,0,0,1,.278.847Z" transform="translate(1272.531 -1014.754)" fill="#fff"/><g transform="translate(19.048 4.115)"><path d="M-1230.77,990.706c-3.837,3.276-25.576,15.318-25.576,15.318l-2.656-2.494s18.091-22.954,24.171-23.511C-1227.58,979.354-1226.75,987.269-1230.77,990.706Z" transform="translate(1259.001 -979.979)" fill="#fff"/><path d="M-1230.21,990.96c-3.839,3.278-25.576,15.318-25.576,15.318l-.324-.3-1.3-1.217-1.039-.972s18.092-22.954,24.174-23.513C-1227.02,979.611-1226.18,987.523-1230.21,990.96Z" transform="translate(1258.788 -980.076)" fill="#fff"/><path d="M-1231.96,995.6c-2.524,1.769-19.616,11.854-23.5,14.146l-1.3-1.217c2.585-2.488,19.151-18.321,22.9-18.416C-1229.79,990-1229.1,993.6-1231.96,995.6Z" transform="translate(1258.146 -983.846)" fill="#fff"/></g></g></g><path d="M-1733.86-36.831a64.2,64.2,0,0,0,64.2,64.2A63.958,63.958,0,0,0-1626.4,10.6a87.411,87.411,0,0,0,83.179,60.543A86.878,86.878,0,0,0-1516.61,67a44.9,44.9,0,0,0,30.425,11.818,45.075,45.075,0,0,0,45.08-45.086,44.831,44.831,0,0,0-8.164-25.87,64.354,64.354,0,0,0,41.542-33.637,32.081,32.081,0,0,0,11.808,2.241,32.09,32.09,0,0,0,32.089-32.1,32.1,32.1,0,0,0-32.09-32.1,31.986,31.986,0,0,0-12.923,2.712,64.183,64.183,0,0,0-56.389-33.493,63.905,63.905,0,0,0-18.2,2.625A48.181,48.181,0,0,0-1518.521-131a48.312,48.312,0,0,0-44.551,29.62c-1.519.344-3.019.739-4.5,1.171a48.122,48.122,0,0,0-20.347-4.481A48.213,48.213,0,0,0-1627-84.776a63.911,63.911,0,0,0-42.667-16.242,64.191,64.191,0,0,0-64.193,64.19Z" transform="translate(2820.871 334.423) rotate(5)" fill="#a354d2"/><path d="M-1733.86-36.831a64.2,64.2,0,0,0,64.2,64.2A63.958,63.958,0,0,0-1626.4,10.6a87.411,87.411,0,0,0,83.179,60.543A86.878,86.878,0,0,0-1516.61,67a44.9,44.9,0,0,0,30.425,11.818,45.075,45.075,0,0,0,45.08-45.086,44.831,44.831,0,0,0-8.164-25.87,64.354,64.354,0,0,0,41.542-33.637,32.081,32.081,0,0,0,11.808,2.241,32.09,32.09,0,0,0,32.089-32.1,32.1,32.1,0,0,0-32.09-32.1,31.986,31.986,0,0,0-12.923,2.712,64.183,64.183,0,0,0-56.389-33.493,63.905,63.905,0,0,0-18.2,2.625A48.181,48.181,0,0,0-1518.521-131a48.312,48.312,0,0,0-44.551,29.62c-1.519.344-3.019.739-4.5,1.171a48.122,48.122,0,0,0-20.347-4.481A48.213,48.213,0,0,0-1627-84.776a63.911,63.911,0,0,0-42.667-16.242,64.191,64.191,0,0,0-64.193,64.19Z" transform="translate(1166.593 3.292) rotate(-8)" fill="#a354d2"/><g transform="translate(38.678 -78.849) rotate(4.012)"><g transform="translate(-433.152 180.154)"><path d="M-435.416,179.553c5.6,2.935,10.265,8.435,13.879,16.348,1.6,3.5,2.9,7.2,4.168,10.778,1.136,3.22,2.31,6.548,3.7,9.732A72.5,72.5,0,0,0-388.5,247.043l.229-.329a72.1,72.1,0,0,1-25.03-30.462c-1.383-3.171-2.555-6.492-3.688-9.7-1.266-3.586-2.574-7.293-4.182-10.811-3.652-8-8.381-13.561-14.057-16.537Z" transform="translate(435.416 -179.198)" fill="#fff"/></g><g transform="translate(-417.872 218.001)"><path d="M-411.633,218.4c-.051-.063-5.208-6.357-10.8-7.142l-.041.292c5.476.771,10.561,6.974,10.612,7.038Z" transform="translate(422.474 -211.254)" fill="#fff"/></g><g transform="translate(-411.969 204.882)"><path d="M-417.148,211.2c0-.067-.414-6.8,1.771-10.925l-.262-.137c-2.221,4.2-1.806,11.014-1.8,11.08Z" transform="translate(417.474 -200.142)" fill="#fff"/></g><g transform="translate(-413.85 190.66)"><path d="M-412.662,201.044a12.65,12.65,0,0,0-.875-6.886,28.924,28.924,0,0,0-3.53-6.063c.633,2.78-1.012,5.508-1.677,8.281a12.371,12.371,0,0,0,.485,7.2c.293.772.842,2.512,1.739,2.783s1.858-1.065,2.313-1.682A8.809,8.809,0,0,0-412.662,201.044Z" transform="translate(419.067 -188.096)" fill="#fff"/></g><g transform="translate(-431.84 213.857)"><path d="M-421.487,214.406c-2.153-.488-4.133-1.458-6.334-2.107-2.138-.632-4.577-.806-6.484.349a11.547,11.547,0,0,1,9.866-4.893,11.682,11.682,0,0,1,8.476,4.442c1.642,2.085-1.09,2.462-2.648,2.508a11.369,11.369,0,0,1-2.876-.3Z" transform="translate(434.305 -207.744)" fill="#fff"/></g><g transform="translate(-425.984 196.329)"><path d="M-419.42,200.5c-.04-.063-4.167-6.2-9.853-7.607l-.072.287c5.577,1.379,9.639,7.422,9.678,7.483Z" transform="translate(429.345 -192.898)" fill="#fff"/></g><g transform="translate(-438.749 191.736)"><path d="M-431.343,189.121a10.52,10.52,0,0,0-8.814,2.838,2.913,2.913,0,0,1,3.112-.627,6.9,6.9,0,0,1,2.678,1.987,16.518,16.518,0,0,0,2.39,2.366c1.829,1.307,4.963,1.59,6.805.12,2.222-1.775-.615-4.154-2.162-5.15a10.343,10.343,0,0,0-4.009-1.534Z" transform="translate(440.157 -189.007)" fill="#fff"/></g><g transform="translate(-421.705 184.8)"><path d="M-424.6,191.787c-.017-.057-1.627-5.736-.3-8.528l-.266-.126c-1.375,2.883.213,8.5.28,8.736Z" transform="translate(425.72 -183.133)" fill="#fff"/></g><g transform="translate(-423.265 173.905)"><path d="M-420.926,184a15.436,15.436,0,0,0,.911-5.1,11.061,11.061,0,0,1,1.243-5,10.845,10.845,0,0,0-7.612,6.354A7.67,7.67,0,0,0-427,184.1c.157,1.259.849,3.286,2.45,3a5.3,5.3,0,0,0,3.62-3.1Z" transform="translate(427.042 -173.905)" fill="#fff"/></g><g transform="translate(-447.949 175.538)"><path d="M-433.734,176.542a12.936,12.936,0,0,0-7.135-1.179,28.4,28.4,0,0,0-7.08,1.813,5.093,5.093,0,0,1,4.793.71,39.156,39.156,0,0,1,3.809,3.325,10.024,10.024,0,0,0,4.5,2.361c1.66.325,4.776.039,5.074-2.136C-429.488,179.361-432.151,177.358-433.734,176.542Z" transform="translate(447.949 -175.288)" fill="#fff"/></g></g><g transform="matrix(0.857, 0.515, -0.515, 0.857, -503.256, 45.419)"><path d="M-1426.74,626.783c0,11.188-8.12,19-18.132,19a17.762,17.762,0,0,1-13.385-5.91A19.416,19.416,0,0,1-1463,626.782c0-5.768,2.16-13.418,5.625-19.473,3.25-5.688,7.657-9.969,12.506-9.969C-1434.86,597.341-1426.74,615.6-1426.74,626.783Z" transform="translate(1463.005 -597.341)" fill="#cb93ec"/><g transform="translate(0.282)"><path d="M-1413.41,597.384a3.143,3.143,0,0,0-1.642.554c.034.045.2,0,.668-.183a4.533,4.533,0,0,1,1.683-.415,6.094,6.094,0,0,0-.71.044" transform="translate(1430.609 -597.34)" fill="#7d26b0"/><path d="M-1432.94,603.023c-.988.888-1.774,1.846-1.683,2.05.117.036.4-.145.853-.538s3.569-3.311,3.613-3.365l-.008-.025a3.91,3.91,0,0,0-.847.428,13.222,13.222,0,0,0-1.929,1.449" transform="translate(1443.722 -599.888)" fill="#7d26b0"/><path d="M-1411.98,598.8c-.438.924.1,1.623.806,1.419,1.184-.342.833-2.132.344-2.4-.078-.043-.182-.031-.459.159a2.241,2.241,0,0,0-.691.824" transform="translate(1428.657 -597.647)" fill="#7d26b0"/><path d="M-1429.56,611.308c-.891,1.919-.158,2.986,1.045,2.481,2.117-.889,2.864-4.706,1.861-5.139-.469-.2-1.16.4-1.421.625a6.743,6.743,0,0,0-1.485,2.033" transform="translate(1440.592 -604.887)" fill="#7d26b0"/><path d="M-1450.29,633.452c-.77,2.08-.563,3.456.46,3.068,1.962-.743,3.511-5.975,2.418-6.644-.481-.295-1.176.565-1.438.888a10.68,10.68,0,0,0-1.441,2.688" transform="translate(1454.518 -619.088)" fill="#7d26b0"/><path d="M-1462.15,662.762a.458.458,0,0,0,.013.2h.055c.735-.8,1.722-6.047,1.422-6.817h-.051a.758.758,0,0,0-.1.217,40.865,40.865,0,0,0-1.342,6.4" transform="translate(1462.151 -636.721)" fill="#7d26b0"/><path d="M-1397.65,605.226c1.042,2.034,2.585,2.707,2.889,1.945.539-1.349-2.657-4.49-3.363-4.07-.138.082-.117.3-.1.477a5.811,5.811,0,0,0,.574,1.648" transform="translate(1419.348 -601.172)" fill="#7d26b0"/><path d="M-1407.43,624.424c.23,2.789,3.042,3.88,4.282,2.249,1.536-2.02-.509-5.873-2.417-5.61a1.96,1.96,0,0,0-1.238.852,3.981,3.981,0,0,0-.628,2.509" transform="translate(1425.517 -613.218)" fill="#7d26b0"/><path d="M-1430.18,649.9c-.155,3.012,2.689,4.016,4.592,2.371,2.277-1.969,1.139-5.9-1.187-6.19a2.751,2.751,0,0,0-2.266,1,4.78,4.78,0,0,0-1.139,2.814" transform="translate(1440.745 -629.967)" fill="#7d26b0"/><path d="M-1451.27,676.38c.068,2.344,1.965,4.058,3.58,2.491,2.216-2.15,1.058-6.071-1.157-6.071a2.163,2.163,0,0,0-1.667.973,4.343,4.343,0,0,0-.756,2.608" transform="translate(1454.866 -647.873)" fill="#7d26b0"/><path d="M-1458.73,702.46c.833,2.031,2.142,3.283,2.458,2.352.58-1.707-1.728-6.615-2.774-5.9-.264.18-.282.655-.293.939a7.254,7.254,0,0,0,.609,2.61" transform="translate(1460.271 -665.312)" fill="#7d26b0"/><path d="M-1377.74,637.724c.82,2.611,2.727,3.873,3.4,2.758.98-1.619-1.411-6.811-2.975-6.46-.458.1-.6.681-.675.959a5.935,5.935,0,0,0,.248,2.743" transform="translate(1405.834 -621.893)" fill="#7d26b0"/><path d="M-1393.65,664.384c.392,2.948,3.678,3.848,5.1,2.02,1.616-2.08-.261-6.073-2.714-5.773a2.612,2.612,0,0,0-1.664,1,3.766,3.766,0,0,0-.72,2.749" transform="translate(1416.298 -639.713)" fill="#7d26b0"/><path d="M-1419.07,690.13a3.332,3.332,0,0,0,2.326,2.858,3.332,3.332,0,0,0,3.537-1.033,3.481,3.481,0,0,0,.445-3.826,3.481,3.481,0,0,0-3.353-1.894,3.372,3.372,0,0,0-2.068,1,3.762,3.762,0,0,0-.887,2.9" transform="translate(1433.32 -656.859)" fill="#7d26b0"/><path d="M-1435.9,715.411c1.1,2.12,3.774,3.1,4.467,1.145.807-2.276-2.066-5.128-4.044-4.015a1.515,1.515,0,0,0-.613.649,2.429,2.429,0,0,0,.19,2.221" transform="translate(1444.818 -674.32)" fill="#7d26b0"/><path d="M-1358.35,655.4c.405,1.593.543,2.148.633,2.627q-.174-.969-.4-1.96c-.3-1.3-.668-2.62-1.1-3.936l-.025-.075c.061.188.074.234.161.531.177.637.287,1.057.733,2.812" transform="translate(1393.239 -633.984)" fill="#7d26b0"/><path d="M-1361.34,680.689c.061,2.1.827,3.851,1.632,2.9,1.189-1.4.923-6.524-.339-6.525-.461,0-.765.662-.9.945a6.689,6.689,0,0,0-.4,2.678" transform="translate(1394.643 -650.73)" fill="#7d26b0"/><path d="M-1382.12,706.708c-.349,1.927.739,3.272,2.5,2.094,2.276-1.519,2.855-5.245.861-5.538a2.744,2.744,0,0,0-2.094.949,5.027,5.027,0,0,0-1.271,2.5" transform="translate(1408.602 -668.263)" fill="#7d26b0"/><path d="M-1404.78,727.931c-.032,1.668,1.738,2.22,3.431.524,1.327-1.33.93-2.9-.731-2.906a2.972,2.972,0,0,0-1.826.687,2.382,2.382,0,0,0-.873,1.695" transform="translate(1423.733 -683.198)" fill="#7d26b0"/><path d="M-1413.37,740.767a3.1,3.1,0,0,0,1.25.35c.021-.1.07-.19.082-.291a.675.675,0,0,0-.017-.268.979.979,0,0,0-.346-.487,1.464,1.464,0,0,0-1.4-.25.321.321,0,0,0-.185.25c0,.094.015.38.619.7" transform="translate(1429.896 -692.696)" fill="#7d26b0"/><path d="M-1371.4,719.1c-1.309,1.691-1.476,1.913-1.481,2.024.049,0,.139,0,.7-.521q.278-.26.543-.531a17.752,17.752,0,0,0,1.812-2.174q.344-.487.659-1c.336-.555.324-.643.316-.7-.1-.052-.424.286-.88.811-.431.509-.758.911-1.668,2.088" transform="translate(1402.371 -676.937)" fill="#7d26b0"/><path d="M-1395.02,736.014a15.172,15.172,0,0,0-1.5.9v.03c.988.111,5.368-1.865,5.009-2.547-.057-.109-.336-.2-1.561.434-.577.314-.655.363-1.951,1.18" transform="translate(1418.198 -689.073)" fill="#7d26b0"/><path d="M-1407.93,743.559a3.883,3.883,0,0,0,1.477-.193v-.011a2.571,2.571,0,0,0-.747.112,3.652,3.652,0,0,1-.731.092" transform="translate(1425.841 -695.116)" fill="#7d26b0"/></g></g><g transform="translate(1.328 -173.194) rotate(18)"><path d="M-224.783,307.006a25.216,25.216,0,0,0-6.216-7.54c-2.643-1.942-6.217-2.9-9.268-1.7-4.779,1.883-6.283,7.877-6.46,13.01a60.247,60.247,0,0,0,10.5,35.946,58.832,58.832,0,0,0-20.285-19.358c-3.1-1.776-6.794-3.3-10.166-2.114-3.751,1.318-5.721,5.723-5.378,9.686s2.495,7.526,4.844,10.734a75.409,75.409,0,0,0,27.622,23.107c4.559,2.226,9.439,4.008,14.506,4.226,6.531.281,13.094-2.324,16.37-8.2,3.02-5.415,1.344-9.225-.138-14.711C-212.961,334.871-216.482,320.694-224.783,307.006Z" fill="#a354d2"/><g transform="translate(-265.292 307.023)"><line x2="22.8" y2="54.843" transform="translate(27.422)" fill="none" stroke="#fff" stroke-miterlimit="10" stroke-width="1"/><line x2="38.206" y2="29.513" transform="translate(0.616 28.103)" fill="none" stroke="#fff" stroke-miterlimit="10" stroke-width="1"/><line x1="8.837" y1="9.22" transform="translate(23.57 2.773)" fill="none" stroke="#fff" stroke-miterlimit="10" stroke-width="0.75"/><line x1="1.701" y1="15.007" transform="translate(32.408 1.078)" fill="none" stroke="#fff" stroke-miterlimit="10" stroke-width="0.75"/><line x1="13.395" y1="10.479" transform="translate(23.57 12.478)" fill="none" stroke="#fff" stroke-miterlimit="10" stroke-width="0.75"/><line x1="0.766" y1="22.032" transform="translate(40.362 10.938)" fill="none" stroke="#fff" stroke-miterlimit="10" stroke-width="0.75"/><line x1="15.723" y1="13.086" transform="translate(30.268 31.581)" fill="none" stroke="#fff" stroke-miterlimit="10" stroke-width="0.75"/><path d="M-208.284,364.6c-.2-.471-.784-22.8-.784-22.8" transform="translate(257.287 -312.684)" fill="#a354d2" stroke="#fff" stroke-miterlimit="10" stroke-width="0.75"/><line x1="5.114" y1="11.358" transform="translate(3.543 22.957)" fill="none" stroke="#fff" stroke-miterlimit="10" stroke-width="0.75"/><line x1="12.753" y1="3.164" transform="translate(0 34.315)" fill="none" stroke="#fff" stroke-miterlimit="10" stroke-width="0.75"/><line x1="5.084" y1="12.973" transform="translate(14.635 29.887)" fill="none" stroke="#fff" stroke-miterlimit="10" stroke-width="0.75"/><line x1="15.687" y1="3.051" transform="translate(10.322 44.667)" fill="none" stroke="#fff" stroke-miterlimit="10" stroke-width="0.75"/><line x1="4.142" y1="10.459" transform="translate(29.116 42.86)" fill="none" stroke="#fff" stroke-miterlimit="10" stroke-width="0.75"/><line x1="14.684" y1="2.431" transform="translate(21.722 53.319)" fill="none" stroke="#fff" stroke-miterlimit="10" stroke-width="0.75"/></g></g><path d="M758.955,176.727C726.341,113.879,695.255,25.49,619.961,25.49a135.743,135.743,0,0,0-87.193,31.533,102.594,102.594,0,0,0-164.34,9.13,136.447,136.447,0,0,0-168.1-46.486A102.589,102.589,0,0,0,37.332,102.58c0,1.122.024,2.243.058,3.353a51.976,51.976,0,1,0,52,85.946,102.013,102.013,0,0,0,45.169,13.158A136.354,136.354,0,0,0,357.1,235.9a68.165,68.165,0,0,0,93.2-4.336,51.989,51.989,0,0,0,82.49,35.078,135.749,135.749,0,0,0,87.171,31.51C695.255,298.156,716.729,236.977,758.955,176.727Z" transform="translate(973.633 138.375) rotate(173)" fill="#f75b73"/></g><g transform="translate(99.543 -1578.033)"><g transform="matrix(1, 0, 0, 1, -620.54, 1669.87)" filter="url(#c)"><rect width="251" height="53" rx="25" transform="translate(1290 50)" fill="#ffe32c"/></g><path d="M13.134-8.008a4.061,4.061,0,0,1,2.068,1.4A3.851,3.851,0,0,1,15.95-4.2a3.559,3.559,0,0,1-1.573,3.113A8.042,8.042,0,0,1,9.79,0H1.826V-15.4H9.35a7.365,7.365,0,0,1,4.323,1.078A3.412,3.412,0,0,1,15.18-11.4a3.755,3.755,0,0,1-.539,2,3.775,3.775,0,0,1-1.507,1.392ZM5.368-12.716v3.63H8.91a3.576,3.576,0,0,0,2-.462,1.541,1.541,0,0,0,.682-1.364,1.514,1.514,0,0,0-.682-1.353,3.645,3.645,0,0,0-2-.451ZM9.526-2.684a3.949,3.949,0,0,0,2.123-.462,1.582,1.582,0,0,0,.715-1.43q0-1.914-2.838-1.914H5.368v3.806ZM29.9-11.836V0H26.642V-1.408A4.552,4.552,0,0,1,25.014-.231a5.122,5.122,0,0,1-2.046.407,5.041,5.041,0,0,1-3.7-1.342A5.35,5.35,0,0,1,17.9-5.148v-6.688H21.34v6.182q0,2.86,2.4,2.86a2.578,2.578,0,0,0,1.98-.8,3.388,3.388,0,0,0,.748-2.387v-5.852Zm14.5,0L39.05.726a6.182,6.182,0,0,1-2.013,2.882,4.931,4.931,0,0,1-2.893.836,6.008,6.008,0,0,1-1.826-.286,4.032,4.032,0,0,1-1.474-.792L32.1.924a2.947,2.947,0,0,0,.913.55,2.846,2.846,0,0,0,1.023.2,1.815,1.815,0,0,0,1.144-.341A2.9,2.9,0,0,0,35.97.2l.044-.11L30.888-11.836H34.43l3.322,8.03,3.344-8.03ZM65.516-15.4V0H62.59L54.912-9.35V0h-3.52V-15.4H54.34L62-6.05V-15.4ZM74.118.176A7.1,7.1,0,0,1,70.763-.6a5.806,5.806,0,0,1-2.321-2.167,5.971,5.971,0,0,1-.836-3.146,5.971,5.971,0,0,1,.836-3.146,5.806,5.806,0,0,1,2.321-2.167,7.1,7.1,0,0,1,3.355-.781,7.032,7.032,0,0,1,3.344.781,5.824,5.824,0,0,1,2.31,2.167,5.971,5.971,0,0,1,.836,3.146,5.971,5.971,0,0,1-.836,3.146A5.824,5.824,0,0,1,77.462-.6a7.032,7.032,0,0,1-3.344.781Zm0-2.816a2.859,2.859,0,0,0,2.167-.891,3.321,3.321,0,0,0,.847-2.387,3.321,3.321,0,0,0-.847-2.387A2.859,2.859,0,0,0,74.118-9.2a2.894,2.894,0,0,0-2.178.891,3.3,3.3,0,0,0-.858,2.387,3.3,3.3,0,0,0,.858,2.387,2.894,2.894,0,0,0,2.178.895Zm27.016-9.2L96.844,0h-3.3L90.882-7.348,88.132,0h-3.3L80.564-11.836H83.8l2.794,8.008,2.9-8.008h2.9L95.21-3.828l2.89-8.008Zm.726-3.564h4.092L105.27-5.346h-2.728ZM103.906.176A2.086,2.086,0,0,1,102.4-.407a1.9,1.9,0,0,1-.6-1.419,1.843,1.843,0,0,1,.594-1.4,2.122,2.122,0,0,1,1.518-.561,2.122,2.122,0,0,1,1.518.561,1.843,1.843,0,0,1,.594,1.4,1.9,1.9,0,0,1-.605,1.419,2.086,2.086,0,0,1-1.513.583Z" transform="translate(741.457 1753.866)" fill="#7d26b0"/></g><g transform="translate(65)" clip-path="url(#e)"><g transform="translate(967.329 97.541)"><path d="M-208.03-618.329s-19.82-1.069-20.084,5.1,19.147,7.88,24.3,7S-201.892-618.369-208.03-618.329Z" transform="translate(233.571 709.357)" fill="#ffd8e5"/><path d="M-207.425-617.33s-19.819-1.069-20.084,5.1,19.148,7.88,24.3,7S-201.287-617.37-207.425-617.33Z" transform="translate(233.237 708.805)" fill="#fff"/><path d="M-93.186-600.814s.277-10.107,3.739-10.384,2.908,3.461,2.908,3.461,3.6-7.061,7.477-3.184-5.4,8.861-5.4,8.861,2.492.277,1.661,3.6S-93.186-594.168-93.186-600.814Z" transform="translate(158.996 705.867)" fill="#ffd8e5"/><path d="M-180.525-581.941c-3.468,1.346-9.808,4.6-8.28,14.124a16.755,16.755,0,0,0,9.777,12.664s-7.94-2.662-7.34,1.584,13.33,5.052,18.626,2.756,6.376-21.485-.32-27.456C-172.076-581.847-177.589-583.08-180.525-581.941Z" transform="translate(211.973 689.434)" fill="#ffd8e5"/><path d="M-179.337-581.941c-3.468,1.346-9.808,4.6-8.28,14.124a16.756,16.756,0,0,0,9.777,12.664s-7.94-2.662-7.34,1.584,13.33,5.052,18.626,2.756,6.376-21.485-.32-27.456C-170.889-581.847-176.4-583.08-179.337-581.941Z" transform="translate(211.317 689.434)" fill="#fff"/><path d="M-83.437-602.06s2.492.275,1.661,3.6c-.39,1.553-2.669,2.59-5,2.584-2.664-.006-5.39-1.38-5.39-4.932,0,0,.166-5.991,1.821-8.872a2.573,2.573,0,0,1,1.92-1.52c3.46-.281,2.91,3.46,2.91,3.46s3.6-7.063,7.475-3.184S-83.437-602.06-83.437-602.06Z" transform="translate(158.429 705.867)" fill="#fff"/><path d="M-86.77-592.914c-2.664-.006-5.39-1.38-5.39-4.932,0,0,.166-5.991,1.821-8.872a29.824,29.824,0,0,1,3.569,13.8Z" transform="translate(158.429 702.901)" fill="#471066" opacity="0.2"/><path d="M-187.142-639.606s-5.366,11.021-2.022,27.044c4.163,19.945,30.835,23.758,42.715,7.33s-9.6-39.682-15.671-42.209S-180.318-648.958-187.142-639.606Z" transform="translate(212.649 726.066)" fill="#ffd8e5"/><path d="M-142.534-610.985a18.226,18.226,0,0,1-2.606,5.1,24.862,24.862,0,0,1-4.072,4.411c-11.267,9.571-29.139,7.206-36.184-5.184a22.255,22.255,0,0,1-2.458-6.553q-.456-2.182-.7-4.227c-1.713-13.707,2.726-22.821,2.726-22.821a21.162,21.162,0,0,1,3.013-3.334,21.552,21.552,0,0,1,2.52-1.936,23.118,23.118,0,0,1,17.545-3.191,13.272,13.272,0,0,1,1.942.63c1.919.8,5.378,3.666,8.838,7.738C-145.587-632.832-139.2-621.209-142.534-610.985Z" transform="translate(211.925 726.425)" fill="#fff"/><path d="M-105.663-571.324a18.223,18.223,0,0,1-2.606,5.1,24.863,24.863,0,0,1-4.072,4.411l-4.228-.063-3.952-3.013-1.678-3.523-.04-3.907,2.062-5.2S-110.263-577.568-105.663-571.324Z" transform="translate(175.054 686.765)" fill="#471066" opacity="0.2"/><path d="M-144.633-639.66c-1.609,1.747-4.37,3.454-9.01,4.525-12.5,2.881-20.907-2.165-20.907-2.165v-.321s-1.673-3.466-.928-5.281a1.676,1.676,0,0,1,.366-.561,6.561,6.561,0,0,1,2.154-1.375c1.2-.5,2.623-.882,4.336-1.592,2.881-1.2,7.767-.882,10.734-1.363a24.491,24.491,0,0,1,2.475-.235,13.279,13.279,0,0,1,1.942.63C-151.552-646.6-148.092-643.733-144.633-639.66Z" transform="translate(204.584 725.733)" fill="#471066" opacity="0.2"/><path d="M-128.97-791.046c-2.389,5.516-6.324,12.951-8.856,17.614-1.443,2.646-2.428,4.393-2.428,4.393l-7.132-4.576s.189-2.016.6-5.224c1.764-13.868,7.692-50,20.586-41.671C-118.855-815.774-124.617-801.093-128.97-791.046Z" transform="translate(188.952 821.743)" fill="#ffd8e5"/><path d="M-197.282-734.131l-6.1,5.23-3.122-3.317-10.82-11.5,9.761-7.842,1.587,2.692Z" transform="translate(227.606 782.951)" fill="#fff"/><path d="M-203.316-740.934l6.334,11.3-2.639,2.006-8.023-8.973Z" transform="translate(222.256 777.081)" fill="#f75b73"/><path d="M-206.5-732.218l-10.82-11.5,9.761-7.842,1.587,2.692A116.486,116.486,0,0,1-206.5-732.218Z" transform="translate(227.606 782.951)" fill="#471066" opacity="0.2"/><path d="M-127.915-791.046c-2.389,5.516-6.324,12.951-8.855,17.614-1.443,2.646-2.429,4.393-2.429,4.393l-7.131-4.576s.189-2.016.6-5.224c1.764-13.868,7.693-50,20.587-41.671C-117.8-815.774-123.562-801.093-127.915-791.046Z" transform="translate(188.369 821.743)" fill="#fff"/><path d="M-144.518-756.161s6.318-30.924,10.87-37.44c4.088-5.853,8.176-1.393,7.06,3.623S-141.08-753-141.08-753Z" transform="translate(187.367 807.724)" fill="#f75b73"/><path d="M-136.771-720.422c-1.443,2.646-2.429,4.393-2.429,4.393l-7.131-4.576s.189-2.017.6-5.224A24.652,24.652,0,0,1-136.771-720.422Z" transform="translate(188.369 768.733)" fill="#471066" opacity="0.2"/><g transform="translate(9.4 42.766)"><path d="M-170.356-696.455c0,15.2-10.956,16.313-24.47,16.313s-24.47-1.11-24.47-16.313,10.956-29.681,24.47-29.681S-170.356-711.658-170.356-696.455Z" transform="translate(219.296 726.136)" fill="#ffd8e5"/><path d="M-169.441-695.54c0,15.2-10.956,16.313-24.47,16.313s-24.47-1.109-24.47-16.313,10.956-29.681,24.47-29.681S-169.441-710.743-169.441-695.54Z" transform="translate(218.79 725.63)" fill="#fff"/><path d="M-165.17-652.049c0,2.509-1.6,4.551-3.559,4.551a3.326,3.326,0,0,1-2.78-1.72,3.337,3.337,0,0,1-2.783,1.72c-1.959,0-3.556-2.042-3.556-4.551a.8.8,0,0,1,.8-.8.8.8,0,0,1,.795.8c0,1.606.9,2.961,1.966,2.961s1.969-1.355,1.969-2.961a.841.841,0,0,1,.029-.219c-1.937-.245-3.4-1.365-3.4-2.3,0-1.059,1.873-1.482,4.186-1.482s4.186.423,4.186,1.482c0,.935-1.463,2.055-3.4,2.3a.823.823,0,0,1,.029.219c0,1.606.9,2.961,1.965,2.961s1.969-1.355,1.969-2.961a.8.8,0,0,1,.795-.8A.8.8,0,0,1-165.17-652.049Z" transform="translate(196.388 687.4)" fill="#f75b73"/><g transform="translate(12.945 15.604)"><path d="M-151.154-691.251c-2.251,0-4.078,2.99-4.078,6.685s1.827,6.685,4.078,6.685,4.079-3,4.079-6.685S-148.9-691.251-151.154-691.251Zm-1.323,6.983a1.452,1.452,0,0,1-1.455-1.449,1.457,1.457,0,0,1,1.455-1.455,1.456,1.456,0,0,1,1.449,1.455,1.451,1.451,0,0,1-1.449,1.449Z" transform="translate(170.943 691.251)" fill="#f75b73"/><path d="M-190.356-684.566c0,3.689,1.827,6.685,4.079,6.685s4.078-3,4.078-6.685-1.827-6.685-4.078-6.685S-190.356-688.261-190.356-684.566Zm3.952-1.151a1.456,1.456,0,0,1,1.449-1.455,1.457,1.457,0,0,1,1.455,1.455,1.452,1.452,0,0,1-1.455,1.449,1.451,1.451,0,0,1-1.445-1.45Z" transform="translate(190.356 691.251)" fill="#f75b73"/></g></g><path d="M-220.95-755.129s1.921,35.655-10.076,35.79c-14.107.159-8.417-22.97-6.654-30.562C-235.772-758.116-226.178-760.532-220.95-755.129Z" transform="translate(240.31 786.523)" fill="#ffd8e5"/><path d="M-219.424-755.129s1.921,35.655-10.076,35.79c-14.107.159-8.417-22.97-6.654-30.562C-234.246-758.116-224.652-760.532-219.424-755.129Z" transform="translate(239.467 786.523)" fill="#fff"/><path d="M-198.692-602.924s-15.8,12.013-12.013,16.882,19.7-6.385,23.051-10.389S-194.039-606.928-198.692-602.924Z" transform="translate(224.272 701.499)" fill="#ffd8e5"/><path d="M-174.635-587.907l-10.276,15.168a22.253,22.253,0,0,1-2.458-6.553q-.456-2.182-.7-4.227l4.777-2.549Z" transform="translate(211.439 692.505)" fill="#471066" opacity="0.2"/><path d="M-197.585-602.889s-15.8,12.013-12.013,16.883,19.7-6.385,23.051-10.389S-191.656-607.559-197.585-602.889Z" transform="translate(223.66 701.629)" fill="#fff"/><path d="M-146.531-578.33c-3.108,2.043-8.626,6.553-5.136,15.545a16.755,16.755,0,0,0,12.213,10.334s-8.321-.939-6.845,3.087,14.093,2.147,18.79-1.208,1.732-22.345-6.066-26.779C-138.251-580.008-143.9-580.06-146.531-578.33Z" transform="translate(191.936 687.863)" fill="#ffd8e5"/><path d="M-145.344-578.33c-3.108,2.043-8.626,6.553-5.136,15.545a16.755,16.755,0,0,0,12.213,10.334s-8.321-.939-6.845,3.087,14.093,2.147,18.79-1.208,1.732-22.345-6.066-26.779C-137.064-580.008-142.712-580.06-145.344-578.33Z" transform="translate(191.28 687.863)" fill="#fff"/></g></g><path d="M-232.219-8.326a3.333,3.333,0,0,1,1.61,1.219,3.5,3.5,0,0,1,.575,2.047,4.247,4.247,0,0,1-1.932,3.772A9.25,9.25,0,0,1-237.164,0h-8.073l3.22-16.1h7.429a6.845,6.845,0,0,1,3.876.932,3.044,3.044,0,0,1,1.368,2.679,4.226,4.226,0,0,1-.782,2.565A4.712,4.712,0,0,1-232.219-8.326Zm-7.291-5.428-.9,4.439h4.255a4.692,4.692,0,0,0,2.691-.678,2.259,2.259,0,0,0,.989-1.99q0-1.771-2.783-1.771Zm2.553,11.408a5.182,5.182,0,0,0,2.91-.69,2.286,2.286,0,0,0,1.023-2.024,1.609,1.609,0,0,0-.725-1.483,4.2,4.2,0,0,0-2.174-.449h-4.945l-.92,4.646Zm22.54-9.936L-216.878,0h-2.737l.276-1.357A5.925,5.925,0,0,1-223.5.161a4.634,4.634,0,0,1-3.232-1.093A3.929,3.929,0,0,1-227.941-4a6.87,6.87,0,0,1,.161-1.472l1.357-6.808h2.875L-224.9-5.541a4.8,4.8,0,0,0-.1.941,2.168,2.168,0,0,0,.61,1.656,2.577,2.577,0,0,0,1.828.575,3.857,3.857,0,0,0,2.6-.885,4.493,4.493,0,0,0,1.38-2.656l1.288-6.371Zm14.513,0-8.464,13.363a9.381,9.381,0,0,1-2.4,2.772,4.829,4.829,0,0,1-2.771.77,5.712,5.712,0,0,1-1.817-.3,3.7,3.7,0,0,1-1.4-.782l1.426-2.093a2.89,2.89,0,0,0,2.024.782,2.217,2.217,0,0,0,1.288-.379A4.37,4.37,0,0,0-210.9.552l.391-.6-2.9-12.236h2.875l2.07,9.108,5.681-9.108Zm15.778,8.556h-8.1L-194.545,0h-3.2l10.465-16.1h2.967l4,16.1h-2.967Zm-.552-2.346-1.633-7.084-4.439,7.084ZM-155.9-16.1-159.125,0h-2.967l1.357-6.831h-8.326L-170.418,0h-2.99l3.22-16.1h2.99l-1.311,6.6h8.326l1.311-6.6Zm14.444,3.818L-143.922,0h-2.737l.276-1.357A5.925,5.925,0,0,1-150.546.161a4.634,4.634,0,0,1-3.232-1.093A3.929,3.929,0,0,1-154.985-4a6.868,6.868,0,0,1,.161-1.472l1.357-6.808h2.875l-1.357,6.739a4.8,4.8,0,0,0-.092.943,2.168,2.168,0,0,0,.61,1.656,2.577,2.577,0,0,0,1.828.575,3.857,3.857,0,0,0,2.6-.885,4.493,4.493,0,0,0,1.38-2.656l1.288-6.371Zm9.683-.138a4.734,4.734,0,0,1,3.277,1.081,3.893,3.893,0,0,1,1.208,3.059,9,9,0,0,1-.161,1.472L-128.811,0h-2.875l1.334-6.739a4.8,4.8,0,0,0,.092-.943q0-2.231-2.461-2.231a3.891,3.891,0,0,0-2.622.885,4.6,4.6,0,0,0-1.4,2.656L-138.034,0h-2.875l2.438-12.282h2.737l-.276,1.357A6.075,6.075,0,0,1-131.778-12.42Zm21.39-4.646L-113.792,0h-2.737l.253-1.265A5.893,5.893,0,0,1-120.255.161,5.836,5.836,0,0,1-123-.483a4.763,4.763,0,0,1-1.944-1.875,5.656,5.656,0,0,1-.713-2.887,7.563,7.563,0,0,1,.9-3.7,6.545,6.545,0,0,1,2.472-2.553,6.871,6.871,0,0,1,3.531-.92,6.074,6.074,0,0,1,2.519.483,3.75,3.75,0,0,1,1.667,1.426l1.311-6.555ZM-119.519-2.3a4.084,4.084,0,0,0,2.162-.587A4.029,4.029,0,0,0-115.85-4.52a5.112,5.112,0,0,0,.54-2.38,2.991,2.991,0,0,0-.851-2.266,3.315,3.315,0,0,0-2.392-.816,4.084,4.084,0,0,0-2.162.587,4.029,4.029,0,0,0-1.507,1.633,5.112,5.112,0,0,0-.54,2.38,2.991,2.991,0,0,0,.851,2.266,3.315,3.315,0,0,0,2.392.816Zm13.616-8.4a4.38,4.38,0,0,1,1.966-1.334,8.723,8.723,0,0,1,2.771-.391l-.529,2.737a4.133,4.133,0,0,0-.713-.069q-3.519,0-4.255,3.7L-107.881,0h-2.875l2.438-12.282h2.737Zm16.675,3.657a8.248,8.248,0,0,1-.184,1.748h-9.752q.069,3.013,3.542,3.013a5.76,5.76,0,0,0,1.978-.333,4.539,4.539,0,0,0,1.564-.932l1.2,2A6.136,6.136,0,0,1-93.15-.265a8.993,8.993,0,0,1-2.771.426A7.245,7.245,0,0,1-99.13-.506a4.872,4.872,0,0,1-2.1-1.9,5.426,5.426,0,0,1-.736-2.841,7.5,7.5,0,0,1,.909-3.691,6.511,6.511,0,0,1,2.53-2.564,7.256,7.256,0,0,1,3.646-.92,5.793,5.793,0,0,1,4.117,1.438,5.131,5.131,0,0,1,1.536,3.946Zm-5.8-3.082a3.953,3.953,0,0,0-2.472.782A4,4,0,0,0-98.911-7.2h7.038a2.671,2.671,0,0,0-.84-2.151,3.341,3.341,0,0,0-2.311-.769ZM-73.2-17.066-76.6,0h-2.737l.253-1.265A5.893,5.893,0,0,1-83.064.161a5.836,5.836,0,0,1-2.748-.644,4.763,4.763,0,0,1-1.944-1.875,5.656,5.656,0,0,1-.713-2.887,7.563,7.563,0,0,1,.9-3.7A6.545,6.545,0,0,1-85.1-11.5a6.871,6.871,0,0,1,3.531-.92,6.074,6.074,0,0,1,2.519.483,3.75,3.75,0,0,1,1.667,1.426l1.311-6.555ZM-82.328-2.3a4.084,4.084,0,0,0,2.162-.587A4.029,4.029,0,0,0-78.66-4.52a5.112,5.112,0,0,0,.54-2.38,2.991,2.991,0,0,0-.851-2.266,3.315,3.315,0,0,0-2.392-.816,4.084,4.084,0,0,0-2.162.587,4.029,4.029,0,0,0-1.507,1.633,5.112,5.112,0,0,0-.54,2.38,2.991,2.991,0,0,0,.851,2.266,3.315,3.315,0,0,0,2.393.816ZM-64.48-16.1h2.99L-64.71,0H-67.7Zm12.213,3.68a4.734,4.734,0,0,1,3.278,1.081A3.893,3.893,0,0,1-47.782-8.28a9,9,0,0,1-.161,1.472L-49.3,0h-2.875l1.334-6.739a4.8,4.8,0,0,0,.092-.943q0-2.231-2.461-2.231a3.891,3.891,0,0,0-2.622.885,4.6,4.6,0,0,0-1.4,2.656L-58.523,0H-61.4l2.438-12.282h2.737l-.276,1.357a6.075,6.075,0,0,1,4.234-1.5ZM-42.216.161a11.448,11.448,0,0,1-2.979-.38,6.63,6.63,0,0,1-2.2-.955l1.2-2.208a5.951,5.951,0,0,0,1.909.874,8.744,8.744,0,0,0,2.369.322,4.5,4.5,0,0,0,2.082-.379,1.189,1.189,0,0,0,.7-1.093.843.843,0,0,0-.587-.8,10.977,10.977,0,0,0-1.851-.529,16.416,16.416,0,0,1-2.151-.541,3.5,3.5,0,0,1-1.449-.943,2.548,2.548,0,0,1-.61-1.806,3.5,3.5,0,0,1,1.6-3.024,7.278,7.278,0,0,1,4.243-1.115,10.493,10.493,0,0,1,2.461.287,6.456,6.456,0,0,1,1.955.771L-36.582-9.15A5.615,5.615,0,0,0-38.3-9.863a8.171,8.171,0,0,0-1.92-.23,4.115,4.115,0,0,0-2.058.414,1.23,1.23,0,0,0-.7,1.081.893.893,0,0,0,.609.862,10.849,10.849,0,0,0,1.9.541,16.05,16.05,0,0,1,2.116.54,3.472,3.472,0,0,1,1.426.932,2.468,2.468,0,0,1,.6,1.748A3.473,3.473,0,0,1-37.938-.92,7.557,7.557,0,0,1-42.216.161Zm10.948-4.278a4.859,4.859,0,0,0-.046.529q0,1.38,1.449,1.38a2.8,2.8,0,0,0,1.61-.483l.506,2.116a5.492,5.492,0,0,1-2.967.736,3.66,3.66,0,0,1-2.553-.874,3.092,3.092,0,0,1-.966-2.415,4.917,4.917,0,0,1,.092-.966l1.173-5.8h-2l.46-2.3h2L-31.958-15h2.875l-.575,2.806h3.312l-.46,2.3h-3.312Zm18.975-8.165L-14.731,0h-2.737l.253-1.265a5.816,5.816,0,0,1-4,1.426,5.836,5.836,0,0,1-2.749-.644,4.763,4.763,0,0,1-1.943-1.875,5.656,5.656,0,0,1-.713-2.887,7.5,7.5,0,0,1,.909-3.691A6.605,6.605,0,0,1-23.23-11.5a6.871,6.871,0,0,1,3.531-.92,4.573,4.573,0,0,1,4.186,1.955l.345-1.817ZM-20.481-2.3a4.067,4.067,0,0,0,2.174-.587A4.136,4.136,0,0,0-16.8-4.52a5.025,5.025,0,0,0,.552-2.38A2.991,2.991,0,0,0-17.1-9.166a3.315,3.315,0,0,0-2.392-.816,4.067,4.067,0,0,0-2.174.587,4.136,4.136,0,0,0-1.507,1.633,5.025,5.025,0,0,0-.552,2.38,2.991,2.991,0,0,0,.851,2.266,3.315,3.315,0,0,0,2.393.816ZM2.933-12.282.84-1.863A8.359,8.359,0,0,1-1.713,3.071,7.623,7.623,0,0,1-6.75,4.623,9.064,9.064,0,0,1-12.5,2.944L-11.005.782a5.335,5.335,0,0,0,1.9,1,8.283,8.283,0,0,0,2.542.38A4.653,4.653,0,0,0-3.53,1.288,4.4,4.4,0,0,0-2.13-1.38l.115-.6A5.957,5.957,0,0,1-6.037-.552a6.314,6.314,0,0,1-2.841-.621,4.657,4.657,0,0,1-1.955-1.771,5.065,5.065,0,0,1-.7-2.691,6.749,6.749,0,0,1,.9-3.439,6.494,6.494,0,0,1,2.5-2.45,7.181,7.181,0,0,1,3.577-.9,6.038,6.038,0,0,1,2.6.541A3.78,3.78,0,0,1-.218-10.258l.391-2.024ZM-5.393-2.99a4.333,4.333,0,0,0,2.174-.54,3.891,3.891,0,0,0,1.495-1.5,4.287,4.287,0,0,0,.54-2.15,2.6,2.6,0,0,0-.851-2.058A3.47,3.47,0,0,0-4.4-9.982a4.4,4.4,0,0,0-2.185.54A3.869,3.869,0,0,0-8.1-7.947,4.287,4.287,0,0,0-8.636-5.8a2.589,2.589,0,0,0,.862,2.047,3.48,3.48,0,0,0,2.381.763ZM8.338-10.7A4.38,4.38,0,0,1,10.3-12.029a8.723,8.723,0,0,1,2.772-.391l-.529,2.737a4.132,4.132,0,0,0-.713-.069q-3.519,0-4.255,3.7L6.36,0H3.485L5.923-12.282H8.66ZM26.6-12.282,24.162,0H21.425l.253-1.265a5.816,5.816,0,0,1-4,1.426A5.836,5.836,0,0,1,14.93-.483a4.763,4.763,0,0,1-1.944-1.875,5.656,5.656,0,0,1-.713-2.887,7.5,7.5,0,0,1,.909-3.691A6.6,6.6,0,0,1,15.663-11.5a6.871,6.871,0,0,1,3.531-.92,4.573,4.573,0,0,1,4.186,1.955l.345-1.817ZM18.412-2.3a4.067,4.067,0,0,0,2.174-.587A4.136,4.136,0,0,0,22.092-4.52a5.025,5.025,0,0,0,.552-2.38,2.991,2.991,0,0,0-.851-2.266A3.315,3.315,0,0,0,19.4-9.982a4.067,4.067,0,0,0-2.174.587,4.136,4.136,0,0,0-1.507,1.633,5.025,5.025,0,0,0-.552,2.38,2.991,2.991,0,0,0,.851,2.266A3.315,3.315,0,0,0,18.412-2.3ZM44.793-12.42a4.711,4.711,0,0,1,3.255,1.058,3.858,3.858,0,0,1,1.184,3.036,7.521,7.521,0,0,1-.161,1.518L47.714,0H44.839L46.2-6.739a4.918,4.918,0,0,0,.092-.966q0-2.208-2.346-2.208-3.059,0-3.772,3.519L38.882,0H36.007l1.357-6.739a4.918,4.918,0,0,0,.092-.966q0-2.208-2.346-2.208-3.059,0-3.772,3.542L30.05,0H27.175l2.438-12.282H32.35l-.25,1.334a5.636,5.636,0,0,1,4.025-1.472,4.944,4.944,0,0,1,2.323.517,3.421,3.421,0,0,1,1.492,1.5A6.335,6.335,0,0,1,44.793-12.42ZM62.2-13.593l-.989,4.9h7.8l-.506,2.53H60.732L59.49,0H56.5l3.22-16.1H71.473l-.506,2.507ZM75.843.161A6.887,6.887,0,0,1,72.7-.518a5,5,0,0,1-2.082-1.9,5.366,5.366,0,0,1-.736-2.829,7.294,7.294,0,0,1,.932-3.68,6.686,6.686,0,0,1,2.6-2.565,7.578,7.578,0,0,1,3.76-.931,7.06,7.06,0,0,1,3.151.667A4.908,4.908,0,0,1,82.418-9.87a5.366,5.366,0,0,1,.736,2.829,7.224,7.224,0,0,1-.943,3.68A6.85,6.85,0,0,1,79.6-.782a7.5,7.5,0,0,1-3.757.943ZM76.027-2.3A4.067,4.067,0,0,0,78.2-2.887,4.136,4.136,0,0,0,79.707-4.52a5.025,5.025,0,0,0,.552-2.38,2.991,2.991,0,0,0-.851-2.266,3.315,3.315,0,0,0-2.392-.816,4.067,4.067,0,0,0-2.174.587,4.136,4.136,0,0,0-1.507,1.633,5.025,5.025,0,0,0-.552,2.38,2.991,2.991,0,0,0,.851,2.266,3.315,3.315,0,0,0,2.393.816ZM87.251-17.066h2.875L86.722,0H83.847Zm5.888,0h2.875L92.61,0H89.735ZM101.695.161a6.887,6.887,0,0,1-3.139-.679,5,5,0,0,1-2.082-1.9,5.366,5.366,0,0,1-.736-2.829,7.294,7.294,0,0,1,.932-3.68,6.686,6.686,0,0,1,2.6-2.565,7.578,7.578,0,0,1,3.76-.931,7.06,7.06,0,0,1,3.151.667,4.908,4.908,0,0,1,2.093,1.886,5.366,5.366,0,0,1,.736,2.829,7.224,7.224,0,0,1-.943,3.68,6.85,6.85,0,0,1-2.611,2.576A7.5,7.5,0,0,1,101.7.161Zm.184-2.461a4.067,4.067,0,0,0,2.173-.587,4.136,4.136,0,0,0,1.507-1.633,5.025,5.025,0,0,0,.552-2.38,2.991,2.991,0,0,0-.851-2.266,3.315,3.315,0,0,0-2.392-.816,4.067,4.067,0,0,0-2.174.587,4.136,4.136,0,0,0-1.507,1.633,5.025,5.025,0,0,0-.552,2.38,2.991,2.991,0,0,0,.851,2.266,3.315,3.315,0,0,0,2.393.816Zm29.233-9.982L124.257,0h-2.829l-1.656-8.464L114.965,0h-2.783l-2.254-12.282h2.622l1.564,9.039,5.129-9.039H121.7l1.633,9.039,5.06-9.039Zm11.2,5.244a8.249,8.249,0,0,1-.184,1.748h-9.752q.069,3.013,3.542,3.013A5.76,5.76,0,0,0,137.9-2.61a4.539,4.539,0,0,0,1.564-.932l1.2,2A6.136,6.136,0,0,1,138.4-.266a8.993,8.993,0,0,1-2.772.426,7.245,7.245,0,0,1-3.208-.667,4.872,4.872,0,0,1-2.1-1.9,5.426,5.426,0,0,1-.736-2.841,7.5,7.5,0,0,1,.909-3.691,6.511,6.511,0,0,1,2.53-2.564,7.256,7.256,0,0,1,3.645-.92,5.793,5.793,0,0,1,4.117,1.438,5.131,5.131,0,0,1,1.532,3.947Zm-5.8-3.082a3.953,3.953,0,0,0-2.473.782,4,4,0,0,0-1.41,2.138h7.038a2.671,2.671,0,0,0-.839-2.151,3.341,3.341,0,0,0-2.312-.769Zm11.27-.575a4.38,4.38,0,0,1,1.966-1.334,8.723,8.723,0,0,1,2.771-.391L152-9.683a4.132,4.132,0,0,0-.713-.069q-3.519,0-4.255,3.7L145.808,0h-2.875l2.438-12.282h2.737ZM155.951.161a11.448,11.448,0,0,1-2.979-.38,6.63,6.63,0,0,1-2.2-.955l1.2-2.208a5.951,5.951,0,0,0,1.909.874,8.744,8.744,0,0,0,2.369.322,4.5,4.5,0,0,0,2.082-.379,1.189,1.189,0,0,0,.7-1.093.843.843,0,0,0-.587-.8,10.977,10.977,0,0,0-1.852-.529,16.417,16.417,0,0,1-2.15-.541A3.5,3.5,0,0,1,153-6.475a2.548,2.548,0,0,1-.61-1.806,3.5,3.5,0,0,1,1.6-3.024,7.278,7.278,0,0,1,4.243-1.115,10.493,10.493,0,0,1,2.461.287,6.456,6.456,0,0,1,1.955.771l-1.058,2.208a5.615,5.615,0,0,0-1.714-.713,8.171,8.171,0,0,0-1.921-.23,4.115,4.115,0,0,0-2.059.414,1.23,1.23,0,0,0-.7,1.081.893.893,0,0,0,.61.862,10.849,10.849,0,0,0,1.9.541,16.049,16.049,0,0,1,2.116.54,3.472,3.472,0,0,1,1.426.932,2.468,2.468,0,0,1,.6,1.748,3.473,3.473,0,0,1-1.61,3.059A7.557,7.557,0,0,1,155.951.161Zm27.3-7.383a14.134,14.134,0,0,1-2.139,3.8l1.541,1.84L180.745.253,179.2-1.564A8.942,8.942,0,0,1,173.776.23,7.9,7.9,0,0,1,170.9-.253a4.4,4.4,0,0,1-1.932-1.368,3.288,3.288,0,0,1-.69-2.082,4.19,4.19,0,0,1,1.161-2.921,11.5,11.5,0,0,1,3.508-2.392,4.772,4.772,0,0,1-1.1-2.9,4.055,4.055,0,0,1,.667-2.323,4.311,4.311,0,0,1,1.817-1.518,6.093,6.093,0,0,1,2.576-.529,4.753,4.753,0,0,1,2.933.839,2.733,2.733,0,0,1,1.115,2.311,3.562,3.562,0,0,1-1.023,2.53,10.672,10.672,0,0,1-3.139,2.093l2.783,3.289a12.928,12.928,0,0,0,1.472-2.76Zm-6.44-7.015a2.448,2.448,0,0,0-1.691.564,1.891,1.891,0,0,0-.632,1.483,2.279,2.279,0,0,0,.218.943,5.816,5.816,0,0,0,.748,1.15,9.151,9.151,0,0,0,2.392-1.392,1.892,1.892,0,0,0,.644-1.415,1.2,1.2,0,0,0-.449-.954,1.845,1.845,0,0,0-1.229-.379Zm-2.76,12.121a6.162,6.162,0,0,0,3.657-1.219l-3.427-4.071a8.719,8.719,0,0,0-2.392,1.518,2.337,2.337,0,0,0-.736,1.7A1.792,1.792,0,0,0,171.9-2.68a3.523,3.523,0,0,0,2.152.564ZM193-16.1h2.99L193.28-2.53h8.42L201.192,0H189.784Zm11.96,3.818h2.875L205.4,0h-2.875Zm2.093-2.024a1.7,1.7,0,0,1-1.242-.472,1.533,1.533,0,0,1-.483-1.138,1.761,1.761,0,0,1,.54-1.311,1.936,1.936,0,0,1,1.414-.529,1.753,1.753,0,0,1,1.242.448,1.435,1.435,0,0,1,.483,1.093,1.845,1.845,0,0,1-.54,1.38,1.936,1.936,0,0,1-1.41.529Zm9.752,7.291L221.133,0H217.8l-3.289-5.313-2.576,2.07L211.289,0h-2.875l3.4-17.066h2.875l-2.02,10.189,6.739-5.4h3.91Zm17.572-.023A8.247,8.247,0,0,1,234.2-5.29h-9.752q.069,3.013,3.542,3.013a5.76,5.76,0,0,0,1.978-.333,4.539,4.539,0,0,0,1.564-.932l1.2,2A6.136,6.136,0,0,1,230.46-.265a8.993,8.993,0,0,1-2.772.426,7.245,7.245,0,0,1-3.208-.667,4.872,4.872,0,0,1-2.1-1.9,5.426,5.426,0,0,1-.736-2.841,7.5,7.5,0,0,1,.909-3.691,6.511,6.511,0,0,1,2.53-2.564,7.256,7.256,0,0,1,3.645-.92,5.793,5.793,0,0,1,4.117,1.438,5.131,5.131,0,0,1,1.536,3.946Zm-5.8-3.082a3.953,3.953,0,0,0-2.473.782A4,4,0,0,0,224.7-7.2h7.038a2.671,2.671,0,0,0-.838-2.15,3.341,3.341,0,0,0-2.315-.77ZM239.188.161a11.448,11.448,0,0,1-2.979-.38,6.63,6.63,0,0,1-2.2-.955l1.2-2.208a5.951,5.951,0,0,0,1.909.874,8.744,8.744,0,0,0,2.369.322,4.5,4.5,0,0,0,2.082-.379,1.189,1.189,0,0,0,.7-1.093.843.843,0,0,0-.587-.8,10.977,10.977,0,0,0-1.852-.529,16.417,16.417,0,0,1-2.15-.541,3.5,3.5,0,0,1-1.449-.943,2.548,2.548,0,0,1-.61-1.806,3.5,3.5,0,0,1,1.6-3.024,7.278,7.278,0,0,1,4.243-1.115,10.493,10.493,0,0,1,2.461.287,6.456,6.456,0,0,1,1.955.771L244.822-9.15a5.615,5.615,0,0,0-1.714-.713,8.171,8.171,0,0,0-1.921-.23,4.115,4.115,0,0,0-2.059.414,1.23,1.23,0,0,0-.7,1.081.893.893,0,0,0,.61.862,10.849,10.849,0,0,0,1.9.541,16.048,16.048,0,0,1,2.116.54,3.472,3.472,0,0,1,1.426.932,2.468,2.468,0,0,1,.6,1.748,3.473,3.473,0,0,1-1.61,3.059A7.557,7.557,0,0,1,239.188.161Z" transform="translate(497 180.833)" fill="#f8f9fc"/><g clip-path="url(#f)"><rect width="333" height="74" transform="translate(-122 133.477)" fill="none"/><g transform="translate(-2777.667 377.351)"><g transform="matrix(-0.927, 0.375, -0.375, -0.927, 2949.444, -176.32)" clip-path="url(#g)"><g transform="translate(34.133 50.801) rotate(-177)"><path d="M23.117,43.642C20,41.482,17.628,37.863,16.06,32.885c-.695-2.2-1.2-4.5-1.687-6.725-.439-2-.893-4.069-1.485-6.067A43.5,43.5,0,0,0,.16,0L0,.18A43.257,43.257,0,0,1,12.657,20.162c.589,1.989,1.042,4.054,1.48,6.049.489,2.228,1,4.532,1.693,6.745,1.585,5.031,3.99,8.692,7.151,10.883Z" fill="#fc5185"/><g transform="translate(10.86 15.05)"><path d="M.142,0,0,.089C.026.131,2.631,4.256,5.9,5.137l.044-.163C2.739,4.111.168.042.142,0Z" fill="#fc5185"/></g><g transform="translate(11.067 20.96)"><path d="M1.86,0C1.858.04,1.6,4.079,0,6.376l.138.1C1.77,4.136,2.025.05,2.027.009Z" fill="#fc5185"/></g><g transform="translate(9.229 25.07)"><path d="M.285,2.924A7.6,7.6,0,0,0,.3,7.089a17.4,17.4,0,0,0,1.655,3.87c-.171-1.7,1.009-3.2,1.609-4.807A7.425,7.425,0,0,0,3.8,1.828C3.687,1.347,3.488.271,2.974.044s-1.186.5-1.5.831A5.276,5.276,0,0,0,.285,2.924Z" fill="#fc5185"/></g><g transform="translate(13.98 18.359)"><path d="M3.675.419C4.92.868,6.028,1.592,7.29,2.141a4.893,4.893,0,0,0,3.886.269A6.923,6.923,0,0,1,4.943,4.6,7.01,7.01,0,0,1,.223,1.327C-.6-.035,1.053-.059,1.985.03a6.811,6.811,0,0,1,1.69.389Z" fill="#fc5185"/></g><g transform="translate(14.672 28.357)"><path d="M.15,0,0,.075c.02.04,2.023,4,5.3,5.253l.06-.157C2.144,3.939.17.04.15,0Z" fill="#fc5185"/></g><g transform="translate(18.252 31.833)"><path d="M3.787,4.82A6.313,6.313,0,0,0,9.244,3.78a1.748,1.748,0,0,1-1.9.144A4.142,4.142,0,0,1,5.9,2.544,9.816,9.816,0,0,0,4.648.958,3.649,3.649,0,0,0,.6.385C-.853,1.277.66,2.9,1.508,3.61A6.209,6.209,0,0,0,3.787,4.82Z" fill="#fc5185"/></g><g transform="translate(16.14 34.981)"><path d="M.618,0,.452.026C.458.061,1,3.566,0,5.129l.142.091C1.172,3.6.641.146.618,0Z" fill="#fc5185"/></g><g transform="translate(11.82 38.8)"><path d="M2.027,1.581a9.252,9.252,0,0,0-.918,2.968A6.64,6.64,0,0,1,0,7.435,6.5,6.5,0,0,0,5,4.214a4.6,4.6,0,0,0,.648-2.246c0-.76-.263-2.019-1.238-1.966A3.183,3.183,0,0,0,2.027,1.581Z" fill="#fc5185"/></g><g transform="translate(21.146 41.604)"><path d="M2.044,4.294A7.753,7.753,0,0,0,6.2,5.522a17.014,17.014,0,0,0,4.35-.558,3.054,3.054,0,0,1-2.8-.776,23.587,23.587,0,0,1-2.023-2.26A6,6,0,0,0,3.225.191C2.26-.124.384-.184.046,1.089-.276,2.3,1.161,3.692,2.044,4.294Z" fill="#fc5185"/></g></g></g><g transform="matrix(-0.788, -0.616, 0.616, -0.788, 2831.769, -164.874)" clip-path="url(#h)"><g transform="translate(-13.322 5.268) rotate(-3)"><g transform="translate(0 4.641)"><path d="M32.6.279C28.212,3.325,24.863,8.43,22.651,15.45c-.98,3.108-1.691,6.35-2.38,9.485-.619,2.821-1.26,5.739-2.094,8.557A61.354,61.354,0,0,1,.226,61.832L0,61.578A61.01,61.01,0,0,0,17.851,33.4c.831-2.806,1.47-5.717,2.088-8.532.69-3.143,1.4-6.392,2.387-9.514C24.561,8.254,27.954,3.089,32.411,0Z" fill="#fc5185"/></g><g transform="translate(15.317 38.002)"><path d="M.2,7.245,0,7.119C.037,7.06,3.711,1.242,8.322,0l.062.23C3.863,1.446.237,7.186.2,7.245Z" fill="#fc5185"/></g><g transform="translate(15.609 27.783)"><path d="M2.623,9.128c0-.057-.36-5.753-2.623-8.993L.194,0C2.5,3.3,2.856,9.057,2.859,9.115Z" fill="#fc5185"/></g><g transform="translate(13.016 15.659)"><path d="M.4,11.332A10.718,10.718,0,0,1,.421,5.458,24.54,24.54,0,0,1,2.755,0C2.514,2.4,4.178,4.52,5.024,6.779a10.472,10.472,0,0,1,.341,6.1c-.165.679-.446,2.2-1.17,2.517s-1.673-.7-2.117-1.173A7.441,7.441,0,0,1,.4,11.332Z" fill="#fc5185"/></g><g transform="translate(19.717 33.965)"><path d="M5.183,6.023C6.94,5.39,8.5,4.369,10.282,3.594a6.9,6.9,0,0,1,5.481-.38A9.764,9.764,0,0,0,6.971.132,9.887,9.887,0,0,0,.315,4.742C-.847,6.664,1.486,6.7,2.8,6.572a9.606,9.606,0,0,0,2.383-.549Z" fill="#fc5185"/></g><g transform="translate(20.693 18.963)"><path d="M.212,7.516,0,7.409C.028,7.354,2.853,1.773,7.48,0l.085.221C3.024,1.96.239,7.46.212,7.516Z" fill="#fc5185"/></g><g transform="translate(25.742 14.459)"><path d="M5.341.319a8.9,8.9,0,0,1,7.7,1.467,2.465,2.465,0,0,0-2.679-.2A5.841,5.841,0,0,0,8.317,3.529,13.844,13.844,0,0,1,6.556,5.765a5.146,5.146,0,0,1-5.7.808C-1.2,5.316.938,3.022,2.134,2.024A8.758,8.758,0,0,1,5.341.319Z" fill="#fc5185"/></g><g transform="translate(22.763 9.774)"><path d="M.872,7.361.638,7.324c.008-.049.768-4.993-.638-7.2L.2,0C1.654,2.279.9,7.156.872,7.361Z" fill="#fc5185"/></g><g transform="translate(16.67 1.263)"><path d="M2.859,8.256A13.048,13.048,0,0,1,1.565,4.07,9.365,9.365,0,0,0,0,0,9.173,9.173,0,0,1,7.052,4.543,6.491,6.491,0,0,1,7.966,7.71c0,1.072-.371,2.847-1.745,2.773A4.489,4.489,0,0,1,2.859,8.256Z" fill="#fc5185"/></g><g transform="translate(29.824)"><path d="M2.882,1.738A10.934,10.934,0,0,1,8.751.006a24,24,0,0,1,6.135.787,4.307,4.307,0,0,0-3.951,1.094A33.268,33.268,0,0,0,8.081,5.074,8.467,8.467,0,0,1,4.549,7.525C3.188,7.97.542,8.054.065,6.259-.39,4.546,1.638,2.587,2.882,1.738Z" fill="#fc5185"/></g></g></g><g transform="matrix(0.799, 0.602, -0.602, 0.799, 2821.952, -249.92)" clip-path="url(#i)"><g transform="translate(-13.52 5.346) rotate(-3)"><g transform="translate(0 4.71)"><path d="M33.088.283c-4.458,3.091-7.857,8.272-10.1,15.4-.994,3.155-1.717,6.444-2.415,9.626-.628,2.863-1.279,5.824-2.125,8.684A62.264,62.264,0,0,1,.23,62.748L0,62.491a61.914,61.914,0,0,0,18.115-28.6c.843-2.847,1.492-5.8,2.119-8.659.7-3.189,1.425-6.487,2.423-9.655C24.925,8.376,28.369,3.135,32.892,0Z" fill="#fc5185"/></g><g transform="translate(15.544 38.565)"><path d="M.2,7.352,0,7.224C.037,7.165,3.766,1.26,8.445,0l.063.233C3.92,1.468.24,7.293.2,7.352Z" fill="#fc5185"/></g><g transform="translate(15.841 28.195)"><path d="M2.662,9.264C2.659,9.206,2.3,3.425,0,.137L.2,0C2.533,3.344,2.9,9.192,2.9,9.25Z" fill="#fc5185"/></g><g transform="translate(13.209 15.891)"><path d="M.408,11.5A10.877,10.877,0,0,1,.427,5.539,24.9,24.9,0,0,1,2.8,0C2.551,2.436,4.24,4.587,5.1,6.88a10.627,10.627,0,0,1,.346,6.188c-.167.689-.452,2.229-1.187,2.554s-1.7-.712-2.149-1.19A7.552,7.552,0,0,1,.408,11.5Z" fill="#fc5185"/></g><g transform="translate(20.009 34.468)"><path d="M5.26,6.112c1.783-.643,3.368-1.678,5.175-2.465A7,7,0,0,1,16,3.262,9.909,9.909,0,0,0,7.074.134,10.033,10.033,0,0,0,.32,4.812C-.86,6.762,1.508,6.8,2.841,6.669A9.748,9.748,0,0,0,5.26,6.112Z" fill="#fc5185"/></g><g transform="translate(21 19.244)"><path d="M.215,7.627,0,7.519C.029,7.463,2.9,1.8,7.59,0l.086.225C3.069,1.989.243,7.57.215,7.627Z" fill="#fc5185"/></g><g transform="translate(26.123 14.673)"><path d="M5.42.323a9.035,9.035,0,0,1,7.811,1.489,2.5,2.5,0,0,0-2.718-.207A5.928,5.928,0,0,0,8.44,3.582,14.049,14.049,0,0,1,6.653,5.851a5.222,5.222,0,0,1-5.787.82c-2.08-1.277.086-3.6,1.3-4.617A8.887,8.887,0,0,1,5.42.323Z" fill="#fc5185"/></g><g transform="translate(23.101 9.919)"><path d="M.885,7.47.647,7.433c.008-.05.779-5.067-.647-7.3L.2,0C1.678,2.313.917,7.262.885,7.47Z" fill="#fc5185"/></g><g transform="translate(16.918 1.282)"><path d="M2.9,8.378A13.242,13.242,0,0,1,1.588,4.13,9.5,9.5,0,0,0,0,0,9.309,9.309,0,0,1,7.156,4.611a6.587,6.587,0,0,1,.928,3.214c0,1.088-.377,2.889-1.771,2.814A4.555,4.555,0,0,1,2.9,8.378Z" fill="#fc5185"/></g><g transform="translate(30.267)"><path d="M2.925,1.764A11.1,11.1,0,0,1,8.881.006a24.352,24.352,0,0,1,6.225.8A4.371,4.371,0,0,0,11.1,1.915,33.76,33.76,0,0,0,8.2,5.149,8.593,8.593,0,0,1,4.617,7.637C3.235,8.088.55,8.174.066,6.352-.4,4.614,1.662,2.625,2.925,1.764Z" fill="#fc5185"/></g></g></g><path d="M-119.3-65.646a10.5,10.5,0,0,0,4.874,9.017,15.049,15.049,0,0,0-10.661,14.195c0,6.336,3.534,12.063,11.514,12.063,5.422,0,11.758-1.767,16.023-6.031A1.834,1.834,0,0,0-97-37.744a1.612,1.612,0,0,0-1.036-1.462,19.118,19.118,0,0,1-11.21,3.473c-5,0-7.25-3.716-7.25-7.8,0-4.935,3.351-10.479,9.382-10.9a2.94,2.94,0,0,0,.609-2.315c-4.265-1.036-6.214-4.874-6.214-8.712,0-4.447,2.62-8.9,7.311-8.9a3.351,3.351,0,0,1,2.622.972,3.351,3.351,0,0,1,.972,2.622,4.644,4.644,0,0,1-2.985,4.508,4.137,4.137,0,0,0,3.533,2.437c3.046,0,5-2.985,5-6.4,0-3.9-2.863-7.554-9.93-7.554C-114.549-77.77-119.3-71.617-119.3-65.646Zm34.726,3.777c-8.468,0-15.352,10.6-15.352,21.262,0,3.9,1.279,10.235,7.615,10.235,3.473,0,6.7-2.559,9.26-6.153-.061,4.813,2.8,6.153,5.666,6.153,3.29,0,7.676-2.8,10.54-6.031a2.12,2.12,0,0,0,.548-1.34,1.612,1.612,0,0,0-1.036-1.462c-1.523,1.523-4.143,3.046-6.4,3.046-1.584,0-2.559-1.1-1.828-4.508L-71.3-60.832a5.278,5.278,0,0,0-2.863-.792A5.4,5.4,0,0,0-78.3-59.859a9.03,9.03,0,0,0-6.275-2.01Zm1.645,21.384c-1.645,2.254-4.2,3.838-6.153,3.838-1.889,0-3.29-1.34-3.29-4.386,0-6.641,2.62-16.266,9.991-16.266a8.319,8.319,0,0,1,2.863.487Zm20.1,10.113c8.956,0,12.489-4.386,12.489-10.3,0-7.737-9.991-6.336-9.991-12.794,0-3.29,1.889-4.935,3.534-4.935,1.462,0,2.742,1.036,2.742,3.29a5.568,5.568,0,0,1-1.036,3.29,4.906,4.906,0,0,0,2.437.853c2.254.122,4.265-1.584,4.265-5,0-3.96-2.5-5.909-7.676-5.909-7.067,0-10.418,4.508-10.418,9.382,0,9.138,10.052,8.59,10.052,13.22A4.87,4.87,0,0,1-61.244-34.4a3.689,3.689,0,0,1-2.833-1.138,3.689,3.689,0,0,1-1.005-2.883,6.059,6.059,0,0,1,1.282-3.83,3.413,3.413,0,0,0-2.437-.853,5.227,5.227,0,0,0-5.178,4.691c-.671,4.082,2.07,8.042,8.589,8.042Zm29.791-27.415c1.889,0,2.863-1.584,2.559-3.534h-4.447l1.706-8.042a5.278,5.278,0,0,0-2.863-.792A4.864,4.864,0,0,0-41.2-66.317l-1.1,5h-1.218c-1.889,0-2.863,1.584-2.559,3.534h3.046l-3.9,18.4c-1.4,6.7,1.036,9.017,4.752,9.017,4.082,0,8.712-2.8,11.575-6.031a2.12,2.12,0,0,0,.548-1.34A1.612,1.612,0,0,0-31.092-39.2c-1.523,1.523-4.143,3.046-6.4,3.046-1.584,0-2.559-1.1-1.828-4.508l3.594-17.119Zm22.3,1.767c0-2.742-1.4-5.849-6.945-5.849-10.052,0-15.292,12.672-15.292,20.592,0,7.493,4.63,10.9,10.357,10.9,5.909,0,12.976-3.655,17.18-9.809.67-1.1.061-2.376-1.523-2.071-2.62,3.473-8.225,6.58-12.611,6.58-2.8,0-5.057-1.218-5.666-4.508,11.759-6.52,14.5-10.662,14.5-15.841Zm-6.519-1.1c1.036,0,1.767.975,1.767,2.376,0,3.96-4.021,8.225-9.93,11.941.183-4.262,2.133-14.314,8.164-14.314ZM2.361-58.275c.487-2.315-.731-3.351-2.924-3.351-2.559,0-4.752,1.279-6.823,2.924a2.224,2.224,0,0,0-.762,1.675,2.224,2.224,0,0,0,.762,1.676c.548-.487.914-.731,1.218-.731.548,0,.792.548.609,1.523l-5,23.394a5.278,5.278,0,0,0,2.863.792A4.864,4.864,0,0,0-2.574-34.21l.731-3.716C1.265-52,4.128-54.741,6.138-54.741c1.279,0,1.889.67,1.889,1.523a2.639,2.639,0,0,1-.67,1.889,5.889,5.889,0,0,0,1.767.244c3.168,0,4.874-2.985,4.874-5.727,0-2.5-1.523-4.813-4.447-4.813-2.8,0-5.422,1.706-7.859,6.641Z" transform="translate(2963.612 -155.051)" fill="#7d26b0"/><path d="M-4.7-19.7c-6.94,0-11.765,8.7-11.765,15.642,0,4.325,2.022,8.143,6.756,8.143,7.215,0,12.133-8.7,12.133-15.55C2.425-15.971.311-19.7-4.7-19.7Zm1.011,3.5c1.884,0,2.666,1.886,2.666,4.371C-1.022-7-3.963.085-7.594.085c-1.609,0-2.987-1.564-2.987-5.613,0-4.509,2.712-10.672,6.894-10.672ZM18.22-19.282H11.1l.322-1.38c.735-3.45,1.884-6.533,4-6.533,2.712,0,2.941,2.622,2.16,6.257h1.976c1.609-5.935.643-9.523-3.906-9.523-4.366,0-8.272,3.588-9.559,9.523l-.368,1.656H4.8c-1.425,0-2.16,1.2-1.93,2.668h2.3L.8,3.719C-1.218,13.1-2.551,17.337-5.676,17.337a2.95,2.95,0,0,1-3.171-2.53c-.919,0-1.517.46-1.517,1.242,0,3.864,2.3,5.383,5.055,5.383,6.434,0,8.824-5.291,11.489-17.712l4.366-20.334h7.675Zm8.272,2.668c1.425,0,2.16-1.2,1.93-2.668H24.886l.322-1.38c.735-3.45,1.884-6.533,4-6.533,1.149,0,1.7.46,1.7,1.334a8.211,8.211,0,0,1-.735,2.99,3.7,3.7,0,0,0,1.838.644c1.7.092,3.217-1.2,3.217-3.772,0-2.99-1.884-4.463-5.791-4.463-4.366,0-8.272,3.588-9.559,9.523l-.368,1.656h-.92c-1.425,0-2.16,1.2-1.93,2.668h2.3L14.592,3.719C12.57,13.1,11.237,17.337,8.112,17.337a2.95,2.95,0,0,1-3.171-2.53c-.919,0-1.517.46-1.517,1.242,0,3.864,2.3,5.383,5.055,5.383,6.434,0,8.824-5.291,11.489-17.712l4.366-20.334Z" transform="translate(2784.565 -201.913)" fill="#7d26b0"/><g transform="translate(2710.989 -176.522) rotate(162)" clip-path="url(#j)"><g transform="translate(30.758 45.777) rotate(-177)"><path d="M20.831,39.326c-2.807-1.946-4.946-5.207-6.36-9.693-.626-1.986-1.081-4.057-1.52-6.06-.4-1.8-.8-3.667-1.338-5.467A39.2,39.2,0,0,0,.145,0L0,.162A38.979,38.979,0,0,1,11.4,18.168c.531,1.792.939,3.653,1.334,5.451.441,2.008.9,4.084,1.525,6.078,1.428,4.533,3.6,7.833,6.444,9.807Z" fill="#fc5185"/><g transform="translate(9.786 13.561)"><path d="M.128,0,0,.08C.024.118,2.371,3.835,5.317,4.629l.04-.147C2.468,3.7.151.037.128,0Z" fill="#fc5185"/></g><g transform="translate(9.973 18.887)"><path d="M1.676,0c0,.036-.23,3.676-1.676,5.746l.124.086C1.6,3.727,1.825.045,1.827.008Z" fill="#fc5185"/></g><g transform="translate(8.316 22.591)"><path d="M.257,2.634A6.848,6.848,0,0,0,.269,6.387,15.678,15.678,0,0,0,1.76,9.874c-.154-1.534.909-2.888,1.45-4.331a6.69,6.69,0,0,0,.218-3.9c-.106-.429-.285-1.4-.748-1.6S1.612.488,1.327.789A4.754,4.754,0,0,0,.257,2.634Z" fill="#fc5185"/></g><g transform="translate(12.597 16.544)"><path d="M3.311.378c1.122.4,2.12,1.056,3.258,1.552a4.41,4.41,0,0,0,3.5.243,6.238,6.238,0,0,1-5.617,1.97A6.317,6.317,0,0,1,.2,1.2C-.541-.032.949-.053,1.789.027A6.138,6.138,0,0,1,3.311.378Z" fill="#fc5185"/></g><g transform="translate(13.221 25.552)"><path d="M.135,0,0,.068C.018.1,1.823,3.669,4.779,4.8l.054-.141C1.932,3.549.153.036.135,0Z" fill="#fc5185"/></g><g transform="translate(16.447 28.685)"><path d="M3.412,4.343A5.688,5.688,0,0,0,8.33,3.406a1.575,1.575,0,0,1-1.711.13A3.732,3.732,0,0,1,5.313,2.292,8.845,8.845,0,0,0,4.189.864,3.288,3.288,0,0,0,.545.347c-1.309.8.054,2.269.818,2.906a5.6,5.6,0,0,0,2.049,1.09Z" fill="#fc5185"/></g><g transform="translate(14.544 31.522)"><path d="M.557,0,.408.024c0,.031.49,3.19-.408,4.6L.128,4.7C1.056,3.247.578.131.557,0Z" fill="#fc5185"/></g><g transform="translate(10.651 34.963)"><path d="M1.827,1.425A8.337,8.337,0,0,0,1,4.1,5.983,5.983,0,0,1,0,6.7,5.861,5.861,0,0,0,4.505,3.8,4.147,4.147,0,0,0,5.09,1.773C5.09,1.088,4.853-.046,3.975,0A2.868,2.868,0,0,0,1.827,1.425Z" fill="#fc5185"/></g><g transform="translate(19.055 37.49)"><path d="M1.842,3.87A6.986,6.986,0,0,0,5.591,4.976a15.331,15.331,0,0,0,3.919-.5,2.752,2.752,0,0,1-2.524-.7A21.254,21.254,0,0,1,5.163,1.738,5.41,5.41,0,0,0,2.906.172C2.037-.112.346-.166.042.981-.249,2.075,1.046,3.327,1.842,3.87Z" fill="#fc5185"/></g></g></g><path d="M-34.439-38.548c0-10.564,3.969-25.035,16.487-39.08.916-.977.244-2.748-.672-3.786a21.35,21.35,0,0,1-4.885,1.1c-6.289.55-7.633-2.076-15.265-2.076-4.335,0-7.633,4.335-5.923,10.136a16.459,16.459,0,0,1,7.022-1.832c5.068,0,6.839,1.221,11.6,1.038-6.9,7.938-16.548,23.631-16.548,37.614a5.508,5.508,0,0,0,2.931.794C-37.431-34.64-34.439-35.617-34.439-38.548ZM8-65.537C8-74.208,6.106-81.169-3.237-81.169c-14.777,0-20.395,18.013-20.395,30.714,0,8.671,1.893,15.632,11.235,15.632C2.381-34.823,8-52.836,8-65.537ZM-15.693-48.806c0-6.6,2.076-28.333,11.052-28.333,2.992,0,4.7,3.725,4.7,9.953,0,6.6-2.076,28.333-11.052,28.333C-13.983-38.853-15.693-42.578-15.693-48.806Z" transform="translate(2721.731 -145.842)" fill="#7d26b0"/><path d="M-29.442-6.634a8.833,8.833,0,0,1-2.475-.347,5.8,5.8,0,0,1-1.92-.9l.848-1.882a5.756,5.756,0,0,0,1.65.817,6.2,6.2,0,0,0,1.912.308,3.055,3.055,0,0,0,1.573-.316.955.955,0,0,0,.509-.841.8.8,0,0,0-.3-.64,2.28,2.28,0,0,0-.771-.409q-.47-.154-1.272-.339a17.588,17.588,0,0,1-2.02-.586,3.282,3.282,0,0,1-1.349-.941,2.541,2.541,0,0,1-.563-1.727,3,3,0,0,1,.509-1.7,3.424,3.424,0,0,1,1.535-1.211A6.262,6.262,0,0,1-29.07-17.8a8.3,8.3,0,0,1,2.02.247,5.968,5.968,0,0,1,1.727.709l-.771,1.9a6.02,6.02,0,0,0-2.992-.848,2.805,2.805,0,0,0-1.55.339,1.036,1.036,0,0,0-.5.894.875.875,0,0,0,.578.825,9.08,9.08,0,0,0,1.766.532,17.588,17.588,0,0,1,2.02.586,3.346,3.346,0,0,1,1.349.925,2.481,2.481,0,0,1,.563,1.712,2.948,2.948,0,0,1-.517,1.689,3.471,3.471,0,0,1-1.55,1.211,6.319,6.319,0,0,1-2.515.44Zm13.834-2.5H-20.62l-.956,2.313h-2.56l4.812-10.8h2.468l4.827,10.8h-2.622Zm-.787-1.9-1.712-4.133-1.712,4.133Zm5.922-6.585h2.5v8.76H-2.56v2.036h-7.912ZM7.633-8.824v2H-.726v-10.8H7.433v2H1.757v2.344H6.77v1.943H1.757v2.5Z" transform="translate(2978.851 -214.493)" fill="#fc5185"/><g transform="translate(2814.139 -212.733)"><path d="M-897.952,1527.09l-.265.769h2.576l-.455,1.321h-2.543l-2.6,7.543h-1.606l2.6-7.543h-1.505l.455-1.321h1.506l.27-.786a4.035,4.035,0,0,1,3.912-2.86,2.263,2.263,0,0,1,1.628.518l-.906,1.221a1.512,1.512,0,0,0-1.093-.418,2.012,2.012,0,0,0-1.974,1.556Z" transform="translate(902.841 -1524.211)" fill="#7d26b0"/><path d="M-889.257,1537.39a6.75,6.75,0,0,1,6.172-4.516c2.66,0,3.955,1.873,3.045,4.516a6.753,6.753,0,0,1-6.161,4.532C-888.861,1541.92-890.167,1540.03-889.257,1537.39Zm7.595,0c.651-1.89-.2-3.111-1.907-3.111a4.472,4.472,0,0,0-4.066,3.111c-.651,1.889.211,3.127,1.917,3.127a4.477,4.477,0,0,0,4.055-3.127Z" transform="translate(895.004 -1529.308)" fill="#7d26b0"/><path d="M-858.076,1532.87l-.535,1.555a2.7,2.7,0,0,0-.362-.017,4.01,4.01,0,0,0-3.824,2.994l-1.521,4.415h-1.606l3.052-8.864h1.539l-.513,1.488a4.857,4.857,0,0,1,3.77-1.571Z" transform="translate(881.079 -1529.308)" fill="#7d26b0"/></g><path d="M-30.659,277.207a8.336,8.336,0,0,0-1.282,4.395,7.921,7.921,0,0,0-3.262-3.1,7.922,7.922,0,0,0,1.068,4.368,8.333,8.333,0,0,0-4.452-1.068,7.96,7.96,0,0,0,3.282,3.3,8.387,8.387,0,0,0,4.6,1.148,8.389,8.389,0,0,0,1.286-4.561,7.961,7.961,0,0,0-1.24-4.482Z" transform="translate(2947.98 -506.799)" fill="#fc5185"/><g transform="translate(2733.101 -227.682)"><g transform="translate(1.668 5.158)"><path d="M0,38.7s3.214-10,11.83-22.065S25.125,0,25.125,0" transform="translate(2.025) rotate(3)" fill="none" stroke="#7d26b0" stroke-linecap="round" stroke-width="7"/></g><path d="M-13.283-51.409c-6.374,0-10.806,7.978-10.806,14.351,0,3.968,1.857,7.471,6.2,7.471,6.627,0,11.143-7.978,11.143-14.267C-6.74-47.99-8.682-51.409-13.283-51.409Zm.929,3.208c1.731,0,2.448,1.731,2.448,4.01,0,4.432-2.7,10.932-6.036,10.932-1.477,0-2.744-1.435-2.744-5.15,0-4.136,2.486-9.791,6.332-9.791Z" transform="translate(24.089 51.409)" fill="#7d26b0"/><path d="M-14.142-51.409c-5.867,0-9.947,7.344-9.947,13.211,0,3.652,1.71,6.877,5.712,6.877,6.1,0,10.258-7.344,10.258-13.133C-8.119-48.262-9.906-51.409-14.142-51.409Zm.855,2.953c1.593,0,2.254,1.593,2.254,3.691,0,4.08-2.487,10.063-5.556,10.063-1.36,0-2.526-1.321-2.526-4.74,0-3.807,2.292-9.014,5.828-9.014Z" transform="translate(35.362 78.968)" fill="#7d26b0"/></g><g transform="translate(2655.402 -224.065)"><g transform="translate(328.909 26.862) rotate(99)"><path d="M1.414.441a.619.619,0,0,0-1.186,0A17.439,17.439,0,0,0,.075,5.029a24.373,24.373,0,0,0,.409,4.52.352.352,0,0,0,.674,0A24.373,24.373,0,0,0,1.567,5.03,17.494,17.494,0,0,0,1.414.441Z" fill="#fff"/></g><g transform="translate(332.437 33.459) rotate(85.988)"><path d="M7.181.09C5.458.9,4.51,3.07,3.605,4.665c-1.234,2.177-2.4,4.408-3.489,6.66a.927.927,0,0,0,1.6.935A51.815,51.815,0,0,0,5.274,6.525C6.26,4.8,8,2.908,8.267.924A.748.748,0,0,0,7.181.09Z" fill="#fff"/></g><g transform="translate(13.983 21.754) rotate(-159.028)"><path d="M10.477.119C8.984-.28,7.454.421,6,.81A57.23,57.23,0,0,0,.422,2.332.6.6,0,0,0,.581,3.509,18.774,18.774,0,0,0,5.856,2.8c1.624-.367,3.64-.511,4.885-1.682a.6.6,0,0,0-.264-1Z" fill="#fff"/></g><g transform="translate(2.357) rotate(33)"><path d="M13.352,2.774C11.266,2.362,9.168,2.051,7.1,1.54,4.99,1.017,2.969.026.772,0a.808.808,0,0,0-.4,1.493c3.287,2.4,9.018,3.254,12.98,2.646a.712.712,0,0,0,0-1.365Z" fill="#fff"/></g></g></g></g></g></svg>