<svg xmlns="http://www.w3.org/2000/svg" width="35" height="35" viewBox="0 0 35 35">
  <path id="路径_12771" data-name="路径 12771" d="M2086,839a17.5,17.5,0,1,1,17.5-17.5A17.5,17.5,0,0,1,2086,839Zm0-32.813a15.313,15.313,0,1,0,15.313,15.312A15.312,15.312,0,0,0,2086,806.188Zm1.553,15.319,4.634,4.634a1.094,1.094,0,0,1-1.546,1.547l-4.634-4.634-4.666,4.666a1.1,1.1,0,0,1-1.559-1.559l4.666-4.666-4.634-4.635a1.094,1.094,0,0,1,1.547-1.547l4.635,4.634,4.7-4.7a1.1,1.1,0,1,1,1.559,1.559Z" transform="translate(-2068.5 -804)" fill="#ccc" fill-rule="evenodd"/>
</svg>
