<svg xmlns="http://www.w3.org/2000/svg" width="50" height="30" viewBox="0 0 50 30"><defs><style>.a{fill:#fff;}.b{fill-rule:evenodd;}</style></defs><g transform="translate(-0.288 0.099)"><rect class="a" width="50" height="30" rx="4" transform="translate(0.288 -0.099)"/><path class="b" d="M24.894,21.223a2.8,2.8,0,0,0,1.763,2.548,6.775,6.775,0,0,1-.909,1.792c-.548.767-1.116,1.531-2.011,1.547s-1.162-.5-2.168-.5-1.32.484-2.152.516c-.864.031-1.522-.83-2.074-1.595-1.128-1.563-1.99-4.418-.832-6.345a3.236,3.236,0,0,1,2.718-1.579c.848-.015,1.65.547,2.168.547s1.492-.677,2.515-.577a3.113,3.113,0,0,1,2.4,1.249,2.844,2.844,0,0,0-1.42,2.4m-1.653-4.681a2.7,2.7,0,0,0,.683-2.011,2.984,2.984,0,0,0-1.935.954,2.569,2.569,0,0,0-.7,1.949,2.477,2.477,0,0,0,1.949-.892m6.64-.912q.56-.092,1.125-.152a12.356,12.356,0,0,1,1.354-.068,5.95,5.95,0,0,1,1.819.246,3.29,3.29,0,0,1,1.256.705,2.9,2.9,0,0,1,.659.968,3.3,3.3,0,0,1,.237,1.292,3.474,3.474,0,0,1-.325,1.547,3.221,3.221,0,0,1-.887,1.113,3.783,3.783,0,0,1-1.336.671,6.142,6.142,0,0,1-1.688.221,6.843,6.843,0,0,1-1.388-.119V26.95h-.826V15.631Zm.826,5.711a3.736,3.736,0,0,0,.668.118q.369.034.79.034a3.769,3.769,0,0,0,2.452-.714,2.547,2.547,0,0,0,.87-2.09,2.732,2.732,0,0,0-.228-1.156,2.077,2.077,0,0,0-.65-.807,3.021,3.021,0,0,0-1-.476,4.784,4.784,0,0,0-1.284-.161,9.4,9.4,0,0,0-.967.043q-.4.043-.65.093v5.116ZM42.9,25.012q0,.493.017.986a6.237,6.237,0,0,0,.106.951h-.773l-.123-1.156h-.036a2.9,2.9,0,0,1-.4.476,3.074,3.074,0,0,1-1.309.748,3.276,3.276,0,0,1-.906.119,2.8,2.8,0,0,1-1.081-.2,2.234,2.234,0,0,1-.764-.51,2.063,2.063,0,0,1-.448-.723,2.352,2.352,0,0,1-.15-.815,2.479,2.479,0,0,1,1.256-2.227,7.116,7.116,0,0,1,3.789-.748V21.7a5.151,5.151,0,0,0-.062-.74,2.269,2.269,0,0,0-.273-.79,1.726,1.726,0,0,0-.633-.628,2.193,2.193,0,0,0-1.142-.256,3.819,3.819,0,0,0-2.056.612l-.264-.6a3.96,3.96,0,0,1,1.16-.535,4.769,4.769,0,0,1,1.248-.161,3.088,3.088,0,0,1,1.432.289,2.353,2.353,0,0,1,.87.748,2.727,2.727,0,0,1,.431,1.028A5.767,5.767,0,0,1,42.9,21.8v3.212h0Zm-.826-2.43a11.8,11.8,0,0,0-1.4.051,5.194,5.194,0,0,0-1.344.3,2.567,2.567,0,0,0-1.019.671,1.67,1.67,0,0,0-.4,1.173,1.534,1.534,0,0,0,.51,1.274,1.781,1.781,0,0,0,1.142.409,2.843,2.843,0,0,0,.914-.137,2.346,2.346,0,0,0,1.2-.884,2.4,2.4,0,0,0,.308-.6,2.275,2.275,0,0,0,.088-.493V22.582Zm2.442-3.79,2.143,5.3q.176.441.334.909t.281.858h.035q.123-.374.281-.841t.351-.961l2-5.268h.878l-2.442,5.982q-.336.867-.695,1.724-.3.712-.659,1.394a9.911,9.911,0,0,1-.677,1.1,4.627,4.627,0,0,1-.764.832,4.142,4.142,0,0,1-.906.62q-.272.134-.553.247l-.282-.663a6.958,6.958,0,0,0,.7-.357,3.82,3.82,0,0,0,.756-.578A6.846,6.846,0,0,0,46,28.283a5.6,5.6,0,0,0,.677-1.215,1.34,1.34,0,0,0,.106-.357.989.989,0,0,0-.106-.357l-3.041-7.563h.88Z" transform="translate(-8.007 -7.29)"/></g></svg>