<svg xmlns="http://www.w3.org/2000/svg" width="408.215" height="77.503" viewBox="0 0 408.215 77.503"><defs><style>.a{fill:#f16485;}</style></defs><path class="a" d="M-145.233-18.628a38.815,38.815,0,0,1-5.826,10.809c-2.606,2.913-6.056,3.68-14.412,3.68-5.213,0-9.506,0-11.729-1.3-2.146-1.38-2.76-3.91-2.76-9.2V-35.264h10.5c10.042,0,10.886.613,12.5,8.816h3.45v-22h-3.45c-1.457,7.589-2.223,8.509-12.5,8.509h-10.5V-65.084c0-3.373.23-3.68,3.986-3.68h8.509c7.9,0,11.039.767,12.726,3.22a30.969,30.969,0,0,1,3.756,9.736l3.526-.46c-.46-6.286-.92-13.722-1.073-16.635H-200.5v3.373c8.893.767,9.889,1.073,9.889,11.346v43.926c0,9.2-1,10.272-11.346,11.039V0h56.269c1-3.6,3.22-13.952,3.986-18.168ZM-60.906,0V-3.22c-7.436-.767-9.046-1.993-12.726-11.882C-81.221-34.8-88.581-54.735-95.94-74.59l-3.986,1L-124-15.1c-4.063,9.966-5.673,10.732-13.109,11.882V0h25.3V-3.22c-8.663-.92-9.583-2.223-7.129-9.046,1.457-4.446,2.99-8.816,4.906-13.952h24.608c2.453,6.439,4.523,12.036,6.133,16.482,1.533,4.523.537,5.52-6.593,6.516V0Zm-30.2-31.277h-21c3.45-9.046,7.053-18.628,10.732-27.9h.23Zm79.573-24.685c-1-7.359-1.533-11.959-1.993-15.945A48.932,48.932,0,0,0-28.4-74.59c-14.949,0-23.995,9.276-23.995,20.468,0,12.342,10.962,17.938,18.935,21.925,8.739,4.6,14.872,8.433,14.872,16.559,0,8.049-4.906,13.186-13.262,13.186-11.729,0-17.325-11.729-19.242-18.858l-3.45,1c.69,5.443,2.376,15.639,3.143,17.862A36.741,36.741,0,0,0-45.728-.077a35.3,35.3,0,0,0,11.5,1.84c15.639,0,25.911-9.583,25.911-21.618,0-12.342-10.119-17.632-19.855-22.385-9.353-4.523-14.642-8.356-14.642-16.252,0-6.133,4.063-12.189,12.649-12.189,9.659,0,13.186,8.126,15.179,15.332Zm75.664.767c-.537-6.746-1.15-15.409-1.15-20.545H60.523C58.76-73.594,57.687-72.9,54.544-72.9H8.088c-3.373,0-4.83,0-6.516-2.836H-.882c-.23,6.209-.767,13.646-1.3,20.928h3.45c1.457-5.29,2.453-8.586,3.91-10.5,1.533-2.376,3.91-3.45,13.875-3.45h6.669v54.659c0,8.969-1,10.2-11.5,10.886V0h33.96V-3.22C37.3-3.91,36.3-5.213,36.3-14.105V-68.764h7.819c8.739,0,10.732.843,12.649,3.45,1.457,1.917,2.683,4.906,3.91,10.5Zm63.015,36.567a38.815,38.815,0,0,1-5.826,10.809c-2.606,2.913-6.056,3.68-14.412,3.68-5.213,0-9.506,0-11.729-1.3-2.146-1.38-2.76-3.91-2.76-9.2V-35.264h10.5c10.042,0,10.886.613,12.5,8.816h3.45v-22h-3.45c-1.457,7.589-2.223,8.509-12.5,8.509h-10.5V-65.084c0-3.373.23-3.68,3.986-3.68h8.509c7.9,0,11.039.767,12.726,3.22a30.969,30.969,0,0,1,3.756,9.736l3.526-.46c-.46-6.286-.92-13.722-1.073-16.635H71.869v3.373c8.893.767,9.889,1.073,9.889,11.346v43.926c0,9.2-1,10.272-11.346,11.039V0h56.269c1-3.6,3.22-13.952,3.986-18.168ZM206.254-2.146c-2.606-.613-5.136-1.84-8.049-5.136a91.813,91.813,0,0,1-9.276-11.806c-3.45-5.136-8.126-12.5-10.119-16.175,8.2-3.45,14.489-9.276,14.489-19.012,0-6.823-2.913-11.806-7.589-14.719-4.37-2.913-9.966-3.91-18.628-3.91H137.72v3.373c8.893.613,9.889,1.227,9.889,10.809v44.463c0,9.429-1.073,10.272-10.349,11.039V0h31.047V-3.22c-9.2-.767-10.272-1.61-10.272-11.039V-31.737h3.22c5.9,0,7.9,1.38,9.966,4.6,3.45,5.366,7.206,12.189,11.116,17.632C187.626-2.146,192.379.307,201.655.767a36.091,36.091,0,0,0,4.063.23ZM158.035-35.494v-27.6c0-2.913.46-4.216,1.227-4.83.843-.613,2.683-1.073,6.133-1.073,8.509,0,16.405,4.446,16.405,16.482,0,6.056-1.763,10.426-6.133,13.8-2.913,2.3-6.746,3.22-12.5,3.22Z" transform="translate(201.961 75.74)"/></svg>