<svg xmlns="http://www.w3.org/2000/svg" width="289.197" height="52.2" viewBox="0 0 289.197 52.2"><defs><style>.a{opacity:0.06;}.b{opacity:0.05;}.c{opacity:0.07;}</style></defs><path class="a" d="M17.039,27.361a4.064,4.064,0,0,1-2.181-.93C7.113,20.005,2,15.768,2,10.567,2,6.33,5.64,3,10.272,3a9.37,9.37,0,0,1,6.768,2.875A9.37,9.37,0,0,1,23.807,3c4.632,0,8.272,3.33,8.272,7.567,0,5.2-5.113,9.438-12.859,15.877A4.035,4.035,0,0,1,17.039,27.361Z" transform="translate(257.118 24.839)"/><path class="b" d="M15.4,11.526a3.949,3.949,0,0,0,4.113-3.763A3.949,3.949,0,0,0,15.4,4a3.949,3.949,0,0,0-4.113,3.763A3.949,3.949,0,0,0,15.4,11.526ZM6.141,9.644V6.822H4.085V9.644H1v1.881H4.085v2.822H6.141V11.526H9.226V9.644ZM15.4,13.407c-2.746,0-8.226,1.261-8.226,3.763v1.881H23.622V17.17C23.622,14.667,18.141,13.407,15.4,13.407Z" transform="translate(-1 30.361)"/><path class="c" d="M10.314,18.868A10.751,10.751,0,0,1,3.02,16.105,8.987,8.987,0,0,1,0,9.435C0,4.232,4.626,0,10.314,0a10.756,10.756,0,0,1,7.294,2.764,8.992,8.992,0,0,1,3.02,6.671,8.987,8.987,0,0,1-3.02,6.67A10.753,10.753,0,0,1,10.314,18.868Zm0-15.438A6.309,6.309,0,0,0,3.753,9.435a6.308,6.308,0,0,0,6.561,6,6.308,6.308,0,0,0,6.562-6A6.309,6.309,0,0,0,10.314,3.43Z" transform="translate(151.383)"/></svg>