<svg xmlns="http://www.w3.org/2000/svg" width="46.513" height="29.901" viewBox="0 0 46.513 29.901"><defs><style>.a{fill:#fff;}.b{fill:#142688;}</style></defs><rect class="a" width="46.513" height="29.901" rx="4" transform="translate(0 0)"/><path class="b" d="M35.563,15.909l-.6.022-1.306,0c-.123,0-.121-.045-.145-.161L33.3,14.626c-.028-.146-.078-.188-.224-.188-.963.007-1.927.008-2.89,0a.242.242,0,0,0-.274.2q-.192.573-.412,1.136l-.166.15c-.831.007-1.665,0-2.5,0l-.055-.022.233-.576,3.555-8.484a1.155,1.155,0,0,1,1.253-.811h1.864c.15,0,.213.012.246.171q.835,4.037,1.681,8.073l.108,1.5-.161.1v.038ZM32.1,8.882l-.045.061a35.118,35.118,0,0,0-1.324,3.721h2.131c-.256-1.661-.508-2.57-.761-3.783ZM4,6.02h.392l4.141.007A1.168,1.168,0,0,1,9.779,7q.523,2.716,1.04,5.437l.066.286.095-.179c.839-2.121,1.678-4.389,2.512-6.512.053-.133.116,0,.259,0h2.492l-.075.191-3.8,9.093c-.086.206-.136.482-.3.586s-.422.028-.64.03l-1.827,0c-.166,0-.226-.05-.266-.2C8.68,13.163,8.007,10.6,7.359,8.03a1.506,1.506,0,0,0-.917-1A9.682,9.682,0,0,0,4,6.3Zm15.574,9.545.465-2.173.282.13A4.89,4.89,0,0,0,22.9,14a2.4,2.4,0,0,0,.864-.261.745.745,0,0,0,.121-1.306,8.6,8.6,0,0,0-.922-.578,13.828,13.828,0,0,1-1.374-.86,2.572,2.572,0,0,1-.163-3.871,2.518,2.518,0,0,1,2.032-1.088,15.712,15.712,0,0,1,3.778.186l.12.053-.449,2.085A4.694,4.694,0,0,0,25.1,7.9a5.03,5.03,0,0,0-1.08.1,1.2,1.2,0,0,0-.52.3.567.567,0,0,0-.017.877,3.321,3.321,0,0,0,.621.455l1.4.791a2.553,2.553,0,0,1,1.329,1.744,2.947,2.947,0,0,1-1.073,2.907,2.957,2.957,0,0,1-1.8.847,18.7,18.7,0,0,1-4.126-.271l-.257-.1Zm.352-9.545c-.286,1.661-.565,2.638-.842,3.942-.407,1.905-.817,3.812-1.216,5.719-.042.2-.113.289-.319.282-.688-.013-1.379.023-2.065.023h-.238a7.025,7.025,0,0,0,.3-1.44c.59-2.758,1.179-5.532,1.766-8.289.038-.183.1-.236.292-.233.686.017,1.375,0,2.063,0h.257Z" transform="translate(2.645 3.948)"/></svg>