<svg preserveAspectRatio="none" xmlns="http://www.w3.org/2000/svg" width="105" height="104.904" viewBox="0 0 105 104.904"><g transform="translate(-27 -784)"><path d="M7,0H98a6.746,6.746,0,0,1,7,6.46V90.444a6.746,6.746,0,0,1-7,6.46H7a6.746,6.746,0,0,1-7-6.46V6.46A6.746,6.746,0,0,1,7,0Z" transform="translate(27 792)" fill="#ecd9bf"/><g transform="translate(8 510)"><path d="M7,0H98a6.817,6.817,0,0,1,7,6.618V92.653a6.817,6.817,0,0,1-7,6.618H7a6.817,6.817,0,0,1-7-6.618V6.618A6.817,6.817,0,0,1,7,0Z" transform="translate(19 274)" fill="#fff"/></g></g></svg>
