<svg xmlns="http://www.w3.org/2000/svg" xmlns:xlink="http://www.w3.org/1999/xlink" width="360.015" height="427.997" viewBox="0 0 360.015 427.997"><defs><linearGradient id="a" y1="0.5" x2="1" y2="0.5" gradientUnits="objectBoundingBox"><stop offset="0" stop-color="#b7580e"/><stop offset="1" stop-color="#e58c02"/></linearGradient><linearGradient id="b" x1="1" y1="0.5" x2="0" y2="0.5" xlink:href="#a"/><linearGradient id="c" x1="0.5" x2="0.5" y2="1" gradientUnits="objectBoundingBox"><stop offset="0" stop-color="#f59b0f"/><stop offset="0.549" stop-color="#ffd100"/><stop offset="1" stop-color="#f59b0f"/></linearGradient><filter id="d" x="14.209" y="0" width="330.777" height="84.4" filterUnits="userSpaceOnUse"><feOffset dy="10" input="SourceAlpha"/><feGaussianBlur stdDeviation="3" result="e"/><feFlood flood-opacity="0.059"/><feComposite operator="in" in2="e"/><feComposite in="SourceGraphic"/></filter><filter id="f" x="71.775" y="15.188" width="35.333" height="37.687" filterUnits="userSpaceOnUse"><feOffset dy="3" input="SourceAlpha"/><feGaussianBlur stdDeviation="3" result="g"/><feFlood flood-color="#d1710c" flood-opacity="0.678"/><feComposite operator="in" in2="g"/><feComposite in="SourceGraphic"/></filter><filter id="h" x="88.841" y="10.776" width="36.987" height="38.741" filterUnits="userSpaceOnUse"><feOffset dy="3" input="SourceAlpha"/><feGaussianBlur stdDeviation="3" result="i"/><feFlood flood-color="#d1710c" flood-opacity="0.678"/><feComposite operator="in" in2="i"/><feComposite in="SourceGraphic"/></filter><filter id="j" x="111.285" y="9.023" width="37.067" height="37.932" filterUnits="userSpaceOnUse"><feOffset dy="3" input="SourceAlpha"/><feGaussianBlur stdDeviation="3" result="k"/><feFlood flood-color="#d1710c" flood-opacity="0.678"/><feComposite operator="in" in2="k"/><feComposite in="SourceGraphic"/></filter><filter id="l" x="132.526" y="7.184" width="37.804" height="38.549" filterUnits="userSpaceOnUse"><feOffset dy="3" input="SourceAlpha"/><feGaussianBlur stdDeviation="3" result="m"/><feFlood flood-color="#d1710c" flood-opacity="0.678"/><feComposite operator="in" in2="m"/><feComposite in="SourceGraphic"/></filter><filter id="n" x="149.923" y="6.747" width="37.372" height="37.688" filterUnits="userSpaceOnUse"><feOffset dy="3" input="SourceAlpha"/><feGaussianBlur stdDeviation="3" result="o"/><feFlood flood-color="#d1710c" flood-opacity="0.678"/><feComposite operator="in" in2="o"/><feComposite in="SourceGraphic"/></filter><filter id="p" x="180.626" y="7.295" width="37.564" height="37.441" filterUnits="userSpaceOnUse"><feOffset dy="3" input="SourceAlpha"/><feGaussianBlur stdDeviation="3" result="q"/><feFlood flood-color="#d1710c" flood-opacity="0.678"/><feComposite operator="in" in2="q"/><feComposite in="SourceGraphic"/></filter><filter id="r" x="203.655" y="8.344" width="35.385" height="38.086" filterUnits="userSpaceOnUse"><feOffset dy="3" input="SourceAlpha"/><feGaussianBlur stdDeviation="3" result="s"/><feFlood flood-color="#d1710c" flood-opacity="0.678"/><feComposite operator="in" in2="s"/><feComposite in="SourceGraphic"/></filter><filter id="t" x="221.693" y="10.367" width="39.485" height="38.276" filterUnits="userSpaceOnUse"><feOffset dy="3" input="SourceAlpha"/><feGaussianBlur stdDeviation="3" result="u"/><feFlood flood-color="#d1710c" flood-opacity="0.678"/><feComposite operator="in" in2="u"/><feComposite in="SourceGraphic"/></filter><filter id="v" x="245.107" y="11.793" width="48.383" height="40.259" filterUnits="userSpaceOnUse"><feOffset dy="3" input="SourceAlpha"/><feGaussianBlur stdDeviation="3" result="w"/><feFlood flood-color="#d1710c" flood-opacity="0.678"/><feComposite operator="in" in2="w"/><feComposite in="SourceGraphic"/></filter></defs><g transform="translate(-8.985 -196.004)"><path d="M19.059,0H340.941A19.059,19.059,0,0,1,360,19.059V340.942A19.059,19.059,0,0,1,340.941,360H19.059A19.059,19.059,0,0,1,0,340.942V19.059A19.059,19.059,0,0,1,19.059,0Z" transform="translate(9 264)" fill="#c77f13"/><ellipse cx="180" cy="59.5" rx="180" ry="59.5" transform="translate(9 220)" fill="#f39f21"/><path d="M19.059,0H340.941A19.059,19.059,0,0,1,360,19.059V340.942A19.059,19.059,0,0,1,340.941,360H19.059A19.059,19.059,0,0,1,0,340.942V19.059A19.059,19.059,0,0,1,19.059,0Z" transform="translate(9 258)" fill="#f39d1c"/><path d="M12256,21959h324a9,9,0,0,1,9,9v324a9,9,0,0,1-9,9h-324a9,9,0,0,1-9-9v-324A9,9,0,0,1,12256,21959Z" transform="translate(-12229 -21692)" fill="none" stroke="#fbf0da" stroke-linecap="round" stroke-linejoin="round" stroke-width="6" stroke-dasharray="0 41"/><path d="M9,0H321a9,9,0,0,1,9,9V321a9,9,0,0,1-9,9H9a9,9,0,0,1-9-9V9A9,9,0,0,1,9,0Z" transform="translate(24 273.001)" fill="#a934d8"/><path d="M-277.09,312.578c-7.468-1.735-13.557-1.66-14.034,1.31l-5.58,39.576c.694-2.159,5.279-2,11.615-.149a109.768,109.768,0,0,1,35.539,18.111l.491-25.37,17.245-11C-243.12,326.322-261.454,316.208-277.09,312.578Z" transform="translate(600.704 -109.513)" fill="url(#a)"/><path d="M-250.4,312.52c7.637-1.647,13.865-1.576,14.352,1.243l5.706,37.566c-.71-2.049-5.4-1.9-11.878-.141a115.686,115.686,0,0,0-36.344,17.191l-.5-24.081L-296.7,333.861C-285.142,325.565-266.392,315.966-250.4,312.52Z" transform="translate(305.689 -108.466)" fill="url(#b)"/><g transform="matrix(1, 0, 0, 1, 8.99, 196)" filter="url(#d)"><path d="M12683.776,21981.4h0v0c-45.013-12.693-96.629-19.4-149.271-19.4-52.558,0-104.108,6.689-149.08,19.346l-7.229-43.9c14.106-4.25,29.046-7.932,44.4-10.945,17.324-3.4,35.48-6.02,53.966-7.775,18.947-1.8,38.441-2.717,57.94-2.717s38.993.914,57.941,2.717c18.439,1.75,36.6,4.365,53.965,7.775,15.417,3.023,30.409,6.723,44.562,10.994l-7.2,43.912Z" transform="translate(-12354.99 -21916)" fill="url(#c)"/></g><g transform="matrix(1, 0.017, -0.017, 1, 632.163, 104.07)"><g transform="translate(-540.007 112.762)"><g transform="matrix(1, -0.02, 0.02, 1, -81.47, -9.97)" filter="url(#f)"><path d="M-540.042,119.381l4.309-.776,2.721,15.106,9.335-1.68.633,3.51L-536.688,138Z" transform="matrix(1, 0.02, -0.02, 1, 623.14, -87.97)" fill="#fff"/></g><g transform="matrix(1, -0.02, 0.02, 1, -81.47, -9.97)" filter="url(#h)"><path d="M-521.741,133.812a8.63,8.63,0,0,1-3.16-6.01l-1.537-10.481,4.332-.635,1.512,10.321q.737,5.027,4.909,4.415a3.949,3.949,0,0,0,2.922-1.671,5.729,5.729,0,0,0,.511-3.966l-1.512-10.322,4.279-.626,1.536,10.481a8.643,8.643,0,0,1-1.3,6.665,8.555,8.555,0,0,1-5.917,3.134A8.562,8.562,0,0,1-521.741,133.812Z" transform="matrix(1, 0.02, -0.02, 1, 626.56, -88.86)" fill="#fff"/></g><g transform="matrix(1, -0.02, 0.02, 1, -81.47, -9.97)" filter="url(#j)"><path d="M-502.511,131.987a9.387,9.387,0,0,1-4.044-3.051,9.606,9.606,0,0,1-1.894-4.859,9.6,9.6,0,0,1,.762-5.157,9.37,9.37,0,0,1,3.261-3.876,10.924,10.924,0,0,1,5.082-1.84,11.056,11.056,0,0,1,4.514.361,8.9,8.9,0,0,1,3.6,2.1l-2.5,2.892a6.046,6.046,0,0,0-4.975-1.667A6.315,6.315,0,0,0-501.738,118a5.469,5.469,0,0,0-1.894,2.376,6.314,6.314,0,0,0-.414,3.2,6.309,6.309,0,0,0,1.117,3.029,5.459,5.459,0,0,0,2.375,1.894,6.316,6.316,0,0,0,3.2.414,6.014,6.014,0,0,0,4.474-2.762l3.084,2.262a8.762,8.762,0,0,1-3.047,2.874,11.119,11.119,0,0,1-4.334,1.36A10.867,10.867,0,0,1-502.511,131.987Z" transform="matrix(1, 0.02, -0.02, 1, 631.04, -89.21)" fill="#fff"/></g><g transform="matrix(1, -0.02, 0.02, 1, -81.47, -9.97)" filter="url(#l)"><path d="M-483.792,123.627l-2.33,2.836.369,4.77-4.337.334-1.456-18.859,4.337-.335.681,8.81,7.672-9.455,4.85-.374-7.165,9.01,9.078,9.815-5.092.394Z" transform="matrix(1, 0.02, -0.02, 1, 635.29, -89.57)" fill="#fff"/></g><g transform="matrix(1, -0.02, 0.02, 1, -81.47, -9.97)" filter="url(#n)"><path d="M-465.481,123.254l.261,6.7-4.375.171-.262-6.751-7.792-11.866,4.644-.181,5.378,8.2,4.721-8.595,4.294-.167Z" transform="matrix(1, 0.02, -0.02, 1, 638.77, -89.66)" fill="#fff"/></g><g transform="matrix(1, -0.02, 0.02, 1, -81.47, -9.97)" filter="url(#p)"><path d="M-452.661,110.771l8.591.192a12.08,12.08,0,0,1,5.417,1.3,8.794,8.794,0,0,1,3.6,3.391,9.307,9.307,0,0,1,1.2,5,9.3,9.3,0,0,1-1.421,4.941,8.8,8.8,0,0,1-3.749,3.227,12.064,12.064,0,0,1-5.47,1.054l-8.591-.194Zm8.031,15.506a6.355,6.355,0,0,0,4.561-1.479,5.579,5.579,0,0,0,1.785-4.244,5.59,5.59,0,0,0-1.592-4.321,6.358,6.358,0,0,0-4.49-1.681l-4-.09-.264,11.724Z" transform="matrix(1, 0.02, -0.02, 1, 644.91, -89.55)" fill="#fff"/></g><g transform="matrix(1, -0.02, 0.02, 1, -81.47, -9.97)" filter="url(#r)"><path d="M-422.605,130.827l-3.359-5.458-.215-.013-3.8-.2-.285,5.262-4.371-.236,1.02-18.888,8.177.441a10.493,10.493,0,0,1,4.312,1.072,6.491,6.491,0,0,1,2.719,2.527,6.548,6.548,0,0,1,.8,3.7,6.416,6.416,0,0,1-1.207,3.575,6.42,6.42,0,0,1-3,2.18l3.909,6.3Zm-.324-14.536a4.6,4.6,0,0,0-2.949-1.012l-3.562-.192-.356,6.583,3.562.194a4.557,4.557,0,0,0,3.042-.7,3.01,3.01,0,0,0,1.156-2.372A3,3,0,0,0-422.929,116.291Z" transform="matrix(1, 0.02, -0.02, 1, 649.52, -89.34)" fill="#fff"/></g><g transform="matrix(1, -0.02, 0.02, 1, -81.47, -9.97)" filter="url(#t)"><path d="M-404.953,128.007l-8.752-.727-2,3.9-4.471-.371,9.968-18.154,4.31.359,6.862,19.552-4.577-.381Zm-1.1-3.427-2.39-7.465-3.589,6.968Z" transform="matrix(1, 0.02, -0.02, 1, 653.12, -88.94)" fill="#fff"/></g><g transform="matrix(1, -0.02, 0.02, 1, -81.47, -9.97)" filter="url(#v)"><path d="M-371.4,117.2l-8.476,18.008-4.666-.58-2.55-13.224-5.843,12.182-4.64-.577-3.834-19.539,4.5.561,2.6,13.721,6.065-12.644,4.022.5,2.637,13.834,6.025-12.757Z" transform="matrix(1, 0.02, -0.02, 1, 657.81, -88.65)" fill="#fff"/></g></g></g><path d="M15.75,0l-2.1,7.6L21,9.5l-7.35,1.9,2.1,7.6L10.5,13.3,5.25,19l2.1-7.6L0,9.5,7.35,7.6,5.25,0,10.5,5.7Z" transform="translate(304.5 222)" fill="#dc8205"/><path d="M15.75,0l-2.1,7.6L21,9.5l-7.35,1.9,2.1,7.6L10.5,13.3,5.25,19l2.1-7.6L0,9.5,7.35,7.6,5.25,0,10.5,5.7Z" transform="translate(56.5 222)" fill="#dc8205"/></g></svg>