<svg xmlns="http://www.w3.org/2000/svg" width="20.168" height="24" viewBox="0 0 20.168 24"><path d="M17.143,14.933a5,5,0,0,1,2.679-4.544A5.757,5.757,0,0,0,15.284,8c-1.9-.15-3.981,1.109-4.742,1.109-.8,0-2.647-1.056-4.094-1.056C3.459,8.1.281,10.437.281,15.19a13.355,13.355,0,0,0,.772,4.351c.686,1.966,3.161,6.789,5.744,6.708,1.35-.032,2.3-.959,4.061-.959,1.7,0,2.588.959,4.094.959,2.6-.038,4.844-4.42,5.5-6.392a5.311,5.311,0,0,1-3.306-4.924Zm-3.033-8.8A5.047,5.047,0,0,0,15.4,2.25a5.682,5.682,0,0,0-3.638,1.87,5.126,5.126,0,0,0-1.372,3.852,4.5,4.5,0,0,0,3.724-1.838Z" transform="translate(-0.281 -2.25)"/></svg>