<svg xmlns="http://www.w3.org/2000/svg" width="105.374" height="109.686" viewBox="0 0 105.374 109.686">
  <defs>
    <style>
      .cls-1 {
        fill: #ffc400;
      }

      .cls-2 {
        fill: #a4c6ff;
      }

      .cls-3 {
        fill: #005fff;
      }
    </style>
  </defs>
  <g id="icon_team" transform="translate(-5.839)">
    <path id="路径_657" data-name="路径 657" class="cls-1" d="M44.314,22.851a2.764,2.764,0,0,0,3.873-.52,42.635,42.635,0,0,1,67.838,0,2.763,2.763,0,1,0,4.393-3.353,48.162,48.162,0,0,0-76.624,0A2.764,2.764,0,0,0,44.314,22.851Z" transform="translate(-23.58)"/>
    <path id="路径_658" data-name="路径 658" class="cls-2" d="M228.037,87.047a8.63,8.63,0,1,0,8.63-8.63A8.641,8.641,0,0,0,228.037,87.047Z" transform="translate(-140.137 -49.457)"/>
    <path id="路径_659" data-name="路径 659" class="cls-2" d="M235.166,131.566l-2.194-.674a2.583,2.583,0,0,0-2.3.4l-4.336,3.247L222,131.293a2.581,2.581,0,0,0-2.3-.4l-2.194.674a8.545,8.545,0,0,0-5.85,8.116v13.047a2.573,2.573,0,0,0,.424,1.416l4.376,6.659v17.488a2.579,2.579,0,0,0,2.579,2.579h14.607a2.579,2.579,0,0,0,2.579-2.579V160.8l4.376-6.659a2.577,2.577,0,0,0,.424-1.416V139.682a8.545,8.545,0,0,0-5.85-8.116Z" transform="translate(-129.803 -82.48)"/>
    <path id="路径_660" data-name="路径 660" class="cls-2" d="M30.855,95.678a8.63,8.63,0,1,0-8.631-8.63,8.641,8.641,0,0,0,8.631,8.63Z" transform="translate(-10.334 -49.457)"/>
    <path id="路径_661" data-name="路径 661" class="cls-2" d="M29.354,131.566l-2.194-.674a2.583,2.583,0,0,0-2.3.4l-4.336,3.247-4.336-3.247a2.581,2.581,0,0,0-2.3-.4l-2.194.674a8.545,8.545,0,0,0-5.85,8.116v13.047a2.572,2.572,0,0,0,.424,1.416l4.376,6.659v17.488a2.579,2.579,0,0,0,2.579,2.579H27.825a2.579,2.579,0,0,0,2.579-2.579V160.8l4.376-6.659a2.577,2.577,0,0,0,.424-1.416V139.682A8.545,8.545,0,0,0,29.354,131.566Z" transform="translate(0 -82.48)"/>
    <path id="路径_662" data-name="路径 662" class="cls-3" d="M140.622,49.841A11.132,11.132,0,1,0,129.49,60.973,11.145,11.145,0,0,0,140.622,49.841Z" transform="translate(-70.964 -24.413)"/>
    <path id="路径_663" data-name="路径 663" class="cls-3" d="M128.323,111.851l-.018-.006-3.177-.975a.987.987,0,0,0-1.217.606l-6.681,18.331a1.206,1.206,0,0,1-2.266,0l-6.681-18.331a.987.987,0,0,0-.926-.65c-.1,0-3.464,1.017-3.464,1.017a9.863,9.863,0,0,0-6.77,9.369V140.6a.988.988,0,0,0,.162.542l6.971,10.608V178.6a.987.987,0,0,0,.987.987h21.709a.987.987,0,0,0,.987-.987V151.754l6.971-10.608a.988.988,0,0,0,.162-.542V121.162a9.8,9.8,0,0,0-6.748-9.311Z" transform="translate(-57.571 -69.896)"/>
    <path id="路径_664" data-name="路径 664" class="cls-3" d="M146.012,111.784a1.47,1.47,0,0,0-1.088-.452h-3.045a1.471,1.471,0,0,0-1.088.452,1.412,1.412,0,0,0-.186,1.664l1.628,2.454-.762,6.428,1.5,3.992a.458.458,0,0,0,.861,0l1.5-3.992-.762-6.428,1.628-2.454A1.412,1.412,0,0,0,146.012,111.784Z" transform="translate(-84.876 -70.216)"/>
  </g>
</svg>
