<svg xmlns="http://www.w3.org/2000/svg" xmlns:xlink="http://www.w3.org/1999/xlink" width="137.37" height="213.905" viewBox="0 0 137.37 213.905"><defs><style>.a{fill:#c20e0f;}.b{fill:#ab1111;}.c{fill:url(#a);}.d,.h{fill:#fff;}.d{stroke:#dbdbdb;}.e{fill:#5c5a59;}.f{fill:#f7d9b7;}.g{fill:#edb49a;}.i{fill:url(#b);}.j{fill:#f1eeee;}.k{fill:#dec386;}.l{filter:url(#c);}</style><linearGradient id="a" x1="0.5" x2="0.5" y2="1" gradientUnits="objectBoundingBox"><stop offset="0" stop-color="#fff"/><stop offset="0.527" stop-color="#fbfcfd"/><stop offset="1" stop-color="#dbe7ef"/></linearGradient><radialGradient id="b" cx="0.5" cy="0.5" r="0.5" gradientUnits="objectBoundingBox"><stop offset="0" stop-color="#fff"/><stop offset="1" stop-color="#eaecee"/></radialGradient><filter id="c" x="95.71" y="56.651" width="33.773" height="31.329" filterUnits="userSpaceOnUse"><feOffset dy="3" input="SourceAlpha"/><feGaussianBlur stdDeviation="3" result="d"/><feFlood flood-opacity="0.031"/><feComposite operator="in" in2="d"/><feComposite in="SourceGraphic"/></filter></defs><g transform="translate(-12325.71 -5965.247)"><path class="a" d="M12360.49,6032.017s19-5.245,39.913,19.821,22.032,29.375,22.351,44.383.16,49.812-44.861,67.533c-19.159,2.395-16.285-42.308-16.285-42.308Z" transform="translate(-19.169 -36.549)"/><path class="b" d="M12504.208,6015.755s4.63,9.371,4.79,12.724,1.276,8.78,3.512,8.3,5.429-7.822,5.748-11.654,8.94-33.846-15.646-49.013-40.393-3.512-40.393-3.512Z" transform="translate(-75.238 -1.695)"/><path class="a" d="M12448.479,5977.93a24.486,24.486,0,0,1,11.756-11.5c8.621-3.991,19.157,3.353,19.157,3.353s24.107,17.561,23.789,28.1-4.79,16.285-8.94,18.36S12448.479,5977.93,12448.479,5977.93Z" transform="translate(-67.665 0)"/><path class="c" d="M11854.483,5999.729s5.4,7.555,12.951,5.4a21.644,21.644,0,0,0,11.332-7.824,17.1,17.1,0,0,0,9.714,0c4.856-1.619,9.713-8.364,10.792-11.332s4.856-14.57,4.856-14.57,8.364-6.206,8.9-8.634,1.079-7.824,0-9.983-27.521-33.187-36.965-35.885-16.187,6.476-16.187,6.476l-2.429,4.856s-13.221,6.746-15.919,7.016-10.523.539-10.792,4.047-5.127,10.792-2.969,13.49,2.429,7.285,1.619,8.634-4.316,8.9-1.619,12.682,4.857,4.317,4.857,4.317-1.08,11.331,5.936,16.458S11854.483,5999.729,11854.483,5999.729Z" transform="translate(513.33 58.79)"/><path class="d" d="M12449.71,6090.114c-2.906,5.189-.208,10.585,3.32,14.113s22.622,9.133,22.622,9.133-7.056-4.774-7.471-9.133-.208-9.754-3.736-13.075S12452.615,6084.926,12449.71,6090.114Z" transform="translate(-67.665 -67.26)"/><path class="d" d="M25.943,2.833c2.905,5.189.207,10.585-3.321,14.113S0,26.078,0,26.078,7.056,21.3,7.471,16.946s.207-9.755,3.736-13.075S23.038-2.356,25.943,2.833Z" transform="matrix(0.017, 1, -1, 0.017, 12382.964, 5996.806)"/><circle class="e" cx="2" cy="2" r="2" transform="translate(12376 6025)"/><path class="f" d="M12422.5,6020.382c-.936-4.462.271-7.271,3.592-9.347s9.34-6.642,15.15-1.868,27.813,25.528,29.264,27.189,5.189,7.057,1.453,12.868-6.641,8.3-8.717,8.509-6.85-2.7-8.51-4.151-1.453-6.019-6.641-8.717-9.754-6.019-10.377-8.509-5.189-6.849-7.887-7.472S12423.43,6024.844,12422.5,6020.382Z" transform="translate(-53.175 -23.049)"/><rect class="e" width="4.488" height="9.875" rx="2.244" transform="translate(12403.861 6009.986) rotate(48)"/><ellipse class="g" cx="8" cy="7.5" rx="8" ry="7.5" transform="translate(12380 6011)"/><rect class="e" width="4.488" height="9.875" rx="2.244" transform="translate(12391.295 5998.316) rotate(48)"/><path class="h" d="M12446,6022.029s6.32-.491,10.619,2.088a47.816,47.816,0,0,1,8.475,7s4.911-6.878-4.545-11.3S12446,6022.029,12446,6022.029Z" transform="translate(-66.299 -29.239)"/><path class="h" d="M20.369,3.73S14.048,3.239,9.75,5.818a47.8,47.8,0,0,0-8.474,7S-3.637,5.941,5.819,1.52,20.369,3.73,20.369,3.73Z" transform="translate(12415.772 6004.249) rotate(91)"/><circle class="h" cx="1" cy="1" r="1" transform="translate(12390 6000)"/><circle class="h" cx="1" cy="1" r="1" transform="translate(12402 6012)"/><g class="l" transform="matrix(1, 0, 0, 1, 12325.71, 5965.25)"><path class="i" d="M8.528,5.83c4.71,0,7.245,1.2,7.245,5.911s-2.536,7.418-7.245,7.418S0,16.451,0,11.741,3.818,5.83,8.528,5.83Z" transform="translate(104.71 56.82)"/></g><path class="j" d="M13.573,1.906c8.462,2.395,8.121,10.3,7.869,18.883s-1.934,15.453-8.874,15.453A12.568,12.568,0,0,1,0,23.674V13.351C0,6.41,5.111-.489,13.573,1.906Z" transform="translate(12336.163 6090.478)"/><path class="j" d="M13.573,1.906C22.034,4.3,25.135,6.41,25.135,13.351l-.866,12.822c0,6.941-4.761,10.069-11.7,10.069A12.568,12.568,0,0,1,0,23.674V13.351C0,6.41,5.111-.489,13.573,1.906Z" transform="translate(12332.572 5984.102)"/><path class="a" d="M13.51,1.568c6.941,0,12.568,4.923,12.568,11.864v8.977c0,6.941-7.209,13.485-14.15,13.485S1.71,31.658,1.71,24.717l.639-11.286C2.349,6.491,6.569,1.568,13.51,1.568Z" transform="translate(12327.591 6091.294)"/><path class="a" d="M13.51,1.568c6.941,0,12.568,4.923,12.568,11.864v8.977c0,6.941-7.209,13.485-14.15,13.485S1.71,31.658,1.71,24.717l.639-11.286C2.349,6.491,6.569,1.568,13.51,1.568Z" transform="translate(12324 5984.918)"/><path class="k" d="M12390.767,6208.656c2.469,2.593,41.656-31.53,46.567-21.008s-38.975,55.924-20.358,82.1,36.312,24.7,44.379,21.894,25.09-9.043,34.911-32.544-2.566-57.522-17.945-74.453-33.861-14.111-50.86-7.366S12388.3,6206.063,12390.767,6208.656Z" transform="translate(-36.688 -113.951)"/></g></svg>