<svg xmlns="http://www.w3.org/2000/svg" width="68" height="68" viewBox="0 0 68 68">
  <g id="img_likes" transform="translate(-589 -3922)">
    <path id="circle" d="M34,0A34,34,0,1,1,0,34,34,34,0,0,1,34,0Z" transform="translate(589 3922)" fill="#ff6363"/>
    <path id="favorite" d="M19.951,34.784a4.68,4.68,0,0,1-2.6-1.214C8.1,25.187,2,19.658,2,12.873A9.777,9.777,0,0,1,11.873,3a10.75,10.75,0,0,1,8.078,3.752A10.749,10.749,0,0,1,28.028,3,9.777,9.777,0,0,1,37.9,12.873c0,6.785-6.1,12.314-15.348,20.715A4.642,4.642,0,0,1,19.951,34.784Z" transform="translate(603.479 3939.86)" fill="#fff"/>
  </g>
</svg>
