<svg xmlns="http://www.w3.org/2000/svg" xmlns:xlink="http://www.w3.org/1999/xlink" width="318.893" height="318.893" viewBox="0 0 318.893 318.893"><defs><linearGradient id="a" y1="0.674" x2="1.048" y2="0.203" gradientUnits="objectBoundingBox"><stop offset="0" stop-color="#ffb16d"/><stop offset="0.523" stop-color="#a733ff"/><stop offset="1" stop-color="#1423f9"/></linearGradient><filter id="b" x="0" y="0" width="318.893" height="318.893" filterUnits="userSpaceOnUse"><feOffset dy="30" input="SourceAlpha"/><feGaussianBlur stdDeviation="30" result="c"/><feFlood flood-color="#5400ff" flood-opacity="0.188"/><feComposite operator="in" in2="c"/><feComposite in="SourceGraphic"/></filter></defs><g transform="translate(-538 -5433)"><g transform="matrix(1, 0, 0, 1, 538, 5433)" filter="url(#b)"><path d="M64.446,0A64.446,64.446,0,1,1,0,64.446,64.446,64.446,0,0,1,64.446,0Z" transform="translate(95 65)" stroke="#fff" stroke-width="10" fill="url(#a)"/></g><path d="M2.08,41.373h0L0,41.371a41.385,41.385,0,0,1,79.5-16.1,41.111,41.111,0,0,1,3.251,16.1l-19.193,0a30.748,30.748,0,0,0-61.473,0Z" transform="translate(657.665 5522.665)" fill="#ff57c1"/><g transform="translate(742.476 5568.553) rotate(180)"><path d="M5.29,0c1.036-.018,1.326,1.825,1.4,2.837L10.58,43.39c0,4.564-3.495,8.265-5.29,8.265S0,47.954,0,43.39L4.022,2.837C4.246,1.884,4.255.018,5.29,0Z" transform="translate(0 10.58) rotate(-90)" fill="#fff"/><path d="M5.29,0c1.036-.018,1.326,1.825,1.4,2.837L10.58,43.39c0,4.564-3.495,8.265-5.29,8.265S0,47.954,0,43.39L4.022,2.837C4.246,1.884,4.255.018,5.29,0Z" transform="translate(86.78 0) rotate(90)" fill="#fff" opacity="0"/></g><path d="M-1253.455,671.939h-.022q-.741,0-1.479-.02l.206-7.675q.636.018,1.273.017Zm2.254-.047-.313-7.671c.433-.017.864-.042,1.294-.071l.518,7.66Q-1250.45,671.863-1251.2,671.892Zm-6-.078q-.747-.05-1.491-.119l.71-7.645q.646.06,1.3.1Zm9.751-.2-.84-7.632q.647-.071,1.289-.158l1.036,7.606Q-1246.707,671.531-1247.454,671.613Zm-13.484-.176q-.746-.1-1.487-.222l1.238-7.577q.637.1,1.279.191Zm17.2-.358-1.356-7.556q.64-.115,1.274-.246l1.554,7.52Q-1243,670.946-1243.737,671.079Zm-20.9-.274c-.494-.1-.985-.21-1.475-.326l1.765-7.472q.626.147,1.256.276Zm24.578-.514-1.871-7.446q.629-.158,1.251-.332l2.07,7.392Q-1239.334,670.109-1240.063,670.291Zm-28.232-.372q-.724-.2-1.44-.423l2.26-7.337q.618.191,1.243.364Zm31.843-.666-2.378-7.3q.616-.2,1.224-.417l2.576,7.234Q-1235.736,669.021-1236.451,669.253Zm-35.435-.471q-.711-.253-1.413-.524l2.767-7.161q.605.233,1.217.451Zm38.966-.813-2.872-7.12q.6-.242,1.187-.5l3.068,7.038Q-1232.225,667.689-1232.92,667.969Zm-42.468-.566q-.693-.3-1.376-.62l3.252-6.955q.584.274,1.179.532Zm45.892-.952-3.35-6.909q.58-.282,1.152-.578l3.539,6.813Q-1228.819,666.124-1229.5,666.451Zm-49.295-.669q-.666-.346-1.322-.708l3.714-6.719q.568.314,1.147.615Zm52.61-1.081-3.813-6.663q.56-.322,1.11-.656l4,6.556Q-1225.529,664.328-1226.181,664.7Zm-55.886-.764q-.645-.393-1.277-.8l4.175-6.442q.542.351,1.094.686Zm59.08-1.212-4.267-6.382c.359-.241.716-.484,1.069-.734l4.431,6.27Q-1222.364,662.309-1222.987,662.725Zm-62.223-.853q-.615-.435-1.217-.887l4.6-6.145q.517.387,1.046.76Zm65.267-1.33-4.682-6.085q.513-.394,1.013-.8l4.847,5.955Q-1219.347,660.084-1219.942,660.542Zm-68.261-.944q-.583-.474-1.152-.964l5.006-5.821q.491.423.993.832Zm71.157-1.446-5.088-5.751q.486-.429.96-.872l5.238,5.614Q-1216.485,657.656-1217.046,658.152Zm-73.988-1.025q-.545-.51-1.078-1.034l5.381-5.476q.464.455.94.9Zm76.715-1.556-5.466-5.392q.457-.462.9-.935l5.606,5.246Q-1213.793,655.038-1214.319,655.572Zm-79.368-1.1q-.513-.548-1.011-1.112l5.751-5.087q.428.484.869.956Zm81.914-1.663-5.82-5.007q.423-.492.834-1l5.949,4.854Q-1211.284,652.244-1211.773,652.811Zm-84.382-1.164q-.475-.582-.934-1.178l6.083-4.685q.393.512.8,1.011Zm86.733-1.761-6.141-4.609q.387-.515.761-1.043l6.268,4.435Q-1208.97,649.284-1209.422,649.886Zm-89-1.229c-.288-.406-.57-.818-.848-1.232l6.381-4.27q.361.54.734,1.069Zm91.155-1.854-6.44-4.179q.35-.541.687-1.094l6.556,4Q-1206.861,646.17-1207.271,646.8Zm-93.215-1.279q-.391-.642-.766-1.3l6.666-3.81q.32.561.655,1.108Zm95.155-1.95-6.716-3.722q.315-.567.614-1.143l6.813,3.54Q-1204.968,642.918-1205.332,643.574Zm-97-1.32q-.344-.663-.671-1.336l6.9-3.356q.284.581.582,1.156Zm98.709-2.029-6.953-3.258q.274-.584.532-1.179l7.041,3.061Q-1203.3,639.543-1203.621,640.226Zm-100.322-1.351q-.3-.687-.579-1.382l7.119-2.873q.242.6.5,1.188Zm101.8-2.113-7.159-2.772q.233-.6.451-1.215l7.234,2.571Q-1201.87,636.058-1202.142,636.761Zm-103.18-1.377q-.251-.706-.484-1.42l7.3-2.383q.2.618.419,1.226ZM-1200.9,633.2l-7.334-2.273q.191-.616.365-1.239l7.394,2.067Q-1200.682,632.483-1200.9,633.2Zm-105.557-1.4q-.2-.723-.386-1.453l7.446-1.873q.158.628.332,1.249Zm106.543-2.228-7.472-1.767q.149-.626.278-1.258l7.519,1.552Q-1199.745,628.843-1199.918,629.576Zm-107.433-1.426q-.153-.733-.286-1.474l7.557-1.355q.115.639.246,1.271Zm108.169-2.263-7.577-1.244q.105-.636.192-1.278l7.607,1.036Q-1199.061,625.148-1199.182,625.887Zm-108.807-1.439q-.1-.743-.184-1.492l7.632-.834q.07.644.158,1.284Zm109.287-2.285-7.643-.727q.062-.641.1-1.288l7.66.516Q-1198.63,621.417-1198.7,622.163Zm-109.67-1.45q-.051-.747-.082-1.5l7.672-.314c.017.432.041.863.07,1.291Zm109.9-2.3-7.675-.209q.017-.644.018-1.293v-.086h7.678v.086Q-1198.453,617.668-1198.473,618.417ZM-1300.823,617l-7.677-.044v-.043c0-.487.006-.972.019-1.456l7.675.2q-.016.624-.016,1.253Zm94.65-2.108q-.027-.649-.072-1.293l7.659-.529q.051.746.084,1.5Zm-94.543-1.173-7.66-.51q.05-.753.12-1.5l7.643.722Q-1300.673,613.075-1300.717,613.721Zm94.3-2.05q-.071-.647-.159-1.287l7.606-1.047q.1.742.185,1.489Zm-93.975-1.166-7.608-1.031q.1-.744.221-1.483l7.578,1.233Q-1300.305,609.862-1300.393,610.506Zm93.511-2.035q-.115-.639-.247-1.271l7.517-1.564q.153.734.286,1.475Zm-92.969-1.151-7.52-1.547q.152-.738.324-1.47l7.474,1.756Q-1299.72,606.686-1299.85,607.32Zm92.288-2.005q-.158-.628-.333-1.249l7.39-2.081q.2.722.387,1.452Zm-91.529-1.134-7.4-2.061q.2-.727.424-1.444l7.336,2.267Q-1298.917,603.558-1299.091,604.18Zm90.634-1.969q-.2-.617-.419-1.226l7.232-2.58q.251.706.485,1.42Zm-89.658-1.115-7.236-2.567q.252-.711.523-1.415l7.163,2.765C-1297.821,600.283-1297.971,600.688-1298.116,601.1Zm88.551-1.919q-.242-.6-.5-1.189l7.036-3.073q.3.685.58,1.38Zm-87.364-1.1-7.043-3.056q.3-.692.619-1.374l6.957,3.248C-1296.579,597.289-1296.757,597.684-1296.929,598.079Zm86.054-1.847q-.282-.582-.581-1.154l6.81-3.546q.345.664.673,1.337Zm-84.662-1.076-6.818-3.532q.348-.671.715-1.332l6.712,3.727Q-1295.241,594.582-1295.537,595.156Zm83.152-1.777q-.322-.559-.657-1.109l6.552-4q.392.641.766,1.293Zm-81.566-1.044-6.559-3.992q.391-.643.8-1.275l6.447,4.17Q-1293.615,591.782-1293.951,592.335Zm79.866-1.7q-.36-.539-.734-1.066l6.265-4.438q.433.611.85,1.234Zm-78.09-1.009-6.27-4.431q.433-.615.884-1.216l6.147,4.6Q-1291.8,589.1-1292.175,589.631Zm76.206-1.614q-.4-.511-.8-1.013l5.946-4.856q.475.581.933,1.175Zm-74.249-.965-5.956-4.845q.475-.585.966-1.155l5.818,5.01Q-1289.81,586.55-1290.218,587.051Zm72.188-1.524q-.43-.486-.872-.958l5.606-5.246q.513.548,1.011,1.109Zm-70.062-.914-5.614-5.238q.513-.55,1.041-1.085l5.468,5.39Q-1287.651,584.142-1288.092,584.613Zm67.836-1.432q-.461-.454-.934-.895l5.235-5.617q.549.513,1.085,1.041Zm-65.551-.855-5.247-5.605q.549-.514,1.113-1.013l5.087,5.75Q-1285.336,581.885-1285.806,582.326Zm63.171-1.334q-.491-.422-1-.833l4.845-5.956q.582.473,1.151.962Zm-60.737-.793-4.854-5.949q.581-.473,1.175-.932l4.695,6.076Q-1282.87,579.79-1283.372,580.2Zm58.214-1.232q-.521-.388-1.051-.762l4.428-6.273q.615.433,1.214.882Zm-55.644-.721-4.434-6.268q.612-.432,1.234-.849l4.267,6.382Q-1280.275,577.874-1280.8,578.246Zm52.986-1.127q-.543-.351-1.1-.688l3.989-6.56q.643.391,1.274.8Zm-50.289-.648-4-6.554q.639-.39,1.289-.763l3.823,6.658Q-1277.553,576.134-1278.105,576.471Zm47.509-1.016q-.564-.313-1.138-.609l3.527-6.818q.672.346,1.332.713Zm-44.7-.568-3.539-6.814q.661-.344,1.334-.671l3.362,6.9Q-1274.724,574.588-1275.3,574.886Zm41.818-.9q-.586-.274-1.181-.531l3.055-7.044q.693.3,1.376.62Zm-38.908-.489-3.068-7.038q.687-.3,1.382-.58l2.873,7.12Q-1271.8,573.239-1272.388,573.5Zm35.931-.778c-.4-.154-.808-.305-1.217-.449l2.56-7.239q.712.252,1.415.523Zm-32.932-.41-2.576-7.233q.707-.251,1.422-.484l2.378,7.3Q-1268.781,572.091-1269.389,572.309Zm29.87-.65q-.615-.19-1.238-.362l2.051-7.4q.727.2,1.446.423Zm-26.787-.332-2.082-7.39q.725-.2,1.456-.387l1.871,7.446Q-1265.687,571.153-1266.307,571.327Zm23.671-.512q-.629-.148-1.265-.279l1.547-7.521q.736.152,1.464.322Zm-20.535-.254-1.564-7.516q.735-.153,1.477-.286l1.355,7.558Q-1262.54,570.43-1263.171,570.562Zm17.369-.374q-.641-.1-1.286-.191l1.031-7.608c.5.066.989.141,1.48.22Zm-14.184-.174-1.047-7.605q.742-.1,1.491-.185l.84,7.632Q-1259.348,569.926-1259.986,570.013Zm10.97-.237q-.64-.061-1.285-.1l.5-7.662q.755.05,1.5.12Zm-7.753-.094-.53-7.66q.749-.051,1.5-.082l.313,7.671Q-1256.127,569.638-1256.769,569.682Zm4.525-.1c-.392-.01-.784-.015-1.177-.015h-.121v-3.839l.009-3.839c.545,0,1.013,0,1.489.017Z" transform="translate(1951.219 4946.146)" fill="#fff" opacity="0.24"/></g></svg>