<svg xmlns="http://www.w3.org/2000/svg" width="75.345" height="75.345" viewBox="0 0 75.345 75.345">
  <g id="logo_getinsta" transform="translate(-0.531 0.188)">
    <g id="组_2" data-name="组 2" transform="translate(0.531 -0.188)">
      <path id="矩形_1" data-name="矩形 1" d="M70.73,5.634,6.513,70.166A18.3,18.3,0,0,1,.531,56.613V37.283L37.819-.188H57.326a18.293,18.293,0,0,1,13.4,5.822Z" transform="translate(-0.531 0.188)" fill="#eb4c44" fill-rule="evenodd"/>
      <path id="矩形_1_拷贝_4" data-name="矩形 1 拷贝 4" d="M.531,39.488V18.916a19.1,19.1,0,0,1,19.1-19.1H40.016Z" transform="translate(-0.531 0.187)" fill="#ef8b42" fill-rule="evenodd"/>
      <path id="矩形_1_拷贝_5" data-name="矩形 1 拷贝 5" d="M108.4,141.957H87.847a18.278,18.278,0,0,1-12.879-5.285l64.218-64.533a18.284,18.284,0,0,1,5.439,13.035v20.382Z" transform="translate(-69.28 -66.612)" fill="#a42dba" fill-rule="evenodd"/>
      <path id="矩形_1_拷贝_6" data-name="矩形 1 拷贝 6" d="M547.029,563.208H528.206L566.132,525.1v19A19.1,19.1,0,0,1,547.029,563.208Z" transform="translate(-490.787 -487.863)" fill="#7c35ca" fill-rule="evenodd"/>
    </g>
    <g id="组_1" data-name="组 1" transform="translate(16.214 13.148)">
      <path id="follow_拷贝" data-name="follow 拷贝" d="M267.68,256.218h-.088a2.319,2.319,0,0,1-2.307,2.155H227.209c-.062.005-.122.019-.186.019a2.139,2.139,0,0,1-1.828-1.035,2.29,2.29,0,0,1-.134-2.381,21.52,21.52,0,0,1,12.722-16.426,15.061,15.061,0,1,1,16.992,0,21.526,21.526,0,0,1,12.9,17.671Z" transform="translate(-224.79 -209.692)" fill="#eb4e27" fill-rule="evenodd"/>
      <path id="follow" d="M268.962,239.795h-.019a2.382,2.382,0,0,1-2.372,2.214H227.445c-.07.007-.137.021-.208.021a2.208,2.208,0,0,1-2.037-1.357,2.364,2.364,0,0,1-.255-1.054,3.992,3.992,0,0,1,.117-1.081A22.305,22.305,0,0,1,238.3,221.63a15.485,15.485,0,1,1,17.47,0A22.05,22.05,0,0,1,268.962,239.795Zm-10.873-30.95a11.061,11.061,0,1,0-11.062,11.063,11.061,11.061,0,0,0,11.062-11.063ZM247.978,224.3c-.313.019-.628.031-.946.031s-.632-.013-.944-.031a17.677,17.677,0,0,0-16.077,12.932h34.037A17.669,17.669,0,0,0,247.978,224.3Z" transform="translate(-224.932 -193.352)" fill="#fff" fill-rule="evenodd"/>
    </g>
    <path id="圆角矩形_2_拷贝" data-name="圆角矩形 2 拷贝" d="M755.063,119.61h-3.713v3.721h-3.182V119.61h-3.713v-3.189h3.713V112.7h3.182v3.721h3.713v3.189Z" transform="translate(-689.98 -104.262)" fill="#fff" fill-rule="evenodd"/>
  </g>
</svg>
