<svg xmlns="http://www.w3.org/2000/svg" xmlns:xlink="http://www.w3.org/1999/xlink" width="248.001" height="132.928" viewBox="0 0 248.001 132.928"><defs><filter id="a" x="0" y="0" width="248.001" height="132.928" filterUnits="userSpaceOnUse"><feOffset dy="10" input="SourceAlpha"/><feGaussianBlur stdDeviation="10" result="b"/><feFlood flood-color="#7464ff" flood-opacity="0.388"/><feComposite operator="in" in2="b"/><feComposite in="SourceGraphic"/></filter></defs><g transform="translate(3075.498 -5373.77)"><g transform="matrix(1, 0, 0, 1, -3075.5, 5373.77)" filter="url(#a)"><path d="M9483.889,21274.639l-11.989-14.092h-22.4a7,7,0,0,1-7-7v-43.779a7,7,0,0,1,7-7h174a7,7,0,0,1,7,7v43.779a7,7,0,0,1-7,7H9500.448l-11.989,14.092a3,3,0,0,1-4.57,0Z" transform="translate(-9412.5 -21182.77)" fill="#ff5757"/></g><path d="M14.589,25.29a3.282,3.282,0,0,1-1.825-.851C6.28,18.56,2,14.683,2,9.924A6.857,6.857,0,0,1,8.924,3a7.539,7.539,0,0,1,5.665,2.631A7.539,7.539,0,0,1,20.254,3a6.857,6.857,0,0,1,6.924,6.924c0,4.759-4.28,8.636-10.764,14.528A3.256,3.256,0,0,1,14.589,25.29Z" transform="translate(-2945.176 5408.979)" fill="#fff"/><path d="M20.53,15.16a5.58,5.58,0,1,0-5.58-5.58A5.579,5.579,0,0,0,20.53,15.16Zm0,2.79c-3.725,0-11.16,1.869-11.16,5.58v2.79h22.32V23.53C31.691,19.82,24.255,17.95,20.53,17.95Z" transform="translate(-3033.975 5407.979)" fill="#fff"/><path d="M-16.47-14V0h-2.6V-11.82h-2.96V-14Zm9.14,5.36a5.641,5.641,0,0,1,2.48.53A4.081,4.081,0,0,1-3.13-6.6a4.136,4.136,0,0,1,.62,2.26,4.238,4.238,0,0,1-.68,2.39A4.5,4.5,0,0,1-5.03-.36,5.9,5.9,0,0,1-7.63.2,5.651,5.651,0,0,1-12.1-1.6a7.552,7.552,0,0,1-1.59-5.16,8.712,8.712,0,0,1,.86-4.03,5.962,5.962,0,0,1,2.41-2.54,7.211,7.211,0,0,1,3.59-.87,8.607,8.607,0,0,1,2.03.23,5.52,5.52,0,0,1,1.65.67l-.96,1.96a4.774,4.774,0,0,0-2.66-.68,4.078,4.078,0,0,0-3.16,1.24A5.107,5.107,0,0,0-11.07-7.2v.02A3.887,3.887,0,0,1-9.49-8.27,5.967,5.967,0,0,1-7.33-8.64Zm-.44,6.8a2.94,2.94,0,0,0,1.98-.65,2.163,2.163,0,0,0,.76-1.73,2.155,2.155,0,0,0-.76-1.74A3.064,3.064,0,0,0-7.83-6.6a3.031,3.031,0,0,0-2.05.68,2.172,2.172,0,0,0-.79,1.72A2.145,2.145,0,0,0-9.9-2.51,3.138,3.138,0,0,0-7.77-1.84Zm11-6.74A6.9,6.9,0,0,1,7.61-7.43,3.813,3.813,0,0,1,9.03-4.3a4.3,4.3,0,0,1-.62,2.28A4.287,4.287,0,0,1,6.55-.4,6.993,6.993,0,0,1,3.49.2,9.821,9.821,0,0,1,.59-.23,7.135,7.135,0,0,1-1.77-1.42l1.1-2.02A5.909,5.909,0,0,0,1.2-2.43a6.953,6.953,0,0,0,2.25.37,3.646,3.646,0,0,0,2.17-.57A1.83,1.83,0,0,0,6.41-4.2a1.816,1.816,0,0,0-.85-1.63,5.641,5.641,0,0,0-2.91-.55H-.73L-.01-14H8.21v2.18H2.19l-.3,3.24Zm13.66-.06a5.641,5.641,0,0,1,2.48.53A4.081,4.081,0,0,1,21.09-6.6a4.136,4.136,0,0,1,.62,2.26,4.238,4.238,0,0,1-.68,2.39A4.5,4.5,0,0,1,19.19-.36a5.9,5.9,0,0,1-2.6.56,5.651,5.651,0,0,1-4.47-1.8,7.552,7.552,0,0,1-1.59-5.16,8.712,8.712,0,0,1,.86-4.03,5.962,5.962,0,0,1,2.41-2.54,7.211,7.211,0,0,1,3.59-.87,8.607,8.607,0,0,1,2.03.23,5.52,5.52,0,0,1,1.65.67l-.96,1.96a4.774,4.774,0,0,0-2.66-.68,4.078,4.078,0,0,0-3.16,1.24A5.107,5.107,0,0,0,13.15-7.2v.02a3.887,3.887,0,0,1,1.58-1.09A5.967,5.967,0,0,1,16.89-8.64Zm-.44,6.8a2.94,2.94,0,0,0,1.98-.65,2.163,2.163,0,0,0,.76-1.73,2.155,2.155,0,0,0-.76-1.74,3.064,3.064,0,0,0-2.04-.64,3.031,3.031,0,0,0-2.05.68,2.172,2.172,0,0,0-.79,1.72,2.145,2.145,0,0,0,.77,1.69A3.138,3.138,0,0,0,16.45-1.84Z" transform="translate(-2891.498 5429.768)" fill="#fff"/><path d="M-11.23-8.22A4.717,4.717,0,0,1-8.27-6.9,3.779,3.779,0,0,1-7.25-4.2a4.129,4.129,0,0,1-.62,2.22A4.264,4.264,0,0,1-9.74-.39,7.11,7.11,0,0,1-12.79.2a9.723,9.723,0,0,1-2.89-.43,7.391,7.391,0,0,1-2.37-1.19l1.12-2.02a5.663,5.663,0,0,0,1.85,1.01,6.953,6.953,0,0,0,2.25.37,3.646,3.646,0,0,0,2.17-.57,1.812,1.812,0,0,0,.79-1.55,1.79,1.79,0,0,0-.75-1.53,3.878,3.878,0,0,0-2.29-.55h-1.28V-8.04l3.18-3.78h-6.36V-14h9.54v1.74ZM4.81-14v1.74L-.63,0H-3.41L1.85-11.8h-5.5v2.38H-6.07V-14Zm6.32-.2a5.651,5.651,0,0,1,4.47,1.8,7.552,7.552,0,0,1,1.59,5.16,8.712,8.712,0,0,1-.86,4.03A5.962,5.962,0,0,1,13.92-.67,7.211,7.211,0,0,1,10.33.2,8.607,8.607,0,0,1,8.3-.03,5.52,5.52,0,0,1,6.65-.7l.96-1.96a4.774,4.774,0,0,0,2.66.68,4.078,4.078,0,0,0,3.16-1.24A5.107,5.107,0,0,0,14.57-6.8v-.02a3.887,3.887,0,0,1-1.58,1.09,5.967,5.967,0,0,1-2.16.37,5.641,5.641,0,0,1-2.48-.53A4.081,4.081,0,0,1,6.63-7.4a4.136,4.136,0,0,1-.62-2.26,4.238,4.238,0,0,1,.68-2.39,4.5,4.5,0,0,1,1.84-1.59A5.9,5.9,0,0,1,11.13-14.2Zm.2,6.8a3.031,3.031,0,0,0,2.05-.68,2.172,2.172,0,0,0,.79-1.72,2.145,2.145,0,0,0-.77-1.69,3.138,3.138,0,0,0-2.13-.67,2.94,2.94,0,0,0-1.98.65,2.163,2.163,0,0,0-.76,1.73,2.155,2.155,0,0,0,.76,1.74A3.064,3.064,0,0,0,11.33-7.4Z" transform="translate(-2981.498 5429.768)" fill="#fff"/></g></svg>