<svg xmlns="http://www.w3.org/2000/svg" width="429" height="388" viewBox="0 0 429 388">
  <g id="img_dots" transform="translate(-424 -3983)">
    <g id="circle" transform="translate(424 4339)" fill="none" opacity="0.7">
      <path d="M16,0A16,16,0,1,1,0,16,16,16,0,0,1,16,0Z" stroke="none"/>
      <path d="M 16 8 C 11.58878707885742 8 8 11.58878707885742 8 16 C 8 20.41121292114258 11.58878707885742 24 16 24 C 20.41121292114258 24 24 20.41121292114258 24 16 C 24 11.58878707885742 20.41121292114258 8 16 8 M 16 0 C 24.83654975891113 0 32 7.163450241088867 32 16 C 32 24.83654975891113 24.83654975891113 32 16 32 C 7.163450241088867 32 0 24.83654975891113 0 16 C 0 7.163450241088867 7.163450241088867 0 16 0 Z" stroke="none" fill="#005fff"/>
    </g>
    <g id="circle-2" data-name="circle" transform="translate(829 4207)" fill="none" opacity="0.7">
      <path d="M12,0A12,12,0,1,1,0,12,12,12,0,0,1,12,0Z" stroke="none"/>
      <path d="M 12 5 C 8.140190124511719 5 5 8.140190124511719 5 12 C 5 15.85980987548828 8.140190124511719 19 12 19 C 15.85980987548828 19 19 15.85980987548828 19 12 C 19 8.140190124511719 15.85980987548828 5 12 5 M 12 0 C 18.62742042541504 0 24 5.372579574584961 24 12 C 24 18.62742042541504 18.62742042541504 24 12 24 C 5.372579574584961 24 0 18.62742042541504 0 12 C 0 5.372579574584961 5.372579574584961 0 12 0 Z" stroke="none" fill="#fc0"/>
    </g>
    <g id="circle-3" data-name="circle" transform="translate(450 3983)" fill="none" opacity="0.7">
      <path d="M12,0A12,12,0,1,1,0,12,12,12,0,0,1,12,0Z" stroke="none"/>
      <path d="M 12 5 C 8.140190124511719 5 5 8.140190124511719 5 12 C 5 15.85980987548828 8.140190124511719 19 12 19 C 15.85980987548828 19 19 15.85980987548828 19 12 C 19 8.140190124511719 15.85980987548828 5 12 5 M 12 0 C 18.62742042541504 0 24 5.372579574584961 24 12 C 24 18.62742042541504 18.62742042541504 24 12 24 C 5.372579574584961 24 0 18.62742042541504 0 12 C 0 5.372579574584961 5.372579574584961 0 12 0 Z" stroke="none" fill="#7c56ff"/>
    </g>
    <path id="circle-4" data-name="circle" d="M6,0A6,6,0,1,1,0,6,6,6,0,0,1,6,0Z" transform="translate(524 4019)" fill="#ff2d7c" opacity="0.7"/>
    <path id="circle-5" data-name="circle" d="M8.5,0A8.5,8.5,0,1,1,0,8.5,8.5,8.5,0,0,1,8.5,0Z" transform="translate(776 4154)" fill="#005fff" opacity="0.7"/>
    <path id="security" d="M14.607,1,3,6.159V13.9c0,7.158,4.952,13.851,11.607,15.476,6.655-1.625,11.607-8.318,11.607-15.476V6.159Zm0,14.174h9.028c-.684,5.313-4.23,10.047-9.028,11.53V15.186H5.579V7.835l9.028-4.011Z" transform="translate(781 4022.627)" fill="#13cfff"/>
  </g>
</svg>
