<svg xmlns="http://www.w3.org/2000/svg" xmlns:xlink="http://www.w3.org/1999/xlink" width="361.092" height="361.092" viewBox="0 0 361.092 361.092"><defs><filter id="a" x="0" y="0" width="361.092" height="361.092" filterUnits="userSpaceOnUse"><feOffset dy="30" input="SourceAlpha"/><feGaussianBlur stdDeviation="30" result="b"/><feFlood flood-color="#3f0eb2" flood-opacity="0.161"/><feComposite operator="in" in2="b"/><feComposite in="SourceGraphic"/></filter><clipPath id="c"><path d="M102.519,106.561h-.046a5.1,5.1,0,0,1-10.159,0h-.1A40.563,40.563,0,0,0,53.956,71.326q-1.1.069-2.224.07c-.747,0-1.486-.025-2.22-.07a40.665,40.665,0,0,0-37.359,30.441H81.205a4.971,4.971,0,0,1,4.971,4.971v.343a4.971,4.971,0,0,1-4.971,4.971H5.95a4.971,4.971,0,0,1-4.971-4.972v-.343c0-.06.007-.118.009-.178H.974c.008-.079.017-.158.025-.237s.014-.141.022-.211A50.419,50.419,0,0,1,31.583,65.258,35.044,35.044,0,0,1,16.017,36.179C16.017,16.73,32.007.961,51.732.961S87.446,16.728,87.446,36.179A35.043,35.043,0,0,1,71.89,65.251a50.462,50.462,0,0,1,30.367,39.17,4.958,4.958,0,0,1,.183,1.332l.046.466v.049C102.5,106.366,102.508,106.463,102.519,106.561ZM77.234,36.19A25.512,25.512,0,1,0,51.725,61.344,25.334,25.334,0,0,0,77.234,36.19Z" transform="translate(-0.974 -0.961)" fill="#fff" clip-rule="evenodd"/></clipPath></defs><g transform="translate(-464 -838)"><g transform="matrix(1, 0, 0, 1, 464, 838)" filter="url(#a)"><path d="M45.273,0h90.546a45.273,45.273,0,0,1,45.273,45.273v90.546a45.273,45.273,0,0,1-45.273,45.273H45.273A45.273,45.273,0,0,1,0,135.819V45.273A45.273,45.273,0,0,1,45.273,0Z" transform="translate(90 60)" fill="#fff"/></g><g transform="translate(591.393 931.916)" clip-path="url(#c)"><g transform="translate(-0.944 -6.045)"><rect width="25" height="123" transform="translate(77.449 -0.371)" fill="#459cfd"/><rect width="29" height="123" transform="translate(48.449 -0.371)" fill="#37d76d"/><rect width="23" height="123" transform="translate(25.449 -0.371)" fill="#ffc123"/><rect width="25" height="123" transform="translate(0.449 -0.371)" fill="#e04d21"/></g></g><g transform="translate(680.761 915.58)"><path d="M-12027.36,19106.375l-7.293-7.285-4.648.922,1.061-4.512-6.576-6.574a5.546,5.546,0,0,1,0-7.844l8.906-8.9a5.536,5.536,0,0,1,7.838,0l17.453,17.449a5.538,5.538,0,0,1,0,7.84l-8.906,8.906a5.525,5.525,0,0,1-3.918,1.621A5.517,5.517,0,0,1-12027.36,19106.375Z" transform="translate(12046.441 -19070.555)" fill="#e04d21"/><path d="M8.018,14.2a2.09,2.09,0,0,1-1.163-.542C2.726,9.911,0,7.441,0,4.41A4.367,4.367,0,0,1,4.41,0,4.8,4.8,0,0,1,8.018,1.676,4.8,4.8,0,0,1,11.627,0a4.367,4.367,0,0,1,4.41,4.41c0,3.031-2.726,5.5-6.856,9.253A2.074,2.074,0,0,1,8.018,14.2Z" transform="translate(18.214 9.12) rotate(47)" fill="#fff"/></g></g></svg>
