<svg xmlns="http://www.w3.org/2000/svg" xmlns:xlink="http://www.w3.org/1999/xlink" width="378.183" height="337.231" viewBox="0 0 378.183 337.231">
  <defs>
    <linearGradient id="linear-gradient" y1="0.733" x2="1.067" y2="0.356" gradientUnits="objectBoundingBox">
      <stop offset="0" stop-color="#fa0"/>
      <stop offset="0.463" stop-color="#ff506e"/>
      <stop offset="1" stop-color="#8c00d1"/>
    </linearGradient>
  </defs>
  <g id="img_device" transform="translate(3180.498 -5424.768)">
    <g id="hand" transform="translate(-3102.081 5482.53)">
      <path id="路径_779" data-name="路径 779" d="M220.569,78.465c-2.164,4.144-1.827,10.456.739,14.033,0,0,8.155,11.323,29.849.141s16.1-26.553,11.969-27.617l-23.778-6.127c-4.124-1.064-9.275,1.454-11.455,5.593Z" transform="translate(21.981 12.858)" fill="#f9b698"/>
      <path id="路径_780" data-name="路径 780" d="M224.655,91.82c-2.172,4.14-1.843,10.448.739,14.025,0,0,6.786,9.448,26.212-.558s14.061-23.843,9.922-24.911L241.832,75.3c-4.132-1.064-9.3-8.508-11.463-4.369Z" transform="translate(34.277 46.148)" fill="#f9b698"/>
      <path id="路径_781" data-name="路径 781" d="M222.579,95.6c-2.164,4.136-1.843,10.448.735,14.025,0,0,5.388,7.484,22.417-1.289,17.045-8.773,11.905-21.024,7.774-22.092l-15.419-3.967c-4.132-1.06-9.287,1.45-11.452,5.593Z" transform="translate(28.025 83.371)" fill="#f9b698"/>
      <path id="路径_782" data-name="路径 782" d="M283,77.284s30.928,122.8-20.037,120.618c-38.224-3.64-56.426,6.553-56.426,6.553L180.9,84.829Z" transform="translate(-115.745 69.044)" fill="#f9b698"/>
      <path id="路径_783" data-name="路径 783" d="M217.078,283.454s-42.093-59.993-47.987-95.975c-3.076-22.123,11.922-43.575,18.957-53.143L221.5,62.311c7.035-9.572,27.191-16.274,37.872-21.47l20.249,5.453c10.689-5.2,18.8.253,18.053,12.106l-4.385,68.725c-.759,11.853-5.4,30.4-10.319,41.209l-23.6,51.861c-4.919,10.817-9.865,29.34-10.99,41.164l-3.919,41.333c-1.128,11.821,9.4-.03-2.219,2.476Z" transform="translate(-164.671 -40.841)" fill="#f9b698"/>
    </g>
    <g id="组_235" data-name="组 235" transform="translate(-3180.856 5488.104)">
      <path id="路径_923" data-name="路径 923" d="M32,0H173a32,32,0,0,1,0,64H32A32,32,0,0,1,32,0Z" transform="translate(0.358 -0.337)" fill="#66f" opacity="0.85"/>
      <rect id="矩形_113" data-name="矩形 113" width="113" height="3" transform="translate(79.358 17.663)" fill="#fff" opacity="0.6"/>
      <rect id="矩形_114" data-name="矩形 114" width="68" height="3" transform="translate(79.358 30.663)" fill="#fff" opacity="0.6"/>
      <rect id="矩形_115" data-name="矩形 115" width="80" height="4" transform="translate(79.358 42.663)" fill="#fff" opacity="0.6"/>
      <path id="路径_928" data-name="路径 928" d="M23,0A23,23,0,1,1,0,23,23,23,0,0,1,23,0Z" transform="translate(11.358 9.663)" fill="#ffbe3e"/>
      <path id="eye" d="M7.873,13.4a1.531,1.531,0,0,1-.852-.4C4,10.259,2,8.45,2,6.23A3.2,3.2,0,0,1,5.23,3,3.517,3.517,0,0,1,7.873,4.228,3.517,3.517,0,0,1,10.516,3a3.2,3.2,0,0,1,3.23,3.23c0,2.22-2,4.029-5.022,6.778A1.519,1.519,0,0,1,7.873,13.4Z" transform="translate(16.676 20.246)" fill="#ff476d"/>
      <path id="eye-2" data-name="eye" d="M7.873,13.4a1.531,1.531,0,0,1-.852-.4C4,10.259,2,8.45,2,6.23A3.2,3.2,0,0,1,5.23,3,3.517,3.517,0,0,1,7.873,4.228,3.517,3.517,0,0,1,10.516,3a3.2,3.2,0,0,1,3.23,3.23c0,2.22-2,4.029-5.022,6.778A1.519,1.519,0,0,1,7.873,13.4Z" transform="translate(34.284 20.246)" fill="#ff476d"/>
      <path id="路径_790" data-name="路径 790" d="M3.2,0h9.6a3.2,3.2,0,0,1,3.2,3.2V6.4c0,1.768-3.617,4.491-8.154,4.491S0,8.171,0,6.4V3.2A3.2,3.2,0,0,1,3.2,0Z" transform="translate(25.463 38.448)" fill="#ae4610"/>
      <path id="路径_791" data-name="路径 791" d="M16.007,4.723c0,1.768-3.617,4.491-8.154,4.491S0,6.491,0,4.723C0,4.723,1.717,2.8,7.852,2.8S16.007,4.723,16.007,4.723Z" transform="translate(25.463 40.128)" fill="#f85359"/>
    </g>
    <path id="路径_922" data-name="路径 922" d="M14,0H178a14,14,0,0,1,14,14V317a14,14,0,0,1-14,14H14A14,14,0,0,1,0,317V14A14,14,0,0,1,14,0Z" transform="translate(-3027.498 5424.768)" fill="#393668"/>
    <path id="路径_921" data-name="路径 921" d="M10,0H163a10,10,0,0,1,10,10V289a10,10,0,0,1-10,10H10A10,10,0,0,1,0,289V10A10,10,0,0,1,10,0Z" transform="translate(-3018.498 5447.768)" fill="#fff"/>
    <g id="路径_966" data-name="路径 966" transform="translate(-3012.498 5531.768)" fill="none">
      <path d="M0,0H160V107H0Z" stroke="none"/>
      <path d="M 2 2 L 2 105 L 158 105 L 158 2 L 2 2 M 0 0 L 160 0 L 160 107 L 0 107 L 0 0 Z" stroke="none" fill="#ebebeb"/>
    </g>
    <rect id="矩形_107" data-name="矩形 107" width="114" height="10" transform="translate(-3012.498 5651.768)" fill="#e8e8ec"/>
    <rect id="矩形_108" data-name="矩形 108" width="37" height="3" transform="translate(-3012.498 5667.768)" fill="#e8e8ec"/>
    <rect id="矩形_109" data-name="矩形 109" width="50" height="3" transform="translate(-2970.498 5667.768)" fill="#e8e8ec"/>
    <path id="路径_925" data-name="路径 925" d="M23.5,0A23.254,23.254,0,0,1,47,23,23.254,23.254,0,0,1,23.5,46,23.254,23.254,0,0,1,0,23,23.254,23.254,0,0,1,23.5,0Z" transform="translate(-2922.498 5688.768)" fill="#ff4d4d"/>
    <g id="路径_926" data-name="路径 926" transform="translate(-2986.498 5688.768)" fill="none">
      <path d="M23.5,0A23.254,23.254,0,0,1,47,23,23.254,23.254,0,0,1,23.5,46,23.254,23.254,0,0,1,0,23,23.254,23.254,0,0,1,23.5,0Z" stroke="none"/>
      <path d="M 23.5 1 C 20.45944023132324 1 17.51054000854492 1.582530975341797 14.7352294921875 2.731410980224609 C 12.05546188354492 3.840740203857422 9.648918151855469 5.4287109375 7.582450866699219 7.451210021972656 C 5.517478942871094 9.472251892089844 3.896549224853516 11.82498168945313 2.764701843261719 14.44405937194824 C 1.593730926513672 17.15362930297852 1 20.03227043151855 1 23 C 1 25.96772956848145 1.593730926513672 28.84637069702148 2.764701843261719 31.55593872070313 C 3.896549224853516 34.17501831054688 5.517478942871094 36.52774810791016 7.582450866699219 38.54878997802734 C 9.648918151855469 40.5712890625 12.05546188354492 42.15925979614258 14.7352294921875 43.26858901977539 C 17.51054000854492 44.4174690246582 20.45944023132324 45 23.5 45 C 26.54055976867676 45 29.48945999145508 44.4174690246582 32.2647705078125 43.26858901977539 C 34.94454193115234 42.15925979614258 37.35108184814453 40.5712890625 39.41754913330078 38.54878997802734 C 41.48252105712891 36.52774810791016 43.10345077514648 34.17501831054688 44.23529815673828 31.55593872070313 C 45.40626907348633 28.84637069702148 46 25.96772956848145 46 23 C 46 20.03227043151855 45.40626907348633 17.15362930297852 44.23529815673828 14.44405937194824 C 43.10345077514648 11.82498168945313 41.48252105712891 9.472251892089844 39.41754913330078 7.451210021972656 C 37.35108184814453 5.4287109375 34.94454193115234 3.840740203857422 32.2647705078125 2.731410980224609 C 29.48945999145508 1.582530975341797 26.54055976867676 1 23.5 1 M 23.5 0 C 36.47869110107422 0 47 10.29745101928711 47 23 C 47 35.70254898071289 36.47869110107422 46 23.5 46 C 10.52130889892578 46 0 35.70254898071289 0 23 C 0 10.29745101928711 10.52130889892578 0 23.5 0 Z" stroke="none" fill="#c7c7c7"/>
    </g>
    <path id="favorite" d="M13.849,23.98a3.089,3.089,0,0,1-1.718-.8C6.029,17.646,2,14,2,9.517A6.454,6.454,0,0,1,8.517,3a7.1,7.1,0,0,1,5.332,2.476A7.1,7.1,0,0,1,19.181,3,6.454,6.454,0,0,1,25.7,9.517c0,4.479-4.029,8.129-10.131,13.674A3.064,3.064,0,0,1,13.849,23.98Z" transform="translate(-2912.263 5699.74)" fill="#fff"/>
    <path id="路径_965" data-name="路径 965" d="M15.836,18.1l-6.65-6.65L2.536,18.1a1,1,0,0,1-1.415,0l-.85-.85a1,1,0,0,1,0-1.414l6.65-6.65L.272,2.536a1,1,0,0,1,0-1.414l.85-.85a1,1,0,0,1,1.414,0l6.65,6.649,6.65-6.65a1,1,0,0,1,1.414,0l.85.85a1,1,0,0,1,0,1.414l-6.65,6.65,6.65,6.65a1,1,0,0,1,0,1.415l-.85.849a1,1,0,0,1-1.414,0Z" transform="translate(-2971.712 5702.643)" fill="#ff4a4a"/>
    <g id="组_237" data-name="组 237" transform="translate(-3007.315 5545.598)">
      <g id="组_237-2" data-name="组 237" transform="translate(0 0)">
        <path id="路径_717" data-name="路径 717" d="M149.185,332.341c-1.084,2.648-5.876,7.248-6.227,6.645s1.871-7.544,3.4-8.031S149.185,332.341,149.185,332.341Z" transform="translate(-124.423 -268.469)" fill="#e7e3ff"/>
        <path id="路径_718" data-name="路径 718" d="M184.42,342.024c-.094,2.859-2.982,8.841-3.521,8.4s-.875-7.723.392-8.714S184.42,342.024,184.42,342.024Z" transform="translate(-152.375 -276.269)" fill="#e7e3ff"/>
        <g id="组_234" data-name="组 234" transform="translate(0 48.745)">
          <path id="路径_719" data-name="路径 719" d="M83.991,278.352l-1.858,1.3-.988-1.16,1.707-1.281Z" transform="translate(-78.371 -277.209)" fill="#f4b5b7"/>
          <path id="路径_720" data-name="路径 720" d="M73.768,282.363c.668.944,0,1.678-.8,2.1a2.767,2.767,0,0,1-1.722.37c-.045-.087.45-.341.45-.341s-.683.1-1.081.114c-.205.005.663-.56.637-.621s-.928.342-.992.216c-.133-.164.753-.754.753-.754s-.831.243-.761.023,1.586-.778,1.586-.778-.731.081-.587-.213S72.981,281.253,73.768,282.363Z" transform="translate(-70.248 -280.655)" fill="#f4b5b7"/>
        </g>
        <g id="组_235-2" data-name="组 235" transform="translate(35.626 0)">
          <path id="路径_721" data-name="路径 721" d="M218.486,100l-.871-2.093-1.456.448.752,2Z" transform="translate(-214.644 -94.801)" fill="#f4b5b7"/>
          <path id="路径_722" data-name="路径 722" d="M212.581,89.3c1.071-.437.9-1.417.456-2.2a2.766,2.766,0,0,0-1.254-1.237c-.085.049.2.529.2.529s-.521-.455-.851-.677c-.17-.115.259.829.2.866s-.6-.786-.721-.715c-.2.067.23,1.04.23,1.04s-.571-.651-.629-.428.92,1.508.92,1.508-.573-.461-.61-.136S211.321,89.817,212.581,89.3Z" transform="translate(-210.208 -85.709)" fill="#f4b5b7"/>
        </g>
        <path id="路径_723" data-name="路径 723" d="M197.759,264.867s13.622,11.018,12.129,16.577c-.9,3.342-16.039,6.391-16.039,6.391l-.7-2.965,8.247-3.425-7.682-8.491-.607-7.278Z" transform="translate(-161.836 -219.263)" fill="#4056e3"/>
        <path id="路径_724" data-name="路径 724" d="M166.6,267.249s-3.639,7.278-.606,10.512,6.065,9.5,6.065,9.5l-8.93-3.06-.7,2.966s12.386,9.071,16.921,4.012c4.41-4.919-6.889-23.122-6.889-23.122Z" transform="translate(-138.969 -221.039)" fill="#5265ff"/>
        <path id="路径_725" data-name="路径 725" d="M167.087,165.554c1.1,2.036.453,3.684-.947,4.437s-3.027.327-4.122-1.709-.7-3.982.7-4.736S165.991,163.518,167.087,165.554Z" transform="translate(-138.187 -143.516)" fill="#f4b5b7"/>
        <path id="路径_726" data-name="路径 726" d="M101.939,128.912c2.806-2.619,10.1-4.863,12.159-7.482s3.18-8.23,3.18-11.223.187-8.043.187-8.043l3.133-.638s1.5,10.2,1.308,14.13a72.755,72.755,0,0,1-2.268,13.781c-.863,3.33-.087,16.834-.087,16.834s-5.233,9.42-13.084,4.71c0,0-3.75-8.81-4.623-9.507-1.386-1.109-1.744.785-5.844,2.442-3.6,1.455-10.467,4.971-10.467,4.971l-1.57-2.355a141.421,141.421,0,0,0,10.467-9.682A106.973,106.973,0,0,1,101.939,128.912Z" transform="translate(-80.473 -97.5)" fill="#f2a61c"/>
        <path id="路径_727" data-name="路径 727" d="M171.312,186.851c-.713-.267-2.2-3.386-2.2-3.386l2.483-1.177,1.949,1.972s1.257,1.431.362,2.29S172.359,187.243,171.312,186.851Z" transform="translate(-143.944 -157.704)" fill="#f4b5b7"/>
        <path id="路径_728" data-name="路径 728" d="M158.011,160.615s1.14.265,1.115-.4,2-.075,2.3-1.088-.07-2.539-.864-2.484-1.828,1.917-2.647,1.306-3.186,1.3-2.912,2.446.568,3.5,2.15,3.925,1.884-1.124,1.416-1.953A4.956,4.956,0,0,1,158.011,160.615Z" transform="translate(-133.41 -138.586)" fill="#060606"/>
        <circle id="椭圆_47" data-name="椭圆 47" cx="0.785" cy="0.785" r="0.785" transform="translate(23.771 23.259)" fill="#f4b5b7"/>
        <circle id="椭圆_48" data-name="椭圆 48" cx="0.785" cy="0.785" r="0.785" transform="translate(27.62 21.13)" fill="#f4b5b7"/>
        <g id="组_236" data-name="组 236" transform="translate(26.247 22.066)">
          <ellipse id="椭圆_49" data-name="椭圆 49" cx="0.229" cy="0.286" rx="0.229" ry="0.286" transform="translate(0 0.98) rotate(-25.377)" fill="#060606"/>
          <ellipse id="椭圆_50" data-name="椭圆 50" cx="0.229" cy="0.286" rx="0.229" ry="0.286" transform="translate(1.397 0.196) rotate(-25.377)" fill="#060606"/>
        </g>
        <path id="路径_729" data-name="路径 729" d="M178.288,176.051s.632.262.632.432-.2.339-.2.339" transform="translate(-150.787 -153.055)" fill="none" stroke="#ef7353" stroke-miterlimit="10" stroke-width="0.692"/>
        <path id="路径_730" data-name="路径 730" d="M178.348,180.788l1.11-.74s.154.54-.108.817S178.348,180.788,178.348,180.788Z" transform="translate(-150.832 -156.035)" fill="#e7e3ff"/>
        <path id="路径_731" data-name="路径 731" d="M176.431,302.877a3.147,3.147,0,0,0,1.863-1.937" transform="translate(-149.403 -246.154)" fill="none" stroke="#060606" stroke-miterlimit="10" stroke-width="1.384"/>
        <path id="路径_732" data-name="路径 732" d="M222.312,281.266a4.04,4.04,0,0,0,2.4.5" transform="translate(-183.605 -231.488)" fill="none" stroke="#060606" stroke-miterlimit="10" stroke-width="1.384"/>
      </g>
      <line id="直线_8" data-name="直线 8" x2="1.542" y2="2.681" transform="translate(36.303 52.182)" fill="none" stroke="#060606" stroke-miterlimit="10" stroke-width="1.384"/>
      <g id="组_241" data-name="组 241" transform="translate(119.457 16.431)">
        <g id="组_238" data-name="组 238" transform="translate(18.08)">
          <path id="路径_733" data-name="路径 733" d="M619.75,163.844l-1.023-2.022-1.419.554.9,1.937Z" transform="translate(-615.593 -158.879)" fill="#f4b5b7"/>
          <path id="路径_734" data-name="路径 734" d="M613.144,153.735c1.035-.515.792-1.479.292-2.228a2.771,2.771,0,0,0-1.342-1.141c-.081.056.235.514.235.514s-.553-.415-.9-.612c-.178-.1.319.807.267.849s-.656-.74-.772-.659c-.2.081.306,1.02.306,1.02s-.617-.608-.659-.38,1.029,1.436,1.029,1.436-.605-.417-.618-.09S611.926,154.341,613.144,153.735Z" transform="translate(-610.571 -150.261)" fill="#f4b5b7"/>
        </g>
        <g id="组_239" data-name="组 239" transform="translate(3.911 2.77)">
          <path id="路径_735" data-name="路径 735" d="M554.907,176.061l.714-2.151,1.485.339-.6,2.048Z" transform="translate(-554.907 -170.66)" fill="#f4b5b7"/>
          <path id="路径_736" data-name="路径 736" d="M557.609,164.836c-1.1-.357-1-1.346-.618-2.16a2.769,2.769,0,0,1,1.159-1.326c.088.043-.157.543-.157.543s.486-.492.8-.738c.161-.127-.2.846-.139.879s.539-.829.667-.766c.205.052-.152,1.054-.152,1.054s.521-.692.6-.473-.806,1.572-.806,1.572.537-.5.6-.18S558.9,165.256,557.609,164.836Z" transform="translate(-556.263 -161.143)" fill="#f4b5b7"/>
        </g>
        <path id="路径_737" data-name="路径 737" d="M569.46,299.415s-8.607,11.309-4.677,12.417,13.762-3.12,13.762-3.12l-6.772-4.045,2.8-7.03Z" transform="translate(-557.593 -260.122)" fill="#4056e3"/>
        <path id="路径_738" data-name="路径 738" d="M636.567,323.5l1.643-.823a1.287,1.287,0,0,1,1.761.646s3.906,5.583,2.427,5.693-5.235-3.372-5.235-3.372Z" transform="translate(-611.87 -278.687)" fill="#e7e3ff"/>
        <path id="路径_739" data-name="路径 739" d="M624.058,337.071s2.417,4.281,1.586,4.868-3.783-3.83-3.783-3.83Z" transform="translate(-600.908 -289.52)" fill="#e7e3ff"/>
        <path id="路径_740" data-name="路径 740" d="M571.819,304.093l7.857-1.37.938,2.029s-18.736,6.813-20.177,2.721c-1.182-3.356,10.021-12.288,10.021-12.288l6.11-.759S582.386,302.7,571.819,304.093Z" transform="translate(-555.054 -257.73)" fill="#5265ff"/>
        <path id="路径_741" data-name="路径 741" d="M568.813,205.31s-1.308,2.415-1.237,3.372.851,2.036,1.875,1.7S568.813,205.31,568.813,205.31Z" transform="translate(-560.439 -191.298)" fill="#060606"/>
        <path id="路径_742" data-name="路径 742" d="M559.915,167.018l2.049-.677a31.5,31.5,0,0,1,2.242,14.438c-.365,3.17-3.616,7.951-3.812,9.206s1.32,8.954,1.32,8.954c-3.088,2.563-8.615,4.246-10.76,3.51-.628-.216-1.532-1.1-3.06-6.464-.137-.48-1.029-2.356-1.176-2.887-.141-.511-6.8-6.755-7.134-11.278-.458-6.17,3.141-12.266,3.141-12.266l2.569.822s-3.4,8.424-1.342,10.2c2.382,2.054,6.21,4.252,8.947,2.7C561.8,178.248,559.915,167.018,559.915,167.018Z" transform="translate(-539.544 -162.248)" fill="#ef7353"/>
        <path id="路径_743" data-name="路径 743" d="M573.321,203.224c-.2,2.3,1.036,3.564,2.62,3.7s2.911-.892,3.115-3.2-.923-3.937-2.507-4.077S573.526,200.921,573.321,203.224Z" transform="translate(-564.707 -187.075)" fill="#f4b5b7"/>
        <path id="路径_744" data-name="路径 744" d="M583.277,223.7c.411-.64-.258-4.032-.258-4.032l-2.694.542-.4,3.272s-.139,1.373,1.093,1.526S582.673,224.639,583.277,223.7Z" transform="translate(-569.647 -201.999)" fill="#f4b5b7"/>
        <circle id="椭圆_51" data-name="椭圆 51" cx="0.785" cy="0.785" r="0.785" transform="translate(12.612 15.496)" fill="#f4b5b7"/>
        <circle id="椭圆_52" data-name="椭圆 52" cx="0.785" cy="0.785" r="0.785" transform="translate(8.236 15.056)" fill="#f4b5b7"/>
        <g id="组_240" data-name="组 240" transform="translate(9.377 15.843)">
          <ellipse id="椭圆_53" data-name="椭圆 53" cx="0.286" cy="0.229" rx="0.286" ry="0.229" transform="translate(1.593 0.741) rotate(-87.841)" fill="#060606"/>
          <ellipse id="椭圆_54" data-name="椭圆 54" cx="0.286" cy="0.229" rx="0.286" ry="0.229" transform="translate(0 0.572) rotate(-87.841)" fill="#060606"/>
        </g>
        <path id="路径_745" data-name="路径 745" d="M578.7,215s-.478.49-.411.646.318.233.318.233" transform="translate(-568.422 -198.52)" fill="none" stroke="#ef7353" stroke-miterlimit="10" stroke-width="0.692"/>
        <path id="路径_746" data-name="路径 746" d="M578.746,220.658l-1.312-.243s.071.557.421.708S578.746,220.658,578.746,220.658Z" transform="translate(-567.789 -202.558)" fill="#e7e3ff"/>
        <path id="路径_747" data-name="路径 747" d="M573.19,198.19c.451.185,1.189,1.88,2.2,2.548s.476,2.283,1.418,2.606,4.289-.537,3.6-2.148,1.538-2.257,1.19-3.412-1.87.139-3.065-.647-4.111-1.182-4.821-.736-1.558-.365-2.163.9-.164,2.5.181,2.436S572.739,198,573.19,198.19Z" transform="translate(-563.179 -184.518)" fill="#060606"/>
      </g>
      <g id="组_245" data-name="组 245" transform="translate(48.445 12.462)">
        <path id="路径_748" data-name="路径 748" d="M274.276,303.585l-1.2-1.389a1.287,1.287,0,0,0-1.874-.077s-5.744,3.665-4.42,4.332,6.127-1.115,6.127-1.115Z" transform="translate(-265.05 -259.221)" fill="#e7e3ff"/>
        <path id="路径_749" data-name="路径 749" d="M317.614,367.159l-1.6.9a1.288,1.288,0,0,0-.448,1.822s2.448,6.359,3.365,5.194.128-6.226.128-6.226Z" transform="translate(-301.411 -307.98)" fill="#e7e3ff"/>
        <g id="组_242" data-name="组 242" transform="translate(19.718)">
          <path id="路径_750" data-name="路径 750" d="M350.794,144.515l-1.665-1.538-1.136,1.015,1.517,1.5Z" transform="translate(-345.458 -140.862)" fill="#f4b5b7"/>
          <path id="路径_751" data-name="路径 751" d="M341.365,137.476c.791-.844.226-1.663-.5-2.189a2.767,2.767,0,0,0-1.656-.6c-.056.08.4.4.4.4s-.663-.2-1.056-.26c-.2-.033.581.645.547.7s-.873-.465-.954-.348c-.155.145.643.849.643.849s-.79-.354-.75-.126,1.465.986,1.465.986-.713-.18-.611.131S340.435,138.469,341.365,137.476Z" transform="translate(-338.033 -134.667)" fill="#f4b5b7"/>
        </g>
        <path id="路径_752" data-name="路径 752" d="M305.389,270.875l-6.7-.872-1.966,1.919s-2.251,3.716-1.1,6.978a54.948,54.948,0,0,1,1.562,5.348l-6.061-4.563-1.775,2.268s7.085,8.922,11.537,7.763c3.35-.872,2.025-8.33,2.025-8.33s1.953,5.684,2.336,6.992c-1.1,1.444-7.375,6.588-7.375,6.588l1.655,1.483s11.1-4.909,11.03-7.874C310.371,280.375,305.389,270.875,305.389,270.875Z" transform="translate(-282.026 -235.554)" fill="#060606"/>
        <path id="路径_753" data-name="路径 753" d="M284.241,162.332c2.6-1.262,3.813-6.047,3.882-7.152.174-2.791-2.05-6.454-2.05-6.454l1.854-1.4s4.121,5.8,4.645,8.766-4.328,14.8-4.579,16.878c-.665,5.494-.782,9.335-.611,8.461a10.712,10.712,0,0,1-10.554.174,17.887,17.887,0,0,0-1.265-5.844c-1.221-2.966-6.324-2.966-8.766-5.582s-3.314-8.373-3.314-8.373l2.18-.611s2.137,5.626,4.4,5.626S280.271,164.258,284.241,162.332Z" transform="translate(-262.74 -144.107)" fill="#5265ff"/>
        <path id="路径_754" data-name="路径 754" d="M308.565,187.931c.6,2.234,2.192,2.995,3.728,2.585s2.43-1.834,1.835-4.068-2.213-3.384-3.749-2.975S307.97,185.7,308.565,187.931Z" transform="translate(-296.207 -170.99)" fill="#f4b5b7"/>
        <path id="路径_755" data-name="路径 755" d="M319.49,204.281c-.651-.394-1.542-3.734-1.542-3.734l2.657-.7,1.795,2.764a1.35,1.35,0,0,1-.31,1.851C321.051,205.142,320.447,204.86,319.49,204.281Z" transform="translate(-303.342 -183.257)" fill="#f4b5b7"/>
        <path id="路径_756" data-name="路径 756" d="M305.909,184.615a6.589,6.589,0,0,0,.872-2.355s4.706,3.6,5.146,1.308a3.564,3.564,0,0,0-2.7-4.274c-1.57-.262-2.878,0-3.925,2.093A2.445,2.445,0,0,0,305.909,184.615Z" transform="translate(-293.654 -167.873)" fill="#060606"/>
        <circle id="椭圆_55" data-name="椭圆 55" cx="0.785" cy="0.785" r="0.785" transform="translate(15.831 14.998)" fill="#f4b5b7"/>
        <g id="组_243" data-name="组 243" transform="translate(12.99 15.861)">
          <ellipse id="椭圆_56" data-name="椭圆 56" cx="0.229" cy="0.286" rx="0.229" ry="0.286" transform="translate(1.555 0.14) rotate(-17.829)" fill="#060606"/>
          <ellipse id="椭圆_57" data-name="椭圆 57" cx="0.229" cy="0.286" rx="0.229" ry="0.286" transform="translate(0 0.526) rotate(-17.829)" fill="#060606"/>
        </g>
        <path id="路径_757" data-name="路径 757" d="M315.135,200.208s-.281.624-.165.747a.572.572,0,0,0,.378.11" transform="translate(-301.101 -183.525)" fill="none" stroke="#ef7353" stroke-miterlimit="10" stroke-width="0.692"/>
        <path id="路径_758" data-name="路径 758" d="M316.53,205.281l-1.315.221s.257.5.638.522S316.53,205.281,316.53,205.281Z" transform="translate(-301.305 -187.307)" fill="#e7e3ff"/>
        <path id="路径_759" data-name="路径 759" d="M314.416,156.725a2.115,2.115,0,0,1-.96-2.268c.175-1.744,1.308-1.744,1.308-2.966s0-2.093,2.355-2.791c0,0-1.4,1.4-.087,2.442s-.785,2.006,0,3.314-.7,1.919-1.483,2.093A6.014,6.014,0,0,1,314.416,156.725Z" transform="translate(-299.981 -145.128)" fill="#060606"/>
        <g id="组_244" data-name="组 244" transform="translate(0 11.595)">
          <path id="路径_760" data-name="路径 760" d="M263.787,196.527l-.305-2.246,1.483-.349.36,2.1Z" transform="translate(-262.74 -190.442)" fill="#f4b5b7"/>
          <path id="路径_761" data-name="路径 761" d="M262.073,184.179c-1.145.163-1.492-.768-1.5-1.668a2.768,2.768,0,0,1,.458-1.7c.1,0,.1.556.1.556s.22-.655.393-1.014c.089-.185.2.846.262.85s.12-.981.262-.981c.207-.044.327,1.014.327,1.014s.164-.85.327-.687a6.243,6.243,0,0,1-.033,1.766s.262-.687.458-.425S263.42,183.987,262.073,184.179Z" transform="translate(-260.568 -180.22)" fill="#f4b5b7"/>
        </g>
      </g>
      <g id="组_249" data-name="组 249" transform="translate(80.849 0.68)">
        <path id="路径_762" data-name="路径 762" d="M471.067,344.817c1.744,2.268,3.314,8.723,2.617,8.723s-5.582-5.408-5.233-6.978S471.067,344.817,471.067,344.817Z" transform="translate(-447.926 -279.542)" fill="#e7e3ff"/>
        <path id="路径_763" data-name="路径 763" d="M477.623,330.158s-2.268,3.315-2.268,3.838.568,3,2.617,2.442c4.518-1.221,5.975-3.445,5.975-3.445S483.205,329.46,477.623,330.158Z" transform="translate(-453.087 -268.547)" fill="#db8b00"/>
        <path id="路径_764" data-name="路径 764" d="M428.4,342.761c-1.745,2.268-3.315,8.723-2.617,8.723s5.582-5.408,5.233-6.978S428.4,342.761,428.4,342.761Z" transform="translate(-416.01 -278.01)" fill="#e7e3ff"/>
        <path id="路径_765" data-name="路径 765" d="M412.563,328.1s2.268,3.315,2.268,3.838-.523,2.791-2.617,2.442-5.975-3.445-5.975-3.445S406.981,327.4,412.563,328.1Z" transform="translate(-401.564 -267.014)" fill="#db8b00"/>
        <g id="组_246" data-name="组 246" transform="translate(0 0)">
          <path id="路径_766" data-name="路径 766" d="M393.359,103.841l-.82-2.113,1.361-.685.84,1.963Z" transform="translate(-391.351 -97.82)" fill="#f4b5b7"/>
          <path id="路径_767" data-name="路径 767" d="M389.831,92.227c-1.075.426-1.63-.4-1.852-1.272a2.767,2.767,0,0,1,.049-1.761c.1-.023.225.518.225.518s.061-.689.145-1.077c.044-.2.387.777.453.766s-.112-.982.026-1.015c.191-.091.554.91.554.91s-.039-.865.158-.744a6.257,6.257,0,0,1,.38,1.725s.094-.729.346-.52S391.1,91.726,389.831,92.227Z" transform="translate(-387.873 -88.38)" fill="#f4b5b7"/>
        </g>
        <g id="组_247" data-name="组 247" transform="translate(29.511 2.514)">
          <path id="路径_768" data-name="路径 768" d="M512.087,112.544l-.871-2.093-1.456.448.752,2Z" transform="translate(-508.246 -107.347)" fill="#f4b5b7"/>
          <path id="路径_769" data-name="路径 769" d="M506.182,101.848c1.071-.437.9-1.417.456-2.2a2.766,2.766,0,0,0-1.254-1.237c-.085.05.2.529.2.529s-.521-.455-.851-.677c-.17-.115.259.829.2.866s-.6-.786-.721-.715c-.2.067.23,1.04.23,1.04s-.57-.651-.629-.428.92,1.508.92,1.508-.573-.46-.61-.136S504.923,102.363,506.182,101.848Z" transform="translate(-503.81 -98.255)" fill="#f4b5b7"/>
        </g>
        <path id="路径_770" data-name="路径 770" d="M414.432,253.155s-12.229,19.874-9.42,21.98c6.28,4.71,14.871-12.6,14.871-12.6s4.754,15.351,10.641,13.781c2.888-.77-2.093-19.363-2.093-19.363Z" transform="translate(-400.337 -211.213)" fill="#f2a61c"/>
        <path id="路径_771" data-name="路径 771" d="M424.8,107.233l-2.442.349s1.579,9.228.872,10.641c-.909,1.818-15.98,4.333-22.155-2.791-1.74-2.008-6.455-11.165-6.455-11.165l-1.919,1.047s1.483,19.189,10.118,23.114c-.044,8.187,1.274,11.8,1.5,14.97,4.572,4.855,10.691,4.881,15.609,2.941,0,0,.707-7.818,1.731-13.724a64.851,64.851,0,0,0,7.065-8.635C432.129,118.485,424.8,107.233,424.8,107.233Z" transform="translate(-391.474 -100.224)" fill="#e7e3ff"/>
        <path id="路径_772" data-name="路径 772" d="M468.816,140.1c-.011,2.312-1.363,3.452-2.953,3.444s-2.815-1.159-2.8-3.472,1.286-3.834,2.875-3.827S468.828,137.793,468.816,140.1Z" transform="translate(-443.921 -124.066)" fill="#f4b5b7"/>
        <path id="路径_773" data-name="路径 773" d="M466.657,161.815c-.5-.575.576-3.836.576-3.836l2.743.153-.125,2.471s.421,1.858-.777,2.185S467.388,162.66,466.657,161.815Z" transform="translate(-446.504 -140.263)" fill="#f4b5b7"/>
        <circle id="椭圆_58" data-name="椭圆 58" cx="0.785" cy="0.785" r="0.785" transform="translate(18.527 15.091)" fill="#f4b5b7"/>
        <circle id="椭圆_59" data-name="椭圆 59" cx="0.785" cy="0.785" r="0.785" transform="translate(23.891 15.091)" fill="#f4b5b7"/>
        <g id="组_248" data-name="组 248" transform="translate(21.18 15.418)">
          <ellipse id="椭圆_60" data-name="椭圆 60" cx="0.286" cy="0.229" rx="0.286" ry="0.229" transform="matrix(0.055, -0.998, 0.998, 0.055, 0, 0.592)" fill="#060606"/>
          <ellipse id="椭圆_61" data-name="椭圆 61" cx="0.286" cy="0.229" rx="0.286" ry="0.229" transform="matrix(0.055, -0.998, 0.998, 0.055, 1.602, 0.571)" fill="#060606"/>
        </g>
        <path id="路径_774" data-name="路径 774" d="M475.622,151.216s.43.532.349.681-.338.2-.338.2" transform="translate(-453.286 -135.222)" fill="none" stroke="#ef7353" stroke-miterlimit="10" stroke-width="0.692"/>
        <path id="路径_775" data-name="路径 775" d="M472.375,156.959l1.328-.119s-.122.548-.485.666S472.375,156.959,472.375,156.959Z" transform="translate(-450.865 -139.414)" fill="#e7e3ff"/>
        <path id="路径_776" data-name="路径 776" d="M459.582,132.729l.523.959a11.884,11.884,0,0,1,1.09-2.224,4.039,4.039,0,0,1,2.922-.087c.872.436,1.221,2.093,1.221,2.093a3.856,3.856,0,0,0,.305-2.442c-.07-.519.96-2.137-.349-2.748s-1.745.654-2.573.654-1.047-.741-1.919.044-2.137.7-2.137,1.483A6.505,6.505,0,0,0,459.582,132.729Z" transform="translate(-440.646 -118)" fill="#060606"/>
        <line id="直线_9" data-name="直线 9" y1="3.823" x2="0.184" transform="translate(19.547 47.496)" fill="none" stroke="#060606" stroke-miterlimit="10" stroke-width="1.384"/>
        <path id="路径_777" data-name="路径 777" d="M432.938,266.122s2.753-.787,2.95-1.967" transform="translate(-421.467 -219.413)" fill="none" stroke="#060606" stroke-miterlimit="10" stroke-width="1.384"/>
        <path id="路径_778" data-name="路径 778" d="M489.339,272.654s2.556,2.36,2.753,1.18" transform="translate(-463.511 -225.748)" fill="none" stroke="#060606" stroke-miterlimit="10" stroke-width="1.384"/>
      </g>
      <line id="直线_10" data-name="直线 10" x1="3.581" y2="0.58" transform="translate(134.976 62.392)" fill="none" stroke="#060606" stroke-miterlimit="10" stroke-width="1.309"/>
    </g>
    <g id="组_238-2" data-name="组 238" transform="translate(-3109.295 5549.822)">
      <path id="路径_788" data-name="路径 788" d="M348.44,81.128c-.008-.04-.032-.072-.04-.108a8.236,8.236,0,0,0-.667-1.614,3.971,3.971,0,0,0-.241-.357,9.118,9.118,0,0,0-.815-1.172c-.189-.213-.426-.385-.63-.582-.257-.237-.494-.5-.775-.711a9.519,9.519,0,0,0-1.184-.691c-.189-.1-.353-.225-.55-.313a10.222,10.222,0,0,0-2.024-.663l-11.925-2.59c-1.012-.221-2.148-.5-3.333-.8q-.259-.06-.518-.133-1.825-.47-3.774-1.024v.008c-4.617-1.309-9.544-2.891-13-4.228,0,0-18.659-7.2-24.838-3.987-22.052,11.452-61.45,53.435-61.45,53.435-4.072,4.324-9.8,15.486-10.48,18.217-1,3.635-33.34,27.166,22.323,101.62,16.567,22.9,26.731,31.12,39.075,36.1s35.376,2.038,43.021-25.993c12.6-88.685-43.021-93.526-43.021-93.526a14.406,14.406,0,0,1-2.618-16.756l13.7-24.312c2.911-5.176,10.126-8.822,16.013-8.107,0,0,24,2.923,34.736-4,10.8-6.97,12.64-11.592,12.64-11.592.032-.08.04-.157.064-.233h.008c.024-.072.032-.137.052-.209a10.8,10.8,0,0,0,.482-1.819V84.95A9.071,9.071,0,0,0,348.44,81.128Z" transform="translate(-179.659 -61.336)" fill="#fec29e"/>
      <g id="组_254" data-name="组 254" transform="translate(140.044 8.377)">
        <path id="路径_789" data-name="路径 789" d="M202.482,72.027c5.453,1.747,16.161,2.417,16.161,2.417s4.184,1.184-.482-5.786c-.032-.008-.056-.024-.092-.032l-11.925-2.59c-1.012-.221-2.148-.5-3.333-.8q-.259-.06-.518-.133-1.825-.47-3.774-1.024v.008c-.747-.209-1.506-.438-2.261-.663C197.145,66.482,199,70.906,202.482,72.027Z" transform="translate(-196.258 -63.422)" fill="#ffd7b6"/>
      </g>
    </g>
    <path id="路径_963" data-name="路径 963" d="M29,0A29,29,0,1,1,0,29,29,29,0,0,1,29,0Z" transform="translate(-2962.498 5464.768)" fill="url(#linear-gradient)"/>
    <path id="路径_964" data-name="路径 964" d="M26,0A26,26,0,1,1,0,26,26,26,0,0,1,26,0Z" transform="translate(-2959.498 5467.768)" fill="#fff"/>
    <path id="联合_15" data-name="联合 15" d="M.173,33.731A1.6,1.6,0,0,1,0,33.018a2.7,2.7,0,0,1,.079-.732A15.1,15.1,0,0,1,9.042,20.839a10.483,10.483,0,1,1,11.827,0,14.927,14.927,0,0,1,8.931,12.3h-.013a1.614,1.614,0,0,1-1.606,1.5H1.693c-.046,0-.093.014-.141.014A1.5,1.5,0,0,1,.173,33.731ZM3.431,31.4H26.474a11.963,11.963,0,0,0-10.879-8.756c-.213.013-.425.022-.641.022s-.428-.009-.639-.021A11.966,11.966,0,0,0,3.431,31.4ZM7.463,12.184a7.488,7.488,0,1,0,14.976,0h0a7.488,7.488,0,0,0-14.976,0ZM28.514,7.2V4.677H26V2.519h2.513V0h2.155V2.519h2.514v2.16H30.668V7.2Z" transform="translate(-2948.593 5475.465)" fill="url(#linear-gradient)"/>
  </g>
</svg>
