<svg xmlns="http://www.w3.org/2000/svg" width="68" height="68" viewBox="0 0 68 68">
  <g id="img_addfollower" transform="translate(-507 -4221)">
    <path id="circle" d="M34,0A34,34,0,1,1,0,34,34,34,0,0,1,34,0Z" transform="translate(507 4221)" fill="#66f"/>
    <path id="icon_person_add" d="M25.417,17.953a6.976,6.976,0,1,0-6.976-6.976A6.974,6.974,0,0,0,25.417,17.953ZM9.72,14.465V9.232H6.232v5.232H1v3.488H6.232v5.232H9.72V17.953h5.232V14.465Zm15.7,6.976c-4.657,0-13.953,2.337-13.953,6.976v3.488H39.37V28.417C39.37,23.778,30.074,21.441,25.417,21.441Z" transform="translate(518.881 4236.742)" fill="#fff"/>
  </g>
</svg>
