<svg xmlns="http://www.w3.org/2000/svg" width="331" height="98" viewBox="0 0 331 98">
  <g id="img_feature_free_tip" transform="translate(-456 -5605)">
    <path id="bg" d="M49,0H282a49,49,0,0,1,0,98H49A49,49,0,0,1,49,0Z" transform="translate(456 5605)" fill="#ff872c"/>
    <path id="text" d="M15.272-33.3a2.34,2.34,0,0,0,.138-1.84,4.552,4.552,0,0,0-1.564-1.472A19,19,0,0,0,11.2-38.157a15.762,15.762,0,0,0-2.691-.989,7.32,7.32,0,0,0-1.2-.23,2.106,2.106,0,0,0-.9.092,2.108,2.108,0,0,0-.736.46,9.814,9.814,0,0,0-.8.874q-.92,1.242-1.978,2.921a34.281,34.281,0,0,0-1.84,3.289A3.774,3.774,0,0,0,.69-30.613a1.164,1.164,0,0,0,.207.805,2.575,2.575,0,0,0,.851.713q.6.345,1.518.805-.69,3.082-1.357,6.647T.713-14.7Q.184-11.316-.161-8.441T-.6-3.864A4.31,4.31,0,0,0-.414-1.978a2.517,2.517,0,0,0,1.15,1.2A9.972,9.972,0,0,0,2.921.023Q4,.276,5.106.552A2.4,2.4,0,0,0,6.693.644,1.667,1.667,0,0,0,7.314-.368q.368-2.024.9-4.646t1.2-5.566q.667-2.944,1.426-6.049t1.518-6.095q.759-2.99,1.518-5.7T15.272-33.3Zm27-2.852a13.091,13.091,0,0,0-3.841-2,28.789,28.789,0,0,0-4.945-1.219,10.007,10.007,0,0,0-4.163.253,10.526,10.526,0,0,0-3.887,1.863,21.84,21.84,0,0,0-4.209,4.531A28.156,28.156,0,0,0,18.285-27.3a30.763,30.763,0,0,0-1.748,5.911,34.937,34.937,0,0,0-.621,5.957,27.605,27.605,0,0,0,.46,5.589A20.852,20.852,0,0,0,17.848-5.06,8.4,8.4,0,0,0,19.8-2.76,13.216,13.216,0,0,0,22.08-1.2,17.016,17.016,0,0,0,25.53,0a24.359,24.359,0,0,0,3.45.552,15.848,15.848,0,0,0,4.6-.184A8.953,8.953,0,0,0,37.444-1.61a20.192,20.192,0,0,0,4.531-5.727A34.017,34.017,0,0,0,44.9-14.628a40.083,40.083,0,0,0,1.334-7.8A32.831,32.831,0,0,0,46-29.67a13.424,13.424,0,0,0-1.15-3.45A9.59,9.59,0,0,0,42.274-36.156ZM35.1-31.464q.92.276,1.288,1.886a15.359,15.359,0,0,1,.276,3.956,38.825,38.825,0,0,1-.391,4.715,45.715,45.715,0,0,1-.9,4.623A28.262,28.262,0,0,1,33.856-11.5,20.641,20.641,0,0,1,31.9-7.843a7.812,7.812,0,0,1-2.116,2.185,2.464,2.464,0,0,1-2.047.414A2.7,2.7,0,0,1,26.151-6.9a10.428,10.428,0,0,1-.736-3.243,21.864,21.864,0,0,1,.092-4.209,32.3,32.3,0,0,1,.851-4.6,30.67,30.67,0,0,1,1.725-4.761A28.045,28.045,0,0,1,30.406-27.9a13.324,13.324,0,0,1,2.484-2.829A2.485,2.485,0,0,1,35.1-31.464Zm38.686-4.692a13.091,13.091,0,0,0-3.841-2A28.79,28.79,0,0,0,65-39.376a10.007,10.007,0,0,0-4.163.253,10.526,10.526,0,0,0-3.887,1.863,21.84,21.84,0,0,0-4.209,4.531A28.156,28.156,0,0,0,49.8-27.3a30.763,30.763,0,0,0-1.748,5.911,34.936,34.936,0,0,0-.621,5.957,27.605,27.605,0,0,0,.46,5.589A20.852,20.852,0,0,0,49.358-5.06a8.4,8.4,0,0,0,1.955,2.3A13.216,13.216,0,0,0,53.59-1.2,17.016,17.016,0,0,0,57.04,0a24.358,24.358,0,0,0,3.45.552,15.848,15.848,0,0,0,4.6-.184A8.953,8.953,0,0,0,68.954-1.61a20.192,20.192,0,0,0,4.531-5.727,34.017,34.017,0,0,0,2.921-7.291,40.083,40.083,0,0,0,1.334-7.8,32.831,32.831,0,0,0-.23-7.245,13.424,13.424,0,0,0-1.15-3.45A9.59,9.59,0,0,0,73.784-36.156Zm-7.176,4.692q.92.276,1.288,1.886a15.359,15.359,0,0,1,.276,3.956,38.824,38.824,0,0,1-.391,4.715,45.713,45.713,0,0,1-.9,4.623A28.262,28.262,0,0,1,65.366-11.5a20.641,20.641,0,0,1-1.955,3.657A7.812,7.812,0,0,1,61.3-5.658a2.464,2.464,0,0,1-2.047.414A2.7,2.7,0,0,1,57.661-6.9a10.428,10.428,0,0,1-.736-3.243,21.864,21.864,0,0,1,.092-4.209,32.3,32.3,0,0,1,.851-4.6,30.669,30.669,0,0,1,1.725-4.761A28.045,28.045,0,0,1,61.916-27.9,13.324,13.324,0,0,1,64.4-30.728,2.485,2.485,0,0,1,66.608-31.464Zm47.472.552a4.15,4.15,0,0,0,1.265-3.289,6.283,6.283,0,0,0-1.495-3.2q-1.334-1.84-2.714-.23a16.267,16.267,0,0,1-2.829,2.415,19.762,19.762,0,0,1-3.059,1.7,13.906,13.906,0,0,1-2.944.943,9.361,9.361,0,0,1-2.53.184A5.451,5.451,0,0,1,95.68-34.5q-1.2-1.61-1.932-2.438a10.058,10.058,0,0,0-1.978-1.173,12.836,12.836,0,0,0-2.622-.851,5.151,5.151,0,0,0-2.093.069,5.272,5.272,0,0,0-2,.851,12.22,12.22,0,0,0-3.013,3.565,16.223,16.223,0,0,0-1.748,4.485,14.81,14.81,0,0,0-.322,4.623A9.335,9.335,0,0,0,81.19-21.39a9.833,9.833,0,0,0,1.2,1.495,8.515,8.515,0,0,0,1.38,1.173,8.394,8.394,0,0,0,1.932.8q1.058.3,2.024.529a6.943,6.943,0,0,0,4.922-1.15,7.335,7.335,0,0,0,1.863-2.07,13.247,13.247,0,0,0,1.242-2.668,15.77,15.77,0,0,0,.69-2.967,22.622,22.622,0,0,0,.207-3.013,9.44,9.44,0,0,0,3.979.437,10.482,10.482,0,0,0,3.933-1.219q-2.668,3.174-5.474,6.739t-5.359,6.9q-2.553,3.335-4.623,6.21T85.836-5.52a3.55,3.55,0,0,0-.667,2.99A5.063,5.063,0,0,0,86.94-.368a4.086,4.086,0,0,0,1.173.529Q88.5.23,89.1-.368q1.058-1.564,2.875-3.956T96.025-9.5q2.231-2.783,4.738-5.819t4.922-5.888q2.415-2.852,4.6-5.382T114.08-30.912Zm1.886,17.526a4.867,4.867,0,0,0-.552-1.794,5.416,5.416,0,0,0-1.334-1.61,8,8,0,0,0-1.771-.989,14.168,14.168,0,0,0-2.277-.759,6.383,6.383,0,0,0-2.07.069,5.7,5.7,0,0,0-1.978.713,11.014,11.014,0,0,0-2.714,2.484,14.171,14.171,0,0,0-1.863,3.128,15.007,15.007,0,0,0-1.012,3.381A10.577,10.577,0,0,0,100.3-5.52a7.578,7.578,0,0,0,.9,2.737A4.691,4.691,0,0,0,103.086-.92a6.92,6.92,0,0,0,1.725.713,15.75,15.75,0,0,0,1.955.391,6.383,6.383,0,0,0,4.6-.92A8.255,8.255,0,0,0,113.3-2.53a11.965,11.965,0,0,0,1.4-2.277,13.417,13.417,0,0,0,.9-2.53,15.557,15.557,0,0,0,.414-2.645,14,14,0,0,0,.069-1.771Q116.058-12.6,115.966-13.386ZM90.114-34.5a1.168,1.168,0,0,1,.667.966,9.225,9.225,0,0,1,.161,1.84,15.745,15.745,0,0,1-.092,2.346q-.138,1.288-.368,2.622a12.487,12.487,0,0,1-1.656,4.554q-1.012,1.426-1.978,1.058-.966-.322-1.1-2.392a18.74,18.74,0,0,1,.506-5.06,15.481,15.481,0,0,1,.759-2.185,13.872,13.872,0,0,1,1.058-2.024,7.108,7.108,0,0,1,1.127-1.4Q89.746-34.684,90.114-34.5Zm20.378,19.826q.322.138.46.828a6.424,6.424,0,0,1,.069,1.679,15.407,15.407,0,0,1-.322,2.162,13,13,0,0,1-.667,2.185,12.13,12.13,0,0,1-1.955,3.91q-1.081,1.288-1.909.966-.966-.322-.874-2.07a11.817,11.817,0,0,1,.3-2.07,16.955,16.955,0,0,1,.759-2.392,12.6,12.6,0,0,1,.851-1.955,11.755,11.755,0,0,1,1.15-1.771,6.964,6.964,0,0,1,1.2-1.219Q110.124-14.858,110.492-14.674ZM163.3-31.832a2.889,2.889,0,0,0,1.7-.575,2.166,2.166,0,0,0,.138-1.587,9.618,9.618,0,0,0-1.426-4.048,7.223,7.223,0,0,0-.782-1.035,2.954,2.954,0,0,0-.759-.6,2.655,2.655,0,0,0-.874-.276,8.467,8.467,0,0,0-1.173-.069q-2.76.092-5.589.322t-5.543.575q-2.714.345-5.175.782t-4.439.989a43.4,43.4,0,0,1-.046,5.244q-.184,2.99-.575,6.279t-.9,6.647q-.506,3.358-.966,6.325t-.805,5.336a36.265,36.265,0,0,0-.391,3.657,5.72,5.72,0,0,0,.23,1.84,2.5,2.5,0,0,0,1.38,1.2q.874.368,2.047.782a12.28,12.28,0,0,0,2.231.575,5,5,0,0,0,1.794,0,.951.951,0,0,0,.782-.989q.552-2.484,1.219-5.681t1.541-6.739q2.622-.552,5.29-1.058t5.29-.92a2.6,2.6,0,0,0,1.587-.529q.345-.391-.023-1.449-.23-.92-.529-1.817a9.194,9.194,0,0,0-.851-1.817,3.334,3.334,0,0,0-3.266-1.426q-1.426.046-2.783.161t-2.691.253q.782-2.484,1.265-4.738a36.507,36.507,0,0,1,1.127-4.14q3.266-.46,6.233-.782T163.3-31.832Zm9.568,21.068a35.693,35.693,0,0,0,2.668,2.921q1.472,1.449,2.944,2.783t2.852,2.438q1.38,1.1,2.438,1.84A7,7,0,0,0,186.6.3,6.22,6.22,0,0,0,188.83.138q.828-.138,1.4-.253a3.652,3.652,0,0,0,1.4-.759,1.781,1.781,0,0,0,.782-.966q.092-.46-.828-1.242-1.15-.92-2.461-2.162T186.484-7.82q-1.334-1.334-2.6-2.668t-2.323-2.53a50.035,50.035,0,0,0,8.855-4.968,16.674,16.674,0,0,0,5.313-5.842,7.537,7.537,0,0,0,.46-5.06,16.141,16.141,0,0,0-2.047-4.9,28.909,28.909,0,0,0-2.921-3.749,8.583,8.583,0,0,0-4.715-2.415,17.044,17.044,0,0,0-5.7.092,30.832,30.832,0,0,0-6.118,1.771q-3.105,1.242-5.957,2.53a3.242,3.242,0,0,0-1.15,1.633,20.569,20.569,0,0,0-1.012,3.312q-.46,2-.874,4.508t-.759,5.175q-.345,2.668-.644,5.336T163.76-10.6q-.23,2.323-.391,4.163t-.253,2.806a3.954,3.954,0,0,0,.23,1.909,2.76,2.76,0,0,0,1.2,1.219,6.568,6.568,0,0,0,1.84.644q.966.184,2.208.506a2.225,2.225,0,0,0,1.449,0,1.63,1.63,0,0,0,.621-.966q.506-2.484,1.035-5.06T172.868-10.764ZM177.79-29.44a14.179,14.179,0,0,1,3.4-1.2,15.113,15.113,0,0,1,2.944-.322q2.714,0,3.266,1.288a2.972,2.972,0,0,1-.46,2.208,11.907,11.907,0,0,1-2.392,3.013,25.5,25.5,0,0,1-4.117,3.128,26.176,26.176,0,0,1-5.635,2.6q.874-3.036,1.564-5.7T177.79-29.44Zm22.08-7.268L195.5-6.118A4.01,4.01,0,0,0,195.845-4a4.64,4.64,0,0,0,1.219,1.518q.966.828,1.679,1.357t1.495,1.035a5.484,5.484,0,0,0,1.633.713,5.953,5.953,0,0,0,2.783-.207q2.76-.506,5.8-1.1t5.98-1.15q1.242-.23,1.472-.575a1.713,1.713,0,0,0,0-1.265q-.368-.828-.667-1.633a10.5,10.5,0,0,0-.851-1.725,2.526,2.526,0,0,0-1.219-1.1,4.785,4.785,0,0,0-2-.184q-2.3.138-4.255.368t-4.117.6q.368-1.288.69-2.6t.69-2.783q2.668-.552,5.543-1.012t5.635-.966a3.061,3.061,0,0,0,1.587-.644q.3-.368-.069-1.426-.23-.92-.529-1.817a9.194,9.194,0,0,0-.851-1.817,2.447,2.447,0,0,0-1.242-1.2,5.391,5.391,0,0,0-2.024-.23q-1.564.046-2.944.138t-2.76.276q.736-2.438,1.334-4.669t1.288-4.3q3.266-.46,6.21-.782t5.7-.644a2.941,2.941,0,0,0,1.7-.6,2.048,2.048,0,0,0,.184-1.61q-.23-1.058-.46-1.955a8.968,8.968,0,0,0-.828-2q-.736-2.07-3.358-2.024-2.76.092-5.543.437t-5.428.8q-2.645.46-5.06,1.012T199.87-36.708Zm26.542,0-4.37,30.59A4.01,4.01,0,0,0,222.387-4a4.64,4.64,0,0,0,1.219,1.518q.966.828,1.679,1.357T226.78-.092a5.484,5.484,0,0,0,1.633.713A5.953,5.953,0,0,0,231.2.414q2.76-.506,5.8-1.1t5.98-1.15q1.242-.23,1.472-.575a1.713,1.713,0,0,0,0-1.265q-.368-.828-.667-1.633a10.5,10.5,0,0,0-.851-1.725,2.526,2.526,0,0,0-1.219-1.1,4.785,4.785,0,0,0-2-.184q-2.3.138-4.255.368t-4.117.6q.368-1.288.69-2.6t.69-2.783q2.668-.552,5.543-1.012t5.635-.966a3.061,3.061,0,0,0,1.587-.644q.3-.368-.069-1.426-.23-.92-.529-1.817a9.194,9.194,0,0,0-.851-1.817,2.447,2.447,0,0,0-1.242-1.2,5.391,5.391,0,0,0-2.024-.23q-1.564.046-2.944.138t-2.76.276q.736-2.438,1.334-4.669t1.288-4.3q3.266-.46,6.21-.782t5.7-.644a2.941,2.941,0,0,0,1.7-.6,2.048,2.048,0,0,0,.184-1.61q-.23-1.058-.46-1.955a8.968,8.968,0,0,0-.828-2q-.736-2.07-3.358-2.024-2.76.092-5.543.437t-5.428.8q-2.645.46-5.06,1.012T226.412-36.708Z" transform="translate(503.714 5673.548)" fill="#fff"/>
  </g>
</svg>
