<svg xmlns="http://www.w3.org/2000/svg" xmlns:xlink="http://www.w3.org/1999/xlink" width="436.475" height="189.31" viewBox="0 0 436.475 189.31"><defs><linearGradient id="a" x1="0.324" y1="0.012" x2="0.806" y2="1.346" gradientUnits="objectBoundingBox"><stop offset="0.013" stop-color="#fff"/><stop offset="0.99" stop-color="#fff" stop-opacity="0"/></linearGradient><linearGradient id="b" x1="0.015" y1="-0.842" x2="1.341" y2="2.826" xlink:href="#a"/><linearGradient id="c" x1="0.105" y1="0.777" x2="0.856" y2="0.251" xlink:href="#a"/><linearGradient id="d" x1="0.038" y1="0.823" x2="0.917" y2="0.208" xlink:href="#a"/><linearGradient id="e" x1="-0.056" y1="0.889" x2="1.002" y2="0.149" xlink:href="#a"/><linearGradient id="f" x1="-0.199" y1="0.989" x2="1.13" y2="0.059" xlink:href="#a"/><linearGradient id="g" x1="-0.439" y1="1.158" x2="1.347" y2="-0.093" xlink:href="#a"/><linearGradient id="h" x1="-0.933" y1="1.503" x2="1.792" y2="-0.404" xlink:href="#a"/><linearGradient id="i" x1="0.761" y1="0.239" x2="0.325" y2="0.675" xlink:href="#a"/><linearGradient id="j" x1="0.805" y1="0.195" x2="0.296" y2="0.704" xlink:href="#a"/><linearGradient id="k" x1="0.867" y1="0.133" x2="0.254" y2="0.746" xlink:href="#a"/><linearGradient id="l" x1="0.961" y1="0.039" x2="0.191" y2="0.809" xlink:href="#a"/><linearGradient id="m" x1="1.12" y1="-0.12" x2="0.085" y2="0.915" xlink:href="#a"/><linearGradient id="n" x1="1.446" y1="-0.446" x2="-0.133" y2="1.133" xlink:href="#a"/><linearGradient id="o" x1="0.5" x2="0.5" y2="1" gradientUnits="objectBoundingBox"><stop offset="0" stop-color="#f6e6a4"/><stop offset="1" stop-color="#fff"/></linearGradient><filter id="p" x="175.622" y="63.059" width="41.805" height="42.306" filterUnits="userSpaceOnUse"><feOffset dy="5" input="SourceAlpha"/><feGaussianBlur stdDeviation="1.5" result="q"/><feFlood flood-opacity="0.161"/><feComposite operator="in" in2="q"/><feComposite in="SourceGraphic"/></filter></defs><g transform="translate(-740.679 -101.001)"><g transform="translate(742.699 24.691)"><g transform="translate(165.832 77.016)" opacity="0.35" style="mix-blend-mode:overlay;isolation:isolate"><g transform="translate(0 0)"><path d="M285.421,99.661A11.776,11.776,0,1,1,297.2,87.885,11.79,11.79,0,0,1,285.421,99.661Zm0-20.555a8.779,8.779,0,1,0,8.779,8.779A8.789,8.789,0,0,0,285.421,79.107Z" transform="translate(-273.645 -76.109)" fill="url(#a)"/></g><circle cx="4.282" cy="4.282" r="4.282" transform="translate(5.72 11.776) rotate(-45)" fill="url(#b)"/></g><g transform="translate(75.272 120.485)" opacity="0.15" style="mix-blend-mode:overlay;isolation:isolate"><g transform="translate(0 0)"><path d="M94.557,182.687a8.313,8.313,0,1,1,8.313-8.312A8.322,8.322,0,0,1,94.557,182.687Zm0-14.509a6.2,6.2,0,1,0,6.2,6.2A6.2,6.2,0,0,0,94.557,168.178Z" transform="translate(-86.245 -166.062)" fill="#fff"/></g><circle cx="3.023" cy="3.023" r="3.023" transform="translate(5.29 5.29)" fill="#fff"/></g><g transform="translate(90.198 76.309)"><path d="M187.112,92.768a1.008,1.008,0,0,0-.95,1.063l1.023,18.28.99-18.282a1.046,1.046,0,0,0,0-.111A1.008,1.008,0,0,0,187.112,92.768Z" transform="translate(-163.15 -92.767)" fill="#ff8e8e"/><path d="M186.249,170.51a1.008,1.008,0,1,0,2.013.109,1.045,1.045,0,0,0,0-.111l-1.023-18.28Z" transform="translate(-163.195 -123.494)" fill="#ff8e8e"/><path d="M139.607,140.471a1.054,1.054,0,0,0-.111,0,1.008,1.008,0,1,0,.113,2.013l18.28-1.023Z" transform="translate(-138.545 -117.418)" fill="#ff8e8e"/><path d="M216.4,140.384a1.062,1.062,0,0,0-.111,0l-18.28,1.023,18.282.99a1.008,1.008,0,0,0,.109-2.013Z" transform="translate(-169.272 -117.373)" fill="#ff8e8e"/><path d="M152.87,161.616a1,1,0,0,0-.078.078,1.008,1.008,0,1,0,1.5,1.343l12.2-13.649Z" transform="translate(-145.774 -122.026)" fill="#ff8e8e"/><path d="M208.781,108.453a1.008,1.008,0,1,0-1.346-1.5,1.082,1.082,0,0,0-.078.078l-12.2,13.649Z" transform="translate(-167.798 -99.964)" fill="#ff8e8e"/><path d="M195.167,149.376,207.394,163a1.008,1.008,0,1,0,1.422-1.424Z" transform="translate(-167.804 -122.02)" fill="#ff8e8e"/><path d="M152.81,108.516l13.649,12.2-12.227-13.627a1.008,1.008,0,1,0-1.5,1.346A1.082,1.082,0,0,0,152.81,108.516Z" transform="translate(-145.742 -99.996)" fill="#ff8e8e"/><path d="M161.08,130.895a.607.607,0,1,0-.377,1.154l10.48,3.421-10.041-4.55A.531.531,0,0,0,161.08,130.895Z" transform="translate(-149.779 -112.454)" fill="#ff8e8e"/><path d="M204.587,148.879a.607.607,0,0,0-.3-.8.658.658,0,0,0-.062-.024l-10.48-3.421,10.041,4.551A.607.607,0,0,0,204.587,148.879Z" transform="translate(-167.069 -119.567)" fill="#ff8e8e"/><path d="M176.673,158.068a.607.607,0,1,0,1.154.377l3.421-10.48-4.55,10.041A.525.525,0,0,0,176.673,158.068Z" transform="translate(-158.232 -121.291)" fill="#ff8e8e"/><path d="M194.657,114.561a.607.607,0,0,0-.8.3.631.631,0,0,0-.024.062l-3.421,10.48,4.551-10.041A.607.607,0,0,0,194.657,114.561Z" transform="translate(-165.345 -104.001)" fill="#ff8e8e"/><path d="M190.648,147.866l3.882,10.317a.627.627,0,0,0,.027.061.607.607,0,0,0,1.082-.549Z" transform="translate(-165.469 -121.239)" fill="#ff8e8e"/><path d="M175.533,115.875l4.991,9.829-3.882-10.317a.607.607,0,0,0-1.136.427A.623.623,0,0,0,175.533,115.875Z" transform="translate(-157.625 -104.253)" fill="#ff8e8e"/><path d="M203.473,129.756l-9.829,4.991,10.317-3.882a.58.58,0,0,0,.061-.027.607.607,0,1,0-.549-1.082Z" transform="translate(-167.017 -111.847)" fill="#ff8e8e"/><path d="M160.81,149.534a.607.607,0,0,0,.782.354.64.64,0,0,0,.061-.027l9.829-4.991-10.317,3.882A.607.607,0,0,0,160.81,149.534Z" transform="translate(-150.03 -119.691)" fill="#ff8e8e"/></g><g transform="translate(132.349 156.599)" opacity="0.43" style="mix-blend-mode:overlay;isolation:isolate"><g transform="translate(0 0)"><path d="M220.871,298.734a31,31,0,1,1-31,31A31.034,31.034,0,0,1,220.871,298.734Zm0,60.239a29.239,29.239,0,1,0-29.239-29.239A29.272,29.272,0,0,0,220.871,358.973Z" transform="translate(-189.872 -298.734)" fill="url(#c)"/></g><g transform="translate(4.491 4.491)"><path d="M225.673,308.027a26.509,26.509,0,1,1-26.509,26.509A26.539,26.539,0,0,1,225.673,308.027Zm0,51.257a24.748,24.748,0,1,0-24.748-24.748A24.776,24.776,0,0,0,225.673,359.284Z" transform="translate(-199.165 -308.027)" fill="url(#d)"/></g><g transform="translate(8.981 8.982)"><path d="M230.475,317.32a22.018,22.018,0,1,1-22.018,22.018A22.043,22.043,0,0,1,230.475,317.32Zm0,42.275a20.257,20.257,0,1,0-20.258-20.257A20.28,20.28,0,0,0,230.475,359.6Z" transform="translate(-208.457 -317.32)" fill="url(#e)"/></g><g transform="translate(13.471 13.472)"><path d="M235.277,326.612a17.528,17.528,0,1,1-17.528,17.528A17.547,17.547,0,0,1,235.277,326.612Zm0,33.3a15.768,15.768,0,1,0-15.767-15.767A15.785,15.785,0,0,0,235.277,359.907Z" transform="translate(-217.749 -326.612)" fill="url(#f)"/></g><g transform="translate(17.962 17.962)"><path d="M240.079,335.9a13.037,13.037,0,1,1-13.038,13.037A13.052,13.052,0,0,1,240.079,335.9Zm0,24.314A11.277,11.277,0,1,0,228.8,348.941,11.29,11.29,0,0,0,240.079,360.218Z" transform="translate(-227.041 -335.904)" fill="url(#g)"/></g><g transform="translate(22.452 22.453)"><path d="M244.88,345.2a8.547,8.547,0,1,1-8.547,8.547A8.557,8.557,0,0,1,244.88,345.2Zm0,15.333a6.786,6.786,0,1,0-6.787-6.786A6.794,6.794,0,0,0,244.88,360.529Z" transform="translate(-236.333 -345.196)" fill="url(#h)"/></g></g><path d="M233.5,83.8h-3.05v-3.05h-1.893V83.8h-3.05v1.893h3.05v3.05h1.893v-3.05h3.05Z" transform="translate(-162.295 30.839)" fill="#fff" style="mix-blend-mode:overlay;isolation:isolate"/><g transform="translate(236.118 228.849)" opacity="0.35" style="mix-blend-mode:overlay;isolation:isolate"><path d="M430.866,390.3a11.776,11.776,0,1,1-11.776,11.776A11.79,11.79,0,0,1,430.866,390.3Zm0,20.555a8.779,8.779,0,1,0-8.779-8.779A8.788,8.788,0,0,0,430.866,410.858Z" transform="translate(-419.09 -390.303)" fill="#fff"/><circle cx="4.282" cy="4.282" r="4.282" transform="translate(5.72 11.776) rotate(-45)" fill="#fff"/></g><g transform="translate(304.388 132.662)" opacity="0.35" style="mix-blend-mode:overlay;isolation:isolate"><path d="M572.139,191.26a11.776,11.776,0,1,1-11.776,11.776A11.79,11.79,0,0,1,572.139,191.26Zm0,20.555a8.779,8.779,0,1,0-8.779-8.779A8.788,8.788,0,0,0,572.139,211.815Z" transform="translate(-560.363 -191.26)" fill="#fff"/><circle cx="4.282" cy="4.282" r="4.282" transform="translate(5.72 11.776) rotate(-45)" fill="#fff"/></g><g transform="translate(324.649 191.45)" opacity="0.15" style="mix-blend-mode:overlay;isolation:isolate"><g transform="translate(0 0)"><path d="M610.6,312.912a8.313,8.313,0,1,1-8.313,8.312A8.322,8.322,0,0,1,610.6,312.912Zm0,14.509a6.2,6.2,0,1,0-6.2-6.2A6.2,6.2,0,0,0,610.6,327.421Z" transform="translate(-602.29 -312.912)" fill="#fff"/></g><path d="M619.282,326.882a3.023,3.023,0,1,1-3.023-3.023A3.023,3.023,0,0,1,619.282,326.882Z" transform="translate(-607.947 -318.569)" fill="#fff"/></g><g transform="translate(289.26 210.011)"><path d="M561.882,404.362a.678.678,0,0,0,.639-.715l-.688-12.3-.666,12.3a.689.689,0,0,0,0,.074A.678.678,0,0,0,561.882,404.362Z" transform="translate(-545.651 -372.002)" fill="#d645a3"/><path d="M562.463,352.036a.678.678,0,1,0-1.355-.073.689.689,0,0,0,0,.074l.689,12.3Z" transform="translate(-545.62 -351.321)" fill="#d645a3"/><path d="M581.385,384.725a.638.638,0,0,0,.075,0,.678.678,0,1,0-.076-1.355l-12.3.689Z" transform="translate(-549.74 -367.882)" fill="#d645a3"/><path d="M529.7,384.784a.639.639,0,0,0,.075,0l12.3-.689-12.3-.666a.678.678,0,0,0-.073,1.354Z" transform="translate(-529.059 -367.913)" fill="#d645a3"/><path d="M576.333,361.879a.543.543,0,0,0,.053-.053.678.678,0,0,0-1.011-.9l-8.213,9.186Z" transform="translate(-548.748 -356.165)" fill="#d645a3"/><path d="M538.7,397.662a.678.678,0,0,0,.906,1.01.661.661,0,0,0,.053-.053l8.213-9.187Z" transform="translate(-533.925 -371.015)" fill="#d645a3"/><path d="M547.846,370.135l-8.23-9.172a.7.7,0,0,0-.053-.053.678.678,0,0,0-.9,1.011Z" transform="translate(-533.903 -356.187)" fill="#d645a3"/><path d="M576.356,397.636l-9.187-8.213,8.23,9.172a.678.678,0,1,0,1.01-.906A.6.6,0,0,0,576.356,397.636Z" transform="translate(-548.752 -371.01)" fill="#d645a3"/><path d="M573.011,389.308a.408.408,0,1,0,.254-.777l-7.054-2.3,6.758,3.063Z" transform="translate(-548.257 -369.36)" fill="#d645a3"/><path d="M543.728,377.2a.409.409,0,0,0,.2.541.361.361,0,0,0,.042.016l7.053,2.3L544.268,377A.408.408,0,0,0,543.728,377.2Z" transform="translate(-536.62 -364.572)" fill="#d645a3"/><path d="M567.046,366.489a.408.408,0,0,0-.777-.253l-2.3,7.053,3.063-6.758A.428.428,0,0,0,567.046,366.489Z" transform="translate(-547.098 -358.883)" fill="#d645a3"/><path d="M554.941,395.773a.408.408,0,0,0,.54-.2c.006-.014.012-.028.016-.042l2.3-7.053-3.063,6.758A.408.408,0,0,0,554.941,395.773Z" transform="translate(-542.31 -370.52)" fill="#d645a3"/><path d="M557.314,373.49l-2.613-6.944c-.005-.014-.012-.028-.018-.041a.408.408,0,1,0-.728.37Z" transform="translate(-541.901 -359.052)" fill="#d645a3"/><path d="M567.487,395.023l-3.359-6.616,2.613,6.944a.408.408,0,1,0,.764-.288A.365.365,0,0,0,567.487,395.023Z" transform="translate(-547.181 -370.485)" fill="#d645a3"/><path d="M544.612,389.75l6.616-3.36L544.284,389a.311.311,0,0,0-.041.018.408.408,0,0,0,.37.728Z" transform="translate(-536.789 -369.443)" fill="#d645a3"/><path d="M573.327,376.437a.408.408,0,0,0-.526-.238l-.041.018-6.616,3.359,6.945-2.613A.408.408,0,0,0,573.327,376.437Z" transform="translate(-548.223 -364.163)" fill="#d645a3"/></g><g transform="translate(241.193 91.848)" opacity="0.32" style="mix-blend-mode:overlay;isolation:isolate"><path d="M447.268,140.086a32.162,32.162,0,1,1,32.163-32.163A32.2,32.2,0,0,1,447.268,140.086Zm0-62.5A30.336,30.336,0,1,0,477.6,107.923,30.37,30.37,0,0,0,447.268,77.588Z" transform="translate(-415.106 -75.761)" fill="url(#i)"/><g transform="translate(4.659 4.659)"><path d="M452.25,140.41a27.5,27.5,0,1,1,27.5-27.5A27.535,27.535,0,0,1,452.25,140.41Zm0-53.18a25.677,25.677,0,1,0,25.677,25.677A25.706,25.706,0,0,0,452.25,87.229Z" transform="translate(-424.747 -85.403)" fill="url(#j)"/></g><g transform="translate(9.318 9.318)"><path d="M457.232,140.733a22.844,22.844,0,1,1,22.845-22.845A22.87,22.87,0,0,1,457.232,140.733Zm0-43.862a21.018,21.018,0,1,0,21.018,21.017A21.041,21.041,0,0,0,457.232,96.871Z" transform="translate(-434.388 -95.044)" fill="url(#k)"/></g><g transform="translate(13.977 13.977)"><path d="M462.214,141.055A18.186,18.186,0,1,1,480.4,122.87,18.206,18.206,0,0,1,462.214,141.055Zm0-34.544a16.359,16.359,0,1,0,16.359,16.359A16.377,16.377,0,0,0,462.214,106.511Z" transform="translate(-444.029 -104.684)" fill="url(#l)"/></g><g transform="translate(18.636 18.636)"><path d="M467.2,141.379a13.526,13.526,0,1,1,13.527-13.527A13.542,13.542,0,0,1,467.2,141.379Zm0-25.226a11.7,11.7,0,1,0,11.7,11.7A11.713,11.713,0,0,0,467.2,116.152Z" transform="translate(-453.67 -114.326)" fill="url(#m)"/></g><g transform="translate(23.295 23.295)"><path d="M472.178,141.7a8.868,8.868,0,1,1,8.868-8.868A8.878,8.878,0,0,1,472.178,141.7Zm0-15.909a7.041,7.041,0,1,0,7.041,7.041A7.048,7.048,0,0,0,472.178,125.793Z" transform="translate(-463.311 -123.966)" fill="url(#n)"/></g></g><g transform="translate(333.183 79.755)" opacity="0.28"><g transform="translate(0 0)"><g transform="translate(15.373)"><path d="M544.6,120.9c.237.888.422,1.777.591,2.666s.31,1.777.44,2.666.254,1.777.32,2.666a11.532,11.532,0,0,1-.082,2.666,1.812,1.812,0,0,1-2.084,1.688,2.009,2.009,0,0,1-1.38-1.688,11.525,11.525,0,0,1-.082-2.666c.066-.889.2-1.777.32-2.666.13-.889.273-1.777.44-2.666s.354-1.777.591-2.666a.474.474,0,0,1,.613-.38A.557.557,0,0,1,544.6,120.9Z" transform="translate(-542.285 -98.844)" fill="#fff"/><path d="M543.676,88.09c-.237-.888-.422-1.777-.591-2.666s-.31-1.777-.44-2.666c-.115-.888-.254-1.777-.32-2.666a11.526,11.526,0,0,1,.082-2.666,1.812,1.812,0,0,1,2.084-1.688,2.008,2.008,0,0,1,1.38,1.688,11.533,11.533,0,0,1,.082,2.666c-.066.889-.2,1.777-.32,2.666s-.273,1.777-.44,2.666-.354,1.777-.591,2.666a.473.473,0,0,1-.613.38A.557.557,0,0,1,543.676,88.09Z" transform="translate(-542.285 -75.696)" fill="#fff"/></g><g transform="translate(0 15.373)"><path d="M555.679,108.9c.889-.237,1.777-.422,2.666-.592s1.777-.31,2.666-.44c.889-.115,1.777-.254,2.666-.32a11.51,11.51,0,0,1,2.666.082,1.811,1.811,0,0,1,1.687,2.084,2.006,2.006,0,0,1-1.687,1.38,11.509,11.509,0,0,1-2.666.082c-.888-.066-1.777-.2-2.666-.32-.888-.13-1.777-.273-2.666-.44s-1.777-.355-2.666-.592a.474.474,0,0,1-.38-.613A.558.558,0,0,1,555.679,108.9Z" transform="translate(-533.622 -107.507)" fill="#fff"/><path d="M522.868,109.822c-.889.237-1.777.422-2.666.592s-1.777.31-2.666.44c-.889.115-1.777.254-2.666.32a11.5,11.5,0,0,1-2.666-.082,1.811,1.811,0,0,1-1.688-2.084,2.006,2.006,0,0,1,1.688-1.38,11.5,11.5,0,0,1,2.666-.082c.888.066,1.777.2,2.666.32.889.13,1.777.273,2.666.44s1.777.355,2.666.592a.473.473,0,0,1,.38.613A.556.556,0,0,1,522.868,109.822Z" transform="translate(-510.474 -107.507)" fill="#fff"/></g><g transform="translate(6.604 6.604)"><path d="M551.421,96.835c.388-.67.806-1.309,1.234-1.938s.873-1.241,1.323-1.847.906-1.209,1.4-1.776a9.668,9.668,0,0,1,1.634-1.537,1.525,1.525,0,0,1,2.244.235,1.689,1.689,0,0,1-.184,1.825,9.7,9.7,0,0,1-1.537,1.634c-.568.49-1.179.935-1.776,1.4s-1.219.895-1.848,1.324-1.268.846-1.938,1.233a.4.4,0,0,1-.591-.138A.468.468,0,0,1,551.421,96.835Z" transform="translate(-538.2 -89.362)" fill="#fff"/><path d="M532.162,117.193c-.387.67-.806,1.308-1.234,1.937s-.873,1.241-1.324,1.847-.906,1.209-1.4,1.776a9.666,9.666,0,0,1-1.634,1.537,1.523,1.523,0,0,1-2.243-.235,1.688,1.688,0,0,1,.183-1.825,9.725,9.725,0,0,1,1.537-1.634c.568-.489,1.179-.935,1.776-1.4s1.22-.895,1.847-1.324,1.268-.846,1.938-1.233a.4.4,0,0,1,.591.138A.47.47,0,0,1,532.162,117.193Z" transform="translate(-524.14 -103.422)" fill="#fff"/></g><g transform="translate(6.604 6.604)"><path d="M531.612,97.384c-.67-.387-1.308-.806-1.938-1.233s-1.241-.873-1.847-1.324-1.208-.906-1.776-1.4a9.7,9.7,0,0,1-1.537-1.634,1.524,1.524,0,0,1,.235-2.244,1.689,1.689,0,0,1,1.825.183,9.668,9.668,0,0,1,1.634,1.537c.49.567.935,1.179,1.4,1.776s.895,1.219,1.324,1.847.847,1.268,1.234,1.938a.4.4,0,0,1-.138.591A.468.468,0,0,1,531.612,97.384Z" transform="translate(-524.139 -89.362)" fill="#fff"/><path d="M551.97,116.644c.67.387,1.308.806,1.938,1.233s1.241.873,1.848,1.324,1.208.906,1.776,1.4a9.721,9.721,0,0,1,1.537,1.634,1.524,1.524,0,0,1-.235,2.244,1.689,1.689,0,0,1-1.825-.183,9.668,9.668,0,0,1-1.634-1.537c-.49-.567-.936-1.179-1.4-1.776s-.895-1.219-1.324-1.847-.846-1.268-1.234-1.937a.4.4,0,0,1,.138-.591A.469.469,0,0,1,551.97,116.644Z" transform="translate(-538.2 -103.423)" fill="#fff"/></g></g><g transform="translate(2.619 2.833)"><g transform="translate(8.034)"><path d="M532.521,135.784a2.357,2.357,0,0,1,.2-1.05,4.8,4.8,0,0,1,.529-.917,8.5,8.5,0,0,1,.682-.855,5.916,5.916,0,0,1,.86-.782.175.175,0,0,1,.244.04.17.17,0,0,1,.03.072,5.892,5.892,0,0,1,.072,1.16,8.492,8.492,0,0,1-.105,1.088,4.768,4.768,0,0,1-.259,1.026,2.347,2.347,0,0,1-.586.894,1,1,0,0,1-1.669-.677Z" transform="translate(-532.517 -107.7)" fill="#fff"/><path d="M554.844,81.817a2.35,2.35,0,0,0-.586.894A4.778,4.778,0,0,0,554,83.737a8.5,8.5,0,0,0-.105,1.089,5.873,5.873,0,0,0,.072,1.16.175.175,0,0,0,.274.111,5.9,5.9,0,0,0,.86-.782,8.47,8.47,0,0,0,.682-.855,4.8,4.8,0,0,0,.529-.917,2.356,2.356,0,0,0,.2-1.05,1,1,0,0,0-1.669-.677Z" transform="translate(-543.563 -81.557)" fill="#fff"/></g><g transform="translate(0 8.034)"><path d="M570.119,122.177a2.354,2.354,0,0,1-1.049-.2,4.769,4.769,0,0,1-.917-.529,8.5,8.5,0,0,1-.854-.682,5.905,5.905,0,0,1-.783-.86.175.175,0,0,1,.04-.244.178.178,0,0,1,.072-.03,5.892,5.892,0,0,1,1.161-.072,8.4,8.4,0,0,1,1.088.106,4.774,4.774,0,0,1,1.026.259,2.363,2.363,0,0,1,.894.586,1,1,0,0,1-.677,1.669Z" transform="translate(-542.035 -109.227)" fill="#fff"/><path d="M516.153,99.854a2.357,2.357,0,0,0,.893.586,4.778,4.778,0,0,0,1.026.259,8.406,8.406,0,0,0,1.088.106,5.929,5.929,0,0,0,1.161-.072.175.175,0,0,0,.142-.2.182.182,0,0,0-.03-.072,5.9,5.9,0,0,0-.783-.86,8.51,8.51,0,0,0-.854-.682,4.768,4.768,0,0,0-.917-.529,2.353,2.353,0,0,0-1.049-.2,1,1,0,0,0-.677,1.669Z" transform="translate(-515.893 -98.181)" fill="#fff"/></g><g transform="translate(0.085 0.085)"><g transform="translate(7.745)"><path d="M555.239,136.318a2.351,2.351,0,0,1-.6-.885,4.794,4.794,0,0,1-.275-1.022,8.44,8.44,0,0,1-.122-1.087,5.9,5.9,0,0,1,.055-1.162.174.174,0,0,1,.2-.144.17.17,0,0,1,.072.029,5.879,5.879,0,0,1,.871.769,8.488,8.488,0,0,1,.7.844,4.794,4.794,0,0,1,.543.909,2.359,2.359,0,0,1,.218,1.046,1,1,0,0,1-1.658.7Z" transform="translate(-543.537 -107.717)" fill="#fff"/><path d="M532.1,82.685a2.362,2.362,0,0,0,.218,1.046,4.816,4.816,0,0,0,.543.909,8.463,8.463,0,0,0,.7.844,5.876,5.876,0,0,0,.871.769.175.175,0,0,0,.244-.044.169.169,0,0,0,.029-.072,5.882,5.882,0,0,0,.055-1.161,8.451,8.451,0,0,0-.122-1.087,4.8,4.8,0,0,0-.274-1.022,2.358,2.358,0,0,0-.6-.885,1,1,0,0,0-1.658.7Z" transform="translate(-532.095 -81.733)" fill="#fff"/></g><g transform="translate(0 7.744)"><path d="M570.654,99.419a2.357,2.357,0,0,1-.885.6,4.772,4.772,0,0,1-1.022.274,8.437,8.437,0,0,1-1.086.122,5.924,5.924,0,0,1-1.162-.055.175.175,0,0,1-.145-.2.18.18,0,0,1,.029-.072,5.935,5.935,0,0,1,.77-.872,8.415,8.415,0,0,1,.844-.695,4.743,4.743,0,0,1,.909-.543,2.356,2.356,0,0,1,1.046-.218,1,1,0,0,1,.7,1.659Z" transform="translate(-542.052 -97.759)" fill="#fff"/><path d="M517.021,122.561a2.356,2.356,0,0,0,1.046-.218,4.741,4.741,0,0,0,.909-.543,8.414,8.414,0,0,0,.844-.695,5.925,5.925,0,0,0,.77-.872.175.175,0,0,0-.044-.244.188.188,0,0,0-.072-.029,5.927,5.927,0,0,0-1.161-.055,8.434,8.434,0,0,0-1.087.122,4.774,4.774,0,0,0-1.023.274,2.357,2.357,0,0,0-.885.6,1,1,0,0,0,.7,1.658Z" transform="translate(-516.068 -109.201)" fill="#fff"/></g></g></g></g><path d="M338.594,454.8h3.05v3.05h1.893V454.8h3.05V452.9h-3.05v-3.05h-1.893v3.05h-3.05Z" transform="translate(-141.375 -192.226)" fill="#fff" style="mix-blend-mode:overlay;isolation:isolate"/><path d="M116.239,363.618h-3.191v-3.192h-1.981v3.192h-3.192V365.6h3.192v3.191h1.981V365.6h3.191Z" transform="translate(-22.151 -146.015)" fill="#f5c459"/><path d="M639.473,171.852h-3.191V168.66H634.3v3.192h-3.192v1.981H634.3v3.191h1.981v-3.191h3.191Z" transform="translate(-292.533 -46.919)" fill="#d645a3"/><g transform="translate(390.318 165.557)"><path d="M672.066,217.945a.925.925,0,0,0-.872.976l.94,16.781.908-16.783c0-.033,0-.068,0-.1A.925.925,0,0,0,672.066,217.945Z" transform="translate(-650.068 -217.944)" fill="#f5c459"/><path d="M671.274,289.313a.925.925,0,1,0,1.848.1c0-.034,0-.068,0-.1l-.939-16.781Z" transform="translate(-650.11 -246.151)" fill="#f5c459"/><path d="M628.455,261.738a1,1,0,0,0-.1,0,.925.925,0,1,0,.1,1.847l16.781-.939Z" transform="translate(-627.48 -240.574)" fill="#f5c459"/><path d="M698.95,261.657a.9.9,0,0,0-.1,0l-16.781.939,16.783.908a.925.925,0,1,0,.1-1.847Z" transform="translate(-655.688 -240.532)" fill="#f5c459"/><path d="M640.631,281.149a.925.925,0,1,0,1.308,1.3l11.2-12.53Z" transform="translate(-634.117 -244.805)" fill="#f5c459"/><path d="M691.958,232.344a.925.925,0,0,0-1.236-1.377,1,1,0,0,0-.072.072l-11.2,12.53Z" transform="translate(-654.335 -224.551)" fill="#f5c459"/><path d="M679.46,269.912l11.225,12.51a.915.915,0,0,0,.072.072.925.925,0,0,0,1.233-1.379Z" transform="translate(-654.341 -244.799)" fill="#f5c459"/><path d="M640.575,232.4l12.53,11.2L641.88,231.095a.925.925,0,0,0-1.377,1.236A.956.956,0,0,0,640.575,232.4Z" transform="translate(-634.087 -224.581)" fill="#f5c459"/><path d="M648.168,252.946a.557.557,0,1,0-.346,1.059l9.62,3.141-9.217-4.178C648.207,252.96,648.188,252.952,648.168,252.946Z" transform="translate(-637.793 -236.017)" fill="#f5c459"/><path d="M688.108,269.456a.557.557,0,0,0-.277-.737c-.019-.008-.038-.015-.057-.022l-9.62-3.141,9.217,4.177A.557.557,0,0,0,688.108,269.456Z" transform="translate(-653.665 -242.548)" fill="#f5c459"/><path d="M662.482,277.892a.557.557,0,0,0,1.059.346l3.141-9.621-4.178,9.217C662.5,277.853,662.488,277.872,662.482,277.892Z" transform="translate(-645.553 -244.129)" fill="#f5c459"/><path d="M678.992,237.952a.557.557,0,0,0-.737.277c-.008.019-.016.038-.022.057l-3.141,9.621,4.177-9.217A.557.557,0,0,0,678.992,237.952Z" transform="translate(-652.084 -228.257)" fill="#f5c459"/><path d="M675.312,268.526,678.875,278c.007.019.016.038.025.056a.557.557,0,0,0,.994-.5Z" transform="translate(-652.197 -244.082)" fill="#f5c459"/><path d="M661.436,239.158l4.582,9.024-3.564-9.472a.557.557,0,0,0-1.043.392A.525.525,0,0,0,661.436,239.158Z" transform="translate(-644.996 -228.488)" fill="#f5c459"/><path d="M687.085,251.9l-9.023,4.582,9.472-3.564a.517.517,0,0,0,.056-.024.557.557,0,0,0-.5-.994Z" transform="translate(-653.618 -235.46)" fill="#f5c459"/><path d="M647.921,270.057a.557.557,0,0,0,.718.325.568.568,0,0,0,.056-.025l9.023-4.582-9.472,3.563A.557.557,0,0,0,647.921,270.057Z" transform="translate(-638.024 -242.661)" fill="#f5c459"/><g transform="translate(4.27 3.234)"><path d="M655.9,225.768a1.132,1.132,0,1,1,1.132,1.132A1.132,1.132,0,0,1,655.9,225.768Z" transform="translate(-646.434 -224.636)" fill="#f5c459"/><path d="M684.012,226.94a1.132,1.132,0,1,1,1.132,1.132A1.132,1.132,0,0,1,684.012,226.94Z" transform="translate(-660.963 -225.242)" fill="#f5c459"/><circle cx="1.132" cy="1.132" r="1.132" transform="translate(23.898 34.169)" fill="#f5c459"/><circle cx="1.132" cy="1.132" r="1.132" transform="translate(33.118 23.817)" fill="#f5c459"/><circle cx="1.132" cy="1.132" r="1.132" transform="translate(0.243 11.241)" fill="#f5c459"/><path d="M705.1,247.524a1.132,1.132,0,1,1,1.132,1.132A1.132,1.132,0,0,1,705.1,247.524Z" transform="translate(-671.859 -235.878)" fill="#f5c459"/><path d="M656.65,296.224a1.132,1.132,0,1,1,1.132,1.132A1.132,1.132,0,0,1,656.65,296.224Z" transform="translate(-646.824 -261.044)" fill="#f5c459"/><path d="M636.316,275.137a1.132,1.132,0,1,1,1.132,1.132A1.132,1.132,0,0,1,636.316,275.137Z" transform="translate(-636.316 -250.148)" fill="#f5c459"/></g></g><g transform="translate(-1.52 147.779)"><g transform="translate(0)"><path d="M75.066,224.612a.925.925,0,0,0-.872.975l.939,16.781.909-16.783c0-.033,0-.068,0-.1A.925.925,0,0,0,75.066,224.612Z" transform="translate(-53.068 -224.611)" fill="#f5c459" stroke="rgba(0,0,0,0)" stroke-width="1"/><path d="M74.274,295.98a.925.925,0,0,0,1.848.1,1.013,1.013,0,0,0,0-.1L75.182,279.2Z" transform="translate(-53.11 -252.818)" fill="#f5c459" stroke="rgba(0,0,0,0)" stroke-width="1"/><path d="M31.455,268.4a.894.894,0,0,0-.1,0,.925.925,0,1,0,.1,1.847l16.781-.939Z" transform="translate(-30.48 -247.241)" fill="#f5c459" stroke="rgba(0,0,0,0)" stroke-width="1"/><path d="M101.95,268.324a.874.874,0,0,0-.1,0l-16.781.939,16.783.909a.925.925,0,0,0,.1-1.847Z" transform="translate(-58.688 -247.199)" fill="#f5c459" stroke="rgba(0,0,0,0)" stroke-width="1"/><path d="M43.631,287.815a.91.91,0,0,0-.072.072.925.925,0,1,0,1.379,1.233l11.2-12.53Z" transform="translate(-37.117 -251.471)" fill="#f5c459" stroke="rgba(0,0,0,0)" stroke-width="1"/><path d="M94.958,239.011a.925.925,0,1,0-1.236-1.377,1.007,1.007,0,0,0-.072.072l-11.2,12.53Z" transform="translate(-57.335 -231.218)" fill="#f5c459" stroke="rgba(0,0,0,0)" stroke-width="1"/><path d="M82.46,276.579l11.225,12.509a.925.925,0,1,0,1.305-1.307Z" transform="translate(-57.341 -251.466)" fill="#f5c459" stroke="rgba(0,0,0,0)" stroke-width="1"/><path d="M43.575,239.069l12.53,11.2L44.88,237.761A.925.925,0,1,0,43.5,239,1.013,1.013,0,0,0,43.575,239.069Z" transform="translate(-37.088 -231.248)" fill="#f5c459" stroke="rgba(0,0,0,0)" stroke-width="1"/><path d="M51.168,259.612a.557.557,0,0,0-.346,1.059l9.62,3.141-9.217-4.178A.582.582,0,0,0,51.168,259.612Z" transform="translate(-40.793 -242.684)" fill="#f5c459" stroke="rgba(0,0,0,0)" stroke-width="1"/><path d="M91.108,276.122a.557.557,0,0,0-.277-.737c-.019-.008-.038-.016-.057-.022l-9.62-3.141L90.37,276.4A.557.557,0,0,0,91.108,276.122Z" transform="translate(-56.665 -249.214)" fill="#f5c459" stroke="rgba(0,0,0,0)" stroke-width="1"/><path d="M65.482,284.559a.557.557,0,0,0,1.059.346l3.141-9.62L65.5,284.5C65.5,284.519,65.489,284.539,65.482,284.559Z" transform="translate(-48.553 -250.796)" fill="#f5c459" stroke="rgba(0,0,0,0)" stroke-width="1"/><path d="M81.992,244.619a.557.557,0,0,0-.737.277.576.576,0,0,0-.022.057l-3.141,9.62,4.177-9.217A.556.556,0,0,0,81.992,244.619Z" transform="translate(-55.084 -234.924)" fill="#f5c459" stroke="rgba(0,0,0,0)" stroke-width="1"/><path d="M78.312,275.193l3.563,9.472a.565.565,0,0,0,.025.056.557.557,0,1,0,.993-.5Z" transform="translate(-55.197 -250.749)" fill="#f5c459" stroke="rgba(0,0,0,0)" stroke-width="1"/><path d="M64.436,245.824l4.582,9.023-3.563-9.472a.557.557,0,0,0-1.043.392A.535.535,0,0,0,64.436,245.824Z" transform="translate(-47.996 -235.155)" fill="#f5c459" stroke="rgba(0,0,0,0)" stroke-width="1"/><path d="M90.085,258.566l-9.023,4.582,9.472-3.564a.523.523,0,0,0,.056-.025.557.557,0,0,0-.5-.994Z" transform="translate(-56.618 -242.126)" fill="#f5c459" stroke="rgba(0,0,0,0)" stroke-width="1"/><path d="M50.921,276.724a.557.557,0,0,0,.718.325c.019-.007.038-.016.056-.025l9.023-4.582-9.472,3.564A.557.557,0,0,0,50.921,276.724Z" transform="translate(-41.024 -249.328)" fill="#f5c459" stroke="rgba(0,0,0,0)" stroke-width="1"/></g><g transform="translate(4.27 3.234)"><path d="M58.9,232.435a1.132,1.132,0,1,1,1.132,1.132A1.132,1.132,0,0,1,58.9,232.435Z" transform="translate(-49.435 -231.303)" fill="#f5c459" stroke="rgba(0,0,0,0)" stroke-width="1"/><path d="M87.012,233.606a1.132,1.132,0,1,1,1.132,1.132A1.132,1.132,0,0,1,87.012,233.606Z" transform="translate(-63.963 -231.908)" fill="#f5c459" stroke="rgba(0,0,0,0)" stroke-width="1"/><circle cx="1.132" cy="1.132" r="1.132" transform="translate(23.898 34.169)" fill="#f5c459" stroke="rgba(0,0,0,0)" stroke-width="1"/><path d="M107.847,281.72a1.132,1.132,0,1,1,1.132,1.132A1.132,1.132,0,0,1,107.847,281.72Z" transform="translate(-74.73 -256.771)" fill="#f5c459" stroke="rgba(0,0,0,0)" stroke-width="1"/><path d="M39.819,255.7a1.132,1.132,0,1,1,1.132,1.132A1.132,1.132,0,0,1,39.819,255.7Z" transform="translate(-39.576 -243.324)" fill="#f5c459" stroke="rgba(0,0,0,0)" stroke-width="1"/><path d="M108.1,254.191a1.132,1.132,0,1,1,1.132,1.132A1.132,1.132,0,0,1,108.1,254.191Z" transform="translate(-74.859 -242.545)" fill="#f5c459" stroke="rgba(0,0,0,0)" stroke-width="1"/><path d="M59.65,302.891a1.132,1.132,0,1,1,1.132,1.132A1.133,1.133,0,0,1,59.65,302.891Z" transform="translate(-49.824 -267.711)" fill="#f5c459" stroke="rgba(0,0,0,0)" stroke-width="1"/><path d="M39.316,281.8a1.132,1.132,0,1,1,1.132,1.132A1.132,1.132,0,0,1,39.316,281.8Z" transform="translate(-39.316 -256.815)" fill="#f5c459" stroke="rgba(0,0,0,0)" stroke-width="1"/></g></g></g><g transform="translate(-18011.539 -15386.443)" fill="#ff6868"><path d="M 18947.861328125 15601.04296875 C 18943.57421875 15601.04296875 18939.548828125 15600.3515625 18935.892578125 15598.9873046875 C 18932.20703125 15597.607421875 18928.990234375 15595.5712890625 18926.33203125 15592.93359375 C 18923.681640625 15590.287109375 18921.580078125 15586.9912109375 18920.0859375 15583.1357421875 C 18918.599609375 15579.2919921875 18917.84765625 15574.8701171875 18917.84765625 15569.990234375 C 18917.84765625 15565.1142578125 18918.599609375 15560.6943359375 18920.0859375 15556.8515625 C 18921.580078125 15552.9873046875 18923.681640625 15549.6904296875 18926.330078125 15547.0537109375 C 18928.9921875 15544.40625 18932.2109375 15542.369140625 18935.89453125 15540.998046875 C 18939.548828125 15539.634765625 18943.57421875 15538.943359375 18947.861328125 15538.943359375 C 18952.169921875 15538.943359375 18956.2109375 15539.634765625 18959.869140625 15540.9990234375 C 18963.5546875 15542.3701171875 18966.76953125 15544.408203125 18969.42578125 15547.0546875 C 18972.08203125 15549.6943359375 18974.185546875 15552.9912109375 18975.67578125 15556.8525390625 C 18977.16015625 15560.7001953125 18977.912109375 15565.1201171875 18977.912109375 15569.990234375 C 18977.912109375 15574.8642578125 18977.16015625 15579.2861328125 18975.673828125 15583.1337890625 C 18974.185546875 15586.9873046875 18972.08203125 15590.283203125 18969.42578125 15592.931640625 C 18966.771484375 15595.5693359375 18963.55859375 15597.6064453125 18959.87109375 15598.986328125 C 18956.2109375 15600.3515625 18952.169921875 15601.04296875 18947.861328125 15601.04296875 Z M 19014.15625 15600.15625 C 19012.064453125 15600.15625 19010.013671875 15599.9521484375 19008.060546875 15599.548828125 C 19006.177734375 15599.1611328125 19004.3515625 15598.7333984375 19002.630859375 15598.2783203125 C 19001.076171875 15597.869140625 18999.587890625 15597.4853515625 18998.150390625 15597.115234375 L 18997.751953125 15597.0126953125 C 18996.296875 15596.64453125 18994.9921875 15596.46484375 18993.76171875 15596.46484375 C 18992.5703125 15596.46484375 18991.935546875 15596.6474609375 18991.615234375 15596.7998046875 L 18991.61328125 15596.80078125 L 18991.609375 15596.8017578125 C 18991.0703125 15597.056640625 18990.640625 15597.3212890625 18990.33203125 15597.5888671875 C 18989.986328125 15597.900390625 18989.7265625 15598.2255859375 18989.55859375 15598.5576171875 L 18989.14453125 15599.384765625 L 18988.21875 15599.384765625 L 18979.412109375 15599.384765625 L 18977.912109375 15599.384765625 L 18977.912109375 15597.884765625 C 18977.912109375 15593.9072265625 18978.3671875 15590.4013671875 18979.265625 15587.4658203125 C 18980.166015625 15584.5263671875 18981.3828125 15581.9169921875 18982.8828125 15579.7099609375 C 18984.388671875 15577.5048828125 18986.12890625 15575.5869140625 18988.060546875 15574.0087890625 C 18989.953125 15572.4599609375 18991.896484375 15571.087890625 18993.837890625 15569.93359375 C 18995.787109375 15568.7763671875 18997.70703125 15567.7353515625 18999.546875 15566.8388671875 C 19001.314453125 15565.9755859375 19002.8984375 15565.076171875 19004.25390625 15564.1669921875 L 19004.2578125 15564.1640625 L 19004.259765625 15564.162109375 C 19005.546875 15563.30859375 19006.580078125 15562.384765625 19007.328125 15561.41796875 L 19007.330078125 15561.4150390625 L 19007.33203125 15561.4130859375 C 19007.98828125 15560.572265625 19008.306640625 15559.591796875 19008.306640625 15558.4140625 C 19008.306640625 15556.669921875 19007.693359375 15555.4697265625 19006.37890625 15554.638671875 C 19004.841796875 15553.681640625 19003.03125 15553.216796875 19000.841796875 15553.216796875 C 18999.193359375 15553.216796875 18997.70703125 15553.3369140625 18996.421875 15553.57421875 C 18996.30859375 15553.595703125 18996.197265625 15553.6171875 18996.0859375 15553.6416015625 C 18996.49609375 15553.9208984375 18996.888671875 15554.2265625 18997.26171875 15554.5576171875 L 18997.263671875 15554.5595703125 L 18997.265625 15554.560546875 C 18998.7421875 15555.880859375 18999.4921875 15557.7861328125 18999.4921875 15560.22265625 C 18999.4921875 15561.3388671875 18999.244140625 15562.4267578125 18998.755859375 15563.45703125 L 18998.75390625 15563.4599609375 L 18998.751953125 15563.4638671875 C 18998.271484375 15564.466796875 18997.57421875 15565.390625 18996.681640625 15566.208984375 L 18996.6796875 15566.2109375 L 18996.677734375 15566.212890625 C 18995.767578125 15567.041015625 18994.625 15567.69140625 18993.283203125 15568.1455078125 L 18993.279296875 15568.1474609375 L 18993.2734375 15568.1484375 C 18991.96484375 15568.5810546875 18990.484375 15568.80078125 18988.875 15568.80078125 C 18987.62890625 15568.80078125 18986.333984375 15568.5966796875 18985.02734375 15568.193359375 C 18983.6796875 15567.779296875 18982.439453125 15567.1005859375 18981.345703125 15566.177734375 L 18981.341796875 15566.1748046875 L 18981.337890625 15566.171875 C 18980.23828125 15565.2333984375 18979.33203125 15564.0126953125 18978.646484375 15562.544921875 C 18977.953125 15561.068359375 18977.6015625 15559.275390625 18977.6015625 15557.216796875 C 18977.6015625 15554.482421875 18978.33984375 15551.9345703125 18979.796875 15549.642578125 C 18981.228515625 15547.404296875 18983.236328125 15545.45703125 18985.763671875 15543.8505859375 C 18988.240234375 15542.275390625 18991.25 15541.044921875 18994.7109375 15540.193359375 C 18998.11328125 15539.3642578125 19001.896484375 15538.943359375 19005.958984375 15538.943359375 C 19010.28515625 15538.943359375 19014.162109375 15539.4150390625 19017.484375 15540.3466796875 C 19020.84765625 15541.2890625 19023.7265625 15542.6142578125 19026.0390625 15544.2841796875 C 19028.396484375 15545.9931640625 19030.203125 15548.0185546875 19031.41015625 15550.3056640625 C 19032.62109375 15552.5927734375 19033.236328125 15555.0888671875 19033.236328125 15557.720703125 C 19033.236328125 15560.8017578125 19032.720703125 15563.4404296875 19031.705078125 15565.5634765625 C 19030.689453125 15567.68359375 19029.28515625 15569.46484375 19027.533203125 15570.859375 C 19025.84765625 15572.2041015625 19023.88671875 15573.3203125 19021.7109375 15574.1787109375 C 19019.6171875 15574.9990234375 19017.390625 15575.734375 19015.08984375 15576.3662109375 C 19012.970703125 15576.9423828125 19010.7265625 15577.541015625 19008.22265625 15578.197265625 C 19006.4140625 15578.66796875 19004.6484375 15579.25 19002.953125 15579.931640625 C 19003.74609375 15579.8203125 19004.568359375 15579.763671875 19005.41796875 15579.763671875 C 19007.185546875 15579.763671875 19008.646484375 15579.859375 19009.88671875 15580.0546875 C 19011.05078125 15580.2333984375 19012.134765625 15580.42578125 19013.10546875 15580.6259765625 C 19013.84375 15580.771484375 19014.544921875 15580.91796875 19015.22265625 15581.05859375 C 19015.419921875 15581.099609375 19015.61328125 15581.1396484375 19015.806640625 15581.1796875 L 19015.8125 15581.1806640625 L 19015.818359375 15581.181640625 C 19016.556640625 15581.3408203125 19017.39453125 15581.421875 19018.306640625 15581.421875 C 19019.904296875 15581.421875 19021.138671875 15581.099609375 19021.9765625 15580.4638671875 C 19022.857421875 15579.77734375 19023.04296875 15578.1572265625 19023.04296875 15576.91796875 L 19023.04296875 15575.41796875 L 19024.54296875 15575.41796875 L 19032.123046875 15575.41796875 L 19033.623046875 15575.41796875 L 19033.623046875 15576.91796875 C 19033.623046875 15582.0234375 19033.146484375 15585.9931640625 19032.169921875 15589.0546875 C 19031.1640625 15592.173828125 19029.751953125 15594.6005859375 19027.97265625 15596.271484375 C 19026.16796875 15597.9609375 19023.994140625 15599.052734375 19021.5078125 15599.517578125 C 19019.21875 15599.94140625 19016.74609375 15600.15625 19014.15625 15600.15625 Z M 18897.6875 15600.15625 C 18895.603515625 15600.15625 18893.552734375 15599.9521484375 18891.591796875 15599.5498046875 C 18889.71875 15599.1630859375 18887.892578125 15598.7353515625 18886.162109375 15598.2783203125 C 18884.8359375 15597.9287109375 18883.55859375 15597.5986328125 18882.322265625 15597.279296875 L 18881.294921875 15597.013671875 C 18879.859375 15596.6494140625 18878.51171875 15596.46484375 18877.29296875 15596.46484375 C 18876.107421875 15596.46484375 18875.47265625 15596.6474609375 18875.150390625 15596.80078125 L 18875.1484375 15596.8017578125 L 18875.146484375 15596.802734375 C 18874.6015625 15597.05859375 18874.169921875 15597.3232421875 18873.86328125 15597.587890625 C 18873.517578125 15597.900390625 18873.263671875 15598.2197265625 18873.087890625 15598.5654296875 L 18872.671875 15599.384765625 L 18871.751953125 15599.384765625 L 18862.943359375 15599.384765625 L 18861.443359375 15599.384765625 L 18861.443359375 15597.884765625 C 18861.443359375 15593.9072265625 18861.8984375 15590.4013671875 18862.796875 15587.4658203125 C 18863.697265625 15584.5263671875 18864.9140625 15581.9169921875 18866.4140625 15579.7099609375 C 18867.919921875 15577.5048828125 18869.66015625 15575.5869140625 18871.591796875 15574.0087890625 C 18873.51171875 15572.4443359375 18875.45703125 15571.0732421875 18877.37890625 15569.9326171875 C 18879.298828125 15568.7880859375 18881.21875 15567.74609375 18883.083984375 15566.83984375 C 18884.84765625 15565.974609375 18886.431640625 15565.0751953125 18887.796875 15564.1650390625 C 18889.078125 15563.30859375 18890.11328125 15562.3828125 18890.87109375 15561.4130859375 C 18891.521484375 15560.5732421875 18891.83984375 15559.5908203125 18891.83984375 15558.4140625 C 18891.83984375 15556.6689453125 18891.2265625 15555.4697265625 18889.91015625 15554.638671875 C 18888.373046875 15553.681640625 18886.5625 15553.216796875 18884.373046875 15553.216796875 C 18882.724609375 15553.216796875 18881.23828125 15553.3369140625 18879.953125 15553.57421875 C 18879.83984375 15553.595703125 18879.728515625 15553.6171875 18879.6171875 15553.640625 C 18880.029296875 15553.921875 18880.419921875 15554.2275390625 18880.79296875 15554.55859375 C 18882.275390625 15555.8798828125 18883.025390625 15557.7841796875 18883.025390625 15560.22265625 C 18883.025390625 15561.34375 18882.77734375 15562.4306640625 18882.287109375 15563.455078125 C 18881.8203125 15564.4482421875 18881.123046875 15565.3740234375 18880.216796875 15566.2080078125 L 18880.212890625 15566.2099609375 L 18880.2109375 15566.212890625 C 18879.296875 15567.044921875 18878.15234375 15567.6953125 18876.8125 15568.146484375 C 18875.505859375 15568.5810546875 18874.025390625 15568.80078125 18872.40625 15568.80078125 C 18871.166015625 15568.80078125 18869.875 15568.5966796875 18868.5703125 15568.1943359375 L 18868.5703125 15568.1943359375 C 18867.208984375 15567.779296875 18865.966796875 15567.0986328125 18864.87890625 15566.1728515625 C 18863.78125 15565.2392578125 18862.875 15564.01953125 18862.1796875 15562.55078125 C 18861.484375 15561.068359375 18861.1328125 15559.275390625 18861.1328125 15557.216796875 C 18861.1328125 15554.478515625 18861.873046875 15551.9296875 18863.3359375 15549.6396484375 C 18864.7578125 15547.4072265625 18866.763671875 15545.4599609375 18869.294921875 15543.8505859375 C 18871.7734375 15542.2763671875 18874.78515625 15541.0458984375 18878.244140625 15540.1943359375 C 18881.65234375 15539.3642578125 18885.43359375 15538.943359375 18889.490234375 15538.943359375 C 18893.81640625 15538.943359375 18897.693359375 15539.4150390625 18901.015625 15540.3466796875 C 18904.390625 15541.2919921875 18907.26953125 15542.6171875 18909.572265625 15544.28515625 C 18911.931640625 15545.99609375 18913.73828125 15548.021484375 18914.94140625 15550.306640625 C 18916.15625 15552.59765625 18916.771484375 15555.09375 18916.771484375 15557.720703125 C 18916.771484375 15560.80859375 18916.255859375 15563.4482421875 18915.240234375 15565.564453125 C 18914.212890625 15567.6962890625 18912.810546875 15569.4765625 18911.0703125 15570.859375 C 18909.3828125 15572.2041015625 18907.421875 15573.3212890625 18905.240234375 15574.1787109375 C 18903.1640625 15574.99609375 18900.9375 15575.732421875 18898.623046875 15576.3662109375 C 18896.533203125 15576.93359375 18894.2890625 15577.5322265625 18891.7578125 15578.197265625 C 18889.94140625 15578.6708984375 18888.171875 15579.2529296875 18886.478515625 15579.93359375 C 18887.27734375 15579.8203125 18888.10546875 15579.763671875 18888.95703125 15579.763671875 C 18890.69921875 15579.763671875 18892.19921875 15579.861328125 18893.41796875 15580.0546875 C 18894.55859375 15580.228515625 18895.640625 15580.4208984375 18896.6328125 15580.625 C 18897.482421875 15580.7919921875 18898.2734375 15580.95703125 18899.0390625 15581.1171875 L 18899.33984375 15581.1796875 L 18899.34375 15581.1806640625 L 18899.345703125 15581.181640625 C 18900.09375 15581.3408203125 18900.93359375 15581.421875 18901.84375 15581.421875 C 18903.44140625 15581.421875 18904.67578125 15581.0986328125 18905.51171875 15580.4599609375 C 18906.388671875 15579.78515625 18906.57421875 15578.1611328125 18906.57421875 15576.91796875 L 18906.57421875 15575.41796875 L 18908.07421875 15575.41796875 L 18915.654296875 15575.41796875 L 18917.154296875 15575.41796875 L 18917.154296875 15576.91796875 C 18917.154296875 15582.0234375 18916.677734375 15585.9931640625 18915.701171875 15589.0546875 C 18914.701171875 15592.171875 18913.291015625 15594.6005859375 18911.5078125 15596.271484375 C 18909.705078125 15597.9609375 18907.53125 15599.0517578125 18905.046875 15599.517578125 C 18902.75 15599.94140625 18900.275390625 15600.15625 18897.6875 15600.15625 Z M 19073.1015625 15599.384765625 L 19071.6015625 15599.384765625 L 19036.853515625 15599.384765625 L 19035.353515625 15599.384765625 L 19035.353515625 15597.884765625 L 19035.353515625 15583.61328125 L 19035.353515625 15582.11328125 L 19036.853515625 15582.11328125 L 19039.9375 15582.11328125 C 19041.09375 15582.11328125 19041.533203125 15581.71484375 19041.76171875 15581.4150390625 C 19042.21484375 15580.8173828125 19042.4375 15580.201171875 19042.4375 15579.533203125 L 19042.4375 15562.529296875 L 19036.046875 15562.529296875 L 19034.546875 15562.529296875 L 19034.546875 15561.029296875 L 19034.546875 15548.330078125 L 19034.546875 15546.830078125 L 19036.046875 15546.830078125 C 19037.0625 15546.830078125 19038.17578125 15546.7265625 19039.35546875 15546.5234375 C 19040.4765625 15546.330078125 19041.498046875 15546.001953125 19042.388671875 15545.5478515625 L 19042.392578125 15545.5458984375 L 19042.3984375 15545.5439453125 C 19043.21875 15545.1318359375 19043.91796875 15544.5517578125 19044.474609375 15543.8203125 C 19044.966796875 15543.1748046875 19045.205078125 15542.322265625 19045.205078125 15541.21484375 L 19045.205078125 15539.71484375 L 19046.705078125 15539.71484375 L 19064.525390625 15539.71484375 L 19066.025390625 15539.71484375 L 19066.025390625 15541.21484375 L 19066.025390625 15579.455078125 C 19066.025390625 15580.55078125 19066.228515625 15581.3359375 19066.5703125 15581.5576171875 C 19067.16015625 15581.9267578125 19067.97265625 15582.11328125 19068.986328125 15582.11328125 L 19071.6015625 15582.11328125 L 19073.1015625 15582.11328125 L 19073.1015625 15583.61328125 L 19073.1015625 15597.884765625 L 19073.1015625 15599.384765625 Z" stroke="none"/><path d="M 18947.861328125 15599.54296875 C 18952.013671875 15599.54296875 18955.845703125 15598.88671875 18959.345703125 15597.58203125 C 18962.849609375 15596.26953125 18965.85546875 15594.365234375 18968.3671875 15591.869140625 C 18970.8828125 15589.361328125 18972.853515625 15586.271484375 18974.275390625 15582.59375 C 18975.6953125 15578.9140625 18976.412109375 15574.712890625 18976.412109375 15569.990234375 C 18976.412109375 15565.2734375 18975.6953125 15561.072265625 18974.275390625 15557.392578125 C 18972.853515625 15553.70703125 18970.8828125 15550.6171875 18968.3671875 15548.1171875 C 18965.85546875 15545.615234375 18962.849609375 15543.708984375 18959.345703125 15542.404296875 C 18955.845703125 15541.099609375 18952.013671875 15540.443359375 18947.861328125 15540.443359375 C 18943.732421875 15540.443359375 18939.9140625 15541.099609375 18936.41796875 15542.404296875 C 18932.91015625 15543.708984375 18929.904296875 15545.615234375 18927.388671875 15548.1171875 C 18924.876953125 15550.6171875 18922.91015625 15553.70703125 18921.484375 15557.392578125 C 18920.0625 15561.072265625 18919.34765625 15565.2734375 18919.34765625 15569.990234375 C 18919.34765625 15574.712890625 18920.0625 15578.9140625 18921.484375 15582.59375 C 18922.91015625 15586.271484375 18924.876953125 15589.361328125 18927.388671875 15591.869140625 C 18929.904296875 15594.365234375 18932.91015625 15596.26953125 18936.41796875 15597.58203125 C 18939.9140625 15598.88671875 18943.732421875 15599.54296875 18947.861328125 15599.54296875 M 19014.15625 15598.65625 C 19016.66796875 15598.65625 19019.029296875 15598.451171875 19021.232421875 15598.04296875 C 19023.4375 15597.630859375 19025.34375 15596.677734375 19026.9453125 15595.177734375 C 19028.546875 15593.673828125 19029.810546875 15591.48046875 19030.740234375 15588.59765625 C 19031.6640625 15585.70703125 19032.123046875 15581.81640625 19032.123046875 15576.91796875 L 19024.54296875 15576.91796875 C 19024.54296875 15579.224609375 19023.98828125 15580.802734375 19022.890625 15581.65234375 C 19021.78515625 15582.49609375 19020.26171875 15582.921875 19018.306640625 15582.921875 C 19017.287109375 15582.921875 19016.345703125 15582.830078125 19015.501953125 15582.6484375 C 19014.65234375 15582.47265625 19013.75390625 15582.283203125 19012.806640625 15582.095703125 C 19011.859375 15581.900390625 19010.802734375 15581.712890625 19009.65625 15581.537109375 C 19008.49609375 15581.353515625 19007.087890625 15581.263671875 19005.41796875 15581.263671875 C 19003.779296875 15581.263671875 19002.26171875 15581.48828125 19000.8828125 15581.9375 C 18999.4921875 15582.38671875 18998.248046875 15582.939453125 18997.14453125 15583.595703125 C 18996.046875 15584.244140625 18995.068359375 15584.955078125 18994.224609375 15585.70703125 C 18993.375 15586.46484375 18992.693359375 15587.1640625 18992.185546875 15587.80859375 L 18991.529296875 15587.576171875 C 18992.53125 15585.470703125 18993.8828125 15583.74609375 18995.58984375 15582.3984375 C 18997.294921875 15581.05078125 18999.189453125 15579.927734375 19001.265625 15579.01171875 C 19003.341796875 15578.107421875 19005.533203125 15577.34765625 19007.841796875 15576.74609375 C 19010.15234375 15576.140625 19012.4375 15575.533203125 19014.693359375 15574.919921875 C 19016.947265625 15574.30078125 19019.1015625 15573.58984375 19021.16015625 15572.783203125 C 19023.20703125 15571.9765625 19025.021484375 15570.943359375 19026.599609375 15569.685546875 C 19028.177734375 15568.4296875 19029.4296875 15566.83984375 19030.3515625 15564.916015625 C 19031.2734375 15562.990234375 19031.736328125 15560.591796875 19031.736328125 15557.720703125 C 19031.736328125 15555.330078125 19031.189453125 15553.09375 19030.083984375 15551.005859375 C 19028.978515625 15548.912109375 19027.33984375 15547.080078125 19025.16015625 15545.5 C 19022.974609375 15543.921875 19020.28515625 15542.689453125 19017.080078125 15541.791015625 C 19013.875 15540.892578125 19010.166015625 15540.443359375 19005.958984375 15540.443359375 C 19002.005859375 15540.443359375 18998.375 15540.84375 18995.068359375 15541.650390625 C 18991.7578125 15542.46484375 18988.92578125 15543.6171875 18986.568359375 15545.1171875 C 18984.20703125 15546.6171875 18982.375 15548.396484375 18981.0625 15550.447265625 C 18979.7578125 15552.5 18979.1015625 15554.7578125 18979.1015625 15557.216796875 C 18979.1015625 15559.0625 18979.404296875 15560.62890625 18980.005859375 15561.91015625 C 18980.607421875 15563.197265625 18981.37890625 15564.234375 18982.3125 15565.03125 C 18983.25390625 15565.826171875 18984.3046875 15566.40234375 18985.470703125 15566.759765625 C 18986.634765625 15567.119140625 18987.76953125 15567.30078125 18988.875 15567.30078125 C 18990.337890625 15567.30078125 18991.64453125 15567.107421875 18992.802734375 15566.724609375 C 18993.951171875 15566.3359375 18994.908203125 15565.794921875 18995.66796875 15565.103515625 C 18996.421875 15564.412109375 18996.998046875 15563.65234375 18997.400390625 15562.814453125 C 18997.794921875 15561.982421875 18997.9921875 15561.115234375 18997.9921875 15560.22265625 C 18997.9921875 15558.21875 18997.416015625 15556.70703125 18996.265625 15555.6796875 C 18995.109375 15554.654296875 18993.75 15553.908203125 18992.185546875 15553.447265625 C 18993.44140625 15552.8046875 18994.765625 15552.35546875 18996.1484375 15552.099609375 C 18997.533203125 15551.84375 18999.09375 15551.716796875 19000.841796875 15551.716796875 C 19003.306640625 15551.716796875 19005.412109375 15552.26953125 19007.173828125 15553.3671875 C 19008.927734375 15554.47265625 19009.806640625 15556.154296875 19009.806640625 15558.4140625 C 19009.806640625 15559.923828125 19009.376953125 15561.23046875 19008.513671875 15562.3359375 C 19007.66015625 15563.439453125 19006.517578125 15564.46484375 19005.08984375 15565.412109375 C 19003.669921875 15566.365234375 19002.04296875 15567.2890625 19000.203125 15568.1875 C 18998.37109375 15569.080078125 18996.505859375 15570.09375 18994.60546875 15571.22265625 C 18992.70703125 15572.3515625 18990.841796875 15573.669921875 18989.009765625 15575.169921875 C 18987.177734375 15576.66796875 18985.548828125 15578.46484375 18984.123046875 15580.552734375 C 18982.703125 15582.642578125 18981.560546875 15585.09375 18980.69921875 15587.904296875 C 18979.841796875 15590.708984375 18979.412109375 15594.04296875 18979.412109375 15597.884765625 L 18988.21875 15597.884765625 C 18988.474609375 15597.375 18988.849609375 15596.90234375 18989.337890625 15596.46484375 C 18989.75 15596.10546875 18990.291015625 15595.765625 18990.970703125 15595.4453125 C 18991.6484375 15595.123046875 18992.580078125 15594.96484375 18993.76171875 15594.96484375 C 18995.123046875 15594.96484375 18996.572265625 15595.166015625 18998.126953125 15595.560546875 C 18999.681640625 15595.9609375 19001.30859375 15596.37890625 19003.013671875 15596.828125 C 19004.71875 15597.279296875 19006.505859375 15597.697265625 19008.36328125 15598.080078125 C 19010.21875 15598.462890625 19012.15234375 15598.65625 19014.15625 15598.65625 M 18897.6875 15598.65625 C 18900.19921875 15598.65625 18902.560546875 15598.451171875 18904.771484375 15598.04296875 C 18906.97265625 15597.630859375 18908.880859375 15596.677734375 18910.482421875 15595.177734375 C 18912.0859375 15593.673828125 18913.34765625 15591.48046875 18914.271484375 15588.59765625 C 18915.1953125 15585.70703125 18915.654296875 15581.81640625 18915.654296875 15576.91796875 L 18908.07421875 15576.91796875 C 18908.07421875 15579.224609375 18907.52734375 15580.802734375 18906.421875 15581.65234375 C 18905.31640625 15582.49609375 18903.79296875 15582.921875 18901.84375 15582.921875 C 18900.818359375 15582.921875 18899.884765625 15582.830078125 18899.033203125 15582.6484375 C 18898.19140625 15582.47265625 18897.29296875 15582.283203125 18896.337890625 15582.095703125 C 18895.390625 15581.900390625 18894.341796875 15581.712890625 18893.1875 15581.537109375 C 18892.033203125 15581.353515625 18890.619140625 15581.263671875 18888.95703125 15581.263671875 C 18887.310546875 15581.263671875 18885.80078125 15581.48828125 18884.4140625 15581.9375 C 18883.03125 15582.38671875 18881.787109375 15582.939453125 18880.68359375 15583.595703125 C 18879.578125 15584.244140625 18878.603515625 15584.955078125 18877.755859375 15585.70703125 C 18876.91015625 15586.46484375 18876.23046875 15587.1640625 18875.720703125 15587.80859375 L 18875.06640625 15587.576171875 C 18876.0625 15585.470703125 18877.4140625 15583.74609375 18879.12109375 15582.3984375 C 18880.826171875 15581.05078125 18882.720703125 15579.927734375 18884.796875 15579.01171875 C 18886.873046875 15578.107421875 18889.0703125 15577.34765625 18891.376953125 15576.74609375 C 18893.68359375 15576.140625 18895.96875 15575.533203125 18898.2265625 15574.919921875 C 18900.484375 15574.30078125 18902.640625 15573.58984375 18904.69140625 15572.783203125 C 18906.7421875 15571.9765625 18908.55859375 15570.943359375 18910.13671875 15569.685546875 C 18911.716796875 15568.4296875 18912.9609375 15566.83984375 18913.888671875 15564.916015625 C 18914.8125 15562.990234375 18915.271484375 15560.591796875 18915.271484375 15557.720703125 C 18915.271484375 15555.330078125 18914.720703125 15553.09375 18913.615234375 15551.005859375 C 18912.51171875 15548.912109375 18910.87109375 15547.080078125 18908.69140625 15545.5 C 18906.513671875 15543.921875 18903.818359375 15542.689453125 18900.611328125 15541.791015625 C 18897.40625 15540.892578125 18893.697265625 15540.443359375 18889.490234375 15540.443359375 C 18885.544921875 15540.443359375 18881.9140625 15540.84375 18878.603515625 15541.650390625 C 18875.296875 15542.46484375 18872.4609375 15543.6171875 18870.099609375 15545.1171875 C 18867.73828125 15546.6171875 18865.90625 15548.396484375 18864.599609375 15550.447265625 C 18863.2890625 15552.5 18862.6328125 15554.7578125 18862.6328125 15557.216796875 C 18862.6328125 15559.0625 18862.935546875 15560.62890625 18863.537109375 15561.91015625 C 18864.14453125 15563.197265625 18864.916015625 15564.234375 18865.8515625 15565.03125 C 18866.78515625 15565.826171875 18867.8359375 15566.40234375 18869.0078125 15566.759765625 C 18870.171875 15567.119140625 18871.30859375 15567.30078125 18872.40625 15567.30078125 C 18873.869140625 15567.30078125 18875.18359375 15567.107421875 18876.333984375 15566.724609375 C 18877.490234375 15566.3359375 18878.44140625 15565.794921875 18879.201171875 15565.103515625 C 18879.953125 15564.412109375 18880.537109375 15563.65234375 18880.931640625 15562.814453125 C 18881.330078125 15561.982421875 18881.525390625 15561.115234375 18881.525390625 15560.22265625 C 18881.525390625 15558.21875 18880.94921875 15556.70703125 18879.796875 15555.6796875 C 18878.642578125 15554.654296875 18877.28125 15553.908203125 18875.720703125 15553.447265625 C 18876.97265625 15552.8046875 18878.296875 15552.35546875 18879.6796875 15552.099609375 C 18881.064453125 15551.84375 18882.62890625 15551.716796875 18884.373046875 15551.716796875 C 18886.837890625 15551.716796875 18888.943359375 15552.26953125 18890.705078125 15553.3671875 C 18892.4609375 15554.47265625 18893.33984375 15556.154296875 18893.33984375 15558.4140625 C 18893.33984375 15559.923828125 18892.91015625 15561.23046875 18892.052734375 15562.3359375 C 18891.19140625 15563.439453125 18890.048828125 15564.46484375 18888.62890625 15565.412109375 C 18887.201171875 15566.365234375 18885.57421875 15567.2890625 18883.7421875 15568.1875 C 18881.90625 15569.080078125 18880.037109375 15570.09375 18878.14453125 15571.22265625 C 18876.2421875 15572.3515625 18874.380859375 15573.669921875 18872.541015625 15575.169921875 C 18870.708984375 15576.66796875 18869.080078125 15578.46484375 18867.654296875 15580.552734375 C 18866.234375 15582.642578125 18865.091796875 15585.09375 18864.23046875 15587.904296875 C 18863.373046875 15590.708984375 18862.943359375 15594.04296875 18862.943359375 15597.884765625 L 18871.751953125 15597.884765625 C 18872.01171875 15597.375 18872.3828125 15596.90234375 18872.869140625 15596.46484375 C 18873.28125 15596.10546875 18873.826171875 15595.765625 18874.5078125 15595.4453125 C 18875.1875 15595.123046875 18876.1171875 15594.96484375 18877.29296875 15594.96484375 C 18878.654296875 15594.96484375 18880.111328125 15595.166015625 18881.666015625 15595.560546875 C 18883.212890625 15595.9609375 18884.83984375 15596.37890625 18886.544921875 15596.828125 C 18888.251953125 15597.279296875 18890.037109375 15597.697265625 18891.89453125 15598.080078125 C 18893.7578125 15598.462890625 18895.6875 15598.65625 18897.6875 15598.65625 M 19071.6015625 15597.884765625 L 19071.6015625 15583.61328125 L 19068.986328125 15583.61328125 C 19067.67578125 15583.61328125 19066.60546875 15583.3515625 19065.767578125 15582.82421875 C 19064.9375 15582.294921875 19064.525390625 15581.177734375 19064.525390625 15579.455078125 L 19064.525390625 15541.21484375 L 19046.705078125 15541.21484375 C 19046.705078125 15542.646484375 19046.361328125 15543.818359375 19045.66796875 15544.728515625 C 19044.974609375 15545.640625 19044.109375 15546.36328125 19043.0703125 15546.884765625 C 19042.03125 15547.4140625 19040.87890625 15547.783203125 19039.609375 15548.001953125 C 19038.33984375 15548.220703125 19037.150390625 15548.330078125 19036.046875 15548.330078125 L 19036.046875 15561.029296875 L 19043.9375 15561.029296875 L 19043.9375 15579.533203125 C 19043.9375 15580.53515625 19043.609375 15581.462890625 19042.953125 15582.326171875 C 19042.298828125 15583.181640625 19041.291015625 15583.61328125 19039.9375 15583.61328125 L 19036.853515625 15583.61328125 L 19036.853515625 15597.884765625 L 19071.6015625 15597.884765625 M 18947.861328125 15602.54296875 C 18943.39453125 15602.54296875 18939.193359375 15601.8193359375 18935.369140625 15600.392578125 C 18931.48046875 15598.9375 18928.0859375 15596.787109375 18925.275390625 15593.9990234375 L 18925.271484375 15593.9951171875 L 18925.26953125 15593.9921875 C 18922.47265625 15591.2001953125 18920.2578125 15587.7294921875 18918.6875 15583.677734375 C 18918.5859375 15583.41796875 18918.48828125 15583.1552734375 18918.39453125 15582.8896484375 C 18918.150390625 15585.439453125 18917.73046875 15587.630859375 18917.12890625 15589.5107421875 C 18916.05078125 15592.8759765625 18914.505859375 15595.517578125 18912.53515625 15597.3662109375 C 18910.51953125 15599.25390625 18908.09375 15600.4736328125 18905.32421875 15600.9921875 L 18905.3203125 15600.9921875 L 18905.31640625 15600.9931640625 C 18902.93359375 15601.43359375 18900.365234375 15601.65625 18897.6875 15601.65625 C 18895.501953125 15601.65625 18893.349609375 15601.44140625 18891.291015625 15601.0185546875 C 18889.388671875 15600.626953125 18887.53515625 15600.1923828125 18885.779296875 15599.728515625 C 18884.455078125 15599.3798828125 18883.177734375 15599.0498046875 18881.94140625 15598.73046875 L 18880.919921875 15598.4658203125 C 18879.60546875 15598.1337890625 18878.38671875 15597.96484375 18877.29296875 15597.96484375 C 18876.25 15597.96484375 18875.861328125 15598.1240234375 18875.79296875 15598.15625 L 18875.7890625 15598.158203125 L 18875.783203125 15598.16015625 C 18875.251953125 15598.41015625 18874.978515625 15598.6083984375 18874.857421875 15598.7119140625 C 18874.658203125 15598.8935546875 18874.513671875 15599.0732421875 18874.42578125 15599.2470703125 L 18873.58984375 15600.884765625 L 18871.751953125 15600.884765625 L 18862.943359375 15600.884765625 L 18859.943359375 15600.884765625 L 18859.943359375 15597.884765625 C 18859.943359375 15593.7587890625 18860.419921875 15590.10546875 18861.361328125 15587.02734375 C 18862.306640625 15583.943359375 18863.587890625 15581.1982421875 18865.173828125 15578.8671875 L 18865.17578125 15578.8642578125 L 18865.177734375 15578.861328125 C 18866.76171875 15576.5400390625 18868.599609375 15574.5166015625 18870.642578125 15572.84765625 C 18871.8046875 15571.8994140625 18872.9765625 15571.0205078125 18874.1484375 15570.2177734375 C 18873.5859375 15570.2734375 18873.00390625 15570.30078125 18872.40625 15570.30078125 C 18871.013671875 15570.30078125 18869.57421875 15570.07421875 18868.125 15569.626953125 C 18866.568359375 15569.1513671875 18865.1484375 15568.373046875 18863.90625 15567.3154296875 C 18862.646484375 15566.2421875 18861.609375 15564.8544921875 18860.82421875 15563.1904296875 L 18860.822265625 15563.1875 L 18860.822265625 15563.185546875 C 18860.033203125 15561.5048828125 18859.6328125 15559.4970703125 18859.6328125 15557.216796875 C 18859.6328125 15554.1875 18860.453125 15551.3671875 18862.0703125 15548.8330078125 C 18863.611328125 15546.4150390625 18865.771484375 15544.3125 18868.490234375 15542.5849609375 C 18871.107421875 15540.9228515625 18874.267578125 15539.62890625 18877.88671875 15538.7373046875 L 18877.890625 15538.736328125 L 18877.892578125 15538.7353515625 C 18881.412109375 15537.8779296875 18885.314453125 15537.443359375 18889.490234375 15537.443359375 C 18893.953125 15537.443359375 18897.966796875 15537.9345703125 18901.421875 15538.90234375 C 18904.966796875 15539.8955078125 18908.005859375 15541.298828125 18910.451171875 15543.0703125 C 18912.998046875 15544.916015625 18914.953125 15547.11328125 18916.265625 15549.6025390625 L 18916.265625 15549.6025390625 C 18917.556640625 15552.0380859375 18918.23046875 15554.6787109375 18918.26953125 15557.45703125 C 18918.40234375 15557.0693359375 18918.541015625 15556.6875 18918.685546875 15556.3115234375 C 18920.2578125 15552.248046875 18922.47265625 15548.7763671875 18925.271484375 15545.9912109375 C 18928.087890625 15543.1904296875 18931.486328125 15541.0380859375 18935.373046875 15539.5927734375 C 18939.193359375 15538.1669921875 18943.39453125 15537.443359375 18947.861328125 15537.443359375 C 18952.349609375 15537.443359375 18956.56640625 15538.1669921875 18960.39453125 15539.59375 C 18964.279296875 15541.0400390625 18967.673828125 15543.193359375 18970.484375 15545.9921875 C 18972.869140625 15548.3623046875 18974.830078125 15551.2275390625 18976.326171875 15554.5263671875 C 18976.669921875 15552.5107421875 18977.408203125 15550.60546875 18978.53125 15548.837890625 L 18978.533203125 15548.833984375 L 18978.53515625 15548.830078125 C 18980.083984375 15546.41015625 18982.24609375 15544.30859375 18984.958984375 15542.5849609375 C 18987.572265625 15540.9228515625 18990.732421875 15539.6279296875 18994.3515625 15538.7373046875 L 18994.35546875 15538.736328125 L 18994.357421875 15538.736328125 C 18997.873046875 15537.8779296875 19001.77734375 15537.443359375 19005.958984375 15537.443359375 C 19010.421875 15537.443359375 19014.435546875 15537.9345703125 19017.890625 15538.90234375 C 19021.423828125 15539.892578125 19024.4609375 15541.2939453125 19026.916015625 15543.0673828125 L 19026.91796875 15543.0693359375 L 19026.921875 15543.0712890625 C 19029.46484375 15544.9150390625 19031.421875 15547.11328125 19032.736328125 15549.60546875 C 19032.84375 15549.80859375 19032.947265625 15550.0126953125 19033.046875 15550.2197265625 L 19033.046875 15548.330078125 L 19033.046875 15545.330078125 L 19036.046875 15545.330078125 C 19036.9765625 15545.330078125 19038.00390625 15545.234375 19039.099609375 15545.0458984375 C 19040.07421875 15544.8779296875 19040.951171875 15544.5966796875 19041.708984375 15544.2119140625 L 19041.716796875 15544.20703125 L 19041.724609375 15544.203125 C 19042.349609375 15543.8896484375 19042.857421875 15543.4677734375 19043.279296875 15542.9130859375 C 19043.5625 15542.5419921875 19043.705078125 15541.970703125 19043.705078125 15541.21484375 L 19043.705078125 15538.21484375 L 19046.705078125 15538.21484375 L 19064.525390625 15538.21484375 L 19067.525390625 15538.21484375 L 19067.525390625 15541.21484375 L 19067.525390625 15579.455078125 C 19067.525390625 15579.9423828125 19067.5703125 15580.2421875 19067.609375 15580.4072265625 C 19067.94921875 15580.54296875 19068.41796875 15580.61328125 19068.986328125 15580.61328125 L 19071.6015625 15580.61328125 L 19074.6015625 15580.61328125 L 19074.6015625 15583.61328125 L 19074.6015625 15597.884765625 L 19074.6015625 15600.884765625 L 19071.6015625 15600.884765625 L 19036.853515625 15600.884765625 L 19033.853515625 15600.884765625 L 19033.853515625 15597.884765625 L 19033.853515625 15588.6533203125 C 19033.771484375 15588.9462890625 19033.6875 15589.2314453125 19033.59765625 15589.5107421875 L 19033.595703125 15589.5146484375 L 19033.595703125 15589.5185546875 C 19032.51171875 15592.8779296875 19030.96484375 15595.5185546875 19028.998046875 15597.3642578125 C 19026.98046875 15599.2548828125 19024.5546875 15600.4736328125 19021.783203125 15600.9921875 C 19019.40234375 15601.4326171875 19016.837890625 15601.65625 19014.15625 15601.65625 C 19011.962890625 15601.65625 19009.80859375 15601.44140625 19007.7578125 15601.0185546875 C 19005.84765625 15600.625 19003.994140625 15600.1904296875 19002.24609375 15599.728515625 C 19000.6953125 15599.3203125 18999.2109375 15598.9375 18997.7734375 15598.5673828125 L 18997.3828125 15598.466796875 C 18996.068359375 15598.1337890625 18994.849609375 15597.96484375 18993.76171875 15597.96484375 C 18992.689453125 15597.96484375 18992.30078125 15598.134765625 18992.259765625 15598.154296875 L 18992.25390625 15598.1572265625 L 18992.25 15598.1591796875 C 18991.744140625 15598.3974609375 18991.46875 15598.5908203125 18991.32421875 15598.7138671875 C 18991.125 15598.8935546875 18990.98046875 15599.0712890625 18990.900390625 15599.23046875 L 18990.0703125 15600.884765625 L 18988.21875 15600.884765625 L 18979.412109375 15600.884765625 L 18976.412109375 15600.884765625 L 18976.412109375 15597.884765625 C 18976.412109375 15593.7587890625 18976.888671875 15590.10546875 18977.830078125 15587.02734375 C 18978.775390625 15583.943359375 18980.056640625 15581.1982421875 18981.640625 15578.8671875 L 18981.64453125 15578.8642578125 L 18981.646484375 15578.861328125 C 18983.23046875 15576.5400390625 18985.068359375 15574.5166015625 18987.111328125 15572.84765625 C 18988.26171875 15571.9052734375 18989.431640625 15571.0263671875 18990.611328125 15570.2177734375 C 18990.048828125 15570.2734375 18989.46875 15570.30078125 18988.875 15570.30078125 C 18987.48046875 15570.30078125 18986.0390625 15570.07421875 18984.591796875 15569.6279296875 L 18984.591796875 15569.6279296875 C 18983.044921875 15569.154296875 18981.626953125 15568.3779296875 18980.376953125 15567.3232421875 L 18980.37109375 15567.318359375 L 18980.365234375 15567.3134765625 C 18979.974609375 15566.9794921875 18979.60546875 15566.6171875 18979.259765625 15566.2255859375 C 18979.361328125 15567.44921875 18979.412109375 15568.705078125 18979.412109375 15569.990234375 C 18979.412109375 15575.0498046875 18978.625 15579.6533203125 18977.07421875 15583.673828125 C 18975.5078125 15587.724609375 18973.291015625 15591.1962890625 18970.484375 15593.994140625 C 18967.677734375 15596.7841796875 18964.28515625 15598.935546875 18960.3984375 15600.3916015625 C 18956.56640625 15601.8193359375 18952.349609375 15602.54296875 18947.861328125 15602.54296875 Z M 19035.03125 15580.61328125 L 19036.853515625 15580.61328125 L 19039.9375 15580.61328125 C 19040.349609375 15580.61328125 19040.533203125 15580.5361328125 19040.560546875 15580.515625 C 19040.560546875 15580.515625 19040.560546875 15580.515625 19040.560546875 15580.515625 C 19040.560546875 15580.515625 19040.5625 15580.5126953125 19040.568359375 15580.5048828125 C 19040.896484375 15580.0732421875 19040.9375 15579.7587890625 19040.9375 15579.533203125 L 19040.9375 15564.029296875 L 19036.046875 15564.029296875 L 19033.896484375 15564.029296875 C 19033.6640625 15564.80078125 19033.384765625 15565.529296875 19033.056640625 15566.2109375 C 19031.943359375 15568.5380859375 19030.3984375 15570.49609375 19028.466796875 15572.033203125 C 19027.607421875 15572.7177734375 19026.68359375 15573.34765625 19025.69921875 15573.91796875 L 19032.123046875 15573.91796875 L 19035.123046875 15573.91796875 L 19035.123046875 15576.91796875 C 19035.123046875 15578.21875 19035.091796875 15579.44921875 19035.03125 15580.61328125 Z M 19013.400390625 15579.1552734375 C 19014.142578125 15579.3017578125 19014.845703125 15579.4482421875 19015.525390625 15579.58984375 C 19015.72265625 15579.630859375 19015.91796875 15579.6708984375 19016.109375 15579.7109375 L 19016.12109375 15579.712890625 L 19016.1328125 15579.7158203125 C 19016.76953125 15579.8525390625 19017.5 15579.921875 19018.306640625 15579.921875 C 19019.544921875 15579.921875 19020.49609375 15579.69921875 19021.05859375 15579.2763671875 C 19021.197265625 15579.162109375 19021.54296875 15578.529296875 19021.54296875 15576.91796875 L 19021.54296875 15575.8505859375 C 19019.61328125 15576.5791015625 19017.580078125 15577.23828125 19015.48828125 15577.8125 L 19015.484375 15577.8134765625 L 19015.48046875 15577.814453125 C 19014.26953125 15578.1435546875 19013.017578125 15578.48046875 19011.697265625 15578.83203125 C 19012.29296875 15578.9365234375 19012.86328125 15579.0439453125 19013.400390625 15579.1552734375 Z M 18896.931640625 15579.1552734375 C 18897.78515625 15579.322265625 18898.578125 15579.48828125 18899.34375 15579.6484375 L 18899.646484375 15579.7119140625 L 18899.65234375 15579.712890625 L 18899.658203125 15579.71484375 C 18900.3046875 15579.8525390625 18901.0390625 15579.921875 18901.84375 15579.921875 C 18903.08203125 15579.921875 18904.03515625 15579.697265625 18904.595703125 15579.2724609375 C 18904.73046875 15579.1650390625 18905.07421875 15578.5390625 18905.07421875 15576.91796875 L 18905.07421875 15575.8505859375 C 18903.154296875 15576.578125 18901.12109375 15577.236328125 18899.01953125 15577.8134765625 L 18899.015625 15577.814453125 L 18899.013671875 15577.8154296875 C 18897.8125 15578.140625 18896.55859375 15578.4775390625 18895.228515625 15578.8310546875 C 18895.818359375 15578.9345703125 18896.388671875 15579.04296875 18896.931640625 15579.1552734375 Z M 18909.234375 15573.91796875 L 18915.654296875 15573.91796875 L 18916.513671875 15573.91796875 C 18916.40234375 15572.642578125 18916.34765625 15571.3330078125 18916.34765625 15569.990234375 C 18916.34765625 15568.7802734375 18916.392578125 15567.5966796875 18916.482421875 15566.4404296875 C 18915.3671875 15568.6767578125 18913.861328125 15570.5576171875 18912.00390625 15572.0341796875 C 18911.14453125 15572.71875 18910.21875 15573.34765625 18909.234375 15573.91796875 Z M 18883.640625 15564.103515625 C 18883.46484375 15564.4736328125 18883.265625 15564.833984375 18883.0390625 15565.185546875 C 18884.49609375 15564.4462890625 18885.814453125 15563.6845703125 18886.962890625 15562.9169921875 C 18888.109375 15562.1513671875 18889.025390625 15561.337890625 18889.68359375 15560.49609375 C 18890.130859375 15559.91796875 18890.33984375 15559.255859375 18890.33984375 15558.4140625 C 18890.33984375 15556.8955078125 18889.75 15556.3115234375 18889.111328125 15555.908203125 C 18887.8203125 15555.1064453125 18886.26953125 15554.716796875 18884.373046875 15554.716796875 C 18883.88671875 15554.716796875 18883.416015625 15554.7275390625 18882.9609375 15554.75 C 18883.341796875 15555.2880859375 18883.654296875 15555.87890625 18883.896484375 15556.517578125 C 18884.314453125 15557.61328125 18884.525390625 15558.859375 18884.525390625 15560.22265625 C 18884.525390625 15561.5693359375 18884.228515625 15562.875 18883.640625 15564.103515625 Z M 18999.4296875 15554.75 C 18999.80859375 15555.2880859375 19000.12109375 15555.87890625 19000.365234375 15556.5185546875 C 19000.78125 15557.6142578125 19000.9921875 15558.8603515625 19000.9921875 15560.22265625 C 19000.9921875 15561.5625 19000.6953125 15562.8671875 19000.111328125 15564.099609375 L 19000.107421875 15564.1064453125 L 19000.10546875 15564.11328125 C 18999.927734375 15564.48046875 18999.728515625 15564.837890625 18999.50390625 15565.1845703125 C 19000.962890625 15564.4462890625 19002.27734375 15563.6865234375 19003.41796875 15562.9208984375 L 19003.423828125 15562.9169921875 L 19003.431640625 15562.912109375 C 19004.58203125 15562.1494140625 19005.494140625 15561.337890625 19006.140625 15560.5009765625 L 19006.14453125 15560.4951171875 L 19006.1484375 15560.4892578125 C 19006.59765625 15559.9150390625 19006.806640625 15559.255859375 19006.806640625 15558.4140625 C 19006.806640625 15556.896484375 19006.21875 15556.3125 19005.580078125 15555.9091796875 C 19004.2890625 15555.1064453125 19002.740234375 15554.716796875 19000.841796875 15554.716796875 C 19000.35546875 15554.716796875 18999.8828125 15554.7275390625 18999.4296875 15554.75 Z" stroke="none" fill="#c72929"/></g><path d="M18936.418,15597.582a25.143,25.143,0,0,1-9.029-5.713,26.364,26.364,0,0,1-5.9-9.275,38.222,38.222,0,0,1,0-25.2,26.224,26.224,0,0,1,5.9-9.275,24.959,24.959,0,0,1,9.029-5.713,34.49,34.49,0,0,1,22.928,0,24.928,24.928,0,0,1,9.021,5.713,26.124,26.124,0,0,1,5.908,9.275,38.222,38.222,0,0,1,0,25.2,26.263,26.263,0,0,1-5.908,9.275,25.111,25.111,0,0,1-9.021,5.713,34.49,34.49,0,0,1-22.928,0Zm71.945.5c-1.857-.383-3.645-.8-5.35-1.252s-3.332-.867-4.887-1.268a17.775,17.775,0,0,0-4.365-.6,6.62,6.62,0,0,0-2.791.48,7.052,7.052,0,0,0-1.633,1.02,4.83,4.83,0,0,0-1.119,1.42h-8.807a34.363,34.363,0,0,1,1.287-9.98,27.156,27.156,0,0,1,3.424-7.352,25.391,25.391,0,0,1,4.887-5.383,45.819,45.819,0,0,1,5.6-3.947q2.851-1.693,5.6-3.035a41.259,41.259,0,0,0,4.887-2.775,14.179,14.179,0,0,0,3.424-3.076,6.181,6.181,0,0,0,1.293-3.922,5.559,5.559,0,0,0-2.633-5.047,11.724,11.724,0,0,0-6.332-1.65,25.953,25.953,0,0,0-4.693.383,14.426,14.426,0,0,0-3.963,1.348,10.56,10.56,0,0,1,4.08,2.232,5.772,5.772,0,0,1,1.727,4.543,5.992,5.992,0,0,1-.592,2.592,7.515,7.515,0,0,1-1.732,2.289,8.013,8.013,0,0,1-2.865,1.621,12.472,12.472,0,0,1-3.928.576,11.514,11.514,0,0,1-3.4-.541,8.881,8.881,0,0,1-3.158-1.729,9.083,9.083,0,0,1-2.307-3.121,11,11,0,0,1-.9-4.693,12.375,12.375,0,0,1,1.961-6.77,17.585,17.585,0,0,1,5.506-5.33,28.352,28.352,0,0,1,8.5-3.467,45.944,45.944,0,0,1,10.891-1.207,41.363,41.363,0,0,1,11.121,1.348,25.383,25.383,0,0,1,8.08,3.709,16.105,16.105,0,0,1,4.924,5.506,14.126,14.126,0,0,1,1.652,6.715,16.618,16.618,0,0,1-1.385,7.2,13.388,13.388,0,0,1-3.752,4.77,21.037,21.037,0,0,1-5.439,3.1,64.642,64.642,0,0,1-6.467,2.137q-3.384.92-6.852,1.826a44.617,44.617,0,0,0-6.576,2.266,26.067,26.067,0,0,0-5.676,3.387,14.3,14.3,0,0,0-4.061,5.178l.656.232a17.091,17.091,0,0,1,2.039-2.1,18.629,18.629,0,0,1,2.92-2.111,18.276,18.276,0,0,1,3.738-1.658,14.6,14.6,0,0,1,4.535-.674,27.659,27.659,0,0,1,4.238.273c1.146.176,2.2.363,3.15.559s1.846.377,2.7.553a13.393,13.393,0,0,0,2.8.273,7.387,7.387,0,0,0,4.584-1.27c1.1-.85,1.652-2.428,1.652-4.734h7.58a39.619,39.619,0,0,1-1.383,11.68,15.266,15.266,0,0,1-3.795,6.58,11.186,11.186,0,0,1-5.713,2.865,38.857,38.857,0,0,1-7.076.613A28.623,28.623,0,0,1,19008.363,15598.08Zm-116.469,0q-2.786-.574-5.35-1.252c-1.705-.449-3.332-.867-4.879-1.268a17.835,17.835,0,0,0-4.373-.6,6.614,6.614,0,0,0-2.785.48,7.059,7.059,0,0,0-1.639,1.02,4.921,4.921,0,0,0-1.117,1.42h-8.809a34.363,34.363,0,0,1,1.287-9.98,27.156,27.156,0,0,1,3.424-7.352,25.391,25.391,0,0,1,4.887-5.383,46.193,46.193,0,0,1,5.6-3.947q2.839-1.693,5.6-3.035a42.551,42.551,0,0,0,4.887-2.775,14.48,14.48,0,0,0,3.424-3.076,6.211,6.211,0,0,0,1.287-3.922,5.556,5.556,0,0,0-2.635-5.047,11.724,11.724,0,0,0-6.332-1.65,25.984,25.984,0,0,0-4.693.383,14.356,14.356,0,0,0-3.959,1.348,10.559,10.559,0,0,1,4.076,2.232,5.766,5.766,0,0,1,1.729,4.543,5.939,5.939,0,0,1-.594,2.592,7.415,7.415,0,0,1-1.73,2.289,7.955,7.955,0,0,1-2.867,1.621,12.437,12.437,0,0,1-3.928.576,11.516,11.516,0,0,1-3.4-.541,8.758,8.758,0,0,1-3.156-1.729,9.15,9.15,0,0,1-2.314-3.121,11,11,0,0,1-.9-4.693,12.332,12.332,0,0,1,1.967-6.77,17.5,17.5,0,0,1,5.5-5.33,28.462,28.462,0,0,1,8.5-3.467,45.981,45.981,0,0,1,10.887-1.207,41.363,41.363,0,0,1,11.121,1.348,25.284,25.284,0,0,1,8.08,3.709,16.085,16.085,0,0,1,4.924,5.506,14.13,14.13,0,0,1,1.656,6.715,16.591,16.591,0,0,1-1.383,7.2,13.431,13.431,0,0,1-3.752,4.77,21.01,21.01,0,0,1-5.445,3.1,63.625,63.625,0,0,1-6.465,2.137q-3.387.92-6.85,1.826a44.745,44.745,0,0,0-6.58,2.266,26.067,26.067,0,0,0-5.676,3.387,14.226,14.226,0,0,0-4.055,5.178l.654.232a17.47,17.47,0,0,1,2.035-2.1,18.658,18.658,0,0,1,6.658-3.77,14.649,14.649,0,0,1,4.543-.674,27.567,27.567,0,0,1,4.23.273q1.731.264,3.15.559c.955.188,1.854.377,2.7.553a13.464,13.464,0,0,0,2.811.273,7.38,7.38,0,0,0,4.578-1.27c1.105-.85,1.652-2.428,1.652-4.734h7.58a39.619,39.619,0,0,1-1.383,11.68,15.183,15.183,0,0,1-3.789,6.58,11.2,11.2,0,0,1-5.711,2.865,39.006,39.006,0,0,1-7.084.613A28.708,28.708,0,0,1,18891.895,15598.08Zm144.959-.2v-14.271h3.084a3.561,3.561,0,0,0,3.016-1.287,4.518,4.518,0,0,0,.984-2.793v-18.5h-7.891v-12.7a21.064,21.064,0,0,0,3.563-.328,12.1,12.1,0,0,0,3.461-1.117,7.384,7.384,0,0,0,2.6-2.156,5.638,5.638,0,0,0,1.037-3.514h17.82v38.24c0,1.723.412,2.84,1.242,3.369a5.945,5.945,0,0,0,3.219.789h2.615v14.271Z" transform="translate(-18011.539 -15389.443)" fill="url(#o)"/><path d="M-42.288-8.4V0h-1.56V-3.6h-4.344V0h-1.56V-8.4h1.56v3.468h4.344V-8.4Zm4.56,1.92a3.124,3.124,0,0,1,2.166.678,2.621,2.621,0,0,1,.75,2.046V0h-1.416V-.78a1.745,1.745,0,0,1-.786.642,3.072,3.072,0,0,1-1.23.222A3.014,3.014,0,0,1-39.5-.162a1.947,1.947,0,0,1-.834-.684,1.736,1.736,0,0,1-.294-.99,1.7,1.7,0,0,1,.642-1.386,3.188,3.188,0,0,1,2.022-.522h1.656v-.1a1.313,1.313,0,0,0-.4-1.032,1.739,1.739,0,0,0-1.194-.36,3.446,3.446,0,0,0-1.062.168,2.609,2.609,0,0,0-.882.468l-.588-1.092a3.641,3.641,0,0,1,1.212-.588A5.393,5.393,0,0,1-37.728-6.48Zm-.2,5.472a1.937,1.937,0,0,0,1-.258A1.4,1.4,0,0,0-36.312-2v-.744H-37.86q-1.3,0-1.3.852a.765.765,0,0,0,.324.648A1.485,1.485,0,0,0-37.932-1.008ZM-29.34-6.48a3.4,3.4,0,0,1,1.674.408A2.942,2.942,0,0,1-26.508-4.92a3.43,3.43,0,0,1,.42,1.716,3.464,3.464,0,0,1-.42,1.722A2.932,2.932,0,0,1-27.666-.324,3.4,3.4,0,0,1-29.34.084,2.587,2.587,0,0,1-31.392-.78V2.328h-1.5V-6.408h1.428v.84a2.321,2.321,0,0,1,.918-.684A3.1,3.1,0,0,1-29.34-6.48Zm-.168,5.28a1.813,1.813,0,0,0,1.362-.552A2,2,0,0,0-27.612-3.2a2,2,0,0,0-.534-1.452,1.813,1.813,0,0,0-1.362-.552,1.929,1.929,0,0,0-.972.246,1.778,1.778,0,0,0-.684.7A2.148,2.148,0,0,0-31.416-3.2a2.148,2.148,0,0,0,.252,1.056,1.778,1.778,0,0,0,.684.7A1.929,1.929,0,0,0-29.508-1.2Zm8.4-5.28a3.4,3.4,0,0,1,1.674.408A2.942,2.942,0,0,1-18.276-4.92a3.43,3.43,0,0,1,.42,1.716,3.464,3.464,0,0,1-.42,1.722A2.932,2.932,0,0,1-19.434-.324a3.4,3.4,0,0,1-1.674.408A2.587,2.587,0,0,1-23.16-.78V2.328h-1.5V-6.408h1.428v.84a2.321,2.321,0,0,1,.918-.684A3.1,3.1,0,0,1-21.108-6.48Zm-.168,5.28a1.813,1.813,0,0,0,1.362-.552A2,2,0,0,0-19.38-3.2a2,2,0,0,0-.534-1.452,1.813,1.813,0,0,0-1.362-.552,1.929,1.929,0,0,0-.972.246,1.778,1.778,0,0,0-.684.7A2.148,2.148,0,0,0-23.184-3.2a2.148,2.148,0,0,0,.252,1.056,1.778,1.778,0,0,0,.684.7A1.929,1.929,0,0,0-21.276-1.2Zm10.668-5.208-3,6.924a3.223,3.223,0,0,1-1.02,1.47,2.443,2.443,0,0,1-1.452.426,2.98,2.98,0,0,1-.948-.156,2.1,2.1,0,0,1-.768-.432l.6-1.1a1.633,1.633,0,0,0,.51.324,1.56,1.56,0,0,0,.594.12,1.022,1.022,0,0,0,.654-.2,1.8,1.8,0,0,0,.474-.684l.108-.252-2.8-6.432h1.56l2.016,4.74,2.028-4.74ZM1.248-8.4V0H-.036L-4.668-5.688V0H-6.216V-8.4h1.284L-.3-2.712V-8.4ZM9.384-3.168q0,.156-.024.444H4.332A1.743,1.743,0,0,0,5.022-1.6a2.262,2.262,0,0,0,1.386.414,2.336,2.336,0,0,0,1.74-.7l.8.924A2.709,2.709,0,0,1,7.86-.18,3.977,3.977,0,0,1,6.372.084a3.96,3.96,0,0,1-1.86-.42A3.025,3.025,0,0,1,3.27-1.506a3.3,3.3,0,0,1-.438-1.7A3.353,3.353,0,0,1,3.258-4.89,3.022,3.022,0,0,1,4.44-6.06a3.449,3.449,0,0,1,1.7-.42,3.362,3.362,0,0,1,1.674.414A2.932,2.932,0,0,1,8.97-4.9,3.53,3.53,0,0,1,9.384-3.168ZM6.144-5.28a1.809,1.809,0,0,0-1.218.426A1.792,1.792,0,0,0,4.32-3.72H7.956a1.768,1.768,0,0,0-.588-1.128A1.788,1.788,0,0,0,6.144-5.28ZM20.7-6.408,18.336,0H16.9L15.24-4.416,13.56,0H12.12L9.768-6.408h1.416L12.876-1.68,14.64-6.408H15.9l1.728,4.752,1.74-4.752Zm8.112,3.444V0h-1.56V-2.94l-3.3-5.46H25.62l2.46,4.092L30.564-8.4H32.1Zm9.468-.2q0,.156-.024.444H33.228a1.743,1.743,0,0,0,.69,1.122,2.262,2.262,0,0,0,1.386.414,2.336,2.336,0,0,0,1.74-.7l.8.924a2.709,2.709,0,0,1-1.092.78,3.977,3.977,0,0,1-1.488.264,3.96,3.96,0,0,1-1.86-.42,3.025,3.025,0,0,1-1.242-1.17,3.3,3.3,0,0,1-.438-1.7,3.353,3.353,0,0,1,.426-1.686,3.022,3.022,0,0,1,1.182-1.17,3.449,3.449,0,0,1,1.7-.42,3.362,3.362,0,0,1,1.674.414A2.932,2.932,0,0,1,37.866-4.9,3.53,3.53,0,0,1,38.28-3.168ZM35.04-5.28a1.809,1.809,0,0,0-1.218.426,1.792,1.792,0,0,0-.606,1.134h3.636a1.768,1.768,0,0,0-.588-1.128A1.788,1.788,0,0,0,35.04-5.28Zm6.948-1.2a3.124,3.124,0,0,1,2.166.678,2.621,2.621,0,0,1,.75,2.046V0H43.488V-.78a1.745,1.745,0,0,1-.786.642,3.072,3.072,0,0,1-1.23.222,3.014,3.014,0,0,1-1.26-.246,1.947,1.947,0,0,1-.834-.684,1.736,1.736,0,0,1-.294-.99,1.7,1.7,0,0,1,.642-1.386,3.188,3.188,0,0,1,2.022-.522H43.4v-.1A1.313,1.313,0,0,0,43-4.872a1.739,1.739,0,0,0-1.194-.36,3.446,3.446,0,0,0-1.062.168,2.609,2.609,0,0,0-.882.468l-.588-1.092a3.641,3.641,0,0,1,1.212-.588A5.393,5.393,0,0,1,41.988-6.48Zm-.2,5.472a1.937,1.937,0,0,0,1-.258A1.4,1.4,0,0,0,43.4-2v-.744H41.856q-1.3,0-1.3.852a.765.765,0,0,0,.324.648A1.485,1.485,0,0,0,41.784-1.008Zm6.468-4.464a2.5,2.5,0,0,1,2.28-1.008v1.428a1.9,1.9,0,0,0-.348-.036,1.812,1.812,0,0,0-1.368.51,2.034,2.034,0,0,0-.492,1.47V0h-1.5V-6.408h1.428Z" transform="translate(956 140)" fill="#ffdf87"/><g transform="matrix(1, 0, 0, 1, 740.68, 101)" filter="url(#p)"><path d="M446.786,455.923a5.467,5.467,0,1,1,5.467,5.468,5.468,5.468,0,0,1-5.467-5.468m-2.956,0a8.423,8.423,0,1,0,8.423-8.423,8.423,8.423,0,0,0-8.423,8.423m15.211-8.757a1.968,1.968,0,1,0,1.969-1.968h0a1.969,1.969,0,0,0-1.968,1.968m-13.415,22.109a9.064,9.064,0,0,1-3.046-.564,5.431,5.431,0,0,1-3.114-3.112,9.059,9.059,0,0,1-.564-3.046c-.079-1.729-.1-2.248-.1-6.629s.017-4.9.1-6.629a9.13,9.13,0,0,1,.564-3.046,5.428,5.428,0,0,1,3.114-3.114,9.058,9.058,0,0,1,3.046-.564c1.729-.08,2.248-.1,6.627-.1s4.9.017,6.629.1a9.124,9.124,0,0,1,3.046.564,5.429,5.429,0,0,1,3.114,3.114,9.059,9.059,0,0,1,.564,3.046c.08,1.73.1,2.248.1,6.629s-.016,4.9-.1,6.629a9.1,9.1,0,0,1-.564,3.046,5.431,5.431,0,0,1-3.114,3.112,9.053,9.053,0,0,1-3.046.564c-1.729.08-2.248.1-6.629.1s-4.9-.016-6.627-.1m-.136-29.656a12.03,12.03,0,0,0-3.982.762,8.386,8.386,0,0,0-4.8,4.8,12.03,12.03,0,0,0-.762,3.981c-.081,1.749-.1,2.308-.1,6.763s.018,5.014.1,6.763a12.029,12.029,0,0,0,.762,3.982,8.386,8.386,0,0,0,4.8,4.8,12.04,12.04,0,0,0,3.982.762c1.75.079,2.308.1,6.763.1s5.014-.019,6.763-.1a12.033,12.033,0,0,0,3.982-.762,8.386,8.386,0,0,0,4.8-4.8,12,12,0,0,0,.762-3.982c.079-1.75.1-2.308.1-6.763s-.019-5.014-.1-6.763a12.028,12.028,0,0,0-.762-3.981,8.389,8.389,0,0,0-4.8-4.8,12.013,12.013,0,0,0-3.981-.762c-1.749-.08-2.308-.1-6.762-.1s-5.014.019-6.764.1" transform="translate(-255.73 -376.46)" fill="#ff5050"/></g></g></svg>