<svg xmlns="http://www.w3.org/2000/svg" width="140.745" height="107.64" viewBox="0 0 140.745 107.64"><defs><style>.a{fill:#7c56ff;}.b{fill:#ffb656;}.c{fill:#fff;}.d{fill:#ff5428;}</style></defs><g transform="translate(-18.14)"><path class="a" d="M21.333,127.318a6.053,6.053,0,0,0,6.046,6.046h87.675a3.021,3.021,0,0,1,2.138.886l25.072,16.056V48.713a6.053,6.053,0,0,0-6.046-6.046H27.38a6.052,6.052,0,0,0-6.047,6.046Z" transform="translate(-3.193 -42.667)"/><g transform="translate(44 6.046)"><path class="b" d="M176.2,134.046H109.689a3.023,3.023,0,1,1,0-6.046H176.2a3.023,3.023,0,1,1,0,6.046Z" transform="translate(-106.666 -109.86)"/><path class="b" d="M170.149,198.046h-60.46a3.023,3.023,0,1,1,0-6.046h60.46a3.023,3.023,0,1,1,0,6.046Z" transform="translate(-106.666 -155.721)"/><path class="b" d="M145.969,262.046H109.689a3.023,3.023,0,1,1,0-6.047h36.279a3.023,3.023,0,1,1,0,6.047Z" transform="translate(-106.666 -201.58)"/><path class="b" d="M347.556,64a11.644,11.644,0,0,0-8.184,3.389l-36.8,36.793a3.01,3.01,0,0,0-.827,1.544l-3.023,15.122a3.024,3.024,0,0,0,2.964,3.617,3.088,3.088,0,0,0,.59-.059l15.111-3.023a3,3,0,0,0,1.547-.827l30.235-30.231,0,0v0l6.565-6.564v0A11.572,11.572,0,0,0,347.556,64Z" transform="translate(-244.245 -64)"/></g><path class="c" d="M332.7,157.013l-9.766,1.955,1.954-9.778,27.444-27.444,7.819,7.819Z" transform="translate(-217.64 -99.332)"/><path class="d" d="M453.992,94.769,449.564,99.2l-7.82-7.82,4.43-4.43a5.529,5.529,0,0,1,7.818,7.821Z" transform="translate(-302.772 -73.24)"/></g></svg>