<svg xmlns="http://www.w3.org/2000/svg" xmlns:xlink="http://www.w3.org/1999/xlink" width="45.052" height="64.154" viewBox="0 0 45.052 64.154"><defs><style>.a{fill:url(#a);}.b{fill:#fff;}</style><radialGradient id="a" cx="0.5" cy="0.746" r="0.502" gradientTransform="matrix(0.456, -0.89, 1.294, 0.663, -0.694, 0.697)" gradientUnits="objectBoundingBox"><stop offset="0" stop-color="#ffb710"/><stop offset="1" stop-color="#f60"/></radialGradient></defs><g transform="translate(-1285.948 -289.846)"><path class="a" d="M28.575-19.154c-1.733,5.537-4.135,11.8-.834,23.116,1.045,4.441,2.328-6.3,6.811-9.791C34.8,7.746,44.722,8.5,45,22.5a22.5,22.5,0,0,1-45,0C0,16.125-1.439,7.248,10.89-5.829,9.271-3.338,7.651,3.636,12.01,11.855,11.882,1.169,20.318-16.278,28.575-19.154Z" transform="translate(1286 309)"/><path class="b" d="M-3.8-11.9V0h-2.21V-5.1h-6.154V0h-2.21V-11.9h2.21v4.913h6.154V-11.9ZM3.273.119a5.151,5.151,0,0,1-2.482-.6A4.338,4.338,0,0,1-.935-2.134a4.681,4.681,0,0,1-.62-2.406,4.635,4.635,0,0,1,.62-2.4A4.356,4.356,0,0,1,.791-8.585a5.151,5.151,0,0,1,2.482-.6,5.186,5.186,0,0,1,2.5.6A4.356,4.356,0,0,1,7.5-6.936a4.635,4.635,0,0,1,.621,2.4A4.681,4.681,0,0,1,7.5-2.134,4.338,4.338,0,0,1,5.772-.476,5.186,5.186,0,0,1,3.273.119Zm0-1.819a2.6,2.6,0,0,0,1.938-.782,2.815,2.815,0,0,0,.765-2.057A2.815,2.815,0,0,0,5.211-6.6a2.6,2.6,0,0,0-1.938-.782,2.569,2.569,0,0,0-1.93.782A2.833,2.833,0,0,0,.587-4.539a2.833,2.833,0,0,0,.757,2.057A2.569,2.569,0,0,0,3.273-1.7ZM15.615-.493a2.5,2.5,0,0,1-.909.459,4.1,4.1,0,0,1-1.13.153,3.208,3.208,0,0,1-2.312-.782,3.01,3.01,0,0,1-.816-2.278V-7.31h-1.5v-1.7h1.5v-2.074h2.125V-9.01H15v1.7H12.572v4.318a1.436,1.436,0,0,0,.323,1.012,1.212,1.212,0,0,0,.935.349,1.867,1.867,0,0,0,1.19-.374Z" transform="translate(1308 338)"/></g></svg>