<svg xmlns="http://www.w3.org/2000/svg" width="179.611" height="32.329" viewBox="0 0 179.611 32.329"><g transform="translate(-12696.764 -12976.602)"><g transform="translate(12833.389 12976.602)"><g transform="translate(0 0)"><g transform="translate(12.795 10.323)"><path d="M170.689,176.681H148.364a3.947,3.947,0,0,0-3.933,3.933v14.139a3.947,3.947,0,0,0,3.933,3.933h22.324a3.947,3.947,0,0,0,3.933-3.933V180.614A3.936,3.936,0,0,0,170.689,176.681Zm1.816,18.125a1.431,1.431,0,0,1-1.426,1.426H148.32a1.431,1.431,0,0,1-1.426-1.426v-9.949H172.5Zm0-13.7H146.894v-.54a1.431,1.431,0,0,1,1.426-1.426h22.758a1.431,1.431,0,0,1,1.426,1.426Z" transform="translate(-144.431 -176.681)" fill="#005fff"/></g><path d="M16.445,68.046H30.292l-2.817-5.705a3.941,3.941,0,0,0-5.28-1.781l-20,9.886a3.941,3.941,0,0,0-1.781,5.28L6.683,88.4a3.942,3.942,0,0,0,4.562,2.055,5.922,5.922,0,0,1-.833-3.039V74.088A6.047,6.047,0,0,1,16.445,68.046Z" transform="translate(0 -60.15)" fill="#bee3ff"/><g transform="translate(16.737 23.24)"><path d="M191.482,327.584a2.519,2.519,0,0,0,1.931-.895,2.551,2.551,0,1,0,0-3.313,2.548,2.548,0,1,0-1.931,4.208Z" transform="translate(-188.931 -322.481)" fill="#ff9c39"/></g></g></g><g transform="translate(12696.764 12983.033)"><path d="M355.024,221.2H350a.981.981,0,0,0-.738.59l-2.067,12.99a.391.391,0,0,0,.443.443H350.3a.391.391,0,0,0,.443-.443l.59-3.69a.675.675,0,0,1,.738-.59H353.7q5.093,0,5.757-4.871a3.869,3.869,0,0,0-.59-3.248,5.954,5.954,0,0,0-3.838-1.181m.59,4.871c-.3,1.771-1.624,1.771-2.952,1.771h-.886l.59-3.4c0-.148.148-.3.443-.3h.3c.886,0,1.771,0,2.214.59.3.148.3.59.3,1.329" transform="translate(-283.133 -215)" fill="#139ad6"/><g transform="translate(27.9 6.2)"><path d="M159.024,221.2H154a.981.981,0,0,0-.738.59l-2.067,12.99a.391.391,0,0,0,.443.443H154a.981.981,0,0,0,.738-.59l.59-3.543a.675.675,0,0,1,.738-.59H157.7q5.093,0,5.757-4.871a3.869,3.869,0,0,0-.59-3.248,5.674,5.674,0,0,0-3.838-1.181m.59,4.871c-.3,1.771-1.624,1.771-2.952,1.771h-.738l.59-3.4c0-.148.148-.3.443-.3h.3c.886,0,1.771,0,2.214.59a1.581,1.581,0,0,1,.148,1.329" transform="translate(-151.2 -221.2)" fill="#263b80"/><path d="M225.358,245.5H223c-.148,0-.443.148-.443.3l-.148.738-.148-.3a3.472,3.472,0,0,0-2.8-1.033,5.672,5.672,0,0,0-5.462,4.871,4.4,4.4,0,0,0,.886,3.69,3.72,3.72,0,0,0,3.1,1.181,4.718,4.718,0,0,0,3.4-1.329l-.148.738a.391.391,0,0,0,.443.443h2.214a.981.981,0,0,0,.738-.59l1.329-8.267c-.148-.148-.443-.443-.59-.443m-3.4,4.724a2.855,2.855,0,0,1-2.8,2.362,2.361,2.361,0,0,1-1.624-.59,3.148,3.148,0,0,1-.443-1.771,2.633,2.633,0,0,1,4.281-1.771,2.577,2.577,0,0,1,.59,1.771" transform="translate(-202.329 -240.771)" fill="#263b80"/></g><path d="M420.558,245.5H418.2c-.148,0-.443.148-.443.3l-.148.738-.148-.3a3.472,3.472,0,0,0-2.8-1.033,5.672,5.672,0,0,0-5.462,4.871,4.4,4.4,0,0,0,.886,3.69,3.72,3.72,0,0,0,3.1,1.181,4.718,4.718,0,0,0,3.4-1.329l-.148.738a.391.391,0,0,0,.443.443h2.214a.981.981,0,0,0,.738-.59l1.329-8.267c-.148-.148-.3-.443-.591-.443m-3.4,4.724a2.855,2.855,0,0,1-2.8,2.362,2.361,2.361,0,0,1-1.624-.59,3.148,3.148,0,0,1-.443-1.771,2.633,2.633,0,0,1,4.281-1.771,1.694,1.694,0,0,1,.59,1.771" transform="translate(-333.61 -234.571)" fill="#139ad6"/><path d="M295.367,246.8h-2.51a.767.767,0,0,0-.59.3l-3.248,5.019-1.476-4.724a.682.682,0,0,0-.738-.443h-2.362c-.3,0-.443.3-.443.59l2.657,7.824-2.51,3.543c-.148.3,0,.738.3.738H286.8a.767.767,0,0,0,.59-.3l8.119-11.662c.443-.443.148-.886-.148-.886" transform="translate(-231.595 -235.876)" fill="#263b80"/><path d="M477.267,222.039,475.2,235.325a.391.391,0,0,0,.443.443h2.067a.981.981,0,0,0,.738-.59l2.067-12.99a.391.391,0,0,0-.443-.443H477.71c-.148-.148-.3,0-.443.3" transform="translate(-387.514 -215.396)" fill="#139ad6"/><path d="M16.976,189.371c-1.033-1.181-2.952-1.771-5.61-1.771H3.986a1.266,1.266,0,0,0-1.033.886L0,207.824a.675.675,0,0,0,.59.738H5.167l1.181-7.233v.3a1.266,1.266,0,0,1,1.033-.886H9.6c4.281,0,7.529-1.771,8.562-6.643v-.443h0a5.155,5.155,0,0,0-1.181-4.281" transform="translate(0 -187.6)" fill="#263b80"/><path d="M38.886,220.4h0v.443c-1.033,5.019-4.281,6.643-8.562,6.643H28.11a1.266,1.266,0,0,0-1.033.886l-1.476,9a.541.541,0,0,0,.59.59h3.838a.827.827,0,0,0,.886-.738v-.148l.738-4.576v-.3a.827.827,0,0,1,.886-.738h.59c3.69,0,6.643-1.476,7.381-5.9.3-1.771.148-3.4-.738-4.429a1.512,1.512,0,0,0-.886-.738" transform="translate(-20.876 -214.348)" fill="#139ad6"/><path d="M45.029,216.043c-.148,0-.3-.148-.443-.148a.542.542,0,0,1-.443-.148,7.8,7.8,0,0,0-1.919-.148H36.467a.542.542,0,0,0-.443.148.812.812,0,0,0-.443.738L34.4,224.162v.3a1.266,1.266,0,0,1,1.033-.886h2.214c4.281,0,7.529-1.771,8.562-6.643a.542.542,0,0,1,.148-.443c-.3-.148-.443-.3-.738-.3-.443-.148-.443-.148-.59-.148" transform="translate(-28.052 -210.433)" fill="#232c65"/></g><path d="M-11825-12479a1,1,0,0,1-1-1v-4h-4a1,1,0,0,1-1-1v-1a1,1,0,0,1,1-1h4v-4a1,1,0,0,1,1-1h1a1,1,0,0,1,1,1v4h4a1,1,0,0,1,1,1v1a1,1,0,0,1-1,1h-4v4a1,1,0,0,1-1,1Z" transform="translate(24636 25480)" fill="#2a2a2a"/></g></svg>