<svg xmlns="http://www.w3.org/2000/svg" width="42.986" height="32.329" viewBox="0 0 42.986 32.329"><defs><style>.a{fill:#005fff;}.b{fill:#bee3ff;}.c{fill:#ff9c39;}</style></defs><g transform="translate(0 0)"><g transform="translate(12.795 10.323)"><path class="a" d="M170.689,176.681H148.364a3.947,3.947,0,0,0-3.933,3.933v14.139a3.947,3.947,0,0,0,3.933,3.933h22.324a3.947,3.947,0,0,0,3.933-3.933V180.614A3.936,3.936,0,0,0,170.689,176.681Zm1.816,18.125a1.431,1.431,0,0,1-1.426,1.426H148.32a1.431,1.431,0,0,1-1.426-1.426v-9.949H172.5Zm0-13.7H146.894v-.54a1.431,1.431,0,0,1,1.426-1.426h22.758a1.431,1.431,0,0,1,1.426,1.426Z" transform="translate(-144.431 -176.681)"/></g><path class="b" d="M16.445,68.046H30.292l-2.817-5.705a3.941,3.941,0,0,0-5.28-1.781l-20,9.886a3.941,3.941,0,0,0-1.781,5.28L6.683,88.4a3.942,3.942,0,0,0,4.562,2.055,5.922,5.922,0,0,1-.833-3.039V74.088A6.047,6.047,0,0,1,16.445,68.046Z" transform="translate(0 -60.15)"/><g transform="translate(16.737 23.24)"><path class="c" d="M191.482,327.584a2.519,2.519,0,0,0,1.931-.895,2.551,2.551,0,1,0,0-3.313,2.548,2.548,0,1,0-1.931,4.208Z" transform="translate(-188.931 -322.481)"/></g></g></svg>