<svg xmlns="http://www.w3.org/2000/svg" xmlns:xlink="http://www.w3.org/1999/xlink" width="82" height="82" viewBox="0 0 82 82"><defs><style>.a{fill:url(#a);}</style><linearGradient id="a" x1="1" y1="0.868" x2="0.014" y2="0.9" gradientUnits="objectBoundingBox"><stop offset="0" stop-color="#ff5c87"/><stop offset="1" stop-color="#4761ff"/></linearGradient></defs><path class="a" d="M-11775,1704a40.741,40.741,0,0,1-15.958-3.222,40.866,40.866,0,0,1-13.033-8.787,40.867,40.867,0,0,1-8.786-13.032A40.726,40.726,0,0,1-11816,1663a40.722,40.722,0,0,1,3.223-15.958,40.87,40.87,0,0,1,8.786-13.032,40.868,40.868,0,0,1,13.033-8.787A40.737,40.737,0,0,1-11775,1622a40.738,40.738,0,0,1,15.959,3.222,40.861,40.861,0,0,1,13.032,8.787,40.872,40.872,0,0,1,8.787,13.032A40.745,40.745,0,0,1-11734,1663a40.748,40.748,0,0,1-3.222,15.959,40.87,40.87,0,0,1-8.787,13.032,40.859,40.859,0,0,1-13.032,8.787A40.742,40.742,0,0,1-11775,1704Zm0-67a26.028,26.028,0,0,0-26,26,26.029,26.029,0,0,0,26,26,26.03,26.03,0,0,0,26-26A26.029,26.029,0,0,0-11775,1637Z" transform="translate(11816.001 -1621.999)"/></svg>
