<svg xmlns="http://www.w3.org/2000/svg" xmlns:xlink="http://www.w3.org/1999/xlink" width="58" height="58" viewBox="0 0 58 58"><defs><style>.a{fill:url(#a);}</style><linearGradient id="a" x1="1" y1="0.868" x2="0.014" y2="0.9" gradientUnits="objectBoundingBox"><stop offset="0" stop-color="#ff5c87"/><stop offset="1" stop-color="#4761ff"/></linearGradient></defs><path class="a" d="M-11787,1680a28.817,28.817,0,0,1-11.287-2.279,28.9,28.9,0,0,1-9.219-6.215,28.92,28.92,0,0,1-6.215-9.218A28.806,28.806,0,0,1-11816,1651a28.8,28.8,0,0,1,2.279-11.287,28.922,28.922,0,0,1,6.215-9.218,28.9,28.9,0,0,1,9.219-6.215A28.815,28.815,0,0,1-11787,1622a28.816,28.816,0,0,1,11.288,2.279,28.889,28.889,0,0,1,9.218,6.215,28.908,28.908,0,0,1,6.216,9.218A28.825,28.825,0,0,1-11758,1651a28.827,28.827,0,0,1-2.278,11.288,28.9,28.9,0,0,1-6.216,9.218,28.887,28.887,0,0,1-9.218,6.215A28.818,28.818,0,0,1-11787,1680Zm0-47.389A18.409,18.409,0,0,0-11805.39,1651,18.411,18.411,0,0,0-11787,1669.39,18.412,18.412,0,0,0-11768.61,1651,18.411,18.411,0,0,0-11787,1632.61Z" transform="translate(11816.001 -1621.999)"/></svg>