<svg xmlns="http://www.w3.org/2000/svg" width="44" height="39.113" viewBox="0 0 44 39.113"><defs><style>.a{fill:#005fff;}.b{fill:#ff9429;}.c{fill:#a4c6ff;}</style></defs><g transform="translate(-1076 -7015.123)"><path class="a" d="M-345,338a21.86,21.86,0,0,1-8.563-1.729,21.923,21.923,0,0,1-6.993-4.715,21.922,21.922,0,0,1-4.715-6.993A21.859,21.859,0,0,1-367,316h7.6a14.3,14.3,0,0,0,4.223,10.178A14.3,14.3,0,0,0-345,330.4,14.416,14.416,0,0,0-330.6,316h7.6a21.859,21.859,0,0,1-1.729,8.563,21.923,21.923,0,0,1-4.715,6.993,21.923,21.923,0,0,1-6.993,4.715A21.864,21.864,0,0,1-345,338Z" transform="translate(1443 6716.235)"/><ellipse class="b" cx="7.111" cy="6.756" rx="7.111" ry="6.756" transform="translate(1081.689 7015.123)"/><circle class="c" cx="6.756" cy="6.756" r="6.756" transform="translate(1100.179 7015.123)"/></g></svg>