<svg xmlns="http://www.w3.org/2000/svg" width="44" height="45.801" viewBox="0 0 44 45.801"><defs><style>.a{fill:#ffc400;}.b{fill:#a4c6ff;}.c{fill:#005fff;}</style></defs><g transform="translate(-5.839)"><path class="a" d="M43.681,9.542A1.154,1.154,0,0,0,45.3,9.324a17.8,17.8,0,0,1,28.326,0,1.154,1.154,0,0,0,1.834-1.4,20.11,20.11,0,0,0-32,0A1.154,1.154,0,0,0,43.681,9.542Z" transform="translate(-31.622)"/><path class="b" d="M228.037,82.021a3.6,3.6,0,1,0,3.6-3.6A3.608,3.608,0,0,0,228.037,82.021Z" transform="translate(-187.933 -66.324)"/><path class="b" d="M221.47,131.107l-.916-.281a1.078,1.078,0,0,0-.961.167l-1.811,1.356-1.811-1.356a1.078,1.078,0,0,0-.961-.167l-.916.281a3.568,3.568,0,0,0-2.443,3.389v5.448a1.074,1.074,0,0,0,.177.591l1.827,2.781v7.3a1.077,1.077,0,0,0,1.077,1.077h6.1a1.077,1.077,0,0,0,1.077-1.077v-7.3l1.827-2.781a1.076,1.076,0,0,0,.177-.591V134.5A3.568,3.568,0,0,0,221.47,131.107Z" transform="translate(-174.073 -110.611)"/><path class="b" d="M25.828,85.625a3.6,3.6,0,1,0-3.6-3.6,3.608,3.608,0,0,0,3.6,3.6Z" transform="translate(-13.858 -66.324)"/><path class="b" d="M15.658,131.107l-.916-.281a1.078,1.078,0,0,0-.961.167l-1.811,1.356-1.811-1.356a1.078,1.078,0,0,0-.961-.167l-.916.281A3.568,3.568,0,0,0,5.839,134.5v5.448a1.074,1.074,0,0,0,.177.591l1.827,2.781v7.3A1.077,1.077,0,0,0,8.92,151.7h6.1a1.077,1.077,0,0,0,1.077-1.077v-7.3l1.827-2.781a1.076,1.076,0,0,0,.177-.591V134.5A3.568,3.568,0,0,0,15.658,131.107Z" transform="translate(0 -110.611)"/><path class="c" d="M127.654,43.357a4.648,4.648,0,1,0-4.648,4.648A4.654,4.654,0,0,0,127.654,43.357Z" transform="translate(-95.167 -32.74)"/><path class="c" d="M110.151,111.254l-.008,0-1.327-.407a.412.412,0,0,0-.508.253l-2.79,7.654a.5.5,0,0,1-.946,0l-2.79-7.654a.412.412,0,0,0-.387-.271c-.04,0-1.447.425-1.447.425a4.118,4.118,0,0,0-2.827,3.912v8.1a.413.413,0,0,0,.068.226l2.911,4.43v11.208a.412.412,0,0,0,.412.412h9.065a.412.412,0,0,0,.412-.412V127.916l2.911-4.43a.413.413,0,0,0,.068-.226v-8.118A4.092,4.092,0,0,0,110.151,111.254Z" transform="translate(-77.206 -93.735)"/><path class="c" d="M142.752,111.521a.614.614,0,0,0-.454-.189h-1.271a.614.614,0,0,0-.454.189.59.59,0,0,0-.078.695l.68,1.025-.318,2.684.627,1.667a.191.191,0,0,0,.359,0l.627-1.667-.318-2.684.68-1.025A.59.59,0,0,0,142.752,111.521Z" transform="translate(-113.824 -94.163)"/></g></svg>
