<svg xmlns="http://www.w3.org/2000/svg" width="43.557" height="43.557" viewBox="0 0 43.557 43.557"><defs><style>.a{fill:#a4c6ff;}.b{fill:#005fff;}.c{fill:#ffc400;}.d{fill:#fff;}</style></defs><g transform="translate(-221.985 -3284.443)"><path class="a" d="M24.349,45.485A21.779,21.779,0,1,1,46.128,23.707,21.78,21.78,0,0,1,24.349,45.485ZM42,21.881a.136.136,0,0,0,.068-.1.663.663,0,0,0,.21.382c0,.014,0,.011,0,.03.011,0,.019-.008.029-.008a.658.658,0,0,0,.415.155.671.671,0,0,0,.569-.328.327.327,0,0,1,.029.033c0-.022,0-.044-.007-.065a.66.66,0,0,0,.09-.32.682.682,0,0,0-.681-.681.672.672,0,0,0-.561.316c-.005,0,0-.02-.015-.015a.616.616,0,0,0-.1-.325v.705A.712.712,0,0,1,42,21.881Zm-31.274-.2c0-.206-.468-.555-.589-.555,0-.037-.191-.456-.263-.456,0-.142-.5-.777-.576-.5-.052.18.38.422.38.63.08,0,.418.64.485.751.738,1.247-.551.395-.551-.133a1.736,1.736,0,0,1-.425-.881,2.814,2.814,0,0,1-.359-.683c0-.4-.219-.588-.655-.588-.02-.039-.387-.554-.393-.554a1.442,1.442,0,0,0-.457-.75,5.277,5.277,0,0,1-.1-1.108,3.754,3.754,0,0,0-.144-1.165,18.995,18.995,0,0,0,10.729,25.9c.008-.675.059-1.484.212-1.484,0-.1.086-.523.163-.523a8.248,8.248,0,0,0,0-.881c-.1-.195.128-.444.2-.75.377-.189.11-2.087.395-2.087a12.93,12.93,0,0,0,.064-2.381c.072,0-.429-.532-.425-.523-.48,0-.817-.77-.817-1.108a2.054,2.054,0,0,1-.165-.554c.11,0-.687-1.165-.687-1.142-.422-.234.023-.561.065-.945-.366-.121,0-1.109.163-1.109a.307.307,0,0,1,.2-.26c.082.325.461-.162.163-.162,0-.215-.025-.675,0-.783,0-.332-.294-.983-.523-.294-.245-.121-.863-.1-.916-.489.038-.192-.353-.584-.49-.652.128-.335-.663-.783-.949-.783,0-.072-.151-.039-.2-.131-.291,0-.358-.392-.687-.392-.38,0-.762-.26-1.112-.26-.117-.233-.66-.142-.785-.392-.284,0-.4-.539-.4-.738-.012-.245-.207-1.092-.547-1.092ZM38.3,10.754a.069.069,0,0,1-.011.03c.02,0,.045.023.068.033C38.335,10.8,38.318,10.776,38.3,10.754Zm.41.451a.44.44,0,0,1,.072.231c.048,0,.071-.024.109-.034C38.831,11.335,38.767,11.272,38.708,11.2Zm1.183,6.2c.022-.588-.49-.49-.652-.817-.169,0-.23-.131-.459-.131a.28.28,0,0,0-.351.106c-.35.133-.139-.17-.4-.17.012-.336-.121-.429-.491-.392-.212.479-.539.766-.49,1.305.157.035.129.071.1.227.208.011,1.471-.065,1.471-.2.044,0,.263.451.263.065.176,0,.268.412.687.293,0,.084.7-.291.325-.291Zm.067,6.946c.025-.12-.06-.173-.131-.294.186,0-.589-1.439-.589-1.663-.118-.059-.27-.47-.3-.619a1.564,1.564,0,0,1-.392-.652,2.365,2.365,0,0,1-.621-.815c.234.026.588.074.588-.229-.158,0-.181-.195-.031-.195-.049-.2.106-.344.14-.5a3.691,3.691,0,0,0,.121-.706,1.078,1.078,0,0,0-.457.1c0,.132-.4-.033-.457-.033-.086-.172-.708.223-.882-.131-.282-.255-.206-.451-.3-.81-.046-.182-.3-.193-.446-.223-.426-.083-.118.508-.142.642.261,0-.165.324-.165.489-.441-.1-.294-.587-.554-.717-.078-.131-.016-.229-.2-.229,0-.174.093-.49-.1-.554,0-.084-.37-.118-.425-.229-.234,0-.779-.885-.946-.587-.1.191.088.237.128.392.339-.067.306.558.72.489a1.134,1.134,0,0,0,.031.261c.306-.072.271.227.425.227-.112.148-.466-.237-.369.087.056.188.025.348-.219.532,0-.2-.016-.75-.229-.75-.144-.289-.573-.219-.754-.489-.147,0-.2-.457-.457-.489a.511.511,0,0,1-.3.131c-.137.276-.915.029-.915.065-.012,0-.436,1.037-.46,1.173-.048.293-.283.3-.354.576-.035.139-.889.074-.889.176a.87.87,0,0,1-.687-.783,6.141,6.141,0,0,1,.132-1.175c.075.02.09.046.132.131.226-.084.753.056.753-.2q.329.008.2.261c.2.038.557.09.557-.2-.12,0-.132-.011-.132-.131.392-.407-.294-.775-.294-.977-.139-.046-.422-.347-.221-.234.17.094.792.289.547-.125a.045.045,0,0,0,.031-.031c.069.049.362.35.362.065.08,0,.391-.2.131-.2.025-.147.019-.27.031-.359.415.223.184-.152.393-.293,0,.271.223-.131.359-.131.162-.241.532-.054.622-.327-.2-.065-.163-.566-.163-.749.241.039.509-.325.546-.075.014.1.026.363.075.4.358.188.263-.108.263-.293-.12,0-.279-.419-.3-.621-.1.014-.256.054-.3.129-.357,0-.6-.129-.882-.129a5.058,5.058,0,0,1-.327-.425c-.2-.342.2-.242.261-.259,0-.324,1.349-.267,1.407-.784-.444,0,.457-.751.457-.749.3-.257.46-.479.834-.508.158-.011,1.914-.5,1.914-.276.071,0,.3.005.547.014a18.972,18.972,0,0,0-25.576-.3.482.482,0,0,1,.052.18c.178-.012.434-.127.491.1A1.118,1.118,0,0,1,12,9.707c.063.5-.221.2-.457.2a.658.658,0,0,0-.216-.084c-.072.068-.148.132-.221.2.008.022,0,.023.01.048.076,0,.037.118.255.191a4.851,4.851,0,0,0,.794.176,2.526,2.526,0,0,0,.523-.039c0-.027.449-.227.132-.227.044-.18-.037-.225-.23-.227.016-.191.47-.065.655-.065.142-.238,0-.21.129-.426.15-.265.328-.035.426-.29a.456.456,0,0,1,.328.323c.118.1.72.985.72.358.215.072.323.475.327.686.391-.057.425-.35.425-.653.09,0-.033-.146-.033-.2.146-.053.328.139.328-.064.063,0,.065.063.065.131.2.039.333-.023.457.02.086.03.042.475,0,.632-.049.2-.429.2-.429.294-.43.321.508.489.655.685a1.809,1.809,0,0,1-.425-.064c-.212,0-.727.225-.916.064.264,0,.353-.317.393-.619a.468.468,0,0,0-.6.3c-.114.4-.38-.016-.513.253-.052.016-.524.235-.524.162-.531.075-.392.525-.392,1.011.211.127.64.487.621.685.476.084.651.135,1.079.2a.52.52,0,0,0,.263.162c0,.28.255.23.49.23,0-.358.417.3.457.423-.057,0,.1.366.131.49-.065-.023-.086,0-.065.065.207.076.535.054.589-.163-.2,0-.132-.227-.132-.359a.245.245,0,0,1,.033-.456c0,.185.674-.116.294-.26a.734.734,0,0,0,0-.709c-.1-.114-.218,0-.265-.172.257-.064.068-.554.065-.783.082-.031.294.052.294,0,.252,0,.671.319.818-.067.421.192.086.374.524.229a1.89,1.89,0,0,0,.557.587c0,.023-.012.163.1.163,0,.1-.065-.06-.065.129.061.007.393.067.393-.064.211,0,.359-.259.359-.456.132-.086.363.717.523.717.117.182.491.448.491.619.079.08.162.059.162.294.1,0,.3-.391.3-.033a.619.619,0,0,1,.393.358c-.235,0-.012.229-.133.229,0,.226-.5.046-.619.033-.157.7-1.1.2-1.673.378a1.949,1.949,0,0,0-.913,1.089c.365,0,.525-.316.851-.425.265,0,.317-.161.557-.227,0,.067.065.031.065.1-.466,0-.182.3-.046.52a.561.561,0,0,0,.289.244,1.3,1.3,0,0,0-.11.246s0,0,0,0c-.088.03-.261.094-.3.163-.527.059-.267.023-.231-.1.019.045.208,0,.2.005-.031-.158-.079-.136-.033-.227-.286,0-.425.131-.655.131-.038.078-.238.261-.327.261a1.548,1.548,0,0,1-.393.685c0-.053-.466.293-.425.293-.1.167-.216.162-.263.423a2.2,2.2,0,0,0-.163.521c-.2.135-.278.685-.622.685-.211.419-.589.363-.589.913a2.873,2.873,0,0,1,.216.894c.049.23.125.47-.182.475-.022-.034-.237-.359-.2-.359a2.075,2.075,0,0,0-.261-.7c-.129-.181-.369.029-.557-.05-.08-.161-.623-.2-.817-.2.031.121.12.159.131.294a.742.742,0,0,1-.419.116c-.284-.039-.25-.261-.564-.23a.945.945,0,0,0-.851.962,2.881,2.881,0,0,0,0,.979c0,.276.229.476.229.685.222,0,.471.489.687.489.024.173-.109.2.261.2,0-.019.2-.127.229-.261-.256-.063,0-.392.163-.456,0,.233.327-.078.327-.1.037-.015.361-.131.361-.131,0-.264.246.026.065.131-.177,0-.163.294-.261.294-.042.21-.125.392-.174.6-.063.252.142.278.076.513a4.092,4.092,0,0,0,.785,0,.231.231,0,0,0-.033-.131c.38,0,.033.717.263.717,0,.271.131.482.131.652a.433.433,0,0,1,.229.489c.218.029.686.084.686-.2.331,0,.354.225.329.456.659,0,.246-.652.521-.652.026-.108.071-.127.135-.056.135.072.237-.135.344-.2a.887.887,0,0,1,.176-.093c.093.056.1.039.142.1a.981.981,0,0,0,.515-.208c.235.029.159.535.6.566a1.566,1.566,0,0,0,.739-.044c.038-.026.178.088.193.137.147,0,.136.128.2.125a.053.053,0,0,0,.067.031c.019.056.136.072.2.227,0,.142.294.166.294.26.211.106-.072.135.252.233a2.351,2.351,0,0,0,.535.159c.061-.233.26.031.361.031.052.106.079.026.129.131.3.253.1.155.229.425.146.1.192.427.231.619-.117,0-.034.448-.034.49-.142,0,.362.268.362-.067.207.034.343.26.49.26-.086.2.229.346.229.034.31.031.227.494.2.652.23,0,.3-.128.493-.152a1.331,1.331,0,0,1,.717-.233,1.36,1.36,0,0,1,1.361,1.361,1.344,1.344,0,0,1-1.154,1.319,2.382,2.382,0,0,1-.172.185c0,.065-.015.716-.034.716,0,.131-.1.848-.2.848,0,.369-.241.436-.327.783-.2.147-.736.392-.819.554-.154,0-.268.131-.425.131-.022.045-.355.359-.3.359-.025.231.018.776-.108.928-.084.1-.206.09-.152.248-.184,0,.011.131-.279.131a.647.647,0,0,0-.517.48.725.725,0,0,1-.316.629c0,.093-.425.12-.425.359.039,0,0,.444,0,.489a.774.774,0,0,0-.49.227c-.427,0-.376.044-.653.229,0,.057-.039.26-.1.26,0,.331-.235.03-.426.2.075,0,.17.325.131.325,0,.287-.178.312-.359.523-.086.057-.167.294-.229.294,0,.193-.1.369-.1.554.041,0,0,.083.031.161.091-.026.094-.129.131-.129,0-.163.26.1.1.1-.135.2-.28.208-.361.49-.082,0-.152.079-.212.172a18.945,18.945,0,0,0,21.014-8.009,5.223,5.223,0,0,1,.148-1.1c.133.1.233.282.327,0-.235-.046-.178-.128-.1-.325a.825.825,0,0,0,.418.112c.045-.084.08-.174.125-.259-.133-.1.05-.372.114-.241.034-.065.064-.133.1-.2-.015,0-.011.005-.033,0,0-.118.022-.1.1-.163a.12.12,0,0,0,0,.023,18.956,18.956,0,0,0,1.874-8.2c0-.1-.014-.189-.015-.286-.035.133-.1.278-.2.31,0,.086-.973.509-.915.685-.172,0-.773.172-.883.391a1.518,1.518,0,0,0-.655.261c-.607,0-.491-.716-.784-.716ZM42.725,16.9H42c-.005-.007-.011-.008-.016-.018-.037,0-.191-.346-.131-.425a.967.967,0,0,1,.117.008c-.061-.15-.128-.3-.195-.445a.94.94,0,0,1-.479.241c0,.056-.29.619,0,.619a.1.1,0,0,0,.008.029.677.677,0,0,0,.057,1.352h.268c.016.124.083.231.321.284.075.314.636.426.72.1-.237,0-.159-.227-.139-.381h.191a.681.681,0,0,0,0-1.361Zm-1.983,8.85c.048,0,.362-.005.362-.061a3.326,3.326,0,0,0,.949-.132c0,.422-.355.657-.3,1.077-.235,0-.132.242-.132.325-.152.094-.176.265-.359.359,0,.189-.425.5-.55.664-.142.181-.568.5-.623.725.015-.054-.779.826-.593.826,0,.165-.223,1.467.065,1.467,0,.114.246,1.207.1,1.207,0,.351-.229.566-.229.847-.112.076-.271.118-.327.23-.2,0-.3.425-.392.425,0,.453-.132.789-.132,1.3.037,0-.261.734-.261.781-.241.162-.851.743-.851,1.045,0,0-.425.6-.49.685a4.214,4.214,0,0,0-1.113.261c-.21,0-.751.165-.882-.033,0-.207-.113-.47-.131-.751-.1,0-.117-.423-.229-.423a11.246,11.246,0,0,1-.524-1.338,2.191,2.191,0,0,0-.131-.554c0-.449-.328-.824-.328-1.239-.1,0-.3-.912-.2-.912a10.226,10.226,0,0,1,.237-1.324,3.151,3.151,0,0,0-.139-1.352c-.056,0-.244-.312-.263-.391a.991.991,0,0,1-.359-.847,2.206,2.206,0,0,0,.2-1.175,1.462,1.462,0,0,0-.819-.1c-.211-.423-1.628-.162-2.029-.162,0,.231-.987-.045-1.079-.229-.241,0-.719-.512-.719-.75a2.685,2.685,0,0,1-.686-1.337c-.229-.114-.159-.555-.034-.555a2.326,2.326,0,0,0-.133-.693c-.039-.137.133-.286.133-.449a1.967,1.967,0,0,1,.265-1.15,4.446,4.446,0,0,0,.257-.486c.136-.342.177-.016.361-.321.176-.087.278-.378.459-.521.079-.1.082-.148,0-.229a1.964,1.964,0,0,0,.229-.618c.256-.355.075-.193.327-.163.093-.1.246-.359.392-.359a.413.413,0,0,1,.361-.2c0,.2.534-.064.589-.064a1.506,1.506,0,0,1,.818-.392c0-.223,1.16.063,1.342.033v-.1c.248.059.7,1.052.653,1.273a2.55,2.55,0,0,1,.491,0c0,.211.4.263.578.272.252.012.991-.026.991-.37a.306.306,0,0,1,.329.358c.221.024,1.531.05,1.439.325.192,0,.241.328.425.328-.037.226.229.815.425.815a1.027,1.027,0,0,0,.3.683,2.388,2.388,0,0,0,.686,1.044c-.123.231.186.422.263.652-.018,0,.067.342.162.392,0,.231.487,1.175.754,1.175.018.114-.25.166.1.192Zm-7.066-7.3c.05-.195.165-.044.271-.008.252.082.165,0,.351-.088C34.3,18.883,33.993,18.48,33.676,18.448Zm-.689-.979c.133,0,.17.6-.2.489,0-.148-.094-.423.1-.423C32.946,17.767,32.987,17.673,32.987,17.47Zm-.162-.391c.151.065.218.044.2-.065.2.065-.026.207-.065.359C32.854,17.272,32.885,17.237,32.825,17.079Zm-3.5-2.9c-.321-.083.331-.178.359-.26a.152.152,0,0,1-.142-.208c.049-.113.129.135.241.079.132-.014.392-.211.259.17s-.26.67-.75.676c-.176-.177-.007-.27.033-.457Zm1.211-1.337c.264,0,.033.2-.026.2.045.018-.008.176-.008.227.245,0,.249-.152.425-.2-.037.219-.282.261-.042.449.127.1.256.216.206.368.312,0,.358.3.294.652.173,0,.165.008.165-.165.167.046.155.2,0,.2-.155.306-.562.293-.851.293,0-.237-.048-.252-.267-.185-.3.091-.065-.238-.06-.4.033,0,.679.03.294-.1-.02-.351-.1-.456-.425-.456,0-.24-.084-.222-.124-.485-.056-.388.3.027.419-.4Zm-.1,2.119c0,.08-.163.144-.2.031.031.011.044,0,.031-.031Zm-2.683-3.5H26.391a.681.681,0,0,1,0-1.361h1.361a.681.681,0,1,1,0,1.361ZM19.822,23.5c.076,0,.165.03.165.1C19.887,23.6,19.759,23.694,19.822,23.5Zm-1.241.067c-.054.1-.5.086-.557-.034.163,0,.29.067.457,0,0-.09-.075-.162-.131-.26.178,0,.378.136.622.131,0-.151-.067.033,0-.163a.764.764,0,0,1,.359.358,4.855,4.855,0,0,0-.751-.031Zm-1.44-.783a.917.917,0,0,1-.589-.294c.162.007.323.074.425-.1.415.042.452.328.785.328.063.11.419.363.075.4a.756.756,0,0,1-.7-.332Zm.261.913c-.121,0-.321.053-.229-.2C17.334,23.524,17.41,23.591,17.4,23.7Zm.229-.033-.2.033C17.454,23.549,17.6,23.38,17.631,23.667Zm1.21,1.433c-.026.091-.022.1-.129.1.011-.042.02-.084.031-.129ZM15.9,22.394c.031.011.065.023.1.033.042.162.131.082.229.033C16.223,22.649,15.785,22.7,15.9,22.394Z" transform="translate(219.414 3282.515)"/><path class="b" d="M11.287,3A3.785,3.785,0,0,0,7.5,6.787c0,2.84,3.787,7.034,3.787,7.034s3.787-4.193,3.787-7.034A3.785,3.785,0,0,0,11.287,3Zm0,5.14A1.353,1.353,0,1,1,12.64,6.787,1.353,1.353,0,0,1,11.287,8.14Z" transform="translate(225.744 3283.669)"/><path class="c" d="M10.444,3A2.942,2.942,0,0,0,7.5,5.944c0,2.208,2.944,5.467,2.944,5.467s2.944-3.259,2.944-5.467A2.942,2.942,0,0,0,10.444,3Zm0,3.995a1.051,1.051,0,1,1,1.051-1.051A1.052,1.052,0,0,1,10.444,6.995Z" transform="translate(229.531 3304.09)"/><g transform="translate(-4.498 2)"><path class="b" d="M15.011,3A7.506,7.506,0,0,0,7.5,10.511c0,5.634,7.511,13.95,7.511,13.95s7.511-8.316,7.511-13.95A7.506,7.506,0,0,0,15.011,3Z" transform="translate(246.486 3300.269)"/><path class="d" d="M-11816,1629.532c0-1.466,1.789-2.659,3.984-2.659s3.99,1.193,3.99,2.659Zm1.77-5.318a2.218,2.218,0,0,1,2.219-2.215,2.216,2.216,0,0,1,2.215,2.215,2.217,2.217,0,0,1-2.215,2.218A2.219,2.219,0,0,1-11814.23,1624.214Z" transform="translate(12073.513 1685.484)"/></g></g></svg>
