<svg xmlns="http://www.w3.org/2000/svg" width="18.491" height="23.976" viewBox="0 0 18.491 23.976"><g transform="translate(-1211.462 -735.506)"><path d="M9.245,0,0,4.2v7.61a9.4,9.4,0,0,0,1.433,4.776,17.984,17.984,0,0,0,3.055,3.756,30.227,30.227,0,0,0,4.757,3.634A30.23,30.23,0,0,0,14,20.342a17.99,17.99,0,0,0,3.055-3.757,9.4,9.4,0,0,0,1.433-4.776V4.2Z" transform="translate(1211.462 735.506)" fill="#00ffe5"/><path d="M11.417,2.008,5.536,7.888a1.176,1.176,0,0,1-1.663,0L.345,4.36A1.176,1.176,0,0,1,2.008,2.7l2.7,2.7L9.754.345a1.176,1.176,0,1,1,1.663,1.663Zm0,0" transform="matrix(1, 0.017, -0.017, 1, 1215.804, 742.451)" fill="#2a2a2a"/></g></svg>