<svg xmlns="http://www.w3.org/2000/svg" xmlns:xlink="http://www.w3.org/1999/xlink" width="740" height="71" viewBox="0 0 740 71"><defs><clipPath id="a"><rect width="543" height="11.417" fill="none"/></clipPath></defs><g transform="translate(0 0.094)"><circle cx="35.5" cy="35.5" r="35.5" transform="translate(0 -0.094)" fill="#fff"/><circle cx="25.5" cy="25.5" r="25.5" transform="translate(10 9.906)" fill="none" stroke="#7c56ff" stroke-linecap="round" stroke-width="10" opacity="0.15"/><path d="M45.5,0A25.1,25.1,0,0,1,70.6,25.1" transform="translate(-9.541 9.945)" fill="none" stroke="#7c56ff" stroke-linecap="round" stroke-width="10"/><text transform="translate(36 42.906)" fill="#7c56ff" font-size="20" font-family="SegoeUI, Segoe UI"><tspan x="-5.391" y="0">1</tspan></text><g transform="translate(224)"><circle cx="35.5" cy="35.5" r="35.5" transform="translate(0 -0.094)" fill="#fff"/><circle cx="25.5" cy="25.5" r="25.5" transform="translate(10 9.906)" fill="none" stroke="#7c56ff" stroke-linecap="round" stroke-width="10" opacity="0.15"/><path d="M37.5,0a25.693,25.693,0,0,1,0,51.386" transform="translate(-1.946 10.022)" fill="none" stroke="#7c56ff" stroke-linecap="round" stroke-width="10"/><text transform="translate(36 41.906)" fill="#7c56ff" font-size="20" font-family="SegoeUI, Segoe UI"><tspan x="-5.391" y="0">2</tspan></text></g><g transform="translate(447)"><ellipse cx="35" cy="35.5" rx="35" ry="35.5" transform="translate(0 -0.094)" fill="#fff"/><ellipse cx="26" cy="25.5" rx="26" ry="25.5" transform="translate(9 9.906)" opacity="0.15" stroke="#7c56ff" stroke-linecap="round" stroke-width="10" fill="none"/><path d="M25.693,0A25.693,25.693,0,1,1,0,25.693" transform="translate(9.13 10.022)" fill="none" stroke="#7c56ff" stroke-linecap="round" stroke-width="10"/><text transform="translate(35 42.906)" fill="#7c56ff" font-size="20" font-family="SegoeUI, Segoe UI"><tspan x="-5.391" y="0">3</tspan></text></g><g transform="translate(670)"><ellipse cx="35" cy="35.5" rx="35" ry="35.5" transform="translate(0 -0.094)" fill="#fff"/><ellipse cx="26" cy="25.5" rx="26" ry="25.5" transform="translate(9 9.906)" opacity="0.15" stroke="#7c56ff" stroke-linecap="round" stroke-width="10" fill="none"/><ellipse cx="26" cy="25.5" rx="26" ry="25.5" transform="translate(9 9.906)" fill="none" stroke="#7c56ff" stroke-linecap="round" stroke-width="10"/><text transform="translate(34 41.906)" fill="#7c56ff" font-size="20" font-family="SegoeUI, Segoe UI"><tspan x="-5.391" y="0">4</tspan></text></g><g transform="translate(98.5 29.795)" clip-path="url(#a)"><g transform="translate(-645.5 -414.365)"><g transform="translate(21)" opacity="0.55"><line x2="31" transform="translate(627.5 420.07)" stroke-dasharray="6" stroke="#fff" stroke-linecap="round" stroke-width="1.5" fill="none"/><path d="M0,0H32" transform="translate(683.5 420.07)" fill="none" stroke="#fff" stroke-linecap="round" stroke-width="1.5" stroke-dasharray="6"/><path d="M697.457,415.779l4.8,4.464-4.8,4.129" transform="translate(-28)" fill="none" stroke="#fff" stroke-linecap="round" stroke-linejoin="round" stroke-width="1.5"/><path d="M699.686,418.066l2.57,2.176-2.57,2.245" transform="translate(-34)" fill="none" stroke="#fff" stroke-linecap="round" stroke-linejoin="round" stroke-width="1.5"/></g></g><g transform="translate(-421.5 -414.365)"><g transform="translate(21)" opacity="0.55"><line x2="31" transform="translate(627.5 420.07)" stroke-dasharray="6" stroke="#fff" stroke-linecap="round" stroke-width="1.5" fill="none"/><path d="M0,0H32" transform="translate(683.5 420.07)" fill="none" stroke="#fff" stroke-linecap="round" stroke-width="1.5" stroke-dasharray="6"/><path d="M697.457,415.779l4.8,4.464-4.8,4.129" transform="translate(-28)" fill="none" stroke="#fff" stroke-linecap="round" stroke-linejoin="round" stroke-width="1.5"/><path d="M699.686,418.066l2.57,2.176-2.57,2.245" transform="translate(-34)" fill="none" stroke="#fff" stroke-linecap="round" stroke-linejoin="round" stroke-width="1.5"/></g></g><g transform="translate(-197.5 -414.365)"><g transform="translate(21)" opacity="0.55"><line x2="31" transform="translate(627.5 420.07)" stroke-dasharray="6" stroke="#fff" stroke-linecap="round" stroke-width="1.5" fill="none"/><path d="M0,0H32" transform="translate(683.5 420.07)" fill="none" stroke="#fff" stroke-linecap="round" stroke-width="1.5" stroke-dasharray="6"/><path d="M697.457,415.779l4.8,4.464-4.8,4.129" transform="translate(-28)" fill="none" stroke="#fff" stroke-linecap="round" stroke-linejoin="round" stroke-width="1.5"/><path d="M699.686,418.066l2.57,2.176-2.57,2.245" transform="translate(-34)" fill="none" stroke="#fff" stroke-linecap="round" stroke-linejoin="round" stroke-width="1.5"/></g></g></g></g></svg>