<svg xmlns="http://www.w3.org/2000/svg" width="42.57" height="29.799" viewBox="0 0 42.57 29.799"><defs><style>.a{fill:#fff;}</style></defs><path class="a" d="M35.759,44.944a6.393,6.393,0,0,0-5.96-8.687,6.353,6.353,0,0,0-3.545,1.078A10.643,10.643,0,0,0,6.386,42.643c0,.18.007.359.013.539A9.581,9.581,0,0,0,9.578,61.8H34.056a8.514,8.514,0,0,0,1.7-16.855Zm-8.84,5.9-7.011,7.011a1.068,1.068,0,0,1-1.5,0l-7.011-7.011a1.064,1.064,0,0,1,.752-1.816H16.5v-7.45a1.067,1.067,0,0,1,1.064-1.064h3.193a1.067,1.067,0,0,1,1.064,1.064v7.45h4.35A1.064,1.064,0,0,1,26.919,50.844Z" transform="translate(0 -32)"/></svg>