<svg xmlns="http://www.w3.org/2000/svg" xmlns:xlink="http://www.w3.org/1999/xlink" width="644" height="100" viewBox="0 0 644 100"><defs><clipPath id="a"><rect width="453" height="11.417" fill="none"/></clipPath></defs><g transform="translate(0.015)"><circle cx="50" cy="50" r="50" transform="translate(-0.015)" fill="#fff"/><circle cx="36" cy="36" r="36" transform="translate(13.985 14)" fill="none" stroke="#7c56ff" stroke-linecap="round" stroke-width="10" opacity="0.15"/><path d="M45.5,0A35.24,35.24,0,0,1,80.74,35.24" transform="translate(4.994 13.991)" fill="none" stroke="#7c56ff" stroke-linecap="round" stroke-width="10"/><text transform="translate(49.985 61)" fill="#7c56ff" font-size="28" font-family="SegoeUI, Segoe UI"><tspan x="-7.547" y="0">1</tspan></text><g transform="translate(181.676)"><circle cx="50" cy="50" r="50" transform="translate(0.309)" fill="#fff"/><circle cx="36" cy="36" r="36" transform="translate(14.309 14)" fill="none" stroke="#7c56ff" stroke-linecap="round" stroke-width="10" opacity="0.15"/><path d="M37.5,0a36.078,36.078,0,0,1,0,72.156" transform="translate(13.308 14.099)" fill="none" stroke="#7c56ff" stroke-linecap="round" stroke-width="10"/><text transform="translate(50.309 60)" fill="#7c56ff" font-size="28" font-family="SegoeUI, Segoe UI"><tspan x="-7.547" y="0">2</tspan></text></g><g transform="translate(365.35)"><ellipse cx="49" cy="50" rx="49" ry="50" transform="translate(-0.366)" fill="#fff"/><ellipse cx="36.5" cy="36" rx="36.5" ry="36" transform="translate(11.634 14)" opacity="0.15" stroke="#7c56ff" stroke-linecap="round" stroke-width="10" fill="none"/><path d="M36.078,0A36.078,36.078,0,1,1,0,36.078" transform="translate(12.608 14.099)" fill="none" stroke="#7c56ff" stroke-linecap="round" stroke-width="10"/><text transform="translate(47.634 61)" fill="#7c56ff" font-size="28" font-family="SegoeUI, Segoe UI"><tspan x="-7.547" y="0">3</tspan></text></g><g transform="translate(545.985)"><ellipse cx="49" cy="50" rx="49" ry="50" fill="#fff"/><ellipse cx="36.5" cy="36" rx="36.5" ry="36" transform="translate(12 14)" opacity="0.15" stroke="#7c56ff" stroke-linecap="round" stroke-width="10" fill="none"/><ellipse cx="36.5" cy="36" rx="36.5" ry="36" transform="translate(12 14)" fill="none" stroke="#7c56ff" stroke-linecap="round" stroke-width="10"/><text transform="translate(48 60)" fill="#7c56ff" font-size="28" font-family="SegoeUI, Segoe UI"><tspan x="-7.547" y="0">4</tspan></text></g><g transform="translate(98.5 48.482)" clip-path="url(#a)"><g transform="translate(-645.5 -414.365)"><g transform="translate(30)" opacity="0.55"><line x2="22" transform="translate(627.5 420.07)" stroke-dasharray="6" stroke="#fff" stroke-linecap="round" stroke-width="1.5" fill="none"/><path d="M11.75,0H32" transform="translate(656.5 420.07)" fill="none" stroke="#fff" stroke-linecap="round" stroke-width="1.5" stroke-dasharray="6"/><path d="M697.457,415.779l4.8,4.464-4.8,4.129" transform="translate(-40)" fill="none" stroke="#fff" stroke-linecap="round" stroke-linejoin="round" stroke-width="1.5"/><path d="M699.686,418.066l2.57,2.176-2.57,2.245" transform="translate(-46)" fill="none" stroke="#fff" stroke-linecap="round" stroke-linejoin="round" stroke-width="1.5"/></g></g><g transform="translate(-466.5 -414.365)"><g transform="translate(30)" opacity="0.55"><line x2="22" transform="translate(627.5 420.07)" stroke-dasharray="6" stroke="#fff" stroke-linecap="round" stroke-width="1.5" fill="none"/><path d="M11.75,0H32" transform="translate(656.5 420.07)" fill="none" stroke="#fff" stroke-linecap="round" stroke-width="1.5" stroke-dasharray="6"/><path d="M697.457,415.779l4.8,4.464-4.8,4.129" transform="translate(-40)" fill="none" stroke="#fff" stroke-linecap="round" stroke-linejoin="round" stroke-width="1.5"/><path d="M699.686,418.066l2.57,2.176-2.57,2.245" transform="translate(-46)" fill="none" stroke="#fff" stroke-linecap="round" stroke-linejoin="round" stroke-width="1.5"/></g></g><g transform="translate(-287.5 -414.365)"><g transform="translate(30)" opacity="0.55"><line x2="22" transform="translate(627.5 420.07)" stroke-dasharray="6" stroke="#fff" stroke-linecap="round" stroke-width="1.5" fill="none"/><path d="M11.75,0H32" transform="translate(656.5 420.07)" fill="none" stroke="#fff" stroke-linecap="round" stroke-width="1.5" stroke-dasharray="6"/><path d="M697.457,415.779l4.8,4.464-4.8,4.129" transform="translate(-40)" fill="none" stroke="#fff" stroke-linecap="round" stroke-linejoin="round" stroke-width="1.5"/><path d="M699.686,418.066l2.57,2.176-2.57,2.245" transform="translate(-46)" fill="none" stroke="#fff" stroke-linecap="round" stroke-linejoin="round" stroke-width="1.5"/></g></g></g></g></svg>