<svg xmlns="http://www.w3.org/2000/svg" width="244.409" height="46.403" viewBox="0 0 244.409 46.403"><defs><style>.a{fill:#f16485;}</style></defs><path class="a" d="M-86.955-11.153a23.24,23.24,0,0,1-3.488,6.472c-1.561,1.744-3.626,2.2-8.629,2.2-3.121,0-5.691,0-7.022-.78-1.285-.826-1.652-2.341-1.652-5.508V-21.113h6.288c6.013,0,6.518.367,7.481,5.278h2.065V-29.008h-2.065c-.872,4.544-1.331,5.095-7.481,5.095h-6.288V-38.968c0-2.02.138-2.2,2.387-2.2h5.095c4.728,0,6.609.459,7.619,1.928A18.542,18.542,0,0,1-90.4-33.414l2.111-.275c-.275-3.764-.551-8.216-.643-9.96h-31.119v2.02c5.324.459,5.921.643,5.921,6.793v26.3c0,5.508-.6,6.15-6.793,6.609V0H-87.23c.6-2.157,1.928-8.354,2.387-10.878ZM-36.466,0V-1.928c-4.452-.459-5.416-1.193-7.619-7.114-4.544-11.8-8.95-23.729-13.356-35.617l-2.387.6L-74.241-9.042c-2.433,5.967-3.4,6.426-7.849,7.114V0h15.146V-1.928c-5.187-.551-5.737-1.331-4.269-5.416.872-2.662,1.79-5.278,2.938-8.354h14.733c1.469,3.855,2.708,7.206,3.672,9.868.918,2.708.321,3.3-3.947,3.9V0ZM-54.55-18.727H-67.126C-65.061-24.143-62.9-29.88-60.7-35.434h.138ZM-6.908-33.506c-.6-4.406-.918-7.16-1.193-9.547a29.3,29.3,0,0,0-8.9-1.606c-8.95,0-14.366,5.554-14.366,12.255,0,7.39,6.563,10.74,11.337,13.127,5.232,2.754,8.9,5.049,8.9,9.914,0,4.819-2.937,7.895-7.94,7.895-7.022,0-10.373-7.022-11.521-11.291l-2.065.6A101.931,101.931,0,0,0-30.775-1.469a22,22,0,0,0,3.4,1.423,21.136,21.136,0,0,0,6.885,1.1c9.363,0,15.514-5.737,15.514-12.943,0-7.39-6.059-10.557-11.888-13.4-5.6-2.708-8.767-5-8.767-9.73,0-3.672,2.433-7.3,7.573-7.3,5.783,0,7.895,4.865,9.088,9.18Zm45.3.459c-.321-4.039-.688-9.226-.688-12.3H36.237a3.734,3.734,0,0,1-3.58,1.7H4.842c-2.02,0-2.892,0-3.9-1.7H-.528c-.138,3.718-.459,8.17-.78,12.53H.757c.872-3.167,1.469-5.141,2.341-6.288.918-1.423,2.341-2.065,8.308-2.065H15.4V-8.445c0,5.37-.6,6.1-6.885,6.518V0H28.847V-1.928c-6.518-.413-7.114-1.193-7.114-6.518V-41.171h4.682c5.232,0,6.426.5,7.573,2.065.872,1.147,1.606,2.938,2.341,6.288ZM76.123-11.153a23.24,23.24,0,0,1-3.488,6.472c-1.561,1.744-3.626,2.2-8.629,2.2-3.121,0-5.691,0-7.022-.78C55.7-4.085,55.331-5.6,55.331-8.767V-21.113h6.288c6.013,0,6.518.367,7.481,5.278h2.065V-29.008H69.1c-.872,4.544-1.331,5.095-7.481,5.095H55.331V-38.968c0-2.02.138-2.2,2.387-2.2h5.095c4.728,0,6.609.459,7.619,1.928a18.542,18.542,0,0,1,2.249,5.829l2.111-.275c-.275-3.764-.551-8.216-.643-9.96H43.03v2.02c5.324.459,5.921.643,5.921,6.793v26.3c0,5.508-.6,6.15-6.793,6.609V0H75.847c.6-2.157,1.928-8.354,2.387-10.878ZM123.49-1.285A8.766,8.766,0,0,1,118.67-4.36a54.971,54.971,0,0,1-5.554-7.068c-2.065-3.075-4.865-7.481-6.059-9.685,4.911-2.065,8.675-5.554,8.675-11.383a9.84,9.84,0,0,0-4.544-8.812c-2.616-1.744-5.967-2.341-11.153-2.341H82.457v2.02c5.324.367,5.921.734,5.921,6.472V-8.537c0,5.646-.643,6.15-6.2,6.609V0H100.77V-1.928c-5.508-.459-6.15-.964-6.15-6.609V-19h1.928c3.534,0,4.728.826,5.967,2.754,2.065,3.213,4.314,7.3,6.655,10.557,3.167,4.406,6.013,5.875,11.566,6.15A21.609,21.609,0,0,0,123.168.6ZM94.62-21.251V-37.774c0-1.744.275-2.524.734-2.892.5-.367,1.606-.643,3.672-.643,5.095,0,9.822,2.662,9.822,9.868,0,3.626-1.056,6.242-3.672,8.262-1.744,1.377-4.039,1.928-7.481,1.928Z" transform="translate(120.919 45.348)"/></svg>