<svg xmlns="http://www.w3.org/2000/svg" width="90.531" height="80" viewBox="0 0 90.531 80"><defs><style>.a{fill:#a4c6ff;}.b{fill:#005fff;}.c{fill:#ffc400;}.d{fill:#ff5151;opacity:0.45;}.e{fill:#ff5050;}.f{fill:#fff;}</style></defs><g transform="translate(-642.838 -977)"><path class="a" d="M18.543-2c9.931,0,16.543,7.331,16.543,17.262S27.035,39,18.543,39,2,25.193,2,15.262,8.612-2,18.543-2Z" transform="translate(665.516 979)"/><path class="b" d="M28.645,42.9c-2.572,0-5.24-1.006-8.4-3.164a86.877,86.877,0,0,1-10.7-9.248A35.364,35.364,0,0,1,1.464,19.643c-1.541-3.5-1.867-6.718-.97-9.561a11.818,11.818,0,0,1,5.15-6.343A28.341,28.341,0,0,1,16.578,0C20.383,4.832,24.723,7.493,28.8,7.493c3.86,0,8.008-2.421,11.678-6.82A27.4,27.4,0,0,1,50.3,4.61a11.7,11.7,0,0,1,4.717,6.1,11.7,11.7,0,0,1,.19,5.861,14.97,14.97,0,0,0-6.27-1.359,15.123,15.123,0,0,0-15.108,15.1,14.959,14.959,0,0,0,3.207,9.307l-.115.081-.105.076c-.035.024-.07.05-.1.073C33.756,41.933,31.193,42.9,28.645,42.9Z" transform="translate(655.847 1013.813)"/><path class="c" d="M12,24A12,12,0,0,1,3.515,3.515a12,12,0,0,1,16.97,16.97A11.921,11.921,0,0,1,12,24ZM7.059,10.588a1.412,1.412,0,1,0,0,2.823h3.529v3.53a1.412,1.412,0,1,0,2.823,0v-3.53h3.53a1.412,1.412,0,1,0,0-2.823h-3.53V7.059a1.412,1.412,0,1,0-2.823,0v3.529Z" transform="translate(691.582 1033.001)"/><path class="d" d="M6.019,10.117a1.048,1.048,0,0,1-.583-.272C3.367,7.968,2,6.73,2,5.211A2.189,2.189,0,0,1,4.211,3a2.407,2.407,0,0,1,1.809.84A2.407,2.407,0,0,1,7.828,3a2.189,2.189,0,0,1,2.211,2.211c0,1.519-1.367,2.757-3.437,4.638A1.04,1.04,0,0,1,6.019,10.117Z" transform="translate(640.838 1004.93)"/><path class="e" d="M10.335,16.18H3.774A3.774,3.774,0,0,1,0,12.4V3.776A3.774,3.774,0,0,1,3.774,0h17.8a3.774,3.774,0,0,1,3.774,3.776V12.4a3.774,3.774,0,0,1-3.774,3.777H15.008l-2.336,3.234Z" transform="translate(709.709 980.037) rotate(21)"/><path class="f" d="M5.063,8.965a1.32,1.32,0,0,1-.734-.342C1.722,6.258,0,4.7,0,2.785A2.758,2.758,0,0,1,2.785,0,3.032,3.032,0,0,1,5.063,1.058,3.032,3.032,0,0,1,7.342,0a2.758,2.758,0,0,1,2.785,2.785c0,1.914-1.722,3.474-4.329,5.843A1.31,1.31,0,0,1,5.063,8.965Z" transform="translate(715.04 986.679) rotate(21)"/></g></svg>
