<svg xmlns="http://www.w3.org/2000/svg" width="86.038" height="113.002" viewBox="0 0 86.038 113.002"><defs><style>.a{fill:#a4c6ff;}.b{fill:#005fff;}.c{fill:#ffc400;}</style></defs><g transform="translate(-666.962 -977)"><path class="a" d="M25-2C38.807-2,48,8.193,48,22S36.807,55,25,55,2,35.807,2,22,11.193-2,25-2Z" transform="translate(682 979)"/><path class="b" d="M13068.827,18918.65c-3.576,0-7.286-1.4-11.677-4.4-3.784-2.588-8.1-6.312-14.883-12.859-5.287-5.088-9.066-10.162-11.231-15.082-2.143-4.867-2.6-9.34-1.349-13.293a16.426,16.426,0,0,1,7.161-8.818c3.814-2.463,8.929-4.211,15.2-5.2,5.291,6.719,11.323,10.418,16.986,10.418,5.367,0,11.134-3.367,16.236-9.482a38.115,38.115,0,0,1,13.663,5.475,15.336,15.336,0,0,1,6.822,16.625,21,21,0,0,0-25.263,32.049l-.16.113-.146.105-.145.1C13075.933,18917.3,13072.368,18918.65,13068.827,18918.65Z" transform="translate(-12362.039 -17829.145)"/><path class="c" d="M13046,18893a17,17,0,1,1,12.021-4.98A16.9,16.9,0,0,1,13046,18893Zm-7-19a2,2,0,1,0,0,4h5v5a2,2,0,0,0,4,0v-5h5a2,2,0,1,0,0-4h-5v-5a2,2,0,0,0-4,0v5Z" transform="translate(-12310 -17803)"/></g></svg>