<svg xmlns="http://www.w3.org/2000/svg" xmlns:xlink="http://www.w3.org/1999/xlink" width="71.563" height="71.563" viewBox="0 0 71.563 71.563"><defs><style>.a,.b,.h{fill:#fff;}.a{clip-rule:evenodd;}.c{clip-path:url(#a);}.d{fill:#459cfd;}.e{fill:#37d76d;}.f{fill:#ffc123;}.g{fill:#e04d21;}.i{fill:#005fff;}.j,.k{stroke:none;}.k{fill:#d2d2d2;}</style><clipPath id="a"><path class="a" d="M41.1,42.691h-.018a2.014,2.014,0,0,1-4.014,0h-.038a16.029,16.029,0,0,0-15.12-13.924q-.436.027-.879.028c-.3,0-.587-.01-.877-.028A16.07,16.07,0,0,0,5.391,40.8H32.679a1.965,1.965,0,0,1,1.965,1.965V42.9a1.965,1.965,0,0,1-1.965,1.965H2.94A1.965,1.965,0,0,1,.976,42.9v-.136c0-.024,0-.047,0-.07H.974c0-.031.007-.062.01-.094s.005-.056.009-.083A19.924,19.924,0,0,1,13.07,26.369,13.848,13.848,0,0,1,6.918,14.878a14.115,14.115,0,0,1,28.227,0A13.848,13.848,0,0,1,29,26.367,19.941,19.941,0,0,1,41,41.846a1.959,1.959,0,0,1,.072.526l.018.184v.019C41.093,42.614,41.1,42.652,41.1,42.691ZM31.11,14.883a10.082,10.082,0,1,0-10.081,9.94A10.011,10.011,0,0,0,31.11,14.883Z" transform="translate(-0.974 -0.961)"/></clipPath></defs><g transform="translate(-2603 -963)"><g transform="translate(2603 963)"><g class="b" transform="translate(0)"><path class="j" d="M 53.67187881469727 70.5625 L 17.8906307220459 70.5625 C 13.37897968292236 70.5625 9.137370109558105 68.80557250976563 5.947150230407715 65.61534881591797 C 2.756930112838745 62.42512893676758 1 58.18352890014648 1 53.67187881469727 L 1 17.8906307220459 C 1 13.37897968292236 2.756930112838745 9.137370109558105 5.947150230407715 5.947150230407715 C 9.137370109558105 2.756930112838745 13.37897968292236 1 17.8906307220459 1 L 53.67187881469727 1 C 58.18352890014648 1 62.42512893676758 2.756930112838745 65.61534881591797 5.947150230407715 C 68.80557250976563 9.137370109558105 70.5625 13.37897968292236 70.5625 17.8906307220459 L 70.5625 53.67187881469727 C 70.5625 58.18352127075195 68.80557250976563 62.42512893676758 65.61534881591797 65.61534881591797 C 62.42512893676758 68.80557250976563 58.18352127075195 70.5625 53.67187881469727 70.5625 Z"/><path class="k" d="M 17.89062881469727 1.999992370605469 C 13.64608383178711 1.999992370605469 9.655593872070313 3.652908325195313 6.654251098632813 6.654251098632813 C 3.652908325195313 9.655593872070313 1.999992370605469 13.64608383178711 1.999992370605469 17.89062881469727 L 1.999992370605469 53.671875 C 1.999992370605469 57.91641616821289 3.652908325195313 61.90689468383789 6.654251098632813 64.90824127197266 C 9.655593872070313 67.90958404541016 13.64608383178711 69.56249237060547 17.89062881469727 69.56249237060547 L 53.671875 69.56249237060547 C 57.91641616821289 69.56249237060547 61.90689468383789 67.90958404541016 64.90824127197266 64.90824127197266 C 67.90958404541016 61.90689468383789 69.56249237060547 57.91641616821289 69.56249237060547 53.671875 L 69.56249237060547 17.89062881469727 C 69.56249237060547 13.64608383178711 67.90958404541016 9.655593872070313 64.90824127197266 6.654251098632813 C 61.90689468383789 3.652908325195313 57.91641616821289 1.999992370605469 53.671875 1.999992370605469 L 17.89062881469727 1.999992370605469 M 17.89062881469727 -7.62939453125e-06 L 53.671875 -7.62939453125e-06 C 63.55259323120117 -7.62939453125e-06 71.56249237060547 8.009906768798828 71.56249237060547 17.89062881469727 L 71.56249237060547 53.671875 C 71.56249237060547 63.55259323120117 63.55259323120117 71.56249237060547 53.671875 71.56249237060547 L 17.89062881469727 71.56249237060547 C 8.009906768798828 71.56249237060547 -7.62939453125e-06 63.55259323120117 -7.62939453125e-06 53.671875 L -7.62939453125e-06 17.89062881469727 C -7.62939453125e-06 8.009906768798828 8.009906768798828 -7.62939453125e-06 17.89062881469727 -7.62939453125e-06 Z"/></g><g class="c" transform="translate(14.777 13.403)"><g transform="translate(-0.554 -1.747)"><rect class="d" width="10" height="47" transform="translate(30.76 -0.102)"/><rect class="e" width="11" height="47" transform="translate(19.76 -0.102)"/><rect class="f" width="10" height="47" transform="translate(9.76 -0.102)"/><rect class="g" width="10" height="47" transform="translate(-0.24 -0.102)"/></g></g><g transform="translate(50.092 6.947)"><path class="g" d="M-12038.9,19084.709l-2.881-2.877-1.836.365.42-1.785-2.6-2.6a2.19,2.19,0,0,1,0-3.1l3.521-3.516a2.181,2.181,0,0,1,3.1,0l6.9,6.895a2.188,2.188,0,0,1,0,3.1l-3.52,3.52a2.168,2.168,0,0,1-1.549.643A2.168,2.168,0,0,1-12038.9,19084.709Z" transform="translate(12046.444 -19070.555)"/><path class="h" d="M3.169,5.61A.826.826,0,0,1,2.709,5.4C1.077,3.916,0,2.94,0,1.743A1.726,1.726,0,0,1,1.743,0,1.9,1.9,0,0,1,3.169.662,1.9,1.9,0,0,1,4.595,0,1.726,1.726,0,0,1,6.337,1.743c0,1.2-1.077,2.174-2.709,3.657A.819.819,0,0,1,3.169,5.61Z" transform="translate(7.198 3.604) rotate(47)"/></g></g><g transform="translate(2650.019 1010.019)"><path class="i" d="M6.106,0H18.319a6.106,6.106,0,0,1,6.106,6.106V18.319a6.106,6.106,0,0,1-6.106,6.106H6.106A6.106,6.106,0,0,1,0,18.319V6.106A6.106,6.106,0,0,1,6.106,0Z" transform="translate(0 0)"/><path class="h" d="M8.4,50.969A.873.873,0,1,1,6.891,50.1l.625-1.079a1.5,1.5,0,0,1,1.73.5Zm6.069-2.355H6.524a.874.874,0,1,1,0-1.748H8.752l2.857-4.946-.9-1.547a.873.873,0,1,1,1.512-.874l.389.673L13,39.5a.873.873,0,1,1,1.512.874l-3.749,6.493H13.48A1.2,1.2,0,0,1,14.472,48.615Zm4.286,0H17.491l.856,1.481a.873.873,0,1,1-1.512.874q-2.156-3.729-3.233-5.6a2.417,2.417,0,0,1,.31-2.962q.859,1.488,2.573,4.457h2.272a.874.874,0,1,1,0,1.748Z" transform="translate(-0.368 -33.074)"/></g></g></svg>
