<svg xmlns="http://www.w3.org/2000/svg" width="111.761" height="96.002" viewBox="0 0 111.761 96.002"><g transform="translate(-1417.999 -932)"><path d="M13061.955,18859a32.956,32.956,0,0,1,32.955,32.957c0,36.828-21.92,50.148-32.955,50.148s-32.955-13.32-32.955-50.148A32.956,32.956,0,0,1,13061.955,18859Z" transform="translate(-11588.074 -17914.104)" fill="#005fff"/><path d="M13181.45,18950.537a4.3,4.3,0,0,1,0-8.6h4.3a4.29,4.29,0,0,1,3.325,1.574c22.079.727,28.423-7.018,30.528-12.426V18909.8a36.723,36.723,0,0,0-73.446,0v26.4H13135.6a8.6,8.6,0,0,1-8.6-8.594v-14.834a8.592,8.592,0,0,1,8.6-8.594h4.015a43.6,43.6,0,0,1,86.534,0h4.019a8.588,8.588,0,0,1,8.595,8.594v14.834a8.594,8.594,0,0,1-8.595,8.594h-6.283c-7.279,12.279-24.964,13.613-35.107,13.088a4.276,4.276,0,0,1-3.025,1.246Z" transform="translate(-11709 -17934)" fill="#ffc400"/></g></svg>