<svg xmlns="http://www.w3.org/2000/svg" width="95.43" height="110.349" viewBox="0 0 95.43 110.349"><defs><style>.a{fill:#a4c6ff;}.b{fill:#005fff;}.c{fill:#ffc400;}.d{fill:#ff9100;}</style></defs><g transform="translate(-98.458 -1311.518) rotate(39)"><path class="a" d="M13096.466,18942.605h-59.519a4.185,4.185,0,0,1-3.661-2.1,4.113,4.113,0,0,1,.021-4.2l12.608-21.307h41.581l12.608,21.307a4.117,4.117,0,0,1,.021,4.2A4.183,4.183,0,0,1,13096.466,18942.605Z" transform="translate(-12095.361 -17944.582)"/><path class="b" d="M2.081,81.531l0-.016C1.957,80.768.869,73.928.319,64.9A156.264,156.264,0,0,1,.111,49.166a88.14,88.14,0,0,1,2.012-16.18A63.522,63.522,0,0,1,7.1,19.232,71.7,71.7,0,0,1,13.407,8.85,60.161,60.161,0,0,1,21.126,0l.008,0A61.343,61.343,0,0,1,28.848,8.85a71.579,71.579,0,0,1,6.31,10.383,63.671,63.671,0,0,1,4.975,13.754,88.6,88.6,0,0,1,2.023,16.18A156.781,156.781,0,0,1,41.974,64.9c-.549,9.318-1.675,16.334-1.725,16.627v0ZM8.947,38.789a11.946,11.946,0,1,0,11.943-12.1A12.032,12.032,0,0,0,8.947,38.789Zm3.187,0a8.76,8.76,0,1,1,8.757,8.873A8.814,8.814,0,0,1,12.134,38.787Z" transform="translate(950.512 917.898)"/><path class="a" d="M0,0H33.358V2.943A1.962,1.962,0,0,1,31.4,4.906H1.962A1.962,1.962,0,0,1,0,2.943Z" transform="translate(954.667 999.43)"/><rect class="c" width="4.906" height="15.698" rx="2.453" transform="translate(959.572 1005.317)"/><rect class="c" width="4.906" height="15.698" rx="2.453" transform="translate(979.195 1008.26)"/><rect class="d" width="4.906" height="27.471" rx="2.453" transform="translate(969.383 1013.166)"/></g></svg>