<svg xmlns="http://www.w3.org/2000/svg" width="57.246" height="74.228" viewBox="0 0 57.246 74.228"><defs><style>.a{fill:#005fff;}.b{fill:#fff;}.c{fill:#ffc400;}</style></defs><g transform="translate(-707.256 -970.211)"><path class="a" d="M28.623,0,0,13V36.562A29.119,29.119,0,0,0,4.436,51.349a55.679,55.679,0,0,0,9.459,11.63,93.58,93.58,0,0,0,14.728,11.25A93.589,93.589,0,0,0,43.351,62.979a55.7,55.7,0,0,0,9.459-11.63,29.118,29.118,0,0,0,4.436-14.786V13Z" transform="translate(707.256 970.211)"/><path class="b" d="M22.98,0,0,10.44V29.355A23.379,23.379,0,0,0,3.562,41.226a44.7,44.7,0,0,0,7.594,9.337A75.133,75.133,0,0,0,22.98,59.6a75.14,75.14,0,0,0,11.825-9.032A44.717,44.717,0,0,0,42.4,41.226a23.378,23.378,0,0,0,3.561-11.871V10.44Z" transform="translate(712.899 977.528)"/><path class="c" d="M25.911,4.557,12.565,17.9a2.668,2.668,0,0,1-3.775,0L.782,9.9A2.669,2.669,0,1,1,4.557,6.121l6.121,6.121L22.137.782a2.669,2.669,0,0,1,3.775,3.775Zm0,0" transform="matrix(1, 0.017, -0.017, 1, 724.159, 995.88)"/></g></svg>
