<svg xmlns="http://www.w3.org/2000/svg" xmlns:xlink="http://www.w3.org/1999/xlink" width="95.472" height="95.472" viewBox="0 0 95.472 95.472">
  <defs>
    <radialGradient id="radial-gradient" cx="0.5" cy="1" r="0.991" gradientTransform="matrix(0.999, 0.033, -0.033, 0.999, 0.033, -0.016)" gradientUnits="objectBoundingBox">
      <stop offset="0" stop-color="#ffaa01"/>
      <stop offset="1" stop-color="#ff3b3b"/>
    </radialGradient>
  </defs>
  <g id="组_4405" data-name="组 4405" transform="translate(-2603 -963.123)">
    <g id="组_4406" data-name="组 4406" transform="translate(5268 253.57)">
      <path id="路径_104" data-name="路径 104" d="M24.72,0H70.752a24.72,24.72,0,0,1,24.72,24.72V70.752a24.72,24.72,0,0,1-24.72,24.72H24.72A24.72,24.72,0,0,1,0,70.752V24.72A24.72,24.72,0,0,1,24.721,0Z" transform="translate(-2665 709.553)" fill="url(#radial-gradient)"/>
      <g id="组_130" data-name="组 130" transform="translate(-2641.824 732.968)">
        <g id="组_100" data-name="组 100">
          <path id="路径_55" data-name="路径 55" d="M138.138,103.463c0,7.259,6.133,13.139,13.706,13.139s13.706-5.881,13.706-13.139-6.134-13.139-13.706-13.139S138.138,96.2,138.138,103.463ZM127.288,136.276ZM127.288,136.193ZM127.288,136.173Zm49.111.166Zm0-.031ZM127.288,136.339Zm37-16.946-1.125-.01a3.528,3.528,0,0,0-1.341.322,18.327,18.327,0,0,1-1.72.829,22.008,22.008,0,0,1-16.41.021c-.833-.342-1.753-.85-1.753-.85a3.142,3.142,0,0,0-1.341-.322l-1.114.01c-4.489.571-9.206,4.387-10.558,8.514,0,0-1.439,2.79-1.644,8.265a2.491,2.491,0,0,0,1.352,2s7.648,4.708,23.192,4.708,23.192-4.708,23.192-4.708a2.664,2.664,0,0,0,1.352-2.022c-.195-5.455-1.59-8.131-1.59-8.131-1.233-4.148-6.015-8-10.493-8.628Zm12.116,16.8Zm0,.073Z" transform="translate(-127.277 -90.324)" fill="#fff"/>
        </g>
      </g>
      <path id="ic" d="M7.618,13.489a1.986,1.986,0,0,1-1.1-.515C2.59,9.416,0,7.07,0,4.19A4.149,4.149,0,0,1,4.19,0,4.562,4.562,0,0,1,7.618,1.592,4.562,4.562,0,0,1,11.047,0a4.149,4.149,0,0,1,4.19,4.19c0,2.88-2.59,5.226-6.514,8.792A1.97,1.97,0,0,1,7.618,13.489Z" transform="matrix(0.875, 0.485, -0.485, 0.875, -2594.636, 721.374)" fill="#fff"/>
    </g>
    <g id="组_449" data-name="组 449" transform="translate(2665.809 1025.81)">
      <path id="路径_1444" data-name="路径 1444" d="M8.157,0H24.471a8.157,8.157,0,0,1,8.157,8.157V24.471a8.157,8.157,0,0,1-8.157,8.157H8.157A8.157,8.157,0,0,1,0,24.471V8.157A8.157,8.157,0,0,1,8.157,0Z" transform="translate(0 0)" fill="#005fff"/>
      <path id="Font_Awesome_5_brands_app-store-ios" d="M9.327,54.968A1.166,1.166,0,1,1,7.308,53.8l.835-1.442a2,2,0,0,1,2.311.665Zm8.107-3.146H6.818a1.167,1.167,0,1,1,0-2.335H9.794l3.817-6.607-1.2-2.066a1.166,1.166,0,1,1,2.019-1.167l.519.9.519-.9a1.166,1.166,0,1,1,2.019,1.167l-5.008,8.673h3.624A1.6,1.6,0,0,1,17.434,51.822Zm5.726,0H21.467L22.611,53.8a1.166,1.166,0,1,1-2.019,1.167q-2.88-4.981-4.319-7.477a3.229,3.229,0,0,1,.414-3.957q1.147,1.987,3.438,5.953H23.16a1.167,1.167,0,1,1,0,2.335Z" transform="translate(1.406 -31.062)" fill="#fff"/>
    </g>
  </g>
</svg>
