<svg xmlns="http://www.w3.org/2000/svg" width="89.164" height="27.998" viewBox="0 0 89.164 27.998"><g transform="translate(-377.999 -481.002)"><path d="M6252,16669v-14a14,14,0,0,1,14-14,13.006,13.006,0,0,1,12,8h53.52c5.325,0,9.638,3.58,9.638,8v12Z" transform="translate(-5874 -16160)" fill="#2dc269"/><path d="M9.308-9.1V0H7.917L2.9-6.162V0H1.222V-9.1H2.613L7.631-2.938V-9.1ZM15.938.13a5.189,5.189,0,0,1-2.509-.6,4.477,4.477,0,0,1-1.755-1.677,4.607,4.607,0,0,1-.637-2.4,4.607,4.607,0,0,1,.637-2.4,4.477,4.477,0,0,1,1.755-1.677,5.189,5.189,0,0,1,2.509-.6,5.189,5.189,0,0,1,2.509.6A4.491,4.491,0,0,1,20.2-6.955a4.6,4.6,0,0,1,.637,2.405A4.6,4.6,0,0,1,20.2-2.145a4.491,4.491,0,0,1-1.755,1.67A5.189,5.189,0,0,1,15.938.13Zm0-1.482a3.283,3.283,0,0,0,1.638-.41A2.962,2.962,0,0,0,18.72-2.906a3.278,3.278,0,0,0,.416-1.645,3.278,3.278,0,0,0-.416-1.645,2.962,2.962,0,0,0-1.144-1.144,3.283,3.283,0,0,0-1.638-.409,3.283,3.283,0,0,0-1.638.409,2.962,2.962,0,0,0-1.144,1.144A3.278,3.278,0,0,0,12.74-4.55a3.278,3.278,0,0,0,.416,1.645A2.962,2.962,0,0,0,14.3-1.762,3.283,3.283,0,0,0,15.938-1.352ZM24.284-7.67H21.268V-9.1H28.99v1.43H25.974V0h-1.69ZM30.2-9.1h1.69V0H30.2ZM38.493.13A5.125,5.125,0,0,1,36-.475a4.456,4.456,0,0,1-1.742-1.67,4.634,4.634,0,0,1-.631-2.405,4.6,4.6,0,0,1,.637-2.405,4.5,4.5,0,0,1,1.749-1.67,5.125,5.125,0,0,1,2.49-.6,5.193,5.193,0,0,1,2.041.39,4.163,4.163,0,0,1,1.56,1.131L41.015-6.682a3.185,3.185,0,0,0-2.431-1.066,3.409,3.409,0,0,0-1.677.409A2.95,2.95,0,0,0,35.75-6.2a3.268,3.268,0,0,0-.416,1.651A3.268,3.268,0,0,0,35.75-2.9a2.95,2.95,0,0,0,1.157,1.138,3.409,3.409,0,0,0,1.677.41,3.167,3.167,0,0,0,2.431-1.079l1.092,1.04A4.152,4.152,0,0,1,40.541-.26,5.24,5.24,0,0,1,38.493.13Zm12-1.547V0H43.667V-9.1H50.31v1.417H45.357v2.366h4.394v1.391H45.357v2.509Z" transform="translate(407 504)" fill="#fff"/><path d="M10,1C4.718,1,0,4.522,0,9.339a7.348,7.348,0,0,0,1.706,4.687A13.093,13.093,0,0,1,.045,19.333,24,24,0,0,0,6.693,17.22C14.39,19.092,20,14.382,20,9.339,20,4.5,15.249,1,10,1Zm.833,8.5H9.167v-5h1.667ZM10,13.042A1.042,1.042,0,1,1,11.042,12,1.042,1.042,0,0,1,10,13.042Z" transform="translate(382.026 484.836)" fill="#fff"/></g></svg>