<svg xmlns="http://www.w3.org/2000/svg" xmlns:xlink="http://www.w3.org/1999/xlink" width="760" height="200" viewBox="0 0 760 200"><defs><style>.a,.d{fill:#fff;}.a{stroke:#707070;}.b{fill:url(#a);}.c{clip-path:url(#b);}.d{opacity:0.06;}</style><linearGradient id="a" x1="0.903" y1="-0.335" x2="0.185" y2="1.466" gradientUnits="objectBoundingBox"><stop offset="0" stop-color="#7c56ff"/><stop offset="1" stop-color="#ff8192"/></linearGradient><clipPath id="b"><rect class="a" width="475" height="200" rx="12" transform="translate(646 651.5)"/></clipPath></defs><g transform="translate(-361 -651.5)"><path class="b" d="M12,0H748a12,12,0,0,1,12,12V188a12,12,0,0,1-12,12H12A12,12,0,0,1,0,188V12A12,12,0,0,1,12,0Z" transform="translate(361 651.5)"/><g class="c"><path class="d" d="M123.1,184.64a61.544,61.544,0,1,1,61.537,61.551A61.544,61.544,0,0,1,123.1,184.64m-33.273,0a94.81,94.81,0,1,0,94.81-94.81,94.808,94.808,0,0,0-94.81,94.81M261.047,86.07a22.157,22.157,0,1,0,22.165-22.148H283.2A22.166,22.166,0,0,0,261.047,86.07m-151,248.863c-18-.82-27.787-3.819-34.289-6.353A57.381,57.381,0,0,1,54.518,314.77a56.971,56.971,0,0,1-13.811-21.223c-2.535-6.5-5.533-16.287-6.352-34.289-.895-19.462-1.074-25.308-1.074-74.617s.194-55.138,1.074-74.617c.82-18,3.841-27.769,6.352-34.287A57.382,57.382,0,0,1,54.518,54.5,56.909,56.909,0,0,1,75.756,40.689c6.5-2.535,16.287-5.533,34.289-6.351,19.462-.9,25.309-1.074,74.594-1.074s55.137.191,74.616,1.077c18,.82,27.77,3.84,34.288,6.351A57.2,57.2,0,0,1,314.782,54.5a57.215,57.215,0,0,1,13.811,21.238c2.535,6.5,5.533,16.287,6.351,34.288.9,19.479,1.074,25.31,1.074,74.617s-.178,55.137-1.074,74.617c-.819,18-3.833,27.786-6.351,34.288a61.128,61.128,0,0,1-35.05,35.034c-6.5,2.535-16.285,5.534-34.288,6.352-19.462.9-25.309,1.074-74.616,1.074s-55.138-.178-74.594-1.074M108.516,1.118C88.86,2.014,75.429,5.131,63.7,9.7a90.618,90.618,0,0,0-32.708,21.3A90.155,90.155,0,0,0,9.694,63.7C5.13,75.436,2.013,88.861,1.119,108.516.208,128.2,0,134.5,0,184.64s.208,56.436,1.119,76.123c.895,19.658,4.011,33.08,8.576,44.817a90.263,90.263,0,0,0,21.3,32.708,90.706,90.706,0,0,0,32.708,21.3c11.752,4.565,25.161,7.681,44.817,8.576,19.7.9,25.981,1.118,76.123,1.118s56.436-.209,76.123-1.118c19.657-.9,33.081-4.011,44.818-8.576a94.395,94.395,0,0,0,54-54c4.565-11.737,7.7-25.161,8.576-44.817.894-19.7,1.1-25.981,1.1-76.123s-.209-56.436-1.1-76.124c-.9-19.657-4.011-33.087-8.576-44.817a90.785,90.785,0,0,0-21.3-32.708A90.342,90.342,0,0,0,305.594,9.7C293.842,5.131,280.418,2,260.777,1.118,241.087.218,234.8,0,184.661,0s-56.44.208-76.137,1.118" transform="translate(840.924 468.266) rotate(30)"/></g></g></svg>