<svg xmlns="http://www.w3.org/2000/svg" xmlns:xlink="http://www.w3.org/1999/xlink" width="343" height="418" viewBox="0 0 343 418"><defs><style>.a,.d,.f{fill:#fff;}.b{fill:url(#a);}.c{clip-path:url(#b);}.d{opacity:0.055;}.e,.f{opacity:0.17;}.e{fill:url(#c);}.g,.k{fill:none;}.g{stroke:#ff826e;stroke-width:4px;}.h{fill:#ffb92d;}.i{fill:#2d6cff;}.j{stroke:none;}.l{filter:url(#d);}</style><linearGradient id="a" x1="0.022" y1="0.08" x2="1.014" y2="0.636" gradientUnits="objectBoundingBox"><stop offset="0" stop-color="#ff81e2"/><stop offset="1" stop-color="#2c85ff"/></linearGradient><clipPath id="b"><rect class="a" width="341" height="300" rx="12"/></clipPath><linearGradient id="c" x1="0.5" x2="0.5" y2="1" gradientUnits="objectBoundingBox"><stop offset="0" stop-color="#ffd6f8"/><stop offset="1" stop-color="#bbd4ff"/></linearGradient><filter id="d" x="42.043" y="-166.529" width="272.541" height="277.101" filterUnits="userSpaceOnUse"><feOffset input="SourceAlpha"/><feGaussianBlur stdDeviation="20" result="e"/><feFlood flood-color="#320053" flood-opacity="0.161"/><feComposite operator="in" in2="e"/><feComposite in="SourceGraphic"/></filter></defs><g transform="translate(2)"><rect class="b" width="343" height="418" rx="12" transform="translate(-2)"/><g class="c"><g transform="translate(-51.26 -255.199)"><g transform="translate(0)"><path class="d" d="M227.677,0C353.42,0,455.354,101.768,455.354,227.306S353.42,454.611,227.677,454.611,0,352.843,0,227.306,101.935,0,227.677,0Z"/><ellipse class="e" cx="141.702" cy="141.07" rx="141.702" ry="141.07" transform="translate(87.075 86.952)"/><g class="l" transform="matrix(1, 0, 0, 1, 49.26, 255.2)"><ellipse class="f" cx="76.27" cy="78.55" rx="76.27" ry="78.55" transform="translate(102.04 -106.53)"/></g></g><g transform="translate(77.104 116.418)"><g class="g" transform="translate(-5.264 159.777)"><ellipse class="j" cx="4.014" cy="4.008" rx="4.014" ry="4.008"/><ellipse class="k" cx="4.014" cy="4.008" rx="2.014" ry="2.008"/></g><ellipse class="h" cx="3.211" cy="3.206" rx="3.211" ry="3.206" transform="translate(182.006 143.345)"/><ellipse class="i" cx="3.613" cy="3.607" rx="3.613" ry="3.607" transform="translate(281.429 163.784)"/></g></g></g></g></svg>