<svg xmlns="http://www.w3.org/2000/svg" width="89.164" height="27.998" viewBox="0 0 89.164 27.998"><defs><style>.a{fill:#2dc269;}.b,.c{fill:#fff;}.b{font-size:13px;font-family:Montserrat-SemiBold, Montserrat;font-weight:600;letter-spacing:-0.005em;}</style></defs><g transform="translate(-377.999 -481.002)"><path class="a" d="M6252,16669v-14a14,14,0,0,1,14-14,13.006,13.006,0,0,1,12,8h53.52c5.325,0,9.638,3.58,9.638,8v12Z" transform="translate(-5874 -16160)"/><text class="b" transform="translate(407 504)"><tspan x="0" y="0">NOTICE</tspan></text><path class="c" d="M10,1C4.718,1,0,4.522,0,9.339a7.348,7.348,0,0,0,1.706,4.687A13.093,13.093,0,0,1,.045,19.333,24,24,0,0,0,6.693,17.22C14.39,19.092,20,14.382,20,9.339,20,4.5,15.249,1,10,1Zm.833,8.5H9.167v-5h1.667ZM10,13.042A1.042,1.042,0,1,1,11.042,12,1.042,1.042,0,0,1,10,13.042Z" transform="translate(382.026 484.836)"/></g></svg>