<svg xmlns="http://www.w3.org/2000/svg" width="48" height="48" viewBox="0 0 48 48"><defs><style>.a{opacity:0.24;}.b{fill:#fff;opacity:0.8;}</style></defs><g transform="translate(-671 -1117)"><path class="a" d="M0,0H37A11,11,0,0,1,48,11V48Z" transform="translate(671 1117)"/><path class="b" d="M19893.9,269.73l-2.828-2.83-2.828,2.83a2,2,0,0,1-2.828-2.831l2.828-2.828-2.828-2.83a2,2,0,1,1,2.832-2.826l2.826,2.826,2.826-2.826a2,2,0,1,1,2.832,2.826l-2.828,2.829,2.828,2.829a2,2,0,0,1-2.832,2.831Z" transform="translate(-19187.07 866.929)"/></g></svg>