<svg xmlns="http://www.w3.org/2000/svg" width="938" height="690" viewBox="0 0 938 690"><g transform="translate(-484 -360)"><circle cx="221" cy="221" r="221" transform="translate(732 608)" fill="#fff" opacity="0.17"/><g transform="translate(460 153)" fill="#fff" opacity="0.03"><path d="M 907.0040283203125 895.50048828125 L 78.99629211425781 895.50048828125 C 61.4349250793457 862.4459228515625 47.89098739624023 827.3172607421875 38.74068450927734 791.0885009765625 C 34.07080078125 772.5988159179688 30.50186157226563 753.6028442382813 28.13303756713867 734.6279907226563 C 25.72256660461426 715.319091796875 24.50033187866211 695.5936279296875 24.50033187866211 675.9998779296875 C 24.50033187866211 660.0188598632813 25.31409645080566 643.9022216796875 26.91915512084961 628.097900390625 C 28.50091934204102 612.5223388671875 30.88950729370117 596.8715209960938 34.0185661315918 581.5802612304688 C 37.10715484619141 566.48681640625 40.99127197265625 551.380859375 45.56303787231445 536.6820068359375 C 50.08374404907227 522.1477661132813 55.38409423828125 507.6658935546875 61.31715393066406 493.6386108398438 C 67.19527435302734 479.7409362792969 73.83291625976563 465.9622497558594 81.04538726806641 452.685302734375 C 88.20668792724609 439.5025939941406 96.10209655761719 426.5062561035156 104.5123291015625 414.0574340820313 C 121.272331237793 389.2494201660156 140.5199737548828 365.9210815429688 161.7206878662109 344.7203674316406 C 182.92138671875 323.5196533203125 206.2497406005859 304.2720031738281 231.0577392578125 287.5120239257813 C 243.5065612792969 279.1017761230469 256.5029296875 271.2063598632813 269.6856384277344 264.0450744628906 C 282.9625549316406 256.8326110839844 296.7412719726563 250.1949462890625 310.638916015625 244.3168334960938 C 324.6661987304688 238.3837738037109 339.1481018066406 233.0834197998047 353.6823425292969 228.5627136230469 C 368.3811645507813 223.9909515380859 383.4871520996094 220.1068267822266 398.58056640625 217.0182495117188 C 413.8718566894531 213.8891906738281 429.5226745605469 211.5005950927734 445.0982055664063 209.9188385009766 C 460.9025573730469 208.3137664794922 477.0191650390625 207.5000152587891 493.0002136230469 207.5000152587891 C 508.9812622070313 207.5000152587891 525.0977172851563 208.3137664794922 540.902099609375 209.9188385009766 C 556.4776000976563 211.5005950927734 572.1283569335938 213.8891906738281 587.4196166992188 217.0182495117188 C 602.5130615234375 220.1068267822266 617.618896484375 223.9909515380859 632.3177490234375 228.5627136230469 C 646.8521118164063 233.0834197998047 661.333984375 238.3837738037109 675.3611450195313 244.3168334960938 C 689.2587890625 250.1949462890625 703.0375366210938 256.8326110839844 716.314453125 264.0450744628906 C 729.4971313476563 271.2063598632813 742.4935302734375 279.1017761230469 754.9423217773438 287.5120239257813 C 779.7503051757813 304.2720031738281 803.0786743164063 323.5196533203125 824.2794799804688 344.7203674316406 C 845.480224609375 365.9210815429688 864.7278442382813 389.2494201660156 881.4878540039063 414.0574340820313 C 889.8980712890625 426.5062561035156 897.7936401367188 439.5025939941406 904.9548950195313 452.685302734375 C 912.1674194335938 465.9622497558594 918.804931640625 479.7409362792969 924.6831665039063 493.6386108398438 C 930.6162109375 507.6658935546875 935.9166870117188 522.1477661132813 940.437255859375 536.6820068359375 C 945.0091552734375 551.380859375 948.8932495117188 566.48681640625 951.9818725585938 581.5802612304688 C 955.1109008789063 596.8715209960938 957.49951171875 612.5223388671875 959.081298828125 628.097900390625 C 960.6863403320313 643.9022216796875 961.5001220703125 660.0188598632813 961.5001220703125 675.9998779296875 C 961.5001220703125 695.5936279296875 960.27783203125 715.319091796875 957.8672485351563 734.6279907226563 C 955.4985961914063 753.6028442382813 951.9296264648438 772.5988159179688 947.2596435546875 791.0885009765625 C 938.1094360351563 827.3172607421875 924.5653686523438 862.4459228515625 907.0040283203125 895.50048828125 Z" stroke="none"/><path d="M 906.7033081054688 895.00048828125 C 924.1785888671875 862.0575561523438 937.6585083007813 827.0606079101563 946.77490234375 790.9661254882813 C 951.4397583007813 772.4962158203125 955.0049438476563 753.5205688476563 957.3711547851563 734.5661010742188 C 959.7791748046875 715.2775268554688 961.0001220703125 695.5730590820313 961.0001220703125 675.9998779296875 C 961.0001220703125 660.03564453125 960.1871337890625 643.93603515625 958.5838623046875 628.1483764648438 C 957.0037231445313 612.5894165039063 954.6176147460938 596.9554443359375 951.4920043945313 581.6804809570313 C 948.4066772460938 566.6032104492188 944.5267944335938 551.5135498046875 939.9598388671875 536.8306274414063 C 935.444091796875 522.3118896484375 930.1492919921875 507.8455505371094 924.22265625 493.8334350585938 C 918.350830078125 479.9507141113281 911.7203369140625 466.1867065429688 904.5155029296875 452.9238891601563 C 897.3618774414063 439.7553100585938 889.4749145507813 426.77294921875 881.073486328125 414.3373107910156 C 864.3313598632813 389.5556640625 845.1041259765625 366.2521362304688 823.9258422851563 345.0738830566406 C 802.7476196289063 323.8956604003906 779.444091796875 304.6684875488281 754.6624755859375 287.9263610839844 C 742.226806640625 279.5250549316406 729.2444458007813 271.6380004882813 716.0758666992188 264.484375 C 702.8130493164063 257.2796630859375 689.0490112304688 250.6491851806641 675.1663208007813 244.7772979736328 C 661.1542358398438 238.8507080078125 646.6878662109375 233.5558929443359 632.1692504882813 229.0401306152344 C 617.4862060546875 224.4732971191406 602.3965454101563 220.5933074951172 587.3193969726563 217.5081329345703 C 572.04443359375 214.3823547363281 556.4104614257813 211.9963684082031 540.8516235351563 210.4162445068359 C 525.06396484375 208.8129425048828 508.9644470214844 208.0000152587891 493.0002136230469 208.0000152587891 C 477.0359802246094 208.0000152587891 460.9363403320313 208.8129425048828 445.148681640625 210.4162445068359 C 429.5897521972656 211.9963684082031 413.9557495117188 214.3823547363281 398.6808166503906 217.5081329345703 C 383.603515625 220.5933074951172 368.5138549804688 224.4732971191406 353.8309326171875 229.0401306152344 C 339.3122253417969 233.5558929443359 324.8458557128906 238.8507080078125 310.833740234375 244.7772979736328 C 296.9510498046875 250.6491851806641 283.1870422363281 257.2796630859375 269.9242248535156 264.484375 C 256.755615234375 271.6380004882813 243.7732696533203 279.5250549316406 231.3376312255859 287.9263610839844 C 206.5559844970703 304.6684875488281 183.25244140625 323.8956604003906 162.07421875 345.0738830566406 C 140.8959808349609 366.2521362304688 121.6688003540039 389.5556640625 104.9266815185547 414.3373107910156 C 96.525390625 426.77294921875 88.63832855224609 439.7553100585938 81.48468780517578 452.9238891601563 C 74.27997589111328 466.1867065429688 67.64950561523438 479.9507141113281 61.77762603759766 493.8334350585938 C 55.85103607177734 507.8455505371094 50.55621337890625 522.3118896484375 46.04044723510742 536.8306274414063 C 41.47362518310547 551.5135498046875 37.59362411499023 566.6032104492188 34.50844955444336 581.6804809570313 C 31.3826847076416 596.9554443359375 28.99668502807617 612.5894165039063 27.41656684875488 628.1483764648438 C 25.81327247619629 643.93603515625 25.00033187866211 660.03564453125 25.00033187866211 675.9998779296875 C 25.00033187866211 695.5730590820313 26.22127151489258 715.2775268554688 28.6292724609375 734.5661010742188 C 30.99550819396973 753.5205688476563 34.56056594848633 772.4962158203125 39.22550964355469 790.9661254882813 C 48.34178161621094 827.0607299804688 61.82172393798828 862.0575561523438 79.29698944091797 895.00048828125 L 906.7033081054688 895.00048828125 M 907.304443359375 896.00048828125 L 78.69586181640625 896.00048828125 C 43.78339004516602 830.3902587890625 24.00033187866211 755.5055541992188 24.00033187866211 675.9998779296875 C 24.00033187866211 416.9781188964844 233.9784545898438 207.0000152587891 493.0002136230469 207.0000152587891 C 752.0211791992188 207.0000152587891 962.0001220703125 416.9781188964844 962.0001220703125 675.9998779296875 C 962.0001220703125 755.5055541992188 942.2169189453125 830.3902587890625 907.304443359375 896.00048828125 Z" stroke="none" fill="#707070"/></g><g transform="translate(538 236)" fill="#fff" opacity="0.05"><path d="M 672.5916748046875 813.4996948242188 L 157.4081268310547 813.4996948242188 C 145.2715759277344 798.9586791992188 134.3028259277344 783.3017578125 124.803825378418 766.9595947265625 C 115.1575775146484 750.3640747070313 106.8984069824219 732.839599609375 100.255744934082 714.8729248046875 C 93.49315643310547 696.5818481445313 88.30807495117188 677.5650024414063 84.84432220458984 658.3505859375 C 81.29824066162109 638.67919921875 79.500244140625 618.4828491210938 79.500244140625 598.3226928710938 C 79.500244140625 575.5371704101563 81.79357147216797 552.7661743164063 86.31640625 530.6421508789063 C 90.72432708740234 509.0806579589844 97.30149078369141 487.8720092773438 105.8653259277344 467.6054077148438 C 114.2737426757813 447.7066650390625 124.6810760498047 428.5142517089844 136.7981567382813 410.5612487792969 C 148.8002471923828 392.7787475585938 162.5838317871094 376.0569152832031 177.7659912109375 360.8600769042969 C 192.9482421875 345.6632690429688 209.6539916992188 331.8665161132813 227.4194030761719 319.8528442382813 C 245.3550720214844 307.7240905761719 264.5290832519531 297.3067626953125 284.4086608886719 288.8903503417969 C 304.6556701660156 280.3182678222656 325.8439025878906 273.7347412109375 347.3845825195313 269.3226623535156 C 369.4873352050781 264.79541015625 392.2364196777344 262.4999084472656 414.9999084472656 262.4999084472656 C 437.7633972167969 262.4999084472656 460.5124816894531 264.79541015625 482.615234375 269.3226623535156 C 504.156005859375 273.7347412109375 525.3441772460938 280.3182678222656 545.5911865234375 288.8903503417969 C 565.4708251953125 297.3067626953125 584.6447143554688 307.7240905761719 602.5803833007813 319.8528442382813 C 620.3458251953125 331.8665161132813 637.0516357421875 345.6632690429688 652.2338256835938 360.8600769042969 C 667.4160766601563 376.0569152832031 681.1996459960938 392.7787475585938 693.2017211914063 410.5612487792969 C 705.31884765625 428.5142517089844 715.7261352539063 447.7066650390625 724.1345825195313 467.6054077148438 C 732.6983032226563 487.8720092773438 739.2755737304688 509.0806579589844 743.6834716796875 530.6421508789063 C 748.206298828125 552.7661743164063 750.4996337890625 575.5371704101563 750.4996337890625 598.3226928710938 C 750.4996337890625 618.4828491210938 748.70166015625 638.6790771484375 745.1555786132813 658.3505859375 C 741.6918334960938 677.5650024414063 736.5066528320313 696.5818481445313 729.7440795898438 714.8729248046875 C 723.1013793945313 732.839599609375 714.8422241210938 750.3640747070313 705.1959838867188 766.9595947265625 C 695.697021484375 783.3017578125 684.7282104492188 798.9586791992188 672.5916748046875 813.4996948242188 Z" stroke="none"/><path d="M 672.357666015625 812.9996948242188 C 684.4168701171875 798.53076171875 695.3178100585938 782.9591674804688 704.7637329101563 766.708251953125 C 714.3955688476563 750.1375732421875 722.6423950195313 732.6393432617188 729.2750854492188 714.6995849609375 C 736.027587890625 696.4359130859375 741.2050170898438 677.447509765625 744.6635131835938 658.2618408203125 C 748.204345703125 638.6195678710938 749.9996337890625 618.4531860351563 749.9996337890625 598.3226928710938 C 749.9996337890625 575.5707397460938 747.709716796875 552.8334350585938 743.193603515625 530.7422485351563 C 738.7922973632813 509.2131042480469 732.2249755859375 488.0362548828125 723.6740112304688 467.8000793457031 C 715.2781372070313 447.9309997558594 704.8863525390625 428.7672424316406 692.7872314453125 410.8410034179688 C 680.802978515625 393.0848388671875 667.039794921875 376.3877563476563 651.8801879882813 361.2135009765625 C 636.7203979492188 346.0391845703125 620.0394287109375 332.2628479003906 602.3003540039063 320.2669982910156 C 584.3914184570313 308.1563415527344 565.2461547851563 297.7545776367188 545.396240234375 289.3507690429688 C 525.1795654296875 280.7915954589844 504.0232543945313 274.218017578125 482.5149230957031 269.8125 C 460.445068359375 265.2919921875 437.7298278808594 262.9999084472656 414.9999084472656 262.9999084472656 C 392.2699890136719 262.9999084472656 369.5547485351563 265.2919921875 347.4848937988281 269.8125 C 325.9765625 274.218017578125 304.8202514648438 280.7915954589844 284.6035766601563 289.3507690429688 C 264.7537536621094 297.7545776367188 245.6084136962891 308.1563415527344 227.6994934082031 320.2669982910156 C 209.9604949951172 332.2628479003906 193.2794036865234 346.0391845703125 178.1197357177734 361.2135009765625 C 162.9600677490234 376.3877563476563 149.1969146728516 393.0848388671875 137.2125701904297 410.8410034179688 C 125.1134948730469 428.7672424316406 114.7217407226563 447.9309997558594 106.3259048461914 467.8000793457031 C 97.77490997314453 488.0362548828125 91.20757293701172 509.2131042480469 86.80632781982422 530.7422485351563 C 82.2901611328125 552.8334350585938 80.000244140625 575.5707397460938 80.000244140625 598.3226928710938 C 80.000244140625 618.4531860351563 81.79557800292969 638.6195678710938 85.33641052246094 658.2618408203125 C 88.79490661621094 677.447509765625 93.97232818603516 696.4359130859375 100.724739074707 714.6995849609375 C 107.3574066162109 732.6393432617188 115.6042404174805 750.1375732421875 125.2361602783203 766.708251953125 C 134.6820220947266 782.9591674804688 145.5829772949219 798.53076171875 157.6421356201172 812.9996948242188 L 672.357666015625 812.9996948242188 M 672.8255615234375 813.9996948242188 L 157.1742401123047 813.9996948242188 C 108.3730773925781 755.6129760742188 79.000244140625 680.403076171875 79.000244140625 598.3226928710938 C 79.000244140625 412.5770874023438 229.4324951171875 261.9999084472656 414.9999084472656 261.9999084472656 C 600.5673217773438 261.9999084472656 750.9996337890625 412.5770874023438 750.9996337890625 598.3226928710938 C 750.9996337890625 680.403076171875 721.6267700195313 755.6129760742188 672.8255615234375 813.9996948242188 Z" stroke="none" fill="#707070"/></g></g></svg>