<svg xmlns="http://www.w3.org/2000/svg" xmlns:xlink="http://www.w3.org/1999/xlink" width="230" height="115.001" viewBox="0 0 230 115.001">
  <defs>
    <filter id="bg" x="0" y="0" width="230" height="115.001" filterUnits="userSpaceOnUse">
      <feOffset dy="3" input="SourceAlpha"/>
      <feGaussianBlur stdDeviation="10" result="blur"/>
      <feFlood flood-opacity="0.161"/>
      <feComposite operator="in" in2="blur"/>
      <feComposite in="SourceGraphic"/>
    </filter>
  </defs>
  <g id="icon_banner_tip" transform="translate(-974 -661)">
    <g transform="matrix(1, 0, 0, 1, 974, 661)" filter="url(#bg)">
      <path id="bg-2" data-name="bg" d="M79.947,312a6,6,0,0,1-6-6V294.041L65,285.061l8.948-8.98V263a6,6,0,0,1,6-6H229a6,6,0,0,1,6,6v43a6,6,0,0,1-6,6Z" transform="translate(-35 -230)" fill="#fff"/>
    </g>
    <path id="_500" data-name="+500" d="M-14.68-6h-3.54v3.5h-2.14V-6H-23.9V-8h3.54v-3.5h2.14V-8h3.54Zm6.54-2.58A6.9,6.9,0,0,1-3.76-7.43,3.813,3.813,0,0,1-2.34-4.3a4.3,4.3,0,0,1-.62,2.28A4.287,4.287,0,0,1-4.82-.4,6.993,6.993,0,0,1-7.88.2a9.821,9.821,0,0,1-2.9-.43,7.135,7.135,0,0,1-2.36-1.19l1.1-2.02a5.909,5.909,0,0,0,1.87,1.01,6.953,6.953,0,0,0,2.25.37,3.646,3.646,0,0,0,2.17-.57A1.83,1.83,0,0,0-4.96-4.2a1.816,1.816,0,0,0-.85-1.63,5.641,5.641,0,0,0-2.91-.55H-12.1l.72-7.62h8.22v2.18H-9.18l-.3,3.24ZM5,.2A5.42,5.42,0,0,1,2-.65,5.74,5.74,0,0,1-.08-3.13,9.088,9.088,0,0,1-.84-7a9.088,9.088,0,0,1,.76-3.87A5.74,5.74,0,0,1,2-13.35a5.42,5.42,0,0,1,3-.85,5.469,5.469,0,0,1,3.01.85,5.714,5.714,0,0,1,2.09,2.48A9.088,9.088,0,0,1,10.86-7a9.088,9.088,0,0,1-.76,3.87A5.714,5.714,0,0,1,8.01-.65,5.469,5.469,0,0,1,5,.2ZM5-2.06A2.746,2.746,0,0,0,7.37-3.3,6.451,6.451,0,0,0,8.24-7a6.451,6.451,0,0,0-.87-3.7A2.746,2.746,0,0,0,5-11.94,2.728,2.728,0,0,0,2.65-10.7,6.451,6.451,0,0,0,1.78-7a6.451,6.451,0,0,0,.87,3.7A2.728,2.728,0,0,0,5-2.06ZM18.46.2a5.42,5.42,0,0,1-3-.85,5.74,5.74,0,0,1-2.08-2.48A9.088,9.088,0,0,1,12.62-7a9.088,9.088,0,0,1,.76-3.87,5.74,5.74,0,0,1,2.08-2.48,5.42,5.42,0,0,1,3-.85,5.469,5.469,0,0,1,3.01.85,5.714,5.714,0,0,1,2.09,2.48A9.088,9.088,0,0,1,24.32-7a9.088,9.088,0,0,1-.76,3.87A5.714,5.714,0,0,1,21.47-.65,5.469,5.469,0,0,1,18.46.2Zm0-2.26A2.746,2.746,0,0,0,20.83-3.3,6.451,6.451,0,0,0,21.7-7a6.451,6.451,0,0,0-.87-3.7,2.746,2.746,0,0,0-2.37-1.24,2.728,2.728,0,0,0-2.35,1.24A6.451,6.451,0,0,0,15.24-7a6.451,6.451,0,0,0,.87,3.7A2.728,2.728,0,0,0,18.46-2.06Z" transform="translate(1090 715)" fill="#2a2a2a"/>
    <path id="person" d="M22.318,16.182a6.091,6.091,0,1,0-6.091-6.091A6.089,6.089,0,0,0,22.318,16.182Zm0,3.045c-4.066,0-12.182,2.04-12.182,6.091v3.045H34.5V25.318C34.5,21.268,26.384,19.227,22.318,19.227Z" transform="translate(1017 699)" fill="#7c56ff"/>
    <path id="text" d="M-26.061-9.366q-1.2,0-1.2,1.3v.644h2.156v1.106h-2.128V0h-1.344V-6.314h-1.26V-7.42h1.26v-.658a2.365,2.365,0,0,1,.644-1.75,2.442,2.442,0,0,1,1.806-.644,3.045,3.045,0,0,1,.84.112,2.044,2.044,0,0,1,.672.322l-.406,1.022A1.673,1.673,0,0,0-26.061-9.366Zm5.292,9.45a4.024,4.024,0,0,1-1.988-.49,3.553,3.553,0,0,1-1.379-1.351,3.835,3.835,0,0,1-.5-1.953,3.835,3.835,0,0,1,.5-1.953,3.5,3.5,0,0,1,1.379-1.344,4.07,4.07,0,0,1,1.988-.483,4.03,4.03,0,0,1,1.981.483,3.517,3.517,0,0,1,1.372,1.344,3.835,3.835,0,0,1,.5,1.953,3.835,3.835,0,0,1-.5,1.953A3.567,3.567,0,0,1-18.788-.406,3.984,3.984,0,0,1-20.769.084Zm0-1.176a2.505,2.505,0,0,0,1.281-.329,2.322,2.322,0,0,0,.889-.924,2.822,2.822,0,0,0,.322-1.365A2.822,2.822,0,0,0-18.6-5.075a2.274,2.274,0,0,0-.889-.917,2.548,2.548,0,0,0-1.281-.322,2.548,2.548,0,0,0-1.281.322,2.321,2.321,0,0,0-.9.917,2.774,2.774,0,0,0-.329,1.365,2.774,2.774,0,0,0,.329,1.365,2.371,2.371,0,0,0,.9.924A2.505,2.505,0,0,0-20.769-1.092Zm5.712-9.3h1.344V0h-1.344Zm3.906,0h1.344V0h-1.344ZM-4.067.084a4.024,4.024,0,0,1-1.988-.49A3.553,3.553,0,0,1-7.434-1.757a3.835,3.835,0,0,1-.5-1.953,3.835,3.835,0,0,1,.5-1.953A3.5,3.5,0,0,1-6.055-7.007,4.07,4.07,0,0,1-4.067-7.49a4.03,4.03,0,0,1,1.981.483A3.517,3.517,0,0,1-.714-5.663a3.835,3.835,0,0,1,.5,1.953,3.835,3.835,0,0,1-.5,1.953A3.567,3.567,0,0,1-2.086-.406,3.984,3.984,0,0,1-4.067.084Zm0-1.176a2.505,2.505,0,0,0,1.281-.329A2.322,2.322,0,0,0-1.9-2.345,2.822,2.822,0,0,0-1.575-3.71,2.822,2.822,0,0,0-1.9-5.075a2.274,2.274,0,0,0-.889-.917,2.548,2.548,0,0,0-1.281-.322,2.548,2.548,0,0,0-1.281.322,2.321,2.321,0,0,0-.9.917A2.774,2.774,0,0,0-6.573-3.71a2.774,2.774,0,0,0,.329,1.365,2.371,2.371,0,0,0,.9.924A2.505,2.505,0,0,0-4.067-1.092ZM12.663-7.42,9.891,0H8.6L6.461-5.628,4.291,0H3L.245-7.42H1.519L3.675-1.512,5.915-7.42H7.049l2.2,5.936L11.459-7.42Zm7.854,3.752a3.852,3.852,0,0,1-.028.406h-6.02a2.33,2.33,0,0,0,.861,1.575,2.81,2.81,0,0,0,1.827.6,2.752,2.752,0,0,0,2.142-.9l.742.868a3.25,3.25,0,0,1-1.253.9,4.361,4.361,0,0,1-1.673.308A4.382,4.382,0,0,1,15.029-.4,3.445,3.445,0,0,1,13.622-1.75a3.873,3.873,0,0,1-.5-1.96,3.933,3.933,0,0,1,.483-1.946,3.46,3.46,0,0,1,1.33-1.351,3.789,3.789,0,0,1,1.911-.483,3.712,3.712,0,0,1,1.9.483,3.392,3.392,0,0,1,1.3,1.351A4.116,4.116,0,0,1,20.517-3.668ZM16.849-6.356a2.323,2.323,0,0,0-1.617.588,2.37,2.37,0,0,0-.763,1.54h4.76a2.386,2.386,0,0,0-.763-1.533A2.307,2.307,0,0,0,16.849-6.356Zm6.818.182a2.293,2.293,0,0,1,1.036-.98,3.76,3.76,0,0,1,1.666-.336v1.3a2.624,2.624,0,0,0-.308-.014,2.261,2.261,0,0,0-1.715.651A2.577,2.577,0,0,0,23.723-3.7V0H22.379V-7.42h1.288ZM30.205.084a6.218,6.218,0,0,1-1.75-.245,3.843,3.843,0,0,1-1.316-.623l.56-1.064a4.02,4.02,0,0,0,1.19.56,4.9,4.9,0,0,0,1.414.21q1.764,0,1.764-1.008a.653.653,0,0,0-.238-.532,1.507,1.507,0,0,0-.6-.287q-.357-.091-1.015-.2a9.947,9.947,0,0,1-1.463-.322,2.255,2.255,0,0,1-.973-.616,1.714,1.714,0,0,1-.406-1.218,1.9,1.9,0,0,1,.84-1.617,3.762,3.762,0,0,1,2.254-.609,6.209,6.209,0,0,1,1.484.182,3.991,3.991,0,0,1,1.218.49L32.6-5.754a3.859,3.859,0,0,0-2.142-.588,2.476,2.476,0,0,0-1.3.28.845.845,0,0,0-.448.742.707.707,0,0,0,.252.574,1.594,1.594,0,0,0,.623.308q.371.1,1.043.224a11.32,11.32,0,0,1,1.449.329,2.164,2.164,0,0,1,.945.595,1.657,1.657,0,0,1,.392,1.176,1.854,1.854,0,0,1-.861,1.6A4.066,4.066,0,0,1,30.205.084Z" transform="translate(1099 729)" fill="#a8a8a8"/>
  </g>
</svg>
