<svg xmlns="http://www.w3.org/2000/svg" width="90.052" height="52.163" viewBox="0 0 90.052 52.163"><g data-name="286"><g data-name="54"><path data-name="550" d="M76.758 7.632c17.643 10.189 17.736 26.716.208 36.9-17.5 10.172-46.037 10.172-63.68-.017s-17.713-26.7-.209-36.871C30.607-2.54 59.11-2.553 76.758 7.632z" fill="#f36"/></g><g data-name="55"><path data-name="548" d="M64.273 28.638c-.055.035-.116.07-.177.1-6.239 3.626-16.967 3.319-33.242 2.868a8.99 8.99 0 0 1-3.508-.752 2.671 2.671 0 0 1-1.295-2.038c-.274-3.051-.519-5.766-.511-8.166l-.011 3.923c-.007 2.4.238 5.114.512 8.166a2.67 2.67 0 0 0 1.294 2.038 9.007 9.007 0 0 0 3.507.752c16.275.451 27 .757 33.243-2.868.061-.032.122-.067.177-.1 2.4-1.422 3.6-3.263 3.606-5.114l.011-3.923c-.006 1.851-1.206 3.692-3.606 5.114z" fill="#b40051"/><g data-name="52"><path data-name="549" d="M64.035 18.911c5.046 2.913 5.12 7.549.236 10.444-.055.035-.116.07-.177.1-6.238 3.626-16.966 3.319-33.242 2.868a8.99 8.99 0 0 1-3.507-.752 2.67 2.67 0 0 1-1.295-2.038c-.845-9.417-1.41-15.63 4.828-19.256 4.914-2.913 12.985-2.958 18.03-.1l.178.1c2.857 1.674 4.325 3.979 4.029 6.322a20.833 20.833 0 0 1 10.92 2.312z" fill="#fff"/></g></g></g></svg>
