<svg xmlns="http://www.w3.org/2000/svg" xmlns:xlink="http://www.w3.org/1999/xlink" width="132.605" height="157.535" viewBox="0 0 132.605 157.535"><defs><style>.a{opacity:0.34;}.b{fill:url(#a);}.c{fill:url(#b);}.d{fill:url(#c);}</style><linearGradient id="a" x1="0.5" x2="0.5" y2="1" gradientUnits="objectBoundingBox"><stop offset="0" stop-color="#7423cf"/><stop offset="0.619" stop-color="#6e8acb"/><stop offset="1" stop-color="#ffcfe4"/></linearGradient><linearGradient id="b" x1="0.079" y1="1.108" x2="1.006" y2="0.044" gradientUnits="objectBoundingBox"><stop offset="0" stop-color="#e4ecff"/><stop offset="1" stop-color="#c9d8ff"/></linearGradient><linearGradient id="c" x1="-0.481" y1="0.534" x2="1.306" y2="0.408" gradientUnits="objectBoundingBox"><stop offset="0" stop-color="#e4eaff"/><stop offset="0.619" stop-color="#acd0ff"/><stop offset="1" stop-color="#ffcfe4"/></linearGradient></defs><g class="a" transform="matrix(0.407, 0.914, -0.914, 0.407, -163.823, -859.96)"><path class="b" d="M2708.874,337.443c-28.345,16.594-48.686,7.2-58.573,3.767s-7.581-8.011,13.184-18.883,29.732-.3,52.858-8.587c14.964-6.509,24.109-12.659,21.323-18.047-12.694-18.855-2.381-32.6,0-33.938,3.1,19.124,11.527,18.357,11.765,27.474,4.841,1.45,17.028-5.387,29.721,0-19.814,14.255-24.148,8.619-32.293,12.66C2730.847,312.975,2727.95,326.276,2708.874,337.443Z" transform="translate(-1760.721 -132.802)"/><path class="c" d="M2733.286,329.731c-24.661,16.594-56.793,6.852-63.63,1.258s18.134-10.282,38.774-9.29,35.164-2.693,53.188-20.61A97.91,97.91,0,0,1,2733.286,329.731Z" transform="translate(-1784.512 -124.711)"/><path class="d" d="M3443.873-78.583c2.694,1.077,5.657,1.077,10.774-2.963,10.748-12.66,7.132-23.028,4.114-17.558-5.281,9.431-8.4,8.5-11.656,10.555C3441.987-85.317,3441.18-79.661,3443.873-78.583Z" transform="translate(-2516.557 271.642)"/></g></svg>