<svg xmlns="http://www.w3.org/2000/svg" width="191.233" height="99.499" viewBox="0 0 191.233 99.499"><path data-name="630" d="M23.255 21.022a8.165 8.165 0 0 1-4.152-1l-4.2-2.427-4.291 2.494a8.442 8.442 0 0 1-4.305 1.012 8.1 8.1 0 0 1-4.107-.976 2.734 2.734 0 0 1-1.7-2.428 2.882 2.882 0 0 1 1.762-2.427L6.6 12.749l-4.3-2.48A2.866 2.866 0 0 1 .554 7.814a2.91 2.91 0 0 1 1.74-2.442 8.058 8.058 0 0 1 4.164-1 8.264 8.264 0 0 1 4.152 1.016l4.3 2.48 4.245-2.467a8.194 8.194 0 0 1 4.187-1.016 8.255 8.255 0 0 1 4.2 1.016 3.486 3.486 0 0 1 1.512 1.57 2.142 2.142 0 0 1-.013 1.755 3.509 3.509 0 0 1-1.539 1.544l-4.338 2.521 4.113 2.375a2.934 2.934 0 0 1 1.792 2.427q.075 1.411-1.718 2.455a8.028 8.028 0 0 1-4.096.974zm166.368 46.73a10.833 10.833 0 0 0-2.254-1.651 13.64 13.64 0 0 0-3.846-1.515 12.085 12.085 0 0 0-3.773-.284 7.15 7.15 0 0 0-2.942.846 3.58 3.58 0 0 0-1.118.976 2.088 2.088 0 0 0-.391 1.043 2.056 2.056 0 0 0 .355 1.142 8.112 8.112 0 0 0 1.2 1.462l.355.347.455.487.379.36.147.185a.536.536 0 0 1 .025.049l.03.06a.142.142 0 0 1 .02.046c.065.17-.027.328-.278.474a.933.933 0 0 1-.661-.127l-.306-.177-.147-.084a5.151 5.151 0 0 1-1.08-1.118l-.234-.275-.357-.375a4.061 4.061 0 0 0-.992-.841 4.552 4.552 0 0 0-1.777-.583 4.471 4.471 0 0 0-1.824.152 2.75 2.75 0 0 0-.73.3q-1.156.672-.537 2.184a7.181 7.181 0 0 0 2.638 2.607q.709.467 1.052.665a12.405 12.405 0 0 0 5.488 1.7 8.7 8.7 0 0 0 4.961-.912 3.38 3.38 0 0 0 1.31-1.265 1.89 1.89 0 0 0 .151-1.555 4.149 4.149 0 0 0-.838-1.441l-.356-.432-.442-.466-.589-.68-.245-.282-.147-.184a.364.364 0 0 1-.037-.077.45.45 0 0 0-.037-.079c-.051-.169-.021-.284.084-.346a.514.514 0 0 1 .242-.042h.246c.08.029.361.182.842.459a1.331 1.331 0 0 1 .235.191l.33.275.27.269.577.544a5.551 5.551 0 0 0 1.053.834 3.927 3.927 0 0 0 .672.3 4.052 4.052 0 0 0 1.692.209 3.5 3.5 0 0 0 1.481-.421 1.4 1.4 0 0 0 .727-.791q.208-.854-1.079-2.163zm-25.016 13.282a7.092 7.092 0 0 1-.038 5.6 14.177 14.177 0 0 1-4.661 5.581 22.209 22.209 0 0 1-3 2.006 28.956 28.956 0 0 1-3.474 1.755 36.748 36.748 0 0 1-6.434 2.1 37.375 37.375 0 0 1-6.454.891 33.858 33.858 0 0 1-6.3-.284 26.648 26.648 0 0 1-9.494-2.956 11.75 11.75 0 0 1-5.156-5.5 6.947 6.947 0 0 1-.044-5.549 14.66 14.66 0 0 1 4.582-5.615 30.851 30.851 0 0 1 3.018-2.018 37.736 37.736 0 0 1 3.453-1.742 37.412 37.412 0 0 1 9.737-2.718 35.157 35.157 0 0 1 9.613 0 26.529 26.529 0 0 1 9.515 2.969 11.855 11.855 0 0 1 5.136 5.48zm-13.713.264a8.522 8.522 0 0 0-3.423-1.16 15.286 15.286 0 0 0-4.328.342 20.276 20.276 0 0 0-5.978 2.336q-.613.356-1.61 1.042-5.311 3.986-2.243 6.307a8.438 8.438 0 0 0 3.479 1.129 13.169 13.169 0 0 0 4.247-.43q1.3-.328 2.115-.62a30.527 30.527 0 0 0 3.864-1.821 12.829 12.829 0 0 0 3.445-2.731 4.61 4.61 0 0 0 1.24-2.574 2.016 2.016 0 0 0-.808-1.817zm-60.811-21.9a36.635 36.635 0 0 1-6.436 2.1 37.36 37.36 0 0 1-6.452.892 33.881 33.881 0 0 1-6.3-.283 26.649 26.649 0 0 1-9.494-2.956 11.761 11.761 0 0 1-5.158-5.5 6.954 6.954 0 0 1-.043-5.548 14.659 14.659 0 0 1 4.583-5.615 30.456 30.456 0 0 1 3.018-2.018 37.2 37.2 0 0 1 3.453-1.743 37.333 37.333 0 0 1 9.735-2.719 35.22 35.22 0 0 1 9.613 0 26.546 26.546 0 0 1 9.515 2.96 11.858 11.858 0 0 1 5.134 5.489 7.1 7.1 0 0 1-.038 5.6 14.194 14.194 0 0 1-4.661 5.581 22.413 22.413 0 0 1-3 2.006 29.276 29.276 0 0 1-3.469 1.751zM87.54 44.724a8.539 8.539 0 0 0-3.423-1.164 15.27 15.27 0 0 0-4.327.343 20.277 20.277 0 0 0-5.978 2.336q-.613.356-1.61 1.042-5.311 3.986-2.242 6.307a8.438 8.438 0 0 0 3.479 1.129 13.17 13.17 0 0 0 4.247-.43q1.294-.33 2.115-.62a30.538 30.538 0 0 0 3.864-1.821 12.831 12.831 0 0 0 3.446-2.731 4.609 4.609 0 0 0 1.24-2.574 2.015 2.015 0 0 0-.811-1.82zM65.158 11.916a5.7 5.7 0 0 0 2.919.685 5.76 5.76 0 0 0 2.913-.7l3.636-2.113 3.306 1.909a4.459 4.459 0 0 0 1.551.516 6.15 6.15 0 0 0 1.8.017 4.748 4.748 0 0 0 1.625-.52 2.233 2.233 0 0 0 .935-.926 1.263 1.263 0 0 0 .042-1.052 2.01 2.01 0 0 0-.921-.934l-3.329-1.922 1.788-1.039 3.93 2.269a5.4 5.4 0 0 0 2.529.629 5.429 5.429 0 0 0 2.6-.614 1.71 1.71 0 0 0 1.041-1.441 1.772 1.772 0 0 0-1.059-1.514l-6.847-3.955a5.4 5.4 0 0 0-1.852-.625 6.639 6.639 0 0 0-2.153 0 5.443 5.443 0 0 0-1.876.635L65.161 8.529a2 2 0 0 0-1.2 1.689 1.97 1.97 0 0 0 1.197 1.694zm26.366-.093a13.7 13.7 0 0 1 4.731 1.618 7.87 7.87 0 0 1 2.262 1.848 4.2 4.2 0 0 1 .932 2.083 3.29 3.29 0 0 1-.073 1.282 3.948 3.948 0 0 1-.529 1.187 5.338 5.338 0 0 1-.94 1.065 8.116 8.116 0 0 1-1.289.919 11.746 11.746 0 0 1-2.768 1.134 15.373 15.373 0 0 1-3.355.523 17.517 17.517 0 0 1-3.593-.2 13.8 13.8 0 0 1-4.781-1.632 6.771 6.771 0 0 1-2.814-2.711 3.472 3.472 0 0 1-.128-3.024 5.749 5.749 0 0 1 2.53-2.618 12.735 12.735 0 0 1 4.529-1.506 17.166 17.166 0 0 1 5.286.029zm-2.759 4.085a4.272 4.272 0 0 0-1.57.531 1.947 1.947 0 0 0-1.122 1.31 1.186 1.186 0 0 0 .733 1.184 4.667 4.667 0 0 0 .439.185 4.188 4.188 0 0 0 3.294-.142c.293-.132.491-.228.6-.289a1.838 1.838 0 0 0 .884-.9q.4-.926-.631-1.519a4.043 4.043 0 0 0-2.627-.367zm3.684 10.721a1.976 1.976 0 0 0 1.169 1.59 5.712 5.712 0 0 0 2.773.685 5.654 5.654 0 0 0 2.815-.714l14.351-8.34a2.4 2.4 0 0 0 1.015-1.006 1.378 1.378 0 0 0 .023-1.163 2.268 2.268 0 0 0-.983-1.025 5.18 5.18 0 0 0-1.8-.611 6.768 6.768 0 0 0-2.033-.01 4.832 4.832 0 0 0-1.742.573L93.613 24.99a1.928 1.928 0 0 0-1.164 1.636zm7.014 4.05a1.976 1.976 0 0 0 1.169 1.591 5.723 5.723 0 0 0 2.774.686 5.668 5.668 0 0 0 2.815-.714l14.351-8.34a2.4 2.4 0 0 0 1.013-1.007 1.378 1.378 0 0 0 .023-1.163 2.269 2.269 0 0 0-.981-1.024 5.18 5.18 0 0 0-1.8-.612 6.767 6.767 0 0 0-2.032-.011 4.841 4.841 0 0 0-1.742.573l-14.424 8.382a1.927 1.927 0 0 0-1.166 1.636zm21.93-1.612a13.7 13.7 0 0 1 4.733 1.619 7.871 7.871 0 0 1 2.26 1.847 4.2 4.2 0 0 1 .932 2.083 3.289 3.289 0 0 1-.071 1.283 4.052 4.052 0 0 1-.529 1.187 5.339 5.339 0 0 1-.942 1.064 8.092 8.092 0 0 1-1.289.919 11.74 11.74 0 0 1-2.77 1.132 15.419 15.419 0 0 1-3.354.524 17.585 17.585 0 0 1-3.593-.2 13.822 13.822 0 0 1-4.781-1.632 6.775 6.775 0 0 1-2.816-2.712 3.469 3.469 0 0 1-.127-3.023 5.733 5.733 0 0 1 2.529-2.619 12.709 12.709 0 0 1 4.531-1.505 17.123 17.123 0 0 1 5.286.03zm-.132 4.447a4.048 4.048 0 0 0-2.627-.361 4.267 4.267 0 0 0-1.57.531 1.941 1.941 0 0 0-1.121 1.311 1.185 1.185 0 0 0 .734 1.184c.048.028.195.089.437.184a4.2 4.2 0 0 0 3.3-.141c.291-.133.49-.229.6-.29a1.851 1.851 0 0 0 .886-.9q.386-.931-.64-1.521zM57.73 38.337a5.273 5.273 0 0 0 1.065-2.989 5.326 5.326 0 0 0-1-3.061 9.156 9.156 0 0 0-3.057-2.738 24.249 24.249 0 0 0-3.061-1.478l-.685-.29-.524-.2 3.455-1.294 8.982 5.186a8.027 8.027 0 0 0 2.887.931 11.31 11.31 0 0 0 3.383-.02 9.436 9.436 0 0 0 3.069-1.016 4.444 4.444 0 0 0 1.825-1.774 2.253 2.253 0 0 0 .08-1.994 3.753 3.753 0 0 0-1.662-1.7l-12.87-7.425a7.7 7.7 0 0 0-2.009-.792 11.2 11.2 0 0 0-3.464-.316 9.075 9.075 0 0 0-3.073.646l-14.66 5.978q-3.044 1.769-2.532 3.379a2.952 2.952 0 0 0 1.675 1.992 8.65 8.65 0 0 0 2.328.871l.274.053 1.367.343a15.644 15.644 0 0 1 3.928 1.584q1.19.977.9 1.755a2.019 2.019 0 0 1-.975 1.043 4.193 4.193 0 0 1-1.786.508 6.23 6.23 0 0 1-2.313-.3 5.367 5.367 0 0 1-1.462-.606 10.362 10.362 0 0 1-2.1-1.715 2.859 2.859 0 0 1-.412-.449l-.712-.832-.367-.448a9.51 9.51 0 0 0-2.266-1.992 7.923 7.923 0 0 0-1.758-.752 11.734 11.734 0 0 0-2.714-.488 8.688 8.688 0 0 0-4.961 1.082q-2.178 1.265-1.964 3.1a7.214 7.214 0 0 0 1.888 3.458 15.576 15.576 0 0 0 2.77 2.573 36.723 36.723 0 0 0 3.111 2.085 27.522 27.522 0 0 0 6.5 2.738 27.254 27.254 0 0 0 6.714.983 29.418 29.418 0 0 0 6.875-.7q2.594-.686 3.322-.951a16.7 16.7 0 0 0 2.954-1.344 9.469 9.469 0 0 0 3.034-2.627zm64.03 39.349a36.506 36.506 0 0 1-6.434 2.1 37.38 37.38 0 0 1-6.454.891 33.881 33.881 0 0 1-6.3-.283 26.64 26.64 0 0 1-9.492-2.955 11.756 11.756 0 0 1-5.158-5.5 6.946 6.946 0 0 1-.043-5.548 14.616 14.616 0 0 1 4.582-5.615 30.459 30.459 0 0 1 3.017-2.019 37.282 37.282 0 0 1 3.454-1.742 37.334 37.334 0 0 1 9.735-2.719 35.18 35.18 0 0 1 9.613 0 26.539 26.539 0 0 1 9.517 2.969 11.854 11.854 0 0 1 5.133 5.488 7.093 7.093 0 0 1-.037 5.6 14.2 14.2 0 0 1-4.662 5.581 22.2 22.2 0 0 1-2.995 2.007 28.993 28.993 0 0 1-3.477 1.742zm-2.541-14.673a8.525 8.525 0 0 0-3.424-1.161 15.271 15.271 0 0 0-4.327.343 20.237 20.237 0 0 0-5.98 2.335q-.613.356-1.61 1.042-5.311 3.986-2.242 6.307a8.432 8.432 0 0 0 3.481 1.122 13.175 13.175 0 0 0 4.248-.429q1.295-.33 2.115-.62a30.453 30.453 0 0 0 3.862-1.822 12.886 12.886 0 0 0 3.447-2.73 4.607 4.607 0 0 0 1.238-2.575 2.015 2.015 0 0 0-.81-1.815zm32.2-12.827a15.982 15.982 0 0 1 3.731-.354 16.69 16.69 0 0 1 3.774.524 13.616 13.616 0 0 1 3.462 1.391 6.814 6.814 0 0 1 2.773 2.714 3.583 3.583 0 0 1 .327 1.86 3.873 3.873 0 0 1-.614 1.745 4.406 4.406 0 0 1-1.383 1.349 4.4 4.4 0 0 1-2.241.693 4.7 4.7 0 0 1-2.249-.722l-6.523-3.766a2.611 2.611 0 0 0-.022.537 1.653 1.653 0 0 0 .284.622 3.509 3.509 0 0 0 .669.626 11.517 11.517 0 0 0 1.254.816 15.927 15.927 0 0 0 2.275.905 10.339 10.339 0 0 1 1.478.6q.994.574 1.016 1.247a1.333 1.333 0 0 1-.816 1.163 2.738 2.738 0 0 1-.525.247 5.264 5.264 0 0 1-1.25.236 6.786 6.786 0 0 1-1.411-.06 15.7 15.7 0 0 1-1.915-.424 22.351 22.351 0 0 1-2.605-.983 18.812 18.812 0 0 1-1.75-.9 10.419 10.419 0 0 1-2.818-2.24 4.4 4.4 0 0 1-1.112-2.382 3.339 3.339 0 0 1 .634-2.283 6.994 6.994 0 0 1 2.307-1.992 11.83 11.83 0 0 1 3.248-1.172zm3.816 3.887l2.988 1.725a1.162 1.162 0 0 0 .22-.157q1.018-.806-.5-1.682a3.861 3.861 0 0 0-2.441.014 1.325 1.325 0 0 0-.269.097zm-29.985-9.959a1.822 1.822 0 0 0-.278 1.523 2.391 2.391 0 0 0 1.145 1.174 4.507 4.507 0 0 0 1.272.453 6.343 6.343 0 0 0 1.5.123 7.08 7.08 0 0 0 1.566-.23l5.019-1.229-2.105 2.911a1.606 1.606 0 0 0-.316 1.375 2.047 2.047 0 0 0 .964 1.156 6.546 6.546 0 0 0 4.651.486l11.628-2.318a5.42 5.42 0 0 0 1.717-.614 2.368 2.368 0 0 0 1.085-1.107 1.317 1.317 0 0 0-.121-1.225 2.7 2.7 0 0 0-.823-.827 5.337 5.337 0 0 0-1.383-.544 6.807 6.807 0 0 0-1.6-.194 5.444 5.444 0 0 0-1.5.181l-5.591 1.562 2.266-2.679a3 3 0 0 0 .785-1.407 1.3 1.3 0 0 0-.385-1.067 3.468 3.468 0 0 0-.82-.686q-1.885-1.088-5.274-.127l-4.628 1.315 2.689-3.237a1.339 1.339 0 0 0 .307-.873 1.571 1.571 0 0 0-.359-.933 3.15 3.15 0 0 0-.937-.8 5.758 5.758 0 0 0-1.431-.474 6.332 6.332 0 0 0-2.154-.067 5.158 5.158 0 0 0-1.895.619 2.887 2.887 0 0 0-1.031 1.01zm45.994 19.665a12.733 12.733 0 0 1 1.521.3c.163.037.289.067.377.091l.319.084a10.819 10.819 0 0 0 3.034.491 4.317 4.317 0 0 0 2.139-.533c.129-.075.316-.2.56-.381a1.452 1.452 0 0 0 .561-1.071 1.5 1.5 0 0 0-.539-1.127 2.32 2.32 0 0 0-.6-.459 6.551 6.551 0 0 0-3.2-.608l-.622.007-.328.021-.123.071-.844-2.5a5.5 5.5 0 0 0-2.786-.664 5.469 5.469 0 0 0-2.789.672l-8.417 4.892a1.8 1.8 0 0 0-1.108 1.592 1.99 1.99 0 0 0 1.185 1.595 5.04 5.04 0 0 0 1.785.565 6.8 6.8 0 0 0 2.057-.031 5.353 5.353 0 0 0 1.82-.633l2.444-1.42a11.192 11.192 0 0 1 1.327-.679 4.2 4.2 0 0 1 1.053-.286 4.682 4.682 0 0 1 1.172.008z" fill="#fff" stroke="rgba(0,0,0,0)"/></svg>
