<svg xmlns="http://www.w3.org/2000/svg" xmlns:xlink="http://www.w3.org/1999/xlink" width="666.001" height="172.238" viewBox="0 0 666.001 172.238">
  <defs>
    <filter id="路径_20362" x="478.678" y="108.469" width="22.479" height="34.308" filterUnits="userSpaceOnUse">
      <feOffset dy="3" input="SourceAlpha"/>
      <feGaussianBlur stdDeviation="3" result="blur"/>
      <feFlood flood-color="#f0e" flood-opacity="0.702"/>
      <feComposite operator="in" in2="blur"/>
      <feComposite in="SourceGraphic"/>
    </filter>
    <filter id="路径_20363" x="472.765" y="114.384" width="34.307" height="22.478" filterUnits="userSpaceOnUse">
      <feOffset dy="3" input="SourceAlpha"/>
      <feGaussianBlur stdDeviation="3" result="blur-2"/>
      <feFlood flood-color="#f0e" flood-opacity="0.702"/>
      <feComposite operator="in" in2="blur-2"/>
      <feComposite in="SourceGraphic"/>
    </filter>
    <filter id="路径_20362-2" x="17.678" y="62.469" width="22.479" height="34.308" filterUnits="userSpaceOnUse">
      <feOffset dy="3" input="SourceAlpha"/>
      <feGaussianBlur stdDeviation="3" result="blur-3"/>
      <feFlood flood-color="#f0e" flood-opacity="0.702"/>
      <feComposite operator="in" in2="blur-3"/>
      <feComposite in="SourceGraphic"/>
    </filter>
    <filter id="路径_20363-2" x="11.765" y="68.384" width="34.307" height="22.478" filterUnits="userSpaceOnUse">
      <feOffset dy="3" input="SourceAlpha"/>
      <feGaussianBlur stdDeviation="3" result="blur-4"/>
      <feFlood flood-color="#f0e" flood-opacity="0.702"/>
      <feComposite operator="in" in2="blur-4"/>
      <feComposite in="SourceGraphic"/>
    </filter>
    <filter id="椭圆_998" x="362.001" y="28.238" width="30" height="30" filterUnits="userSpaceOnUse">
      <feOffset dy="3" input="SourceAlpha"/>
      <feGaussianBlur stdDeviation="3" result="blur-5"/>
      <feFlood flood-color="#f0e" flood-opacity="0.702"/>
      <feComposite operator="in" in2="blur-5"/>
      <feComposite in="SourceGraphic"/>
    </filter>
    <linearGradient id="linear-gradient" x1="0.5" y1="1.08" x2="0.5" y2="-0.079" gradientUnits="objectBoundingBox">
      <stop offset="0" stop-color="#c831ff"/>
      <stop offset="1" stop-color="#fa6bc1"/>
    </linearGradient>
    <filter id="椭圆_102" x="257.762" y="0" width="74.476" height="74.476" filterUnits="userSpaceOnUse">
      <feOffset dy="4" input="SourceAlpha"/>
      <feGaussianBlur stdDeviation="4" result="blur-6"/>
      <feFlood flood-color="#870b5a" flood-opacity="0.529"/>
      <feComposite operator="in" in2="blur-6"/>
      <feComposite in="SourceGraphic"/>
    </filter>
    <linearGradient id="linear-gradient-2" x1="0.5" x2="0.972" y2="1.009" gradientUnits="objectBoundingBox">
      <stop offset="0" stop-color="#fbe6b6"/>
      <stop offset="1" stop-color="#f9f9ef"/>
    </linearGradient>
    <filter id="ic_favorite_24px" x="281.43" y="21.543" width="26.318" height="26.646" filterUnits="userSpaceOnUse">
      <feOffset dy="1" input="SourceAlpha"/>
      <feGaussianBlur result="blur-7"/>
      <feFlood flood-color="#fdf4e0" flood-opacity="0.259"/>
      <feComposite operator="in" in2="blur-7"/>
      <feComposite in="SourceGraphic"/>
    </filter>
    <filter id="椭圆_102-2" x="507.681" y="16.917" width="99.642" height="99.643" filterUnits="userSpaceOnUse">
      <feOffset dy="4" input="SourceAlpha"/>
      <feGaussianBlur stdDeviation="4" result="blur-8"/>
      <feFlood flood-color="#870b5a" flood-opacity="0.471"/>
      <feComposite operator="in" in2="blur-8"/>
      <feComposite in="SourceGraphic"/>
    </filter>
    <filter id="联合_64" x="533.722" y="44.06" width="43.066" height="42.494" filterUnits="userSpaceOnUse">
      <feOffset dy="1" input="SourceAlpha"/>
      <feGaussianBlur result="blur-9"/>
      <feFlood flood-color="#fdf4e0" flood-opacity="0.259"/>
      <feComposite operator="in" in2="blur-9"/>
      <feComposite in="SourceGraphic"/>
    </filter>
    <linearGradient id="linear-gradient-5" x1="1" y1="0.617" x2="-0.099" y2="0.5" gradientUnits="objectBoundingBox">
      <stop offset="0" stop-color="#f091ff"/>
      <stop offset="1" stop-color="#f766fb"/>
    </linearGradient>
    <filter id="椭圆_102-3" x="598.001" y="64.238" width="68" height="68" filterUnits="userSpaceOnUse">
      <feOffset dy="4" input="SourceAlpha"/>
      <feGaussianBlur stdDeviation="4" result="blur-10"/>
      <feFlood flood-color="#870b5a" flood-opacity="0.4"/>
      <feComposite operator="in" in2="blur-10"/>
      <feComposite in="SourceGraphic"/>
    </filter>
    <linearGradient id="linear-gradient-6" x1="0.5" x2="0.972" y2="1.009" gradientUnits="objectBoundingBox">
      <stop offset="0" stop-color="#fff"/>
      <stop offset="1" stop-color="#f9f9ef" stop-opacity="0.161"/>
    </linearGradient>
    <filter id="路径_20056" x="627.781" y="83.429" width="15.497" height="20.511" filterUnits="userSpaceOnUse">
      <feOffset dy="1" input="SourceAlpha"/>
      <feGaussianBlur result="blur-11"/>
      <feFlood flood-color="#fdf4e0" flood-opacity="0.259"/>
      <feComposite operator="in" in2="blur-11"/>
      <feComposite in="SourceGraphic"/>
    </filter>
    <filter id="路径_20057" x="620.412" y="90.857" width="9.364" height="14.834" filterUnits="userSpaceOnUse">
      <feOffset dy="1" input="SourceAlpha"/>
      <feGaussianBlur result="blur-12"/>
      <feFlood flood-color="#fdf4e0" flood-opacity="0.259"/>
      <feComposite operator="in" in2="blur-12"/>
      <feComposite in="SourceGraphic"/>
    </filter>
    <filter id="路径_20425" x="49.001" y="11.238" width="81" height="81" filterUnits="userSpaceOnUse">
      <feOffset dy="4" input="SourceAlpha"/>
      <feGaussianBlur stdDeviation="4" result="blur-13"/>
      <feFlood flood-color="#870b5a" flood-opacity="0.302"/>
      <feComposite operator="in" in2="blur-13"/>
      <feComposite in="SourceGraphic"/>
    </filter>
    <filter id="联合_64-2" x="66.638" y="28.543" width="41.334" height="36.247" filterUnits="userSpaceOnUse">
      <feOffset dy="1" input="SourceAlpha"/>
      <feGaussianBlur result="blur-14"/>
      <feFlood flood-color="#fdf4e0" flood-opacity="0.259"/>
      <feComposite operator="in" in2="blur-14"/>
      <feComposite in="SourceGraphic"/>
    </filter>
    <filter id="椭圆_102-4" x="65.001" y="91.238" width="81" height="81" filterUnits="userSpaceOnUse">
      <feOffset dy="4" input="SourceAlpha"/>
      <feGaussianBlur stdDeviation="4" result="blur-15"/>
      <feFlood flood-color="#870b5a" flood-opacity="0.302"/>
      <feComposite operator="in" in2="blur-15"/>
      <feComposite in="SourceGraphic"/>
    </filter>
  </defs>
  <g id="头部" transform="translate(-48.999 -13584.762)">
    <g id="组_1809" data-name="组 1809" transform="translate(257.33 13531.868)">
      <g id="组_1808" data-name="组 1808" transform="translate(0 41)" opacity="0.82">
        <g id="组_1805" data-name="组 1805">
          <path id="路径_20347" data-name="路径 20347" d="M345.8,107.7a2.565,2.565,0,1,1-2.566-2.565A2.566,2.566,0,0,1,345.8,107.7Z" fill="#c68aff"/>
          <path id="路径_20348" data-name="路径 20348" d="M373.25,107.7a2.566,2.566,0,1,1-2.565-2.565A2.565,2.565,0,0,1,373.25,107.7Z" fill="#c68aff"/>
          <path id="路径_20349" data-name="路径 20349" d="M400.7,107.7a2.565,2.565,0,1,1-2.566-2.565A2.566,2.566,0,0,1,400.7,107.7Z" fill="#c68aff"/>
          <path id="路径_20350" data-name="路径 20350" d="M428.151,107.7a2.565,2.565,0,1,1-2.565-2.565A2.565,2.565,0,0,1,428.151,107.7Z" fill="#c68aff"/>
          <path id="路径_20351" data-name="路径 20351" d="M455.6,107.7a2.565,2.565,0,1,1-2.566-2.565A2.566,2.566,0,0,1,455.6,107.7Z" fill="#c68aff"/>
        </g>
        <g id="组_1806" data-name="组 1806">
          <path id="路径_20352" data-name="路径 20352" d="M345.8,123.345a2.565,2.565,0,1,1-2.566-2.566A2.566,2.566,0,0,1,345.8,123.345Z" fill="#c68aff"/>
          <path id="路径_20353" data-name="路径 20353" d="M373.25,123.345a2.566,2.566,0,1,1-2.565-2.566A2.565,2.565,0,0,1,373.25,123.345Z" fill="#c68aff"/>
          <path id="路径_20354" data-name="路径 20354" d="M400.7,123.345a2.565,2.565,0,1,1-2.566-2.566A2.566,2.566,0,0,1,400.7,123.345Z" fill="#c68aff"/>
          <path id="路径_20355" data-name="路径 20355" d="M428.151,123.345a2.565,2.565,0,1,1-2.565-2.566A2.565,2.565,0,0,1,428.151,123.345Z" fill="#c68aff"/>
          <path id="路径_20356" data-name="路径 20356" d="M455.6,123.345a2.565,2.565,0,1,1-2.566-2.566A2.566,2.566,0,0,1,455.6,123.345Z" fill="#c68aff"/>
        </g>
        <g id="组_1807" data-name="组 1807">
          <path id="路径_20357" data-name="路径 20357" d="M345.8,138.991a2.565,2.565,0,1,1-2.566-2.565A2.566,2.566,0,0,1,345.8,138.991Z" fill="#c68aff"/>
          <path id="路径_20358" data-name="路径 20358" d="M373.25,138.991a2.566,2.566,0,1,1-2.565-2.565A2.565,2.565,0,0,1,373.25,138.991Z" fill="#c68aff"/>
          <path id="路径_20359" data-name="路径 20359" d="M400.7,138.991a2.565,2.565,0,1,1-2.566-2.565A2.566,2.566,0,0,1,400.7,138.991Z" fill="#c68aff"/>
          <path id="路径_20360" data-name="路径 20360" d="M428.151,138.991a2.565,2.565,0,1,1-2.565-2.565A2.565,2.565,0,0,1,428.151,138.991Z" fill="#c68aff"/>
          <path id="路径_20361" data-name="路径 20361" d="M455.6,138.991a2.565,2.565,0,1,1-2.566-2.565A2.566,2.566,0,0,1,455.6,138.991Z" fill="#c68aff"/>
        </g>
      </g>
    </g>
    <g id="组_1828" data-name="组 1828" transform="translate(-291.67 13537.868)" opacity="0.69">
      <g id="组_1808-2" data-name="组 1808" transform="translate(0 18)">
        <g id="组_1805-2" data-name="组 1805">
          <path id="路径_20347-2" data-name="路径 20347" d="M345.8,107.7a2.565,2.565,0,1,1-2.566-2.565A2.566,2.566,0,0,1,345.8,107.7Z" fill="#d698ff"/>
          <path id="路径_20348-2" data-name="路径 20348" d="M373.25,107.7a2.566,2.566,0,1,1-2.565-2.565A2.565,2.565,0,0,1,373.25,107.7Z" fill="#d698ff"/>
          <path id="路径_20349-2" data-name="路径 20349" d="M400.7,107.7a2.565,2.565,0,1,1-2.566-2.565A2.566,2.566,0,0,1,400.7,107.7Z" fill="#d698ff"/>
          <path id="路径_20350-2" data-name="路径 20350" d="M428.151,107.7a2.565,2.565,0,1,1-2.565-2.565A2.565,2.565,0,0,1,428.151,107.7Z" fill="#d698ff"/>
          <path id="路径_20351-2" data-name="路径 20351" d="M455.6,107.7a2.565,2.565,0,1,1-2.566-2.565A2.566,2.566,0,0,1,455.6,107.7Z" fill="#d698ff"/>
        </g>
        <g id="组_1806-2" data-name="组 1806">
          <path id="路径_20352-2" data-name="路径 20352" d="M345.8,123.345a2.565,2.565,0,1,1-2.566-2.566A2.566,2.566,0,0,1,345.8,123.345Z" fill="#d698ff"/>
          <path id="路径_20353-2" data-name="路径 20353" d="M373.25,123.345a2.566,2.566,0,1,1-2.565-2.566A2.565,2.565,0,0,1,373.25,123.345Z" fill="#d698ff"/>
          <path id="路径_20354-2" data-name="路径 20354" d="M400.7,123.345a2.565,2.565,0,1,1-2.566-2.566A2.566,2.566,0,0,1,400.7,123.345Z" fill="#d698ff"/>
          <path id="路径_20355-2" data-name="路径 20355" d="M428.151,123.345a2.565,2.565,0,1,1-2.565-2.566A2.565,2.565,0,0,1,428.151,123.345Z" fill="#d698ff"/>
          <path id="路径_20356-2" data-name="路径 20356" d="M455.6,123.345a2.565,2.565,0,1,1-2.566-2.566A2.566,2.566,0,0,1,455.6,123.345Z" fill="#d698ff"/>
        </g>
        <g id="组_1807-2" data-name="组 1807">
          <path id="路径_20357-2" data-name="路径 20357" d="M345.8,138.991a2.565,2.565,0,1,1-2.566-2.565A2.566,2.566,0,0,1,345.8,138.991Z" fill="#d698ff"/>
          <path id="路径_20358-2" data-name="路径 20358" d="M373.25,138.991a2.566,2.566,0,1,1-2.565-2.565A2.565,2.565,0,0,1,373.25,138.991Z" fill="#d698ff"/>
          <path id="路径_20359-2" data-name="路径 20359" d="M400.7,138.991a2.565,2.565,0,1,1-2.566-2.565A2.566,2.566,0,0,1,400.7,138.991Z" fill="#d698ff"/>
          <path id="路径_20360-2" data-name="路径 20360" d="M428.151,138.991a2.565,2.565,0,1,1-2.565-2.565A2.565,2.565,0,0,1,428.151,138.991Z" fill="#d698ff"/>
          <path id="路径_20361-2" data-name="路径 20361" d="M455.6,138.991a2.565,2.565,0,1,1-2.566-2.565A2.566,2.566,0,0,1,455.6,138.991Z" fill="#d698ff"/>
        </g>
      </g>
    </g>
    <g id="组_1812" data-name="组 1812" transform="translate(-59.922 13515.78)">
      <g id="组_1821" data-name="组 1821" transform="translate(591.186 183.95)">
        <g transform="matrix(1, 0, 0, 1, -482.26, -114.97)" filter="url(#路径_20362)">
          <path id="路径_20362-3" data-name="路径 20362" d="M274.535,111.307h0a1.744,1.744,0,0,0,1.739-1.739V97.739A1.744,1.744,0,0,0,274.535,96h0a1.744,1.744,0,0,0-1.74,1.739v11.829A1.744,1.744,0,0,0,274.535,111.307Z" transform="translate(215.38 18.97)" fill="#fcd875" stroke="rgba(0,0,0,0)" stroke-width="1"/>
        </g>
        <g transform="matrix(1, 0, 0, 1, -482.26, -114.97)" filter="url(#路径_20363)">
          <path id="路径_20363-3" data-name="路径 20363" d="M267,103.535h0a1.744,1.744,0,0,0,1.739,1.739h11.828a1.744,1.744,0,0,0,1.74-1.739h0a1.744,1.744,0,0,0-1.74-1.739H268.739A1.744,1.744,0,0,0,267,103.535Z" transform="translate(215.26 19.09)" fill="#fcd875" stroke="rgba(0,0,0,0)" stroke-width="1"/>
        </g>
      </g>
      <g id="组_1829" data-name="组 1829" transform="translate(130.186 137.95)">
        <g transform="matrix(1, 0, 0, 1, -21.26, -68.97)" filter="url(#路径_20362-2)">
          <path id="路径_20362-4" data-name="路径 20362" d="M274.535,111.307h0a1.744,1.744,0,0,0,1.739-1.739V97.739A1.744,1.744,0,0,0,274.535,96h0a1.744,1.744,0,0,0-1.74,1.739v11.829A1.744,1.744,0,0,0,274.535,111.307Z" transform="translate(-245.62 -27.03)" fill="#fcd875" stroke="rgba(0,0,0,0)" stroke-width="1"/>
        </g>
        <g transform="matrix(1, 0, 0, 1, -21.26, -68.97)" filter="url(#路径_20363-2)">
          <path id="路径_20363-4" data-name="路径 20363" d="M267,103.535h0a1.744,1.744,0,0,0,1.739,1.739h11.828a1.744,1.744,0,0,0,1.74-1.739h0a1.744,1.744,0,0,0-1.74-1.739H268.739A1.744,1.744,0,0,0,267,103.535Z" transform="translate(-245.74 -26.91)" fill="#fcd875" stroke="rgba(0,0,0,0)" stroke-width="1"/>
        </g>
      </g>
      <g id="组_1811" data-name="组 1811" transform="translate(681.997 167.295)">
        <path id="路径_20364" data-name="路径 20364" d="M300.287,123.925h0a2.043,2.043,0,0,0,2.037-2.037V108.037A2.044,2.044,0,0,0,300.287,106h0a2.043,2.043,0,0,0-2.037,2.037v13.851A2.042,2.042,0,0,0,300.287,123.925Z" transform="translate(-291.325 -106)" fill="#fff"/>
        <path id="路径_20365" data-name="路径 20365" d="M294,112.287h0a2.042,2.042,0,0,0,2.037,2.037h13.851a2.043,2.043,0,0,0,2.037-2.037h0a2.044,2.044,0,0,0-2.037-2.037H296.037A2.043,2.043,0,0,0,294,112.287Z" transform="translate(-294 -103.325)" fill="#fff"/>
      </g>
      <g transform="matrix(1, 0, 0, 1, 108.92, 68.98)" filter="url(#椭圆_998)">
        <circle id="椭圆_998-2" data-name="椭圆 998" cx="6" cy="6" r="6" transform="translate(371 34.24)" fill="#fcd875"/>
      </g>
      <g id="椭圆_999" data-name="椭圆 999" transform="translate(263.922 185.22)" fill="none" stroke="#fcf875" stroke-width="3">
        <circle cx="6" cy="6" r="6" stroke="none"/>
        <circle cx="6" cy="6" r="4.5" fill="none"/>
      </g>
    </g>
    <g id="组_1817" data-name="组 1817" transform="matrix(0.839, 0.545, -0.545, 0.839, 338.635, 13592.762)">
      <g transform="matrix(0.84, -0.54, 0.54, 0.84, -247.27, 151.04)" filter="url(#椭圆_102)">
        <circle id="椭圆_102-5" data-name="椭圆 102" cx="18.245" cy="18.245" r="18.245" transform="matrix(0.84, 0.54, -0.54, 0.84, 289.64, 8)" fill="url(#linear-gradient)"/>
      </g>
      <g transform="matrix(0.84, -0.54, 0.54, 0.84, -247.27, 151.04)" filter="url(#ic_favorite_24px)">
        <path id="ic_favorite_24px-2" data-name="ic_favorite_24px" d="M11.963,20.64a2.6,2.6,0,0,1-1.445-.674C5.387,15.314,2,12.245,2,8.479A5.426,5.426,0,0,1,7.479,3a5.966,5.966,0,0,1,4.483,2.082A5.966,5.966,0,0,1,16.446,3a5.426,5.426,0,0,1,5.479,5.479c0,3.766-3.387,6.834-8.518,11.5A2.576,2.576,0,0,1,11.963,20.64Z" transform="matrix(0.84, 0.54, -0.54, 0.84, 290.99, 17.94)" opacity="0.74" fill="url(#linear-gradient-2)"/>
      </g>
    </g>
    <g id="组_1818" data-name="组 1818" transform="matrix(0.809, -0.588, 0.588, 0.809, 568.68, 13641.51)">
      <g transform="matrix(0.81, 0.59, -0.59, 0.81, -387.07, -351.37)" filter="url(#椭圆_102-2)">
        <circle id="椭圆_102-6" data-name="椭圆 102" cx="27.077" cy="27.077" r="27.077" transform="matrix(0.81, -0.59, 0.59, 0.81, 519.68, 56.75)" fill="url(#linear-gradient)"/>
      </g>
      <g transform="matrix(0.81, 0.59, -0.59, 0.81, -387.07, -351.37)" filter="url(#联合_64)">
        <path id="联合_64-3" data-name="联合 64" d="M12.878,26.2c-.909,0-1.64-.443-1.64-.984V20.771c0-3,4.035-5.43,9.014-5.43h4.914c4.977,0,9.017,2.431,9.017,5.43v4.442c0,.541-.736.984-1.642.984ZM3.993,14.719V12.225h-2.5a1.5,1.5,0,0,1,0-3h2.5V6.737a1.5,1.5,0,0,1,3,0V9.23H9.48a1.5,1.5,0,0,1,0,3H6.99v2.493a1.5,1.5,0,1,1-3,0Zm12.44-8.324a6.277,6.277,0,1,1,12.552,0,6.277,6.277,0,1,1-12.552,0Z" transform="translate(533.72 64.63) rotate(-37)" opacity="0.45" fill="url(#linear-gradient-2)"/>
      </g>
    </g>
    <g id="组_1820" data-name="组 1820" transform="translate(659 13657)">
      <g transform="matrix(1, 0, 0, 1, -610, -72.24)" filter="url(#椭圆_102-3)">
        <circle id="椭圆_102-7" data-name="椭圆 102" cx="22" cy="22" r="22" transform="translate(610 72.24)" fill="url(#linear-gradient-5)"/>
      </g>
      <g id="组_1677" data-name="组 1677" transform="translate(10.905 11.691)" opacity="0.69">
        <g transform="matrix(1, 0, 0, 1, -620.91, -83.93)" filter="url(#路径_20056)">
          <path id="路径_20056-2" data-name="路径 20056" d="M320.559,72.109a1.951,1.951,0,0,0-.083-2.078,1.992,1.992,0,0,0-2.054-.839c-1.067.168-2.136.351-3.205.523-.081.013-.162.056-.243,0a.227.227,0,0,1-.032.024.226.226,0,0,0,.032-.024c.06-.194.125-.387.179-.584a5.974,5.974,0,0,0,.194-2.1,4.922,4.922,0,0,0-.22-1.264,2.653,2.653,0,0,0-2.627-1.833,1.382,1.382,0,0,0-1.442,1.406A7.776,7.776,0,0,1,311,66.613a6.037,6.037,0,0,1-1.268,2.722,12.557,12.557,0,0,1-1.413,1.471h0c-.468.383-.939.761-1.431,1.112a.34.34,0,0,0-.139.332l1.587,9.65a.344.344,0,0,0,.269.281,13.013,13.013,0,0,0,1.562.22,15.5,15.5,0,0,0,3.6-.178c1.732-.263,3.458-.561,5.185-.849a2.486,2.486,0,0,0,.548-.144,1.983,1.983,0,0,0,.913-2.987.176.176,0,0,1,.024-.27,1.933,1.933,0,0,0,.2-2.506.178.178,0,0,1,.025-.269,1.953,1.953,0,0,0-.051-2.81C320.506,72.28,320.5,72.215,320.559,72.109Z" transform="translate(321.54 20)" stroke="rgba(0,0,0,0)" stroke-width="1" fill="url(#linear-gradient-6)"/>
        </g>
        <g transform="matrix(1, 0, 0, 1, -620.91, -83.93)" filter="url(#路径_20057)">
          <path id="路径_20057-2" data-name="路径 20057" d="M304.071,74.181l0-.024-.021-.127a.854.854,0,0,0-.211-.517c-.017-.017-.036-.027-.054-.041a.545.545,0,0,0-.055-.043.686.686,0,0,0-.062-.034.614.614,0,0,0-.057-.024.536.536,0,0,0-.094-.028l-.012,0a.779.779,0,0,0-.268,0l-2.623.431-2.624.431a.788.788,0,0,0-.253.089l-.01,0a.644.644,0,0,0-.081.057.575.575,0,0,0-.047.041.6.6,0,0,0-.047.052.489.489,0,0,0-.039.058.585.585,0,0,0-.038.056.859.859,0,0,0-.035.557l.021.128,0,.024,0,.021q.649,3.953,1.3,7.9c.128.777.253,1.555.384,2.332a.669.669,0,0,0,.853.615q.661-.107,1.323-.218c.217-.029.433-.073.65-.107l.6-.1.6-.1c.216-.038.435-.066.649-.107.442-.072.883-.143,1.323-.216a.669.669,0,0,0,.611-.856c-.124-.778-.254-1.555-.382-2.332l-1.3-7.9Z" transform="translate(323.5 18.03)" stroke="rgba(0,0,0,0)" stroke-width="1" fill="url(#linear-gradient-6)"/>
        </g>
      </g>
    </g>
    <g id="组_1816" data-name="组 1816" transform="translate(110 13604)">
      <g transform="matrix(1, 0, 0, 1, -61, -19.24)" filter="url(#路径_20425)">
        <path id="路径_20425-2" data-name="路径 20425" d="M28.5,0A28.5,28.5,0,1,1,0,28.5,28.5,28.5,0,0,1,28.5,0Z" transform="translate(61 19.24)" fill="url(#linear-gradient-5)"/>
      </g>
      <g transform="matrix(1, 0, 0, 1, -61, -19.24)" filter="url(#联合_64-2)">
        <path id="联合_64-4" data-name="联合 64" d="M13.474,27.409c-.951,0-1.715-.464-1.715-1.03V21.732c0-3.138,4.221-5.681,9.431-5.681h5.141c5.208,0,9.434,2.544,9.434,5.681V26.38c0,.566-.77,1.03-1.718,1.03ZM4.178,15.4V12.791H1.563a1.567,1.567,0,0,1,0-3.134H4.178V7.049a1.568,1.568,0,0,1,3.135,0V9.657H9.918a1.567,1.567,0,0,1,0,3.134H7.313V15.4a1.568,1.568,0,1,1-3.135,0ZM17.193,6.691a6.567,6.567,0,1,1,13.133,0,6.567,6.567,0,1,1-13.133,0Z" transform="translate(73.27 28.54) rotate(14)" opacity="0.52" fill="url(#linear-gradient-2)"/>
      </g>
    </g>
    <g id="组_1819" data-name="组 1819" transform="translate(125.5 13683.5)">
      <g transform="matrix(1, 0, 0, 1, -76.5, -98.74)" filter="url(#椭圆_102-4)">
        <circle id="椭圆_102-8" data-name="椭圆 102" cx="28.5" cy="28.5" r="28.5" transform="translate(77 99.24)" fill="url(#linear-gradient)"/>
      </g>
      <text id="_35K" data-name="35K" transform="matrix(0.914, -0.407, 0.407, 0.914, 29.149, 35.224)" fill="#fff" font-size="20" font-family="SegoeUI-Bold, Segoe UI" font-weight="700" opacity="0.38"><tspan x="-17.993" y="0">35K</tspan></text>
    </g>
  </g>
</svg>
