<svg xmlns="http://www.w3.org/2000/svg" xmlns:xlink="http://www.w3.org/1999/xlink" width="23.476" height="18.259" viewBox="0 0 23.476 18.259"><defs><style>.a{fill:url(#a);}</style><linearGradient id="a" y1="0.468" x2="1" y2="0.471" gradientUnits="objectBoundingBox"><stop offset="0" stop-color="#ffe047"/><stop offset="0.456" stop-color="#ff6388"/><stop offset="1" stop-color="#1d34ff"/></linearGradient></defs><path class="a" d="M15631.521-4691.741v-.651a5.224,5.224,0,0,0-5.222-5.216h-2.608a5.222,5.222,0,0,0-5.217,5.216v.651h-1.955v-1.3a6.528,6.528,0,0,1,6.523-6.52h3.91a6.529,6.529,0,0,1,6.522,6.52v1.3Zm-18.912-7.5v-1.628h-1.635a.976.976,0,0,1-.975-.978.976.976,0,0,1,.975-.978h1.635v-1.631a.973.973,0,0,1,.975-.976.978.978,0,0,1,.981.976v1.631h1.628a.978.978,0,0,1,.978.978.978.978,0,0,1-.978.978h-1.628v1.628a.98.98,0,0,1-.981.981A.975.975,0,0,1,15612.609-4699.243Zm7.172-5.539A5.223,5.223,0,0,1,15625-4710a5.222,5.222,0,0,1,5.216,5.219,5.219,5.219,0,0,1-5.216,5.214A5.22,5.22,0,0,1,15619.781-4704.781Zm1.955,0a3.264,3.264,0,0,0,3.261,3.26,3.265,3.265,0,0,0,3.262-3.26,3.265,3.265,0,0,0-3.262-3.262A3.264,3.264,0,0,0,15621.736-4704.781Z" transform="translate(-15610 4710)"/></svg>