<svg xmlns="http://www.w3.org/2000/svg" width="21.422" height="21.637" viewBox="0 0 21.422 21.637"><defs><style>.a{fill:#ff9c39;}</style></defs><g transform="translate(0 0)"><path class="a" d="M23.422,5.977,18.5,1.8,17.1,3.407,22.03,7.584ZM8.32,3.514,6.927,1.907,2,5.977,3.392,7.584,8.32,3.514Zm4.392.643a9.64,9.64,0,1,0,9.64,9.64A9.6,9.6,0,0,0,12.711,4.156Zm0,17.138a7.5,7.5,0,1,1,7.5-7.5A7.452,7.452,0,0,1,12.711,21.294Z" transform="translate(-2 -1.8)"/><path class="a" d="M52.6,35.55H50.992v6.427l5.034,3.106.857-1.285L52.6,41.227Z" transform="translate(-41.352 -28.909)"/></g></svg>