<svg xmlns="http://www.w3.org/2000/svg" width="29.171" height="29.171" viewBox="0 0 29.171 29.171"><defs><style>.a{fill:#ffdb4b;}</style></defs><path class="a" d="M22.585,8A14.585,14.585,0,1,0,37.171,22.585,14.585,14.585,0,0,0,22.585,8Zm0,2.823A11.762,11.762,0,1,1,10.823,22.585,11.756,11.756,0,0,1,22.585,10.823m8.246,7.661-1.325-1.336a.706.706,0,0,0-1,0l-8.313,8.246-3.517-3.545a.706.706,0,0,0-1,0l-1.336,1.325a.706.706,0,0,0,0,1l5.339,5.382a.706.706,0,0,0,1,0l10.15-10.069A.706.706,0,0,0,30.831,18.484Z" transform="translate(-8 -8)"/></svg>