<svg xmlns="http://www.w3.org/2000/svg" xmlns:xlink="http://www.w3.org/1999/xlink" width="514" height="399.2" viewBox="0 0 514 399.2"><defs><linearGradient id="a" x1="-0.114" y1="1.26" x2="1.048" y2="-0.207" gradientUnits="objectBoundingBox"><stop offset="0" stop-color="#bbd4ff"/><stop offset="1" stop-color="#ffd6f8"/></linearGradient><linearGradient id="b" x1="0.133" y1="0.133" x2="0.943" y2="0.943" gradientUnits="objectBoundingBox"><stop offset="0" stop-color="#ffb16d"/><stop offset="0.492" stop-color="#ff437c"/><stop offset="1" stop-color="#a733ff"/></linearGradient><linearGradient id="c" x1="0.5" x2="0.5" y2="1" gradientUnits="objectBoundingBox"><stop offset="0" stop-color="#fff"/><stop offset="1" stop-color="#fffefe" stop-opacity="0.102"/></linearGradient></defs><g transform="translate(-1010 -6627.8)"><g transform="translate(2350.356 7031.429)"><path d="M14,0H401.676a14.138,14.138,0,0,1,14,14.272V278.323a14.138,14.138,0,0,1-14,14.272H14A14.138,14.138,0,0,1,0,278.323V14.272A14.138,14.138,0,0,1,14,0Z" transform="translate(-1280.032 -341.714)" fill="url(#a)"/><path d="M12.849,0H355.791c7.1,0,12.849,4.875,12.849,10.888V195.994c0,6.013-5.753,10.888-12.849,10.888H12.849C5.752,206.882,0,202.008,0,195.994V10.888C0,4.875,5.752,0,12.849,0Z" transform="translate(-1255.319 -312.76)" fill="#fff"/><g transform="translate(-1280.032 -105.878)"><path d="M0,0H415.676a0,0,0,0,1,0,0V42.758a14,14,0,0,1-14,14H14a14,14,0,0,1-14-14V0A0,0,0,0,1,0,0Z" fill="none"/><g transform="translate(95.038 18.948)"><path d="M2.552,0H258.1a2.552,2.552,0,1,1,0,5.1H2.552a2.552,2.552,0,1,1,0-5.1Z" transform="translate(0 5.452)" fill="#fff"/><rect width="136.353" height="5.104" rx="2.552" transform="translate(0 5.452)" fill="#005fff"/><path d="M-1110.723-158.583a7.956,7.956,0,0,1-7.957,7.957,7.956,7.956,0,0,1-7.955-7.957,7.956,7.956,0,0,1,7.955-7.957A7.956,7.956,0,0,1-1110.723-158.583Z" transform="translate(1251.005 166.54)" fill="#005fff"/></g><g transform="translate(17.175 15.949)"><path d="M10.264,3.039a2,2,0,0,1,3.473,0L22.29,18.008A2,2,0,0,1,20.554,21H3.446A2,2,0,0,1,1.71,18.008Z" transform="translate(21) rotate(90)" fill="#005fff"/></g><g transform="translate(57.484 22.219)"><g transform="translate(0 0)"><g transform="translate(18.161)"><path d="M-1219.39-160.261l-8.06-5.3c.011,7.985,0,4.068,0,10.594Z" transform="translate(1227.45 165.558)" fill="#005fff"/><rect width="1.511" height="10.592" transform="translate(7.921 0.001)" fill="#005fff"/></g><g transform="translate(1.371)"><path d="M-1238.34-160.261l8.061,5.3c-.009-7.985,0-4.068,0-10.594Z" transform="translate(1238.34 165.558)" fill="#005fff"/></g><rect width="1.511" height="10.592" transform="translate(1.511 10.593) rotate(180)" fill="#005fff"/></g></g><g transform="translate(371.047 18.948)"><rect width="22.938" height="16.328" rx="1.98" fill="#005fff"/><g transform="translate(975.457 169.626)"><path d="M-962.752-161.048h-1.766v.883h2.649v-2.649h-.883Z" transform="translate(1.98 1.98)" fill="#fff"/><path d="M-966.479-162.814h-.883v2.649h2.649v-.883h-1.766Z" transform="translate(0 1.98)" fill="#fff"/><path d="M-967.362-163.009h.883v-1.766h1.766v-.883h-2.649Z" transform="translate(0 0)" fill="#fff"/><path d="M-964.518-165.658v.883h1.766v1.766h.883v-2.649Z" transform="translate(1.98 0)" fill="#fff"/></g></g></g><g transform="translate(30.44 43.644)"><circle cx="36.522" cy="36.522" r="36.522" transform="translate(-1144.894 -209.081) rotate(-76.717)" fill="#f2d6fa" opacity="0.2"/><g transform="translate(-1112.072 -256.184)"><path d="M-1092.238-243.931-1122.6-263.88c.04,30.075,0,15.316,0,39.9Z" transform="translate(1122.603 263.88)" fill="#f2d6fa"/></g></g></g><g transform="translate(1158 2171)"><g transform="translate(-148 4672)" fill="none" stroke="#66f" stroke-width="8"><circle cx="16" cy="16" r="16" stroke="none"/><circle cx="16" cy="16" r="12" fill="none"/></g><g transform="translate(98 4462)" fill="none" stroke="#ff826e" stroke-width="4"><circle cx="8" cy="8" r="8" stroke="none"/><circle cx="8" cy="8" r="6" fill="none"/></g><circle cx="7" cy="7" r="7" transform="translate(123 4842)" fill="#ffb92d"/><circle cx="8" cy="8" r="8" transform="translate(350 4470)" fill="#2d6cff"/></g><g transform="translate(1346.059 6612.396) rotate(45)"><path d="M66.238,12.054a12.27,12.27,0,0,0-10.9-10.9,203.548,203.548,0,0,0-43.284,0,12.271,12.271,0,0,0-10.9,10.9,203.548,203.548,0,0,0,0,43.284,12.271,12.271,0,0,0,10.9,10.9,203.552,203.552,0,0,0,43.284,0,12.271,12.271,0,0,0,10.9-10.9,203.548,203.548,0,0,0,0-43.284Zm0,0" transform="translate(107.265 -15.412)" fill="#ff6363"/></g><g transform="translate(1260.059 6600.183) rotate(45)"><path d="M30.4,5.531a5.63,5.63,0,0,0-5-5,93.4,93.4,0,0,0-19.862,0,5.631,5.631,0,0,0-5,5,93.4,93.4,0,0,0,0,19.862,5.631,5.631,0,0,0,5,5,93.405,93.405,0,0,0,19.862,0,5.631,5.631,0,0,0,5-5,93.4,93.4,0,0,0,0-19.862Zm0,0" transform="translate(107.265 -15.412)" fill="#47dc89"/></g><g transform="translate(1145.805 6627.8) rotate(45)"><path d="M93.408,17A17.3,17.3,0,0,0,78.037,1.627,287.041,287.041,0,0,0,17,1.627,17.3,17.3,0,0,0,1.627,17a287.041,287.041,0,0,0,0,61.038A17.3,17.3,0,0,0,17,93.408a287.048,287.048,0,0,0,61.039,0A17.3,17.3,0,0,0,93.408,78.036a287.041,287.041,0,0,0,0-61.038Zm0,0" transform="translate(0 0)" fill="url(#b)"/></g><g transform="translate(1117.671 6667.003)"><path d="M0,17.041c.188-1.329.332-2.665.571-3.984C1.926,5.585,7.216.5,14.779.241c9.106-.313,18.24-.329,27.345,0a14.633,14.633,0,0,1,14.45,14.626q.41,13.116,0,26.252A14.632,14.632,0,0,1,42.124,55.744c-9.1.329-18.241.337-27.345,0C6.547,55.429.855,49.321.3,41.074c-.048-.713-.2-1.42-.3-2.13v-21.9ZM28.4,50.864c4.167,0,8.338.125,12.5-.029,6.524-.242,10.538-4.136,10.69-10.654q.283-12.183,0-24.378C51.434,9.286,47.418,5.3,40.9,5.163q-12.417-.263-24.842,0C9.582,5.3,5.557,9.2,5.381,15.648q-.335,12.337,0,24.689c.176,6.445,4.2,10.258,10.673,10.5,4.109.153,8.228.029,12.343.029Zm0,0" fill="#fff"/><path d="M14.469,0A14.468,14.468,0,1,0,28.937,14.468,14.469,14.469,0,0,0,14.469,0Zm0,23.955a9.487,9.487,0,1,1,9.487-9.487A9.487,9.487,0,0,1,14.469,23.955Zm0,0" transform="translate(13.921 13.529)" fill="#fff"/><path d="M6.884,3.442A3.442,3.442,0,1,1,3.442,0,3.442,3.442,0,0,1,6.884,3.442Zm0,0" transform="translate(40.261 9.426)" fill="#fff"/></g><g transform="translate(1035.059 6713.22) rotate(45)"><path d="M51.194,9.316A9.483,9.483,0,0,0,42.77.892a157.318,157.318,0,0,0-33.453,0A9.484,9.484,0,0,0,.892,9.316a157.318,157.318,0,0,0,0,33.453,9.484,9.484,0,0,0,8.425,8.425,157.321,157.321,0,0,0,33.453,0,9.484,9.484,0,0,0,8.425-8.425,157.317,157.317,0,0,0,0-33.453Zm0,0" transform="translate(107.265 -15.412)" fill="#1977f3"/></g><path d="M42.332,21.851l1.079-7.03H36.665V10.259c0-1.923.942-3.8,3.963-3.8H43.7V.475A37.4,37.4,0,0,0,38.252,0C32.7,0,29.065,3.367,29.065,9.463v5.358H22.89v7.03h6.175v17h7.6v-17Z" transform="translate(1087.11 6795.154)" fill="#fff"/><path d="M53.812,68.369A4.989,4.989,0,0,0,50.3,64.835C47.2,64,34.788,64,34.788,64s-12.417,0-15.514.835a4.99,4.99,0,0,0-3.511,3.533c-.83,3.117-.83,9.62-.83,9.62s0,6.5.83,9.62a4.915,4.915,0,0,0,3.511,3.477c3.1.835,15.514.835,15.514.835s12.417,0,15.514-.835a4.915,4.915,0,0,0,3.511-3.477c.83-3.117.83-9.62.83-9.62S54.642,71.485,53.812,68.369ZM30.726,83.893V72.084l10.378,5.9Z" transform="translate(1398.016 6647.115)" fill="#fff"/><g transform="translate(1133.059 6676.22) rotate(45)"><path d="M51.194,9.316A9.483,9.483,0,0,0,42.77.892a157.318,157.318,0,0,0-33.453,0A9.484,9.484,0,0,0,.892,9.316a157.318,157.318,0,0,0,0,33.453,9.484,9.484,0,0,0,8.425,8.425,157.321,157.321,0,0,0,33.453,0,9.484,9.484,0,0,0,8.425-8.425,157.317,157.317,0,0,0,0-33.453Zm0,0" transform="translate(107.265 -15.412)" fill="#fbe267"/></g><path d="M29.161,69.946q-.2,4.259-5.952,11.663-5.949,7.736-10.068,7.736-2.549,0-4.318-4.708C6.532,76.224,5.555,71.294,3.66,71.294a9.088,9.088,0,0,0-2.292,1.374L0,70.9c3.36-2.95,6.571-6.232,8.583-6.414q3.409-.332,4.194,4.656c1.869,11.819,2.7,13.6,6.1,8.251a11.5,11.5,0,0,0,1.967-4.4c.313-2.989-2.331-2.787-4.122-2.019q2.149-7.043,8.218-6.844c2.983.078,4.4,2.025,4.226,5.822Z" transform="translate(1205 6703.035)" fill="#fff"/><g transform="translate(1411.805 6818.069) rotate(45)"><path d="M47.164,8.583A8.737,8.737,0,0,0,39.4.822a144.933,144.933,0,0,0-30.819,0A8.737,8.737,0,0,0,.822,8.583a144.933,144.933,0,0,0,0,30.819,8.737,8.737,0,0,0,7.761,7.762,144.935,144.935,0,0,0,30.82,0A8.737,8.737,0,0,0,47.164,39.4a144.932,144.932,0,0,0,0-30.819Zm0,0" fill="#33a6ff"/></g><path d="M642.2,207.107h-.558q-.444-.044-.948-.044c-.549,0-1.1.021-1.647.044h-3.316c-.051,0-.1,0-.152.008a4.27,4.27,0,0,1-2.328-.85c-1.064-.886-.93-3.2-.93-3.493v-1.758H641.1s3.523.2,3.523-3.19-3.855-3.058-3.855-3.058h-8.44v-3.456a2.667,2.667,0,0,0-2.659-2.659H629a2.667,2.667,0,0,0-2.659,2.659v11.461s-.344,5.32,2.127,7.791a9.238,9.238,0,0,0,6.674,2.68c.217.017.4,0,.593,0H642.2a2.667,2.667,0,0,0,2.659-2.659v-.819A2.666,2.666,0,0,0,642.2,207.107Z" transform="translate(777.123 6651.784)" fill="#fff"/><path d="M24.752,40.931l1.041,1.041a1.121,1.121,0,0,1,0,1.589l-9.109,9.114a1.121,1.121,0,0,1-1.589,0L5.981,43.561a1.121,1.121,0,0,1,0-1.589l1.041-1.041a1.126,1.126,0,0,1,1.608.019L14.012,46.6V33.125A1.122,1.122,0,0,1,15.137,32h1.5a1.122,1.122,0,0,1,1.125,1.125V46.6l5.382-5.649a1.118,1.118,0,0,1,1.608-.019Z" transform="translate(1331.14 6644.856)" fill="url(#c)"/><g transform="translate(11 2)"><g transform="translate(1232.059 6659.961) rotate(45)"><path d="M73.794,13.429A13.67,13.67,0,0,0,61.65,1.285a226.766,226.766,0,0,0-48.221,0A13.671,13.671,0,0,0,1.285,13.429a226.766,226.766,0,0,0,0,48.221A13.671,13.671,0,0,0,13.429,73.794a226.771,226.771,0,0,0,48.221,0A13.67,13.67,0,0,0,73.794,61.65a226.765,226.765,0,0,0,0-48.221Zm0,0" transform="translate(107.265 -15.412)" fill="#33a6ff"/></g><path d="M37.164,56.466c.026.368.026.736.026,1.1,0,11.223-8.542,24.154-24.154,24.154A23.99,23.99,0,0,1,0,77.913a17.562,17.562,0,0,0,2.05.105,17,17,0,0,0,10.539-3.627A8.5,8.5,0,0,1,4.652,68.5a10.706,10.706,0,0,0,1.6.131,8.978,8.978,0,0,0,2.234-.289,8.49,8.49,0,0,1-6.807-8.332v-.105a8.55,8.55,0,0,0,3.837,1.078A8.5,8.5,0,0,1,2.891,49.633a24.13,24.13,0,0,0,17.5,8.883,9.583,9.583,0,0,1-.21-1.945,8.5,8.5,0,0,1,14.692-5.808,16.714,16.714,0,0,0,5.388-2.05,8.466,8.466,0,0,1-3.732,4.678,17.018,17.018,0,0,0,4.889-1.314A18.248,18.248,0,0,1,37.164,56.466Z" transform="translate(1297.938 6715.915)" fill="#fff"/></g></g></svg>