<svg xmlns="http://www.w3.org/2000/svg" xmlns:xlink="http://www.w3.org/1999/xlink" width="542.125" height="433" viewBox="0 0 542.125 433"><defs><linearGradient id="a" x1="0.036" y1="1.066" x2="1.055" y2="-0.141" gradientUnits="objectBoundingBox"><stop offset="0" stop-color="#ffb16d"/><stop offset="0.492" stop-color="#ff437c"/><stop offset="1" stop-color="#a733ff"/></linearGradient><linearGradient id="b" x1="0.816" y1="0.182" x2="0.172" y2="0.835" gradientUnits="objectBoundingBox"><stop offset="0" stop-color="#833ab4"/><stop offset="0.092" stop-color="#9c3495"/><stop offset="0.293" stop-color="#dc2546"/><stop offset="0.392" stop-color="#fd1d1d"/><stop offset="0.559" stop-color="#fc6831"/><stop offset="0.689" stop-color="#fc9b40"/><stop offset="0.752" stop-color="#fcaf45"/><stop offset="0.781" stop-color="#fdb750"/><stop offset="0.866" stop-color="#fecb6a"/><stop offset="0.942" stop-color="#ffd87a"/><stop offset="1" stop-color="#ffdc80"/></linearGradient></defs><g transform="translate(95.624 48.52)"><g transform="matrix(0.875, -0.485, 0.485, 0.875, 15.401, 485.131)"><g transform="translate(373.196 -60.83)" fill="#fff" stroke="#707070" stroke-width="1"><circle cx="35.961" cy="35.961" r="35.961" stroke="none"/><circle cx="35.961" cy="35.961" r="35.461" fill="none"/></g><path d="M37.919,0A37.919,37.919,0,1,0,75.838,37.919,37.913,37.913,0,0,0,37.919,0ZM55.61,41.589,28.7,57.032a3.676,3.676,0,0,1-5.459-3.211v-31.8A3.678,3.678,0,0,1,28.7,18.807L45.1,28.78,55.61,35.167A3.681,3.681,0,0,1,55.61,41.589Z" transform="matrix(0.899, 0.438, -0.438, 0.899, 391.937, -75.687)" fill="#ff6363"/></g><path d="M315.764,57.462A58.493,58.493,0,0,0,263.8,5.5a970.335,970.335,0,0,0-206.337,0A58.5,58.5,0,0,0,5.5,57.462,970.335,970.335,0,0,0,5.5,263.8a58.5,58.5,0,0,0,51.962,51.965,970.357,970.357,0,0,0,206.34,0A58.5,58.5,0,0,0,315.764,263.8a970.333,970.333,0,0,0,0-206.337Zm0,0" transform="translate(18.848 18.848)" fill="url(#a)"/><path d="M95.09,165.032c.748-5.28,1.317-10.59,2.268-15.832,5.387-29.69,26.406-49.89,56.46-50.925C190,97.031,226.3,96.966,262.478,98.269c32.71,1.178,56.4,25.4,57.421,58.12q1.631,52.118,0,104.321c-1.022,32.721-24.7,56.939-57.418,58.12-36.18,1.306-72.484,1.339-108.661-.019C121.1,317.58,98.488,293.3,96.3,260.534c-.189-2.834-.8-5.644-1.211-8.465V165.032Zm112.843,134.4c16.558,0,33.132.5,49.668-.115,25.927-.961,41.874-16.435,42.479-42.337q1.126-48.412,0-96.871c-.605-25.9-16.563-41.731-42.479-42.282q-49.341-1.043-98.717,0c-25.719.54-41.712,16.054-42.411,41.666q-1.331,49.024,0,98.107c.7,25.609,16.692,40.765,42.413,41.718,16.328.608,32.7.115,49.046.115Zm0,0" transform="translate(-28.423 -29.089)" fill="url(#b)"/><g transform="translate(66.667 68.228)"><path d="M95.09,165.032c.748-5.28,1.317-10.59,2.268-15.832,5.387-29.69,26.406-49.89,56.46-50.925C190,97.031,226.3,96.966,262.478,98.269c32.71,1.178,56.4,25.4,57.421,58.12q1.631,52.118,0,104.321c-1.022,32.721-24.7,56.939-57.418,58.12-36.18,1.306-72.484,1.339-108.661-.019C121.1,317.58,98.488,293.3,96.3,260.534c-.189-2.834-.8-5.644-1.211-8.465V165.032Zm112.843,134.4c16.558,0,33.132.5,49.668-.115,25.927-.961,41.874-16.435,42.479-42.337q1.126-48.412,0-96.871c-.605-25.9-16.563-41.731-42.479-42.282q-49.341-1.043-98.717,0c-25.719.54-41.712,16.054-42.411,41.666q-1.331,49.024,0,98.107c.7,25.609,16.692,40.765,42.413,41.718,16.328.608,32.7.115,49.046.115Zm0,0" transform="translate(-95.09 -97.317)" fill="#fff"/><path d="M231.487,174a57.494,57.494,0,1,0,57.5,57.492A57.5,57.5,0,0,0,231.487,174Zm0,95.192a37.7,37.7,0,1,1,37.7-37.7A37.7,37.7,0,0,1,231.487,269.188Zm0,0" transform="translate(-118.674 -120.237)" fill="#fff"/><path d="M350.642,164.422a13.678,13.678,0,1,1-13.677-13.68A13.677,13.677,0,0,1,350.642,164.422Zm0,0" transform="translate(-163.299 -113.286)" fill="#fff"/></g><g transform="translate(-66.916 213.343) rotate(-21)"><g transform="translate(385.377 -48.352)" fill="#fff" stroke="#707070" stroke-width="1"><circle cx="66.165" cy="66.165" r="66.165" stroke="none"/><circle cx="66.165" cy="66.165" r="65.665" fill="none"/></g><path d="M69.768,0a69.768,69.768,0,1,0,69.768,69.768A69.756,69.756,0,0,0,69.768,0Zm32.549,76.519L52.8,104.933a6.764,6.764,0,0,1-10.043-5.908V40.51A6.768,6.768,0,0,1,52.8,34.6L82.986,52.952,102.317,64.7A6.773,6.773,0,0,1,102.317,76.519Z" transform="matrix(0.899, 0.438, -0.438, 0.899, 419.861, -75.687)" fill="#ff6363"/></g><g transform="translate(-434.111 -32.941) rotate(20)"><g transform="translate(373.78 -60.069)" fill="#fff" stroke="#707070" stroke-width="1"><circle cx="37.751" cy="37.751" r="37.751" stroke="none"/><circle cx="37.751" cy="37.751" r="37.251" fill="none"/></g><path d="M39.784,0A39.784,39.784,0,1,0,79.569,39.784,39.778,39.778,0,0,0,39.784,0ZM58.345,43.635l-28.234,16.2a3.857,3.857,0,0,1-5.727-3.369V23.1a3.859,3.859,0,0,1,5.727-3.369L47.322,30.2l11.023,6.7A3.862,3.862,0,0,1,58.345,43.635Z" transform="matrix(0.899, 0.438, -0.438, 0.899, 393.573, -75.687)" fill="#ff6363"/></g><g transform="translate(116.504 -60.147) rotate(106)"><g transform="translate(370.394 -63.574)" fill="#fff" stroke="#707070" stroke-width="1"><circle cx="29.279" cy="29.279" r="29.279" stroke="none"/><circle cx="29.279" cy="29.279" r="28.779" fill="none"/></g><path d="M30.856,0A30.856,30.856,0,1,0,61.713,30.856,30.851,30.851,0,0,0,30.856,0Zm14.4,33.843-21.9,12.567A2.991,2.991,0,0,1,18.912,43.8V17.917A2.993,2.993,0,0,1,23.354,15.3L36.7,23.419l8.549,5.2A3,3,0,0,1,45.252,33.843Z" transform="matrix(0.899, 0.438, -0.438, 0.899, 385.745, -75.687)" fill="#ff6363"/></g><g transform="translate(-755.521 -4472.52)"><g transform="translate(285 477)"><g transform="translate(393 4208)" fill="none" opacity="0.7"><path d="M16,0A16,16,0,1,1,0,16,16,16,0,0,1,16,0Z" stroke="none"/><path d="M 16 8 C 11.58878707885742 8 8 11.58878707885742 8 16 C 8 20.41121292114258 11.58878707885742 24 16 24 C 20.41121292114258 24 24 20.41121292114258 24 16 C 24 11.58878707885742 20.41121292114258 8 16 8 M 16 0 C 24.83654975891113 0 32 7.163450241088867 32 16 C 32 24.83654975891113 24.83654975891113 32 16 32 C 7.163450241088867 32 0 24.83654975891113 0 16 C 0 7.163450241088867 7.163450241088867 0 16 0 Z" stroke="none" fill="#005fff"/></g><g transform="translate(800 4356)" fill="none" opacity="0.7"><path d="M12,0A12,12,0,1,1,0,12,12,12,0,0,1,12,0Z" stroke="none"/><path d="M 12 5 C 8.140190124511719 5 5 8.140190124511719 5 12 C 5 15.85980987548828 8.140190124511719 19 12 19 C 15.85980987548828 19 19 15.85980987548828 19 12 C 19 8.140190124511719 15.85980987548828 5 12 5 M 12 0 C 18.62742042541504 0 24 5.372579574584961 24 12 C 24 18.62742042541504 18.62742042541504 24 12 24 C 5.372579574584961 24 0 18.62742042541504 0 12 C 0 5.372579574584961 5.372579574584961 0 12 0 Z" stroke="none" fill="#fc0"/></g><g transform="translate(566 3947)" fill="none" opacity="0.7"><path d="M12,0A12,12,0,1,1,0,12,12,12,0,0,1,12,0Z" stroke="none"/><path d="M 12 5 C 8.140190124511719 5 5 8.140190124511719 5 12 C 5 15.85980987548828 8.140190124511719 19 12 19 C 15.85980987548828 19 19 15.85980987548828 19 12 C 19 8.140190124511719 15.85980987548828 5 12 5 M 12 0 C 18.62742042541504 0 24 5.372579574584961 24 12 C 24 18.62742042541504 18.62742042541504 24 12 24 C 5.372579574584961 24 0 18.62742042541504 0 12 C 0 5.372579574584961 5.372579574584961 0 12 0 Z" stroke="none" fill="#7c56ff"/></g></g></g></g></svg>