<svg xmlns="http://www.w3.org/2000/svg" width="20.807" height="26.284" viewBox="0 0 20.807 26.284"><defs><style>.a{opacity:0.8;}.b{fill:#fff;}</style></defs><g class="a"><g transform="translate(4.38 9.858)"><path class="b" d="M150.181,192.034H139.231a.548.548,0,0,0-.548.548v8.761a2.742,2.742,0,0,0,2.19,2.683v2.792a1.643,1.643,0,1,0,3.285,0V204.08h1.1v2.738a1.643,1.643,0,1,0,3.285,0v-2.792a2.742,2.742,0,0,0,2.19-2.683v-8.761A.547.547,0,0,0,150.181,192.034Z" transform="translate(-138.683 -192.034)"/></g><g transform="translate(4.38 0)"><path class="b" d="M147.573,2.917,148.5.763a.547.547,0,1,0-1.006-.43l-.923,2.155a5.967,5.967,0,0,0-3.717,0L141.924.333a.547.547,0,1,0-1.005.43l.923,2.154a6.027,6.027,0,0,0-3.158,5.3.548.548,0,0,0,.548.548h10.951a.548.548,0,0,0,.548-.548A6.028,6.028,0,0,0,147.573,2.917Zm-5.056,3.654a.548.548,0,1,1,.548-.548A.548.548,0,0,1,142.517,6.572Zm4.38,0a.548.548,0,1,1,.548-.548A.548.548,0,0,1,146.9,6.572Z" transform="translate(-138.684 0.001)"/></g><g transform="translate(17.521 9.858)"><path class="b" d="M396.327,192.034a1.645,1.645,0,0,0-1.643,1.643v5.475a1.643,1.643,0,0,0,3.285,0v-5.475A1.645,1.645,0,0,0,396.327,192.034Z" transform="translate(-394.684 -192.034)"/></g><g transform="translate(0 9.858)"><path class="b" d="M54.993,192.034a1.645,1.645,0,0,0-1.643,1.643v5.475a1.643,1.643,0,1,0,3.285,0v-5.475A1.645,1.645,0,0,0,54.993,192.034Z" transform="translate(-53.35 -192.034)"/></g></g></svg>