<svg xmlns="http://www.w3.org/2000/svg" width="19.806" height="17.534" viewBox="0 0 19.806 17.534"><g transform="translate(-2 -3)" fill="none" opacity="0.8"><path d="M11.9,20.534a2.582,2.582,0,0,1-1.436-.67C5.367,15.24,2,12.19,2,8.447A5.394,5.394,0,0,1,7.447,3,5.93,5.93,0,0,1,11.9,5.07,5.93,5.93,0,0,1,16.359,3a5.394,5.394,0,0,1,5.447,5.447c0,3.743-3.367,6.793-8.467,11.428A2.561,2.561,0,0,1,11.9,20.534Z" stroke="none"/><path d="M 11.90846729278564 18.45840644836426 C 11.94157218933105 18.43545150756836 11.97346782684326 18.41133689880371 11.99919509887695 18.38924407958984 L 12.03273773193359 18.35875701904297 C 16.71340751647949 14.10528659820557 19.80563735961914 11.29528713226318 19.80563735961914 8.44655704498291 C 19.80563735961914 7.505626678466797 19.45272827148438 6.63452672958374 18.81191825866699 5.993716716766357 C 18.17111778259277 5.352906703948975 17.30001831054688 4.999996662139893 16.35908889770508 4.999996662139893 C 15.25075817108154 4.999996662139893 14.15408802032471 5.510786533355713 13.42550849914551 6.366366863250732 L 11.90280818939209 8.154486656188965 L 10.38010787963867 6.366366863250732 C 9.651528358459473 5.510786533355713 8.554867744445801 4.999996662139893 7.446537971496582 4.999996662139893 C 6.505608081817627 4.999996662139893 5.63450813293457 5.352906703948975 4.993698120117188 5.993716716766357 C 4.352888107299805 6.63452672958374 3.999978303909302 7.505626678466797 3.999978303909302 8.44655704498291 C 3.999978303909302 11.30051708221436 7.102138042449951 14.1135368347168 11.79783821105957 18.37156677246094 L 11.810378074646 18.3829460144043 L 11.7998685836792 18.37145614624023 L 11.82015514373779 18.39138793945313 C 11.84588527679443 18.4130744934082 11.8767147064209 18.43631744384766 11.90846729278564 18.45840644836426 M 11.90683364868164 20.53418350219727 C 11.90547561645508 20.53418350219727 11.90416622161865 20.53418159484863 11.90280818939209 20.53417587280273 C 11.18485832214355 20.53169631958008 10.46689796447754 19.86451721191406 10.46689796447754 19.86451721191406 C 5.36693811416626 15.23989677429199 1.999978184700012 12.18982696533203 1.999978184700012 8.44655704498291 C 1.999978184700012 5.396486759185791 4.396468162536621 2.999996662139893 7.446537971496582 2.999996662139893 C 9.169628143310547 2.999996662139893 10.82339859008789 3.80212664604187 11.90280818939209 5.069686889648438 C 12.98221778869629 3.80212664604187 14.63598823547363 2.999996662139893 16.35908889770508 2.999996662139893 C 19.40914726257324 2.999996662139893 21.80563735961914 5.396486759185791 21.80563735961914 8.44655704498291 C 21.80563735961914 12.18982696533203 18.43867874145508 15.23989677429199 13.33871841430664 19.87441635131836 C 13.33871841430664 19.87441635131836 12.62343215942383 20.53418350219727 11.90683364868164 20.53418350219727 Z" stroke="none" fill="#000"/></g></svg>