<svg xmlns="http://www.w3.org/2000/svg" width="24.28" height="20.147" viewBox="0 0 24.28 20.147"><g fill="none" stroke-miterlimit="10" opacity="0.8"><path d="M4.283,18.44a.91.91,0,0,1-.462-.726,24.767,24.767,0,0,1,.562-4.081,4.8,4.8,0,0,1,3.605-3.089l.381,0a1.018,1.018,0,0,1,.458.117s.319.186.6.308a7.114,7.114,0,0,0,5.6-.007,6.038,6.038,0,0,0,.588-.3,1.135,1.135,0,0,1,.457-.117l.384,0a4.762,4.762,0,0,1,3.584,3.13,24.428,24.428,0,0,1,.543,4.032.971.971,0,0,1-.462.733c-.026.017-2.669,1.707-7.92,1.707S4.309,18.457,4.283,18.44Zm17.063-2.42h0a6.489,6.489,0,0,0-2.383-5.1,5.082,5.082,0,0,0,1.366-.372,4.332,4.332,0,0,0,.418-.214.822.822,0,0,1,.326-.083l.274,0a3.385,3.385,0,0,1,2.548,2.226,5.687,5.687,0,0,1,.386,2.1.691.691,0,0,1-.329.521,8.166,8.166,0,0,1-2.6.923Zm-18.413,0a8.166,8.166,0,0,1-2.6-.923A.694.694,0,0,1,0,14.576a5.687,5.687,0,0,1,.386-2.1,3.388,3.388,0,0,1,2.549-2.226l.273,0a.8.8,0,0,1,.326.083,4.348,4.348,0,0,0,.418.214,5.066,5.066,0,0,0,1.365.372,6.489,6.489,0,0,0-2.383,5.1h0ZM16.3,8.836a6.122,6.122,0,0,0,1.539-4.092,6.273,6.273,0,0,0-.292-1.9,3.309,3.309,0,0,1,.774-.092,3.39,3.39,0,0,1,0,6.779A3.255,3.255,0,0,1,16.3,8.836ZM7.53,4.766a4.682,4.682,0,1,1,9.362,0,4.682,4.682,0,1,1-9.362,0Zm-4.9,1.377A3.363,3.363,0,0,1,5.956,2.754a3.3,3.3,0,0,1,.774.092,6.273,6.273,0,0,0-.292,1.9A6.122,6.122,0,0,0,7.978,8.836a3.255,3.255,0,0,1-2.021.7A3.363,3.363,0,0,1,2.627,6.143Z" stroke="none"/><path d="M 12.20400047302246 18.14739990234375 C 15.50300979614258 18.14739990234375 17.62507629394531 17.40954208374023 18.5395393371582 17.00554847717285 C 18.42425537109375 15.6740026473999 18.15948867797852 14.42134094238281 18.10565185546875 14.17537879943848 C 17.89288902282715 13.4974536895752 17.05374145507813 12.74629592895508 16.31953048706055 12.55475521087646 C 16.16078758239746 12.63828563690186 16.00038528442383 12.71599292755127 15.83995056152344 12.78705024719238 L 15.82870006561279 12.79203987121582 L 15.81739044189453 12.79687976837158 C 14.67056083679199 13.28804969787598 13.45998001098633 13.53709983825684 12.21930027008057 13.53709983825684 C 10.98649024963379 13.53709983825684 9.783180236816406 13.29111957550049 8.642790794372559 12.80599021911621 L 8.636050224304199 12.80313014984131 L 8.629330635070801 12.80020999908447 C 8.450855255126953 12.72273826599121 8.271575927734375 12.63264465332031 8.120015144348145 12.55202388763428 C 7.406340599060059 12.72272491455078 6.560229301452637 13.47119140625 6.313375949859619 14.16486167907715 C 6.176308155059814 14.78327465057373 5.969385623931885 15.90567016601563 5.870283603668213 17.00650405883789 C 6.78706693649292 17.4109001159668 8.909328460693359 18.14739990234375 12.20400047302246 18.14739990234375 M 12.21120071411133 7.53279972076416 C 13.68945026397705 7.53279972076416 14.89210033416748 6.291800022125244 14.89210033416748 4.76639986038208 C 14.89210033416748 3.240999937057495 13.68945026397705 2 12.21120071411133 2 C 10.73295021057129 2 9.530300140380859 3.240999937057495 9.530300140380859 4.76639986038208 C 9.530300140380859 6.291800022125244 10.73295021057129 7.53279972076416 12.21120071411133 7.53279972076416 M 12.20400047302246 20.14739990234375 C 6.955200672149658 20.14739990234375 4.309200286865234 18.45719909667969 4.283100605010986 18.44009971618652 C 4.024800300598145 18.30240058898926 3.817800521850586 17.97660064697266 3.82140040397644 17.71380043029785 C 3.890700578689575 15.75179958343506 4.378500461578369 13.65390014648438 4.383000373840332 13.63319969177246 C 4.844700336456299 12.13650035858154 6.462000370025635 10.7504997253418 7.988400459289551 10.54440021514893 L 8.369100570678711 10.54080009460449 C 8.530200004577637 10.54349994659424 8.684100151062012 10.58310031890869 8.827200889587402 10.65779972076416 C 8.83080005645752 10.65960025787354 9.145800590515137 10.84409999847412 9.425700187683105 10.96560001373291 C 10.31850051879883 11.34539985656738 11.25810050964355 11.53709983825684 12.21930027008057 11.53709983825684 C 13.18680000305176 11.53709983825684 14.13270092010498 11.34270000457764 15.03000068664551 10.95839977264404 C 15.22710037231445 10.87110042572021 15.4242000579834 10.77029991149902 15.61770057678223 10.65779972076416 C 15.76260089874268 10.58669948577881 15.91650009155273 10.54710006713867 16.07489967346191 10.54080009460449 L 16.45919990539551 10.54440021514893 C 18.01799964904785 10.77840042114258 19.62540054321289 12.18239974975586 20.04300117492676 13.67459964752197 C 20.04840087890625 13.69530010223389 20.52000045776367 15.75450038909912 20.58570098876953 17.70660018920898 C 20.5929012298584 17.92440032958984 20.39310073852539 18.29159927368164 20.12400054931641 18.44009971618652 C 20.097900390625 18.45719909667969 17.4546012878418 20.14739990234375 12.20400047302246 20.14739990234375 Z M 21.34710121154785 16.02000045776367 L 21.34620094299316 16.02000045776367 L 21.34620094299316 16.01910018920898 C 21.41550064086914 13.40909957885742 19.8828010559082 11.70359992980957 18.9630012512207 10.91880035400391 C 19.43010139465332 10.86030006408691 19.88910102844238 10.73519992828369 20.32920074462891 10.54710006713867 C 20.47410011291504 10.4822998046875 20.61450004577637 10.41030025482178 20.74680137634277 10.33290004730225 C 20.84760093688965 10.28339958190918 20.95740127563477 10.25549983978271 21.07260131835938 10.25010013580322 L 21.34620094299316 10.25279998779297 C 22.45409965515137 10.41839981079102 23.59710121154785 11.41740036010742 23.89410018920898 12.47850036621094 C 23.89770126342773 12.48569965362549 24.23340034484863 13.18859958648682 24.28020095825195 14.57549953460693 C 24.28470039367676 14.730299949646 24.14249992370605 14.99219989776611 23.95170021057129 15.09659957885742 C 23.94359970092773 15.1028995513916 23.07060050964355 15.6653995513916 21.34710121154785 16.02000045776367 Z M 2.934900522232056 16.02000045776367 L 2.933100461959839 16.02000045776367 C 1.209600448608398 15.6653995513916 0.3366004824638367 15.1028995513916 0.3285004794597626 15.09659957885742 C 0.1386004835367203 14.99219989776611 -0.004499521106481552 14.730299949646 4.791259584635554e-07 14.57549953460693 C 0.04680047929286957 13.18859958648682 0.3825004696846008 12.48569965362549 0.3861004710197449 12.47850036621094 C 0.6840004920959473 11.41740036010742 1.827000498771667 10.41839981079102 2.934900522232056 10.25279998779297 L 3.207600593566895 10.25010013580322 C 3.323700428009033 10.25549983978271 3.432600498199463 10.28250026702881 3.533400535583496 10.33290004730225 C 3.665700435638428 10.41030025482178 3.807000398635864 10.4822998046875 3.951900482177734 10.54710006713867 C 4.391100406646729 10.73519992828369 4.850100517272949 10.86030006408691 5.317200660705566 10.91880035400391 C 4.397400379180908 11.70359992980957 2.864700555801392 13.40909957885742 2.934000492095947 16.01910018920898 L 2.934900522232056 16.02000045776367 Z M 18.32400131225586 9.53279972076416 C 17.58600044250488 9.53279972076416 16.88669967651367 9.292499542236328 16.3026008605957 8.836199760437012 C 17.2952995300293 7.725599765777588 17.84160041809082 6.27209997177124 17.84160041809082 4.743899822235107 C 17.84160041809082 4.09499979019165 17.74349975585938 3.455999851226807 17.55000114440918 2.845799922943115 C 17.80380058288574 2.784600019454956 18.06480026245117 2.753999948501587 18.32400131225586 2.753999948501587 C 20.15999984741211 2.753999948501587 21.65310096740723 4.274099826812744 21.65310096740723 6.143399715423584 C 21.65310096740723 8.012700080871582 20.15999984741211 9.53279972076416 18.32400131225586 9.53279972076416 Z M 12.21120071411133 9.53279972076416 C 9.630000114440918 9.53279972076416 7.530300617218018 7.394400119781494 7.530300617218018 4.76639986038208 C 7.530300617218018 2.138399839401245 9.630000114440918 -4.882812731921149e-08 12.21120071411133 -4.882812731921149e-08 C 14.79240036010742 -4.882812731921149e-08 16.8921012878418 2.138399839401245 16.8921012878418 4.76639986038208 C 16.8921012878418 7.394400119781494 14.79240036010742 9.53279972076416 12.21120071411133 9.53279972076416 Z M 5.95620059967041 9.53279972076416 C 4.120200634002686 9.53279972076416 2.627100467681885 8.012700080871582 2.627100467681885 6.143399715423584 C 2.627100467681885 4.274099826812744 4.120200634002686 2.753999948501587 5.95620059967041 2.753999948501587 C 6.216300487518311 2.753999948501587 6.476400375366211 2.784600019454956 6.730200290679932 2.845799922943115 C 6.536700248718262 3.455999851226807 6.438600540161133 4.09499979019165 6.438600540161133 4.743899822235107 C 6.438600540161133 6.27209997177124 6.98490047454834 7.725599765777588 7.977600574493408 8.836199760437012 C 7.393500328063965 9.292499542236328 6.69420051574707 9.53279972076416 5.95620059967041 9.53279972076416 Z" stroke="none" fill="#000"/></g></svg>