<svg xmlns="http://www.w3.org/2000/svg" width="24.28" height="20.147" viewBox="0 0 24.28 20.147"><path d="M4.283,18.44a.91.91,0,0,1-.462-.726,24.767,24.767,0,0,1,.562-4.081,4.8,4.8,0,0,1,3.605-3.089l.381,0a1.018,1.018,0,0,1,.458.117s.319.186.6.308a7.114,7.114,0,0,0,5.6-.007,6.038,6.038,0,0,0,.588-.3,1.135,1.135,0,0,1,.457-.117l.384,0a4.762,4.762,0,0,1,3.584,3.13,24.428,24.428,0,0,1,.543,4.032.971.971,0,0,1-.462.733c-.026.017-2.669,1.707-7.92,1.707S4.309,18.457,4.283,18.44Zm17.063-2.42h0a6.489,6.489,0,0,0-2.383-5.1,5.082,5.082,0,0,0,1.366-.372,4.332,4.332,0,0,0,.418-.214.822.822,0,0,1,.326-.083l.274,0a3.385,3.385,0,0,1,2.548,2.226,5.687,5.687,0,0,1,.386,2.1.691.691,0,0,1-.329.521,8.166,8.166,0,0,1-2.6.923Zm-18.413,0a8.166,8.166,0,0,1-2.6-.923A.694.694,0,0,1,0,14.576a5.687,5.687,0,0,1,.386-2.1,3.388,3.388,0,0,1,2.549-2.226l.273,0a.8.8,0,0,1,.326.083,4.348,4.348,0,0,0,.418.214,5.066,5.066,0,0,0,1.365.372,6.489,6.489,0,0,0-2.383,5.1h0ZM16.3,8.836a6.122,6.122,0,0,0,1.539-4.092,6.273,6.273,0,0,0-.292-1.9,3.309,3.309,0,0,1,.774-.092,3.39,3.39,0,0,1,0,6.779A3.255,3.255,0,0,1,16.3,8.836ZM7.53,4.766a4.682,4.682,0,1,1,9.362,0,4.682,4.682,0,1,1-9.362,0Zm-4.9,1.377A3.363,3.363,0,0,1,5.956,2.754a3.3,3.3,0,0,1,.774.092,6.273,6.273,0,0,0-.292,1.9A6.122,6.122,0,0,0,7.978,8.836a3.255,3.255,0,0,1-2.021.7A3.363,3.363,0,0,1,2.627,6.143Z" opacity="0.8"/></svg>