<svg xmlns="http://www.w3.org/2000/svg" width="19.303" height="18.811" viewBox="0 0 19.303 18.811"><g transform="translate(-3.994 -4.226)" fill="none" opacity="0.8"><path d="M13.262,4.361,3.995,11.994V22.232a.8.8,0,0,0,.8.8l5.633-.015a.8.8,0,0,0,.8-.8V17.407a.8.8,0,0,1,.8-.8h3.217a.8.8,0,0,1,.8.8v4.807a.8.8,0,0,0,.8.807l5.631.016a.8.8,0,0,0,.8-.8V11.989L14.031,4.361A.613.613,0,0,0,13.262,4.361Z" stroke="none"/><path d="M 13.64697074890137 6.635478973388672 L 5.994598388671875 12.93808460235596 L 5.994598388671875 21.03360748291016 L 9.231948852539063 21.02522659301758 L 9.231948852539063 17.40687561035156 C 9.231948852539063 15.86060619354248 10.48993873596191 14.60261535644531 12.036208152771 14.60261535644531 L 15.25325870513916 14.60261535644531 C 16.79953002929688 14.60261535644531 18.05751800537109 15.86060619354248 18.05751800537109 17.40687561035156 L 18.05751800537109 21.02442932128906 L 21.29687881469727 21.03339195251465 L 21.29687881469727 12.93285655975342 L 13.64697074890137 6.635478973388672 M 13.64674377441406 4.225673675537109 C 13.7829008102417 4.225673675537109 13.91905879974365 4.270900726318359 14.03127861022949 4.361356735229492 L 23.29687881469727 11.98876571655273 L 23.29687881469727 22.23244476318359 C 23.29687881469727 22.67662620544434 22.93679809570313 23.03670501708984 22.49260902404785 23.03670501708984 L 16.86177825927734 23.02112579345703 C 16.64803886413574 23.02112579345703 16.44308853149414 22.93605613708496 16.29218864440918 22.78467559814453 C 16.14128875732422 22.6333065032959 16.05684852600098 22.42808532714844 16.05751800537109 22.21435546875 L 16.05751800537109 17.40687561035156 C 16.05751800537109 16.96269607543945 15.69743824005127 16.60261535644531 15.25325870513916 16.60261535644531 L 12.036208152771 16.60261535644531 C 11.59202861785889 16.60261535644531 11.23194885253906 16.96269607543945 11.23194885253906 17.40687561035156 L 11.23194885253906 22.21787643432617 C 11.23195838928223 22.66048622131348 10.87431907653809 23.01991653442383 10.43170928955078 23.02212524414063 L 4.798868179321289 23.03670501708984 C 4.354679107666016 23.03670501708984 3.994598388671875 22.67662620544434 3.994598388671875 22.23244476318359 L 3.994598388671875 11.99429607391357 L 13.26220893859863 4.361356735229492 C 13.37442874908447 4.270900726318359 13.51058578491211 4.225673675537109 13.64674377441406 4.225673675537109 Z" stroke="none" fill="#000"/></g></svg>