<svg xmlns="http://www.w3.org/2000/svg" width="1865.196" height="787" viewBox="0 0 1865.196 787"><defs><style>.a{opacity:0.35;}.b,.c,.d,.e{fill:#fff;}.c{opacity:0.5;}.d{opacity:0.8;}.e{opacity:0.3;}</style></defs><g transform="translate(-24 188)"><g transform="translate(-134 -92)"><g class="a" transform="translate(177.16 57.168)"><path class="b" d="M119.8,170.181a.524.524,0,0,0-.836-.487l-1.114.847.226-1.984a.518.518,0,0,0-.11-.386.524.524,0,0,0-.93.267l-.34,2.981-2.365,1.8a3.707,3.707,0,0,0-1.785-1.007l.213-2.982,2.192-1.9a.524.524,0,1,0-.686-.791l-1.4,1.214.1-1.358a.523.523,0,1,0-1.044-.075l-.1,1.4-1.342-1.481a.528.528,0,0,0-.371-.173.51.51,0,0,0-.368.136.523.523,0,0,0-.037.74l2.014,2.224-.21,2.952a3.686,3.686,0,0,0-1.559.429l-1.81-2.382.391-2.874a.524.524,0,0,0-.448-.59.524.524,0,0,0-.59.449l-.25,1.836-.824-1.083a.523.523,0,1,0-.833.633l.847,1.114-1.985-.226a.524.524,0,0,0-.58.461.524.524,0,0,0,.461.579l2.981.34,1.8,2.365a3.672,3.672,0,0,0-.92,1.474l-2.9-.586-1.6-2.536a.524.524,0,0,0-.717-.166h0a.517.517,0,0,0-.235.322.531.531,0,0,0,.069.4l1.069,1.689-1.373-.278a.54.54,0,0,0-.394.077.523.523,0,0,0-.146.725.517.517,0,0,0,.333.224l1.335.27-1.55,1.029a.523.523,0,0,0,.191.946.54.54,0,0,0,.393-.077l2.417-1.6,2.93.591a3.716,3.716,0,0,0,.494,1.989l-2.352,1.789-2.964-.47a.535.535,0,0,0-.389.094.523.523,0,0,0,.226.941l1.973.312-1.127.858a.523.523,0,0,0,.634.833l1.1-.834-.25,1.837a.523.523,0,0,0,.448.589.524.524,0,0,0,.589-.448l.392-2.875,2.368-1.8a3.716,3.716,0,0,0,1.845.952l-.211,2.953-2.309,1.916a.524.524,0,0,0-.069.737.534.534,0,0,0,.378.189.486.486,0,0,0,.359-.12l1.538-1.276-.1,1.413a.523.523,0,0,0,.126.38.516.516,0,0,0,.359.179.53.53,0,0,0,.354-.1.525.525,0,0,0,.205-.38l.1-1.374,1.214,1.4a.531.531,0,0,0,.739.053.524.524,0,0,0,.052-.739l-1.9-2.192.213-2.983a3.687,3.687,0,0,0,1.516-.482l1.788,2.351-.469,2.963a.523.523,0,0,0,.436.6.53.53,0,0,0,.4-.1.52.52,0,0,0,.2-.334l.312-1.974.858,1.128a.523.523,0,0,0,.694.127l.039-.027a.524.524,0,0,0,.1-.734l-.834-1.1,1.837.25a.524.524,0,1,0,.141-1.038l-2.875-.391-1.8-2.368a3.7,3.7,0,0,0,.78-1.246l2.931.593,1.6,2.417a.532.532,0,0,0,.753.127.525.525,0,0,0,.119-.706L119.533,178l1.35.272a.521.521,0,0,0,.617-.408.523.523,0,0,0-.409-.617l-1.389-.281,1.628-1.133a.546.546,0,0,0,.227-.322.534.534,0,0,0-.083-.415.525.525,0,0,0-.337-.216.5.5,0,0,0-.392.086l-2.463,1.713-2.9-.586a3.7,3.7,0,0,0-.425-2.033l2.381-1.811,2.875.392a.524.524,0,1,0,.141-1.038l-1.837-.25,1.084-.824A.52.52,0,0,0,119.8,170.181Zm-6,6.66a2.256,2.256,0,0,1-.27.418l-.424-.558Zm-.871-1.244.923-.7a2.34,2.34,0,0,1,.187.926Zm-.216,2.317a2.387,2.387,0,0,1-.589.2l.063-.892Zm-1.556-.969-.08,1.129a2.326,2.326,0,0,1-.842-.428Zm-.7-.78-.872.663a2.319,2.319,0,0,1-.232-.886Zm.139-1.04-1.072-.217a2.342,2.342,0,0,1,.411-.653Zm.188-1.483a2.279,2.279,0,0,1,.625-.168l-.065.9Zm1.586,1.067.08-1.123a2.33,2.33,0,0,1,.793.46Z" transform="translate(-103 -51)"/></g><circle class="b" cx="3.5" cy="3.5" r="3.5" transform="translate(158 125)"/><circle class="c" cx="3.5" cy="3.5" r="3.5" transform="translate(408 230)"/><circle class="d" cx="6" cy="6" r="6" transform="translate(306 296)"/><path class="e" d="M-10206.438-5281v-4.268l-3.7,2.133a1,1,0,0,1-1.366-.366,1,1,0,0,1,.366-1.366l3.7-2.133-3.7-2.134a1,1,0,0,1-.366-1.366,1,1,0,0,1,1.366-.367l3.7,2.133V-5293a1,1,0,0,1,1-1,1,1,0,0,1,1,1v4.27l3.7-2.135a1,1,0,0,1,1.366.367,1,1,0,0,1-.367,1.366l-3.7,2.134,3.7,2.133a1,1,0,0,1,.367,1.366,1,1,0,0,1-1.366.366l-3.7-2.135v4.27a1,1,0,0,1-1,1A1,1,0,0,1-10206.438-5281Z" transform="translate(10391.438 5678)"/><path class="b" d="M-10209.372-5288.437v-1.822l-1.609.915a.439.439,0,0,1-.595-.156.427.427,0,0,1,.158-.587l1.609-.914-1.606-.913a.425.425,0,0,1-.159-.587.437.437,0,0,1,.593-.156l1.609.916v-1.823a.435.435,0,0,1,.436-.436.434.434,0,0,1,.433.436v1.822l1.609-.915a.44.44,0,0,1,.595.156.427.427,0,0,1-.159.587l-1.608.915,1.608.916a.423.423,0,0,1,.159.584.439.439,0,0,1-.595.156l-1.609-.915v1.822a.434.434,0,0,1-.433.436A.435.435,0,0,1-10209.372-5288.437Z" transform="translate(10700.438 5341)"/></g><g transform="translate(146 -143)"><g class="a" transform="translate(177.16 57.168)"><path class="b" d="M119.8,170.181a.524.524,0,0,0-.836-.487l-1.114.847.226-1.984a.518.518,0,0,0-.11-.386.524.524,0,0,0-.93.267l-.34,2.981-2.365,1.8a3.707,3.707,0,0,0-1.785-1.007l.213-2.982,2.192-1.9a.524.524,0,1,0-.686-.791l-1.4,1.214.1-1.358a.523.523,0,1,0-1.044-.075l-.1,1.4-1.342-1.481a.528.528,0,0,0-.371-.173.51.51,0,0,0-.368.136.523.523,0,0,0-.037.74l2.014,2.224-.21,2.952a3.686,3.686,0,0,0-1.559.429l-1.81-2.382.391-2.874a.524.524,0,0,0-.448-.59.524.524,0,0,0-.59.449l-.25,1.836-.824-1.083a.523.523,0,1,0-.833.633l.847,1.114-1.985-.226a.524.524,0,0,0-.58.461.524.524,0,0,0,.461.579l2.981.34,1.8,2.365a3.672,3.672,0,0,0-.92,1.474l-2.9-.586-1.6-2.536a.524.524,0,0,0-.717-.166h0a.517.517,0,0,0-.235.322.531.531,0,0,0,.069.4l1.069,1.689-1.373-.278a.54.54,0,0,0-.394.077.523.523,0,0,0-.146.725.517.517,0,0,0,.333.224l1.335.27-1.55,1.029a.523.523,0,0,0,.191.946.54.54,0,0,0,.393-.077l2.417-1.6,2.93.591a3.716,3.716,0,0,0,.494,1.989l-2.352,1.789-2.964-.47a.535.535,0,0,0-.389.094.523.523,0,0,0,.226.941l1.973.312-1.127.858a.523.523,0,0,0,.634.833l1.1-.834-.25,1.837a.523.523,0,0,0,.448.589.524.524,0,0,0,.589-.448l.392-2.875,2.368-1.8a3.716,3.716,0,0,0,1.845.952l-.211,2.953-2.309,1.916a.524.524,0,0,0-.069.737.534.534,0,0,0,.378.189.486.486,0,0,0,.359-.12l1.538-1.276-.1,1.413a.523.523,0,0,0,.126.38.516.516,0,0,0,.359.179.53.53,0,0,0,.354-.1.525.525,0,0,0,.205-.38l.1-1.374,1.214,1.4a.531.531,0,0,0,.739.053.524.524,0,0,0,.052-.739l-1.9-2.192.213-2.983a3.687,3.687,0,0,0,1.516-.482l1.788,2.351-.469,2.963a.523.523,0,0,0,.436.6.53.53,0,0,0,.4-.1.52.52,0,0,0,.2-.334l.312-1.974.858,1.128a.523.523,0,0,0,.694.127l.039-.027a.524.524,0,0,0,.1-.734l-.834-1.1,1.837.25a.524.524,0,1,0,.141-1.038l-2.875-.391-1.8-2.368a3.7,3.7,0,0,0,.78-1.246l2.931.593,1.6,2.417a.532.532,0,0,0,.753.127.525.525,0,0,0,.119-.706L119.533,178l1.35.272a.521.521,0,0,0,.617-.408.523.523,0,0,0-.409-.617l-1.389-.281,1.628-1.133a.546.546,0,0,0,.227-.322.534.534,0,0,0-.083-.415.525.525,0,0,0-.337-.216.5.5,0,0,0-.392.086l-2.463,1.713-2.9-.586a3.7,3.7,0,0,0-.425-2.033l2.381-1.811,2.875.392a.524.524,0,1,0,.141-1.038l-1.837-.25,1.084-.824A.52.52,0,0,0,119.8,170.181Zm-6,6.66a2.256,2.256,0,0,1-.27.418l-.424-.558Zm-.871-1.244.923-.7a2.34,2.34,0,0,1,.187.926Zm-.216,2.317a2.387,2.387,0,0,1-.589.2l.063-.892Zm-1.556-.969-.08,1.129a2.326,2.326,0,0,1-.842-.428Zm-.7-.78-.872.663a2.319,2.319,0,0,1-.232-.886Zm.139-1.04-1.072-.217a2.342,2.342,0,0,1,.411-.653Zm.188-1.483a2.279,2.279,0,0,1,.625-.168l-.065.9Zm1.586,1.067.08-1.123a2.33,2.33,0,0,1,.793.46Z"/></g><circle class="b" cx="3.5" cy="3.5" r="3.5" transform="translate(46 -45)"/><circle class="c" cx="3.5" cy="3.5" r="3.5" transform="translate(474 282)"/><circle class="d" cx="6" cy="6" r="6" transform="translate(337 341)"/><path class="e" d="M-10206.438-5281v-4.268l-3.7,2.133a1,1,0,0,1-1.366-.366,1,1,0,0,1,.366-1.366l3.7-2.133-3.7-2.134a1,1,0,0,1-.366-1.366,1,1,0,0,1,1.366-.367l3.7,2.133V-5293a1,1,0,0,1,1-1,1,1,0,0,1,1,1v4.27l3.7-2.135a1,1,0,0,1,1.366.367,1,1,0,0,1-.367,1.366l-3.7,2.134,3.7,2.133a1,1,0,0,1,.367,1.366,1,1,0,0,1-1.366.366l-3.7-2.135v4.27a1,1,0,0,1-1,1A1,1,0,0,1-10206.438-5281Z" transform="translate(10426.438 5721)"/><path class="b" d="M-10209.372-5288.437v-1.822l-1.609.915a.439.439,0,0,1-.595-.156.427.427,0,0,1,.158-.587l1.609-.914-1.606-.913a.425.425,0,0,1-.159-.587.437.437,0,0,1,.593-.156l1.609.916v-1.823a.435.435,0,0,1,.436-.436.434.434,0,0,1,.433.436v1.822l1.609-.915a.44.44,0,0,1,.595.156.427.427,0,0,1-.159.587l-1.608.915,1.608.916a.423.423,0,0,1,.159.584.439.439,0,0,1-.595.156l-1.609-.915v1.822a.434.434,0,0,1-.433.436A.435.435,0,0,1-10209.372-5288.437Z" transform="translate(10530.438 5317)"/></g><g transform="translate(456 -92)"><g class="a" transform="translate(177.16 57.168)"><path class="b" d="M119.8,170.181a.524.524,0,0,0-.836-.487l-1.114.847.226-1.984a.518.518,0,0,0-.11-.386.524.524,0,0,0-.93.267l-.34,2.981-2.365,1.8a3.707,3.707,0,0,0-1.785-1.007l.213-2.982,2.192-1.9a.524.524,0,1,0-.686-.791l-1.4,1.214.1-1.358a.523.523,0,1,0-1.044-.075l-.1,1.4-1.342-1.481a.528.528,0,0,0-.371-.173.51.51,0,0,0-.368.136.523.523,0,0,0-.037.74l2.014,2.224-.21,2.952a3.686,3.686,0,0,0-1.559.429l-1.81-2.382.391-2.874a.524.524,0,0,0-.448-.59.524.524,0,0,0-.59.449l-.25,1.836-.824-1.083a.523.523,0,1,0-.833.633l.847,1.114-1.985-.226a.524.524,0,0,0-.58.461.524.524,0,0,0,.461.579l2.981.34,1.8,2.365a3.672,3.672,0,0,0-.92,1.474l-2.9-.586-1.6-2.536a.524.524,0,0,0-.717-.166h0a.517.517,0,0,0-.235.322.531.531,0,0,0,.069.4l1.069,1.689-1.373-.278a.54.54,0,0,0-.394.077.523.523,0,0,0-.146.725.517.517,0,0,0,.333.224l1.335.27-1.55,1.029a.523.523,0,0,0,.191.946.54.54,0,0,0,.393-.077l2.417-1.6,2.93.591a3.716,3.716,0,0,0,.494,1.989l-2.352,1.789-2.964-.47a.535.535,0,0,0-.389.094.523.523,0,0,0,.226.941l1.973.312-1.127.858a.523.523,0,0,0,.634.833l1.1-.834-.25,1.837a.523.523,0,0,0,.448.589.524.524,0,0,0,.589-.448l.392-2.875,2.368-1.8a3.716,3.716,0,0,0,1.845.952l-.211,2.953-2.309,1.916a.524.524,0,0,0-.069.737.534.534,0,0,0,.378.189.486.486,0,0,0,.359-.12l1.538-1.276-.1,1.413a.523.523,0,0,0,.126.38.516.516,0,0,0,.359.179.53.53,0,0,0,.354-.1.525.525,0,0,0,.205-.38l.1-1.374,1.214,1.4a.531.531,0,0,0,.739.053.524.524,0,0,0,.052-.739l-1.9-2.192.213-2.983a3.687,3.687,0,0,0,1.516-.482l1.788,2.351-.469,2.963a.523.523,0,0,0,.436.6.53.53,0,0,0,.4-.1.52.52,0,0,0,.2-.334l.312-1.974.858,1.128a.523.523,0,0,0,.694.127l.039-.027a.524.524,0,0,0,.1-.734l-.834-1.1,1.837.25a.524.524,0,1,0,.141-1.038l-2.875-.391-1.8-2.368a3.7,3.7,0,0,0,.78-1.246l2.931.593,1.6,2.417a.532.532,0,0,0,.753.127.525.525,0,0,0,.119-.706L119.533,178l1.35.272a.521.521,0,0,0,.617-.408.523.523,0,0,0-.409-.617l-1.389-.281,1.628-1.133a.546.546,0,0,0,.227-.322.534.534,0,0,0-.083-.415.525.525,0,0,0-.337-.216.5.5,0,0,0-.392.086l-2.463,1.713-2.9-.586a3.7,3.7,0,0,0-.425-2.033l2.381-1.811,2.875.392a.524.524,0,1,0,.141-1.038l-1.837-.25,1.084-.824A.52.52,0,0,0,119.8,170.181Zm-6,6.66a2.256,2.256,0,0,1-.27.418l-.424-.558Zm-.871-1.244.923-.7a2.34,2.34,0,0,1,.187.926Zm-.216,2.317a2.387,2.387,0,0,1-.589.2l.063-.892Zm-1.556-.969-.08,1.129a2.326,2.326,0,0,1-.842-.428Zm-.7-.78-.872.663a2.319,2.319,0,0,1-.232-.886Zm.139-1.04-1.072-.217a2.342,2.342,0,0,1,.411-.653Zm.188-1.483a2.279,2.279,0,0,1,.625-.168l-.065.9Zm1.586,1.067.08-1.123a2.33,2.33,0,0,1,.793.46Z"/></g><circle class="b" cx="3.5" cy="3.5" r="3.5" transform="translate(144 -21)"/><circle class="c" cx="3.5" cy="3.5" r="3.5" transform="translate(408 230)"/><path class="e" d="M-10206.438-5281v-4.268l-3.7,2.133a1,1,0,0,1-1.366-.366,1,1,0,0,1,.366-1.366l3.7-2.133-3.7-2.134a1,1,0,0,1-.366-1.366,1,1,0,0,1,1.366-.367l3.7,2.133V-5293a1,1,0,0,1,1-1,1,1,0,0,1,1,1v4.27l3.7-2.135a1,1,0,0,1,1.366.367,1,1,0,0,1-.367,1.366l-3.7,2.134,3.7,2.133a1,1,0,0,1,.367,1.366,1,1,0,0,1-1.366.366l-3.7-2.135v4.27a1,1,0,0,1-1,1A1,1,0,0,1-10206.438-5281Z" transform="translate(10391.438 5678)"/><path class="b" d="M-10209.372-5288.437v-1.822l-1.609.915a.439.439,0,0,1-.595-.156.427.427,0,0,1,.158-.587l1.609-.914-1.606-.913a.425.425,0,0,1-.159-.587.437.437,0,0,1,.593-.156l1.609.916v-1.823a.435.435,0,0,1,.436-.436.434.434,0,0,1,.433.436v1.822l1.609-.915a.44.44,0,0,1,.595.156.427.427,0,0,1-.159.587l-1.608.915,1.608.916a.423.423,0,0,1,.159.584.439.439,0,0,1-.595.156l-1.609-.915v1.822a.434.434,0,0,1-.433.436A.435.435,0,0,1-10209.372-5288.437Z" transform="translate(10638.438 5441)"/></g><g transform="translate(751 -92)"><circle class="c" cx="3.5" cy="3.5" r="3.5" transform="translate(408 170)"/><path class="b" d="M-10209.372-5288.437v-1.822l-1.609.915a.439.439,0,0,1-.595-.156.427.427,0,0,1,.158-.587l1.609-.914-1.606-.913a.425.425,0,0,1-.159-.587.437.437,0,0,1,.593-.156l1.609.916v-1.823a.435.435,0,0,1,.436-.436.434.434,0,0,1,.433.436v1.822l1.609-.915a.44.44,0,0,1,.595.156.427.427,0,0,1-.159.587l-1.608.915,1.608.916a.423.423,0,0,1,.159.584.439.439,0,0,1-.595.156l-1.609-.915v1.822a.434.434,0,0,1-.433.436A.435.435,0,0,1-10209.372-5288.437Z" transform="translate(10638.438 5441)"/></g><g transform="translate(1046 -92)"><circle class="b" cx="3.5" cy="3.5" r="3.5" transform="translate(168 -28)"/><circle class="c" cx="3.5" cy="3.5" r="3.5" transform="translate(588 22)"/><circle class="d" cx="6" cy="6" r="6" transform="translate(339 289)"/><path class="e" d="M-10206.438-5281v-4.268l-3.7,2.133a1,1,0,0,1-1.366-.366,1,1,0,0,1,.366-1.366l3.7-2.133-3.7-2.134a1,1,0,0,1-.366-1.366,1,1,0,0,1,1.366-.367l3.7,2.133V-5293a1,1,0,0,1,1-1,1,1,0,0,1,1,1v4.27l3.7-2.135a1,1,0,0,1,1.366.367,1,1,0,0,1-.367,1.366l-3.7,2.134,3.7,2.133a1,1,0,0,1,.367,1.366,1,1,0,0,1-1.366.366l-3.7-2.135v4.27a1,1,0,0,1-1,1A1,1,0,0,1-10206.438-5281Z" transform="translate(10407.438 5605)"/><path class="b" d="M-10209.372-5288.437v-1.822l-1.609.915a.439.439,0,0,1-.595-.156.427.427,0,0,1,.158-.587l1.609-.914-1.606-.913a.425.425,0,0,1-.159-.587.437.437,0,0,1,.593-.156l1.609.916v-1.823a.435.435,0,0,1,.436-.436.434.434,0,0,1,.433.436v1.822l1.609-.915a.44.44,0,0,1,.595.156.427.427,0,0,1-.159.587l-1.608.915,1.608.916a.423.423,0,0,1,.159.584.439.439,0,0,1-.595.156l-1.609-.915v1.822a.434.434,0,0,1-.433.436A.435.435,0,0,1-10209.372-5288.437Z" transform="translate(10189.438 5224)"/></g><g transform="translate(1341 -92)"><g transform="translate(177.16 57.168)"><path class="b" d="M119.8,170.181a.524.524,0,0,0-.836-.487l-1.114.847.226-1.984a.518.518,0,0,0-.11-.386.524.524,0,0,0-.93.267l-.34,2.981-2.365,1.8a3.707,3.707,0,0,0-1.785-1.007l.213-2.982,2.192-1.9a.524.524,0,1,0-.686-.791l-1.4,1.214.1-1.358a.523.523,0,1,0-1.044-.075l-.1,1.4-1.342-1.481a.528.528,0,0,0-.371-.173.51.51,0,0,0-.368.136.523.523,0,0,0-.037.74l2.014,2.224-.21,2.952a3.686,3.686,0,0,0-1.559.429l-1.81-2.382.391-2.874a.524.524,0,0,0-.448-.59.524.524,0,0,0-.59.449l-.25,1.836-.824-1.083a.523.523,0,1,0-.833.633l.847,1.114-1.985-.226a.524.524,0,0,0-.58.461.524.524,0,0,0,.461.579l2.981.34,1.8,2.365a3.672,3.672,0,0,0-.92,1.474l-2.9-.586-1.6-2.536a.524.524,0,0,0-.717-.166h0a.517.517,0,0,0-.235.322.531.531,0,0,0,.069.4l1.069,1.689-1.373-.278a.54.54,0,0,0-.394.077.523.523,0,0,0-.146.725.517.517,0,0,0,.333.224l1.335.27-1.55,1.029a.523.523,0,0,0,.191.946.54.54,0,0,0,.393-.077l2.417-1.6,2.93.591a3.716,3.716,0,0,0,.494,1.989l-2.352,1.789-2.964-.47a.535.535,0,0,0-.389.094.523.523,0,0,0,.226.941l1.973.312-1.127.858a.523.523,0,0,0,.634.833l1.1-.834-.25,1.837a.523.523,0,0,0,.448.589.524.524,0,0,0,.589-.448l.392-2.875,2.368-1.8a3.716,3.716,0,0,0,1.845.952l-.211,2.953-2.309,1.916a.524.524,0,0,0-.069.737.534.534,0,0,0,.378.189.486.486,0,0,0,.359-.12l1.538-1.276-.1,1.413a.523.523,0,0,0,.126.38.516.516,0,0,0,.359.179.53.53,0,0,0,.354-.1.525.525,0,0,0,.205-.38l.1-1.374,1.214,1.4a.531.531,0,0,0,.739.053.524.524,0,0,0,.052-.739l-1.9-2.192.213-2.983a3.687,3.687,0,0,0,1.516-.482l1.788,2.351-.469,2.963a.523.523,0,0,0,.436.6.53.53,0,0,0,.4-.1.52.52,0,0,0,.2-.334l.312-1.974.858,1.128a.523.523,0,0,0,.694.127l.039-.027a.524.524,0,0,0,.1-.734l-.834-1.1,1.837.25a.524.524,0,1,0,.141-1.038l-2.875-.391-1.8-2.368a3.7,3.7,0,0,0,.78-1.246l2.931.593,1.6,2.417a.532.532,0,0,0,.753.127.525.525,0,0,0,.119-.706L119.533,178l1.35.272a.521.521,0,0,0,.617-.408.523.523,0,0,0-.409-.617l-1.389-.281,1.628-1.133a.546.546,0,0,0,.227-.322.534.534,0,0,0-.083-.415.525.525,0,0,0-.337-.216.5.5,0,0,0-.392.086l-2.463,1.713-2.9-.586a3.7,3.7,0,0,0-.425-2.033l2.381-1.811,2.875.392a.524.524,0,1,0,.141-1.038l-1.837-.25,1.084-.824A.52.52,0,0,0,119.8,170.181Zm-6,6.66a2.256,2.256,0,0,1-.27.418l-.424-.558Zm-.871-1.244.923-.7a2.34,2.34,0,0,1,.187.926Zm-.216,2.317a2.387,2.387,0,0,1-.589.2l.063-.892Zm-1.556-.969-.08,1.129a2.326,2.326,0,0,1-.842-.428Zm-.7-.78-.872.663a2.319,2.319,0,0,1-.232-.886Zm.139-1.04-1.072-.217a2.342,2.342,0,0,1,.411-.653Zm.188-1.483a2.279,2.279,0,0,1,.625-.168l-.065.9Zm1.586,1.067.08-1.123a2.33,2.33,0,0,1,.793.46Z"/></g><circle class="b" cx="3.5" cy="3.5" r="3.5" transform="translate(128 -32)"/><circle class="c" cx="3.5" cy="3.5" r="3.5" transform="translate(408 230)"/><circle class="d" cx="6" cy="6" r="6" transform="translate(355 336)"/><path class="e" d="M-10206.438-5281v-4.268l-3.7,2.133a1,1,0,0,1-1.366-.366,1,1,0,0,1,.366-1.366l3.7-2.133-3.7-2.134a1,1,0,0,1-.366-1.366,1,1,0,0,1,1.366-.367l3.7,2.133V-5293a1,1,0,0,1,1-1,1,1,0,0,1,1,1v4.27l3.7-2.135a1,1,0,0,1,1.366.367,1,1,0,0,1-.367,1.366l-3.7,2.134,3.7,2.133a1,1,0,0,1,.367,1.366,1,1,0,0,1-1.366.366l-3.7-2.135v4.27a1,1,0,0,1-1,1A1,1,0,0,1-10206.438-5281Z" transform="translate(10391.438 5678)"/><path class="b" d="M-10209.372-5288.437v-1.822l-1.609.915a.439.439,0,0,1-.595-.156.427.427,0,0,1,.158-.587l1.609-.914-1.606-.913a.425.425,0,0,1-.159-.587.437.437,0,0,1,.593-.156l1.609.916v-1.823a.435.435,0,0,1,.436-.436.434.434,0,0,1,.433.436v1.822l1.609-.915a.44.44,0,0,1,.595.156.427.427,0,0,1-.159.587l-1.608.915,1.608.916a.423.423,0,0,1,.159.584.439.439,0,0,1-.595.156l-1.609-.915v1.822a.434.434,0,0,1-.433.436A.435.435,0,0,1-10209.372-5288.437Z" transform="translate(10754.438 5264)"/></g><g transform="translate(-134 201)"><g class="a" transform="translate(177.16 57.168)"><path class="b" d="M119.8,170.181a.524.524,0,0,0-.836-.487l-1.114.847.226-1.984a.518.518,0,0,0-.11-.386.524.524,0,0,0-.93.267l-.34,2.981-2.365,1.8a3.707,3.707,0,0,0-1.785-1.007l.213-2.982,2.192-1.9a.524.524,0,1,0-.686-.791l-1.4,1.214.1-1.358a.523.523,0,1,0-1.044-.075l-.1,1.4-1.342-1.481a.528.528,0,0,0-.371-.173.51.51,0,0,0-.368.136.523.523,0,0,0-.037.74l2.014,2.224-.21,2.952a3.686,3.686,0,0,0-1.559.429l-1.81-2.382.391-2.874a.524.524,0,0,0-.448-.59.524.524,0,0,0-.59.449l-.25,1.836-.824-1.083a.523.523,0,1,0-.833.633l.847,1.114-1.985-.226a.524.524,0,0,0-.58.461.524.524,0,0,0,.461.579l2.981.34,1.8,2.365a3.672,3.672,0,0,0-.92,1.474l-2.9-.586-1.6-2.536a.524.524,0,0,0-.717-.166h0a.517.517,0,0,0-.235.322.531.531,0,0,0,.069.4l1.069,1.689-1.373-.278a.54.54,0,0,0-.394.077.523.523,0,0,0-.146.725.517.517,0,0,0,.333.224l1.335.27-1.55,1.029a.523.523,0,0,0,.191.946.54.54,0,0,0,.393-.077l2.417-1.6,2.93.591a3.716,3.716,0,0,0,.494,1.989l-2.352,1.789-2.964-.47a.535.535,0,0,0-.389.094.523.523,0,0,0,.226.941l1.973.312-1.127.858a.523.523,0,0,0,.634.833l1.1-.834-.25,1.837a.523.523,0,0,0,.448.589.524.524,0,0,0,.589-.448l.392-2.875,2.368-1.8a3.716,3.716,0,0,0,1.845.952l-.211,2.953-2.309,1.916a.524.524,0,0,0-.069.737.534.534,0,0,0,.378.189.486.486,0,0,0,.359-.12l1.538-1.276-.1,1.413a.523.523,0,0,0,.126.38.516.516,0,0,0,.359.179.53.53,0,0,0,.354-.1.525.525,0,0,0,.205-.38l.1-1.374,1.214,1.4a.531.531,0,0,0,.739.053.524.524,0,0,0,.052-.739l-1.9-2.192.213-2.983a3.687,3.687,0,0,0,1.516-.482l1.788,2.351-.469,2.963a.523.523,0,0,0,.436.6.53.53,0,0,0,.4-.1.52.52,0,0,0,.2-.334l.312-1.974.858,1.128a.523.523,0,0,0,.694.127l.039-.027a.524.524,0,0,0,.1-.734l-.834-1.1,1.837.25a.524.524,0,1,0,.141-1.038l-2.875-.391-1.8-2.368a3.7,3.7,0,0,0,.78-1.246l2.931.593,1.6,2.417a.532.532,0,0,0,.753.127.525.525,0,0,0,.119-.706L119.533,178l1.35.272a.521.521,0,0,0,.617-.408.523.523,0,0,0-.409-.617l-1.389-.281,1.628-1.133a.546.546,0,0,0,.227-.322.534.534,0,0,0-.083-.415.525.525,0,0,0-.337-.216.5.5,0,0,0-.392.086l-2.463,1.713-2.9-.586a3.7,3.7,0,0,0-.425-2.033l2.381-1.811,2.875.392a.524.524,0,1,0,.141-1.038l-1.837-.25,1.084-.824A.52.52,0,0,0,119.8,170.181Zm-6,6.66a2.256,2.256,0,0,1-.27.418l-.424-.558Zm-.871-1.244.923-.7a2.34,2.34,0,0,1,.187.926Zm-.216,2.317a2.387,2.387,0,0,1-.589.2l.063-.892Zm-1.556-.969-.08,1.129a2.326,2.326,0,0,1-.842-.428Zm-.7-.78-.872.663a2.319,2.319,0,0,1-.232-.886Zm.139-1.04-1.072-.217a2.342,2.342,0,0,1,.411-.653Zm.188-1.483a2.279,2.279,0,0,1,.625-.168l-.065.9Zm1.586,1.067.08-1.123a2.33,2.33,0,0,1,.793.46Z"/></g><circle class="b" cx="3.5" cy="3.5" r="3.5" transform="translate(158 125)"/><circle class="c" cx="3.5" cy="3.5" r="3.5" transform="translate(408 230)"/><circle class="d" cx="6" cy="6" r="6" transform="translate(337 341)"/><path class="e" d="M-10206.438-5281v-4.268l-3.7,2.133a1,1,0,0,1-1.366-.366,1,1,0,0,1,.366-1.366l3.7-2.133-3.7-2.134a1,1,0,0,1-.366-1.366,1,1,0,0,1,1.366-.367l3.7,2.133V-5293a1,1,0,0,1,1-1,1,1,0,0,1,1,1v4.27l3.7-2.135a1,1,0,0,1,1.366.367,1,1,0,0,1-.367,1.366l-3.7,2.134,3.7,2.133a1,1,0,0,1,.367,1.366,1,1,0,0,1-1.366.366l-3.7-2.135v4.27a1,1,0,0,1-1,1A1,1,0,0,1-10206.438-5281Z" transform="translate(10391.438 5678)"/><path class="b" d="M-10209.372-5288.437v-1.822l-1.609.915a.439.439,0,0,1-.595-.156.427.427,0,0,1,.158-.587l1.609-.914-1.606-.913a.425.425,0,0,1-.159-.587.437.437,0,0,1,.593-.156l1.609.916v-1.823a.435.435,0,0,1,.436-.436.434.434,0,0,1,.433.436v1.822l1.609-.915a.44.44,0,0,1,.595.156.427.427,0,0,1-.159.587l-1.608.915,1.608.916a.423.423,0,0,1,.159.584.439.439,0,0,1-.595.156l-1.609-.915v1.822a.434.434,0,0,1-.433.436A.435.435,0,0,1-10209.372-5288.437Z" transform="translate(10638.438 5441)"/></g><g transform="translate(161 201)"><g class="a" transform="translate(177.16 57.168)"><path class="b" d="M119.8,170.181a.524.524,0,0,0-.836-.487l-1.114.847.226-1.984a.518.518,0,0,0-.11-.386.524.524,0,0,0-.93.267l-.34,2.981-2.365,1.8a3.707,3.707,0,0,0-1.785-1.007l.213-2.982,2.192-1.9a.524.524,0,1,0-.686-.791l-1.4,1.214.1-1.358a.523.523,0,1,0-1.044-.075l-.1,1.4-1.342-1.481a.528.528,0,0,0-.371-.173.51.51,0,0,0-.368.136.523.523,0,0,0-.037.74l2.014,2.224-.21,2.952a3.686,3.686,0,0,0-1.559.429l-1.81-2.382.391-2.874a.524.524,0,0,0-.448-.59.524.524,0,0,0-.59.449l-.25,1.836-.824-1.083a.523.523,0,1,0-.833.633l.847,1.114-1.985-.226a.524.524,0,0,0-.58.461.524.524,0,0,0,.461.579l2.981.34,1.8,2.365a3.672,3.672,0,0,0-.92,1.474l-2.9-.586-1.6-2.536a.524.524,0,0,0-.717-.166h0a.517.517,0,0,0-.235.322.531.531,0,0,0,.069.4l1.069,1.689-1.373-.278a.54.54,0,0,0-.394.077.523.523,0,0,0-.146.725.517.517,0,0,0,.333.224l1.335.27-1.55,1.029a.523.523,0,0,0,.191.946.54.54,0,0,0,.393-.077l2.417-1.6,2.93.591a3.716,3.716,0,0,0,.494,1.989l-2.352,1.789-2.964-.47a.535.535,0,0,0-.389.094.523.523,0,0,0,.226.941l1.973.312-1.127.858a.523.523,0,0,0,.634.833l1.1-.834-.25,1.837a.523.523,0,0,0,.448.589.524.524,0,0,0,.589-.448l.392-2.875,2.368-1.8a3.716,3.716,0,0,0,1.845.952l-.211,2.953-2.309,1.916a.524.524,0,0,0-.069.737.534.534,0,0,0,.378.189.486.486,0,0,0,.359-.12l1.538-1.276-.1,1.413a.523.523,0,0,0,.126.38.516.516,0,0,0,.359.179.53.53,0,0,0,.354-.1.525.525,0,0,0,.205-.38l.1-1.374,1.214,1.4a.531.531,0,0,0,.739.053.524.524,0,0,0,.052-.739l-1.9-2.192.213-2.983a3.687,3.687,0,0,0,1.516-.482l1.788,2.351-.469,2.963a.523.523,0,0,0,.436.6.53.53,0,0,0,.4-.1.52.52,0,0,0,.2-.334l.312-1.974.858,1.128a.523.523,0,0,0,.694.127l.039-.027a.524.524,0,0,0,.1-.734l-.834-1.1,1.837.25a.524.524,0,1,0,.141-1.038l-2.875-.391-1.8-2.368a3.7,3.7,0,0,0,.78-1.246l2.931.593,1.6,2.417a.532.532,0,0,0,.753.127.525.525,0,0,0,.119-.706L119.533,178l1.35.272a.521.521,0,0,0,.617-.408.523.523,0,0,0-.409-.617l-1.389-.281,1.628-1.133a.546.546,0,0,0,.227-.322.534.534,0,0,0-.083-.415.525.525,0,0,0-.337-.216.5.5,0,0,0-.392.086l-2.463,1.713-2.9-.586a3.7,3.7,0,0,0-.425-2.033l2.381-1.811,2.875.392a.524.524,0,1,0,.141-1.038l-1.837-.25,1.084-.824A.52.52,0,0,0,119.8,170.181Zm-6,6.66a2.256,2.256,0,0,1-.27.418l-.424-.558Zm-.871-1.244.923-.7a2.34,2.34,0,0,1,.187.926Zm-.216,2.317a2.387,2.387,0,0,1-.589.2l.063-.892Zm-1.556-.969-.08,1.129a2.326,2.326,0,0,1-.842-.428Zm-.7-.78-.872.663a2.319,2.319,0,0,1-.232-.886Zm.139-1.04-1.072-.217a2.342,2.342,0,0,1,.411-.653Zm.188-1.483a2.279,2.279,0,0,1,.625-.168l-.065.9Zm1.586,1.067.08-1.123a2.33,2.33,0,0,1,.793.46Z"/></g><circle class="b" cx="3.5" cy="3.5" r="3.5" transform="translate(158 125)"/><circle class="c" cx="3.5" cy="3.5" r="3.5" transform="translate(408 230)"/><circle class="d" cx="6" cy="6" r="6" transform="translate(337 341)"/><path class="e" d="M-10206.438-5281v-4.268l-3.7,2.133a1,1,0,0,1-1.366-.366,1,1,0,0,1,.366-1.366l3.7-2.133-3.7-2.134a1,1,0,0,1-.366-1.366,1,1,0,0,1,1.366-.367l3.7,2.133V-5293a1,1,0,0,1,1-1,1,1,0,0,1,1,1v4.27l3.7-2.135a1,1,0,0,1,1.366.367,1,1,0,0,1-.367,1.366l-3.7,2.134,3.7,2.133a1,1,0,0,1,.367,1.366,1,1,0,0,1-1.366.366l-3.7-2.135v4.27a1,1,0,0,1-1,1A1,1,0,0,1-10206.438-5281Z" transform="translate(10391.438 5678)"/><path class="b" d="M-10209.372-5288.437v-1.822l-1.609.915a.439.439,0,0,1-.595-.156.427.427,0,0,1,.158-.587l1.609-.914-1.606-.913a.425.425,0,0,1-.159-.587.437.437,0,0,1,.593-.156l1.609.916v-1.823a.435.435,0,0,1,.436-.436.434.434,0,0,1,.433.436v1.822l1.609-.915a.44.44,0,0,1,.595.156.427.427,0,0,1-.159.587l-1.608.915,1.608.916a.423.423,0,0,1,.159.584.439.439,0,0,1-.595.156l-1.609-.915v1.822a.434.434,0,0,1-.433.436A.435.435,0,0,1-10209.372-5288.437Z" transform="translate(10638.438 5441)"/></g><g transform="translate(456 201)"><g class="a" transform="translate(177.16 57.168)"><path class="b" d="M119.8,170.181a.524.524,0,0,0-.836-.487l-1.114.847.226-1.984a.518.518,0,0,0-.11-.386.524.524,0,0,0-.93.267l-.34,2.981-2.365,1.8a3.707,3.707,0,0,0-1.785-1.007l.213-2.982,2.192-1.9a.524.524,0,1,0-.686-.791l-1.4,1.214.1-1.358a.523.523,0,1,0-1.044-.075l-.1,1.4-1.342-1.481a.528.528,0,0,0-.371-.173.51.51,0,0,0-.368.136.523.523,0,0,0-.037.74l2.014,2.224-.21,2.952a3.686,3.686,0,0,0-1.559.429l-1.81-2.382.391-2.874a.524.524,0,0,0-.448-.59.524.524,0,0,0-.59.449l-.25,1.836-.824-1.083a.523.523,0,1,0-.833.633l.847,1.114-1.985-.226a.524.524,0,0,0-.58.461.524.524,0,0,0,.461.579l2.981.34,1.8,2.365a3.672,3.672,0,0,0-.92,1.474l-2.9-.586-1.6-2.536a.524.524,0,0,0-.717-.166h0a.517.517,0,0,0-.235.322.531.531,0,0,0,.069.4l1.069,1.689-1.373-.278a.54.54,0,0,0-.394.077.523.523,0,0,0-.146.725.517.517,0,0,0,.333.224l1.335.27-1.55,1.029a.523.523,0,0,0,.191.946.54.54,0,0,0,.393-.077l2.417-1.6,2.93.591a3.716,3.716,0,0,0,.494,1.989l-2.352,1.789-2.964-.47a.535.535,0,0,0-.389.094.523.523,0,0,0,.226.941l1.973.312-1.127.858a.523.523,0,0,0,.634.833l1.1-.834-.25,1.837a.523.523,0,0,0,.448.589.524.524,0,0,0,.589-.448l.392-2.875,2.368-1.8a3.716,3.716,0,0,0,1.845.952l-.211,2.953-2.309,1.916a.524.524,0,0,0-.069.737.534.534,0,0,0,.378.189.486.486,0,0,0,.359-.12l1.538-1.276-.1,1.413a.523.523,0,0,0,.126.38.516.516,0,0,0,.359.179.53.53,0,0,0,.354-.1.525.525,0,0,0,.205-.38l.1-1.374,1.214,1.4a.531.531,0,0,0,.739.053.524.524,0,0,0,.052-.739l-1.9-2.192.213-2.983a3.687,3.687,0,0,0,1.516-.482l1.788,2.351-.469,2.963a.523.523,0,0,0,.436.6.53.53,0,0,0,.4-.1.52.52,0,0,0,.2-.334l.312-1.974.858,1.128a.523.523,0,0,0,.694.127l.039-.027a.524.524,0,0,0,.1-.734l-.834-1.1,1.837.25a.524.524,0,1,0,.141-1.038l-2.875-.391-1.8-2.368a3.7,3.7,0,0,0,.78-1.246l2.931.593,1.6,2.417a.532.532,0,0,0,.753.127.525.525,0,0,0,.119-.706L119.533,178l1.35.272a.521.521,0,0,0,.617-.408.523.523,0,0,0-.409-.617l-1.389-.281,1.628-1.133a.546.546,0,0,0,.227-.322.534.534,0,0,0-.083-.415.525.525,0,0,0-.337-.216.5.5,0,0,0-.392.086l-2.463,1.713-2.9-.586a3.7,3.7,0,0,0-.425-2.033l2.381-1.811,2.875.392a.524.524,0,1,0,.141-1.038l-1.837-.25,1.084-.824A.52.52,0,0,0,119.8,170.181Zm-6,6.66a2.256,2.256,0,0,1-.27.418l-.424-.558Zm-.871-1.244.923-.7a2.34,2.34,0,0,1,.187.926Zm-.216,2.317a2.387,2.387,0,0,1-.589.2l.063-.892Zm-1.556-.969-.08,1.129a2.326,2.326,0,0,1-.842-.428Zm-.7-.78-.872.663a2.319,2.319,0,0,1-.232-.886Zm.139-1.04-1.072-.217a2.342,2.342,0,0,1,.411-.653Zm.188-1.483a2.279,2.279,0,0,1,.625-.168l-.065.9Zm1.586,1.067.08-1.123a2.33,2.33,0,0,1,.793.46Z"/></g><circle class="b" cx="3.5" cy="3.5" r="3.5" transform="translate(158 125)"/><circle class="c" cx="3.5" cy="3.5" r="3.5" transform="translate(408 230)"/><circle class="d" cx="6" cy="6" r="6" transform="translate(337 341)"/><path class="e" d="M-10206.438-5281v-4.268l-3.7,2.133a1,1,0,0,1-1.366-.366,1,1,0,0,1,.366-1.366l3.7-2.133-3.7-2.134a1,1,0,0,1-.366-1.366,1,1,0,0,1,1.366-.367l3.7,2.133V-5293a1,1,0,0,1,1-1,1,1,0,0,1,1,1v4.27l3.7-2.135a1,1,0,0,1,1.366.367,1,1,0,0,1-.367,1.366l-3.7,2.134,3.7,2.133a1,1,0,0,1,.367,1.366,1,1,0,0,1-1.366.366l-3.7-2.135v4.27a1,1,0,0,1-1,1A1,1,0,0,1-10206.438-5281Z" transform="translate(10391.438 5678)"/><path class="b" d="M-10209.372-5288.437v-1.822l-1.609.915a.439.439,0,0,1-.595-.156.427.427,0,0,1,.158-.587l1.609-.914-1.606-.913a.425.425,0,0,1-.159-.587.437.437,0,0,1,.593-.156l1.609.916v-1.823a.435.435,0,0,1,.436-.436.434.434,0,0,1,.433.436v1.822l1.609-.915a.44.44,0,0,1,.595.156.427.427,0,0,1-.159.587l-1.608.915,1.608.916a.423.423,0,0,1,.159.584.439.439,0,0,1-.595.156l-1.609-.915v1.822a.434.434,0,0,1-.433.436A.435.435,0,0,1-10209.372-5288.437Z" transform="translate(10638.438 5441)"/></g><g transform="translate(751 201)"><g class="a" transform="translate(177.16 57.168)"><path class="b" d="M119.8,170.181a.524.524,0,0,0-.836-.487l-1.114.847.226-1.984a.518.518,0,0,0-.11-.386.524.524,0,0,0-.93.267l-.34,2.981-2.365,1.8a3.707,3.707,0,0,0-1.785-1.007l.213-2.982,2.192-1.9a.524.524,0,1,0-.686-.791l-1.4,1.214.1-1.358a.523.523,0,1,0-1.044-.075l-.1,1.4-1.342-1.481a.528.528,0,0,0-.371-.173.51.51,0,0,0-.368.136.523.523,0,0,0-.037.74l2.014,2.224-.21,2.952a3.686,3.686,0,0,0-1.559.429l-1.81-2.382.391-2.874a.524.524,0,0,0-.448-.59.524.524,0,0,0-.59.449l-.25,1.836-.824-1.083a.523.523,0,1,0-.833.633l.847,1.114-1.985-.226a.524.524,0,0,0-.58.461.524.524,0,0,0,.461.579l2.981.34,1.8,2.365a3.672,3.672,0,0,0-.92,1.474l-2.9-.586-1.6-2.536a.524.524,0,0,0-.717-.166h0a.517.517,0,0,0-.235.322.531.531,0,0,0,.069.4l1.069,1.689-1.373-.278a.54.54,0,0,0-.394.077.523.523,0,0,0-.146.725.517.517,0,0,0,.333.224l1.335.27-1.55,1.029a.523.523,0,0,0,.191.946.54.54,0,0,0,.393-.077l2.417-1.6,2.93.591a3.716,3.716,0,0,0,.494,1.989l-2.352,1.789-2.964-.47a.535.535,0,0,0-.389.094.523.523,0,0,0,.226.941l1.973.312-1.127.858a.523.523,0,0,0,.634.833l1.1-.834-.25,1.837a.523.523,0,0,0,.448.589.524.524,0,0,0,.589-.448l.392-2.875,2.368-1.8a3.716,3.716,0,0,0,1.845.952l-.211,2.953-2.309,1.916a.524.524,0,0,0-.069.737.534.534,0,0,0,.378.189.486.486,0,0,0,.359-.12l1.538-1.276-.1,1.413a.523.523,0,0,0,.126.38.516.516,0,0,0,.359.179.53.53,0,0,0,.354-.1.525.525,0,0,0,.205-.38l.1-1.374,1.214,1.4a.531.531,0,0,0,.739.053.524.524,0,0,0,.052-.739l-1.9-2.192.213-2.983a3.687,3.687,0,0,0,1.516-.482l1.788,2.351-.469,2.963a.523.523,0,0,0,.436.6.53.53,0,0,0,.4-.1.52.52,0,0,0,.2-.334l.312-1.974.858,1.128a.523.523,0,0,0,.694.127l.039-.027a.524.524,0,0,0,.1-.734l-.834-1.1,1.837.25a.524.524,0,1,0,.141-1.038l-2.875-.391-1.8-2.368a3.7,3.7,0,0,0,.78-1.246l2.931.593,1.6,2.417a.532.532,0,0,0,.753.127.525.525,0,0,0,.119-.706L119.533,178l1.35.272a.521.521,0,0,0,.617-.408.523.523,0,0,0-.409-.617l-1.389-.281,1.628-1.133a.546.546,0,0,0,.227-.322.534.534,0,0,0-.083-.415.525.525,0,0,0-.337-.216.5.5,0,0,0-.392.086l-2.463,1.713-2.9-.586a3.7,3.7,0,0,0-.425-2.033l2.381-1.811,2.875.392a.524.524,0,1,0,.141-1.038l-1.837-.25,1.084-.824A.52.52,0,0,0,119.8,170.181Zm-6,6.66a2.256,2.256,0,0,1-.27.418l-.424-.558Zm-.871-1.244.923-.7a2.34,2.34,0,0,1,.187.926Zm-.216,2.317a2.387,2.387,0,0,1-.589.2l.063-.892Zm-1.556-.969-.08,1.129a2.326,2.326,0,0,1-.842-.428Zm-.7-.78-.872.663a2.319,2.319,0,0,1-.232-.886Zm.139-1.04-1.072-.217a2.342,2.342,0,0,1,.411-.653Zm.188-1.483a2.279,2.279,0,0,1,.625-.168l-.065.9Zm1.586,1.067.08-1.123a2.33,2.33,0,0,1,.793.46Z"/></g><circle class="b" cx="3.5" cy="3.5" r="3.5" transform="translate(158 125)"/><circle class="c" cx="3.5" cy="3.5" r="3.5" transform="translate(408 230)"/><circle class="d" cx="6" cy="6" r="6" transform="translate(337 341)"/><path class="e" d="M-10206.438-5281v-4.268l-3.7,2.133a1,1,0,0,1-1.366-.366,1,1,0,0,1,.366-1.366l3.7-2.133-3.7-2.134a1,1,0,0,1-.366-1.366,1,1,0,0,1,1.366-.367l3.7,2.133V-5293a1,1,0,0,1,1-1,1,1,0,0,1,1,1v4.27l3.7-2.135a1,1,0,0,1,1.366.367,1,1,0,0,1-.367,1.366l-3.7,2.134,3.7,2.133a1,1,0,0,1,.367,1.366,1,1,0,0,1-1.366.366l-3.7-2.135v4.27a1,1,0,0,1-1,1A1,1,0,0,1-10206.438-5281Z" transform="translate(10391.438 5678)"/><path class="b" d="M-10209.372-5288.437v-1.822l-1.609.915a.439.439,0,0,1-.595-.156.427.427,0,0,1,.158-.587l1.609-.914-1.606-.913a.425.425,0,0,1-.159-.587.437.437,0,0,1,.593-.156l1.609.916v-1.823a.435.435,0,0,1,.436-.436.434.434,0,0,1,.433.436v1.822l1.609-.915a.44.44,0,0,1,.595.156.427.427,0,0,1-.159.587l-1.608.915,1.608.916a.423.423,0,0,1,.159.584.439.439,0,0,1-.595.156l-1.609-.915v1.822a.434.434,0,0,1-.433.436A.435.435,0,0,1-10209.372-5288.437Z" transform="translate(10638.438 5441)"/></g><g transform="translate(1046 201)"><g class="a" transform="translate(177.16 57.168)"><path class="b" d="M119.8,170.181a.524.524,0,0,0-.836-.487l-1.114.847.226-1.984a.518.518,0,0,0-.11-.386.524.524,0,0,0-.93.267l-.34,2.981-2.365,1.8a3.707,3.707,0,0,0-1.785-1.007l.213-2.982,2.192-1.9a.524.524,0,1,0-.686-.791l-1.4,1.214.1-1.358a.523.523,0,1,0-1.044-.075l-.1,1.4-1.342-1.481a.528.528,0,0,0-.371-.173.51.51,0,0,0-.368.136.523.523,0,0,0-.037.74l2.014,2.224-.21,2.952a3.686,3.686,0,0,0-1.559.429l-1.81-2.382.391-2.874a.524.524,0,0,0-.448-.59.524.524,0,0,0-.59.449l-.25,1.836-.824-1.083a.523.523,0,1,0-.833.633l.847,1.114-1.985-.226a.524.524,0,0,0-.58.461.524.524,0,0,0,.461.579l2.981.34,1.8,2.365a3.672,3.672,0,0,0-.92,1.474l-2.9-.586-1.6-2.536a.524.524,0,0,0-.717-.166h0a.517.517,0,0,0-.235.322.531.531,0,0,0,.069.4l1.069,1.689-1.373-.278a.54.54,0,0,0-.394.077.523.523,0,0,0-.146.725.517.517,0,0,0,.333.224l1.335.27-1.55,1.029a.523.523,0,0,0,.191.946.54.54,0,0,0,.393-.077l2.417-1.6,2.93.591a3.716,3.716,0,0,0,.494,1.989l-2.352,1.789-2.964-.47a.535.535,0,0,0-.389.094.523.523,0,0,0,.226.941l1.973.312-1.127.858a.523.523,0,0,0,.634.833l1.1-.834-.25,1.837a.523.523,0,0,0,.448.589.524.524,0,0,0,.589-.448l.392-2.875,2.368-1.8a3.716,3.716,0,0,0,1.845.952l-.211,2.953-2.309,1.916a.524.524,0,0,0-.069.737.534.534,0,0,0,.378.189.486.486,0,0,0,.359-.12l1.538-1.276-.1,1.413a.523.523,0,0,0,.126.38.516.516,0,0,0,.359.179.53.53,0,0,0,.354-.1.525.525,0,0,0,.205-.38l.1-1.374,1.214,1.4a.531.531,0,0,0,.739.053.524.524,0,0,0,.052-.739l-1.9-2.192.213-2.983a3.687,3.687,0,0,0,1.516-.482l1.788,2.351-.469,2.963a.523.523,0,0,0,.436.6.53.53,0,0,0,.4-.1.52.52,0,0,0,.2-.334l.312-1.974.858,1.128a.523.523,0,0,0,.694.127l.039-.027a.524.524,0,0,0,.1-.734l-.834-1.1,1.837.25a.524.524,0,1,0,.141-1.038l-2.875-.391-1.8-2.368a3.7,3.7,0,0,0,.78-1.246l2.931.593,1.6,2.417a.532.532,0,0,0,.753.127.525.525,0,0,0,.119-.706L119.533,178l1.35.272a.521.521,0,0,0,.617-.408.523.523,0,0,0-.409-.617l-1.389-.281,1.628-1.133a.546.546,0,0,0,.227-.322.534.534,0,0,0-.083-.415.525.525,0,0,0-.337-.216.5.5,0,0,0-.392.086l-2.463,1.713-2.9-.586a3.7,3.7,0,0,0-.425-2.033l2.381-1.811,2.875.392a.524.524,0,1,0,.141-1.038l-1.837-.25,1.084-.824A.52.52,0,0,0,119.8,170.181Zm-6,6.66a2.256,2.256,0,0,1-.27.418l-.424-.558Zm-.871-1.244.923-.7a2.34,2.34,0,0,1,.187.926Zm-.216,2.317a2.387,2.387,0,0,1-.589.2l.063-.892Zm-1.556-.969-.08,1.129a2.326,2.326,0,0,1-.842-.428Zm-.7-.78-.872.663a2.319,2.319,0,0,1-.232-.886Zm.139-1.04-1.072-.217a2.342,2.342,0,0,1,.411-.653Zm.188-1.483a2.279,2.279,0,0,1,.625-.168l-.065.9Zm1.586,1.067.08-1.123a2.33,2.33,0,0,1,.793.46Z"/></g><circle class="b" cx="3.5" cy="3.5" r="3.5" transform="translate(158 125)"/><circle class="c" cx="3.5" cy="3.5" r="3.5" transform="translate(408 230)"/><circle class="d" cx="6" cy="6" r="6" transform="translate(337 341)"/><path class="e" d="M-10206.438-5281v-4.268l-3.7,2.133a1,1,0,0,1-1.366-.366,1,1,0,0,1,.366-1.366l3.7-2.133-3.7-2.134a1,1,0,0,1-.366-1.366,1,1,0,0,1,1.366-.367l3.7,2.133V-5293a1,1,0,0,1,1-1,1,1,0,0,1,1,1v4.27l3.7-2.135a1,1,0,0,1,1.366.367,1,1,0,0,1-.367,1.366l-3.7,2.134,3.7,2.133a1,1,0,0,1,.367,1.366,1,1,0,0,1-1.366.366l-3.7-2.135v4.27a1,1,0,0,1-1,1A1,1,0,0,1-10206.438-5281Z" transform="translate(10391.438 5678)"/><path class="b" d="M-10209.372-5288.437v-1.822l-1.609.915a.439.439,0,0,1-.595-.156.427.427,0,0,1,.158-.587l1.609-.914-1.606-.913a.425.425,0,0,1-.159-.587.437.437,0,0,1,.593-.156l1.609.916v-1.823a.435.435,0,0,1,.436-.436.434.434,0,0,1,.433.436v1.822l1.609-.915a.44.44,0,0,1,.595.156.427.427,0,0,1-.159.587l-1.608.915,1.608.916a.423.423,0,0,1,.159.584.439.439,0,0,1-.595.156l-1.609-.915v1.822a.434.434,0,0,1-.433.436A.435.435,0,0,1-10209.372-5288.437Z" transform="translate(10638.438 5441)"/></g><g transform="translate(1341 201)"><g class="a" transform="translate(177.16 57.168)"><path class="b" d="M119.8,170.181a.524.524,0,0,0-.836-.487l-1.114.847.226-1.984a.518.518,0,0,0-.11-.386.524.524,0,0,0-.93.267l-.34,2.981-2.365,1.8a3.707,3.707,0,0,0-1.785-1.007l.213-2.982,2.192-1.9a.524.524,0,1,0-.686-.791l-1.4,1.214.1-1.358a.523.523,0,1,0-1.044-.075l-.1,1.4-1.342-1.481a.528.528,0,0,0-.371-.173.51.51,0,0,0-.368.136.523.523,0,0,0-.037.74l2.014,2.224-.21,2.952a3.686,3.686,0,0,0-1.559.429l-1.81-2.382.391-2.874a.524.524,0,0,0-.448-.59.524.524,0,0,0-.59.449l-.25,1.836-.824-1.083a.523.523,0,1,0-.833.633l.847,1.114-1.985-.226a.524.524,0,0,0-.58.461.524.524,0,0,0,.461.579l2.981.34,1.8,2.365a3.672,3.672,0,0,0-.92,1.474l-2.9-.586-1.6-2.536a.524.524,0,0,0-.717-.166h0a.517.517,0,0,0-.235.322.531.531,0,0,0,.069.4l1.069,1.689-1.373-.278a.54.54,0,0,0-.394.077.523.523,0,0,0-.146.725.517.517,0,0,0,.333.224l1.335.27-1.55,1.029a.523.523,0,0,0,.191.946.54.54,0,0,0,.393-.077l2.417-1.6,2.93.591a3.716,3.716,0,0,0,.494,1.989l-2.352,1.789-2.964-.47a.535.535,0,0,0-.389.094.523.523,0,0,0,.226.941l1.973.312-1.127.858a.523.523,0,0,0,.634.833l1.1-.834-.25,1.837a.523.523,0,0,0,.448.589.524.524,0,0,0,.589-.448l.392-2.875,2.368-1.8a3.716,3.716,0,0,0,1.845.952l-.211,2.953-2.309,1.916a.524.524,0,0,0-.069.737.534.534,0,0,0,.378.189.486.486,0,0,0,.359-.12l1.538-1.276-.1,1.413a.523.523,0,0,0,.126.38.516.516,0,0,0,.359.179.53.53,0,0,0,.354-.1.525.525,0,0,0,.205-.38l.1-1.374,1.214,1.4a.531.531,0,0,0,.739.053.524.524,0,0,0,.052-.739l-1.9-2.192.213-2.983a3.687,3.687,0,0,0,1.516-.482l1.788,2.351-.469,2.963a.523.523,0,0,0,.436.6.53.53,0,0,0,.4-.1.52.52,0,0,0,.2-.334l.312-1.974.858,1.128a.523.523,0,0,0,.694.127l.039-.027a.524.524,0,0,0,.1-.734l-.834-1.1,1.837.25a.524.524,0,1,0,.141-1.038l-2.875-.391-1.8-2.368a3.7,3.7,0,0,0,.78-1.246l2.931.593,1.6,2.417a.532.532,0,0,0,.753.127.525.525,0,0,0,.119-.706L119.533,178l1.35.272a.521.521,0,0,0,.617-.408.523.523,0,0,0-.409-.617l-1.389-.281,1.628-1.133a.546.546,0,0,0,.227-.322.534.534,0,0,0-.083-.415.525.525,0,0,0-.337-.216.5.5,0,0,0-.392.086l-2.463,1.713-2.9-.586a3.7,3.7,0,0,0-.425-2.033l2.381-1.811,2.875.392a.524.524,0,1,0,.141-1.038l-1.837-.25,1.084-.824A.52.52,0,0,0,119.8,170.181Zm-6,6.66a2.256,2.256,0,0,1-.27.418l-.424-.558Zm-.871-1.244.923-.7a2.34,2.34,0,0,1,.187.926Zm-.216,2.317a2.387,2.387,0,0,1-.589.2l.063-.892Zm-1.556-.969-.08,1.129a2.326,2.326,0,0,1-.842-.428Zm-.7-.78-.872.663a2.319,2.319,0,0,1-.232-.886Zm.139-1.04-1.072-.217a2.342,2.342,0,0,1,.411-.653Zm.188-1.483a2.279,2.279,0,0,1,.625-.168l-.065.9Zm1.586,1.067.08-1.123a2.33,2.33,0,0,1,.793.46Z"/></g><circle class="b" cx="3.5" cy="3.5" r="3.5" transform="translate(158 125)"/><circle class="c" cx="3.5" cy="3.5" r="3.5" transform="translate(408 230)"/><circle class="d" cx="6" cy="6" r="6" transform="translate(337 341)"/><path class="e" d="M-10206.438-5281v-4.268l-3.7,2.133a1,1,0,0,1-1.366-.366,1,1,0,0,1,.366-1.366l3.7-2.133-3.7-2.134a1,1,0,0,1-.366-1.366,1,1,0,0,1,1.366-.367l3.7,2.133V-5293a1,1,0,0,1,1-1,1,1,0,0,1,1,1v4.27l3.7-2.135a1,1,0,0,1,1.366.367,1,1,0,0,1-.367,1.366l-3.7,2.134,3.7,2.133a1,1,0,0,1,.367,1.366,1,1,0,0,1-1.366.366l-3.7-2.135v4.27a1,1,0,0,1-1,1A1,1,0,0,1-10206.438-5281Z" transform="translate(10391.438 5678)"/><path class="b" d="M-10209.372-5288.437v-1.822l-1.609.915a.439.439,0,0,1-.595-.156.427.427,0,0,1,.158-.587l1.609-.914-1.606-.913a.425.425,0,0,1-.159-.587.437.437,0,0,1,.593-.156l1.609.916v-1.823a.435.435,0,0,1,.436-.436.434.434,0,0,1,.433.436v1.822l1.609-.915a.44.44,0,0,1,.595.156.427.427,0,0,1-.159.587l-1.608.915,1.608.916a.423.423,0,0,1,.159.584.439.439,0,0,1-.595.156l-1.609-.915v1.822a.434.434,0,0,1-.433.436A.435.435,0,0,1-10209.372-5288.437Z" transform="translate(10638.438 5441)"/></g></g></svg>