<svg xmlns="http://www.w3.org/2000/svg" width="22.715" height="26.967" viewBox="0 0 22.715 26.967"><defs><style>.a{fill:#2a2a2a;opacity:0.502;}</style></defs><path class="a" d="M22.239,21.016a14.661,14.661,0,0,1-1.45,2.607,13.244,13.244,0,0,1-1.868,2.257,3.623,3.623,0,0,1-2.4,1.057,6.016,6.016,0,0,1-2.217-.529,6.362,6.362,0,0,0-2.387-.528,6.578,6.578,0,0,0-2.455.528,6.6,6.6,0,0,1-2.121.558A3.411,3.411,0,0,1,4.887,25.88a13.907,13.907,0,0,1-1.953-2.337,16.163,16.163,0,0,1-2.066-4.1A15.025,15.025,0,0,1,0,14.55,8.93,8.93,0,0,1,1.173,9.877,6.879,6.879,0,0,1,3.629,7.393a6.607,6.607,0,0,1,3.321-.937,7.819,7.819,0,0,1,2.568.6,8.256,8.256,0,0,0,2.037.6,12.19,12.19,0,0,0,2.259-.706,7.466,7.466,0,0,1,3.07-.545,6.519,6.519,0,0,1,5.107,2.689,5.681,5.681,0,0,0-3.013,5.161,5.693,5.693,0,0,0,1.869,4.29,6.143,6.143,0,0,0,1.868,1.225Q22.49,20.418,22.239,21.016ZM17.035.54a5.753,5.753,0,0,1-1.475,3.773,5.025,5.025,0,0,1-4.173,2.06,4.2,4.2,0,0,1-.031-.511,5.911,5.911,0,0,1,1.565-3.813A6.024,6.024,0,0,1,14.827.618,5.683,5.683,0,0,1,17.007,0a4.9,4.9,0,0,1,.028.539Z" transform="translate(0 -0.001)"/></svg>