<svg xmlns="http://www.w3.org/2000/svg" width="1091.726" height="517.498" viewBox="0 0 1091.726 517.498">
  <defs>
    <style>
      .cls-1 {
        fill: #fff;
        opacity: 0.3;
      }
    </style>
  </defs>
  <path id="交叉_1" data-name="交叉 1" class="cls-1" d="M972.893,886.244c-.264-1.887-.637-6.446-.843-9.464-.291-4.28-.367-6.6-.233-6.893.024.1.055.234.074.338.364,2.373,1.2,13.051,1.187,16.019Zm-941.236,0a8.043,8.043,0,0,1-1.768-3.88c-.652-3.5.568-9.213,5.333-10.971.2-.045.451-.121.647-.152,5.73-.95,8.779,7.511,4.873,13.515a8.944,8.944,0,0,1-1.2,1.488Zm827.9-.124c-2.849-.606-5.508-4.49-5.506-9.419.005-3.665,1.918-8.319,6.162-7.182,5.367,2.268,6.466,11.767,2.92,15.4a3.882,3.882,0,0,1-2.806,1.288A3.689,3.689,0,0,1,859.558,886.119Zm-973.9-3.467c-.681-.145-1.139-2.153-1.15-5.321-.013-3.451.629-9.282,2.1-11.44.157-.162.351-.369.571-.358,2.1.107,1.13,15.187-1.093,16.982a.562.562,0,0,1-.348.145A.379.379,0,0,1-114.339,882.653Zm207.43-10.285h0a6.779,6.779,0,0,1-5.15-5.747c-.651-3.52.912-9.189,6.423-10.779,7.157-1.227,10.249,7.18,6.441,12.907a7.767,7.767,0,0,1-6.39,3.759A6.367,6.367,0,0,1,93.091,872.367Zm714.436-1.6c-3.154-.671-6.07-4.316-6.168-9.059-.07-3.667,2.026-8.419,6.911-7.507,6.232,1.984,7.711,11.426,3.7,15.241a4.877,4.877,0,0,1-3.411,1.436A4.982,4.982,0,0,1,807.528,870.77Zm156.634-5.137c-.909-.193-2.154-4.882-2.59-10.177a28.312,28.312,0,0,1-.059-5.006c.272-2.68.971-1.839,1.2-1.559,1.979,3.254,2.981,14.919,1.8,16.56a.373.373,0,0,1-.293.188A.278.278,0,0,1,964.162,865.633ZM-92.859,861.787c-1.068-.227-1.843-2.209-1.908-5.336-.074-3.447.893-9.253,3.261-11.357a1.6,1.6,0,0,1,.912-.336c3.242.191,2.55,12.946-.891,16.442a1.707,1.707,0,0,1-1.166.608A1,1,0,0,1-92.859,861.787ZM160.1,858.874a7.184,7.184,0,0,1-5.69-5.945,9.326,9.326,0,0,1,7.483-10.546c7.731-.932,11.128,6.856,7.421,12.451a9.05,9.05,0,0,1-7.527,4.217A8.11,8.11,0,0,1,160.1,858.874Zm588.343-.857c-3.345-.711-6.427-4.089-6.619-8.71-.148-3.662,2.085-8.511,7.532-7.833,6.632,1.613,8.64,10.314,4.89,14.565a5.906,5.906,0,0,1-4.5,2.117A6.259,6.259,0,0,1,748.446,858.017Zm-514.431-10h0a7.616,7.616,0,0,1-6.124-6.26c-.608-3.565,1.5-9.093,8.093-10.22,8.1-.6,11.512,7.326,7.534,12.755a9.406,9.406,0,0,1-7.62,3.923A9.05,9.05,0,0,1,234.015,848.018Zm449.45-.087a8.993,8.993,0,0,1-6.888-8.361c-.228-3.656,2.109-8.6,8.013-8.16,7.175,1.318,9.494,9.936,5.532,14.35A6.776,6.776,0,0,1,685,848.094,7.357,7.357,0,0,1,683.465,847.931Zm260.31-3.249c-1.635-.347-3.639-4.875-4.146-10.068-.356-3.652.183-8.122,2.5-6.617,3.3,2.988,4.637,13.945,2.641,16.287a1.035,1.035,0,0,1-.792.419A.953.953,0,0,1,943.775,844.682ZM-61.448,841.729c-1.419-.3-2.493-2.25-2.612-5.382-.132-3.445,1.134-9.211,4.356-11.232a3.711,3.711,0,0,1,.849-.286c4.206-.577,4.322,10.949.163,15.611a3.328,3.328,0,0,1-2.362,1.33A1.884,1.884,0,0,1-61.448,841.729Zm675.2-1.146a8.9,8.9,0,0,1-7.018-8,7.741,7.741,0,0,1,8.36-8.494c7.619,1.018,10.222,9.537,6.1,14.12a7.564,7.564,0,0,1-5.709,2.555A8.327,8.327,0,0,1,613.749,840.584Zm-303.441-.229a7.977,7.977,0,0,1-6.462-6.59c-.56-3.582,1.677-9.014,8.407-9.864,8.253-.257,11.587,7.8,7.449,13.063a9.363,9.363,0,0,1-7.415,3.6A9.521,9.521,0,0,1,310.307,840.355Zm230.128-4.284a8.754,8.754,0,0,1-7.023-7.644c-.372-3.632,2.039-8.779,8.568-8.83,7.952.712,10.792,9.134,6.574,13.882a8.225,8.225,0,0,1-6.238,2.791A9.057,9.057,0,0,1,540.436,836.071Zm-152.871-.2a8.29,8.29,0,0,1-6.731-6.932c-.5-3.606,1.838-8.943,8.619-9.521,8.258.081,11.46,8.267,7.233,13.352a9.15,9.15,0,0,1-7.111,3.311A9.68,9.68,0,0,1,387.564,835.872Zm77.1-1.471a8.52,8.52,0,0,1-6.952-7.216c-.439-3.621,1.959-8.86,8.676-9.175,8.28.407,10.691,8.4,7.456,12.988a8.58,8.58,0,0,1-7.146,3.617A9.794,9.794,0,0,1,464.667,834.4ZM-117.9,818.213c.593-3.324,1.688-8.943,2.269-11.039a1.221,1.221,0,0,1,.166-.332c.021.775-2.538,15.539-3.182,16.335C-118.656,822.574-118.249,820.144-117.9,818.213Zm97.425,4.6c-1.755-.373-3.1-2.329-3.272-5.466-.191-3.45,1.359-9.167,5.4-11.073a5.917,5.917,0,0,1,1.068-.257c5.156-.421,5.714,10.047.807,15.137a4.85,4.85,0,0,1-3.38,1.724A3.014,3.014,0,0,1-20.476,822.814Zm925.862-1.327c-2.392-.509-5.081-4.721-5.656-9.826-.409-3.636.563-8.147,4.021-6.782,4.711,2.686,6.528,12.84,3.761,15.869a2.2,2.2,0,0,1-1.651.791A2.285,2.285,0,0,1,905.387,821.488ZM29.74,805.31c-2.074-.442-3.7-2.39-3.931-5.552-.248-3.452,1.57-9.1,6.378-10.861a7.715,7.715,0,0,1,1.28-.222c5.518-.216,6.864,8.594,2.151,14.07a6.735,6.735,0,0,1-4.957,2.661A4.431,4.431,0,0,1,29.74,805.31ZM861.221,803.5c-2.823-.6-5.87-4.49-6.472-9.428-.444-3.62.833-8.2,5.053-7.051,5.41,2.255,7.648,11.676,4.711,15.27a3.219,3.219,0,0,1-2.547,1.29A3.572,3.572,0,0,1,861.221,803.5Zm-968.857-1.276c-.513-.11-.562-1.987-.086-4.971.524-3.274,1.93-8.829,3.418-10.93.141-.156.337-.368.5-.365,1.749.041-1.306,14.2-3.474,16.115a.5.5,0,0,1-.312.155A.227.227,0,0,1-107.636,802.22Zm1068.178-5.7.043.182q.342,1.519.676,3.031ZM88.748,789.663c-2.383-.507-4.267-2.5-4.552-5.736-.306-3.46,1.764-9.045,7.322-10.634.225-.038.524-.1.752-.13,6.527-.763,8.951,7.679,3.874,13.485a8.35,8.35,0,0,1-6.158,3.143A5.939,5.939,0,0,1,88.748,789.663Zm720.015-1.624c-3.142-.669-6.4-4.256-7.012-9.046-.461-3.606,1.076-8.264,5.942-7.342,6.109,1.923,8.641,10.46,5.679,14.574a4.293,4.293,0,0,1-3.574,1.926A4.983,4.983,0,0,1,808.763,788.039Zm145.165-2.571c-.7-.148-2.429-4.671-3.64-9.712a21.945,21.945,0,0,1-.906-5.873c.07-.99.482-.473.677-.224,1.958,3.1,4.684,14.26,4.077,15.661-.044.1-.1.152-.171.152A.169.169,0,0,1,953.929,785.468ZM-86.5,781.691c-.894-.19-1.261-2.039-.862-4.956.446-3.246,2.134-8.741,4.5-10.795a1.591,1.591,0,0,1,.842-.342c2.809.1-.1,13.211-3.5,15.769a1.419,1.419,0,0,1-.825.34A.754.754,0,0,1-86.5,781.691Zm242.777-5.658a6.453,6.453,0,0,1-5.22-5.874,10.052,10.052,0,0,1,8.214-10.363c.255-.032.593-.086.85-.1,7-.509,10.034,7.251,5.065,12.977A9.746,9.746,0,0,1,157.9,776.2,7.84,7.84,0,0,1,156.272,776.033Zm592.933-.862c-3.369-.716-6.717-4.07-7.329-8.656-.482-3.587,1.289-8.321,6.719-7.629,6.81,1.633,9.544,10.058,6.195,14.322a5.279,5.279,0,0,1-4.263,2.107A6.353,6.353,0,0,1,749.205,775.171ZM230.715,765.1h0a7.019,7.019,0,0,1-5.76-6.182c-.41-3.478,2-8.882,8.636-10.006,8.245-.624,11.171,7.01,6.852,12.466a10.066,10.066,0,0,1-7.866,3.915A8.952,8.952,0,0,1,230.715,765.1Zm452.98-.1a9.839,9.839,0,0,1-7.451-8.282c-.454-3.318,1.146-8.411,7.377-7.933,7.352,1.332,10.247,9.651,6.587,14.07a6.26,6.26,0,0,1-4.939,2.314A7.575,7.575,0,0,1,683.695,765Zm250.2-.15c-1.465-.311-3.924-4.652-5.158-9.565-.118-.468-.256-1.1-.341-1.571-.43-2.341-.6-5.93,1.5-4.525,3.32,2.929,6.137,13.214,4.756,15.321a.692.692,0,0,1-.591.359A.787.787,0,0,1,933.892,764.851Zm-989.481-2.907c-1.245-.264-1.934-2.075-1.615-4.957.359-3.224,2.3-8.65,5.5-10.618a2.617,2.617,0,0,1,1.177-.315c3.689.167,1.635,11.261-2.782,15.021a3.169,3.169,0,0,1-1.955.9A1.566,1.566,0,0,1-55.589,761.944Zm669.036-4.417a9.458,9.458,0,0,1-7.456-7.831c-.455-3.311,1.288-8.473,7.909-8.251,7.464.985,10.559,8.524,7.339,13.222a7.015,7.015,0,0,1-5.954,3.057A8.841,8.841,0,0,1,613.447,757.526Zm-305.867-.154a7.575,7.575,0,0,1-6.23-6.485c-.435-3.493,1.991-8.789,8.752-9.629,8.411-.281,11.439,7.474,7.065,12.737a9.832,9.832,0,0,1-7.6,3.585A9.576,9.576,0,0,1,307.58,757.372Zm231.952-4.4h0a9.044,9.044,0,0,1-7.283-7.461c-.45-3.292,1.406-8.533,8.31-8.577,7.777.684,10.951,8.108,7.556,12.941a7.85,7.85,0,0,1-6.586,3.31A9.608,9.608,0,0,1,539.533,752.976Zm-154.1-.206a8.061,8.061,0,0,1-6.652-6.74c-.459-3.506,1.954-8.7,8.76-9.27,8.063.062,11.248,7.249,7.655,12.37a9.214,9.214,0,0,1-7.652,3.862A10.158,10.158,0,0,1,385.436,752.77Zm77.7-1.4a8.585,8.585,0,0,1-7.015-7.1c-.477-3.524,1.877-8.619,8.614-8.921,7.972.378,11.182,7.687,7.665,12.661a8.6,8.6,0,0,1-7.169,3.584A10.082,10.082,0,0,1,463.132,751.37Zm-478.4-8.053c-1.579-.335-2.567-2.138-2.337-5,.262-3.208,2.426-8.555,6.428-10.412a4.015,4.015,0,0,1,1.5-.271c4.5.277,3.008,10.449-2.12,14.515a4.849,4.849,0,0,1-2.911,1.222A2.658,2.658,0,0,1-15.269,743.316ZM896.2,741.978c-2.263-.482-5.433-4.475-6.661-9.242-.873-3.385-.6-7.55,2.749-6.2,4.422,2.47,7.528,11.369,5.854,14.5a1.65,1.65,0,0,1-1.5.989A2.113,2.113,0,0,1,896.2,741.978ZM-97.46,740.1l-.045.131-.047.134Zm.021-.062-.021.062Zm.024-.069-.024.069Zm.975-2.812-.975,2.812Q-96.93,738.563-96.439,737.158Zm7.471-10.8c-.354-.075-.006-1.856.924-4.634,1.021-3.051,3.118-8.259,4.6-10.268.131-.148.31-.354.428-.352,1.15.018-4.34,14.391-5.816,15.223a.217.217,0,0,1-.107.034ZM34.1,726.134c-1.885-.4-3.158-2.2-3.019-5.087.149-3.2,2.506-8.463,7.253-10.169a5.792,5.792,0,0,1,1.807-.218c5.036.4,4.632,8.852-.64,13.507a7.154,7.154,0,0,1-4.567,2.052A4.017,4.017,0,0,1,34.1,726.134Zm818.618-1.877c-2.74-.583-6.186-4.216-7.362-8.8-.859-3.352-.226-7.563,3.873-6.419,5.121,2.1,8.394,10.253,6.583,13.792a2.535,2.535,0,0,1-2.353,1.51A3.564,3.564,0,0,1,852.716,724.256ZM92.164,710.691h0c-2.191-.465-3.763-2.266-3.729-5.2a11.134,11.134,0,0,1,8.03-9.9,10.044,10.044,0,0,1,1.438-.184c5.811-.1,6.868,7.322,1.76,12.416a9.236,9.236,0,0,1-6.317,2.986A5.677,5.677,0,0,1,92.164,710.691Zm835.115-9.6c-.827-2.01-2.167-5.458-1.891-5.947.118.061.157.106.353.36,1.814,2.753,6.551,13.864,6.1,14.746C931.176,709.914,928.719,704.624,927.279,701.1ZM800.988,709.09c-3.079-.655-6.584-4.013-7.689-8.445-.829-3.322.131-7.585,4.871-6.664,5.921,1.829,9.345,9.85,7.016,13.5a3.566,3.566,0,0,1-3.141,1.724A5.094,5.094,0,0,1,800.988,709.09Zm-869.622-2.471h0c-.718-.153-.7-1.9.127-4.58.924-3.01,3.267-8.129,5.58-10.09.332-.22.643-.425.941-.3,1.987.853-3.066,13.191-6.078,14.837a.989.989,0,0,1-.463.143A.512.512,0,0,1-68.634,706.619Zm227.213-9.344a5.343,5.343,0,0,1-4.473-5.308c-.09-3.179,2.566-8.263,8.735-9.6a12.241,12.241,0,0,1,1.631-.133c6.312.1,8.11,6.866,3.148,11.873a10.676,10.676,0,0,1-7.439,3.333A7.709,7.709,0,0,1,158.579,697.275Zm583.791-.9h0a10.957,10.957,0,0,1-7.889-7.983c-.729-3.065.2-7.653,5.788-6.913,6.686,1.57,9.632,9.073,7.62,12.705a4.468,4.468,0,0,1-4.109,2.344A6.788,6.788,0,0,1,742.37,696.371Zm170.22-5.948c-1.238-.264-4.076-4.37-6-8.969a20.515,20.515,0,0,1-1.253-3.82c-.26-1.3-.284-2.669,1.1-1.718,3.244,2.794,7.421,12.318,6.675,14.206a.42.42,0,0,1-.4.314A.583.583,0,0,1,912.59,690.422Zm-951.532-2.776c-1.057-.225-1.341-1.918-.62-4.561.812-2.969,3.353-8,6.462-9.871a1.939,1.939,0,0,1,1.364-.266c2.976.863-1.655,12.178-5.9,14.414a2.324,2.324,0,0,1-1.056.311A1.21,1.21,0,0,1-38.942,687.647Zm270.762-1.135h0a6.024,6.024,0,0,1-5.122-5.583c-.2-3.18,2.446-8.144,8.968-9.225.263-.021.611-.06.875-.068,6.832-.24,9.768,6.264,5.149,11.406A10.846,10.846,0,0,1,233.7,686.7,9.033,9.033,0,0,1,231.82,686.512Zm446.009-.163a10.356,10.356,0,0,1-7.823-7.577c-.675-3.041.516-7.685,6.593-7.19,6.943,1.226,10.4,8.249,7.817,12.4a5.5,5.5,0,0,1-4.881,2.553A8.22,8.22,0,0,1,677.83,686.349Zm-69.236-7.3A9.68,9.68,0,0,1,601,671.867c-.617-3.02.822-7.72,7.289-7.482,7.356.939,10.792,7.834,7.889,12.1a6.56,6.56,0,0,1-5.629,2.774A9.415,9.415,0,0,1,608.594,679.05Zm-301.133-.22h0c-2.983-.634-5.406-2.635-5.711-5.794-.305-3.184,2.245-8.028,8.882-8.836,7.9-.286,10.748,6.146,7.036,10.975a10.38,10.38,0,0,1-10.2,3.656ZM535.8,674.567c-3.436-.731-6.586-3.188-7.24-6.809-.544-3,1.118-7.77,7.871-7.792,7.653.649,11.016,7.42,7.841,11.816a7.612,7.612,0,0,1-6.347,3.011A10.245,10.245,0,0,1,535.8,674.567Zm-151.708-.194h0c-3.177-.675-5.859-2.814-6.278-6.11-.409-3.192,2.026-7.934,8.7-8.466,7.7.035,10.93,6.633,7.391,11.245a9.475,9.475,0,0,1-7.61,3.562A10.626,10.626,0,0,1,384.09,674.373Zm76.483-1.385c-3.335-.709-6.264-3-6.8-6.455-.5-3.207,1.768-7.849,8.363-8.122,7.838.346,11.074,7,7.68,11.528a8.61,8.61,0,0,1-7.027,3.283A10.666,10.666,0,0,1,460.573,672.988ZM-.165,669.725c-1.379-.293-2-1.95-1.4-4.55.679-2.935,3.379-7.865,7.248-9.627a3.131,3.131,0,0,1,1.781-.223c3.793.9.448,10.33-4.836,13.634a4.549,4.549,0,0,1-2.33.813A2.216,2.216,0,0,1-.165,669.725Zm876.53-1.292c-2.073-.441-5.536-4.189-7.384-8.619-1.3-3.1-1.7-6.883,1.463-5.578,4.285,2.351,8.428,10.542,7.448,13.362a1.151,1.151,0,0,1-1.141.878A1.856,1.856,0,0,1,876.365,668.434ZM-57.4,651.7a94.236,94.236,0,0,1,5.637-9.463c.247-.291.247-.291.383-.312-.008.781-6.975,13.841-7.925,13.964A23.308,23.308,0,0,1-57.4,651.7Zm104.7,1.482c-1.682-.357-2.621-1.99-2.148-4.585.533-2.906,3.342-7.727,7.923-9.352a4.541,4.541,0,0,1,2.179-.157c4.253.913,2.183,8.857-3.3,12.688a7.111,7.111,0,0,1-3.918,1.481A3.531,3.531,0,0,1,47.3,653.182Zm787.246-1.792c-2.582-.549-6.252-3.933-7.966-8.162-1.238-3.051-1.237-6.854,2.648-5.747,4.948,1.994,9.062,9.46,7.906,12.641a1.884,1.884,0,0,1-1.893,1.347A3.351,3.351,0,0,1,834.546,651.39Zm58.972-19.012c-2.9-4.834-2.963-5.16-3-5.336.068.087.159.211.221.3,1.787,2.6,7.277,11.7,8.051,13.34l-.023.064C898.07,639.866,895.278,635.325,893.517,632.379ZM103.127,638.3c-1.987-.424-3.256-2.041-2.932-4.628.36-2.884,3.245-7.6,8.521-9.057a7.553,7.553,0,0,1,1.981-.164c5.142.428,4.644,7.439-.839,11.723a9.46,9.46,0,0,1-5.634,2.236A5.279,5.279,0,0,1,103.127,638.3Zm-143.318-.91c-.531-.112-.129-1.685,1.093-4.124,1.364-2.739,4.286-7.413,6.5-9.242.3-.207.587-.4.787-.3,1.384.729-5.829,12.835-8.127,13.636a.562.562,0,0,1-.186.037A.312.312,0,0,1-40.19,637.388Zm825.045-.661c-2.968-.63-6.705-3.733-8.234-7.711-1.157-3.007-.76-6.837,3.738-5.941,5.707,1.733,9.847,9.028,8.137,12.3a2.733,2.733,0,0,1-2.589,1.466A5.064,5.064,0,0,1,784.855,636.727Zm-617.934-11.28a4.333,4.333,0,0,1-3.7-4.757c.179-2.863,3.1-7.467,9.036-8.735a9.574,9.574,0,0,1,2.266-.1c5.406.548,6.122,6.317,1.319,10.639a11.389,11.389,0,0,1-7.407,3.1A7.28,7.28,0,0,1,166.921,625.447Zm561.449-.886a11.924,11.924,0,0,1-8.2-7.3c-.984-2.763-.562-6.878,4.763-6.159,6.024,1.394,10.111,7.957,8.441,11.523a3.685,3.685,0,0,1-3.586,2.1A6.859,6.859,0,0,1,728.37,624.561ZM880.8,622.184c-.979-.209-4.112-4.018-6.656-8.2-2-3.29-2.257-4.522-2.29-4.819-.086-.788.553-.34.859-.12,3.3,2.77,8.913,11.921,8.35,13.036a.193.193,0,0,1-.185.111A.382.382,0,0,1,880.8,622.184Zm-893.093-2.605c-.855-.182-.775-1.717.3-4.064,1.231-2.68,4.3-7.244,7.249-8.993a1.769,1.769,0,0,1,1.193-.267c2.471.752-4.162,11.741-7.968,13.213a1.69,1.69,0,0,1-.6.13A.86.86,0,0,1-12.295,619.579Zm249.628-4.6c-2.551-.544-4.449-2.223-4.453-4.883,0-2.853,2.813-7.33,9.072-8.348a14.067,14.067,0,0,1,1.639-.068c6,.271,7.879,5.808,3.456,10.213a11.259,11.259,0,0,1-7.828,3.277A9.09,9.09,0,0,1,237.333,614.981Zm428.934-.057a10.937,10.937,0,0,1-7.961-6.9c-.938-2.933.21-6.858,5.7-6.394,6.486,1.126,10.48,7.533,8.4,11.2a4.772,4.772,0,0,1-4.391,2.286A8.43,8.43,0,0,1,666.266,614.924Zm-66.63-7.049c-3.32-.706-6.605-3.054-7.555-6.474-.809-2.906.686-6.889,6.534-6.656,7.055.88,10.208,6.9,8.53,10.364a5.716,5.716,0,0,1-5.458,2.987A9.891,9.891,0,0,1,599.637,607.875ZM310.018,607.7c-2.765-.589-4.941-2.372-5.116-5.176-.177-2.853,2.442-7.2,8.8-7.957,7.34-.282,10.016,5.506,6.365,9.795a10.492,10.492,0,0,1-7.964,3.552A10.067,10.067,0,0,1,310.018,607.7ZM529.6,603.563h0c-3.259-.692-6.29-2.865-7.032-6.1-.665-2.88,1.154-6.939,7.269-6.942,7.333.6,10.258,6.517,8.278,10.06a6.9,6.9,0,0,1-6.287,3.224A10.732,10.732,0,0,1,529.6,603.563Zm-145.9-.155h0c-2.974-.632-5.446-2.54-5.8-5.466-.345-2.853,2.048-7.093,8.44-7.591,7.366.013,10.395,5.909,6.976,10.048a9.523,9.523,0,0,1-7.39,3.24A10.723,10.723,0,0,1,383.7,603.408ZM24.058,602.77c-1.158-.247-1.391-1.736-.456-4.029,1.066-2.634,4.22-7.078,7.881-8.718a2.58,2.58,0,0,1,1.87-.127c2.833,1.4-2.853,10.736-7.7,12.64a3.431,3.431,0,0,1-1.227.271A1.752,1.752,0,0,1,24.058,602.77Zm433.175-.726c-3.135-.666-5.891-2.683-6.436-5.763-.508-2.865,1.612-7.008,7.925-7.256,7,.292,10.384,5.747,7.9,9.764a8.105,8.105,0,0,1-7.088,3.5A11.1,11.1,0,0,1,457.232,602.043Zm389.588-.491c-1.835-.391-5.521-3.87-7.9-7.834a16.489,16.489,0,0,1-1.225-2.416c-.339-.869-1.244-3.627,1.406-2.5,4.338,2.335,9.531,10.17,8.757,12.3a.7.7,0,0,1-.719.488A1.53,1.53,0,0,1,846.821,601.552ZM-18.508,590.459l.19-.254.255-.345,7.612-9.96.31-.392c.069-.089.166-.205.242-.288-.059.091-8.88,11.838-9.573,12.568C-19.169,591.332-18.835,590.9-18.508,590.459Zm87.125-3.231c-1.452-.309-2.031-1.768-1.266-4.018A15.141,15.141,0,0,1,75.74,574.8a3.985,3.985,0,0,1,2.35-.067c3.433,1.337-.736,9.214-6.289,11.868a6.115,6.115,0,0,1-2.565.688A2.972,2.972,0,0,1,68.618,587.228Zm738.96-1.678c-2.362-.5-6.177-3.572-8.375-7.362-1.576-2.721-2.18-6.081,1.4-5.035,4.694,1.853,9.522,8.525,9.007,11.312a1.3,1.3,0,0,1-1.408,1.157A3.044,3.044,0,0,1,807.578,585.55ZM-2.065,574.871H-2.07c-.2-.44,1.2-2.465,2.054-3.638a56.108,56.108,0,0,1,7.281-8.276c.4-.28.474-.31.619-.272.458,1.068-8.616,12.189-9.91,12.19A.188.188,0,0,1-2.065,574.871Zm123.017-1.58c-1.727-.367-2.642-1.795-2.05-4.06.664-2.547,3.839-6.748,8.8-8.1a5.929,5.929,0,0,1,2.34-.105c4.294.814,2.339,7.224-3.273,10.712a9.593,9.593,0,0,1-4.87,1.644A4.565,4.565,0,0,1,120.953,573.291Zm639.963-1.508h0c-2.767-.589-6.575-3.375-8.5-6.908-1.346-2.478-1.849-6.08,2.549-5.18,5.4,1.611,10.141,8.09,9.036,10.947a2.023,2.023,0,0,1-2.08,1.257A4.859,4.859,0,0,1,760.916,571.784ZM180.81,561.2a3.36,3.36,0,0,1-2.884-4.129c.432-2.52,3.548-6.593,9.12-7.763a7.9,7.9,0,0,1,2.7-.027c4.628.87,4.1,6.135-.983,9.718a11.8,11.8,0,0,1-6.584,2.337A6.615,6.615,0,0,1,180.81,561.2Zm658.663-.227c-.8-.169-4.633-4.279-7.169-7.313-.8-.953-3.383-4.1-3.254-4.6.123-.028.185,0,.581.3,2.983,2.431,10.117,10.8,9.918,11.623a.122.122,0,0,1-.03,0A.216.216,0,0,1,839.473,560.977Zm-131.612-.617h0a13.05,13.05,0,0,1-8.307-6.5c-1.207-2.434-1.279-6.034,3.653-5.349,6.071,1.377,10.076,7.367,9.054,10.2a2.886,2.886,0,0,1-2.994,1.808A6.788,6.788,0,0,1,707.861,560.361ZM23.474,558.614c-.638-.136-.187-1.5,1.219-3.555,1.62-2.363,5.131-6.4,7.878-7.994.377-.178.741-.349.992-.256,1.881.689-6.679,11.042-9.743,11.785a.993.993,0,0,1-.231.031A.541.541,0,0,1,23.474,558.614Zm223.382-7.235c-2.268-.482-3.857-1.93-3.684-4.223.191-2.5,3.1-6.439,8.964-7.375a14.078,14.078,0,0,1,1.522-.07c5.452.182,6.866,5.094,2.562,8.906a11.711,11.711,0,0,1-7.585,2.941A8.585,8.585,0,0,1,246.856,551.379Zm402.66-.084a11.486,11.486,0,0,1-7.906-6.08c-1.049-2.395-.7-6.019,4.691-5.543,6.275,1.061,9.912,6.456,8.963,9.414-.536,1.668-2.076,2.408-3.959,2.408A8.64,8.64,0,0,1,649.516,551.3Zm-62.591-6.6h0c-3.1-.66-6.249-2.717-7.339-5.686-.863-2.366-.1-6.023,5.65-5.771,6.632.8,9.961,6.074,8.625,9.086-.8,1.795-2.687,2.6-4.855,2.6A10.026,10.026,0,0,1,586.924,544.7Zm-271.875-.156c-2.489-.529-4.378-2.068-4.424-4.482-.047-2.486,2.566-6.3,8.524-6.988.242-.008.559-.031.794-.031,5.8-.024,8.438,4.69,4.779,8.548a10.665,10.665,0,0,1-7.65,3.158A9.749,9.749,0,0,1,315.049,544.541ZM56.695,543.254c-.923-.2-.8-1.507.431-3.487,1.431-2.3,4.967-6.2,8.352-7.69.425-.144,1.133-.392,1.57-.141,2.119,1.229-5.269,10.048-9.414,11.235a2.522,2.522,0,0,1-.678.109A1.272,1.272,0,0,1,56.695,543.254Zm751.745-1.1c-1.516-.322-5.287-3.4-8.237-6.966a14.492,14.492,0,0,1-2.228-3.3c-.74-1.737.661-1.127,1.126-.928,4.025,2.123,10.094,8.99,10.012,10.8a.391.391,0,0,1-.437.419A1.151,1.151,0,0,1,808.439,542.159Zm-287.293-1.508h0c-3.021-.642-5.863-2.536-6.667-5.333-.843-2.931,1.153-6.043,6.518-6.025,6.882.54,9.856,5.7,8.151,8.78-1.076,1.941-3.321,2.82-5.748,2.82A10.865,10.865,0,0,1,521.147,540.651Zm-136.984-.161c-2.69-.573-4.892-2.2-5.174-4.716-.282-2.491,2.018-6.195,7.992-6.639,6.611-.007,9.444,4.641,6.813,8.242a9.088,9.088,0,0,1-7.4,3.343A10.769,10.769,0,0,1,384.162,540.49Zm69.045-1.262h0c-2.881-.613-5.4-2.362-5.942-5.011-.51-2.5,1.429-6.107,7.318-6.317,7.033.268,9.595,5.335,7.546,8.5-1.366,2.106-3.961,3.073-6.613,3.073A11.119,11.119,0,0,1,453.208,539.228ZM97.353,529.067c-1.193-.254-1.388-1.523-.349-3.452a17.851,17.851,0,0,1,8.677-7.367,3.483,3.483,0,0,1,2.019-.087c3.006,1.237-3.309,9.165-8.56,10.733a4.662,4.662,0,0,1-1.306.219A2.321,2.321,0,0,1,97.353,529.067Zm675.255-1.556c-2.092-.445-5.993-3.206-8.6-6.476a12.582,12.582,0,0,1-1.375-2.044c-.39-.748-1.427-3.109,1.5-2.238,4.544,1.762,10.222,7.98,9.908,10.137-.069.471-.4.684-.9.684A2.584,2.584,0,0,1,772.608,527.511ZM47.867,516.8c2.416-2.356,6.116-5.757,7.89-7.137.307-.228.307-.228.439-.254-.254.6-10.248,10.3-11.242,10.507A26.457,26.457,0,0,1,47.867,516.8Zm97.325-.491c-1.465-.311-2.023-1.553-1.206-3.427a14.593,14.593,0,0,1,8.9-7.04,4.373,4.373,0,0,1,2.8.126c2.985,1.589-1.428,7.763-7.049,9.863a7.766,7.766,0,0,1-2.654.555A3.793,3.793,0,0,1,145.193,516.3Zm584.747-1.374c-2.5-.532-6.3-2.971-8.577-6.024-.116-.156-.265-.369-.375-.533-1.3-1.961-1.928-4.6,1.687-3.847,4.967,1.459,10.2,7.048,9.736,9.462-.141.726-.713,1.049-1.544,1.049A4.506,4.506,0,0,1,729.94,514.931Zm52.05-13.63c-4.126-3.633-4.2-3.817-4.228-3.876a4.8,4.8,0,0,1,.394.282c2.847,2.254,11.159,9.493,11.316,9.929C788.862,507.283,784.663,503.653,781.989,501.3ZM67.541,505.535c-.419-.089.392-1.245,2.118-3.006a48.861,48.861,0,0,1,8.329-6.829c.309-.157.632-.314.771-.244.987.5-9.532,10.023-11.143,10.085H67.6A.3.3,0,0,1,67.541,505.535Zm132.292-.272a2.476,2.476,0,0,1-2.05-3.466c.67-2.147,3.9-5.647,9-6.7a7.005,7.005,0,0,1,2.9.064c3.837,1.119,1.7,6.192-3.74,8.9a11.385,11.385,0,0,1-4.918,1.318A5.753,5.753,0,0,1,199.832,505.263Zm481.59-.779a14.562,14.562,0,0,1-8.239-5.619c-1.509-2.228-1.742-5.1,2.472-4.495,5.216,1.163,10.018,6.131,9.464,8.756-.222,1.048-1.116,1.513-2.345,1.513A6.559,6.559,0,0,1,681.422,504.484Zm-421.29-8.2c-1.958-.417-3.224-1.636-2.89-3.531.374-2.121,3.315-5.479,8.672-6.319a8.5,8.5,0,0,1,2.591.057c4.154.812,4.07,4.894-.16,7.8a11.97,11.97,0,0,1-6.6,2.151A7.8,7.8,0,0,1,260.132,496.289Zm367.922-.092a12.277,12.277,0,0,1-7.679-5.212c-1.284-2.179-1.018-5.064,3.586-4.647,5.75.955,9.614,5.542,9.094,8.034-.295,1.4-1.574,2.024-3.239,2.024A8.534,8.534,0,0,1,628.054,496.2ZM96.936,491.945c-.676-.144-.178-1.247,1.331-2.9a30.97,30.97,0,0,1,8.623-6.514c.368-.134.985-.352,1.242-.157,1.385,1.041-8.391,9.552-11.014,9.586h-.025A.727.727,0,0,1,96.936,491.945Zm665.158-.985c-1.131-.24-5.011-2.936-8.419-5.949-2.668-2.36-3.148-3.208-3.231-3.412-.221-.541.5-.22.888-.047,3.836,1.97,11.009,8.152,11.086,9.256.008.116-.055.17-.18.17A.706.706,0,0,1,762.094,490.961Zm-191.288-.793c-2.821-.6-5.759-2.345-6.961-4.835-1.033-2.146-.276-5.064,4.645-4.837,6.062.718,9.5,5.179,8.537,7.708-.575,1.516-2.207,2.193-4.154,2.193A10.008,10.008,0,0,1,570.806,490.168Zm-248.418-.22c-2.165-.46-3.743-1.714-3.671-3.656.08-2.1,2.636-5.333,8.072-5.948.421-.019.986-.039,1.41-.012,4.86.309,6.566,4.061,3.257,7.169a10.572,10.572,0,0,1-7.1,2.644A9.52,9.52,0,0,1,322.388,489.947Zm188.28-3.478c-2.722-.578-5.311-2.172-6.159-4.5-.772-2.119.466-5.088,5.633-5.058,6.273.474,9.236,4.829,7.844,7.416-.884,1.642-2.877,2.384-5.08,2.384A10.807,10.807,0,0,1,510.668,486.47ZM385.5,486.335c-2.37-.5-4.268-1.861-4.477-3.955s1.939-5.22,7.381-5.611c6-.023,8.523,3.88,6.088,6.92a8.775,8.775,0,0,1-6.844,2.865A10.372,10.372,0,0,1,385.5,486.335Zm63.065-1.271c-2.571-.546-4.814-1.977-5.315-4.1-.5-2.1,1.21-5.139,6.562-5.319,6.4.229,8.827,4.494,7.025,7.157-1.169,1.723-3.5,2.511-5.916,2.511A11.384,11.384,0,0,1,448.566,485.064Zm-315.642-5.673c-.919-.2-.75-1.269.516-2.828a22.416,22.416,0,0,1,8.763-6.18c.529-.141,1.41-.37,1.827-.01,1.7,1.479-6.511,8.566-10.456,9.03a2.678,2.678,0,0,1-.316.02A1.6,1.6,0,0,1,132.925,479.391Zm597.461-1.363c-1.747-.372-5.611-2.741-8.635-5.506a11.848,11.848,0,0,1-2.362-2.662c-.77-1.4.734-.943,1.228-.794,4.344,1.648,10.827,7.16,10.7,8.653-.021.247-.2.36-.514.36A2.043,2.043,0,0,1,730.385,478.029ZM175.2,468.1c-1.163-.247-1.335-1.28-.32-2.777a17.186,17.186,0,0,1,8.8-5.844c.616-.123,1.9-.37,2.528.2,1.927,1.771-4.82,7.666-9.627,8.41a5,5,0,0,1-.777.066A2.9,2.9,0,0,1,175.2,468.1Zm517.441-1.231a20.881,20.881,0,0,1-8.5-5.05,10.646,10.646,0,0,1-1.421-1.637c-.4-.6-1.476-2.491,1.484-1.853,4.447,1.271,10.062,5.882,10.226,7.818.049.567-.323.82-.972.82A4,4,0,0,1,692.636,466.87Zm-573.587-5.745a24.028,24.028,0,0,1,3-2.349c2.551-1.807,6.586-4.453,8.651-5.581.371-.193.371-.193.516-.171-.781.889-10.727,7.724-12.127,8.155Zm104.48-2.816c-1.4-.3-1.957-1.282-1.2-2.758.889-1.735,4.177-4.594,8.689-5.509a5.566,5.566,0,0,1,2.819.133c2.9,1.227-.753,5.778-6.1,7.611a10.2,10.2,0,0,1-3.219.616A4.763,4.763,0,0,1,223.529,458.309Zm426.126-.75a17.061,17.061,0,0,1-8.013-4.59,8.463,8.463,0,0,1-.695-.841c-.9-1.251-1.5-3.235,1.947-2.723,4.646,1.01,9.653,5.072,9.674,7.171.006.79-.624,1.138-1.608,1.138A6.386,6.386,0,0,1,649.655,457.559ZM276.81,450.394c-1.6-.341-2.517-1.318-2.034-2.816.546-1.7,3.452-4.417,8.186-5.141a7.8,7.8,0,0,1,2.7.121c3.236.874,2.221,4.265-1.942,6.476a12.126,12.126,0,0,1-5.517,1.494A6.718,6.718,0,0,1,276.81,450.394Zm325.526-.193a13.582,13.582,0,0,1-7.275-4.183c-1.31-1.632-1.81-4.073,2.423-3.667,5.1.822,9.112,4.535,9.024,6.521-.045,1.065-1.013,1.535-2.4,1.535A8.67,8.67,0,0,1,602.336,450.2ZM144,449.623a.2.2,0,0,1-.061-.024c-.048-.31.726-1.054,2.3-2.224A52.461,52.461,0,0,1,155,442.126c.583-.211.753-.242.878-.153.078,1.014-10.254,7.657-11.8,7.657A.379.379,0,0,1,144,449.623Zm556.218-5.656c-4.083-2.578-4.112-2.785-4.127-2.883a4.3,4.3,0,0,1,.541.224c3.162,1.568,11.408,6.6,12.091,7.472l-.063.041A80.94,80.94,0,0,1,700.217,443.967Zm-148.608.894c-2.494-.53-5.161-1.915-6.4-3.83-1.037-1.6-.987-4.04,3.553-3.812,5.357.613,8.837,4.2,8.268,6.207-.327,1.159-1.639,1.674-3.3,1.674A10.289,10.289,0,0,1,551.609,444.861Zm-219.772-.075h0c-1.794-.382-3.028-1.375-2.839-2.911.207-1.677,2.653-4.265,7.44-4.787a10.525,10.525,0,0,1,1.805.025c3.8.455,4.738,3.311,1.861,5.661a10.572,10.572,0,0,1-6.486,2.188A8.612,8.612,0,0,1,331.837,444.786Zm166.511-3.173c-2.355-.5-4.623-1.742-5.479-3.551-.931-1.963.374-4.035,4.63-3.994,5.011.358,8.209,3.356,7.514,5.6-.468,1.509-2.28,2.194-4.385,2.194A11.055,11.055,0,0,1,498.348,441.614Zm-110.719-.126c-1.993-.424-3.548-1.472-3.677-3.06-.134-1.667,1.826-4.156,6.608-4.484,5.273-.039,7.424,3.062,5.246,5.492a8.3,8.3,0,0,1-6.084,2.264A10.142,10.142,0,0,1,387.629,441.488Zm55.768-1.011c-2.183-.464-4.083-1.6-4.564-3.3-.47-1.666.979-4.079,5.672-4.216,5.094.164,7.76,3.061,6.576,5.349-.854,1.644-3.087,2.407-5.423,2.407A10.949,10.949,0,0,1,443.4,440.477ZM174.582,439l-.017,0c-.626-.133-.093-.962,1.4-2.171a32.894,32.894,0,0,1,8.717-4.91c.46-.123,1.157-.315,1.327-.052.734,1.141-8.821,7.153-11.232,7.153A1.079,1.079,0,0,1,174.582,439Zm507.161-1.194c-1.445-.307-5.437-2.417-8.507-4.4-1.283-.825-3.423-2.276-3.353-2.732.141-.087.32-.059.931.135,3.913,1.438,11.595,6.144,11.415,6.994a.368.368,0,0,1-.185.038A1.471,1.471,0,0,1,681.743,437.808Zm-470.928-8.356a1.934,1.934,0,0,1-.393-.039c-.832-.176-.633-.958.568-2.083a22.73,22.73,0,0,1,8.542-4.577c.51-.1,1.574-.317,1.894.1,1.094,1.442-7.194,6.6-10.585,6.6ZM649.7,428.358a29.176,29.176,0,0,1-8.252-3.99,9.485,9.485,0,0,1-2.5-2.156c-.462-.808.787-.529,1.264-.424,4.042,1.127,10.252,4.941,10.628,6.233.085.29-.1.421-.479.421A3.3,3.3,0,0,1,649.7,428.358ZM251.405,421.1c-1.037-.22-1.2-.968-.311-2.03a16.18,16.18,0,0,1,8.232-4.243,4.13,4.13,0,0,1,2.438.156c1.947,1.315-4.3,5.614-8.91,6.142a6.359,6.359,0,0,1-.719.044A3.553,3.553,0,0,1,251.405,421.1Zm361.719-.655a22.2,22.2,0,0,1-7.6-3.563,8.193,8.193,0,0,1-1.57-1.451c-.429-.58-.8-1.5,1.541-1.139,4.208.885,9.578,4.236,9.771,5.671.059.437-.308.631-.949.631A5.93,5.93,0,0,1,613.124,420.445Zm-412.829-4.917c3.054-1.443,6.9-3.118,8.716-3.847a1.475,1.475,0,0,1,.5-.156c-.089.052-11.448,5.532-12.3,5.573C197.584,416.822,199.3,416,200.295,415.528Zm96.271-1.156c-1.22-.26-1.739-.99-1.138-2.045.716-1.26,3.532-3.3,7.555-3.893a5.478,5.478,0,0,1,2.8.265c2.162,1.115-.884,4.18-5.348,5.372a10.89,10.89,0,0,1-2.76.406A5.384,5.384,0,0,1,296.566,414.373Zm276.272-.2a16.307,16.307,0,0,1-6.684-3.17,6.031,6.031,0,0,1-.861-.893c-.264-.355-1.4-2.1,2.035-1.754,4.245.662,8.814,3.576,8.832,5.132,0,.62-.623.894-1.59.894A8.539,8.539,0,0,1,572.838,414.177Zm-43.169-4.549a11.394,11.394,0,0,1-5.659-2.835c-1.091-1.173-1.412-2.957,2.363-2.748,4.255.466,8.028,2.992,7.851,4.612-.093.844-1.076,1.217-2.425,1.217A10.441,10.441,0,0,1,529.669,409.629Zm-186.455-.041c-1.378-.293-2.239-1.006-1.952-2.08.325-1.23,2.611-3.148,6.663-3.572a8.155,8.155,0,0,1,2.354.143c2.607.635,2.522,2.659-.173,4.241a10.888,10.888,0,0,1-5.324,1.419A7.608,7.608,0,0,1,343.214,409.588Zm-121.625-1.05c.069-.094.274-.376,2.338-1.4a72.43,72.43,0,0,1,8.476-3.5,3.016,3.016,0,0,1,.76-.165l.045.064c-.621.732-10.052,5.065-11.559,5.08Zm397.617-4.111c-4.073-1.689-4.126-1.764-4.166-1.822.175.046.344.1.513.163,3.437,1.2,10.591,4.072,11.986,4.856l.022.068C626.51,407.442,620.9,405.126,619.206,404.427ZM484.369,406.8h0c-1.925-.41-3.784-1.288-4.6-2.517-.752-1.143-.464-2.942,3.524-2.885,4.244.285,7.217,2.485,6.852,4.117-.239,1.064-1.67,1.545-3.417,1.545A11.5,11.5,0,0,1,484.369,406.8Zm-93.915-.051c-1.54-.328-2.694-1.057-2.745-2.158-.054-1.216,1.678-3.038,5.708-3.3,4.288-.049,5.985,2,4.531,3.728-1.1,1.3-3.375,1.927-5.5,1.927A9.668,9.668,0,0,1,390.454,406.751Zm47.291-.9c-1.738-.369-3.228-1.165-3.644-2.318-.438-1.216.713-2.971,4.65-3.072,4.3.121,6.655,2.234,5.743,3.9-.645,1.179-2.5,1.725-4.482,1.725A11.016,11.016,0,0,1,437.746,405.854Zm-187.408-4.9a.455.455,0,0,1-.068-.021c-.355-.134.208-.634,1.5-1.342a39.873,39.873,0,0,1,8.1-3.175c.4-.083,1.063-.227,1.2-.081.632.7-8.489,4.636-10.527,4.637A.986.986,0,0,1,250.338,400.953Zm351.447-.879a59.319,59.319,0,0,1-7.848-2.837,18.585,18.585,0,0,1-3.326-1.649l.049-.066a2.7,2.7,0,0,1,.766.131c3.222.852,10.679,3.718,11,4.469a.36.36,0,0,1-.141.021A2.647,2.647,0,0,1,601.785,400.073ZM283.07,394.3l-.01,0c-.631-.139-.409-.612.591-1.269a24.383,24.383,0,0,1,7.584-2.865c.519-.08,1.6-.243,1.777.1.524,1.043-6.772,4.081-9.467,4.082A2.324,2.324,0,0,1,283.07,394.3Zm289.314-.577a38.948,38.948,0,0,1-7-2.432,8.077,8.077,0,0,1-2.433-1.418c-.216-.348.651-.206,1.119-.129,3.7.742,9.342,3.073,9.791,3.874.1.179-.038.26-.358.26A5.921,5.921,0,0,1,572.384,393.721ZM319.748,388.97a3.685,3.685,0,0,1-.644-.068c-.789-.169-.887-.624-.214-1.238a14.7,14.7,0,0,1,6.755-2.538c.477-.049,1.934-.2,2.3.271.858,1.106-4.737,3.574-8.015,3.575Zm220.127-.3a24.866,24.866,0,0,1-5.788-2.05,5.247,5.247,0,0,1-1.517-1.019c-.431-.5.046-.683,1.417-.533,3.7.543,8.328,2.541,8.555,3.431.073.287-.245.415-.815.415A9.515,9.515,0,0,1,539.875,388.669Zm-34.745-3.684a14.489,14.489,0,0,1-4.542-1.721,4.037,4.037,0,0,1-.684-.535c-.282-.291-.986-1.237,1.806-1.064,3.42.351,7,1.931,7.269,2.9.138.5-.467.716-1.437.716A12.135,12.135,0,0,1,505.13,384.986Zm-148.789.083c-.918-.2-1.377-.627-1.022-1.234.439-.745,2.513-1.939,5.743-2.256a5.317,5.317,0,0,1,2.72.37c1.065.72-.509,2.092-3.234,2.822a11.607,11.607,0,0,1-2.944.415A6.168,6.168,0,0,1,356.342,385.069Zm112.548-2.3a7.778,7.778,0,0,1-3.466-1.5c-.053-.047-.125-.121-.176-.177-.471-.553-.552-1.579,2.508-1.513,3.383.2,6.071,1.543,6.045,2.521-.018.654-1.037.949-2.381.949A12.5,12.5,0,0,1,468.889,382.769Zm-74.907.04c-1.037-.221-1.759-.654-1.74-1.289.022-.679,1.311-1.826,4.675-2.021.251-.005.578-.007.824,0,2.551.113,3.794,1.165,2.614,2.208a7.535,7.535,0,0,1-4.591,1.269A8.724,8.724,0,0,1,393.982,382.809Zm37.691-.764a3.8,3.8,0,0,1-2.554-1.368c-.458-.849.627-1.777,3.531-1.83,3.268.066,5.186,1.2,4.861,2.178-.283.849-1.854,1.251-3.573,1.251A11.09,11.09,0,0,1,431.673,382.045Zm-113.612-3.436c.018-.041.058-.119,1.449-.465,1.659-.413,4.465-.989,6.825-1.4.746-.127.746-.127.882-.107a87.356,87.356,0,0,1-9.085,1.974A.556.556,0,0,1,318.062,378.608Zm203.77-1.714c-.6-.114-1.2-.222-1.8-.332l2.485.446,4.688.879a15.282,15.282,0,0,1,1.837.39C526.611,377.947,524.234,377.35,521.832,376.894Zm-177.67-2.22a.213.213,0,0,1-.108-.047c.04-.054.1-.137.763-.331a44.3,44.3,0,0,1,5.836-1.113,4.318,4.318,0,0,1,1.291-.065c-.124.435-5.841,1.579-7.474,1.579A1.58,1.58,0,0,1,344.162,374.674Zm155.193-1.131c-.791-.154-1.293-.256-1.614-.323-.543-.116-.566-.137-.592-.159.26.01.514.05.774.084a65.258,65.258,0,0,1,8.309,1.48.309.309,0,0,1-.163.024C505.307,374.649,502.1,374.077,499.355,373.542Zm-23.791-2.349-.266-.057a4.616,4.616,0,0,1-1.317-.38l.009-.043a4.648,4.648,0,0,1,1.113.024c2.661.234,6.242.806,6.71,1.167l-.013.061a1.667,1.667,0,0,1-.485.049A37.928,37.928,0,0,1,475.565,371.193Zm-104.585.7c-.033-.007-.063-.014-.089-.022-.141-.043-.319-.144.089-.334a18.418,18.418,0,0,1,4.714-.863c1.154-.085,1.769-.059,1.828.071.192.434-3.92,1.2-5.855,1.2A3.522,3.522,0,0,1,370.979,371.9Zm79.984-1.964c-.334-.071-.645-.148-.916-.232a1.381,1.381,0,0,1-.565-.256c-.184-.243,1.178-.2,1.624-.185,2.8.133,5.071.59,5.157.888.049.169-.423.243-1.148.243A22.582,22.582,0,0,1,450.963,369.934Zm-52.979.255c-.35-.075-.544-.178-.49-.309.106-.263,1.359-.576,3.54-.679a6.5,6.5,0,0,1,2.494.192c.325.159-.016.336-.248.427a11.205,11.205,0,0,1-3.6.5A8.891,8.891,0,0,1,397.984,370.189Zm26.834-.618a2.6,2.6,0,0,1-.845-.294l-.066-.056c-.073-.078-.3-.461,2.383-.475,2.353.02,3.689.318,3.757.594.077.32-1.08.475-2.418.475A14.777,14.777,0,0,1,424.819,369.571Z" transform="translate(118.649 -368.745)"/>
</svg>
