<svg xmlns="http://www.w3.org/2000/svg" width="18" height="18" viewBox="0 0 18 18"><defs><style>.a{fill:#fbfbfb;stroke:#c7c7c7;}.b{fill:#c7c7c7;}.c{stroke:none;}.d{fill:none;}</style></defs><g transform="translate(-346 -152)"><g class="a" transform="translate(346 152)"><circle class="c" cx="9" cy="9" r="9"/><circle class="d" cx="9" cy="9" r="8.5"/></g><path class="b" d="M5.89,6.759,3.5,4.369,1.11,6.758A.614.614,0,0,1,.24,5.89L2.63,3.5.24,1.11A.615.615,0,0,1,1.11.24L3.5,2.63,5.89.24a.614.614,0,0,1,.868.869L4.368,3.5l2.39,2.39a.614.614,0,0,1-.868.869Z" transform="translate(351.501 157.94)"/></g></svg>