<svg xmlns="http://www.w3.org/2000/svg" xmlns:xlink="http://www.w3.org/1999/xlink" width="22.243" height="22.707" viewBox="0 0 22.243 22.707"><defs><style>.a{opacity:0.22;}.a,.b{fill:url(#a);}.b{opacity:0.55;}.c{fill:url(#c);}</style><linearGradient id="a" x1="0.099" y1="0.094" x2="0.901" y2="0.752" gradientUnits="objectBoundingBox"><stop offset="0" stop-color="#ffbc39"/><stop offset="1" stop-color="#fd9800"/></linearGradient><linearGradient id="c" x1="0.5" x2="0.5" y2="1" gradientUnits="objectBoundingBox"><stop offset="0" stop-color="#d255d9"/><stop offset="1" stop-color="#882cf3"/></linearGradient></defs><g transform="translate(-134.753 -13827.821)"><ellipse class="a" cx="9.352" cy="9.351" rx="9.352" ry="9.351" transform="translate(138.293 13831.826)"/><ellipse class="b" cx="9.05" cy="9.351" rx="9.05" ry="9.351" transform="translate(136.483 13831.826)"/><path class="c" d="M682.684,236.694a60.462,60.462,0,0,1,13.807-12.117c.181.415.362.826.542,1.238A58.847,58.847,0,0,0,684.217,243.8c-3.1-3.133-6.16-6.315-9.216-9.5.76-.64,1.555-1.241,2.3-1.9,1.817,1.4,3.584,2.868,5.384,4.291Zm0,0" transform="translate(-540.248 13603.244)"/></g></svg>