<svg xmlns="http://www.w3.org/2000/svg" xmlns:xlink="http://www.w3.org/1999/xlink" width="426.411" height="93.065" viewBox="0 0 426.411 93.065">
  <defs>
    <filter id="路径_20362" x="291.147" y="56.374" width="21.636" height="30.598" filterUnits="userSpaceOnUse">
      <feOffset dy="3" input="SourceAlpha"/>
      <feGaussianBlur stdDeviation="3" result="blur"/>
      <feFlood flood-color="#f0e" flood-opacity="0.702"/>
      <feComposite operator="in" in2="blur"/>
      <feComposite in="SourceGraphic"/>
    </filter>
    <filter id="路径_20363" x="286.666" y="60.855" width="30.598" height="21.635" filterUnits="userSpaceOnUse">
      <feOffset dy="3" input="SourceAlpha"/>
      <feGaussianBlur stdDeviation="3" result="blur-2"/>
      <feFlood flood-color="#f0e" flood-opacity="0.702"/>
      <feComposite operator="in" in2="blur-2"/>
      <feComposite in="SourceGraphic"/>
    </filter>
    <filter id="路径_20362-2" x="4.481" y="21.521" width="21.636" height="30.598" filterUnits="userSpaceOnUse">
      <feOffset dy="3" input="SourceAlpha"/>
      <feGaussianBlur stdDeviation="3" result="blur-3"/>
      <feFlood flood-color="#f0e" flood-opacity="0.702"/>
      <feComposite operator="in" in2="blur-3"/>
      <feComposite in="SourceGraphic"/>
    </filter>
    <filter id="路径_20363-2" x="0" y="26.002" width="30.598" height="21.635" filterUnits="userSpaceOnUse">
      <feOffset dy="3" input="SourceAlpha"/>
      <feGaussianBlur stdDeviation="3" result="blur-4"/>
      <feFlood flood-color="#f0e" flood-opacity="0.702"/>
      <feComposite operator="in" in2="blur-4"/>
      <feComposite in="SourceGraphic"/>
    </filter>
    <filter id="椭圆_998" x="245.411" y="22.065" width="23" height="23" filterUnits="userSpaceOnUse">
      <feOffset dy="3" input="SourceAlpha"/>
      <feGaussianBlur stdDeviation="3" result="blur-5"/>
      <feFlood flood-color="#f0e" flood-opacity="0.702"/>
      <feComposite operator="in" in2="blur-5"/>
      <feComposite in="SourceGraphic"/>
    </filter>
    <linearGradient id="linear-gradient" x1="0.5" y1="1.08" x2="0.5" y2="-0.079" gradientUnits="objectBoundingBox">
      <stop offset="0" stop-color="#c831ff"/>
      <stop offset="1" stop-color="#fa6bc1"/>
    </linearGradient>
    <filter id="椭圆_102" x="154.477" y="0" width="53.711" height="53.711" filterUnits="userSpaceOnUse">
      <feOffset dy="4" input="SourceAlpha"/>
      <feGaussianBlur stdDeviation="4" result="blur-6"/>
      <feFlood flood-color="#870b5a" flood-opacity="0.302"/>
      <feComposite operator="in" in2="blur-6"/>
      <feComposite in="SourceGraphic"/>
    </filter>
    <filter id="ic_favorite_24px" x="173.345" y="15.972" width="15.491" height="16.096" filterUnits="userSpaceOnUse">
      <feOffset dy="1" input="SourceAlpha"/>
      <feGaussianBlur result="blur-7"/>
      <feFlood flood-color="#fdf4e0" flood-opacity="0.259"/>
      <feComposite operator="in" in2="blur-7"/>
      <feComposite in="SourceGraphic"/>
    </filter>
    <filter id="椭圆_102-2" x="313.692" y="7.821" width="64.959" height="64.959" filterUnits="userSpaceOnUse">
      <feOffset dy="4" input="SourceAlpha"/>
      <feGaussianBlur stdDeviation="4" result="blur-8"/>
      <feFlood flood-color="#870b5a" flood-opacity="0.471"/>
      <feComposite operator="in" in2="blur-8"/>
      <feComposite in="SourceGraphic"/>
    </filter>
    <linearGradient id="linear-gradient-3" x1="0.5" x2="0.972" y2="1.009" gradientUnits="objectBoundingBox">
      <stop offset="0" stop-color="#fbe6b6"/>
      <stop offset="1" stop-color="#f9f9ef"/>
    </linearGradient>
    <filter id="联合_64" x="333.295" y="26.186" width="23.32" height="23.469" filterUnits="userSpaceOnUse">
      <feOffset dy="1" input="SourceAlpha"/>
      <feGaussianBlur result="blur-9"/>
      <feFlood flood-color="#fdf4e0" flood-opacity="0.259"/>
      <feComposite operator="in" in2="blur-9"/>
      <feComposite in="SourceGraphic"/>
    </filter>
    <linearGradient id="linear-gradient-4" x1="1" y1="0.617" x2="-0.099" y2="0.5" gradientUnits="objectBoundingBox">
      <stop offset="0" stop-color="#f091ff"/>
      <stop offset="1" stop-color="#f766fb"/>
    </linearGradient>
    <filter id="椭圆_102-3" x="379.411" y="28.065" width="47" height="48" filterUnits="userSpaceOnUse">
      <feOffset dy="4" input="SourceAlpha"/>
      <feGaussianBlur stdDeviation="4" result="blur-10"/>
      <feFlood flood-color="#870b5a" flood-opacity="0.4"/>
      <feComposite operator="in" in2="blur-10"/>
      <feComposite in="SourceGraphic"/>
    </filter>
    <linearGradient id="linear-gradient-5" x1="0.5" x2="0.972" y2="1.009" gradientUnits="objectBoundingBox">
      <stop offset="0" stop-color="#fff"/>
      <stop offset="1" stop-color="#f9f9ef" stop-opacity="0.161"/>
    </linearGradient>
    <filter id="路径_20056" x="400.411" y="42.029" width="8.796" height="11.954" filterUnits="userSpaceOnUse">
      <feOffset dy="1" input="SourceAlpha"/>
      <feGaussianBlur result="blur-11"/>
      <feFlood flood-color="#fdf4e0" flood-opacity="0.259"/>
      <feComposite operator="in" in2="blur-11"/>
      <feComposite in="SourceGraphic"/>
    </filter>
    <filter id="路径_20057" x="396.45" y="46.023" width="5.499" height="8.903" filterUnits="userSpaceOnUse">
      <feOffset dy="1" input="SourceAlpha"/>
      <feGaussianBlur result="blur-12"/>
      <feFlood flood-color="#fdf4e0" flood-opacity="0.259"/>
      <feComposite operator="in" in2="blur-12"/>
      <feComposite in="SourceGraphic"/>
    </filter>
    <filter id="路径_20425" x="43.065" y="12.8" width="54.271" height="54.271" filterUnits="userSpaceOnUse">
      <feOffset dy="4" input="SourceAlpha"/>
      <feGaussianBlur stdDeviation="4" result="blur-13"/>
      <feFlood flood-color="#870b5a" flood-opacity="0.302"/>
      <feComposite operator="in" in2="blur-13"/>
      <feComposite in="SourceGraphic"/>
    </filter>
    <filter id="联合_64-2" x="58.059" y="25.741" width="21.951" height="19.719" filterUnits="userSpaceOnUse">
      <feOffset dy="1" input="SourceAlpha"/>
      <feGaussianBlur result="blur-14"/>
      <feFlood flood-color="#fdf4e0" flood-opacity="0.259"/>
      <feComposite operator="in" in2="blur-14"/>
      <feComposite in="SourceGraphic"/>
    </filter>
    <filter id="椭圆_102-4" x="3.411" y="38.065" width="55" height="55" filterUnits="userSpaceOnUse">
      <feOffset dy="4" input="SourceAlpha"/>
      <feGaussianBlur stdDeviation="4" result="blur-15"/>
      <feFlood flood-color="#870b5a" flood-opacity="0.302"/>
      <feComposite operator="in" in2="blur-15"/>
      <feComposite in="SourceGraphic"/>
    </filter>
  </defs>
  <g id="组_1846" data-name="组 1846" transform="translate(-23.28 -18.173)">
    <g id="组_1809" data-name="组 1809" transform="translate(349.009 64.583)">
      <g id="组_1808" data-name="组 1808" opacity="0.82">
        <g id="组_1805" data-name="组 1805">
          <path id="路径_20347" data-name="路径 20347" d="M344.557,107.075a1.944,1.944,0,1,1-1.944-1.943A1.944,1.944,0,0,1,344.557,107.075Z" transform="translate(-340.669 -105.132)" fill="#c68aff"/>
          <path id="路径_20348" data-name="路径 20348" d="M372.007,107.075a1.944,1.944,0,1,1-1.943-1.943A1.944,1.944,0,0,1,372.007,107.075Z" transform="translate(-347.321 -105.132)" fill="#c68aff"/>
          <path id="路径_20349" data-name="路径 20349" d="M399.458,107.075a1.944,1.944,0,1,1-1.944-1.943A1.944,1.944,0,0,1,399.458,107.075Z" transform="translate(-353.973 -105.132)" fill="#c68aff"/>
          <path id="路径_20350" data-name="路径 20350" d="M426.908,107.075a1.943,1.943,0,1,1-1.943-1.943A1.944,1.944,0,0,1,426.908,107.075Z" transform="translate(-360.625 -105.132)" fill="#c68aff"/>
          <path id="路径_20351" data-name="路径 20351" d="M454.359,107.075a1.944,1.944,0,1,1-1.944-1.943A1.944,1.944,0,0,1,454.359,107.075Z" transform="translate(-367.277 -105.132)" fill="#c68aff"/>
        </g>
        <g id="组_1806" data-name="组 1806" transform="translate(0 11.855)">
          <path id="路径_20352" data-name="路径 20352" d="M344.557,122.723a1.944,1.944,0,1,1-1.944-1.944A1.944,1.944,0,0,1,344.557,122.723Z" transform="translate(-340.669 -120.779)" fill="#c68aff"/>
          <path id="路径_20353" data-name="路径 20353" d="M372.007,122.723a1.944,1.944,0,1,1-1.943-1.944A1.944,1.944,0,0,1,372.007,122.723Z" transform="translate(-347.321 -120.779)" fill="#c68aff"/>
          <path id="路径_20354" data-name="路径 20354" d="M399.458,122.723a1.944,1.944,0,1,1-1.944-1.944A1.944,1.944,0,0,1,399.458,122.723Z" transform="translate(-353.973 -120.779)" fill="#c68aff"/>
          <path id="路径_20355" data-name="路径 20355" d="M426.908,122.723a1.943,1.943,0,1,1-1.943-1.944A1.944,1.944,0,0,1,426.908,122.723Z" transform="translate(-360.625 -120.779)" fill="#c68aff"/>
          <path id="路径_20356" data-name="路径 20356" d="M454.359,122.723a1.944,1.944,0,1,1-1.944-1.944A1.944,1.944,0,0,1,454.359,122.723Z" transform="translate(-367.277 -120.779)" fill="#c68aff"/>
        </g>
        <g id="组_1807" data-name="组 1807" transform="translate(0 23.71)">
          <path id="路径_20357" data-name="路径 20357" d="M344.557,138.369a1.944,1.944,0,1,1-1.944-1.943A1.944,1.944,0,0,1,344.557,138.369Z" transform="translate(-340.669 -136.426)" fill="#c68aff"/>
          <path id="路径_20358" data-name="路径 20358" d="M372.007,138.369a1.944,1.944,0,1,1-1.943-1.943A1.944,1.944,0,0,1,372.007,138.369Z" transform="translate(-347.321 -136.426)" fill="#c68aff"/>
          <path id="路径_20359" data-name="路径 20359" d="M399.458,138.369a1.944,1.944,0,1,1-1.944-1.943A1.944,1.944,0,0,1,399.458,138.369Z" transform="translate(-353.973 -136.426)" fill="#c68aff"/>
          <path id="路径_20360" data-name="路径 20360" d="M426.908,138.369a1.943,1.943,0,1,1-1.943-1.943A1.944,1.944,0,0,1,426.908,138.369Z" transform="translate(-360.625 -136.426)" fill="#c68aff"/>
          <path id="路径_20361" data-name="路径 20361" d="M454.359,138.369a1.944,1.944,0,1,1-1.944-1.943A1.944,1.944,0,0,1,454.359,138.369Z" transform="translate(-367.277 -136.426)" fill="#c68aff"/>
        </g>
      </g>
    </g>
    <g id="组_1828" data-name="组 1828" transform="translate(29.668 62.244)" opacity="0.69">
      <g id="组_1808-2" data-name="组 1808">
        <g id="组_1805-2" data-name="组 1805">
          <path id="路径_20347-2" data-name="路径 20347" d="M344.2,106.9a1.765,1.765,0,1,1-1.765-1.764A1.765,1.765,0,0,1,344.2,106.9Z" transform="translate(-340.669 -105.132)" fill="#d698ff"/>
          <path id="路径_20348-2" data-name="路径 20348" d="M371.648,106.9a1.765,1.765,0,1,1-1.764-1.764A1.765,1.765,0,0,1,371.648,106.9Z" transform="translate(-349.237 -105.132)" fill="#d698ff"/>
          <path id="路径_20349-2" data-name="路径 20349" d="M399.1,106.9a1.765,1.765,0,1,1-1.765-1.764A1.765,1.765,0,0,1,399.1,106.9Z" transform="translate(-357.805 -105.132)" fill="#d698ff"/>
          <path id="路径_20350-2" data-name="路径 20350" d="M426.55,106.9a1.764,1.764,0,1,1-1.764-1.764A1.765,1.765,0,0,1,426.55,106.9Z" transform="translate(-366.373 -105.132)" fill="#d698ff"/>
          <path id="路径_20351-2" data-name="路径 20351" d="M454,106.9a1.765,1.765,0,1,1-1.765-1.764A1.765,1.765,0,0,1,454,106.9Z" transform="translate(-374.94 -105.132)" fill="#d698ff"/>
        </g>
        <g id="组_1806-2" data-name="组 1806" transform="translate(0 10.763)">
          <path id="路径_20352-2" data-name="路径 20352" d="M344.2,122.544a1.765,1.765,0,1,1-1.765-1.765A1.765,1.765,0,0,1,344.2,122.544Z" transform="translate(-340.669 -120.779)" fill="#d698ff"/>
          <path id="路径_20353-2" data-name="路径 20353" d="M371.648,122.544a1.765,1.765,0,1,1-1.764-1.765A1.764,1.764,0,0,1,371.648,122.544Z" transform="translate(-349.237 -120.779)" fill="#d698ff"/>
          <path id="路径_20354-2" data-name="路径 20354" d="M399.1,122.544a1.765,1.765,0,1,1-1.765-1.765A1.765,1.765,0,0,1,399.1,122.544Z" transform="translate(-357.805 -120.779)" fill="#d698ff"/>
          <path id="路径_20355-2" data-name="路径 20355" d="M426.55,122.544a1.764,1.764,0,1,1-1.764-1.765A1.764,1.764,0,0,1,426.55,122.544Z" transform="translate(-366.373 -120.779)" fill="#d698ff"/>
          <path id="路径_20356-2" data-name="路径 20356" d="M454,122.544a1.765,1.765,0,1,1-1.765-1.765A1.765,1.765,0,0,1,454,122.544Z" transform="translate(-374.94 -120.779)" fill="#d698ff"/>
        </g>
        <g id="组_1807-2" data-name="组 1807" transform="translate(0 21.527)">
          <path id="路径_20357-2" data-name="路径 20357" d="M344.2,138.19a1.765,1.765,0,1,1-1.765-1.764A1.765,1.765,0,0,1,344.2,138.19Z" transform="translate(-340.669 -136.426)" fill="#d698ff"/>
          <path id="路径_20358-2" data-name="路径 20358" d="M371.648,138.19a1.765,1.765,0,1,1-1.764-1.764A1.765,1.765,0,0,1,371.648,138.19Z" transform="translate(-349.237 -136.426)" fill="#d698ff"/>
          <path id="路径_20359-2" data-name="路径 20359" d="M399.1,138.19a1.765,1.765,0,1,1-1.765-1.764A1.765,1.765,0,0,1,399.1,138.19Z" transform="translate(-357.805 -136.426)" fill="#d698ff"/>
          <path id="路径_20360-2" data-name="路径 20360" d="M426.55,138.19a1.764,1.764,0,1,1-1.764-1.764A1.765,1.765,0,0,1,426.55,138.19Z" transform="translate(-366.373 -136.426)" fill="#d698ff"/>
          <path id="路径_20361-2" data-name="路径 20361" d="M454,138.19a1.765,1.765,0,1,1-1.765-1.764A1.765,1.765,0,0,1,454,138.19Z" transform="translate(-374.94 -136.426)" fill="#d698ff"/>
        </g>
      </g>
    </g>
    <g id="组_1812" data-name="组 1812" transform="translate(32.78 20.238)">
      <g id="组_1821" data-name="组 1821" transform="translate(286.666 60.809)">
        <g transform="matrix(1, 0, 0, 1, -296.17, -62.87)" filter="url(#路径_20362)">
          <path id="路径_20362-3" data-name="路径 20362" d="M274.113,107.6h0a1.322,1.322,0,0,0,1.318-1.318V97.317A1.322,1.322,0,0,0,274.113,96h0a1.322,1.322,0,0,0-1.318,1.318v8.963A1.322,1.322,0,0,0,274.113,107.6Z" transform="translate(27.85 -33.13)" fill="#fcd875" stroke="rgba(0,0,0,0)" stroke-width="1"/>
        </g>
        <g transform="matrix(1, 0, 0, 1, -296.17, -62.87)" filter="url(#路径_20363)">
          <path id="路径_20363-3" data-name="路径 20363" d="M267,103.114h0a1.321,1.321,0,0,0,1.318,1.318h8.962a1.321,1.321,0,0,0,1.318-1.318h0a1.322,1.322,0,0,0-1.318-1.318h-8.962A1.322,1.322,0,0,0,267,103.114Z" transform="translate(29.17 -34.44)" fill="#fcd875" stroke="rgba(0,0,0,0)" stroke-width="1"/>
        </g>
      </g>
      <g id="组_1829" data-name="组 1829" transform="translate(0 25.956)">
        <g transform="matrix(1, 0, 0, 1, -9.5, -28.02)" filter="url(#路径_20362-2)">
          <path id="路径_20362-4" data-name="路径 20362" d="M274.113,107.6h0a1.322,1.322,0,0,0,1.318-1.318V97.317A1.322,1.322,0,0,0,274.113,96h0a1.322,1.322,0,0,0-1.318,1.318v8.963A1.322,1.322,0,0,0,274.113,107.6Z" transform="translate(-258.81 -67.98)" fill="#fcd875" stroke="rgba(0,0,0,0)" stroke-width="1"/>
        </g>
        <g transform="matrix(1, 0, 0, 1, -9.5, -28.02)" filter="url(#路径_20363-2)">
          <path id="路径_20363-4" data-name="路径 20363" d="M267,103.114h0a1.321,1.321,0,0,0,1.318,1.318h8.962a1.321,1.321,0,0,0,1.318-1.318h0a1.322,1.322,0,0,0-1.318-1.318h-8.962A1.322,1.322,0,0,0,267,103.114Z" transform="translate(-257.5 -69.29)" fill="#fcd875" stroke="rgba(0,0,0,0)" stroke-width="1"/>
        </g>
      </g>
      <g id="组_1811" data-name="组 1811" transform="translate(355.472 48.19)">
        <path id="路径_20364" data-name="路径 20364" d="M299.793,119.581h0a1.548,1.548,0,0,0,1.543-1.543V107.543A1.549,1.549,0,0,0,299.793,106h0a1.548,1.548,0,0,0-1.543,1.543v10.494A1.547,1.547,0,0,0,299.793,119.581Z" transform="translate(-293.003 -106)" fill="#fff"/>
        <path id="路径_20365" data-name="路径 20365" d="M294,111.793h0a1.547,1.547,0,0,0,1.543,1.543h10.494a1.548,1.548,0,0,0,1.543-1.543h0a1.549,1.549,0,0,0-1.543-1.543H295.543A1.548,1.548,0,0,0,294,111.793Z" transform="translate(-294 -105.003)" fill="#fff"/>
      </g>
      <g transform="matrix(1, 0, 0, 1, -9.5, -2.06)" filter="url(#椭圆_998)">
        <circle id="椭圆_998-2" data-name="椭圆 998" cx="2.5" cy="2.5" r="2.5" transform="translate(254.41 28.06)" fill="#fcd875"/>
      </g>
      <g id="椭圆_999" data-name="椭圆 999" transform="translate(79.911 65)" fill="none" stroke="#fcf875" stroke-width="2">
        <circle cx="4.5" cy="4.5" r="4.5" stroke="none"/>
        <circle cx="4.5" cy="4.5" r="3.5" fill="none"/>
      </g>
    </g>
    <g id="组_1817" data-name="组 1817" transform="matrix(0.839, 0.545, -0.545, 0.839, 201.454, 26.173)">
      <g transform="matrix(0.84, -0.54, 0.54, 0.84, -153.79, 90.33)" filter="url(#椭圆_102)">
        <circle id="椭圆_102-5" data-name="椭圆 102" cx="10.739" cy="10.739" r="10.739" transform="matrix(0.84, 0.54, -0.54, 0.84, 178.17, 8)" fill="url(#linear-gradient)"/>
      </g>
      <g transform="matrix(0.84, -0.54, 0.54, 0.84, -153.79, 90.33)" filter="url(#ic_favorite_24px)">
        <path id="ic_favorite_24px-2" data-name="ic_favorite_24px" d="M5.864,10.383a1.529,1.529,0,0,1-.85-.4C1.994,7.248,0,5.442,0,3.225A3.194,3.194,0,0,1,3.225,0,3.512,3.512,0,0,1,5.864,1.226,3.512,3.512,0,0,1,8.5,0a3.194,3.194,0,0,1,3.225,3.225c0,2.217-1.994,4.023-5.014,6.767A1.517,1.517,0,0,1,5.864,10.383Z" transform="matrix(0.84, 0.54, -0.54, 0.84, 179, 15.97)" fill="#fff" opacity="0.47"/>
      </g>
    </g>
    <g id="组_1818" data-name="组 1818" transform="matrix(0.809, -0.588, 0.588, 0.809, 348.971, 51.23)">
      <g transform="matrix(0.81, 0.59, -0.59, 0.81, -244.06, -218.18)" filter="url(#椭圆_102-2)">
        <circle id="椭圆_102-6" data-name="椭圆 102" cx="14.662" cy="14.662" r="14.662" transform="matrix(0.81, -0.59, 0.59, 0.81, 325.69, 33.06)" fill="url(#linear-gradient)"/>
      </g>
      <g transform="matrix(0.81, 0.59, -0.59, 0.81, -244.06, -218.18)" filter="url(#联合_64)">
        <path id="联合_64-3" data-name="联合 64" d="M6.973,14.185c-.492,0-.888-.24-.888-.533V11.247c0-1.624,2.185-2.94,4.881-2.94h2.661c2.7,0,4.882,1.316,4.882,2.94v2.405c0,.293-.4.533-.889.533ZM2.162,7.97V6.62H.809A.811.811,0,0,1,.809,5H2.162V3.648a.811.811,0,0,1,1.623,0V5H5.133a.811.811,0,0,1,0,1.622H3.785V7.97a.811.811,0,1,1-1.623,0ZM8.9,3.463a3.4,3.4,0,1,1,6.8,0,3.4,3.4,0,1,1-6.8,0Z" transform="translate(333.29 37.33) rotate(-37)" opacity="0.45" fill="url(#linear-gradient-3)"/>
      </g>
    </g>
    <g id="组_1820" data-name="组 1820" transform="translate(414.381 54.108)">
      <g transform="matrix(1, 0, 0, 1, -391.1, -35.94)" filter="url(#椭圆_102-3)">
        <ellipse id="椭圆_102-7" data-name="椭圆 102" cx="11.5" cy="12" rx="11.5" ry="12" transform="translate(391.41 36.06)" fill="url(#linear-gradient-4)"/>
      </g>
      <g id="组_1677" data-name="组 1677" transform="translate(5.845 6.594)" opacity="0.69">
        <g transform="matrix(1, 0, 0, 1, -396.95, -42.53)" filter="url(#路径_20056)">
          <path id="路径_20056-2" data-name="路径 20056" d="M314.173,68.327a1.049,1.049,0,0,0-.045-1.117,1.071,1.071,0,0,0-1.1-.451c-.574.09-1.148.189-1.724.281-.044.007-.087.03-.131,0a.121.121,0,0,1-.017.013.121.121,0,0,0,.017-.013c.032-.1.067-.208.1-.314a3.211,3.211,0,0,0,.1-1.132,2.645,2.645,0,0,0-.119-.68,1.426,1.426,0,0,0-1.413-.986.743.743,0,0,0-.775.756,4.181,4.181,0,0,1-.029.688,3.246,3.246,0,0,1-.682,1.464,6.753,6.753,0,0,1-.76.791h0c-.252.206-.505.409-.769.6a.183.183,0,0,0-.075.178l.853,5.189a.185.185,0,0,0,.145.151,7,7,0,0,0,.84.119,8.332,8.332,0,0,0,1.938-.1c.931-.141,1.859-.3,2.788-.457a1.336,1.336,0,0,0,.294-.077,1.066,1.066,0,0,0,.491-1.606.1.1,0,0,1,.013-.145,1.039,1.039,0,0,0,.109-1.348.1.1,0,0,1,.014-.145,1.05,1.05,0,0,0-.028-1.511C314.144,68.419,314.142,68.384,314.173,68.327Z" transform="translate(94.17 -21.4)" stroke="rgba(0,0,0,0)" stroke-width="1" fill="url(#linear-gradient-5)"/>
        </g>
        <g transform="matrix(1, 0, 0, 1, -396.95, -42.53)" filter="url(#路径_20057)">
          <path id="路径_20057-2" data-name="路径 20057" d="M300.99,73.787l0-.013-.012-.068a.459.459,0,0,0-.113-.278c-.009-.009-.02-.014-.029-.022a.3.3,0,0,0-.03-.023l-.034-.018-.031-.013a.287.287,0,0,0-.051-.015h-.006a.419.419,0,0,0-.144,0l-1.411.232-1.411.232a.424.424,0,0,0-.136.048l-.005,0a.35.35,0,0,0-.043.031.314.314,0,0,0-.025.022.321.321,0,0,0-.025.028.26.26,0,0,0-.021.031.318.318,0,0,0-.02.03.462.462,0,0,0-.019.3l.011.069,0,.013,0,.011q.349,2.125.7,4.25c.069.418.136.836.206,1.254a.36.36,0,0,0,.459.331l.711-.117c.117-.016.233-.04.35-.057l.322-.053.322-.053c.116-.02.234-.035.349-.058l.712-.116a.36.36,0,0,0,.328-.461c-.067-.418-.137-.836-.206-1.254l-.7-4.25Z" transform="translate(99.54 -26.81)" stroke="rgba(0,0,0,0)" stroke-width="1" fill="url(#linear-gradient-5)"/>
        </g>
      </g>
    </g>
    <g id="组_1816" data-name="组 1816" transform="translate(78.345 38.973)">
      <g transform="matrix(1, 0, 0, 1, -55.07, -20.8)" filter="url(#路径_20425)">
        <path id="路径_20425-2" data-name="路径 20425" d="M15.135,0A15.135,15.135,0,1,1,0,15.135,15.135,15.135,0,0,1,15.135,0Z" transform="translate(55.07 20.8)" fill="url(#linear-gradient-4)"/>
      </g>
      <g transform="matrix(1, 0, 0, 1, -55.07, -20.8)" filter="url(#联合_64-2)">
        <path id="联合_64-4" data-name="联合 64" d="M7.156,14.556c-.5,0-.911-.246-.911-.547V11.541c0-1.666,2.242-3.017,5.009-3.017h2.73c2.766,0,5.01,1.351,5.01,3.017v2.468c0,.3-.409.547-.912.547ZM2.219,8.178V6.793H.83a.832.832,0,0,1,0-1.664H2.219V3.743a.833.833,0,0,1,1.665,0V5.129H5.267a.832.832,0,0,1,0,1.664H3.884V8.178a.833.833,0,1,1-1.665,0ZM9.131,3.553a3.488,3.488,0,1,1,6.974,0,3.488,3.488,0,1,1-6.974,0Z" transform="translate(61.58 25.74) rotate(14)" opacity="0.52" fill="url(#linear-gradient-3)"/>
      </g>
    </g>
    <g id="组_1819" data-name="组 1819" transform="translate(38.534 63.772)">
      <g transform="matrix(1, 0, 0, 1, -15.25, -45.6)" filter="url(#椭圆_102-4)">
        <circle id="椭圆_102-8" data-name="椭圆 102" cx="15.5" cy="15.5" r="15.5" transform="translate(15.41 46.07)" fill="url(#linear-gradient)"/>
      </g>
      <path id="路径_22658" data-name="路径 22658" d="M-5.22-3.62a1.676,1.676,0,0,1,.965.6A1.785,1.785,0,0,1-3.92-1.91,1.766,1.766,0,0,1-4.59-.46,2.8,2.8,0,0,1-6.4.08a3.927,3.927,0,0,1-1.25-.2A3.009,3.009,0,0,1-8.67-.68a.606.606,0,0,1-.23-.47.578.578,0,0,1,.125-.375.37.37,0,0,1,.3-.155.445.445,0,0,1,.18.035q.08.035.22.115a4.315,4.315,0,0,0,.8.43,2.241,2.241,0,0,0,.83.15,1.516,1.516,0,0,0,.98-.265.985.985,0,0,0,.32-.8.924.924,0,0,0-.335-.785A1.708,1.708,0,0,0-6.52-3.06h-.57a.43.43,0,0,1-.355-.155A.55.55,0,0,1-7.57-3.57a.544.544,0,0,1,.125-.36.436.436,0,0,1,.355-.15h.4q1.37,0,1.37-1.03a.942.942,0,0,0-.29-.74,1.155,1.155,0,0,0-.8-.26,2.765,2.765,0,0,0-1.56.58q-.14.08-.22.115a.445.445,0,0,1-.18.035.37.37,0,0,1-.3-.155A.578.578,0,0,1-8.79-5.91a.544.544,0,0,1,.055-.255A.814.814,0,0,1-8.56-6.38a3.211,3.211,0,0,1,1.005-.555,3.589,3.589,0,0,1,1.2-.2A2.512,2.512,0,0,1-4.7-6.63,1.677,1.677,0,0,1-4.09-5.27a1.823,1.823,0,0,1-.3,1.015A1.685,1.685,0,0,1-5.22-3.62ZM.07-4.51a2.33,2.33,0,0,1,1.165.285,2,2,0,0,1,.785.8A2.391,2.391,0,0,1,2.3-2.26a2.342,2.342,0,0,1-.315,1.22,2.153,2.153,0,0,1-.89.825A2.863,2.863,0,0,1-.23.08,3.705,3.705,0,0,1-1.445-.125,3.191,3.191,0,0,1-2.46-.68a.606.606,0,0,1-.23-.47.578.578,0,0,1,.125-.375.37.37,0,0,1,.3-.155.52.52,0,0,1,.19.035,1.135,1.135,0,0,1,.21.115,3.812,3.812,0,0,0,.78.43,2.186,2.186,0,0,0,.81.15A1.418,1.418,0,0,0,.73-1.28a1.23,1.23,0,0,0,.35-.94,1.244,1.244,0,0,0-.355-.935A1.34,1.34,0,0,0-.25-3.5a2.041,2.041,0,0,0-.7.11,2.179,2.179,0,0,0-.625.37.683.683,0,0,1-.39.13.5.5,0,0,1-.34-.12.4.4,0,0,1-.14-.32V-6.45a.6.6,0,0,1,.16-.44.608.608,0,0,1,.45-.16H1.5q.6,0,.6.5t-.6.5H-1.18v1.9A2.113,2.113,0,0,1,.07-4.51ZM8.93-.97a.58.58,0,0,1,.2.43.556.556,0,0,1-.175.405A.567.567,0,0,1,8.54.04a.64.64,0,0,1-.46-.21L4.75-3.29v2.7a.646.646,0,0,1-.175.47A.632.632,0,0,1,4.1.06a.619.619,0,0,1-.465-.18A.646.646,0,0,1,3.46-.59V-6.46a.629.629,0,0,1,.175-.465A.629.629,0,0,1,4.1-7.1a.642.642,0,0,1,.475.175.629.629,0,0,1,.175.465v2.57L7.97-6.91a.565.565,0,0,1,.41-.18.556.556,0,0,1,.4.175.556.556,0,0,1,.175.4.57.57,0,0,1-.2.42L6.07-3.63Z" transform="matrix(0.914, -0.407, 0.407, 0.914, 14.993, 18.999)" fill="#fff" opacity="0.38"/>
    </g>
  </g>
</svg>
