<svg xmlns="http://www.w3.org/2000/svg" xmlns:xlink="http://www.w3.org/1999/xlink" width="199" height="199" viewBox="0 0 199 199"><defs><style>.a{fill:url(#a);}</style><linearGradient id="a" x1="1" y1="0.868" x2="0.014" y2="0.9" gradientUnits="objectBoundingBox"><stop offset="0" stop-color="#ff5c87"/><stop offset="1" stop-color="#4761ff"/></linearGradient></defs><path class="a" d="M-11716.5,1821a98.874,98.874,0,0,1-38.727-7.819,99.187,99.187,0,0,1-31.631-21.324,99.212,99.212,0,0,1-21.322-31.627,98.848,98.848,0,0,1-7.82-38.73,98.837,98.837,0,0,1,7.82-38.727,99.215,99.215,0,0,1,21.322-31.628,99.192,99.192,0,0,1,31.631-21.325,98.857,98.857,0,0,1,38.727-7.82,98.869,98.869,0,0,1,38.73,7.82,99.174,99.174,0,0,1,31.627,21.325,99.2,99.2,0,0,1,21.324,31.628A98.886,98.886,0,0,1-11617,1721.5a98.9,98.9,0,0,1-7.818,38.73,99.2,99.2,0,0,1-21.324,31.627,99.173,99.173,0,0,1-31.627,21.324A98.886,98.886,0,0,1-11716.5,1821Zm0-162.593a63.164,63.164,0,0,0-63.092,63.093,63.167,63.167,0,0,0,63.092,63.1,63.171,63.171,0,0,0,63.1-63.1A63.168,63.168,0,0,0-11716.5,1658.406Z" transform="translate(11816.002 -1621.999)"/></svg>