<svg xmlns="http://www.w3.org/2000/svg" width="34" height="34.002" viewBox="0 0 34 34.002"><defs><style>.a{fill:#18c981;}</style></defs><g transform="translate(-170.999 -4563.999)"><path class="a" d="M-12725,1656a16.89,16.89,0,0,1-12.021-4.979A16.893,16.893,0,0,1-12742,1639a16.9,16.9,0,0,1,4.979-12.022A16.888,16.888,0,0,1-12725,1622a16.888,16.888,0,0,1,12.021,4.981A16.9,16.9,0,0,1-12708,1639a16.893,16.893,0,0,1-4.979,12.021A16.89,16.89,0,0,1-12725,1656Zm0-30a13.015,13.015,0,0,0-13,13,13.014,13.014,0,0,0,13,13,13.016,13.016,0,0,0,13-13A13.017,13.017,0,0,0-12725,1626Z" transform="translate(12913 2942)"/><path class="a" d="M14.863,2.614,7.207,10.27a1.531,1.531,0,0,1-2.165,0L.449,5.676A1.531,1.531,0,0,1,2.614,3.511L6.125,7.022,12.7.449a1.531,1.531,0,0,1,2.165,2.165Zm0,0" transform="matrix(1, 0.017, -0.017, 1, 180.672, 4575.508)"/></g></svg>