<svg xmlns="http://www.w3.org/2000/svg" xmlns:xlink="http://www.w3.org/1999/xlink" width="34" height="34" viewBox="0 0 34 34"><defs><style>.a{fill:url(#a);}.b{fill:#fff;}</style><linearGradient id="a" x1="0.5" x2="0.5" y2="1" gradientUnits="objectBoundingBox"><stop offset="0" stop-color="#ff8484"/><stop offset="1" stop-color="#d9d8ff"/></linearGradient></defs><g transform="translate(-171 -3763)"><circle class="a" cx="17" cy="17" r="17" transform="translate(171 3763)"/><path class="b" d="M-11760.053,2326.463l-4.969-4.95a1.032,1.032,0,0,1-.3-.718,1.03,1.03,0,0,1,.3-.719,1.007,1.007,0,0,1,1.432,0l4.266,4.206,4.266-4.31a1.017,1.017,0,0,1,1.439,0,1.016,1.016,0,0,1,0,1.437l-5.039,5.02a1.018,1.018,0,0,1-.719.3A.992.992,0,0,1-11760.053,2326.463Z" transform="translate(11947.322 1456.801)"/></g></svg>