<svg xmlns="http://www.w3.org/2000/svg" width="49.001" height="45.001" viewBox="0 0 49.001 45.001"><defs><style>.a{fill:#fb0;}.b{fill:#fff;}</style></defs><g transform="translate(-367 -383.998)"><path class="a" d="M37.333,38.182H4a4,4,0,0,1-4-4V4A4,4,0,0,1,4,0H45a4,4,0,0,1,4,4V45Z" transform="translate(367 383.999)"/><path class="b" d="M7.421-7.462h3.321a3.558,3.558,0,0,1-.615-1.927c0-2.214,5.658-3.444,5.658-8.036,0-3.485-2.5-5.576-7.011-5.576a12.331,12.331,0,0,0-6.4,1.681L3.239-18.2a10.4,10.4,0,0,1,5.207-1.435c2.419,0,3.772.984,3.772,2.542,0,2.583-5.576,3.895-5.576,7.257A3.918,3.918,0,0,0,7.421-7.462ZM6.6-2.132A2.39,2.39,0,0,0,9.061.41,2.388,2.388,0,0,0,11.6-2.132a2.422,2.422,0,0,0-2.542-2.5A2.4,2.4,0,0,0,6.6-2.132Z" transform="translate(381 414.999)"/></g></svg>