<svg xmlns="http://www.w3.org/2000/svg" width="39.709" height="39.709" viewBox="0 0 39.709 39.709"><defs><style>.a{fill:#ffd05a;}.b{fill:#252c37;}</style></defs><g transform="translate(-653.855 -9185.146)"><circle class="a" cx="19.311" cy="19.311" r="19.311" transform="translate(653.855 9186.249) rotate(-1.638)"/><g transform="translate(669.09 9185.479) rotate(19)"><path class="b" d="M171.969-32.576a8.786,8.786,0,0,1-2.829,5.4,4.529,4.529,0,0,1-3.822,1.2,4.578,4.578,0,0,1-3.185-2.285,8.126,8.126,0,0,1-1.173-4.633,9.687,9.687,0,0,1,1.835-5.621,6.56,6.56,0,0,1,1.811-1.712,4.359,4.359,0,0,1,6.178,1.386,8.056,8.056,0,0,1,1.3,4.178A9.276,9.276,0,0,1,171.969-32.576Z" transform="translate(-156.726 57.902)"/><path class="b" d="M174.217-40.368a4.45,4.45,0,0,1-1.088,2.4,2.034,2.034,0,0,1-3.073.058,4.243,4.243,0,0,1-1.172-2.584,5.106,5.106,0,0,1,.769-3.624,2.143,2.143,0,0,1,2.572-.994,2.716,2.716,0,0,1,1.424,1.332A5.424,5.424,0,0,1,174.217-40.368Z" transform="translate(-151.172 54.886)"/><path class="b" d="M158.548-42.982a5.116,5.116,0,0,1,1.993-3.354,2.094,2.094,0,0,1,3.39,1,5.033,5.033,0,0,1-.394,4.156,4.2,4.2,0,0,1-1.562,1.751,2.085,2.085,0,0,1-3.2-1.02A4.659,4.659,0,0,1,158.548-42.982Z" transform="translate(-158.475 53.758)"/><path class="b" d="M162.612-50.873a5.258,5.258,0,0,1,2.8,1.354.892.892,0,0,1,.09,1.313.886.886,0,0,1-1.311-.048,3.2,3.2,0,0,0-1.666-.837,2.383,2.383,0,0,0-1.987.778.987.987,0,0,1-.691.29.835.835,0,0,1-.769-.489.781.781,0,0,1,.111-.931A4.147,4.147,0,0,1,162.612-50.873Z" transform="translate(-158.122 50.897)"/><path class="b" d="M172.162-49.326a4.253,4.253,0,0,1,2.942,2.394.845.845,0,0,1-.391,1.127.856.856,0,0,1-1.168-.339,3.654,3.654,0,0,0-.9-1.079,2.221,2.221,0,0,0-1.739-.373.88.88,0,0,1-1.056-1.071.8.8,0,0,1,.655-.629A4.693,4.693,0,0,1,172.162-49.326Z" transform="translate(-150.471 51.964)"/></g></g></svg>