<svg xmlns="http://www.w3.org/2000/svg" xmlns:xlink="http://www.w3.org/1999/xlink" width="333.374" height="302.853" viewBox="0 0 333.374 302.853"><defs><style>.a{opacity:0.2;}.a,.d,.e{fill:url(#a);}.b{fill:#8785e1;}.c{fill:url(#d);}.d{opacity:0.3;}.e{opacity:0.54;}.f{filter:url(#i);}.g{filter:url(#f);}.h{filter:url(#b);}</style><linearGradient id="a" y1="0.5" x2="1" y2="0.5" gradientUnits="objectBoundingBox"><stop offset="0" stop-color="#fe5c88"/><stop offset="1" stop-color="#4761ff"/></linearGradient><filter id="b" x="0" y="46.649" width="317.471" height="256.203" filterUnits="userSpaceOnUse"><feOffset dy="12" input="SourceAlpha"/><feGaussianBlur stdDeviation="12" result="c"/><feFlood flood-color="#ab2077" flood-opacity="0.239"/><feComposite operator="in" in2="c"/><feComposite in="SourceGraphic"/></filter><linearGradient id="d" x1="0.5" x2="0.5" y2="1" gradientUnits="objectBoundingBox"><stop offset="0" stop-color="#f5f6ff"/><stop offset="1" stop-color="#dec5ff"/></linearGradient><filter id="f" x="218.577" y="60.315" width="114.797" height="107.292" filterUnits="userSpaceOnUse"><feOffset dy="12" input="SourceAlpha"/><feGaussianBlur stdDeviation="12" result="g"/><feFlood flood-color="#ab2077" flood-opacity="0.239"/><feComposite operator="in" in2="g"/><feComposite in="SourceGraphic"/></filter><filter id="i" x="247.799" y="54.669" width="84.931" height="83.113" filterUnits="userSpaceOnUse"><feOffset dy="12" input="SourceAlpha"/><feGaussianBlur stdDeviation="12" result="j"/><feFlood flood-color="#ab2077" flood-opacity="0.239"/><feComposite operator="in" in2="j"/><feComposite in="SourceGraphic"/></filter></defs><g transform="translate(-442.128 -9210.946)"><g class="h" transform="matrix(1, 0, 0, 1, 442.13, 9210.95)"><path class="a" d="M1520.786,9279.834c0,26.33-2.743,37.3,13.165,41.14s66.922-18.1,86.669-21.393,49.917,10.971,41.14,51.014-59.791,84.476-104.222,86.121-105.868-17.553-127.809-65.824-12.616-85.572,20.844-106.966S1520.786,9253.5,1520.786,9279.834Z" transform="translate(-1381.85 -9181.96)"/></g><path class="b" d="M0,226.479,45.089,6.077A7.6,7.6,0,0,1,52.536,0H164.629a7.6,7.6,0,0,1,7.447,9.125l-48.8,238.526a87.6,87.6,0,0,1-28.009,6.105c-1.738.064-3.509.1-5.3.1C61.14,253.854,26.412,245.418,0,226.479Z" transform="translate(521.544 9210.946)"/><path class="b" d="M.178,226.606,45.088,7.078A7.6,7.6,0,0,1,52.536,1H164.629a7.6,7.6,0,0,1,7.447,9.125L123.5,247.565a87.754,87.754,0,0,1-28.232,6.191c-1.738.064-3.508.1-5.295.1C61.2,253.854,26.568,245.456.178,226.606Z" transform="translate(526.544 9209.946)"/><path class="c" d="M0,226.479,45.089,6.077A7.6,7.6,0,0,1,52.536,0H164.629a7.6,7.6,0,0,1,7.447,9.125l-48.8,238.526a87.6,87.6,0,0,1-28.009,6.105c-1.738.064-3.509.1-5.3.1C61.14,253.854,26.412,245.418,0,226.479Z" transform="translate(522.544 9211.946)"/><g class="g" transform="matrix(1, 0, 0, 1, 442.13, 9210.95)"><path class="d" d="M1659.063,9281.2c-4.062-7.475,3.7-19.825,11.985-14.463s7.879,15.061,13.552,10.944,13.676-1.343,8.963,5.481-16.535,9.236-21.127,8.082S1663.126,9288.677,1659.063,9281.2Z" transform="translate(-3893.05 -8354.98) rotate(-16)"/></g><g class="f" transform="matrix(1, 0, 0, 1, 442.13, 9210.95)"><path class="e" d="M1688.747,9268.882c2.289,3.755.1-3.789,5.379-3.344s6.991-1.218,6.3-3.864-6.881-3.8-9.646-1.951A6.476,6.476,0,0,0,1688.747,9268.882Z" transform="translate(-1403.84 -9180.15)"/></g></g></svg>