<svg xmlns="http://www.w3.org/2000/svg" xmlns:xlink="http://www.w3.org/1999/xlink" width="187.505" height="216.041" viewBox="0 0 187.505 216.041"><defs><style>.a{fill:#fff;}.b{opacity:0.45;}.c{fill:#f1f4f6;}.d{fill:#f0f3f6;}.e{fill:#e0e4ea;}.f{fill:#d8dde5;}.g{fill:#d2def9;}.h{fill:none;stroke:#011e3b;stroke-linecap:round;stroke-linejoin:round;}.i,.m{fill:#e8ecef;}.j{fill:#d0d4db;}.k{opacity:0.65;}.l{fill:#dcdfe4;}.m,.n{stroke:rgba(0,0,0,0);}.m{stroke-miterlimit:10;}.n{fill:url(#c);}.o{filter:url(#a);}</style><filter id="a" x="0" y="0" width="187.505" height="216.041" filterUnits="userSpaceOnUse"><feOffset dy="6" input="SourceAlpha"/><feGaussianBlur stdDeviation="4.5" result="b"/><feFlood flood-color="#7057f4" flood-opacity="0.259"/><feComposite operator="in" in2="b"/><feComposite in="SourceGraphic"/></filter><linearGradient id="c" x1="0.103" y1="0.913" x2="0.921" y2="0.076" gradientUnits="objectBoundingBox"><stop offset="0" stop-color="#feb25c"/><stop offset="0.545" stop-color="#eb5bac"/><stop offset="1" stop-color="#4761ff"/></linearGradient></defs><g transform="translate(-500.111 -9226.459)"><g class="o" transform="matrix(1, 0, 0, 1, 500.11, 9226.46)"><path class="a" d="M1511.129,646.041h-105.62a7.556,7.556,0,0,1-7.366-9.241l39.765-173.928a7.557,7.557,0,0,1,7.366-5.872h105.62a7.556,7.556,0,0,1,7.366,9.241L1518.5,640.169A7.557,7.557,0,0,1,1511.129,646.041Z" transform="translate(-1384.45 -449.5)"/></g><g transform="translate(-878.101 8815.938)"><g class="b" transform="translate(1450.567 444.917)"><path class="c" d="M1515.826,452.9h-26.293a.454.454,0,0,1-.466-.582l.447-1.9a.8.8,0,0,1,.741-.582h26.293a.454.454,0,0,1,.466.582l-.448,1.9A.8.8,0,0,1,1515.826,452.9Z" transform="translate(-1489.052 -449.84)"/></g><g class="b" transform="translate(1449.526 449.201)"><path class="d" d="M1502.369,460.654h-14.836a.344.344,0,0,1-.353-.441l.514-2.178a.6.6,0,0,1,.561-.44h14.837a.343.343,0,0,1,.352.44l-.514,2.178A.6.6,0,0,1,1502.369,460.654Z" transform="translate(-1487.168 -457.595)"/></g><g transform="translate(1411.833 457.677)"><path class="c" d="M1518.082,568.586h-99.161l22.577-95.644h99.16Z" transform="translate(-1418.922 -472.942)"/></g><ellipse class="e" cx="5.453" cy="4.315" rx="5.453" ry="4.315" transform="translate(1436.11 448.34) rotate(-37.268)"/><ellipse class="a" cx="4.024" cy="3.184" rx="4.024" ry="3.184" transform="matrix(0.796, -0.606, 0.606, 0.796, 1437.933, 448.375)"/><path class="e" d="M1473.641,454.312a2.06,2.06,0,0,0,.943-1.238,1.206,1.206,0,0,0-1.239-1.547,2.114,2.114,0,0,0-1.969,1.547,1.214,1.214,0,0,0,.358,1.238,4.034,4.034,0,0,0-2.387,2,2.832,2.832,0,0,0,2.548,1.35,4.727,4.727,0,0,0,3.186-1.35A2.123,2.123,0,0,0,1473.641,454.312Z" transform="translate(-29.663 -5.679)"/><g transform="translate(1507.068 444.697)"><path class="c" d="M1611.779,457.008h-17.3a2.952,2.952,0,0,1-3.029-3.783,5.179,5.179,0,0,1,4.815-3.783h17.3a2.952,2.952,0,0,1,3.029,3.783A5.178,5.178,0,0,1,1611.779,457.008Zm-15.6-7.205a4.685,4.685,0,0,0-4.357,3.422,2.671,2.671,0,0,0,2.741,3.423h17.3a4.685,4.685,0,0,0,4.356-3.423,2.67,2.67,0,0,0-2.74-3.422Z" transform="translate(-1591.349 -449.442)"/></g><g transform="translate(1510.24 448.618)"><path class="f" d="M1615.859,456.9h-18.767l.085-.36h18.767Z" transform="translate(-1597.092 -456.54)"/></g><g transform="translate(1452.374 450.304)"><path class="f" d="M1503.509,459.954h-11.187l.085-.36h11.187Z" transform="translate(-1492.322 -459.594)"/></g><g transform="translate(1469.596 446.462)"><path class="f" d="M1528.394,453h-4.89l.085-.36h4.89Z" transform="translate(-1523.503 -452.636)"/></g><g transform="translate(1453.281 446.462)"><path class="f" d="M1508.1,453h-14.137l.085-.36h14.137Z" transform="translate(-1493.964 -452.636)"/></g><g class="b" transform="translate(1474.528 446.642)"><path class="g" d="M1532.434,452.962" transform="translate(-1532.434 -452.962)"/></g><g transform="translate(1469.638 446.642)"><path class="h" d="M1523.58,452.962" transform="translate(-1523.58 -452.962)"/></g><g class="b" transform="translate(1410.157 564.164)"><path class="i" d="M1438.843,669.195h-22.525a.406.406,0,0,1-.417-.521l.57-2.413a.71.71,0,0,1,.662-.52h22.525a.406.406,0,0,1,.417.52l-.569,2.413A.712.712,0,0,1,1438.843,669.195Z" transform="translate(-1415.887 -665.741)"/></g><g class="b" transform="translate(1436.38 564.164)"><path class="i" d="M1510.756,669.195H1463.8a.406.406,0,0,1-.416-.521l.569-2.413a.712.712,0,0,1,.662-.52h46.959a.405.405,0,0,1,.417.52l-.57,2.413A.71.71,0,0,1,1510.756,669.195Z" transform="translate(-1463.366 -665.741)"/></g><g transform="translate(1412.579 565.851)"><path class="j" d="M1426.46,669.155h-6.187l.085-.36h6.187Z" transform="translate(-1420.273 -668.795)"/></g><g transform="translate(1420.635 565.851)"><path class="j" d="M1445,669.155h-10.145l.085-.36h10.145Z" transform="translate(-1434.859 -668.795)"/></g><g class="k" transform="translate(1439.56 565.851)"><path class="j" d="M1506.186,669.155h-37.064l.085-.36h37.064Z" transform="translate(-1469.122 -668.795)"/></g><g class="b" transform="translate(1408.931 569.356)"><path class="i" d="M1461.058,678.595H1414.1a.405.405,0,0,1-.417-.52l.569-2.413a.712.712,0,0,1,.663-.521h46.959a.406.406,0,0,1,.417.521l-.569,2.413A.711.711,0,0,1,1461.058,678.595Z" transform="translate(-1413.668 -675.141)"/></g><g class="k" transform="translate(1411.353 571.044)"><path class="j" d="M1455.874,678.557h-37.821l.085-.36h37.821Z" transform="translate(-1418.054 -678.197)"/></g><g transform="translate(1412.507 556.835)"><path class="i" d="M1422.17,656.912a.419.419,0,0,1-.338-.15l-1.451-1.812a1.237,1.237,0,0,1-.125-1.26,2.036,2.036,0,0,1,1.508-1.2,1.225,1.225,0,0,1,1.321.542,1.873,1.873,0,0,1,1.577-.542,1.1,1.1,0,0,1,.942,1.2,1.809,1.809,0,0,1-.719,1.26l-2.307,1.812a.669.669,0,0,1-.408.15Zm-.226-4.08a1.262,1.262,0,0,0-.2.016,1.526,1.526,0,0,0-1.13.9.931.931,0,0,0,.093.95l1.451,1.812a.125.125,0,0,0,.1.044h0a.2.2,0,0,0,.119-.044l2.307-1.812a1.364,1.364,0,0,0,.541-.951h0a.826.826,0,0,0-.707-.9,1.446,1.446,0,0,0-1.362.608.247.247,0,0,1-.193.1h0a.14.14,0,0,1-.144-.1A.849.849,0,0,0,1421.944,652.833Z" transform="translate(-1420.143 -652.472)"/></g><g transform="translate(1430.701 556.961)"><path class="i" d="M1456.758,656.889a.166.166,0,0,1-.072-.015l-.947-.452a2.667,2.667,0,0,1-.894.163,1.58,1.58,0,0,1-1.713-1.942,2.769,2.769,0,0,1,2.63-1.942,1.58,1.58,0,0,1,1.713,1.942,2.3,2.3,0,0,1-.619,1.071l.134.933a.214.214,0,0,1-.093.193A.234.234,0,0,1,1456.758,656.889Zm-.928-.843a.164.164,0,0,1,.072.015l.651.31-.09-.627a.207.207,0,0,1,.071-.174,1.891,1.891,0,0,0,.568-.927,1.3,1.3,0,0,0-1.425-1.582,2.278,2.278,0,0,0-2.172,1.582,1.3,1.3,0,0,0,1.425,1.582,2.266,2.266,0,0,0,.82-.164A.215.215,0,0,1,1455.829,656.045Z" transform="translate(-1453.083 -652.7)"/></g><g transform="translate(1438.539 557.113)"><g transform="translate(0 0)"><path class="i" d="M1468.669,656.86a.162.162,0,0,1-.043-.005.135.135,0,0,1-.105-.146l.146-2.131-1.352-1.282a.157.157,0,0,1-.012-.2.248.248,0,0,1,.2-.12h4.852a.141.141,0,0,1,.144.1.2.2,0,0,1-.063.189l-3.6,3.525A.244.244,0,0,1,1468.669,656.86Zm-.716-3.525,1.06,1a.137.137,0,0,1,.042.112l-.123,1.785,2.966-2.9Z" transform="translate(-1467.273 -652.975)"/></g><g transform="translate(1.554 0.015)"><path class="i" d="M1470.158,654.657l-.072-.33L1473.54,653l.072.33Z" transform="translate(-1470.087 -653.002)"/></g></g><path class="l" d="M1591.753,657.053a.166.166,0,0,1-.077-.018l-1.62-.857-2.025.857a.183.183,0,0,1-.178-.009.14.14,0,0,1-.052-.152l1.039-4.4a.245.245,0,0,1,.229-.18h3.808a.14.14,0,0,1,.144.18l-1.04,4.4a.241.241,0,0,1-.124.152A.229.229,0,0,1,1591.753,657.053Zm-1.608-1.255a.157.157,0,0,1,.077.018l1.454.769.929-3.934h-3.435l-.929,3.934,1.818-.769A.21.21,0,0,1,1590.146,655.8Z" transform="translate(-82.69 -95.555)"/><g transform="translate(1535.735 441.493)"><g transform="translate(0.707)"><path class="c" d="M1645.385,444.047a.555.555,0,0,1-.517.406.316.316,0,0,1-.325-.406.555.555,0,0,1,.516-.406A.317.317,0,0,1,1645.385,444.047Z" transform="translate(-1644.532 -443.641)"/></g><g transform="translate(0.354 1.498)"><path class="c" d="M1644.744,446.76a.555.555,0,0,1-.517.406.317.317,0,0,1-.325-.406.555.555,0,0,1,.517-.406A.317.317,0,0,1,1644.744,446.76Z" transform="translate(-1643.892 -446.354)"/></g><g transform="translate(0 2.997)"><path class="c" d="M1644.1,449.473a.555.555,0,0,1-.517.406.316.316,0,0,1-.325-.406.555.555,0,0,1,.517-.405A.317.317,0,0,1,1644.1,449.473Z" transform="translate(-1643.251 -449.068)"/></g></g><path class="m" d="M-80.717-8812.748l.241-.276a1.253,1.253,0,0,0,1,.392.977.977,0,0,0,1.066-.684c.1-.407-.137-.673-.792-.673h-.25l.06-.257,1.254-1.179h-1.8l.073-.311h2.261l-.058.248-1.279,1.206c.743.04,1.031.423.9.965a1.415,1.415,0,0,1-1.513,1A1.5,1.5,0,0,1-80.717-8812.748Zm5.235.407-.763-1.281-.754.553-.17.729h-.358l.85-3.6h.358l-.577,2.438,1.907-1.392h.443l-1.376,1.044.881,1.507Zm-6.317,0,.73-3.084h-.83l.073-.311h1.19l-.8,3.395Z" transform="translate(1501.723 9373.438)"/></g><path class="n" d="M14.168,63.652c-9.922,0-16.045-8.126-13.649-18.117L7.094,18.118C9.49,8.127,19.511,0,29.435,0H56.671c9.922,0,16.046,8.127,13.651,18.118L63.747,45.535c-2.4,9.991-12.418,18.117-22.342,18.117ZM12.514,18.118,5.937,45.535C4.263,52.518,8.542,58.2,15.478,58.2H42.714c6.934,0,13.938-5.679,15.612-12.662L64.9,18.118C66.576,11.135,62.3,5.456,55.363,5.456H28.127C21.191,5.456,14.189,11.135,12.514,18.118Zm6.717,13.708c2.154-8.986,11.171-16.3,20.1-16.3s14.435,7.311,12.28,16.3-11.171,16.3-20.1,16.3S17.075,40.813,19.231,31.826Zm5.418,0c-1.433,5.979,2.232,10.841,8.17,10.841s11.935-4.862,13.37-10.841-2.232-10.842-8.17-10.842S26.085,25.849,24.65,31.826ZM52.544,14.6a5.27,5.27,0,0,1,4.831-3.917A2.979,2.979,0,0,1,60.326,14.6,5.269,5.269,0,0,1,55.5,18.513,2.98,2.98,0,0,1,52.544,14.6Z" transform="translate(557.443 9290.59)"/></g></svg>