<svg xmlns="http://www.w3.org/2000/svg" width="61" height="61" viewBox="0 0 61 61"><defs><style>.a{fill:#6257ff;}.b{fill:#ffe07d;}.c{fill:#b3e59f;}.d{fill:#9dc6fb;}</style></defs><g transform="translate(-400 -10224.359)"><circle class="a" cx="30.5" cy="30.5" r="30.5" transform="translate(400 10224.359)"/><g transform="translate(413.993 10238.958)"><g transform="translate(0 0.001)"><g transform="translate(0)"><path class="b" d="M17.2,15.843c-.005-.006-.007-.013-.013-.019l-5.52-5.52V6.836a.967.967,0,0,0-.283-.684L5.585.285A.967.967,0,0,0,3.934.969v2.9H.968A.967.967,0,0,0,.284,5.521l5.868,5.868a.966.966,0,0,0,.684.283H10.3l5.52,5.52c.006.006.013.007.019.013A.963.963,0,0,0,17.2,15.843Z" transform="translate(0 -0.001)"/></g></g><g transform="translate(0 0.001)"><g transform="translate(0 0)"><path class="c" d="M16.51,0A16.362,16.362,0,0,0,9.588,1.615l2.967,2.967a12.6,12.6,0,1,1-7.972,7.972L1.616,9.587A16.365,16.365,0,0,0,0,16.509,16.507,16.507,0,1,0,16.51,0Z" transform="translate(-0.003 -0.002)"/></g></g><g transform="translate(7.802 7.804)"><path class="d" d="M129.707,121a8.6,8.6,0,0,0-2.9.535V122.7l2.236,2.236a4.76,4.76,0,0,1,.666-.067,4.836,4.836,0,1,1-4.836,4.836,4.758,4.758,0,0,1,.067-.666L122.7,126.8h-1.165a8.6,8.6,0,0,0-.535,2.9,8.7,8.7,0,1,0,8.7-8.7Z" transform="translate(-121.002 -121.001)"/></g></g></g></svg>