<svg xmlns="http://www.w3.org/2000/svg" width="61" height="61" viewBox="0 0 61 61"><defs><style>.a{fill:#6257ff;}.b{fill:#ffe07d;}.c{fill:#ffd064;}.d{fill:#ffead2;}.e{fill:#fedcb4;}.f{fill:#d5dced;}.g{fill:#c7cfe2;}.h{fill:#604548;}.i{fill:#8a7173;}.j{fill:#9dc6fb;}.k{fill:#80b5fc;}</style></defs><g transform="translate(-400 -9835.999)"><circle class="a" cx="30.5" cy="30.5" r="30.5" transform="translate(400 9835.999)"/><g transform="translate(410.653 9782.407)"><ellipse class="b" cx="2.539" cy="2.222" rx="2.539" ry="2.222" transform="translate(31.743 74.372)"/><path class="c" d="M408.254,181.016a2.244,2.244,0,0,1,1.587-2.057,2.841,2.841,0,0,0-.952-.165,2.242,2.242,0,1,0,0,4.444,2.841,2.841,0,0,0,.952-.165A2.244,2.244,0,0,1,408.254,181.016Z" transform="translate(-374.606 -104.423)"/><path class="d" d="M376.089,321.021l-2.055-1.027a1.27,1.27,0,0,1-.7-1.136v-1.9h-3.809v1.9a1.27,1.27,0,0,1-.7,1.136l-2.055,1.027a1.9,1.9,0,0,0-1.053,1.7v3.752a.635.635,0,0,0,.635.635h10.158a.635.635,0,0,0,.635-.635v-3.752A1.9,1.9,0,0,0,376.089,321.021Z" transform="translate(-337.145 -230.919)"/><path class="e" d="M415.975,319.492a5.017,5.017,0,0,0,1.939-.392,1.249,1.249,0,0,1-.034-.243v-1.9H414.07v1.9a1.251,1.251,0,0,1-.034.244A5.043,5.043,0,0,0,415.975,319.492Z" transform="translate(-381.693 -231.293)"/><path class="f" d="M376.089,360.386l-1.464-.732a3.8,3.8,0,0,1-6.395,0l-1.464.732a1.9,1.9,0,0,0-1.053,1.7v3.752a.635.635,0,0,0,.635.635h10.158a.635.635,0,0,0,.635-.635v-3.752A1.9,1.9,0,0,0,376.089,360.386Z" transform="translate(-337.145 -270.285)"/><circle class="c" cx="4.444" cy="4.444" r="4.444" transform="translate(29.839 76.497)"/><path class="b" d="M419.511,207a4.454,4.454,0,0,0-3.416-3.719,4.572,4.572,0,0,0-.959-.109,2.043,2.043,0,0,0-.926,3.859,1.672,1.672,0,0,0,.168.073l2.211,4s.589.04,1.184.059A4.435,4.435,0,0,0,419.511,207Z" transform="translate(-380.826 -126.706)"/><path class="d" d="M394.211,259.514h0a3.81,3.81,0,0,1-3.778-3.316.64.64,0,0,1,.339-.66,5.3,5.3,0,0,0,1.124-.759,3.668,3.668,0,0,0,.869-1.143.628.628,0,0,1,.716-.348,10.937,10.937,0,0,1,4.309,2.208.614.614,0,0,1,.218.51A3.81,3.81,0,0,1,394.211,259.514Z" transform="translate(-359.929 -172.715)"/><path class="e" d="M397.79,255.5a10.936,10.936,0,0,0-4.309-2.208.628.628,0,0,0-.716.348,3.632,3.632,0,0,1-.58.847v0a3.4,3.4,0,0,1-.288.294,5.3,5.3,0,0,1-1.124.759.64.64,0,0,0-.339.66,3.8,3.8,0,0,0,3.2,3.262,2.762,2.762,0,0,1-1.327-2.486v-.905c.144-.106.289-.213.435-.343a5.056,5.056,0,0,0,.908-1.071,9.588,9.588,0,0,1,3.309,1.8c.12.106.419.381.768.708a3.781,3.781,0,0,0,.282-1.158A.614.614,0,0,0,397.79,255.5Z" transform="translate(-359.929 -172.716)"/><path class="g" d="M481.644,376.18a1.9,1.9,0,0,1,.387,1.144v3.752a.635.635,0,0,1-.635.635h-1.9v-3.2a1.27,1.27,0,0,1,.477-.991Z" transform="translate(-442.035 -285.52)"/><path class="h" d="M24.381,213.207v.445a5.081,5.081,0,0,0,.261,1.606l1.009,3.027h1.9V211.3h-1.27A1.9,1.9,0,0,0,24.381,213.207Z" transform="translate(-22.476 -134.191)"/><path class="i" d="M48.058,207.033l-1.074,3.76L41.9,206.349a1.27,1.27,0,0,1-1.27-1.27h0a1.9,1.9,0,0,1,1.9-1.9h4.444a1.27,1.27,0,0,1,1.27,1.27v1.193A5.078,5.078,0,0,1,48.058,207.033Z" transform="translate(-37.461 -126.718)"/><rect class="d" width="3.809" height="3.81" transform="translate(4.444 86.336)"/><path class="e" d="M56.889,326.245a5.037,5.037,0,0,0,3.809,0v-1.166H56.889Z" transform="translate(-52.445 -238.788)"/><path class="f" d="M11.316,345.67,8.253,344.8l-1.9,1.264-1.9-1.264-3.063.875A1.9,1.9,0,0,0,0,347.5v4.642a.635.635,0,0,0,.635.635H12.062a.635.635,0,0,0,.635-.635V347.5A1.9,1.9,0,0,0,11.316,345.67Z" transform="translate(0 -256.586)"/><path class="d" d="M36.317,250.885h0a3.809,3.809,0,0,1-3.809-3.809v-.744a1.269,1.269,0,0,1,.372-.9l1.151-1.151a1.255,1.255,0,0,1,.922-.373c2.029.064,3.826.5,4.808,1.458a1.253,1.253,0,0,1,.366.9v.809A3.809,3.809,0,0,1,36.317,250.885Z" transform="translate(-29.969 -164.102)"/><path class="e" d="M34.413,246.489a1.267,1.267,0,0,1,1.346-1.268,13.4,13.4,0,0,1,4.35.857,1.228,1.228,0,0,0-.348-.711c-.982-.959-2.778-1.394-4.808-1.458h0a1.255,1.255,0,0,0-.922.373l-1.151,1.151a1.27,1.27,0,0,0-.372.9v.744a3.808,3.808,0,0,0,2.754,3.658,3.778,3.778,0,0,1-.849-2.388Z" transform="translate(-29.969 -164.106)"/><path class="g" d="M2.539,368.477a1.9,1.9,0,0,0-.558-1.347L.347,365.5A1.9,1.9,0,0,0,0,366.585v4.642a.635.635,0,0,0,.635.635h1.9Z" transform="translate(0 -275.67)"/><path class="h" d="M148.51,87.235a21.476,21.476,0,0,0,9.1-2.317.633.633,0,0,0,.34-.671c-.2-1.177-.727-4.7-1.191-10.978-.377-5.1-3.7-8.253-8.253-8.253s-7.876,3.149-8.253,8.253c-.463,6.275-.994,9.8-1.191,10.978a.633.633,0,0,0,.34.671A21.477,21.477,0,0,0,148.51,87.235Z" transform="translate(-128.194 0)"/><path class="i" d="M223.1,84.919a.633.633,0,0,0,.34-.671c-.2-1.177-.727-4.7-1.191-10.978-.377-5.1-3.7-8.253-8.253-8.253q-.479,0-.939.046a3.288,3.288,0,0,0-.671,6.405l.084.024,1.269,15.738,0,0A21.322,21.322,0,0,0,223.1,84.919Z" transform="translate(-193.68 -0.001)"/><path class="d" d="M121.9,296.506v-3.424a2.54,2.54,0,0,1,1.513-2.323l5.348-2.362a1.27,1.27,0,0,0,.757-1.161v-2.791h6.349v2.791a1.27,1.27,0,0,0,.757,1.161l5.348,2.362a2.539,2.539,0,0,1,1.513,2.323v3.424a.635.635,0,0,1-.635.635H122.54A.635.635,0,0,1,121.9,296.506Z" transform="translate(-112.382 -200.95)"/><path class="j" d="M141.976,344.723l-3.945-1.742a5.706,5.706,0,0,1-10.669,0l-3.945,1.742a2.539,2.539,0,0,0-1.513,2.323v3.424a.635.635,0,0,0,.635.635h20.315a.635.635,0,0,0,.635-.635v-3.424A2.539,2.539,0,0,0,141.976,344.723Z" transform="translate(-112.381 -254.914)"/><path class="e" d="M219.429,286.284a7.554,7.554,0,0,0,6.349,0v-1.84h-6.349v1.84Z" transform="translate(-202.288 -201.448)"/><path class="d" d="M190.85,150.785a14.1,14.1,0,0,0-7.234-3.048,1.269,1.269,0,0,0-1.333.679,8.677,8.677,0,0,1-2.96,3.3,1.244,1.244,0,0,0-.53,1.031v.36a6.493,6.493,0,0,0,5.926,6.552,6.349,6.349,0,0,0,6.771-6.335v-1.114A1.883,1.883,0,0,0,190.85,150.785Z" transform="translate(-164.826 -75.764)"/><path class="e" d="M191.2,151.223a1.822,1.822,0,0,0-.356-.438,14.1,14.1,0,0,0-7.234-3.048,1.269,1.269,0,0,0-1.333.679,7.362,7.362,0,0,1-.383.676,8.972,8.972,0,0,1-2.567,2.616,1.256,1.256,0,0,0-.54,1.038v.36a6.508,6.508,0,0,0,5.578,6.512,6.322,6.322,0,0,1-1.769-4.39v-3.991a1.267,1.267,0,0,1,1.14-1.264A14.535,14.535,0,0,1,191.2,151.223Z" transform="translate(-164.825 -75.765)"/><g transform="translate(9.523 90.157)"><path class="k" d="M122.855,369.742a2.536,2.536,0,0,0-.95,1.975v3.424a.635.635,0,0,0,.635.635h3.809v-1.751a1.9,1.9,0,0,0-.558-1.347Z" transform="translate(-121.905 -369.742)"/><path class="k" d="M344.827,369.742a2.536,2.536,0,0,1,.95,1.975v3.424a.635.635,0,0,1-.635.635h-3.809v-1.751a1.9,1.9,0,0,1,.558-1.347Z" transform="translate(-324.192 -369.742)"/></g></g></g></svg>