<svg xmlns="http://www.w3.org/2000/svg" width="61" height="61" viewBox="0 0 61 61"><defs><style>.a{fill:#6257ff;}.b{fill:#80b5fc;}.c{fill:#9dc6fb;}.d{fill:#ffd064;}.e{fill:#ffe07d;}.f{fill:#604548;}.g{fill:#d69a8b;}.h{fill:#9af;}.i{fill:#b3d9ff;}.j{fill:#5f55ae;}.k{fill:#6e76e4;}.l{fill:#95d6a4;}.m{fill:#b3e59f;}</style></defs><g transform="translate(-400 -10627.88)"><circle class="a" cx="30.5" cy="30.5" r="30.5" transform="translate(400 10627.88)"/><g transform="translate(411.322 10637.622)"><path class="b" d="M400.451,10.746v.8H396.97v8.322h-2.784L392.91,9.366l1.276-7.321Z" transform="translate(-366.411 0)"/><path class="c" d="M325.2,2.045V19.872h-2.784V11.55H318.94v-.8Z" transform="translate(-297.43)"/><path class="d" d="M248.756,107.939a11.253,11.253,0,0,1-4.915,9.306s-3.995.484-6.35.484l-1.25-10.088,1.25-10.965A11.265,11.265,0,0,1,248.756,107.939Z" transform="translate(-220.308 -88.248)"/><path class="e" d="M99.015,96.675v21.107c-2.333,0-6.3-.5-6.3-.5a11.265,11.265,0,0,1,6.3-20.605Z" transform="translate(-81.832 -88.248)"/><path class="f" d="M236.77,265.094l-1.181-.776-.264-.174h-2.117l-1.56,5.162,1.232,6.068c.109,0,.219.005.329.005a11.212,11.212,0,0,0,6.35-1.96v-3.162A6.174,6.174,0,0,0,236.77,265.094Z" transform="translate(-216.024 -244.423)"/><path class="f" d="M164.858,264.145l-1.445.949a6.175,6.175,0,0,0-2.788,5.163v3.162a11.212,11.212,0,0,0,6.35,1.96V264.145Z" transform="translate(-149.792 -244.423)"/><path class="g" d="M237.307,160.38a4.1,4.1,0,0,1-4.1,4.1l-1.56-4.563,1.56-3.637a4.1,4.1,0,0,1,4.1,4.1Z" transform="translate(-216.024 -143.833)"/><path class="g" d="M198.092,156.28v8.2a4.1,4.1,0,0,1,0-8.2Z" transform="translate(-180.909 -143.833)"/><path class="h" d="M412.13,325.715a6.069,6.069,0,0,1-6.07,6.07l-.631-6.124.631-6.016A6.07,6.07,0,0,1,412.13,325.715Z" transform="translate(-378.087 -296.18)"/><path class="i" d="M330.85,319.645v12.14a6.07,6.07,0,0,1,0-12.14Z" transform="translate(-302.876 -296.18)"/><path class="j" d="M415.064,366.668v2.023h-2.023v2.023h-1.012l-.2-3.035.2-3.035h1.012v2.023Z" transform="translate(-384.055 -338.145)"/><path class="k" d="M372.815,364.645v6.07H371.8v-2.023H369.78v-2.023H371.8v-2.023Z" transform="translate(-344.841 -338.145)"/><path class="l" d="M84.257,295.476v.8H80.776v5.06H77.992l-1.077-6.424,1.077-8.141Z" transform="translate(-71.728 -265.527)"/><path class="m" d="M6.265,286.775V301.34H3.481v-5.06H0v-.8Z" transform="translate(0 -265.527)"/></g></g></svg>