<svg xmlns="http://www.w3.org/2000/svg" width="61" height="61" viewBox="0 0 61 61"><defs><style>.a{fill:#6257ff;}.b{fill:#f4f8f8;}.c{fill:#e7ecf1;}.d{fill:#ffd064;}.e{fill:#9dc6fb;}.f{fill:#80b5fc;}.g{fill:#ffe07d;}.h{fill:#b3e59f;}.i{fill:#91cf78;}.j{fill:#95d6a4;}.k{fill:#66c97d;}.l{fill:#fff;}</style></defs><g transform="translate(-1010 -10627.88)"><circle class="a" cx="30.5" cy="30.5" r="30.5" transform="translate(1010 10627.88)"/><g transform="translate(1020.622 10636.381)"><path class="b" d="M12.368,7.5a2.352,2.352,0,0,0-2.352,2.352v30.3A2.352,2.352,0,0,0,12.368,42.5H34.484a2.352,2.352,0,0,0,2.352-2.352v-25.4a1.782,1.782,0,0,0-.522-1.26L30.843,8.021a1.782,1.782,0,0,0-1.26-.522H12.368Z" transform="translate(-3.13 -1.979)"/><path class="c" d="M329.534,99.921c-.055,0-.11,0-.165-.006v28.5h1.975a2.352,2.352,0,0,0,2.352-2.352v-25.4a1.781,1.781,0,0,0-.161-.738Z" transform="translate(-299.991 -87.885)"/><path class="d" d="M304.3,15.612l-5.471-5.471a1.78,1.78,0,0,0-.522-.361v4a2.352,2.352,0,0,0,2.352,2.352h4a1.781,1.781,0,0,0-.361-.522Z" transform="translate(-271.116 -4.098)"/><path class="e" d="M63.161,63.584H54.278a1.267,1.267,0,0,1-1.267-1.267V53.434a1.267,1.267,0,0,1,1.267-1.267h8.883a1.267,1.267,0,0,1,1.267,1.267v8.884A1.267,1.267,0,0,1,63.161,63.584Z" transform="translate(-40.687 -37.31)"/><path class="f" d="M112.968,52.167H108.86v10.15a1.267,1.267,0,0,1-1.267,1.267h5.375a1.267,1.267,0,0,0,1.267-1.267V53.434A1.267,1.267,0,0,0,112.968,52.167Z" transform="translate(-90.494 -37.31)"/><path class="d" d="M313.244,218.364a5.95,5.95,0,0,1-1.251-3.65V214.7a6.657,6.657,0,0,1,1.489-4.245,4.818,4.818,0,1,0-7.487-.063,6.906,6.906,0,0,1,1.541,4.3v.023a5.95,5.95,0,0,1-1.251,3.65,5.95,5.95,0,0,0-1.251,3.65v.561H314.5v-.561A5.95,5.95,0,0,0,313.244,218.364Z" transform="translate(-278.138 -186.3)"/><path class="g" d="M339.531,214.714V214.7a6.657,6.657,0,0,1,1.489-4.245,4.818,4.818,0,0,0-6.131-7.234A4.832,4.832,0,0,1,337.3,207.2c0,.113,0,.225,0,.337v15.037h4.735v-.561a5.95,5.95,0,0,0-1.251-3.65A5.95,5.95,0,0,1,339.531,214.714Z" transform="translate(-305.676 -186.3)"/><path class="h" d="M259.305,465.854H241.09a.914.914,0,0,1-.913-.913v-2.462h20.042v2.462A.913.913,0,0,1,259.305,465.854Z" transform="translate(-218.572 -425.329)"/><path class="i" d="M417.774,462.479v2.462a.914.914,0,0,1-.914.913H421.8a.914.914,0,0,0,.913-.913v-2.462Z" transform="translate(-381.063 -425.329)"/><path class="j" d="M249.25,427.885H228.51a.639.639,0,0,1-.639-.639v-1.317a2.415,2.415,0,0,1,2.415-2.415h17.188a2.415,2.415,0,0,1,2.415,2.415v1.317A.639.639,0,0,1,249.25,427.885Z" transform="translate(-207.254 -389.493)"/><path class="k" d="M425.215,423.512h-4.079a1.559,1.559,0,0,1,1.559,1.559v2.813h4.3a.639.639,0,0,0,.639-.639v-1.317A2.415,2.415,0,0,0,425.215,423.512Z" transform="translate(-384.995 -389.492)"/><path class="l" d="M87.985,83.922a.656.656,0,0,0-.921.112l-3.036,3.876L82.336,86.66a.656.656,0,0,0-.78,1.055l2.205,1.63a.656.656,0,0,0,.906-.123L88.1,84.844A.656.656,0,0,0,87.985,83.922Z" transform="translate(-66.493 -66.161)"/></g></g></svg>