<svg xmlns="http://www.w3.org/2000/svg" width="61" height="61" viewBox="0 0 61 61"><defs><style>.a{fill:#6257ff;}.b{fill:#b3e59f;}.c{fill:#95d6a4;}.d{fill:#9dc6fb;}.e{fill:#80b5fc;}.f{fill:#ffd064;}.g{fill:#ffe07d;}.h{fill:#604548;}</style></defs><g transform="translate(-1010 -10224.359)"><circle class="a" cx="30.5" cy="30.5" r="30.5" transform="translate(1010 10224.359)"/><g transform="translate(1024.351 10235.315)"><g transform="translate(0 0.233)"><g transform="translate(5.757 0)"><path class="b" d="M89.505,5.464,84.992.957a2.477,2.477,0,0,0-3.5,0L76.978,5.464a2.477,2.477,0,0,0,1.75,4.23h.614V31.21h7.8V9.694h.614A2.477,2.477,0,0,0,89.505,5.464Z" transform="translate(-76.246 -0.233)"/><path class="c" d="M79.9,5.468a2.477,2.477,0,0,0,1.75,4.23h.614V31.215H79.337V9.7h-.613a2.477,2.477,0,0,1-1.75-4.23L81.486.962A2.478,2.478,0,0,1,84.7.715a2.355,2.355,0,0,0-.289.247Z" transform="translate(-76.241 -0.238)"/></g><path class="d" d="M13.264,156.856l-4.513-4.506a2.477,2.477,0,0,0-3.5,0L.737,156.856a2.477,2.477,0,0,0,1.75,4.23H3.1V178.75h7.8V161.086h.614a2.477,2.477,0,0,0,1.75-4.23Z" transform="translate(-0.005 -140.194)"/><path class="e" d="M3.656,156.859a2.477,2.477,0,0,0,1.75,4.23H6.02v17.664H3.1V161.09H2.483a2.477,2.477,0,0,1-1.75-4.23l4.513-4.506a2.478,2.478,0,0,1,3.213-.247,2.353,2.353,0,0,0-.289.247Z" transform="translate(0 -140.198)"/></g><circle class="f" cx="8.949" cy="8.949" r="8.949" transform="translate(14.33 20.958)"/><circle class="g" cx="7.429" cy="7.429" r="7.429" transform="translate(15.85 22.478)"/><g transform="translate(29.036 16.494)"><path class="g" d="M385.208,219.488l.154.073a1.143,1.143,0,0,0,1.487-.471l.907-1.61a1.143,1.143,0,0,0-.5-1.593l-.382-.182a1.143,1.143,0,0,0-1.554.612l-.679,1.719A1.143,1.143,0,0,0,385.208,219.488Z" transform="translate(-384.556 -215.594)"/><path class="g" d="M433.938,268.613l.1.14a1.143,1.143,0,0,0,1.523.336l1.591-.941a1.143,1.143,0,0,0,.36-1.631l-.24-.349a1.143,1.143,0,0,0-1.652-.247l-1.447,1.149A1.143,1.143,0,0,0,433.938,268.613Z" transform="translate(-430.023 -261.893)"/><path class="g" d="M457.08,339.513l.013.17a1.143,1.143,0,0,0,1.151,1.053l1.848-.019a1.143,1.143,0,0,0,1.127-1.233l-.033-.422a1.143,1.143,0,0,0-1.307-1.04l-1.828.272A1.143,1.143,0,0,0,457.08,339.513Z" transform="translate(-451.601 -328.766)"/></g><g transform="translate(-529.752 -106.745)"><path class="h" d="M727.572,133.52a3,3,0,1,1-3-3,3,3,0,0,1,3,3Zm0,0" transform="translate(-171.515)"/><path class="h" d="M555.533,619.354a4,4,0,0,1-4.975-.018c-1.851.68-2.678,3.055-2.678,4.139h10.3c0-1.075-.833-3.433-2.648-4.121Zm0,0" transform="translate(0 -482.692)"/></g></g></g></svg>