<svg xmlns="http://www.w3.org/2000/svg" width="61" height="61" viewBox="0 0 61 61"><defs><style>.a{fill:#6257ff;}.b{fill:#ffead2;}.c{fill:#9dc6fb;}.d{fill:#ffd064;stroke:rgba(0,0,0,0);}</style></defs><g transform="translate(-1010 -9835.999)"><circle class="a" cx="30.5" cy="30.5" r="30.5" transform="translate(1010 9835.999)"/><path class="b" d="M403.092,2.636h-1.716V.934a.934.934,0,1,0-1.867,0v1.7h-1.716a.934.934,0,0,0,0,1.867h1.716v1.7a.934.934,0,1,0,1.867,0V4.5h1.716a.934.934,0,1,0,0-1.867Z" transform="translate(651.176 9845.998)"/><path class="c" d="M5.373,314.769c0-.248.011-.494.03-.739a6.942,6.942,0,0,1-3.327-2.008A6.192,6.192,0,0,0,0,316.65v7.819H5.373Z" transform="translate(1024.417 9552.831)"/><path class="c" d="M41.135,160.74a7.949,7.949,0,0,1-1.2-4.208c0-.166.006-.331.016-.5a5.041,5.041,0,0,0-2.355,9.791A9.549,9.549,0,0,1,41.135,160.74Z" transform="translate(992.558 9699.187)"/><path class="c" d="M165.914,78.718a6.152,6.152,0,1,1,6.178-6.152A6.172,6.172,0,0,1,165.914,78.718Z" transform="translate(874.623 9783.153)"/><path class="c" d="M130.889,256.369a8.05,8.05,0,0,1-11.365,0,7.634,7.634,0,0,0-3.2,6.211v9.7h17.759v-9.7A7.634,7.634,0,0,0,130.889,256.369Z" transform="translate(915.33 9605.021)"/><rect class="a" width="24.894" height="14.071" rx="7" transform="translate(1038.036 9867.647)"/><g transform="translate(1040.891 9869.727)"><path class="d" d="M783.313,456.91a4.955,4.955,0,0,0,0-9.91c-1.164,0-2.557.682-4.259,2.084l-.024.02,2.053,2.063c1.57-1.256,2.2-1.271,2.23-1.271a2.059,2.059,0,1,1,0,4.118c-.028,0-.71-.016-2.417-1.423-.2-.163-3.4-3.276-3.682-3.507-1.7-1.4-3.095-2.084-4.259-2.084a4.955,4.955,0,0,0,0,9.91c1.164,0,2.557-.682,4.259-2.084l.023-.019-2.047-2.068c-1.573,1.259-2.208,1.275-2.235,1.275a2.059,2.059,0,0,1,0-4.118c.028,0,.782-.074,2.4,1.4.823.754,3.5,3.368,3.7,3.525,1.749,1.343,3.095,2.084,4.259,2.084Zm0,0" transform="translate(-768 -447)"/></g></g></svg>