<svg xmlns="http://www.w3.org/2000/svg" xmlns:xlink="http://www.w3.org/1999/xlink" width="190.147" height="144.243" viewBox="0 0 190.147 144.243"><defs><linearGradient id="a" y1="0.5" x2="1" y2="0.5" gradientUnits="objectBoundingBox"><stop offset="0" stop-color="#fe5c88"/><stop offset="1" stop-color="#4761ff"/></linearGradient><linearGradient id="b" x1="0.5" x2="0.5" y2="1" gradientUnits="objectBoundingBox"><stop offset="0" stop-color="#f5f6ff"/><stop offset="1" stop-color="#dec5ff"/></linearGradient><filter id="d" x="96.981" y="30.46" width="93.166" height="89.454" filterUnits="userSpaceOnUse"><feOffset dy="12" input="SourceAlpha"/><feGaussianBlur stdDeviation="12" result="e"/><feFlood flood-color="#ab2077" flood-opacity="0.239"/><feComposite operator="in" in2="e"/><feComposite in="SourceGraphic"/></filter><filter id="g" x="28.93" y="16.642" width="106.38" height="120.493" filterUnits="userSpaceOnUse"><feOffset dy="6" input="SourceAlpha"/><feGaussianBlur stdDeviation="4.5" result="h"/><feFlood flood-color="#7057f4" flood-opacity="0.259"/><feComposite operator="in" in2="h"/><feComposite in="SourceGraphic"/></filter><linearGradient id="i" x1="0.103" y1="0.913" x2="0.921" y2="0.076" gradientUnits="objectBoundingBox"><stop offset="0" stop-color="#feb25c"/><stop offset="0.545" stop-color="#eb5bac"/><stop offset="1" stop-color="#4761ff"/></linearGradient><filter id="j" x="30.652" y="16.254" width="31.402" height="30.913" filterUnits="userSpaceOnUse"><feOffset dy="3" input="SourceAlpha"/><feGaussianBlur stdDeviation="3" result="k"/><feFlood flood-color="#cbcbcb" flood-opacity="0.38"/><feComposite operator="in" in2="k"/><feComposite in="SourceGraphic"/></filter><filter id="l" x="145.092" y="75.976" width="25.936" height="25.574" filterUnits="userSpaceOnUse"><feOffset dy="3" input="SourceAlpha"/><feGaussianBlur stdDeviation="3" result="m"/><feFlood flood-color="#cbcbcb" flood-opacity="0.38"/><feComposite operator="in" in2="m"/><feComposite in="SourceGraphic"/></filter><filter id="n" x="108.309" y="12.421" width="59.019" height="52.17" filterUnits="userSpaceOnUse"><feOffset dy="6" input="SourceAlpha"/><feGaussianBlur stdDeviation="4.5" result="o"/><feFlood flood-color="#7057f4" flood-opacity="0.259"/><feComposite operator="in" in2="o"/><feComposite in="SourceGraphic"/></filter><filter id="p" x="0" y="63.389" width="59.019" height="52.17" filterUnits="userSpaceOnUse"><feOffset dy="6" input="SourceAlpha"/><feGaussianBlur stdDeviation="4.5" result="q"/><feFlood flood-color="#7057f4" flood-opacity="0.259"/><feComposite operator="in" in2="q"/><feComposite in="SourceGraphic"/></filter><filter id="r" x="108.309" y="92.073" width="59.019" height="52.17" filterUnits="userSpaceOnUse"><feOffset dy="6" input="SourceAlpha"/><feGaussianBlur stdDeviation="4.5" result="s"/><feFlood flood-color="#7057f4" flood-opacity="0.259"/><feComposite operator="in" in2="s"/><feComposite in="SourceGraphic"/></filter><clipPath id="t"><path d="M236.9-41.989a5.331,5.331,0,0,0,6.087,3.961,5.332,5.332,0,0,0,4.39-5.783Z" transform="translate(-236.9 43.812)" fill="none"/></clipPath></defs><g transform="translate(13.5 -5.819)"><path d="M1468.76,9266.074c0,13.021-1.357,18.447,6.511,20.346s33.1-8.952,42.863-10.579,24.687,5.425,20.347,25.228-29.57,41.779-51.545,42.593-52.358-8.681-63.21-32.554-6.24-42.32,10.309-52.9S1468.76,9253.055,1468.76,9266.074Z" transform="translate(-1406.472 -9199.089)" opacity="0.2" fill="url(#a)"/><path d="M0,112.008l22.3-109A3.759,3.759,0,0,1,25.982,0H81.419A3.759,3.759,0,0,1,85.1,4.513L60.97,122.479A43.325,43.325,0,0,1,47.117,125.5c-.86.032-1.735.048-2.619.048C30.238,125.547,13.062,121.375,0,112.008Z" transform="translate(32.853 18.58)" fill="#8785e1"/><path d="M0,111.577,22.211,3.006A3.759,3.759,0,0,1,25.894,0H81.332a3.759,3.759,0,0,1,3.683,4.513L60.991,121.942A43.4,43.4,0,0,1,47.029,125c-.86.032-1.735.048-2.619.048C30.182,125.052,13.052,120.9,0,111.577Z" transform="translate(35.414 18.58)" fill="#8785e1"/><path d="M0,112.008l22.3-109A3.759,3.759,0,0,1,25.982,0H81.419A3.759,3.759,0,0,1,85.1,4.513L60.97,122.479A43.325,43.325,0,0,1,47.117,125.5c-.86.032-1.735.048-2.619.048C30.238,125.547,13.062,121.375,0,112.008Z" transform="translate(33.348 19.075)" fill="url(#b)"/><g transform="matrix(1, 0, 0, 1, -13.5, 5.82)" filter="url(#d)"><path d="M.55,7.8C-1.459,4.1,2.379-2,6.478.648s3.9,7.448,6.7,5.413,6.763-.664,4.433,2.711-8.177,4.568-10.449,4A8.908,8.908,0,0,1,.55,7.8Z" transform="translate(132.98 59.51) rotate(-16)" opacity="0.3" fill="url(#a)"/></g><path d="M1688.189,9263.794c1.132,1.858.047-1.871,2.661-1.652s3.457-.6,3.117-1.911-3.4-1.879-4.771-.965A3.2,3.2,0,0,0,1688.189,9263.794Z" transform="translate(-1553.709 -9201.331)" opacity="0.54" fill="url(#a)"/><g transform="matrix(1, 0, 0, 1, -13.5, 5.82)" filter="url(#g)"><path d="M1453.924,550.493h-52.236a3.737,3.737,0,0,1-3.643-4.57l19.666-86.019a3.737,3.737,0,0,1,3.643-2.9h52.236a3.737,3.737,0,0,1,3.643,4.57l-19.666,86.019A3.737,3.737,0,0,1,1453.924,550.493Z" transform="translate(-1355.52 -432.86)" fill="#fff"/></g><g transform="translate(37.445 41.57)"><g transform="translate(20.592 1.693)" opacity="0.45"><path d="M1502.294,451.353h-13a.224.224,0,0,1-.23-.288l.221-.937a.393.393,0,0,1,.366-.288h13a.224.224,0,0,1,.23.288l-.221.937A.394.394,0,0,1,1502.294,451.353Z" transform="translate(-1489.052 -449.84)" fill="#f1f4f6"/></g><g transform="translate(20.077 3.812)" opacity="0.45"><path d="M1494.686,459.108h-7.338a.17.17,0,0,1-.175-.218l.254-1.077a.3.3,0,0,1,.277-.218h7.338a.17.17,0,0,1,.174.218l-.254,1.077A.3.3,0,0,1,1494.686,459.108Z" transform="translate(-1487.168 -457.595)" fill="#f0f3f6"/></g><g transform="translate(1.435 8.004)"><path d="M1467.963,520.244h-49.041l11.166-47.3h49.041Z" transform="translate(-1418.922 -472.942)" fill="#f1f4f6"/></g><ellipse cx="2.697" cy="2.134" rx="2.697" ry="2.134" transform="translate(13.442 3.386) rotate(-37.268)" fill="#e0e4ea"/><ellipse cx="1.99" cy="1.575" rx="1.99" ry="1.575" transform="matrix(0.796, -0.606, 0.606, 0.796, 14.343, 3.403)" fill="#fff"/><path d="M1471.471,452.9a1.018,1.018,0,0,0,.467-.612.6.6,0,0,0-.613-.765,1.045,1.045,0,0,0-.974.765.6.6,0,0,0,.177.612,2,2,0,0,0-1.18.99,1.4,1.4,0,0,0,1.26.668,2.338,2.338,0,0,0,1.575-.668A1.05,1.05,0,0,0,1471.471,452.9Z" transform="translate(-1454.138 -449.373)" fill="#e0e4ea"/><g transform="translate(48.535 1.585)"><path d="M1601.453,453.184H1592.9a1.46,1.46,0,0,1-1.5-1.871,2.561,2.561,0,0,1,2.381-1.871h8.556a1.46,1.46,0,0,1,1.5,1.871A2.561,2.561,0,0,1,1601.453,453.184Zm-7.714-3.563a2.317,2.317,0,0,0-2.155,1.692,1.321,1.321,0,0,0,1.355,1.693h8.556a2.317,2.317,0,0,0,2.154-1.693,1.32,1.32,0,0,0-1.355-1.692Z" transform="translate(-1591.349 -449.442)" fill="#f1f4f6"/></g><g transform="translate(50.104 3.523)"><path d="M1606.373,456.718h-9.281l.042-.178h9.281Z" transform="translate(-1597.092 -456.54)" fill="#d8dde5"/></g><g transform="translate(21.485 4.358)"><path d="M1497.855,459.772h-5.533l.042-.178h5.533Z" transform="translate(-1492.322 -459.594)" fill="#d8dde5"/></g><g transform="translate(30.003 2.457)"><path d="M1525.922,452.814H1523.5l.042-.178h2.419Z" transform="translate(-1523.503 -452.636)" fill="#d8dde5"/></g><g transform="translate(21.934 2.457)"><path d="M1500.956,452.814h-6.991l.042-.178H1501Z" transform="translate(-1493.964 -452.636)" fill="#d8dde5"/></g><g transform="translate(32.442 2.546)" opacity="0.45"><path d="M1532.434,452.962" transform="translate(-1532.434 -452.962)" fill="#d2def9"/></g><g transform="translate(30.023 2.546)"><path d="M1523.58,452.962" transform="translate(-1523.58 -452.962)" fill="none" stroke="#011e3b" stroke-linecap="round" stroke-linejoin="round" stroke-width="1"/></g><g transform="translate(0.606 60.669)" opacity="0.45"><path d="M1427.24,667.449H1416.1a.2.2,0,0,1-.206-.258l.282-1.193a.351.351,0,0,1,.328-.257h11.14a.2.2,0,0,1,.206.257l-.282,1.193A.352.352,0,0,1,1427.24,667.449Z" transform="translate(-1415.887 -665.741)" fill="#e8ecef"/></g><g transform="translate(13.575 60.669)" opacity="0.45"><path d="M1486.8,667.449h-23.225a.2.2,0,0,1-.206-.258l.281-1.193a.352.352,0,0,1,.328-.257h23.224a.2.2,0,0,1,.206.257l-.282,1.193A.352.352,0,0,1,1486.8,667.449Z" transform="translate(-1463.366 -665.741)" fill="#e8ecef"/></g><g transform="translate(1.804 61.503)"><path d="M1423.333,668.973h-3.06l.042-.178h3.06Z" transform="translate(-1420.273 -668.795)" fill="#d0d4db"/></g><g transform="translate(5.789 61.503)"><path d="M1439.877,668.973h-5.018l.042-.178h5.017Z" transform="translate(-1434.859 -668.795)" fill="#d0d4db"/></g><g transform="translate(15.148 61.503)" opacity="0.65"><path d="M1487.453,668.973h-18.331l.042-.178h18.33Z" transform="translate(-1469.122 -668.795)" fill="#d0d4db"/></g><g transform="translate(0 63.236)" opacity="0.45"><path d="M1437.105,676.849h-23.224a.2.2,0,0,1-.206-.257l.281-1.193a.352.352,0,0,1,.328-.258h23.225a.2.2,0,0,1,.206.258l-.281,1.193A.352.352,0,0,1,1437.105,676.849Z" transform="translate(-1413.668 -675.141)" fill="#e8ecef"/></g><g transform="translate(1.198 64.071)" opacity="0.65"><path d="M1436.758,678.375h-18.7l.042-.178h18.7Z" transform="translate(-1418.054 -678.197)" fill="#d0d4db"/></g><g transform="translate(1.769 57.044)"><path d="M1421.146,654.668a.207.207,0,0,1-.167-.074l-.717-.9a.612.612,0,0,1-.062-.623,1.007,1.007,0,0,1,.746-.592.606.606,0,0,1,.653.268.926.926,0,0,1,.78-.268.545.545,0,0,1,.466.592.894.894,0,0,1-.356.623l-1.141.9a.332.332,0,0,1-.2.074Zm-.112-2.018a.608.608,0,0,0-.1.008.754.754,0,0,0-.559.444.46.46,0,0,0,.046.47l.718.9a.061.061,0,0,0,.049.022h0a.1.1,0,0,0,.059-.022l1.141-.9a.675.675,0,0,0,.268-.47h0a.409.409,0,0,0-.35-.444.715.715,0,0,0-.673.3.122.122,0,0,1-.1.05h0a.069.069,0,0,1-.071-.051A.42.42,0,0,0,1421.033,652.65Z" transform="translate(-1420.143 -652.471)" fill="#e8ecef"/></g><g transform="translate(10.767 57.106)"><path d="M1454.9,654.772a.081.081,0,0,1-.036-.008l-.468-.224a1.317,1.317,0,0,1-.442.081.782.782,0,0,1-.847-.961,1.37,1.37,0,0,1,1.3-.961.782.782,0,0,1,.847.961,1.14,1.14,0,0,1-.306.53l.066.462a.105.105,0,0,1-.046.1A.116.116,0,0,1,1454.9,654.772Zm-.459-.417a.08.08,0,0,1,.036.008l.322.154-.044-.31a.1.1,0,0,1,.035-.086.933.933,0,0,0,.281-.459.643.643,0,0,0-.7-.783,1.127,1.127,0,0,0-1.074.783.643.643,0,0,0,.7.783,1.122,1.122,0,0,0,.406-.081A.107.107,0,0,1,1454.441,654.355Z" transform="translate(-1453.083 -652.7)" fill="#e8ecef"/></g><g transform="translate(14.643 57.181)"><g transform="translate(0 0)"><path d="M1467.964,654.9a.079.079,0,0,1-.022,0,.067.067,0,0,1-.052-.072l.073-1.054-.669-.634a.077.077,0,0,1-.006-.1.123.123,0,0,1,.1-.06h2.4a.069.069,0,0,1,.071.049.1.1,0,0,1-.031.093l-1.783,1.743A.121.121,0,0,1,1467.964,654.9Zm-.354-1.743.524.5a.069.069,0,0,1,.021.055l-.061.883,1.467-1.435Z" transform="translate(-1467.273 -652.975)" fill="#e8ecef"/></g><g transform="translate(0.769 0.007)"><path d="M1470.122,653.821l-.035-.163,1.708-.655.036.163Z" transform="translate(-1470.087 -653.002)" fill="#e8ecef"/></g></g><path d="M1589.753,654.645a.083.083,0,0,1-.038-.009l-.8-.424-1,.424a.092.092,0,0,1-.088,0,.069.069,0,0,1-.025-.075l.514-2.177a.122.122,0,0,1,.114-.089h1.883a.069.069,0,0,1,.071.089l-.514,2.177a.119.119,0,0,1-.061.075A.115.115,0,0,1,1589.753,654.645Zm-.8-.621a.079.079,0,0,1,.038.009l.719.38.46-1.946h-1.7l-.46,1.946.9-.38A.1.1,0,0,1,1588.958,654.024Z" transform="translate(-1540.232 -595.296)" fill="#dcdfe4"/><g transform="translate(62.713)"><g transform="translate(0.35)"><path d="M1644.954,443.842a.274.274,0,0,1-.256.2.157.157,0,0,1-.161-.2.275.275,0,0,1,.256-.2A.156.156,0,0,1,1644.954,443.842Z" transform="translate(-1644.532 -443.641)" fill="#f1f4f6"/></g><g transform="translate(0.175 0.741)"><path d="M1644.313,446.555a.274.274,0,0,1-.255.2.157.157,0,0,1-.161-.2.275.275,0,0,1,.256-.2A.156.156,0,0,1,1644.313,446.555Z" transform="translate(-1643.892 -446.354)" fill="#f1f4f6"/></g><g transform="translate(0 1.482)"><path d="M1643.673,449.268a.274.274,0,0,1-.256.2.156.156,0,0,1-.161-.2.274.274,0,0,1,.255-.2A.157.157,0,0,1,1643.673,449.268Z" transform="translate(-1643.251 -449.068)" fill="#f1f4f6"/></g></g><path d="M.584,1.578.7,1.441a.62.62,0,0,0,.493.194A.483.483,0,0,0,1.725,1.3c.047-.2-.068-.333-.392-.333H1.209l.03-.127.62-.583H.968L1,.1H2.123L2.094.223l-.632.6c.368.02.51.209.446.477a.7.7,0,0,1-.748.5A.743.743,0,0,1,.584,1.578Zm2.589.2L2.8,1.146l-.373.273-.084.36H2.161L2.581,0h.177L2.473,1.206,3.416.518h.219l-.681.516.436.745Zm-3.124,0L.41.254H0L.036.1H.625l-.4,1.679Z" transform="translate(5.388 57.372)" fill="#e8ecef" stroke="rgba(0,0,0,0)" stroke-miterlimit="10" stroke-width="1"/></g><path d="M7.007,31.48c-4.907,0-7.935-4.019-6.75-8.96L3.509,8.96C4.693,4.019,9.649,0,14.557,0h13.47c4.907,0,7.936,4.019,6.751,8.96L31.527,22.52c-1.186,4.941-6.142,8.96-11.05,8.96ZM6.189,8.96,2.936,22.52c-.828,3.453,1.288,6.262,4.719,6.262h13.47a8.434,8.434,0,0,0,7.721-6.262L32.1,8.96C32.926,5.507,30.81,2.7,27.38,2.7H13.91A8.433,8.433,0,0,0,6.189,8.96Zm3.322,6.78a10.857,10.857,0,0,1,9.94-8.06c4.415,0,7.139,3.616,6.073,8.06a10.858,10.858,0,0,1-9.94,8.061C11.17,23.8,8.445,20.185,9.511,15.74Zm2.68,0c-.709,2.957,1.1,5.362,4.041,5.362a7.222,7.222,0,0,0,6.612-5.362c.709-2.956-1.1-5.362-4.041-5.362A7.224,7.224,0,0,0,12.191,15.74Zm13.8-8.521a2.606,2.606,0,0,1,2.389-1.937,1.473,1.473,0,0,1,1.459,1.937,2.606,2.606,0,0,1-2.388,1.937A1.474,1.474,0,0,1,25.986,7.219Z" transform="translate(50.607 57.969)" stroke="rgba(0,0,0,0)" stroke-width="1" fill="url(#i)"/><g transform="matrix(1, 0, 0, 1, -13.5, 5.82)" filter="url(#j)"><path d="M5.16,9.137a1.345,1.345,0,0,1-.748-.349C1.755,6.378,0,4.789,0,2.838A2.811,2.811,0,0,1,2.838,0,3.09,3.09,0,0,1,5.16,1.079,3.09,3.09,0,0,1,7.483,0a2.811,2.811,0,0,1,2.838,2.838c0,1.951-1.755,3.54-4.412,5.955A1.335,1.335,0,0,1,5.16,9.137Z" transform="matrix(0.88, -0.47, 0.47, 0.88, 39.65, 27.1)" fill="#ff6565"/></g><g transform="matrix(1, 0, 0, 1, -13.5, 5.82)" filter="url(#l)"><path d="M3.115,5.516a.812.812,0,0,1-.452-.211C1.059,3.851,0,2.891,0,1.714A1.7,1.7,0,0,1,1.714,0a1.866,1.866,0,0,1,1.4.651A1.866,1.866,0,0,1,4.517,0,1.7,1.7,0,0,1,6.231,1.714c0,1.178-1.059,2.137-2.664,3.6A.806.806,0,0,1,3.115,5.516Z" transform="translate(156.34 81.98) rotate(24)" fill="#ff6565"/></g><g transform="matrix(1, 0, 0, 1, -13.5, 5.82)" filter="url(#n)"><path d="M1388.412,484.17h-21.361a2.834,2.834,0,0,1-2.949-3.337l4.622-19.654a2.968,2.968,0,0,1,2.949-2.178h21.361a2.834,2.834,0,0,1,2.949,3.338l-4.622,19.654A2.967,2.967,0,0,1,1388.412,484.17Z" transform="translate(-1242.22 -439.08)" fill="#fff"/></g><g transform="translate(117.4 30.95)"><path d="M399.976,1.318h-.858V.467a.467.467,0,1,0-.934,0v.852h-.858a.467.467,0,1,0,0,.934h.858V3.1a.467.467,0,1,0,.934,0V2.252h.858a.467.467,0,1,0,0-.934Z" transform="translate(-385.06 0)" fill="#945ed8"/><path d="M2.687,313.4c0-.124.005-.247.015-.369a3.472,3.472,0,0,1-1.664-1A3.1,3.1,0,0,0,0,314.336v3.91H2.687Z" transform="translate(0 -303.418)" fill="#945ed8"/><path d="M37.555,158.347a3.975,3.975,0,0,1-.6-2.1c0-.083,0-.166.008-.248a2.521,2.521,0,0,0-1.178,4.9A4.776,4.776,0,0,1,37.555,158.347Z" transform="translate(-32.917 -152.207)" fill="#945ed8"/><path d="M162.825,72.567a3.076,3.076,0,1,1,3.089-3.076A3.086,3.086,0,0,1,162.825,72.567Z" transform="translate(-154.764 -65.455)" fill="#945ed8"/><path d="M123.609,256.369a4.026,4.026,0,0,1-5.684,0,3.817,3.817,0,0,0-1.6,3.106v4.851h8.881v-4.851A3.818,3.818,0,0,0,123.609,256.369Z" transform="translate(-112.706 -249.497)" fill="#945ed8"/></g><g transform="matrix(1, 0, 0, 1, -13.5, 5.82)" filter="url(#p)"><path d="M1388.412,484.17h-21.361a2.834,2.834,0,0,1-2.949-3.337l4.622-19.654a2.968,2.968,0,0,1,2.949-2.178h21.361a2.834,2.834,0,0,1,2.949,3.338l-4.622,19.654A2.967,2.967,0,0,1,1388.412,484.17Z" transform="translate(-1350.53 -388.11)" fill="#fff"/></g><g transform="translate(7.542 83.687) rotate(-8)"><path d="M3.526,11.772a19,19,0,0,1-2.423-.6,2.64,2.64,0,0,1-.72-.431A.977.977,0,0,1,.032,9.707C.316,8.451.581,7.191.839,5.929a2.368,2.368,0,0,1,.62-1.153q.618-.662,1.269-1.29A3.078,3.078,0,0,0,3.787,1.473c.021-.28.1-.554.147-.832.088-.507.274-.659.784-.638A1.475,1.475,0,0,1,6.141,1.2a3.691,3.691,0,0,1-.1,1.867,9.492,9.492,0,0,1-.317.954c-.094.236-.044.332.208.379.619.118,1.235.256,1.85.392a5.871,5.871,0,0,1,.658.182A1.274,1.274,0,0,1,9.174,7a.5.5,0,0,0-.03.57,1.307,1.307,0,0,1-.54,1.6.33.33,0,0,0-.209.362,1.135,1.135,0,0,1-.847,1.216.287.287,0,0,0-.223.272,1.3,1.3,0,0,1-1.717,1.193C4.964,12.083,4.323,11.942,3.526,11.772Z" transform="translate(4.228 0)" fill="#945ed8"/><path d="M3.733,4.017c-.192.9-.381,1.809-.579,2.712-.121.556-.367.715-.923.6S1.129,7.1.58,6.977a.638.638,0,0,1-.554-.855Q.606,3.351,1.207.582A.643.643,0,0,1,2.062.022c.553.1,1.1.224,1.652.35s.711.378.6.933C4.122,2.209,3.926,3.112,3.733,4.017Z" transform="translate(0 3.892)" fill="#945ed8"/></g><g transform="matrix(1, 0, 0, 1, -13.5, 5.82)" filter="url(#r)"><path d="M1388.412,484.17h-21.361a2.834,2.834,0,0,1-2.949-3.337l4.622-19.654a2.968,2.968,0,0,1,2.949-2.178h21.361a2.834,2.834,0,0,1,2.949,3.338l-4.622,19.654A2.967,2.967,0,0,1,1388.412,484.17Z" transform="translate(-1242.22 -359.43)" fill="#fff"/></g><g transform="translate(112.601 106.26)"><circle cx="8.327" cy="8.327" r="8.327" transform="matrix(0.774, -0.633, 0.633, 0.774, 0, 10.542)" fill="#ffd05a"/><g transform="translate(6.56 11.269)"><path d="M236.9-41.989a5.331,5.331,0,0,0,6.087,3.961,5.332,5.332,0,0,0,4.39-5.783Z" transform="translate(-236.9 43.812)" fill="#252c37"/><g clip-path="url(#t)"><path d="M248.216-38.054c.419,2.406-1.513,4.752-4.313,5.239s-5.412-1.067-5.831-3.474,1.513-4.752,4.314-5.238S247.8-40.46,248.216-38.054Z" transform="translate(-236.914 43.784)" fill="#f7546c"/></g></g><g transform="translate(5.978 6.345)"><g transform="translate(7.174)"><path d="M246.76-45.438a.48.48,0,0,1-.214-.011l-2.611-.723a.489.489,0,0,1-.347-.362.488.488,0,0,1,.155-.477l1.9-1.667a.489.489,0,0,1,.69.045.489.489,0,0,1-.045.691l-1.218,1.068,1.736.481a.49.49,0,0,1,.342.6A.489.489,0,0,1,246.76-45.438Z" transform="translate(-243.577 48.799)" fill="#252c37"/></g><g transform="translate(0 1.579)"><path d="M237.024-43.739a.491.491,0,0,1-.485-.2.49.49,0,0,1,.118-.682l1.472-1.04-1.508-.593a.489.489,0,0,1-.276-.635.49.49,0,0,1,.635-.276l2.351.926a.49.49,0,0,1,.306.4.488.488,0,0,1-.2.458l-2.213,1.563A.479.479,0,0,1,237.024-43.739Z" transform="translate(-236.311 47.199)" fill="#252c37"/></g></g></g><g transform="translate(100.481) rotate(19)"><circle cx="9.55" cy="9.55" r="9.55" transform="translate(0 6.732) rotate(-20.638)" fill="#ffd05a"/><g transform="translate(7 3.919)"><path d="M5.447,4.149a4.345,4.345,0,0,1-1.4,2.673,2.24,2.24,0,0,1-1.89.593A2.264,2.264,0,0,1,.582,6.285,4.019,4.019,0,0,1,0,3.993a4.791,4.791,0,0,1,.907-2.78A3.245,3.245,0,0,1,1.8.367a2.156,2.156,0,0,1,3.056.686A3.984,3.984,0,0,1,5.5,3.119,4.588,4.588,0,0,1,5.447,4.149Z" transform="translate(2.092 8.376)" fill="#252c37"/><path d="M2.664,2.41A2.2,2.2,0,0,1,2.126,3.6a1.006,1.006,0,0,1-1.52.029A2.1,2.1,0,0,1,.027,2.347,2.525,2.525,0,0,1,.407.555,1.06,1.06,0,0,1,1.679.063a1.343,1.343,0,0,1,.7.659A2.682,2.682,0,0,1,2.664,2.41Z" transform="translate(8.733 4.769)" fill="#252c37"/><path d="M.036,1.908A2.53,2.53,0,0,1,1.022.249,1.036,1.036,0,0,1,2.7.745,2.489,2.489,0,0,1,2.5,2.8a2.077,2.077,0,0,1-.773.866,1.031,1.031,0,0,1-1.583-.5A2.3,2.3,0,0,1,.036,1.908Z" transform="translate(0 3.421)" fill="#252c37"/><path d="M1.8.012a2.6,2.6,0,0,1,1.385.67.437.437,0,1,1-.6.626A1.581,1.581,0,0,0,1.755.893a1.178,1.178,0,0,0-.983.385.488.488,0,0,1-.342.143.413.413,0,0,1-.38-.242A.386.386,0,0,1,.105.719,2.051,2.051,0,0,1,1.8.012Z" transform="translate(0.422 0)" fill="#252c37"/><path d="M1.156.029A2.1,2.1,0,0,1,2.611,1.213a.418.418,0,0,1-.193.557A.423.423,0,0,1,1.84,1.6,1.807,1.807,0,0,0,1.4,1.069,1.1,1.1,0,0,0,.535.884.435.435,0,0,1,.013.354.4.4,0,0,1,.337.043,2.321,2.321,0,0,1,1.156.029Z" transform="translate(9.571 1.276)" fill="#252c37"/></g></g></g></svg>