<svg xmlns="http://www.w3.org/2000/svg" xmlns:xlink="http://www.w3.org/1999/xlink" width="91.742" height="77.893" viewBox="0 0 91.742 77.893"><defs><style>.a{fill:none;}.b{fill:#fff;}.c{fill:#ffd05a;}.d{fill:#252c37;}.e{clip-path:url(#c);}.f{fill:#f7546c;}.g{filter:url(#a);}</style><filter id="a" x="0" y="0" width="91.742" height="77.893" filterUnits="userSpaceOnUse"><feOffset dy="6" input="SourceAlpha"/><feGaussianBlur stdDeviation="4.5" result="b"/><feFlood flood-color="#7057f4" flood-opacity="0.259"/><feComposite operator="in" in2="b"/><feComposite in="SourceGraphic"/></filter><clipPath id="c"><path class="a" d="M236.9-40.126a10.779,10.779,0,0,0,12.307,8.008,10.781,10.781,0,0,0,8.877-11.694Z" transform="translate(-236.9 43.812)"/></clipPath></defs><g transform="translate(-660.616 -9378.979)"><g class="g" transform="matrix(1, 0, 0, 1, 660.62, 9378.98)"><path class="b" d="M1413.327,509.893h-43.192c-3.885,0-6.78-3.276-5.963-6.748l9.347-39.74a6,6,0,0,1,5.963-4.4h43.192c3.885,0,6.78,3.276,5.963,6.748l-9.347,39.74A6,6,0,0,1,1413.327,509.893Z" transform="translate(-1350.53 -451.5)"/></g><circle class="c" cx="16.838" cy="16.838" r="16.838" transform="translate(689.649 9395.088)"/><path class="d" d="M236.9-40.126a10.779,10.779,0,0,0,12.307,8.008,10.781,10.781,0,0,0,8.877-11.694Z" transform="translate(459.159 9454.829)"/><g transform="translate(696.059 9411.018)"><g class="e"><path class="f" d="M258.641-34.414c.847,4.866-3.059,9.607-8.721,10.594s-10.943-2.158-11.79-7.024,3.059-9.607,8.723-10.592S257.795-39.277,258.641-34.414Z" transform="translate(-235.789 46)"/></g></g><g transform="translate(709.389 9401.062)"><path class="d" d="M250.014-42a.97.97,0,0,1-.433-.022L244.3-43.486a.989.989,0,0,1-.7-.733.987.987,0,0,1,.313-.964l3.841-3.37a.989.989,0,0,1,1.4.092.99.99,0,0,1-.092,1.4L246.6-44.9l3.51.972a.99.99,0,0,1,.691,1.218A.989.989,0,0,1,250.014-42Z" transform="translate(-243.577 48.799)"/></g><g transform="translate(694.883 9404.255)"><path class="d" d="M237.753-40.2a.993.993,0,0,1-.98-.4.991.991,0,0,1,.238-1.38l2.977-2.1-3.049-1.2a.988.988,0,0,1-.557-1.284.99.99,0,0,1,1.284-.559l4.754,1.873a.992.992,0,0,1,.619.8.987.987,0,0,1-.411.926l-4.474,3.161A.969.969,0,0,1,237.753-40.2Z" transform="translate(-236.311 47.199)"/></g></g></svg>