<svg xmlns="http://www.w3.org/2000/svg" xmlns:xlink="http://www.w3.org/1999/xlink" width="45.099" height="44.109" viewBox="0 0 45.099 44.109"><defs><style>.a{fill:#ff6565;}.b{filter:url(#a);}</style><filter id="a" x="0" y="0" width="45.099" height="44.109" filterUnits="userSpaceOnUse"><feOffset dy="3" input="SourceAlpha"/><feGaussianBlur stdDeviation="3" result="b"/><feFlood flood-color="#cbcbcb" flood-opacity="0.38"/><feComposite operator="in" in2="b"/><feComposite in="SourceGraphic"/></filter></defs><g class="b" transform="matrix(1, 0, 0, 1, 0, 0)"><path class="a" d="M12.434,21.475a2.72,2.72,0,0,1-1.513-.706C5.548,15.9,2,12.683,2,8.739A5.683,5.683,0,0,1,7.739,3a6.248,6.248,0,0,1,4.7,2.181A6.248,6.248,0,0,1,17.13,3a5.683,5.683,0,0,1,5.739,5.739c0,3.944-3.548,7.158-8.921,12.041A2.7,2.7,0,0,1,12.434,21.475Z" transform="matrix(0.88, -0.47, 0.47, 0.88, 5.83, 14.09)"/></g></svg>