<svg xmlns="http://www.w3.org/2000/svg" xmlns:xlink="http://www.w3.org/1999/xlink" width="91.742" height="77.893" viewBox="0 0 91.742 77.893"><defs><style>.a{fill:#fff;}.b{fill:#945ed8;}.c{filter:url(#a);}</style><filter id="a" x="0" y="0" width="91.742" height="77.893" filterUnits="userSpaceOnUse"><feOffset dy="6" input="SourceAlpha"/><feGaussianBlur stdDeviation="4.5" result="b"/><feFlood flood-color="#7057f4" flood-opacity="0.259"/><feComposite operator="in" in2="b"/><feComposite in="SourceGraphic"/></filter></defs><g transform="translate(-660.616 -9217.924)"><g class="c" transform="matrix(1, 0, 0, 1, 660.62, 9217.92)"><path class="a" d="M1413.327,509.893h-43.192c-3.885,0-6.78-3.276-5.963-6.748l9.347-39.74a6,6,0,0,1,5.963-4.4h43.192c3.885,0,6.78,3.276,5.963,6.748l-9.347,39.74A6,6,0,0,1,1413.327,509.893Z" transform="translate(-1350.53 -451.5)"/></g><g transform="translate(692.496 9233.959)"><path class="b" d="M403.161,2.666h-1.735V.944a.944.944,0,1,0-1.888,0V2.666H397.8a.944.944,0,1,0,0,1.888h1.735V6.276a.944.944,0,1,0,1.888,0V4.554h1.735a.944.944,0,0,0,0-1.888Z" transform="translate(-373.003 2)"/><path class="b" d="M5.433,314.8c0-.25.011-.5.03-.747a7.02,7.02,0,0,1-3.364-2.03A6.261,6.261,0,0,0,0,316.7v7.906H5.433Z" transform="translate(0 -292.625)"/><path class="b" d="M41.215,160.794A8.038,8.038,0,0,1,40,156.538c0-.168.006-.335.016-.5a5.1,5.1,0,0,0-2.382,9.9A9.656,9.656,0,0,1,41.215,160.794Z" transform="translate(-31.836 -146.378)"/><path class="b" d="M165.983,78.855a6.22,6.22,0,1,1,6.247-6.22A6.241,6.241,0,0,1,165.983,78.855Z" transform="translate(-149.683 -62.474)"/><path class="b" d="M131.052,256.369a8.141,8.141,0,0,1-11.492,0,7.719,7.719,0,0,0-3.233,6.28v9.808h17.958v-9.808A7.719,7.719,0,0,0,131.052,256.369Z" transform="translate(-109.006 -240.474)"/></g></g></svg>