<svg xmlns="http://www.w3.org/2000/svg" xmlns:xlink="http://www.w3.org/1999/xlink" width="91.742" height="77.893" viewBox="0 0 91.742 77.893"><defs><style>.a{fill:#fff;}.b{fill:#945ed8;}.c{filter:url(#a);}</style><filter id="a" x="0" y="0" width="91.742" height="77.893" filterUnits="userSpaceOnUse"><feOffset dy="6" input="SourceAlpha"/><feGaussianBlur stdDeviation="4.5" result="b"/><feFlood flood-color="#7057f4" flood-opacity="0.259"/><feComposite operator="in" in2="b"/><feComposite in="SourceGraphic"/></filter></defs><g transform="translate(-441.616 -9320.979)"><g class="c" transform="matrix(1, 0, 0, 1, 441.62, 9320.98)"><path class="a" d="M1413.327,509.893h-43.192c-3.885,0-6.78-3.276-5.963-6.748l9.347-39.74a6,6,0,0,1,5.963-4.4h43.192c3.885,0,6.78,3.276,5.963,6.748l-9.347,39.74A6,6,0,0,1,1413.327,509.893Z" transform="translate(-1350.53 -451.5)"/></g><g transform="translate(304.313 9344.943) rotate(-8)"><path class="b" d="M176.074,44.581a38.421,38.421,0,0,1-4.9-1.2,5.337,5.337,0,0,1-1.456-.871,1.976,1.976,0,0,1-.71-2.1c.575-2.54,1.111-5.089,1.632-7.639a4.788,4.788,0,0,1,1.254-2.332q1.249-1.338,2.567-2.608a6.224,6.224,0,0,0,2.139-4.072c.043-.567.2-1.121.3-1.683.178-1.025.554-1.333,1.585-1.291a2.983,2.983,0,0,1,2.878,2.432,7.463,7.463,0,0,1-.2,3.776,19.193,19.193,0,0,1-.64,1.929c-.19.477-.088.671.421.767,1.252.239,2.5.517,3.741.794a11.87,11.87,0,0,1,1.331.368,2.576,2.576,0,0,1,1.477,4.084,1,1,0,0,0-.061,1.154,2.643,2.643,0,0,1-1.092,3.238.666.666,0,0,0-.423.732,2.294,2.294,0,0,1-1.712,2.458.579.579,0,0,0-.45.55,2.627,2.627,0,0,1-3.471,2.411C178.982,45.211,177.685,44.925,176.074,44.581Z" transform="translate(4.369)"/><path class="b" d="M172.313,32.749c-.389,1.828-.771,3.657-1.17,5.483-.245,1.125-.742,1.446-1.867,1.215s-2.229-.458-3.338-.712a1.29,1.29,0,0,1-1.121-1.728q1.172-5.6,2.387-11.2a1.3,1.3,0,0,1,1.73-1.131c1.119.209,2.231.452,3.34.708s1.438.765,1.2,1.886C173.1,29.094,172.7,30.92,172.313,32.749Z" transform="translate(0 4.022)"/></g></g></svg>