<svg id="组_315" data-name="组 315" xmlns="http://www.w3.org/2000/svg" width="26.476" height="31.29" viewBox="0 0 26.476 31.29">
  <path id="路径_644" data-name="路径 644" d="M44.481,179.141a1.868,1.868,0,0,0-1.373.564,1.846,1.846,0,0,0-.564,1.354v8.086a1.926,1.926,0,0,0,1.937,1.937,1.839,1.839,0,0,0,1.364-.564,1.885,1.885,0,0,0,.555-1.373v-8.086a1.926,1.926,0,0,0-1.918-1.918Z" transform="translate(-42.544 -169.006)" fill="#fff"/>
  <path id="路径_645" data-name="路径 645" d="M135.625,2.877,136.96.414a.248.248,0,0,0-.094-.376.26.26,0,0,0-.376.113l-1.354,2.483a9.432,9.432,0,0,0-7.559,0L126.224.151a.261.261,0,0,0-.376-.113.247.247,0,0,0-.094.376l1.335,2.463a8.245,8.245,0,0,0-3.234,2.887,7.291,7.291,0,0,0-1.2,4.053h17.393a7.293,7.293,0,0,0-1.2-4.053A8.28,8.28,0,0,0,135.625,2.877Zm-7.719,3.582a.7.7,0,0,1-.517.217.673.673,0,0,1-.508-.217.75.75,0,0,1,0-1.034.675.675,0,0,1,.508-.216.731.731,0,0,1,.517,1.25Zm7.926,0a.674.674,0,0,1-.508.217.733.733,0,0,1,0-1.467.676.676,0,0,1,.508.216.75.75,0,0,1,0,1.034Z" transform="translate(-118.119 0)" fill="#fff"/>
  <path id="路径_646" data-name="路径 646" d="M123.971,197.974a2.054,2.054,0,0,0,2.068,2.068h1.392l.019,4.269a1.869,1.869,0,0,0,.564,1.373,1.847,1.847,0,0,0,1.354.564,1.926,1.926,0,0,0,1.937-1.937v-4.269H133.9v4.269a1.937,1.937,0,1,0,3.873,0v-4.269h1.41a2.054,2.054,0,0,0,2.05-2.068V185.45H123.971Z" transform="translate(-119.364 -174.958)" fill="#fff"/>
  <path id="路径_647" data-name="路径 647" d="M444.294,179.141a1.863,1.863,0,0,0-1.354.555,1.839,1.839,0,0,0-.564,1.363v8.086a1.867,1.867,0,0,0,.564,1.373,1.847,1.847,0,0,0,1.354.564,1.926,1.926,0,0,0,1.937-1.937v-8.086a1.839,1.839,0,0,0-.564-1.363A1.886,1.886,0,0,0,444.294,179.141Z" transform="translate(-419.755 -169.006)" fill="#fff"/>
</svg>
