<svg xmlns="http://www.w3.org/2000/svg" width="24.103" height="28.219" viewBox="0 0 24.103 28.219">
  <g id="组_4299" data-name="组 4299" transform="translate(-37.336)">
    <path id="路径_12682" data-name="路径 12682" d="M253.279,0a6.622,6.622,0,0,0-4.288,2.321,5.752,5.752,0,0,0-1.4,4.469,5.589,5.589,0,0,0,4.326-2.21A6.209,6.209,0,0,0,253.279,0Z" transform="translate(-198.601)" fill="#ddc4ff"/>
    <path id="路径_12683" data-name="路径 12683" d="M60.623,122.7a7.143,7.143,0,0,0-5.392-2.862c-2.531,0-3.6,1.212-5.36,1.212-1.813,0-3.19-1.208-5.379-1.208A7.319,7.319,0,0,0,38.6,123.4c-2.041,3.164-1.691,9.113,1.616,14.18,1.183,1.813,2.764,3.852,4.831,3.869,1.84.018,2.358-1.18,4.85-1.192s2.965,1.208,4.8,1.189c2.069-.016,3.735-2.275,4.919-4.088a20.332,20.332,0,0,0,1.822-3.422A6.221,6.221,0,0,1,60.623,122.7Z" transform="translate(0 -113.235)" fill="#ddc4ff"/>
  </g>
</svg>
