<svg xmlns="http://www.w3.org/2000/svg" width="11.867" height="9.53" viewBox="0 0 11.867 9.53"><defs><style>.a{fill:#7c56ff;}</style></defs><path class="a" d="M30.691,101.221l-4.049,4.049a.712.712,0,0,1-1.009,0l-.673-.673a.712.712,0,0,1,0-1.009l2.87-2.87-2.87-2.87a.712.712,0,0,1,0-1.009l.67-.679a.712.712,0,0,1,1.009,0l4.049,4.049A.712.712,0,0,1,30.691,101.221Zm5.716-1.012L32.358,96.16a.712.712,0,0,0-1.009,0l-.673.673a.712.712,0,0,0,0,1.009l2.87,2.87-2.87,2.87a.712.712,0,0,0,0,1.009l.673.673a.712.712,0,0,0,1.009,0l4.049-4.049A.708.708,0,0,0,36.407,100.209Z" transform="translate(-24.75 -95.95)"/></svg>