<svg xmlns="http://www.w3.org/2000/svg" width="32.111" height="32.111" viewBox="0 0 32.111 32.111"><g transform="translate(-1816.2 -32.2)"><g transform="translate(1816.2 32.2)" fill="#fff"><path d="M 16.0556640625 30.11132431030273 C 12.3012638092041 30.11132431030273 8.771574020385742 28.64928436279297 6.116814136505127 25.99451446533203 C 3.46204400062561 23.33975410461426 2.000004053115845 19.8100643157959 2.000004053115845 16.0556640625 C 2.000004053115845 12.3012638092041 3.46204400062561 8.771574020385742 6.116814136505127 6.116814136505127 C 8.771574020385742 3.46204400062561 12.3012638092041 2.000004053115845 16.0556640625 2.000004053115845 C 19.8100643157959 2.000004053115845 23.33975410461426 3.46204400062561 25.99451446533203 6.116814136505127 C 28.64928436279297 8.771574020385742 30.11132431030273 12.3012638092041 30.11132431030273 16.0556640625 C 30.11132431030273 19.8100643157959 28.64928436279297 23.33975410461426 25.99451446533203 25.99451446533203 C 23.33975410461426 28.64928436279297 19.8100643157959 30.11132431030273 16.0556640625 30.11132431030273 Z" stroke="none"/><path d="M 16.0556640625 4.000003814697266 C 12.83547401428223 4.000003814697266 9.808034896850586 5.25401496887207 7.531024932861328 7.531024932861328 C 5.25401496887207 9.808034896850586 4.000003814697266 12.83547401428223 4.000003814697266 16.0556640625 C 4.000003814697266 19.27585411071777 5.25401496887207 22.30329513549805 7.531024932861328 24.58030319213867 C 9.808034896850586 26.85731506347656 12.83547401428223 28.11132431030273 16.0556640625 28.11132431030273 C 19.27585411071777 28.11132431030273 22.30329513549805 26.85731506347656 24.58030319213867 24.58030319213867 C 26.85731506347656 22.30329513549805 28.11132431030273 19.27585411071777 28.11132431030273 16.0556640625 C 28.11132431030273 12.83547401428223 26.85731506347656 9.808034896850586 24.58030319213867 7.531024932861328 C 22.30329513549805 5.25401496887207 19.27585411071777 4.000003814697266 16.0556640625 4.000003814697266 M 16.0556640625 3.814697265625e-06 C 24.92296409606934 3.814697265625e-06 32.11132431030273 7.188364028930664 32.11132431030273 16.0556640625 C 32.11132431030273 24.92296409606934 24.92296409606934 32.11132431030273 16.0556640625 32.11132431030273 C 7.188364028930664 32.11132431030273 3.814697265625e-06 24.92296409606934 3.814697265625e-06 16.0556640625 C 3.814697265625e-06 7.188364028930664 7.188364028930664 3.814697265625e-06 16.0556640625 3.814697265625e-06 Z" stroke="none" fill="#ffc400"/></g><path d="M14.633,2A12.633,12.633,0,1,0,27.266,14.633,12.638,12.638,0,0,0,14.633,2Zm1.781,20.327v2.413H13.041V22.3c-2.16-.455-3.992-1.844-4.131-4.3h2.476c.126,1.326,1.036,2.362,3.348,2.362,2.476,0,3.032-1.238,3.032-2.009,0-1.049-.556-2.034-3.373-2.7C11.26,14.9,9.112,13.61,9.112,11.02c0-2.173,1.756-3.588,3.929-4.055V4.527h3.373V6.99a4.466,4.466,0,0,1,3.6,4.283H17.539c-.063-1.4-.809-2.362-2.8-2.362-1.895,0-3.032.859-3.032,2.072,0,1.061.821,1.756,3.373,2.413s5.281,1.756,5.281,4.94c-.013,2.312-1.743,3.575-3.942,3.992Z" transform="translate(1817.589 33.656)" fill="#f80"/></g></svg>