<svg xmlns="http://www.w3.org/2000/svg" width="18.329" height="12.83" viewBox="0 0 18.329 12.83"><defs><style>.a{fill:#b7b7b7;}</style></defs><path class="a" d="M2.749,37.5A1.833,1.833,0,1,0,.916,35.666,1.835,1.835,0,0,0,2.749,37.5Zm12.83,0a1.833,1.833,0,1,0-1.833-1.833A1.835,1.835,0,0,0,15.579,37.5Zm.916.916H14.663a1.827,1.827,0,0,0-1.292.533,4.189,4.189,0,0,1,2.151,3.133h1.89a.915.915,0,0,0,.916-.916v-.916A1.835,1.835,0,0,0,16.5,38.415Zm-7.331,0a3.208,3.208,0,1,0-3.208-3.208A3.206,3.206,0,0,0,9.164,38.415Zm2.2.916h-.238a4.428,4.428,0,0,1-3.923,0H6.965a3.3,3.3,0,0,0-3.3,3.3v.825A1.375,1.375,0,0,0,5.04,44.83h8.248a1.375,1.375,0,0,0,1.375-1.375v-.825A3.3,3.3,0,0,0,11.364,39.331Zm-6.406-.384a1.827,1.827,0,0,0-1.292-.533H1.833A1.835,1.835,0,0,0,0,40.248v.916a.915.915,0,0,0,.916.916H2.8a4.2,4.2,0,0,1,2.154-3.133Z" transform="translate(0 -32)"/></svg>