<svg xmlns="http://www.w3.org/2000/svg" xmlns:xlink="http://www.w3.org/1999/xlink" width="25.916" height="25.916" viewBox="0 0 25.916 25.916"><defs><style>.a{fill:url(#a);}</style><linearGradient id="a" x1="0.5" x2="0.5" y2="1" gradientUnits="objectBoundingBox"><stop offset="0" stop-color="#ffb16d"/><stop offset="0.492" stop-color="#ff437c"/><stop offset="1" stop-color="#a733ff"/></linearGradient></defs><path class="a" d="M5.264,11.338H1.215A1.215,1.215,0,0,0,0,12.553V24.7a1.215,1.215,0,0,0,1.215,1.215H5.264A1.215,1.215,0,0,0,6.479,24.7V12.553A1.215,1.215,0,0,0,5.264,11.338ZM3.24,23.891a1.215,1.215,0,1,1,1.215-1.215A1.215,1.215,0,0,1,3.24,23.891Zm16.2-19.768c0,2.147-1.315,3.351-1.684,4.786H22.9a3.024,3.024,0,0,1,3.014,2.941,3.665,3.665,0,0,1-.984,2.49l-.006.006a4.228,4.228,0,0,1-.471,4.023,4,4,0,0,1-.829,3.784,2.687,2.687,0,0,1-.311,2.259c-1.033,1.484-3.594,1.505-5.759,1.505h-.144A14.531,14.531,0,0,1,11.36,24.31,7.966,7.966,0,0,0,8.7,23.491a.608.608,0,0,1-.6-.607V12.064a.607.607,0,0,1,.18-.431c2.005-1.981,2.867-4.079,4.511-5.725a6.13,6.13,0,0,0,1.285-2.981C14.3,1.989,14.771,0,15.793,0,17.007,0,19.437.4,19.437,4.123Z"/></svg>