<svg xmlns="http://www.w3.org/2000/svg" width="44.459" height="41.044" viewBox="0 0 44.459 41.044"><defs><style>.a{fill:#000;}</style></defs><g transform="translate(1857.732 -244.048)"><path class="a" d="M-1815.91,292.017l-4.115,4.115v-18a1.127,1.127,0,0,0-1.127-1.127,1.127,1.127,0,0,0-1.127,1.127v18l-4.115-4.115a1.127,1.127,0,0,0-1.594,0,1.126,1.126,0,0,0,0,1.594l6.835,6.835,6.835-6.835a1.127,1.127,0,0,0,0-1.594A1.127,1.127,0,0,0-1815.91,292.017Z" transform="translate(-13.706 -15.354)"/><path class="a" d="M-1821.211,255.479a12.7,12.7,0,0,0-12.622-11.431,12.746,12.746,0,0,0-11.5,7.351,8.376,8.376,0,0,0-7.263,4.932,9.143,9.143,0,0,0-5.139,8.237,9.181,9.181,0,0,0,9.171,9.171h5.47v-2.67h-5.47a6.508,6.508,0,0,1-6.5-6.5,6.484,6.484,0,0,1,4.015-6.006l.541-.224.2-.55a5.693,5.693,0,0,1,5.323-3.726c.142,0,.281.012.43.023l1,.075.352-.938a10.057,10.057,0,0,1,9.367-6.5,10.025,10.025,0,0,1,10.014,10.013v1.335h1.376a6.508,6.508,0,0,1,6.5,6.5,6.508,6.508,0,0,1-6.5,6.5h-4.18v2.67h4.18a9.182,9.182,0,0,0,9.171-9.171A9.186,9.186,0,0,0-1821.211,255.479Z" transform="translate(0)"/></g></svg>
