<svg xmlns="http://www.w3.org/2000/svg" width="18.51" height="24" viewBox="0 0 18.51 24"><defs><style>.a{fill:#24c148;}.b{fill:#fff;}</style></defs><g transform="translate(-828.462 -2843.886)"><path class="a" d="M9.255,0,0,4.2v7.617A9.415,9.415,0,0,0,1.434,16.6a18,18,0,0,0,3.058,3.76A30.258,30.258,0,0,0,9.255,24a30.261,30.261,0,0,0,4.762-3.637,18.008,18.008,0,0,0,3.059-3.76,9.414,9.414,0,0,0,1.434-4.781V4.2Z" transform="translate(828.462 2843.886)"/><path class="b" d="M11.429,2.01,5.542,7.9a1.177,1.177,0,0,1-1.665,0L.345,4.364A1.177,1.177,0,0,1,2.01,2.7l2.7,2.7L9.764.345A1.177,1.177,0,1,1,11.429,2.01Zm0,0" transform="matrix(1, 0.017, -0.017, 1, 832.808, 2850.837)"/></g></svg>