<svg xmlns="http://www.w3.org/2000/svg" xmlns:xlink="http://www.w3.org/1999/xlink" width="73" height="73" viewBox="0 0 73 73"><defs><style>.a{fill:url(#a);}</style><linearGradient id="a" x1="0.5" x2="0.5" y2="1" gradientUnits="objectBoundingBox"><stop offset="0" stop-color="#ffb16d"/><stop offset="0.492" stop-color="#ff437c"/><stop offset="1" stop-color="#a733ff"/></linearGradient></defs><path class="a" d="M119.154,0a22.756,22.756,0,0,0-13.593,41.006v1.9a6.706,6.706,0,0,0-.48,9.629,6.714,6.714,0,0,0,2.923,11,11.3,11.3,0,0,0,22.3,0,6.715,6.715,0,0,0,2.923-11,6.7,6.7,0,0,0-.481-9.629v-1.9A22.756,22.756,0,0,0,119.154,0Zm9.163,45.511a2.443,2.443,0,0,1,0,4.886H109.991a2.443,2.443,0,1,1,0-4.886Zm-9.163,23.212a7.038,7.038,0,0,1-6.692-4.886h13.384A7.037,7.037,0,0,1,119.154,68.723Zm9.163-9.163H109.991a2.443,2.443,0,1,1,0-4.885h18.326a2.443,2.443,0,0,1,0,4.885Zm1.1-21.437a2.139,2.139,0,0,0-.949,1.777v1.338c-.051,0-.1,0-.152,0h-2.443V32.8l3.071-3.071a2.139,2.139,0,1,0-3.024-3.025l-3.7,3.7a2.138,2.138,0,0,0-.626,1.512v9.315h-4.886V31.919a2.139,2.139,0,0,0-.626-1.512l-3.7-3.7a2.139,2.139,0,1,0-3.024,3.025l3.071,3.071v8.429h-2.443c-.051,0-.1,0-.153,0V39.9a2.139,2.139,0,0,0-.949-1.777,18.478,18.478,0,1,1,20.529,0Zm0,0" transform="translate(-82.654 0)"/><path class="a" d="M8.859,146.741A2.138,2.138,0,0,0,6.72,144.6H2.139a2.139,2.139,0,1,0,0,4.277H6.72A2.139,2.139,0,0,0,8.859,146.741Zm0,0" transform="translate(0 -123.985)"/><path class="a" d="M456.587,144.6h-4.581a2.139,2.139,0,1,0,0,4.277h4.581a2.139,2.139,0,1,0,0-4.277Zm0,0" transform="translate(-385.726 -123.985)"/><path class="a" d="M37.322,249.318l-3.968,2.291a2.139,2.139,0,1,0,2.139,3.7l3.968-2.29a2.139,2.139,0,1,0-2.139-3.7Zm0,0" transform="translate(-27.682 -213.525)"/><path class="a" d="M424.023,30.668a2.13,2.13,0,0,0,1.067-.287l3.968-2.291a2.138,2.138,0,1,0-2.139-3.7l-3.968,2.291a2.139,2.139,0,0,0,1.071,3.991Zm0,0" transform="translate(-361.73 -20.663)"/><path class="a" d="M429.056,251.612l-3.968-2.29a2.139,2.139,0,1,0-2.139,3.7l3.968,2.29a2.139,2.139,0,0,0,2.138-3.7Zm0,0" transform="translate(-361.729 -213.528)"/><path class="a" d="M39.464,26.677,35.5,24.387a2.139,2.139,0,0,0-2.139,3.7l3.968,2.291a2.139,2.139,0,0,0,2.139-3.7Zm0,0" transform="translate(-27.684 -20.664)"/></svg>