<svg xmlns="http://www.w3.org/2000/svg" width="11.348" height="11.348" viewBox="0 0 11.348 11.348"><defs><style>.a{fill:#ff1919;}.b{fill:#fff;}</style></defs><g transform="translate(-0.081)"><path class="a" d="M5.674,0A5.674,5.674,0,1,1,0,5.674,5.674,5.674,0,0,1,5.674,0Z" transform="translate(0.081)"/><path class="b" d="M4.79,2.737A1.369,1.369,0,1,0,3.422,1.369,1.368,1.368,0,0,0,4.79,2.737ZM1.711,2.053V1.026H1.026V2.053H0v.684H1.026V3.764h.684V2.737H2.737V2.053ZM4.79,3.422c-.914,0-2.737.458-2.737,1.369v.684H7.528V4.79C7.528,3.88,5.7,3.422,4.79,3.422Z" transform="translate(2.081 3.001)"/></g></svg>