<svg xmlns="http://www.w3.org/2000/svg" width="64" height="64" viewBox="0 0 64 64"><defs><style>.a{fill:#fff;}.b{fill:#f1bf1d;}</style></defs><g transform="translate(-75 -635)"><circle class="a" cx="32" cy="32" r="32" transform="translate(75 635)"/><g transform="translate(90.921 649.34)"><g transform="translate(0.75 0)"><path class="b" d="M14.811,115.9a13.591,13.591,0,0,1,10.724-5.222,13.912,13.912,0,0,1,1.925.133V107.9c-1.969,1.77-7.073,3.031-13.07,3.031-5.96,0-11.049-1.247-13.04-3.009v3.74C2.346,115.74,14.671,115.9,14.811,115.9Z" transform="translate(-1.306 -99.942)"/><path class="b" d="M1.157,198.5l-.007,3.8c.479,2.109,4.927,3.821,10.688,4.2a13.407,13.407,0,0,1,1.652-4.986C7.832,201.413,3.06,200.2,1.157,198.5Z" transform="translate(-1.12 -183.859)"/><path class="b" d="M1.057,290l-.007,3.614a.48.48,0,0,1,.066-.059c.14,2.331,5.119,4.241,11.514,4.514a13.5,13.5,0,0,1-.988-5.1v-.007C6.759,292.655,2.754,291.519,1.057,290Z" transform="translate(-1.028 -268.61)"/><path class="b" d="M13.386,383.613c-5.768-.1-10.614-1.372-12.428-3.113L.95,383.908c0,2.567,5.849,4.647,13.07,4.647a35.527,35.527,0,0,0,3.953-.214A13.73,13.73,0,0,1,13.386,383.613Z" transform="translate(-0.935 -352.435)"/><ellipse class="b" cx="13.085" cy="4.639" rx="13.085" ry="4.639" transform="translate(0)"/><path class="b" d="M181.144,170.2a11.79,11.79,0,1,0,11.794,11.787A11.795,11.795,0,0,0,181.144,170.2Zm1.077,18.085v.745a1.077,1.077,0,1,1-2.154,0v-.745a3.817,3.817,0,0,1-1.667-1.025,1.08,1.08,0,0,1,.044-1.519,1.1,1.1,0,0,1,1.519.044,2.27,2.27,0,0,0,1.291.5,1.614,1.614,0,0,0-.111-3.223,3.763,3.763,0,0,1-1.077-7.368v-.745a1.077,1.077,0,0,1,2.154,0v.745a3.816,3.816,0,0,1,1.667,1.025,1.08,1.08,0,0,1-.044,1.519,1.047,1.047,0,0,1-1.519-.044,1.849,1.849,0,0,0-1.291-.5,1.614,1.614,0,0,0,.111,3.223,3.763,3.763,0,0,1,1.077,7.368Z" transform="translate(-156.914 -157.646)"/></g></g></g></svg>