<svg xmlns="http://www.w3.org/2000/svg" width="60" height="60" viewBox="0 0 60 60"><g transform="translate(-1740.14 -15571.25)"><path d="M60,30A30,30,0,1,1,30,0,29.995,29.995,0,0,1,60,30ZM42.629,26.5l-8.758,9.133V13.548a2.9,2.9,0,0,0-2.9-2.9H29.032a2.9,2.9,0,0,0-2.9,2.9V35.637L17.371,26.5a2.906,2.906,0,0,0-4.149-.048L11.9,27.786a2.891,2.891,0,0,0,0,4.1L27.944,47.94a2.891,2.891,0,0,0,4.1,0L48.1,31.887a2.891,2.891,0,0,0,0-4.1l-1.319-1.331a2.906,2.906,0,0,0-4.149.048Z" transform="translate(1800.14 15631.25) rotate(180)" fill="#b2b2b2" opacity="0.45"/></g></svg>