<svg xmlns="http://www.w3.org/2000/svg" width="17.521" height="17.522" viewBox="0 0 17.521 17.522"><defs><style>.a{fill:#ffdb4b;}</style></defs><path class="a" d="M16.761,8a8.761,8.761,0,1,0,8.761,8.761A8.761,8.761,0,0,0,16.761,8Zm0,1.7A7.065,7.065,0,1,1,9.7,16.761,7.061,7.061,0,0,1,16.761,9.7m4.953,4.6-.8-.8a.424.424,0,0,0-.6,0l-4.993,4.953-2.112-2.129a.424.424,0,0,0-.6,0l-.8.8a.424.424,0,0,0,0,.6l3.207,3.233a.424.424,0,0,0,.6,0l6.1-6.048A.424.424,0,0,0,21.714,14.3Z" transform="translate(-8 -8)"/></svg>