<svg xmlns="http://www.w3.org/2000/svg" width="36" height="36" viewBox="0 0 36.322 35.993"><defs><style>.a{fill:#fff;}</style></defs><path class="a" d="M12357.241,282.4a3.594,3.594,0,1,1,3.586,3.6A3.6,3.6,0,0,1,12357.241,282.4Zm-18.016,0a3.593,3.593,0,1,1,3.584,3.6A3.595,3.595,0,0,1,12339.226,282.4Zm3.584-5.4a3.611,3.611,0,0,1-3.6-3.6,3.5,3.5,0,0,1,.449-1.729l2.433-4.409-6.485-13.66h-3.6V250h5.89l1.692,3.6,1.714,3.6,4.034,8.512.235.485h12.648l4.974-9,1.981-3.6h.017l3.137,1.726-6.955,12.618a3.586,3.586,0,0,1-3.153,1.851h-13.423l-1.622,2.934-.055.218a.46.46,0,0,0,.45.45h20.864V277Zm5.012-13.87-1.436-3.512h11.721l-1.982,3.512Zm-2.638-6.146-1.435-3.512h17.482l-1.981,3.512Z" transform="translate(-12332.001 -250.001)"/></svg>
