<svg xmlns="http://www.w3.org/2000/svg" width="25.984" height="25.984" viewBox="0 0 25.984 25.984"><defs><style>.a{fill:#fbe77b;}.b{fill:#ffaf37;}.c{fill:#fb636f;}.d{fill:#fa4954;}.e{fill:#fcdd2e;}</style></defs><g transform="translate(0.739)"><path class="a" d="M24.709,3.274S21.435,0,17.632,0a2.794,2.794,0,0,0-3.063,2.958A2.707,2.707,0,0,0,17.1,5.915h7.605Z" transform="translate(-14.569)"/><path class="b" d="M24.709,3.274S21.435,0,17.632,0a2.794,2.794,0,0,0-3.063,2.958A2.707,2.707,0,0,0,17.1,5.915h7.605Z" transform="translate(-14.569)"/><path class="b" d="M297.626,3.274S300.9,0,304.7,0a2.794,2.794,0,0,1,3.063,2.958,2.707,2.707,0,0,1-2.535,2.958h-7.605Z" transform="translate(-283.261)"/></g><path class="c" d="M24.969,120.778H1.015A1.015,1.015,0,0,1,0,119.763v-2.2a1.015,1.015,0,0,1,1.015-1.015H24.969a1.015,1.015,0,0,1,1.015,1.015v2.2A1.015,1.015,0,0,1,24.969,120.778Z" transform="translate(0 -110.638)"/><path class="d" d="M484.943,116.552v4.225h.328a1.046,1.046,0,0,0,1.046-1.046V117.6a1.046,1.046,0,0,0-1.046-1.046h-.328Z" transform="translate(-460.332 -110.637)"/><path class="a" d="M193.561,116.553H199.9v4.225h-6.338Z" transform="translate(-183.738 -110.638)"/><path class="c" d="M49.28,215.649H28.072a1.015,1.015,0,0,1-1.015-1.015V199.8H50.3v14.829A1.015,1.015,0,0,1,49.28,215.649Z" transform="translate(-25.684 -189.665)"/><path class="d" d="M27.057,199.8H50.3v1.268H27.057Z" transform="translate(-25.684 -189.665)"/><path class="a" d="M214.374,199.8H218.6v15.844h-4.225Z" transform="translate(-203.494 -189.665)"/><path class="e" d="M214.374,199.8H218.6v1.268h-4.225Z" transform="translate(-203.494 -189.665)"/><path class="e" d="M299.1,50.8a.528.528,0,0,1-.488-.326c.136-.05.283-.1.436-.142a.392.392,0,0,0-.213-.755c-.09.025-.178.053-.263.081V48.393a11.331,11.331,0,0,0-.951.818v2.641h7.605a2.325,2.325,0,0,0,1.977-1.056Z" transform="translate(-282.52 -45.937)"/><path class="e" d="M34.2,48.393v1.261c-.085-.028-.173-.055-.263-.081a.392.392,0,0,0-.213.755c.152.043.3.092.436.142a.528.528,0,0,1-.488.325h-8.1a2.325,2.325,0,0,0,1.977,1.056h7.605V49.211A11.337,11.337,0,0,0,34.2,48.393Z" transform="translate(-24.271 -45.937)"/><path class="b" d="M218.6,53.331h-4.225v-2.67a.711.711,0,0,1,.711-.711h2.8a.711.711,0,0,1,.711.711Z" transform="translate(-203.494 -47.416)"/><path class="e" d="M214.374,95.74H218.6V96.8h-4.225Z" transform="translate(-203.494 -90.881)"/></svg>