<svg xmlns="http://www.w3.org/2000/svg" width="11.348" height="11.348" viewBox="0 0 11.348 11.348"><defs><style>.a{fill:#ff6363;}.b{fill:#fff;}</style></defs><path class="a" d="M5.674,0A5.674,5.674,0,1,1,0,5.674,5.674,5.674,0,0,1,5.674,0Z"/><path class="b" d="M5,8.3a.781.781,0,0,1-.434-.2C3.019,6.7,2,5.78,2,4.648A1.632,1.632,0,0,1,3.648,3,1.794,1.794,0,0,1,5,3.626,1.794,1.794,0,0,1,6.344,3,1.632,1.632,0,0,1,7.991,4.648C7.991,5.78,6.973,6.7,5.43,8.1A.775.775,0,0,1,5,8.3Z" transform="translate(0.75 0.481)"/></svg>