<svg xmlns="http://www.w3.org/2000/svg" width="36" height="36" viewBox="0 0 41.322 40.993"><defs><style>.a{fill:#2a2a2a;}</style></defs><path class="a" d="M12360.716,286.9a4.089,4.089,0,1,1,4.08,4.1A4.095,4.095,0,0,1,12360.716,286.9Zm-20.5,0a4.088,4.088,0,1,1,4.077,4.1A4.092,4.092,0,0,1,12340.221,286.9Zm4.077-6.148a4.11,4.11,0,0,1-4.1-4.1,3.987,3.987,0,0,1,.512-1.969l2.768-5.021L12336.1,254.1h-4.1V250h6.7l1.925,4.1,1.95,4.1,4.59,9.695.268.553h14.39l5.658-10.247,2.254-4.1h.019l3.568,1.966-7.912,14.371a4.078,4.078,0,0,1-3.587,2.108h-15.271l-1.845,3.341-.062.248a.524.524,0,0,0,.513.512h23.736v4.1Zm5.7-15.8-1.633-4h13.334l-2.255,4Zm-3-7-1.633-4h19.89l-2.255,4Z" transform="translate(-12332.001 -250.001)"/></svg>
