<svg id="_1" xmlns="http://www.w3.org/2000/svg" viewBox="0 0 100 100" width="200" height="200"><g style="transform-origin:50% 50%;transform:scale(.8)"><g style="transform-origin:50px 50px;transform:matrix(1,0,0,1,0,0);animation:1s linear -1s infinite normal forwards running bounce-4a226a58-420c-4a1d-a9fe-6078f1e12117"><path d="M30 72.889c-8.09 0-14.648-4.099-14.648-9.156v19.611c0 5.057 6.558 9.156 14.648 9.156s14.648-4.099 14.648-9.156V63.733c0 5.057-6.558 9.156-14.648 9.156z" fill="#f8b26a" style="fill:#f8b26a"/><ellipse cx="30" cy="63.733" rx="14.648" ry="9.156" fill="#f47e60" style="fill:#f47e60"/></g><g style="transform-origin:50px 50px;transform:matrix(1,0,0,1,0,0);animation:1s linear -.945s infinite normal forwards running bounce-4a226a58-420c-4a1d-a9fe-6078f1e12117"><path d="M70 51.889c-8.09 0-14.648-4.099-14.648-9.156v40.611c0 5.057 6.558 9.156 14.648 9.156s14.648-4.099 14.648-9.156V42.733c0 5.057-6.558 9.156-14.648 9.156z" fill="#a0c8d7" style="fill:#a0c8d7"/><ellipse cx="70" cy="42.733" rx="14.648" ry="9.156" fill="#77a4bd" style="fill:#77a4bd"/></g><g style="transform-origin:50px 50px;transform:matrix(1,0,0,1,0,0);animation:1s linear -.89s infinite normal forwards running bounce-4a226a58-420c-4a1d-a9fe-6078f1e12117"><path d="M30 25.812c-8.09 0-14.648-4.099-14.648-9.156v38.077c0 5.057 6.558 9.156 14.648 9.156s14.648-4.099 14.648-9.156V16.656c0 5.057-6.558 9.156-14.648 9.156z" fill="rgba(255,255,255,.804)" style="fill:rgba(255, 255, 255, 0.804)"/><ellipse cx="30" cy="16.656" rx="14.648" ry="9.156" fill="#ccc" style="fill:#ccc"/></g><g style="transform-origin:50px 50px;transform:matrix(1,0,0,1,0,0);animation:1s linear -.835s infinite normal forwards running bounce-4a226a58-420c-4a1d-a9fe-6078f1e12117"><path d="M70 25.812c-8.09 0-14.648-4.099-14.648-9.156v17.077c0 5.057 6.558 9.156 14.648 9.156s14.648-4.099 14.648-9.156V16.656c0 5.057-6.558 9.156-14.648 9.156z" fill="rgba(255,255,255,.804)" style="fill:rgba(255, 255, 255, 0.804)"/><ellipse cx="70" cy="16.656" rx="14.648" ry="9.156" fill="#ccc" style="fill:#ccc"/></g></g><style id="bounce-4a226a58-420c-4a1d-a9fe-6078f1e12117">@keyframes bounce-4a226a58-420c-4a1d-a9fe-6078f1e12117{0%{animation-timing-function:cubic-bezier(.1361,.2514,.2175,.8786);transform:translate(0,0) scaleY(1)}37%{animation-timing-function:cubic-bezier(.7674,.1844,.8382,.7157);transform:translate(0,-11.988px) scaleY(1)}72%{animation-timing-function:cubic-bezier(.2491,.4828,.4773,.9595);transform:translate(0,0) scaleY(1)}87%{animation-timing-function:cubic-bezier(.5084,.1576,.7399,.5564);transform:translate(0,4.257px) scaleY(.871)}to{transform:translate(0,0) scaleY(1)}}</style><style id="bounce-4a226a58-420c-4a1d-a9fe-6078f1e12117">@keyframes bounce-4a226a58-420c-4a1d-a9fe-6078f1e12117{0%{animation-timing-function:cubic-bezier(.1361,.2514,.2175,.8786);transform:translate(0,0) scaleY(1)}37%{animation-timing-function:cubic-bezier(.7674,.1844,.8382,.7157);transform:translate(0,-11.988px) scaleY(1)}72%{animation-timing-function:cubic-bezier(.2491,.4828,.4773,.9595);transform:translate(0,0) scaleY(1)}87%{animation-timing-function:cubic-bezier(.5084,.1576,.7399,.5564);transform:translate(0,4.257px) scaleY(.871)}to{transform:translate(0,0) scaleY(1)}}</style></svg>
