<svg xmlns="http://www.w3.org/2000/svg" xmlns:xlink="http://www.w3.org/1999/xlink" width="40" height="40" viewBox="0 0 40 40"><defs><style>.a{fill:url(#a);}.b{fill:#fff;}</style><radialGradient id="a" cx="0.5" cy="1" r="0.991" gradientTransform="matrix(0.999, 0.033, -0.033, 0.999, 0.033, -0.016)" gradientUnits="objectBoundingBox"><stop offset="0" stop-color="#ffaa01"/><stop offset="1" stop-color="#ff3b3b"/></radialGradient></defs><g transform="translate(-360 -460.553)"><path class="a" d="M10.357,0H29.643A10.357,10.357,0,0,1,40,10.357V29.643A10.357,10.357,0,0,1,29.643,40H10.357A10.357,10.357,0,0,1,0,29.643V10.357A10.357,10.357,0,0,1,10.357,0Z" transform="translate(360 460.553)"/><g transform="translate(369.71 470.362)"><g transform="translate(0 0)"><path class="b" d="M131.828,95.829a5.747,5.747,0,1,0,5.742-5.5A5.626,5.626,0,0,0,131.828,95.829ZM127.282,109.576ZM127.282,109.542ZM127.282,109.533Zm20.576.07Zm0-.013ZM127.282,109.6Zm15.5-7.1-.471,0a1.478,1.478,0,0,0-.562.135,7.68,7.68,0,0,1-.721.348,9.221,9.221,0,0,1-6.875.009c-.349-.143-.734-.356-.734-.356a1.316,1.316,0,0,0-.562-.135l-.467,0a5.794,5.794,0,0,0-4.423,3.567,8.9,8.9,0,0,0-.689,3.463,1.044,1.044,0,0,0,.567.839s3.2,1.973,9.717,1.973,9.717-1.973,9.717-1.973a1.116,1.116,0,0,0,.566-.847,8.641,8.641,0,0,0-.666-3.406,5.77,5.77,0,0,0-4.4-3.615Zm5.076,7.039Zm0,.03Z" transform="translate(-127.277 -90.324)"/></g></g><path class="b" d="M3.184,5.638a.83.83,0,0,1-.462-.215C1.083,3.936,0,2.955,0,1.751A1.734,1.734,0,0,1,1.751,0,1.907,1.907,0,0,1,3.184.665,1.907,1.907,0,0,1,4.617,0,1.734,1.734,0,0,1,6.368,1.751c0,1.2-1.083,2.184-2.722,3.674A.823.823,0,0,1,3.184,5.638Z" transform="matrix(0.875, 0.485, -0.485, 0.875, 389.506, 465.493)"/></g></svg>