<svg xmlns="http://www.w3.org/2000/svg" width="32" height="32" viewBox="0 0 32 32">
  <defs>
    <style>
      .cls-1 {
        fill: #eb4c44;
      }

      .cls-1, .cls-2, .cls-3, .cls-4, .cls-5 {
        fill-rule: evenodd;
      }

      .cls-2 {
        fill: #ef8b42;
      }

      .cls-3 {
        fill: #a42dba;
      }

      .cls-4 {
        fill: #7c35ca;
      }

      .cls-5 {
        fill: #eb4e27;
      }

      .cls-6 {
        fill: none;
      }

      .cls-7, .cls-9 {
        fill: #fff;
      }

      .cls-8, .cls-9 {
        stroke: none;
      }
    </style>
  </defs>
  <g id="logo_getinsta_b" transform="translate(1640 333)">
    <path id="矩形_1" data-name="矩形 1" class="cls-1" d="M29.151,2.186,2.97,28.5A7.461,7.461,0,0,1,.531,22.97V15.089L15.734-.188h7.953a7.458,7.458,0,0,1,5.465,2.374Z" transform="translate(-1639.754 -331.858)"/>
    <path id="矩形_1_拷贝_4" data-name="矩形 1 拷贝 4" class="cls-2" d="M.531,15.917V7.567A7.754,7.754,0,0,1,8.285-.187h8.273Z" transform="translate(-1639.754 -331.859)"/>
    <path id="矩形_1_拷贝_5" data-name="矩形 1 拷贝 5" class="cls-3" d="M88.6,100.6h-8.38a7.452,7.452,0,0,1-5.251-2.155l26.183-26.311a7.455,7.455,0,0,1,2.217,5.314v8.31Z" transform="translate(-1711.882 -401.942)"/>
    <path id="矩形_1_拷贝_6" data-name="矩形 1 拷贝 6" class="cls-4" d="M535.846,540.568h-7.64L543.6,525.1v7.714A7.754,7.754,0,0,1,535.846,540.568Z" transform="translate(-2152.114 -841.905)"/>
    <g id="组_197" data-name="组 197" transform="translate(-1640 -333)">
      <path id="follow_拷贝" data-name="follow 拷贝" class="cls-5" d="M240.43,227.517H240.4a.845.845,0,0,1-.841.786H225.672c-.023,0-.045.007-.068.007a.78.78,0,0,1-.667-.377.835.835,0,0,1-.049-.868,7.847,7.847,0,0,1,4.639-5.99,5.492,5.492,0,1,1,6.2,0A7.849,7.849,0,0,1,240.43,227.517Z" transform="translate(-216.727 -203.465)"/>
      <g id="减去_8" data-name="减去 8" class="cls-6">
        <path class="cls-8" d="M24,32H8a8.009,8.009,0,0,1-8-8V8A8.009,8.009,0,0,1,8,0H24a8.009,8.009,0,0,1,8,8V24A8.009,8.009,0,0,1,24,32ZM8,2A6.007,6.007,0,0,0,2,8V24a6.007,6.007,0,0,0,6,6H24a6.006,6.006,0,0,0,6-6V8a6.007,6.007,0,0,0-6-6Z"/>
        <path class="cls-9" d="M 24.00029945373535 32.00040054321289 L 8.000100135803223 32.00040054321289 C 3.588830232620239 32.00040054321289 2.716064386731887e-07 28.41156959533691 2.716064386731887e-07 24.00029945373535 L 2.716064386731887e-07 8.000100135803223 C 2.716064386731887e-07 3.588830232620239 3.588830232620239 2.716064386731887e-07 8.000100135803223 2.716064386731887e-07 L 24.00029945373535 2.716064386731887e-07 C 28.41156959533691 2.716064386731887e-07 32.00040054321289 3.588830232620239 32.00040054321289 8.000100135803223 L 32.00040054321289 24.00029945373535 C 32.00040054321289 28.41156959533691 28.41156959533691 32.00040054321289 24.00029945373535 32.00040054321289 Z M 8.000100135803223 1.999800324440002 C 4.691520214080811 1.999800324440002 1.999800324440002 4.691520214080811 1.999800324440002 8.000100135803223 L 1.999800324440002 24.00029945373535 C 1.999800324440002 27.30838012695313 4.691520214080811 29.99970054626465 8.000100135803223 29.99970054626465 L 24.00029945373535 29.99970054626465 C 27.30838012695313 29.99970054626465 29.99970054626465 27.30838012695313 29.99970054626465 24.00029945373535 L 29.99970054626465 8.000100135803223 C 29.99970054626465 4.691520214080811 27.30838012695313 1.999800324440002 24.00029945373535 1.999800324440002 L 8.000100135803223 1.999800324440002 Z"/>
      </g>
      <path id="联合_9" data-name="联合 9" class="cls-7" d="M.1,19.629a.9.9,0,0,1-.095-.4,1.517,1.517,0,0,1,.043-.407,8.378,8.378,0,0,1,4.934-6.359A5.836,5.836,0,0,1,8.233,1.83,5.836,5.836,0,0,1,11.49,12.466,8.288,8.288,0,0,1,16.408,19.3H16.4a.892.892,0,0,1-.885.832H.932a.743.743,0,0,1-.077.008A.823.823,0,0,1,.1,19.629Zm1.793-1.295H14.576a6.6,6.6,0,0,0-5.99-4.864c-.117.007-.234.011-.353.011s-.235,0-.352-.011A6.6,6.6,0,0,0,1.889,18.334ZM4.109,7.658A4.123,4.123,0,1,0,8.232,3.5,4.141,4.141,0,0,0,4.109,7.658ZM15.7,4V2.6H14.315V1.4H15.7V0h1.186V1.4H18.27V2.6H16.886V4Z" transform="translate(7.624 5.119)"/>
    </g>
  </g>
</svg>
