<svg xmlns="http://www.w3.org/2000/svg" width="100" height="100" viewBox="0 0 100 100"><defs><style>.a{fill:#eb4c44;}.a,.b,.c,.d,.e,.f{fill-rule:evenodd;}.b{fill:#ef8b42;}.c{fill:#a42dba;}.d{fill:#7c35ca;}.e{fill:#eb4e27;}.f{fill:#fff;}</style></defs><g transform="translate(-0.531 0.188)"><g transform="translate(0.531 -0.188)"><path class="a" d="M93.7,7.539,8.47,93.189A24.287,24.287,0,0,1,.531,75.2V49.545L50.022-.188h25.89A24.279,24.279,0,0,1,93.7,7.539Z" transform="translate(-0.531 0.188)"/><path class="b" d="M.531,52.471v-27.3A25.355,25.355,0,0,1,25.886-.187H52.937Z" transform="translate(-0.531 0.187)"/><path class="c" d="M119.342,164.8H92.061a24.26,24.26,0,0,1-17.093-7.014L160.2,72.139a24.267,24.267,0,0,1,7.218,17.3v27.052Z" transform="translate(-67.419 -64.804)"/><path class="d" d="M553.188,575.678H528.206L578.542,525.1v25.224A25.354,25.354,0,0,1,553.188,575.678Z" transform="translate(-478.542 -475.678)"/></g><g transform="translate(21.346 17.512)"><path class="e" d="M281.715,271H281.6a3.077,3.077,0,0,1-3.061,2.861H228c-.083.007-.162.025-.247.025a2.839,2.839,0,0,1-2.427-1.374,3.04,3.04,0,0,1-.178-3.16,28.562,28.562,0,0,1,16.885-21.8,19.989,19.989,0,1,1,22.553,0A28.57,28.57,0,0,1,281.715,271Z" transform="translate(-224.79 -209.25)"/><path class="f" d="M283.366,254.992h-.025a3.162,3.162,0,0,1-3.149,2.939H228.263c-.092.009-.181.028-.276.028a2.93,2.93,0,0,1-2.7-1.8,3.137,3.137,0,0,1-.338-1.4,5.3,5.3,0,0,1,.155-1.435,29.6,29.6,0,0,1,17.569-22.441,20.552,20.552,0,1,1,23.187,0A29.266,29.266,0,0,1,283.366,254.992Zm-14.431-41.078A14.68,14.68,0,1,0,254.253,228.6a14.68,14.68,0,0,0,14.681-14.684Zm-13.419,20.509c-.416.025-.834.042-1.256.042s-.838-.017-1.253-.042a23.462,23.462,0,0,0-21.337,17.164h45.176A23.451,23.451,0,0,0,255.516,234.424Z" transform="translate(-224.928 -193.352)"/></g><path class="f" d="M758.534,121.871h-4.928v4.939h-4.224v-4.939h-4.928v-4.233h4.928V112.7h4.224v4.939h4.928v4.233Z" transform="translate(-672.328 -101.439)"/></g></svg>