<svg xmlns="http://www.w3.org/2000/svg" xmlns:xlink="http://www.w3.org/1999/xlink" width="75.964" height="75.964" viewBox="0 0 75.964 75.964"><defs><clipPath id="a"><path d="M43.57,45.258h-.019a2.138,2.138,0,0,1-4.261,0h-.04A17.015,17.015,0,0,0,23.2,30.478q-.463.029-.933.029c-.314,0-.623-.011-.931-.029A17.058,17.058,0,0,0,5.663,43.247H34.629a2.085,2.085,0,0,1,2.085,2.085v.144a2.085,2.085,0,0,1-2.085,2.085H3.061A2.085,2.085,0,0,1,.976,45.476v-.144c0-.025,0-.05,0-.075H.974c0-.033.007-.066.011-.1S.99,45.1.994,45.07a21.15,21.15,0,0,1,12.82-17.138,14.7,14.7,0,0,1-6.53-12.2,14.983,14.983,0,0,1,29.963,0,14.7,14.7,0,0,1-6.525,12.195A21.168,21.168,0,0,1,43.46,44.36a2.08,2.08,0,0,1,.077.559l.019.2v.02C43.561,45.176,43.565,45.217,43.57,45.258ZM32.964,15.739a10.7,10.7,0,1,0-10.7,10.552A10.627,10.627,0,0,0,32.964,15.739Z" transform="translate(-0.974 -0.961)" fill="#fff" clip-rule="evenodd"/></clipPath></defs><g transform="translate(-554 -898)"><g transform="translate(554 898)" fill="#fff"><path d="M 56.9732666015625 74.96435546875 L 18.9910888671875 74.96435546875 C 14.1855001449585 74.96435546875 9.667532920837402 73.09295654296875 6.269466400146484 69.69488525390625 C 2.871399879455566 66.29682159423828 0.9999999403953552 61.77885437011719 0.9999999403953552 56.9732666015625 L 0.9999999403953552 18.9910888671875 C 0.9999999403953552 14.1855001449585 2.871399879455566 9.667532920837402 6.269466400146484 6.269466400146484 C 9.667532920837402 2.871399879455566 14.1855001449585 0.9999999403953552 18.9910888671875 0.9999999403953552 L 56.9732666015625 0.9999999403953552 C 61.77885437011719 0.9999999403953552 66.29682159423828 2.871399879455566 69.69488525390625 6.269466400146484 C 73.09295654296875 9.667532920837402 74.96435546875 14.1855001449585 74.96435546875 18.9910888671875 L 74.96435546875 56.9732666015625 C 74.96435546875 61.77885437011719 73.09295654296875 66.29682159423828 69.69488525390625 69.69488525390625 C 66.29682159423828 73.09295654296875 61.77885437011719 74.96435546875 56.9732666015625 74.96435546875 Z" stroke="none"/><path d="M 18.9910888671875 2 C 14.45259857177734 2 10.18576812744141 3.767379760742188 6.976577758789063 6.976577758789063 C 3.767379760742188 10.18576812744141 2 14.45259857177734 2 18.9910888671875 L 2 56.9732666015625 C 2 61.51175689697266 3.767379760742188 65.77858734130859 6.976577758789063 68.98777770996094 C 10.18576812744141 72.19697570800781 14.45259857177734 73.96435546875 18.9910888671875 73.96435546875 L 56.9732666015625 73.96435546875 C 61.51175689697266 73.96435546875 65.77858734130859 72.19697570800781 68.98777770996094 68.98777770996094 C 72.19697570800781 65.77858734130859 73.96435546875 61.51175689697266 73.96435546875 56.9732666015625 L 73.96435546875 18.9910888671875 C 73.96435546875 14.45259857177734 72.19697570800781 10.18576812744141 68.98777770996094 6.976577758789063 C 65.77858734130859 3.767379760742188 61.51175689697266 2 56.9732666015625 2 L 18.9910888671875 2 M 18.9910888671875 0 L 56.9732666015625 0 C 67.46175384521484 0 75.96435546875 8.502601623535156 75.96435546875 18.9910888671875 L 75.96435546875 56.9732666015625 C 75.96435546875 67.46175384521484 67.46175384521484 75.96435546875 56.9732666015625 75.96435546875 L 18.9910888671875 75.96435546875 C 8.502601623535156 75.96435546875 0 67.46175384521484 0 56.9732666015625 L 0 18.9910888671875 C 0 8.502601623535156 8.502601623535156 0 18.9910888671875 0 Z" stroke="none" fill="#d2d2d2"/></g><g transform="translate(569.686 912.227)" clip-path="url(#a)"><g transform="translate(-0.396 -2.536)"><rect width="11" height="51" transform="translate(32.21 0.079)" fill="#459cfd"/><rect width="12" height="51" transform="translate(20.21 0.079)" fill="#37d76d"/><rect width="9" height="51" transform="translate(11.21 0.079)" fill="#ffc123"/><rect width="11" height="51" transform="translate(0.21 0.079)" fill="#e04d21"/></g></g><g transform="translate(607.174 905.374)"><path d="M-12038.437,19085.582l-3.06-3.059-1.95.389.445-1.893-2.759-2.758a2.324,2.324,0,0,1,0-3.289l3.735-3.736a2.325,2.325,0,0,1,3.288,0l7.321,7.322a2.32,2.32,0,0,1,0,3.287l-3.736,3.736a2.317,2.317,0,0,1-1.643.68A2.314,2.314,0,0,1-12038.437,19085.582Z" transform="translate(12046.442 -19070.555)" fill="#e04d21"/><path d="M3.364,5.956a.877.877,0,0,1-.488-.227C1.144,4.157,0,3.121,0,1.85A1.832,1.832,0,0,1,1.85,0,2.014,2.014,0,0,1,3.364.7,2.014,2.014,0,0,1,4.877,0a1.832,1.832,0,0,1,1.85,1.85c0,1.271-1.144,2.307-2.876,3.882A.87.87,0,0,1,3.364,5.956Z" transform="translate(7.64 3.826) rotate(47)" fill="#fff"/></g></g></svg>