<svg xmlns="http://www.w3.org/2000/svg" xmlns:xlink="http://www.w3.org/1999/xlink" width="146" height="146" viewBox="0 0 146 146">
  <defs>
    <linearGradient id="linear-gradient" x1="-0.082" y1="1.015" x2="0.976" y2="0.021" gradientUnits="objectBoundingBox">
      <stop offset="0" stop-color="#f48522"/>
      <stop offset="1" stop-color="#7241db"/>
    </linearGradient>
  </defs>
  <g id="img_qrcode" transform="translate(-456 -106)">
    <path id="bg" d="M7,0H139a7,7,0,0,1,7,7V139a7,7,0,0,1-7,7H7a7,7,0,0,1-7-7V7A7,7,0,0,1,7,0Z" transform="translate(456 106)" fill="#fff"/>
    <path id="qr" d="M514.713,136.128h-4.128V132h4.128ZM547.736,132h-4.128v4.128h4.128Zm37.151,8.776V160.9h-28.9V132h20.119A8.776,8.776,0,0,1,584.887,140.776Zm-9.978-4.648H560.12v20.639h20.639V141.978A5.851,5.851,0,0,0,574.908,136.128Zm-64.323,0h-4.128v4.128h4.128Zm53.662,4.128v12.384h12.384v-7.508a4.876,4.876,0,0,0-4.876-4.875Zm-53.662,8.256h4.128v-8.256h-4.128v8.256Zm37.151,0h4.128v-4.128h-4.128Zm-78.43,4.128V140.256H461.8a4.875,4.875,0,0,0-4.875,4.875v7.508Zm74.3,0h4.128v-4.128h-4.128Zm-53.662,4.128V144.384h4.128v8.256H498.2v-4.128h4.128v4.128h4.128V140.256h-4.128v-4.128H498.2v4.128h-4.128V132H481.69v4.128h4.128v12.384H481.69V160.9h4.128v-4.128Zm8.256,0V160.9h4.128v-8.256H498.2ZM448.667,160.9V140.776A8.776,8.776,0,0,1,457.443,132h20.12v28.9Zm4.128-4.128h20.639V136.128H458.645a5.85,5.85,0,0,0-5.851,5.851Zm37.151,0V160.9h4.128v-4.128Zm33.023,4.128H527.1v-8.256h4.128V160.9h4.128v-4.128h4.128v-8.256h-8.256v-4.128h8.256v-4.128h4.128v-4.128H539.48V132H527.1v4.128h8.256v4.128H522.969v12.384h-4.128v4.128h4.128Zm-20.639,4.128V160.9h4.128v-4.128h4.128V160.9h4.128v-4.128h4.128v8.256h-4.128v4.128h4.128v-4.128h4.128v12.384H527.1v4.128h-8.256v4.128h-4.128v-4.128h-4.128v-4.128h-4.128v4.128H498.2v-4.128h4.128v-4.128H498.2v-4.128h4.128Zm12.384,8.256v4.128h4.128v-4.128Zm-8.256-8.256v8.256h4.128v-8.256Zm45.407,0v-8.256h-4.128v12.384h4.128Zm28.9,4.128v4.128h4.128v-8.256h-4.128Zm-127.964,0h-4.128v8.256h4.128v-8.256Zm4.128,4.128h4.128v-4.128h4.128v4.128h8.256v-4.128h8.256v-4.128h-28.9v4.128h4.128Zm28.9,0h4.128v-4.128H498.2V160.9h-4.128v4.128h-4.128V160.9h-4.128v8.256H481.69v4.128Zm49.534-4.128h-4.128v-4.128H527.1v8.256h4.128v4.128h4.128v-8.256Zm41.279,0h-8.256v4.128H572.5v4.128h-4.128v-4.128h-4.128v8.256H560.12v4.128H572.5v-4.128h4.128v-4.128h4.128v-4.128h-4.128Zm-99.069,4.128h-4.128v4.128h4.128Zm20.639,0h-4.128v4.128H498.2Zm-41.279,8.256v-4.128h-4.128v8.256h8.256v-4.128Zm33.023,0h4.128v-4.128H481.69v4.128h4.128v4.128h4.128Zm86.685,0v4.128H572.5v4.128h4.128v4.128h4.128V189.79h4.128V177.407h-4.128v4.128ZM448.667,189.79v4.128h4.128V189.79Zm20.639,4.128v-8.256h8.256v-4.128h-4.128v-4.128h-8.256v8.256h-4.128v4.128h-4.128v4.128h-4.128v4.128h-4.128v4.128h8.256v-4.128h8.256v-4.128Zm4.128-4.128v4.128h4.128V189.79Zm99.069,0h-4.128v8.256h8.256v-4.128H572.5Zm-70.174,8.256V189.79H498.2v-8.256h-4.128v4.128h-4.128v8.256h4.128v4.128h8.256Zm61.918,0h4.128v4.128h-4.128V206.3h4.128v4.128H572.5V206.3h-4.128v-4.128h8.256v8.256h4.128v4.128H572.5v12.384h4.128v-4.128h4.128v8.256h4.128v8.256h-4.128V235.2h-4.128v-4.128h-8.256v12.384H572.5V235.2h4.128v4.128h4.128v4.128h-4.128v4.128H572.5v8.256h4.128v8.256H572.5v-4.128h-4.128v-4.128h-4.128v-4.128h-8.256v4.128h8.256v4.128H560.12v4.128h4.128v4.128h-8.256v-4.128h-4.128v-4.128h-8.256v4.128h8.256v4.128H539.48v-4.128h-8.256v-4.128h8.256v-4.128h4.128v-4.128h4.128v4.128h4.128v-4.128h-4.128V247.58h-4.128v-4.128H539.48v-4.128h4.128V235.2H539.48v-4.128h-4.128v-8.256h4.128v4.128h4.128v4.128h8.256v-4.128h-4.128v-4.128h8.256v4.128h4.128v4.128h4.128v-8.256h4.128v-4.128H560.12v-4.128h-4.128v4.128h-8.256v-4.128h4.128V206.3H539.48v4.128h8.256v4.128h-4.128v4.128H539.48v-4.128h-8.256V210.43h4.128V206.3H514.713v-8.256h-8.256V185.662h8.256v4.128h-4.128v4.128h12.384v4.128H527.1v-4.128h4.128V189.79h-8.256v-4.128H527.1v-4.128h4.128v4.128h8.256v4.128h-4.128v4.128h12.384v4.128h4.128V185.662h-4.128v4.128h-4.128v-4.128H539.48v-4.128h-4.128v-4.128h4.128V165.023h-4.128V160.9h4.128v-4.128h4.128v12.384h4.128v4.128h-4.128v4.128h4.128v4.128h4.128v-4.128h-4.128v-4.128h8.256v-4.128h4.128v-4.128h8.256v4.128h-4.128v4.128H560.12v8.256h-4.128v4.128h4.128v4.128h4.128v4.128H560.12v4.128h-4.128v4.128h4.128v-4.128Zm0,37.151H551.864V247.58h12.384V235.2ZM539.48,202.174v-4.128h-8.256v4.128h8.256ZM560.12,206.3h-4.128v4.128h4.128Zm20.639-4.128V206.3h4.128v-8.256h-4.128Zm-74.3,4.128h4.128v-4.128h-4.128ZM481.69,218.685v4.128h4.128v-4.128Zm49.534,0H527.1v4.128h8.256v-4.128Zm16.511,4.128v-4.128h-4.128v4.128Zm12.384,0v-4.128h-4.128v4.128Zm24.767-4.128h-4.128v4.128h4.128Zm-127.964,8.256V235.2h8.256v-4.128h-4.128v-4.128Zm16.511,4.128h4.128V235.2h-8.256V222.813H452.795V235.2h-4.128V206.3h12.384v-4.128h4.128v-4.128h4.128v-4.128h4.128v4.128h4.128v4.128h-4.128V206.3h4.128v4.128h-4.128v4.128h4.128v4.128h-4.128v4.128h4.128v4.128h-4.128Zm-4.128-12.384V206.3h-4.128v8.256H452.795v4.128h16.511Zm8.256,8.256v4.128h8.256v-4.128h-8.256Zm49.534,0v-4.128h-4.128v-8.256H527.1V210.43h-8.256v12.384h-4.128v4.128h-4.128v4.128h4.128V235.2h4.128v-8.256h4.128v4.128h8.256v-4.128Zm-49.534,12.384v28.9h-20.12a8.776,8.776,0,0,1-8.776-8.776V239.325Zm-4.128,4.128H452.795v14.789a5.85,5.85,0,0,0,5.851,5.851h14.789Zm82.557,0h4.128v-4.128h-4.128Zm-99.069,4.128v7.508a4.875,4.875,0,0,0,4.875,4.875h7.508V247.58Zm82.557,4.128h4.128V247.58H539.48Zm41.279,0V247.58h-4.128v4.128Zm-41.279,0v4.128H522.969v-4.128h-4.128v4.128h4.128v4.128h-8.256v4.128h-4.128v-4.128h-4.128v4.128h-4.128V251.708h4.128v4.128h8.256v-4.128h-8.256V239.325h-4.128v8.256H498.2v8.256h-4.128V247.58h-8.256v4.128h4.128v8.256h-4.128v4.128H481.69V235.2h8.256v4.128h4.128v-8.256h-4.128v-4.128h-4.128v-4.128h8.256v-4.128h-4.128v-4.128H481.69V206.3h-4.128v-4.128h4.128v-4.128h-4.128v-4.128h4.128v-8.256h4.128v8.256h4.128v4.128h4.128v4.128h-4.128V206.3h-4.128v4.128h4.128V206.3h4.128v-4.128h8.256v8.256H498.2v4.128h12.384v12.384H498.2v4.128h12.384V235.2h4.128v4.128h4.128v4.128h-8.256v4.128H527.1v4.128h4.128V239.325H527.1v4.128h-4.128v-4.128h-4.128V235.2h12.384v-4.128h4.128v12.384h4.128v4.128h-4.128v4.128Zm-41.279-28.9h8.256v-4.128H498.2Zm86.685,33.023v-4.128h-4.128v4.128Zm-90.813,4.128v4.128H498.2v-4.128Zm33.023,4.128v-4.128h-4.128v4.128Zm37.151,0h4.128v-4.128h-4.128Zm-74.3,4.128h4.128v-4.128h-4.128Zm8.256,0h4.128v-4.128H498.2Zm20.639,0h4.128v-4.128h-4.128Zm61.918,0v-4.128h-4.128v4.128Z" transform="translate(12.113 -21.22)" fill="url(#linear-gradient)"/>
    <g id="logo_getinsta" transform="translate(513.251 163.249)">
      <g id="组_2" data-name="组 2" transform="translate(0 0)">
        <path id="矩形_1" data-name="矩形 1" d="M29.881,2.246,3.032,29.227a7.651,7.651,0,0,1-2.5-5.667V15.479L16.121-.188h8.156A7.648,7.648,0,0,1,29.881,2.246Z" transform="translate(-0.531 0.188)" fill="#eb4c44" fill-rule="evenodd"/>
        <path id="矩形_1_拷贝_4" data-name="矩形 1 拷贝 4" d="M.531,16.4V7.8A7.987,7.987,0,0,1,8.518-.187H17.04Z" transform="translate(-0.531 0.187)" fill="#ef8b42" fill-rule="evenodd"/>
        <path id="矩形_1_拷贝_5" data-name="矩形 1 拷贝 5" d="M88.947,101.33H80.353a7.642,7.642,0,0,1-5.385-2.21l26.85-26.982a7.645,7.645,0,0,1,2.274,5.45v8.522Z" transform="translate(-72.59 -69.828)" fill="#a42dba" fill-rule="evenodd"/>
        <path id="矩形_1_拷贝_6" data-name="矩形 1 拷贝 6" d="M536.076,541.033h-7.87L544.063,525.1v7.946A7.987,7.987,0,0,1,536.076,541.033Z" transform="translate(-512.561 -509.531)" fill="#7c35ca" fill-rule="evenodd"/>
      </g>
      <g id="组_1" data-name="组 1" transform="translate(6.557 5.576)">
        <path id="follow_拷贝" data-name="follow 拷贝" d="M242.722,229.931h-.037a.969.969,0,0,1-.964.9H225.8c-.026,0-.051.008-.078.008a.894.894,0,0,1-.764-.433.958.958,0,0,1-.056-1,9,9,0,0,1,5.319-6.868,6.3,6.3,0,1,1,7.1,0A9,9,0,0,1,242.722,229.931Z" transform="translate(-224.79 -210.479)" fill="#eb4e27" fill-rule="evenodd"/>
        <path id="follow" d="M243.348,212.77h-.008a1,1,0,0,1-.992.926H225.989c-.029,0-.057.009-.087.009a.923.923,0,0,1-.852-.567.988.988,0,0,1-.107-.44,1.673,1.673,0,0,1,.049-.452,9.326,9.326,0,0,1,5.535-7.069,6.474,6.474,0,1,1,7.3,0A9.219,9.219,0,0,1,243.348,212.77ZM238.8,199.83a4.625,4.625,0,1,0-4.625,4.626,4.625,4.625,0,0,0,4.625-4.626Zm-4.227,6.461c-.131.008-.263.013-.4.013s-.264-.005-.395-.013a7.391,7.391,0,0,0-6.722,5.407h14.231A7.387,7.387,0,0,0,234.574,206.29Z" transform="translate(-224.938 -193.352)" fill="#fff" fill-rule="evenodd"/>
      </g>
      <path id="圆角矩形_2_拷贝" data-name="圆角矩形 2 拷贝" d="M748.889,115.589h-1.552v1.556h-1.331v-1.556h-1.552v-1.334h1.552V112.7h1.331v1.556h1.552v1.334Z" transform="translate(-721.9 -109.093)" fill="#fff" fill-rule="evenodd"/>
    </g>
    <path id="border" d="M24.2,33.471H9.269A9.269,9.269,0,0,1,0,24.2V9.269A9.269,9.269,0,0,1,9.269,0H24.2a9.269,9.269,0,0,1,9.269,9.269V24.2A9.269,9.269,0,0,1,24.2,33.471ZM10.253,1.5A8.764,8.764,0,0,0,1.5,10.253V23.218a8.764,8.764,0,0,0,8.754,8.754H23.218a8.764,8.764,0,0,0,8.754-8.754V10.253A8.764,8.764,0,0,0,23.218,1.5Z" transform="translate(512.299 162.229)" fill="#fff"/>
  </g>
</svg>
