<svg xmlns="http://www.w3.org/2000/svg" xmlns:xlink="http://www.w3.org/1999/xlink" width="146" height="146" viewBox="0 0 146 146">
  <defs>
    <linearGradient id="linear-gradient" x1="-0.082" y1="1.015" x2="0.976" y2="0.021" gradientUnits="objectBoundingBox">
      <stop offset="0" stop-color="#f48522"/>
      <stop offset="1" stop-color="#7241db"/>
    </linearGradient>
  </defs>
  <g id="img_qrcode_android" transform="translate(-456 -106)">
    <path id="bg" d="M7,0H139a7,7,0,0,1,7,7V139a7,7,0,0,1-7,7H7a7,7,0,0,1-7-7V7A7,7,0,0,1,7,0Z" transform="translate(456 106)" fill="#fff"/>
    <path id="路径_1316" data-name="路径 1316" d="M-3022.91,10329h-4.182v-4.184h-4.181v-4.182h4.181v-8.363h-4.181v4.183h-4.183v-4.183h-8.363v4.183H-3048v-4.183h-4.181v-8.364h-8.364v-4.182h8.364v4.182h8.364v-12.545h4.181v-4.182h-4.181v-8.363h4.181V10283h16.727v4.182h4.182v4.182h4.182v4.183h4.182v8.362h4.181v8.364H-3002v12.545h-16.727V10329Zm0-12.546h4.182v4.181h4.182v-4.181h-4.182v-4.183h-4.182Zm8.364-4.183h4.182v4.183h4.181v-4.183h-4.181v-4.182h-8.364v4.182Zm-20.909-12.546v8.364h12.546v-12.545h-12.546Zm16.728,0v4.182h4.182v-8.362h-4.182Zm-16.728,29.274h-8.363v-4.184H-3048v-4.182h8.364v4.182h8.364V10329Zm-25.09,0v-4.184h-4.181v-4.182h4.181v-4.181h4.181v4.181h4.182v4.182h-4.182V10329Zm-8.364,0h-20.909v-4.184h8.364v-4.182h4.181v4.182h12.546V10329Zm-33.454,0h-4.182v-4.184h4.182v-8.362h-4.182v-20.909h-12.546v-4.183h8.364v-4.182h-8.364v-8.363h4.182V10283h12.546v4.182h4.181v4.182H-3094v-4.182h4.181v4.182h4.182v4.183h12.545v-4.183h4.181v4.183h4.183v-4.183h4.181v8.363h-4.181v4.182h4.181v4.183h-4.181v4.182h-4.183v4.183h-4.181v-4.183h-4.182v4.183h-4.181v-4.183h-4.181v-4.182h8.363v-4.183h-8.363v-8.362h-4.182v4.181H-3094v-4.181h-8.364v4.181H-3094v4.182h4.181v4.183H-3094v4.182h4.181v4.183h4.182v4.181h-4.182v4.182H-3094v-4.182h-4.182V10329Zm0-16.729h4.181v-4.182h-4.181Zm29.273-8.364h4.181v-4.182h-4.181Zm-33.455-12.545h4.182v-4.182h-4.182Zm-8.364,37.638h-20.909a4.183,4.183,0,0,1-4.183-4.184v-25.091h29.273V10329Zm-20.909-20.91v15.2a1.528,1.528,0,0,0,1.529,1.528h19.38v-20.909h-20.909Zm96.181,12.545v-4.181h4.181v4.181Zm-37.637,0v-4.181h4.182v4.181Zm-46,0h-8.364v-12.545h12.545v12.545Zm58.546-4.181v-4.183h4.181v4.183Zm33.454-12.547v-4.182h4.181v4.182Zm-20.909-4.182v-4.181H-3048v4.181Zm-79.455-4.181H-3140v-16.728h4.183v12.545h4.181v-4.182h4.183v8.364Zm121.273-4.183h-4.182v-4.182h4.182V10283H-3002v4.182h-4.181v4.182Zm-46,0h-4.181v-4.182h-4.181v4.182h-4.183V10283h16.728v-8.363H-3048v-4.183h-8.364v8.364h-8.363v-4.182h4.181v-4.183h-8.364v-8.363h12.545v-8.363h-4.181v-4.183h-4.181v-4.181h12.545v20.908h12.545v8.364h-4.181v4.182H-3048v8.363h-4.181v4.182Zm-20.909,0h-4.181v-4.182h8.364v4.182Zm-46,0v-4.182h4.182v4.182Zm33.455-4.182v-8.363H-3094v-4.182h8.364v12.545Zm-37.636,0V10283h4.181v4.182Zm108.727-4.182h-4.182v-4.182h-4.182v-4.182h4.182v4.182h4.182v-4.182h-4.182v-4.183h4.182v-4.182h4.182v-4.182h4.182v12.546h-4.182V10283Zm-62.727,0v-4.182h4.181V10283Zm-16.728,0h-4.181v-8.363h4.181v4.182H-3094V10283Zm-33.455,0v-4.182h4.183V10283Zm92-4.182v-4.182h4.181v4.182Zm-33.454,0v-4.182h-8.364v-8.364h4.181v-8.363h4.182v12.545h4.181v8.364Zm-41.818,0v-4.182h4.182v4.182Zm-8.364,0v-8.364h-4.181v-4.182h8.363v4.182h4.182v4.183h-4.182v4.182Zm87.818-4.182v-4.183h4.183v4.183Zm-62.727,0v-4.183h-8.363v4.183h-4.182v-4.183h-4.182v-4.182h4.182v-4.182h4.182v4.182h4.182v-4.182h4.181v4.182h12.546v4.182H-3094v4.183Zm92-4.183v-8.363H-3002v8.363Zm-20.909,0v-4.182h4.182v4.182Zm-112.91,0v-4.182h4.183v4.182Zm117.091-4.182v-4.182h-4.182v4.182h-12.545v-8.363h4.181v-4.182h4.183v4.182h4.181v-4.182h4.182v4.182h4.182v-4.182h4.182v-4.183h4.182v8.364h-4.182v4.182h-4.182v4.182Zm-62.727,0v-4.182h-4.182v-4.182h4.182v-4.182h-4.182v4.182H-3094v-12.545h-8.364v-4.182h-8.364V10237h-8.364v-4.182h12.546V10237h4.182v4.183H-3094V10237h4.181v12.545h4.182V10237h-4.182v-8.364H-3094v-4.181h4.181v-12.546h4.182v8.364h4.181v-8.364h4.181v-4.182h-4.181v-4.182h-4.181v4.182h-4.182v-4.182h-8.364v-4.182h-4.181v4.182h4.181v4.182h-4.181v-4.182h-4.182V10191H-3094v8.363h4.181V10191h12.545v12.545h8.364v4.182h4.183v4.182h8.363v4.183h-4.181v4.182h-4.181v-8.364h-4.183v12.546h4.183v8.363h-4.183V10237h-8.364v-4.182h-4.181v12.546h4.181v4.181h4.182v4.183h-8.364v12.545Zm8.363-37.637h4.182v-4.181h-4.182Zm-8.363,0h4.181v-4.181h-4.181Zm8.363-8.362h4.182v-4.182h-4.182Zm-41.818,46v-4.182h-8.363v-4.182h4.181v-4.182h4.182v4.182h8.364v4.182h-4.182v4.182Zm-16.727,0v-4.182h4.181v4.182Zm87.818-4.182v-4.182h4.182v4.182Zm-58.545,0v-4.182h-4.182v-4.182h-4.182v-4.183h4.182v-4.181h4.182v8.363h8.363v4.182h-4.181v4.182Zm-33.455,0v-8.363h4.183v-4.183H-3140v-4.181h8.364v8.363h4.183v4.182h-8.364v4.182Zm133.819-4.182v-4.182H-3002v4.182Zm-37.636,0v-4.182h4.181v4.182Zm-20.909,0v-4.182h4.181v4.182Zm-8.364,0v-4.182h4.181v4.182Zm41.818-4.182v-4.183h4.181v4.183Zm-16.728,0v-4.183h4.182v4.183Zm-79.454,0v-4.183h4.181v4.183Zm108.727-4.183v-4.181h4.182v4.181Zm-8.364,0v-4.181h-4.181v-4.182h4.181V10237h4.182v12.545Zm-8.364,0v-4.181h4.183v4.181Zm-8.363,0v-4.181h4.181v4.181Zm-75.273,0h-4.182v-4.181h4.182v-4.182h8.364v4.182h-4.182v4.181Zm79.455-4.181v-4.182h4.181v4.182Zm-12.545,0V10237H-3048v-4.182h-4.181v-4.183H-3048v4.183h4.182v-8.363h4.181v-8.363h4.181v8.363h4.183v4.181h-8.364v4.183h4.181V10237h-8.363v4.183H-3048v4.182Zm-16.728,0v-4.182h4.183v4.182Zm-62.727,0V10237H-3140v-4.182h8.364v-4.183h4.183v-4.181h25.091v4.181h-20.909V10237h4.182v4.183h-4.182V10237h-4.181v8.364Zm125.455-4.182V10237h-4.181v4.183h-4.182V10237h-8.364v-12.545h4.182v4.181h4.182v-4.181H-3002v4.181h-8.363v4.183H-3002v8.364Zm-29.273,0V10237h4.183v4.183Zm-29.272,0V10237h4.181v4.183Zm33.454-4.183v-4.182h4.181V10237Zm-71.091,0v-4.182h4.181V10237Zm41.818-4.182v-4.183h4.181v4.183Zm-37.637,0v-4.183H-3094v4.183Zm-41.819-4.183v-4.181h4.183v4.181Zm92-4.181v-12.546h8.364v4.183h-4.181v8.363Zm41.818-4.182h-25.09V10191h25.09a4.18,4.18,0,0,1,4.181,4.181v25.092Zm-20.909-20.909v16.728h20.909v-19.535a1.375,1.375,0,0,0-1.375-1.375h-19.534Zm-29.273,20.909v-4.182h4.182v4.182Zm-41.818,0v-8.364H-3094v8.364Zm-8.363,0v-4.182h4.182v4.182Zm-8.364,0H-3140v-25.092a4.182,4.182,0,0,1,4.183-4.181h25.09v29.272Zm-20.909-23.426v19.244h20.909v-20.91h-19.244A1.665,1.665,0,0,0-3135.819,10196.849Zm121.272,15.062h-8.364v-12.545h12.546v12.545Zm-37.636,0v-4.182H-3048v4.182Zm-54.364,0v-4.182h4.182v4.182Zm-16.728,0h-8.364v-12.545h12.545v12.545Zm83.636-4.182v-4.182h4.181v4.182Zm-8.364,0v-4.182h-4.181v4.182h-12.545v-4.182h8.363v-4.182h-8.363v-4.183h12.545v4.183H-3048v-4.183h-4.181V10191h8.364v16.727Zm-25.091-8.363v-4.183h4.181v4.183Zm4.181-4.183V10191h4.183v4.181Z" transform="translate(3600 -10081)" fill="url(#linear-gradient)"/>
    <g id="logo_getinsta" transform="translate(513.251 163.249)">
      <g id="组_2" data-name="组 2" transform="translate(0 0)">
        <path id="矩形_1" data-name="矩形 1" d="M29.881,2.246,3.032,29.227a7.651,7.651,0,0,1-2.5-5.667V15.479L16.121-.188h8.156A7.648,7.648,0,0,1,29.881,2.246Z" transform="translate(-0.531 0.188)" fill="#eb4c44" fill-rule="evenodd"/>
        <path id="矩形_1_拷贝_4" data-name="矩形 1 拷贝 4" d="M.531,16.4V7.8A7.987,7.987,0,0,1,8.518-.187H17.04Z" transform="translate(-0.531 0.187)" fill="#ef8b42" fill-rule="evenodd"/>
        <path id="矩形_1_拷贝_5" data-name="矩形 1 拷贝 5" d="M88.947,101.33H80.353a7.642,7.642,0,0,1-5.385-2.21l26.85-26.982a7.645,7.645,0,0,1,2.274,5.45v8.522Z" transform="translate(-72.59 -69.828)" fill="#a42dba" fill-rule="evenodd"/>
        <path id="矩形_1_拷贝_6" data-name="矩形 1 拷贝 6" d="M536.076,541.033h-7.87L544.063,525.1v7.946A7.987,7.987,0,0,1,536.076,541.033Z" transform="translate(-512.561 -509.531)" fill="#7c35ca" fill-rule="evenodd"/>
      </g>
      <g id="组_1" data-name="组 1" transform="translate(6.557 5.576)">
        <path id="follow_拷贝" data-name="follow 拷贝" d="M242.722,229.931h-.037a.969.969,0,0,1-.964.9H225.8c-.026,0-.051.008-.078.008a.894.894,0,0,1-.764-.433.958.958,0,0,1-.056-1,9,9,0,0,1,5.319-6.868,6.3,6.3,0,1,1,7.1,0A9,9,0,0,1,242.722,229.931Z" transform="translate(-224.79 -210.479)" fill="#eb4e27" fill-rule="evenodd"/>
        <path id="follow" d="M243.348,212.77h-.008a1,1,0,0,1-.992.926H225.989c-.029,0-.057.009-.087.009a.923.923,0,0,1-.852-.567.988.988,0,0,1-.107-.44,1.673,1.673,0,0,1,.049-.452,9.326,9.326,0,0,1,5.535-7.069,6.474,6.474,0,1,1,7.3,0A9.219,9.219,0,0,1,243.348,212.77ZM238.8,199.83a4.625,4.625,0,1,0-4.625,4.626,4.625,4.625,0,0,0,4.625-4.626Zm-4.227,6.461c-.131.008-.263.013-.4.013s-.264-.005-.395-.013a7.391,7.391,0,0,0-6.722,5.407h14.231A7.387,7.387,0,0,0,234.574,206.29Z" transform="translate(-224.938 -193.352)" fill="#fff" fill-rule="evenodd"/>
      </g>
      <path id="圆角矩形_2_拷贝" data-name="圆角矩形 2 拷贝" d="M748.889,115.589h-1.552v1.556h-1.331v-1.556h-1.552v-1.334h1.552V112.7h1.331v1.556h1.552v1.334Z" transform="translate(-721.9 -109.093)" fill="#fff" fill-rule="evenodd"/>
    </g>
    <path id="border" d="M24.2,33.471H9.269A9.269,9.269,0,0,1,0,24.2V9.269A9.269,9.269,0,0,1,9.269,0H24.2a9.269,9.269,0,0,1,9.269,9.269V24.2A9.269,9.269,0,0,1,24.2,33.471ZM10.253,1.5A8.764,8.764,0,0,0,1.5,10.253V23.218a8.764,8.764,0,0,0,8.754,8.754H23.218a8.764,8.764,0,0,0,8.754-8.754V10.253A8.764,8.764,0,0,0,23.218,1.5Z" transform="translate(512.299 162.229)" fill="#fff"/>
  </g>
</svg>
