<svg xmlns="http://www.w3.org/2000/svg" xmlns:xlink="http://www.w3.org/1999/xlink" width="146" height="146" viewBox="0 0 146 146">
  <defs>
    <linearGradient id="linear-gradient" x1="-0.082" y1="1.015" x2="0.976" y2="0.021" gradientUnits="objectBoundingBox">
      <stop offset="0" stop-color="#f48522"/>
      <stop offset="1" stop-color="#7241db"/>
    </linearGradient>
  </defs>
  <g id="img_qrcode_ios" transform="translate(-456 -106)">
    <path id="bg" d="M7,0H139a7,7,0,0,1,7,7V139a7,7,0,0,1-7,7H7a7,7,0,0,1-7-7V7A7,7,0,0,1,7,0Z" transform="translate(456 106)" fill="#fff"/>
    <path id="路径_1349" data-name="路径 1349" d="M-3328.76,10384h-4.758v-9.518h4.758v4.758H-3324v4.76Zm-14.275,0h-28.552v-4.76h-4.758v4.76h-9.517v-4.76h-4.758v-4.758h4.758v-9.517h-4.758v-4.759h4.758v-4.759h14.275v9.518h-9.516v4.759h4.758v4.758h4.758v-4.758h4.759v-14.276h-4.759v-9.517h4.759v-4.759h-9.517v4.759h-4.758v-4.759h-4.759v-4.759h4.759v-4.759h4.758v4.759h14.275v4.759h4.759V10326.9h-4.759v-4.759h14.275v4.759h-4.758v4.758h4.758v4.759h-4.758v4.759h9.518v9.517h4.758v9.518h-4.758v9.518h4.758v4.758h-4.758v4.758h4.758v4.76Zm-19.035-14.275h4.759v4.758h4.758v4.758h4.758v-4.758h-4.758v-4.758h4.758v-4.759h-14.275Zm0-19.035v9.518h14.275v-14.275h-14.275ZM-3404.9,10384h-4.758v-4.76h9.517v4.76Zm-14.276,0h-4.758v-4.76h4.758v-4.758h-4.758v-4.758h23.792v4.758h-14.275V10384Zm-14.275,0h-23.793a4.758,4.758,0,0,1-4.758-4.76v-28.551h33.309V10384Zm-23.793-23.793v16.336a2.7,2.7,0,0,0,2.7,2.7h21.095v-23.792h-23.793Zm57.1,19.033v-4.758h4.758v4.758Zm71.378-4.758v-4.758h-9.518v-4.759H-3324v9.517Zm-114.206,0h-9.517v-14.275h14.276v14.275Zm38.068-9.517v-9.518h-4.758v4.759h-4.758v4.759h-9.517v-4.759h4.758v-9.518h23.793v4.759h-4.758v9.518Zm76.137-9.518h-4.758v-4.759h-4.759v-4.758H-3324v9.517Zm-28.551,0v-4.759h4.758v4.759Zm-28.552-4.759v-4.758h4.759v4.758Zm-38.068,0v-4.758h4.758v4.758Zm28.551-4.758v-4.759h-4.758v4.759h-9.517v-4.759h-4.758v-4.759h14.275v-4.759h-4.759v-4.758h4.759v-4.759h-9.517v9.517h-4.758v-4.758h-4.759v-4.759h4.759v-4.758h4.758v-4.759h14.275v4.759h4.759v4.758h-4.759v4.759h4.759v19.034Zm-23.793,0v-4.759h4.759v4.759Zm-9.517,0h-9.516v-4.759h9.516v-4.759h4.759v9.518Zm-23.792,0v-4.759h-4.758v-4.759h9.517v9.518Zm-9.516,0v-4.759h4.758v4.759Zm128.481-4.759v-9.518h-9.517v-28.55h4.758v23.792h4.759v4.758h4.758v-4.758h-4.758v-14.275h4.758v-4.759h-4.758v-9.518h-4.759v-4.758h9.518v-4.759H-3324v9.517h-4.758v4.76H-3324v14.275h-4.758v4.758H-3324v14.275h-4.758v4.759Zm-9.517,0v-4.759h4.758v4.759Zm-99.93,0v-4.759h4.759v4.759Zm19.035-4.759v-9.517h4.758v9.517Zm-9.517,0h-4.758v-9.517h4.758v4.758h4.758v4.759Zm-28.551,0v-4.759h4.758v4.759Zm95.171-4.759v-4.758h4.758v4.758Zm-19.034,0v-4.758h-4.758v-4.759h4.758v-14.275h-4.758v-4.758h-4.759v4.758h-9.517v-4.758h-4.758v-9.518h4.758v-4.759h-4.758v-4.759h4.758v-9.518h4.759v4.76h4.758v-9.518h-9.517v-4.759h14.276v-4.759h4.758v9.518h9.517v4.758h4.758v9.518h4.759v-9.518h4.758v14.276h9.517v9.517h-9.517v-4.758h-4.758v-4.759H-3381.1v4.759h4.758v19.034h4.758v4.759h4.759v-9.518h-4.759v-9.518h4.759v4.76h14.275v4.758h4.758v9.518h-9.516v-4.759h-4.759v9.517h-14.275v4.759h-4.758v4.758Zm-4.758-38.067v4.758h4.758v-9.517h-4.758v-4.759h4.758v-9.518h-4.758v9.518h-4.759v4.759h-4.758v9.517h4.758v-4.758Zm9.517-14.275h4.758v-4.76h-4.758Zm-66.62,52.343v-9.517h-4.759v-4.758h9.517v4.758h4.759v4.759h-4.759v4.758Zm-9.517,0v-9.517h4.758v9.517Zm28.551-4.758h-4.758v-4.759h9.517v4.759Zm-9.516-4.759v-9.517h9.516v4.759h-4.758v4.758Zm-23.793,0v-4.758h4.758v4.758Zm38.068-9.517h-4.759v-4.759h9.517v4.759Zm-23.793,0v-4.759h4.758v4.759Zm-14.275,0v-9.517h4.758v9.517Zm47.585-4.759v-4.758h4.758v4.758Zm-19.035,0v-4.758h4.758v4.758Zm85.654-4.758v-4.76h4.759v4.76Zm-71.378,0v-4.76h-4.758v-4.758h4.758v-14.275h4.759v23.793Zm-9.517,0v-4.76h4.759v4.76Zm-14.275,0v-4.76h4.759v4.76Zm-9.517,0h-4.758v-4.76h9.517v4.76Zm19.034-4.76v-4.758h4.758v4.758Zm90.413-4.758v-4.759h4.758v4.759Zm-85.655,0v-4.759h4.759v4.759Zm-33.309,0v-9.518h4.758v9.518Zm128.481-4.759v-4.759h4.758v4.759Zm-14.276,0v-4.759h4.759v4.759Zm-85.654,0v-4.759h4.758v4.759Zm-9.517,0v-4.759h4.759v4.759Zm-9.517,0v-4.759h4.759v4.759Zm123.723-9.517h-28.551V10246h28.551a4.758,4.758,0,0,1,4.758,4.758v28.553Zm-23.793-23.793v19.033h23.793v-21.038a2.755,2.755,0,0,0-2.754-2.755h-21.039Zm-61.861,23.793v-4.76h4.758v4.76Zm-9.517,0v-4.76h4.758v4.76Zm-9.517,0H-3462v-28.553a4.758,4.758,0,0,1,4.758-4.758h28.551v33.311Zm-23.793-25.8v21.038h23.793v-23.793h-21.039A2.755,2.755,0,0,0-3457.241,10253.513Zm85.654,21.038v-4.758h-4.758v-14.275h-4.758v4.758h-4.759v-4.758h-4.758v4.758h-4.759v-4.758h-4.758v-4.76h-4.759v4.76h-4.758v4.758h4.758v4.759h-4.758v4.759h-4.758v-14.275h-9.517v-4.76h4.758V10246h4.759v4.758h4.758V10246h9.517v4.758h4.758V10246h9.517v4.758h14.275V10246h4.759v4.758h4.758v14.276h-4.758v9.517Zm33.31-4.758h-9.517v-14.275h14.276v14.275Zm-85.653,0v-4.759h4.758v4.759Zm-19.035,0h-9.517v-14.275h14.276v14.275Z" transform="translate(3922 -10136)" fill="url(#linear-gradient)"/>
    <g id="logo_getinsta" transform="translate(513.251 163.249)">
      <g id="组_2" data-name="组 2" transform="translate(0 0)">
        <path id="矩形_1" data-name="矩形 1" d="M29.881,2.246,3.032,29.227a7.651,7.651,0,0,1-2.5-5.667V15.479L16.121-.188h8.156A7.648,7.648,0,0,1,29.881,2.246Z" transform="translate(-0.531 0.188)" fill="#eb4c44" fill-rule="evenodd"/>
        <path id="矩形_1_拷贝_4" data-name="矩形 1 拷贝 4" d="M.531,16.4V7.8A7.987,7.987,0,0,1,8.518-.187H17.04Z" transform="translate(-0.531 0.187)" fill="#ef8b42" fill-rule="evenodd"/>
        <path id="矩形_1_拷贝_5" data-name="矩形 1 拷贝 5" d="M88.947,101.33H80.353a7.642,7.642,0,0,1-5.385-2.21l26.85-26.982a7.645,7.645,0,0,1,2.274,5.45v8.522Z" transform="translate(-72.59 -69.828)" fill="#a42dba" fill-rule="evenodd"/>
        <path id="矩形_1_拷贝_6" data-name="矩形 1 拷贝 6" d="M536.076,541.033h-7.87L544.063,525.1v7.946A7.987,7.987,0,0,1,536.076,541.033Z" transform="translate(-512.561 -509.531)" fill="#7c35ca" fill-rule="evenodd"/>
      </g>
      <g id="组_1" data-name="组 1" transform="translate(6.557 5.576)">
        <path id="follow_拷贝" data-name="follow 拷贝" d="M242.722,229.931h-.037a.969.969,0,0,1-.964.9H225.8c-.026,0-.051.008-.078.008a.894.894,0,0,1-.764-.433.958.958,0,0,1-.056-1,9,9,0,0,1,5.319-6.868,6.3,6.3,0,1,1,7.1,0A9,9,0,0,1,242.722,229.931Z" transform="translate(-224.79 -210.479)" fill="#eb4e27" fill-rule="evenodd"/>
        <path id="follow" d="M243.348,212.77h-.008a1,1,0,0,1-.992.926H225.989c-.029,0-.057.009-.087.009a.923.923,0,0,1-.852-.567.988.988,0,0,1-.107-.44,1.673,1.673,0,0,1,.049-.452,9.326,9.326,0,0,1,5.535-7.069,6.474,6.474,0,1,1,7.3,0A9.219,9.219,0,0,1,243.348,212.77ZM238.8,199.83a4.625,4.625,0,1,0-4.625,4.626,4.625,4.625,0,0,0,4.625-4.626Zm-4.227,6.461c-.131.008-.263.013-.4.013s-.264-.005-.395-.013a7.391,7.391,0,0,0-6.722,5.407h14.231A7.387,7.387,0,0,0,234.574,206.29Z" transform="translate(-224.938 -193.352)" fill="#fff" fill-rule="evenodd"/>
      </g>
      <path id="圆角矩形_2_拷贝" data-name="圆角矩形 2 拷贝" d="M748.889,115.589h-1.552v1.556h-1.331v-1.556h-1.552v-1.334h1.552V112.7h1.331v1.556h1.552v1.334Z" transform="translate(-721.9 -109.093)" fill="#fff" fill-rule="evenodd"/>
    </g>
    <path id="border" d="M24.2,33.471H9.269A9.269,9.269,0,0,1,0,24.2V9.269A9.269,9.269,0,0,1,9.269,0H24.2a9.269,9.269,0,0,1,9.269,9.269V24.2A9.269,9.269,0,0,1,24.2,33.471ZM10.253,1.5A8.764,8.764,0,0,0,1.5,10.253V23.218a8.764,8.764,0,0,0,8.754,8.754H23.218a8.764,8.764,0,0,0,8.754-8.754V10.253A8.764,8.764,0,0,0,23.218,1.5Z" transform="translate(512.299 162.229)" fill="#fff"/>
  </g>
</svg>
