<svg xmlns="http://www.w3.org/2000/svg" width="22" height="22" viewBox="0 0 22 22"><defs><style>.a{fill:#fdc302;}.b{fill:#ff5601;}</style></defs><g transform="translate(-233.475 -20.67)"><circle class="a" cx="11" cy="11" r="11" transform="translate(233.475 20.67)"/><path class="b" d="M5.6-2.944v1.733H4.436V-2.9a6.519,6.519,0,0,1-3.019-.735V-5.844A4.661,4.661,0,0,0,2.8-5.149a6.355,6.355,0,0,0,1.637.367V-7.689A6.177,6.177,0,0,1,1.884-9.195,2.965,2.965,0,0,1,1.2-11.171a2.9,2.9,0,0,1,.887-2.137,3.726,3.726,0,0,1,2.348-1.026V-15.82H5.6v1.454a5.912,5.912,0,0,1,2.516.543v2.157A6.039,6.039,0,0,0,5.6-12.5V-9.47A6.414,6.414,0,0,1,8.111-8.028a2.766,2.766,0,0,1,.759,1.961,2.822,2.822,0,0,1-.847,2.137A4.042,4.042,0,0,1,5.6-2.944ZM4.436-9.933v-2.532q-1.11.2-1.11,1.158Q3.326-10.485,4.436-9.933ZM5.6-7.234v2.42q1.142-.176,1.142-1.142Q6.745-6.738,5.6-7.234Z" transform="translate(239.635 40.727)"/></g></svg>