<svg xmlns="http://www.w3.org/2000/svg" width="80" height="130" viewBox="0 0 80 130">
  <defs>
    <style>
      .cls-1 {
        fill: #fff;
        stroke: #707070;
        opacity: 0;
      }

      .cls-2 {
        fill: #4a8dff;
      }

      .cls-3 {
        fill: #7be6a6;
      }

      .cls-4 {
        fill: #ff2d2d;
      }

      .cls-5 {
        fill: #ff87a7;
        opacity: 0.33;
      }

      .cls-6 {
        stroke: none;
      }

      .cls-7 {
        fill: none;
      }
    </style>
  </defs>
  <g id="组_287" data-name="组 287" transform="translate(-551 -1268)">
    <g id="矩形_169" data-name="矩形 169" class="cls-1" transform="translate(551 1268)">
      <rect class="cls-6" width="80" height="130"/>
      <rect class="cls-7" x="0.5" y="0.5" width="79" height="129"/>
    </g>
    <g id="icon_gets">
      <path id="减去_2" data-name="减去 2" class="cls-2" d="M-922.332,325.526H-967v-5.41a21.857,21.857,0,0,1,6.444-15.556A21.855,21.855,0,0,1-945,298.115h18a21.882,21.882,0,0,1,8.269,1.607,16.559,16.559,0,0,0-8.268,14.3,16.411,16.411,0,0,0,4.667,11.5Zm-14.974-35.241a16.533,16.533,0,0,1-11.768-4.874,16.533,16.533,0,0,1-4.874-11.767,16.533,16.533,0,0,1,4.874-11.767A16.533,16.533,0,0,1-937.306,257a16.533,16.533,0,0,1,11.768,4.874,16.533,16.533,0,0,1,4.874,11.767,16.533,16.533,0,0,1-4.874,11.767A16.533,16.533,0,0,1-937.306,290.284Z" transform="translate(1521 1041.475)"/>
      <path id="联合_1" data-name="联合 1" class="cls-3" d="M-959,276v-5h-5a3,3,0,0,1-3-3,3,3,0,0,1,3-3h5v-5a3,3,0,0,1,3-3,3,3,0,0,1,3,3v5h5a3,3,0,0,1,3,3,3,3,0,0,1-3,3h-5v5a3,3,0,0,1-3,3A3,3,0,0,1-959,276Z" transform="translate(1569 1087)"/>
      <path id="ic_favorite_24px" class="cls-4" d="M11.976,20.663a2.6,2.6,0,0,1-1.446-.675C5.392,15.33,2,12.257,2,8.487A5.433,5.433,0,0,1,7.487,3a5.974,5.974,0,0,1,4.489,2.085A5.974,5.974,0,0,1,16.465,3a5.433,5.433,0,0,1,5.487,5.487c0,3.771-3.392,6.843-8.529,11.512A2.58,2.58,0,0,1,11.976,20.663Z" transform="matrix(0.995, 0.105, -0.105, 0.995, 607.768, 1285.317)"/>
      <path id="ic_favorite_24px-2" data-name="ic_favorite_24px" class="cls-5" d="M7.449,12.649a1.421,1.421,0,0,1-.79-.368C3.853,9.735,2,8.057,2,6A2.968,2.968,0,0,1,5,3,3.263,3.263,0,0,1,7.449,4.139,3.263,3.263,0,0,1,9.9,3a2.968,2.968,0,0,1,3,3c0,2.06-1.853,3.738-4.659,6.288A1.409,1.409,0,0,1,7.449,12.649Z" transform="translate(586.877 1270.968) rotate(-16)"/>
    </g>
  </g>
</svg>
