<svg xmlns="http://www.w3.org/2000/svg" width="86" height="76.128" viewBox="0 0 86 76.128"><defs><style>.a{fill:#4a8dff;}.b{fill:#005fff;}.c{fill:#ffa250;}.d{fill:#fff;}</style></defs><g transform="translate(12 -4.397)"><g transform="translate(-2 -12.718)"><rect class="a" width="14.885" height="34.963" transform="translate(27.645 17.115)"/><path class="b" d="M21,0,42,20H0Z" transform="translate(56 63.243) rotate(180)"/></g><path class="c" d="M6,0H80a6,6,0,0,1,6,6V18a6,6,0,0,1-6,6H6a6,6,0,0,1-6-6V6A6,6,0,0,1,6,0Z" transform="translate(-12 56.525)"/><path class="d" d="M4,0A4,4,0,1,1,0,4,4,4,0,0,1,4,0Z" transform="translate(44 64.525)"/><path class="d" d="M4,0A4,4,0,1,1,0,4,4,4,0,0,1,4,0Z" transform="translate(55 64.525)"/></g></svg>