<svg xmlns="http://www.w3.org/2000/svg" xmlns:xlink="http://www.w3.org/1999/xlink" width="375" height="131" viewBox="0 0 375 131"><defs><style>.a,.k{fill:#fff;}.a{stroke:#707070;}.b{clip-path:url(#a);}.c,.d,.e,.f,.g,.h,.i,.j,.k{fill-rule:evenodd;}.c{fill:url(#b);}.d{fill:url(#c);}.e{fill:url(#d);}.f{fill:url(#e);}.g{fill:#ffc400;}.h{fill:#fff367;}.i{fill:url(#f);}.j{fill:url(#g);}</style><clipPath id="a"><rect class="a" width="375" height="131" transform="translate(0 151)"/></clipPath><linearGradient id="b" x1="-8.12" y1="5.633" x2="-6.279" y2="5.558" gradientUnits="objectBoundingBox"><stop offset="0.03" stop-color="#ffc400"/><stop offset="0.124" stop-color="#fff"/><stop offset="0.453" stop-color="#fff"/><stop offset="0.97" stop-color="#ffc400"/></linearGradient><linearGradient id="c" x1="-11.264" y1="5.47" x2="-7.823" y2="5.47" gradientUnits="objectBoundingBox"><stop offset="0.07" stop-color="#f0a900"/><stop offset="0.423" stop-color="#f1ab00"/><stop offset="0.491" stop-color="#ffec00"/><stop offset="0.543" stop-color="#f1ab00"/><stop offset="0.853" stop-color="#f0ab00"/><stop offset="0.93" stop-color="#ffc400"/></linearGradient><linearGradient id="d" x1="-6.63" y1="5.865" x2="-7.802" y2="5.331" gradientUnits="objectBoundingBox"><stop offset="0.32" stop-color="#ffc400"/><stop offset="0.378" stop-color="#ffec00"/><stop offset="0.54" stop-color="#ffc600"/><stop offset="0.547" stop-color="#fff"/><stop offset="0.579" stop-color="#ffe500"/><stop offset="0.68" stop-color="#ffd900"/></linearGradient><linearGradient id="e" x1="-9.59" y1="6.203" x2="-7.449" y2="6.12" gradientUnits="objectBoundingBox"><stop offset="0.03" stop-color="#f0a900"/><stop offset="0.162" stop-color="#f0ab00"/><stop offset="0.237" stop-color="#ffc400"/><stop offset="0.359" stop-color="#fff"/><stop offset="0.472" stop-color="#ffc400"/><stop offset="0.707" stop-color="#fcc31b"/><stop offset="0.97" stop-color="#f1ab00"/></linearGradient><linearGradient id="f" x1="-27.123" y1="12.208" x2="-25.254" y2="12.155" gradientUnits="objectBoundingBox"><stop offset="0.08" stop-color="#c2700a"/><stop offset="0.92" stop-color="#f1ab00"/></linearGradient><linearGradient id="g" x1="-8.85" y1="6.242" x2="-8.915" y2="6.583" gradientUnits="objectBoundingBox"><stop offset="0.11" stop-color="#ffc400"/><stop offset="0.89" stop-color="#ffec00"/></linearGradient></defs><g class="b" transform="translate(0 -151)"><g transform="matrix(0.946, -0.326, 0.326, 0.946, 8.734, 164.642)"><path class="c" d="M768.091,544.163c-6.2-15.817-16.872-26.683-23.84-24.271s-7.592,17.19-1.394,33.007,16.871,26.683,23.839,24.271S774.289,559.98,768.091,544.163Z" transform="translate(-731.548 -519.365)"/><path class="d" d="M723.956,522.959c-6.967,2.412-7.591,17.193-1.394,33.008s16.872,26.683,23.839,24.271l7.041-2.437c-6.967,2.412-17.642-8.457-23.839-24.271s-5.573-30.595,1.394-33.008l-7.041,2.438Z" transform="translate(-718.293 -519.995)"/><path class="e" d="M769.687,543.61c-6.2-15.817-16.871-26.683-23.84-24.27s-7.592,17.19-1.394,33.007,16.871,26.683,23.839,24.271S775.885,559.427,769.687,543.61Z" transform="translate(-732.59 -519.004)"/><path class="f" d="M771.95,549.615c-5.613-14.325-14.807-24.33-20.534-22.346s-5.819,15.2-.207,29.527,14.808,24.33,20.535,22.347S777.564,563.94,771.95,549.615Z" transform="translate(-737.081 -524.238)"/><path class="g" d="M756.5,664.161a36.3,36.3,0,0,0,4.142,4.425l7.041-2.437a36.42,36.42,0,0,1-4.142-4.426l-7.04,2.438Z" transform="translate(-743.249 -612.219)"/><path class="h" d="M765.224,673.9q.558.55,1.117,1.048l7.041-2.437q-.559-.5-1.117-1.048l-7.041,2.438Z" transform="translate(-748.945 -618.577)"/><path class="i" d="M718.767,544.882c-1.157,5.839-.19,14.286,2.989,23.24l7.04-2.438c-3.179-8.953-4.146-17.4-2.989-23.24l-7.04,2.438Z" transform="translate(-718.295 -534.313)"/><path class="j" d="M770.31,549.167c-5.395-13.768-14.232-23.385-19.737-21.479s-5.594,14.612-.2,28.381,14.231,23.385,19.736,21.479S775.705,562.936,770.31,549.167Z" transform="translate(-736.641 -524.519)"/><path class="k" d="M788.725,639.471c3.69,3.987,7.389,5.959,10.233,4.975,4.043-1.4,5.277-8.4,3.678-17.443,1.252,8.587-.169,15.187-4.2,16.587-2.746.955-6.22-.673-9.713-4.12Z" transform="translate(-764.294 -589.542)"/><path class="k" d="M761.306,531.86c-3.835-4.311-7.716-6.483-10.671-5.459-5.727,1.982-5.82,15.205-.207,29.528a56.961,56.961,0,0,0,10.145,17.2,57.578,57.578,0,0,1-9.873-16.9c-5.612-14.322-5.52-27.545.206-29.527,2.886-1,6.655,1.048,10.4,5.158Z" transform="translate(-736.571 -523.672)"/><path class="k" d="M768.781,637.274l-8.845,6.609,2.773-4.441-3.8,4.913.747-3.6-1.407,4.074-.5-2.059.193,2.183-9.337-5.141,7.293,5.2L750.3,643.9l6.031,1.782-4.858.224,5.376.166-2.983.825,3.088-.623-9.214,8.134,8.847-6.613-2.774,4.445,3.8-4.914-.747,3.6,1.407-4.073.5,2.057-.195-2.183,9.338,5.141-7.3-5.2,5.6,1.112L760.194,646l4.855-.225-5.373-.167,2.979-.824-3.086.621,9.212-8.131Z" transform="translate(-737.526 -596.25)"/></g><g transform="translate(331.775 203.426) rotate(56)"><path class="c" d="M757.287,535.152c-3.929-10.025-10.693-16.912-15.11-15.383s-4.812,10.895-.884,20.92S751.987,557.6,756.4,556.072,761.215,545.177,757.287,535.152Z" transform="translate(-734.126 -519.435)"/><path class="d" d="M721.882,522.066c-4.416,1.529-4.811,10.9-.884,20.92s10.694,16.911,15.109,15.383l4.462-1.545c-4.416,1.529-11.182-5.36-15.109-15.383s-3.532-19.391.884-20.92l-4.462,1.545Z" transform="translate(-718.293 -520.188)"/><path class="e" d="M758.883,534.6c-3.928-10.025-10.693-16.912-15.11-15.382s-4.812,10.895-.884,20.92S753.583,557.048,758,555.52,762.811,544.624,758.883,534.6Z" transform="translate(-735.371 -519.004)"/><path class="f" d="M762.835,541.339c-3.557-9.079-9.384-15.42-13.015-14.163s-3.688,9.635-.131,18.714,9.385,15.42,13.015,14.164S766.393,550.419,762.835,541.339Z" transform="translate(-740.735 -525.256)"/><path class="g" d="M756.5,663.269a23.007,23.007,0,0,0,2.625,2.8l4.462-1.545a23.086,23.086,0,0,1-2.625-2.8l-4.462,1.545Z" transform="translate(-748.103 -630.348)"/><path class="h" d="M765.224,673.005q.354.349.708.664l4.462-1.545q-.354-.315-.708-.664l-4.462,1.545Z" transform="translate(-754.906 -637.943)"/><path class="i" d="M718.595,543.989c-.733,3.7-.12,9.055,1.895,14.73l4.462-1.545c-2.015-5.674-2.627-11.028-1.895-14.73l-4.462,1.545Z" transform="translate(-718.296 -537.291)"/><path class="j" d="M761.549,541.213c-3.419-8.726-9.02-14.821-12.509-13.613s-3.545,9.261-.125,17.988,9.02,14.821,12.509,13.614S764.968,549.94,761.549,541.213Z" transform="translate(-740.21 -525.591)"/><path class="k" d="M788.725,634.906c2.339,2.527,4.683,3.777,6.485,3.153,2.563-.887,3.345-5.327,2.331-11.055.794,5.443-.107,9.625-2.66,10.513-1.74.605-3.942-.427-6.156-2.611Z" transform="translate(-773.241 -603.261)"/><path class="k" d="M755.8,529.77c-2.43-2.732-4.89-4.109-6.763-3.46-3.63,1.256-3.688,9.637-.131,18.715a36.1,36.1,0,0,0,6.43,10.9,36.493,36.493,0,0,1-6.258-10.711c-3.557-9.077-3.5-17.458.131-18.714,1.829-.634,4.218.664,6.591,3.269Z" transform="translate(-740.126 -524.58)"/><path class="k" d="M761.076,637.274l-5.606,4.189,1.757-2.815-2.41,3.114.473-2.28-.892,2.582-.317-1.3.123,1.383-5.918-3.259,4.622,3.294-3.546-.7,3.822,1.129-3.079.142,3.408.105-1.891.523,1.957-.395-5.84,5.156,5.607-4.191-1.758,2.817L754,643.645l-.474,2.28.891-2.581.317,1.3-.123-1.384,5.919,3.259-4.624-3.295,3.548.7-3.819-1.128,3.077-.143-3.405-.106,1.888-.522-1.956.394,5.839-5.153Z" transform="translate(-741.266 -611.273)"/></g><g transform="translate(249.156 242.115) rotate(56)"><path class="c" d="M747.9,527.323c-1.956-4.992-5.325-8.422-7.525-7.661s-2.4,5.426-.44,10.418,5.325,8.422,7.524,7.661S749.856,532.315,747.9,527.323Z" transform="translate(-736.366 -519.496)"/><path class="d" d="M720.08,521.29c-2.2.761-2.4,5.427-.44,10.418s5.325,8.422,7.524,7.661l2.222-.769c-2.2.761-5.568-2.669-7.524-7.661s-1.759-9.657.44-10.418l-2.222.769Z" transform="translate(-718.293 -520.355)"/><path class="e" d="M749.5,526.771c-1.956-4.992-5.325-8.422-7.525-7.66s-2.4,5.426-.44,10.418,5.325,8.422,7.524,7.661S751.452,531.763,749.5,526.771Z" transform="translate(-737.787 -519.004)"/><path class="f" d="M754.916,534.15c-1.772-4.521-4.673-7.679-6.481-7.053s-1.837,4.8-.065,9.32,4.674,7.679,6.481,7.053S756.687,538.671,754.916,534.15Z" transform="translate(-743.91 -526.14)"/><path class="g" d="M756.5,662.493a11.466,11.466,0,0,0,1.307,1.4l2.222-.769a11.5,11.5,0,0,1-1.307-1.4l-2.222.769Z" transform="translate(-752.32 -646.099)"/><path class="h" d="M765.224,672.229q.176.174.353.331l2.222-.769q-.177-.157-.353-.331l-2.222.769Z" transform="translate(-760.086 -654.769)"/><path class="i" d="M718.445,543.213a14.835,14.835,0,0,0,.943,7.335l2.222-.769a14.839,14.839,0,0,1-.944-7.335l-2.222.769Z" transform="translate(-718.296 -539.878)"/><path class="j" d="M753.937,534.3c-1.7-4.346-4.492-7.381-6.23-6.779s-1.766,4.612-.062,8.958,4.492,7.381,6.229,6.779S755.64,538.649,753.937,534.3Z" transform="translate(-743.31 -526.523)"/><path class="k" d="M788.725,630.939c1.165,1.258,2.332,1.881,3.23,1.57,1.276-.442,1.666-2.653,1.161-5.505.4,2.71-.053,4.793-1.325,5.235-.867.3-1.963-.212-3.066-1.3Z" transform="translate(-781.014 -615.18)"/><path class="k" d="M751.021,527.953c-1.21-1.361-2.435-2.046-3.368-1.723-1.807.626-1.837,4.8-.065,9.32a17.978,17.978,0,0,0,3.2,5.429,18.173,18.173,0,0,1-3.116-5.334c-1.771-4.52-1.742-8.694.065-9.32.911-.316,2.1.331,3.283,1.628Z" transform="translate(-743.214 -525.369)"/><path class="k" d="M754.381,637.274l-2.792,2.086.875-1.4-1.2,1.551.236-1.136-.444,1.286-.158-.65.061.689-2.947-1.623,2.3,1.641-1.766-.351,1.9.562-1.533.071,1.7.052-.942.26.975-.2-2.908,2.568,2.792-2.087-.875,1.4,1.2-1.551-.236,1.136.444-1.285.158.649-.061-.689,2.947,1.623-2.3-1.641,1.767.351-1.9-.562,1.533-.071-1.7-.053.94-.26-.974.2,2.908-2.566Z" transform="translate(-744.516 -624.326)"/></g><g transform="matrix(0.998, -0.07, 0.07, 0.998, 126.702, 253.791)"><path class="c" d="M752.472,531.136c-2.917-7.443-7.94-12.557-11.219-11.422s-3.573,8.089-.656,15.533,7.94,12.557,11.219,11.422S755.388,538.579,752.472,531.136Z" transform="translate(-735.275 -519.466)"/><path class="d" d="M720.958,521.668c-3.279,1.135-3.572,8.091-.656,15.533s7.94,12.557,11.219,11.422l3.313-1.147c-3.279,1.135-8.3-3.98-11.219-11.422s-2.623-14.4.656-15.533l-3.313,1.147Z" transform="translate(-718.293 -520.273)"/><path class="e" d="M754.067,530.583c-2.917-7.443-7.94-12.557-11.219-11.421s-3.573,8.089-.656,15.533,7.939,12.557,11.218,11.422S756.984,538.027,754.067,530.583Z" transform="translate(-736.61 -519.004)"/><path class="f" d="M758.772,537.651c-2.641-6.741-6.968-11.449-9.663-10.516s-2.739,7.154-.1,13.9,6.968,11.449,9.663,10.516S761.414,544.392,758.772,537.651Z" transform="translate(-742.364 -525.709)"/><path class="g" d="M756.5,662.871a17.09,17.09,0,0,0,1.949,2.083l3.313-1.147a17.157,17.157,0,0,1-1.949-2.083l-3.313,1.147Z" transform="translate(-750.266 -638.427)"/><path class="h" d="M765.224,672.607q.263.259.526.493l3.313-1.147q-.263-.234-.526-.493l-3.313,1.147Z" transform="translate(-757.563 -646.574)"/><path class="i" d="M718.518,543.591c-.544,2.748-.089,6.723,1.407,10.937l3.313-1.147c-1.5-4.213-1.951-8.189-1.407-10.937l-3.313,1.147Z" transform="translate(-718.296 -538.618)"/><path class="j" d="M757.644,537.669c-2.539-6.479-6.7-11-9.288-10.108s-2.632,6.876-.093,13.356,6.7,11,9.288,10.108S760.183,544.148,757.644,537.669Z" transform="translate(-741.8 -526.069)"/><path class="k" d="M788.725,632.871c1.737,1.876,3.477,2.8,4.815,2.341,1.9-.659,2.483-3.955,1.731-8.208.589,4.041-.08,7.147-1.975,7.806-1.292.449-2.927-.317-4.571-1.939Z" transform="translate(-777.228 -609.375)"/><path class="k" d="M753.35,528.838c-1.8-2.029-3.631-3.051-5.022-2.569-2.695.933-2.739,7.156-.1,13.9A26.805,26.805,0,0,0,753,548.258a27.1,27.1,0,0,1-4.646-7.952c-2.641-6.74-2.6-12.962.1-13.9,1.358-.47,3.132.493,4.894,2.427Z" transform="translate(-741.71 -524.984)"/><path class="k" d="M757.642,637.274l-4.162,3.11,1.3-2.09-1.789,2.312.352-1.693-.662,1.917-.235-.969.091,1.027-4.394-2.419,3.432,2.446-2.633-.523,2.838.838-2.286.106,2.53.078-1.4.388,1.453-.293-4.336,3.828,4.163-3.112-1.305,2.092L752.387,642l-.352,1.693.662-1.917.235.968-.092-1.027,4.395,2.419L753.8,641.7l2.634.523-2.836-.838,2.285-.106-2.528-.079,1.4-.388-1.452.292,4.335-3.826Z" transform="translate(-742.933 -617.969)"/></g><g transform="matrix(0.998, -0.07, 0.07, 0.998, 171.702, 228.791)"><path class="c" d="M745.651,525.448c-1.484-3.787-4.039-6.388-5.708-5.811s-1.818,4.116-.334,7.9,4.039,6.388,5.708,5.811S747.135,529.234,745.651,525.448Z" transform="translate(-736.902 -519.51)"/><path class="d" d="M719.649,521.1c-1.668.578-1.817,4.116-.334,7.9s4.04,6.388,5.708,5.811l1.686-.583c-1.668.578-4.224-2.025-5.708-5.811s-1.334-7.325.334-7.9l-1.686.584Z" transform="translate(-718.293 -520.395)"/><path class="e" d="M747.247,524.9c-1.484-3.787-4.039-6.388-5.708-5.811s-1.818,4.116-.334,7.9,4.039,6.388,5.708,5.811S748.731,528.682,747.247,524.9Z" transform="translate(-738.366 -519.004)"/><path class="f" d="M753.018,532.427c-1.344-3.43-3.545-5.825-4.916-5.35s-1.393,3.64-.05,7.069,3.545,5.825,4.916,5.35S754.362,535.857,753.018,532.427Z" transform="translate(-744.67 -526.352)"/><path class="g" d="M756.5,662.307a8.687,8.687,0,0,0,.992,1.06l1.686-.583a8.724,8.724,0,0,1-.992-1.06l-1.686.583Z" transform="translate(-753.33 -649.871)"/><path class="h" d="M765.224,672.044q.134.132.267.251l1.686-.584q-.134-.119-.267-.251l-1.686.584Z" transform="translate(-761.326 -658.799)"/><path class="i" d="M718.409,543.028a11.254,11.254,0,0,0,.716,5.564l1.686-.584a11.257,11.257,0,0,1-.716-5.564l-1.685.584Z" transform="translate(-718.296 -540.497)"/><path class="j" d="M752.114,532.648c-1.292-3.3-3.407-5.6-4.725-5.142s-1.339,3.5-.047,6.795,3.407,5.6,4.725,5.142S753.405,535.944,752.114,532.648Z" transform="translate(-744.053 -526.746)"/><path class="k" d="M788.725,629.989c.884.955,1.769,1.427,2.45,1.191.968-.335,1.263-2.012.881-4.176.3,2.056-.04,3.636-1,3.971-.657.229-1.489-.161-2.325-.986Z" transform="translate(-782.876 -618.035)"/><path class="k" d="M749.876,527.518c-.918-1.032-1.847-1.552-2.555-1.307-1.371.475-1.393,3.64-.05,7.07A13.639,13.639,0,0,0,749.7,537.4a13.785,13.785,0,0,1-2.364-4.046c-1.344-3.429-1.322-6.595.049-7.069.691-.239,1.593.251,2.49,1.235Z" transform="translate(-743.954 -525.557)"/><path class="k" d="M752.778,637.274l-2.118,1.582.664-1.063-.91,1.176.179-.861-.337.975-.12-.493.046.523-2.236-1.231,1.746,1.245-1.34-.266,1.444.427-1.163.054,1.287.04-.714.2.739-.149-2.206,1.948,2.118-1.583-.664,1.064.91-1.176-.179.861.337-.975.12.493-.047-.523,2.236,1.231-1.747-1.245,1.34.266-1.443-.426,1.162-.054-1.286-.04.713-.2-.739.149,2.205-1.947Z" transform="translate(-745.295 -627.452)"/></g></g></svg>