<svg xmlns="http://www.w3.org/2000/svg" xmlns:xlink="http://www.w3.org/1999/xlink" width="97" height="94" viewBox="0 0 97 94"><defs><linearGradient id="a" x1="0.5" x2="0.5" y2="1" gradientUnits="objectBoundingBox"><stop offset="0" stop-color="#33df33"/><stop offset="1" stop-color="#12b412"/></linearGradient><filter id="b" x="0" y="0" width="97" height="94" filterUnits="userSpaceOnUse"><feOffset dy="3" input="SourceAlpha"/><feGaussianBlur stdDeviation="3" result="c"/><feFlood flood-opacity="0.29"/><feComposite operator="in" in2="c"/><feComposite in="SourceGraphic"/></filter><filter id="d" x="27.636" y="34.994" width="41.945" height="22.927" filterUnits="userSpaceOnUse"><feOffset dy="1" input="SourceAlpha"/><feGaussianBlur result="e"/><feFlood flood-opacity="0.161"/><feComposite operator="in" in2="e"/><feComposite in="SourceGraphic"/></filter></defs><g transform="translate(-287 -252)"><g transform="matrix(1, 0, 0, 1, 287, 252)" filter="url(#b)"><g transform="translate(9 6)" fill="url(#a)"><path d="M33.36,8.74a7.5,7.5,0,0,1,12.279,0l.373.532A7.5,7.5,0,0,0,54.12,12.2l.653-.177A7.5,7.5,0,0,1,64.206,20l-.016.159a7.5,7.5,0,0,0,4.42,7.6l.177.078a7.5,7.5,0,0,1,2.145,12.273l-.009.009a7.5,7.5,0,0,0-1.548,8.713h0A7.5,7.5,0,0,1,63.2,59.613l-.455.035a7.5,7.5,0,0,0-6.685,5.566l-.106.4a7.5,7.5,0,0,1-11.548,4.238l-.617-.431a7.5,7.5,0,0,0-8.588,0l-.617.431a7.5,7.5,0,0,1-11.548-4.238l-.106-.4a7.5,7.5,0,0,0-6.685-5.566l-.455-.035a7.5,7.5,0,0,1-6.17-10.778h0a7.5,7.5,0,0,0-1.548-8.713l-.009-.009a7.5,7.5,0,0,1,2.145-12.273l.177-.078a7.5,7.5,0,0,0,4.42-7.6L14.794,20a7.5,7.5,0,0,1,9.433-7.982l.653.177a7.5,7.5,0,0,0,8.106-2.928Z" stroke="none"/><path d="M 39.5 8.549476623535156 C 38.01302337646484 8.549476623535156 36.66996383666992 9.247314453125 35.81521224975586 10.46402740478516 L 35.44173049926758 10.99568939208984 C 33.47717666625977 13.79216003417969 30.2642936706543 15.46168899536133 26.84725952148438 15.46168899536133 C 25.91869354248047 15.46168899536133 24.99236297607422 15.33795928955078 24.09401321411133 15.09392166137695 L 23.44110488891602 14.91656875610352 C 23.04299926757813 14.80842971801758 22.63888168334961 14.75359344482422 22.2400016784668 14.75360488891602 C 20.98623657226563 14.75363922119141 19.77357482910156 15.29869842529297 18.9129524230957 16.24903106689453 C 18.05471801757813 17.19672393798828 17.65218734741211 18.42485427856445 17.77951812744141 19.70729827880859 L 17.79528045654297 19.86614608764648 C 18.24388122558594 24.38414764404297 15.75764846801758 28.65841674804688 11.60854339599609 30.50213623046875 L 11.43199157714844 30.58058166503906 C 10.03775024414063 31.20012283325195 9.087432861328125 32.41740417480469 8.82470703125 33.92031097412109 C 8.561988830566406 35.4232177734375 9.042976379394531 36.89071273803711 10.14395141601563 37.94614791870117 L 10.15364837646484 37.95544052124023 C 13.46524810791016 41.13002777099609 14.33592987060547 46.03167724609375 12.32021331787109 50.15254592895508 C 11.65364837646484 51.51525115966797 11.70359802246094 53.05187606811523 12.45724487304688 54.36841583251953 C 13.21088409423828 55.68495941162109 14.51065063476563 56.50613403320313 16.02318954467773 56.62139129638672 L 16.47775268554688 56.6560173034668 C 20.93395233154297 56.99557113647461 24.69436645507813 60.12693786621094 25.83503341674805 64.44800567626953 L 25.94125747680664 64.85035705566406 C 26.20571899414063 65.85218048095703 26.77679824829102 66.70191955566406 27.59277725219727 67.30774688720703 C 28.3755989074707 67.88896179199219 29.34185791015625 68.20903778076172 30.31354141235352 68.20903778076172 C 31.22328186035156 68.20903778076172 32.10808181762695 67.92716979980469 32.87228393554688 67.39389801025391 L 33.48943710327148 66.96324157714844 C 35.26113128662109 65.72691345214844 37.33955383300781 65.07342529296875 39.4999885559082 65.07342529296875 C 41.66043472290039 65.07342529296875 43.73885726928711 65.72691345214844 45.51058959960938 66.96326446533203 L 46.12770462036133 67.39391326904297 C 46.89189529418945 67.92716979980469 47.77667999267578 68.20903778076172 48.68643569946289 68.20903778076172 C 49.65797424316406 68.20903778076172 50.62419891357422 67.88890838623047 51.40711975097656 67.30764007568359 C 52.22319030761719 66.70174407958984 52.79429626464844 65.85204315185547 53.05873870849609 64.85028839111328 L 53.16493988037109 64.44802856445313 C 54.30563354492188 60.12693786621094 58.06604766845703 56.99557113647461 62.52222442626953 56.65604019165039 L 62.97674179077148 56.62140655517578 C 64.48934936523438 56.50614929199219 65.78911590576172 55.68497085571289 66.54276275634766 54.36841583251953 C 67.29640197753906 53.05188751220703 67.34634399414063 51.51526641845703 66.67977905273438 50.15255737304688 C 64.66407012939453 46.03167724609375 65.53475189208984 41.13002777099609 68.84674072265625 37.95506286621094 L 68.85565948486328 37.9465217590332 C 69.95702362060547 36.89072418212891 70.43801116943359 35.4232292175293 70.17529296875 33.92032241821289 C 69.91257476806641 32.41741561889648 68.96225738525391 31.20013427734375 67.56798553466797 30.58058166503906 L 67.39141082763672 30.50211334228516 C 63.24235153198242 28.65843963623047 60.75611877441406 24.38417053222656 61.20470428466797 19.86624145507813 L 61.22049331665039 19.70721817016602 C 61.34784698486328 18.42447662353516 60.94525909423828 17.19610977172852 60.08688354492188 16.24837112426758 C 59.22640228271484 15.29831314086914 58.01393127441406 14.75349807739258 56.76039886474609 14.75361633300781 C 56.36106109619141 14.75366592407227 55.95680999755859 14.80848693847656 55.558837890625 14.91660690307617 L 54.90599822998047 15.09392166137695 C 54.00765991210938 15.33795928955078 53.08132934570313 15.46168899536133 52.15272903442383 15.46168899536133 C 48.7357063293457 15.46168899536133 45.52283477783203 13.79216003417969 43.55823516845703 10.99565124511719 L 43.18479919433594 10.46405029296875 C 42.33002471923828 9.247314453125 40.98696517944336 8.549476623535156 39.5 8.549476623535156 M 39.5 5.549476623535156 C 41.82278442382813 5.549476623535156 44.14556884765625 6.612831115722656 45.63959884643555 8.739532470703125 L 46.01306915283203 9.27117919921875 C 47.44076156616211 11.30344390869141 49.74950408935547 12.46169281005859 52.15272903442383 12.46169281005859 C 52.8067626953125 12.46169281005859 53.46728515625 12.37602996826172 54.11956405639648 12.19883728027344 L 54.7724609375 12.02149963378906 C 55.44209671020508 11.839599609375 56.10910797119141 11.75368499755859 56.76007080078125 11.75362396240234 C 61.03995513916016 11.75320434570313 64.65657043457031 15.46374893188477 64.205810546875 20.00361633300781 L 64.19003295898438 20.16255950927734 C 63.87023544311523 23.38338088989258 65.65183258056641 26.44626617431641 68.60963439941406 27.76059341430664 L 68.78624725341797 27.83907699584961 C 73.66015625 30.00485229492188 74.78181457519531 36.42134857177734 70.93170166015625 40.1121711730957 L 70.92240142822266 40.12108993530273 C 68.56626129150391 42.37974548339844 67.94052886962891 45.90245056152344 69.37465667724609 48.83436965942383 C 71.70478820800781 53.59803009033203 68.49236297607422 59.20981597900391 63.20468139648438 59.61273574829102 L 62.75016403198242 59.64736938476563 C 59.56399917602539 59.89013671875 56.88116455078125 62.12418365478516 56.06557464599609 65.2137451171875 L 55.9593505859375 65.6160888671875 C 55.04156875610352 69.09281158447266 51.93106079101563 71.20904541015625 48.68643951416016 71.20904541015625 C 47.22581481933594 71.20904541015625 45.73839950561523 70.78046417236328 44.41093063354492 69.85413360595703 L 43.79376602172852 69.42345428466797 C 42.50400161743164 68.5234375 41.00199890136719 68.07342529296875 39.49999237060547 68.07342529296875 C 37.99798965454102 68.07342529296875 36.49598693847656 68.5234375 35.20622253417969 69.42345428466797 L 34.58904647827148 69.8541259765625 C 33.26183700561523 70.7802734375 31.77388763427734 71.20903778076172 30.31353759765625 71.20903778076172 C 27.06860733032227 71.20903778076172 23.95849609375 69.09310913085938 23.04062271118164 65.61607360839844 L 22.93441009521484 65.2137451171875 C 22.11882400512695 62.12416839599609 19.43598937988281 59.89012145996094 16.24982452392578 59.64734649658203 L 15.79531860351563 59.61272430419922 C 10.50763702392578 59.20981597900391 7.295211791992188 53.59801483154297 9.625328063964844 48.83435821533203 C 11.05947113037109 45.90244293212891 10.43373107910156 42.37973403930664 8.077598571777344 40.12108993530273 L 8.068290710449219 40.1121711730957 C 4.218185424804688 36.42133331298828 5.33984375 30.00484085083008 10.21376800537109 27.83906555175781 L 10.39036560058594 27.76059341430664 C 13.34815216064453 26.44625091552734 15.12976455688477 23.38338088989258 14.80996704101563 20.16255950927734 L 14.794189453125 20.00360488891602 C 14.34346008300781 15.46405792236328 17.9604377746582 11.75371551513672 22.23992538452148 11.75360870361328 C 22.89117813110352 11.75359344482422 23.55759429931641 11.83950042724609 24.22754287719727 12.021484375 L 24.88043594360352 12.19883728027344 C 25.53234100341797 12.37592315673828 26.1935920715332 12.46168518066406 26.84725952148438 12.46168518066406 C 29.25088882446289 12.46168518066406 31.55901718139648 11.30375671386719 32.98693084716797 9.271171569824219 L 33.36040115356445 8.739532470703125 C 34.85443115234375 6.612831115722656 37.17721557617188 5.549476623535156 39.5 5.549476623535156 Z" stroke="none" fill="rgba(255,255,255,0.3)"/></g></g><g transform="matrix(1, 0, 0, 1, 287, 252)" filter="url(#d)"><path d="M5.036-9.633v2.268H8.78v2.971H5.036V0h-3.8V-12.6h7.9v2.971ZM17.517,0l-.94-2.716a3.377,3.377,0,0,0-.708-1.257,1.292,1.292,0,0,0-.945-.457h-.149V0h-3.8V-12.6h5.045a7,7,0,0,1,3.907.866,2.941,2.941,0,0,1,1.261,2.6,3.286,3.286,0,0,1-.734,2.18,4.182,4.182,0,0,1-2.184,1.274v.035a3.052,3.052,0,0,1,1.332.8,4.948,4.948,0,0,1,.954,1.644L21.8,0Zm-.36-8.6a1.32,1.32,0,0,0-.387-1,1.707,1.707,0,0,0-1.213-.369h-.782v2.883h.686a1.741,1.741,0,0,0,1.23-.431A1.41,1.41,0,0,0,17.156-8.6Zm6.1,8.6V-12.6H31.1v2.971H27.053V-7.8h3.806v2.971H27.053v1.854h4.342V0Zm9.932,0V-12.6h7.849v2.971H36.984V-7.8H40.79v2.971H36.984v1.854h4.342V0Z" transform="translate(29.48 57.22) rotate(-14)" fill="#fff"/></g></g></svg>