<svg xmlns="http://www.w3.org/2000/svg" xmlns:xlink="http://www.w3.org/1999/xlink" width="701.793" height="308.699" viewBox="0 0 701.793 308.699"><defs><style>.a{fill:url(#a);}.b{fill:#21ded1;}.b,.c{stroke:#fff;stroke-width:2px;}.c{fill:#eee129;}.d{stroke:none;}.e{fill:none;}.f{filter:url(#b);}</style><linearGradient id="a" x1="1" y1="0.5" x2="0" y2="1" gradientUnits="objectBoundingBox"><stop offset="0" stop-color="#fff"/><stop offset="0.661" stop-color="#85ffea"/><stop offset="1" stop-color="#fff" stop-opacity="0"/></linearGradient><filter id="b" x="0" y="0" width="701.793" height="308.699" filterUnits="userSpaceOnUse"><feOffset dy="20" input="SourceAlpha"/><feGaussianBlur stdDeviation="3" result="c"/><feFlood flood-color="#78003c" flood-opacity="0.161"/><feComposite operator="in" in2="c"/><feComposite in="SourceGraphic"/></filter></defs><g transform="translate(85.259 15.492)"><g transform="translate(5893.857 1309.093)"><g class="f" transform="matrix(1, 0, 0, 1, -5979.12, -1324.59)"><path class="a" d="M-5969.876-1074.979c11.37.4,21.978,3.43,32.158,6.72,10.2,3.324,20.056,7.111,29.974,10.124,9.867,2.966,19.964,5.292,29.549,4.464a35.9,35.9,0,0,0,6.942-1.325l.846-.239.886-.318,1.775-.631c1.2-.4,2.347-.878,3.489-1.371a62.142,62.142,0,0,0,12.895-7.3c4.024-2.922,7.837-6.463,11.986-9.948a99.948,99.948,0,0,1,13.376-9.707,87.649,87.649,0,0,1,15.111-7.185,67.953,67.953,0,0,1,16.6-3.392,68.124,68.124,0,0,1,16.824.877,111.488,111.488,0,0,1,15.98,4.1c10.33,3.4,20.028,7.705,29.8,11.1a126.847,126.847,0,0,0,14.715,4.286,74.99,74.99,0,0,0,14.861,1.729,58.8,58.8,0,0,0,14.717-1.595,71.052,71.052,0,0,0,14.088-4.9c9.107-4.229,17.291-10.329,24.853-17.32,7.6-6.971,14.636-14.8,22.327-22.346a146.451,146.451,0,0,1,12.219-10.854,84.08,84.08,0,0,1,14.1-8.954,68.368,68.368,0,0,1,15.909-5.622,65.516,65.516,0,0,1,16.913-1.251c11.184.59,21.766,3.305,32.038,6.153,10.274,2.884,20.3,6.07,30.391,8.422,10.063,2.351,20.231,3.882,30.2,3.313,2.511-.117,4.881-.436,7.584-.772,2.615-.341,5.188-.676,7.738-1.086a141.235,141.235,0,0,0,15.088-3.142,129.225,129.225,0,0,0,53.545-28.978c15.493-13.531,27.931-30.463,39.288-48.04a553.744,553.744,0,0,0,30.779-54.887c4.686-9.407,9.058-18.972,13.351-28.572l3.419-7.939.846-1.964c.562-1.311,1.135-2.616,1.667-3.94l-9.718-.01c4.063-3.874.1-.335,22.26-17.3,2.189,26.541,2.225,21.89,2.168,27.649l-6.76-7.014c-.537,1.337-1.115,2.657-1.685,3.981l-.854,1.986-3.457,8.026c-4.341,9.71-8.764,19.385-13.51,28.913a561.455,561.455,0,0,1-31.267,55.745c-5.781,8.983-11.9,17.776-18.575,26.218-1.723,2.075-3.357,4.212-5.155,6.237l-5.423,6.051-1.36,1.508-1.45,1.428-2.9,2.856-2.9,2.854c-1,.922-2.046,1.789-3.066,2.686a137.917,137.917,0,0,1-57.034,30.84,149.884,149.884,0,0,1-15.958,3.324c-2.671.429-5.342.776-7.971,1.118-2.541.318-5.423.7-8.194.831-11.189.63-22.16-1.08-32.658-3.526-10.521-2.458-20.669-5.69-30.756-8.517-10.069-2.8-20.153-5.327-30.139-5.842a56.94,56.94,0,0,0-14.639,1.061,59.71,59.71,0,0,0-13.927,4.926,75.378,75.378,0,0,0-12.632,8.032A138.04,138.04,0,0,0-5620.094-1113c-7.418,7.261-14.534,15.2-22.524,22.534-7.943,7.348-16.906,14.079-27.023,18.777a79.687,79.687,0,0,1-15.815,5.5,67.432,67.432,0,0,1-16.742,1.813,83.652,83.652,0,0,1-16.6-1.925,135.193,135.193,0,0,1-15.73-4.571c-10.2-3.559-19.876-7.849-29.653-11.054-9.742-3.207-19.687-5.364-29.5-4.564a59.33,59.33,0,0,0-14.4,2.941,72.687,72.687,0,0,0-6.855,2.884,72.955,72.955,0,0,0-6.632,3.542,91.426,91.426,0,0,0-12.267,8.916c-3.952,3.308-7.9,6.991-12.431,10.3a70.839,70.839,0,0,1-14.64,8.3c-1.287.554-2.576,1.09-3.892,1.528l-1.96.7c-.64.239-1.314.461-2.043.654a44.345,44.345,0,0,1-8.614,1.648,65.577,65.577,0,0,1-16.915-.9,132.071,132.071,0,0,1-15.921-3.9c-10.323-3.142-20.229-6.952-30.144-10.178-9.887-3.217-19.889-5.968-29.729-6.3Z" transform="translate(5979.12 1324.59)"/></g></g><g class="b" transform="translate(84.856 209.754)"><circle class="d" cx="9.384" cy="9.384" r="9.384"/><circle class="e" cx="9.384" cy="9.384" r="10.384"/></g><g class="b" transform="translate(199.672 228.522)"><circle class="d" cx="9.384" cy="9.384" r="9.384"/><circle class="e" cx="9.384" cy="9.384" r="10.384"/></g><g class="c" transform="translate(316.171 157.061)"><circle class="d" cx="9.384" cy="9.384" r="9.384"/><circle class="e" cx="9.384" cy="9.384" r="10.384"/></g><g class="b" transform="translate(500.189 137.361)"><circle class="d" cx="9.384" cy="9.384" r="9.384"/><circle class="e" cx="9.384" cy="9.384" r="10.384"/></g></g></svg>