<svg xmlns="http://www.w3.org/2000/svg" width="585.024" height="585.031" viewBox="0 0 585.024 585.031"><defs><style>.a{fill:#fff;opacity:0.06;}</style></defs><path class="a" d="M142.771,214.14a71.377,71.377,0,1,1,71.369,71.385,71.377,71.377,0,0,1-71.369-71.385m-38.59,0A109.958,109.958,0,1,0,214.139,104.182,109.956,109.956,0,0,0,104.181,214.14M302.755,99.822a25.7,25.7,0,1,0,25.706-25.687h-.01a25.708,25.708,0,0,0-25.7,25.687M127.627,388.447c-20.878-.952-32.226-4.429-39.767-7.368a66.549,66.549,0,0,1-24.631-16.017,66.074,66.074,0,0,1-16.018-24.613c-2.94-7.538-6.417-18.89-7.366-39.767-1.037-22.572-1.245-29.352-1.245-86.538s.225-63.947,1.245-86.539C40.8,106.728,44.3,95.4,47.211,87.839A66.55,66.55,0,0,1,63.229,63.208,66,66,0,0,1,87.86,47.19c7.538-2.939,18.889-6.417,39.767-7.366,22.571-1.038,29.352-1.246,86.512-1.246s63.947.221,86.538,1.249c20.879.951,32.207,4.453,39.766,7.366a66.339,66.339,0,0,1,24.632,16.018,66.356,66.356,0,0,1,16.018,24.631c2.939,7.539,6.417,18.889,7.366,39.766,1.039,22.592,1.245,29.354,1.245,86.538s-.206,63.947-1.245,86.538c-.95,20.877-4.446,32.226-7.366,39.766a70.895,70.895,0,0,1-40.65,40.631c-7.536,2.94-18.887,6.418-39.766,7.367-22.572,1.039-29.352,1.246-86.538,1.246s-63.947-.206-86.512-1.246M125.854,1.3c-22.8,1.039-38.373,4.654-51.977,9.947a105.1,105.1,0,0,0-37.934,24.7,104.559,104.559,0,0,0-24.7,37.933C5.949,87.489,2.335,103.058,1.3,125.854.242,148.687,0,155.986,0,214.14s.242,65.453,1.3,88.285c1.038,22.8,4.652,38.365,9.946,51.978a104.684,104.684,0,0,0,24.7,37.934,105.2,105.2,0,0,0,37.934,24.7c13.629,5.294,29.181,8.908,51.977,9.947,22.844,1.038,30.131,1.3,88.286,1.3s65.453-.242,88.285-1.3c22.8-1.039,38.366-4.652,51.979-9.947A109.477,109.477,0,0,0,417.035,354.4c5.294-13.613,8.926-29.181,9.947-51.978,1.037-22.85,1.279-30.132,1.279-88.285s-.242-65.453-1.279-88.286c-1.039-22.8-4.652-38.374-9.947-51.977a105.291,105.291,0,0,0-24.7-37.933,104.776,104.776,0,0,0-37.916-24.7c-13.63-5.293-29.2-8.926-51.978-9.947C279.606.253,272.31,0,214.164,0s-65.458.242-88.3,1.3" transform="translate(214.139) rotate(30)"/></svg>