<svg xmlns="http://www.w3.org/2000/svg" xmlns:xlink="http://www.w3.org/1999/xlink" width="718" height="88" viewBox="0 0 718 88"><defs><clipPath id="a"><rect width="718" height="88" rx="18" transform="translate(2 1116)" fill="#3cb8a3"/></clipPath><linearGradient id="b" y1="0.59" x2="1" y2="0.5" gradientUnits="objectBoundingBox"><stop offset="0" stop-color="#ff4040"/><stop offset="1" stop-color="#c72222"/></linearGradient></defs><g transform="translate(-2 -1116)" clip-path="url(#a)"><rect width="718" height="88" rx="18" transform="translate(2 1116)" fill="url(#b)"/><path d="M146.157,176.563a1.292,1.292,0,0,0-2.063-1.2l-2.749,2.09.558-4.9a1.277,1.277,0,0,0-.271-.952,1.292,1.292,0,0,0-2.295.659l-.839,7.355-5.835,4.436a9.145,9.145,0,0,0-4.4-2.485l.526-7.358,5.408-4.688a1.292,1.292,0,1,0-1.693-1.952l-3.454,3,.237-3.351a1.291,1.291,0,1,0-2.576-.185l-.244,3.447-3.311-3.654a1.3,1.3,0,0,0-.915-.427,1.258,1.258,0,0,0-.908.336,1.291,1.291,0,0,0-.091,1.826l4.969,5.487-.518,7.284a9.094,9.094,0,0,0-3.847,1.058l-4.466-5.877.965-7.091a1.293,1.293,0,0,0-1.105-1.456,1.292,1.292,0,0,0-1.456,1.108l-.617,4.53-2.033-2.672a1.291,1.291,0,1,0-2.055,1.562l2.09,2.749-4.9-.558a1.293,1.293,0,0,0-1.431,1.137,1.293,1.293,0,0,0,1.137,1.429l7.355.839,4.439,5.835a9.059,9.059,0,0,0-2.27,3.637l-7.158-1.446-3.96-6.257a1.292,1.292,0,0,0-1.769-.41l0,0a1.274,1.274,0,0,0-.58.794,1.31,1.31,0,0,0,.17.994l2.638,4.167-3.388-.686a1.332,1.332,0,0,0-.972.19,1.291,1.291,0,0,0-.36,1.789,1.275,1.275,0,0,0,.822.553l3.294.666-3.824,2.539a1.292,1.292,0,0,0,.471,2.334,1.334,1.334,0,0,0,.97-.19l5.964-3.958,7.229,1.458a9.17,9.17,0,0,0,1.219,4.908l-5.8,4.414-7.313-1.16a1.32,1.32,0,0,0-.96.232,1.292,1.292,0,0,0,.558,2.322l4.868.77-2.781,2.117a1.291,1.291,0,0,0,1.564,2.055L111.1,203.7l-.617,4.533a1.291,1.291,0,0,0,1.105,1.453,1.292,1.292,0,0,0,1.453-1.105l.967-7.094,5.843-4.441A9.168,9.168,0,0,0,124.4,199.4l-.521,7.286-5.7,4.727a1.294,1.294,0,0,0-.17,1.818,1.317,1.317,0,0,0,.933.466,1.2,1.2,0,0,0,.886-.3l3.795-3.148-.247,3.486a1.29,1.29,0,0,0,.311.938,1.273,1.273,0,0,0,.886.442,1.308,1.308,0,0,0,.873-.259,1.294,1.294,0,0,0,.506-.938l.242-3.39,3,3.454a1.309,1.309,0,0,0,1.823.131,1.293,1.293,0,0,0,.128-1.823l-4.688-5.408.526-7.36a9.1,9.1,0,0,0,3.741-1.189l4.412,5.8-1.157,7.311a1.292,1.292,0,0,0,1.076,1.48,1.308,1.308,0,0,0,.982-.249,1.283,1.283,0,0,0,.493-.824l.77-4.871,2.117,2.783a1.29,1.29,0,0,0,1.712.313q.052-.033.1-.067a1.292,1.292,0,0,0,.247-1.811l-2.058-2.707,4.533.617a1.292,1.292,0,1,0,.348-2.561l-7.094-.965-4.441-5.843a9.12,9.12,0,0,0,1.925-3.074l7.232,1.463,3.96,5.964a1.312,1.312,0,0,0,1.858.313,1.3,1.3,0,0,0,.294-1.742l-2.529-3.812,3.331.671a1.285,1.285,0,0,0,1.522-1.007A1.29,1.29,0,0,0,149.34,194l-3.427-.693,4.017-2.8a1.349,1.349,0,0,0,.56-.795,1.318,1.318,0,0,0-.2-1.024,1.3,1.3,0,0,0-.831-.533,1.229,1.229,0,0,0-.967.212l-6.077,4.227-7.16-1.446a9.138,9.138,0,0,0-1.049-5.016l5.875-4.468,7.094.967a1.292,1.292,0,1,0,.348-2.561l-4.533-.617,2.675-2.033A1.283,1.283,0,0,0,146.157,176.563ZM131.358,193a5.564,5.564,0,0,1-.666,1.031l-1.046-1.377Zm-2.149-3.069,2.277-1.732a5.773,5.773,0,0,1,.461,2.285Zm-.533,5.717a5.887,5.887,0,0,1-1.453.5l.155-2.2Zm-3.839-2.391-.2,2.786a5.739,5.739,0,0,1-2.078-1.056Zm-1.737-1.925-2.152,1.636a5.723,5.723,0,0,1-.572-2.186Zm.343-2.566-2.645-.535a5.778,5.778,0,0,1,1.014-1.611Zm.464-3.659a5.624,5.624,0,0,1,1.542-.415l-.16,2.233Zm3.913,2.633.2-2.771a5.749,5.749,0,0,1,1.957,1.135Z" transform="translate(98.693 936.065)" opacity="0.07"/><path d="M126.21,171.733a.711.711,0,0,0-1.134-.661l-1.511,1.149.307-2.692a.7.7,0,0,0-.149-.524.711.711,0,0,0-1.262.362L122,173.413l-3.209,2.44a5.029,5.029,0,0,0-2.422-1.366l.289-4.046,2.974-2.578a.71.71,0,1,0-.931-1.073l-1.9,1.647.13-1.843a.71.71,0,1,0-1.417-.1l-.134,1.9-1.821-2.009a.716.716,0,0,0-.5-.235.692.692,0,0,0-.5.185.71.71,0,0,0-.05,1l2.733,3.018-.285,4.005a5,5,0,0,0-2.115.582l-2.456-3.232.531-3.9a.711.711,0,0,0-.608-.8.711.711,0,0,0-.8.609l-.339,2.491-1.118-1.469a.71.71,0,1,0-1.13.859l1.149,1.511-2.693-.307a.711.711,0,0,0-.787.625.711.711,0,0,0,.625.786l4.045.461,2.441,3.209a4.982,4.982,0,0,0-1.248,2l-3.936-.8-2.178-3.441a.711.711,0,0,0-.973-.225h0a.7.7,0,0,0-.319.437.72.72,0,0,0,.094.547l1.45,2.292-1.863-.377a.732.732,0,0,0-.535.1.71.71,0,0,0-.2.984.7.7,0,0,0,.452.3l1.811.366-2.1,1.4a.71.71,0,0,0,.259,1.284.733.733,0,0,0,.533-.1l3.279-2.176,3.975.8a5.043,5.043,0,0,0,.67,2.7l-3.191,2.427-4.022-.638a.726.726,0,0,0-.528.128.71.71,0,0,0,.307,1.277l2.677.423-1.529,1.164a.71.71,0,0,0,.86,1.13l1.488-1.132-.339,2.492a.71.71,0,0,0,.608.8.711.711,0,0,0,.8-.608l.532-3.9L111.742,183a5.042,5.042,0,0,0,2.5,1.292l-.286,4.007-3.133,2.6a.711.711,0,0,0-.094,1,.724.724,0,0,0,.513.256.659.659,0,0,0,.487-.163l2.087-1.731-.136,1.917a.709.709,0,0,0,.171.516.7.7,0,0,0,.487.243.719.719,0,0,0,.48-.142.712.712,0,0,0,.278-.516l.133-1.864,1.647,1.9a.72.72,0,0,0,1,.072.711.711,0,0,0,.071-1l-2.578-2.974.289-4.047a5,5,0,0,0,2.057-.654l2.426,3.19-.636,4.02a.71.71,0,0,0,.592.814.719.719,0,0,0,.54-.137.705.705,0,0,0,.271-.453l.423-2.678,1.164,1.53a.709.709,0,0,0,.942.172l.053-.037a.711.711,0,0,0,.136-1l-1.132-1.488,2.492.339a.711.711,0,1,0,.191-1.408l-3.9-.531-2.442-3.213a5.015,5.015,0,0,0,1.058-1.691l3.977.8,2.178,3.279a.722.722,0,0,0,1.022.172.712.712,0,0,0,.161-.958l-1.391-2.1,1.832.369a.707.707,0,0,0,.837-.554.71.71,0,0,0-.555-.837l-1.885-.381,2.209-1.537a.742.742,0,0,0,.308-.437.725.725,0,0,0-.113-.563.713.713,0,0,0-.457-.293.676.676,0,0,0-.532.117l-3.342,2.324-3.937-.8a5.025,5.025,0,0,0-.577-2.758l3.231-2.457,3.9.532a.711.711,0,1,0,.191-1.408l-2.492-.339,1.471-1.118A.705.705,0,0,0,126.21,171.733Zm-8.138,9.036a3.059,3.059,0,0,1-.366.567l-.575-.757Zm-1.182-1.688,1.252-.952a3.175,3.175,0,0,1,.254,1.256Zm-.293,3.144a3.238,3.238,0,0,1-.8.273l.085-1.21Zm-2.111-1.315-.109,1.532a3.156,3.156,0,0,1-1.142-.581Zm-.955-1.058-1.183.9a3.147,3.147,0,0,1-.315-1.2Zm.189-1.411-1.455-.294a3.178,3.178,0,0,1,.558-.886Zm.255-2.012a3.093,3.093,0,0,1,.848-.228l-.088,1.228Zm2.152,1.448.109-1.524a3.161,3.161,0,0,1,1.076.624Z" transform="translate(168.604 1025.065)" fill="#fff" opacity="0.2"/><g transform="translate(57.643 1134.281)"><path d="M467.643,487.205a15.894,15.894,0,1,1,15.892,15.9,15.894,15.894,0,0,1-15.892-15.9m-8.593,0a24.486,24.486,0,1,0,24.486-24.486,24.485,24.485,0,0,0-24.486,24.486m44.219-25.457a5.722,5.722,0,1,0,5.724-5.72h0a5.725,5.725,0,0,0-5.722,5.72m-39,64.272a26.352,26.352,0,0,1-8.855-1.641,15.79,15.79,0,0,1-9.052-9.048,26.336,26.336,0,0,1-1.64-8.855c-.231-5.026-.277-6.536-.277-19.271s.05-14.24.277-19.271a26.539,26.539,0,0,1,1.64-8.855,15.782,15.782,0,0,1,9.052-9.052,26.334,26.334,0,0,1,8.855-1.64c5.026-.231,6.536-.277,19.265-.277s14.24.049,19.271.278a26.531,26.531,0,0,1,8.855,1.64,15.781,15.781,0,0,1,9.052,9.052,26.333,26.333,0,0,1,1.64,8.855c.231,5.031.277,6.536.277,19.271s-.046,14.24-.277,19.271a26.449,26.449,0,0,1-1.64,8.855,15.788,15.788,0,0,1-9.052,9.048,26.32,26.32,0,0,1-8.855,1.64c-5.026.231-6.536.277-19.271.277s-14.24-.046-19.265-.277m-.395-86.212a34.971,34.971,0,0,0-11.575,2.215,24.38,24.38,0,0,0-13.947,13.947,34.969,34.969,0,0,0-2.215,11.574c-.235,5.084-.289,6.71-.289,19.66s.054,14.575.289,19.66a34.969,34.969,0,0,0,2.215,11.575A24.379,24.379,0,0,0,452.3,532.387a35,35,0,0,0,11.575,2.215c5.087.231,6.71.289,19.66.289s14.575-.054,19.66-.289a34.976,34.976,0,0,0,11.575-2.215,24.379,24.379,0,0,0,13.947-13.947,34.871,34.871,0,0,0,2.215-11.575c.231-5.088.285-6.71.285-19.66s-.054-14.575-.285-19.66a34.957,34.957,0,0,0-2.215-11.574,24.387,24.387,0,0,0-13.943-13.947,34.923,34.923,0,0,0-11.575-2.215c-5.085-.232-6.71-.289-19.658-.289s-14.576.054-19.663.289" transform="translate(14.827 -569.526) rotate(21)" opacity="0.05"/><path d="M8.643,14.762a1.732,1.732,0,0,1-.963-.449C4.259,11.211,2,9.165,2,6.654A3.618,3.618,0,0,1,5.654,3,3.978,3.978,0,0,1,8.643,4.388,3.978,3.978,0,0,1,11.633,3a3.618,3.618,0,0,1,3.654,3.654c0,2.511-2.259,4.557-5.68,7.666A1.718,1.718,0,0,1,8.643,14.762Z" transform="translate(60.344 18.883) rotate(-25)" opacity="0.11"/><path d="M8.9,15.212a1.8,1.8,0,0,1-1-.466C4.345,11.525,2,9.4,2,6.793A3.757,3.757,0,0,1,5.793,3,4.13,4.13,0,0,1,8.9,4.442,4.13,4.13,0,0,1,12,3a3.757,3.757,0,0,1,3.793,3.793c0,2.607-2.345,4.731-5.9,7.959A1.784,1.784,0,0,1,8.9,15.212Z" transform="matrix(0.899, -0.438, 0.438, 0.899, -50.051, 37.402)" opacity="0.06"/><circle cx="4" cy="4" r="4" transform="translate(372.357 0.719)" fill="#fff" opacity="0.22"/><circle cx="2.5" cy="2.5" r="2.5" transform="translate(465.357 53.719)" fill="#fff" opacity="0.22"/></g><path d="M9.356,3.187,8.849,4.242q0,1.133,3.184,2.168a22.511,22.511,0,0,0,6.993,1.035A35.056,35.056,0,0,0,27.4,6.313a40.628,40.628,0,0,0,7.95-2.774A28.742,28.742,0,0,0,40.941.1q2.207-1.8,2.207-3.125,0-1.68-3.907-3.125A101.066,101.066,0,0,0,27.893-9.333q-7.442-1.738-10.9-4.395a7.919,7.919,0,0,1-3.457-6.465,11.628,11.628,0,0,1,2.735-7.286,26.677,26.677,0,0,1,7.13-6.172,65.266,65.266,0,0,1,9.591-4.805,53.536,53.536,0,0,1,19.924-4.336,27.666,27.666,0,0,1,6.211.625q5.157,1.211,5.157,3.2a7.034,7.034,0,0,1-.352,2.715,4.509,4.509,0,0,1-.566.957,3.4,3.4,0,0,1-.547.469q-.332.234-.488.352-1.719,1.445-9.415,1.8a13.124,13.124,0,0,0-2.891.273.774.774,0,0,1-.41.156q-.176,0-.41-.313a1.717,1.717,0,0,1-.234-1.016,5.819,5.819,0,0,1,1.524-2.578,36.991,36.991,0,0,0-10.177,2.188,51.432,51.432,0,0,0-9.4,4.317,46.888,46.888,0,0,0-6.641,4.727q-2.656,2.324-2.656,3.282a2.222,2.222,0,0,0,.586,1.582q1.641,1.758,9.1,3.672a70.3,70.3,0,0,1,10.313,3.2,37.392,37.392,0,0,1,4.278,2.3A13.284,13.284,0,0,1,48.618-8.65,8.446,8.446,0,0,1,51-3.1a9.94,9.94,0,0,1-1.5,5.274,17.908,17.908,0,0,1-4.532,4.766,34.725,34.725,0,0,1-7.13,4.1q-8.985,4.024-21.408,4.024-9.063,0-11.564-4.805A5.172,5.172,0,0,1,4.2,7.739a4.661,4.661,0,0,1,.606-2.363,4.5,4.5,0,0,1,1.465-1.6A5.664,5.664,0,0,1,8.653,2.719Q9.356,2.719,9.356,3.187ZM84.4-15.76q2.969,0,2.969,2.031a2.189,2.189,0,0,1-.508,1.6A23.572,23.572,0,0,0,84.7-8.747Q83.035-5.876,81.023-1.4a34.775,34.775,0,0,0-2.6,7.637,3.984,3.984,0,0,0-.117,1.094q0,2.149,1.172,2.149a5.134,5.134,0,0,0,2.774-1.113,20.029,20.029,0,0,0,2.852-2.383q1.25-1.27,2.442-2.6t1.426-1.524c.156-.13.17-.41.482-.41a47.92,47.92,0,0,0-.482,7.7,41.482,41.482,0,0,1-3.457,3.028Q81.668,15.3,78.523,15.3a5.491,5.491,0,0,1-4.629-1.914,6.754,6.754,0,0,1-1.485-4.239,9.971,9.971,0,0,1,.781-4.082,33.626,33.626,0,0,1-7.442,7.149q-4.2,2.93-6.856,2.93a6.026,6.026,0,0,1-4.336-1.6,7.166,7.166,0,0,1-2.149-5.528A17.452,17.452,0,0,1,53.989.9,25.6,25.6,0,0,1,58.15-5.622a41.71,41.71,0,0,1,5.665-5.372q6.485-5.079,11.954-5.079a7.331,7.331,0,0,1,3.438.7,3.212,3.212,0,0,1,1.68,1.758,5.845,5.845,0,0,1,1.582-1.778A3.971,3.971,0,0,1,84.4-15.76Zm-5.2,4.336q-6.68,0-13.829,7.423a32.729,32.729,0,0,0-4.668,6.368Q58.58,6.078,58.58,7.446t.781,1.367q1.094,0,6.094-4.317A60.134,60.134,0,0,0,72.1-1.852Q73.893-4.118,79.206-11.423Zm40.355-33.284a5.212,5.212,0,0,1,3.3,1.113,3.932,3.932,0,0,1,1.426,3.3q0,2.188-2.422,6.856a85.252,85.252,0,0,1-5.821,9.532q-3.4,4.864-7.7,10.333Q101.552-4.9,95.3,2.015a14.932,14.932,0,0,1-.332,1.738,11.344,11.344,0,0,0-.293,2.559,3.038,3.038,0,0,0,1.192,2.324,4.338,4.338,0,0,0,2.949,1.035,7.222,7.222,0,0,0,3.77-1.25,18.429,18.429,0,0,0,3.5-2.774c2.6-2.683-2.094.952.783,6.054a9.664,9.664,0,0,1-2.932,1.779,17.976,17.976,0,0,1-7.774,1.973,6.932,6.932,0,0,1-5.586-2.246c-1.276-1.5-1.6-2.865-1.6-5.469a51.9,51.9,0,0,1,3.77-18.6,83.63,83.63,0,0,1,9.2-17.521Q113.467-44.708,119.562-44.708ZM117.8-38.223q0-.586-.391-.586-1.367,0-7.188,7.813a123.147,123.147,0,0,0-8.419,12.462A66.985,66.985,0,0,0,96.9-6.853q4.61-5.469,12.755-17.052T117.8-38.223ZM134.68-15.291a6.031,6.031,0,0,1-2.09,4.532,6.765,6.765,0,0,1-4.747,1.953,1.282,1.282,0,0,1-1.133-.41,1.9,1.9,0,0,1-.273-1.074,5.3,5.3,0,0,1,.156-1.289,17.926,17.926,0,0,0-3.125,1.445,38.94,38.94,0,0,0-4.219,2.891q-2.5,1.914-2.5,2.852,0,.313.918.313a10.028,10.028,0,0,0,2.832-.645,10.1,10.1,0,0,1,2.676-.645,3.924,3.924,0,0,1,1,.078A3.415,3.415,0,0,1,125.265-4.1a3.016,3.016,0,0,1,.586,1.445q0,.527-1.016,1.387a7.2,7.2,0,0,1-2.3,1.309,13.7,13.7,0,0,0-1.719.684q-8.243,4.61-8.243,6.329,0,3.047,5.2,3.047a12.493,12.493,0,0,0,6.68-2.11,52.821,52.821,0,0,0,5.137-3.653q2.285-1.856,2.891-2.285a1.881,1.881,0,0,1,.918-.43q1.016,0,1.016,2.266a10.272,10.272,0,0,1-.273,2.989,5.031,5.031,0,0,1-1.563,1.778q-8.36,6.8-15.822,6.8a15.463,15.463,0,0,1-6.368-1.094q-4.375-1.992-4.375-6.094,0-5.391,7.462-8.165a3.438,3.438,0,0,1-1.914-1.7,9.335,9.335,0,0,1-.43-3.321,7.764,7.764,0,0,1,2.129-4.844,17.2,17.2,0,0,1,5.215-4.2q6.876-3.711,12.267-3.711a6.114,6.114,0,0,1,2.617.625A1.936,1.936,0,0,1,134.68-15.291Z" transform="translate(542 1171.708)" fill="#ffec74"/><path d="M7.9.16c3.7,0,5.92-2.14,5.92-6.2V-14H11.88v7.88c0,3.1-1.44,4.5-3.96,4.5s-3.94-1.4-3.94-4.5V-14h-2v7.96C1.98-1.98,4.22.16,7.9.16ZM23.26-10.7a4.515,4.515,0,0,0-3.78,1.78V-10.6H17.64V3.88h1.92V-1.6A4.527,4.527,0,0,0,23.26.12,5.15,5.15,0,0,0,28.62-5.3,5.145,5.145,0,0,0,23.26-10.7ZM23.1-1.56A3.505,3.505,0,0,1,19.54-5.3,3.5,3.5,0,0,1,23.1-9.02,3.5,3.5,0,0,1,26.68-5.3,3.51,3.51,0,0,1,23.1-1.56ZM42.02-2a2.418,2.418,0,0,1-1.5.5,1.562,1.562,0,0,1-1.66-1.78V-9.02H41.9V-10.6H38.86v-2.32H36.94v2.32h-1.8v1.58h1.8V-3.2A3.025,3.025,0,0,0,40.3.12a3.622,3.622,0,0,0,2.32-.74ZM49.12.12a5.274,5.274,0,0,0,5.5-5.42,5.258,5.258,0,0,0-5.5-5.4A5.275,5.275,0,0,0,43.6-5.3,5.291,5.291,0,0,0,49.12.12Zm0-1.68A3.51,3.51,0,0,1,45.54-5.3a3.493,3.493,0,0,1,3.58-3.72A3.478,3.478,0,0,1,52.68-5.3,3.494,3.494,0,0,1,49.12-1.56Zm97.224-13.28V-9a4.51,4.51,0,0,0-3.7-1.7,5.145,5.145,0,0,0-5.36,5.4,5.161,5.161,0,0,0,5.36,5.42,4.478,4.478,0,0,0,3.78-1.8V0h1.84V-14.84ZM142.8-1.56a3.51,3.51,0,0,1-3.58-3.74,3.493,3.493,0,0,1,3.58-3.72,3.489,3.489,0,0,1,3.56,3.72A3.505,3.505,0,0,1,142.8-1.56Zm10.06-11.08a1.256,1.256,0,0,0,1.3-1.28,1.244,1.244,0,0,0-1.3-1.22,1.264,1.264,0,0,0-1.3,1.26A1.248,1.248,0,0,0,152.864-12.64ZM151.9,0h1.92V-10.6H151.9Zm8.62.12c2.82,0,4.58-1.22,4.58-3.14,0-4.12-6.72-2.08-6.72-4.58,0-.84.82-1.46,2.5-1.46a5.536,5.536,0,0,1,3.06.84l.82-1.52a7.713,7.713,0,0,0-3.86-.96c-2.72,0-4.42,1.28-4.42,3.18,0,4.22,6.7,2.16,6.7,4.54,0,.9-.74,1.44-2.52,1.44a6.812,6.812,0,0,1-3.72-1.1l-.8,1.52A7.65,7.65,0,0,0,160.524.12Zm11.6,0a4.742,4.742,0,0,0,4.32-2.28l-1.46-.92a3.3,3.3,0,0,1-2.88,1.52,3.512,3.512,0,0,1-3.64-3.74,3.518,3.518,0,0,1,3.64-3.72,3.3,3.3,0,0,1,2.88,1.52l1.46-.94a4.727,4.727,0,0,0-4.32-2.26,5.3,5.3,0,0,0-5.6,5.4A5.312,5.312,0,0,0,172.124.12Zm11.18,0a5.274,5.274,0,0,0,5.5-5.42,5.258,5.258,0,0,0-5.5-5.4,5.275,5.275,0,0,0-5.52,5.4A5.291,5.291,0,0,0,183.3.12Zm0-1.68a3.51,3.51,0,0,1-3.58-3.74,3.493,3.493,0,0,1,3.58-3.72,3.478,3.478,0,0,1,3.56,3.72A3.494,3.494,0,0,1,183.3-1.56Zm16.12-9.04v5.48c0,2.28-1.28,3.52-3.28,3.52-1.82,0-2.86-1.04-2.86-3.12V-10.6h-1.92v6.1c0,3.12,1.82,4.62,4.56,4.62a4.313,4.313,0,0,0,3.6-1.72V0h1.82V-10.6Zm11.24-.1a4.544,4.544,0,0,0-3.82,1.7v-1.6H205V0h1.92V-5.46c0-2.3,1.32-3.52,3.36-3.52,1.82,0,2.86,1.02,2.86,3.1V0h1.92V-6.1C215.064-9.22,213.244-10.7,210.664-10.7ZM223.984-2a2.418,2.418,0,0,1-1.5.5,1.562,1.562,0,0,1-1.66-1.78V-9.02h3.04V-10.6h-3.04v-2.32H218.9v2.32h-1.8v1.58h1.8V-3.2a3.025,3.025,0,0,0,3.36,3.32,3.622,3.622,0,0,0,2.32-.74Zm12.18-11.38a2.486,2.486,0,0,1,1.48.5l.58-1.46a3.581,3.581,0,0,0-2.16-.62,3.186,3.186,0,0,0-3.5,3.42v.94h-1.8v1.58h1.8V0h1.92V-9.02h3.04V-10.6h-3.08v-.92C234.444-12.74,235.024-13.38,236.164-13.38Zm7.56,13.5a5.274,5.274,0,0,0,5.5-5.42,5.258,5.258,0,0,0-5.5-5.4,5.275,5.275,0,0,0-5.52,5.4A5.291,5.291,0,0,0,243.724.12Zm0-1.68a3.51,3.51,0,0,1-3.58-3.74,3.493,3.493,0,0,1,3.58-3.72,3.478,3.478,0,0,1,3.56,3.72A3.494,3.494,0,0,1,243.724-1.56Zm10-7.26V-10.6h-1.84V0h1.92V-5.28c0-2.32,1.28-3.58,3.34-3.58a3.39,3.39,0,0,1,.44.02V-10.7C255.724-10.7,254.4-10.06,253.724-8.82ZM275.784-14V-3.56L267.384-14h-1.64V0h2V-10.44L276.144,0h1.64V-14Zm15.5,8.76a5.111,5.111,0,0,0-5.24-5.46,5.191,5.191,0,0,0-5.32,5.4c0,3.16,2.28,5.42,5.7,5.42A5.32,5.32,0,0,0,290.6-1.6l-1.06-1.24a3.958,3.958,0,0,1-3.06,1.28,3.59,3.59,0,0,1-3.84-3.1h8.6C291.264-4.84,291.284-5.08,291.284-5.24Zm-5.24-3.84a3.306,3.306,0,0,1,3.4,3.04h-6.8A3.3,3.3,0,0,1,286.044-9.08Zm22.02-1.52L304.9-2.12l-3.14-8.48h-1.62l-3.2,8.44-3.08-8.44h-1.82L295.984,0h1.84l3.1-8.04L303.984,0h1.84l3.96-10.6ZM328.3-14h-1.98l-4.5,7.38L317.344-14H315.2l5.56,9.12V0h1.98V-4.84Zm10.12,8.76a5.111,5.111,0,0,0-5.24-5.46,5.191,5.191,0,0,0-5.32,5.4c0,3.16,2.28,5.42,5.7,5.42a5.32,5.32,0,0,0,4.18-1.72l-1.06-1.24a3.958,3.958,0,0,1-3.06,1.28,3.59,3.59,0,0,1-3.84-3.1h8.6C338.4-4.84,338.424-5.08,338.424-5.24Zm-5.24-3.84a3.306,3.306,0,0,1,3.4,3.04h-6.8A3.3,3.3,0,0,1,333.184-9.08Zm11.46-1.62a7.059,7.059,0,0,0-4.38,1.36l.8,1.44a5.36,5.36,0,0,1,3.36-1.14c1.9,0,2.84.94,2.84,2.56v.38h-3.04c-3.16,0-4.26,1.4-4.26,3.1,0,1.84,1.52,3.12,3.92,3.12a3.935,3.935,0,0,0,3.48-1.52V0h1.82V-6.4C349.184-9.3,347.544-10.7,344.644-10.7Zm-.44,9.34c-1.46,0-2.34-.66-2.34-1.72,0-.9.54-1.64,2.44-1.64h2.96v1.48A3.074,3.074,0,0,1,344.2-1.36Zm10.38-7.46V-10.6h-1.84V0h1.92V-5.28c0-2.32,1.28-3.58,3.34-3.58a3.39,3.39,0,0,1,.44.02V-10.7C356.584-10.7,355.264-10.06,354.584-8.82Zm11.84,4.4h1.52l.38-9.58h-2.26ZM367.2.12a1.264,1.264,0,0,0,1.28-1.28,1.252,1.252,0,0,0-1.28-1.28,1.273,1.273,0,0,0-1.32,1.28A1.285,1.285,0,0,0,367.2.12Z" transform="translate(154 1170)" fill="#fff"/><path d="M62.3-6.132H70.22v-3.5H62.3ZM86.152-10.3a4.552,4.552,0,0,0,2.3-4.032c0-3.444-3.08-5.6-7.588-5.6-4.452,0-7.532,2.156-7.532,5.6A4.527,4.527,0,0,0,75.6-10.3a4.983,4.983,0,0,0-2.968,4.62c0,3.7,3.276,6.02,8.232,6.02,4.984,0,8.288-2.324,8.288-6.02A4.965,4.965,0,0,0,86.152-10.3ZM80.86-16.6c1.848,0,3.08.924,3.08,2.464,0,1.484-1.2,2.408-3.08,2.408-1.848,0-3.024-.924-3.024-2.408C77.836-15.68,79.04-16.6,80.86-16.6ZM80.86-3c-2.24,0-3.64-1.092-3.64-2.828s1.4-2.8,3.64-2.8c2.268,0,3.7,1.064,3.7,2.8S83.128-3,80.86-3Zm17.08-9.24h-1.6l.308-3.724h8.176V-19.6H92.872L91.864-8.568h5.012c3.556,0,4.564,1.008,4.564,2.548,0,1.6-1.4,2.548-3.668,2.548A9.433,9.433,0,0,1,92.2-5.236L90.408-1.764a13.544,13.544,0,0,0,7.476,2.1c5.6,0,8.148-3.024,8.148-6.5S103.736-12.236,97.94-12.236Zm14.2,3.22c2.856,0,4.844-2.072,4.844-5.4s-1.988-5.4-4.844-5.4-4.872,2.1-4.872,5.4S109.28-9.016,112.136-9.016ZM110.428,0h3.332l13.384-19.6h-3.332Zm1.708-11.312c-1.2,0-2.044-1.036-2.044-3.108s.84-3.108,2.044-3.108c1.232,0,2.044,1.008,2.044,3.108S113.368-11.312,112.136-11.312ZM125.436.224c2.856,0,4.872-2.1,4.872-5.4s-2.016-5.4-4.872-5.4c-2.828,0-4.844,2.1-4.844,5.4S122.608.224,125.436.224Zm0-2.3c-1.2,0-2.044-1.008-2.044-3.108s.84-3.108,2.044-3.108c1.232,0,2.044,1.036,2.044,3.108S126.668-2.072,125.436-2.072Z" transform="translate(154 1173)" fill="#ffec74"/><g transform="translate(25.133 1033.814)"><ellipse cx="36.543" cy="9.198" rx="36.543" ry="9.198" transform="translate(23.346 144.624)" fill="#640000" opacity="0.53"/><g transform="translate(14.948 90.083)"><g transform="translate(68.752 24.48)"><path d="M145.079,156.848c-3.031.018-4-.7-5.168-2.7a15.81,15.81,0,0,1-1.731-5.808c.108-2.183,5.339.938,5.339.938s-3.68-7.252-1.75-8.839,4.383,3.247,4.383,3.247.749-6.611,2.318-7.711c2.106-1.476,2.074,2.291,2.074,2.291s2.76-4.744,5.43-4.275-1.66,6.313-1.66,6.313,3.2-1.776,3.879-.144-5.791,4.762-5.791,4.762,5.213.09,5.1,2.273-8.162,3.382-8.162,3.382,3.454-.081,3.833,2.462C153.387,154.44,148.8,156.825,145.079,156.848Z" transform="translate(-138.178 -133.961)" fill="#006837"/><path d="M156.978,141s-7.279,9.317-10,20.121" transform="translate(-142.067 -137.074)" fill="none" stroke="#064f44" stroke-linecap="round" stroke-miterlimit="10" stroke-width="1"/><path d="M162.17,146.363l-4.828,2.076a8.207,8.207,0,0,1-.277-4.349" transform="translate(-146.448 -138.439)" fill="none" stroke="#064f44" stroke-linecap="round" stroke-miterlimit="10" stroke-width="1"/><path d="M155.628,157.1l-2.684,1.154a5.154,5.154,0,0,1-.262-2.618" transform="translate(-144.573 -143.541)" fill="none" stroke="#064f44" stroke-linecap="round" stroke-miterlimit="10" stroke-width="1"/><path d="M151.667,167.006l-2.683,1.154a5.151,5.151,0,0,1-.262-2.618" transform="translate(-142.822 -147.922)" fill="none" stroke="#064f44" stroke-linecap="round" stroke-miterlimit="10" stroke-width="1"/></g><g transform="translate(0 40.02)"><path d="M36.01,177.317c-.44,3-1.3,3.852-3.446,4.7a15.819,15.819,0,0,1-6,.835c-2.141-.437,1.734-5.137,1.734-5.137s-7.724,2.542-9,.4,3.871-3.843,3.871-3.843-6.422-1.738-7.272-3.456c-1.141-2.3,2.578-1.7,2.578-1.7s-4.273-3.445-3.406-6.013,5.99,2.594,5.99,2.594-1.273-3.433.443-3.855,3.833,6.443,3.833,6.443.876-5.14,3.018-4.7,2.111,8.58,2.111,8.58.441-3.427,3.013-3.417C34.886,168.741,36.55,173.639,36.01,177.317Z" transform="translate(-14.948 -161.815)" fill="#006837"/><path d="M21.278,170.277s8.11,8.6,18.379,12.927" transform="translate(-17.746 -165.556)" fill="none" stroke="#064f44" stroke-linecap="round" stroke-miterlimit="10" stroke-width="1"/><path d="M26.186,169.921l1.323,5.086a8.209,8.209,0,0,1-4.341-.383" transform="translate(-18.582 -165.398)" fill="none" stroke="#064f44" stroke-linecap="round" stroke-miterlimit="10" stroke-width="1"/><path d="M35.791,179.714l.735,2.827A5.153,5.153,0,0,1,33.9,182.4" transform="translate(-23.326 -169.728)" fill="none" stroke="#064f44" stroke-linecap="round" stroke-miterlimit="10" stroke-width="1"/><path d="M44.988,185.126l.735,2.827a5.152,5.152,0,0,1-2.627-.137" transform="translate(-27.392 -172.12)" fill="none" stroke="#064f44" stroke-linecap="round" stroke-miterlimit="10" stroke-width="1"/></g><g transform="translate(73.016 36.033)"><path d="M166.318,175.731a32,32,0,0,1-5.67-7.527,33.155,33.155,0,0,1-3.934-13.266,6.718,6.718,0,0,0-1.316,2.3c-.03.139-.192.864-.212,1.047v0l-.125.713h0c-.005.018-.014.034-.017.052a7.891,7.891,0,0,1-3.385,5.268,21.608,21.608,0,0,0-3.634,2.952,6.429,6.429,0,0,0,6.416,10.891l0,0,2.244-.693h0q.664-.151,1.347-.364a8.9,8.9,0,0,1,5.555-.081l.645.286h0a5.872,5.872,0,0,0,3.718.736c.295-.09.147-.219.527-.4C167.739,177.021,167.018,176.382,166.318,175.731Z" transform="translate(-145.821 -154.788)" fill="#fbb03b"/><path d="M165.116,154.749c1.494-.744,5.269,3.8,8.432,10.148s4.516,12.1,3.022,12.843-5.269-3.8-8.432-10.148S163.622,155.493,165.116,154.749Z" transform="translate(-154.082 -154.669)" fill="#f7931e"/><g transform="translate(10.66 2.073)" opacity="0.38"><path d="M164.928,158.384c.148,2.377,1.462,6.419,3.615,10.742s4.589,7.805,6.4,9.356c-.149-2.377-1.462-6.42-3.615-10.742S166.736,159.934,164.928,158.384Z" transform="translate(-164.928 -158.384)" fill="#f15a24"/></g><path d="M171.159,173.874a2.324,2.324,0,1,1-1.044,3.117A2.324,2.324,0,0,1,171.159,173.874Z" transform="translate(-156.453 -163.051)" fill="#fbb03b"/><path d="M171.666,180.41s-7.6-7.609-9.273-18.612" transform="translate(-153.147 -157.821)" fill="none" stroke="#f7931e" stroke-linecap="round" stroke-linejoin="round" stroke-width="0.5"/></g><g transform="translate(4.69)"><path d="M34.428,169.158l-5.006-46.783L66.9,127.822l.447,47.74Z" transform="translate(-26.037 -104.359)" fill="#ffe3ba"/><path d="M127.978,163.55,97.036,174.576l-.447-47.74,32.149-6.691Z" transform="translate(-55.731 -103.373)" fill="#ebcea4"/><path d="M97.224,188.018l31.17-20.273.093,3.8L97.235,192.529Z" transform="translate(-56.012 -124.417)" fill="#fff" opacity="0.54"/><path d="M107.79,200.5,133.1,183.493l-.2,4.026-12.779,8.616Z" transform="translate(-60.682 -131.378)" fill="#fff" opacity="0.54"/><path d="M97.165,171.905,128.6,151.171l.034,4.038L97.176,176.416Z" transform="translate(-55.986 -117.089)" fill="#fff" opacity="0.54"/><path d="M97.107,156.158l31.431-20.734.034,4.038L97.117,160.669Z" transform="translate(-55.96 -110.128)" fill="#fff" opacity="0.54"/><path d="M96.624,140.389l31.431-20.734.034,4.038L96.634,144.9Z" transform="translate(-55.746 -103.157)" fill="#fff" opacity="0.54"/><path d="M68.009,141.051l-35.5,5.662.474,4.431,35.287-5.806Z" transform="translate(-27.401 -112.615)" fill="#fff" opacity="0.61"/><path d="M69.055,156.819l-34.792,5.7.474,4.431,34.34-5.854Z" transform="translate(-28.177 -119.586)" fill="#fff" opacity="0.61"/><path d="M69.923,172.588l-34.306,5.485.474,4.431,33.843-5.4Z" transform="translate(-28.776 -126.557)" fill="#fff" opacity="0.61"/><path d="M70.741,188.335l-33.347,5.3.474,4.431,32.884-5.215Z" transform="translate(-29.562 -133.519)" fill="#fff" opacity="0.61"/><path d="M80.532,204.082l-21.065,3.451,12.929,2.55,8.147-1.489Z" transform="translate(-39.32 -140.481)" fill="#fff" opacity="0.61"/><path d="M23.355,108.232,61.6,98.286l37.591,7.826L64.734,116.249Z" transform="translate(-23.355 -93.71)" fill="#ad82e6"/><path d="M23.355,114.414l1.323,11.462,39.071,6.714,34.8-7.508.17-12.811L64.392,119.8Z" transform="translate(-23.355 -99.892)" fill="#8750be"/><path d="M31.428,141.265l-.38-3.694L67.7,143.656l-.124,1.09Z" transform="translate(-26.756 -111.077)" fill="#b3b3b3" style="mix-blend-mode:multiply;isolation:isolate"/><path d="M128.537,139.907,96.52,143.994l.124-1.09,31.859-7.035Z" transform="translate(-55.7 -110.325)" fill="#b3b3b3" style="mix-blend-mode:multiply;isolation:isolate"/><path d="M54,120.137l3.02,50.314,6.538,1.272L61.188,121.25Z" transform="translate(-36.904 -103.37)" fill="#e3b65c"/><path d="M118.692,119.822c.091-.041,1.355,49.241,1.355,49.241l6.381-2.273-1.008-48.444Z" transform="translate(-65.502 -102.578)" fill="#e3b65c"/><path d="M54.211,112.26l31.605-10.042,7.418,1.552L61.28,113.328Z" transform="translate(-36.996 -95.448)" fill="#ffbe69"/><path d="M91.335,113.425l-34.73-7.5,7.5-1.95L98.049,112.1Z" transform="translate(-38.055 -96.222)" fill="#ffbe69"/><path d="M67.26,101.829S46.476,87.141,39.282,90.777,39,103.34,43.261,103.909C50.58,104.885,67.26,101.829,67.26,101.829Z" transform="translate(-29.015 -90.134)" fill="#fbb03b"/><path d="M45.323,90.2s-3.177-.774-4.271,1.605c-1.066,2.321,11.258,7.451,16.68,8.2a72.314,72.314,0,0,0,9.461.713,34.334,34.334,0,0,0-5.027-3.559C60.067,96.09,51.63,90.6,45.323,90.2Z" transform="translate(-31.15 -90.083)" fill="#ffbe69"/><path d="M64.83,101.349s-13.8-8.6-19.044-7.534S64.83,101.349,64.83,101.349Z" transform="translate(-32.944 -91.692)" fill="#f7931e"/><path d="M91.586,102.7S113,88.942,120.025,92.891s-.277,12.564-4.554,12.944C108.115,106.488,91.586,102.7,91.586,102.7Z" transform="translate(-53.519 -91.009)" fill="#fbb03b"/><path d="M118.562,92.431s3.221-.564,4.156,1.882c.912,2.385-11.722,6.7-17.182,7.087a83.741,83.741,0,0,1-10.319.062S99.133,99.2,101.3,98.27,112.243,92.414,118.562,92.431Z" transform="translate(-55.124 -91.097)" fill="#ffbe69"/><path d="M103.133,102.477s14.168-7.989,19.357-6.688S103.133,102.477,103.133,102.477Z" transform="translate(-58.624 -92.542)" fill="#f7931e"/><path d="M89.5,109.224a1.788,1.788,0,0,0,1.519-1.432c.251-1.257.281-3.143-1.516-3.845-2.794-1.091-4.351-.065-4.727,1.145C84.431,106.207,85.237,109.76,89.5,109.224Z" transform="translate(-50.477 -96.008)" fill="#fbb03b"/></g></g></g></g></svg>