<svg xmlns="http://www.w3.org/2000/svg" xmlns:xlink="http://www.w3.org/1999/xlink" width="179" height="201.367" viewBox="0 0 179 201.367"><defs><linearGradient id="a" x1="0.5" x2="0.5" y2="0.78" gradientUnits="objectBoundingBox"><stop offset="0" stop-color="#ff8e0d"/><stop offset="1" stop-color="#e96d00"/></linearGradient><filter id="b" x="0" y="18.367" width="179" height="183" filterUnits="userSpaceOnUse"><feOffset dy="3" input="SourceAlpha"/><feGaussianBlur stdDeviation="10" result="c"/><feFlood flood-opacity="0.31"/><feComposite operator="in" in2="c"/><feComposite in="SourceGraphic"/></filter></defs><g transform="translate(180.861 19.367)"><g transform="translate(-128 -57)"><g transform="matrix(1, 0, 0, 1, -52.86, 37.63)" filter="url(#b)"><path d="M0,0,52.536-50H67.818L119,0V67.739L113.836,73H5.152L0,68.147Z" transform="translate(30 95.37)" fill="url(#a)"/></g><g transform="translate(24.139 91)" fill="#241700" stroke="#b15b08" stroke-width="4"><circle cx="13" cy="13" r="13" stroke="none"/><circle cx="13" cy="13" r="11" fill="none"/></g><g transform="translate(0 -96)"><path d="M11.94-7.28a3.365,3.365,0,0,0,1.86-3.08C13.8-12.54,12-14,8.5-14H1.66V0H8.9c3.68,0,5.6-1.4,5.6-3.82A3.457,3.457,0,0,0,11.94-7.28ZM8.1-11.56c1.58,0,2.44.54,2.44,1.64S9.68-8.26,8.1-8.26H4.88v-3.3Zm.56,9.12H4.88V-5.9H8.66c1.68,0,2.58.56,2.58,1.74C11.24-2.96,10.34-2.44,8.66-2.44Zm15.8-8.32v5.32c0,1.98-1.04,2.9-2.48,2.9-1.38,0-2.18-.8-2.18-2.6v-5.62H16.68v6.08c0,3.32,1.9,4.84,4.6,4.84a4.353,4.353,0,0,0,3.34-1.44V0h2.96V-10.76Zm13.7,0-3.04,7.3-3.02-7.3H28.88L33.54.08l-.04.1c-.42.96-.9,1.34-1.76,1.34A2.766,2.766,0,0,1,29.98.84L28.84,3.06a4.778,4.778,0,0,0,3,.98c1.94,0,3.42-.78,4.46-3.38l4.86-11.42ZM57.96-14v8.5L51-14H48.32V0h3.2V-8.5L58.5,0h2.66V-14ZM69.38.16c3.42,0,5.9-2.3,5.9-5.54s-2.48-5.54-5.9-5.54-5.92,2.3-5.92,5.54S65.96.16,69.38.16Zm0-2.56a2.73,2.73,0,0,1-2.76-2.98,2.73,2.73,0,0,1,2.76-2.98,2.715,2.715,0,0,1,2.74,2.98A2.715,2.715,0,0,1,69.38-2.4Zm22.2-8.36L88.96-3.48,86.4-10.76H83.76L81.12-3.48l-2.54-7.28H75.64L79.52,0h3l2.5-6.68L87.44,0h3l3.9-10.76Z" transform="translate(-10.861 269)" fill="#fff"/><rect width="90" height="2" transform="translate(-7.861 241)" fill="#fff" opacity="0.71"/><rect width="90" height="2" transform="translate(-7.861 282)" fill="#fff" opacity="0.71"/></g></g><path d="M-89.1,41.269s1.475,4-2.1,3.788-13.891-48.829-1.053-63.773" fill="none" stroke="#fff" stroke-width="2"/><path d="M-88.8,26s2.4-19.88,0-30.193" fill="none" stroke="#fff" stroke-width="2"/></g></svg>