<svg xmlns="http://www.w3.org/2000/svg" xmlns:xlink="http://www.w3.org/1999/xlink" width="737" height="737" viewBox="0 0 737 737">
  <defs>
    <linearGradient id="linear-gradient" x1="0.5" x2="0.5" y2="1" gradientUnits="objectBoundingBox">
      <stop offset="0" stop-color="#9dc7ff"/>
      <stop offset="1" stop-color="#34b2f2"/>
    </linearGradient>
    <filter id="椭圆_985" x="14.5" y="290.5" width="55" height="55" filterUnits="userSpaceOnUse">
      <feOffset dy="6" input="SourceAlpha"/>
      <feGaussianBlur stdDeviation="5" result="blur"/>
      <feFlood flood-color="#6d0769" flood-opacity="0.161"/>
      <feComposite operator="in" in2="blur"/>
      <feComposite in="SourceGraphic"/>
    </filter>
    <filter id="椭圆_986" x="619.5" y="165.5" width="55" height="55" filterUnits="userSpaceOnUse">
      <feOffset dy="6" input="SourceAlpha"/>
      <feGaussianBlur stdDeviation="5" result="blur-2"/>
      <feFlood flood-color="#6d0769" flood-opacity="0.161"/>
      <feComposite operator="in" in2="blur-2"/>
      <feComposite in="SourceGraphic"/>
    </filter>
    <filter id="椭圆_987" x="583.5" y="573.5" width="55" height="55" filterUnits="userSpaceOnUse">
      <feOffset dy="6" input="SourceAlpha"/>
      <feGaussianBlur stdDeviation="5" result="blur-3"/>
      <feFlood flood-color="#6d0769" flood-opacity="0.161"/>
      <feComposite operator="in" in2="blur-3"/>
      <feComposite in="SourceGraphic"/>
    </filter>
  </defs>
  <g id="组_1786" data-name="组 1786" transform="translate(-6.5 -2902.5)">
    <circle id="椭圆_991" data-name="椭圆 991" cx="368" cy="368" r="368" transform="translate(7 2903)" fill="none" stroke="rgba(0,0,0,0)" stroke-width="1" opacity="0.03"/>
    <circle id="椭圆_992" data-name="椭圆 992" cx="314" cy="314" r="314" transform="translate(61 2957)" fill="none" stroke="rgba(0,0,0,0)" stroke-width="1"/>
    <circle id="椭圆_993" data-name="椭圆 993" cx="361" cy="361" r="361" transform="translate(14 2910)" fill="none" stroke="#fff" stroke-width="2" stroke-dasharray="6" opacity="0.21"/>
    <circle id="椭圆_994" data-name="椭圆 994" cx="333" cy="333" r="333" transform="translate(42 2938)" fill="none" stroke="#f9e1ff" stroke-width="2" stroke-dasharray="6"/>
    <g transform="matrix(1, 0, 0, 1, 6.5, 2902.5)" filter="url(#椭圆_985)">
      <circle id="椭圆_985-2" data-name="椭圆 985" cx="12.5" cy="12.5" r="12.5" transform="translate(29.5 299.5)" fill="url(#linear-gradient)"/>
    </g>
    <g transform="matrix(1, 0, 0, 1, 6.5, 2902.5)" filter="url(#椭圆_986)">
      <circle id="椭圆_986-2" data-name="椭圆 986" cx="12.5" cy="12.5" r="12.5" transform="translate(634.5 174.5)" fill="url(#linear-gradient)"/>
    </g>
    <g transform="matrix(1, 0, 0, 1, 6.5, 2902.5)" filter="url(#椭圆_987)">
      <circle id="椭圆_987-2" data-name="椭圆 987" cx="12.5" cy="12.5" r="12.5" transform="translate(598.5 582.5)" fill="url(#linear-gradient)"/>
    </g>
  </g>
</svg>
