<svg xmlns="http://www.w3.org/2000/svg" width="13.24" height="28.52" viewBox="0 0 13.24 28.52"><defs><style>.a{fill:#7c56ff;}</style></defs><path class="a" d="M4,.12H3.6q.08-2.92,2.28-12.5t2.2-11.46a8.591,8.591,0,0,0-.04-1.12,21.966,21.966,0,0,0-4.8,3.8,3.122,3.122,0,0,1-.98-.86,6.343,6.343,0,0,1-.74-1.1l-.24-.48,6.68-4.28a35.077,35.077,0,0,1,6.08-.52,5.121,5.121,0,0,1,.48,2.54,32.043,32.043,0,0,1-1,6.08q-1,4.34-2.08,9.68a56.656,56.656,0,0,0-1.2,9.42Q8.8.12,4,.12Z" transform="translate(-1.28 28.4)"/></svg>