<svg xmlns="http://www.w3.org/2000/svg" xmlns:xlink="http://www.w3.org/1999/xlink" width="1920" height="383" viewBox="0 0 1920 383"><defs><style>.a{fill:#3a87bb;}.b{clip-path:url(#a);}.c{fill:#876bff;}.d{opacity:0.25;}.d,.e,.f{fill:url(#b);}.e{opacity:0.28;}.f{opacity:0.42;}.g,.h,.i,.j,.k,.l{fill:#fff;}.g{opacity:0.08;}.h{opacity:0.2;}.j{opacity:0.21;}.k{font-size:23px;font-family:Nunito-Bold, Nunito;font-weight:700;}.l{font-size:18px;font-family:Nunito-Regular, Nunito;}.m{opacity:0.74;}.n,.o{fill:none;stroke:#fff;}.n{stroke-width:2px;opacity:0.18;}.o{opacity:0.1;}.p{filter:url(#i);}.q{filter:url(#g);}.r{filter:url(#e);}</style><clipPath id="a"><rect class="a" width="1920" height="383" transform="translate(0 5611)"/></clipPath><linearGradient id="b" x1="-0.095" y1="1" x2="0.5" y2="1" gradientUnits="objectBoundingBox"><stop offset="0" stop-color="#fff"/><stop offset="1" stop-color="#aa97ff"/></linearGradient><filter id="e" x="304" y="219.025" width="166.521" height="133.8" filterUnits="userSpaceOnUse"><feOffset dy="10" input="SourceAlpha"/><feGaussianBlur stdDeviation="10" result="f"/><feFlood flood-color="#7a41c5" flood-opacity="0.361"/><feComposite operator="in" in2="f"/><feComposite in="SourceGraphic"/></filter><filter id="g" x="1501.761" y="209.011" width="132.667" height="110.526" filterUnits="userSpaceOnUse"><feOffset dy="10" input="SourceAlpha"/><feGaussianBlur stdDeviation="10" result="h"/><feFlood flood-color="#7a41c5" flood-opacity="0.361"/><feComposite operator="in" in2="h"/><feComposite in="SourceGraphic"/></filter><filter id="i" x="1309.67" y="225.203" width="129.66" height="109.094" filterUnits="userSpaceOnUse"><feOffset dy="10" input="SourceAlpha"/><feGaussianBlur stdDeviation="10" result="j"/><feFlood flood-color="#7a41c5" flood-opacity="0.361"/><feComposite operator="in" in2="j"/><feComposite in="SourceGraphic"/></filter></defs><g class="b" transform="translate(0 -5611)"><rect class="c" width="1920" height="383" transform="translate(0 5611)"/><path class="d" d="M-43.053,5949.209c55.9-20.125,154.291-55.9,244.854-16.771s273.923,99.507,276.159,68.2,24.6-62.611,98.388-33.542,354.423,57.021,516.541,26.833,223.61-101.743,277.277-59.257,64.847,51.431,138.639,32.424,166.59,34.659,211.312,26.833,167.708-167.708,216.9-140.875,50.313,248.208,50.313,248.208l-2040.446-3.354Z" transform="translate(0 -23)"/><path class="e" d="M-3223.462,1647.056l3.528-.941c88.255,4.107,180.714,1.94,250.938-11.137,162.118-30.188,223.611-101.743,277.277-59.257s64.847,51.431,138.639,32.424c36.215-9.328,77.013-1.151,114.455,8.67-2.934,1.74-6.294,1.88-10.137-.282-23.256-13.081-114.824,10.174-170.056,30.523s-98.835-27.616-126.451-40.7-107.557,13.081-215.113,40.7c-35.857,9.207-77.03,12.275-116.009,12.274C-3154.335,1659.328-3223.462,1647.056-3223.462,1647.056Z" transform="translate(4061.884 4335.954)"/><path class="f" d="M-4063.348,1576.185c55.9-20.126,154.291-55.9,244.853-16.771,27.024,11.677,62.3,25.242,98.574,37.7-45.919-10.892-152.312-33.123-210.488-20.817-46.278,9.79-100.73,30.478-136,45.048Z" transform="translate(4020.296 4350.025)"/><g transform="translate(-538 5414.171)"><circle class="g" cx="26.5" cy="26.5" r="26.5" transform="translate(899 520)"/><circle class="h" cx="15.5" cy="15.5" r="15.5" transform="translate(910 531)"/><circle class="i" cx="6.5" cy="6.5" r="6.5" transform="translate(919 540)"/></g><g transform="translate(-239 5657.025)"><g class="r" transform="matrix(1, 0, 0, 1, 239, -46.03)"><path class="j" d="M49.663,72.273l-9.586-9.933H8a8,8,0,0,1-8-8V8A8,8,0,0,1,8,0H98.521a8,8,0,0,1,8,8V54.339a8,8,0,0,1-8,8H66.445l-9.587,9.933a5,5,0,0,1-7.2,0Z" transform="translate(334 239.02)"/></g><path class="i" d="M24.916,14.866a5.433,5.433,0,1,0-5.433-5.433A5.431,5.431,0,0,0,24.916,14.866Zm0,2.716c-3.626,0-10.866,1.82-10.866,5.433v2.716H35.781V23.015C35.781,19.4,28.542,17.582,24.916,17.582Z" transform="translate(571.239 211.033)"/><text class="k" transform="translate(639 233.145)"><tspan x="-21.39" y="0">35K</tspan></text></g><g transform="translate(642.594 5376.274)"><circle class="g" cx="26.5" cy="26.5" r="26.5" transform="translate(899 520)"/><circle class="h" cx="15.5" cy="15.5" r="15.5" transform="translate(910 531)"/><circle class="i" cx="6.5" cy="6.5" r="6.5" transform="translate(919 540)"/></g><g transform="translate(958.761 5647.012)"><g class="q" transform="matrix(1, 0, 0, 1, -958.76, -36.01)"><path class="j" d="M34.175,49.61l-6.836-7.083H8a8,8,0,0,1-8-8V8A8,8,0,0,1,8,0H64.667a8,8,0,0,1,8,8V34.527a8,8,0,0,1-8,8H45.328L38.492,49.61a3,3,0,0,1-4.317,0Z" transform="translate(1531.76 229.01)"/></g><path class="i" d="M21.462,11.412a3.706,3.706,0,1,0-3.706-3.706A3.705,3.705,0,0,0,21.462,11.412Zm0,1.853c-2.474,0-7.412,1.242-7.412,3.706v1.853H28.875V16.972C28.875,14.507,23.936,13.265,21.462,13.265Z" transform="translate(573.333 202.03)"/><text class="l" transform="translate(618.072 219.171)"><tspan x="-11.043" y="0">6K</tspan></text></g><g transform="translate(715.67 5659.203)"><g class="p" transform="matrix(1, 0, 0, 1, -715.67, -48.2)"><path class="j" d="M32.92,48.177l-8.556-8.866H8a8,8,0,0,1-8-8V8A8,8,0,0,1,8,0H61.66a8,8,0,0,1,8,8V31.311a8,8,0,0,1-8,8H45.794l-8.556,8.866a3,3,0,0,1-4.317,0Z" transform="translate(1339.67 245.2)"/></g><path class="i" d="M9.182,15.717a1.872,1.872,0,0,1-1.041-.486C4.442,11.877,2,9.665,2,6.95A3.912,3.912,0,0,1,5.95,3,4.3,4.3,0,0,1,9.182,4.5,4.3,4.3,0,0,1,12.414,3a3.912,3.912,0,0,1,3.95,3.95c0,2.715-2.442,4.927-6.141,8.288A1.857,1.857,0,0,1,9.182,15.717Z" transform="translate(633.676 208.152)"/><path class="i" d="M-5.642-1.456q.84,0,.84.714Q-4.8,0-5.642,0h-5.32a.762.762,0,0,1-.574-.217.745.745,0,0,1-.21-.539,1.066,1.066,0,0,1,.322-.756l3.192-3.43a5.526,5.526,0,0,0,.861-1.183A2.354,2.354,0,0,0-7.1-7.2,1.306,1.306,0,0,0-7.476-8.2a1.529,1.529,0,0,0-1.078-.35,2.954,2.954,0,0,0-1.113.217,5.567,5.567,0,0,0-1.085.6,1.722,1.722,0,0,1-.28.161.677.677,0,0,1-.28.063.513.513,0,0,1-.413-.224.838.838,0,0,1-.175-.532.805.805,0,0,1,.077-.364.935.935,0,0,1,.245-.294,4.851,4.851,0,0,1,1.442-.777A5.006,5.006,0,0,1-8.484-10a3.449,3.449,0,0,1,2.3.728,2.435,2.435,0,0,1,.861,1.96,3.619,3.619,0,0,1-.364,1.6A7.1,7.1,0,0,1-6.916-4.032L-9.338-1.456Zm8.414,0q.84,0,.84.714,0,.742-.84.742h-5.32a.762.762,0,0,1-.574-.217.745.745,0,0,1-.21-.539,1.066,1.066,0,0,1,.322-.756L.182-4.942a5.526,5.526,0,0,0,.861-1.183A2.354,2.354,0,0,0,1.316-7.2,1.306,1.306,0,0,0,.938-8.2,1.529,1.529,0,0,0-.14-8.554a2.954,2.954,0,0,0-1.113.217,5.567,5.567,0,0,0-1.085.6,1.722,1.722,0,0,1-.28.161.677.677,0,0,1-.28.063.513.513,0,0,1-.413-.224.838.838,0,0,1-.175-.532.805.805,0,0,1,.077-.364.935.935,0,0,1,.245-.294,4.851,4.851,0,0,1,1.442-.777A5.006,5.006,0,0,1-.07-10a3.449,3.449,0,0,1,2.3.728,2.435,2.435,0,0,1,.861,1.96,3.619,3.619,0,0,1-.364,1.6A7.1,7.1,0,0,1,1.5-4.032L-.924-1.456Zm8.792-1.876a.94.94,0,0,1,.63.182.648.648,0,0,1,.21.518q0,.7-.84.7H10.85V-.826a.894.894,0,0,1-.245.672.876.876,0,0,1-.637.238.876.876,0,0,1-.637-.238.894.894,0,0,1-.245-.672V-1.932H5.418a.78.78,0,0,1-.588-.217.745.745,0,0,1-.21-.539,1.079,1.079,0,0,1,.224-.644L9.17-9.548a.944.944,0,0,1,.35-.3.959.959,0,0,1,.434-.1.914.914,0,0,1,.63.238.855.855,0,0,1,.266.672v5.712Zm-2.478,0V-7.1l-2.6,3.766Z" transform="translate(669.66 221.686)"/></g><g transform="translate(449 5393.355)"><circle class="g" cx="26.5" cy="26.5" r="26.5" transform="translate(899 520)"/><circle class="h" cx="15.5" cy="15.5" r="15.5" transform="translate(910 531)"/><circle class="i" cx="6.5" cy="6.5" r="6.5" transform="translate(919 540)"/></g><g class="m" transform="translate(1125.368 141.422)"><path class="g" d="M394.036,2782s61.9,77.386,132.2,91.308,210.945-34.658,292.6-29.958,151,84.694,258.926,118.034,172.8-36.217,172.8-36.217V2782.021Z" transform="translate(-427.926 2643)"/><path class="n" d="M-1860.358,3583.188s53.522,73.99,187.563,75.669,235.032,8.393,294.794,32.108,199.834,86.249,312.307,72.969,150.316-72.969,150.316-72.969" transform="translate(1737 1841.917)"/></g><g class="m" transform="translate(-266.99 5560.422)"><path class="g" d="M1250.558,2782s-61.9,77.386-132.2,91.308-210.945-34.658-292.6-29.958-151,84.694-258.926,118.034-172.8-36.217-172.8-36.217V2782.021Z" transform="translate(-394.036 -2782)"/></g><path class="o" d="M-77.7,5954.643s80.923-105.274,204.836-73.664,223,114.608,275.368,73.664,130.511-26.226,310.059,0,340.129,37.605,432.432-7.914,65.75-50.577,131.5-27.817,183.341,36.668,304.726,0,195.985,50.577,246.562,27.817,173.226-12.645,174.49-8.851" transform="translate(0 -9)"/></g></svg>