<svg xmlns="http://www.w3.org/2000/svg" xmlns:xlink="http://www.w3.org/1999/xlink" width="750" height="2664" viewBox="0 0 750 2664">
  <defs>
    <clipPath id="clip-path">
      <rect id="矩形_994" data-name="矩形 994" width="750" height="2664" transform="translate(585)" fill="none" opacity="0.08"/>
    </clipPath>
    <linearGradient id="linear-gradient" x1="0.335" y1="-0.372" x2="1.092" y2="1.362" gradientUnits="objectBoundingBox">
      <stop offset="0" stop-color="#b584ff"/>
      <stop offset="0.019" stop-color="#b483ff"/>
      <stop offset="1" stop-color="#685bff"/>
    </linearGradient>
    <linearGradient id="linear-gradient-2" x1="0.5" x2="0.5" y2="1" gradientUnits="objectBoundingBox">
      <stop offset="0" stop-color="#ffe6ea"/>
      <stop offset="1" stop-color="#f67ba9"/>
    </linearGradient>
  </defs>
  <g id="bg" transform="translate(-585)" clip-path="url(#clip-path)">
    <rect id="矩形_1095" data-name="矩形 1095" width="750" height="2664" transform="translate(585)" fill="url(#linear-gradient)"/>
    <g id="素材">
      <path id="减去_13" data-name="减去 13" d="M17,34A17,17,0,0,1,4.979,4.977,17,17,0,0,1,29.019,29.019,16.882,16.882,0,0,1,17,34ZM17,6.788A10.21,10.21,0,1,0,27.212,17,10.221,10.221,0,0,0,17,6.788Z" transform="translate(1310 122.305)" opacity="0.25" fill="url(#linear-gradient-2)"/>
      <circle id="椭圆_1042" data-name="椭圆 1042" cx="6.5" cy="6.5" r="6.5" transform="translate(971 34)" fill="#ff93f8"/>
      <circle id="椭圆_1127" data-name="椭圆 1127" cx="6.5" cy="6.5" r="6.5" transform="translate(1297 296)" fill="#ff93f1"/>
      <path id="路径_23678" data-name="路径 23678" d="M11.09,1.036a1.84,1.84,0,0,1,3.3-.062l10.08,19.652a2.067,2.067,0,0,1-1.707,3l-20.944.4a1.931,1.931,0,0,1-1.59-2.936Z" transform="translate(802.082 18.113) rotate(83)" fill="#c488ff"/>
      <path id="路径_23679" data-name="路径 23679" d="M5.449,1.856a3.343,3.343,0,0,1,5.944-.112l4.631,8.783a3.711,3.711,0,0,1-3.079,5.411l-9.616.181a3.469,3.469,0,0,1-2.865-5.3Z" transform="translate(1262.989 29.894) rotate(83)" fill="#58ebcb"/>
      <path id="路径_23677" data-name="路径 23677" d="M4.409.612,16.684-.079a3.045,3.045,0,0,1,3.288,3.311L19.2,15.513a4.056,4.056,0,0,1-3.727,3.706L3.2,19.91A3.045,3.045,0,0,1-.086,16.6L.682,4.318A4.056,4.056,0,0,1,4.409.612Z" transform="matrix(0.407, 0.914, -0.914, 0.407, 616.35, 121.147)" fill="#bba7ff"/>
    </g>
  </g>
</svg>
