<svg xmlns="http://www.w3.org/2000/svg" width="252" height="55" viewBox="0 0 252 55"><g transform="translate(-0.015 -0.301)"><rect width="252" height="55" rx="27.5" transform="translate(0.015 0.301)" fill="#232323"/><text transform="translate(68.015 34.3)" fill="#fff" font-size="15" font-family="SegoeUI, Segoe UI"><tspan x="0" y="0">Download GetInsta</tspan></text><path d="M19.205,18.149A12.661,12.661,0,0,1,17.953,20.4,11.437,11.437,0,0,1,16.34,22.35a3.129,3.129,0,0,1-2.073.913,5.2,5.2,0,0,1-1.915-.457,5.494,5.494,0,0,0-2.061-.456,5.68,5.68,0,0,0-2.12.456,5.7,5.7,0,0,1-1.832.482,2.946,2.946,0,0,1-2.12-.937,12.01,12.01,0,0,1-1.687-2.018A13.958,13.958,0,0,1,.749,16.788,12.975,12.975,0,0,1,0,12.565,7.712,7.712,0,0,1,1.013,8.53,5.941,5.941,0,0,1,3.134,6.384,5.706,5.706,0,0,1,6,5.575a6.752,6.752,0,0,1,2.218.516,7.13,7.13,0,0,0,1.759.517A10.527,10.527,0,0,0,11.929,6a6.448,6.448,0,0,1,2.651-.471,5.63,5.63,0,0,1,4.41,2.322,4.906,4.906,0,0,0-2.6,4.457A4.916,4.916,0,0,0,18,16.012a5.305,5.305,0,0,0,1.613,1.058Q19.422,17.632,19.205,18.149ZM14.711.466a4.968,4.968,0,0,1-1.274,3.259A4.339,4.339,0,0,1,9.834,5.5a3.626,3.626,0,0,1-.027-.441A5.1,5.1,0,0,1,11.158,1.77,5.2,5.2,0,0,1,12.8.534,4.908,4.908,0,0,1,14.687,0a4.23,4.23,0,0,1,.024.466Z" transform="translate(35.098 16.588)" fill="#fff"/></g></svg>