<svg xmlns="http://www.w3.org/2000/svg" xmlns:xlink="http://www.w3.org/1999/xlink" width="101" height="101" viewBox="0 0 101 101"><defs><style>.a{fill:#fff;}.b{fill:#7c56ff;fill-rule:evenodd;}.c{filter:url(#a);}</style><filter id="a" x="0" y="0" width="101" height="101" filterUnits="userSpaceOnUse"><feOffset dy="8" input="SourceAlpha"/><feGaussianBlur stdDeviation="5" result="b"/><feFlood flood-color="#7053e1" flood-opacity="0.769"/><feComposite operator="in" in2="b"/><feComposite in="SourceGraphic"/></filter></defs><g transform="translate(-1086.509 -868.509)"><g class="c" transform="matrix(1, 0, 0, 1, 1086.51, 868.51)"><circle class="a" cx="35.5" cy="35.5" r="35.5" transform="translate(15 7)"/></g><path class="b" d="M15.277,20.8a1.441,1.441,0,0,1,0-2.038l6.718-6.654L.006,12.063,0,9.181l22.008.045L15.24,2.458A1.438,1.438,0,1,1,17.274.424l9.161,9.161a1.439,1.439,0,0,1,.422,1.033,1.283,1.283,0,0,1-.389,1.034L17.316,20.8A1.441,1.441,0,0,1,15.277,20.8Z" transform="translate(1147.998 898.045) rotate(90)"/></g></svg>