<svg xmlns="http://www.w3.org/2000/svg" width="17.278" height="20.42" viewBox="0 0 17.278 20.42"><defs><style>.a{fill:#232323;}</style></defs><g transform="translate(-42.544)"><g transform="translate(42.544 0)"><path class="a" d="M43.808,179.141a1.219,1.219,0,0,0-.9.368,1.2,1.2,0,0,0-.368.884v5.277a1.257,1.257,0,0,0,1.264,1.264,1.2,1.2,0,0,0,.89-.368,1.23,1.23,0,0,0,.362-.9v-5.277a1.257,1.257,0,0,0-1.252-1.252Z" transform="translate(-42.544 -172.527)"/><path class="a" d="M131.118,1.878,131.989.27a.162.162,0,0,0-.061-.245.17.17,0,0,0-.245.073l-.883,1.62a6.155,6.155,0,0,0-4.933,0L124.982.1a.17.17,0,0,0-.245-.073.161.161,0,0,0-.061.245l.871,1.607a5.381,5.381,0,0,0-2.111,1.884,4.758,4.758,0,0,0-.785,2.645H134a4.759,4.759,0,0,0-.785-2.645A5.4,5.4,0,0,0,131.118,1.878Zm-5.037,2.338a.46.46,0,0,1-.338.141.439.439,0,0,1-.331-.141.489.489,0,0,1,0-.675.441.441,0,0,1,.331-.141.477.477,0,0,1,.338.816Zm5.172,0a.44.44,0,0,1-.331.141.479.479,0,0,1,0-.957.441.441,0,0,1,.331.141.489.489,0,0,1,0,.675Z" transform="translate(-119.693 0)"/><path class="a" d="M123.971,193.623a1.34,1.34,0,0,0,1.35,1.35h.908l.012,2.786a1.22,1.22,0,0,0,.368.9,1.205,1.205,0,0,0,.884.368,1.257,1.257,0,0,0,1.264-1.264v-2.786h1.693v2.786a1.264,1.264,0,1,0,2.528,0v-2.786h.92a1.34,1.34,0,0,0,1.338-1.35V185.45H123.971Z" transform="translate(-120.965 -178.603)"/><path class="a" d="M443.628,179.141a1.216,1.216,0,0,0-.884.362,1.2,1.2,0,0,0-.368.89v5.277a1.219,1.219,0,0,0,.368.9,1.205,1.205,0,0,0,.884.368,1.257,1.257,0,0,0,1.264-1.264v-5.277a1.2,1.2,0,0,0-.368-.89A1.231,1.231,0,0,0,443.628,179.141Z" transform="translate(-427.613 -172.527)"/></g></g></svg>