<svg xmlns="http://www.w3.org/2000/svg" width="15.656" height="18.586" viewBox="0 0 15.656 18.586"><defs><style>.a{fill:#232323;}</style></defs><path class="a" d="M15.327,14.485a10.1,10.1,0,0,1-1,1.8,9.128,9.128,0,0,1-1.287,1.556,2.5,2.5,0,0,1-1.654.729A4.147,4.147,0,0,1,9.858,18.2a4.385,4.385,0,0,0-1.645-.364,4.533,4.533,0,0,0-1.692.364,4.552,4.552,0,0,1-1.462.384,2.351,2.351,0,0,1-1.692-.748,9.585,9.585,0,0,1-1.346-1.611A11.14,11.14,0,0,1,.6,13.4a10.355,10.355,0,0,1-.6-3.37,6.155,6.155,0,0,1,.808-3.22A4.741,4.741,0,0,1,2.5,5.1,4.554,4.554,0,0,1,4.79,4.45a5.389,5.389,0,0,1,1.77.412,5.69,5.69,0,0,0,1.4.413,8.4,8.4,0,0,0,1.557-.486,5.146,5.146,0,0,1,2.116-.376,4.493,4.493,0,0,1,3.52,1.853A3.915,3.915,0,0,0,13.08,9.822a3.924,3.924,0,0,0,1.288,2.956,4.234,4.234,0,0,0,1.287.844Q15.5,14.072,15.327,14.485ZM11.741.372a3.965,3.965,0,0,1-1.016,2.6,3.463,3.463,0,0,1-2.876,1.42,2.894,2.894,0,0,1-.022-.352A4.074,4.074,0,0,1,8.905,1.412,4.152,4.152,0,0,1,10.219.426,3.917,3.917,0,0,1,11.722,0a3.376,3.376,0,0,1,.02.372Z" transform="translate(0 0)"/></svg>