<svg xmlns="http://www.w3.org/2000/svg" xmlns:xlink="http://www.w3.org/1999/xlink" width="539.752" height="330.315" viewBox="0 0 539.752 330.315"><defs><style>.a,.ad,.af,.ag,.ai,.aj,.al,.ao,.au,.aw,.ax,.bh,.bi,.j,.r,.s{fill:none;}.b{fill:#ba68c8;}.c{fill:#00ffcb;opacity:0.71;}.aq,.az,.ba,.d,.g,.l,.m{fill:#fff;}.e{fill:url(#a);}.f{opacity:0.14;}.bj,.bk,.bl,.bm,.bn,.bo,.g,.j{fill-rule:evenodd;}.h,.m{opacity:0.16;}.aq,.i{opacity:0.51;}.bh,.j,.r{stroke:#fff;}.bi,.j{stroke-width:2px;}.k{opacity:0.52;}.l{opacity:0.32;}.n{fill:#ffd731;}.o{fill:#ed9f15;}.p{fill:#ffb92c;}.q{fill:url(#b);}.ad,.ao,.r,.s{stroke-linecap:round;}.bh,.bi,.r,.s{stroke-linejoin:round;}.s{stroke:#6ca0ff;stroke-width:3px;}.t{clip-path:url(#c);}.u{opacity:0.42;}.v{fill:url(#d);}.w{fill:url(#e);}.x{opacity:0.05;}.y{fill:#b657e7;}.z{fill:url(#f);}.aa{fill:#00276f;}.ab{fill:#ffbbc6;}.ac{fill:#ffca37;}.ad,.al{stroke:#00276f;}.ad,.af,.ag,.ai,.aj,.al,.ao,.au,.aw,.ax{stroke-miterlimit:10;}.ae{fill:#00224c;}.af,.ag{stroke:#15489b;}.af,.ag,.ai,.aj,.al,.au,.aw,.ax{stroke-width:0.75px;}.af,.aj{stroke-dasharray:2 1.5;}.ah{fill:#15489b;}.ai,.aj{stroke:#1b5abf;}.ak{fill:#1b5abf;}.am{fill:#0a172b;}.an,.ap{fill:#8dade0;}.ao{stroke:#8dade0;stroke-width:0.25px;}.ap{opacity:0.55;mix-blend-mode:multiply;isolation:isolate;}.ar{clip-path:url(#h);}.as{fill:url(#i);}.at{fill:url(#j);}.au{stroke:#de8998;}.av{fill:#6ca0ff;}.aw{stroke:#225baf;}.ax{stroke:#fcaab8;}.ay{fill:#f7546c;}.az{font-size:9px;}.az,.ba{font-family:Nunito-Bold, Nunito;font-weight:700;}.ba{font-size:11px;}.bb{fill:#ffd05a;}.bc{fill:#252c37;}.bd{clip-path:url(#k);}.be{clip-path:url(#l);}.bf{fill:#c563d7;}.bg{fill:#fdfdfe;}.bi{stroke:#8bdbff;}.bj{fill:url(#m);}.bk{fill:#eb4c44;}.bl{fill:#ef8b42;}.bm{fill:#a42dba;}.bn{fill:#7c35ca;}.bo{fill:#eb4e27;}.bp{fill:#d5bdef;}.bq{fill:#8536f5;}.br{fill:#adc4f3;}.bs{fill:#bed3fd;}</style><linearGradient id="a" x1="0.5" x2="0.5" y2="1" gradientUnits="objectBoundingBox"><stop offset="0" stop-color="#ffb2f2"/><stop offset="1" stop-color="#42d7e8"/></linearGradient><linearGradient id="b" x1="0.5" x2="0.5" y2="1" gradientUnits="objectBoundingBox"><stop offset="0" stop-color="#b7d1ff"/><stop offset="1" stop-color="#544fe6"/></linearGradient><clipPath id="c"><rect class="a" width="153.983" height="276.248" rx="11.128"/></clipPath><linearGradient id="d" x1="1.276" y1="0.131" x2="-0.276" y2="0.869" gradientUnits="objectBoundingBox"><stop offset="0.27" stop-color="#fff" stop-opacity="0.4"/><stop offset="1" stop-color="#fff" stop-opacity="0.2"/></linearGradient><linearGradient id="e" x1="1.355" y1="0.147" x2="-0.355" y2="0.853" xlink:href="#d"/><linearGradient id="f" x1="0.5" x2="0.5" y2="1" gradientUnits="objectBoundingBox"><stop offset="0" stop-color="#aac9ff"/><stop offset="1" stop-color="#3984c5"/></linearGradient><clipPath id="h"><path class="a" d="M892.81,227.287l-4.232-3.688a.554.554,0,0,1-.141-.616l4.463-11.31a.358.358,0,0,1,.573-.158l4.277,3.727a.554.554,0,0,1,.14.617l-4.439,11.25A.4.4,0,0,1,892.81,227.287Z" transform="translate(-888.398 -211.428)"/></clipPath><linearGradient id="i" x1="-49.214" y1="2.855" x2="-48.509" y2="1.807" gradientUnits="objectBoundingBox"><stop offset="0" stop-color="#fff" stop-opacity="0.6"/><stop offset="0.888" stop-color="#fff" stop-opacity="0.102"/></linearGradient><linearGradient id="j" x1="-52.69" y1="3.228" x2="-51.934" y2="2.118" xlink:href="#i"/><clipPath id="k"><path class="a" d="M-95.061,27.325a5.469,5.469,0,0,0,6.243,4.063,5.469,5.469,0,0,0,4.5-5.932Z" transform="translate(95.061 -25.455)"/></clipPath><clipPath id="l"><path class="a" d="M-190.969-44.581a12.216,12.216,0,0,0,10.122,13.206,12.218,12.218,0,0,0,13.9-9.139Z" transform="translate(191.026 44.581)"/></clipPath><linearGradient id="m" x1="0.5" x2="0.5" y2="1" gradientUnits="objectBoundingBox"><stop offset="0" stop-color="#cb71ff"/><stop offset="1" stop-color="#7025f3"/></linearGradient></defs><g transform="translate(53.897 -40.009)"><g transform="translate(40.066 225.441)"><g transform="translate(0)"><g transform="translate(26.751)"><path class="b" d="M425.106,389.272l-17.073,9.917s8.616-27.5,3.834-55.166c-1.805-10.443-5.6-15.629-6.944-18.416s-11.634-20.043-2.573-28,30.324,7.868,29.371,50.477A165.6,165.6,0,0,1,425.106,389.272Z" transform="translate(-398.656 -295.629)"/><path class="c" d="M425.106,389.272l-17.073,9.917s8.616-27.5,3.834-55.166c-1.805-10.443-5.6-15.629-6.944-18.416s-11.634-20.043-2.573-28,30.324,7.868,29.371,50.477A165.6,165.6,0,0,1,425.106,389.272Z" transform="translate(-398.656 -295.629)"/><path class="d" d="M414.277,392.553a.616.616,0,0,0,.581-.405c.066-.178,6.511-18.078,6.172-46.8-.341-28.862-15.5-44.242-15.649-44.395a.619.619,0,0,0-.872.878c.149.149,14.951,15.2,15.284,43.532.337,28.478-6.031,46.186-6.1,46.361a.617.617,0,0,0,.368.793A.607.607,0,0,0,414.277,392.553Z" transform="translate(-395.764 -293.68)"/></g><g transform="translate(0 29.212)"><path class="e" d="M450.365,383.814,422.159,400.4s-12.915-1.9-11.938-14.06,6.225-15.021-.309-20.363-8.22-5.695-7.908-10.931,3.836-7.519,5.492-9.593,6.277-6.428,3.027-12.743-7.654-12.413-1.116-15.308c3.9-1.728,10.469.437,14.821,5.057s7.943,7.94,12.066,9.013,12.719,1.158,12.43,8.261-2.135,9.557-.411,12.711C451.559,358.389,465.424,361.588,450.365,383.814Z" transform="translate(-401.969 -316.814)"/><path class="d" d="M441.262,390.18a.621.621,0,0,0,.616-.568c.033-.421,3.1-42.4-26.069-69.971a.619.619,0,0,0-.851.9c28.727,27.151,25.719,68.555,25.685,68.97a.618.618,0,0,0,.567.666Z" transform="translate(-404.352 -315.806)"/><path class="d" d="M412.681,349.717a.618.618,0,0,0,.616-.574,24.091,24.091,0,0,1,8.638-16.88.618.618,0,0,0-.723-1,24.886,24.886,0,0,0-9.149,17.792.621.621,0,0,0,.572.663Z" transform="translate(-380.828 -311.384)"/><path class="d" d="M441.6,351.84a.617.617,0,0,0,.459-1.03c-.3-.338-7.613-8.23-24.528-5.9a.618.618,0,1,0,.168,1.225c16.225-2.231,23.372,5.43,23.442,5.507A.613.613,0,0,0,441.6,351.84Z" transform="translate(-407.669 -306.331)"/></g></g></g><g class="f" transform="translate(26.406 76.492)"><g transform="translate(0 0)"><path class="g" d="M366.138,138.979a31.482,31.482,0,0,1-7.077,4.456l-.412,7.742L346,153.342l-2.965-7.164a31.431,31.431,0,0,1-8.158-1.848l-5.765,5.182-10.47-7.411,2.967-7.159a31.412,31.412,0,0,1-4.455-7.078l-7.743-.412-2.165-12.643,7.165-2.966a31.431,31.431,0,0,1,1.849-8.157l-5.182-5.764,7.411-10.474,7.16,2.97a31.368,31.368,0,0,1,7.078-4.455l.413-7.744,12.645-2.164,2.965,7.167a31.49,31.49,0,0,1,8.157,1.848l5.764-5.181L373.147,87.3l-2.97,7.159a31.334,31.334,0,0,1,4.456,7.078l7.744.412,2.165,12.643-7.166,2.965a31.447,31.447,0,0,1-1.849,8.158l5.182,5.764L373.3,141.947l-7.16-2.967Zm-9.346-15.856a13.762,13.762,0,1,0-19.183,3.284A13.762,13.762,0,0,0,356.793,123.123Z" transform="translate(-307.25 -76.051)"/></g></g><g class="h" transform="translate(61.725 152.843)"><g class="i" transform="translate(0 0)"><path class="j" d="M347.807,119.39a21.684,21.684,0,0,1-4.874,3.069l-.284,5.332-8.709,1.491-2.042-4.934a21.648,21.648,0,0,1-5.618-1.273l-3.97,3.569-7.211-5.1,2.044-4.931a21.634,21.634,0,0,1-3.068-4.875l-5.333-.284-1.491-8.708,4.935-2.043a21.645,21.645,0,0,1,1.274-5.618l-3.569-3.969,5.1-7.213,4.931,2.045a21.6,21.6,0,0,1,4.874-3.068l.284-5.334,8.709-1.491,2.042,4.936a21.687,21.687,0,0,1,5.618,1.273l3.97-3.568,7.212,5.1-2.045,4.931a21.579,21.579,0,0,1,3.069,4.875l5.334.284,1.491,8.708-4.935,2.042a21.658,21.658,0,0,1-1.273,5.618l3.569,3.969-5.1,7.211-4.931-2.044Zm-6.437-10.92a9.478,9.478,0,1,0-13.211,2.262A9.478,9.478,0,0,0,341.37,108.469Z" transform="translate(-307.25 -76.051)"/></g></g><g transform="translate(-53.897 312.17)"><g class="k" transform="translate(0 7.184)"><ellipse class="l" cx="269.876" cy="25.485" rx="269.876" ry="25.485" transform="translate(0 0)"/><path class="m" d="M239.876,0c132.48,0,239.876,7.828,239.876,17.485S372.356,34.97,239.876,34.97,0,27.142,0,17.485,107.4,0,239.876,0Z" transform="translate(30 8)"/></g><g transform="translate(109.498)"><path class="n" d="M140.342,259.932,123.7,250.325l16.639-9.607,16.639,9.607Z" transform="translate(-123.703 -240.718)"/><path class="o" d="M140.342,273.685,123.7,264.079v-17.6l16.639,9.607Z" transform="translate(-123.703 -236.875)"/><path class="p" d="M150.325,264.079l-16.639,9.607v-17.6l16.639-9.607Z" transform="translate(-117.046 -236.875)"/></g></g><g transform="translate(95.793 68.104)"><rect class="q" width="153.983" height="276.248" rx="11.128" transform="translate(0 7.868)"/><g transform="translate(71.481 263.993)"><path class="r" d="M-412.288,719.572a5.51,5.51,0,0,1-5.51,5.51,5.51,5.51,0,0,1-5.51-5.51,5.51,5.51,0,0,1,5.51-5.509A5.51,5.51,0,0,1-412.288,719.572Z" transform="translate(423.309 -714.063)"/></g><rect class="d" width="145.746" height="227.393" transform="translate(4.118 27.561)"/><line class="s" x2="26.466" transform="translate(63.758 17.113)"/><line class="s" x2="4.881" transform="translate(53.955 17.113)"/><g transform="translate(0 7.868)"><g class="t"><g class="u" transform="translate(-1.765 -29.93)"><path class="v" d="M-400.914,351.5l-115.23,313.144h33.494L-367.421,351.5Z" transform="translate(516.145 -351.502)"/><path class="w" d="M-345.336,351.5l-115.23,313.144h14.2L-331.136,351.5Z" transform="translate(504.417 -351.502)"/></g></g></g><g class="x" transform="translate(18.043 91.144)"><path class="y" d="M1076.225,526.143c-24.206,0-47.192-2.153-55.971,20.38-3.626,9.306-3.1,21.392-3.1,38.7,0,15.187-.487,29.458,3.1,38.691,8.759,22.546,31.931,20.387,55.957,20.387,23.177,0,47.077,2.413,55.964-20.387,3.633-9.4,3.1-21.306,3.1-38.691,0-23.078,1.274-37.978-9.919-49.164-11.332-11.333-26.659-9.913-49.158-9.913Zm-5.293,10.647c50.49-.08,56.916-5.693,53.369,72.283-1.26,27.578-22.258,24.551-48.071,24.551-47.064,0-48.417-1.346-48.417-48.43,0-47.631,3.732-48.378,43.118-48.419Zm36.824,9.806a7.086,7.086,0,1,0,7.086,7.086,7.088,7.088,0,0,0-7.086-7.086Zm-31.531,8.286a30.335,30.335,0,1,0,30.325,30.339,30.338,30.338,0,0,0-30.325-30.339Zm0,10.647c26.032,0,26.064,39.384,0,39.384-26.026,0-26.067-39.384,0-39.384Zm0,0" transform="translate(-1017.127 -526.086)"/></g><g transform="translate(168.442 8.427) rotate(-16)"><path class="z" d="M15.286,0A15.286,15.286,0,1,1,0,15.286,15.286,15.286,0,0,1,15.286,0Z" transform="translate(0 0)"/><path class="d" d="M10.978,6.273A3.136,3.136,0,1,0,7.841,3.136,3.136,3.136,0,0,0,10.978,6.273ZM3.921,4.7V2.352H2.352V4.7H0V6.273H2.352V8.625H3.921V6.273H6.273V4.7Zm7.057,3.136C8.884,7.841,4.7,8.892,4.7,10.978v1.568H17.251V10.978C17.251,8.892,13.071,7.841,10.978,7.841Z" transform="translate(5.791 8.876)"/></g><g transform="translate(228.851 94.448) rotate(-16)"><path class="z" d="M11.78,0A11.78,11.78,0,1,1,0,11.78,11.78,11.78,0,0,1,11.78,0Z" transform="translate(0 0)"/><path class="d" d="M8.46,4.834A2.417,2.417,0,1,0,6.043,2.417,2.417,2.417,0,0,0,8.46,4.834ZM3.021,3.626V1.813H1.813V3.626H0V4.834H1.813V6.647H3.021V4.834H4.834V3.626ZM8.46,6.043c-1.613,0-4.834.81-4.834,2.417V9.669h9.669V8.46C13.295,6.853,10.074,6.043,8.46,6.043Z" transform="matrix(0.819, 0.574, -0.574, 0.819, 8.438, 3.902)"/></g></g><g transform="translate(234.2 124.827)"><g transform="translate(14.004 84.619)"><g transform="translate(0 2.799)"><g transform="translate(0 83.051)"><path class="aa" d="M810.15,421.712l1.668-.784,10.23,21.738a3.311,3.311,0,0,0,2.67,1.885l.121.17-2.682,1.262a.435.435,0,0,1-.319.02l-.1-.032a2.546,2.546,0,0,1-1.519-1.34l-10.379-22.056A.649.649,0,0,1,810.15,421.712Z" transform="translate(-809.777 -395.24)"/><path class="ab" d="M839.877,388.348l-18.946,22.786L814,415.264l9.84,20.91a1.391,1.391,0,0,0,1.851.666h0a1.391,1.391,0,0,0,.795-1.359l-1.006-13.88,20.753-17.062" transform="translate(-810.671 -388.348)"/><path class="ac" d="M826.089,426.619l.436,15.657a1.753,1.753,0,0,1-1.053,1.584h0a1.911,1.911,0,0,1-2.362-.923l-10.744-22.83,8.486-3.062S820.036,422.312,826.089,426.619Z" transform="translate(-810.325 -394.418)"/><path class="ad" d="M829.634,432.934a17,17,0,0,0-3.942-.406" transform="translate(-813.144 -397.693)"/><path class="ad" d="M829.521,435.625a14.919,14.919,0,0,0-3.328-.293" transform="translate(-813.25 -398.287)"/><path class="ad" d="M829.5,437.819a20.894,20.894,0,0,0-3.047-.253" transform="translate(-813.306 -398.759)"/></g><path class="ae" d="M851.823,287.053l2.718,6.288A15.417,15.417,0,0,0,858.4,298.7c7.449,6.689,26.284,33.009,26.491,44.1.25,13.4-40.915,56.6-40.915,56.6L827.9,381.365l32.358-38.608-28.1-26.836s-12.832-4.523-7.662-27.488" transform="translate(-812.632 -283.869)"/><path class="af" d="M833.884,380.746l30.291-37.654a2.861,2.861,0,0,0-.319-4.153L838.1,313.084s-12.835-4.7-7.681-28.542" transform="translate(-813.886 -283.338)"/><path class="ag" d="M834.417,383.195l32.144-39.524a4.074,4.074,0,0,0-.454-5.911s-27.472-26.95-27.572-26.993c-1.364-.59-9.722-5.37-4.884-27.752" transform="translate(-814.512 -283.015)"/><path class="ah" d="M831.358,402.483l-5.307,4.921,17.368,17.962L848.3,420.2Z" transform="translate(-813.22 -308.287)"/></g><g transform="translate(2.544 0)"><g transform="translate(39.939 106.256)"><path class="aa" d="M875.131,459.23v-1.843h24.025A3.313,3.313,0,0,0,902,455.773l.205-.036V458.7a.434.434,0,0,1-.117.3l-.071.076a2.549,2.549,0,0,1-1.859.805H875.78A.649.649,0,0,1,875.131,459.23Z" transform="translate(-866.086 -423.009)"/><path class="ab" d="M863.659,416.706l9.92,23.228.787,8.027h23.109a1.39,1.39,0,0,0,1.39-1.391h0a1.391,1.391,0,0,0-.891-1.3l-12.988-5-6.6-26.043" transform="translate(-863.659 -414.229)"/><path class="ac" d="M886.867,445.6l14.352,6.271a1.755,1.755,0,0,1,.984,1.628h0a1.911,1.911,0,0,1-1.84,1.745H875.131l.844-8.982S880.392,449.24,886.867,445.6Z" transform="translate(-866.086 -420.865)"/><path class="ad" d="M893.347,446.4A16.933,16.933,0,0,0,891.3,449.8" transform="translate(-869.507 -421.035)"/><path class="ad" d="M895.734,447.79a14.942,14.942,0,0,0-1.683,2.887" transform="translate(-870.088 -421.328)"/><path class="ad" d="M897.713,448.8a20.883,20.883,0,0,0-1.527,2.649" transform="translate(-870.54 -421.543)"/></g><path class="aa" d="M813.065,289.691s-1.012,14.192,5.239,27.6,31.53,91.25,31.53,91.25l22.423-9.644-27.2-92.644a137.7,137.7,0,0,0-5.571-26.783" transform="translate(-813.004 -279.465)"/><path class="ai" d="M857.644,410.73l-31.091-88.681s-6.321-11.038-6.321-19.448" transform="translate(-814.533 -284.359)"/><path class="aj" d="M855.219,411.484l-31.844-89.435s-6.321-11.038-6.321-19.448" transform="translate(-813.861 -284.359)"/><path class="ak" d="M857.254,433.3l2.156,6.95,22.865-9.2-2.111-6.4Z" transform="translate(-822.364 -310.178)"/></g><path class="ai" d="M822.519,312.319a16.572,16.572,0,0,0,8-10.409" transform="translate(-812.473 -284.213)"/><path class="al" d="M853.729,311.153s2.529-2.9,2.286-5.276c-.666-6.537-2.286-14.818-2.286-14.818" transform="translate(-819.075 -281.918)"/></g><g transform="translate(33.259 30.975)"><path class="ab" d="M892.227,234.031l-5.615-5.7s5.253-13.19,5.842-13.062c1.207.261-.966,5.868-.966,5.868s3.081-6,3.512-5.6c.771.707-1.447,6.849-1.447,6.849s2.686-5.939,3.211-5.312-1.922,9.846-1.922,9.846Z" transform="translate(-845.286 -212.24)"/><path class="ab" d="M885.248,229.453l1.048-2.031a30.355,30.355,0,0,1,1.218-6c.89-2.529,1.546-3.748,2.014-3.748s0,3.935,0,3.935.807,3.384-.364,5.585" transform="translate(-844.997 -212.75)"/><g transform="translate(42.735)"><path class="am" d="M893.05,227.365l-3.908-3.651a.554.554,0,0,1-.14-.617l4.437-11.658.349.088a.569.569,0,0,1,.248.1l4.277,3.727a.555.555,0,0,1,.141.617l-4.439,11.25a.422.422,0,0,1-.36.275Z" transform="translate(-888.518 -211.431)"/><path class="aa" d="M892.81,227.287l-4.232-3.688a.554.554,0,0,1-.141-.616l4.463-11.31a.358.358,0,0,1,.573-.158l4.277,3.727a.554.554,0,0,1,.14.617l-4.439,11.25A.4.4,0,0,1,892.81,227.287Z" transform="translate(-888.398 -211.428)"/><path class="an" d="M888.853,222.417l4.943,4.307,3.884-9.843-4.943-4.308Z" transform="translate(-888.495 -211.671)"/><path class="an" d="M891.539,228.276c-.039.156-.162.23-.278.165a.376.376,0,0,1-.14-.4c.039-.156.163-.23.278-.165A.375.375,0,0,1,891.539,228.276Z" transform="translate(-888.972 -214.902)"/><line class="ao" x2="0.862" y2="0.769" transform="translate(6.442 1.989)"/><g transform="translate(3.501 3.158)"><path class="ap" d="M893.245,216.285c-.036.148-.154.218-.263.156a.354.354,0,0,1-.132-.379c.036-.148.154-.218.263-.156A.353.353,0,0,1,893.245,216.285Z" transform="translate(-892.838 -215.529)"/><path class="aq" d="M897.371,217.832l-2.6-2.269a.524.524,0,0,0-.838.229l-.32.827-.263.044,3.182,2.76a.524.524,0,0,0,.838-.229l.2-.5A.77.77,0,0,0,897.371,217.832Z" transform="translate(-892.946 -215.433)"/><line class="ao" x2="2.626" y2="2.281" transform="translate(1.487 0.675)"/><line class="ao" x2="1.507" y2="1.309" transform="translate(1.246 1.3)"/></g><g transform="translate(0.964 9.202)"><path class="ap" d="M890.027,223.952c-.036.147-.154.218-.263.156a.357.357,0,0,1-.132-.38c.036-.148.155-.218.264-.156A.356.356,0,0,1,890.027,223.952Z" transform="translate(-889.621 -223.195)"/><path class="aq" d="M894.154,225.5l-2.6-2.269a.525.525,0,0,0-.839.229l-.319.827-.264.044,3.182,2.76a.525.525,0,0,0,.839-.229l.2-.5A.772.772,0,0,0,894.154,225.5Z" transform="translate(-889.728 -223.1)"/><line class="ao" x2="2.626" y2="2.281" transform="translate(1.487 0.675)"/><line class="ao" x2="1.507" y2="1.309" transform="translate(1.246 1.301)"/></g><g transform="translate(2.548 5.728)"><path class="ap" d="M897.028,224.466c-.036.148-.154.218-.263.156a.356.356,0,0,1-.132-.379c.036-.148.155-.218.264-.156A.355.355,0,0,1,897.028,224.466Z" transform="translate(-892.686 -219.83)"/><path class="aq" d="M895.491,221.256l-2.817-2.455a.437.437,0,0,0-.7.194l-.307.782a.548.548,0,0,0,.14.607l3.47,3-.089-.418.44-1.1A.547.547,0,0,0,895.491,221.256Z" transform="translate(-891.63 -218.694)"/><line class="ao" x2="2.626" y2="2.281" transform="translate(0.806 0.737)"/><line class="ao" x2="1.507" y2="1.309" transform="translate(0.564 1.363)"/><line class="ao" x2="0.585" y2="0.508" transform="translate(2.291 2.886)"/></g><g class="ar"><path class="as" d="M897.53,214.183l.976.967-9.885,11.7-.976-.967Z" transform="translate(-888.239 -212.011)"/><path class="at" d="M897.428,212.806l.243.242-9.885,11.7-.243-.242Z" transform="translate(-888.218 -211.72)"/></g></g><path class="ab" d="M860.045,239.811l5.544,8.9,11.955-18.673s8.534.795,7.553,5.021c-4.741,11.97-8.6,30.159-17.924,31.08C856.934,267.15,843.88,248,843.88,248" transform="translate(-836.246 -215.365)"/><path class="au" d="M870.258,253.719a38.208,38.208,0,0,0-4.31,8.5" transform="translate(-840.914 -220.374)"/><path class="ab" d="M894.593,235.145s3.44-8.381,3.862-9.974,1.519-5.988.816-5.988-2.362,4.207-2.549,4.91c-1.406.75-3.4,2.108-3.373,4.545" transform="translate(-846.71 -213.069)"/><path class="av" d="M836.527,212.574s11.7,1.086,24.606,27.253c-2.529,3.679-15.667,11.45-19.3,11.38-3.934-5.748-7.634-20.465-7.634-20.465" transform="translate(-834.198 -211.671)"/></g><g transform="translate(11.853 30.136)"><path class="av" d="M842.325,235.066c-3.637-14.359-9.105-21.257-9.105-21.257l-12-3.444L811.5,222.431c-9.763,29.674-.429,62.307-.429,62.307,6.73,2.872,34.6-2.968,41.4-9.764C852.472,274.973,845.39,247.164,842.325,235.066Z" transform="translate(-807.049 -210.365)"/><path class="aw" d="M853.5,249.552s-5.091-22.612-7.7-26.876" transform="translate(-815.246 -212.969)"/></g><g transform="translate(0 30.136)"><path class="ab" d="M796.6,237.687s-5.876,15.8-4.324,25.072c2.384,14.247,25.344,27.856,25.344,27.856s-.777,3.834.847,5.651a16.005,16.005,0,0,0,5.335-6.675l-1.922-3.19S809.3,266.6,809.663,260.071c.259-4.612,7.416-27.522,7.416-27.522" transform="translate(-792.016 -215.058)"/><path class="av" d="M818.043,210.365s-12.75,3.572-18.154,13.246a67.041,67.041,0,0,0-7.84,21.686c5.583,5.584,16.834,8.005,23.009,6.725l4.4-22.423" transform="translate(-792.023 -210.365)"/><line class="aw" y1="20.661" x2="4.055" transform="translate(23.036 20.996)"/></g><g transform="translate(24.639 0)"><path class="ab" d="M838.232,199.11l-6.473-11.226-5.078,8.962.337,2.059-2,6.705c2,5.939,10.282,6.606,12,3.444l1.212-9.943" transform="translate(-823.636 -175.473)"/><path class="ab" d="M844.9,182.208c1.058,3.994,1.34,17.562-1.866,18.992s-9.685.063-11.575-2.361c-1.641-2.1-3.192-13.388-.242-16.14S843.419,176.607,844.9,182.208Z" transform="translate(-824.596 -173.63)"/><path class="aa" d="M833.776,183.344c3.017.519,5.645-.315,7.987-1.076a9.622,9.622,0,0,0,5.679-4.43c.947-1.824,1.01-4.389-1.3-5.4a3.773,3.773,0,0,0-1.765-.289c-1.928.134-3.451,1.3-4.912,2.44.607-3.024-5.111-1.637-6.3-.549A7.144,7.144,0,0,1,832.1,175.1c-1.355.814-3.082.867-4.523,1.493a6.85,6.85,0,0,0-3.762,4.221c-.471,1.551-1.051,4.134.215,6a7.517,7.517,0,0,1,1.361,2.928l1,4.311s2.027-1.452,2.246-1.627a12.505,12.505,0,0,0,1.733-2.223A22.067,22.067,0,0,0,833.776,183.344Z" transform="translate(-823.265 -172.143)"/><path class="ab" d="M833.05,193.34c-.389-.71-.9-1.51-1.646-1.578a1.348,1.348,0,0,0-1.032.414,3.828,3.828,0,0,0-.041,5.375c.629.576,1.5.839,2.089.043l.749-3.755A.664.664,0,0,0,833.05,193.34Z" transform="translate(-824.531 -176.292)"/><path class="ax" d="M839.1,207.174s-5.183-.188-7.357-3.4" transform="translate(-825.059 -178.834)"/><path class="ax" d="M845.379,191.3s2.1,3.586,1.453,4.572-2.378.4-2.378.4" transform="translate(-827.747 -176.197)"/><g transform="translate(14.043 14.657)"><path class="aa" d="M842.1,191.059a3.185,3.185,0,0,1,.08.8.508.508,0,0,1-.706.457c-.622-.2-.507-1.672.262-1.582A.427.427,0,0,1,842.1,191.059Z" transform="translate(-841.075 -190.733)"/></g><g transform="translate(19.21 14.657)"><path class="aa" d="M848.655,191.059a3.185,3.185,0,0,1,.08.8.508.508,0,0,1-.706.457c-.622-.2-.507-1.672.262-1.582A.428.428,0,0,1,848.655,191.059Z" transform="translate(-847.628 -190.733)"/></g><path class="d" d="M845.473,200.667l-5.326-1.519s-.211,4.057,3.009,4.661C845.114,204.175,845.473,200.667,845.473,200.667Z" transform="translate(-826.836 -177.856)"/><g transform="translate(12.204 12.077)"><path class="aa" d="M842.026,188.4a8.172,8.172,0,0,0-3.022.636.841.841,0,0,1-.214-.827,5.974,5.974,0,0,1,3.172-.748S842.227,188.272,842.026,188.4Z" transform="translate(-838.744 -187.461)"/></g><g transform="translate(18.314 12.125)"><path class="aa" d="M846.525,188.359a4,4,0,0,1,2.061.6.992.992,0,0,0,.21-.729,2.926,2.926,0,0,0-2.147-.71S846.405,188.236,846.525,188.359Z" transform="translate(-846.492 -187.522)"/></g><path class="ax" d="M829.814,198.073s1.051,1.571,2.461,1.131" transform="translate(-824.65 -177.629)"/></g></g><g transform="translate(271.069 40.009)"><g transform="translate(141.847 104.762)"><circle class="ay" cx="12.546" cy="12.546" r="12.546" transform="translate(0 22.682) rotate(-64.682)"/><g transform="matrix(0.978, 0.208, -0.208, 0.978, 11.416, 7.484)"><path class="d" d="M-100.262,45.987a2.469,2.469,0,0,0-2.6-1.168,2.453,2.453,0,0,0-1.974,2.232,2.454,2.454,0,0,0-2.962-.323,2.47,2.47,0,0,0-1.134,2.612,2.461,2.461,0,0,0,1.414,1.746l4.534,2a.637.637,0,0,0,.84-.325l2.005-4.534A2.462,2.462,0,0,0-100.262,45.987Z" transform="translate(108.981 -44.771)"/></g><text class="az" transform="translate(19.581 25.455) rotate(-14)"><tspan x="-5.67" y="0">3K</tspan></text></g><g transform="translate(26.53 56.118)"><circle class="ay" cx="17.897" cy="17.897" r="17.897" transform="matrix(0.974, -0.225, 0.225, 0.974, 0, 8.057)"/><g transform="translate(11.796 10.682)"><path class="d" d="M-198.039,11.122a6.069,6.069,0,0,0-1.953-6.714,6.027,6.027,0,0,0-7.315-.131,6.027,6.027,0,0,0-4.117-6.049A6.064,6.064,0,0,0-218.11.271,6.043,6.043,0,0,0-219.118,5.7l3.479,11.665a1.564,1.564,0,0,0,1.947,1.052l11.665-3.478A6.044,6.044,0,0,0-198.039,11.122Z" transform="translate(219.371 2.079)"/></g></g><g transform="translate(105.913 37.736)"><circle class="ay" cx="17.495" cy="17.495" r="17.495" transform="translate(0 33.332) rotate(-72.288)"/><path class="d" d="M5.291,5.291A2.645,2.645,0,1,0,2.645,2.645,2.645,2.645,0,0,0,5.291,5.291Zm0,1.323C3.525,6.613,0,7.5,0,9.258v1.323H10.581V9.258C10.581,7.5,7.056,6.613,5.291,6.613Z" transform="translate(7.231 21.611) rotate(-16)"/><text class="ba" transform="translate(28.777 26.278) rotate(-14)"><tspan x="-6.93" y="0">5K</tspan></text></g><g transform="translate(76.395 82.806)"><circle class="bb" cx="11.47" cy="11.47" r="11.47" transform="translate(0 8.085) rotate(-20.638)"/><g transform="translate(8.407 4.707)"><path class="bc" d="M-164.463,33.283a5.223,5.223,0,0,1-1.68,3.211,2.692,2.692,0,0,1-2.27.712,2.724,2.724,0,0,1-1.893-1.357A4.843,4.843,0,0,1-171,33.1a5.748,5.748,0,0,1,1.091-3.338,3.864,3.864,0,0,1,1.075-1.017,2.589,2.589,0,0,1,3.67.823,4.8,4.8,0,0,1,.774,2.482A5.622,5.622,0,0,1-164.463,33.283Z" transform="translate(173.518 -18.242)"/><path class="bc" d="M-159.93,26.92a2.649,2.649,0,0,1-.647,1.423,1.208,1.208,0,0,1-1.824.035,2.518,2.518,0,0,1-.7-1.535,3.037,3.037,0,0,1,.457-2.152,1.273,1.273,0,0,1,1.527-.591,1.61,1.61,0,0,1,.846.791A3.228,3.228,0,0,1-159.93,26.92Z" transform="translate(173.619 -18.297)"/><path class="bc" d="M-173.442,24.718a3.043,3.043,0,0,1,1.184-1.992,1.244,1.244,0,0,1,2.014.6,2.993,2.993,0,0,1-.233,2.468,2.5,2.5,0,0,1-.929,1.04,1.238,1.238,0,0,1-1.9-.606A2.768,2.768,0,0,1-173.442,24.718Z" transform="translate(173.486 -18.317)"/><path class="bc" d="M-170.826,18.384a3.13,3.13,0,0,1,1.664.8.529.529,0,0,1,.053.78.526.526,0,0,1-.778-.028,1.9,1.9,0,0,0-.991-.5,1.415,1.415,0,0,0-1.18.462.582.582,0,0,1-.409.172.5.5,0,0,1-.457-.291.462.462,0,0,1,.065-.553A2.464,2.464,0,0,1-170.826,18.384Z" transform="translate(173.492 -18.37)"/><path class="bc" d="M-160.748,19.917A2.528,2.528,0,0,1-159,21.34a.5.5,0,0,1-.232.67.508.508,0,0,1-.694-.2,2.16,2.16,0,0,0-.534-.641,1.317,1.317,0,0,0-1.033-.222.523.523,0,0,1-.628-.636.476.476,0,0,1,.39-.374A2.734,2.734,0,0,1-160.748,19.917Z" transform="translate(173.632 -18.35)"/></g></g><g transform="translate(157.508 83.13)"><circle class="bb" cx="8.542" cy="8.542" r="8.542" transform="matrix(0.774, -0.633, 0.633, 0.774, 0, 10.814)"/><g transform="translate(6.729 11.559)"><path class="bc" d="M-95.061,27.325a5.469,5.469,0,0,0,6.243,4.063,5.469,5.469,0,0,0,4.5-5.932Z" transform="translate(95.061 -25.455)"/><g class="bd"><path class="ay" d="M-83.481,31.3c.429,2.467-1.552,4.874-4.425,5.374s-5.551-1.1-5.98-3.563,1.551-4.874,4.424-5.374S-83.91,28.836-83.481,31.3Z" transform="translate(95.075 -25.427)"/></g></g><g transform="translate(6.133 6.508)"><g transform="translate(7.359)"><path class="bc" d="M-85.118,23.916a.507.507,0,0,1-.22-.011l-2.678-.741a.505.505,0,0,1-.356-.372.5.5,0,0,1,.159-.49l1.949-1.709a.5.5,0,0,1,.709.047.5.5,0,0,1-.047.709l-1.25,1.095,1.782.494a.5.5,0,0,1,.349.618A.5.5,0,0,1-85.118,23.916Z" transform="translate(88.384 -20.468)"/></g><g transform="translate(0 1.62)"><path class="bc" d="M-94.919,25.617a.5.5,0,0,1-.5-.2.5.5,0,0,1,.121-.7l1.51-1.067-1.546-.609a.5.5,0,0,1-.284-.651.5.5,0,0,1,.651-.284l2.412.95a.5.5,0,0,1,.314.407.5.5,0,0,1-.209.47l-2.27,1.6A.5.5,0,0,1-94.919,25.617Z" transform="translate(95.649 -22.068)"/></g></g></g><g transform="translate(54.56 0)"><circle class="bb" cx="19.082" cy="19.082" r="19.082" transform="translate(0 35.537) rotate(-68.62)"/><g transform="translate(12.476 23.752)"><path class="bc" d="M-190.969-44.581a12.216,12.216,0,0,0,10.122,13.206,12.218,12.218,0,0,0,13.9-9.139Z" transform="translate(191.026 44.581)"/><g class="be"><ellipse class="ay" cx="10.132" cy="11.797" rx="10.132" ry="11.797" transform="translate(-3.466 23.13) rotate(-80.394)"/></g></g><g transform="translate(13.184 12.454)"><g transform="translate(17.035 3.521)"><path class="bc" d="M-167.487-44.327a1.11,1.11,0,0,1-.455-.186l-5.087-3.556a1.121,1.121,0,0,1-.472-1.048,1.12,1.12,0,0,1,.7-.913l5.377-2.147a1.121,1.121,0,0,1,1.458.625,1.123,1.123,0,0,1-.626,1.459l-3.448,1.376,3.384,2.366a1.121,1.121,0,0,1,.277,1.562A1.122,1.122,0,0,1-167.487-44.327Z" transform="translate(173.508 52.259)"/></g><path class="bc" d="M-189.391-48.026a1.123,1.123,0,0,1-.893-.8,1.123,1.123,0,0,1,.776-1.385l3.974-1.12-2.8-2.435a1.121,1.121,0,0,1-.111-1.582,1.122,1.122,0,0,1,1.583-.111l4.371,3.8a1.12,1.12,0,0,1,.36,1.092,1.122,1.122,0,0,1-.79.835l-5.974,1.684A1.111,1.111,0,0,1-189.391-48.026Z" transform="translate(190.326 55.735)"/></g></g><g transform="translate(184.492 104.32)"><path class="bf" d="M-61.827,42.692A6.661,6.661,0,0,1-69.469,48.2a6.661,6.661,0,0,1-5.507-7.642,6.661,6.661,0,0,1,7.642-5.507A6.661,6.661,0,0,1-61.827,42.692Z" transform="translate(75.063 -34.963)"/><g transform="translate(2.002 2.502)"><path class="bg" d="M-68.017,45.144a12.319,12.319,0,0,1-1.6-.311,1.709,1.709,0,0,1-.483-.258.637.637,0,0,1-.262-.664c.146-.829.278-1.658.406-2.49a1.537,1.537,0,0,1,.367-.771c.254-.3.518-.595.787-.881a2.007,2.007,0,0,0,.625-1.347c.005-.183.047-.365.07-.547.041-.333.157-.44.49-.442a.964.964,0,0,1,.966.738,2.408,2.408,0,0,1,0,1.221,6.214,6.214,0,0,1-.175.632c-.054.157-.018.218.148.241.407.057.812.127,1.218.2a3.8,3.8,0,0,1,.436.1.832.832,0,0,1,.54,1.294.323.323,0,0,0,0,.373.852.852,0,0,1-.3,1.06.216.216,0,0,0-.125.243.739.739,0,0,1-.514.819.186.186,0,0,0-.136.185.848.848,0,0,1-1.081.832C-67.069,45.3-67.492,45.229-68.017,45.144Z" transform="translate(73.122 -37.433)"/><path class="bg" d="M-70.726,42.72c-.1.6-.191,1.191-.292,1.786-.061.367-.217.478-.582.422s-.726-.113-1.088-.178a.417.417,0,0,1-.389-.539q.29-1.826.594-3.65a.42.42,0,0,1,.54-.392c.364.05.726.11,1.088.175s.476.225.418.589C-70.532,41.528-70.63,42.124-70.726,42.72Z" transform="translate(73.087 -37.398)"/></g></g><g transform="translate(134.965 82.936)"><path class="bf" d="M-107.582,19.278a8.472,8.472,0,0,1-4.857,10.952,8.472,8.472,0,0,1-10.952-4.857,8.472,8.472,0,0,1,4.857-10.953A8.473,8.473,0,0,1-107.582,19.278Z" transform="translate(123.96 -13.851)"/><g transform="translate(3.319 3.176)"><path class="bg" d="M-112.8,25.9a15.915,15.915,0,0,1-1.955.685,2.176,2.176,0,0,1-.7.026.806.806,0,0,1-.714-.562c-.373-1-.76-2-1.153-2.993a1.965,1.965,0,0,1-.092-1.084q.131-.738.3-1.472a2.558,2.558,0,0,0-.178-1.881c-.112-.2-.182-.43-.276-.645-.168-.392-.108-.583.256-.8a1.225,1.225,0,0,1,1.535.19,3.067,3.067,0,0,1,.78,1.343,8.283,8.283,0,0,1,.213.806c.042.208.12.251.316.17.484-.2.974-.383,1.465-.567a4.855,4.855,0,0,1,.541-.171,1.057,1.057,0,0,1,1.423,1.074.412.412,0,0,0,.238.41,1.084,1.084,0,0,1,.35,1.358.274.274,0,0,0,.018.346.942.942,0,0,1-.036,1.23.238.238,0,0,0-.031.291,1.079,1.079,0,0,1-.652,1.607C-111.658,25.464-112.169,25.656-112.8,25.9Z" transform="translate(120.722 -16.987)"/><path class="bg" d="M-117.308,24.967c.276.716.554,1.431.826,2.148.168.443.069.664-.37.838s-.869.341-1.308.5a.529.529,0,0,1-.773-.342q-.854-2.191-1.692-4.389a.534.534,0,0,1,.341-.777c.432-.179.868-.344,1.307-.505s.666-.06.838.378C-117.858,23.535-117.585,24.251-117.308,24.967Z" transform="translate(120.683 -16.918)"/></g></g><g transform="translate(97.427 117.455)"><path class="bf" d="M-140.8,60.28a10.219,10.219,0,0,1-12.124,7.865,10.219,10.219,0,0,1-7.865-12.123,10.219,10.219,0,0,1,12.124-7.865A10.219,10.219,0,0,1-140.8,60.28Z" transform="translate(161.02 -47.93)"/><g transform="translate(2.87 3.908)"><path class="bg" d="M-150.475,63.577a19.2,19.2,0,0,1-2.426-.6,2.622,2.622,0,0,1-.721-.433.973.973,0,0,1-.351-1.038c.285-1.258.55-2.52.808-3.784a2.372,2.372,0,0,1,.621-1.155q.618-.661,1.271-1.29a3.085,3.085,0,0,0,1.059-2.018c.021-.28.1-.555.147-.833.087-.507.275-.661.785-.639a1.478,1.478,0,0,1,1.425,1.2,3.71,3.71,0,0,1-.1,1.871,9.586,9.586,0,0,1-.317.955c-.094.236-.044.332.209.38.62.119,1.237.255,1.853.392a5.676,5.676,0,0,1,.659.183,1.275,1.275,0,0,1,.73,2.023.5.5,0,0,0-.029.571,1.307,1.307,0,0,1-.541,1.6.331.331,0,0,0-.21.364,1.136,1.136,0,0,1-.848,1.217.286.286,0,0,0-.223.272,1.3,1.3,0,0,1-1.719,1.194C-149.035,63.889-149.677,63.746-150.475,63.577Z" transform="translate(158.241 -51.789)"/><path class="bg" d="M-154.447,59.659c-.192.9-.383,1.811-.579,2.715-.122.558-.369.717-.926.6s-1.1-.227-1.652-.353a.638.638,0,0,1-.556-.855q.582-2.777,1.183-5.549a.644.644,0,0,1,.857-.56c.554.1,1.1.224,1.653.349s.713.38.6.935C-154.058,57.849-154.255,58.754-154.447,59.659Z" transform="translate(158.187 -51.739)"/></g></g><g transform="translate(76.943 76.773)"><line class="bh" y2="4.684" transform="translate(2.342)"/><line class="bh" x1="4.684" transform="translate(0 2.342)"/></g><g transform="translate(155.592 69.489)"><line class="bh" y2="4.684" transform="translate(2.342 0)"/><line class="bh" x1="4.684" transform="translate(0 2.342)"/></g><g transform="translate(205.332 100.666)"><line class="bh" y2="4.684" transform="translate(2.342)"/><line class="bh" x1="4.684" transform="translate(0 2.342)"/></g><g transform="translate(18.086 125.439)"><line class="bh" y2="4.684" transform="translate(2.342)"/><line class="bh" x1="4.684" transform="translate(0 2.342)"/></g><circle class="bh" cx="2.236" cy="2.236" r="2.236" transform="translate(110.226 25.818)"/><circle class="bh" cx="2.236" cy="2.236" r="2.236" transform="translate(9 69.584)"/><circle class="bi" cx="2.236" cy="2.236" r="2.236" transform="translate(125.28 108.708)"/></g><path class="bj" d="M38.542,23.476V51.86H28.491L47.911,77.6,67.331,51.86H57.28V23.476Z" transform="translate(124.316 178.686)"/><g transform="translate(137.115 115.723)"><g transform="translate(0)"><path class="bk" d="M65.961,5.239,6.106,65.391A17.058,17.058,0,0,1,.531,52.757V34.74L35.286-.188H53.468A17.049,17.049,0,0,1,65.961,5.239Z" transform="translate(-0.531 0.188)"/><path class="bl" d="M.531,37.986V18.193A18.38,18.38,0,0,1,18.911-.187h19.61Z" transform="translate(-0.531 0.187)"/><path class="bm" d="M106.122,137.2H86.969a17.032,17.032,0,0,1-12-4.925l59.84-60.138a17.04,17.04,0,0,1,5.068,12.147V103.28Z" transform="translate(-69.495 -66.822)"/><path class="bn" d="M546.316,561.765h-18.11L564.7,525.1v18.285A18.38,18.38,0,0,1,546.316,561.765Z" transform="translate(-494.315 -491.385)"/></g><g transform="translate(14.032 11.775)"><path class="bo" d="M266.056,254.507h-.085a2.231,2.231,0,0,1-2.219,2.074H227.118c-.06.005-.118.018-.179.018a2.058,2.058,0,0,1-1.759-1,2.2,2.2,0,0,1-.129-2.291,20.705,20.705,0,0,1,12.241-15.8,14.491,14.491,0,1,1,16.349,0,20.71,20.71,0,0,1,12.416,17Z" transform="translate(-224.79 -209.743)"/><path class="g" d="M267.295,238.036h-.018a2.292,2.292,0,0,1-2.282,2.13H227.35c-.067.006-.132.02-.2.02a2.124,2.124,0,0,1-1.96-1.306,2.275,2.275,0,0,1-.245-1.014,3.842,3.842,0,0,1,.113-1.04,21.46,21.46,0,0,1,12.736-16.268,14.9,14.9,0,1,1,16.809,0A21.215,21.215,0,0,1,267.295,238.036Zm-10.462-29.778A10.642,10.642,0,1,0,246.191,218.9a10.642,10.642,0,0,0,10.643-10.644Zm-9.728,14.868c-.3.018-.6.03-.91.03s-.608-.012-.909-.03a17.008,17.008,0,0,0-15.468,12.443h32.748A17,17,0,0,0,247.106,223.126Z" transform="translate(-224.932 -193.352)"/></g><path class="g" d="M754.661,119.348h-3.572v3.58h-3.062v-3.58h-3.572V116.28h3.572V112.7h3.062v3.58h3.572v3.069Z" transform="translate(-694.665 -104.401)"/></g><rect class="bp" width="124" height="6" rx="3" transform="translate(110.496 296.227)"/><rect class="bq" width="109" height="6" rx="3" transform="translate(110.496 296.227)"/><g transform="translate(-370.169 -37.734)"><g transform="translate(527.403 300.21)"><rect class="br" width="41.629" height="30.115" transform="translate(0 0)"/></g><g transform="translate(513.727 300.21)"><rect class="bs" width="36.29" height="30.115" transform="translate(0 0)"/></g><g transform="translate(507.286 293.768)"><path class="bs" d="M513.727,300.21l-6.442-6.442h16.326l6.064,6.442Z" transform="translate(-507.286 -293.768)"/></g><g transform="translate(550.018 293.768)"><path class="bs" d="M582.3,300.21l7.411-6.442h20.332l-8.729,6.442Z" transform="translate(-582.299 -293.768)"/></g></g></g></svg>