<svg xmlns="http://www.w3.org/2000/svg" xmlns:xlink="http://www.w3.org/1999/xlink" width="212.169" height="201" viewBox="0 0 212.169 201"><defs><style>.a,.b,.c{fill:none;}.b{stroke:#f4ebfc;}.c{stroke:#fe8673;stroke-width:2px;}.d{fill:#ffb92d;}.e{fill:#f8cdd8;}.f,.j,.n{fill:#fff;}.f{opacity:0.5;}.g{fill:#ad98ff;}.h{fill:#e9b6f3;}.i,.m{fill:#7c56ff;}.k{fill:url(#a);}.l{clip-path:url(#b);}.m{stroke:rgba(0,0,0,0);stroke-miterlimit:10;}.n{opacity:0.21;}.o{fill:#ffc3bd;}.p{fill:#9fc6ff;}.q{fill:#77b3fc;}.r{fill:#14365b;}.s{fill:#0f264c;}.t{fill:#ed847e;}.u{fill:#f29994;}.v{fill:#0a1b35;}.w{fill:#0053cc;}.x{fill:#407bff;}.y{fill:#f4ebfc;}.z{fill:url(#c);}.aa{fill:#7f56ff;}.ab{stroke:none;}</style><linearGradient id="a" x1="-0.198" y1="1" x2="1.07" gradientUnits="objectBoundingBox"><stop offset="0" stop-color="#ffa76e"/><stop offset="0.628" stop-color="#fa4282"/><stop offset="1" stop-color="#e03daa"/></linearGradient><clipPath id="b"><circle class="a" cx="18.738" cy="18.738" r="18.738"/></clipPath><linearGradient id="c" x1="0.5" x2="0.5" y2="1" gradientUnits="objectBoundingBox"><stop offset="0" stop-color="#ff8861"/><stop offset="1" stop-color="#e038eb"/></linearGradient></defs><g transform="translate(-428 -6065.344)"><g class="b" transform="translate(431 6065.344)"><circle class="ab" cx="100.5" cy="100.5" r="100.5"/><circle class="a" cx="100.5" cy="100.5" r="100"/></g><g class="c" transform="translate(485 6071.344)"><circle class="ab" cx="4" cy="4" r="4"/><circle class="a" cx="4" cy="4" r="3"/></g><circle class="d" cx="3" cy="3" r="3" transform="translate(428 6165.344)"/><g transform="translate(-27.336 5627.271)"><g transform="translate(470.367 463.842)"><g transform="translate(5.963 0.994)"><path class="e" d="M606.819,735.708s.537-22.566-9.857-28.606-30.156-9.816-30.9-42.219c-.434-18.97-.9-27.264-1.218-30.881a2.136,2.136,0,0,1,2.523-2.287c9.844,1.855,41.822,9.487,48.526,31.314C623.844,688.9,606.819,735.708,606.819,735.708Z" transform="translate(-564.839 -631.678)"/><path class="f" d="M715.209,773.58c10.805,9.637,23.3,26.693,29.96,43.748a80.194,80.194,0,0,1,4.441,19.409,89.4,89.4,0,0,1-.688,24.413.722.722,0,0,1-.844.575.732.732,0,0,1-.578-.829,98.99,98.99,0,0,0-2.292-35.65c-3.932-14.6-12.7-28.75-21.772-40.754l-.933-1.182c-7.027-9.025-8.507-9.091-7.85-9.72A.411.411,0,0,1,715.209,773.58Z" transform="translate(-705.066 -764.527)"/></g><g transform="translate(0 61.035)"><path class="g" d="M535.012,1670.332c1.406.689-13.313-17.82-17.924-46.89-2.173-13.7-2.2-30.862-10-37.476-6.494-5.5-28.594-2.029-35.826-.708a1.084,1.084,0,0,0-.5,1.9c3.468,2.912,10.886,9.782,12.819,16.7,2.548,9.125,11.223,14.929,18.99,16.5s12.087,3.095,15.871,15.516S531.017,1668.373,535.012,1670.332Z" transform="translate(-470.367 -1582.956)"/><path class="f" d="M642.563,1680.494c9.226.386,19.129,4.6,24.154,12.489l.474.753a177.021,177.021,0,0,1,10.753,24.731.248.248,0,0,1-.157.313.253.253,0,0,1-.31-.148c-2.4-5.88-5.853-13.335-8.6-18.91-2.947-6.083-5.01-10.2-11.732-14.149a37.428,37.428,0,0,0-14.609-4.683.2.2,0,0,1,.028-.4Z" transform="translate(-631.501 -1674.338)"/></g><g transform="translate(1.03 95.13)"><path class="h" d="M544,2178.862c.834.44-4.7-9.087-5.125-17.48s-2.318-22.719-9.556-31.289-15.165-9.352-25.152-1.561c-8.323,6.492-13.515,9.769-16.559,10.377a1.151,1.151,0,0,0-.772,1.678c1.953,3.6,7.474,11.857,16.744,11.275,11.825-.742,26.156-8.429,30.524-2.016s3.807,10,3.941,13.04S538.474,2175.951,544,2178.862Z" transform="translate(-486.691 -2123.147)"/><path class="f" d="M815.622,2277.6c3.623-3.473,9.522-6.886,14.679-6.25,6.709,1.081,11.178,5.561,13.615,12.229a40.686,40.686,0,0,1,1.908,7.814.221.221,0,0,1-.432.089c-.41-1.63-.816-3.337-1.424-5.1-3.536-11.391-11.084-12.925-11.378-13.158-.571.057-4.03-2.533-12.239,1.884a36.5,36.5,0,0,0-4.426,2.837l-.008.006a.229.229,0,0,1-.3-.349Z" transform="translate(-794.794 -2261.923)"/></g><rect class="i" width="108.449" height="159.685" rx="8" transform="translate(39.717 0)"/><rect class="j" width="98.449" height="141.685" rx="8" transform="translate(44.717 7)"/><rect class="k" width="94.786" height="136.629" rx="8" transform="translate(46.548 9.393)"/></g><g transform="translate(526.816 482.284)"><circle class="j" cx="21.04" cy="21.04" r="21.04" transform="translate(0 0)"/><g transform="translate(2.302 2.302)"><g class="l"><path class="m" d="M2.119,32.869c-1.714,0-2.715-2.257-1.732-3.9C2.7,25.1,7.3,19.694,15.06,19.435c8.049-.266,12.7,5.711,14.921,9.781.862,1.578-.095,3.653-1.7,3.653ZM8.787,14.017a8.211,8.211,0,1,1,5.805,2.4A8.208,8.208,0,0,1,8.787,14.017Z" transform="translate(4.225 5.741)"/></g></g></g><rect class="n" width="29.28" height="3.722" rx="1.861" transform="translate(551.954 615.098)"/><g transform="translate(526.981 547.236)"><g transform="translate(1.08)"><path class="j" d="M2.905,0H57.84a2.905,2.905,0,0,1,2.905,2.905v0A2.905,2.905,0,0,1,57.84,5.811H2.905A2.905,2.905,0,0,1,0,2.905v0A2.905,2.905,0,0,1,2.905,0Z" transform="translate(11.315 0.635)"/><circle class="j" cx="3.523" cy="3.523" r="3.523"/></g><g transform="translate(0 9.824)"><rect class="j" width="60.745" height="5.811" rx="2.905" transform="translate(12.394 1.715)"/><circle class="j" cx="3.523" cy="3.523" r="3.523" transform="translate(0 2.696) rotate(-22.5)"/></g><g transform="translate(1.08 21.807)"><path class="j" d="M2.905,0H57.84a2.905,2.905,0,0,1,2.905,2.905v0A2.905,2.905,0,0,1,57.84,5.811H2.905A2.905,2.905,0,0,1,0,2.905v0A2.905,2.905,0,0,1,2.905,0Z" transform="translate(11.315 0.635)"/><circle class="j" cx="3.523" cy="3.523" r="3.523"/></g><g transform="translate(0 31.631)"><rect class="j" width="60.745" height="5.811" rx="2.905" transform="translate(12.394 1.715)"/><circle class="j" cx="3.523" cy="3.523" r="3.523" transform="translate(0 2.696) rotate(-22.5)"/></g></g><rect class="j" width="47.822" height="5.811" rx="2.905" transform="translate(528.2 533.953)"/><rect class="j" width="25.822" height="5.811" rx="2.905" transform="translate(574.2 487.953)"/><rect class="j" width="25.822" height="5.811" rx="2.905" transform="translate(574.2 497.953)"/><rect class="j" width="25.822" height="5.811" rx="2.905" transform="translate(574.2 507.953)"/></g><g transform="translate(-21.473 5957.531)"><g transform="translate(642.836 189.772)"><path class="o" d="M686.608,271.87l-3.742,1.239,3.38,3.629s2.952-1.762,2.193-3.43Z" transform="translate(-680.303 -239.967)"/><path class="o" d="M678.056,277.536l2.932,2.824L684,277.824l-3.381-3.629Z" transform="translate(-678.056 -241.053)"/><path class="o" d="M695.27,216.286c.378.7.694,1.32,1,1.988s.611,1.318.9,1.983c.573,1.334,1.1,2.691,1.574,4.077s.887,2.8,1.238,4.253l.25,1.095.2,1.118c.072.369.117.754.167,1.135l.074.572.018.143.023.238a5.079,5.079,0,0,1,.017.508,7.973,7.973,0,0,1-.691,2.945,17.8,17.8,0,0,1-1.106,2.16,33.741,33.741,0,0,1-2.574,3.652,55.049,55.049,0,0,1-5.914,6.271l-2.17-1.947c1.551-2.24,3.09-4.554,4.475-6.845a37.284,37.284,0,0,0,1.859-3.441,12.7,12.7,0,0,0,.646-1.637,3.187,3.187,0,0,0,.19-1.123c-.005-.009-.005-.023-.011-.014,0-.011,0,.031-.008-.022l-.025-.116-.1-.46c-.067-.306-.125-.611-.214-.921l-.243-.926-.275-.931c-.388-1.241-.82-2.482-1.3-3.719s-1-2.468-1.539-3.691c-.523-1.216-1.129-2.465-1.672-3.592Z" transform="translate(-682.835 -214.004)"/><path class="p" d="M701.78,223.608l-7.253,3.831-1.748.927s-.41-1.2-.991-2.942c-.469-1.391-1.055-3.123-1.631-4.876-.181-.554-.362-1.1-.538-1.647-.053-.155-.107-.3-.155-.458-1.567-4.8,2.782-6.954,5.739-6.336C700.271,213.168,701.78,223.608,701.78,223.608Z" transform="translate(-683.23 -212.004)"/><path class="q" d="M694.952,232.8l-1.748.927s-.41-1.2-.991-2.942c-.469-1.391-1.055-3.123-1.631-4.876-.181-.554-.362-1.1-.538-1.647l4-.783S694.59,229.82,694.952,232.8Z" transform="translate(-683.656 -217.363)"/></g><path class="o" d="M681.075,191.587c-.835,2.772-1.9,7.9-.112,9.978,0,0-1.057,2.791-6.31,2.269-5.775-.574-2.475-3.141-2.475-3.141,3.227-.44,3.378-2.786,3.047-5.037Z" transform="translate(-32.036 -12.695)"/><path class="r" d="M670.792,207.93a6.686,6.686,0,0,0-.114-2.426s8.24-1.109,11.188-.059c1.585.565.194,3.414.194,3.414Z" transform="translate(-31.774 -18.957)"/><path class="s" d="M670.562,183.19c-.031.312-.221.548-.425.528s-.344-.289-.313-.6.221-.548.425-.528S670.593,182.878,670.562,183.19Z" transform="translate(-31.373 -8.492)"/><path class="t" d="M669.659,184.009a11.213,11.213,0,0,1-1.753,2.517,1.8,1.8,0,0,0,1.461.427Z" transform="translate(-30.479 -9.156)"/><path class="s" d="M672.182,180.747a.184.184,0,0,1-.157-.088,1.461,1.461,0,0,0-1.111-.727.185.185,0,0,1-.179-.19.174.174,0,0,1,.189-.179,1.826,1.826,0,0,1,1.415.9.184.184,0,0,1-.157.28Z" transform="translate(-31.8 -7.079)"/><path class="o" d="M636.006,407.923l-3.872-.288-.363-9.043,3.872.288Z" transform="translate(-13.6 -109.387)"/><path class="o" d="M680.1,414.693h-3.883L673.2,405.7h3.883Z" transform="translate(-32.95 -112.708)"/><path class="r" d="M672.6,421.73h4.734a.338.338,0,0,1,.33.265l.767,3.451a.571.571,0,0,1-.569.691c-1.523-.026-2.634-.116-4.553-.116-1.18,0-3.611.123-5.242.123-1.594,0-1.842-1.611-1.175-1.757a9.613,9.613,0,0,0,5.076-2.418A.944.944,0,0,1,672.6,421.73Z" transform="translate(-29.843 -120.195)"/><path class="r" d="M624.1,413.928l4.228.314a.339.339,0,0,1,.31.289l.509,3.5a.564.564,0,0,1-.608.647c-1.524-.139-3.721-.393-5.638-.535-2.242-.167-3.733-.246-6.362-.441-1.59-.118-1.912-1.758-1.235-1.854,3.078-.438,5.1-.267,7.841-1.687A1.8,1.8,0,0,1,624.1,413.928Z" transform="translate(-5.754 -116.549)"/><g transform="translate(618.171 289.207)"><path class="u" d="M631.772,398.6l.187,4.661,3.874.288-.187-4.661Z" transform="translate(-631.772 -398.596)"/><path class="u" d="M677.081,405.706H673.2l1.561,4.635h3.884Z" transform="translate(-651.121 -401.917)"/></g><path class="p" d="M676.753,244.51c-3.037-.224-14.468-1.076-20.709-1.54a94.106,94.106,0,0,1-.682-15.71c.085-1.886.234-3.623.416-5.212.959-8.308,2.984-12.529,2.984-12.529a38.991,38.991,0,0,1,6.032-.634,76.533,76.533,0,0,1,8.8.655,46.96,46.96,0,0,1,6.272,1.236C675.687,225.528,677.131,241.34,676.753,244.51Z" transform="translate(-24.582 -20.774)"/><path class="q" d="M657.933,235.181l-2.5,3.618c.085-1.886.234-3.623.416-5.212Z" transform="translate(-24.654 -32.314)"/><path class="o" d="M635.714,215.106c-.35.606-.767,1.293-1.159,1.943s-.814,1.309-1.236,1.954c-.839,1.292-1.708,2.561-2.606,3.789s-1.841,2.41-2.823,3.51a24.642,24.642,0,0,1-2.763,2.667,15.271,15.271,0,0,1-2.5.359,14.749,14.749,0,0,1-3.2-.19,15.789,15.789,0,0,1-3.18-.885,16.355,16.355,0,0,1-1.544-.684c-.252-.127-.5-.264-.739-.4s-.5-.3-.67-.4l-2.032,2.091c.292.329.506.555.768.809s.516.473.784.694a16.632,16.632,0,0,0,1.682,1.24,17,17,0,0,0,8.045,2.658,18.254,18.254,0,0,0,4.338-.247l.443-.08.5-.333a25.765,25.765,0,0,0,4.126-3.427,42.686,42.686,0,0,0,3.386-3.842c1.051-1.321,2.018-2.688,2.938-4.079q.683-1.049,1.333-2.118c.442-.722.841-1.416,1.267-2.215Z" transform="translate(-4.025 -23.681)"/><path class="p" d="M657.559,214.505c-.277,3.7-4.659,10.909-4.659,10.909l-9.915-5.212a45.673,45.673,0,0,1,7.027-8.612C653.721,208.34,657.864,210.442,657.559,214.505Z" transform="translate(-18.839 -21.295)"/><path class="o" d="M613.855,237.183l-2.9-2.535-2.237,3.8s2.062,2.314,4.486.858Z" transform="translate(-2.834 -32.81)"/><path class="o" d="M681.214,178.267c-.615,3.8-.782,6.062-2.91,7.834-3.2,2.666-7.752.444-8.285-3.468-.48-3.52.606-9.15,4.5-10.3A5.255,5.255,0,0,1,681.214,178.267Z" transform="translate(-31.416 -3.595)"/><path class="s" d="M686.748,172.668c2.842,1.993-3.932,9.306-6.339,9.225s-6.911-6.76-5.443-10.31c-1.243-.506-1.643-.669-2.146-1.934-.913-2.3.19-6.131,5.817-5.055-1.4.949-.43,1.7,2.221,1.332-1.036,1.244.68,2.161,3.257,1.629C683.669,169.834,689.413,170.16,686.748,172.668Z" transform="translate(-32.641 0)"/><path class="o" d="M677.944,184.076a3.663,3.663,0,0,1-1.526,2.345c-1.065.718-2-.136-2.044-1.352-.038-1.095.47-2.788,1.7-3.02A1.645,1.645,0,0,1,677.944,184.076Z" transform="translate(-33.5 -8.226)"/><path class="r" d="M672.048,347.862h-7.114s-6.933-23.828-8.672-36.168a37.494,37.494,0,0,1,.4-10,154.774,154.774,0,0,1,4.489-19.473c1.429-4.918,2.605-8.352,2.605-8.352l13.369,1c-.725,9.7-10.327,25.637-9.659,38.8C668.08,325.8,672.048,347.862,672.048,347.862Z" transform="translate(-24.953 -51.131)"/><path class="v" d="M665.209,292.338c-.076,6.459-4.614,13.595-8.028,16.667a154.765,154.765,0,0,1,4.489-19.473C662.667,289.333,664.378,291.224,665.209,292.338Z" transform="translate(-25.47 -58.439)"/><path class="r" d="M641.566,272.849s-16.775,25.378-17.231,37.218c-.475,12.314,2.741,33.451,2.741,33.451l6.56.488s.764-20.1,1.953-32.142c1.3-13.126,20.24-27.755,20.994-37.9Z" transform="translate(-10.105 -50.653)"/><path class="w" d="M669.378,410.672h9.3v-2.5l-10.392-.163Z" transform="translate(-30.655 -113.785)"/><path class="w" d="M626.271,403.126l9.109.7.188-2.524-10.191-.913Z" transform="translate(-10.613 -110.226)"/><path class="x" d="M674.669,422.142a1.178,1.178,0,0,1-.748-.2.553.553,0,0,1-.19-.486.291.291,0,0,1,.157-.26c.433-.218,1.682.549,1.824.637a.092.092,0,0,1-.027.167A4.57,4.57,0,0,1,674.669,422.142Zm-.577-.8a.259.259,0,0,0-.119.023.113.113,0,0,0-.059.108.376.376,0,0,0,.125.334,1.867,1.867,0,0,0,1.379.07A3.726,3.726,0,0,0,674.092,421.338Z" transform="translate(-33.199 -119.928)"/><path class="x" d="M676.353,421.205a.092.092,0,0,1-.044-.011c-.4-.218-1.178-1.069-1.1-1.5a.3.3,0,0,1,.293-.241.493.493,0,0,1,.392.118c.451.369.544,1.49.547,1.537a.09.09,0,0,1-.042.084A.091.091,0,0,1,676.353,421.205Zm-.783-1.574-.042,0c-.12.015-.13.07-.135.093-.048.255.447.9.846,1.2a2.213,2.213,0,0,0-.459-1.217A.326.326,0,0,0,675.57,419.631Z" transform="translate(-33.889 -119.128)"/><path class="x" d="M628.385,414.081a1.873,1.873,0,0,1-1.257-.319.516.516,0,0,1-.139-.459.293.293,0,0,1,.17-.233c.492-.224,1.988.678,2.157.781a.092.092,0,0,1-.037.17A7.516,7.516,0,0,1,628.385,414.081Zm-1.021-.867a.307.307,0,0,0-.127.023.109.109,0,0,0-.065.093.337.337,0,0,0,.089.3,2.491,2.491,0,0,0,1.722.235A4.675,4.675,0,0,0,627.363,413.214Z" transform="translate(-11.363 -116.133)"/><path class="x" d="M630.163,413.288a.084.084,0,0,1-.044-.012c-.452-.244-1.315-1.15-1.212-1.582.025-.1.107-.224.361-.232a.7.7,0,0,1,.5.2,2.628,2.628,0,0,1,.49,1.536.091.091,0,0,1-.044.081A.09.09,0,0,1,630.163,413.288Zm-.875-1.642h-.015c-.167,0-.182.069-.187.09-.062.259.518.964.974,1.286a2.156,2.156,0,0,0-.423-1.232A.486.486,0,0,0,629.288,411.646Z" transform="translate(-12.259 -115.398)"/><path class="o" d="M608.139,203.2a2.22,2.22,0,0,0-1.1-.366c-.568,0-.984.532-1.271.894a3.2,3.2,0,0,0-.664,2.006,2.323,2.323,0,0,0,.856,1.282,28.837,28.837,0,0,0,3.1-.281l-.627-2.489Z" transform="translate(0 -1.33)"/></g><g transform="translate(575.376 6070.271)"><g transform="translate(0 2.747)"><path class="y" d="M2203.709,857.571a.231.231,0,0,1-.149-.2c-.022-.3-.039-.608-.049-.911a.223.223,0,0,1,.222-.229c.307-.007.224.3.285,1.115a.223.223,0,0,1-.212.238A.236.236,0,0,1,2203.709,857.571Z" transform="translate(-2203.511 -833.655)"/><path class="y" d="M2204.945,518.492c.056-.577.137-1.159.239-1.73a.226.226,0,0,1,.266-.179c.34.066.118.258-.048,1.959a.225.225,0,0,1-.251.2A.231.231,0,0,1,2204.945,518.492Zm.916-4.482c.175-.556.375-1.115.59-1.642a.23.23,0,0,1,.427.172c-.213.526-.406,1.065-.578,1.609a.23.23,0,0,1-.439-.14Zm1.819-4.194c.285-.5.594-1,.919-1.484a.23.23,0,0,1,.384.254c-.318.471-.621.96-.9,1.454A.23.23,0,0,1,2207.68,509.816Zm2.684-3.41a.224.224,0,0,1-.025-.319c.385-.435.793-.86,1.212-1.264.216-.207.54.118.324.325-.411.4-.811.812-1.188,1.238A.231.231,0,0,1,2210.365,506.407Zm3.321-3.106a.222.222,0,0,1,.042-.316c.469-.347.957-.681,1.451-.991a.229.229,0,0,1,.251.382c-.485.3-.963.63-1.422.971A.234.234,0,0,1,2213.686,503.3Zm4.03-2.253a.232.232,0,0,1-.127-.115.222.222,0,0,1,.106-.3c.532-.246,1.08-.474,1.63-.678a.234.234,0,0,1,.3.132.222.222,0,0,1-.13.291c-.538.2-1.075.423-1.6.665A.233.233,0,0,1,2217.715,501.047Zm4.336-1.491a.232.232,0,0,1-.144-.159.222.222,0,0,1,.167-.272c.572-.134,1.158-.247,1.74-.336a.233.233,0,0,1,.265.188.222.222,0,0,1-.187.258c-.571.088-1.144.2-1.7.33A.233.233,0,0,1,2222.052,499.556Zm4.417-.792a.224.224,0,0,1,.22-.232c.589-.016,1.188-.008,1.779.022a.226.226,0,1,1-.017.451c-.579-.029-1.166-.037-1.743-.022A.232.232,0,0,1,2226.469,498.764Zm14.716,4.905c-1.376-1.051-1.685-1.034-1.5-1.319a.23.23,0,0,1,.317-.063c.5.322.987.667,1.457,1.026A.226.226,0,1,1,2241.185,503.669Zm-10.105-4.6a.225.225,0,0,1,.264-.182c.582.1,1.169.231,1.742.378a.225.225,0,1,1-.11.437c-.562-.145-1.137-.269-1.708-.371A.23.23,0,0,1,2231.08,499.064Zm6.2,2.207c-1.557-.753-1.86-.675-1.735-.994a.234.234,0,0,1,.3-.125c.553.217,1.1.458,1.635.715a.227.227,0,0,1,.109.3A.229.229,0,0,1,2237.283,501.271Z" transform="translate(-2204.853 -498.524)"/><path class="y" d="M2812.759,604.553c-.527-.563-.855-.754-.635-.969a.233.233,0,0,1,.325,0c.569.561.854.784.635.982A.262.262,0,0,1,2812.759,604.553Z" transform="translate(-2773.645 -596.892)"/><g transform="translate(5.38 22.78)"><path class="y" d="M2918.333,860.777a.231.231,0,0,1-.15-.226c.017-.3.027-.6.03-.893a.224.224,0,0,1,.233-.219.232.232,0,0,1,.227.232c0,.3-.014.608-.03.911a.225.225,0,0,1-.242.21A.229.229,0,0,1,2918.333,860.777Z" transform="translate(-2878.455 -859.439)"/><path class="y" d="M2340.089,937.66c-.591-.242-1.178-.511-1.747-.8a.226.226,0,0,1-.1-.3c.161-.311.291-.019,2.02.688a.227.227,0,0,1,.127.3A.234.234,0,0,1,2340.089,937.66Zm2.793.712c.087-.339.288-.08,2.116.243a.229.229,0,0,1,.189.262.225.225,0,0,1-.264.182c-.625-.111-1.257-.249-1.875-.411A.229.229,0,0,1,2342.882,938.372Zm-7.219-3.11c-.523-.362-1.038-.751-1.531-1.156a.224.224,0,0,1-.031-.318c.227-.268.288.044,1.823,1.106a.225.225,0,0,1,.059.315A.231.231,0,0,1,2335.663,935.262Zm12.284,4.119a.23.23,0,0,1-.15-.22.224.224,0,0,1,.236-.216c.624.025,1.255.025,1.876,0a.232.232,0,0,1,.243.216.223.223,0,0,1-.216.235c-.634.027-1.278.028-1.915,0A.23.23,0,0,1,2347.947,939.38Zm4.949-.34a.233.233,0,0,1-.146-.17.223.223,0,0,1,.181-.263c.611-.11,1.224-.247,1.824-.407a.234.234,0,0,1,.284.159.222.222,0,0,1-.157.277c-.612.164-1.238.3-1.862.416A.234.234,0,0,1,2352.9,939.04Zm4.737-1.4a.233.233,0,0,1-.131-.123.222.222,0,0,1,.118-.3c.57-.239,1.136-.505,1.684-.79a.234.234,0,0,1,.312.095.221.221,0,0,1-.092.3c-.559.291-1.137.563-1.718.807A.233.233,0,0,1,2357.633,937.639Zm4.3-2.387a.233.233,0,0,1-.105-.079.223.223,0,0,1,.049-.315c.5-.356.994-.738,1.463-1.135a.233.233,0,0,1,.324.026.222.222,0,0,1-.021.318c-.478.4-.981.795-1.493,1.158A.232.232,0,0,1,2361.931,935.252Zm3.582-3.3c-.27-.234.048-.281,1.146-1.745a.23.23,0,0,1,.371.272c-.375.5-.776.99-1.194,1.456A.232.232,0,0,1,2365.513,931.95Zm2.864-3.953c-.315-.17-.018-.283.723-1.956a.23.23,0,0,1,.421.185c-.253.571-.533,1.137-.833,1.683A.23.23,0,0,1,2368.377,928Zm1.881-4.491a.228.228,0,0,1-.141-.275c.169-.59.314-1.193.431-1.79a.225.225,0,0,1,.269-.175.23.23,0,0,1,.182.267c-.12.609-.267,1.224-.44,1.826a.227.227,0,0,1-.283.152Z" transform="translate(-2331.189 -917.359)"/><path class="y" d="M2289.412,1074.931c-.543-.587-.817-.822-.589-1.01s.371.108.927.708a.223.223,0,0,1-.013.319A.233.233,0,0,1,2289.412,1074.931Z" transform="translate(-2288.743 -1060.329)"/></g><g transform="translate(5.707 5.455)"><path class="z" d="M2296.786,611.169l3.264-.4a14.617,14.617,0,0,0,3.541,3.021c.127,3.148-.087,3.378.25,3.49l3.762,1.253a.271.271,0,0,0,.3-.089l1.981-2.558a14.557,14.557,0,0,0,4.638-.3l2.375,2.283a.276.276,0,0,0,.311.05l3.522-1.716a.26.26,0,0,0,.145-.272l-.461-3.216a13.866,13.866,0,0,0,3.019-3.435l3.294-.012a.266.266,0,0,0,.253-.18l1.218-3.68a.266.266,0,0,0-.095-.3l-2.632-1.987a13.931,13.931,0,0,0-.371-4.564c2.185-2.294,2.493-2.3,2.333-2.605-1.825-3.39-1.721-3.679-2.078-3.635l-3.265.4a14.6,14.6,0,0,0-3.54-3.021c-.127-3.146.087-3.378-.25-3.49-3.759-1.181-3.85-1.44-4.062-1.165l-1.982,2.558a14.557,14.557,0,0,0-4.638.3c-2.338-2.157-2.368-2.488-2.686-2.333-3.455,1.759-3.717,1.641-3.667,1.988l.46,3.216a13.887,13.887,0,0,0-3.019,3.435c-3.145.076-3.436-.143-3.547.193-1.14,3.662-1.409,3.761-1.124,3.976l2.632,1.987a13.95,13.95,0,0,0,.372,4.564c-2.178,2.286-2.493,2.294-2.333,2.605C2296.532,610.924,2296.428,611.213,2296.786,611.169Z" transform="translate(-2293.932 -584.95)"/><path class="j" d="M2504.383,794.474a3.77,3.77,0,0,1,4.1-3.471,3.887,3.887,0,0,1,3.594,4.085,3.771,3.771,0,0,1-4.1,3.471h0A3.886,3.886,0,0,1,2504.383,794.474Zm3.616,3.747h0Zm.44-6.543a3.093,3.093,0,0,0-3.369,2.851,3.191,3.191,0,0,0,2.951,3.355,3.1,3.1,0,0,0,3.369-2.851A3.192,3.192,0,0,0,2508.439,791.678Z" transform="translate(-2491.092 -777.985)"/><path class="j" d="M2416.395,715.471h0a10.186,10.186,0,0,1-1.541-.734.341.341,0,0,1-.151-.412.373.373,0,0,1,.025-.053.346.346,0,0,1,.471-.116,9.535,9.535,0,0,0,1.79.81h0a9.122,9.122,0,0,0,11.461-5.295q.065-.172.123-.349a9.226,9.226,0,0,0-17.5-5.83,10.241,10.241,0,0,0-.227,5,.347.347,0,0,1-.659-.051,9.524,9.524,0,0,1,.363-5.543c2.974-7.871,14.175-8.351,18.079-.781a9.535,9.535,0,0,1,.6,7.423q-.063.191-.133.378a9.5,9.5,0,0,1-4.775,5.21,9.947,9.947,0,0,1-7.543.479C2416.648,715.565,2416.521,715.519,2416.395,715.471Z" transform="translate(-2402.612 -689.655)"/></g></g><g transform="translate(40.716 0)"><path class="aa" d="M2890.245,507.834a8,8,0,0,0,2.089,1.537l.166,1.829c.019.2.187.112,2.255.66.191.047.158-.126,1.159-1.608a8.012,8.012,0,0,0,2.564-.392l1.412,1.177c.157.13.211-.053,2.061-1.128a.152.152,0,0,0,.07-.161l-.387-1.8a8,8,0,0,0,1.537-2.089c1.744-.2,1.914-.086,1.962-.281.484-2.129.629-2.2.462-2.3l-1.542-1a8.009,8.009,0,0,0-.392-2.564l1.177-1.412c.13-.157-.053-.211-1.128-2.061-.1-.168-.193-.024-1.958.317a8,8,0,0,0-2.089-1.537l-.167-1.829c-.018-.2-.187-.112-2.255-.66-.19-.047-.153.119-1.159,1.608a8,8,0,0,0-2.564.392l-1.412-1.176a.151.151,0,0,0-.175-.013l-1.886,1.141a.15.15,0,0,0-.069.161l.386,1.8a8.009,8.009,0,0,0-1.537,2.089c-1.745.2-1.914.086-1.962.281-.484,2.128-.629,2.2-.462,2.3l1.543,1a8.009,8.009,0,0,0,.392,2.564c-1.1,1.372-1.293,1.415-1.19,1.587l1.141,1.886C2888.39,508.32,2888.49,508.174,2890.245,507.834Z" transform="translate(-2883.953 -490.16)"/><path class="j" d="M3003,611.588a2.3,2.3,0,1,1,2.314,2.286h0A2.3,2.3,0,0,1,3003,611.588Zm2.312,1.944h0Zm-1.626-1.948a1.617,1.617,0,0,0,1.624,1.605h0a1.615,1.615,0,1,0-1.624-1.605Z" transform="translate(-2993.255 -599.537)"/><path class="y" d="M2856.323,695.494c-.109-.289-.208-.586-.294-.884a.228.228,0,0,1,.156-.283c.3-.089.285.26.566,1.006a.229.229,0,0,1-.428.161Z" transform="translate(-2855.552 -679.209)"/><path class="y" d="M2848.616,467.383a12.2,12.2,0,0,1,.092-1.88.229.229,0,0,1,.453.058c-.21,1.655.072,2.034-.31,2.045A.229.229,0,0,1,2848.616,467.383Zm.986-4.54a.229.229,0,0,1-.126-.3,12.067,12.067,0,0,1,.837-1.687.229.229,0,0,1,.392.235,11.562,11.562,0,0,0-.805,1.622A.233.233,0,0,1,2849.6,462.843Zm2.677-4.009a.226.226,0,0,1-.082-.053.228.228,0,0,1,0-.323,12.117,12.117,0,0,1,1.439-1.213.229.229,0,0,1,.267.371,11.669,11.669,0,0,0-1.385,1.168A.229.229,0,0,1,2852.28,458.834Zm4.047-2.615a.228.228,0,0,1,0-.427,11.987,11.987,0,0,1,1.8-.537.229.229,0,1,1,.095.447,11.509,11.509,0,0,0-1.735.516A.227.227,0,0,1,2856.327,456.219Zm4.608-1a.229.229,0,0,1,.238-.219,12.1,12.1,0,0,1,1.87.225.229.229,0,0,1-.09.448,11.632,11.632,0,0,0-1.8-.217A.229.229,0,0,1,2860.935,455.219Z" transform="translate(-2848.612 -455)"/><path class="y" d="M3118.848,474.646c-.722-.426-1.029-.453-.894-.73a.226.226,0,0,1,.306-.1c.276.135.552.284.82.441a.228.228,0,1,1-.232.394Z" transform="translate(-3100.925 -472.601)"/><g transform="translate(5.359 8.587)"><path class="y" d="M3216.394,592.22c-.166-.825-.349-1.07-.052-1.153a.229.229,0,0,1,.282.158c.084.3.157.6.218.906a.229.229,0,0,1-.448.09Z" transform="translate(-3198.344 -591.058)"/><path class="y" d="M2989.543,662.736c.094-.368.39-.017,2.033.139a.229.229,0,0,1-.043.455,12.045,12.045,0,0,1-1.825-.317A.228.228,0,0,1,2989.543,662.736Zm4.731.317a.228.228,0,0,1,.191-.26c1.646-.253,1.905-.62,2.021-.257a.229.229,0,0,1-.149.287,11.976,11.976,0,0,1-1.8.422A.228.228,0,0,1,2994.274,663.053Zm4.474-1.564c-.2-.323.253-.29,1.506-1.372a.229.229,0,0,1,.3.346,12.182,12.182,0,0,1-1.49,1.1A.228.228,0,0,1,2998.749,661.489Zm3.5-3.2c-.312-.219.12-.367.849-1.852a.229.229,0,0,1,.411.2,12.1,12.1,0,0,1-.941,1.595A.229.229,0,0,1,3002.248,658.29Zm1.787-4.586c.338-1.629.085-2,.466-1.984a.228.228,0,0,1,.217.24,12.11,12.11,0,0,1-.235,1.837.229.229,0,0,1-.448-.093Z" transform="translate(-2986 -647.891)"/><path class="y" d="M2934.427,799.766c-.271-.149-.54-.31-.8-.479a.229.229,0,0,1-.066-.316c.174-.266.385.011,1.084.395a.229.229,0,1,1-.22.4Z" transform="translate(-2933.524 -785.75)"/></g><path class="j" d="M2953.516,566.32a.343.343,0,1,1,.289-.622,4.977,4.977,0,1,0-2.469-6.233c-.883,2.338.38,3.432-.33,3.65a.343.343,0,0,1-.428-.227,5.663,5.663,0,1,1,4.06,3.836h0A5.725,5.725,0,0,1,2953.516,566.32Z" transform="translate(-2943.908 -549.216)"/></g></g></g></svg>