<svg xmlns="http://www.w3.org/2000/svg" xmlns:xlink="http://www.w3.org/1999/xlink" width="228.106" height="224" viewBox="0 0 228.106 224"><defs><style>.a,.d,.e,.t{fill:none;}.a{stroke:#f4ebfc;}.b{fill:#7c56ff;opacity:0.13;}.c{fill:#fff;}.d{stroke:#66f;stroke-width:3px;}.e{stroke:#fe8673;stroke-width:2px;}.f{fill:#66f;}.g{fill:#ffb92d;}.h{stroke:rgba(0,0,0,0);fill:url(#a);}.i{fill:#fccdcd;}.j{fill:url(#b);}.k{fill:url(#d);}.l{fill:#ffe1df;}.m{fill:url(#f);}.n{fill:url(#h);}.o{fill:#ffd9b6;}.p{fill:url(#j);}.q{fill:url(#k);}.r{fill:url(#m);}.s{stroke:none;}</style><linearGradient id="a" x1="0.5" x2="0.5" y2="1" gradientUnits="objectBoundingBox"><stop offset="0" stop-color="#ff8173"/><stop offset="1" stop-color="#d530e1"/></linearGradient><linearGradient id="b" y1="0.5" x2="1" y2="0.5" gradientUnits="objectBoundingBox"><stop offset="0" stop-color="#030840"/><stop offset="0.259" stop-color="#040a43"/><stop offset="0.48" stop-color="#0a114d"/><stop offset="0.688" stop-color="#141e5f"/><stop offset="0.887" stop-color="#223078"/><stop offset="1" stop-color="#2c3d8a"/></linearGradient><linearGradient id="d" x1="1" y1="0.5" x2="0" y2="0.5" xlink:href="#b"/><linearGradient id="f" x1="1.01" y1="0.146" x2="0.013" y2="0.851" xlink:href="#b"/><linearGradient id="h" y1="0.5" x2="1" y2="0.5" gradientUnits="objectBoundingBox"><stop offset="0" stop-color="#fe9d67"/><stop offset="0.997" stop-color="#e749a0"/></linearGradient><linearGradient id="j" y1="0.5" x2="1" y2="0.5" gradientUnits="objectBoundingBox"><stop offset="0" stop-color="#030840"/><stop offset="0.459" stop-color="#040941"/><stop offset="0.635" stop-color="#070e48"/><stop offset="0.763" stop-color="#0e1654"/><stop offset="0.868" stop-color="#182366"/><stop offset="0.957" stop-color="#24337c"/><stop offset="1" stop-color="#2c3d8a"/></linearGradient><linearGradient id="k" x1="0" y1="0.5" x2="1" y2="0.5" xlink:href="#j"/><linearGradient id="m" x1="-1.302" y1="0.5" x2="2.302" y2="0.5" xlink:href="#b"/></defs><g transform="translate(-427.339 -6064.859)"><g class="a" transform="translate(432.446 6064.859)"><ellipse class="s" cx="111.5" cy="112" rx="111.5" ry="112"/><ellipse class="t" cx="111.5" cy="112" rx="111" ry="111.5"/></g><circle class="b" cx="98" cy="98" r="98" transform="translate(445.446 6078.859)"/><ellipse class="c" cx="76" cy="76.5" rx="76" ry="76.5" transform="translate(467.446 6099.859)"/><g class="d" transform="translate(427.446 6164.859)"><circle class="s" cx="6" cy="6" r="6"/><circle class="t" cx="6" cy="6" r="4.5"/></g><g class="e" transform="translate(492.446 6072.859)"><circle class="s" cx="3.5" cy="3.5" r="3.5"/><circle class="t" cx="3.5" cy="3.5" r="2.5"/></g><ellipse class="f" cx="5" cy="5.5" rx="5" ry="5.5" transform="translate(636.446 6088.859)"/><ellipse class="g" cx="3" cy="3.5" rx="3" ry="3.5" transform="translate(606.446 6264.859)"/><g transform="translate(427.34 6092.361)"><g transform="translate(24.838 0)"><g transform="translate(4.195)"><path class="c" d="M788.9,436.718h29.751l-7.222,36.7h32.64v29.31H805.945l-7.51,36.206H834.83V568.49H792.947l-8.088,40.886H755.109L763.2,568.49H721.891L713.8,609.377H684.053l8.376-40.886H660.945V538.934h36.972l7.221-36.206h-34.95v-29.31h40.727l7.221-36.7H747.6l-7.221,36.7h41.305Zm-12.709,66.01H734.89l-7.221,36.206h41.3Z" transform="translate(-660.945 -436.718)"/></g><g transform="translate(0)"><path class="h" d="M781.634,436.718h29.751l-7.221,36.7H836.8v29.31H798.676l-7.51,36.206h36.4V568.49H785.677l-8.088,40.886H747.839l8.088-40.886H714.621l-8.087,40.886H676.783l8.376-40.886H653.675V538.934h36.973l7.221-36.206h-34.95v-29.31h40.727l7.221-36.7h29.462l-7.221,36.7h41.305Zm-12.709,66.01H727.619l-7.22,36.206h41.3Z" transform="translate(-653.675 -436.718)"/></g></g><g transform="translate(0 49.698)"><g transform="translate(0 15.984)"><g transform="translate(14.449 7.122)"><g transform="translate(0 23.695)"><path class="i" d="M677.2,503.28c.343-.77-.178-2.03-.359-2.807-.164-.7-.759-1.332-.559-1.725a17.356,17.356,0,0,1,2.3-2.921l-3.464-2.018a15.227,15.227,0,0,1-3.014,3.995c-1.532,1.182-5.99,4.059-5.991,4.059-.966.624-2.659.248-3.393,1.33a2.162,2.162,0,0,0-.217.465l-.184.5a1.3,1.3,0,0,0-.121.721c.14.634,2.661.476,3.232.542a17.224,17.224,0,0,0,5.788-.662l2.3-.44a19.415,19.415,0,0,0,3.45-.733A.908.908,0,0,0,677.2,503.28Z" transform="translate(-662.187 -493.809)"/></g><g transform="translate(0 27.891)"><path class="j" d="M676.283,501.823c.031-.06.065-.122.1-.185a5.463,5.463,0,0,1-4.543-.558c-1.723,1.277-5.724,3.858-5.724,3.858-.966.624-2.659.247-3.393,1.33a2.161,2.161,0,0,0-.217.465l-.184.5a1.3,1.3,0,0,0-.121.721c.139.634,2.661.475,3.232.542a17.222,17.222,0,0,0,5.788-.662l2.3-.44a19.4,19.4,0,0,0,3.451-.733.909.909,0,0,0,.228-.3c.343-.77-.178-2.031-.359-2.807C676.678,502.845,676.082,502.216,676.283,501.823Z" transform="translate(-662.187 -501.08)"/></g><path class="j" d="M708.429,452.743a59.873,59.873,0,0,1,10.221,9.888c1.536,1.77,3.62,3.606,5.026,5.486,2.663,3.558,3.942,8.99-.836,11.528a5.262,5.262,0,0,1-1.947.589c-8.016.8-11.7-9.71-14.095-15.362-1.041-2.455-2.034-4.937-2.919-7.453A5.117,5.117,0,0,1,708.429,452.743Z" transform="translate(-679.823 -452.743)"/><path class="k" d="M698.223,454.038s-.852-.606-2.3,1.766S683.4,477.822,683.4,477.822l3.1,2.489s11.913-11.812,14.554-21.552C701.051,458.759,702.4,454.54,698.223,454.038Z" transform="translate(-671.161 -453.262)"/></g><g transform="translate(0 20.888)"><g transform="translate(0 10.438)"><g transform="translate(0 15.508)"><path class="l" d="M651.688,531.29c.591-.568.552-1.968.658-2.77.1-.727-.236-1.569.089-1.848a15.612,15.612,0,0,1,3.172-1.725L653.1,521.57a13.672,13.672,0,0,1-4.212,2.417c-1.841.439-7,1.189-7,1.189-.842.118-1.631-.508-2.55-.3a3.151,3.151,0,0,0-2.194,1.732c2.528,1.92,5.45,2.7,8.469,3.469l2.291.585a19.556,19.556,0,0,0,3.465.81A.817.817,0,0,0,651.688,531.29Z" transform="translate(-637.146 -521.57)"/></g><g transform="translate(0 17.932)"><path class="j" d="M652.368,528.532a6.846,6.846,0,0,1-3.317-2.544c-.067-.071-.13-.144-.192-.218-1.865.44-6.968,1.182-6.97,1.182-.842.118-1.631-.508-2.55-.3a3.15,3.15,0,0,0-2.194,1.732c2.528,1.92,5.45,2.7,8.469,3.469l2.291.584a19.534,19.534,0,0,0,3.465.81.815.815,0,0,0,.318-.181c.591-.568.552-1.968.658-2.77C652.434,529.632,652.165,528.871,652.368,528.532Z" transform="translate(-637.146 -525.771)"/></g><path class="m" d="M685.318,494.966s-.578-.934-2.763.649-19.406,15.092-19.406,15.092l2,3.657s15.24-5.849,21.133-13.778C686.279,500.586,689.02,497.24,685.318,494.966Z" transform="translate(-648.145 -494.693)"/></g><path class="j" d="M722.567,485.52a9.929,9.929,0,0,0,.259-4.378c-.026-.164-1.5-5.274-2.218-4.45l-.271.31-4.158-.172a13.883,13.883,0,0,1-3.329,3.707,5.485,5.485,0,0,1-.747.356c-5.666,2.355-11.674,4.22-16.8,7.672a4.965,4.965,0,0,0,2.68,5.733c.791.45,3.092.028,4.017.015a28.46,28.46,0,0,0,4.056-.123c2.362-.385,4.828-.9,7.159-1.513,3.211-.849,6.527-2.227,8.355-5A8.167,8.167,0,0,0,722.567,485.52Z" transform="translate(-661.678 -476.602)"/></g><g transform="translate(50.34)"><path class="n" d="M734.514,440.4l-.048.005c-.748.117-1.626-.082-2.256.452a8.01,8.01,0,0,0-1.591,2.966c-1.479,3.346-3.345,7.123-3.939,10.748-.246,1.5-.354,3.023-.655,4.516a10.272,10.272,0,0,1-.625,2.137c-.111.252-1.022,1.329-1.009,1.472a2.653,2.653,0,0,0,1.211,1.65c2.164,1.714,4.52.671,6.685,2.386a6.735,6.735,0,0,1,2.048,2.2,3.374,3.374,0,0,0,.658,1.163,7.023,7.023,0,0,0,2.389-3.489,45.851,45.851,0,0,0,3.242-13.4,36.211,36.211,0,0,0,.087-5.839,7.506,7.506,0,0,0-2.752-5.409,5.208,5.208,0,0,0-2.991-1.484A1.5,1.5,0,0,0,734.514,440.4Z" transform="translate(-724.391 -440.401)"/></g><g transform="translate(38.031 3.552)"><path class="l" d="M735.575,452.76s-8.536,9.388-12.631,9.2l-2.386-3.484c1.578-1.359,11.532-8.463,12.205-8.83a1.894,1.894,0,0,1,2.412.449S736.41,451.514,735.575,452.76Z" transform="translate(-710.46 -447.755)"/><path class="l" d="M716.08,466.413s.783.53-13.023-4.212l.714-2.28s7.389,1.37,10.089,1.513S715.922,461.383,716.08,466.413Z" transform="translate(-703.057 -452.21)"/><path class="n" d="M735.879,449.067c4.772-4.337,6.414-1.735,6.414-1.735s2.8,1.858-2.053,6.319c-1.375,1.265-2.046,2.1-2.473,2.507l-2.257-2.373-2.258-2.373C733.683,451.005,734.5,450.324,735.879,449.067Z" transform="translate(-715.83 -446.557)"/></g></g><g transform="translate(53.649)"><g transform="translate(0 3.168)"><g transform="translate(1.566)"><path class="l" d="M733.382,419.216s-1.79,8.8,1.137,11.606c0,0,7.675.721,7.207-4.024C741.505,424.564,740.73,415.1,733.382,419.216Z" transform="translate(-732.84 -418.189)"/><path class="l" d="M742.756,432.2l-4.5-.69c1.855,4-.456,8.055-.456,8.055a4.084,4.084,0,0,0,5.4-1.224A23.462,23.462,0,0,1,742.756,432.2Z" transform="translate(-734.936 -423.826)"/></g><path class="i" d="M731.812,427.241l.044,3.632-1.731.021Z" transform="translate(-730.125 -422.018)"/><path class="o" d="M746.916,427.264s1.513-1.829,2.358-.585c.722,1.063.125,3.527-2.055,4.147Z" transform="translate(-737.227 -421.597)"/></g><path class="p" d="M740.368,428.358s-2.359-8.631-3.172-9.235-3.833-.276-5.1-2.807c-1.252-2.5-.169-3.58.455-3.617s1.479,2.366,3.669,1.273c2.228-1.112,6.423-.586,6.861,1.133,0,0,2.221.509,1.57,4.1C743.266,426.85,740.368,428.358,740.368,428.358Z" transform="translate(-730.714 -412.698)"/><path class="l" d="M744.287,426.978s1.916-1.771,2.654-.293c.631,1.264-.38,3.86-2.844,4.217Z" transform="translate(-736.035 -418.366)"/><path class="q" d="M733.2,434.273l2.349,1.764,1.12-.825-3.587-1.66C733.114,433.8,733.153,434.038,733.2,434.273Z" transform="translate(-731.376 -421.52)"/><path class="p" d="M734.008,432.3a4.407,4.407,0,0,0,1,1.58s3.414.32,5.549-.874l-.588-7.434-1.2-.15.189,5.085-4.958,1.792Z" transform="translate(-731.768 -418.082)"/></g><g transform="translate(32.495 17.998)"><rect class="r" width="0.774" height="7.864" transform="matrix(0.966, -0.26, 0.26, 0.966, 0, 0.201)"/><path class="l" d="M698.521,454.6c-.283-.185-.63-.215-.884-.474a3.415,3.415,0,0,1-.631-.987c-.141-.317-.159-.656-.284-.973a.326.326,0,0,0-.106-.152.307.307,0,0,0-.332.035,1.106,1.106,0,0,0-.367,1.025,3.936,3.936,0,0,0,.088.53c.025.123.059.616.168.684l-1.677-1.042a1.525,1.525,0,0,0-.279.829c-.024.295-.006.592-.032.886a1.863,1.863,0,0,0,0,.694,1.39,1.39,0,0,0,.257.435l.781,1.018a.826.826,0,0,0,.478.351l3.621,1.406,1.23-2.081c-.012.02-.908-.9-.984-.993a12.443,12.443,0,0,0-.914-1.088A.928.928,0,0,0,698.521,454.6Z" transform="translate(-693.753 -447.311)"/></g></g></g></g></svg>