<svg fill="#6257FF" xmlns="http://www.w3.org/2000/svg" width="20.579" height="24" viewBox="0 0 20.579 24"><path d="M5.337,11.493V17.7a1.469,1.469,0,0,1-1.474,1.484A1.6,1.6,0,0,1,2.25,17.7V11.493A1.6,1.6,0,0,1,3.863,10.02,1.48,1.48,0,0,1,5.337,11.493Zm.579,8.414A1.583,1.583,0,0,0,7.5,21.493H8.568l.016,3.274a1.479,1.479,0,0,0,2.958,0V21.493h1.994v3.274a1.487,1.487,0,0,0,2.974,0V21.493h1.083a1.58,1.58,0,0,0,1.576-1.586V10.293H5.916ZM19.206,9.773H5.857A6.023,6.023,0,0,1,9.265,4.446L8.242,2.554a.206.206,0,1,1,.359-.2L9.64,4.258a7.241,7.241,0,0,1,5.8,0l1.034-1.9a.207.207,0,1,1,.359.2L15.814,4.446a6.037,6.037,0,0,1,3.392,5.327ZM10.058,6.8A.563.563,0,0,0,9.5,6.236a.563.563,0,0,0,0,1.125A.563.563,0,0,0,10.058,6.8Zm6.077,0a.555.555,0,1,0-.547.563A.559.559,0,0,0,16.136,6.8Zm5.08,3.221a1.47,1.47,0,0,0-1.474,1.474V17.7a1.479,1.479,0,0,0,1.474,1.484A1.6,1.6,0,0,0,22.829,17.7V11.493A1.587,1.587,0,0,0,21.216,10.02Z" transform="translate(-2.25 -2.245)"/></svg>