<svg xmlns="http://www.w3.org/2000/svg" width="15.058" height="15.058" viewBox="0 0 15.058 15.058"><path d="M7.529.563a7.529,7.529,0,1,0,7.529,7.529A7.528,7.528,0,0,0,7.529.563ZM2.744,5.893a1.146,1.146,0,0,1,1.363-.665l.216.058.061-.216a1.149,1.149,0,0,1,1.26-.847,1.074,1.074,0,0,1,.874,1.351L5.929,7.7a.261.261,0,0,1-.319.182L3.479,7.326a1.077,1.077,0,0,1-.735-1.433Zm4.784,7.541c-1.84,0-4.083-1.163-4.365-2.832a.487.487,0,0,1,.628-.543,13.122,13.122,0,0,0,3.737.461,13.122,13.122,0,0,0,3.737-.461.488.488,0,0,1,.628.543C11.612,12.272,9.369,13.434,7.529,13.434Zm4.05-6.111-2.131.553a.264.264,0,0,1-.319-.182L8.54,5.572a1.074,1.074,0,0,1,.874-1.351,1.153,1.153,0,0,1,1.26.847l.061.216.216-.058a1.149,1.149,0,0,1,1.363.665,1.075,1.075,0,0,1-.735,1.433Z" transform="translate(0 -0.563)"/></svg>