<svg xmlns="http://www.w3.org/2000/svg" width="14.008" height="14.009" viewBox="0 0 14.008 14.009"><path d="M.876,0A.875.875,0,0,0,0,.874V13.569a.439.439,0,0,0,.438.438h.876a.439.439,0,0,0,.438-.438V.874A.875.875,0,0,0,.876,0Zm7.33,8.306a7.316,7.316,0,0,0-5.579.3v1.9C7.707,7.982,8.692,11.963,13.5,9.873a.859.859,0,0,0,.506-.788V8.1a8.29,8.29,0,0,1-3.067.659,10.419,10.419,0,0,1-2.736-.454Zm0-2.627a7.316,7.316,0,0,0-5.579.3V7.665a8.123,8.123,0,0,1,5.8-.208,7.316,7.316,0,0,0,5.579-.3V5.471a8.29,8.29,0,0,1-3.067.659A10.31,10.31,0,0,1,8.205,5.679Zm.26-3.445c1.417.427,2.665.793,5.543-.55V.842A.888.888,0,0,0,12.657.114C7.97,2.5,8.356-1.7,2.627.885V5.041a8.138,8.138,0,0,1,5.8-.208,7.342,7.342,0,0,0,5.579-.3V2.645a8.565,8.565,0,0,1-3.45.859,7.668,7.668,0,0,1-2.345-.435c-.109-.033-.222-.066-.331-.1V2.065c.2.055.391.112.583.17ZM4.378,3.5a.438.438,0,1,1,.438-.438A.437.437,0,0,1,4.378,3.5Zm0-1.527a.438.438,0,1,1,.438-.438A.437.437,0,0,1,4.378,1.977ZM6.129,3.288a.438.438,0,1,1,.438-.438A.437.437,0,0,1,6.129,3.288Zm0-1.529a.438.438,0,1,1,.438-.438A.437.437,0,0,1,6.129,1.758Z" transform="translate(0 0.002)"/></svg>