<svg xmlns="http://www.w3.org/2000/svg" width="74" height="28" viewBox="0 0 74 28"><defs><style>.a{fill:#ff9c39;}.b,.c{fill:#fff;}.c{font-size:14px;font-family:Montserrat-SemiBold, Montserrat;font-weight:600;}</style></defs><g transform="translate(-378 -481)"><path class="a" d="M8,0H66a8,8,0,0,1,8,8V20a0,0,0,0,1,0,0H0a0,0,0,0,1,0,0V8A8,8,0,0,1,8,0Z" transform="translate(378 489)"/><path class="a" d="M14,0h0A13,13,0,0,1,27,13v7a0,0,0,0,1,0,0H0a0,0,0,0,1,0,0V14A14,14,0,0,1,14,0Z" transform="translate(378 481)"/><path class="b" d="M7.054,3.93,5.76,2.636A9.438,9.438,0,0,0,2.03,9.742H3.841A7.646,7.646,0,0,1,7.054,3.93ZM18.271,9.742h1.811a9.5,9.5,0,0,0-3.73-7.107L15.066,3.93A7.691,7.691,0,0,1,18.271,9.742Zm-1.783.453c0-2.779-1.485-5.106-4.074-5.722V3.858a1.358,1.358,0,0,0-2.716,0v.616C7.1,5.089,5.624,7.407,5.624,10.2v4.527L3.813,16.532v.905H18.3v-.905l-1.811-1.811Zm-5.432,9.958a1.586,1.586,0,0,0,.362-.036,1.837,1.837,0,0,0,1.3-1.068,1.818,1.818,0,0,0,.136-.706H9.236A1.824,1.824,0,0,0,11.056,20.153Z" transform="translate(380.97 484.233)"/><text class="c" transform="translate(409 504)"><tspan x="0" y="0">TIPS</tspan></text></g></svg>