<svg xmlns="http://www.w3.org/2000/svg" width="47.799" height="56.747" viewBox="0 0 47.799 56.747"><defs><style>.a{fill:#fff;}</style></defs><path class="a" d="M46.8,44.224a30.852,30.852,0,0,1-3.051,5.485,27.869,27.869,0,0,1-3.93,4.75,7.624,7.624,0,0,1-5.051,2.224A12.66,12.66,0,0,1,30.1,55.569a13.388,13.388,0,0,0-5.023-1.11,13.842,13.842,0,0,0-5.165,1.11,13.9,13.9,0,0,1-4.463,1.173,7.178,7.178,0,0,1-5.165-2.284,29.265,29.265,0,0,1-4.111-4.918,34.012,34.012,0,0,1-4.347-8.634A31.616,31.616,0,0,1,0,30.616a18.792,18.792,0,0,1,2.468-9.832,14.476,14.476,0,0,1,5.168-5.228,13.9,13.9,0,0,1,6.987-1.972,16.452,16.452,0,0,1,5.4,1.258A17.374,17.374,0,0,0,24.315,16.1a25.65,25.65,0,0,0,4.753-1.485,15.712,15.712,0,0,1,6.461-1.147q7.161.578,10.747,5.658-6.4,3.881-6.34,10.859a11.98,11.98,0,0,0,3.934,9.026,12.927,12.927,0,0,0,3.93,2.578Q47.326,42.964,46.8,44.224ZM35.848,1.136a12.106,12.106,0,0,1-3.1,7.94c-2.494,2.916-5.511,4.6-8.782,4.335a8.835,8.835,0,0,1-.066-1.075,12.438,12.438,0,0,1,3.292-8.024A12.676,12.676,0,0,1,31.2,1.3,11.959,11.959,0,0,1,35.788,0a10.308,10.308,0,0,1,.06,1.135Z" transform="translate(0 0)"/></svg>