<svg xmlns="http://www.w3.org/2000/svg" width="47.78" height="56.468" viewBox="0 0 47.78 56.468"><defs><style>.a{fill:#fff;}</style></defs><g transform="translate(-42.544 0)"><g transform="translate(42.544 0)"><path class="a" d="M46.039,179.141a3.371,3.371,0,0,0-2.477,1.018,3.332,3.332,0,0,0-1.018,2.443v14.592a3.476,3.476,0,0,0,3.5,3.5,3.319,3.319,0,0,0,2.461-1.018,3.4,3.4,0,0,0,1-2.478V182.6a3.475,3.475,0,0,0-3.462-3.461Z" transform="translate(-42.544 -160.85)"/><path class="a" d="M146.066,5.192,148.475.747a.447.447,0,0,0-.169-.679.47.47,0,0,0-.679.2l-2.443,4.48a17.021,17.021,0,0,0-13.642,0L129.1.272a.471.471,0,0,0-.679-.2.446.446,0,0,0-.169.679l2.41,4.445a14.879,14.879,0,0,0-5.837,5.21,13.158,13.158,0,0,0-2.172,7.313H154.04a13.161,13.161,0,0,0-2.172-7.313A14.942,14.942,0,0,0,146.066,5.192Zm-13.93,6.465a1.272,1.272,0,0,1-.934.391,1.214,1.214,0,0,1-.916-.391,1.353,1.353,0,0,1,0-1.866,1.219,1.219,0,0,1,.916-.39,1.319,1.319,0,0,1,.934,2.256Zm14.3,0a1.217,1.217,0,0,1-.916.391,1.323,1.323,0,0,1,0-2.647,1.219,1.219,0,0,1,.916.39,1.353,1.353,0,0,1,0,1.866Z" transform="translate(-114.472 0)"/><path class="a" d="M123.971,208.051a3.706,3.706,0,0,0,3.732,3.732h2.511l.034,7.7a3.373,3.373,0,0,0,1.018,2.478,3.333,3.333,0,0,0,2.443,1.018,3.476,3.476,0,0,0,3.5-3.5v-7.7h4.683v7.7a3.495,3.495,0,1,0,6.99,0v-7.7h2.545a3.565,3.565,0,0,0,2.613-1.085,3.6,3.6,0,0,0,1.085-2.647v-22.6H123.971Z" transform="translate(-115.657 -166.515)"/><path class="a" d="M445.837,179.141a3.363,3.363,0,0,0-2.443,1,3.318,3.318,0,0,0-1.018,2.46v14.592a3.37,3.37,0,0,0,1.018,2.478,3.333,3.333,0,0,0,2.443,1.018,3.476,3.476,0,0,0,3.495-3.5V182.6a3.318,3.318,0,0,0-1.018-2.46A3.4,3.4,0,0,0,445.837,179.141Z" transform="translate(-401.552 -160.85)"/></g></g></svg>