<svg xmlns="http://www.w3.org/2000/svg" xmlns:xlink="http://www.w3.org/1999/xlink" width="497" height="438.093" viewBox="0 0 497 438.093"><defs><linearGradient id="a" x1="0.036" y1="1.066" x2="1.055" y2="-0.141" gradientUnits="objectBoundingBox"><stop offset="0" stop-color="#bbd4ff"/><stop offset="1" stop-color="#ffd6f8"/></linearGradient><linearGradient id="c" x1="0.036" y1="1.066" x2="1.055" y2="-0.141" gradientUnits="objectBoundingBox"><stop offset="0" stop-color="#d0e0fc"/><stop offset="1" stop-color="#ffe6fb"/></linearGradient><filter id="d" x="71.501" y="56.373" width="350.126" height="350.126" filterUnits="userSpaceOnUse"><feOffset dy="7" input="SourceAlpha"/><feGaussianBlur stdDeviation="7.5" result="e"/><feFlood flood-color="#856f6f" flood-opacity="0.439"/><feComposite operator="in" in2="e"/><feComposite in="SourceGraphic"/></filter><linearGradient id="f" y1="1" x2="0.956" y2="0.078" gradientUnits="objectBoundingBox"><stop offset="0" stop-color="#ffb16d"/><stop offset="0.492" stop-color="#ff437c"/><stop offset="1" stop-color="#a733ff"/></linearGradient></defs><g transform="translate(19.75 232.282)"><g transform="translate(53.252 -181.409)"><path d="M-2360.1-3185.424a55.555,55.555,0,0,0-49.352-49.352,921.6,921.6,0,0,0-195.972,0,55.559,55.559,0,0,0-49.354,49.352,921.6,921.6,0,0,0,0,195.972,55.559,55.559,0,0,0,49.352,49.354,921.625,921.625,0,0,0,195.975,0,55.557,55.557,0,0,0,49.352-49.354A921.6,921.6,0,0,0-2360.1-3185.424Zm0,0" transform="translate(-783.161 4034.157) rotate(53)" opacity="0.23" fill="url(#a)"/><path d="M-2360.1-3185.424a55.555,55.555,0,0,0-49.352-49.352,921.6,921.6,0,0,0-195.972,0,55.559,55.559,0,0,0-49.354,49.352,921.6,921.6,0,0,0,0,195.972,55.559,55.559,0,0,0,49.352,49.354,921.625,921.625,0,0,0,195.975,0,55.557,55.557,0,0,0,49.352-49.354A921.6,921.6,0,0,0-2360.1-3185.424Zm0,0" transform="translate(1408.018 3954.519) rotate(21)" opacity="0.55" fill="url(#a)"/><g transform="matrix(1, 0, 0, 1, -73, -50.87)" filter="url(#d)"><path d="M-2360.1-3185.424a55.555,55.555,0,0,0-49.352-49.352,921.6,921.6,0,0,0-195.972,0,55.559,55.559,0,0,0-49.354,49.352,921.6,921.6,0,0,0,0,195.972,55.559,55.559,0,0,0,49.352,49.354,921.625,921.625,0,0,0,195.975,0,55.557,55.557,0,0,0,49.352-49.354A921.6,921.6,0,0,0-2360.1-3185.424Zm0,0" transform="translate(2754 3311.87)" fill="url(#c)"/></g><path d="M-2500.347-2918.871c-15.41,0-30.907-.289-46.063-.858a52.272,52.272,0,0,1-19.11-4.263,47.442,47.442,0,0,1-15.067-10.45,50.478,50.478,0,0,1-10.2-15.477,59.331,59.331,0,0,1-4.514-19.345c-.109-1.645-.39-3.307-.661-4.915v-.008c-.118-.7-.253-1.5-.367-2.272v-73.984c.2-1.438.393-2.888.576-4.29.394-3.014.8-6.13,1.352-9.169,2.274-12.533,7.853-23.176,16.134-30.777a46.306,46.306,0,0,1,14.227-8.924,52.356,52.356,0,0,1,17.633-3.586c15.729-.541,31.488-.814,46.838-.814,15.3,0,30.621.272,45.527.81a53.2,53.2,0,0,1,19.234,4.23,47.986,47.986,0,0,1,15.271,10.417,48.5,48.5,0,0,1,10.221,15.444,54.339,54.339,0,0,1,4.083,19.312c.921,29.421.921,59.256,0,88.676a54.349,54.349,0,0,1-4.082,19.312,48.5,48.5,0,0,1-10.219,15.443,47.986,47.986,0,0,1-15.271,10.416,53.218,53.218,0,0,1-19.237,4.231C-2469.5-2919.154-2485.076-2918.871-2500.347-2918.871Zm-.065-17.326h0c4.347,0,8.768.041,13.044.081h.146c4.248.039,8.641.08,12.958.08,6.182,0,11.289-.082,16.071-.259,22.1-.82,35.6-14.273,36.109-35.987.635-27.319.635-55.023,0-82.344-.515-22.036-14.014-35.472-36.109-35.941-13.853-.293-27.941-.442-41.874-.442s-28.076.149-42.039.442c-21.982.461-35.459,13.7-36.05,35.417-.751,27.668-.751,55.726,0,83.394.583,21.39,14.06,34.646,36.052,35.461,4.733.176,9.787.258,15.9.258,4.305,0,8.671-.041,12.894-.08h.044c4.212-.039,8.568-.08,12.849-.08Zm-.026-28.368a48.571,48.571,0,0,1-19.023-3.84A48.717,48.717,0,0,1-2535-2978.879a48.712,48.712,0,0,1-10.474-15.534,48.564,48.564,0,0,1-3.841-19.023,48.562,48.562,0,0,1,3.841-19.022A48.714,48.714,0,0,1-2535-3047.993a48.716,48.716,0,0,1,15.535-10.474,48.57,48.57,0,0,1,19.023-3.841,48.575,48.575,0,0,1,19.024,3.841,48.71,48.71,0,0,1,15.535,10.474,48.708,48.708,0,0,1,10.474,15.534,48.567,48.567,0,0,1,3.84,19.022,48.57,48.57,0,0,1-3.84,19.023,48.708,48.708,0,0,1-10.474,15.534,48.71,48.71,0,0,1-15.535,10.474A48.573,48.573,0,0,1-2500.438-2964.565Zm0-80.918a32.082,32.082,0,0,0-32.046,32.045,32.083,32.083,0,0,0,32.046,32.046,32.083,32.083,0,0,0,32.046-32.046A32.082,32.082,0,0,0-2500.438-3045.483Zm51.728-7.428a11.64,11.64,0,0,1-11.628-11.625,11.551,11.551,0,0,1,3.406-8.223,11.551,11.551,0,0,1,8.222-3.405,11.548,11.548,0,0,1,8.22,3.405,11.553,11.553,0,0,1,3.405,8.223,11.548,11.548,0,0,1-3.405,8.22A11.548,11.548,0,0,1-2448.71-3052.912Z" transform="translate(2674 3188)" fill="url(#f)"/><g transform="matrix(0.899, 0.438, -0.438, 0.899, 229.157, 89.763)"><path d="M100.252,18.244a18.571,18.571,0,0,0-16.5-16.5,308.073,308.073,0,0,0-65.51,0,18.573,18.573,0,0,0-16.5,16.5,308.073,308.073,0,0,0,0,65.51,18.573,18.573,0,0,0,16.5,16.5,308.08,308.08,0,0,0,65.511,0,18.572,18.572,0,0,0,16.5-16.5,308.073,308.073,0,0,0,0-65.51Zm0,0" transform="translate(107.266 -15.412)" fill="#7c56ff"/><text transform="translate(158.131 66.805)" fill="#fff" font-size="18" font-family="Montserrat-SemiBold, Montserrat" font-weight="600"><tspan x="-25.272" y="0">WMV</tspan></text><path d="M28.809,8A20.809,20.809,0,1,0,49.618,28.809,20.806,20.806,0,0,0,28.809,8Zm9.708,22.823L23.75,39.3a2.017,2.017,0,0,1-3-1.762V20.083a2.019,2.019,0,0,1,3-1.762l9,5.473L38.517,27.3A2.02,2.02,0,0,1,38.517,30.823Z" transform="translate(131.089 -5.803)" fill="#fff"/></g><g transform="matrix(0.978, -0.208, 0.208, 0.978, -134.806, 70.648)"><path d="M71.092,12.937a13.169,13.169,0,0,0-11.7-11.7,218.463,218.463,0,0,0-46.455,0,13.17,13.17,0,0,0-11.7,11.7,218.463,218.463,0,0,0,0,46.455,13.17,13.17,0,0,0,11.7,11.7,218.468,218.468,0,0,0,46.456,0,13.17,13.17,0,0,0,11.7-11.7,218.463,218.463,0,0,0,0-46.455Zm0,0" transform="translate(107.265 -15.412)" fill="#ffc400"/><text transform="translate(142.989 42.835)" fill="#fff" font-size="12" font-family="Montserrat-SemiBold, Montserrat" font-weight="600"><tspan x="-10.47" y="0">AVI</tspan></text><path d="M14.756,0A14.756,14.756,0,1,0,29.513,14.756,14.754,14.754,0,0,0,14.756,0Zm6.884,16.184-10.472,6.01a1.431,1.431,0,0,1-2.124-1.25V8.568a1.431,1.431,0,0,1,2.124-1.25L17.552,11.2l4.089,2.486A1.433,1.433,0,0,1,21.641,16.184Z" transform="translate(129.832 -2.925)" fill="#fff"/></g><g transform="translate(-120.751 318.191) rotate(-16)"><path d="M86.923,15.818a16.1,16.1,0,0,0-14.3-14.3,267.111,267.111,0,0,0-56.8,0,16.1,16.1,0,0,0-14.3,14.3,267.111,267.111,0,0,0,0,56.8,16.1,16.1,0,0,0,14.3,14.3,267.118,267.118,0,0,0,56.8,0,16.1,16.1,0,0,0,14.3-14.3,267.11,267.11,0,0,0,0-56.8Zm0,0" transform="translate(107.265 -15.412)" fill="#005fff"/><text transform="translate(150.604 55.134)" fill="#fff" font-size="14" font-family="Montserrat-SemiBold, Montserrat" font-weight="600"><tspan x="-17.528" y="0">MOV</tspan></text><path d="M18.042,0A18.042,18.042,0,1,0,36.085,18.042,18.039,18.039,0,0,0,18.042,0ZM26.46,19.788l-12.8,7.348a1.749,1.749,0,0,1-2.6-1.528V10.476a1.75,1.75,0,0,1,2.6-1.528l7.805,4.745,5,3.039A1.752,1.752,0,0,1,26.46,19.788Z" transform="translate(134.858 -0.144)" fill="#fff"/></g><g transform="translate(236.679 -80.439) rotate(30)"><path d="M56.526,10.287a10.471,10.471,0,0,0-9.3-9.3,173.7,173.7,0,0,0-36.937,0,10.472,10.472,0,0,0-9.3,9.3,173.7,173.7,0,0,0,0,36.937,10.472,10.472,0,0,0,9.3,9.3,173.708,173.708,0,0,0,36.938,0,10.472,10.472,0,0,0,9.3-9.3,173.7,173.7,0,0,0,0-36.937Zm0,0" transform="translate(107.265 -15.412)" fill="#ff6363"/><text transform="translate(135.529 32.102)" fill="#fff" font-size="13" font-family="Montserrat-SemiBold, Montserrat" font-weight="600"><tspan x="-15.145" y="0">MP4</tspan></text><path d="M11.733,0A11.733,11.733,0,1,0,23.466,11.733,11.731,11.731,0,0,0,11.733,0Zm5.474,12.869L8.88,17.647a1.138,1.138,0,0,1-1.689-.994V6.813A1.138,1.138,0,0,1,8.88,5.819l5.076,3.086,3.251,1.976A1.139,1.139,0,0,1,17.207,12.869Z" transform="translate(125.209 -5.484)" fill="#fff"/></g></g><g transform="translate(128.25 -4694.282)"><g transform="translate(-148 4672)" fill="none" stroke="#66f" stroke-width="8"><circle cx="16" cy="16" r="16" stroke="none"/><circle cx="16" cy="16" r="12" fill="none"/></g><g transform="translate(-11 4462)" fill="none" stroke="#ff826e" stroke-width="4"><circle cx="8" cy="8" r="8" stroke="none"/><circle cx="8" cy="8" r="6" fill="none"/></g><circle cx="7" cy="7" r="7" transform="translate(256 4832)" fill="#ffb92d"/><circle cx="8" cy="8" r="8" transform="translate(328 4537)" fill="#2d6cff"/></g></g></svg>