<svg xmlns="http://www.w3.org/2000/svg" width="76" height="71.528" viewBox="0 0 76 71.528"><g transform="translate(-508.999 -2831.465)"><path d="M-5346,44.995V13.734a2.248,2.248,0,0,1,2.347-2.264,33.61,33.61,0,0,1,31.177,31.177,2.247,2.247,0,0,1-2.262,2.347Z" transform="translate(5893 2820)" fill="#ff6363"/><path d="M-5321.337,62.312l-22.079-22.077h33.151a2.238,2.238,0,0,1,2.243,2.493,33.458,33.458,0,0,1-10.216,19.68,2.138,2.138,0,0,1-1.476.576A2.3,2.3,0,0,1-5321.337,62.312Z" transform="translate(5893 2831.466)" fill="#a833fc"/><path d="M-5350.452,81.874h0a32.54,32.54,0,0,1-12.636-2.558,34.21,34.21,0,0,1-10.551-6.96,34.127,34.127,0,0,1-7.34-10.291,32.426,32.426,0,0,1-3-12.55,33.429,33.429,0,0,1,1.906-12.387,33.31,33.31,0,0,1,6.02-10.432,33.5,33.5,0,0,1,20.857-11.51,2.111,2.111,0,0,1,.3-.021,2.261,2.261,0,0,1,2.2,2.264V50.581l21.776,21.776a2.276,2.276,0,0,1,.659,1.805,2.12,2.12,0,0,1-.878,1.558,33.237,33.237,0,0,1-18.9,6.151Z" transform="translate(5893 2821.12)" fill="#a833fc"/></g></svg>