<svg xmlns="http://www.w3.org/2000/svg" xmlns:xlink="http://www.w3.org/1999/xlink" width="127.44" height="86.545" viewBox="0 0 127.44 86.545"><defs><clipPath id="a"><path d="M151.32-600.484l-7.331-27.36a11.143,11.143,0,0,1,1.12-8.512,11.143,11.143,0,0,1,6.811-5.226l56.087-15.029a59.029,59.029,0,0,1,15.153-2.315,28.414,28.414,0,0,1,12.282,2.56,55.07,55.07,0,0,1,9.371,5.913c4.257,3.1,8.658,6.306,15.064,8.664l-100.021,26.8a11.919,11.919,0,0,0-7.286,5.591,11.934,11.934,0,0,0-1.249,8.913Z" transform="matrix(0.966, 0.259, -0.259, 0.966, 837.419, 1697.401)" fill="#7257fa" stroke="rgba(0,0,0,0)" stroke-miterlimit="10" stroke-width="1"/></clipPath></defs><g transform="translate(-1131.545 -1098.094)" clip-path="url(#a)"><g transform="matrix(0.966, 0.259, -0.259, 0.966, 719.273, 573.528)"><path d="M151.32-600.484l-7.331-27.36a11.143,11.143,0,0,1,1.12-8.512,11.143,11.143,0,0,1,6.811-5.226l56.087-15.029a59.029,59.029,0,0,1,15.153-2.315,28.414,28.414,0,0,1,12.282,2.56,55.07,55.07,0,0,1,9.371,5.913c4.257,3.1,8.658,6.306,15.064,8.664l-100.021,26.8a11.919,11.919,0,0,0-7.286,5.591,11.934,11.934,0,0,0-1.249,8.913Z" transform="translate(405 1055)" fill="#7257fa" stroke="rgba(0,0,0,0)" stroke-miterlimit="10" stroke-width="1"/><path d="M6.49-4a2.032,2.032,0,0,1,1.012.7A1.943,1.943,0,0,1,7.876-2.09a1.781,1.781,0,0,1-.77,1.546A3.869,3.869,0,0,1,4.862,0H1.034V-7.7H4.642a3.543,3.543,0,0,1,2.1.534A1.714,1.714,0,0,1,7.48-5.7a1.928,1.928,0,0,1-.264,1.012A1.808,1.808,0,0,1,6.49-4ZM2.464-6.578v2.123H4.488a2.057,2.057,0,0,0,1.15-.269.888.888,0,0,0,.4-.787.9.9,0,0,0-.4-.8,2.057,2.057,0,0,0-1.15-.27Zm2.31,5.456q1.661,0,1.661-1.111T4.774-3.344H2.464v2.222ZM15.07-1.2V0H9.3V-7.7h5.621v1.2H10.725v2h3.718v1.177H10.725V-1.2ZM18.942.11a5.874,5.874,0,0,1-1.721-.253,3.593,3.593,0,0,1-1.315-.671L16.4-1.925a3.9,3.9,0,0,0,1.161.611,4.22,4.22,0,0,0,1.38.237,2.386,2.386,0,0,0,1.281-.275.833.833,0,0,0,.424-.726.7.7,0,0,0-.236-.545,1.66,1.66,0,0,0-.6-.336q-.363-.121-.99-.275A11.54,11.54,0,0,1,17.4-3.652a2.344,2.344,0,0,1-.935-.655,1.763,1.763,0,0,1-.391-1.2,2.055,2.055,0,0,1,.347-1.16A2.345,2.345,0,0,1,17.462-7.5a4.234,4.234,0,0,1,1.711-.308,5.525,5.525,0,0,1,1.386.176,3.831,3.831,0,0,1,1.177.506l-.451,1.111a4.449,4.449,0,0,0-1.056-.451,3.95,3.95,0,0,0-1.067-.154,2.229,2.229,0,0,0-1.26.286.882.882,0,0,0-.413.759.686.686,0,0,0,.236.539,1.709,1.709,0,0,0,.6.33q.363.121.99.275a10.418,10.418,0,0,1,1.408.412,2.411,2.411,0,0,1,.941.655,1.725,1.725,0,0,1,.39,1.188,2.029,2.029,0,0,1-.347,1.155,2.357,2.357,0,0,1-1.05.825A4.274,4.274,0,0,1,18.942.11Zm5.874-6.6H22.264V-7.7H28.8v1.21H26.246V0h-1.43ZM3.421,11.11A5.874,5.874,0,0,1,1.7,10.857a3.593,3.593,0,0,1-1.315-.671l.5-1.111a3.9,3.9,0,0,0,1.161.611,4.22,4.22,0,0,0,1.381.236A2.386,2.386,0,0,0,4.7,9.647a.833.833,0,0,0,.424-.726.7.7,0,0,0-.237-.544,1.66,1.66,0,0,0-.6-.336q-.363-.121-.99-.275a11.54,11.54,0,0,1-1.425-.418,2.344,2.344,0,0,1-.935-.655,1.763,1.763,0,0,1-.391-1.2A2.055,2.055,0,0,1,.9,4.328,2.345,2.345,0,0,1,1.942,3.5,4.234,4.234,0,0,1,3.652,3.19a5.525,5.525,0,0,1,1.386.176,3.831,3.831,0,0,1,1.177.506L5.764,4.983a4.449,4.449,0,0,0-1.056-.451,3.95,3.95,0,0,0-1.067-.154,2.229,2.229,0,0,0-1.26.286.882.882,0,0,0-.413.759.686.686,0,0,0,.237.539,1.709,1.709,0,0,0,.6.33q.363.121.99.275A10.418,10.418,0,0,1,5.2,6.979a2.411,2.411,0,0,1,.941.655,1.725,1.725,0,0,1,.391,1.188,2.029,2.029,0,0,1-.347,1.155,2.357,2.357,0,0,1-1.05.825A4.274,4.274,0,0,1,3.421,11.11ZM13.618,9.8V11H7.843V3.3h5.621V4.5H9.273v2h3.718V7.678H9.273V9.8ZM15.1,3.3h1.43V9.79h4.026V11H15.1Zm6.479,0h1.43V9.79h4.026V11H21.582ZM33.836,9.8V11H28.061V3.3h5.621V4.5H29.491v2h3.718V7.678H29.491V9.8ZM40.359,11,38.786,8.745a2.932,2.932,0,0,1-.3.011H36.751V11h-1.43V3.3h3.168a4.263,4.263,0,0,1,1.743.33,2.535,2.535,0,0,1,1.139.946,2.647,2.647,0,0,1,.4,1.463,2.609,2.609,0,0,1-.424,1.5,2.52,2.52,0,0,1-1.215.935L41.9,11Zm-.033-4.961a1.38,1.38,0,0,0-.484-1.133,2.2,2.2,0,0,0-1.419-.4H36.751V7.579h1.672a2.175,2.175,0,0,0,1.419-.4A1.4,1.4,0,0,0,40.326,6.039Z" transform="matrix(0.966, -0.259, 0.259, 0.966, 586.947, 418.855)" fill="#fff"/><path d="M68.731,153.673c-2.331,1.093-4.151,1.844-4.478,1.978a.061.061,0,0,0-.018-.021,17.767,17.767,0,0,1,3.78-3.114c3.588-2.142-.1-6.393-2.209-3.653-.888-3.266-5.4-1.544-3.612,2.276,1.093,2.33,1.843,4.15,1.977,4.477a.071.071,0,0,0-.021.018,17.73,17.73,0,0,1-3.114-3.78c-2.142-3.588-6.393.105-3.653,2.21-3.266.887-1.545,5.4,2.276,3.611,2.258-1.059,4.041-1.8,4.447-1.965-.02.041-.039.084-.059.125a17.8,17.8,0,0,1-3.673,3c-3.492,2.084-.088,6.165,2.037,3.856.123-.071.17-.191.315.2,1.139,2.7,5.181.968,3.47-2.681-1.065-2.27-1.806-4.059-1.968-4.453l.016-.038a17.741,17.741,0,0,1,3.109,3.775c2.142,3.588,6.393-.1,3.653-2.209C74.273,156.4,72.551,151.882,68.731,153.673Z" transform="translate(471.059 557.878) rotate(-120)" fill="#bca9ff"/><path d="M72.769,155.691c-3.051,1.431-5.434,2.414-5.862,2.588a.079.079,0,0,0-.024-.027,23.254,23.254,0,0,1,4.948-4.076c4.7-2.8-.137-8.368-2.892-4.781-1.162-4.275-7.072-2.021-4.727,2.979,1.431,3.05,2.413,5.432,2.588,5.86a.093.093,0,0,0-.027.024,23.207,23.207,0,0,1-4.075-4.948c-2.8-4.7-8.369.138-4.781,2.892-4.275,1.161-2.022,7.071,2.979,4.727,2.956-1.386,5.289-2.354,5.821-2.572-.027.054-.051.109-.077.164a23.3,23.3,0,0,1-4.808,3.923c-4.571,2.728-.115,8.069,2.666,5.047.161-.093.223-.25.412.264,1.491,3.533,6.781,1.268,4.542-3.509-1.393-2.971-2.364-5.313-2.576-5.828l.022-.05a23.223,23.223,0,0,1,4.069,4.941c2.8,4.7,8.368-.136,4.781-2.892C80.023,159.257,77.769,153.347,72.769,155.691Z" transform="matrix(0.259, -0.966, 0.966, 0.259, 403.565, 448.028)" fill="#fff"/></g></g></svg>