<svg xmlns="http://www.w3.org/2000/svg" xmlns:xlink="http://www.w3.org/1999/xlink" width="107.877" height="75.582" viewBox="0 0 107.877 75.582"><defs><style>.a,.d{fill:none;stroke-linecap:round;stroke-width:2px;}.a{stroke:#532654;}.b{fill:url(#a);}.c{fill:#fff;}.d{stroke:#f2585a;}.e{fill:#532654;}.f{fill:#6d346e;}.g{filter:url(#b);}</style><radialGradient id="a" cx="0.5" cy="0.5" r="0.5" gradientUnits="objectBoundingBox"><stop offset="0" stop-color="#f97f81"/><stop offset="1" stop-color="#d92c2e"/></radialGradient><filter id="b" x="18.843" y="0" width="75.127" height="71.582" filterUnits="userSpaceOnUse"><feOffset dy="3" input="SourceAlpha"/><feGaussianBlur stdDeviation="3" result="c"/><feFlood flood-color="#db3133" flood-opacity="0.29"/><feComposite operator="in" in2="c"/><feComposite in="SourceGraphic"/></filter></defs><g transform="translate(-545.306 -381.471)"><line class="a" y1="29" x2="50" transform="translate(594 400.405)"/><g class="g" transform="matrix(1, 0, 0, 1, 545.31, 381.47)"><path class="b" d="M228.395,152.875a11.671,11.671,0,0,0-.921-1.88l-.036.022c-4.794-8.022-14.681-10.94-22.083-6.518-5.709,3.41-8.257,10.185-6.939,16.786-5.187-4.29-12.36-5.257-18.066-1.848-7.4,4.424-9.522,14.513-4.73,22.535a10.25,10.25,0,0,0,.763,1.15A17.9,17.9,0,0,0,181,187.667c5.86,4.452,17.3,9.647,38.014,8.058,10.518-16.86,11.8-29.02,10.954-36.369A17.767,17.767,0,0,0,228.395,152.875Z" transform="translate(-145.21 -136.44)"/></g><path class="c" d="M-8.7-4.96a2.632,2.632,0,0,1-.56,1.544A14.9,14.9,0,0,1-10.8-1.664,12.916,12.916,0,0,1-12.5-.256a11.211,11.211,0,0,1-1.256.768,2.3,2.3,0,0,1-.936.32.461.461,0,0,1-.28-.088.306.306,0,0,1-.12-.264A.588.588,0,0,1-14.9.04a1.394,1.394,0,0,1,.512-.3,3.037,3.037,0,0,1,.448-.128,2.367,2.367,0,0,0,.656-.208,7.912,7.912,0,0,0,1.272-.84,9.876,9.876,0,0,0,1.144-1.016,9.228,9.228,0,0,0,1.048-1.3,2.168,2.168,0,0,0,.36-1.176.508.508,0,0,0-.32-.488,1.819,1.819,0,0,0-.784-.152,5.454,5.454,0,0,0-2.16.416q-.432.192-.592.272-.576.256-.944.4-.416.16-.8.28t-.512.168l.032.608q0,.24.024.768t.024.992a8.165,8.165,0,0,1-.16,1.792.9.9,0,0,1-.144.32.384.384,0,0,1-.3.1.446.446,0,0,1-.272-.1A.29.29,0,0,1-16.5.208a5.326,5.326,0,0,1,.144-.544,3.2,3.2,0,0,0,.144-.88q0-1.248-.112-3.184l-.048-.736q-.1-1.056-.1-1.664,0-.464.064-1.176t.1-.936a10.982,10.982,0,0,0-1.552.576,4.354,4.354,0,0,0-.7.4,1.374,1.374,0,0,1-.544.256.288.288,0,0,1-.224-.112.4.4,0,0,1-.1-.272q0-.3,1.072-.784A18.087,18.087,0,0,1-16.016-9.7a19.556,19.556,0,0,1,2.016-.5,10.088,10.088,0,0,1,1.808-.16,2.8,2.8,0,0,1,1.416.328,1.017,1.017,0,0,1,.568.92,4.233,4.233,0,0,1-1.536,2.912,9.1,9.1,0,0,1,1.248-.1,2.492,2.492,0,0,1,1.264.3A1.086,1.086,0,0,1-8.7-4.96ZM-10.96-8.9a.633.633,0,0,0-.368-.584,2.085,2.085,0,0,0-.992-.2,11.255,11.255,0,0,0-1.648.152A10.355,10.355,0,0,0-15.5-9.2a7.773,7.773,0,0,0-.272,1.824q0,1.04.1,2.624a3.034,3.034,0,0,0,.52-.128q.36-.112.664-.24a7.67,7.67,0,0,0,2.528-1.664A3.021,3.021,0,0,0-10.96-8.9ZM-1.136-4.08q.112,0,.112.24a4.456,4.456,0,0,1-.424,1.264A5.68,5.68,0,0,1-2.728-.768a2.9,2.9,0,0,1-2.1.832,2.417,2.417,0,0,1-1.712-.64,2.566,2.566,0,0,1-.688-1.968,5.755,5.755,0,0,1,.576-2.472,5.751,5.751,0,0,1,1.5-2,2.969,2.969,0,0,1,1.92-.776,1.8,1.8,0,0,1,1,.264.852.852,0,0,1,.408.76A1.461,1.461,0,0,1-2.456-5.68a5.994,5.994,0,0,1-1.64.928,10.027,10.027,0,0,1-2.08.576,5.692,5.692,0,0,0-.192,1.44,2.142,2.142,0,0,0,.44,1.44,1.566,1.566,0,0,0,1.256.512,2.529,2.529,0,0,0,2-.88,8.323,8.323,0,0,0,1.28-1.984q.032-.064.112-.248T-1.136-4.08ZM-2.544-6.592a.441.441,0,0,0-.264-.4,1.267,1.267,0,0,0-.616-.144,1.982,1.982,0,0,0-1.168.4,3.723,3.723,0,0,0-.936.96,3.374,3.374,0,0,0-.488.992A5.715,5.715,0,0,0-4.464-5.2,6.645,6.645,0,0,0-3.1-5.936Q-2.544-6.336-2.544-6.592ZM6-2.24A2.034,2.034,0,0,1,5.432-.888a4.038,4.038,0,0,1-1.5,1.04A4.926,4.926,0,0,1,2,.544,2.239,2.239,0,0,1,1.072.416.39.39,0,0,1,.832.064q0-.144.368-.5T1.7-.8q.192,0,.192.08a.173.173,0,0,1-.08.128q-.08.064-.08.112,0,.064.2.128a1.616,1.616,0,0,0,.488.064A3.925,3.925,0,0,0,3.768-.536,3.256,3.256,0,0,0,4.88-1.184a1.158,1.158,0,0,0,.432-.848A.9.9,0,0,0,5.04-2.72,1.655,1.655,0,0,0,4.36-3.1q-.408-.12-1.368-.344-1.056-.24-1.64-.424a2.892,2.892,0,0,1-.936-.464A.872.872,0,0,1,.064-5.04,1.842,1.842,0,0,1,.816-6.448,5.8,5.8,0,0,1,2.544-7.456a4.673,4.673,0,0,1,1.5-.368q.544,0,.544.32a.891.891,0,0,1-.128.424.413.413,0,0,1-.384.232.391.391,0,0,1-.208-.072.412.412,0,0,0-.224-.072,3.956,3.956,0,0,0-1.008.208,4.031,4.031,0,0,0-1.248.624,1.225,1.225,0,0,0-.56,1.008.6.6,0,0,0,.44.568,11.609,11.609,0,0,0,1.64.456,1.9,1.9,0,0,0,.288.072A2.338,2.338,0,0,1,3.456-4a7.456,7.456,0,0,1,1.888.656A1.191,1.191,0,0,1,6-2.24Zm8.448-4.384a.461.461,0,0,1-.232.416,2.308,2.308,0,0,1-.84.224L11.728-5.7l-1.04.176q0,.832.024,1.744t.072,1.6a6.305,6.305,0,0,0,.224,1.424q.16.5.176.56a.373.373,0,0,1-.2.3.678.678,0,0,1-.376.136.234.234,0,0,1-.16-.056A.454.454,0,0,1,10.336,0a3.822,3.822,0,0,1-.184-.832q-.088-.608-.136-1.344Q9.968-2.832,9.944-3.7T9.92-5.392q-.9.144-1.84.352a8.382,8.382,0,0,1-1.008.176.637.637,0,0,1-.36-.112.348.348,0,0,1-.168-.3.266.266,0,0,1,.144-.272,1.286,1.286,0,0,1,.48-.064,4.121,4.121,0,0,0,.7-.088q.464-.088.592-.12Q9.536-6.032,9.92-6.1q0-.336-.032-.88-.032-.736-.032-1.12a8.927,8.927,0,0,1,.04-.968,2.317,2.317,0,0,1,.152-.616.475.475,0,0,1,.48-.32.278.278,0,0,1,.192.048.248.248,0,0,1,.048.176,5.247,5.247,0,0,1-.08.56,7.558,7.558,0,0,0-.08,1.232q0,.592.032,1.328l.016.432q.72-.112,2.848-.592a.358.358,0,0,0,.216-.224q.088-.192.184-.192a.51.51,0,0,1,.36.2A.6.6,0,0,1,14.448-6.624ZM-10.16,13.2a2.749,2.749,0,0,1-.536,1.576,3.929,3.929,0,0,1-1.5,1.264,4.82,4.82,0,0,1-2.2.488,6.431,6.431,0,0,1-1.648-.168q-.608-.168-.608-.472a1.277,1.277,0,0,1,.232-.536q.232-.376.36-.376.192,0,.192.08a.184.184,0,0,1-.056.112.2.2,0,0,0-.056.128q0,.048.2.144a2.687,2.687,0,0,0,.616.176,5.431,5.431,0,0,0,1.008.08,3.558,3.558,0,0,0,1.656-.368,2.916,2.916,0,0,0,1.1-.928,1.929,1.929,0,0,0,.384-1.088,1.449,1.449,0,0,0-.664-1.184,7.233,7.233,0,0,0-2.136-.944q-1.424-.464-2.2-.776A3.929,3.929,0,0,1-17.28,9.64a1.476,1.476,0,0,1-.48-1.112,2.369,2.369,0,0,1,.992-1.736A7.862,7.862,0,0,1-14.32,5.4a7.865,7.865,0,0,1,2.7-.536q.64,0,.688.256a3.141,3.141,0,0,1,.048.576q0,.24-.176.24a.4.4,0,0,1-.184-.056,1.832,1.832,0,0,0-.184-.088q-.1-.032-.224-.064a1.611,1.611,0,0,0-.368-.032,5.941,5.941,0,0,0-2,.432A7.981,7.981,0,0,0-16.04,7.2q-.856.64-.856,1.232a1.084,1.084,0,0,0,.392.832,3.3,3.3,0,0,0,1.048.6q.656.248,1.856.616A8.162,8.162,0,0,1-11,11.632,1.912,1.912,0,0,1-10.16,13.2Zm7.488-1.28q.112,0,.112.24a4.456,4.456,0,0,1-.424,1.264,5.68,5.68,0,0,1-1.28,1.808,2.9,2.9,0,0,1-2.1.832,2.417,2.417,0,0,1-1.712-.64,2.566,2.566,0,0,1-.688-1.968,5.755,5.755,0,0,1,.576-2.472,5.751,5.751,0,0,1,1.5-2,2.969,2.969,0,0,1,1.92-.776,1.8,1.8,0,0,1,1,.264.852.852,0,0,1,.408.76,1.461,1.461,0,0,1-.632,1.088,5.994,5.994,0,0,1-1.64.928,10.027,10.027,0,0,1-2.08.576,5.692,5.692,0,0,0-.192,1.44,2.142,2.142,0,0,0,.44,1.44,1.566,1.566,0,0,0,1.256.512,2.529,2.529,0,0,0,2-.88,8.323,8.323,0,0,0,1.28-1.984q.032-.064.112-.248T-2.672,11.92ZM-4.08,9.408a.441.441,0,0,0-.264-.4,1.267,1.267,0,0,0-.616-.144,1.982,1.982,0,0,0-1.168.4,3.723,3.723,0,0,0-.936.96,3.374,3.374,0,0,0-.488.992A5.715,5.715,0,0,0-6,10.8a6.645,6.645,0,0,0,1.368-.736Q-4.08,9.664-4.08,9.408Zm4.336,6.16q0,.16-.208.256a1.094,1.094,0,0,1-.464.1q-.192,0-.36-.456A4.262,4.262,0,0,1-.944,14.08q.016-1.808.056-4.368t.072-3.856a2.675,2.675,0,0,1,.168-.864.544.544,0,0,1,.536-.4.165.165,0,0,1,.168.136,2.191,2.191,0,0,1,.04.52q0,.016-.008.1T.08,5.664q-.288,4.208-.288,8.208A2.917,2.917,0,0,0,.024,14.96Q.256,15.536.256,15.568Zm3.2,0q0,.16-.208.256a1.094,1.094,0,0,1-.464.1q-.192,0-.36-.456a4.262,4.262,0,0,1-.168-1.384q.016-1.808.056-4.368t.072-3.856a2.675,2.675,0,0,1,.168-.864.544.544,0,0,1,.536-.4.165.165,0,0,1,.168.136,2.191,2.191,0,0,1,.04.52q0,.016-.008.1t-.008.312q-.288,4.208-.288,8.208a2.917,2.917,0,0,0,.232,1.088Q3.456,15.536,3.456,15.568Zm7.7-3.648q.112,0,.112.24a4.456,4.456,0,0,1-.424,1.264,5.68,5.68,0,0,1-1.28,1.808,2.9,2.9,0,0,1-2.1.832,2.417,2.417,0,0,1-1.712-.64,2.566,2.566,0,0,1-.688-1.968,5.755,5.755,0,0,1,.576-2.472,5.751,5.751,0,0,1,1.5-2,2.969,2.969,0,0,1,1.92-.776,1.8,1.8,0,0,1,1,.264.852.852,0,0,1,.408.76,1.461,1.461,0,0,1-.632,1.088,5.994,5.994,0,0,1-1.64.928,10.027,10.027,0,0,1-2.08.576,5.692,5.692,0,0,0-.192,1.44,2.142,2.142,0,0,0,.44,1.44,1.566,1.566,0,0,0,1.256.512,2.529,2.529,0,0,0,2-.88,8.323,8.323,0,0,0,1.28-1.984q.032-.064.112-.248T11.152,11.92ZM9.744,9.408a.441.441,0,0,0-.264-.4,1.267,1.267,0,0,0-.616-.144,1.982,1.982,0,0,0-1.168.4,3.723,3.723,0,0,0-.936.96,3.374,3.374,0,0,0-.488.992A5.715,5.715,0,0,0,7.824,10.8a6.645,6.645,0,0,0,1.368-.736Q9.744,9.664,9.744,9.408Zm8.272-.144a.5.5,0,0,1-.2.328.561.561,0,0,1-.344.184.317.317,0,0,1-.216-.1,1.881,1.881,0,0,1-.232-.272.971.971,0,0,0-.3-.272.715.715,0,0,0-.376-.112q-.464,0-1.248,1.224a18.981,18.981,0,0,0-1.536,3.08q.016.368.056.928t.056.832l.048.64a.776.776,0,0,1-.1.392.37.37,0,0,1-.352.168q-.272,0-.352-.728t-.1-2.12q-.016-.352-.024-1.008t-.04-1.568Q12.72,9.488,12.72,8.9q0-.368.448-.368a.3.3,0,0,1,.328.232,4.539,4.539,0,0,1,.056.888v2.544a12.771,12.771,0,0,1,1.04-2.128,6.206,6.206,0,0,1,1.1-1.368,1.542,1.542,0,0,1,.952-.472,1.484,1.484,0,0,1,.672.16,1.459,1.459,0,0,1,.512.408A.784.784,0,0,1,18.016,9.264Z" transform="translate(605 416.192) rotate(-22)"/><line class="d" y1="18" x2="33" transform="translate(554.1 430.2)"/><line class="a" y1="18" x2="33" transform="translate(553.5 430.5)"/><path class="e" d="M4.231,1.479a1,1,0,0,1,1.727,0L9.312,7.223a1,1,0,0,1-.864,1.5H1.742a1,1,0,0,1-.864-1.5Z" transform="translate(647.783 391.584) rotate(58)"/><path class="f" d="M-2011.713-549.211l-1.757-2.812,6.67-3.851a.986.986,0,0,1-.085.71l-3.094,5.888a.991.991,0,0,1-.886.535A.99.99,0,0,1-2011.713-549.211Z" transform="translate(2656.572 952.584)"/><path class="e" d="M0,0,5.742,3.8,12,0V24L5.742,29.316,0,24Z" transform="translate(551.306 457.053) rotate(-120)"/><path class="f" d="M-2010.977-536.321l.4-6.5-.069-.038,22.081-12.748.083.029-1.733,7.63-20.607,11.9Z" transform="translate(2562.306 993.002)"/></g></svg>