<svg xmlns="http://www.w3.org/2000/svg" xmlns:xlink="http://www.w3.org/1999/xlink" width="59.596" height="62.8" viewBox="0 0 59.596 62.8"><defs><clipPath id="a"><path d="M379.322,429.932,352.5,415.6l10.477-22.629,29.472,15.746Z" transform="translate(-352.499 -392.972)" fill="none"/></clipPath><clipPath id="b"><path d="M367.79,414.043l-15.292-8.17,5.973-12.9,16.8,8.977Z" transform="translate(-352.499 -392.972)" fill="none"/></clipPath><linearGradient id="c" x1="0.5" x2="0.5" y2="1" gradientUnits="objectBoundingBox"><stop offset="0" stop-color="#fff"/><stop offset="1" stop-color="#fff"/></linearGradient></defs><g transform="translate(-875.958 -435.757)"><g transform="translate(377.451 296.814) rotate(-30)"><path d="M379.322,429.932,352.5,415.6l10.477-22.629,29.472,15.746Z" transform="translate(0 6.535)" fill="#5b877c"/><path d="M389.811,413.393,357.4,396.076l2.173-7.47,34.918,18.656Z" transform="translate(4.268 2.732)" fill="#446d5f"/><g transform="translate(370.609 385.468)"><path d="M384.173,389.356c-4.621-3.4-16.058,8.582-16.058,8.582,1.265,1.8,10.885,5.044,14.705,5.564S388.792,392.761,384.173,389.356ZM370.025,398.3s11.3-7.777,12.024-5.633S385.011,404.439,370.025,398.3Z" transform="translate(-357.009 -382.612)" fill="#db5268"/><path d="M362.582,393.219c2.133,2.408,8.847,7.575,10.679,7.618,0,0,3.01-13.493-1.495-15.119S360.449,390.809,362.582,393.219Zm7.869-4.49c1.826-.49,1.669,10.954,1.669,10.954C360.915,392.134,368.626,389.219,370.451,388.729Z" transform="translate(-362.179 -385.468)" fill="#db5268"/></g><g transform="translate(352.499 399.508)"><g clip-path="url(#a)"><g transform="translate(-11.841 -3.828)"><rect width="3.856" height="44.479" transform="translate(14.412 0.08) rotate(0.32)" fill="#446d5f"/><rect width="3.856" height="44.478" transform="matrix(1, 0.006, -0.006, 1, 21.326, 0.118)" fill="#446d5f"/><rect width="3.856" height="44.478" transform="translate(0.25 0) rotate(0.323)" fill="#446d5f"/><rect width="3.856" height="44.479" transform="translate(7.163 0.039) rotate(0.323)" fill="#446d5f"/><g transform="translate(27.988 0.157)"><rect width="3.855" height="44.478" transform="translate(14.413 0.08) rotate(0.323)" fill="#446d5f"/><rect width="3.856" height="44.479" transform="translate(21.326 0.118) rotate(0.323)" fill="#446d5f"/><rect width="3.855" height="44.479" transform="translate(0.25) rotate(0.323)" fill="#446d5f"/><rect width="3.856" height="44.478" transform="translate(7.163 0.039) rotate(0.323)" fill="#446d5f"/></g></g></g></g><rect width="3.856" height="32.627" transform="translate(379.97 399.822) rotate(28.114)" fill="#d44259"/></g><g transform="translate(373.949 311.056) rotate(-30)"><path d="M367.79,414.043l-15.292-8.17,5.973-12.9,16.8,8.977Z" transform="translate(0 0.499)" fill="#d85e5e"/><path d="M375.876,402.737,357.4,392.864l1.239-4.259,19.906,10.635Z" transform="translate(0.326 0.209)" fill="#446d5f"/><g transform="translate(362.823 385.468)"><path d="M377.269,389.095c-2.634-1.94-9.154,4.892-9.154,4.892.721,1.025,6.205,2.875,8.383,3.172S379.9,391.036,377.269,389.095Zm-8.065,5.1s6.441-4.434,6.855-3.211S377.747,397.693,369.2,394.2Z" transform="translate(-361.783 -385.25)" fill="#d9af3b"/><path d="M362.408,389.887c1.216,1.373,5.044,4.319,6.088,4.343,0,0,1.716-7.692-.852-8.619S361.192,388.513,362.408,389.887Zm4.486-2.56c1.041-.279.951,6.245.951,6.245C361.458,389.268,365.854,387.606,366.894,387.327Z" transform="translate(-362.179 -385.468)" fill="#d9af3b"/></g><g transform="translate(352.499 393.472)"><g clip-path="url(#b)"><g transform="translate(-6.751 -2.182)"><g transform="translate(0 0)"><rect width="2.198" height="25.356" transform="translate(8.216 0.045) rotate(0.32)" fill="#4d7e67"/><rect width="2.198" height="25.356" transform="matrix(1, 0.006, -0.006, 1, 12.157, 0.068)" fill="#4d7e67"/><g transform="translate(0 0)"><rect width="2.198" height="25.356" transform="translate(0.143 0) rotate(0.323)" fill="#4d7e67"/><rect width="2.198" height="25.356" transform="translate(4.084 0.022) rotate(0.323)" fill="#4d7e67"/></g></g><g transform="translate(15.956 0.09)"><rect width="2.198" height="25.356" transform="translate(8.216 0.045) rotate(0.323)" fill="#4d7e67"/><rect width="2.198" height="25.356" transform="translate(12.157 0.068) rotate(0.323)" fill="#4d7e67"/><g transform="translate(0 0)"><rect width="2.198" height="25.356" transform="translate(0.143 0) rotate(0.323)" fill="#4d7e67"/><rect width="2.198" height="25.356" transform="translate(4.084 0.022) rotate(0.323)" fill="#4d7e67"/></g></g></g></g></g><rect width="2.198" height="18.6" transform="translate(368.16 393.651) rotate(28.114)" fill="#d9b553"/></g><path d="M-.038-.01S-2.077,3.1,8.9,3.1c3.359,0,8.133-2.68,13.113-3.1C26.472-.39,29.769,1.937,33.837,2A29.291,29.291,0,0,0,43.865-.01v13.82H-.038Z" transform="translate(881.225 480)" fill="url(#c)"/></g></svg>