<svg xmlns="http://www.w3.org/2000/svg" width="148.638" height="148.638" viewBox="0 0 148.638 148.638">
  <g id="组_442" data-name="组 442" transform="translate(-765.082 -1999.362)">
    <path id="路径_1435" data-name="路径 1435" d="M765.082,2148,913.72,1999.362h-89.44l-59.2,59.2Z" fill="#ffcb3d"/>
    <path id="路径_1434" data-name="路径 1434" d="M-45.276-8.008a4.061,4.061,0,0,1,2.068,1.4A3.851,3.851,0,0,1-42.46-4.2a3.559,3.559,0,0,1-1.573,3.113A8.042,8.042,0,0,1-48.62,0h-7.964V-15.4h7.524a7.365,7.365,0,0,1,4.323,1.078A3.412,3.412,0,0,1-43.23-11.4a3.755,3.755,0,0,1-.539,2A3.775,3.775,0,0,1-45.276-8.008Zm-7.766-4.708v3.63H-49.5a3.576,3.576,0,0,0,2-.462,1.541,1.541,0,0,0,.682-1.364,1.514,1.514,0,0,0-.682-1.353,3.645,3.645,0,0,0-2-.451Zm4.158,10.032a3.949,3.949,0,0,0,2.123-.462,1.582,1.582,0,0,0,.715-1.43q0-1.914-2.838-1.914h-4.158v3.806ZM-28.4-5.874q0,.066-.066.924h-8.954a2.789,2.789,0,0,0,1.144,1.738,3.789,3.789,0,0,0,2.244.638A4.544,4.544,0,0,0-32.4-2.849a3.97,3.97,0,0,0,1.331-.869l1.826,1.98A6.137,6.137,0,0,1-34.122.176a7.726,7.726,0,0,1-3.542-.781A5.725,5.725,0,0,1-40.04-2.772a5.971,5.971,0,0,1-.836-3.146,6.048,6.048,0,0,1,.825-3.135,5.78,5.78,0,0,1,2.266-2.178,6.653,6.653,0,0,1,3.223-.781,6.6,6.6,0,0,1,3.146.748,5.46,5.46,0,0,1,2.211,2.145A6.4,6.4,0,0,1-28.4-5.874ZM-34.54-9.416a2.956,2.956,0,0,0-1.958.66,2.81,2.81,0,0,0-.968,1.8h5.83A2.838,2.838,0,0,0-32.6-8.745,2.893,2.893,0,0,0-34.54-9.416ZM-22.132.176a11.5,11.5,0,0,1-2.882-.363A7.53,7.53,0,0,1-27.258-1.1l1.144-2.464a7.2,7.2,0,0,0,1.914.825A8.022,8.022,0,0,0-22-2.42q2.178,0,2.178-1.078a.763.763,0,0,0-.594-.726A8.8,8.8,0,0,0-22.242-4.6a17.616,17.616,0,0,1-2.4-.506,3.72,3.72,0,0,1-1.639-1.012,2.878,2.878,0,0,1-.693-2.068,3.239,3.239,0,0,1,.649-1.991,4.177,4.177,0,0,1,1.892-1.353,8.081,8.081,0,0,1,2.937-.484,11.527,11.527,0,0,1,2.5.275,6.98,6.98,0,0,1,2.057.759l-1.144,2.442a6.83,6.83,0,0,0-3.41-.88,3.469,3.469,0,0,0-1.65.308.905.905,0,0,0-.55.792.786.786,0,0,0,.594.77,10.516,10.516,0,0,0,1.892.418,20.252,20.252,0,0,1,2.376.517,3.569,3.569,0,0,1,1.606,1,2.84,2.84,0,0,1,.682,2.024,3.126,3.126,0,0,1-.66,1.958A4.213,4.213,0,0,1-19.129-.3,8.576,8.576,0,0,1-22.132.176ZM-6.8-.572a3.528,3.528,0,0,1-1.243.561A6.284,6.284,0,0,1-9.592.176,4.608,4.608,0,0,1-12.859-.9,4.125,4.125,0,0,1-14.014-4.07V-8.932H-15.84v-2.64h1.826v-2.882h3.432v2.882h2.948v2.64h-2.948v4.818A1.616,1.616,0,0,0-10.2-2.959a1.427,1.427,0,0,0,1.089.407,2.206,2.206,0,0,0,1.386-.44ZM8.272-15.4a8.555,8.555,0,0,1,3.553.682,5.279,5.279,0,0,1,2.321,1.936,5.333,5.333,0,0,1,.814,2.97,5.347,5.347,0,0,1-.814,2.959,5.184,5.184,0,0,1-2.321,1.936,8.677,8.677,0,0,1-3.553.671H5.17V0H1.606V-15.4Zm-.2,8.25a3.743,3.743,0,0,0,2.442-.693,2.414,2.414,0,0,0,.836-1.969,2.439,2.439,0,0,0-.836-1.991A3.743,3.743,0,0,0,8.074-12.5H5.17V-7.15Zm12.452-3.124a3.816,3.816,0,0,1,1.661-1.3,6.165,6.165,0,0,1,2.409-.44v3.168q-.572-.044-.77-.044a3.146,3.146,0,0,0-2.31.825,3.334,3.334,0,0,0-.836,2.475V0H17.248V-11.836h3.278Zm6.116-1.562h3.432V0H26.642Zm1.716-1.65a2.177,2.177,0,0,1-1.54-.55,1.784,1.784,0,0,1-.594-1.364,1.784,1.784,0,0,1,.594-1.364,2.177,2.177,0,0,1,1.54-.55,2.231,2.231,0,0,1,1.54.528,1.693,1.693,0,0,1,.594,1.32,1.868,1.868,0,0,1-.594,1.419A2.152,2.152,0,0,1,28.358-13.486ZM38.984.176a7.277,7.277,0,0,1-3.4-.781,5.848,5.848,0,0,1-2.354-2.167,5.912,5.912,0,0,1-.847-3.146,5.912,5.912,0,0,1,.847-3.146,5.848,5.848,0,0,1,2.354-2.167,7.277,7.277,0,0,1,3.4-.781,6.586,6.586,0,0,1,3.267.781A4.632,4.632,0,0,1,44.286-9l-2.662,1.43A2.91,2.91,0,0,0,38.962-9.2a3.012,3.012,0,0,0-2.222.88,3.24,3.24,0,0,0-.88,2.4,3.24,3.24,0,0,0,.88,2.4,3.012,3.012,0,0,0,2.222.88,2.88,2.88,0,0,0,2.662-1.628l2.662,1.452a4.725,4.725,0,0,1-2.035,2.2A6.512,6.512,0,0,1,38.984.176Zm18.722-6.05q0,.066-.066.924H48.686A2.789,2.789,0,0,0,49.83-3.212a3.789,3.789,0,0,0,2.244.638,4.544,4.544,0,0,0,1.639-.275,3.97,3.97,0,0,0,1.331-.869l1.826,1.98A6.137,6.137,0,0,1,51.986.176a7.726,7.726,0,0,1-3.542-.781,5.725,5.725,0,0,1-2.376-2.167,5.971,5.971,0,0,1-.836-3.146,6.048,6.048,0,0,1,.825-3.135,5.78,5.78,0,0,1,2.266-2.178,6.653,6.653,0,0,1,3.223-.781,6.6,6.6,0,0,1,3.146.748A5.46,5.46,0,0,1,56.9-9.119,6.4,6.4,0,0,1,57.706-5.874ZM51.568-9.416a2.956,2.956,0,0,0-1.958.66,2.81,2.81,0,0,0-.968,1.8h5.83A2.838,2.838,0,0,0,53.5-8.745,2.893,2.893,0,0,0,51.568-9.416Z" transform="matrix(0.719, -0.695, 0.695, 0.719, 823.168, 2055.753)" fill="#8e5c05"/>
  </g>
</svg>
