<svg xmlns="http://www.w3.org/2000/svg" width="13.314" height="13.314" viewBox="0 0 13.314 13.314"><defs><style>.a{fill:#a8a8a8;}</style></defs><path class="a" d="M16149.019-4874.633l-4.948-4.948-4.95,4.948a1,1,0,0,1-1.41,0,1,1,0,0,1,0-1.415l4.947-4.947-4.951-4.951a1,1,0,0,1,0-1.415,1,1,0,0,1,1.414,0l4.951,4.951,4.951-4.951a1,1,0,0,1,1.415,0,1,1,0,0,1,0,1.415l-4.952,4.95,4.948,4.948a1,1,0,0,1,0,1.415,1,1,0,0,1-.706.292A1,1,0,0,1,16149.019-4874.633Z" transform="translate(-16137.414 4887.655)"/></svg>