<svg xmlns="http://www.w3.org/2000/svg" xmlns:xlink="http://www.w3.org/1999/xlink" width="41" height="49.151" viewBox="0 0 41 49.151"><defs><style>.a{fill:url(#a);}.b{fill:#ffe24e;opacity:0.42;}.c{fill:url(#b);}.d{fill:url(#c);}.e{fill:url(#e);}.f{fill:#fff;}</style><linearGradient id="a" x1="0.5" x2="0.5" y2="1" gradientUnits="objectBoundingBox"><stop offset="0" stop-color="#fc8295"/><stop offset="1" stop-color="#f75b73"/></linearGradient><linearGradient id="b" y1="0.5" x2="1" y2="0.5" gradientUnits="objectBoundingBox"><stop offset="0.002" stop-color="#ffc20a"/><stop offset="1" stop-color="#ffd00f"/></linearGradient><linearGradient id="c" y1="0.5" x2="1" y2="0.5" gradientUnits="objectBoundingBox"><stop offset="0" stop-color="#ffeb66"/><stop offset="1" stop-color="#ffdb26"/></linearGradient><linearGradient id="e" y1="0.5" x2="1" y2="0.5" gradientUnits="objectBoundingBox"><stop offset="0" stop-color="#ffe14d"/><stop offset="1" stop-color="#ffeb54"/></linearGradient></defs><g transform="translate(-885 -431.424)"><rect class="a" width="41" height="36" rx="5" transform="translate(885 444.576)"/><rect class="b" width="6" height="35" rx="2" transform="translate(903 445)"/><rect class="b" width="6" height="4.199" rx="2" transform="translate(926 459.5) rotate(90)"/><rect class="b" width="6" height="4.199" rx="2" transform="translate(889.199 459.5) rotate(90)"/><g transform="translate(945.32 616.63)"><g transform="translate(-57.028 -185.206)"><path class="c" d="M-38.25-150.5c-3.564,0-10.27.117-13.674-.834-1.478-.412-3.847-1.253-3.5-5.233a5.2,5.2,0,0,1,.366-1.568,4.355,4.355,0,0,0,3.133,2.327,39.388,39.388,0,0,0,8.635.821C-40.56-152.682-38.25-150.5-38.25-150.5Z" transform="translate(55.458 164.797)"/><path class="d" d="M-38.251-159.348c-.136-.127-8.816-8.308-12.311-9.63-1.365-.516-4.533-.191-4.86,3.564-.022.252-.033.491-.034.719h0v4.913l.013,0a8.091,8.091,0,0,1,.022-1.16,5.2,5.2,0,0,1,.366-1.568,3.592,3.592,0,0,1,4.495-2c1.716.65,4.683,2.953,7.273,5.143,2.729,2.306,5.039,4.488,5.039,4.488v-4.475Z" transform="translate(55.458 169.17)"/><path class="c" d="M-26.954-150.5c3.565,0,10.271.117,13.674-.834,1.479-.412,3.847-1.253,3.5-5.233a5.234,5.234,0,0,0-.365-1.568,4.359,4.359,0,0,1-3.134,2.327,39.386,39.386,0,0,1-8.634.821C-24.643-152.682-26.954-150.5-26.954-150.5Z" transform="translate(44.162 164.797)"/><path class="e" d="M-26.953-159.348c.136-.127,8.816-8.308,12.312-9.63,1.365-.516,4.533-.191,4.86,3.564q.033.378.034.719h0v4.913l-.013,0a8,8,0,0,0-.022-1.16,5.234,5.234,0,0,0-.365-1.568,3.593,3.593,0,0,0-4.5-2c-1.716.65-4.683,2.953-7.273,5.143-2.729,2.306-5.04,4.488-5.04,4.488v-4.475Z" transform="translate(44.162 169.17)"/></g></g><path class="f" d="M-10.557-12.69l3.528.108,1.854-.036a3.824,3.824,0,0,1,.054.72,1.185,1.185,0,0,1-.135.648.515.515,0,0,1-.459.2q-.324,0-1.377-.09t-1.557-.09L-9.3-11.2q-.072.684-.864,4.374,1.368-.126,2.286-.126A5.439,5.439,0,0,1-6.453-6.8a3.034,3.034,0,0,1-.324,1.3A9.072,9.072,0,0,0-8.613-5.67a12.7,12.7,0,0,0-1.8.108,26.956,26.956,0,0,0-.666,4.95v.306a6.629,6.629,0,0,1-2.736.36h-.18a31.252,31.252,0,0,1,.837-5.094q.837-3.87,1.017-5.562a1.767,1.767,0,0,0-.18-.693,3.117,3.117,0,0,0-.378-.657l-.18-.252.054-.27A12.335,12.335,0,0,1-10.557-12.69ZM-5.229.054h-.126A3.565,3.565,0,0,1-5.391-.6,19.9,19.9,0,0,1-4.9-3.366,24.469,24.469,0,0,0-4.419-5.94a2.091,2.091,0,0,0-.5-1.224l-.162-.216.018-.234a12.809,12.809,0,0,1,3.114-.27A3.214,3.214,0,0,1-1.737-6.57a4.27,4.27,0,0,1,.828-.864,1.981,1.981,0,0,1,1.3-.54q.972,0,.972,1.692-.09.108-.243.279A3.538,3.538,0,0,1,.5-5.526a2.3,2.3,0,0,1-.891.378,4.155,4.155,0,0,1-.306-.486q-.288-.486-.432-.486a1.949,1.949,0,0,0-.792.54A29.79,29.79,0,0,0-2.745-.756q0,.4.018.558A7.991,7.991,0,0,1-5.229.054ZM.891-3.114A4.7,4.7,0,0,1,2.25-6.669a4.339,4.339,0,0,1,3.087-1.3,2.8,2.8,0,0,1,1.746.522,1.666,1.666,0,0,1,.684,1.4A2.392,2.392,0,0,1,7.326-4.59a3.074,3.074,0,0,1-1.071.918,8.163,8.163,0,0,1-2.34.792l-.432.054q.126,1.692,1.386,1.692a2.265,2.265,0,0,0,.918-.216,3.51,3.51,0,0,0,.756-.432L6.813-2l.432.576A2.923,2.923,0,0,1,6.669-.9a7.894,7.894,0,0,1-.81.54A4.654,4.654,0,0,1,3.573.216,2.4,2.4,0,0,1,1.611-.666,3.767,3.767,0,0,1,.891-3.114Zm2.574-.594a2.439,2.439,0,0,0,1.458-.774,2.306,2.306,0,0,0,.54-1.584q0-.972-.576-.972-.684,0-1.053,1.161A7.184,7.184,0,0,0,3.465-3.708Zm4.608.594A4.7,4.7,0,0,1,9.432-6.669a4.339,4.339,0,0,1,3.087-1.3,2.8,2.8,0,0,1,1.746.522,1.666,1.666,0,0,1,.684,1.4,2.392,2.392,0,0,1-.441,1.467,3.074,3.074,0,0,1-1.071.918,8.163,8.163,0,0,1-2.34.792l-.432.054q.126,1.692,1.386,1.692a2.265,2.265,0,0,0,.918-.216,3.51,3.51,0,0,0,.756-.432L13.995-2l.432.576a2.923,2.923,0,0,1-.576.522,7.894,7.894,0,0,1-.81.54,4.654,4.654,0,0,1-2.286.576A2.4,2.4,0,0,1,8.793-.666,3.767,3.767,0,0,1,8.073-3.114Zm2.574-.594A2.439,2.439,0,0,0,12.1-4.482a2.306,2.306,0,0,0,.54-1.584q0-.972-.576-.972-.684,0-1.053,1.161A7.184,7.184,0,0,0,10.647-3.708Z" transform="translate(905.523 466.813)"/></g></svg>