<svg xmlns="http://www.w3.org/2000/svg" xmlns:xlink="http://www.w3.org/1999/xlink" width="56.834" height="54.972" viewBox="0 0 56.834 54.972"><defs><style>.a{fill:#f68019;}.b{fill:#fff;}.c{fill:url(#a);}</style><linearGradient id="a" x1="-2.36" y1="-0.019" x2="1.688" y2="0.734" gradientUnits="objectBoundingBox"><stop offset="0.006" stop-color="#e4c784"/><stop offset="0.098" stop-color="#d8c790"/><stop offset="0.165" stop-color="#897551"/><stop offset="0.336" stop-color="#dbbf84"/><stop offset="0.596" stop-color="#836f47"/><stop offset="0.837" stop-color="#dec185"/><stop offset="0.848" stop-color="#e3c589"/><stop offset="0.95" stop-color="#8e7959"/></linearGradient></defs><path class="a" d="M395.811,69.426H350.579c1.162,12.982,1.9,21.931,3.614,35.786,15.2-.124,23.711.494,38.493,0-.1-11.815,2.207-20.964,3.125-32.917C395.843,71.374,395.777,70.349,395.811,69.426Z" transform="translate(-348.361 -50.434)"/><g transform="translate(6.755 15.473)"><path class="b" d="M426.417,124.454l.852,1.726,1.905.277L427.8,127.8l.325,1.9-1.7-.9-1.7.9.325-1.9-1.378-1.344,1.905-.277Z" transform="translate(-390.245 -92.946)"/></g><path class="c" d="M401.325,37.518a4.293,4.293,0,0,0-5.069.08c-1.705,1.259-1.98,4.2.311,5.018a2.128,2.128,0,0,0,2.672-.908,1.147,1.147,0,0,0-.519-1.493,1.082,1.082,0,0,0-1.432.387,1.108,1.108,0,0,0-.121.425.92.92,0,0,1-.557-.279,1.562,1.562,0,0,1,.1-1.963,3.051,3.051,0,0,1,3.907-.515c1.164.92.973,2.673.311,3.824a11.849,11.849,0,0,1-3.164,3.212,23.21,23.21,0,0,1-8.282,4.11,20.32,20.32,0,0,1-9.67.113,29.251,29.251,0,0,1-5.09-1.593,10.934,10.934,0,0,1-2.906-1.749.681.681,0,0,0,.1-.152l.052-.117.188-.077a34.775,34.775,0,0,0,7.485-.517c2.585-.423,5.276-1.038,7.387-2.674.685-.531,1.754-1.451,1.225-2.427s-1.9-.61-2.792-.432a36.861,36.861,0,0,0-7.548,2.65c-1.368.6-2.732,1.215-4.119,1.776q-.7.282-1.4.542c.018-.036.035-.072.054-.108.969-.694,1.928-1.4,2.914-2.075q3.664-2.5,7.407-4.875c.735-.467,2.365-1.051,1.746-2.192-.555-1.023-2.054-.493-2.89-.21a17.316,17.316,0,0,0-6.152,4c-.4.374-.8.757-1.2,1.149a35.753,35.753,0,0,0,1.848-8.073.185.185,0,0,0-.3-.149c-1.686,1.41-2.431,3.684-3.153,5.689-.492,1.365-.934,2.745-1.34,4.135,0-.76-.014-1.519-.039-2.278a48.178,48.178,0,0,0-.417-5.092c-.2-1.439-.362-3.161-1.33-4.318a.1.1,0,0,0-.1-.032c-.922.178-1.042,1.3-1.15,2.065a25.378,25.378,0,0,0-.177,4.616,30.979,30.979,0,0,0,.4,3.672c-.342-.91-.682-1.82-1.032-2.726a28.039,28.039,0,0,0-3.307-6.75.244.244,0,0,0-.422.144A20.718,20.718,0,0,0,365.6,40.1c.347.847.686,1.735,1.091,2.578-.571-.436-1.132-.887-1.673-1.373a32.554,32.554,0,0,1-2.565-2.574c-.809-.91-1.5-1.929-2.343-2.806-.539-.56-1.544-1.517-2.314-.766a2.21,2.21,0,0,0-.143,2.324c.785,2.127,2.744,3.645,4.528,4.913q1.351.96,2.783,1.795-1-.238-1.982-.526a40.289,40.289,0,0,1-7.895-3.189c-.275-.149-.729.123-.517.455a11.176,11.176,0,0,0,6.516,4.429,21.185,21.185,0,0,0,7.685.782l.2.085a11.74,11.74,0,0,1-4.812,2.241,21.289,21.289,0,0,1-7.534.389,17.018,17.018,0,0,1-7.188-2.528c-1.883-1.226-4.414-3.669-2.976-6.137a2.1,2.1,0,0,1,2.97-.793,1.245,1.245,0,0,1,.6,1.315c-.059.233-.194.452-.428.471a.537.537,0,0,0,.059-.488.928.928,0,0,0-1.7-.216,1.3,1.3,0,0,0,.607,1.838c1.471.776,2.766-.792,2.39-2.214a2.532,2.532,0,0,0-2.82-1.69,2.921,2.921,0,0,0-2.409,2.5c-.67,3.306,2.742,5.75,5.3,7.025A19.027,19.027,0,0,0,361.1,49.709c2.76-.227,5.872-.916,8.013-2.772.009,2.075.172,4.158.266,6.223.122,2.7,2.579,4.492,2.57.988q-.009-3.584-.152-7.16a10.079,10.079,0,0,0,2.661,1.7,27.931,27.931,0,0,0,6.015,1.889,21.288,21.288,0,0,0,12.258-1.2,24.644,24.644,0,0,0,5.253-2.964,12.2,12.2,0,0,0,4.069-4.268A3.911,3.911,0,0,0,401.325,37.518Zm-25.02,6.493c2.135-1,4.276-2.02,6.5-2.814,1.158-.414,2.326-.76,3.517-1.065.246-.063.5-.131.747-.173l.321-.037.561.407a1,1,0,0,1-.033.513c-.167.629-.894,1.052-1.411,1.369a19.076,19.076,0,0,1-6.7,2.285,53.306,53.306,0,0,1-6.027.657Q375.051,44.6,376.305,44.012Zm-1.592-2.429a30.792,30.792,0,0,1,4.462-3.937,13.17,13.17,0,0,1,2.574-1.417,7.629,7.629,0,0,1,1.375-.448c.184-.036.649-.118.727.135s-.639.592-.786.685q-2.864,1.814-5.684,3.7c-1.061.708-2.111,1.432-3.17,2.144q-.338.228-.679.454C373.91,42.442,374.306,42.005,374.713,41.582Zm-1.63-3.07c.385-1.075.77-2.156,1.2-3.216a8.181,8.181,0,0,1,1.349-2.363,39.288,39.288,0,0,1-3.489,9.888,14.237,14.237,0,0,0-.817,1.188Q372.112,41.233,373.083,38.513Zm-11.5,6.215a11.839,11.839,0,0,1-5.309-2.834,38.261,38.261,0,0,0,5.845,2.419,40.167,40.167,0,0,0,3.929,1.015c.165.034.331.063.5.1A22.259,22.259,0,0,1,361.58,44.728Zm6.347.045A36.752,36.752,0,0,1,364,42.582a17.552,17.552,0,0,1-4.794-4.022c-.488-.661-1.212-1.762-1.015-2.629.169-.748.979.032,1.261.318a14.112,14.112,0,0,1,1.112,1.339,32.226,32.226,0,0,0,4.287,4.625,32.992,32.992,0,0,0,3.129,2.448q.079.079.162.152C368.069,44.8,368,44.784,367.927,44.772Zm-.018-1.214c-.113-.2-.219-.411-.316-.609-.566-1.152-1.05-2.357-1.517-3.552a24.2,24.2,0,0,1-1.809-7.242,14.566,14.566,0,0,1,1.265,2.566c.483,1.2.926,2.424,1.378,3.638q1.1,2.971,2.146,5.963Q368.475,43.951,367.909,43.559Zm.522-9.862a5.474,5.474,0,0,1,.434-2.785.627.627,0,0,1,.34-.3c.205-.049.226-.036.363.173a2.761,2.761,0,0,1,.293.737,10.1,10.1,0,0,1,.255,1.3,48.862,48.862,0,0,1,.53,6.357c.019,1.133.005,2.264-.055,3.395q-.047.876-.113,1.751v0a.575.575,0,0,0-.4.067.124.124,0,0,0-.012-.01A41.877,41.877,0,0,1,368.43,33.7ZM370.163,54.1c-.122-2.4-.159-4.843-.42-7.243a.413.413,0,0,0,.127.025.575.575,0,0,0,.434-.2,1.128,1.128,0,0,0,.914.05C371.108,51.557,370.342,57.651,370.163,54.1Z" transform="translate(-345.653 -30.324)"/><path class="b" d="M-10.557-12.69l3.528.108,1.854-.036a3.824,3.824,0,0,1,.054.72,1.185,1.185,0,0,1-.135.648.515.515,0,0,1-.459.2q-.324,0-1.377-.09t-1.557-.09L-9.3-11.2q-.072.684-.864,4.374,1.368-.126,2.286-.126A5.439,5.439,0,0,1-6.453-6.8a3.034,3.034,0,0,1-.324,1.3A9.072,9.072,0,0,0-8.613-5.67a12.7,12.7,0,0,0-1.8.108,26.956,26.956,0,0,0-.666,4.95v.306a6.629,6.629,0,0,1-2.736.36h-.18a31.252,31.252,0,0,1,.837-5.094q.837-3.87,1.017-5.562a1.767,1.767,0,0,0-.18-.693,3.117,3.117,0,0,0-.378-.657l-.18-.252.054-.27A12.335,12.335,0,0,1-10.557-12.69ZM-5.229.054h-.126A3.565,3.565,0,0,1-5.391-.6,19.9,19.9,0,0,1-4.9-3.366,24.469,24.469,0,0,0-4.419-5.94a2.091,2.091,0,0,0-.5-1.224l-.162-.216.018-.234a12.809,12.809,0,0,1,3.114-.27A3.214,3.214,0,0,1-1.737-6.57a4.27,4.27,0,0,1,.828-.864,1.981,1.981,0,0,1,1.3-.54q.972,0,.972,1.692-.09.108-.243.279A3.538,3.538,0,0,1,.5-5.526a2.3,2.3,0,0,1-.891.378,4.155,4.155,0,0,1-.306-.486q-.288-.486-.432-.486a1.949,1.949,0,0,0-.792.54A29.79,29.79,0,0,0-2.745-.756q0,.4.018.558A7.991,7.991,0,0,1-5.229.054ZM.891-3.114A4.7,4.7,0,0,1,2.25-6.669a4.339,4.339,0,0,1,3.087-1.3,2.8,2.8,0,0,1,1.746.522,1.666,1.666,0,0,1,.684,1.4A2.392,2.392,0,0,1,7.326-4.59a3.074,3.074,0,0,1-1.071.918,8.163,8.163,0,0,1-2.34.792l-.432.054q.126,1.692,1.386,1.692a2.265,2.265,0,0,0,.918-.216,3.51,3.51,0,0,0,.756-.432L6.813-2l.432.576A2.923,2.923,0,0,1,6.669-.9a7.894,7.894,0,0,1-.81.54A4.654,4.654,0,0,1,3.573.216,2.4,2.4,0,0,1,1.611-.666,3.767,3.767,0,0,1,.891-3.114Zm2.574-.594a2.439,2.439,0,0,0,1.458-.774,2.306,2.306,0,0,0,.54-1.584q0-.972-.576-.972-.684,0-1.053,1.161A7.184,7.184,0,0,0,3.465-3.708Zm4.608.594A4.7,4.7,0,0,1,9.432-6.669a4.339,4.339,0,0,1,3.087-1.3,2.8,2.8,0,0,1,1.746.522,1.666,1.666,0,0,1,.684,1.4,2.392,2.392,0,0,1-.441,1.467,3.074,3.074,0,0,1-1.071.918,8.163,8.163,0,0,1-2.34.792l-.432.054q.126,1.692,1.386,1.692a2.265,2.265,0,0,0,.918-.216,3.51,3.51,0,0,0,.756-.432L13.995-2l.432.576a2.923,2.923,0,0,1-.576.522,7.894,7.894,0,0,1-.81.54,4.654,4.654,0,0,1-2.286.576A2.4,2.4,0,0,1,8.793-.666,3.767,3.767,0,0,1,8.073-3.114Zm2.574-.594A2.439,2.439,0,0,0,12.1-4.482a2.306,2.306,0,0,0,.54-1.584q0-.972-.576-.972-.684,0-1.053,1.161A7.184,7.184,0,0,0,10.647-3.708Z" transform="translate(25.221 40.597)"/><path class="b" d="M364.62,75.24l.852,1.726,1.905.277L366,78.587l.325,1.9-1.7-.9-1.7.9.325-1.9-1.379-1.344,1.905-.277Z" transform="translate(-357.886 -52.578)"/><path class="b" d="M364.62,75.24l.852,1.726,1.905.277L366,78.587l.325,1.9-1.7-.9-1.7.9.325-1.9-1.379-1.344,1.905-.277Z" transform="translate(-324.449 -54.026)"/><path class="b" d="M439.723,66.907l.852,1.726,1.905.277L441.1,70.254l.325,1.9-1.7-.9-1.7.9.325-1.9-1.379-1.344,1.905-.277Z" transform="translate(-411.306 -23.953)"/><path class="b" d="M363.315,135.327l.852,1.726,1.905.277-1.379,1.344.325,1.9-1.7-.9-1.7.9.325-1.9-1.379-1.344,1.905-.277Z" transform="translate(-352.089 -87.345)"/></svg>