<svg xmlns="http://www.w3.org/2000/svg" xmlns:xlink="http://www.w3.org/1999/xlink" width="39.615" height="59.358" viewBox="0 0 39.615 59.358"><defs><style>.a{fill:#e97568;}.b{fill:#60bca4;}.c{clip-path:url(#a);}.d{fill:#e36565;}.e{mix-blend-mode:soft-light;isolation:isolate;}.f{fill:#fff;}.g{fill:#d25d50;}.h{fill:#733774;}.i{clip-path:url(#b);}.j{fill:#d54a4a;}.k{fill:#a43a2f;}.l,.o{fill:#532654;}.m{fill:url(#c);}.n{fill:#d02843;}.o{stroke:rgba(0,0,0,0);}.p{filter:url(#f);}</style><clipPath id="a"><path class="a" d="M860.092,453.264v25.852l16.84,6.032V447.921Z" transform="translate(14.767 4.106)"/></clipPath><clipPath id="b"><path class="b" d="M882.866,453.264v25.852l-22.774,6.032V447.921Z" transform="translate(31.607 4.106)"/></clipPath><radialGradient id="c" cx="0.5" cy="0.5" r="0.5" gradientUnits="objectBoundingBox"><stop offset="0" stop-color="#f97373"/><stop offset="1" stop-color="#bb0029"/></radialGradient><filter id="f" x="4.647" y="35.414" width="31.944" height="15.906" filterUnits="userSpaceOnUse"><feOffset dy="0.5" input="SourceAlpha"/><feGaussianBlur stdDeviation="0.5" result="g"/><feFlood flood-color="#a20303"/><feComposite operator="in" in2="g"/><feComposite in="SourceGraphic"/></filter></defs><g class="c" transform="translate(-874.858 -429.896)"><path class="d" d="M860.092,453.264v25.852l16.84,6.032V447.921Z" transform="translate(14.767 4.106)"/><g class="e" transform="translate(594.105 296.071)"><circle class="f" cx="0.272" cy="0.272" r="0.272" transform="translate(238.028 145.453)"/><circle class="f" cx="0.272" cy="0.272" r="0.272" transform="translate(244.496 145.453)"/><circle class="f" cx="0.272" cy="0.272" r="0.272" transform="translate(250.963 145.453)"/><circle class="f" cx="0.272" cy="0.272" r="0.272" transform="translate(257.431 145.453)"/><path class="f" d="M344.167,145.725a.272.272,0,1,1-.271-.272A.271.271,0,0,1,344.167,145.725Z" transform="translate(-79.726)"/><circle class="f" cx="0.272" cy="0.272" r="0.272" transform="translate(270.366 145.453)"/><path class="f" d="M392.208,145.725a.272.272,0,1,1-.271-.272A.271.271,0,0,1,392.208,145.725Z" transform="translate(-114.832)"/><circle class="f" cx="0.272" cy="0.272" r="0.272" transform="translate(283.301 145.453)"/><circle class="f" cx="0.272" cy="0.272" r="0.272" transform="translate(289.768 145.453)"/><circle class="f" cx="0.272" cy="0.272" r="0.272" transform="translate(296.236 145.453)"/><circle class="f" cx="0.272" cy="0.272" r="0.272" transform="translate(234.523 148.893)"/><circle class="f" cx="0.272" cy="0.272" r="0.272" transform="translate(240.99 148.893)"/><circle class="f" cx="0.272" cy="0.272" r="0.272" transform="translate(247.458 148.893)"/><circle class="f" cx="0.272" cy="0.272" r="0.272" transform="translate(253.925 148.893)"/><circle class="f" cx="0.272" cy="0.272" r="0.272" transform="translate(260.393 148.893)"/><circle class="f" cx="0.272" cy="0.272" r="0.272" transform="translate(266.86 148.893)"/><circle class="f" cx="0.272" cy="0.272" r="0.272" transform="translate(273.328 148.893)"/><circle class="f" cx="0.272" cy="0.272" r="0.272" transform="translate(279.795 148.893)"/><path class="f" d="M427.231,158.5a.271.271,0,1,1-.271-.271A.272.272,0,0,1,427.231,158.5Z" transform="translate(-140.425 -9.335)"/><circle class="f" cx="0.272" cy="0.272" r="0.272" transform="translate(292.73 148.893)"/><circle class="f" cx="0.272" cy="0.272" r="0.272" transform="translate(238.028 152.176)"/><circle class="f" cx="0.272" cy="0.272" r="0.272" transform="translate(244.496 152.176)"/><circle class="f" cx="0.272" cy="0.272" r="0.272" transform="translate(250.963 152.176)"/><circle class="f" cx="0.272" cy="0.272" r="0.272" transform="translate(257.431 152.176)"/><path class="f" d="M344.167,170.693a.272.272,0,1,1-.271-.272A.271.271,0,0,1,344.167,170.693Z" transform="translate(-79.726 -18.245)"/><circle class="f" cx="0.272" cy="0.272" r="0.272" transform="translate(270.366 152.176)"/><path class="f" d="M392.208,170.693a.272.272,0,1,1-.271-.272A.271.271,0,0,1,392.208,170.693Z" transform="translate(-114.832 -18.245)"/><circle class="f" cx="0.272" cy="0.272" r="0.272" transform="translate(283.301 152.176)"/><circle class="f" cx="0.272" cy="0.272" r="0.272" transform="translate(289.768 152.176)"/><circle class="f" cx="0.272" cy="0.272" r="0.272" transform="translate(296.236 152.176)"/><circle class="f" cx="0.272" cy="0.272" r="0.272" transform="translate(234.523 155.615)"/><circle class="f" cx="0.272" cy="0.272" r="0.272" transform="translate(240.99 155.615)"/><circle class="f" cx="0.272" cy="0.272" r="0.272" transform="translate(247.458 155.615)"/><circle class="f" cx="0.272" cy="0.272" r="0.272" transform="translate(253.925 155.615)"/><circle class="f" cx="0.272" cy="0.272" r="0.272" transform="translate(260.393 155.615)"/><circle class="f" cx="0.272" cy="0.272" r="0.272" transform="translate(266.86 155.615)"/><circle class="f" cx="0.272" cy="0.272" r="0.272" transform="translate(273.328 155.615)"/><circle class="f" cx="0.272" cy="0.272" r="0.272" transform="translate(279.795 155.615)"/><path class="f" d="M427.231,183.467a.271.271,0,1,1-.271-.271A.272.272,0,0,1,427.231,183.467Z" transform="translate(-140.425 -27.581)"/><circle class="f" cx="0.272" cy="0.272" r="0.272" transform="translate(292.73 155.615)"/><circle class="f" cx="0.272" cy="0.272" r="0.272" transform="translate(238.028 158.898)"/><circle class="f" cx="0.272" cy="0.272" r="0.272" transform="translate(244.496 158.898)"/><circle class="f" cx="0.272" cy="0.272" r="0.272" transform="translate(250.963 158.898)"/><circle class="f" cx="0.272" cy="0.272" r="0.272" transform="translate(257.431 158.898)"/><path class="f" d="M344.167,195.661a.272.272,0,1,1-.271-.272A.271.271,0,0,1,344.167,195.661Z" transform="translate(-79.726 -36.491)"/><circle class="f" cx="0.272" cy="0.272" r="0.272" transform="translate(270.366 158.898)"/><path class="f" d="M392.208,195.661a.272.272,0,1,1-.271-.272A.271.271,0,0,1,392.208,195.661Z" transform="translate(-114.832 -36.491)"/><circle class="f" cx="0.272" cy="0.272" r="0.272" transform="translate(283.301 158.898)"/><circle class="f" cx="0.272" cy="0.272" r="0.272" transform="translate(289.768 158.898)"/><circle class="f" cx="0.272" cy="0.272" r="0.272" transform="translate(296.236 158.898)"/><circle class="f" cx="0.272" cy="0.272" r="0.272" transform="translate(234.523 162.338)"/><circle class="f" cx="0.272" cy="0.272" r="0.272" transform="translate(240.99 162.338)"/><circle class="f" cx="0.272" cy="0.272" r="0.272" transform="translate(247.458 162.338)"/><circle class="f" cx="0.272" cy="0.272" r="0.272" transform="translate(253.925 162.338)"/><circle class="f" cx="0.272" cy="0.272" r="0.272" transform="translate(260.393 162.338)"/><circle class="f" cx="0.272" cy="0.272" r="0.272" transform="translate(266.86 162.338)"/><circle class="f" cx="0.272" cy="0.272" r="0.272" transform="translate(273.328 162.338)"/><circle class="f" cx="0.272" cy="0.272" r="0.272" transform="translate(279.795 162.338)"/><path class="f" d="M427.231,208.435a.271.271,0,1,1-.271-.271A.272.272,0,0,1,427.231,208.435Z" transform="translate(-140.425 -45.826)"/><circle class="f" cx="0.272" cy="0.272" r="0.272" transform="translate(292.73 162.338)"/><circle class="f" cx="0.272" cy="0.272" r="0.272" transform="translate(238.028 165.621)"/><circle class="f" cx="0.272" cy="0.272" r="0.272" transform="translate(244.496 165.621)"/><circle class="f" cx="0.272" cy="0.272" r="0.272" transform="translate(250.963 165.621)"/><circle class="f" cx="0.272" cy="0.272" r="0.272" transform="translate(257.431 165.621)"/><path class="f" d="M344.167,220.629a.272.272,0,1,1-.271-.272A.271.271,0,0,1,344.167,220.629Z" transform="translate(-79.726 -54.736)"/><circle class="f" cx="0.272" cy="0.272" r="0.272" transform="translate(270.366 165.621)"/><path class="f" d="M392.208,220.629a.272.272,0,1,1-.271-.272A.271.271,0,0,1,392.208,220.629Z" transform="translate(-114.832 -54.736)"/><circle class="f" cx="0.272" cy="0.272" r="0.272" transform="translate(283.301 165.621)"/><circle class="f" cx="0.272" cy="0.272" r="0.272" transform="translate(289.768 165.621)"/><circle class="f" cx="0.272" cy="0.272" r="0.272" transform="translate(296.236 165.621)"/><circle class="f" cx="0.272" cy="0.272" r="0.272" transform="translate(234.523 169.06)"/><circle class="f" cx="0.272" cy="0.272" r="0.272" transform="translate(240.99 169.06)"/><circle class="f" cx="0.272" cy="0.272" r="0.272" transform="translate(247.458 169.06)"/><circle class="f" cx="0.272" cy="0.272" r="0.272" transform="translate(253.925 169.06)"/><circle class="f" cx="0.272" cy="0.272" r="0.272" transform="translate(260.393 169.06)"/><circle class="f" cx="0.272" cy="0.272" r="0.272" transform="translate(266.86 169.06)"/><circle class="f" cx="0.272" cy="0.272" r="0.272" transform="translate(273.328 169.06)"/><circle class="f" cx="0.272" cy="0.272" r="0.272" transform="translate(279.795 169.06)"/><path class="f" d="M427.231,233.4a.271.271,0,1,1-.271-.272A.272.272,0,0,1,427.231,233.4Z" transform="translate(-140.425 -64.071)"/><circle class="f" cx="0.272" cy="0.272" r="0.272" transform="translate(292.73 169.06)"/><circle class="f" cx="0.272" cy="0.272" r="0.272" transform="translate(238.028 172.343)"/><circle class="f" cx="0.272" cy="0.272" r="0.272" transform="translate(244.496 172.343)"/><circle class="f" cx="0.272" cy="0.272" r="0.272" transform="translate(250.963 172.343)"/><circle class="f" cx="0.272" cy="0.272" r="0.272" transform="translate(257.431 172.343)"/><path class="f" d="M344.167,245.6a.272.272,0,1,1-.271-.272A.271.271,0,0,1,344.167,245.6Z" transform="translate(-79.726 -72.982)"/><circle class="f" cx="0.272" cy="0.272" r="0.272" transform="translate(270.366 172.343)"/><path class="f" d="M392.208,245.6a.272.272,0,1,1-.271-.272A.271.271,0,0,1,392.208,245.6Z" transform="translate(-114.832 -72.982)"/><circle class="f" cx="0.272" cy="0.272" r="0.272" transform="translate(283.301 172.343)"/><circle class="f" cx="0.272" cy="0.272" r="0.272" transform="translate(289.768 172.343)"/><circle class="f" cx="0.272" cy="0.272" r="0.272" transform="translate(296.236 172.343)"/><circle class="f" cx="0.272" cy="0.272" r="0.272" transform="translate(234.523 175.783)"/><circle class="f" cx="0.272" cy="0.272" r="0.272" transform="translate(240.99 175.783)"/><circle class="f" cx="0.272" cy="0.272" r="0.272" transform="translate(247.458 175.783)"/><circle class="f" cx="0.272" cy="0.272" r="0.272" transform="translate(253.925 175.783)"/><circle class="f" cx="0.272" cy="0.272" r="0.272" transform="translate(260.393 175.783)"/><circle class="f" cx="0.272" cy="0.272" r="0.272" transform="translate(266.86 175.783)"/><circle class="f" cx="0.272" cy="0.272" r="0.272" transform="translate(273.328 175.783)"/><circle class="f" cx="0.272" cy="0.272" r="0.272" transform="translate(279.795 175.783)"/><path class="f" d="M427.231,258.371a.271.271,0,1,1-.271-.271A.272.272,0,0,1,427.231,258.371Z" transform="translate(-140.425 -82.317)"/><circle class="f" cx="0.272" cy="0.272" r="0.272" transform="translate(292.73 175.783)"/><circle class="f" cx="0.272" cy="0.272" r="0.272" transform="translate(238.028 179.066)"/><circle class="f" cx="0.272" cy="0.272" r="0.272" transform="translate(244.496 179.066)"/><circle class="f" cx="0.272" cy="0.272" r="0.272" transform="translate(250.963 179.066)"/><circle class="f" cx="0.272" cy="0.272" r="0.272" transform="translate(257.431 179.066)"/><path class="f" d="M344.167,270.565a.272.272,0,1,1-.271-.272A.271.271,0,0,1,344.167,270.565Z" transform="translate(-79.726 -91.227)"/><circle class="f" cx="0.272" cy="0.272" r="0.272" transform="translate(270.366 179.066)"/><path class="f" d="M392.208,270.565a.272.272,0,1,1-.271-.272A.271.271,0,0,1,392.208,270.565Z" transform="translate(-114.832 -91.227)"/><circle class="f" cx="0.272" cy="0.272" r="0.272" transform="translate(283.301 179.066)"/><circle class="f" cx="0.272" cy="0.272" r="0.272" transform="translate(289.768 179.066)"/><circle class="f" cx="0.272" cy="0.272" r="0.272" transform="translate(296.236 179.066)"/><circle class="f" cx="0.272" cy="0.272" r="0.272" transform="translate(234.523 182.505)"/><circle class="f" cx="0.272" cy="0.272" r="0.272" transform="translate(240.99 182.505)"/><circle class="f" cx="0.272" cy="0.272" r="0.272" transform="translate(247.458 182.505)"/><circle class="f" cx="0.272" cy="0.272" r="0.272" transform="translate(253.925 182.505)"/><circle class="f" cx="0.272" cy="0.272" r="0.272" transform="translate(260.393 182.505)"/><circle class="f" cx="0.272" cy="0.272" r="0.272" transform="translate(266.86 182.505)"/><circle class="f" cx="0.272" cy="0.272" r="0.272" transform="translate(273.328 182.505)"/><circle class="f" cx="0.272" cy="0.272" r="0.272" transform="translate(279.795 182.505)"/><path class="f" d="M427.231,283.339a.271.271,0,1,1-.271-.272A.271.271,0,0,1,427.231,283.339Z" transform="translate(-140.425 -100.562)"/><circle class="f" cx="0.272" cy="0.272" r="0.272" transform="translate(292.73 182.505)"/><circle class="f" cx="0.272" cy="0.272" r="0.272" transform="translate(238.028 185.789)"/><circle class="f" cx="0.272" cy="0.272" r="0.272" transform="translate(244.496 185.789)"/><circle class="f" cx="0.272" cy="0.272" r="0.272" transform="translate(250.963 185.789)"/><circle class="f" cx="0.272" cy="0.272" r="0.272" transform="translate(257.431 185.789)"/><path class="f" d="M344.167,295.533a.272.272,0,1,1-.271-.272A.271.271,0,0,1,344.167,295.533Z" transform="translate(-79.726 -109.472)"/><circle class="f" cx="0.272" cy="0.272" r="0.272" transform="translate(270.366 185.789)"/><path class="f" d="M392.208,295.533a.272.272,0,1,1-.271-.272A.271.271,0,0,1,392.208,295.533Z" transform="translate(-114.832 -109.472)"/><circle class="f" cx="0.272" cy="0.272" r="0.272" transform="translate(283.301 185.789)"/><circle class="f" cx="0.272" cy="0.272" r="0.272" transform="translate(289.768 185.789)"/><circle class="f" cx="0.272" cy="0.272" r="0.272" transform="translate(296.236 185.789)"/><circle class="f" cx="0.272" cy="0.272" r="0.272" transform="translate(234.523 189.228)"/><circle class="f" cx="0.272" cy="0.272" r="0.272" transform="translate(240.99 189.228)"/><circle class="f" cx="0.272" cy="0.272" r="0.272" transform="translate(247.458 189.228)"/><circle class="f" cx="0.272" cy="0.272" r="0.272" transform="translate(253.925 189.228)"/><circle class="f" cx="0.272" cy="0.272" r="0.272" transform="translate(260.393 189.228)"/><circle class="f" cx="0.272" cy="0.272" r="0.272" transform="translate(266.86 189.228)"/><circle class="f" cx="0.272" cy="0.272" r="0.272" transform="translate(273.328 189.228)"/><circle class="f" cx="0.272" cy="0.272" r="0.272" transform="translate(279.795 189.228)"/><path class="f" d="M427.231,308.307a.271.271,0,1,1-.271-.272A.271.271,0,0,1,427.231,308.307Z" transform="translate(-140.425 -118.807)"/><circle class="f" cx="0.272" cy="0.272" r="0.272" transform="translate(292.73 189.228)"/><circle class="f" cx="0.272" cy="0.272" r="0.272" transform="translate(238.028 192.511)"/><circle class="f" cx="0.272" cy="0.272" r="0.272" transform="translate(244.496 192.511)"/><circle class="f" cx="0.272" cy="0.272" r="0.272" transform="translate(250.963 192.511)"/><circle class="f" cx="0.272" cy="0.272" r="0.272" transform="translate(257.431 192.511)"/><path class="f" d="M344.167,320.5a.272.272,0,1,1-.271-.272A.272.272,0,0,1,344.167,320.5Z" transform="translate(-79.726 -127.718)"/><circle class="f" cx="0.272" cy="0.272" r="0.272" transform="translate(270.366 192.511)"/><path class="f" d="M392.208,320.5a.272.272,0,1,1-.271-.272A.271.271,0,0,1,392.208,320.5Z" transform="translate(-114.832 -127.718)"/><circle class="f" cx="0.272" cy="0.272" r="0.272" transform="translate(283.301 192.511)"/><circle class="f" cx="0.272" cy="0.272" r="0.272" transform="translate(289.768 192.511)"/><circle class="f" cx="0.272" cy="0.272" r="0.272" transform="translate(296.236 192.511)"/><circle class="f" cx="0.272" cy="0.272" r="0.272" transform="translate(234.523 195.951)"/><circle class="f" cx="0.272" cy="0.272" r="0.272" transform="translate(240.99 195.951)"/><circle class="f" cx="0.272" cy="0.272" r="0.272" transform="translate(247.458 195.951)"/><circle class="f" cx="0.272" cy="0.272" r="0.272" transform="translate(253.925 195.951)"/><circle class="f" cx="0.272" cy="0.272" r="0.272" transform="translate(260.393 195.951)"/><circle class="f" cx="0.272" cy="0.272" r="0.272" transform="translate(266.86 195.951)"/><circle class="f" cx="0.272" cy="0.272" r="0.272" transform="translate(273.328 195.951)"/><circle class="f" cx="0.272" cy="0.272" r="0.272" transform="translate(279.795 195.951)"/><path class="f" d="M427.231,333.275a.271.271,0,1,1-.271-.272A.271.271,0,0,1,427.231,333.275Z" transform="translate(-140.425 -137.053)"/><circle class="f" cx="0.272" cy="0.272" r="0.272" transform="translate(292.73 195.951)"/><circle class="f" cx="0.272" cy="0.272" r="0.272" transform="translate(238.028 199.234)"/><circle class="f" cx="0.272" cy="0.272" r="0.272" transform="translate(244.496 199.234)"/><circle class="f" cx="0.272" cy="0.272" r="0.272" transform="translate(250.963 199.234)"/><circle class="f" cx="0.272" cy="0.272" r="0.272" transform="translate(257.431 199.234)"/><path class="f" d="M344.167,345.469a.272.272,0,1,1-.271-.272A.272.272,0,0,1,344.167,345.469Z" transform="translate(-79.726 -145.963)"/><circle class="f" cx="0.272" cy="0.272" r="0.272" transform="translate(270.366 199.234)"/><path class="f" d="M392.208,345.469a.272.272,0,1,1-.271-.272A.271.271,0,0,1,392.208,345.469Z" transform="translate(-114.832 -145.963)"/><circle class="f" cx="0.272" cy="0.272" r="0.272" transform="translate(283.301 199.234)"/><circle class="f" cx="0.272" cy="0.272" r="0.272" transform="translate(289.768 199.234)"/><circle class="f" cx="0.272" cy="0.272" r="0.272" transform="translate(296.236 199.234)"/><circle class="f" cx="0.272" cy="0.272" r="0.272" transform="translate(234.523 202.673)"/><circle class="f" cx="0.272" cy="0.272" r="0.272" transform="translate(240.99 202.673)"/><circle class="f" cx="0.272" cy="0.272" r="0.272" transform="translate(247.458 202.673)"/><circle class="f" cx="0.272" cy="0.272" r="0.272" transform="translate(253.925 202.673)"/><circle class="f" cx="0.272" cy="0.272" r="0.272" transform="translate(260.393 202.673)"/><circle class="f" cx="0.272" cy="0.272" r="0.272" transform="translate(266.86 202.673)"/><circle class="f" cx="0.272" cy="0.272" r="0.272" transform="translate(273.328 202.673)"/><circle class="f" cx="0.272" cy="0.272" r="0.272" transform="translate(279.795 202.673)"/><path class="f" d="M427.231,358.243a.271.271,0,1,1-.271-.272A.271.271,0,0,1,427.231,358.243Z" transform="translate(-140.425 -155.298)"/><circle class="f" cx="0.272" cy="0.272" r="0.272" transform="translate(292.73 202.673)"/><circle class="f" cx="0.272" cy="0.272" r="0.272" transform="translate(238.028 205.956)"/><circle class="f" cx="0.272" cy="0.272" r="0.272" transform="translate(244.496 205.956)"/><circle class="f" cx="0.272" cy="0.272" r="0.272" transform="translate(250.963 205.956)"/><circle class="f" cx="0.272" cy="0.272" r="0.272" transform="translate(257.431 205.956)"/><path class="f" d="M344.167,370.436a.272.272,0,1,1-.271-.271A.272.272,0,0,1,344.167,370.436Z" transform="translate(-79.726 -164.209)"/><circle class="f" cx="0.272" cy="0.272" r="0.272" transform="translate(270.366 205.956)"/><path class="f" d="M392.208,370.436a.272.272,0,1,1-.271-.271A.272.272,0,0,1,392.208,370.436Z" transform="translate(-114.832 -164.209)"/><circle class="f" cx="0.272" cy="0.272" r="0.272" transform="translate(283.301 205.956)"/><circle class="f" cx="0.272" cy="0.272" r="0.272" transform="translate(289.768 205.956)"/><circle class="f" cx="0.272" cy="0.272" r="0.272" transform="translate(296.236 205.956)"/><circle class="f" cx="0.272" cy="0.272" r="0.272" transform="translate(234.523 209.396)"/><circle class="f" cx="0.272" cy="0.272" r="0.272" transform="translate(240.99 209.396)"/><circle class="f" cx="0.272" cy="0.272" r="0.272" transform="translate(247.458 209.396)"/><circle class="f" cx="0.272" cy="0.272" r="0.272" transform="translate(253.925 209.396)"/><circle class="f" cx="0.272" cy="0.272" r="0.272" transform="translate(260.393 209.396)"/><circle class="f" cx="0.272" cy="0.272" r="0.272" transform="translate(266.86 209.396)"/><circle class="f" cx="0.272" cy="0.272" r="0.272" transform="translate(273.328 209.396)"/><circle class="f" cx="0.272" cy="0.272" r="0.272" transform="translate(279.795 209.396)"/><path class="f" d="M427.231,383.211a.271.271,0,1,1-.271-.272A.271.271,0,0,1,427.231,383.211Z" transform="translate(-140.425 -173.543)"/><circle class="f" cx="0.272" cy="0.272" r="0.272" transform="translate(292.73 209.396)"/><path class="f" d="M248.085,395.4a.272.272,0,1,1-.272-.271A.272.272,0,0,1,248.085,395.4Z" transform="translate(-9.514 -182.454)"/><path class="f" d="M272.105,395.4a.272.272,0,1,1-.271-.271A.272.272,0,0,1,272.105,395.4Z" transform="translate(-27.066 -182.454)"/><path class="f" d="M296.126,395.4a.272.272,0,1,1-.272-.271A.272.272,0,0,1,296.126,395.4Z" transform="translate(-44.62 -182.454)"/><path class="f" d="M320.146,395.4a.272.272,0,1,1-.271-.271A.271.271,0,0,1,320.146,395.4Z" transform="translate(-62.172 -182.454)"/><path class="f" d="M344.167,395.4a.272.272,0,1,1-.271-.271A.272.272,0,0,1,344.167,395.4Z" transform="translate(-79.726 -182.454)"/><path class="f" d="M368.188,395.4a.272.272,0,1,1-.272-.271A.272.272,0,0,1,368.188,395.4Z" transform="translate(-97.279 -182.454)"/><path class="f" d="M392.208,395.4a.272.272,0,1,1-.271-.271A.271.271,0,0,1,392.208,395.4Z" transform="translate(-114.832 -182.454)"/><path class="f" d="M416.229,395.4a.272.272,0,1,1-.272-.271A.272.272,0,0,1,416.229,395.4Z" transform="translate(-132.385 -182.454)"/><path class="f" d="M440.249,395.4a.272.272,0,1,1-.271-.271A.272.272,0,0,1,440.249,395.4Z" transform="translate(-149.938 -182.454)"/><path class="f" d="M464.27,395.4a.272.272,0,1,1-.272-.271A.272.272,0,0,1,464.27,395.4Z" transform="translate(-167.491 -182.454)"/><circle class="f" cx="0.272" cy="0.272" r="0.272" transform="translate(234.523 216.118)"/><circle class="f" cx="0.272" cy="0.272" r="0.272" transform="translate(240.99 216.118)"/><circle class="f" cx="0.272" cy="0.272" r="0.272" transform="translate(247.458 216.118)"/><circle class="f" cx="0.272" cy="0.272" r="0.272" transform="translate(253.925 216.118)"/><circle class="f" cx="0.272" cy="0.272" r="0.272" transform="translate(260.393 216.118)"/><circle class="f" cx="0.272" cy="0.272" r="0.272" transform="translate(266.86 216.118)"/><circle class="f" cx="0.272" cy="0.272" r="0.272" transform="translate(273.328 216.118)"/><circle class="f" cx="0.272" cy="0.272" r="0.272" transform="translate(279.795 216.118)"/><path class="f" d="M427.231,408.179a.271.271,0,1,1-.271-.272A.271.271,0,0,1,427.231,408.179Z" transform="translate(-140.425 -191.789)"/><circle class="f" cx="0.272" cy="0.272" r="0.272" transform="translate(292.73 216.118)"/><circle class="f" cx="0.272" cy="0.272" r="0.272" transform="translate(238.028 219.401)"/><circle class="f" cx="0.272" cy="0.272" r="0.272" transform="translate(244.496 219.401)"/><circle class="f" cx="0.272" cy="0.272" r="0.272" transform="translate(250.963 219.401)"/><circle class="f" cx="0.272" cy="0.272" r="0.272" transform="translate(257.431 219.401)"/><path class="f" d="M344.167,420.372a.272.272,0,1,1-.271-.271A.272.272,0,0,1,344.167,420.372Z" transform="translate(-79.726 -200.7)"/><circle class="f" cx="0.272" cy="0.272" r="0.272" transform="translate(270.366 219.401)"/><path class="f" d="M392.208,420.372a.272.272,0,1,1-.271-.271A.272.272,0,0,1,392.208,420.372Z" transform="translate(-114.832 -200.7)"/><circle class="f" cx="0.272" cy="0.272" r="0.272" transform="translate(283.301 219.401)"/><circle class="f" cx="0.272" cy="0.272" r="0.272" transform="translate(289.768 219.401)"/><circle class="f" cx="0.272" cy="0.272" r="0.272" transform="translate(296.236 219.401)"/><circle class="f" cx="0.272" cy="0.272" r="0.272" transform="translate(234.523 222.841)"/><circle class="f" cx="0.272" cy="0.272" r="0.272" transform="translate(240.99 222.841)"/><circle class="f" cx="0.272" cy="0.272" r="0.272" transform="translate(247.458 222.841)"/><circle class="f" cx="0.272" cy="0.272" r="0.272" transform="translate(253.925 222.841)"/><circle class="f" cx="0.272" cy="0.272" r="0.272" transform="translate(260.393 222.841)"/><circle class="f" cx="0.272" cy="0.272" r="0.272" transform="translate(266.86 222.841)"/><circle class="f" cx="0.272" cy="0.272" r="0.272" transform="translate(273.328 222.841)"/><circle class="f" cx="0.272" cy="0.272" r="0.272" transform="translate(279.795 222.841)"/><path class="f" d="M427.231,433.147a.271.271,0,1,1-.271-.272A.271.271,0,0,1,427.231,433.147Z" transform="translate(-140.425 -210.034)"/><circle class="f" cx="0.272" cy="0.272" r="0.272" transform="translate(292.73 222.841)"/><circle class="f" cx="0.272" cy="0.272" r="0.272" transform="translate(238.028 226.124)"/><circle class="f" cx="0.272" cy="0.272" r="0.272" transform="translate(244.496 226.124)"/><circle class="f" cx="0.272" cy="0.272" r="0.272" transform="translate(250.963 226.124)"/><circle class="f" cx="0.272" cy="0.272" r="0.272" transform="translate(257.431 226.124)"/><path class="f" d="M344.167,445.34a.272.272,0,1,1-.271-.271A.272.272,0,0,1,344.167,445.34Z" transform="translate(-79.726 -218.945)"/><circle class="f" cx="0.272" cy="0.272" r="0.272" transform="translate(270.366 226.124)"/><path class="f" d="M392.208,445.34a.272.272,0,1,1-.271-.271A.272.272,0,0,1,392.208,445.34Z" transform="translate(-114.832 -218.945)"/><circle class="f" cx="0.272" cy="0.272" r="0.272" transform="translate(283.301 226.124)"/><circle class="f" cx="0.272" cy="0.272" r="0.272" transform="translate(289.768 226.124)"/><circle class="f" cx="0.272" cy="0.272" r="0.272" transform="translate(296.236 226.124)"/><circle class="f" cx="0.272" cy="0.272" r="0.272" transform="translate(234.523 229.563)"/><circle class="f" cx="0.272" cy="0.272" r="0.272" transform="translate(240.99 229.563)"/><circle class="f" cx="0.272" cy="0.272" r="0.272" transform="translate(247.458 229.563)"/><circle class="f" cx="0.272" cy="0.272" r="0.272" transform="translate(253.925 229.563)"/><circle class="f" cx="0.272" cy="0.272" r="0.272" transform="translate(260.393 229.563)"/><circle class="f" cx="0.272" cy="0.272" r="0.272" transform="translate(266.86 229.563)"/><circle class="f" cx="0.272" cy="0.272" r="0.272" transform="translate(273.328 229.563)"/><circle class="f" cx="0.272" cy="0.272" r="0.272" transform="translate(279.795 229.563)"/><path class="f" d="M427.231,458.115a.271.271,0,1,1-.271-.272A.271.271,0,0,1,427.231,458.115Z" transform="translate(-140.425 -228.28)"/><circle class="f" cx="0.272" cy="0.272" r="0.272" transform="translate(292.73 229.563)"/></g></g><path class="g" d="M-5423.08-218.684v-29.851l5-1.586v33.229Z" transform="translate(5430 274.131)"/><path class="h" d="M-5423.08-218.684v-29.851l5-1.586v33.229Z" transform="translate(5429 274.131)"/><g class="i" transform="translate(-874.858 -429.896)"><path class="j" d="M882.866,453.264v25.852l-22.774,6.032V447.921Z" transform="translate(31.607 4.106)"/><g class="e" transform="translate(622.105 296.071)"><circle class="f" cx="0.272" cy="0.272" r="0.272" transform="translate(238.028 145.453)"/><circle class="f" cx="0.272" cy="0.272" r="0.272" transform="translate(244.496 145.453)"/><circle class="f" cx="0.272" cy="0.272" r="0.272" transform="translate(250.963 145.453)"/><circle class="f" cx="0.272" cy="0.272" r="0.272" transform="translate(257.431 145.453)"/><path class="f" d="M344.167,145.725a.272.272,0,1,1-.271-.272A.271.271,0,0,1,344.167,145.725Z" transform="translate(-79.726)"/><circle class="f" cx="0.272" cy="0.272" r="0.272" transform="translate(270.366 145.453)"/><path class="f" d="M392.208,145.725a.272.272,0,1,1-.271-.272A.271.271,0,0,1,392.208,145.725Z" transform="translate(-114.832)"/><circle class="f" cx="0.272" cy="0.272" r="0.272" transform="translate(283.301 145.453)"/><circle class="f" cx="0.272" cy="0.272" r="0.272" transform="translate(289.768 145.453)"/><circle class="f" cx="0.272" cy="0.272" r="0.272" transform="translate(296.236 145.453)"/><circle class="f" cx="0.272" cy="0.272" r="0.272" transform="translate(234.523 148.893)"/><circle class="f" cx="0.272" cy="0.272" r="0.272" transform="translate(240.99 148.893)"/><circle class="f" cx="0.272" cy="0.272" r="0.272" transform="translate(247.458 148.893)"/><circle class="f" cx="0.272" cy="0.272" r="0.272" transform="translate(253.925 148.893)"/><circle class="f" cx="0.272" cy="0.272" r="0.272" transform="translate(260.393 148.893)"/><circle class="f" cx="0.272" cy="0.272" r="0.272" transform="translate(266.86 148.893)"/><circle class="f" cx="0.272" cy="0.272" r="0.272" transform="translate(273.328 148.893)"/><circle class="f" cx="0.272" cy="0.272" r="0.272" transform="translate(279.795 148.893)"/><path class="f" d="M427.231,158.5a.271.271,0,1,1-.271-.271A.272.272,0,0,1,427.231,158.5Z" transform="translate(-140.425 -9.335)"/><circle class="f" cx="0.272" cy="0.272" r="0.272" transform="translate(292.73 148.893)"/><circle class="f" cx="0.272" cy="0.272" r="0.272" transform="translate(238.028 152.176)"/><circle class="f" cx="0.272" cy="0.272" r="0.272" transform="translate(244.496 152.176)"/><circle class="f" cx="0.272" cy="0.272" r="0.272" transform="translate(250.963 152.176)"/><circle class="f" cx="0.272" cy="0.272" r="0.272" transform="translate(257.431 152.176)"/><path class="f" d="M344.167,170.693a.272.272,0,1,1-.271-.272A.271.271,0,0,1,344.167,170.693Z" transform="translate(-79.726 -18.245)"/><circle class="f" cx="0.272" cy="0.272" r="0.272" transform="translate(270.366 152.176)"/><path class="f" d="M392.208,170.693a.272.272,0,1,1-.271-.272A.271.271,0,0,1,392.208,170.693Z" transform="translate(-114.832 -18.245)"/><circle class="f" cx="0.272" cy="0.272" r="0.272" transform="translate(283.301 152.176)"/><circle class="f" cx="0.272" cy="0.272" r="0.272" transform="translate(289.768 152.176)"/><circle class="f" cx="0.272" cy="0.272" r="0.272" transform="translate(296.236 152.176)"/><circle class="f" cx="0.272" cy="0.272" r="0.272" transform="translate(234.523 155.615)"/><circle class="f" cx="0.272" cy="0.272" r="0.272" transform="translate(240.99 155.615)"/><circle class="f" cx="0.272" cy="0.272" r="0.272" transform="translate(247.458 155.615)"/><circle class="f" cx="0.272" cy="0.272" r="0.272" transform="translate(253.925 155.615)"/><circle class="f" cx="0.272" cy="0.272" r="0.272" transform="translate(260.393 155.615)"/><circle class="f" cx="0.272" cy="0.272" r="0.272" transform="translate(266.86 155.615)"/><circle class="f" cx="0.272" cy="0.272" r="0.272" transform="translate(273.328 155.615)"/><circle class="f" cx="0.272" cy="0.272" r="0.272" transform="translate(279.795 155.615)"/><path class="f" d="M427.231,183.467a.271.271,0,1,1-.271-.271A.272.272,0,0,1,427.231,183.467Z" transform="translate(-140.425 -27.581)"/><circle class="f" cx="0.272" cy="0.272" r="0.272" transform="translate(292.73 155.615)"/><circle class="f" cx="0.272" cy="0.272" r="0.272" transform="translate(238.028 158.898)"/><circle class="f" cx="0.272" cy="0.272" r="0.272" transform="translate(244.496 158.898)"/><circle class="f" cx="0.272" cy="0.272" r="0.272" transform="translate(250.963 158.898)"/><circle class="f" cx="0.272" cy="0.272" r="0.272" transform="translate(257.431 158.898)"/><path class="f" d="M344.167,195.661a.272.272,0,1,1-.271-.272A.271.271,0,0,1,344.167,195.661Z" transform="translate(-79.726 -36.491)"/><circle class="f" cx="0.272" cy="0.272" r="0.272" transform="translate(270.366 158.898)"/><path class="f" d="M392.208,195.661a.272.272,0,1,1-.271-.272A.271.271,0,0,1,392.208,195.661Z" transform="translate(-114.832 -36.491)"/><circle class="f" cx="0.272" cy="0.272" r="0.272" transform="translate(283.301 158.898)"/><circle class="f" cx="0.272" cy="0.272" r="0.272" transform="translate(289.768 158.898)"/><circle class="f" cx="0.272" cy="0.272" r="0.272" transform="translate(296.236 158.898)"/><circle class="f" cx="0.272" cy="0.272" r="0.272" transform="translate(234.523 162.338)"/><circle class="f" cx="0.272" cy="0.272" r="0.272" transform="translate(240.99 162.338)"/><circle class="f" cx="0.272" cy="0.272" r="0.272" transform="translate(247.458 162.338)"/><circle class="f" cx="0.272" cy="0.272" r="0.272" transform="translate(253.925 162.338)"/><circle class="f" cx="0.272" cy="0.272" r="0.272" transform="translate(260.393 162.338)"/><circle class="f" cx="0.272" cy="0.272" r="0.272" transform="translate(266.86 162.338)"/><circle class="f" cx="0.272" cy="0.272" r="0.272" transform="translate(273.328 162.338)"/><circle class="f" cx="0.272" cy="0.272" r="0.272" transform="translate(279.795 162.338)"/><path class="f" d="M427.231,208.435a.271.271,0,1,1-.271-.271A.272.272,0,0,1,427.231,208.435Z" transform="translate(-140.425 -45.826)"/><circle class="f" cx="0.272" cy="0.272" r="0.272" transform="translate(292.73 162.338)"/><circle class="f" cx="0.272" cy="0.272" r="0.272" transform="translate(238.028 165.621)"/><circle class="f" cx="0.272" cy="0.272" r="0.272" transform="translate(244.496 165.621)"/><circle class="f" cx="0.272" cy="0.272" r="0.272" transform="translate(250.963 165.621)"/><circle class="f" cx="0.272" cy="0.272" r="0.272" transform="translate(257.431 165.621)"/><path class="f" d="M344.167,220.629a.272.272,0,1,1-.271-.272A.271.271,0,0,1,344.167,220.629Z" transform="translate(-79.726 -54.736)"/><circle class="f" cx="0.272" cy="0.272" r="0.272" transform="translate(270.366 165.621)"/><path class="f" d="M392.208,220.629a.272.272,0,1,1-.271-.272A.271.271,0,0,1,392.208,220.629Z" transform="translate(-114.832 -54.736)"/><circle class="f" cx="0.272" cy="0.272" r="0.272" transform="translate(283.301 165.621)"/><circle class="f" cx="0.272" cy="0.272" r="0.272" transform="translate(289.768 165.621)"/><circle class="f" cx="0.272" cy="0.272" r="0.272" transform="translate(296.236 165.621)"/><circle class="f" cx="0.272" cy="0.272" r="0.272" transform="translate(234.523 169.06)"/><circle class="f" cx="0.272" cy="0.272" r="0.272" transform="translate(240.99 169.06)"/><circle class="f" cx="0.272" cy="0.272" r="0.272" transform="translate(247.458 169.06)"/><circle class="f" cx="0.272" cy="0.272" r="0.272" transform="translate(253.925 169.06)"/><circle class="f" cx="0.272" cy="0.272" r="0.272" transform="translate(260.393 169.06)"/><circle class="f" cx="0.272" cy="0.272" r="0.272" transform="translate(266.86 169.06)"/><circle class="f" cx="0.272" cy="0.272" r="0.272" transform="translate(273.328 169.06)"/><circle class="f" cx="0.272" cy="0.272" r="0.272" transform="translate(279.795 169.06)"/><path class="f" d="M427.231,233.4a.271.271,0,1,1-.271-.272A.272.272,0,0,1,427.231,233.4Z" transform="translate(-140.425 -64.071)"/><circle class="f" cx="0.272" cy="0.272" r="0.272" transform="translate(292.73 169.06)"/><circle class="f" cx="0.272" cy="0.272" r="0.272" transform="translate(238.028 172.343)"/><circle class="f" cx="0.272" cy="0.272" r="0.272" transform="translate(244.496 172.343)"/><circle class="f" cx="0.272" cy="0.272" r="0.272" transform="translate(250.963 172.343)"/><circle class="f" cx="0.272" cy="0.272" r="0.272" transform="translate(257.431 172.343)"/><path class="f" d="M344.167,245.6a.272.272,0,1,1-.271-.272A.271.271,0,0,1,344.167,245.6Z" transform="translate(-79.726 -72.982)"/><circle class="f" cx="0.272" cy="0.272" r="0.272" transform="translate(270.366 172.343)"/><path class="f" d="M392.208,245.6a.272.272,0,1,1-.271-.272A.271.271,0,0,1,392.208,245.6Z" transform="translate(-114.832 -72.982)"/><circle class="f" cx="0.272" cy="0.272" r="0.272" transform="translate(283.301 172.343)"/><circle class="f" cx="0.272" cy="0.272" r="0.272" transform="translate(289.768 172.343)"/><circle class="f" cx="0.272" cy="0.272" r="0.272" transform="translate(296.236 172.343)"/><circle class="f" cx="0.272" cy="0.272" r="0.272" transform="translate(234.523 175.783)"/><circle class="f" cx="0.272" cy="0.272" r="0.272" transform="translate(240.99 175.783)"/><circle class="f" cx="0.272" cy="0.272" r="0.272" transform="translate(247.458 175.783)"/><circle class="f" cx="0.272" cy="0.272" r="0.272" transform="translate(253.925 175.783)"/><circle class="f" cx="0.272" cy="0.272" r="0.272" transform="translate(260.393 175.783)"/><circle class="f" cx="0.272" cy="0.272" r="0.272" transform="translate(266.86 175.783)"/><circle class="f" cx="0.272" cy="0.272" r="0.272" transform="translate(273.328 175.783)"/><circle class="f" cx="0.272" cy="0.272" r="0.272" transform="translate(279.795 175.783)"/><path class="f" d="M427.231,258.371a.271.271,0,1,1-.271-.271A.272.272,0,0,1,427.231,258.371Z" transform="translate(-140.425 -82.317)"/><circle class="f" cx="0.272" cy="0.272" r="0.272" transform="translate(292.73 175.783)"/><circle class="f" cx="0.272" cy="0.272" r="0.272" transform="translate(238.028 179.066)"/><circle class="f" cx="0.272" cy="0.272" r="0.272" transform="translate(244.496 179.066)"/><circle class="f" cx="0.272" cy="0.272" r="0.272" transform="translate(250.963 179.066)"/><circle class="f" cx="0.272" cy="0.272" r="0.272" transform="translate(257.431 179.066)"/><path class="f" d="M344.167,270.565a.272.272,0,1,1-.271-.272A.271.271,0,0,1,344.167,270.565Z" transform="translate(-79.726 -91.227)"/><circle class="f" cx="0.272" cy="0.272" r="0.272" transform="translate(270.366 179.066)"/><path class="f" d="M392.208,270.565a.272.272,0,1,1-.271-.272A.271.271,0,0,1,392.208,270.565Z" transform="translate(-114.832 -91.227)"/><circle class="f" cx="0.272" cy="0.272" r="0.272" transform="translate(283.301 179.066)"/><circle class="f" cx="0.272" cy="0.272" r="0.272" transform="translate(289.768 179.066)"/><circle class="f" cx="0.272" cy="0.272" r="0.272" transform="translate(296.236 179.066)"/><circle class="f" cx="0.272" cy="0.272" r="0.272" transform="translate(234.523 182.505)"/><circle class="f" cx="0.272" cy="0.272" r="0.272" transform="translate(240.99 182.505)"/><circle class="f" cx="0.272" cy="0.272" r="0.272" transform="translate(247.458 182.505)"/><circle class="f" cx="0.272" cy="0.272" r="0.272" transform="translate(253.925 182.505)"/><circle class="f" cx="0.272" cy="0.272" r="0.272" transform="translate(260.393 182.505)"/><circle class="f" cx="0.272" cy="0.272" r="0.272" transform="translate(266.86 182.505)"/><circle class="f" cx="0.272" cy="0.272" r="0.272" transform="translate(273.328 182.505)"/><circle class="f" cx="0.272" cy="0.272" r="0.272" transform="translate(279.795 182.505)"/><path class="f" d="M427.231,283.339a.271.271,0,1,1-.271-.272A.271.271,0,0,1,427.231,283.339Z" transform="translate(-140.425 -100.562)"/><circle class="f" cx="0.272" cy="0.272" r="0.272" transform="translate(292.73 182.505)"/><circle class="f" cx="0.272" cy="0.272" r="0.272" transform="translate(238.028 185.789)"/><circle class="f" cx="0.272" cy="0.272" r="0.272" transform="translate(244.496 185.789)"/><circle class="f" cx="0.272" cy="0.272" r="0.272" transform="translate(250.963 185.789)"/><circle class="f" cx="0.272" cy="0.272" r="0.272" transform="translate(257.431 185.789)"/><path class="f" d="M344.167,295.533a.272.272,0,1,1-.271-.272A.271.271,0,0,1,344.167,295.533Z" transform="translate(-79.726 -109.472)"/><circle class="f" cx="0.272" cy="0.272" r="0.272" transform="translate(270.366 185.789)"/><path class="f" d="M392.208,295.533a.272.272,0,1,1-.271-.272A.271.271,0,0,1,392.208,295.533Z" transform="translate(-114.832 -109.472)"/><circle class="f" cx="0.272" cy="0.272" r="0.272" transform="translate(283.301 185.789)"/><circle class="f" cx="0.272" cy="0.272" r="0.272" transform="translate(289.768 185.789)"/><circle class="f" cx="0.272" cy="0.272" r="0.272" transform="translate(296.236 185.789)"/><circle class="f" cx="0.272" cy="0.272" r="0.272" transform="translate(234.523 189.228)"/><circle class="f" cx="0.272" cy="0.272" r="0.272" transform="translate(240.99 189.228)"/><circle class="f" cx="0.272" cy="0.272" r="0.272" transform="translate(247.458 189.228)"/><circle class="f" cx="0.272" cy="0.272" r="0.272" transform="translate(253.925 189.228)"/><circle class="f" cx="0.272" cy="0.272" r="0.272" transform="translate(260.393 189.228)"/><circle class="f" cx="0.272" cy="0.272" r="0.272" transform="translate(266.86 189.228)"/><circle class="f" cx="0.272" cy="0.272" r="0.272" transform="translate(273.328 189.228)"/><circle class="f" cx="0.272" cy="0.272" r="0.272" transform="translate(279.795 189.228)"/><path class="f" d="M427.231,308.307a.271.271,0,1,1-.271-.272A.271.271,0,0,1,427.231,308.307Z" transform="translate(-140.425 -118.807)"/><circle class="f" cx="0.272" cy="0.272" r="0.272" transform="translate(292.73 189.228)"/><circle class="f" cx="0.272" cy="0.272" r="0.272" transform="translate(238.028 192.511)"/><circle class="f" cx="0.272" cy="0.272" r="0.272" transform="translate(244.496 192.511)"/><circle class="f" cx="0.272" cy="0.272" r="0.272" transform="translate(250.963 192.511)"/><circle class="f" cx="0.272" cy="0.272" r="0.272" transform="translate(257.431 192.511)"/><path class="f" d="M344.167,320.5a.272.272,0,1,1-.271-.272A.272.272,0,0,1,344.167,320.5Z" transform="translate(-79.726 -127.718)"/><circle class="f" cx="0.272" cy="0.272" r="0.272" transform="translate(270.366 192.511)"/><path class="f" d="M392.208,320.5a.272.272,0,1,1-.271-.272A.271.271,0,0,1,392.208,320.5Z" transform="translate(-114.832 -127.718)"/><circle class="f" cx="0.272" cy="0.272" r="0.272" transform="translate(283.301 192.511)"/><circle class="f" cx="0.272" cy="0.272" r="0.272" transform="translate(289.768 192.511)"/><circle class="f" cx="0.272" cy="0.272" r="0.272" transform="translate(296.236 192.511)"/><circle class="f" cx="0.272" cy="0.272" r="0.272" transform="translate(234.523 195.951)"/><circle class="f" cx="0.272" cy="0.272" r="0.272" transform="translate(240.99 195.951)"/><circle class="f" cx="0.272" cy="0.272" r="0.272" transform="translate(247.458 195.951)"/><circle class="f" cx="0.272" cy="0.272" r="0.272" transform="translate(253.925 195.951)"/><circle class="f" cx="0.272" cy="0.272" r="0.272" transform="translate(260.393 195.951)"/><circle class="f" cx="0.272" cy="0.272" r="0.272" transform="translate(266.86 195.951)"/><circle class="f" cx="0.272" cy="0.272" r="0.272" transform="translate(273.328 195.951)"/><circle class="f" cx="0.272" cy="0.272" r="0.272" transform="translate(279.795 195.951)"/><path class="f" d="M427.231,333.275a.271.271,0,1,1-.271-.272A.271.271,0,0,1,427.231,333.275Z" transform="translate(-140.425 -137.053)"/><circle class="f" cx="0.272" cy="0.272" r="0.272" transform="translate(292.73 195.951)"/><circle class="f" cx="0.272" cy="0.272" r="0.272" transform="translate(238.028 199.234)"/><circle class="f" cx="0.272" cy="0.272" r="0.272" transform="translate(244.496 199.234)"/><circle class="f" cx="0.272" cy="0.272" r="0.272" transform="translate(250.963 199.234)"/><circle class="f" cx="0.272" cy="0.272" r="0.272" transform="translate(257.431 199.234)"/><path class="f" d="M344.167,345.469a.272.272,0,1,1-.271-.272A.272.272,0,0,1,344.167,345.469Z" transform="translate(-79.726 -145.963)"/><circle class="f" cx="0.272" cy="0.272" r="0.272" transform="translate(270.366 199.234)"/><path class="f" d="M392.208,345.469a.272.272,0,1,1-.271-.272A.271.271,0,0,1,392.208,345.469Z" transform="translate(-114.832 -145.963)"/><circle class="f" cx="0.272" cy="0.272" r="0.272" transform="translate(283.301 199.234)"/><circle class="f" cx="0.272" cy="0.272" r="0.272" transform="translate(289.768 199.234)"/><circle class="f" cx="0.272" cy="0.272" r="0.272" transform="translate(296.236 199.234)"/><circle class="f" cx="0.272" cy="0.272" r="0.272" transform="translate(234.523 202.673)"/><circle class="f" cx="0.272" cy="0.272" r="0.272" transform="translate(240.99 202.673)"/><circle class="f" cx="0.272" cy="0.272" r="0.272" transform="translate(247.458 202.673)"/><circle class="f" cx="0.272" cy="0.272" r="0.272" transform="translate(253.925 202.673)"/><circle class="f" cx="0.272" cy="0.272" r="0.272" transform="translate(260.393 202.673)"/><circle class="f" cx="0.272" cy="0.272" r="0.272" transform="translate(266.86 202.673)"/><circle class="f" cx="0.272" cy="0.272" r="0.272" transform="translate(273.328 202.673)"/><circle class="f" cx="0.272" cy="0.272" r="0.272" transform="translate(279.795 202.673)"/><path class="f" d="M427.231,358.243a.271.271,0,1,1-.271-.272A.271.271,0,0,1,427.231,358.243Z" transform="translate(-140.425 -155.298)"/><circle class="f" cx="0.272" cy="0.272" r="0.272" transform="translate(292.73 202.673)"/><circle class="f" cx="0.272" cy="0.272" r="0.272" transform="translate(238.028 205.956)"/><circle class="f" cx="0.272" cy="0.272" r="0.272" transform="translate(244.496 205.956)"/><circle class="f" cx="0.272" cy="0.272" r="0.272" transform="translate(250.963 205.956)"/><circle class="f" cx="0.272" cy="0.272" r="0.272" transform="translate(257.431 205.956)"/><path class="f" d="M344.167,370.436a.272.272,0,1,1-.271-.271A.272.272,0,0,1,344.167,370.436Z" transform="translate(-79.726 -164.209)"/><circle class="f" cx="0.272" cy="0.272" r="0.272" transform="translate(270.366 205.956)"/><path class="f" d="M392.208,370.436a.272.272,0,1,1-.271-.271A.272.272,0,0,1,392.208,370.436Z" transform="translate(-114.832 -164.209)"/><circle class="f" cx="0.272" cy="0.272" r="0.272" transform="translate(283.301 205.956)"/><circle class="f" cx="0.272" cy="0.272" r="0.272" transform="translate(289.768 205.956)"/><circle class="f" cx="0.272" cy="0.272" r="0.272" transform="translate(296.236 205.956)"/><circle class="f" cx="0.272" cy="0.272" r="0.272" transform="translate(234.523 209.396)"/><circle class="f" cx="0.272" cy="0.272" r="0.272" transform="translate(240.99 209.396)"/><circle class="f" cx="0.272" cy="0.272" r="0.272" transform="translate(247.458 209.396)"/><circle class="f" cx="0.272" cy="0.272" r="0.272" transform="translate(253.925 209.396)"/><circle class="f" cx="0.272" cy="0.272" r="0.272" transform="translate(260.393 209.396)"/><circle class="f" cx="0.272" cy="0.272" r="0.272" transform="translate(266.86 209.396)"/><circle class="f" cx="0.272" cy="0.272" r="0.272" transform="translate(273.328 209.396)"/><circle class="f" cx="0.272" cy="0.272" r="0.272" transform="translate(279.795 209.396)"/><path class="f" d="M427.231,383.211a.271.271,0,1,1-.271-.272A.271.271,0,0,1,427.231,383.211Z" transform="translate(-140.425 -173.543)"/><circle class="f" cx="0.272" cy="0.272" r="0.272" transform="translate(292.73 209.396)"/><path class="f" d="M248.085,395.4a.272.272,0,1,1-.272-.271A.272.272,0,0,1,248.085,395.4Z" transform="translate(-9.514 -182.454)"/><path class="f" d="M272.105,395.4a.272.272,0,1,1-.271-.271A.272.272,0,0,1,272.105,395.4Z" transform="translate(-27.066 -182.454)"/><path class="f" d="M296.126,395.4a.272.272,0,1,1-.272-.271A.272.272,0,0,1,296.126,395.4Z" transform="translate(-44.62 -182.454)"/><path class="f" d="M320.146,395.4a.272.272,0,1,1-.271-.271A.271.271,0,0,1,320.146,395.4Z" transform="translate(-62.172 -182.454)"/><path class="f" d="M344.167,395.4a.272.272,0,1,1-.271-.271A.272.272,0,0,1,344.167,395.4Z" transform="translate(-79.726 -182.454)"/><path class="f" d="M368.188,395.4a.272.272,0,1,1-.272-.271A.272.272,0,0,1,368.188,395.4Z" transform="translate(-97.279 -182.454)"/><path class="f" d="M392.208,395.4a.272.272,0,1,1-.271-.271A.271.271,0,0,1,392.208,395.4Z" transform="translate(-114.832 -182.454)"/><path class="f" d="M416.229,395.4a.272.272,0,1,1-.272-.271A.272.272,0,0,1,416.229,395.4Z" transform="translate(-132.385 -182.454)"/><path class="f" d="M440.249,395.4a.272.272,0,1,1-.271-.271A.272.272,0,0,1,440.249,395.4Z" transform="translate(-149.938 -182.454)"/><path class="f" d="M464.27,395.4a.272.272,0,1,1-.272-.271A.272.272,0,0,1,464.27,395.4Z" transform="translate(-167.491 -182.454)"/><circle class="f" cx="0.272" cy="0.272" r="0.272" transform="translate(234.523 216.118)"/><circle class="f" cx="0.272" cy="0.272" r="0.272" transform="translate(240.99 216.118)"/><circle class="f" cx="0.272" cy="0.272" r="0.272" transform="translate(247.458 216.118)"/><circle class="f" cx="0.272" cy="0.272" r="0.272" transform="translate(253.925 216.118)"/><circle class="f" cx="0.272" cy="0.272" r="0.272" transform="translate(260.393 216.118)"/><circle class="f" cx="0.272" cy="0.272" r="0.272" transform="translate(266.86 216.118)"/><circle class="f" cx="0.272" cy="0.272" r="0.272" transform="translate(273.328 216.118)"/><circle class="f" cx="0.272" cy="0.272" r="0.272" transform="translate(279.795 216.118)"/><path class="f" d="M427.231,408.179a.271.271,0,1,1-.271-.272A.271.271,0,0,1,427.231,408.179Z" transform="translate(-140.425 -191.789)"/><circle class="f" cx="0.272" cy="0.272" r="0.272" transform="translate(292.73 216.118)"/><circle class="f" cx="0.272" cy="0.272" r="0.272" transform="translate(238.028 219.401)"/><circle class="f" cx="0.272" cy="0.272" r="0.272" transform="translate(244.496 219.401)"/><circle class="f" cx="0.272" cy="0.272" r="0.272" transform="translate(250.963 219.401)"/><circle class="f" cx="0.272" cy="0.272" r="0.272" transform="translate(257.431 219.401)"/><path class="f" d="M344.167,420.372a.272.272,0,1,1-.271-.271A.272.272,0,0,1,344.167,420.372Z" transform="translate(-79.726 -200.7)"/><circle class="f" cx="0.272" cy="0.272" r="0.272" transform="translate(270.366 219.401)"/><path class="f" d="M392.208,420.372a.272.272,0,1,1-.271-.271A.272.272,0,0,1,392.208,420.372Z" transform="translate(-114.832 -200.7)"/><circle class="f" cx="0.272" cy="0.272" r="0.272" transform="translate(283.301 219.401)"/><circle class="f" cx="0.272" cy="0.272" r="0.272" transform="translate(289.768 219.401)"/><circle class="f" cx="0.272" cy="0.272" r="0.272" transform="translate(296.236 219.401)"/><circle class="f" cx="0.272" cy="0.272" r="0.272" transform="translate(234.523 222.841)"/><circle class="f" cx="0.272" cy="0.272" r="0.272" transform="translate(240.99 222.841)"/><circle class="f" cx="0.272" cy="0.272" r="0.272" transform="translate(247.458 222.841)"/><circle class="f" cx="0.272" cy="0.272" r="0.272" transform="translate(253.925 222.841)"/><circle class="f" cx="0.272" cy="0.272" r="0.272" transform="translate(260.393 222.841)"/><circle class="f" cx="0.272" cy="0.272" r="0.272" transform="translate(266.86 222.841)"/><circle class="f" cx="0.272" cy="0.272" r="0.272" transform="translate(273.328 222.841)"/><circle class="f" cx="0.272" cy="0.272" r="0.272" transform="translate(279.795 222.841)"/><path class="f" d="M427.231,433.147a.271.271,0,1,1-.271-.272A.271.271,0,0,1,427.231,433.147Z" transform="translate(-140.425 -210.034)"/><circle class="f" cx="0.272" cy="0.272" r="0.272" transform="translate(292.73 222.841)"/><circle class="f" cx="0.272" cy="0.272" r="0.272" transform="translate(238.028 226.124)"/><circle class="f" cx="0.272" cy="0.272" r="0.272" transform="translate(244.496 226.124)"/><circle class="f" cx="0.272" cy="0.272" r="0.272" transform="translate(250.963 226.124)"/><circle class="f" cx="0.272" cy="0.272" r="0.272" transform="translate(257.431 226.124)"/><path class="f" d="M344.167,445.34a.272.272,0,1,1-.271-.271A.272.272,0,0,1,344.167,445.34Z" transform="translate(-79.726 -218.945)"/><circle class="f" cx="0.272" cy="0.272" r="0.272" transform="translate(270.366 226.124)"/><path class="f" d="M392.208,445.34a.272.272,0,1,1-.271-.271A.272.272,0,0,1,392.208,445.34Z" transform="translate(-114.832 -218.945)"/><circle class="f" cx="0.272" cy="0.272" r="0.272" transform="translate(283.301 226.124)"/><circle class="f" cx="0.272" cy="0.272" r="0.272" transform="translate(289.768 226.124)"/><circle class="f" cx="0.272" cy="0.272" r="0.272" transform="translate(296.236 226.124)"/><circle class="f" cx="0.272" cy="0.272" r="0.272" transform="translate(234.523 229.563)"/><circle class="f" cx="0.272" cy="0.272" r="0.272" transform="translate(240.99 229.563)"/><circle class="f" cx="0.272" cy="0.272" r="0.272" transform="translate(247.458 229.563)"/><circle class="f" cx="0.272" cy="0.272" r="0.272" transform="translate(253.925 229.563)"/><circle class="f" cx="0.272" cy="0.272" r="0.272" transform="translate(260.393 229.563)"/><circle class="f" cx="0.272" cy="0.272" r="0.272" transform="translate(266.86 229.563)"/><circle class="f" cx="0.272" cy="0.272" r="0.272" transform="translate(273.328 229.563)"/><circle class="f" cx="0.272" cy="0.272" r="0.272" transform="translate(279.795 229.563)"/><path class="f" d="M427.231,458.115a.271.271,0,1,1-.271-.272A.271.271,0,0,1,427.231,458.115Z" transform="translate(-140.425 -228.28)"/><circle class="f" cx="0.272" cy="0.272" r="0.272" transform="translate(292.73 229.563)"/></g></g><path class="k" d="M-5420.113-248.915l5,1.173v30.29l-5,1.324Z" transform="translate(5444.841 273.131)"/><path class="l" d="M-5420.113-248.915l5,1.173v30.29l-5,1.324Z" transform="translate(5445.841 273.131)"/><path class="h" d="M6300.859,986.391l16.844,6.344,22.714-6.322-22.754-5.429Z" transform="translate(-6300.858 -958.896)"/><path class="l" d="M6300.859,985.764l14.893,5.609,20.083-5.589-20.119-4.8Z" transform="translate(-6298.567 -958.216)"/><path class="m" d="M-631.97-380.856a3.355,3.355,0,0,1,1.6-2.146,2.731,2.731,0,0,1,3.705,1.234c.59,1.237-.127,3.008-.6,4.051-1.017,2.24-1.561,3.008-1.909,3.754-.769-.294-1.692-.466-3.982-1.368-1.066-.419-2.814-1.193-3.251-2.494a2.733,2.733,0,0,1,1.8-3.463A3.357,3.357,0,0,1-631.97-380.856Z" transform="translate(642.871 396.212)"/><path class="m" d="M6.593,3.509A4.829,4.829,0,0,1,8.89.421,3.93,3.93,0,0,1,14.222,2.2c.849,1.781-.183,4.329-.866,5.83-1.464,3.223-2.246,4.329-2.747,5.4-1.106-.424-2.435-.671-5.73-1.968C3.344,10.859.83,9.745.2,7.872A3.932,3.932,0,0,1,2.794,2.889,4.831,4.831,0,0,1,6.593,3.509Z" transform="translate(18.087 0) rotate(30)"/><path class="m" d="M2.879,1.533a2.109,2.109,0,0,1,1-1.349A1.716,1.716,0,0,1,6.211.96a3.377,3.377,0,0,1-.378,2.546c-.639,1.408-.981,1.891-1.2,2.36-.483-.185-1.064-.293-2.5-.86C1.46,4.743.362,4.256.087,3.438A1.718,1.718,0,0,1,1.22,1.262,2.11,2.11,0,0,1,2.879,1.533Z" transform="matrix(0.848, 0.53, -0.53, 0.848, 19.534, 18.89)"/><path class="n" d="M1.155.615a.846.846,0,0,1,.4-.541.688.688,0,0,1,.934.311A1.355,1.355,0,0,1,2.34,1.406c-.256.565-.394.758-.481.947-.194-.074-.427-.117-1-.345-.269-.106-.709-.3-.82-.629A.689.689,0,0,1,.49.506.846.846,0,0,1,1.155.615Z" transform="matrix(0.94, -0.342, 0.342, 0.94, 22.821, 16.915)"/><path class="n" d="M1.155.615a.846.846,0,0,1,.4-.541.688.688,0,0,1,.934.311A1.355,1.355,0,0,1,2.34,1.406c-.256.565-.394.758-.481.947-.194-.074-.427-.117-1-.345-.269-.106-.709-.3-.82-.629A.689.689,0,0,1,.49.506.846.846,0,0,1,1.155.615Z" transform="matrix(0.94, -0.342, 0.342, 0.94, 7.396, 12.248)"/><g transform="translate(25.607 18.901)"><path class="o" d="M-225.472,40.607l.953,1.1,1.445-.161-.751,1.245.6,1.325-1.416-.329-1.074.98-.124-1.449L-227.1,42.6l1.34-.566Z" transform="translate(227.105 -40.607)"/></g><g transform="translate(9.522 7.131)"><path class="o" d="M-225.972,40.607l.661.762,1-.112-.521.864.416.919-.983-.229-.745.68-.086-1.005-.877-.5.93-.393Z" transform="translate(227.105 -40.607)"/></g><path class="l" d="M2884.679,868.011c-1.548-.953-1.965-.03-1.22.357s6.567,3.243,6.567,3.243S2886.227,868.964,2884.679,868.011Z" transform="translate(-2882.213 -849.303)"/><path class="l" d="M.764.2C.015-.259-.186.188.173.375S3.351,1.944,3.351,1.944,1.513.663.764.2Z" transform="matrix(0.174, 0.985, -0.985, 0.174, 29.588, 12.406)"/><path class="l" d="M1.6.423C.032-.542-.39.393.363.785S7.016,4.07,7.016,4.07,3.168,1.388,1.6.423Z" transform="matrix(-0.174, 0.985, -0.985, -0.174, 35.833, 13.871)"/><g class="p" transform="matrix(1, 0, 0, 1, 0, 0)"><path class="f" d="M-10.557-12.69l3.528.108,1.854-.036a3.824,3.824,0,0,1,.054.72,1.185,1.185,0,0,1-.135.648.515.515,0,0,1-.459.2q-.324,0-1.377-.09t-1.557-.09L-9.3-11.2q-.072.684-.864,4.374,1.368-.126,2.286-.126A5.439,5.439,0,0,1-6.453-6.8a3.034,3.034,0,0,1-.324,1.3A9.072,9.072,0,0,0-8.613-5.67a12.7,12.7,0,0,0-1.8.108,26.956,26.956,0,0,0-.666,4.95v.306a6.629,6.629,0,0,1-2.736.36h-.18a31.252,31.252,0,0,1,.837-5.094q.837-3.87,1.017-5.562a1.767,1.767,0,0,0-.18-.693,3.117,3.117,0,0,0-.378-.657l-.18-.252.054-.27A12.335,12.335,0,0,1-10.557-12.69ZM-5.229.054h-.126A3.565,3.565,0,0,1-5.391-.6,19.9,19.9,0,0,1-4.9-3.366,24.469,24.469,0,0,0-4.419-5.94a2.091,2.091,0,0,0-.5-1.224l-.162-.216.018-.234a12.809,12.809,0,0,1,3.114-.27A3.214,3.214,0,0,1-1.737-6.57a4.27,4.27,0,0,1,.828-.864,1.981,1.981,0,0,1,1.3-.54q.972,0,.972,1.692-.09.108-.243.279A3.538,3.538,0,0,1,.5-5.526a2.3,2.3,0,0,1-.891.378,4.155,4.155,0,0,1-.306-.486q-.288-.486-.432-.486a1.949,1.949,0,0,0-.792.54A29.79,29.79,0,0,0-2.745-.756q0,.4.018.558A7.991,7.991,0,0,1-5.229.054ZM.891-3.114A4.7,4.7,0,0,1,2.25-6.669a4.339,4.339,0,0,1,3.087-1.3,2.8,2.8,0,0,1,1.746.522,1.666,1.666,0,0,1,.684,1.4A2.392,2.392,0,0,1,7.326-4.59a3.074,3.074,0,0,1-1.071.918,8.163,8.163,0,0,1-2.34.792l-.432.054q.126,1.692,1.386,1.692a2.265,2.265,0,0,0,.918-.216,3.51,3.51,0,0,0,.756-.432L6.813-2l.432.576A2.923,2.923,0,0,1,6.669-.9a7.894,7.894,0,0,1-.81.54A4.654,4.654,0,0,1,3.573.216,2.4,2.4,0,0,1,1.611-.666,3.767,3.767,0,0,1,.891-3.114Zm2.574-.594a2.439,2.439,0,0,0,1.458-.774,2.306,2.306,0,0,0,.54-1.584q0-.972-.576-.972-.684,0-1.053,1.161A7.184,7.184,0,0,0,3.465-3.708Zm4.608.594A4.7,4.7,0,0,1,9.432-6.669a4.339,4.339,0,0,1,3.087-1.3,2.8,2.8,0,0,1,1.746.522,1.666,1.666,0,0,1,.684,1.4,2.392,2.392,0,0,1-.441,1.467,3.074,3.074,0,0,1-1.071.918,8.163,8.163,0,0,1-2.34.792l-.432.054q.126,1.692,1.386,1.692a2.265,2.265,0,0,0,.918-.216,3.51,3.51,0,0,0,.756-.432L13.995-2l.432.576a2.923,2.923,0,0,1-.576.522,7.894,7.894,0,0,1-.81.54,4.654,4.654,0,0,1-2.286.576A2.4,2.4,0,0,1,8.793-.666,3.767,3.767,0,0,1,8.073-3.114Zm2.574-.594A2.439,2.439,0,0,0,12.1-4.482a2.306,2.306,0,0,0,.54-1.584q0-.972-.576-.972-.684,0-1.053,1.161A7.184,7.184,0,0,0,10.647-3.708Z" transform="translate(20.14 49.1)"/></g></svg>