<svg xmlns="http://www.w3.org/2000/svg" xmlns:xlink="http://www.w3.org/1999/xlink" width="68" height="56" viewBox="0 0 68 56"><defs><radialGradient id="a" cx="0.678" cy="0.274" r="0.779" gradientUnits="objectBoundingBox"><stop offset="0.005" stop-color="#ffffa6"/><stop offset="0.079" stop-color="#fffb97"/><stop offset="0.175" stop-color="#fff98a"/><stop offset="0.267" stop-color="#fdf382"/><stop offset="0.407" stop-color="#fae26c"/><stop offset="0.58" stop-color="#f5c849"/><stop offset="0.776" stop-color="#eda419"/><stop offset="0.84" stop-color="#eb9708"/><stop offset="0.929" stop-color="#f18d08"/><stop offset="1" stop-color="#fa8308"/></radialGradient><clipPath id="b"><circle cx="21.39" cy="21.39" r="21.39" fill="none"/></clipPath><linearGradient id="c" x1="0.5" y1="0.034" x2="0.5" y2="0.525" gradientUnits="objectBoundingBox"><stop offset="0" stop-color="#fff" stop-opacity="0.8"/><stop offset="0.292" stop-color="#fff" stop-opacity="0.58"/><stop offset="0.962" stop-color="#fff" stop-opacity="0.031"/><stop offset="1" stop-color="#fff" stop-opacity="0"/></linearGradient><radialGradient id="d" cx="0.48" cy="0.932" fx="0.372343510389328" r="1.015" gradientTransform="translate(0.081) scale(0.838 1)" gradientUnits="objectBoundingBox"><stop offset="0.005" stop-color="#ff201f"/><stop offset="0.221" stop-color="#fb1f1e"/><stop offset="0.41" stop-color="#f01d1c"/><stop offset="0.589" stop-color="#de1b19"/><stop offset="0.762" stop-color="#c51715"/><stop offset="0.929" stop-color="#a5130f"/><stop offset="1" stop-color="#95110d"/></radialGradient><filter id="e" x="22.271" y="28.027" width="26.288" height="23.975" filterUnits="userSpaceOnUse"><feOffset dx="1" dy="1" input="SourceAlpha"/><feGaussianBlur stdDeviation="2" result="f"/><feFlood flood-color="#99530d" flood-opacity="0.749"/><feComposite operator="in" in2="f"/><feComposite in="SourceGraphic"/></filter><clipPath id="g"><path d="M-413.212,589.061a.623.623,0,0,0-.578.856,11.566,11.566,0,0,0,10.975,7.465,11.755,11.755,0,0,0,11.065-7.521.624.624,0,0,0-.58-.861Z" transform="translate(413.837 -589.001)" fill="none"/></clipPath><radialGradient id="h" cx="0.5" cy="0.5" r="4.258" gradientTransform="translate(0.444) scale(0.112 1)" gradientUnits="objectBoundingBox"><stop offset="0.005" stop-color="#fff"/><stop offset="0.318" stop-color="#fbfbfb"/><stop offset="0.593" stop-color="#f0f1f1"/><stop offset="0.852" stop-color="#dee0e1"/><stop offset="1" stop-color="#d1d3d4"/></radialGradient><radialGradient id="i" cx="0.5" cy="0.5" r="1.12" gradientTransform="translate(0.209 -1.335) scale(0.583 0.606)" gradientUnits="objectBoundingBox"><stop offset="0.005" stop-color="#ff5a3d"/><stop offset="0.495" stop-color="#ff6241" stop-opacity="0.349"/><stop offset="0.627" stop-color="#ff8150" stop-opacity="0.275"/><stop offset="0.892" stop-color="#ffd478" stop-opacity="0.086"/><stop offset="1" stop-color="#fff98a" stop-opacity="0"/></radialGradient><radialGradient id="j" cx="0.5" cy="0.5" r="1.12" xlink:href="#i"/><clipPath id="l"><rect width="68" height="56"/></clipPath></defs><g id="k" clip-path="url(#l)"><g transform="translate(471.697 -474.693)"><g transform="translate(-458.697 481.927)"><g transform="translate(0 0)"><circle cx="21.39" cy="21.39" r="21.39" fill="url(#a)"/></g><g transform="translate(0 0)"><g clip-path="url(#b)"><path d="M-435.14,494.727a24.423,24.423,0,0,1,20.819,11.546c.029-.441.048-.885.048-1.334a20.734,20.734,0,0,0-20.867-20.6,20.734,20.734,0,0,0-20.867,20.6c0,.449.02.892.048,1.334A24.423,24.423,0,0,1-435.14,494.727Z" transform="translate(456.63 -483.781)" fill="url(#c)"/><g transform="translate(4.523 15.181)"><path d="M-413.212,589.061a.623.623,0,0,0-.578.856,11.566,11.566,0,0,0,10.975,7.465,11.755,11.755,0,0,0,11.065-7.521.624.624,0,0,0-.58-.861Z" transform="translate(419.71 -579.368)" fill="#6a0000"/><path d="M-392.093,617.464a10.207,10.207,0,0,1-7.793-3.283,9.3,9.3,0,0,0,7.8,3.846,9.409,9.409,0,0,0,7.892-3.941A10.3,10.3,0,0,1-392.093,617.464Z" transform="translate(408.992 -598.639)" fill="#bc7a1b" opacity="0.75" style="mix-blend-mode:multiply;isolation:isolate"/><g transform="matrix(1, 0, 0, 1, -17.52, -22.41)" filter="url(#e)"><path d="M-397.118,593.589s.836,11.776,7.453,11.608,6.835-11.972,6.835-11.972" transform="translate(424.39 -560.2)" fill="url(#d)"/></g><g transform="translate(5.873 9.633)"><g clip-path="url(#g)"><path d="M-409.013,588.166c-.4,0-.679.121-.527.23.792.571,3.437,2.008,10,2.008s9.262-1.447,10.079-2.023c.157-.11-.123-.232-.528-.232Z" transform="translate(410.568 -588.347)" fill="url(#h)"/></g></g><g transform="translate(0 3.759)"><ellipse cx="4.221" cy="2.459" rx="4.221" ry="2.459" transform="translate(25.294)" fill="url(#i)"/><ellipse cx="4.221" cy="2.459" rx="4.221" ry="2.459" fill="url(#j)"/></g><g transform="translate(4.689)"><path d="M-418.737,551.411a.987.987,0,0,1-.044-.107,2.579,2.579,0,0,1-.091-.314,2.79,2.79,0,0,1-.068-.506,2.321,2.321,0,0,1,0-.319,2.334,2.334,0,0,1,.039-.358,2.4,2.4,0,0,1,.092-.391,2.471,2.471,0,0,1,.163-.414,2.63,2.63,0,0,1,.252-.419,3.319,3.319,0,0,1,.352-.395,4,4,0,0,1,.449-.331,3.973,3.973,0,0,1,.517-.237,4.943,4.943,0,0,1,.546-.138l.547-.046h.017l.068,0h.007l.028,0,.055,0,.11.01.219.019a1.587,1.587,0,0,1,.278.052c.1.025.2.051.3.079a2.965,2.965,0,0,1,.529.232,3.763,3.763,0,0,1,.456.323,3.905,3.905,0,0,1,.358.393,2.954,2.954,0,0,1,.256.419,2.833,2.833,0,0,1,.259.809,2.475,2.475,0,0,1,.038.359,2.366,2.366,0,0,1,0,.32,2.807,2.807,0,0,1-.071.507,2.541,2.541,0,0,1-.094.314,1.015,1.015,0,0,1-.045.107s-.067-.149-.189-.385c-.061-.117-.132-.258-.222-.408-.043-.076-.088-.154-.142-.233a2.465,2.465,0,0,0-.164-.24,2.209,2.209,0,0,0-.186-.235,2.136,2.136,0,0,0-.207-.218,2.643,2.643,0,0,0-.225-.19l-.241-.153c-.094-.029-.17-.08-.262-.11l-.141-.038a.438.438,0,0,0-.132-.036c-.042,0-.083-.011-.123-.019a.643.643,0,0,0-.152-.024l-.375-.02q-.165.012-.332.017c-.105.015-.2.035-.307.048s-.184.06-.282.079c-.086.04-.17.08-.26.117-.077.055-.165.1-.242.157a2.291,2.291,0,0,0-.226.193,2,2,0,0,0-.207.221,2.119,2.119,0,0,0-.186.237,2.466,2.466,0,0,0-.164.24c-.055.078-.1.157-.143.233-.091.15-.162.29-.223.407C-418.669,551.262-418.737,551.411-418.737,551.411Z" transform="translate(418.946 -547.433)" fill="#6a0000"/><path d="M-338.634,551.411a.972.972,0,0,1-.044-.107,2.533,2.533,0,0,1-.091-.314,2.8,2.8,0,0,1-.068-.506,2.336,2.336,0,0,1,0-.319,2.338,2.338,0,0,1,.039-.358,2.4,2.4,0,0,1,.092-.391,2.472,2.472,0,0,1,.163-.414,2.628,2.628,0,0,1,.252-.419,3.318,3.318,0,0,1,.352-.395,3.99,3.99,0,0,1,.449-.331,3.975,3.975,0,0,1,.517-.237,4.943,4.943,0,0,1,.546-.138l.547-.046h.017l.068,0h.007l.028,0,.055,0,.11.01.219.019a1.586,1.586,0,0,1,.278.052c.1.025.2.051.3.079a2.967,2.967,0,0,1,.529.232,3.766,3.766,0,0,1,.456.323,3.906,3.906,0,0,1,.358.393,2.957,2.957,0,0,1,.256.419,2.834,2.834,0,0,1,.259.809,2.466,2.466,0,0,1,.038.359,2.372,2.372,0,0,1,0,.32,2.807,2.807,0,0,1-.071.507,2.5,2.5,0,0,1-.094.314,1.021,1.021,0,0,1-.045.107s-.067-.149-.189-.385c-.061-.117-.132-.258-.222-.408-.043-.076-.088-.154-.142-.233a2.471,2.471,0,0,0-.164-.24,2.217,2.217,0,0,0-.186-.235,2.14,2.14,0,0,0-.207-.218,2.639,2.639,0,0,0-.225-.19l-.241-.153c-.094-.029-.17-.08-.262-.11l-.141-.038a.438.438,0,0,0-.132-.036c-.042,0-.083-.011-.123-.019a.642.642,0,0,0-.152-.024l-.375-.02q-.165.012-.332.017c-.105.015-.2.035-.307.048s-.184.06-.282.079c-.086.04-.17.08-.26.117-.077.055-.165.1-.242.157a2.294,2.294,0,0,0-.226.193,2.007,2.007,0,0,0-.207.221,2.116,2.116,0,0,0-.186.237,2.461,2.461,0,0,0-.164.24c-.055.078-.1.157-.143.233-.091.15-.162.29-.223.407C-338.566,551.262-338.634,551.411-338.634,551.411Z" transform="translate(357.406 -547.433)" fill="#6a0000"/></g></g></g></g></g></g></g></svg>