<svg xmlns="http://www.w3.org/2000/svg" xmlns:xlink="http://www.w3.org/1999/xlink" width="68" height="56" viewBox="0 0 68 56"><defs><clipPath id="a"><path d="M1502.051,767.722a16.78,16.78,0,0,0,15.208,0c4.178-2.428,4.156-6.379-.049-8.807a16.786,16.786,0,0,0-15.208,0c-4.181,2.43-4.156,6.383.049,8.811" transform="translate(-1498.881 -757.091)" fill="none"/></clipPath><clipPath id="d"><rect width="68" height="56"/></clipPath></defs><g id="c" clip-path="url(#d)"><g transform="translate(-157 -287)"><g transform="translate(-1323.859 -450.378)"><g transform="translate(1492.859 753.617)" style="isolation:isolate"><g transform="translate(2.745 1.591)"><g style="isolation:isolate"><path d="M1540.218,764.627l-.014,4.854c0-1.605-1.052-3.213-3.168-4.434a11.7,11.7,0,0,0-1.546-.741l.014-4.854a11.633,11.633,0,0,1,1.546.741c2.116,1.222,3.173,2.829,3.168,4.435" transform="translate(-1518.707 -758.37)" fill="#c27400"/><path d="M1533.96,758.93l-.014,4.854q-.631-.249-1.3-.44l.014-4.854q.672.192,1.3.44" transform="translate(-1517.164 -757.849)" fill="#c27400"/><path d="M1531.328,758.164l-.014,4.854q-.55-.156-1.122-.275l.013-4.854q.572.119,1.122.275" transform="translate(-1515.836 -757.524)" fill="#c27400"/><path d="M1528.943,757.669l-.014,4.855q-.527-.109-1.068-.186l.014-4.854q.54.076,1.068.185" transform="translate(-1514.573 -757.304)" fill="#c27400"/><path d="M1526.634,757.345l-.014,4.854q-.52-.073-1.048-.117l.014-4.854q.528.043,1.048.117" transform="translate(-1513.332 -757.166)" fill="#c27400"/><path d="M1524.328,757.161l-.014,4.854q-.529-.043-1.063-.057l.014-4.854q.533.013,1.063.057" transform="translate(-1512.075 -757.098)" fill="#c27400"/><path d="M1521.959,757.1l-.014,4.854c-.368-.009-.737-.007-1.1.005l.014-4.854q.552-.018,1.1-.005" transform="translate(-1510.768 -757.091)" fill="#c27400"/><path d="M1519.439,757.115l-.014,4.854c-.4.014-.8.04-1.2.08l.014-4.854c.4-.039.8-.066,1.2-.08" transform="translate(-1509.353 -757.104)" fill="#c27400"/><path d="M1516.618,757.289l-.014,4.854c-.464.046-.922.11-1.373.191l.014-4.854c.451-.081.91-.145,1.373-.191" transform="translate(-1507.728 -757.198)" fill="#c27400"/><path d="M1512.836,757.707l-.014,4.854a15.523,15.523,0,0,0-2.036.507l.013-4.854a15.536,15.536,0,0,1,2.036-.507" transform="translate(-1505.32 -757.425)" fill="#c27400"/><path d="M1507.87,758.813l-.014,4.854a12.14,12.14,0,0,0-2.347,1.031l-.13.077.013-4.854.131-.077a12.114,12.114,0,0,1,2.347-1.032" transform="translate(-1502.389 -758.024)" fill="#c27400"/><path d="M1503.787,761.234l-.014,4.854a8.293,8.293,0,0,0-1.356,1.005l.014-4.854a8.3,8.3,0,0,1,1.357-1" transform="translate(-1500.783 -759.336)" fill="#c27400"/><path d="M1501.641,763.427l-.013,4.854a6.082,6.082,0,0,0-.667.716l.014-4.854a6.172,6.172,0,0,1,.667-.717" transform="translate(-1499.995 -760.525)" fill="#c27400"/><path d="M1500.463,764.992l-.014,4.854a5.053,5.053,0,0,0-.433.643l.014-4.854a4.992,4.992,0,0,1,.433-.643" transform="translate(-1499.482 -761.373)" fill="#c27400"/><path d="M1499.69,766.4l-.014,4.854a4.361,4.361,0,0,0-.287.612l.014-4.854a4.32,4.32,0,0,1,.287-.612" transform="translate(-1499.143 -762.134)" fill="#c27400"/><path d="M1499.2,767.732l-.013,4.854a3.929,3.929,0,0,0-.174.607l.014-4.854a3.945,3.945,0,0,1,.174-.607" transform="translate(-1498.937 -762.858)" fill="#c27400"/><path d="M1498.939,769.057l-.014,4.854a3.712,3.712,0,0,0-.07.619l.014-4.854a3.711,3.711,0,0,1,.07-.619" transform="translate(-1498.853 -763.576)" fill="#c27400"/><path d="M1498.867,770.408l-.014,4.854c0,.032,0,.063,0,.095l.014-4.854c0-.032,0-.063,0-.095" transform="translate(-1498.851 -764.308)" fill="#c27400"/></g></g><g transform="translate(0 7.778)" style="isolation:isolate"><g style="isolation:isolate"><path d="M1551.795,770.767l-.013,4.854q0,.059,0,.119l.014-4.855c0-.039,0-.079,0-.119" transform="translate(-1524.79 -770.69)" fill="#948000"/><path d="M1551.688,771.026l-.014,4.854a4.654,4.654,0,0,1-.089.776l.014-4.854a4.651,4.651,0,0,0,.089-.777" transform="translate(-1524.685 -770.83)" fill="#b56600"/><path d="M1551.341,772.722l-.014,4.854a4.956,4.956,0,0,1-.219.762l.014-4.854a4.981,4.981,0,0,0,.219-.762" transform="translate(-1524.427 -771.749)" fill="#b56600"/><path d="M1550.7,774.385l-.014,4.854a5.554,5.554,0,0,1-.36.769l.014-4.854a5.556,5.556,0,0,0,.361-.769" transform="translate(-1524 -772.65)" fill="#b56600"/><path d="M1549.692,776.063l-.014,4.854a6.381,6.381,0,0,1-.543.807l.014-4.854a6.382,6.382,0,0,0,.543-.807" transform="translate(-1523.357 -773.56)" fill="#b56600"/><path d="M1548.159,777.825l-.013,4.854a7.809,7.809,0,0,1-.837.9l.014-4.854a7.819,7.819,0,0,0,.837-.9" transform="translate(-1522.367 -774.515)" fill="#b56600"/><path d="M1545.306,779.789l-.014,4.854a10.4,10.4,0,0,1-1.7,1.261l.014-4.854a10.434,10.434,0,0,0,1.7-1.262" transform="translate(-1520.351 -775.579)" fill="#b56600"/><path d="M1539.918,782.543l-.014,4.854-.164.1a15.228,15.228,0,0,1-2.95,1.3l.014-4.854a15.224,15.224,0,0,0,2.95-1.3l.164-.1" transform="translate(-1516.667 -777.072)" fill="#d48d00"/><path d="M1533.779,785.586l-.014,4.854a19.484,19.484,0,0,1-2.557.636l.014-4.854a19.48,19.48,0,0,0,2.556-.636" transform="translate(-1513.642 -778.721)" fill="#e49c00"/><path d="M1529.182,786.975l-.014,4.854q-.85.153-1.725.24l.014-4.854c.582-.058,1.158-.138,1.725-.24" transform="translate(-1511.602 -779.473)" fill="#e49c00"/><path d="M1525.682,787.5l-.014,4.854q-.746.074-1.5.1l.014-4.854q.755-.026,1.5-.1" transform="translate(-1509.826 -779.758)" fill="#e49c00"/><path d="M1522.541,787.718l-.014,4.854c-.461.016-.924.018-1.387.006l.014-4.854c.462.011.925.009,1.386-.006" transform="translate(-1508.186 -779.876)" fill="#e49c00"/><path d="M1519.577,787.647l-.014,4.854q-.669-.016-1.333-.072l.014-4.854q.664.055,1.333.071" transform="translate(-1506.609 -779.799)" fill="#e49c00"/><path d="M1516.688,787.4l-.014,4.854q-.662-.054-1.316-.147l.014-4.854q.653.093,1.316.147" transform="translate(-1505.052 -779.625)" fill="#d48d00"/><path d="M1513.787,786.979l-.014,4.854c-.452-.064-.9-.141-1.34-.233l.014-4.855q.661.138,1.34.233" transform="translate(-1503.467 -779.349)" fill="#d48d00"/><path d="M1510.781,786.338l-.014,4.854q-.717-.149-1.408-.345l.014-4.854q.69.2,1.409.345" transform="translate(-1501.801 -778.941)" fill="#d48d00"/><path d="M1507.435,785.339l-.014,4.854q-.844-.241-1.637-.553l.014-4.854c.528.208,1.075.393,1.637.553" transform="translate(-1499.864 -778.287)" fill="#d48d00"/><path d="M1498.793,777.1l-.014,4.854a14.66,14.66,0,0,1-1.941-.93c-2.658-1.534-3.985-3.553-3.98-5.569l.014-4.854c-.006,2.015,1.322,4.034,3.979,5.569a14.577,14.577,0,0,0,1.941.93" transform="translate(-1492.859 -770.598)" fill="#b56600"/></g></g><g transform="translate(0.014)"><path d="M1515.9,755.9c5.281,3.049,5.309,8.01.062,11.06s-13.812,3.049-19.093,0-5.31-8.01-.062-11.06S1510.618,752.855,1515.9,755.9Zm-17.1,9.935a16.781,16.781,0,0,0,15.208,0c4.178-2.428,4.156-6.38-.049-8.807a16.785,16.785,0,0,0-15.208,0c-4.181,2.43-4.156,6.383.049,8.811" transform="translate(-1492.889 -753.617)" fill="#fd0"/></g><path d="M1523.181,769.421c.1-.065.195-.129.287-.194.063-.045.121-.091.182-.136.077-.058.156-.114.23-.173s.124-.1.186-.154.133-.109.2-.164.118-.109.177-.164.119-.108.175-.163.112-.116.168-.175.1-.106.152-.159.109-.126.162-.19.087-.1.127-.15c.054-.067.1-.136.154-.2.035-.047.072-.094.105-.142.051-.073.1-.146.143-.219.028-.044.059-.088.085-.132.047-.078.089-.156.131-.234.022-.041.046-.081.067-.121.042-.082.08-.165.117-.248.017-.037.036-.075.051-.112.037-.087.069-.174.1-.261.012-.034.027-.067.038-.1.031-.091.057-.183.082-.275.008-.03.018-.06.026-.09.025-.1.044-.193.062-.289,0-.026.011-.051.016-.077.017-.1.03-.2.04-.3,0-.022.006-.044.008-.066.01-.1.014-.209.016-.314,0-.018,0-.036,0-.055,0-.109,0-.217-.01-.326,0-.014,0-.029,0-.043q-.012-.168-.037-.336l0-.032c-.017-.115-.04-.229-.066-.343l-.005-.023c-.027-.117-.06-.234-.1-.35l0-.015q-.057-.178-.128-.355l0-.007a7.9,7.9,0,0,0-3.419-3.645,29.23,29.23,0,0,0-3.531.333,11.624,11.624,0,0,1,1.391.67c4.205,2.428,4.228,6.379.049,8.807a16.778,16.778,0,0,1-15.208,0c-.035-.02-.064-.042-.1-.062a7.457,7.457,0,0,0-.247,1.883c0,.027,0,.053,0,.08h0a21.151,21.151,0,0,0,8.761,1.489c.083,0,.165,0,.248-.007.277-.012.553-.033.83-.055.139-.011.278-.021.416-.034.243-.024.485-.054.726-.086.169-.022.339-.045.507-.071q.327-.051.65-.112c.189-.035.376-.074.563-.114s.391-.086.584-.134.4-.105.6-.161c.175-.049.35-.1.523-.153.213-.067.421-.141.629-.216.152-.054.306-.106.455-.164.233-.091.458-.191.682-.291.117-.052.238-.1.353-.155.336-.16.662-.33.976-.512q.244-.142.473-.289C1523.079,769.491,1523.129,769.456,1523.181,769.421Z" transform="translate(-1499.465 -756.469)" fill="#ffffb7" opacity="0.43" style="mix-blend-mode:lighten;isolation:isolate"/><g transform="translate(8.461 10.53)"><path d="M1526.064,776.605a7.53,7.53,0,0,1-2.058,1.691c-3.276,1.9-8.168,2.309-12.158,1.23l-.518,1.61c4.885,1.146,10.689.574,14.626-1.714a9.982,9.982,0,0,0,2.266-1.762Q1527.137,777.143,1526.064,776.605Z" transform="translate(-1511.33 -776.605)" fill="#ffee7a"/></g><g transform="translate(19.859 9.258)"><path d="M1540.316,773.829a6.3,6.3,0,0,1-2.825,2.962,11.238,11.238,0,0,1-1.277.625q.269.85.543,1.7a15.069,15.069,0,0,0,2.685-1.2,8.7,8.7,0,0,0,3.17-2.932Q1541.452,774.43,1540.316,773.829Z" transform="translate(-1536.214 -773.829)" fill="#ffffb7"/></g></g><g transform="translate(1495.618 755.209)"><g clip-path="url(#a)"><g transform="translate(0.344 1.028)"><g transform="translate(0)" style="isolation:isolate"><g transform="translate(0.013 6.016)" style="isolation:isolate"><g style="isolation:isolate"><path d="M1545,772.6l-.009,3.16c0,.03,0,.061,0,.091l.009-3.16c0-.03,0-.061,0-.092" transform="translate(-1524.226 -772.54)" fill="#845a00"/><path d="M1544.917,772.8l-.009,3.16a3.622,3.622,0,0,1-.068.6l.009-3.16a3.5,3.5,0,0,0,.068-.6" transform="translate(-1524.145 -772.648)" fill="#895e00"/><path d="M1544.649,774.1l-.009,3.16a3.785,3.785,0,0,1-.169.586l.009-3.16a3.744,3.744,0,0,0,.168-.586" transform="translate(-1523.946 -773.355)" fill="#8d6100"/><path d="M1544.153,775.383l-.009,3.16a4.163,4.163,0,0,1-.277.591l.009-3.16a4.177,4.177,0,0,0,.277-.591" transform="translate(-1523.618 -774.049)" fill="#926400"/><path d="M1543.382,776.674l-.009,3.16a4.828,4.828,0,0,1-.418.621l.009-3.16a4.934,4.934,0,0,0,.418-.621" transform="translate(-1523.123 -774.748)" fill="#966700"/><path d="M1542.2,778.029l-.009,3.16a6,6,0,0,1-.644.693l.009-3.16a5.938,5.938,0,0,0,.644-.692" transform="translate(-1522.362 -775.483)" fill="#9b6a00"/><path d="M1540.008,779.54,1540,782.7a8.045,8.045,0,0,1-1.311.971l.009-3.16a8,8,0,0,0,1.311-.971" transform="translate(-1520.811 -776.302)" fill="#a06d00"/><path d="M1535.863,781.659l-.009,3.16c-.041.025-.084.05-.127.074a11.714,11.714,0,0,1-2.269,1l.009-3.16a11.688,11.688,0,0,0,2.27-1l.126-.075" transform="translate(-1517.976 -777.45)" fill="#a47000"/><path d="M1531.14,784l-.009,3.16a14.976,14.976,0,0,1-1.967.489l.009-3.16a15.05,15.05,0,0,0,1.967-.49" transform="translate(-1515.65 -778.719)" fill="#a06d00"/><path d="M1527.6,785.069l-.009,3.16c-.436.079-.879.14-1.327.185l.009-3.16c.448-.044.891-.106,1.327-.185" transform="translate(-1514.08 -779.298)" fill="#9b6a00"/><path d="M1524.911,785.472l-.009,3.16q-.574.057-1.155.077l.009-3.16c.387-.013.772-.039,1.155-.077" transform="translate(-1512.714 -779.516)" fill="#966700"/><path d="M1522.494,785.64l-.009,3.16q-.533.018-1.067,0l.009-3.16q.533.013,1.066-.005" transform="translate(-1511.452 -779.607)" fill="#926400"/><path d="M1520.214,785.586l-.009,3.16q-.515-.012-1.026-.055l.009-3.16q.511.043,1.026.055" transform="translate(-1510.238 -779.548)" fill="#8d6100"/><path d="M1517.991,785.4l-.009,3.16q-.509-.042-1.012-.113l.009-3.16c.334.048.672.085,1.012.113" transform="translate(-1509.041 -779.415)" fill="#895e00"/><path d="M1515.759,785.072l-.009,3.16c-.347-.049-.692-.109-1.031-.18l.009-3.16q.508.105,1.031.179" transform="translate(-1507.821 -779.203)" fill="#845a00"/><path d="M1513.447,784.579l-.009,3.16q-.552-.114-1.083-.265l.009-3.16c.354.1.716.19,1.084.266" transform="translate(-1506.539 -778.888)" fill="#805700"/><path d="M1510.873,783.81l-.009,3.16c-.433-.124-.854-.265-1.26-.426l.009-3.16c.405.16.827.3,1.259.425" transform="translate(-1505.049 -778.385)" fill="#7b5400"/><path d="M1504.224,777.47l-.009,3.16a11.292,11.292,0,0,1-1.493-.716c-2.045-1.181-3.066-2.734-3.061-4.284l.009-3.16c0,1.551,1.017,3.1,3.062,4.284a11.168,11.168,0,0,0,1.493.716" transform="translate(-1499.66 -772.47)" fill="#775100"/></g></g><g transform="translate(0)"><ellipse cx="6.016" cy="10.387" rx="6.016" ry="10.387" transform="translate(0 12.033) rotate(-89.837)" fill="#e49c00"/></g></g></g><path d="M1520.461,761.759a12.543,12.543,0,0,0-3.209-1.257c-6.355,1.509-11.046,5.119-11.892,9.472.15.1.3.2.46.294a16.207,16.207,0,0,0,14.689,0C1524.546,767.922,1524.524,764.105,1520.461,761.759Z" transform="translate(-1502.392 -758.94)" fill="#ffffb7" opacity="0.43" style="mix-blend-mode:lighten;isolation:isolate"/></g></g><g transform="translate(1501.233 758.7)"><g style="isolation:isolate"><g transform="translate(9.273 0.463)"><path d="M1532.465,765.724v.4l-1.08.628v-.4Z" transform="translate(-1531.385 -765.724)" fill="#b56600"/></g><g transform="translate(3.651 1.767)"><g style="isolation:isolate"><path d="M1519.113,768.636v.4c0-.021,0-.043,0-.064v-.4c0,.021,0,.043,0,.065" transform="translate(-1519.11 -768.571)" fill="#b56600"/></g></g><g transform="translate(5.561 1.238)"><g style="isolation:isolate"><path d="M1527.984,768.273v.4c0-.183-.123-.344-.372-.488a1.78,1.78,0,0,0-.244-.118v-.4a1.793,1.793,0,0,1,.244.118c.249.144.373.305.372.488" transform="translate(-1525.495 -767.553)" fill="#b56600"/><path d="M1527.186,767.605v.4c-.051-.02-.1-.037-.154-.052v-.4a1.587,1.587,0,0,1,.154.052" transform="translate(-1525.313 -767.491)" fill="#b56600"/><path d="M1526.894,767.52v.4c-.039-.011-.078-.02-.116-.028l0-.4c.039.008.077.017.116.028" transform="translate(-1525.175 -767.457)" fill="#b56600"/><path d="M1526.661,767.471v.4c-.033-.007-.066-.013-.1-.017v-.4c.034,0,.067.011.1.018" transform="translate(-1525.057 -767.437)" fill="#b56600"/><path d="M1526.449,767.441v.4c-.031,0-.062-.008-.094-.01v-.4c.031,0,.063.006.094.01" transform="translate(-1524.946 -767.424)" fill="#b56600"/><path d="M1526.245,767.424v.4l-.094,0v-.4c.032,0,.063,0,.094.005" transform="translate(-1524.836 -767.418)" fill="#b56600"/><path d="M1526.021,767.418v.4h-.11v-.4h.11" transform="translate(-1524.705 -767.418)" fill="#b56600"/><path d="M1525.78,767.42v.4c-.037,0-.073,0-.11.007v-.4c.037,0,.073-.006.11-.007" transform="translate(-1524.575 -767.419)" fill="#b56600"/><path d="M1525.515,767.436v.4c-.045,0-.088.01-.131.018v-.4c.043-.008.087-.014.131-.018" transform="translate(-1524.42 -767.428)" fill="#b56600"/><path d="M1525.13,767.476v.4a1.693,1.693,0,0,0-.215.054v-.4a1.74,1.74,0,0,1,.215-.054" transform="translate(-1524.165 -767.449)" fill="#b56600"/><path d="M1524.46,767.593V768a1.815,1.815,0,0,0-.359.161l-.025.015v-.4l.025-.015a1.846,1.846,0,0,1,.359-.161" transform="translate(-1523.71 -767.513)" fill="#b56600"/><path d="M1523.85,767.978v.4a1.161,1.161,0,0,0-.19.14v-.4a1.169,1.169,0,0,1,.19-.14" transform="translate(-1523.486 -767.721)" fill="#b56600"/><path d="M1523.57,768.283v.4a.715.715,0,0,0-.076.082v-.4a.734.734,0,0,1,.076-.082" transform="translate(-1523.396 -767.887)" fill="#b56600"/><path d="M1523.441,768.461v.4a.587.587,0,0,0-.045.067v-.4a.572.572,0,0,1,.045-.067" transform="translate(-1523.342 -767.983)" fill="#b56600"/><path d="M1523.362,768.607v.4a.392.392,0,0,0-.028.061v-.4a.481.481,0,0,1,.028-.061" transform="translate(-1523.309 -768.062)" fill="#b56600"/><path d="M1523.314,768.74v.4a.334.334,0,0,0-.017.06v-.4a.387.387,0,0,1,.017-.06" transform="translate(-1523.288 -768.134)" fill="#b56600"/><path d="M1523.288,768.871v.4a.352.352,0,0,0-.007.055v-.405a.471.471,0,0,1,.006-.055" transform="translate(-1523.28 -768.205)" fill="#b56600"/></g></g><g transform="translate(8.848 2.157)"><g style="isolation:isolate"><path d="M1532.838,769.424v0" transform="translate(-1531.746 -769.424)" fill="#b56600"/><path d="M1532.815,769.477v.4a.944.944,0,0,1-.014.134l-.005.028v-.4l.006-.028a1,1,0,0,0,.013-.134" transform="translate(-1531.724 -769.453)" fill="#b56600"/><path d="M1532.741,769.83v.4a1.032,1.032,0,0,1-.046.161v-.4a1.068,1.068,0,0,0,.046-.161" transform="translate(-1531.669 -769.644)" fill="#b56600"/><path d="M1532.6,770.182v.4a1.194,1.194,0,0,1-.078.166v-.4a1.177,1.177,0,0,0,.078-.166" transform="translate(-1531.577 -769.835)" fill="#b56600"/><path d="M1532.378,770.545v.4a1.468,1.468,0,0,1-.124.184v-.4a1.481,1.481,0,0,0,.124-.184" transform="translate(-1531.43 -770.032)" fill="#b56600"/><path d="M1532,770.946l0,.4a2.032,2.032,0,0,1-.212.229v-.4a2.043,2.043,0,0,0,.213-.229" transform="translate(-1531.179 -770.249)" fill="#b56600"/><path d="M1531.154,771.445v.4a3.33,3.33,0,0,1-.537.4v-.4a3.306,3.306,0,0,0,.537-.395" transform="translate(-1530.543 -770.519)" fill="#b56600"/><path d="M1530.53,772.307v.405l-.073.043v-.4l.073-.044" transform="translate(-1530.456 -770.986)" fill="#b56600"/></g></g><g transform="translate(7.403 2.687)"><path d="M1528.748,771.415v.4l-1.445-.834v-.4Z" transform="translate(-1527.302 -770.581)" fill="#b56600"/></g><g transform="translate(2.007 3.088)"><g style="isolation:isolate"><path d="M1516.832,771.456v.4l-.049.029,0-.4.048-.029" transform="translate(-1516.205 -771.456)" fill="#b56600"/><path d="M1516.393,771.519v.4a2.032,2.032,0,0,0-.33.242v-.4a2.054,2.054,0,0,1,.331-.242" transform="translate(-1515.814 -771.49)" fill="#b56600"/><path d="M1515.925,772.046v.4a1.047,1.047,0,0,0-.117.125v-.4a1.057,1.057,0,0,1,.116-.125" transform="translate(-1515.676 -771.776)" fill="#b56600"/><path d="M1515.733,772.319v.4a.8.8,0,0,0-.064.094v-.4a.8.8,0,0,1,.064-.094" transform="translate(-1515.601 -771.924)" fill="#b56600"/><path d="M1515.625,772.524v.4a.62.62,0,0,0-.038.08v-.4a.657.657,0,0,1,.038-.08" transform="translate(-1515.556 -772.035)" fill="#b56600"/><path d="M1515.563,772.7v.4a.512.512,0,0,0-.021.074v-.4a.546.546,0,0,1,.021-.074" transform="translate(-1515.531 -772.13)" fill="#b56600"/><path d="M1515.531,772.86v.4a.369.369,0,0,0-.007.046c0,.009,0,.018,0,.027v-.4c0-.009,0-.017,0-.027s0-.031.006-.046" transform="translate(-1515.521 -772.217)" fill="#b56600"/><path d="M1515.522,773.019v0" transform="translate(-1515.521 -772.303)" fill="#b56600"/></g></g><g transform="translate(3.653 1.831)"><g style="isolation:isolate"><path d="M1520.2,770.837v.4a1.226,1.226,0,0,0-.33-.686,5.911,5.911,0,0,1-.535-.779,1.584,1.584,0,0,1-.215-.661v-.4a1.587,1.587,0,0,0,.215.661,5.86,5.86,0,0,0,.535.779,1.221,1.221,0,0,1,.329.686" transform="translate(-1519.114 -768.712)" fill="#b56600"/></g></g><g transform="translate(6.619 4.178)"><g style="isolation:isolate"><path d="M1525.591,773.836v0" transform="translate(-1525.59 -773.836)" fill="#b56600"/></g></g><g transform="translate(0.113 3.593)"><g style="isolation:isolate"><path d="M1512.257,773.831v.4a1.681,1.681,0,0,1-.869-1.274v-.4a1.682,1.682,0,0,0,.869,1.274" transform="translate(-1511.387 -772.557)" fill="#b56600"/></g></g><g transform="translate(1.784 4.194)"><g style="isolation:isolate"><path d="M1525.59,773.869v0" transform="translate(-1520.754 -773.869)" fill="#b56600"/><path d="M1525.57,773.92v.4a.888.888,0,0,1-.017.149v-.4a.792.792,0,0,0,.017-.149" transform="translate(-1520.734 -773.897)" fill="#b56600"/><path d="M1525.5,774.246v.4a1.007,1.007,0,0,1-.041.145v-.4a.91.91,0,0,0,.042-.145" transform="translate(-1520.685 -774.073)" fill="#b56600"/><path d="M1525.378,774.563v.4a1.053,1.053,0,0,1-.071.151v-.4a1.061,1.061,0,0,0,.07-.151" transform="translate(-1520.601 -774.245)" fill="#b56600"/><path d="M1525.2,774.892v.4a1.2,1.2,0,0,1-.069.109l-.025.034v-.4l.025-.034c.025-.036.049-.072.069-.109" transform="translate(-1520.489 -774.424)" fill="#b56600"/><path d="M1524.912,775.2v.4a1.531,1.531,0,0,1-.16.171v-.4a1.465,1.465,0,0,0,.159-.171" transform="translate(-1520.301 -774.592)" fill="#b56600"/><path d="M1524.266,775.577v.4a2.546,2.546,0,0,1-.412.3l0-.4a2.557,2.557,0,0,0,.411-.3" transform="translate(-1519.813 -774.795)" fill="#b56600"/><path d="M1522.962,776.238v.4l-.057.034a3.523,3.523,0,0,1-.7.31v-.4a3.555,3.555,0,0,0,.7-.31l.057-.034" transform="translate(-1518.921 -775.153)" fill="#b56600"/><path d="M1521.647,776.989l0,.4a3.616,3.616,0,0,1-.473.118v-.4a3.764,3.764,0,0,0,.474-.118" transform="translate(-1518.361 -775.56)" fill="#b56600"/><path d="M1520.8,777.246l0,.4c-.1.018-.206.033-.312.043v-.4c.106-.01.21-.025.313-.044" transform="translate(-1517.991 -775.699)" fill="#b56600"/><path d="M1520.163,777.341v.4c-.091.009-.183.015-.277.018v-.4c.094,0,.186-.01.276-.018" transform="translate(-1517.663 -775.751)" fill="#b56600"/><path d="M1519.6,777.381v.4l-.141,0h-.1v-.4h.1l.142,0" transform="translate(-1517.372 -775.772)" fill="#b56600"/><path d="M1519.034,777.366v.4c-.089,0-.178-.007-.266-.014v-.4c.088.007.177.012.266.014" transform="translate(-1517.057 -775.757)" fill="#b56600"/><path d="M1518.448,777.316v.4q-.136-.011-.271-.03v-.4c.09.013.181.023.271.03" transform="translate(-1516.736 -775.721)" fill="#b56600"/><path d="M1517.827,777.225v.4q-.148-.021-.3-.051v-.4c.1.021.2.037.295.052" transform="translate(-1516.387 -775.66)" fill="#b56600"/><path d="M1517.122,777.072v.4q-.174-.036-.347-.086v-.4q.173.049.348.085" transform="translate(-1515.977 -775.559)" fill="#b56600"/><path d="M1516.216,776.8v.4q-.237-.067-.472-.16v-.4q.235.092.472.16" transform="translate(-1515.418 -775.37)" fill="#b56600"/><path d="M1515.36,776.472v.4q-.163-.064-.325-.14v-.4q.162.076.325.14" transform="translate(-1515.034 -775.204)" fill="#b56600"/></g></g><g transform="translate(0 5.437)"><path d="M1511.937,777.043v.4l-.8-.459v-.4Z" transform="translate(-1511.14 -776.584)" fill="#b56600"/></g><g transform="translate(0.795 5.322)"><path d="M1513.866,776.332v.4l-.989.575v-.4Z" transform="translate(-1512.876 -776.332)" fill="#b56600"/></g><g transform="translate(0.001)"><path d="M1521.5,765.177l-1.08.627a1.291,1.291,0,0,1,.651,1.226,1.93,1.93,0,0,1-1.077,1.206l-1.445-.834c.4-.23.614-.452.641-.662s-.087-.393-.366-.554a1.663,1.663,0,0,0-.863-.232,1.715,1.715,0,0,0-.864.241c-.252.147-.381.305-.389.479a1.413,1.413,0,0,0,.351.743,6.03,6.03,0,0,1,.535.83,1.434,1.434,0,0,1,.171.653.991.991,0,0,1-.2.585,2.11,2.11,0,0,1-.653.542,3.735,3.735,0,0,1-1.9.492,4.88,4.88,0,0,1-2.081-.483l-.988.574-.8-.459.982-.571c-.609-.439-.9-.883-.866-1.339s.393-.878,1.073-1.273l1.445.834c-.4.23-.6.461-.624.689s.141.45.5.655a1.939,1.939,0,0,0,.927.265,1.627,1.627,0,0,0,.88-.214c.271-.158.412-.327.42-.508a1.181,1.181,0,0,0-.329-.7,5.872,5.872,0,0,1-.535-.779,1.586,1.586,0,0,1-.215-.66.967.967,0,0,1,.173-.611,2.009,2.009,0,0,1,.682-.576,3.739,3.739,0,0,1,1.917-.49,4.808,4.808,0,0,1,2.062.464l1.064-.618Z" transform="translate(-1511.142 -764.714)" fill="#ffee7a"/></g></g></g></g><g transform="translate(-1305.859 -445.378)"><g transform="translate(1492.859 753.617)" style="isolation:isolate"><g transform="translate(2.745 1.591)"><g style="isolation:isolate"><path d="M1540.218,764.627l-.014,4.854c0-1.605-1.052-3.213-3.168-4.434a11.7,11.7,0,0,0-1.546-.741l.014-4.854a11.633,11.633,0,0,1,1.546.741c2.116,1.222,3.173,2.829,3.168,4.435" transform="translate(-1518.707 -758.37)" fill="#c27400"/><path d="M1533.96,758.93l-.014,4.854q-.631-.249-1.3-.44l.014-4.854q.672.192,1.3.44" transform="translate(-1517.164 -757.849)" fill="#c27400"/><path d="M1531.328,758.164l-.014,4.854q-.55-.156-1.122-.275l.013-4.854q.572.119,1.122.275" transform="translate(-1515.836 -757.524)" fill="#c27400"/><path d="M1528.943,757.669l-.014,4.855q-.527-.109-1.068-.186l.014-4.854q.54.076,1.068.185" transform="translate(-1514.573 -757.304)" fill="#c27400"/><path d="M1526.634,757.345l-.014,4.854q-.52-.073-1.048-.117l.014-4.854q.528.043,1.048.117" transform="translate(-1513.332 -757.166)" fill="#c27400"/><path d="M1524.328,757.161l-.014,4.854q-.529-.043-1.063-.057l.014-4.854q.533.013,1.063.057" transform="translate(-1512.075 -757.098)" fill="#c27400"/><path d="M1521.959,757.1l-.014,4.854c-.368-.009-.737-.007-1.1.005l.014-4.854q.552-.018,1.1-.005" transform="translate(-1510.768 -757.091)" fill="#c27400"/><path d="M1519.439,757.115l-.014,4.854c-.4.014-.8.04-1.2.08l.014-4.854c.4-.039.8-.066,1.2-.08" transform="translate(-1509.353 -757.104)" fill="#c27400"/><path d="M1516.618,757.289l-.014,4.854c-.464.046-.922.11-1.373.191l.014-4.854c.451-.081.91-.145,1.373-.191" transform="translate(-1507.728 -757.198)" fill="#c27400"/><path d="M1512.836,757.707l-.014,4.854a15.523,15.523,0,0,0-2.036.507l.013-4.854a15.536,15.536,0,0,1,2.036-.507" transform="translate(-1505.32 -757.425)" fill="#c27400"/><path d="M1507.87,758.813l-.014,4.854a12.14,12.14,0,0,0-2.347,1.031l-.13.077.013-4.854.131-.077a12.114,12.114,0,0,1,2.347-1.032" transform="translate(-1502.389 -758.024)" fill="#c27400"/><path d="M1503.787,761.234l-.014,4.854a8.293,8.293,0,0,0-1.356,1.005l.014-4.854a8.3,8.3,0,0,1,1.357-1" transform="translate(-1500.783 -759.336)" fill="#c27400"/><path d="M1501.641,763.427l-.013,4.854a6.082,6.082,0,0,0-.667.716l.014-4.854a6.172,6.172,0,0,1,.667-.717" transform="translate(-1499.995 -760.525)" fill="#c27400"/><path d="M1500.463,764.992l-.014,4.854a5.053,5.053,0,0,0-.433.643l.014-4.854a4.992,4.992,0,0,1,.433-.643" transform="translate(-1499.482 -761.373)" fill="#c27400"/><path d="M1499.69,766.4l-.014,4.854a4.361,4.361,0,0,0-.287.612l.014-4.854a4.32,4.32,0,0,1,.287-.612" transform="translate(-1499.143 -762.134)" fill="#c27400"/><path d="M1499.2,767.732l-.013,4.854a3.929,3.929,0,0,0-.174.607l.014-4.854a3.945,3.945,0,0,1,.174-.607" transform="translate(-1498.937 -762.858)" fill="#c27400"/><path d="M1498.939,769.057l-.014,4.854a3.712,3.712,0,0,0-.07.619l.014-4.854a3.711,3.711,0,0,1,.07-.619" transform="translate(-1498.853 -763.576)" fill="#c27400"/><path d="M1498.867,770.408l-.014,4.854c0,.032,0,.063,0,.095l.014-4.854c0-.032,0-.063,0-.095" transform="translate(-1498.851 -764.308)" fill="#c27400"/></g></g><g transform="translate(0 7.778)" style="isolation:isolate"><g style="isolation:isolate"><path d="M1551.795,770.767l-.013,4.854q0,.059,0,.119l.014-4.855c0-.039,0-.079,0-.119" transform="translate(-1524.79 -770.69)" fill="#948000"/><path d="M1551.688,771.026l-.014,4.854a4.654,4.654,0,0,1-.089.776l.014-4.854a4.651,4.651,0,0,0,.089-.777" transform="translate(-1524.685 -770.83)" fill="#b56600"/><path d="M1551.341,772.722l-.014,4.854a4.956,4.956,0,0,1-.219.762l.014-4.854a4.981,4.981,0,0,0,.219-.762" transform="translate(-1524.427 -771.749)" fill="#b56600"/><path d="M1550.7,774.385l-.014,4.854a5.554,5.554,0,0,1-.36.769l.014-4.854a5.556,5.556,0,0,0,.361-.769" transform="translate(-1524 -772.65)" fill="#b56600"/><path d="M1549.692,776.063l-.014,4.854a6.381,6.381,0,0,1-.543.807l.014-4.854a6.382,6.382,0,0,0,.543-.807" transform="translate(-1523.357 -773.56)" fill="#b56600"/><path d="M1548.159,777.825l-.013,4.854a7.809,7.809,0,0,1-.837.9l.014-4.854a7.819,7.819,0,0,0,.837-.9" transform="translate(-1522.367 -774.515)" fill="#b56600"/><path d="M1545.306,779.789l-.014,4.854a10.4,10.4,0,0,1-1.7,1.261l.014-4.854a10.434,10.434,0,0,0,1.7-1.262" transform="translate(-1520.351 -775.579)" fill="#b56600"/><path d="M1539.918,782.543l-.014,4.854-.164.1a15.228,15.228,0,0,1-2.95,1.3l.014-4.854a15.224,15.224,0,0,0,2.95-1.3l.164-.1" transform="translate(-1516.667 -777.072)" fill="#d48d00"/><path d="M1533.779,785.586l-.014,4.854a19.484,19.484,0,0,1-2.557.636l.014-4.854a19.48,19.48,0,0,0,2.556-.636" transform="translate(-1513.642 -778.721)" fill="#e49c00"/><path d="M1529.182,786.975l-.014,4.854q-.85.153-1.725.24l.014-4.854c.582-.058,1.158-.138,1.725-.24" transform="translate(-1511.602 -779.473)" fill="#e49c00"/><path d="M1525.682,787.5l-.014,4.854q-.746.074-1.5.1l.014-4.854q.755-.026,1.5-.1" transform="translate(-1509.826 -779.758)" fill="#e49c00"/><path d="M1522.541,787.718l-.014,4.854c-.461.016-.924.018-1.387.006l.014-4.854c.462.011.925.009,1.386-.006" transform="translate(-1508.186 -779.876)" fill="#e49c00"/><path d="M1519.577,787.647l-.014,4.854q-.669-.016-1.333-.072l.014-4.854q.664.055,1.333.071" transform="translate(-1506.609 -779.799)" fill="#e49c00"/><path d="M1516.688,787.4l-.014,4.854q-.662-.054-1.316-.147l.014-4.854q.653.093,1.316.147" transform="translate(-1505.052 -779.625)" fill="#d48d00"/><path d="M1513.787,786.979l-.014,4.854c-.452-.064-.9-.141-1.34-.233l.014-4.855q.661.138,1.34.233" transform="translate(-1503.467 -779.349)" fill="#d48d00"/><path d="M1510.781,786.338l-.014,4.854q-.717-.149-1.408-.345l.014-4.854q.69.2,1.409.345" transform="translate(-1501.801 -778.941)" fill="#d48d00"/><path d="M1507.435,785.339l-.014,4.854q-.844-.241-1.637-.553l.014-4.854c.528.208,1.075.393,1.637.553" transform="translate(-1499.864 -778.287)" fill="#d48d00"/><path d="M1498.793,777.1l-.014,4.854a14.66,14.66,0,0,1-1.941-.93c-2.658-1.534-3.985-3.553-3.98-5.569l.014-4.854c-.006,2.015,1.322,4.034,3.979,5.569a14.577,14.577,0,0,0,1.941.93" transform="translate(-1492.859 -770.598)" fill="#b56600"/></g></g><g transform="translate(0.014)"><path d="M1515.9,755.9c5.281,3.049,5.309,8.01.062,11.06s-13.812,3.049-19.093,0-5.31-8.01-.062-11.06S1510.618,752.855,1515.9,755.9Zm-17.1,9.935a16.781,16.781,0,0,0,15.208,0c4.178-2.428,4.156-6.38-.049-8.807a16.785,16.785,0,0,0-15.208,0c-4.181,2.43-4.156,6.383.049,8.811" transform="translate(-1492.889 -753.617)" fill="#fd0"/></g><path d="M1523.181,769.421c.1-.065.195-.129.287-.194.063-.045.121-.091.182-.136.077-.058.156-.114.23-.173s.124-.1.186-.154.133-.109.2-.164.118-.109.177-.164.119-.108.175-.163.112-.116.168-.175.1-.106.152-.159.109-.126.162-.19.087-.1.127-.15c.054-.067.1-.136.154-.2.035-.047.072-.094.105-.142.051-.073.1-.146.143-.219.028-.044.059-.088.085-.132.047-.078.089-.156.131-.234.022-.041.046-.081.067-.121.042-.082.08-.165.117-.248.017-.037.036-.075.051-.112.037-.087.069-.174.1-.261.012-.034.027-.067.038-.1.031-.091.057-.183.082-.275.008-.03.018-.06.026-.09.025-.1.044-.193.062-.289,0-.026.011-.051.016-.077.017-.1.03-.2.04-.3,0-.022.006-.044.008-.066.01-.1.014-.209.016-.314,0-.018,0-.036,0-.055,0-.109,0-.217-.01-.326,0-.014,0-.029,0-.043q-.012-.168-.037-.336l0-.032c-.017-.115-.04-.229-.066-.343l-.005-.023c-.027-.117-.06-.234-.1-.35l0-.015q-.057-.178-.128-.355l0-.007a7.9,7.9,0,0,0-3.419-3.645,29.23,29.23,0,0,0-3.531.333,11.624,11.624,0,0,1,1.391.67c4.205,2.428,4.228,6.379.049,8.807a16.778,16.778,0,0,1-15.208,0c-.035-.02-.064-.042-.1-.062a7.457,7.457,0,0,0-.247,1.883c0,.027,0,.053,0,.08h0a21.151,21.151,0,0,0,8.761,1.489c.083,0,.165,0,.248-.007.277-.012.553-.033.83-.055.139-.011.278-.021.416-.034.243-.024.485-.054.726-.086.169-.022.339-.045.507-.071q.327-.051.65-.112c.189-.035.376-.074.563-.114s.391-.086.584-.134.4-.105.6-.161c.175-.049.35-.1.523-.153.213-.067.421-.141.629-.216.152-.054.306-.106.455-.164.233-.091.458-.191.682-.291.117-.052.238-.1.353-.155.336-.16.662-.33.976-.512q.244-.142.473-.289C1523.079,769.491,1523.129,769.456,1523.181,769.421Z" transform="translate(-1499.465 -756.469)" fill="#ffffb7" opacity="0.43" style="mix-blend-mode:lighten;isolation:isolate"/><g transform="translate(8.461 10.53)"><path d="M1526.064,776.605a7.53,7.53,0,0,1-2.058,1.691c-3.276,1.9-8.168,2.309-12.158,1.23l-.518,1.61c4.885,1.146,10.689.574,14.626-1.714a9.982,9.982,0,0,0,2.266-1.762Q1527.137,777.143,1526.064,776.605Z" transform="translate(-1511.33 -776.605)" fill="#ffee7a"/></g><g transform="translate(19.859 9.258)"><path d="M1540.316,773.829a6.3,6.3,0,0,1-2.825,2.962,11.238,11.238,0,0,1-1.277.625q.269.85.543,1.7a15.069,15.069,0,0,0,2.685-1.2,8.7,8.7,0,0,0,3.17-2.932Q1541.452,774.43,1540.316,773.829Z" transform="translate(-1536.214 -773.829)" fill="#ffffb7"/></g></g><g transform="translate(1495.618 755.209)"><g clip-path="url(#a)"><g transform="translate(0.344 1.028)"><g transform="translate(0)" style="isolation:isolate"><g transform="translate(0.013 6.016)" style="isolation:isolate"><g style="isolation:isolate"><path d="M1545,772.6l-.009,3.16c0,.03,0,.061,0,.091l.009-3.16c0-.03,0-.061,0-.092" transform="translate(-1524.226 -772.54)" fill="#845a00"/><path d="M1544.917,772.8l-.009,3.16a3.622,3.622,0,0,1-.068.6l.009-3.16a3.5,3.5,0,0,0,.068-.6" transform="translate(-1524.145 -772.648)" fill="#895e00"/><path d="M1544.649,774.1l-.009,3.16a3.785,3.785,0,0,1-.169.586l.009-3.16a3.744,3.744,0,0,0,.168-.586" transform="translate(-1523.946 -773.355)" fill="#8d6100"/><path d="M1544.153,775.383l-.009,3.16a4.163,4.163,0,0,1-.277.591l.009-3.16a4.177,4.177,0,0,0,.277-.591" transform="translate(-1523.618 -774.049)" fill="#926400"/><path d="M1543.382,776.674l-.009,3.16a4.828,4.828,0,0,1-.418.621l.009-3.16a4.934,4.934,0,0,0,.418-.621" transform="translate(-1523.123 -774.748)" fill="#966700"/><path d="M1542.2,778.029l-.009,3.16a6,6,0,0,1-.644.693l.009-3.16a5.938,5.938,0,0,0,.644-.692" transform="translate(-1522.362 -775.483)" fill="#9b6a00"/><path d="M1540.008,779.54,1540,782.7a8.045,8.045,0,0,1-1.311.971l.009-3.16a8,8,0,0,0,1.311-.971" transform="translate(-1520.811 -776.302)" fill="#a06d00"/><path d="M1535.863,781.659l-.009,3.16c-.041.025-.084.05-.127.074a11.714,11.714,0,0,1-2.269,1l.009-3.16a11.688,11.688,0,0,0,2.27-1l.126-.075" transform="translate(-1517.976 -777.45)" fill="#a47000"/><path d="M1531.14,784l-.009,3.16a14.976,14.976,0,0,1-1.967.489l.009-3.16a15.05,15.05,0,0,0,1.967-.49" transform="translate(-1515.65 -778.719)" fill="#a06d00"/><path d="M1527.6,785.069l-.009,3.16c-.436.079-.879.14-1.327.185l.009-3.16c.448-.044.891-.106,1.327-.185" transform="translate(-1514.08 -779.298)" fill="#9b6a00"/><path d="M1524.911,785.472l-.009,3.16q-.574.057-1.155.077l.009-3.16c.387-.013.772-.039,1.155-.077" transform="translate(-1512.714 -779.516)" fill="#966700"/><path d="M1522.494,785.64l-.009,3.16q-.533.018-1.067,0l.009-3.16q.533.013,1.066-.005" transform="translate(-1511.452 -779.607)" fill="#926400"/><path d="M1520.214,785.586l-.009,3.16q-.515-.012-1.026-.055l.009-3.16q.511.043,1.026.055" transform="translate(-1510.238 -779.548)" fill="#8d6100"/><path d="M1517.991,785.4l-.009,3.16q-.509-.042-1.012-.113l.009-3.16c.334.048.672.085,1.012.113" transform="translate(-1509.041 -779.415)" fill="#895e00"/><path d="M1515.759,785.072l-.009,3.16c-.347-.049-.692-.109-1.031-.18l.009-3.16q.508.105,1.031.179" transform="translate(-1507.821 -779.203)" fill="#845a00"/><path d="M1513.447,784.579l-.009,3.16q-.552-.114-1.083-.265l.009-3.16c.354.1.716.19,1.084.266" transform="translate(-1506.539 -778.888)" fill="#805700"/><path d="M1510.873,783.81l-.009,3.16c-.433-.124-.854-.265-1.26-.426l.009-3.16c.405.16.827.3,1.259.425" transform="translate(-1505.049 -778.385)" fill="#7b5400"/><path d="M1504.224,777.47l-.009,3.16a11.292,11.292,0,0,1-1.493-.716c-2.045-1.181-3.066-2.734-3.061-4.284l.009-3.16c0,1.551,1.017,3.1,3.062,4.284a11.168,11.168,0,0,0,1.493.716" transform="translate(-1499.66 -772.47)" fill="#775100"/></g></g><g transform="translate(0)"><ellipse cx="6.016" cy="10.387" rx="6.016" ry="10.387" transform="translate(0 12.033) rotate(-89.837)" fill="#e49c00"/></g></g></g><path d="M1520.461,761.759a12.543,12.543,0,0,0-3.209-1.257c-6.355,1.509-11.046,5.119-11.892,9.472.15.1.3.2.46.294a16.207,16.207,0,0,0,14.689,0C1524.546,767.922,1524.524,764.105,1520.461,761.759Z" transform="translate(-1502.392 -758.94)" fill="#ffffb7" opacity="0.43" style="mix-blend-mode:lighten;isolation:isolate"/></g></g><g transform="translate(1501.233 758.7)"><g style="isolation:isolate"><g transform="translate(9.273 0.463)"><path d="M1532.465,765.724v.4l-1.08.628v-.4Z" transform="translate(-1531.385 -765.724)" fill="#b56600"/></g><g transform="translate(3.651 1.767)"><g style="isolation:isolate"><path d="M1519.113,768.636v.4c0-.021,0-.043,0-.064v-.4c0,.021,0,.043,0,.065" transform="translate(-1519.11 -768.571)" fill="#b56600"/></g></g><g transform="translate(5.561 1.238)"><g style="isolation:isolate"><path d="M1527.984,768.273v.4c0-.183-.123-.344-.372-.488a1.78,1.78,0,0,0-.244-.118v-.4a1.793,1.793,0,0,1,.244.118c.249.144.373.305.372.488" transform="translate(-1525.495 -767.553)" fill="#b56600"/><path d="M1527.186,767.605v.4c-.051-.02-.1-.037-.154-.052v-.4a1.587,1.587,0,0,1,.154.052" transform="translate(-1525.313 -767.491)" fill="#b56600"/><path d="M1526.894,767.52v.4c-.039-.011-.078-.02-.116-.028l0-.4c.039.008.077.017.116.028" transform="translate(-1525.175 -767.457)" fill="#b56600"/><path d="M1526.661,767.471v.4c-.033-.007-.066-.013-.1-.017v-.4c.034,0,.067.011.1.018" transform="translate(-1525.057 -767.437)" fill="#b56600"/><path d="M1526.449,767.441v.4c-.031,0-.062-.008-.094-.01v-.4c.031,0,.063.006.094.01" transform="translate(-1524.946 -767.424)" fill="#b56600"/><path d="M1526.245,767.424v.4l-.094,0v-.4c.032,0,.063,0,.094.005" transform="translate(-1524.836 -767.418)" fill="#b56600"/><path d="M1526.021,767.418v.4h-.11v-.4h.11" transform="translate(-1524.705 -767.418)" fill="#b56600"/><path d="M1525.78,767.42v.4c-.037,0-.073,0-.11.007v-.4c.037,0,.073-.006.11-.007" transform="translate(-1524.575 -767.419)" fill="#b56600"/><path d="M1525.515,767.436v.4c-.045,0-.088.01-.131.018v-.4c.043-.008.087-.014.131-.018" transform="translate(-1524.42 -767.428)" fill="#b56600"/><path d="M1525.13,767.476v.4a1.693,1.693,0,0,0-.215.054v-.4a1.74,1.74,0,0,1,.215-.054" transform="translate(-1524.165 -767.449)" fill="#b56600"/><path d="M1524.46,767.593V768a1.815,1.815,0,0,0-.359.161l-.025.015v-.4l.025-.015a1.846,1.846,0,0,1,.359-.161" transform="translate(-1523.71 -767.513)" fill="#b56600"/><path d="M1523.85,767.978v.4a1.161,1.161,0,0,0-.19.14v-.4a1.169,1.169,0,0,1,.19-.14" transform="translate(-1523.486 -767.721)" fill="#b56600"/><path d="M1523.57,768.283v.4a.715.715,0,0,0-.076.082v-.4a.734.734,0,0,1,.076-.082" transform="translate(-1523.396 -767.887)" fill="#b56600"/><path d="M1523.441,768.461v.4a.587.587,0,0,0-.045.067v-.4a.572.572,0,0,1,.045-.067" transform="translate(-1523.342 -767.983)" fill="#b56600"/><path d="M1523.362,768.607v.4a.392.392,0,0,0-.028.061v-.4a.481.481,0,0,1,.028-.061" transform="translate(-1523.309 -768.062)" fill="#b56600"/><path d="M1523.314,768.74v.4a.334.334,0,0,0-.017.06v-.4a.387.387,0,0,1,.017-.06" transform="translate(-1523.288 -768.134)" fill="#b56600"/><path d="M1523.288,768.871v.4a.352.352,0,0,0-.007.055v-.405a.471.471,0,0,1,.006-.055" transform="translate(-1523.28 -768.205)" fill="#b56600"/></g></g><g transform="translate(8.848 2.157)"><g style="isolation:isolate"><path d="M1532.838,769.424v0" transform="translate(-1531.746 -769.424)" fill="#b56600"/><path d="M1532.815,769.477v.4a.944.944,0,0,1-.014.134l-.005.028v-.4l.006-.028a1,1,0,0,0,.013-.134" transform="translate(-1531.724 -769.453)" fill="#b56600"/><path d="M1532.741,769.83v.4a1.032,1.032,0,0,1-.046.161v-.4a1.068,1.068,0,0,0,.046-.161" transform="translate(-1531.669 -769.644)" fill="#b56600"/><path d="M1532.6,770.182v.4a1.194,1.194,0,0,1-.078.166v-.4a1.177,1.177,0,0,0,.078-.166" transform="translate(-1531.577 -769.835)" fill="#b56600"/><path d="M1532.378,770.545v.4a1.468,1.468,0,0,1-.124.184v-.4a1.481,1.481,0,0,0,.124-.184" transform="translate(-1531.43 -770.032)" fill="#b56600"/><path d="M1532,770.946l0,.4a2.032,2.032,0,0,1-.212.229v-.4a2.043,2.043,0,0,0,.213-.229" transform="translate(-1531.179 -770.249)" fill="#b56600"/><path d="M1531.154,771.445v.4a3.33,3.33,0,0,1-.537.4v-.4a3.306,3.306,0,0,0,.537-.395" transform="translate(-1530.543 -770.519)" fill="#b56600"/><path d="M1530.53,772.307v.405l-.073.043v-.4l.073-.044" transform="translate(-1530.456 -770.986)" fill="#b56600"/></g></g><g transform="translate(7.403 2.687)"><path d="M1528.748,771.415v.4l-1.445-.834v-.4Z" transform="translate(-1527.302 -770.581)" fill="#b56600"/></g><g transform="translate(2.007 3.088)"><g style="isolation:isolate"><path d="M1516.832,771.456v.4l-.049.029,0-.4.048-.029" transform="translate(-1516.205 -771.456)" fill="#b56600"/><path d="M1516.393,771.519v.4a2.032,2.032,0,0,0-.33.242v-.4a2.054,2.054,0,0,1,.331-.242" transform="translate(-1515.814 -771.49)" fill="#b56600"/><path d="M1515.925,772.046v.4a1.047,1.047,0,0,0-.117.125v-.4a1.057,1.057,0,0,1,.116-.125" transform="translate(-1515.676 -771.776)" fill="#b56600"/><path d="M1515.733,772.319v.4a.8.8,0,0,0-.064.094v-.4a.8.8,0,0,1,.064-.094" transform="translate(-1515.601 -771.924)" fill="#b56600"/><path d="M1515.625,772.524v.4a.62.62,0,0,0-.038.08v-.4a.657.657,0,0,1,.038-.08" transform="translate(-1515.556 -772.035)" fill="#b56600"/><path d="M1515.563,772.7v.4a.512.512,0,0,0-.021.074v-.4a.546.546,0,0,1,.021-.074" transform="translate(-1515.531 -772.13)" fill="#b56600"/><path d="M1515.531,772.86v.4a.369.369,0,0,0-.007.046c0,.009,0,.018,0,.027v-.4c0-.009,0-.017,0-.027s0-.031.006-.046" transform="translate(-1515.521 -772.217)" fill="#b56600"/><path d="M1515.522,773.019v0" transform="translate(-1515.521 -772.303)" fill="#b56600"/></g></g><g transform="translate(3.653 1.831)"><g style="isolation:isolate"><path d="M1520.2,770.837v.4a1.226,1.226,0,0,0-.33-.686,5.911,5.911,0,0,1-.535-.779,1.584,1.584,0,0,1-.215-.661v-.4a1.587,1.587,0,0,0,.215.661,5.86,5.86,0,0,0,.535.779,1.221,1.221,0,0,1,.329.686" transform="translate(-1519.114 -768.712)" fill="#b56600"/></g></g><g transform="translate(6.619 4.178)"><g style="isolation:isolate"><path d="M1525.591,773.836v0" transform="translate(-1525.59 -773.836)" fill="#b56600"/></g></g><g transform="translate(0.113 3.593)"><g style="isolation:isolate"><path d="M1512.257,773.831v.4a1.681,1.681,0,0,1-.869-1.274v-.4a1.682,1.682,0,0,0,.869,1.274" transform="translate(-1511.387 -772.557)" fill="#b56600"/></g></g><g transform="translate(1.784 4.194)"><g style="isolation:isolate"><path d="M1525.59,773.869v0" transform="translate(-1520.754 -773.869)" fill="#b56600"/><path d="M1525.57,773.92v.4a.888.888,0,0,1-.017.149v-.4a.792.792,0,0,0,.017-.149" transform="translate(-1520.734 -773.897)" fill="#b56600"/><path d="M1525.5,774.246v.4a1.007,1.007,0,0,1-.041.145v-.4a.91.91,0,0,0,.042-.145" transform="translate(-1520.685 -774.073)" fill="#b56600"/><path d="M1525.378,774.563v.4a1.053,1.053,0,0,1-.071.151v-.4a1.061,1.061,0,0,0,.07-.151" transform="translate(-1520.601 -774.245)" fill="#b56600"/><path d="M1525.2,774.892v.4a1.2,1.2,0,0,1-.069.109l-.025.034v-.4l.025-.034c.025-.036.049-.072.069-.109" transform="translate(-1520.489 -774.424)" fill="#b56600"/><path d="M1524.912,775.2v.4a1.531,1.531,0,0,1-.16.171v-.4a1.465,1.465,0,0,0,.159-.171" transform="translate(-1520.301 -774.592)" fill="#b56600"/><path d="M1524.266,775.577v.4a2.546,2.546,0,0,1-.412.3l0-.4a2.557,2.557,0,0,0,.411-.3" transform="translate(-1519.813 -774.795)" fill="#b56600"/><path d="M1522.962,776.238v.4l-.057.034a3.523,3.523,0,0,1-.7.31v-.4a3.555,3.555,0,0,0,.7-.31l.057-.034" transform="translate(-1518.921 -775.153)" fill="#b56600"/><path d="M1521.647,776.989l0,.4a3.616,3.616,0,0,1-.473.118v-.4a3.764,3.764,0,0,0,.474-.118" transform="translate(-1518.361 -775.56)" fill="#b56600"/><path d="M1520.8,777.246l0,.4c-.1.018-.206.033-.312.043v-.4c.106-.01.21-.025.313-.044" transform="translate(-1517.991 -775.699)" fill="#b56600"/><path d="M1520.163,777.341v.4c-.091.009-.183.015-.277.018v-.4c.094,0,.186-.01.276-.018" transform="translate(-1517.663 -775.751)" fill="#b56600"/><path d="M1519.6,777.381v.4l-.141,0h-.1v-.4h.1l.142,0" transform="translate(-1517.372 -775.772)" fill="#b56600"/><path d="M1519.034,777.366v.4c-.089,0-.178-.007-.266-.014v-.4c.088.007.177.012.266.014" transform="translate(-1517.057 -775.757)" fill="#b56600"/><path d="M1518.448,777.316v.4q-.136-.011-.271-.03v-.4c.09.013.181.023.271.03" transform="translate(-1516.736 -775.721)" fill="#b56600"/><path d="M1517.827,777.225v.4q-.148-.021-.3-.051v-.4c.1.021.2.037.295.052" transform="translate(-1516.387 -775.66)" fill="#b56600"/><path d="M1517.122,777.072v.4q-.174-.036-.347-.086v-.4q.173.049.348.085" transform="translate(-1515.977 -775.559)" fill="#b56600"/><path d="M1516.216,776.8v.4q-.237-.067-.472-.16v-.4q.235.092.472.16" transform="translate(-1515.418 -775.37)" fill="#b56600"/><path d="M1515.36,776.472v.4q-.163-.064-.325-.14v-.4q.162.076.325.14" transform="translate(-1515.034 -775.204)" fill="#b56600"/></g></g><g transform="translate(0 5.437)"><path d="M1511.937,777.043v.4l-.8-.459v-.4Z" transform="translate(-1511.14 -776.584)" fill="#b56600"/></g><g transform="translate(0.795 5.322)"><path d="M1513.866,776.332v.4l-.989.575v-.4Z" transform="translate(-1512.876 -776.332)" fill="#b56600"/></g><g transform="translate(0.001)"><path d="M1521.5,765.177l-1.08.627a1.291,1.291,0,0,1,.651,1.226,1.93,1.93,0,0,1-1.077,1.206l-1.445-.834c.4-.23.614-.452.641-.662s-.087-.393-.366-.554a1.663,1.663,0,0,0-.863-.232,1.715,1.715,0,0,0-.864.241c-.252.147-.381.305-.389.479a1.413,1.413,0,0,0,.351.743,6.03,6.03,0,0,1,.535.83,1.434,1.434,0,0,1,.171.653.991.991,0,0,1-.2.585,2.11,2.11,0,0,1-.653.542,3.735,3.735,0,0,1-1.9.492,4.88,4.88,0,0,1-2.081-.483l-.988.574-.8-.459.982-.571c-.609-.439-.9-.883-.866-1.339s.393-.878,1.073-1.273l1.445.834c-.4.23-.6.461-.624.689s.141.45.5.655a1.939,1.939,0,0,0,.927.265,1.627,1.627,0,0,0,.88-.214c.271-.158.412-.327.42-.508a1.181,1.181,0,0,0-.329-.7,5.872,5.872,0,0,1-.535-.779,1.586,1.586,0,0,1-.215-.66.967.967,0,0,1,.173-.611,2.009,2.009,0,0,1,.682-.576,3.739,3.739,0,0,1,1.917-.49,4.808,4.808,0,0,1,2.062.464l1.064-.618Z" transform="translate(-1511.142 -764.714)" fill="#ffee7a"/></g></g></g></g></g></g></svg>