<svg xmlns="http://www.w3.org/2000/svg" width="34.802" height="18.851" viewBox="0 0 34.802 18.851"><defs><style>.a{fill:#fff;}</style></defs><path class="a" d="M11.6,12.25H7.25V7.9H4.35v4.35H0v2.9H4.35V19.5h2.9v-4.35H11.6ZM26.1,13.7a4.35,4.35,0,1,0-1.32-8.5A7.155,7.155,0,0,1,26.087,9.35,7.3,7.3,0,0,1,24.782,13.5,4.335,4.335,0,0,0,26.1,13.7Zm-7.25,0A4.35,4.35,0,1,0,14.5,9.35,4.332,4.332,0,0,0,18.851,13.7Zm9.6,3.132a5.365,5.365,0,0,1,2,4.118v2.9H34.8v-2.9C34.8,18.718,31.365,17.34,28.451,16.833Zm-9.6-.232c-2.9,0-8.7,1.45-8.7,4.35v2.9h17.4v-2.9C27.552,18.051,21.751,16.6,18.851,16.6Z" transform="translate(0 -5)"/></svg>