<svg xmlns="http://www.w3.org/2000/svg" xmlns:xlink="http://www.w3.org/1999/xlink" width="31" height="31" viewBox="0 0 31 31"><defs><style>.a,.e{fill:none;}.a{stroke:#707070;opacity:0.2;}.b{fill:url(#a);}.c{fill:#fff;}.d{stroke:none;}</style><linearGradient id="a" x1="0.5" x2="0.5" y2="1" gradientUnits="objectBoundingBox"><stop offset="0" stop-color="#4ceea8"/><stop offset="1" stop-color="#16d267"/></linearGradient></defs><g transform="translate(168.378 7.291)"><g class="a" transform="translate(-168.378 -7.291)"><circle class="d" cx="15.5" cy="15.5" r="15.5"/><circle class="e" cx="15.5" cy="15.5" r="15"/></g><path class="b" d="M-1726.736-431.287a32.547,32.547,0,0,1-7.831-3.321.411.411,0,0,0-.418,0,31.66,31.66,0,0,1-7.831,3.321.411.411,0,0,0-.3.4v4.205a12.1,12.1,0,0,0,3.674,8.839c1.8,1.768,3.906,2.746,4.669,2.746s2.865-.978,4.669-2.746a12.1,12.1,0,0,0,3.674-8.839v-4.205A.411.411,0,0,0-1726.736-431.287Z" transform="translate(1581.898 433.645)"/><path class="c" d="M-71.933,157.288a1.178,1.178,0,0,0-.839-.347,1.179,1.179,0,0,0-.839.347,1.188,1.188,0,0,0,0,1.678l2.154,2.154a1.179,1.179,0,0,0,.839.347,1.179,1.179,0,0,0,.839-.347l4.5-4.5a1.188,1.188,0,0,0,0-1.678,1.179,1.179,0,0,0-.839-.347,1.179,1.179,0,0,0-.839.347l-3.659,3.659Z" transform="translate(-83.213 -150.166)"/></g></svg>