<svg xmlns="http://www.w3.org/2000/svg" xmlns:xlink="http://www.w3.org/1999/xlink" width="18.488" height="21.679" viewBox="0 0 18.488 21.679"><defs><style>.a{fill:url(#a);}.b{fill:#fff;}</style><linearGradient id="a" x1="0.5" x2="0.5" y2="1" gradientUnits="objectBoundingBox"><stop offset="0" stop-color="#4ceea8"/><stop offset="1" stop-color="#16d267"/></linearGradient></defs><g transform="translate(0 0)"><path class="a" d="M-1724.966-430.922a36.064,36.064,0,0,1-8.677-3.68.456.456,0,0,0-.464,0,35.08,35.08,0,0,1-8.677,3.68.456.456,0,0,0-.335.44v4.66a13.4,13.4,0,0,0,4.07,9.794c2,1.959,4.328,3.042,5.174,3.042s3.174-1.083,5.173-3.042a13.4,13.4,0,0,0,4.071-9.794v-4.66A.456.456,0,0,0-1724.966-430.922Z" transform="translate(1743.119 434.665)"/><path class="b" d="M-71.714,157.579a1.306,1.306,0,0,0-.929-.385,1.306,1.306,0,0,0-.93.385,1.316,1.316,0,0,0,0,1.859l2.387,2.387a1.306,1.306,0,0,0,.929.385,1.306,1.306,0,0,0,.93-.385l4.983-4.983a1.316,1.316,0,0,0,0-1.859,1.306,1.306,0,0,0-.93-.385,1.306,1.306,0,0,0-.93.385l-4.054,4.054Z" transform="translate(78.445 -148.556)"/></g></svg>