<svg xmlns="http://www.w3.org/2000/svg" xmlns:xlink="http://www.w3.org/1999/xlink" width="21.29" height="24.965" viewBox="0 0 21.29 24.965"><defs><style>.a{fill:url(#a);}.b{fill:#fff;}.c{fill:#fbfcfe;}</style><linearGradient id="a" x1="0.5" x2="0.5" y2="1" gradientUnits="objectBoundingBox"><stop offset="0" stop-color="#4ceea8"/><stop offset="1" stop-color="#16d267"/></linearGradient></defs><g transform="translate(161.221 1.02)"><path class="a" d="M-1722.215-430.355a41.527,41.527,0,0,1-9.992-4.238.525.525,0,0,0-.534,0,40.391,40.391,0,0,1-9.992,4.238.525.525,0,0,0-.386.506v5.366a15.437,15.437,0,0,0,4.688,11.278c2.3,2.256,4.984,3.5,5.958,3.5s3.655-1.248,5.958-3.5a15.436,15.436,0,0,0,4.688-11.278v-5.366A.525.525,0,0,0-1722.215-430.355Z" transform="translate(1581.898 433.645)"/><path class="b" d="M86.871,141.163a2.986,2.986,0,1,0-3.644,0,5.509,5.509,0,0,0-3.686,5.2.465.465,0,0,0,.465.465H90.092a.465.465,0,0,0,.465-.465A5.509,5.509,0,0,0,86.871,141.163Z" transform="translate(-237.135 -130.559)"/><path class="c" d="M-479.052-241.129a.857.857,0,0,1-.857.857h-.771v.771a.857.857,0,0,1-.857.857.857.857,0,0,1-.857-.857v-.771h-.771a.857.857,0,0,1-.857-.857.857.857,0,0,1,.857-.857h.771v-.771a.857.857,0,0,1,.857-.857.857.857,0,0,1,.857.857v.771h.771A.857.857,0,0,1-479.052-241.129Z" transform="translate(336.35 247.842)"/></g></svg>