<svg xmlns="http://www.w3.org/2000/svg" width="30.729" height="30.284" viewBox="0 0 30.729 30.284">
  <g id="hat" transform="matrix(0.819, 0.574, -0.574, 0.819, -289.48, -312.889)">
    <path id="路径_2935" data-name="路径 2935" d="M10644.513,5391.386c-.946-1.893.22-4.368,1.311-6.843a10.892,10.892,0,0,1,4.985-5.919c3.132-1.975,5.5-2.273,7.539-1.981s5.456,1.494,6.111,3.969-3.711.437-2.838,2.767,3.8,5.906,3.276,6.843.072,2.111-5.169,1.165-10.89,1.911-12.547,1.783S10645.46,5393.278,10644.513,5391.386Z" transform="translate(-10216.55 -5294)" fill="#e32d36"/>
    <path id="路径_2936" data-name="路径 2936" d="M10639.283,5425.188c-1.766,1.82-1.858,5.712.331,6.328s15.685-3.864,19.66-2.3,2.856-3.584,2.856-3.584-.616-2.688-2.072-2.856-9.52,2.352-13.384,1.456S10641.048,5423.369,10639.283,5425.188Z" transform="translate(-10211.999 -5327.927)" fill="#dedceb"/>
    <path id="路径_2937" data-name="路径 2937" d="M10712.442,5387.893c.953.337.448,1.176.953,2.184s.951,1.064.727,1.9-.531.056-1.288.672-.392,1.512-1.288,1.68-.825-.419-1.567-.84-1.512,0-1.9-.56.377-1.162.559-2.24-.783-1.625,0-2.072,1.163.574,1.961.28S10711.491,5387.557,10712.442,5387.893Z" transform="translate(-10263.376 -5302.279)" fill="#e9e6ef"/>
    <path id="路径_2938" data-name="路径 2938" d="M10711.261,5387.94c.585.188.275.659.585,1.225s.585.6.448,1.067-.327.031-.793.376-.24.848-.791.942-.508-.235-.964-.471-.931,0-1.172-.313.233-.652.345-1.256-.481-.911,0-1.162.715.322,1.205.157S10710.675,5387.752,10711.261,5387.94Z" transform="translate(-10262.503 -5301.057)" fill="#fff"/>
    <path id="路径_2939" data-name="路径 2939" d="M454.809,88.862a5.281,5.281,0,0,0-3.92-2.464c-2.128-.28-9.408,2.8-9.968,6.216s2.016,2.128,3.528,3.192-4.3-.014-5.544,1.9-2.464,4.984,0,5.6,8.064-1.3,12.6-1.736,4.928.952,5.544,0-.168-1.512-.952-3.416-6.384-3.584-6.5-6.216,4.368-1.288,5.208-1.9A.663.663,0,0,0,454.809,88.862Z" transform="translate(-8.45 -2.813)" fill="#fff" opacity="0.18"/>
  </g>
</svg>
