<svg xmlns="http://www.w3.org/2000/svg" xmlns:xlink="http://www.w3.org/1999/xlink" width="59.15" height="46.834" viewBox="0 0 59.15 46.834"><defs><style>.a{opacity:0.21;}.a,.b,.c{fill:url(#a);}.b{stroke:rgba(0,0,0,0);}.d{fill:#15ced8;font-size:14px;font-family:BalooChettan2-Medium, 'Baloo Chettan \32 ';font-weight:500;letter-spacing:-0.05em;}</style><linearGradient id="a" x1="0.401" y1="-0.231" x2="0.707" y2="1.061" gradientUnits="objectBoundingBox"><stop offset="0" stop-color="#00df8c"/><stop offset="0.53" stop-color="#01d6c1"/><stop offset="1" stop-color="#59d1fe"/></linearGradient></defs><g transform="translate(-1042.978 -1443.838)"><path class="a" d="M3043.3,1135.4c2.253,3.9-.122,11.384-10.45,18.43s-19.291,8.577-24.6,7.9-13.791-8.377-15.721-15.23,5.631-11.876,17.407-13.227S3041.05,1131.492,3043.3,1135.4Z" transform="translate(-2155.541 1534.313) rotate(-22)"/><path class="a" d="M3046.377,1158.028c1.509-.3,6.355-6.205,5.164-10.194s-3.324-5.441-4.528-2.807S3044.867,1158.323,3046.377,1158.028Z" transform="matrix(0.914, 0.407, -0.407, 0.914, -1224.216, -820.662)"/><g transform="translate(1026.574 1227.128)"><rect class="b" width="3.334" height="5.359" rx="1" transform="translate(30.351 238.38)"/><rect class="b" width="3.334" height="5.359" rx="1" transform="translate(53.317 238.38)"/><path class="c" d="M55.411,249.246a.74.74,0,1,1,0-1.479,9.758,9.758,0,0,0,9.747-9.747v-5.8a9.747,9.747,0,1,0-19.494,0v5.8a.74.74,0,0,1-1.479,0v-5.8a11.226,11.226,0,1,1,22.452,0v5.8A11.239,11.239,0,0,1,55.411,249.246Z" transform="translate(-11.986 3.734)"/><circle class="b" cx="1.905" cy="1.905" r="1.905" transform="translate(40.599 250.17)"/></g><text class="d" transform="translate(1062.874 1469)"><tspan x="0" y="0">24</tspan></text></g></svg>