<svg xmlns="http://www.w3.org/2000/svg" xmlns:xlink="http://www.w3.org/1999/xlink" width="56.492" height="45.644" viewBox="0 0 56.492 45.644"><defs><style>.a{opacity:0.21;}.a,.c{fill:url(#a);}.b{fill:#15ced8;stroke-miterlimit:10;}.b,.c{stroke:rgba(0,0,0,0);}</style><linearGradient id="a" x1="0.401" y1="-0.231" x2="0.707" y2="1.061" gradientUnits="objectBoundingBox"><stop offset="0" stop-color="#00df8c"/><stop offset="0.53" stop-color="#01d6c1"/><stop offset="1" stop-color="#59d1fe"/></linearGradient></defs><g transform="translate(-661.152 -1447.146)"><path class="a" d="M49.478,19.747C51.215,11.062,38.807,2.624,28.881.639S6.3,1.383,1.336,7.587,6.018,23.194,17.466,25.7,47.741,28.433,49.478,19.747Z" transform="translate(717.644 1471.81) rotate(155)"/><path class="a" d="M9.487,8.068c1.5-1.79-.649-5.007-3.132-6.682s-6.917-2.155-6.3.4S7.985,9.859,9.487,8.068Z" transform="translate(714.906 1472.636) rotate(104)"/><g transform="translate(71.406 1077.142)"><path class="b" d="M-4026.917-717.831v-1.613a5.061,5.061,0,0,0-4.634-5.037q-.208.018-.421.018t-.42-.018a5.073,5.073,0,0,0-4.488,3.8,1.074,1.074,0,0,1-1.309.774,1.076,1.076,0,0,1-.774-1.309,7.225,7.225,0,0,1,3.635-4.6,4.826,4.826,0,0,1-1.482-3.483,4.845,4.845,0,0,1,4.839-4.839,4.845,4.845,0,0,1,4.84,4.839,4.826,4.826,0,0,1-1.483,3.484,7.212,7.212,0,0,1,3.85,6.375v1.613a1.075,1.075,0,0,1-1.076,1.076A1.075,1.075,0,0,1-4026.917-717.831Zm-7.743-11.472a2.693,2.693,0,0,0,2.314,2.663c.125-.006.249-.01.375-.01s.25,0,.374.01a2.693,2.693,0,0,0,2.314-2.663,2.692,2.692,0,0,0-2.689-2.688A2.691,2.691,0,0,0-4034.661-729.3Zm-24.09,11.472v-1.613a7.213,7.213,0,0,1,3.85-6.374,4.826,4.826,0,0,1-1.484-3.484,4.846,4.846,0,0,1,4.84-4.839,4.845,4.845,0,0,1,4.839,4.839,4.827,4.827,0,0,1-1.484,3.484,7.18,7.18,0,0,1,3.6,4.566,1.077,1.077,0,0,1-.775,1.309,1.076,1.076,0,0,1-1.309-.774,5.029,5.029,0,0,0-4.452-3.764q-.208.018-.421.018t-.421-.018a5.061,5.061,0,0,0-4.634,5.037v1.613a1.076,1.076,0,0,1-1.076,1.076A1.076,1.076,0,0,1-4058.751-717.831Zm7.58-8.808a2.693,2.693,0,0,0,2.315-2.663,2.691,2.691,0,0,0-2.689-2.688,2.691,2.691,0,0,0-2.688,2.688,2.693,2.693,0,0,0,2.314,2.663q.186-.01.375-.01C-4051.42-726.649-4051.295-726.646-4051.171-726.64Z" transform="translate(4658.75 1112.598)"/><path class="c" d="M-4046.491-717.831v-1.613a5.062,5.062,0,0,0-4.633-5.037c-.139.012-.279.018-.421.018s-.282-.006-.421-.018a5.061,5.061,0,0,0-4.634,5.037v1.613a1.076,1.076,0,0,1-1.076,1.076,1.076,1.076,0,0,1-1.076-1.076v-1.613a7.212,7.212,0,0,1,3.85-6.374,4.826,4.826,0,0,1-1.484-3.484,4.845,4.845,0,0,1,4.84-4.839,4.845,4.845,0,0,1,4.839,4.839,4.825,4.825,0,0,1-1.483,3.484,7.212,7.212,0,0,1,3.85,6.375v1.613a1.076,1.076,0,0,1-1.076,1.076A1.076,1.076,0,0,1-4046.491-717.831Zm-7.743-11.472a2.693,2.693,0,0,0,2.314,2.663q.186-.01.375-.01c.125,0,.251,0,.375.01a2.692,2.692,0,0,0,2.313-2.663,2.691,2.691,0,0,0-2.688-2.688A2.692,2.692,0,0,0-4054.234-729.3Z" transform="translate(4668.537 1115.86)"/></g></g></svg>