<svg xmlns="http://www.w3.org/2000/svg" xmlns:xlink="http://www.w3.org/1999/xlink" width="57.283" height="36.591" viewBox="0 0 57.283 36.591"><defs><style>.a,.e{fill:#15ced8;}.a,.f{stroke:rgba(0,0,0,0);}.b{opacity:0.21;}.b,.f{fill:url(#a);}.c{opacity:0.49;}.d{clip-path:url(#c);}.e{font-size:14px;font-family:BalooChettan2-Medium, 'Baloo Chettan \32 ';font-weight:500;letter-spacing:0.02em;opacity:0.57;}</style><linearGradient id="a" x1="0.401" y1="-0.231" x2="0.707" y2="1.061" gradientUnits="objectBoundingBox"><stop offset="0" stop-color="#00df8c"/><stop offset="0.53" stop-color="#01d6c1"/><stop offset="1" stop-color="#59d1fe"/></linearGradient><clipPath id="c"><rect class="a" width="9.199" height="11.958"/></clipPath></defs><g transform="translate(-1039.254 -1394.409)"><path class="b" d="M2992.878,1147.427c-2.253-3.236-.129-7.235,10.2-13.075s21.943-8.123,27.252-7.563,11.39,5.759,13.32,11.439-2.027,15.118-13.8,16.238S2995.131,1150.662,2992.878,1147.427Z" transform="translate(-2065.603 647.085) rotate(-7)"/><path class="b" d="M3046.545,1153.06c1.834-.193,7.722-4.054,6.274-6.66s-4.038-3.554-5.5-1.834S3044.711,1153.253,3046.545,1153.06Z" transform="translate(-2006.344 255.303)"/><g transform="translate(761.989 1380.106)"><g class="c" transform="translate(303.471 23.578)"><g transform="translate(0 0)"><g class="d"><path class="a" d="M356.064,57.021h-.233V55.933a3.712,3.712,0,0,0-3.6-3.732h-.218a3.712,3.712,0,0,0-3.6,3.732v1.089h-.233a.755.755,0,0,0-.651.827v5.461a.759.759,0,0,0,.651.83h7.875a.759.759,0,0,0,.651-.83V57.848a.755.755,0,0,0-.651-.827Zm-3.2,3.552v1.65a.352.352,0,0,1-.347.349h-.781a.352.352,0,0,1-.347-.349v-1.65a1,1,0,0,1,.629-1.7c.055,0,.164,0,.218,0a1,1,0,0,1,.629,1.7Zm1.434-3.552h-4.343V55.933a2.171,2.171,0,1,1,4.343,0Zm0,0" transform="translate(-347.538 -52.2)"/></g></g></g></g><g transform="translate(764.482 1384.477)"><text class="e" transform="translate(299.118 41.523)"><tspan x="0" y="0">***</tspan></text><path class="f" d="M-2188-1370.111a14.351,14.351,0,0,1,5.594-11.37.823.823,0,0,1,.1-.079q.029-.021.06-.039a14.29,14.29,0,0,1,8.615-2.877,14.381,14.381,0,0,1,14.365,14.365,14.359,14.359,0,0,1-6.21,11.819.811.811,0,0,1-.136.122.816.816,0,0,1-.2.105,14.282,14.282,0,0,1-7.817,2.318A14.381,14.381,0,0,1-2188-1370.111Zm1.623,0a12.757,12.757,0,0,0,12.742,12.741,12.665,12.665,0,0,0,6.372-1.711l-14.73-20.64A12.717,12.717,0,0,0-2186.382-1370.111Zm20.464,10.128a12.729,12.729,0,0,0,5.019-10.128,12.756,12.756,0,0,0-12.741-12.742,12.669,12.669,0,0,0-7.069,2.146Z" transform="translate(2479.004 1397.477)"/></g></g></svg>