<svg xmlns="http://www.w3.org/2000/svg" xmlns:xlink="http://www.w3.org/1999/xlink" width="46.722" height="49.479" viewBox="0 0 46.722 49.479"><defs><style>.a{fill:url(#a);}.b{opacity:0.17;}.c{fill:#ffca4f;}.d{fill:#16c483;}.e{fill:#e5e5e5;}</style><linearGradient id="a" x1="0.5" x2="0.5" y2="1" gradientUnits="objectBoundingBox"><stop offset="0" stop-color="#fc8295"/><stop offset="1" stop-color="#f75b73"/></linearGradient></defs><rect class="a" width="38.841" height="34.338" rx="7" transform="translate(3.94 11.201)"/><path class="b" d="M140.171,357.364V360.7h-39v-3.335Z" transform="translate(-97.312 -338.924)"/><g transform="translate(24.245 0)"><g transform="translate(0 0)"><path class="c" d="M152.3,327.045c-3.631-3.232-10.951,7.18-10.951,7.18l.209.718s8.438-4.616,11.076-4.82c2.08-.161,2.042,1.4-.124,2.169-1.973.7-10.952,2.651-10.952,2.651s-.139.134,6.871-.994c5.569-.9,6.83-1.984,6.863-3.635S153.834,328.413,152.3,327.045Z" transform="translate(-141.346 -326.423)"/><path class="c" d="M148.957,343.234c5.375-.864,6.736-1.908,6.854-3.464a5,5,0,0,0-2.649-.362c2.08-.161,2.042,1.4-.124,2.169-1.973.7-10.952,2.651-10.952,2.651v0C142.108,344.241,142.5,344.273,148.957,343.234Z" transform="translate(-141.877 -335.708)"/></g><path class="c" d="M146.607,343.858s-.235-.607-1.405-.7-1.214-.719-1.214-.72a39.1,39.1,0,0,0-2.642,3.273l.209.718s2.406-1.316,5.05-2.574Z" transform="translate(-141.346 -337.913)"/></g><g transform="translate(10.302 0)"><g transform="translate(0)"><path class="c" d="M95.029,327.045c3.631-3.232,10.951,7.18,10.951,7.18l-.209.718s-8.438-4.616-11.076-4.82c-2.08-.161-2.042,1.4.124,2.169,1.973.7,10.952,2.651,10.952,2.651s.139.134-6.871-.994c-5.569-.9-6.83-1.984-6.863-3.635S93.492,328.413,95.029,327.045Z" transform="translate(-92.037 -326.423)"/><path class="c" d="M98.923,343.234c-5.375-.864-6.736-1.908-6.854-3.464a5,5,0,0,1,2.649-.362c-2.08-.161-2.042,1.4.124,2.169,1.973.7,10.952,2.651,10.952,2.651v0C105.771,344.241,105.384,344.273,98.923,343.234Z" transform="translate(-92.06 -335.708)"/></g></g><rect class="d" width="46.722" height="10.695" rx="5.348" transform="translate(0 7.824)"/><ellipse class="e" cx="17.45" cy="1.126" rx="17.45" ry="1.126" transform="translate(5.629 47.228)"/></svg>
