<svg xmlns="http://www.w3.org/2000/svg" xmlns:xlink="http://www.w3.org/1999/xlink" width="116.813" height="56.49" viewBox="0 0 116.813 56.49"><defs><filter id="a" x="0" y="0" width="116.813" height="56.49" filterUnits="userSpaceOnUse"><feOffset dy="2" input="SourceAlpha"/><feGaussianBlur stdDeviation="6" result="b"/><feFlood flood-color="#a7a7a7" flood-opacity="0.239"/><feComposite operator="in" in2="b"/><feComposite in="SourceGraphic"/></filter><filter id="c" x="24.03" y="15.769" width="78.038" height="27.284" filterUnits="userSpaceOnUse"><feOffset dy="3" input="SourceAlpha"/><feGaussianBlur stdDeviation="3" result="d"/><feFlood flood-color="#9e3f00" flood-opacity="0.251"/><feComposite operator="in" in2="d"/><feComposite in="SourceGraphic"/></filter></defs><g transform="translate(-263.187 -365.332)"><g transform="matrix(1, 0, 0, 1, 263.19, 365.33)" filter="url(#a)"><path d="M-30.67,0H38.938c6.188,0,11.205,4.584,11.205,10.238S45.127,20.476,38.938,20.476H-4.3c-5.3,0-14.158.725-17.706-8.547S-30.67,0-30.67,0Z" transform="translate(48.67 16)" fill="#ff7f4b"/></g><g transform="matrix(1, 0, 0, 1, 263.19, 365.33)" filter="url(#c)"><path d="M-25.586-1.716a.747.747,0,0,1-.242.132,1.043,1.043,0,0,1-.352.055,1.033,1.033,0,0,1-.4-.071.421.421,0,0,1-.236-.225q-.506-1.166-.875-2.068T-28.281-5.4h-.055q-.033.781-.06,1.436t-.061,1.281q-.033.627-.071,1.276t-.083,1.4a1.49,1.49,0,0,1-.226.061,1.485,1.485,0,0,1-.292.027q-.594,0-.594-.484,0-.143.017-.506t.044-.864q.027-.5.066-1.106t.082-1.226q.044-.622.088-1.221t.088-1.106a1.111,1.111,0,0,1,.292-.187,1.138,1.138,0,0,1,.5-.1,1.077,1.077,0,0,1,.561.127.864.864,0,0,1,.33.379q.176.385.363.831t.374.9q.187.456.363.907t.341.847h.055q.209-.55.423-1.089t.418-1.034l.385-.935q.182-.44.336-.792a1.754,1.754,0,0,1,.3-.1,1.491,1.491,0,0,1,.363-.044,1.071,1.071,0,0,1,.545.11.511.511,0,0,1,.236.319q.044.2.1.654t.11,1.051q.055.594.11,1.26t.1,1.287q.044.622.077,1.144t.044.819a.962.962,0,0,1-.259.115A1.212,1.212,0,0,1-23.2.077a.786.786,0,0,1-.4-.1A.439.439,0,0,1-23.793-.4q-.044-.748-.083-1.474t-.072-1.375q-.033-.649-.06-1.2t-.049-.935H-24.1q-.209.561-.566,1.43Zm9.141-.858a3.249,3.249,0,0,1-.187,1.133,2.463,2.463,0,0,1-.523.858,2.277,2.277,0,0,1-.819.545,2.894,2.894,0,0,1-1.078.192A2.894,2.894,0,0,1-20.13-.038a2.277,2.277,0,0,1-.819-.545,2.463,2.463,0,0,1-.523-.858,3.249,3.249,0,0,1-.187-1.133,3.249,3.249,0,0,1,.187-1.133,2.42,2.42,0,0,1,.528-.858,2.332,2.332,0,0,1,.825-.544A2.863,2.863,0,0,1-19.052-5.3a2.863,2.863,0,0,1,1.067.193,2.3,2.3,0,0,1,.825.55,2.487,2.487,0,0,1,.528.858A3.2,3.2,0,0,1-16.445-2.574Zm-2.607-1.8a1.276,1.276,0,0,0-1.045.473,2.056,2.056,0,0,0-.385,1.331,2.074,2.074,0,0,0,.374,1.326,1.275,1.275,0,0,0,1.056.468A1.275,1.275,0,0,0-18-1.249a2.074,2.074,0,0,0,.374-1.326A2.081,2.081,0,0,0-18-3.9,1.266,1.266,0,0,0-19.052-4.378Zm7.469,2.959a1.37,1.37,0,0,1-.55,1.155,2.6,2.6,0,0,1-1.6.418A4.435,4.435,0,0,1-14.52.088,2.544,2.544,0,0,1-15.142-.1a1.189,1.189,0,0,1-.4-.286.542.542,0,0,1-.143-.363.606.606,0,0,1,.083-.308.648.648,0,0,1,.226-.231,4.5,4.5,0,0,0,.7.363,2.389,2.389,0,0,0,.924.165,1.4,1.4,0,0,0,.759-.171.549.549,0,0,0,.264-.49.566.566,0,0,0-.182-.44,1.228,1.228,0,0,0-.533-.253l-.748-.2a2.482,2.482,0,0,1-1.1-.539,1.241,1.241,0,0,1-.352-.935,1.39,1.39,0,0,1,.132-.6,1.335,1.335,0,0,1,.391-.484,1.922,1.922,0,0,1,.643-.319A3.065,3.065,0,0,1-13.6-5.3a3.944,3.944,0,0,1,.72.06,2.549,2.549,0,0,1,.561.165,1.016,1.016,0,0,1,.369.259.5.5,0,0,1,.132.33.571.571,0,0,1-.077.3.618.618,0,0,1-.2.2,3.478,3.478,0,0,0-.589-.264,2.429,2.429,0,0,0-.841-.143,1.4,1.4,0,0,0-.726.16.5.5,0,0,0-.264.446.482.482,0,0,0,.149.363,1.129,1.129,0,0,0,.512.231l.638.165a2.837,2.837,0,0,1,1.232.594A1.326,1.326,0,0,1-11.583-1.419Zm2.145-.088a.642.642,0,0,0,.231.561,1.1,1.1,0,0,0,.649.165,1.558,1.558,0,0,0,.4-.055A1.889,1.889,0,0,0-7.8-.968a1.116,1.116,0,0,1,.137.2A.54.54,0,0,1-7.6-.506a.55.55,0,0,1-.292.473,1.667,1.667,0,0,1-.885.187,2.135,2.135,0,0,1-1.314-.369,1.424,1.424,0,0,1-.49-1.216V-6.567q.077-.022.22-.055a1.368,1.368,0,0,1,.308-.033.736.736,0,0,1,.467.121.5.5,0,0,1,.149.407v1.089h1.7a.76.76,0,0,1,.082.187.829.829,0,0,1,.038.253q0,.473-.407.473H-9.438Zm6.1-.792V-.022a1.466,1.466,0,0,1-.231.061,1.7,1.7,0,0,1-.319.027.754.754,0,0,1-.49-.127.53.53,0,0,1-.148-.424V-6.16a.394.394,0,0,1,.1-.292.672.672,0,0,1,.292-.159,3.389,3.389,0,0,1,.814-.165q.473-.044.891-.044A3.14,3.14,0,0,1-.3-6.215,2.072,2.072,0,0,1,.385-4.576,2.123,2.123,0,0,1-.3-2.921,2.971,2.971,0,0,1-2.354-2.3Zm.9-.957a1.931,1.931,0,0,0,1.194-.33A1.165,1.165,0,0,0-.8-4.576a1.129,1.129,0,0,0-.412-.968A1.95,1.95,0,0,0-2.4-5.852q-.253,0-.5.022t-.446.055v2.519Zm8.558.682A3.249,3.249,0,0,1,5.94-1.441a2.463,2.463,0,0,1-.523.858,2.277,2.277,0,0,1-.82.545A2.894,2.894,0,0,1,3.52.154,2.894,2.894,0,0,1,2.442-.038a2.277,2.277,0,0,1-.82-.545A2.463,2.463,0,0,1,1.1-1.441,3.249,3.249,0,0,1,.913-2.574,3.249,3.249,0,0,1,1.1-3.707a2.42,2.42,0,0,1,.528-.858,2.332,2.332,0,0,1,.825-.544A2.863,2.863,0,0,1,3.52-5.3a2.863,2.863,0,0,1,1.067.193,2.3,2.3,0,0,1,.825.55A2.487,2.487,0,0,1,5.94-3.7,3.2,3.2,0,0,1,6.127-2.574ZM3.52-4.378a1.276,1.276,0,0,0-1.045.473A2.056,2.056,0,0,0,2.09-2.574a2.074,2.074,0,0,0,.374,1.326A1.275,1.275,0,0,0,3.52-.781a1.275,1.275,0,0,0,1.056-.468A2.074,2.074,0,0,0,4.95-2.574,2.081,2.081,0,0,0,4.57-3.9,1.266,1.266,0,0,0,3.52-4.378ZM9.482.154a2.914,2.914,0,0,1-.66-.071A2.4,2.4,0,0,1,8.294-.1V1.969a1.128,1.128,0,0,1-.214.06,1.545,1.545,0,0,1-.3.028A.761.761,0,0,1,7.3,1.936a.5.5,0,0,1-.154-.418V-4.169a.76.76,0,0,1,.088-.391.913.913,0,0,1,.33-.292,3.762,3.762,0,0,1,.753-.313A3.409,3.409,0,0,1,9.328-5.3a3.46,3.46,0,0,1,1.067.159,2.311,2.311,0,0,1,.858.49,2.283,2.283,0,0,1,.572.841A3.205,3.205,0,0,1,12.034-2.6a3.416,3.416,0,0,1-.192,1.2,2.46,2.46,0,0,1-.528.858,2.106,2.106,0,0,1-.8.517A2.982,2.982,0,0,1,9.482.154ZM9.306-.781a1.5,1.5,0,0,0,1.133-.435A1.937,1.937,0,0,0,10.857-2.6a2.479,2.479,0,0,0-.121-.825,1.545,1.545,0,0,0-.325-.556,1.165,1.165,0,0,0-.484-.308,1.884,1.884,0,0,0-.6-.094,1.909,1.909,0,0,0-.6.082,2.276,2.276,0,0,0-.434.193v3.025a1.639,1.639,0,0,0,.44.215A1.841,1.841,0,0,0,9.306-.781Zm3.751-4.356q.077-.022.22-.049a1.631,1.631,0,0,1,.308-.028.736.736,0,0,1,.468.121.512.512,0,0,1,.148.418v2.717a1.1,1.1,0,0,0,.336.908,1.446,1.446,0,0,0,.929.27,2.349,2.349,0,0,0,.649-.077,1.977,1.977,0,0,0,.418-.165V-5.137q.088-.022.226-.049a1.545,1.545,0,0,1,.3-.028.761.761,0,0,1,.473.121.5.5,0,0,1,.154.418V-.968a.886.886,0,0,1-.077.4.8.8,0,0,1-.308.3,3.353,3.353,0,0,1-.754.3,4.049,4.049,0,0,1-1.094.132,2.779,2.779,0,0,1-1.765-.5,1.9,1.9,0,0,1-.633-1.59ZM19.69.066a.761.761,0,0,1-.473-.121.488.488,0,0,1-.154-.407V-7.139q.077-.022.22-.055a1.368,1.368,0,0,1,.308-.033.761.761,0,0,1,.473.121.488.488,0,0,1,.154.407V-.022a1.49,1.49,0,0,1-.226.061A1.545,1.545,0,0,1,19.69.066Zm3.828-.8a2.6,2.6,0,0,0,.671-.077A1.307,1.307,0,0,0,24.6-.979v-1.4l-1.2.121a1.709,1.709,0,0,0-.759.226.587.587,0,0,0-.253.522.665.665,0,0,0,.275.567A1.45,1.45,0,0,0,23.518-.737ZM23.5-5.3a2.687,2.687,0,0,1,1.628.445,1.626,1.626,0,0,1,.6,1.4V-.891a.591.591,0,0,1-.115.391,1.269,1.269,0,0,1-.313.259,3.092,3.092,0,0,1-.737.286,4.052,4.052,0,0,1-1.045.121,2.879,2.879,0,0,1-1.667-.418,1.405,1.405,0,0,1-.6-1.232A1.357,1.357,0,0,1,21.72-2.6a2.474,2.474,0,0,1,1.347-.473L24.6-3.223v-.242a.8.8,0,0,0-.314-.7,1.5,1.5,0,0,0-.875-.22,2.956,2.956,0,0,0-.847.121,4.856,4.856,0,0,0-.726.275.813.813,0,0,1-.187-.215.529.529,0,0,1-.077-.28.489.489,0,0,1,.094-.308.738.738,0,0,1,.292-.209,2.6,2.6,0,0,1,.7-.226A4.7,4.7,0,0,1,23.5-5.3Zm4.631,5.28a1.128,1.128,0,0,1-.215.061,1.545,1.545,0,0,1-.3.027.761.761,0,0,1-.473-.121.488.488,0,0,1-.154-.407V-4.07a.81.81,0,0,1,.11-.445,1.132,1.132,0,0,1,.352-.325,3.028,3.028,0,0,1,.814-.33A4.221,4.221,0,0,1,29.348-5.3q.968,0,.968.55a.689.689,0,0,1-.044.247,1.169,1.169,0,0,1-.1.2q-.11-.022-.275-.044a2.667,2.667,0,0,0-.352-.022,3.218,3.218,0,0,0-.8.094,2.542,2.542,0,0,0-.616.236Z" transform="translate(62.75 29)" fill="#fff"/></g></g></svg>