<svg xmlns="http://www.w3.org/2000/svg" xmlns:xlink="http://www.w3.org/1999/xlink" width="157.432" height="66.788" viewBox="0 0 157.432 66.788">
  <defs>
    <linearGradient id="linear-gradient" y1="0.5" x2="1" y2="0.5" gradientUnits="objectBoundingBox">
      <stop offset="0" stop-color="#feb85c"/>
      <stop offset="1" stop-color="#ff7347"/>
    </linearGradient>
    <filter id="路径_22240" x="0" y="0" width="157.432" height="66.788" filterUnits="userSpaceOnUse">
      <feOffset dy="6" input="SourceAlpha"/>
      <feGaussianBlur stdDeviation="6" result="blur"/>
      <feFlood flood-color="#ff7f2a" flood-opacity="0.239"/>
      <feComposite operator="in" in2="blur"/>
      <feComposite in="SourceGraphic"/>
    </filter>
    <filter id="路径_22271" x="33.438" y="15.488" width="105.328" height="31.504" filterUnits="userSpaceOnUse">
      <feOffset dy="3" input="SourceAlpha"/>
      <feGaussianBlur stdDeviation="3" result="blur-2"/>
      <feFlood flood-color="#9e3f00" flood-opacity="0.251"/>
      <feComposite operator="in" in2="blur-2"/>
      <feComposite in="SourceGraphic"/>
    </filter>
  </defs>
  <g id="组_5062" data-name="组 5062" transform="translate(-993.33 -508)">
    <g transform="matrix(1, 0, 0, 1, 993.33, 508)" filter="url(#路径_22240)">
      <path id="路径_22240-2" data-name="路径 22240" d="M-30.67,0h104.6c9.3,0,16.837,6.888,16.837,15.384S83.224,30.768,73.926,30.768H8.952c-7.97,0-21.275,1.089-26.605-12.842S-30.67,0-30.67,0Z" transform="translate(48.67 12)" fill="url(#linear-gradient)"/>
    </g>
    <g transform="matrix(1, 0, 0, 1, 993.33, 508)" filter="url(#路径_22271)">
      <path id="路径_22271-2" data-name="路径 22271" d="M-37.216-2.5a1.087,1.087,0,0,1-.352.192,1.518,1.518,0,0,1-.512.08,1.5,1.5,0,0,1-.584-.1.613.613,0,0,1-.344-.328q-.736-1.7-1.272-3.008t-.856-2.192h-.08q-.048,1.136-.088,2.088T-41.392-3.9q-.048.912-.1,1.856t-.12,2.032a2.167,2.167,0,0,1-.328.088,2.159,2.159,0,0,1-.424.04q-.864,0-.864-.7,0-.208.024-.736t.064-1.256q.04-.728.1-1.608t.12-1.784q.064-.9.128-1.776t.128-1.608a1.616,1.616,0,0,1,.424-.272,1.655,1.655,0,0,1,.728-.144,1.567,1.567,0,0,1,.816.184,1.257,1.257,0,0,1,.48.552q.256.56.528,1.208t.544,1.312q.272.664.528,1.32t.5,1.232h.08q.3-.8.616-1.584t.608-1.5l.56-1.36q.264-.64.488-1.152a2.551,2.551,0,0,1,.432-.144,2.169,2.169,0,0,1,.528-.064,1.557,1.557,0,0,1,.792.16.743.743,0,0,1,.344.464q.064.288.144.952t.16,1.528q.08.864.16,1.832t.144,1.872q.064.9.112,1.664T-32.9-.112a1.4,1.4,0,0,1-.376.168,1.762,1.762,0,0,1-.472.056,1.143,1.143,0,0,1-.584-.144.638.638,0,0,1-.28-.544q-.064-1.088-.12-2.144t-.1-2q-.048-.944-.088-1.744t-.072-1.36h-.064q-.3.816-.824,2.08Zm13.3-1.248A4.726,4.726,0,0,1-24.192-2.1a3.582,3.582,0,0,1-.76,1.248,3.312,3.312,0,0,1-1.192.792,4.209,4.209,0,0,1-1.568.28,4.209,4.209,0,0,1-1.568-.28,3.312,3.312,0,0,1-1.192-.792,3.582,3.582,0,0,1-.76-1.248A4.726,4.726,0,0,1-31.5-3.744a4.726,4.726,0,0,1,.272-1.648,3.52,3.52,0,0,1,.768-1.248,3.391,3.391,0,0,1,1.2-.792,4.164,4.164,0,0,1,1.552-.28,4.164,4.164,0,0,1,1.552.28,3.34,3.34,0,0,1,1.2.8,3.617,3.617,0,0,1,.768,1.248A4.66,4.66,0,0,1-23.92-3.744Zm-3.792-2.624a1.856,1.856,0,0,0-1.52.688,2.99,2.99,0,0,0-.56,1.936,3.017,3.017,0,0,0,.544,1.928,1.855,1.855,0,0,0,1.536.68,1.855,1.855,0,0,0,1.536-.68,3.017,3.017,0,0,0,.544-1.928,3.027,3.027,0,0,0-.552-1.928A1.842,1.842,0,0,0-27.712-6.368Zm10.864,4.3a1.993,1.993,0,0,1-.8,1.68,3.783,3.783,0,0,1-2.32.608,6.451,6.451,0,0,1-1.152-.1,3.7,3.7,0,0,1-.9-.272,1.729,1.729,0,0,1-.584-.416.789.789,0,0,1-.208-.528.882.882,0,0,1,.12-.448.942.942,0,0,1,.328-.336,6.552,6.552,0,0,0,1.024.528A3.476,3.476,0,0,0-20-1.1a2.039,2.039,0,0,0,1.1-.248.8.8,0,0,0,.384-.712.823.823,0,0,0-.264-.64,1.785,1.785,0,0,0-.776-.368L-20.64-3.36a3.611,3.611,0,0,1-1.6-.784,1.805,1.805,0,0,1-.512-1.36,2.022,2.022,0,0,1,.192-.872,1.942,1.942,0,0,1,.568-.7,2.8,2.8,0,0,1,.936-.464,4.458,4.458,0,0,1,1.28-.168,5.737,5.737,0,0,1,1.048.088,3.708,3.708,0,0,1,.816.24,1.478,1.478,0,0,1,.536.376.725.725,0,0,1,.192.48.83.83,0,0,1-.112.44.9.9,0,0,1-.288.3,5.058,5.058,0,0,0-.856-.384,3.532,3.532,0,0,0-1.224-.208,2.04,2.04,0,0,0-1.056.232A.721.721,0,0,0-21.1-5.5a.7.7,0,0,0,.216.528,1.642,1.642,0,0,0,.744.336l.928.24a4.127,4.127,0,0,1,1.792.864A1.928,1.928,0,0,1-16.848-2.064Zm3.12-.128a.934.934,0,0,0,.336.816,1.6,1.6,0,0,0,.944.24,2.266,2.266,0,0,0,.576-.08,2.747,2.747,0,0,0,.528-.192,1.623,1.623,0,0,1,.2.288.786.786,0,0,1,.088.384.8.8,0,0,1-.424.688,2.424,2.424,0,0,1-1.288.272A3.1,3.1,0,0,1-14.68-.312a2.071,2.071,0,0,1-.712-1.768V-9.552q.112-.032.32-.08a1.99,1.99,0,0,1,.448-.048,1.07,1.07,0,0,1,.68.176.723.723,0,0,1,.216.592v1.584h2.48a1.105,1.105,0,0,1,.12.272,1.206,1.206,0,0,1,.056.368q0,.688-.592.688h-2.064Zm8.88-1.152V-.032a2.132,2.132,0,0,1-.336.088A2.466,2.466,0,0,1-5.648.1,1.1,1.1,0,0,1-6.36-.088.77.77,0,0,1-6.576-.7V-8.96a.573.573,0,0,1,.152-.424A.977.977,0,0,1-6-9.616a4.929,4.929,0,0,1,1.184-.24q.688-.064,1.3-.064a4.567,4.567,0,0,1,3.08.88,3.014,3.014,0,0,1,1,2.384,3.088,3.088,0,0,1-1,2.408,4.322,4.322,0,0,1-2.984.9Zm1.312-1.392A2.809,2.809,0,0,0-1.8-5.216a1.694,1.694,0,0,0,.632-1.44,1.642,1.642,0,0,0-.6-1.408,2.836,2.836,0,0,0-1.72-.448q-.368,0-.728.032t-.648.08v3.664Zm12.448.992A4.727,4.727,0,0,1,8.64-2.1,3.582,3.582,0,0,1,7.88-.848a3.312,3.312,0,0,1-1.192.792A4.209,4.209,0,0,1,5.12.224a4.209,4.209,0,0,1-1.568-.28A3.312,3.312,0,0,1,2.36-.848,3.582,3.582,0,0,1,1.6-2.1a4.726,4.726,0,0,1-.272-1.648A4.727,4.727,0,0,1,1.6-5.392,3.52,3.52,0,0,1,2.368-6.64a3.391,3.391,0,0,1,1.2-.792,4.164,4.164,0,0,1,1.552-.28,4.164,4.164,0,0,1,1.552.28,3.34,3.34,0,0,1,1.2.8A3.617,3.617,0,0,1,8.64-5.384,4.66,4.66,0,0,1,8.912-3.744ZM5.12-6.368A1.856,1.856,0,0,0,3.6-5.68a2.99,2.99,0,0,0-.56,1.936,3.017,3.017,0,0,0,.544,1.928,1.855,1.855,0,0,0,1.536.68,1.855,1.855,0,0,0,1.536-.68A3.017,3.017,0,0,0,7.2-3.744a3.027,3.027,0,0,0-.552-1.928A1.842,1.842,0,0,0,5.12-6.368ZM13.792.224a4.238,4.238,0,0,1-.96-.1,3.485,3.485,0,0,1-.768-.264V2.864a1.641,1.641,0,0,1-.312.088,2.248,2.248,0,0,1-.44.04,1.107,1.107,0,0,1-.688-.176.73.73,0,0,1-.224-.608V-6.064a1.106,1.106,0,0,1,.128-.568,1.328,1.328,0,0,1,.48-.424,5.472,5.472,0,0,1,1.1-.456,4.959,4.959,0,0,1,1.464-.2,5.033,5.033,0,0,1,1.552.232,3.362,3.362,0,0,1,1.248.712A3.321,3.321,0,0,1,17.2-5.544a4.662,4.662,0,0,1,.3,1.768,4.969,4.969,0,0,1-.28,1.752,3.579,3.579,0,0,1-.768,1.248,3.063,3.063,0,0,1-1.168.752A4.337,4.337,0,0,1,13.792.224Zm-.256-1.36a2.18,2.18,0,0,0,1.648-.632,2.818,2.818,0,0,0,.608-2.008,3.606,3.606,0,0,0-.176-1.2,2.247,2.247,0,0,0-.472-.808,1.7,1.7,0,0,0-.7-.448,2.74,2.74,0,0,0-.872-.136,2.777,2.777,0,0,0-.872.12,3.31,3.31,0,0,0-.632.28v4.4a2.384,2.384,0,0,0,.64.312A2.678,2.678,0,0,0,13.536-1.136Zm5.456-6.336q.112-.032.32-.072a2.373,2.373,0,0,1,.448-.04,1.07,1.07,0,0,1,.68.176.745.745,0,0,1,.216.608v3.952a1.6,1.6,0,0,0,.488,1.32,2.1,2.1,0,0,0,1.352.392,3.416,3.416,0,0,0,.944-.112,2.876,2.876,0,0,0,.608-.24V-7.472q.128-.032.328-.072a2.248,2.248,0,0,1,.44-.04,1.107,1.107,0,0,1,.688.176.73.73,0,0,1,.224.608v5.392a1.288,1.288,0,0,1-.112.576,1.164,1.164,0,0,1-.448.432,4.877,4.877,0,0,1-1.1.432A5.89,5.89,0,0,1,22.48.224,4.042,4.042,0,0,1,19.912-.5a2.77,2.77,0,0,1-.92-2.312ZM28.64.1a1.107,1.107,0,0,1-.688-.176.709.709,0,0,1-.224-.592v-9.712q.112-.032.32-.08a1.99,1.99,0,0,1,.448-.048,1.107,1.107,0,0,1,.688.176.709.709,0,0,1,.224.592V-.032a2.167,2.167,0,0,1-.328.088A2.248,2.248,0,0,1,28.64.1Zm5.568-1.168a3.779,3.779,0,0,0,.976-.112,1.9,1.9,0,0,0,.592-.24V-3.456l-1.744.176a2.485,2.485,0,0,0-1.1.328.853.853,0,0,0-.368.76.967.967,0,0,0,.4.824A2.109,2.109,0,0,0,34.208-1.072Zm-.032-6.64a3.909,3.909,0,0,1,2.368.648,2.365,2.365,0,0,1,.88,2.04V-1.3a.859.859,0,0,1-.168.568,1.845,1.845,0,0,1-.456.376,4.5,4.5,0,0,1-1.072.416,5.893,5.893,0,0,1-1.52.176,4.188,4.188,0,0,1-2.424-.608,2.044,2.044,0,0,1-.872-1.792,1.974,1.974,0,0,1,.68-1.616,3.6,3.6,0,0,1,1.96-.688l2.224-.224V-5.04a1.163,1.163,0,0,0-.456-1.024,2.188,2.188,0,0,0-1.272-.32,4.3,4.3,0,0,0-1.232.176,7.063,7.063,0,0,0-1.056.4,1.183,1.183,0,0,1-.272-.312.769.769,0,0,1-.112-.408.711.711,0,0,1,.136-.448,1.074,1.074,0,0,1,.424-.3,3.784,3.784,0,0,1,1.024-.328A6.838,6.838,0,0,1,34.176-7.712Zm6.736,7.68A1.641,1.641,0,0,1,40.6.056a2.248,2.248,0,0,1-.44.04,1.107,1.107,0,0,1-.688-.176.709.709,0,0,1-.224-.592V-5.92a1.178,1.178,0,0,1,.16-.648,1.646,1.646,0,0,1,.512-.472A4.4,4.4,0,0,1,41.1-7.52a6.139,6.139,0,0,1,1.584-.192q1.408,0,1.408.8a1,1,0,0,1-.064.36,1.7,1.7,0,0,1-.144.3q-.16-.032-.4-.064a3.879,3.879,0,0,0-.512-.032,4.681,4.681,0,0,0-1.168.136,3.7,3.7,0,0,0-.9.344Z" transform="translate(85.67 32)" fill="#fff"/>
    </g>
  </g>
</svg>
