<svg xmlns="http://www.w3.org/2000/svg" width="322" height="314" viewBox="0 0 322 314">
  <g id="img_dots" transform="translate(3102.498 -5379.768)">
    <g id="circle" transform="translate(-2796.498 5426.768)" fill="none">
      <path d="M8,0A8,8,0,1,1,0,8,8,8,0,0,1,8,0Z" stroke="none"/>
      <path d="M 8 4 C 5.794389724731445 4 4 5.794389724731445 4 8 C 4 10.20561027526855 5.794389724731445 12 8 12 C 10.20561027526855 12 12 10.20561027526855 12 8 C 12 5.794389724731445 10.20561027526855 4 8 4 M 8 0 C 12.41827964782715 0 16 3.581720352172852 16 8 C 16 12.41827964782715 12.41827964782715 16 8 16 C 3.581720352172852 16 0 12.41827964782715 0 8 C 0 3.581720352172852 3.581720352172852 0 8 0 Z" stroke="none" fill="#7c56ff"/>
    </g>
    <g id="circle-2" data-name="circle" transform="translate(-2816.498 5683.768)" fill="none">
      <path d="M5,0A5,5,0,1,1,0,5,5,5,0,0,1,5,0Z" stroke="none"/>
      <path d="M 5 2 C 3.345789909362793 2 2 3.345789909362793 2 5 C 2 6.654210090637207 3.345789909362793 8 5 8 C 6.654210090637207 8 8 6.654210090637207 8 5 C 8 3.345789909362793 6.654210090637207 2 5 2 M 5 0 C 7.761420249938965 0 10 2.238580226898193 10 5 C 10 7.761420249938965 7.761420249938965 10 5 10 C 2.238580226898193 10 0 7.761420249938965 0 5 C 0 2.238580226898193 2.238580226898193 0 5 0 Z" stroke="none" fill="#fff"/>
    </g>
    <g id="circle-3" data-name="circle" transform="translate(-2891.498 5379.768)" fill="none">
      <path d="M5,0A5,5,0,1,1,0,5,5,5,0,0,1,5,0Z" stroke="none"/>
      <path d="M 5 2 C 3.345789909362793 2 2 3.345789909362793 2 5 C 2 6.654210090637207 3.345789909362793 8 5 8 C 6.654210090637207 8 8 6.654210090637207 8 5 C 8 3.345789909362793 6.654210090637207 2 5 2 M 5 0 C 7.761420249938965 0 10 2.238580226898193 10 5 C 10 7.761420249938965 7.761420249938965 10 5 10 C 2.238580226898193 10 0 7.761420249938965 0 5 C 0 2.238580226898193 2.238580226898193 0 5 0 Z" stroke="none" fill="#ff87a7"/>
    </g>
    <path id="circle-4" data-name="circle" d="M7.5,0A7.5,7.5,0,1,1,0,7.5,7.5,7.5,0,0,1,7.5,0Z" transform="translate(-3102.498 5460.768)" fill="#005fff"/>
    <path id="circle-5" data-name="circle" d="M3.5,0A3.5,3.5,0,1,1,0,3.5,3.5,3.5,0,0,1,3.5,0Z" transform="translate(-3043.498 5475.768)" fill="#ffb656"/>
    <path id="circle-6" data-name="circle" d="M4.5,0A4.5,4.5,0,1,1,0,4.5,4.5,4.5,0,0,1,4.5,0Z" transform="translate(-2792.498 5585.768)" fill="#ffb656"/>
  </g>
</svg>
