<svg xmlns="http://www.w3.org/2000/svg" xmlns:xlink="http://www.w3.org/1999/xlink" width="560" height="560" viewBox="0 0 560 560">
  <defs>
    <style>
      .cls-1 {
        fill: url(#linear-gradient);
      }

      .cls-2 {
        fill: #f9b698;
      }

      .cls-3, .cls-31 {
        fill: #66f;
      }

      .cls-3 {
        opacity: 0.85;
      }

      .cls-11, .cls-4, .cls-40, .cls-41 {
        fill: #fff;
      }

      .cls-4 {
        opacity: 0.6;
      }

      .cls-5 {
        fill: #ffbe3e;
      }

      .cls-6 {
        fill: #ff476d;
      }

      .cls-7 {
        fill: #ae4610;
      }

      .cls-8 {
        fill: #f85359;
      }

      .cls-9 {
        fill: #efaf40;
        opacity: 0.79;
      }

      .cls-10 {
        fill: #393668;
      }

      .cls-12 {
        fill: #f6e3e3;
      }

      .cls-13 {
        fill: #e8e8ec;
      }

      .cls-14 {
        fill: #ff4d4d;
      }

      .cls-15, .cls-22, .cls-23, .cls-26, .cls-33, .cls-34, .cls-35, .cls-36, .cls-43 {
        fill: none;
      }

      .cls-15 {
        stroke: #c7c7c7;
      }

      .cls-16 {
        fill: #e7e3ff;
      }

      .cls-17 {
        fill: #f4b5b7;
      }

      .cls-18 {
        fill: #4056e3;
      }

      .cls-19 {
        fill: #5265ff;
      }

      .cls-20 {
        fill: #f2a61c;
      }

      .cls-21 {
        fill: #060606;
      }

      .cls-22 {
        stroke: #ef7353;
        stroke-width: 0.692px;
      }

      .cls-22, .cls-23, .cls-26 {
        stroke-miterlimit: 10;
      }

      .cls-23, .cls-26 {
        stroke: #060606;
      }

      .cls-23 {
        stroke-width: 1.384px;
      }

      .cls-24 {
        fill: #ef7353;
      }

      .cls-25 {
        fill: #db8b00;
      }

      .cls-26 {
        stroke-width: 1.309px;
      }

      .cls-27 {
        fill: #fec29e;
      }

      .cls-28 {
        fill: #ffd7b6;
      }

      .cls-29 {
        fill: #ff4a4a;
      }

      .cls-30 {
        fill: url(#linear-gradient-2);
      }

      .cls-32 {
        fill: #ff4141;
      }

      .cls-33, .cls-35 {
        stroke: #fff;
      }

      .cls-33, .cls-34 {
        stroke-width: 4px;
      }

      .cls-34 {
        stroke: #7c56ff;
      }

      .cls-35, .cls-36 {
        stroke-width: 2px;
      }

      .cls-36 {
        stroke: #ff87a7;
      }

      .cls-37 {
        fill: #005fff;
      }

      .cls-38 {
        fill: #ffb656;
      }

      .cls-39 {
        fill: #ff872c;
      }

      .cls-40 {
        font-size: 46px;
        font-family: SegoeUI, Segoe UI;
      }

      .cls-41 {
        stroke: #707070;
        opacity: 0;
      }

      .cls-42 {
        stroke: none;
      }

      .cls-44 {
        filter: url(#椭圆_65);
      }

      .cls-45 {
        filter: url(#椭圆_64);
      }
    </style>
    <linearGradient id="linear-gradient" x1="0.5" x2="0.5" y2="1" gradientUnits="objectBoundingBox">
      <stop offset="0" stop-color="#ffd6f8"/>
      <stop offset="1" stop-color="#bbd4ff"/>
    </linearGradient>
    <linearGradient id="linear-gradient-2" y1="0.733" x2="1.067" y2="0.356" gradientUnits="objectBoundingBox">
      <stop offset="0" stop-color="#fa0"/>
      <stop offset="0.463" stop-color="#ff506e"/>
      <stop offset="1" stop-color="#8c00d1"/>
    </linearGradient>
    <filter id="椭圆_64" x="392" y="252" width="75" height="75" filterUnits="userSpaceOnUse">
      <feOffset dy="3" input="SourceAlpha"/>
      <feGaussianBlur stdDeviation="3" result="blur"/>
      <feFlood flood-opacity="0.161"/>
      <feComposite operator="in" in2="blur"/>
      <feComposite in="SourceGraphic"/>
    </filter>
    <filter id="椭圆_65" x="412" y="169" width="46" height="46" filterUnits="userSpaceOnUse">
      <feOffset dy="3" input="SourceAlpha"/>
      <feGaussianBlur stdDeviation="3" result="blur-2"/>
      <feFlood flood-opacity="0.161"/>
      <feComposite operator="in" in2="blur-2"/>
      <feComposite in="SourceGraphic"/>
    </filter>
  </defs>
  <g id="组_288" data-name="组 288" transform="translate(-360 -5226)">
    <g id="img_feature_free" transform="translate(3555.498 -128.768)">
      <circle id="椭圆_81" data-name="椭圆 81" class="cls-1" cx="176" cy="176" r="176" transform="translate(-3102.498 5413.768)"/>
      <g id="组_234" data-name="组 234" transform="translate(-3102.081 5482.53)">
        <path id="路径_779" data-name="路径 779" class="cls-2" d="M220.569,78.465c-2.164,4.144-1.827,10.456.739,14.033,0,0,8.155,11.323,29.849.141s16.1-26.553,11.969-27.617l-23.778-6.127c-4.124-1.064-9.275,1.454-11.455,5.593Z" transform="translate(21.981 12.858)"/>
        <path id="路径_780" data-name="路径 780" class="cls-2" d="M224.655,91.82c-2.172,4.14-1.843,10.448.739,14.025,0,0,6.786,9.448,26.212-.558s14.061-23.843,9.922-24.911L241.832,75.3c-4.132-1.064-9.3-8.508-11.463-4.369Z" transform="translate(34.277 46.148)"/>
        <path id="路径_781" data-name="路径 781" class="cls-2" d="M222.579,95.6c-2.164,4.136-1.843,10.448.735,14.025,0,0,5.388,7.484,22.417-1.289,17.045-8.773,11.905-21.024,7.774-22.092l-15.419-3.967c-4.132-1.06-9.287,1.45-11.452,5.593Z" transform="translate(28.025 83.371)"/>
        <path id="路径_782" data-name="路径 782" class="cls-2" d="M283,77.284s30.928,122.8-20.037,120.618c-38.224-3.64-56.426,6.553-56.426,6.553L180.9,84.829Z" transform="translate(-115.745 69.044)"/>
        <path id="路径_783" data-name="路径 783" class="cls-2" d="M217.078,283.454s-42.093-59.993-47.987-95.975c-3.076-22.123,11.922-43.575,18.957-53.143L221.5,62.311c7.035-9.572,27.191-16.274,37.872-21.47l20.249,5.453c10.689-5.2,18.8.253,18.053,12.106l-4.385,68.725c-.759,11.853-5.4,30.4-10.319,41.209l-23.6,51.861c-4.919,10.817-9.865,29.34-10.99,41.164l-3.919,41.333c-1.128,11.821,4.126,7.845-7.49,10.351Z" transform="translate(-164.671 -40.841)"/>
      </g>
      <g id="组_235" data-name="组 235" transform="translate(-3180.856 5488.104)">
        <rect id="矩形_112" data-name="矩形 112" class="cls-3" width="205" height="64" rx="32" transform="translate(0.358 -0.337)"/>
        <rect id="矩形_113" data-name="矩形 113" class="cls-4" width="113" height="3" transform="translate(79.358 17.663)"/>
        <rect id="矩形_114" data-name="矩形 114" class="cls-4" width="68" height="3" transform="translate(79.358 30.663)"/>
        <rect id="矩形_115" data-name="矩形 115" class="cls-4" width="80" height="4" transform="translate(79.358 42.663)"/>
        <circle id="椭圆_63" data-name="椭圆 63" class="cls-5" cx="23" cy="23" r="23" transform="translate(11.358 9.663)"/>
        <path id="ic_favorite_24px" class="cls-6" d="M7.873,13.4a1.531,1.531,0,0,1-.852-.4C4,10.259,2,8.45,2,6.23A3.2,3.2,0,0,1,5.23,3,3.517,3.517,0,0,1,7.873,4.228,3.517,3.517,0,0,1,10.516,3a3.2,3.2,0,0,1,3.23,3.23c0,2.22-2,4.029-5.022,6.778A1.519,1.519,0,0,1,7.873,13.4Z" transform="translate(16.676 20.246)"/>
        <path id="ic_favorite_24px-2" data-name="ic_favorite_24px" class="cls-6" d="M7.873,13.4a1.531,1.531,0,0,1-.852-.4C4,10.259,2,8.45,2,6.23A3.2,3.2,0,0,1,5.23,3,3.517,3.517,0,0,1,7.873,4.228,3.517,3.517,0,0,1,10.516,3a3.2,3.2,0,0,1,3.23,3.23c0,2.22-2,4.029-5.022,6.778A1.519,1.519,0,0,1,7.873,13.4Z" transform="translate(34.284 20.246)"/>
        <path id="路径_790" data-name="路径 790" class="cls-7" d="M3.2,0h9.6a3.2,3.2,0,0,1,3.2,3.2V6.4c0,1.768-3.617,4.491-8.154,4.491S0,8.171,0,6.4V3.2A3.2,3.2,0,0,1,3.2,0Z" transform="translate(25.463 38.448)"/>
        <path id="路径_791" data-name="路径 791" class="cls-8" d="M16.007,4.723c0,1.768-3.617,4.491-8.154,4.491S0,6.491,0,4.723C0,4.723,1.717,2.8,7.852,2.8S16.007,4.723,16.007,4.723Z" transform="translate(25.463 40.128)"/>
      </g>
      <g id="组_236" data-name="组 236" transform="translate(-2828.072 5470.466)">
        <path id="联合_14" data-name="联合 14" class="cls-9" d="M20.279,52.189A26.011,26.011,0,0,1,0,26.821V26A26,26,0,0,1,26,0H158.075a26,26,0,0,1,26,26v.821a26,26,0,0,1-26,26H34.935c-2.4,5.521-7.985,12.377-20.9,12.454C19.541,60.555,19.361,56.476,20.279,52.189Z" transform="translate(0 0)"/>
        <rect id="矩形_113-2" data-name="矩形 113" class="cls-4" width="112" height="3" transform="translate(30.574 14.302)"/>
        <rect id="矩形_114-2" data-name="矩形 114" class="cls-4" width="67" height="4" transform="translate(30.574 24.302)"/>
        <rect id="矩形_115-2" data-name="矩形 115" class="cls-4" width="79" height="3" transform="translate(30.574 36.302)"/>
      </g>
      <rect id="矩形_104" data-name="矩形 104" class="cls-10" width="192" height="331" rx="14" transform="translate(-3027.498 5424.768)"/>
      <rect id="矩形_105" data-name="矩形 105" class="cls-11" width="173" height="299" rx="10" transform="translate(-3018.498 5447.768)"/>
      <rect id="矩形_106" data-name="矩形 106" class="cls-12" width="160" height="107" transform="translate(-3012.498 5531.768)"/>
      <rect id="矩形_107" data-name="矩形 107" class="cls-13" width="114" height="10" transform="translate(-3012.498 5651.768)"/>
      <rect id="矩形_108" data-name="矩形 108" class="cls-13" width="37" height="3" transform="translate(-3012.498 5667.768)"/>
      <rect id="矩形_109" data-name="矩形 109" class="cls-13" width="50" height="3" transform="translate(-2970.498 5667.768)"/>
      <ellipse id="椭圆_45" data-name="椭圆 45" class="cls-14" cx="23.5" cy="23" rx="23.5" ry="23" transform="translate(-2922.498 5688.768)"/>
      <g id="椭圆_46" data-name="椭圆 46" class="cls-15" transform="translate(-2986.498 5688.768)">
        <ellipse class="cls-42" cx="23.5" cy="23" rx="23.5" ry="23"/>
        <ellipse class="cls-43" cx="23.5" cy="23" rx="23" ry="22.5"/>
      </g>
      <path id="ic_favorite_24px-3" data-name="ic_favorite_24px" class="cls-11" d="M13.849,23.98a3.089,3.089,0,0,1-1.718-.8C6.029,17.646,2,14,2,9.517A6.454,6.454,0,0,1,8.517,3a7.1,7.1,0,0,1,5.332,2.476A7.1,7.1,0,0,1,19.181,3,6.454,6.454,0,0,1,25.7,9.517c0,4.479-4.029,8.129-10.131,13.674A3.064,3.064,0,0,1,13.849,23.98Z" transform="translate(-2912.263 5699.74)"/>
      <g id="组_237" data-name="组 237" transform="translate(-3007.315 5545.598)">
        <g id="组_237-2" data-name="组 237" transform="translate(0 0)">
          <path id="路径_717" data-name="路径 717" class="cls-16" d="M149.185,332.341c-1.084,2.648-5.876,7.248-6.227,6.645s1.871-7.544,3.4-8.031S149.185,332.341,149.185,332.341Z" transform="translate(-124.423 -268.469)"/>
          <path id="路径_718" data-name="路径 718" class="cls-16" d="M184.42,342.024c-.094,2.859-2.982,8.841-3.521,8.4s-.875-7.723.392-8.714S184.42,342.024,184.42,342.024Z" transform="translate(-152.375 -276.269)"/>
          <g id="组_234-2" data-name="组 234" transform="translate(0 48.745)">
            <path id="路径_719" data-name="路径 719" class="cls-17" d="M83.991,278.352l-1.858,1.3-.988-1.16,1.707-1.281Z" transform="translate(-78.371 -277.209)"/>
            <path id="路径_720" data-name="路径 720" class="cls-17" d="M73.768,282.363c.668.944,0,1.678-.8,2.1a2.767,2.767,0,0,1-1.722.37c-.045-.087.45-.341.45-.341s-.683.1-1.081.114c-.205.005.663-.56.637-.621s-.928.342-.992.216c-.133-.164.753-.754.753-.754s-.831.243-.761.023,1.586-.778,1.586-.778-.731.081-.587-.213S72.981,281.253,73.768,282.363Z" transform="translate(-70.248 -280.655)"/>
          </g>
          <g id="组_235-2" data-name="组 235" transform="translate(35.626 0)">
            <path id="路径_721" data-name="路径 721" class="cls-17" d="M218.486,100l-.871-2.093-1.456.448.752,2Z" transform="translate(-214.644 -94.801)"/>
            <path id="路径_722" data-name="路径 722" class="cls-17" d="M212.581,89.3c1.071-.437.9-1.417.456-2.2a2.766,2.766,0,0,0-1.254-1.237c-.085.049.2.529.2.529s-.521-.455-.851-.677c-.17-.115.259.829.2.866s-.6-.786-.721-.715c-.2.067.23,1.04.23,1.04s-.571-.651-.629-.428.92,1.508.92,1.508-.573-.461-.61-.136S211.321,89.817,212.581,89.3Z" transform="translate(-210.208 -85.709)"/>
          </g>
          <path id="路径_723" data-name="路径 723" class="cls-18" d="M197.759,264.867s13.622,11.018,12.129,16.577c-.9,3.342-16.039,6.391-16.039,6.391l-.7-2.965,8.247-3.425-7.682-8.491-.607-7.278Z" transform="translate(-161.836 -219.263)"/>
          <path id="路径_724" data-name="路径 724" class="cls-19" d="M166.6,267.249s-3.639,7.278-.606,10.512,6.065,9.5,6.065,9.5l-8.93-3.06-.7,2.966s12.386,9.071,16.921,4.012c4.41-4.919-6.889-23.122-6.889-23.122Z" transform="translate(-138.969 -221.039)"/>
          <path id="路径_725" data-name="路径 725" class="cls-17" d="M167.087,165.554c1.1,2.036.453,3.684-.947,4.437s-3.027.327-4.122-1.709-.7-3.982.7-4.736S165.991,163.518,167.087,165.554Z" transform="translate(-138.187 -143.516)"/>
          <path id="路径_726" data-name="路径 726" class="cls-20" d="M101.939,128.912c2.806-2.619,10.1-4.863,12.159-7.482s3.18-8.23,3.18-11.223.187-8.043.187-8.043l3.133-.638s1.5,10.2,1.308,14.13a72.755,72.755,0,0,1-2.268,13.781c-.863,3.33-.087,16.834-.087,16.834s-5.233,9.42-13.084,4.71c0,0-3.75-8.81-4.623-9.507-1.386-1.109-1.744.785-5.844,2.442-3.6,1.455-10.467,4.971-10.467,4.971l-1.57-2.355a141.421,141.421,0,0,0,10.467-9.682A106.973,106.973,0,0,1,101.939,128.912Z" transform="translate(-80.473 -97.5)"/>
          <path id="路径_727" data-name="路径 727" class="cls-17" d="M171.312,186.851c-.713-.267-2.2-3.386-2.2-3.386l2.483-1.177,1.949,1.972s1.257,1.431.362,2.29S172.359,187.243,171.312,186.851Z" transform="translate(-143.944 -157.704)"/>
          <path id="路径_728" data-name="路径 728" class="cls-21" d="M158.011,160.615s1.14.265,1.115-.4,2-.075,2.3-1.088-.07-2.539-.864-2.484-1.828,1.917-2.647,1.306-3.186,1.3-2.912,2.446.568,3.5,2.15,3.925,1.884-1.124,1.416-1.953A4.956,4.956,0,0,1,158.011,160.615Z" transform="translate(-133.41 -138.586)"/>
          <circle id="椭圆_47" data-name="椭圆 47" class="cls-17" cx="0.785" cy="0.785" r="0.785" transform="translate(23.771 23.259)"/>
          <circle id="椭圆_48" data-name="椭圆 48" class="cls-17" cx="0.785" cy="0.785" r="0.785" transform="translate(27.62 21.13)"/>
          <g id="组_236-2" data-name="组 236" transform="translate(26.247 22.066)">
            <ellipse id="椭圆_49" data-name="椭圆 49" class="cls-21" cx="0.229" cy="0.286" rx="0.229" ry="0.286" transform="translate(0 0.98) rotate(-25.377)"/>
            <ellipse id="椭圆_50" data-name="椭圆 50" class="cls-21" cx="0.229" cy="0.286" rx="0.229" ry="0.286" transform="translate(1.397 0.196) rotate(-25.377)"/>
          </g>
          <path id="路径_729" data-name="路径 729" class="cls-22" d="M178.288,176.051s.632.262.632.432-.2.339-.2.339" transform="translate(-150.787 -153.055)"/>
          <path id="路径_730" data-name="路径 730" class="cls-16" d="M178.348,180.788l1.11-.74s.154.54-.108.817S178.348,180.788,178.348,180.788Z" transform="translate(-150.832 -156.035)"/>
          <path id="路径_731" data-name="路径 731" class="cls-23" d="M176.431,302.877a3.147,3.147,0,0,0,1.863-1.937" transform="translate(-149.403 -246.154)"/>
          <path id="路径_732" data-name="路径 732" class="cls-23" d="M222.312,281.266a4.04,4.04,0,0,0,2.4.5" transform="translate(-183.605 -231.488)"/>
        </g>
        <line id="直线_8" data-name="直线 8" class="cls-23" x2="1.542" y2="2.681" transform="translate(36.303 52.182)"/>
        <g id="组_241" data-name="组 241" transform="translate(119.457 16.431)">
          <g id="组_238" data-name="组 238" transform="translate(18.08)">
            <path id="路径_733" data-name="路径 733" class="cls-17" d="M619.75,163.844l-1.023-2.022-1.419.554.9,1.937Z" transform="translate(-615.593 -158.879)"/>
            <path id="路径_734" data-name="路径 734" class="cls-17" d="M613.144,153.735c1.035-.515.792-1.479.292-2.228a2.771,2.771,0,0,0-1.342-1.141c-.081.056.235.514.235.514s-.553-.415-.9-.612c-.178-.1.319.807.267.849s-.656-.74-.772-.659c-.2.081.306,1.02.306,1.02s-.617-.608-.659-.38,1.029,1.436,1.029,1.436-.605-.417-.618-.09S611.926,154.341,613.144,153.735Z" transform="translate(-610.571 -150.261)"/>
          </g>
          <g id="组_239" data-name="组 239" transform="translate(3.911 2.77)">
            <path id="路径_735" data-name="路径 735" class="cls-17" d="M554.907,176.061l.714-2.151,1.485.339-.6,2.048Z" transform="translate(-554.907 -170.66)"/>
            <path id="路径_736" data-name="路径 736" class="cls-17" d="M557.609,164.836c-1.1-.357-1-1.346-.618-2.16a2.769,2.769,0,0,1,1.159-1.326c.088.043-.157.543-.157.543s.486-.492.8-.738c.161-.127-.2.846-.139.879s.539-.829.667-.766c.205.052-.152,1.054-.152,1.054s.521-.692.6-.473-.806,1.572-.806,1.572.537-.5.6-.18S558.9,165.256,557.609,164.836Z" transform="translate(-556.263 -161.143)"/>
          </g>
          <path id="路径_737" data-name="路径 737" class="cls-18" d="M569.46,299.415s-8.607,11.309-4.677,12.417,13.762-3.12,13.762-3.12l-6.772-4.045,2.8-7.03Z" transform="translate(-557.593 -260.122)"/>
          <path id="路径_738" data-name="路径 738" class="cls-16" d="M636.567,323.5l1.643-.823a1.287,1.287,0,0,1,1.761.646s3.906,5.583,2.427,5.693-5.235-3.372-5.235-3.372Z" transform="translate(-611.87 -278.687)"/>
          <path id="路径_739" data-name="路径 739" class="cls-16" d="M624.058,337.071s2.417,4.281,1.586,4.868-3.783-3.83-3.783-3.83Z" transform="translate(-600.908 -289.52)"/>
          <path id="路径_740" data-name="路径 740" class="cls-19" d="M571.819,304.093l7.857-1.37.938,2.029s-18.736,6.813-20.177,2.721c-1.182-3.356,10.021-12.288,10.021-12.288l6.11-.759S582.386,302.7,571.819,304.093Z" transform="translate(-555.054 -257.73)"/>
          <path id="路径_741" data-name="路径 741" class="cls-21" d="M568.813,205.31s-1.308,2.415-1.237,3.372.851,2.036,1.875,1.7S568.813,205.31,568.813,205.31Z" transform="translate(-560.439 -191.298)"/>
          <path id="路径_742" data-name="路径 742" class="cls-24" d="M559.915,167.018l2.049-.677a31.5,31.5,0,0,1,2.242,14.438c-.365,3.17-3.616,7.951-3.812,9.206s1.32,8.954,1.32,8.954c-3.088,2.563-8.615,4.246-10.76,3.51-.628-.216-1.532-1.1-3.06-6.464-.137-.48-1.029-2.356-1.176-2.887-.141-.511-6.8-6.755-7.134-11.278-.458-6.17,3.141-12.266,3.141-12.266l2.569.822s-3.4,8.424-1.342,10.2c2.382,2.054,6.21,4.252,8.947,2.7C561.8,178.248,559.915,167.018,559.915,167.018Z" transform="translate(-539.544 -162.248)"/>
          <path id="路径_743" data-name="路径 743" class="cls-17" d="M573.321,203.224c-.2,2.3,1.036,3.564,2.62,3.7s2.911-.892,3.115-3.2-.923-3.937-2.507-4.077S573.526,200.921,573.321,203.224Z" transform="translate(-564.707 -187.075)"/>
          <path id="路径_744" data-name="路径 744" class="cls-17" d="M583.277,223.7c.411-.64-.258-4.032-.258-4.032l-2.694.542-.4,3.272s-.139,1.373,1.093,1.526S582.673,224.639,583.277,223.7Z" transform="translate(-569.647 -201.999)"/>
          <circle id="椭圆_51" data-name="椭圆 51" class="cls-17" cx="0.785" cy="0.785" r="0.785" transform="translate(12.612 15.496)"/>
          <circle id="椭圆_52" data-name="椭圆 52" class="cls-17" cx="0.785" cy="0.785" r="0.785" transform="translate(8.236 15.056)"/>
          <g id="组_240" data-name="组 240" transform="translate(9.377 15.843)">
            <ellipse id="椭圆_53" data-name="椭圆 53" class="cls-21" cx="0.286" cy="0.229" rx="0.286" ry="0.229" transform="translate(1.593 0.741) rotate(-87.841)"/>
            <ellipse id="椭圆_54" data-name="椭圆 54" class="cls-21" cx="0.286" cy="0.229" rx="0.286" ry="0.229" transform="translate(0 0.572) rotate(-87.841)"/>
          </g>
          <path id="路径_745" data-name="路径 745" class="cls-22" d="M578.7,215s-.478.49-.411.646.318.233.318.233" transform="translate(-568.422 -198.52)"/>
          <path id="路径_746" data-name="路径 746" class="cls-16" d="M578.746,220.658l-1.312-.243s.071.557.421.708S578.746,220.658,578.746,220.658Z" transform="translate(-567.789 -202.558)"/>
          <path id="路径_747" data-name="路径 747" class="cls-21" d="M573.19,198.19c.451.185,1.189,1.88,2.2,2.548s.476,2.283,1.418,2.606,4.289-.537,3.6-2.148,1.538-2.257,1.19-3.412-1.87.139-3.065-.647-4.111-1.182-4.821-.736-1.558-.365-2.163.9-.164,2.5.181,2.436S572.739,198,573.19,198.19Z" transform="translate(-563.179 -184.518)"/>
        </g>
        <g id="组_245" data-name="组 245" transform="translate(48.445 12.462)">
          <path id="路径_748" data-name="路径 748" class="cls-16" d="M274.276,303.585l-1.2-1.389a1.287,1.287,0,0,0-1.874-.077s-5.744,3.665-4.42,4.332,6.127-1.115,6.127-1.115Z" transform="translate(-265.05 -259.221)"/>
          <path id="路径_749" data-name="路径 749" class="cls-16" d="M317.614,367.159l-1.6.9a1.288,1.288,0,0,0-.448,1.822s2.448,6.359,3.365,5.194.128-6.226.128-6.226Z" transform="translate(-301.411 -307.98)"/>
          <g id="组_242" data-name="组 242" transform="translate(19.718)">
            <path id="路径_750" data-name="路径 750" class="cls-17" d="M350.794,144.515l-1.665-1.538-1.136,1.015,1.517,1.5Z" transform="translate(-345.458 -140.862)"/>
            <path id="路径_751" data-name="路径 751" class="cls-17" d="M341.365,137.476c.791-.844.226-1.663-.5-2.189a2.767,2.767,0,0,0-1.656-.6c-.056.08.4.4.4.4s-.663-.2-1.056-.26c-.2-.033.581.645.547.7s-.873-.465-.954-.348c-.155.145.643.849.643.849s-.79-.354-.75-.126,1.465.986,1.465.986-.713-.18-.611.131S340.435,138.469,341.365,137.476Z" transform="translate(-338.033 -134.667)"/>
          </g>
          <path id="路径_752" data-name="路径 752" class="cls-21" d="M305.389,270.875l-6.7-.872-1.966,1.919s-2.251,3.716-1.1,6.978a54.948,54.948,0,0,1,1.562,5.348l-6.061-4.563-1.775,2.268s7.085,8.922,11.537,7.763c3.35-.872,2.025-8.33,2.025-8.33s1.953,5.684,2.336,6.992c-1.1,1.444-7.375,6.588-7.375,6.588l1.655,1.483s11.1-4.909,11.03-7.874C310.371,280.375,305.389,270.875,305.389,270.875Z" transform="translate(-282.026 -235.554)"/>
          <path id="路径_753" data-name="路径 753" class="cls-19" d="M284.241,162.332c2.6-1.262,3.813-6.047,3.882-7.152.174-2.791-2.05-6.454-2.05-6.454l1.854-1.4s4.121,5.8,4.645,8.766-4.328,14.8-4.579,16.878c-.665,5.494-.782,9.335-.611,8.461a10.712,10.712,0,0,1-10.554.174,17.887,17.887,0,0,0-1.265-5.844c-1.221-2.966-6.324-2.966-8.766-5.582s-3.314-8.373-3.314-8.373l2.18-.611s2.137,5.626,4.4,5.626S280.271,164.258,284.241,162.332Z" transform="translate(-262.74 -144.107)"/>
          <path id="路径_754" data-name="路径 754" class="cls-17" d="M308.565,187.931c.6,2.234,2.192,2.995,3.728,2.585s2.43-1.834,1.835-4.068-2.213-3.384-3.749-2.975S307.97,185.7,308.565,187.931Z" transform="translate(-296.207 -170.99)"/>
          <path id="路径_755" data-name="路径 755" class="cls-17" d="M319.49,204.281c-.651-.394-1.542-3.734-1.542-3.734l2.657-.7,1.795,2.764a1.35,1.35,0,0,1-.31,1.851C321.051,205.142,320.447,204.86,319.49,204.281Z" transform="translate(-303.342 -183.257)"/>
          <path id="路径_756" data-name="路径 756" class="cls-21" d="M305.909,184.615a6.589,6.589,0,0,0,.872-2.355s4.706,3.6,5.146,1.308a3.564,3.564,0,0,0-2.7-4.274c-1.57-.262-2.878,0-3.925,2.093A2.445,2.445,0,0,0,305.909,184.615Z" transform="translate(-293.654 -167.873)"/>
          <circle id="椭圆_55" data-name="椭圆 55" class="cls-17" cx="0.785" cy="0.785" r="0.785" transform="translate(15.831 14.998)"/>
          <g id="组_243" data-name="组 243" transform="translate(12.99 15.861)">
            <ellipse id="椭圆_56" data-name="椭圆 56" class="cls-21" cx="0.229" cy="0.286" rx="0.229" ry="0.286" transform="translate(1.555 0.14) rotate(-17.829)"/>
            <ellipse id="椭圆_57" data-name="椭圆 57" class="cls-21" cx="0.229" cy="0.286" rx="0.229" ry="0.286" transform="translate(0 0.526) rotate(-17.829)"/>
          </g>
          <path id="路径_757" data-name="路径 757" class="cls-22" d="M315.135,200.208s-.281.624-.165.747a.572.572,0,0,0,.378.11" transform="translate(-301.101 -183.525)"/>
          <path id="路径_758" data-name="路径 758" class="cls-16" d="M316.53,205.281l-1.315.221s.257.5.638.522S316.53,205.281,316.53,205.281Z" transform="translate(-301.305 -187.307)"/>
          <path id="路径_759" data-name="路径 759" class="cls-21" d="M314.416,156.725a2.115,2.115,0,0,1-.96-2.268c.175-1.744,1.308-1.744,1.308-2.966s0-2.093,2.355-2.791c0,0-1.4,1.4-.087,2.442s-.785,2.006,0,3.314-.7,1.919-1.483,2.093A6.014,6.014,0,0,1,314.416,156.725Z" transform="translate(-299.981 -145.128)"/>
          <g id="组_244" data-name="组 244" transform="translate(0 11.595)">
            <path id="路径_760" data-name="路径 760" class="cls-17" d="M263.787,196.527l-.305-2.246,1.483-.349.36,2.1Z" transform="translate(-262.74 -190.442)"/>
            <path id="路径_761" data-name="路径 761" class="cls-17" d="M262.073,184.179c-1.145.163-1.492-.768-1.5-1.668a2.768,2.768,0,0,1,.458-1.7c.1,0,.1.556.1.556s.22-.655.393-1.014c.089-.185.2.846.262.85s.12-.981.262-.981c.207-.044.327,1.014.327,1.014s.164-.85.327-.687a6.243,6.243,0,0,1-.033,1.766s.262-.687.458-.425S263.42,183.987,262.073,184.179Z" transform="translate(-260.568 -180.22)"/>
          </g>
        </g>
        <g id="组_249" data-name="组 249" transform="translate(80.849 0.68)">
          <path id="路径_762" data-name="路径 762" class="cls-16" d="M471.067,344.817c1.744,2.268,3.314,8.723,2.617,8.723s-5.582-5.408-5.233-6.978S471.067,344.817,471.067,344.817Z" transform="translate(-447.926 -279.542)"/>
          <path id="路径_763" data-name="路径 763" class="cls-25" d="M477.623,330.158s-2.268,3.315-2.268,3.838.568,3,2.617,2.442c4.518-1.221,5.975-3.445,5.975-3.445S483.205,329.46,477.623,330.158Z" transform="translate(-453.087 -268.547)"/>
          <path id="路径_764" data-name="路径 764" class="cls-16" d="M428.4,342.761c-1.745,2.268-3.315,8.723-2.617,8.723s5.582-5.408,5.233-6.978S428.4,342.761,428.4,342.761Z" transform="translate(-416.01 -278.01)"/>
          <path id="路径_765" data-name="路径 765" class="cls-25" d="M412.563,328.1s2.268,3.315,2.268,3.838-.523,2.791-2.617,2.442-5.975-3.445-5.975-3.445S406.981,327.4,412.563,328.1Z" transform="translate(-401.564 -267.014)"/>
          <g id="组_246" data-name="组 246" transform="translate(0 0)">
            <path id="路径_766" data-name="路径 766" class="cls-17" d="M393.359,103.841l-.82-2.113,1.361-.685.84,1.963Z" transform="translate(-391.351 -97.82)"/>
            <path id="路径_767" data-name="路径 767" class="cls-17" d="M389.831,92.227c-1.075.426-1.63-.4-1.852-1.272a2.767,2.767,0,0,1,.049-1.761c.1-.023.225.518.225.518s.061-.689.145-1.077c.044-.2.387.777.453.766s-.112-.982.026-1.015c.191-.091.554.91.554.91s-.039-.865.158-.744a6.257,6.257,0,0,1,.38,1.725s.094-.729.346-.52S391.1,91.726,389.831,92.227Z" transform="translate(-387.873 -88.38)"/>
          </g>
          <g id="组_247" data-name="组 247" transform="translate(29.511 2.514)">
            <path id="路径_768" data-name="路径 768" class="cls-17" d="M512.087,112.544l-.871-2.093-1.456.448.752,2Z" transform="translate(-508.246 -107.347)"/>
            <path id="路径_769" data-name="路径 769" class="cls-17" d="M506.182,101.848c1.071-.437.9-1.417.456-2.2a2.766,2.766,0,0,0-1.254-1.237c-.085.05.2.529.2.529s-.521-.455-.851-.677c-.17-.115.259.829.2.866s-.6-.786-.721-.715c-.2.067.23,1.04.23,1.04s-.57-.651-.629-.428.92,1.508.92,1.508-.573-.46-.61-.136S504.923,102.363,506.182,101.848Z" transform="translate(-503.81 -98.255)"/>
          </g>
          <path id="路径_770" data-name="路径 770" class="cls-20" d="M414.432,253.155s-12.229,19.874-9.42,21.98c6.28,4.71,14.871-12.6,14.871-12.6s4.754,15.351,10.641,13.781c2.888-.77-2.093-19.363-2.093-19.363Z" transform="translate(-400.337 -211.213)"/>
          <path id="路径_771" data-name="路径 771" class="cls-16" d="M424.8,107.233l-2.442.349s1.579,9.228.872,10.641c-.909,1.818-15.98,4.333-22.155-2.791-1.74-2.008-6.455-11.165-6.455-11.165l-1.919,1.047s1.483,19.189,10.118,23.114c-.044,8.187,1.274,11.8,1.5,14.97,4.572,4.855,10.691,4.881,15.609,2.941,0,0,.707-7.818,1.731-13.724a64.851,64.851,0,0,0,7.065-8.635C432.129,118.485,424.8,107.233,424.8,107.233Z" transform="translate(-391.474 -100.224)"/>
          <path id="路径_772" data-name="路径 772" class="cls-17" d="M468.816,140.1c-.011,2.312-1.363,3.452-2.953,3.444s-2.815-1.159-2.8-3.472,1.286-3.834,2.875-3.827S468.828,137.793,468.816,140.1Z" transform="translate(-443.921 -124.066)"/>
          <path id="路径_773" data-name="路径 773" class="cls-17" d="M466.657,161.815c-.5-.575.576-3.836.576-3.836l2.743.153-.125,2.471s.421,1.858-.777,2.185S467.388,162.66,466.657,161.815Z" transform="translate(-446.504 -140.263)"/>
          <circle id="椭圆_58" data-name="椭圆 58" class="cls-17" cx="0.785" cy="0.785" r="0.785" transform="translate(18.527 15.091)"/>
          <circle id="椭圆_59" data-name="椭圆 59" class="cls-17" cx="0.785" cy="0.785" r="0.785" transform="translate(23.891 15.091)"/>
          <g id="组_248" data-name="组 248" transform="translate(21.18 15.418)">
            <ellipse id="椭圆_60" data-name="椭圆 60" class="cls-21" cx="0.286" cy="0.229" rx="0.286" ry="0.229" transform="matrix(0.055, -0.998, 0.998, 0.055, 0, 0.592)"/>
            <ellipse id="椭圆_61" data-name="椭圆 61" class="cls-21" cx="0.286" cy="0.229" rx="0.286" ry="0.229" transform="matrix(0.055, -0.998, 0.998, 0.055, 1.602, 0.571)"/>
          </g>
          <path id="路径_774" data-name="路径 774" class="cls-22" d="M475.622,151.216s.43.532.349.681-.338.2-.338.2" transform="translate(-453.286 -135.222)"/>
          <path id="路径_775" data-name="路径 775" class="cls-16" d="M472.375,156.959l1.328-.119s-.122.548-.485.666S472.375,156.959,472.375,156.959Z" transform="translate(-450.865 -139.414)"/>
          <path id="路径_776" data-name="路径 776" class="cls-21" d="M459.582,132.729l.523.959a11.884,11.884,0,0,1,1.09-2.224,4.039,4.039,0,0,1,2.922-.087c.872.436,1.221,2.093,1.221,2.093a3.856,3.856,0,0,0,.305-2.442c-.07-.519.96-2.137-.349-2.748s-1.745.654-2.573.654-1.047-.741-1.919.044-2.137.7-2.137,1.483A6.505,6.505,0,0,0,459.582,132.729Z" transform="translate(-440.646 -118)"/>
          <line id="直线_9" data-name="直线 9" class="cls-23" y1="3.823" x2="0.184" transform="translate(19.547 47.496)"/>
          <path id="路径_777" data-name="路径 777" class="cls-23" d="M432.938,266.122s2.753-.787,2.95-1.967" transform="translate(-421.467 -219.413)"/>
          <path id="路径_778" data-name="路径 778" class="cls-23" d="M489.339,272.654s2.556,2.36,2.753,1.18" transform="translate(-463.511 -225.748)"/>
        </g>
        <line id="直线_10" data-name="直线 10" class="cls-26" x1="3.581" y2="0.58" transform="translate(134.976 62.392)"/>
      </g>
      <g id="组_238-2" data-name="组 238" transform="translate(-3109.295 5549.822)">
        <path id="路径_788" data-name="路径 788" class="cls-27" d="M348.44,81.128c-.008-.04-.032-.072-.04-.108a8.236,8.236,0,0,0-.667-1.614,3.971,3.971,0,0,0-.241-.357,9.118,9.118,0,0,0-.815-1.172c-.189-.213-.426-.385-.63-.582-.257-.237-.494-.5-.775-.711a9.519,9.519,0,0,0-1.184-.691c-.189-.1-.353-.225-.55-.313a10.222,10.222,0,0,0-2.024-.663l-11.925-2.59c-1.012-.221-2.148-.5-3.333-.8q-.259-.06-.518-.133-1.825-.47-3.774-1.024v.008c-4.617-1.309-9.544-2.891-13-4.228,0,0-18.659-7.2-24.838-3.987-22.052,11.452-61.45,53.435-61.45,53.435-4.072,4.324-9.8,15.486-10.48,18.217-1,3.635-33.34,27.166,22.323,101.62,16.567,22.9,14.39,24.17,29.487,34.22s37.313,15.653,44.958-12.377c12.6-88.685-35.37-105.261-35.37-105.261a14.406,14.406,0,0,1-2.618-16.756l13.7-24.312c2.911-5.176,10.126-8.822,16.013-8.107,0,0,24,2.923,34.736-4,10.8-6.97,12.64-11.592,12.64-11.592.032-.08.04-.157.064-.233h.008c.024-.072.032-.137.052-.209a10.8,10.8,0,0,0,.482-1.819V84.95A9.071,9.071,0,0,0,348.44,81.128Z" transform="translate(-179.659 -61.336)"/>
        <g id="组_254" data-name="组 254" transform="translate(140.044 8.377)">
          <path id="路径_789" data-name="路径 789" class="cls-28" d="M202.482,72.027c5.453,1.747,16.161,2.417,16.161,2.417s4.184,1.184-.482-5.786c-.032-.008-.056-.024-.092-.032l-11.925-2.59c-1.012-.221-2.148-.5-3.333-.8q-.259-.06-.518-.133-1.825-.47-3.774-1.024v.008c-.747-.209-1.506-.438-2.261-.663C197.145,66.482,199,70.906,202.482,72.027Z" transform="translate(-196.258 -63.422)"/>
        </g>
      </g>
      <path id="联合_13" data-name="联合 13" class="cls-29" d="M15.836,18.1l-6.65-6.65L2.536,18.1a1,1,0,0,1-1.415,0l-.85-.85a1,1,0,0,1,0-1.414l6.65-6.65L.272,2.536a1,1,0,0,1,0-1.414l.85-.85a1,1,0,0,1,1.414,0l6.65,6.649,6.65-6.65a1,1,0,0,1,1.414,0l.85.85a1,1,0,0,1,0,1.414l-6.65,6.65,6.65,6.65a1,1,0,0,1,0,1.415l-.85.849a1,1,0,0,1-1.414,0Z" transform="translate(-2971.712 5702.643)"/>
      <circle id="椭圆_47-2" data-name="椭圆 47" class="cls-30" cx="29" cy="29" r="29" transform="translate(-2962.498 5464.768)"/>
      <circle id="椭圆_67" data-name="椭圆 67" class="cls-11" cx="26" cy="26" r="26" transform="translate(-2959.498 5467.768)"/>
      <path id="联合_15" data-name="联合 15" class="cls-30" d="M.173,33.731A1.6,1.6,0,0,1,0,33.018a2.7,2.7,0,0,1,.079-.732A15.1,15.1,0,0,1,9.042,20.839a10.483,10.483,0,1,1,11.827,0,14.927,14.927,0,0,1,8.931,12.3h-.013a1.614,1.614,0,0,1-1.606,1.5H1.693c-.046,0-.093.014-.141.014A1.5,1.5,0,0,1,.173,33.731ZM3.431,31.4H26.474a11.963,11.963,0,0,0-10.879-8.756c-.213.013-.425.022-.641.022s-.428-.009-.639-.021A11.966,11.966,0,0,0,3.431,31.4ZM7.463,12.184a7.488,7.488,0,1,0,14.976,0h0a7.488,7.488,0,0,0-14.976,0ZM28.514,7.2V4.677H26V2.519h2.513V0h2.155V2.519h2.514v2.16H30.668V7.2Z" transform="translate(-2948.593 5475.465)"/>
      <g class="cls-45" transform="matrix(1, 0, 0, 1, -3195.5, 5354.77)">
        <circle id="椭圆_64-2" data-name="椭圆 64" class="cls-11" cx="28.5" cy="28.5" r="28.5" transform="translate(401 258)"/>
      </g>
      <g class="cls-44" transform="matrix(1, 0, 0, 1, -3195.5, 5354.77)">
        <circle id="椭圆_65-2" data-name="椭圆 65" class="cls-11" cx="14" cy="14" r="14" transform="translate(421 175)"/>
      </g>
      <circle id="椭圆_66" data-name="椭圆 66" class="cls-31" cx="22.5" cy="22.5" r="22.5" transform="translate(-3139.498 5643.768)"/>
      <path id="ic_favorite_24px-4" data-name="ic_favorite_24px" class="cls-32" d="M17.217,29.944a3.967,3.967,0,0,1-2.206-1.029C7.174,21.808,2,17.122,2,11.369A8.288,8.288,0,0,1,10.369,3a9.113,9.113,0,0,1,6.848,3.18A9.113,9.113,0,0,1,24.065,3a8.288,8.288,0,0,1,8.369,8.369c0,5.752-5.174,10.439-13.011,17.561A3.935,3.935,0,0,1,17.217,29.944Z" transform="translate(-2782.176 5627.326)"/>
      <path id="ic_favorite_24px-5" data-name="ic_favorite_24px" class="cls-32" d="M9.609,16.472a1.984,1.984,0,0,1-1.1-.515C4.587,12.4,2,10.061,2,7.185A4.144,4.144,0,0,1,6.185,3,4.556,4.556,0,0,1,9.609,4.59,4.556,4.556,0,0,1,13.032,3a4.144,4.144,0,0,1,4.185,4.185c0,2.876-2.587,5.219-6.505,8.78A1.968,1.968,0,0,1,9.609,16.472Z" transform="translate(-2769.822 5534.941)"/>
      <path id="icon_person_add" class="cls-11" d="M17.159,13.233a4.617,4.617,0,1,0-4.617-4.617A4.615,4.615,0,0,0,17.159,13.233ZM6.771,10.925V7.463H4.463v3.463H1v2.308H4.463V16.7H6.771V13.233h3.463V10.925Zm10.388,4.617c-3.082,0-9.233,1.547-9.233,4.617v2.308H26.392V20.159C26.392,17.088,20.24,15.542,17.159,15.542Z" transform="translate(-3131.974 5652.833)"/>
      <g id="椭圆_68" data-name="椭圆 68" class="cls-33" transform="translate(-2720.498 5607.768)">
        <circle class="cls-42" cx="8" cy="8" r="8"/>
        <circle class="cls-43" cx="8" cy="8" r="6"/>
      </g>
      <g id="椭圆_73" data-name="椭圆 73" class="cls-34" transform="translate(-2796.498 5426.768)">
        <circle class="cls-42" cx="8" cy="8" r="8"/>
        <circle class="cls-43" cx="8" cy="8" r="6"/>
      </g>
      <g id="椭圆_69" data-name="椭圆 69" class="cls-35" transform="translate(-2816.498 5683.768)">
        <circle class="cls-42" cx="5" cy="5" r="5"/>
        <circle class="cls-43" cx="5" cy="5" r="4"/>
      </g>
      <g id="椭圆_74" data-name="椭圆 74" class="cls-36" transform="translate(-2891.498 5379.768)">
        <circle class="cls-42" cx="5" cy="5" r="5"/>
        <circle class="cls-43" cx="5" cy="5" r="4"/>
      </g>
      <circle id="椭圆_70" data-name="椭圆 70" class="cls-37" cx="7.5" cy="7.5" r="7.5" transform="translate(-3102.498 5460.768)"/>
      <circle id="椭圆_71" data-name="椭圆 71" class="cls-38" cx="3.5" cy="3.5" r="3.5" transform="translate(-3000.498 5411.768)"/>
      <ellipse id="椭圆_72" data-name="椭圆 72" class="cls-38" cx="4.5" cy="4" rx="4.5" ry="4" transform="translate(-2758.498 5584.768)"/>
    </g>
    <g id="img_feature_free_tip" transform="translate(3 4)">
      <path id="路径_668" data-name="路径 668" class="cls-39" d="M49,0H282a49,49,0,0,1,0,98H49A49,49,0,0,1,49,0Z" transform="translate(456 5605)"/>
      <text id="_100_FREE" data-name="100% FREE" class="cls-40" transform="translate(503.714 5673.548)"><tspan x="0" y="0">100% FREE</tspan></text>
    </g>
    <g id="矩形_170" data-name="矩形 170" class="cls-41" transform="translate(360 5226)">
      <rect class="cls-42" width="560" height="560"/>
      <rect class="cls-43" x="0.5" y="0.5" width="559" height="559"/>
    </g>
  </g>
</svg>
