<svg xmlns="http://www.w3.org/2000/svg" width="113" height="113" viewBox="0 0 113 113">
  <g id="img_block" transform="translate(-355 -4058)">
    <path id="circle" d="M56.5,0A56.5,56.5,0,1,1,0,56.5,56.5,56.5,0,0,1,56.5,0Z" transform="translate(355 4058)" fill="#7c56ff"/>
    <path id="lock" d="M50.013,31.9V24.437C50.013,17.572,43.851,12,36.258,12S22.5,17.572,22.5,24.437V31.9A5.274,5.274,0,0,0,17,36.873v19.9a5.274,5.274,0,0,0,5.5,4.975H50.013a5.274,5.274,0,0,0,5.5-4.975v-19.9A5.274,5.274,0,0,0,50.013,31.9Zm-5.5,0H28V24.437c0-4.129,3.687-7.462,8.253-7.462s8.253,3.333,8.253,7.462Z" transform="translate(375.092 4077.693)" fill="#fff"/>
  </g>
</svg>
