<svg xmlns="http://www.w3.org/2000/svg" xmlns:xlink="http://www.w3.org/1999/xlink" width="205.136" height="64.105" viewBox="0 0 205.136 64.105"><defs><linearGradient id="a" x1="0.5" x2="0.5" y2="1" gradientUnits="objectBoundingBox"><stop offset="0" stop-color="#484848"/><stop offset="1" stop-color="#171717"/></linearGradient></defs><g transform="translate(0 -44)"><path d="M11.218,0h182.7a11.218,11.218,0,0,1,11.218,11.218V52.887A11.218,11.218,0,0,1,193.918,64.1H11.218A11.218,11.218,0,0,1,0,52.887V11.218A11.218,11.218,0,0,1,11.218,0Z" transform="translate(0 44)" fill="url(#a)"/><path d="M37.111,68.084a9.009,9.009,0,0,1,4.29-7.56A9.227,9.227,0,0,0,34.135,56.6c-3.058-.321-6.021,1.83-7.58,1.83-1.588,0-3.986-1.8-6.569-1.745a9.675,9.675,0,0,0-8.143,4.967c-3.521,6.1-.9,15.057,2.478,19.985,1.688,2.412,3.66,5.108,6.241,5.011,2.526-.1,3.468-1.609,6.516-1.609,3.021,0,3.906,1.609,6.539,1.55,2.71-.045,4.417-2.425,6.045-4.861a19.923,19.923,0,0,0,2.765-5.63A8.707,8.707,0,0,1,37.111,68.084Z" transform="translate(6.129 7.571)" fill="#fff"/><path d="M26.11,56.951A8.865,8.865,0,0,0,28.141,50.6a9.024,9.024,0,0,0-5.84,3.021,8.439,8.439,0,0,0-2.083,6.12A7.461,7.461,0,0,0,26.11,56.951Z" transform="translate(12.156 3.976)" fill="#fff"/><path d="M56.35,82.893H52.821l-1.933-6.074h-6.72l-1.841,6.074H38.891l6.659-20.68h4.111ZM50.3,74.271l-1.748-5.4q-.276-.829-1.043-3.9h-.061q-.308,1.32-.982,3.9l-1.718,5.4Z" transform="translate(23.437 10.976)" fill="#fff"/><path d="M65.868,73.2a8.475,8.475,0,0,1-2.055,6.013,6.014,6.014,0,0,1-4.572,1.965,4.573,4.573,0,0,1-4.234-2.117h-.061v7.854H51.631V70.838q0-2.392-.123-4.909h2.915l.184,2.362h.061a5.9,5.9,0,0,1,9.436-.585A8.238,8.238,0,0,1,65.868,73.2Zm-3.375.122a6.157,6.157,0,0,0-.981-3.59,3.4,3.4,0,0,0-2.885-1.473,3.441,3.441,0,0,0-2.224.814,3.775,3.775,0,0,0-1.3,2.133,4.329,4.329,0,0,0-.152,1.011V74.7a3.981,3.981,0,0,0,1,2.747,3.307,3.307,0,0,0,2.593,1.12,3.389,3.389,0,0,0,2.914-1.442A6.353,6.353,0,0,0,62.492,73.322Z" transform="translate(31.04 13.029)" fill="#fff"/><path d="M76.571,73.2a8.469,8.469,0,0,1-2.058,6.013,6.008,6.008,0,0,1-4.571,1.965,4.572,4.572,0,0,1-4.234-2.117h-.061v7.854H62.333V70.838q0-2.392-.122-4.909h2.914l.184,2.362h.063a5.9,5.9,0,0,1,9.436-.585A8.238,8.238,0,0,1,76.571,73.2Zm-3.375.122a6.146,6.146,0,0,0-.984-3.59,3.39,3.39,0,0,0-2.883-1.473,3.444,3.444,0,0,0-2.224.814,3.773,3.773,0,0,0-1.3,2.133,4.344,4.344,0,0,0-.154,1.011V74.7a3.994,3.994,0,0,0,1,2.747,3.31,3.31,0,0,0,2.595,1.12,3.387,3.387,0,0,0,2.914-1.442A6.353,6.353,0,0,0,73.2,73.322Z" transform="translate(37.49 13.029)" fill="#fff"/><path d="M87.962,77.211a5.51,5.51,0,0,1-1.837,4.3,8.137,8.137,0,0,1-5.633,1.811,9.871,9.871,0,0,1-5.361-1.289l.768-2.763a9.069,9.069,0,0,0,4.79,1.321,4.532,4.532,0,0,0,2.917-.845,2.76,2.76,0,0,0,1.042-2.26,2.88,2.88,0,0,0-.859-2.12,7.983,7.983,0,0,0-2.854-1.6q-5.43-2.027-5.43-5.931a5.25,5.25,0,0,1,1.9-4.18,7.5,7.5,0,0,1,5.063-1.63A10.042,10.042,0,0,1,87.163,63l-.829,2.7a8.16,8.16,0,0,0-3.958-.952,4,4,0,0,0-2.729.861,2.457,2.457,0,0,0-.829,1.872,2.524,2.524,0,0,0,.95,2.024,10.743,10.743,0,0,0,3.008,1.6,10.225,10.225,0,0,1,3.928,2.515A5.283,5.283,0,0,1,87.962,77.211Z" transform="translate(45.276 10.86)" fill="#fff"/><path d="M93.387,69.695H89.736v7.241q0,2.76,1.933,2.761a6,6,0,0,0,1.473-.152l.091,2.515a7.481,7.481,0,0,1-2.577.369,3.974,3.974,0,0,1-3.069-1.2,5.88,5.88,0,0,1-1.106-4.021V69.695H84.3V67.209h2.176V64.477l3.255-.981v3.713h3.651Z" transform="translate(50.804 11.749)" fill="#fff"/><path d="M105.746,73.261a8.187,8.187,0,0,1-1.963,5.646,7.015,7.015,0,0,1-5.463,2.271A6.664,6.664,0,0,1,93.09,79a7.928,7.928,0,0,1-1.949-5.492,8.1,8.1,0,0,1,2.008-5.676,6.962,6.962,0,0,1,5.415-2.21,6.813,6.813,0,0,1,5.279,2.18A7.861,7.861,0,0,1,105.746,73.261Zm-3.439.109a6.72,6.72,0,0,0-.888-3.54,3.278,3.278,0,0,0-2.976-1.785,3.32,3.32,0,0,0-3.037,1.785,6.831,6.831,0,0,0-.889,3.6,6.7,6.7,0,0,0,.889,3.539,3.386,3.386,0,0,0,5.983-.03A6.729,6.729,0,0,0,102.306,73.37Z" transform="translate(54.924 13.029)" fill="#fff"/><path d="M109.974,68.842a5.725,5.725,0,0,0-1.045-.091,3.134,3.134,0,0,0-2.7,1.321,4.954,4.954,0,0,0-.829,2.944V80.84H102.09l.029-10.217q0-2.579-.123-4.694h2.886L105,68.781h.091a5.083,5.083,0,0,1,1.657-2.362,4.009,4.009,0,0,1,2.394-.8,5.367,5.367,0,0,1,.829.061Z" transform="translate(61.465 13.029)" fill="#fff"/><path d="M121.2,72.69a7.681,7.681,0,0,1-.122,1.5h-9.939a4.328,4.328,0,0,0,1.441,3.377,4.922,4.922,0,0,0,3.252,1.043,10.988,10.988,0,0,0,4.021-.707l.519,2.3a12.435,12.435,0,0,1-5,.922,7.24,7.24,0,0,1-5.449-2.042,7.537,7.537,0,0,1-1.979-5.476,8.541,8.541,0,0,1,1.843-5.616,6.347,6.347,0,0,1,5.215-2.393,5.551,5.551,0,0,1,4.88,2.393A8.052,8.052,0,0,1,121.2,72.69Zm-3.159-.859a4.51,4.51,0,0,0-.644-2.547A2.894,2.894,0,0,0,114.76,67.9a3.14,3.14,0,0,0-2.636,1.351,4.919,4.919,0,0,0-.981,2.577Z" transform="translate(65.053 13.018)" fill="#fff"/><path d="M1.012,0V-9.953H4.423a4.165,4.165,0,0,1,2.57.677A2.384,2.384,0,0,1,7.875-7.26a2.149,2.149,0,0,1-.369,1.23,2.376,2.376,0,0,1-1.08.848,2.2,2.2,0,0,1,1.248.824,2.4,2.4,0,0,1,.441,1.453,2.65,2.65,0,0,1-.9,2.153A3.909,3.909,0,0,1,4.642,0ZM2.741-4.491v3.1H4.662a1.864,1.864,0,0,0,1.271-.4,1.406,1.406,0,0,0,.458-1.116A1.417,1.417,0,0,0,4.806-4.491Zm0-1.271h1.7A1.961,1.961,0,0,0,5.7-6.128a1.253,1.253,0,0,0,.455-1.036,1.27,1.27,0,0,0-.42-1.066,2.123,2.123,0,0,0-1.309-.328H2.741ZM14.164-.725a2.576,2.576,0,0,1-2.078.861,2.3,2.3,0,0,1-1.822-.7A3,3,0,0,1,9.646-2.6V-7.4h1.661v4.771q0,1.408,1.169,1.408a1.642,1.642,0,0,0,1.634-.868V-7.4h1.661V0H14.205ZM20.05-2.379l1.5-5.018h1.771L20.385,1.121a2.389,2.389,0,0,1-2.3,1.866,2.961,2.961,0,0,1-.8-.124V1.572l.314.021a1.617,1.617,0,0,0,.947-.229,1.517,1.517,0,0,0,.5-.768l.239-.635L16.693-7.4h1.791ZM28.349,0V-6.166H27.221V-7.4h1.128v-.677a2.54,2.54,0,0,1,.684-1.9,2.619,2.619,0,0,1,1.914-.67,3.839,3.839,0,0,1,.93.123l-.041,1.3a3.272,3.272,0,0,0-.636-.055A1.067,1.067,0,0,0,30.01-8.053V-7.4h1.5v1.23h-1.5V0Zm4.067-3.767a4.361,4.361,0,0,1,.431-1.958,3.145,3.145,0,0,1,1.21-1.34,3.409,3.409,0,0,1,1.791-.468,3.231,3.231,0,0,1,2.43.964,3.791,3.791,0,0,1,1.008,2.557l.007.39a4.4,4.4,0,0,1-.42,1.955,3.108,3.108,0,0,1-1.2,1.333,3.434,3.434,0,0,1-1.808.472A3.209,3.209,0,0,1,33.356-.906a3.993,3.993,0,0,1-.94-2.779Zm1.661.144a2.98,2.98,0,0,0,.472,1.788,1.533,1.533,0,0,0,1.313.646,1.517,1.517,0,0,0,1.309-.656,3.292,3.292,0,0,0,.468-1.921,2.942,2.942,0,0,0-.482-1.777A1.539,1.539,0,0,0,35.848-6.2a1.525,1.525,0,0,0-1.292.646A3.23,3.23,0,0,0,34.077-3.623ZM42.465,0H40.8V-10.5h1.661ZM46.04,0H44.379V-10.5H46.04Zm1.5-3.767a4.361,4.361,0,0,1,.431-1.958,3.145,3.145,0,0,1,1.21-1.34,3.409,3.409,0,0,1,1.791-.468,3.231,3.231,0,0,1,2.43.964,3.791,3.791,0,0,1,1.008,2.557l.007.39a4.4,4.4,0,0,1-.42,1.955,3.108,3.108,0,0,1-1.2,1.333,3.434,3.434,0,0,1-1.808.472A3.209,3.209,0,0,1,48.477-.906a3.993,3.993,0,0,1-.94-2.779Zm1.661.144a2.98,2.98,0,0,0,.472,1.788,1.533,1.533,0,0,0,1.313.646,1.517,1.517,0,0,0,1.309-.656,3.292,3.292,0,0,0,.468-1.921,2.942,2.942,0,0,0-.482-1.777A1.539,1.539,0,0,0,50.969-6.2a1.525,1.525,0,0,0-1.292.646A3.23,3.23,0,0,0,49.2-3.623ZM62.316-2.29,63.492-7.4h1.62L63.1,0H61.729L60.143-5.079,58.584,0H57.217L55.193-7.4h1.62l1.2,5.052L59.527-7.4h1.251ZM69.48.137a3.437,3.437,0,0,1-2.56-.995,3.608,3.608,0,0,1-.981-2.649v-.205a4.438,4.438,0,0,1,.427-1.979,3.252,3.252,0,0,1,1.2-1.357,3.172,3.172,0,0,1,1.723-.485,2.9,2.9,0,0,1,2.334.964,4.076,4.076,0,0,1,.824,2.728v.67H67.614a2.221,2.221,0,0,0,.612,1.449,1.837,1.837,0,0,0,1.35.533,2.249,2.249,0,0,0,1.859-.923l.9.854A2.99,2.99,0,0,1,71.145-.229,3.713,3.713,0,0,1,69.48.137Zm-.2-6.337a1.4,1.4,0,0,0-1.1.479,2.48,2.48,0,0,0-.537,1.333h3.165v-.123a2.019,2.019,0,0,0-.444-1.261A1.388,1.388,0,0,0,69.282-6.2Zm8.326.321a4.111,4.111,0,0,0-.677-.055,1.524,1.524,0,0,0-1.538.875V0H73.732V-7.4h1.586l.041.827a1.872,1.872,0,0,1,1.668-.964,1.555,1.555,0,0,1,.588.1ZM82.8-2.01a.753.753,0,0,0-.366-.677,3.89,3.89,0,0,0-1.213-.41,6.238,6.238,0,0,1-1.415-.451,1.889,1.889,0,0,1-1.244-1.743,1.969,1.969,0,0,1,.807-1.6,3.189,3.189,0,0,1,2.051-.643,3.318,3.318,0,0,1,2.143.656,2.082,2.082,0,0,1,.817,1.7H82.722a1.024,1.024,0,0,0-.355-.8,1.362,1.362,0,0,0-.943-.318,1.472,1.472,0,0,0-.892.253.8.8,0,0,0-.345.677.673.673,0,0,0,.321.595,4.418,4.418,0,0,0,1.3.427,6.148,6.148,0,0,1,1.535.513,2.173,2.173,0,0,1,.827.714,1.822,1.822,0,0,1,.27,1.012A1.927,1.927,0,0,1,83.61-.482a3.527,3.527,0,0,1-2.167.619,3.825,3.825,0,0,1-1.62-.328,2.666,2.666,0,0,1-1.107-.9,2.136,2.136,0,0,1-.4-1.237h1.613a1.171,1.171,0,0,0,.444.906,1.727,1.727,0,0,0,1.087.318,1.68,1.68,0,0,0,1-.25A.772.772,0,0,0,82.8-2.01ZM89.954,0V-6.166H88.826V-7.4h1.128v-.677a2.54,2.54,0,0,1,.684-1.9,2.619,2.619,0,0,1,1.914-.67,3.839,3.839,0,0,1,.93.123l-.041,1.3a3.272,3.272,0,0,0-.636-.055,1.067,1.067,0,0,0-1.189,1.224V-7.4h1.5v1.23h-1.5V0Zm8.251-5.879a4.111,4.111,0,0,0-.677-.055,1.524,1.524,0,0,0-1.538.875V0H94.329V-7.4h1.586l.041.827a1.872,1.872,0,0,1,1.668-.964,1.555,1.555,0,0,1,.588.1ZM98.7-3.767a4.361,4.361,0,0,1,.431-1.958,3.145,3.145,0,0,1,1.21-1.34,3.409,3.409,0,0,1,1.791-.468,3.231,3.231,0,0,1,2.43.964,3.791,3.791,0,0,1,1.008,2.557l.007.39a4.4,4.4,0,0,1-.42,1.955,3.108,3.108,0,0,1-1.2,1.333,3.434,3.434,0,0,1-1.808.472A3.209,3.209,0,0,1,99.637-.906a3.993,3.993,0,0,1-.94-2.779Zm1.661.144a2.98,2.98,0,0,0,.472,1.788,1.533,1.533,0,0,0,1.313.646,1.517,1.517,0,0,0,1.309-.656,3.292,3.292,0,0,0,.468-1.921,2.942,2.942,0,0,0-.482-1.777,1.539,1.539,0,0,0-1.309-.656,1.525,1.525,0,0,0-1.292.646A3.23,3.23,0,0,0,100.358-3.623ZM108.541-7.4l.048.772a2.662,2.662,0,0,1,2.133-.909,2.045,2.045,0,0,1,2.03,1.135,2.623,2.623,0,0,1,2.27-1.135,2.306,2.306,0,0,1,1.822.677,2.98,2.98,0,0,1,.612,2V0h-1.661V-4.812a1.471,1.471,0,0,0-.308-1.032,1.347,1.347,0,0,0-1.019-.328,1.383,1.383,0,0,0-.926.3,1.6,1.6,0,0,0-.5.8L113.046,0h-1.661V-4.867a1.185,1.185,0,0,0-1.333-1.306,1.462,1.462,0,0,0-1.415.813V0h-1.661V-7.4Z" transform="translate(64 66)" fill="#fff"/></g></svg>