<svg xmlns="http://www.w3.org/2000/svg" xmlns:xlink="http://www.w3.org/1999/xlink" width="718" height="88" viewBox="0 0 718 88">
  <defs>
    <clipPath id="clip-path">
      <rect id="矩形_1002" data-name="矩形 1002" width="718" height="88" rx="18" transform="translate(2 1116)" fill="#ff9c39"/>
    </clipPath>
    <filter id="矩形_1005" x="-9" y="-6" width="736" height="106" filterUnits="userSpaceOnUse">
      <feOffset dy="3" input="SourceAlpha"/>
      <feGaussianBlur stdDeviation="3" result="blur"/>
      <feFlood flood-color="#724100" flood-opacity="0.2"/>
      <feComposite operator="in" in2="blur"/>
      <feComposite in="SourceGraphic"/>
    </filter>
    <radialGradient id="radial-gradient" cx="0.5" cy="0.5" r="0.5" gradientUnits="objectBoundingBox">
      <stop offset="0" stop-color="#fff"/>
      <stop offset="1" stop-color="#fff" stop-opacity="0"/>
    </radialGradient>
  </defs>
  <g id="bg" transform="translate(-2 -1116)" clip-path="url(#clip-path)">
    <g transform="matrix(1, 0, 0, 1, 2, 1116)" filter="url(#矩形_1005)">
      <rect id="矩形_1005-2" data-name="矩形 1005" width="718" height="88" rx="18" fill="#ffd771"/>
    </g>
    <ellipse id="椭圆_170" data-name="椭圆 170" cx="392" cy="103" rx="392" ry="103" transform="translate(-31 1057)" opacity="0.73" fill="url(#radial-gradient)"/>
    <path id="路径_1529" data-name="路径 1529" d="M495.059,3843.5s9.146,45.716,42.67,48.764,53.84,5.08,82.287,25.4,24.383,29.461,24.383,29.461l-273.281-6.1V3843.5Z" transform="translate(-374 -2734)" fill="#fecb48" opacity="0.17"/>
    <path id="路径_1530" data-name="路径 1530" d="M361,1204s24.146-28.175,75.844-35.99,62.516,25.248,104.6,0,52.3-36.669,106.4-44.484,42.08-15.629,42.08-15.629h34.865V1204Z" fill="#fecb48" opacity="0.17"/>
  </g>
</svg>
