<svg xmlns="http://www.w3.org/2000/svg" preserveAspectRatio="none" width="334.402" height="60.012" viewBox="0 0 334.402 60.012">
    <g id="btn_normal" transform="translate(-503 -495)">
        <path id="_1" data-name="1" d="M6,0H328.4a6,6,0,0,1,6,6V54a6,6,0,0,1-6,6H6a6,6,0,0,1-6-6V6A6,6,0,0,1,6,0Z" transform="translate(503 495)" fill="#ffa939"/>
        <path id="_2" data-name="2" d="M20.491,0H104.4a6,6,0,0,1,6,6V54a6,6,0,0,1-6,6s-101.952.012-133.692.012C-7.457,47.6-9.549,0,20.491,0Z" transform="translate(727 495)"
              fill="#f70"/>
    </g>
</svg>
