<svg xmlns="http://www.w3.org/2000/svg" xmlns:xlink="http://www.w3.org/1999/xlink" width="256" height="80" viewBox="0 0 256 80"><defs><style>.a{fill:url(#a);}.b{fill:#fff;}</style><linearGradient id="a" x1="0.5" x2="0.5" y2="1" gradientUnits="objectBoundingBox"><stop offset="0" stop-color="#484848"/><stop offset="1" stop-color="#171717"/></linearGradient></defs><g transform="translate(0 -44)"><path class="a" d="M14,0H242a14,14,0,0,1,14,14V66a14,14,0,0,1-14,14H14A14,14,0,0,1,0,66V14A14,14,0,0,1,14,0Z" transform="translate(0 44)"/><path class="b" d="M43.791,70.94a11.243,11.243,0,0,1,5.354-9.434,11.514,11.514,0,0,0-9.068-4.9c-3.816-.4-7.514,2.284-9.46,2.284-1.982,0-4.974-2.244-8.2-2.178a12.074,12.074,0,0,0-10.162,6.2c-4.394,7.608-1.118,18.79,3.092,24.94,2.106,3.01,4.568,6.374,7.788,6.254,3.152-.13,4.328-2.008,8.132-2.008,3.77,0,4.874,2.008,8.16,1.934,3.382-.056,5.512-3.026,7.544-6.066a24.863,24.863,0,0,0,3.45-7.026A10.865,10.865,0,0,1,43.791,70.94Z" transform="translate(10.171 12.564)"/><path class="b" d="M27.583,58.527a11.063,11.063,0,0,0,2.534-7.93,11.262,11.262,0,0,0-7.288,3.77A10.531,10.531,0,0,0,20.229,62,9.311,9.311,0,0,0,27.583,58.527Z" transform="translate(20.171 6.597)"/><path class="b" d="M60.679,88.021h-4.4l-2.412-7.58H45.477l-2.3,7.58H38.891L47.2,62.213h5.13Zm-7.544-10.76-2.182-6.738q-.345-1.035-1.3-4.864h-.076q-.384,1.647-1.226,4.864l-2.144,6.738Z" transform="translate(38.891 18.213)"/><path class="b" d="M69.428,75.079a10.576,10.576,0,0,1-2.564,7.5,7.505,7.505,0,0,1-5.706,2.452,5.707,5.707,0,0,1-5.284-2.642H55.8v9.8H51.662V72.131q0-2.985-.154-6.126h3.638l.23,2.948h.076a7.359,7.359,0,0,1,11.776-.73A10.281,10.281,0,0,1,69.428,75.079Zm-4.212.152a7.684,7.684,0,0,0-1.224-4.48,4.236,4.236,0,0,0-3.6-1.838,4.294,4.294,0,0,0-2.776,1.016,4.711,4.711,0,0,0-1.628,2.662,5.4,5.4,0,0,0-.19,1.262v3.1a4.967,4.967,0,0,0,1.244,3.428,4.127,4.127,0,0,0,3.236,1.4,4.23,4.23,0,0,0,3.636-1.8A7.928,7.928,0,0,0,65.216,75.231Z" transform="translate(51.508 21.621)"/><path class="b" d="M80.131,75.079a10.569,10.569,0,0,1-2.568,7.5,7.5,7.5,0,0,1-5.7,2.452,5.705,5.705,0,0,1-5.284-2.642H66.5v9.8H62.363V72.131q0-2.985-.152-6.126h3.636l.23,2.948h.078a7.359,7.359,0,0,1,11.776-.73A10.281,10.281,0,0,1,80.131,75.079Zm-4.212.152a7.67,7.67,0,0,0-1.228-4.48,4.23,4.23,0,0,0-3.6-1.838,4.3,4.3,0,0,0-2.776,1.016,4.708,4.708,0,0,0-1.626,2.662,5.422,5.422,0,0,0-.192,1.262v3.1a4.985,4.985,0,0,0,1.242,3.428,4.131,4.131,0,0,0,3.238,1.4,4.227,4.227,0,0,0,3.636-1.8A7.929,7.929,0,0,0,75.919,75.231Z" transform="translate(62.211 21.621)"/><path class="b" d="M91.143,80.977a6.876,6.876,0,0,1-2.292,5.36,10.155,10.155,0,0,1-7.03,2.26,12.319,12.319,0,0,1-6.69-1.608l.958-3.448a11.318,11.318,0,0,0,5.978,1.648,5.655,5.655,0,0,0,3.64-1.054,3.444,3.444,0,0,0,1.3-2.82,3.594,3.594,0,0,0-1.072-2.646,9.963,9.963,0,0,0-3.562-2q-6.777-2.529-6.776-7.4a6.552,6.552,0,0,1,2.376-5.216,9.361,9.361,0,0,1,6.318-2.034,12.532,12.532,0,0,1,5.856,1.226l-1.034,3.37a10.184,10.184,0,0,0-4.94-1.188A4.993,4.993,0,0,0,80.767,66.5a3.066,3.066,0,0,0-1.034,2.336,3.15,3.15,0,0,0,1.186,2.526,13.407,13.407,0,0,0,3.754,1.992,12.76,12.76,0,0,1,4.9,3.138A6.593,6.593,0,0,1,91.143,80.977Z" transform="translate(75.131 18.021)"/><path class="b" d="M95.639,71.232H91.083v9.036q0,3.444,2.412,3.446a7.484,7.484,0,0,0,1.838-.19l.114,3.138a9.336,9.336,0,0,1-3.216.46A4.96,4.96,0,0,1,88.4,85.63q-1.377-1.5-1.38-5.018v-9.38H84.305v-3.1h2.716V64.72L91.083,63.5V68.13h4.556Z" transform="translate(84.305 19.496)"/><path class="b" d="M109.367,75.155a10.217,10.217,0,0,1-2.45,7.046,8.755,8.755,0,0,1-6.818,2.834,8.317,8.317,0,0,1-6.526-2.718,9.894,9.894,0,0,1-2.432-6.854,10.112,10.112,0,0,1,2.506-7.084,8.688,8.688,0,0,1,6.758-2.758,8.5,8.5,0,0,1,6.588,2.72A9.811,9.811,0,0,1,109.367,75.155Zm-4.292.136a8.387,8.387,0,0,0-1.108-4.418,4.09,4.09,0,0,0-3.714-2.228,4.144,4.144,0,0,0-3.79,2.228,8.525,8.525,0,0,0-1.11,4.494,8.362,8.362,0,0,0,1.11,4.416,4.226,4.226,0,0,0,7.466-.038A8.4,8.4,0,0,0,105.075,75.291Z" transform="translate(91.141 21.621)"/><path class="b" d="M111.953,69.641a7.145,7.145,0,0,0-1.3-.114,3.911,3.911,0,0,0-3.37,1.648,6.182,6.182,0,0,0-1.034,3.674v9.764h-4.132l.036-12.75q0-3.219-.154-5.858h3.6l.152,3.56h.114a6.343,6.343,0,0,1,2.068-2.948,5,5,0,0,1,2.988-1,6.7,6.7,0,0,1,1.034.076Z" transform="translate(101.995 21.621)"/><path class="b" d="M124.491,74.448a9.586,9.586,0,0,1-.152,1.874h-12.4a5.4,5.4,0,0,0,1.8,4.214,6.143,6.143,0,0,0,4.058,1.3,13.712,13.712,0,0,0,5.018-.882l.648,2.872a15.519,15.519,0,0,1-6.238,1.15,9.035,9.035,0,0,1-6.8-2.548,9.406,9.406,0,0,1-2.47-6.834,10.658,10.658,0,0,1,2.3-7.008,7.92,7.92,0,0,1,6.508-2.986,6.928,6.928,0,0,1,6.09,2.986A10.048,10.048,0,0,1,124.491,74.448Zm-3.942-1.072a5.628,5.628,0,0,0-.8-3.178,3.612,3.612,0,0,0-3.3-1.724,3.918,3.918,0,0,0-3.29,1.686,6.138,6.138,0,0,0-1.224,3.216Z" transform="translate(107.949 21.602)"/><path class="b" d="M50.542,57.341A6.364,6.364,0,0,1,48.49,62.5a8.154,8.154,0,0,1-5.4,1.6,25.228,25.228,0,0,1-2.974-.152V51.471a21.785,21.785,0,0,1,3.5-.264,7.552,7.552,0,0,1,5.024,1.45A5.852,5.852,0,0,1,50.542,57.341ZM48.4,57.4a4.132,4.132,0,0,0-4.61-4.59,8.677,8.677,0,0,0-1.636.132v9.48a10.773,10.773,0,0,0,1.372.058,4.8,4.8,0,0,0,3.6-1.3A5.188,5.188,0,0,0,48.4,57.4Z" transform="translate(40.118 7.207)"/><path class="b" d="M55.487,57.613a5,5,0,0,1-1.2,3.46,4.292,4.292,0,0,1-3.348,1.394,4.092,4.092,0,0,1-3.208-1.336,4.866,4.866,0,0,1-1.194-3.368,4.973,4.973,0,0,1,1.232-3.48,4.264,4.264,0,0,1,3.32-1.354,4.186,4.186,0,0,1,3.236,1.334A4.833,4.833,0,0,1,55.487,57.613Zm-2.106.066a4.128,4.128,0,0,0-.546-2.17,2.006,2.006,0,0,0-1.824-1.094,2.038,2.038,0,0,0-1.864,1.094,4.2,4.2,0,0,0-.546,2.206,4.136,4.136,0,0,0,.546,2.172,2.052,2.052,0,0,0,1.844,1.092,2.027,2.027,0,0,0,1.824-1.112A4.1,4.1,0,0,0,53.381,57.679Z" transform="translate(46.533 8.929)"/><path class="b" d="M65.251,53.023l-2.86,9.142H60.529L59.343,58.2a29.718,29.718,0,0,1-.734-2.952h-.036a21.23,21.23,0,0,1-.736,2.952l-1.258,3.97H54.7l-2.688-9.142h2.088l1.034,4.346q.375,1.542.622,2.934h.036q.228-1.146.754-2.916l1.3-4.364h1.656l1.242,4.27q.453,1.56.734,3.01h.056a28.7,28.7,0,0,1,.622-3.01l1.11-4.27Z" transform="translate(52.007 9.023)"/><path class="b" d="M67.9,62.259H65.872V57.023q0-2.421-1.844-2.42a1.836,1.836,0,0,0-1.468.666A2.359,2.359,0,0,0,62,56.837v5.422H59.964V55.733q0-1.206-.074-2.616h1.786l.1,1.428h.056a2.916,2.916,0,0,1,1.052-1.1,3.435,3.435,0,0,1,1.844-.514,2.915,2.915,0,0,1,2.126.828A4.012,4.012,0,0,1,67.9,56.785Z" transform="translate(59.89 8.929)"/><path class="b" d="M67.714,64.263h-2.03V50.925h2.03Z" transform="translate(65.684 6.925)"/><path class="b" d="M77.159,57.613a5,5,0,0,1-1.2,3.46,4.294,4.294,0,0,1-3.348,1.394A4.083,4.083,0,0,1,69.4,61.131a4.866,4.866,0,0,1-1.194-3.368,4.973,4.973,0,0,1,1.232-3.48,4.262,4.262,0,0,1,3.318-1.354,4.19,4.19,0,0,1,3.238,1.334A4.833,4.833,0,0,1,77.159,57.613Zm-2.11.066a4.128,4.128,0,0,0-.544-2.17,2,2,0,0,0-1.822-1.094,2.034,2.034,0,0,0-1.864,1.094,4.2,4.2,0,0,0-.546,2.206,4.136,4.136,0,0,0,.546,2.172,2.05,2.05,0,0,0,1.844,1.092,2.028,2.028,0,0,0,1.822-1.112A4.083,4.083,0,0,0,75.049,57.679Z" transform="translate(68.205 8.929)"/><path class="b" d="M81.355,62.259H79.529l-.152-1.052h-.056a3.132,3.132,0,0,1-2.67,1.26,2.753,2.753,0,0,1-2.088-.828,2.594,2.594,0,0,1-.716-1.862,2.844,2.844,0,0,1,1.4-2.56,7.309,7.309,0,0,1,3.942-.864v-.17q0-1.806-1.9-1.806a4.236,4.236,0,0,0-2.384.678L74.5,53.719a5.854,5.854,0,0,1,3.136-.79q3.585,0,3.588,3.782v3.366A14.181,14.181,0,0,0,81.355,62.259Zm-2.11-3.142v-1.41q-3.363-.057-3.364,1.844a1.383,1.383,0,0,0,.39,1.072,1.424,1.424,0,0,0,.992.356,2.045,2.045,0,0,0,1.244-.422,1.732,1.732,0,0,0,.7-1.082A1.686,1.686,0,0,0,79.245,59.117Z" transform="translate(73.847 8.929)"/><path class="b" d="M87.74,64.263h-1.8L85.842,62.8h-.058a3.036,3.036,0,0,1-2.936,1.676,3.444,3.444,0,0,1-2.746-1.3,5.065,5.065,0,0,1-1.09-3.368A5.29,5.29,0,0,1,80.2,56.213a3.637,3.637,0,0,1,2.822-1.28A2.745,2.745,0,0,1,85.6,56.175h.036v-5.25h2.034V61.8Q87.666,63.134,87.74,64.263Zm-2.108-3.856V58.883a2.925,2.925,0,0,0-.056-.64,2.318,2.318,0,0,0-.734-1.232,2,2,0,0,0-1.36-.5,2.087,2.087,0,0,0-1.788.9,3.881,3.881,0,0,0-.652,2.314,3.605,3.605,0,0,0,.626,2.2,2.088,2.088,0,0,0,1.776.9,1.961,1.961,0,0,0,1.606-.752A2.514,2.514,0,0,0,85.632,60.407Z" transform="translate(79.012 6.925)"/><path class="b" d="M96.544,57.613a5.011,5.011,0,0,1-1.2,3.46,4.3,4.3,0,0,1-3.35,1.394,4.1,4.1,0,0,1-3.208-1.336,4.864,4.864,0,0,1-1.192-3.368,4.971,4.971,0,0,1,1.23-3.48,4.265,4.265,0,0,1,3.322-1.354,4.182,4.182,0,0,1,3.234,1.334A4.825,4.825,0,0,1,96.544,57.613Zm-2.106.066a4.128,4.128,0,0,0-.546-2.17,2.009,2.009,0,0,0-1.826-1.094A2.042,2.042,0,0,0,90.2,55.509a4.22,4.22,0,0,0-.544,2.206,4.154,4.154,0,0,0,.544,2.172,2.08,2.08,0,0,0,3.672-.02A4.137,4.137,0,0,0,94.438,57.679Z" transform="translate(87.59 8.929)"/><path class="b" d="M101.537,62.259h-2.03V57.023q0-2.421-1.846-2.42a1.83,1.83,0,0,0-1.466.666,2.359,2.359,0,0,0-.564,1.568v5.422H93.6V55.733c0-.8-.022-1.676-.072-2.616h1.784l.1,1.428h.056a2.947,2.947,0,0,1,1.052-1.1,3.442,3.442,0,0,1,1.846-.514,2.914,2.914,0,0,1,2.124.828,4,4,0,0,1,1.054,3.028Z" transform="translate(93.525 8.929)"/><path class="b" d="M107.154,55.685h-2.238v4.44q0,1.692,1.184,1.692a3.588,3.588,0,0,0,.906-.094l.052,1.542a4.535,4.535,0,0,1-1.578.228,2.433,2.433,0,0,1-1.88-.734,3.59,3.59,0,0,1-.678-2.466V55.685h-1.336V54.161h1.336V52.487l1.994-.6v2.276h2.238Z" transform="translate(101.586 7.885)"/><path class="b" d="M113.721,64.263h-2.036v-5.2q0-2.457-1.84-2.458a1.94,1.94,0,0,0-1.94,1.426,2.564,2.564,0,0,0-.094.732v5.5h-2.03V50.925h2.03v5.51h.038a3.075,3.075,0,0,1,2.746-1.5,2.835,2.835,0,0,1,2.09.828,4.159,4.159,0,0,1,1.036,3.066Z" transform="translate(105.781 6.925)"/><path class="b" d="M119.363,57.265a4.807,4.807,0,0,1-.076.922h-6.094a2.665,2.665,0,0,0,.882,2.07,3.03,3.03,0,0,0,2,.64,6.722,6.722,0,0,0,2.466-.434l.318,1.412a7.659,7.659,0,0,1-3.068.564,4.426,4.426,0,0,1-3.338-1.252,4.61,4.61,0,0,1-1.212-3.358,5.237,5.237,0,0,1,1.13-3.442,3.887,3.887,0,0,1,3.2-1.468,3.4,3.4,0,0,1,2.988,1.468A4.913,4.913,0,0,1,119.363,57.265Zm-1.94-.526a2.732,2.732,0,0,0-.394-1.562,1.774,1.774,0,0,0-1.618-.846,1.929,1.929,0,0,0-1.616.828,3.054,3.054,0,0,0-.6,1.58Z" transform="translate(111.237 8.919)"/></g></svg>