<svg xmlns="http://www.w3.org/2000/svg" xmlns:xlink="http://www.w3.org/1999/xlink" width="205.136" height="64.105" viewBox="0 0 205.136 64.105"><defs><linearGradient id="a" x1="0.5" x2="0.5" y2="1" gradientUnits="objectBoundingBox"><stop offset="0" stop-color="#484848"/><stop offset="1" stop-color="#171717"/></linearGradient><linearGradient id="b" x1="0.908" y1="1.032" x2="-0.383" y2="0.36" gradientUnits="objectBoundingBox"><stop offset="0" stop-color="#00a0ff"/><stop offset="0.007" stop-color="#00a1ff"/><stop offset="0.26" stop-color="#00beff"/><stop offset="0.512" stop-color="#00d2ff"/><stop offset="0.76" stop-color="#00dfff"/><stop offset="1" stop-color="#00e3ff"/></linearGradient><linearGradient id="c" x1="1.077" y1="0.729" x2="-1.307" y2="0.729" gradientUnits="objectBoundingBox"><stop offset="0" stop-color="#ffe000"/><stop offset="0.409" stop-color="#ffbd00"/><stop offset="0.775" stop-color="orange"/><stop offset="1" stop-color="#ff9c00"/></linearGradient><linearGradient id="d" x1="0.864" y1="-0.023" x2="-0.499" y2="-1.789" gradientUnits="objectBoundingBox"><stop offset="0" stop-color="#ff3a44"/><stop offset="1" stop-color="#c31162"/></linearGradient><linearGradient id="e" x1="-0.186" y1="2.701" x2="0.423" y2="1.909" gradientUnits="objectBoundingBox"><stop offset="0" stop-color="#32a071"/><stop offset="0.069" stop-color="#2da771"/><stop offset="0.476" stop-color="#15cf74"/><stop offset="0.801" stop-color="#06e775"/><stop offset="1" stop-color="#00f076"/></linearGradient></defs><g transform="translate(0 -44)"><path d="M11.218,0h182.7a11.218,11.218,0,0,1,11.218,11.218V52.887A11.218,11.218,0,0,1,193.918,64.1H11.218A11.218,11.218,0,0,1,0,52.887V11.218A11.218,11.218,0,0,1,11.218,0Z" transform="translate(0 44)" fill="url(#a)"/><path d="M1.012,0V-9.953H4.423a4.165,4.165,0,0,1,2.57.677A2.384,2.384,0,0,1,7.875-7.26a2.149,2.149,0,0,1-.369,1.23,2.376,2.376,0,0,1-1.08.848,2.2,2.2,0,0,1,1.248.824,2.4,2.4,0,0,1,.441,1.453,2.65,2.65,0,0,1-.9,2.153A3.909,3.909,0,0,1,4.642,0ZM2.741-4.491v3.1H4.662a1.864,1.864,0,0,0,1.271-.4,1.406,1.406,0,0,0,.458-1.116A1.417,1.417,0,0,0,4.806-4.491Zm0-1.271h1.7A1.961,1.961,0,0,0,5.7-6.128a1.253,1.253,0,0,0,.455-1.036,1.27,1.27,0,0,0-.42-1.066,2.123,2.123,0,0,0-1.309-.328H2.741ZM14.164-.725a2.576,2.576,0,0,1-2.078.861,2.3,2.3,0,0,1-1.822-.7A3,3,0,0,1,9.646-2.6V-7.4h1.661v4.771q0,1.408,1.169,1.408a1.642,1.642,0,0,0,1.634-.868V-7.4h1.661V0H14.205ZM20.05-2.379l1.5-5.018h1.771L20.385,1.121a2.389,2.389,0,0,1-2.3,1.866,2.961,2.961,0,0,1-.8-.124V1.572l.314.021a1.617,1.617,0,0,0,.947-.229,1.517,1.517,0,0,0,.5-.768l.239-.635L16.693-7.4h1.791ZM28.349,0V-6.166H27.221V-7.4h1.128v-.677a2.54,2.54,0,0,1,.684-1.9,2.619,2.619,0,0,1,1.914-.67,3.839,3.839,0,0,1,.93.123l-.041,1.3a3.272,3.272,0,0,0-.636-.055A1.067,1.067,0,0,0,30.01-8.053V-7.4h1.5v1.23h-1.5V0Zm4.067-3.767a4.361,4.361,0,0,1,.431-1.958,3.145,3.145,0,0,1,1.21-1.34,3.409,3.409,0,0,1,1.791-.468,3.231,3.231,0,0,1,2.43.964,3.791,3.791,0,0,1,1.008,2.557l.007.39a4.4,4.4,0,0,1-.42,1.955,3.108,3.108,0,0,1-1.2,1.333,3.434,3.434,0,0,1-1.808.472A3.209,3.209,0,0,1,33.356-.906a3.993,3.993,0,0,1-.94-2.779Zm1.661.144a2.98,2.98,0,0,0,.472,1.788,1.533,1.533,0,0,0,1.313.646,1.517,1.517,0,0,0,1.309-.656,3.292,3.292,0,0,0,.468-1.921,2.942,2.942,0,0,0-.482-1.777A1.539,1.539,0,0,0,35.848-6.2a1.525,1.525,0,0,0-1.292.646A3.23,3.23,0,0,0,34.077-3.623ZM42.465,0H40.8V-10.5h1.661ZM46.04,0H44.379V-10.5H46.04Zm1.5-3.767a4.361,4.361,0,0,1,.431-1.958,3.145,3.145,0,0,1,1.21-1.34,3.409,3.409,0,0,1,1.791-.468,3.231,3.231,0,0,1,2.43.964,3.791,3.791,0,0,1,1.008,2.557l.007.39a4.4,4.4,0,0,1-.42,1.955,3.108,3.108,0,0,1-1.2,1.333,3.434,3.434,0,0,1-1.808.472A3.209,3.209,0,0,1,48.477-.906a3.993,3.993,0,0,1-.94-2.779Zm1.661.144a2.98,2.98,0,0,0,.472,1.788,1.533,1.533,0,0,0,1.313.646,1.517,1.517,0,0,0,1.309-.656,3.292,3.292,0,0,0,.468-1.921,2.942,2.942,0,0,0-.482-1.777A1.539,1.539,0,0,0,50.969-6.2a1.525,1.525,0,0,0-1.292.646A3.23,3.23,0,0,0,49.2-3.623ZM62.316-2.29,63.492-7.4h1.62L63.1,0H61.729L60.143-5.079,58.584,0H57.217L55.193-7.4h1.62l1.2,5.052L59.527-7.4h1.251ZM69.48.137a3.437,3.437,0,0,1-2.56-.995,3.608,3.608,0,0,1-.981-2.649v-.205a4.438,4.438,0,0,1,.427-1.979,3.252,3.252,0,0,1,1.2-1.357,3.172,3.172,0,0,1,1.723-.485,2.9,2.9,0,0,1,2.334.964,4.076,4.076,0,0,1,.824,2.728v.67H67.614a2.221,2.221,0,0,0,.612,1.449,1.837,1.837,0,0,0,1.35.533,2.249,2.249,0,0,0,1.859-.923l.9.854A2.99,2.99,0,0,1,71.145-.229,3.713,3.713,0,0,1,69.48.137Zm-.2-6.337a1.4,1.4,0,0,0-1.1.479,2.48,2.48,0,0,0-.537,1.333h3.165v-.123a2.019,2.019,0,0,0-.444-1.261A1.388,1.388,0,0,0,69.282-6.2Zm8.326.321a4.111,4.111,0,0,0-.677-.055,1.524,1.524,0,0,0-1.538.875V0H73.732V-7.4h1.586l.041.827a1.872,1.872,0,0,1,1.668-.964,1.555,1.555,0,0,1,.588.1ZM82.8-2.01a.753.753,0,0,0-.366-.677,3.89,3.89,0,0,0-1.213-.41,6.238,6.238,0,0,1-1.415-.451,1.889,1.889,0,0,1-1.244-1.743,1.969,1.969,0,0,1,.807-1.6,3.189,3.189,0,0,1,2.051-.643,3.318,3.318,0,0,1,2.143.656,2.082,2.082,0,0,1,.817,1.7H82.722a1.024,1.024,0,0,0-.355-.8,1.362,1.362,0,0,0-.943-.318,1.472,1.472,0,0,0-.892.253.8.8,0,0,0-.345.677.673.673,0,0,0,.321.595,4.418,4.418,0,0,0,1.3.427,6.148,6.148,0,0,1,1.535.513,2.173,2.173,0,0,1,.827.714,1.822,1.822,0,0,1,.27,1.012A1.927,1.927,0,0,1,83.61-.482a3.527,3.527,0,0,1-2.167.619,3.825,3.825,0,0,1-1.62-.328,2.666,2.666,0,0,1-1.107-.9,2.136,2.136,0,0,1-.4-1.237h1.613a1.171,1.171,0,0,0,.444.906,1.727,1.727,0,0,0,1.087.318,1.68,1.68,0,0,0,1-.25A.772.772,0,0,0,82.8-2.01ZM89.954,0V-6.166H88.826V-7.4h1.128v-.677a2.54,2.54,0,0,1,.684-1.9,2.619,2.619,0,0,1,1.914-.67,3.839,3.839,0,0,1,.93.123l-.041,1.3a3.272,3.272,0,0,0-.636-.055,1.067,1.067,0,0,0-1.189,1.224V-7.4h1.5v1.23h-1.5V0Zm8.251-5.879a4.111,4.111,0,0,0-.677-.055,1.524,1.524,0,0,0-1.538.875V0H94.329V-7.4h1.586l.041.827a1.872,1.872,0,0,1,1.668-.964,1.555,1.555,0,0,1,.588.1ZM98.7-3.767a4.361,4.361,0,0,1,.431-1.958,3.145,3.145,0,0,1,1.21-1.34,3.409,3.409,0,0,1,1.791-.468,3.231,3.231,0,0,1,2.43.964,3.791,3.791,0,0,1,1.008,2.557l.007.39a4.4,4.4,0,0,1-.42,1.955,3.108,3.108,0,0,1-1.2,1.333,3.434,3.434,0,0,1-1.808.472A3.209,3.209,0,0,1,99.637-.906a3.993,3.993,0,0,1-.94-2.779Zm1.661.144a2.98,2.98,0,0,0,.472,1.788,1.533,1.533,0,0,0,1.313.646,1.517,1.517,0,0,0,1.309-.656,3.292,3.292,0,0,0,.468-1.921,2.942,2.942,0,0,0-.482-1.777,1.539,1.539,0,0,0-1.309-.656,1.525,1.525,0,0,0-1.292.646A3.23,3.23,0,0,0,100.358-3.623ZM108.541-7.4l.048.772a2.662,2.662,0,0,1,2.133-.909,2.045,2.045,0,0,1,2.03,1.135,2.623,2.623,0,0,1,2.27-1.135,2.306,2.306,0,0,1,1.822.677,2.98,2.98,0,0,1,.612,2V0h-1.661V-4.812a1.471,1.471,0,0,0-.308-1.032,1.347,1.347,0,0,0-1.019-.328,1.383,1.383,0,0,0-.926.3,1.6,1.6,0,0,0-.5.8L113.046,0h-1.661V-4.867a1.185,1.185,0,0,0-1.333-1.306,1.462,1.462,0,0,0-1.415.813V0h-1.661V-7.4Z" transform="translate(64 66)" fill="#fff"/><path d="M81.705,24.168a6.327,6.327,0,0,0-6.467,6.467A6.419,6.419,0,0,0,81.705,37.1a6.327,6.327,0,0,0,6.467-6.467A6.239,6.239,0,0,0,81.705,24.168Zm0,10.227a3.733,3.733,0,0,1-3.609-3.91,3.733,3.733,0,0,1,3.609-3.91,3.643,3.643,0,0,1,3.609,3.91A3.733,3.733,0,0,1,81.705,34.395ZM67.719,24.168a6.327,6.327,0,0,0-6.467,6.467A6.419,6.419,0,0,0,67.719,37.1a6.327,6.327,0,0,0,6.467-6.467A6.239,6.239,0,0,0,67.719,24.168Zm0,10.227a3.733,3.733,0,0,1-3.609-3.91,3.733,3.733,0,0,1,3.609-3.91,3.643,3.643,0,0,1,3.609,3.91A3.733,3.733,0,0,1,67.719,34.395ZM51.026,26.123V28.83h6.467a5.687,5.687,0,0,1-1.5,3.459,6.656,6.656,0,0,1-4.963,1.955,7,7,0,0,1-7.068-7.219,7.094,7.094,0,0,1,7.068-7.219,7.457,7.457,0,0,1,4.963,1.955l1.955-1.955A9.637,9.637,0,0,0,51.176,17.1,10.145,10.145,0,0,0,41.1,27.026a10.145,10.145,0,0,0,10.076,9.926,8.655,8.655,0,0,0,6.918-2.857A9.053,9.053,0,0,0,60.5,27.778a5.639,5.639,0,0,0-.15-1.654H51.026ZM119.3,28.229a5.843,5.843,0,0,0-5.414-4.061c-3.309,0-6.016,2.557-6.016,6.467a6.294,6.294,0,0,0,6.316,6.467,6.169,6.169,0,0,0,5.264-2.857l-2.105-1.5a3.666,3.666,0,0,1-3.158,1.8,3.263,3.263,0,0,1-3.158-1.955l8.572-3.609-.3-.752Zm-8.723,2.105a3.653,3.653,0,0,1,3.309-3.76,2.66,2.66,0,0,1,2.406,1.354l-5.715,2.406ZM103.511,36.5h2.857V17.7h-2.857ZM99,25.522a4.952,4.952,0,0,0-3.459-1.5,6.462,6.462,0,0,0-6.166,6.467A6.227,6.227,0,0,0,95.541,36.8a4.318,4.318,0,0,0,3.309-1.5H99v.9c0,2.406-1.354,3.76-3.459,3.76A3.341,3.341,0,0,1,92.383,37.7l-2.406,1.053a6.2,6.2,0,0,0,5.715,3.76c3.309,0,6.016-1.955,6.016-6.617V24.469H99v1.053Zm-3.309,8.873a3.733,3.733,0,0,1-3.609-3.91,3.733,3.733,0,0,1,3.609-3.91,3.618,3.618,0,0,1,3.459,3.91A3.618,3.618,0,0,1,95.691,34.395ZM132.386,17.7h-6.767V36.5h2.857V29.432h3.91a5.873,5.873,0,1,0,0-11.73Zm.15,9.023h-4.06V20.258h4.06a3.3,3.3,0,0,1,3.309,3.158,3.442,3.442,0,0,1-3.309,3.309Zm17.295-2.707c-2.105,0-4.211.9-4.963,2.857l2.557,1.053a2.657,2.657,0,0,1,2.557-1.354,2.826,2.826,0,0,1,3.008,2.406v.15a5.965,5.965,0,0,0-2.857-.752c-2.707,0-5.414,1.5-5.414,4.211A4.406,4.406,0,0,0,149.38,36.8a4.232,4.232,0,0,0,3.609-1.8h.15v1.5h2.707V29.282A5.692,5.692,0,0,0,149.831,24.018Zm-.3,10.377c-.9,0-2.256-.451-2.256-1.654,0-1.5,1.654-1.955,3.008-1.955a5.816,5.816,0,0,1,2.557.6A3.5,3.5,0,0,1,149.53,34.395Zm15.791-9.926-3.158,8.121h-.15L158.7,24.469H155.7l4.963,11.43L157.8,42.215h2.857l7.67-17.746ZM140.056,36.5h2.857V17.7h-2.857Z" transform="translate(22.671 56.015)" fill="#fff"/><g transform="translate(18 58.147)"><path d="M10.6,7.5A2.94,2.94,0,0,0,10,9.605V42.842a2.975,2.975,0,0,0,.752,2.105l.15.15L29.551,26.449v-.3Z" transform="translate(-10 -6.969)" fill="url(#b)"/><path d="M29.066,28.583,22.9,22.417v-.451L29.066,15.8l.15.15,7.369,4.211c2.105,1.2,2.105,3.158,0,4.361Z" transform="translate(-3.5 -2.787)" fill="url(#c)"/><path d="M35.515,26.316,29.2,20,10.4,38.8c.752.752,1.8.752,3.158.15L35.515,26.316" transform="translate(-9.798 -0.671)" fill="url(#d)"/><path d="M35.515,20.148,13.558,7.666c-1.353-.752-2.406-.6-3.158.15L29.2,26.464l6.316-6.316Z" transform="translate(-9.798 -7.135)" fill="url(#e)"/><path d="M35.365,24.1,13.558,36.432a2.459,2.459,0,0,1-3.008,0l-.15.15.15.15a2.459,2.459,0,0,0,3.008,0Z" transform="translate(-9.798 1.395)" opacity="0.2"/><path d="M10.6,38.5a2.94,2.94,0,0,1-.6-2.105v.15a2.975,2.975,0,0,0,.752,2.105V38.5H10.6ZM43.086,21.955l-7.519,4.211.15.15,7.369-4.211A2.5,2.5,0,0,0,44.589,20C44.589,20.752,43.988,21.354,43.086,21.955Z" transform="translate(-10 -0.671)" opacity="0.12"/><path d="M13.76,7.828,43.086,24.521c.9.6,1.5,1.2,1.5,1.955a2.5,2.5,0,0,0-1.5-2.105L13.76,7.678c-2.105-1.2-3.76-.3-3.76,2.105v.15C10,7.678,11.654,6.625,13.76,7.828Z" transform="translate(-10 -7.147)" fill="#fff" opacity="0.25"/></g></g></svg>