<svg xmlns="http://www.w3.org/2000/svg" width="22.895" height="22.895" viewBox="0 0 22.895 22.895">
  <g id="icon_btn_coins" transform="translate(-1816.2 -32.2)">
    <g id="路径_683" data-name="路径 683" transform="translate(1816.2 32.2)" fill="#fff">
      <path d="M 11.447265625 20.89453506469727 C 6.238025665283203 20.89453506469727 2.000005722045898 16.6565055847168 2.000005722045898 11.447265625 C 2.000005722045898 6.238025665283203 6.238025665283203 2.000005722045898 11.447265625 2.000005722045898 C 16.6565055847168 2.000005722045898 20.89453506469727 6.238025665283203 20.89453506469727 11.447265625 C 20.89453506469727 16.6565055847168 16.6565055847168 20.89453506469727 11.447265625 20.89453506469727 Z" stroke="none"/>
      <path d="M 11.447265625 3.999996185302734 C 7.340826034545898 3.999996185302734 3.999996185302734 7.340826034545898 3.999996185302734 11.447265625 C 3.999996185302734 15.55369567871094 7.340826034545898 18.8945255279541 11.447265625 18.8945255279541 C 15.55369567871094 18.8945255279541 18.8945255279541 15.55369567871094 18.8945255279541 11.447265625 C 18.8945255279541 7.340826034545898 15.55369567871094 3.999996185302734 11.447265625 3.999996185302734 M 11.447265625 -3.814697265625e-06 C 17.76941680908203 -3.814697265625e-06 22.8945255279541 5.125116348266602 22.8945255279541 11.447265625 C 22.8945255279541 17.76941680908203 17.76941680908203 22.8945255279541 11.447265625 22.8945255279541 C 5.125116348266602 22.8945255279541 -3.814697265625e-06 17.76941680908203 -3.814697265625e-06 11.447265625 C -3.814697265625e-06 5.125116348266602 5.125116348266602 -3.814697265625e-06 11.447265625 -3.814697265625e-06 Z" stroke="none" fill="#fff"/>
    </g>
    <path id="ic_monetization_on_24px" d="M11.007,2a9.007,9.007,0,1,0,9.007,9.007A9.01,9.01,0,0,0,11.007,2Zm1.27,14.492v1.72h-2.4V16.474a3.351,3.351,0,0,1-2.945-3.062H8.692c.09.946.739,1.684,2.387,1.684,1.765,0,2.162-.883,2.162-1.432,0-.748-.4-1.45-2.4-1.928C8.6,11.2,7.071,10.277,7.071,8.431c0-1.549,1.252-2.558,2.8-2.891V3.8h2.4V5.558a3.184,3.184,0,0,1,2.567,3.053H13.079c-.045-1-.576-1.684-2-1.684-1.351,0-2.162.612-2.162,1.477,0,.757.585,1.252,2.4,1.72s3.765,1.252,3.765,3.522c-.009,1.648-1.243,2.549-2.81,2.846Z" transform="translate(1816.617 32.664)" fill="#f80"/>
  </g>
</svg>
