<svg xmlns="http://www.w3.org/2000/svg" xmlns:xlink="http://www.w3.org/1999/xlink" width="256" height="80" viewBox="0 0 256 80"><defs><style>.a{fill:url(#a);}.b,.c,.j{fill:#fff;}.b{stroke:#fff;stroke-miterlimit:10;stroke-width:0.2px;}.d{fill:url(#b);}.e{fill:url(#c);}.f{fill:url(#d);}.g{fill:url(#e);}.h{opacity:0.2;}.i{opacity:0.12;}.j{opacity:0.25;}</style><linearGradient id="a" x1="0.5" x2="0.5" y2="1" gradientUnits="objectBoundingBox"><stop offset="0" stop-color="#484848"/><stop offset="1" stop-color="#171717"/></linearGradient><linearGradient id="b" x1="0.908" y1="1.032" x2="-0.383" y2="0.36" gradientUnits="objectBoundingBox"><stop offset="0" stop-color="#00a0ff"/><stop offset="0.007" stop-color="#00a1ff"/><stop offset="0.26" stop-color="#00beff"/><stop offset="0.512" stop-color="#00d2ff"/><stop offset="0.76" stop-color="#00dfff"/><stop offset="1" stop-color="#00e3ff"/></linearGradient><linearGradient id="c" x1="1.077" y1="0.729" x2="-1.307" y2="0.729" gradientUnits="objectBoundingBox"><stop offset="0" stop-color="#ffe000"/><stop offset="0.409" stop-color="#ffbd00"/><stop offset="0.775" stop-color="orange"/><stop offset="1" stop-color="#ff9c00"/></linearGradient><linearGradient id="d" x1="0.864" y1="-0.023" x2="-0.499" y2="-1.789" gradientUnits="objectBoundingBox"><stop offset="0" stop-color="#ff3a44"/><stop offset="1" stop-color="#c31162"/></linearGradient><linearGradient id="e" x1="-0.186" y1="2.701" x2="0.423" y2="1.909" gradientUnits="objectBoundingBox"><stop offset="0" stop-color="#32a071"/><stop offset="0.069" stop-color="#2da771"/><stop offset="0.476" stop-color="#15cf74"/><stop offset="0.801" stop-color="#06e775"/><stop offset="1" stop-color="#00f076"/></linearGradient></defs><g transform="translate(-12.107)"><path class="a" d="M246.519,80H9.481C4.172,80,0,75.6,0,70V10C0,4.4,4.172,0,9.481,0H246.519C251.828,0,256,4.4,256,10V70C256,75.6,251.828,80,246.519,80Z" transform="translate(12.107)"/><path class="b" d="M53.4,13.5a5.448,5.448,0,0,1-1.4,4,6.278,6.278,0,0,1-8.8,0,5.881,5.881,0,0,1-1.8-4.4,5.881,5.881,0,0,1,1.8-4.4,5.881,5.881,0,0,1,4.4-1.8,5.325,5.325,0,0,1,2.4.6,4.355,4.355,0,0,1,1.8,1.4l-1,1a3.73,3.73,0,0,0-3.2-1.4,3.979,3.979,0,0,0-3.2,1.4A4.12,4.12,0,0,0,43,13.3a4.12,4.12,0,0,0,1.4,3.4,5.15,5.15,0,0,0,3.2,1.4A4.386,4.386,0,0,0,51,16.7a3.312,3.312,0,0,0,1-2.4H47.6V12.7h5.8v.8Zm9.2-5H57.2v3.8h5v1.4h-5v3.8h5.4v1.6h-7V7.1h7Zm6.6,10.6H67.6V8.5H64.2V7.1h8.4V8.5H69.2Zm9.2,0V7.1H80v12Zm8.4,0H85.2V8.5H81.8V7.1H90V8.5H86.6V19.1Zm19-1.6a6.278,6.278,0,0,1-8.8,0,5.881,5.881,0,0,1-1.8-4.4A5.881,5.881,0,0,1,97,8.7a6.278,6.278,0,0,1,8.8,0,5.881,5.881,0,0,1,1.8,4.4A5.881,5.881,0,0,1,105.8,17.5Zm-7.6-1a4.72,4.72,0,0,0,3.2,1.4,3.979,3.979,0,0,0,3.2-1.4,4.825,4.825,0,0,0,1.4-3.4,4.12,4.12,0,0,0-1.4-3.4,4.72,4.72,0,0,0-3.2-1.4,3.979,3.979,0,0,0-3.2,1.4,4.825,4.825,0,0,0-1.4,3.4A4.12,4.12,0,0,0,98.2,16.5Zm11.6,2.6V7.1h1.8l5.8,9.4V7.1H119v12h-1.6l-6.2-9.8v9.8h-1.4Z" transform="translate(44.4 6.9)"/><path class="c" d="M93.9,26.291A8.227,8.227,0,0,0,85.491,34.7,8.347,8.347,0,0,0,93.9,43.109a8.227,8.227,0,0,0,8.409-8.409A8.113,8.113,0,0,0,93.9,26.291Zm0,13.3A4.854,4.854,0,0,1,89.206,34.5,4.854,4.854,0,0,1,93.9,29.42,4.737,4.737,0,0,1,98.593,34.5,4.854,4.854,0,0,1,93.9,39.589Zm-18.186-13.3A8.227,8.227,0,0,0,67.3,34.7a8.347,8.347,0,0,0,8.409,8.409A8.227,8.227,0,0,0,84.122,34.7,8.113,8.113,0,0,0,75.713,26.291Zm0,13.3A4.854,4.854,0,0,1,71.02,34.5a4.854,4.854,0,0,1,4.693-5.084A4.737,4.737,0,0,1,80.406,34.5,4.854,4.854,0,0,1,75.713,39.589ZM54.006,28.833v3.52h8.409a7.394,7.394,0,0,1-1.956,4.5,8.656,8.656,0,0,1-6.453,2.542,9.1,9.1,0,0,1-9.191-9.387,9.225,9.225,0,0,1,9.191-9.387,9.7,9.7,0,0,1,6.453,2.542L63,20.62a12.531,12.531,0,0,0-8.8-3.52A13.192,13.192,0,0,0,41.1,30.006,13.192,13.192,0,0,0,54.2,42.913a11.254,11.254,0,0,0,9-3.716,11.772,11.772,0,0,0,3.129-8.213,7.332,7.332,0,0,0-.2-2.151H54.006Zm88.781,2.738c-.782-1.956-2.738-5.28-7.04-5.28s-7.822,3.324-7.822,8.409a8.184,8.184,0,0,0,8.213,8.409,8.022,8.022,0,0,0,6.844-3.716l-2.738-1.956a4.767,4.767,0,0,1-4.107,2.347,4.243,4.243,0,0,1-4.107-2.542l11.146-4.693-.391-.978Zm-11.342,2.738a4.751,4.751,0,0,1,4.3-4.889,3.459,3.459,0,0,1,3.129,1.76l-7.431,3.129Zm-9.191,8.018h3.716V17.882h-3.716Zm-5.867-14.275a6.439,6.439,0,0,0-4.5-1.956,8.4,8.4,0,0,0-8.018,8.409,8.1,8.1,0,0,0,8.018,8.213,5.615,5.615,0,0,0,4.3-1.956h.2v1.173c0,3.129-1.76,4.889-4.5,4.889a4.345,4.345,0,0,1-4.107-2.933l-3.129,1.369a8.067,8.067,0,0,0,7.431,4.889c4.3,0,7.822-2.542,7.822-8.6V26.682h-3.52v1.369Zm-4.3,11.538a4.854,4.854,0,0,1-4.693-5.084,4.854,4.854,0,0,1,4.693-5.084c2.542,0,4.5,2.151,4.5,5.084S114.628,39.589,112.086,39.589ZM159.8,17.882H151V42.326h3.716V33.135H159.8c4.107,0,8.018-2.933,8.018-7.627S163.907,17.882,159.8,17.882Zm.2,11.733h-5.28V21.207H160a4.3,4.3,0,0,1,4.3,4.107A4.475,4.475,0,0,1,160,29.615Zm22.489-3.52c-2.738,0-5.475,1.173-6.453,3.716l3.324,1.369a3.454,3.454,0,0,1,3.324-1.76,3.675,3.675,0,0,1,3.911,3.129v.2a7.757,7.757,0,0,0-3.716-.978c-3.52,0-7.04,1.956-7.04,5.475,0,3.324,2.933,5.475,6.062,5.475a5.5,5.5,0,0,0,4.693-2.347h.2v1.956h3.52V32.94c-.391-4.3-3.715-6.844-7.822-6.844Zm-.391,13.493c-1.173,0-2.933-.587-2.933-2.151,0-1.956,2.151-2.542,3.911-2.542a7.562,7.562,0,0,1,3.324.782A4.554,4.554,0,0,1,182.094,39.589Zm20.533-12.906-4.107,10.56h-.2l-4.3-10.56h-3.911l6.453,14.862-3.716,8.213h3.716l9.973-23.075ZM169.774,42.326h3.716V17.882h-3.716Z" transform="translate(44.862 17.852)"/><g transform="translate(30 14.294)"><path class="d" d="M10.8,7.5a3.91,3.91,0,0,0-.8,2.8V54.5a3.956,3.956,0,0,0,1,2.8l.2.2L36,32.7v-.4Z" transform="translate(-10 -6.794)"/><path class="e" d="M31.1,32.8l-8.2-8.2V24l8.2-8.2.2.2,9.8,5.6c2.8,1.6,2.8,4.2,0,5.8Z" transform="translate(2.9 1.506)"/><path class="f" d="M43.8,28.4,35.4,20l-25,25c1,1,2.4,1,4.2.2L43.8,28.4" transform="translate(-9.6 5.706)"/><path class="g" d="M43.8,24.429,14.6,7.829c-1.8-1-3.2-.8-4.2.2l25,24.8,8.4-8.4Z" transform="translate(-9.6 -7.123)"/><path class="h" d="M43.6,24.1l-29,16.4a3.271,3.271,0,0,1-4,0l-.2.2.2.2a3.271,3.271,0,0,0,4,0Z" transform="translate(-9.6 9.806)"/><path class="i" d="M10.8,44.6a3.91,3.91,0,0,1-.8-2.8V42a3.956,3.956,0,0,0,1,2.8v-.2h-.2ZM54,22.6,44,28.2l.2.2L54,22.8A3.325,3.325,0,0,0,56,20C56,21,55.2,21.8,54,22.6Z" transform="translate(-10 5.706)"/><path class="j" d="M15,8.053l39,22.2c1.2.8,2,1.6,2,2.6a3.325,3.325,0,0,0-2-2.8L15,7.853c-2.8-1.6-5-.4-5,2.8v.2C10,7.853,12.2,6.453,15,8.053Z" transform="translate(-10 -7.147)"/></g></g></svg>