<svg xmlns="http://www.w3.org/2000/svg" width="30.323" height="35.999" viewBox="0 0 30.323 35.999"><path d="M29.688,28.055a19.572,19.572,0,0,1-1.935,3.48,17.68,17.68,0,0,1-2.493,3.013,4.836,4.836,0,0,1-3.2,1.411,8.031,8.031,0,0,1-2.96-.707,8.493,8.493,0,0,0-3.187-.7,8.781,8.781,0,0,0-3.277.7A8.816,8.816,0,0,1,9.8,36a4.554,4.554,0,0,1-3.277-1.449,18.565,18.565,0,0,1-2.608-3.12,21.577,21.577,0,0,1-2.758-5.478A20.057,20.057,0,0,1,0,19.423a11.922,11.922,0,0,1,1.565-6.237A9.183,9.183,0,0,1,4.844,9.869,8.82,8.82,0,0,1,9.277,8.618a10.437,10.437,0,0,1,3.429.8,11.022,11.022,0,0,0,2.719.8,16.272,16.272,0,0,0,3.015-.942,9.967,9.967,0,0,1,4.1-.728,8.7,8.7,0,0,1,6.817,3.589,7.583,7.583,0,0,0-4.022,6.889,7.6,7.6,0,0,0,2.5,5.726,8.2,8.2,0,0,0,2.493,1.635Q30.023,27.256,29.688,28.055ZM22.741.721a7.68,7.68,0,0,1-1.969,5.037c-1.582,1.85-3.5,2.919-5.571,2.75a5.605,5.605,0,0,1-.042-.682,7.89,7.89,0,0,1,2.089-5.09A8.041,8.041,0,0,1,19.792.825,7.586,7.586,0,0,1,22.7,0a6.539,6.539,0,0,1,.038.72Z" transform="translate(0 -0.001)"/></svg>