<svg xmlns="http://www.w3.org/2000/svg" width="42.012" height="42.014" viewBox="0 0 42.012 42.014"><path d="M449.856,460.527a7,7,0,1,1,7,7,7,7,0,0,1-7-7m-3.786,0a10.787,10.787,0,1,0,10.787-10.787,10.787,10.787,0,0,0-10.787,10.787m19.48-11.215a2.521,2.521,0,1,0,2.522-2.52h0a2.522,2.522,0,0,0-2.521,2.52m-17.18,28.314a11.608,11.608,0,0,1-3.9-.723,6.955,6.955,0,0,1-3.988-3.986,11.6,11.6,0,0,1-.723-3.9c-.1-2.214-.122-2.879-.122-8.489s.022-6.273.122-8.489a11.691,11.691,0,0,1,.723-3.9,6.952,6.952,0,0,1,3.988-3.988,11.6,11.6,0,0,1,3.9-.723c2.214-.1,2.879-.122,8.487-.122s6.273.022,8.489.123a11.685,11.685,0,0,1,3.9.723,6.952,6.952,0,0,1,3.988,3.988,11.6,11.6,0,0,1,.723,3.9c.1,2.216.122,2.88.122,8.489s-.02,6.273-.122,8.489a11.654,11.654,0,0,1-.723,3.9,6.955,6.955,0,0,1-3.988,3.986,11.594,11.594,0,0,1-3.9.723c-2.214.1-2.879.122-8.489.122s-6.273-.02-8.487-.122m-.174-37.979a15.406,15.406,0,0,0-5.1.976,10.74,10.74,0,0,0-6.144,6.144,15.407,15.407,0,0,0-.976,5.1c-.1,2.24-.127,2.956-.127,8.661s.024,6.421.127,8.661a15.405,15.405,0,0,0,.976,5.1,10.74,10.74,0,0,0,6.144,6.144,15.417,15.417,0,0,0,5.1.976c2.241.1,2.956.127,8.661.127s6.421-.024,8.661-.127a15.407,15.407,0,0,0,5.1-.976,10.74,10.74,0,0,0,6.144-6.144,15.362,15.362,0,0,0,.976-5.1c.1-2.242.126-2.956.126-8.661s-.024-6.421-.126-8.661a15.4,15.4,0,0,0-.976-5.1,10.744,10.744,0,0,0-6.143-6.144,15.384,15.384,0,0,0-5.1-.976c-2.24-.1-2.956-.127-8.66-.127s-6.421.024-8.662.127" transform="translate(-435.85 -439.52)" fill="#fff"/></svg>