<svg xmlns="http://www.w3.org/2000/svg" width="33.001" height="39.002" viewBox="0 0 33.001 39.002"><defs><style>.a{fill:#2a2a2a;}</style></defs><g transform="translate(-42.544 0)"><g transform="translate(42.544 0)"><path class="a" d="M44.958,179.141a2.328,2.328,0,0,0-1.711.7,2.3,2.3,0,0,0-.7,1.688V191.61a2.4,2.4,0,0,0,2.414,2.414,2.292,2.292,0,0,0,1.7-.7,2.35,2.35,0,0,0,.691-1.711V181.532a2.4,2.4,0,0,0-2.391-2.391Z" transform="translate(-42.544 -166.508)"/><path class="a" d="M138.823,3.586l1.664-3.07a.309.309,0,0,0-.117-.469.325.325,0,0,0-.469.14l-1.687,3.095a11.756,11.756,0,0,0-9.423,0L127.1.188a.325.325,0,0,0-.469-.14.308.308,0,0,0-.117.469l1.664,3.07a10.277,10.277,0,0,0-4.032,3.6,9.088,9.088,0,0,0-1.5,5.051h21.68a9.09,9.09,0,0,0-1.5-5.051A10.32,10.32,0,0,0,138.823,3.586ZM129.2,8.051a.879.879,0,0,1-.645.27.839.839,0,0,1-.633-.27.934.934,0,0,1,0-1.289.842.842,0,0,1,.633-.269.911.911,0,0,1,.645,1.558Zm9.879,0a.841.841,0,0,1-.633.27.914.914,0,0,1,0-1.828.842.842,0,0,1,.633.269.934.934,0,0,1,0,1.289Z" transform="translate(-117.002 0)"/><path class="a" d="M123.971,201.06a2.56,2.56,0,0,0,2.578,2.578h1.735l.024,5.321a2.33,2.33,0,0,0,.7,1.711,2.3,2.3,0,0,0,1.688.7,2.4,2.4,0,0,0,2.414-2.414v-5.321h3.234v5.321a2.414,2.414,0,1,0,4.828,0v-5.321h1.758a2.463,2.463,0,0,0,1.8-.75,2.487,2.487,0,0,0,.75-1.828V185.45H123.971Z" transform="translate(-118.229 -172.372)"/><path class="a" d="M444.767,179.141a2.323,2.323,0,0,0-1.688.691,2.292,2.292,0,0,0-.7,1.7V191.61a2.328,2.328,0,0,0,.7,1.711,2.3,2.3,0,0,0,1.688.7,2.4,2.4,0,0,0,2.414-2.414V181.532a2.292,2.292,0,0,0-.7-1.7A2.351,2.351,0,0,0,444.767,179.141Z" transform="translate(-414.179 -166.508)"/></g></g></svg>