<svg xmlns="http://www.w3.org/2000/svg" width="36.809" height="43.502" viewBox="0 0 36.809 43.502"><defs><style>.a{fill:#fff;}</style></defs><g transform="translate(-42.544 0)"><g transform="translate(42.544 0)"><path class="a" d="M45.236,179.141a2.6,2.6,0,0,0-1.908.784,2.567,2.567,0,0,0-.784,1.882v11.241a2.678,2.678,0,0,0,2.692,2.693,2.557,2.557,0,0,0,1.9-.784,2.621,2.621,0,0,0,.771-1.909V181.807a2.677,2.677,0,0,0-2.667-2.666Z" transform="translate(-42.544 -165.05)"/><path class="a" d="M140.689,4,142.545.576a.344.344,0,0,0-.13-.523.362.362,0,0,0-.523.156L140.01,3.661a13.113,13.113,0,0,0-10.51,0L127.618.209A.363.363,0,0,0,127.1.053a.344.344,0,0,0-.13.523L128.821,4a11.463,11.463,0,0,0-4.5,4.013,10.136,10.136,0,0,0-1.673,5.634h24.182a10.139,10.139,0,0,0-1.673-5.634A11.511,11.511,0,0,0,140.689,4ZM129.957,8.98a.98.98,0,0,1-.719.3.936.936,0,0,1-.706-.3,1.042,1.042,0,0,1,0-1.437.939.939,0,0,1,.706-.3,1.016,1.016,0,0,1,.719,1.738Zm11.019,0a.938.938,0,0,1-.706.3,1.02,1.02,0,0,1,0-2.039.939.939,0,0,1,.706.3,1.042,1.042,0,0,1,0,1.437Z" transform="translate(-116.35 0)"/><path class="a" d="M123.971,202.861a2.855,2.855,0,0,0,2.875,2.875h1.935l.027,5.935a2.6,2.6,0,0,0,.784,1.909,2.567,2.567,0,0,0,1.882.784,2.678,2.678,0,0,0,2.693-2.693v-5.935h3.608v5.935a2.692,2.692,0,1,0,5.385,0v-5.935h1.961a2.855,2.855,0,0,0,2.849-2.875V185.45h-24Z" transform="translate(-117.566 -170.863)"/><path class="a" d="M445.042,179.141a2.591,2.591,0,0,0-1.882.771,2.556,2.556,0,0,0-.784,1.9v11.241a2.6,2.6,0,0,0,.784,1.909,2.567,2.567,0,0,0,1.882.784,2.678,2.678,0,0,0,2.692-2.693V181.807a2.556,2.556,0,0,0-.784-1.9A2.622,2.622,0,0,0,445.042,179.141Z" transform="translate(-410.926 -165.05)"/></g></g></svg>