<svg xmlns="http://www.w3.org/2000/svg" width="29.476" height="32.654" viewBox="0 0 29.476 32.654"><defs><style>.a{fill:#2a2a2a;}</style></defs><path class="a" d="M-9394.277-2287.13l14.9-14.9,5.006,5.006-17.4,10.012a3.43,3.43,0,0,1-1.358.344A1.551,1.551,0,0,1-9394.277-2287.13Zm-.882-1.118a2.359,2.359,0,0,1-.6-1.669v-26.342a2.331,2.331,0,0,1,.479-1.669l15.019,14.78v.238l-14.78,14.78Zm16.782-14.542v-.358l4.886-4.886.12.118,5.841,3.336c1.667.955,1.667,2.5,0,3.457l-5.841,3.393Zm-15.9-16.018a1.929,1.929,0,0,1,2.5-.12l17.056,10.217-4.657,4.683Z" transform="translate(9395.756 2319.32)"/></svg>