<svg xmlns="http://www.w3.org/2000/svg" xmlns:xlink="http://www.w3.org/1999/xlink" width="750" height="88" viewBox="0 0 750 88">
  <defs>
    <clipPath id="clip-path">
      <rect id="矩形_1002" data-name="矩形 1002" width="750" height="88" fill="#ef5018"/>
    </clipPath>
    <linearGradient id="linear-gradient" x1="0.174" y1="1" x2="0.938" y2="0.229" gradientUnits="objectBoundingBox">
      <stop offset="0" stop-color="#fe647c"/>
      <stop offset="1" stop-color="#ffe6ea"/>
    </linearGradient>
    <clipPath id="clip-path-2">
      <path id="路径_18810" data-name="路径 18810" d="M66.4,51.03c2.216,22.282-11.385,35.555-29.646,36.987S2.486,78.5.272,56.22,9.749,1.485,28.011.051,64.187,28.748,66.4,51.03Z" fill="none"/>
    </clipPath>
    <filter id="矩形_1435" x="578.007" y="11" width="102.318" height="69" filterUnits="userSpaceOnUse">
      <feOffset dy="8" input="SourceAlpha"/>
      <feGaussianBlur result="blur"/>
      <feFlood flood-color="#bb2e2e" flood-opacity="0.902"/>
      <feComposite operator="in" in2="blur"/>
      <feComposite in="SourceGraphic"/>
    </filter>
    <clipPath id="clip-path-3">
      <path id="路径_19587" data-name="路径 19587" d="M11.275,42.458,8.1,25.545,0,23.431V12.861L3.876,4.933,15.856,0H37.878l7.4,4.933s-1.938,11.1-3.524,13.037S31.888,30.3,31.888,30.3s-4.454.124-4.806,2.062-1.988.632-1.459,5.212-3.336-1.251-3.336-1.251L9.866,45.805Z" fill="#fff"/>
    </clipPath>
  </defs>
  <g id="pop_banner_mobile" transform="translate(-16 -119.833)">
    <g id="bg_fr" transform="translate(16 119.833)" clip-path="url(#clip-path)">
      <rect id="矩形_1005" data-name="矩形 1005" width="750" height="88" fill="url(#linear-gradient)"/>
      <g id="组_2944" data-name="组 2944" transform="translate(-31.05 -170.404)">
        <g id="组_2567" data-name="组 2567" transform="translate(155.507 110.337) rotate(13)">
          <path id="路径_18642" data-name="路径 18642" d="M35.845,27.808a17.991,17.991,0,0,1-18.1,18.223C7.845,46.125-.106,38.778,0,28.148S8.3.092,18.2,0,35.95,17.178,35.845,27.808Z" transform="translate(0 0)" fill="#7d26b0"/>
          <g id="组_2552" data-name="组 2552" transform="translate(0.309 0)">
            <path id="路径_18643" data-name="路径 18643" d="M1.628.048A3.245,3.245,0,0,0,0,.59C.033.632.194.589.662.41A4.684,4.684,0,0,1,2.33,0a6.284,6.284,0,0,0-.7.048" transform="translate(15.618 -0.001)" fill="#cb93ec"/>
            <path id="路径_18644" data-name="路径 18644" d="M1.69,1.81C.7,2.663-.082,3.58.006,3.774c.115.033.4-.142.849-.519S4.414.075,4.459.023L4.452,0A4.015,4.015,0,0,0,3.61.415,13.4,13.4,0,0,0,1.69,1.81" transform="translate(9.181 1.234)" fill="#cb93ec"/>
            <path id="路径_18645" data-name="路径 18645" d="M.163.964C-.279,1.845.244,2.505.946,2.3,2.12,1.969,1.791.27,1.309.019,1.232-.021,1.13-.009.854.174a2.22,2.22,0,0,0-.691.79" transform="translate(16.559 0.144)" fill="#cb93ec"/>
            <path id="路径_18646" data-name="路径 18646" d="M.4,2.59c-.9,1.831-.184,2.838,1.01,2.347C3.515,4.073,4.29.438,3.3.037,2.84-.151,2.15.426,1.891.643A6.63,6.63,0,0,0,.4,2.59" transform="translate(10.681 3.575)" fill="#cb93ec"/>
            <path id="路径_18647" data-name="路径 18647" d="M.479,3.48C-.3,5.463-.11,6.77.905,6.392,2.852,5.667,4.432.681,3.359.055,2.886-.22,2.191.6,1.929.912A10.3,10.3,0,0,0,.479,3.48" transform="translate(3.81 10.295)" fill="#cb93ec"/>
            <path id="路径_18648" data-name="路径 18648" d="M0,6.3a.412.412,0,0,0,.011.192H.069C.8,5.719,1.828.729,1.539,0h-.05a.719.719,0,0,0-.1.207A37.979,37.979,0,0,0,0,6.3" transform="translate(-0.002 18.611)" fill="#cb93ec"/>
            <path id="路径_18649" data-name="路径 18649" d="M.562,2.054C1.574,3.976,3.092,4.6,3.4,3.874,3.945,2.588.816-.368.114.038-.023.117,0,.325.01.493A5.294,5.294,0,0,0,.562,2.054" transform="translate(21.094 1.762)" fill="#cb93ec"/>
            <path id="路径_18650" data-name="路径 18650" d="M.011,3.225c.2,2.648,2.971,3.658,4.212,2.1C5.761,3.388,3.775-.254,1.887.014A1.988,1.988,0,0,0,.655.835a3.717,3.717,0,0,0-.644,2.39" transform="translate(18.005 7.42)" fill="#cb93ec"/>
            <path id="路径_18651" data-name="路径 18651" d="M.008,3.674c-.181,2.864,2.621,3.791,4.518,2.21C6.8,3.992,5.706.264,3.41.013A2.818,2.818,0,0,0,1.16.989,4.551,4.551,0,0,0,.008,3.674" transform="translate(10.492 15.331)" fill="#cb93ec"/>
            <path id="路径_18652" data-name="路径 18652" d="M0,3.425c.045,2.226,1.9,3.838,3.516,2.333C5.728,3.694,4.62-.021,2.429,0A2.2,2.2,0,0,0,.772.94,4.088,4.088,0,0,0,0,3.425" transform="translate(3.529 23.796)" fill="#cb93ec"/>
            <path id="路径_18653" data-name="路径 18653" d="M.578,3.439c.8,1.922,2.087,3.1,2.408,2.212C3.575,4.023,1.34-.619.3.069.036.243.014.695,0,.965A6.591,6.591,0,0,0,.578,3.439" transform="translate(0.836 32.013)" fill="#cb93ec"/>
            <path id="路径_18654" data-name="路径 18654" d="M.292,3.539c.786,2.473,2.66,3.655,3.337,2.589C4.612,4.581,2.3-.331.748.018.294.12.144.67.072.935a5.41,5.41,0,0,0,.219,2.6" transform="translate(27.575 11.406)" fill="#cb93ec"/>
            <path id="路径_18655" data-name="路径 18655" d="M.029,3.606c.36,2.8,3.6,3.622,5.021,1.872C6.667,3.486,4.849-.29,2.421.017A2.659,2.659,0,0,0,.766.987,3.536,3.536,0,0,0,.029,3.606" transform="translate(22.376 19.791)" fill="#cb93ec"/>
            <path id="路径_18656" data-name="路径 18656" d="M.024,3.748A3.3,3.3,0,0,0,5.8,5.428,3.262,3.262,0,0,0,2.983.019,3.457,3.457,0,0,0,.929.987a3.552,3.552,0,0,0-.9,2.761" transform="translate(13.995 27.9)" fill="#cb93ec"/>
            <path id="路径_18657" data-name="路径 18657" d="M.353,2.976c1.068,2,3.7,2.912,4.406,1.046C5.578,1.852,2.765-.831.8.245A1.506,1.506,0,0,0,.186.868,2.226,2.226,0,0,0,.353,2.976" transform="translate(8.323 36.152)" fill="#cb93ec"/>
            <path id="路径_18658" data-name="路径 18658" d="M.852,3.168c.386,1.51.517,2.036.6,2.49Q1.29,4.74,1.074,3.8C.79,2.568.437,1.317.024.071L0,0C.058.178.071.221.153.5c.169.6.274,1,.7,2.665" transform="translate(33.678 17.024)" fill="#cb93ec"/>
            <path id="路径_18659" data-name="路径 18659" d="M0,3.455C.043,5.449.783,7.107,1.588,6.2,2.777,4.855,2.562-.01,1.314,0,.859,0,.551.636.42.907A6.2,6.2,0,0,0,0,3.455" transform="translate(32.884 24.868)" fill="#cb93ec"/>
            <path id="路径_18660" data-name="路径 18660" d="M.07,3.317c-.363,1.835.7,3.1,2.456,1.966C4.791,3.818,5.4.272,3.429.013A2.813,2.813,0,0,0,1.35.934,4.84,4.84,0,0,0,.07,3.317" transform="translate(25.989 33.133)" fill="#cb93ec"/>
            <path id="路径_18661" data-name="路径 18661" d="M0,2.289c-.047,1.585,1.7,2.093,3.387.465C4.712,1.479,4.335-.014,2.692,0A3.063,3.063,0,0,0,.88.67,2.3,2.3,0,0,0,0,2.289" transform="translate(18.558 40.207)" fill="#cb93ec"/>
            <path id="路径_18662" data-name="路径 18662" d="M.605.983A3.117,3.117,0,0,0,1.839,1.3c.022-.094.071-.181.084-.277A.62.62,0,0,0,1.908.772a.907.907,0,0,0-.338-.46A1.483,1.483,0,0,0,.185.088.313.313,0,0,0,0,.327C0,.416.011.688.605.983" transform="translate(15.528 44.707)" fill="#cb93ec"/>
            <path id="路径_18663" data-name="路径 18663" d="M1.483,2.782C.173,4.4.006,4.614,0,4.719c.048,0,.137,0,.7-.5q.276-.249.542-.51A17.577,17.577,0,0,0,3.05,1.625q.345-.466.661-.957c.337-.53.326-.614.319-.664-.1-.048-.421.276-.877.778-.431.488-.758.873-1.669,2" transform="translate(28.981 37.162)" fill="#cb93ec"/>
            <path id="路径_18664" data-name="路径 18664" d="M1.488,1.638A15.5,15.5,0,0,0,0,2.51l0,.028C.975,2.635,5.324.716,4.976.071c-.055-.1-.33-.184-1.547.427-.574.3-.651.351-1.94,1.14" transform="translate(21.228 42.916)" fill="#cb93ec"/>
            <path id="路径_18665" data-name="路径 18665" d="M0,.214a4.009,4.009,0,0,0,1.462-.2l0-.01A2.642,2.642,0,0,0,.723.12,3.773,3.773,0,0,1,0,.214" transform="translate(17.495 45.816)" fill="#cb93ec"/>
          </g>
        </g>
        <path id="路径_18768" data-name="路径 18768" d="M51.895,37.141s-3.413-6.94-8.263-11a37.669,37.669,0,0,0-9.943-5.688,28.016,28.016,0,0,0-2.911-2.863C36.53,3.313,35.3.454,34.961.006l-.974.669A.142.142,0,0,1,33.967.65c.129.317,1.15,3.639-5.529,19.4a30.867,30.867,0,0,1-4.063,1.726,37.382,37.382,0,0,0-12.059.033C6.187,23.008,0,27.447,0,27.447A19.006,19.006,0,0,0,12.466,30.22c5.806-.8,10.452-5.874,11.952-7.7,1.191-.433,2.567-.96,3.578-1.436a92.63,92.63,0,0,0-4.3,12.352,8.087,8.087,0,0,0-5.783,3.357A32.939,32.939,0,0,0,8.3,42.421C4.014,46.248,1.274,52.783,1.274,52.783a17.018,17.018,0,0,0,11.266-3.475c4.139-3.279,5.383-9.433,5.714-11.755A7.386,7.386,0,0,1,23.5,34.177a89.789,89.789,0,0,0-2.553,14.167c-1.334,2.624-3.518,7.953-2.272,12.868a18.559,18.559,0,0,0,7.274,10.349s1.864-7.311.7-13.359a35.817,35.817,0,0,0-4.372-10.857,89.705,89.705,0,0,1,3.062-15.226,35.681,35.681,0,0,1,1.681,3.238C26.8,36.9,26.126,43.408,29.3,47.823a16.467,16.467,0,0,0,9.158,6.169s-.921-6.529-3.831-11.09a31.905,31.905,0,0,0-6.654-7.187,34.349,34.349,0,0,0-2.372-4.49,90.521,90.521,0,0,1,3.53-9.688q.739-1.721,1.37-3.265a24.107,24.107,0,0,1,2.031,1.968v0c.256,1.447,1.859,9.3,7.12,13.233A18.987,18.987,0,0,0,51.895,37.141Z" transform="translate(1001.113 212.619) rotate(155)" fill="#ffd599"/>
        <path id="路径_18709" data-name="路径 18709" d="M-1199.917,261.9s-3.641,7.49-8.925,11.82a40.08,40.08,0,0,1-10.882,6.009,29.233,29.233,0,0,1-3.163,3.063c6.627,15.636,5.318,18.725,4.956,19.206l-1.089-.745a.152.152,0,0,0-.021.026c.137-.342,1.2-3.938-6.478-21.21a35.687,35.687,0,0,0-4.523-1.951,41.958,41.958,0,0,1-13.329-.255c-6.8-1.413-13.715-6.355-13.715-6.355a20.761,20.761,0,0,1,13.721-2.792c6.433.974,11.664,6.58,13.356,8.593,1.324.493,2.856,1.091,3.981,1.627a102.99,102.99,0,0,1-4.985-13.517,9.345,9.345,0,0,1-6.456-3.757,38.161,38.161,0,0,1-10.729-6.3c-4.812-4.241-7.964-11.4-7.964-11.4a19.494,19.494,0,0,1,12.518,3.985c4.636,3.643,6.128,10.36,6.538,12.894a8.534,8.534,0,0,0,5.864,3.768,98.106,98.106,0,0,1-3.09-15.461c-1.525-2.879-4.038-8.716-2.755-14.042a19.307,19.307,0,0,1,7.845-11.128s2.2,7.988,1.021,14.547a37.285,37.285,0,0,1-4.628,11.733,98.237,98.237,0,0,0,3.672,16.622,36.981,36.981,0,0,0,1.8-3.492c-.267-1.687-1.138-8.776,2.287-13.522a17.48,17.48,0,0,1,10.006-6.547s-.895,7.087-4.024,12a33.232,33.232,0,0,1-7.219,7.7,35.66,35.66,0,0,1-2.536,4.842,100.826,100.826,0,0,0,4.085,10.6q.849,1.886,1.575,3.577a25.138,25.138,0,0,0,2.208-2.1v0c.255-1.57,1.879-10.086,7.619-14.27A20.775,20.775,0,0,1-1199.917,261.9Z" transform="translate(1331.568 -39.198)" fill="#ffd599"/>
        <path id="路径_18701" data-name="路径 18701" d="M-1058.824,33.385c0,61.892-52.436,112.068-117.114,112.068a119.637,119.637,0,0,1-78.923-29.277c-20.649,61.322-80.783,105.69-151.743,105.69a165.048,165.048,0,0,1-48.541-7.219,83.982,83.982,0,0,1-55.5,20.631c-45.436,0-82.239-35.234-82.239-78.7a75.972,75.972,0,0,1,14.894-45.172c-33.244-8.142-60.8-29.915-75.785-58.721a60.844,60.844,0,0,1-21.541,3.911c-32.331,0-58.539-25.079-58.539-56.033,0-30.938,26.208-56.033,58.539-56.033a60.6,60.6,0,0,1,23.576,4.734c19.858-34.833,58.487-58.469,102.87-58.469a121.469,121.469,0,0,1,33.208,4.583,89.8,89.8,0,0,1,64.013-26.372c36.575,0,67.958,21.337,81.273,51.7,2.773.6,5.51,1.293,8.211,2.048a91.115,91.115,0,0,1,37.12-7.823c29.313,0,57.928,3.015,73.926,24.066,20.683-17.643,45.31-17.671,75.185-17.671C-1111.26-78.667-1058.824-28.507-1058.824,33.385Z" transform="translate(1742.965 210.66)" fill="#fed2d9"/>
        <path id="路径_18763" data-name="路径 18763" d="M792.739,180.225c-34.4-63.067-67.348-151.685-145.982-152.095A144.165,144.165,0,0,0,555.868,59.21,110.074,110.074,0,0,0,473.4,21.892c-37.326-.195-70.085,17.929-89.113,45.558C358.4,31.906,315.481,8.51,267.041,8.257a146.2,146.2,0,0,0-58.566,11.761A110.765,110.765,0,0,0,145.28.009C86.111-.3,38.4,45.405,38.707,102.1c.006,1.123.037,2.245.079,3.356C16.261,111.646-.12,131.526.009,155.18.165,183.9,24.6,207.318,54.563,207.474a54.656,54.656,0,0,0,39-15.733A110.917,110.917,0,0,0,140.8,205.154c23.639,44.771,72.029,75.66,127.722,75.95,41.618.217,78.983-16.7,104.859-43.85a73.444,73.444,0,0,0,46.342,16.6,71.761,71.761,0,0,0,50.967-20.433c3.568,25.582,26.474,45.45,54.076,45.594a55.207,55.207,0,0,0,32.264-10.044,146.961,146.961,0,0,0,91.208,32.006C726.876,301.389,748.969,240.286,792.739,180.225Z" transform="translate(1107.282 298.702) rotate(173)" fill="#f75b73"/>
        <g id="组_2570" data-name="组 2570" transform="translate(814.253 184.786)">
          <path id="路径_18769" data-name="路径 18769" d="M-287.791,297.809a23.314,23.314,0,0,1,5.939-6.895c2.525-1.776,5.94-2.656,8.855-1.556,4.566,1.721,6,7.2,6.172,11.9a53.379,53.379,0,0,1-10.036,32.865,55.218,55.218,0,0,1,19.382-17.7c2.963-1.624,6.491-3.016,9.712-1.933,3.585,1.205,5.467,5.234,5.139,8.856s-2.383,6.881-4.628,9.815a71.384,71.384,0,0,1-26.393,21.126,36.706,36.706,0,0,1-13.86,3.865c-6.24.257-12.51-2.126-15.64-7.493-2.887-4.951-1.285-8.434.132-13.451C-299.087,323.286-295.722,310.323-287.791,297.809Z" transform="translate(304.758 -288.873)" fill="#a354d2"/>
          <g id="组_2569" data-name="组 2569" transform="translate(7.687 8.95)">
            <line id="直线_86" data-name="直线 86" x1="21.785" y2="50.144" transform="translate(0)" fill="none" stroke="#fff" stroke-miterlimit="10" stroke-width="1"/>
            <line id="直线_87" data-name="直线 87" x1="36.505" y2="26.984" transform="translate(10.892 25.695)" fill="none" stroke="#fff" stroke-miterlimit="10" stroke-width="1"/>
            <line id="直线_88" data-name="直线 88" y1="8.43" x2="8.444" transform="translate(17.021 2.535)" fill="none" stroke="#fff" stroke-miterlimit="10" stroke-width="0.75"/>
            <line id="直线_89" data-name="直线 89" y1="13.721" x2="1.626" transform="translate(15.396 0.986)" fill="none" stroke="#fff" stroke-miterlimit="10" stroke-width="0.75"/>
            <line id="直线_90" data-name="直线 90" y1="9.581" x2="12.799" transform="translate(12.666 11.409)" fill="none" stroke="#fff" stroke-miterlimit="10" stroke-width="0.75"/>
            <line id="直线_91" data-name="直线 91" y1="20.144" x2="0.732" transform="translate(8.689 10.001)" fill="none" stroke="#fff" stroke-miterlimit="10" stroke-width="0.75"/>
            <line id="直线_92" data-name="直线 92" y1="11.965" x2="15.023" transform="translate(4.042 28.875)" fill="none" stroke="#fff" stroke-miterlimit="10" stroke-width="0.75"/>
            <path id="路径_18770" data-name="路径 18770" d="M-241.737,354.281c.187-.43.749-20.841.749-20.841" transform="translate(242.902 -306.818)" fill="none" stroke="#fff" stroke-miterlimit="10" stroke-width="0.75"/>
            <line id="直线_93" data-name="直线 93" y1="10.385" x2="4.886" transform="translate(39.714 20.99)" fill="none" stroke="#fff" stroke-miterlimit="10" stroke-width="0.75"/>
            <line id="直线_94" data-name="直线 94" y1="2.893" x2="12.185" transform="translate(35.801 31.375)" fill="none" stroke="#fff" stroke-miterlimit="10" stroke-width="0.75"/>
            <line id="直线_95" data-name="直线 95" y1="11.862" x2="4.857" transform="translate(29.145 27.326)" fill="none" stroke="#fff" stroke-miterlimit="10" stroke-width="0.75"/>
            <line id="直线_96" data-name="直线 96" y1="2.79" x2="14.988" transform="translate(23.135 40.84)" fill="none" stroke="#fff" stroke-miterlimit="10" stroke-width="0.75"/>
            <line id="直线_97" data-name="直线 97" y1="9.563" x2="3.958" transform="translate(16.208 39.188)" fill="none" stroke="#fff" stroke-miterlimit="10" stroke-width="0.75"/>
            <line id="直线_98" data-name="直线 98" y1="2.223" x2="14.03" transform="translate(13.201 48.75)" fill="none" stroke="#fff" stroke-miterlimit="10" stroke-width="0.75"/>
          </g>
        </g>
        <path id="路径_19555" data-name="路径 19555" d="M.007,92.921c.22,35.485,30.41,64.431,67.429,64.651A67.63,67.63,0,0,0,112.5,141.055c12.037,35.228,46.613,60.87,87.227,61.112a93.826,93.826,0,0,0,27.757-3.974,48.576,48.576,0,0,0,31.842,12.017c26.006.155,46.945-19.921,46.79-44.839a44.069,44.069,0,0,0-8.685-25.95A65.582,65.582,0,0,0,340.6,106.012a35,35,0,0,0,12.343,2.316c18.5.11,33.416-14.18,33.306-31.927s-15.2-32.215-33.7-32.325a34.4,34.4,0,0,0-13.477,2.634c-11.49-20.038-33.683-33.721-59.086-33.872a69.075,69.075,0,0,0-18.99,2.514A51.989,51.989,0,0,0,224.261.014c-20.934-.124-38.821,12-46.333,29.367-1.585.337-3.149.722-4.692,1.146a52.461,52.461,0,0,0-21.273-4.611A50.371,50.371,0,0,0,111.291,45.6,69.176,69.176,0,0,0,66.64,29.076C29.62,28.856-.213,57.436.007,92.921Z" transform="translate(709.724 196.563) rotate(-8)" fill="#a354d2"/>
        <g id="组_2557" data-name="组 2557" transform="translate(57.442 212.71) rotate(17)">
          <path id="路径_18675" data-name="路径 18675" d="M35.446,27.532A17.933,17.933,0,0,1,17.5,45.654,17.219,17.219,0,0,1,4.484,40.243,17.5,17.5,0,0,1,0,27.961C.066,22.525,2.269,15.29,5.727,9.542,8.972,4.143,13.33.056,18.07,0,27.857-.12,35.578,16.991,35.446,27.532Z" transform="translate(0 0)" fill="#cb93ec"/>
          <g id="组_2556" data-name="组 2556" transform="translate(0.316 0)">
            <path id="路径_18677" data-name="路径 18677" d="M1.611.05A3.216,3.216,0,0,0,0,.591C.033.633.192.589.655.411A4.644,4.644,0,0,1,2.306,0a6.188,6.188,0,0,0-.695.05" transform="translate(15.508 -0.002)" fill="#7d26b0"/>
            <path id="路径_18678" data-name="路径 18678" d="M1.675,1.8C.7,2.65-.081,3.563.006,3.754c.114.032.4-.142.84-.517S4.374.075,4.418.023L4.411,0a4,4,0,0,0-.833.414A13.363,13.363,0,0,0,1.675,1.8" transform="translate(9.132 1.234)" fill="#7d26b0"/>
            <path id="路径_18679" data-name="路径 18679" d="M.162.958c-.439.876.077,1.529.772,1.328C2.095,1.95,1.774.267,1.3.018,1.223-.021,1.121-.009.848.174A2.216,2.216,0,0,0,.162.958" transform="translate(16.434 0.143)" fill="#7d26b0"/>
            <path id="路径_18680" data-name="路径 18680" d="M.4,2.575C-.49,4.394.214,5.391,1.4,4.9,3.475,4.038,4.251.431,3.275.036c-.456-.185-1.139.389-1.4.606A6.614,6.614,0,0,0,.4,2.575" transform="translate(10.608 3.556)" fill="#7d26b0"/>
            <path id="路径_18681" data-name="路径 18681" d="M.479,3.458C-.3,5.427-.112,6.722.893,6.345,2.819,5.621,4.4.672,3.335.054,2.869-.218,2.179.6,1.919.908a10.285,10.285,0,0,0-1.44,2.55" transform="translate(3.792 10.239)" fill="#7d26b0"/>
            <path id="路径_18682" data-name="路径 18682" d="M0,6.251a.415.415,0,0,0,.011.191H.067C.8,5.674,1.823.722,1.539,0H1.489a.719.719,0,0,0-.1.205A37.881,37.881,0,0,0,0,6.251" transform="translate(-0.002 18.5)" fill="#7d26b0"/>
            <path id="路径_18683" data-name="路径 18683" d="M.551,2.036c.995,1.9,2.495,2.521,2.8,1.8C3.895,2.557.808-.366.113.038-.022.117,0,.323.009.489A5.219,5.219,0,0,0,.551,2.036" transform="translate(20.918 1.738)" fill="#7d26b0"/>
            <path id="路径_18684" data-name="路径 18684" d="M.01,3.2C.2,5.829,2.937,6.825,4.169,5.273,5.695,3.351,3.741-.256,1.873.014A1.979,1.979,0,0,0,.653.832,3.712,3.712,0,0,0,.01,3.2" transform="translate(17.841 7.353)" fill="#7d26b0"/>
            <path id="路径_18685" data-name="路径 18685" d="M.009,3.652C-.178,6.493,2.59,7.405,4.469,5.832,6.718,3.95,5.652.255,3.382.012A2.8,2.8,0,0,0,1.155.986,4.548,4.548,0,0,0,.009,3.652" transform="translate(10.389 15.216)" fill="#7d26b0"/>
            <path id="路径_18686" data-name="路径 18686" d="M0,3.4C.039,5.611,1.873,7.2,3.47,5.708,5.662,3.655,4.576-.026,2.411,0A2.191,2.191,0,0,0,.77.937,4.081,4.081,0,0,0,0,3.4" transform="translate(3.483 23.631)" fill="#7d26b0"/>
            <path id="路径_18687" data-name="路径 18687" d="M.564,3.41c.79,1.9,2.055,3.069,2.375,2.188C3.526,3.982,1.329-.617.3.069.038.242.014.69,0,.958A6.526,6.526,0,0,0,.564,3.41" transform="translate(0.804 31.792)" fill="#7d26b0"/>
            <path id="路径_18688" data-name="路径 18688" d="M.284,3.512C1.054,5.963,2.9,7.13,3.576,6.071,4.553,4.534,2.277-.332.744.018.3.12.146.667.074.93a5.371,5.371,0,0,0,.21,2.582" transform="translate(27.296 11.285)" fill="#7d26b0"/>
            <path id="路径_18689" data-name="路径 18689" d="M.027,3.583c.348,2.773,3.55,3.583,4.96,1.843C6.591,3.447,4.8-.293,2.4.018A2.648,2.648,0,0,0,.763.984a3.531,3.531,0,0,0-.736,2.6" transform="translate(22.13 19.61)" fill="#7d26b0"/>
            <path id="路径_18690" data-name="路径 18690" d="M.023,3.726a3.246,3.246,0,0,0,5.71,1.651A3.223,3.223,0,0,0,2.958.02,3.435,3.435,0,0,0,.925.985a3.545,3.545,0,0,0-.9,2.741" transform="translate(13.82 27.672)" fill="#7d26b0"/>
            <path id="路径_18691" data-name="路径 18691" d="M.346,2.955C1.4,4.94,4,5.834,4.7,3.982,5.515,1.827,2.741-.827.794.246A1.5,1.5,0,0,0,.187.865,2.212,2.212,0,0,0,.346,2.955" transform="translate(8.194 35.875)" fill="#7d26b0"/>
            <path id="路径_18692" data-name="路径 18692" d="M.834,3.14c.377,1.5.506,2.018.588,2.469q-.159-.911-.37-1.842C.774,2.545.429,1.3.023.07L0,0C.057.176.07.22.151.5c.165.6.268.993.683,2.641" transform="translate(33.32 16.843)" fill="#7d26b0"/>
            <path id="路径_18693" data-name="路径 18693" d="M0,3.43C.036,5.408.764,7.049,1.562,6.146,2.741,4.811,2.542-.013,1.308,0,.858,0,.552.633.422.9A6.182,6.182,0,0,0,0,3.43" transform="translate(32.505 24.621)" fill="#7d26b0"/>
            <path id="路径_18694" data-name="路径 18694" d="M.071,3.3C-.292,5.119.755,6.373,2.495,5.242,4.738,3.783,5.347.264,3.4.012A2.8,2.8,0,0,0,1.343.931,4.835,4.835,0,0,0,.071,3.3" transform="translate(25.664 32.831)" fill="#7d26b0"/>
            <path id="路径_18695" data-name="路径 18695" d="M0,2.277C-.05,3.849,1.673,4.349,3.348,2.73,4.661,1.461,4.292-.019,2.668,0A3.037,3.037,0,0,0,.875.669,2.293,2.293,0,0,0,0,2.277" transform="translate(18.301 39.868)" fill="#7d26b0"/>
            <path id="路径_18696" data-name="路径 18696" d="M.6.975a3.065,3.065,0,0,0,1.218.315c.022-.093.071-.18.084-.275A.611.611,0,0,0,1.886.762.894.894,0,0,0,1.553.307,1.46,1.46,0,0,0,.184.088.313.313,0,0,0,0,.326C0,.415.01.684.6.975" transform="translate(15.298 44.344)" fill="#7d26b0"/>
            <path id="路径_18697" data-name="路径 18697" d="M1.471,2.766C.172,4.375.006,4.586,0,4.691c.047,0,.136,0,.689-.5q.274-.248.537-.507a17.517,17.517,0,0,0,1.8-2.071q.342-.463.656-.951C4.014.137,4,.054,4,0c-.1-.048-.417.275-.869.774-.427.485-.752.868-1.656,1.987" transform="translate(28.609 36.818)" fill="#7d26b0"/>
            <path id="路径_18698" data-name="路径 18698" d="M1.474,1.633A15.421,15.421,0,0,0,0,2.5L0,2.53C.964,2.623,5.269.709,4.926.07,4.872-.032,4.6-.112,3.4.5c-.568.3-.645.35-1.921,1.135" transform="translate(20.933 42.543)" fill="#7d26b0"/>
            <path id="路径_18699" data-name="路径 18699" d="M0,.216a3.967,3.967,0,0,0,1.446-.2l0-.011A2.625,2.625,0,0,0,.716.121,3.733,3.733,0,0,1,0,.216" transform="translate(17.241 45.437)" fill="#7d26b0"/>
          </g>
        </g>
        <g id="组_2625" data-name="组 2625" transform="translate(176.06 35.606) rotate(-9)">
          <path id="路径_18807" data-name="路径 18807" d="M66.4,51.03c2.216,22.282-11.385,35.555-29.646,36.987S2.486,78.5.272,56.22,9.749,1.485,28.011.051,64.187,28.748,66.4,51.03Z" transform="translate(0 0)" fill="#a354d2"/>
          <g id="组_2624" data-name="组 2624" transform="translate(0 0)">
            <g id="组_2623" data-name="组 2623" clip-path="url(#clip-path-2)">
              <g id="组_2622" data-name="组 2622" transform="translate(17.808 -9.446)">
                <path id="路径_18808" data-name="路径 18808" d="M19.891,106.95c-8.935.7-16.345-15.313-18.879-40.8C-1.589,39.983.727.679,9.26.009S27.828,37.675,30.429,63.846C32.962,89.33,28.826,106.249,19.891,106.95ZM9.386,1.282C2.493,1.823-.428,38.229,2.337,66.051c2.794,28.1,10.765,40.15,17.426,39.627S31.9,92.05,29.1,63.95C26.338,36.128,16.28.742,9.386,1.282Z" fill="#fff"/>
              </g>
              <path id="路径_18809" data-name="路径 18809" d="M20.761.031C4.655,1.3-2.067,42.017.556,68.4c2.969,29.858,17.754,42.166,31.09,41.12s25.464-15.467,22.5-45.325C51.52,37.812,36.869-1.233,20.761.031ZM4.532,68.085c-2.5-25.151,4.22-59.13,14.658-63.72L29.266,105.73C16.579,105.243,6.759,90.489,4.532,68.085Zm28.71,37.332L23.166,4.054c11.181,2.892,24.5,35.3,27,60.45C52.393,86.907,45.637,102.964,33.241,105.417Z" transform="translate(6.18 -10.74)" fill="#ffd599"/>
            </g>
          </g>
          <path id="路径_18811" data-name="路径 18811" d="M60.7,0A67.117,67.117,0,0,0,49.351,32.311C31.731,35.106,12.792,28.577.132,16.262a61.266,61.266,0,0,0,.132,9.731c2.214,22.282,18.223,33.231,36.484,31.8S68.61,43.086,66.394,20.8A71.707,71.707,0,0,0,60.7,0Z" transform="translate(0.008 30.226)" fill="#5d53bf" opacity="0.5" style="mix-blend-mode: multiply;isolation: isolate"/>
          <path id="路径_18812" data-name="路径 18812" d="M15.479,6.464c5.9,5.374,8.874,11.562,6.638,13.823s-8.831-.261-14.734-5.634S-1.491,3.091.744.829,9.576,1.091,15.479,6.464Z" transform="translate(28.153 1.866)" fill="#5d53bf" opacity="0.5" style="mix-blend-mode: screen;isolation: isolate"/>
        </g>
        <g id="组_2656" data-name="组 2656" transform="matrix(0.995, -0.105, 0.105, 0.995, 0, 206.898)">
          <path id="路径_18842" data-name="路径 18842" d="M44.523,8.887a23.346,23.346,0,0,0-5.9-6.84C36.125.28,32.748-.606,29.874.468c-4.5,1.682-5.895,7.092-6.04,11.73A53.2,53.2,0,0,0,33.9,44.728,55.3,55.3,0,0,0,14.676,27.147c-2.934-1.619-6.424-3.01-9.6-1.954C1.541,26.369-.3,30.342.041,33.924s2.386,6.812,4.616,9.721a71.442,71.442,0,0,0,26.159,21,36.468,36.468,0,0,0,13.7,3.881c6.163.282,12.344-2.045,15.411-7.337,2.827-4.881,1.229-8.331-.192-13.3C55.794,34.12,52.412,21.292,44.523,8.887Z" transform="translate(0 0)" fill="#a354d2"/>
          <g id="组_2655" data-name="组 2655" transform="translate(6.445 8.846)">
            <line id="直线_99" data-name="直线 99" x2="21.744" y2="49.66" transform="translate(25.729 0.001)" fill="none" stroke="#fff" stroke-miterlimit="10" stroke-width="1"/>
            <line id="直线_100" data-name="直线 100" x2="36.172" y2="26.833" transform="translate(0.557 25.286)" fill="none" stroke="#fff" stroke-miterlimit="10" stroke-width="1"/>
            <line id="直线_101" data-name="直线 101" x1="8.377" y1="8.37" transform="translate(22.107 2.491)" fill="none" stroke="#fff" stroke-miterlimit="10" stroke-width="0.75"/>
            <line id="直线_102" data-name="直线 102" x1="1.669" y1="13.57" transform="translate(30.438 0.997)" fill="none" stroke="#fff" stroke-miterlimit="10" stroke-width="0.75"/>
            <line id="直线_103" data-name="直线 103" x1="12.683" y1="9.527" transform="translate(22.148 11.262)" fill="none" stroke="#fff" stroke-miterlimit="10" stroke-width="0.75"/>
            <line id="直线_104" data-name="直线 104" x1="0.816" y1="19.914" transform="translate(37.985 9.941)" fill="none" stroke="#fff" stroke-miterlimit="10" stroke-width="0.75"/>
            <line id="直线_105" data-name="直线 105" x1="14.89" y1="11.893" transform="translate(28.548 28.554)" fill="none" stroke="#fff" stroke-miterlimit="10" stroke-width="0.75"/>
            <path id="路径_18843" data-name="路径 18843" d="M.836,20.6C.65,20.177,0,0,0,0" transform="translate(45.475 26.402)" fill="#a354d2" stroke="#fff" stroke-miterlimit="10" stroke-width="0.75"/>
            <line id="直线_106" data-name="直线 106" x1="4.873" y1="10.286" transform="translate(3.297 20.647)" fill="none" stroke="#fff" stroke-miterlimit="10" stroke-width="0.75"/>
            <line id="直线_107" data-name="直线 107" x1="12.046" y1="2.913" transform="translate(0.001 30.897)" fill="none" stroke="#fff" stroke-miterlimit="10" stroke-width="0.75"/>
            <line id="直线_108" data-name="直线 108" x1="4.851" y1="11.746" transform="translate(13.791 26.957)" fill="none" stroke="#fff" stroke-miterlimit="10" stroke-width="0.75"/>
            <line id="直线_109" data-name="直线 109" x1="14.814" y1="2.824" transform="translate(9.784 40.296)" fill="none" stroke="#fff" stroke-miterlimit="10" stroke-width="0.75"/>
            <line id="直线_110" data-name="直线 110" x1="3.952" y1="9.469" transform="translate(27.509 38.742)" fill="none" stroke="#fff" stroke-miterlimit="10" stroke-width="0.75"/>
            <line id="直线_111" data-name="直线 111" x1="13.865" y1="2.259" transform="translate(20.577 48.163)" fill="none" stroke="#fff" stroke-miterlimit="10" stroke-width="0.75"/>
          </g>
        </g>
        <g id="组_2961" data-name="组 2961" transform="matrix(-0.995, -0.105, 0.105, -0.995, 611.003, 279.22)">
          <path id="路径_18842-2" data-name="路径 18842" d="M40.374,54.1a21.172,21.172,0,0,1-5.347,6.2A8.842,8.842,0,0,1,27.09,61.74c-4.082-1.525-5.346-6.432-5.478-10.638a48.244,48.244,0,0,1,9.126-29.5A50.149,50.149,0,0,1,13.306,37.544c-2.661,1.468-5.826,2.73-8.707,1.772C1.4,38.25-.273,34.647.035,31.4S2.2,25.22,4.221,22.582A64.79,64.79,0,0,1,27.944,3.538,33.073,33.073,0,0,1,40.373.019c5.589-.255,11.195,1.854,13.976,6.653,2.564,4.427,1.115,7.555-.174,12.058C50.6,31.221,47.529,42.854,40.374,54.1Z" transform="translate(0 0)" fill="#a354d2"/>
          <g id="组_2655-2" data-name="组 2655" transform="translate(5.844 6.877)">
            <line id="直线_99-2" data-name="直线 99" y1="45.037" x2="19.719" transform="translate(23.331 2.228)" fill="none" stroke="#fff" stroke-miterlimit="10" stroke-width="1"/>
            <line id="直线_100-2" data-name="直线 100" y1="24.335" x2="32.804" transform="translate(0.503 -0.002)" fill="none" stroke="#fff" stroke-miterlimit="10" stroke-width="1"/>
            <line id="直线_101-2" data-name="直线 101" x1="7.597" y2="7.59" transform="translate(20.046 37.416)" fill="none" stroke="#fff" stroke-miterlimit="10" stroke-width="0.75"/>
            <line id="直线_102-2" data-name="直线 102" x1="1.513" y2="12.306" transform="translate(27.602 34.055)" fill="none" stroke="#fff" stroke-miterlimit="10" stroke-width="0.75"/>
            <line id="直线_103-2" data-name="直线 103" x1="11.502" y2="8.64" transform="translate(20.084 28.412)" fill="none" stroke="#fff" stroke-miterlimit="10" stroke-width="0.75"/>
            <line id="直线_104-2" data-name="直线 104" x1="0.74" y2="18.06" transform="translate(34.446 20.19)" fill="none" stroke="#fff" stroke-miterlimit="10" stroke-width="0.75"/>
            <line id="直线_105-2" data-name="直线 105" x1="13.504" y2="10.786" transform="translate(25.888 10.584)" fill="none" stroke="#fff" stroke-miterlimit="10" stroke-width="0.75"/>
            <path id="路径_18843-2" data-name="路径 18843" d="M.757,0C.588.387,0,18.686,0,18.686" transform="translate(41.239 4.636)" fill="#a354d2" stroke="#fff" stroke-miterlimit="10" stroke-width="0.75"/>
            <line id="直线_106-2" data-name="直线 106" x1="4.419" y2="9.328" transform="translate(2.987 19.212)" fill="none" stroke="#fff" stroke-miterlimit="10" stroke-width="0.75"/>
            <line id="直线_107-2" data-name="直线 107" x1="10.924" y2="2.642" transform="translate(-0.001 16.603)" fill="none" stroke="#fff" stroke-miterlimit="10" stroke-width="0.75"/>
            <line id="直线_108-2" data-name="直线 108" x1="4.4" y2="10.652" transform="translate(12.505 12.166)" fill="none" stroke="#fff" stroke-miterlimit="10" stroke-width="0.75"/>
            <line id="直线_109-2" data-name="直线 109" x1="13.434" y2="2.561" transform="translate(8.871 8.16)" fill="none" stroke="#fff" stroke-miterlimit="10" stroke-width="0.75"/>
            <line id="直线_110-2" data-name="直线 110" x1="3.584" y2="8.588" transform="translate(24.946 3.542)" fill="none" stroke="#fff" stroke-miterlimit="10" stroke-width="0.75"/>
            <line id="直线_111-2" data-name="直线 111" x1="12.574" y2="2.049" transform="translate(18.658 1.537)" fill="none" stroke="#fff" stroke-miterlimit="10" stroke-width="0.75"/>
          </g>
        </g>
      </g>
      <g id="组_2959" data-name="组 2959" transform="translate(685.454 -21.321)">
        <path id="路径_18611" data-name="路径 18611" d="M-209.831-618.337s-18.043-.931-18.284,4.439,17.431,6.865,22.119,6.1S-204.242-618.373-209.831-618.337Z" transform="translate(233.082 697.638)" fill="#ffd8e5"/>
        <path id="路径_18612" data-name="路径 18612" d="M-209.226-617.339s-18.043-.931-18.284,4.439,17.431,6.865,22.119,6.1S-203.637-617.374-209.226-617.339Z" transform="translate(232.724 697.028)" fill="#fff"/>
        <path id="路径_18613" data-name="路径 18613" d="M-93.186-602.266s.252-8.805,3.4-9.046,2.647,3.015,2.647,3.015,3.277-6.151,6.807-2.774-4.916,7.72-4.916,7.72,2.269.241,1.512,3.136S-93.186-596.476-93.186-602.266Z" transform="translate(153.098 693.784)" fill="#ffd8e5"/>
        <path id="路径_18614" data-name="路径 18614" d="M-181.288-581.994c-3.157,1.173-8.929,4.007-7.538,12.3a14.819,14.819,0,0,0,8.9,11.033s-7.228-2.319-6.682,1.38,12.135,4.4,16.957,2.4,5.8-18.717-.292-23.918C-173.6-581.912-178.615-582.987-181.288-581.994Z" transform="translate(209.917 675.637)" fill="#ffd8e5"/>
        <path id="路径_18615" data-name="路径 18615" d="M-180.1-581.994c-3.157,1.173-8.929,4.007-7.538,12.3a14.82,14.82,0,0,0,8.9,11.033s-7.228-2.319-6.682,1.38,12.135,4.4,16.957,2.4,5.8-18.717-.292-23.918C-172.409-581.912-177.428-582.987-180.1-581.994Z" transform="translate(209.213 675.637)" fill="#fff"/>
        <path id="路径_18616" data-name="路径 18616" d="M-84.218-603.352s2.269.239,1.512,3.133c-.355,1.353-2.43,2.256-4.547,2.251-2.425-.005-4.907-1.2-4.907-4.3,0,0,.151-5.219,1.658-7.729a2.329,2.329,0,0,1,1.747-1.317c3.149-.245,2.649,3.014,2.649,3.014s3.275-6.153,6.805-2.774S-84.218-603.352-84.218-603.352Z" transform="translate(152.49 693.784)" fill="#fff"/>
        <path id="路径_18617" data-name="路径 18617" d="M-87.253-594.692c-2.425-.005-4.907-1.2-4.907-4.3,0,0,.151-5.219,1.658-7.729A25.1,25.1,0,0,1-87.253-594.692Z" transform="translate(152.49 690.509)" fill="#471066" opacity="0.2" style="mix-blend-mode: multiply;isolation: isolate"/>
        <path id="路径_18618" data-name="路径 18618" d="M-187.422-640.769s-4.885,9.6-1.841,23.56c3.79,17.375,28.072,20.7,38.886,6.386s-8.744-34.569-14.266-36.771S-181.209-648.916-187.422-640.769Z" transform="translate(210.642 716.089)" fill="#ffd8e5"/>
        <path id="路径_18619" data-name="路径 18619" d="M-146.694-615.919a15.632,15.632,0,0,1-2.373,4.441,22.058,22.058,0,0,1-3.707,3.843c-10.257,8.338-26.527,6.277-32.941-4.516a18.88,18.88,0,0,1-2.237-5.709q-.415-1.9-.641-3.682c-1.559-11.941,2.482-19.88,2.482-19.88a18.741,18.741,0,0,1,2.743-2.9,19.562,19.562,0,0,1,2.294-1.687,21.845,21.845,0,0,1,15.972-2.78,12.479,12.479,0,0,1,1.768.549c1.747.694,4.9,3.193,8.046,6.741C-149.474-634.951-143.659-624.826-146.694-615.919Z" transform="translate(209.866 716.486)" fill="#fff"/>
        <path id="路径_18620" data-name="路径 18620" d="M-107.149-572.123a15.633,15.633,0,0,1-2.373,4.441,22.058,22.058,0,0,1-3.707,3.843l-3.849-.055-3.6-2.625-1.528-3.069-.036-3.4,1.877-4.531S-111.336-577.562-107.149-572.123Z" transform="translate(170.321 672.69)" fill="#471066" opacity="0.2" style="mix-blend-mode: multiply;isolation: isolate"/>
        <path id="路径_18621" data-name="路径 18621" d="M-147.414-640.738c-1.465,1.522-3.979,3.009-8.2,3.942-11.378,2.51-19.034-1.886-19.034-1.886v-.28s-1.523-3.019-.845-4.6a1.452,1.452,0,0,1,.333-.489,6.01,6.01,0,0,1,1.961-1.2c1.09-.439,2.388-.768,3.948-1.387,2.623-1.048,7.071-.768,9.772-1.188.657-.1,1.445-.164,2.253-.2a12.48,12.48,0,0,1,1.768.549C-153.714-646.786-150.564-644.287-147.414-640.738Z" transform="translate(201.992 715.722)" fill="#471066" opacity="0.2" style="mix-blend-mode: multiply;isolation: isolate"/>
        <g id="组_2550" data-name="组 2550" transform="translate(0)">
          <path id="路径_18622" data-name="路径 18622" d="M-130.621-795c-2.175,4.805-5.757,11.282-8.062,15.344-1.314,2.305-2.211,3.827-2.211,3.827l-6.492-3.987s.172-1.757.548-4.551c1.606-12.081,7-43.558,18.741-36.3C-121.412-816.543-126.658-803.754-130.621-795Z" transform="translate(185.227 821.743)" fill="#ffd8e5"/>
          <path id="路径_18623" data-name="路径 18623" d="M-199.078-736.376l-5.554,4.556-2.842-2.889-9.851-10.015,8.886-6.831,1.444,2.345Z" transform="translate(226.684 778.906)" fill="#fff"/>
          <path id="路径_18624" data-name="路径 18624" d="M-203.7-740.934l5.766,9.841-2.4,1.747-7.3-7.817Z" transform="translate(220.947 772.423)" fill="#f75b73"/>
          <path id="路径_18625" data-name="路径 18625" d="M-207.473-734.71l-9.851-10.015,8.886-6.832,1.444,2.346A97.123,97.123,0,0,1-207.473-734.71Z" transform="translate(226.684 778.906)" fill="#471066" opacity="0.2" style="mix-blend-mode: multiply;isolation: isolate"/>
          <path id="路径_18626" data-name="路径 18626" d="M-129.566-795c-2.175,4.805-5.757,11.282-8.062,15.344-1.314,2.305-2.211,3.827-2.211,3.827l-6.492-3.987s.172-1.757.548-4.551c1.606-12.081,7-43.558,18.742-36.3C-120.357-816.543-125.6-803.754-129.566-795Z" transform="translate(184.601 821.743)" fill="#fff"/>
          <path id="路径_18627" data-name="路径 18627" d="M-144.518-761.343s5.752-26.939,9.9-32.617c3.721-5.1,7.443-1.214,6.428,3.156s-13.194,32.212-13.194,32.212Z" transform="translate(183.527 806.263)" fill="#f75b73"/>
          <path id="路径_18628" data-name="路径 18628" d="M-137.627-721.119c-1.314,2.305-2.211,3.827-2.211,3.827l-6.492-3.987s.172-1.757.548-4.551A22.678,22.678,0,0,1-137.627-721.119Z" transform="translate(184.601 763.205)" fill="#471066" opacity="0.2" style="mix-blend-mode: multiply;isolation: isolate"/>
          <g id="组_2549" data-name="组 2549" transform="translate(8.557 37.256)">
            <path id="路径_18629" data-name="路径 18629" d="M-174.742-700.279c0,13.245-9.974,14.212-22.277,14.212s-22.277-.967-22.277-14.212,9.974-25.857,22.277-25.857S-174.742-713.524-174.742-700.279Z" transform="translate(219.296 726.136)" fill="#ffd8e5"/>
            <path id="路径_18630" data-name="路径 18630" d="M-173.827-699.364c0,13.245-9.974,14.211-22.277,14.211s-22.277-.966-22.277-14.211,9.974-25.857,22.277-25.857S-173.827-712.609-173.827-699.364Z" transform="translate(218.754 725.577)" fill="#fff"/>
            <path id="路径_18631" data-name="路径 18631" d="M-166.306-652.564c0,2.186-1.453,3.965-3.24,3.965a3.048,3.048,0,0,1-2.53-1.5,3.057,3.057,0,0,1-2.534,1.5c-1.784,0-3.237-1.779-3.237-3.965a.709.709,0,0,1,.724-.693.709.709,0,0,1,.724.693c0,1.4.82,2.58,1.79,2.58s1.792-1.18,1.792-2.58a.7.7,0,0,1,.026-.191c-1.763-.214-3.1-1.189-3.1-2,0-.923,1.705-1.291,3.811-1.291s3.81.369,3.81,1.291c0,.815-1.332,1.79-3.1,2a.689.689,0,0,1,.026.191c0,1.4.819,2.58,1.789,2.58s1.793-1.18,1.793-2.58a.709.709,0,0,1,.724-.693A.709.709,0,0,1-166.306-652.564Z" transform="translate(194.726 683.361)" fill="#f75b73"/>
            <g id="组_2548" data-name="组 2548" transform="translate(11.785 13.594)">
              <path id="路径_18632" data-name="路径 18632" d="M-151.519-691.251c-2.049,0-3.713,2.6-3.713,5.823s1.663,5.823,3.713,5.823,3.713-2.61,3.713-5.823S-149.47-691.251-151.519-691.251Zm-1.2,6.083a1.294,1.294,0,0,1-1.324-1.263,1.3,1.3,0,0,1,1.324-1.268,1.3,1.3,0,0,1,1.319,1.268A1.294,1.294,0,0,1-152.724-685.168Z" transform="translate(169.535 691.251)" fill="#f75b73"/>
              <path id="路径_18633" data-name="路径 18633" d="M-190.356-685.427c0,3.213,1.663,5.823,3.713,5.823s3.713-2.61,3.713-5.823-1.663-5.823-3.713-5.823S-190.356-688.646-190.356-685.427Zm3.6-1a1.3,1.3,0,0,1,1.319-1.268,1.3,1.3,0,0,1,1.324,1.268,1.294,1.294,0,0,1-1.324,1.263A1.294,1.294,0,0,1-186.758-686.431Z" transform="translate(190.356 691.251)" fill="#f75b73"/>
            </g>
          </g>
          <path id="路径_18634" data-name="路径 18634" d="M-222.685-755.5s1.749,31.061-9.173,31.178c-12.843.138-7.663-20.011-6.057-26.624A9.178,9.178,0,0,1-222.685-755.5Z" transform="translate(240.31 782.851)" fill="#ffd8e5"/>
          <path id="路径_18635" data-name="路径 18635" d="M-221.159-755.5s1.749,31.061-9.173,31.178c-12.843.138-7.663-20.011-6.057-26.624A9.178,9.178,0,0,1-221.159-755.5Z" transform="translate(239.405 782.851)" fill="#fff"/>
        </g>
        <path id="路径_18636" data-name="路径 18636" d="M-199.821-603.086s-14.384,10.465-10.936,14.707,17.931-5.562,20.985-9.051S-195.585-606.574-199.821-603.086Z" transform="translate(223.108 688.96)" fill="#ffd8e5"/>
        <path id="路径_18637" data-name="路径 18637" d="M-175.839-587.907l-9.355,13.214a18.879,18.879,0,0,1-2.237-5.709q-.415-1.9-.641-3.682l4.349-2.221Z" transform="translate(209.345 679.028)" fill="#471066" opacity="0.2" style="mix-blend-mode: multiply;isolation: isolate"/>
        <path id="路径_18638" data-name="路径 18638" d="M-198.714-603.086s-14.384,10.465-10.936,14.708,17.931-5.563,20.985-9.05S-193.316-607.154-198.714-603.086Z" transform="translate(222.452 689.104)" fill="#fff"/>
        <path id="路径_18639" data-name="路径 18639" d="M-147.092-578.482c-2.83,1.78-7.853,5.709-4.676,13.543a15.2,15.2,0,0,0,11.119,9s-7.576-.818-6.231,2.69,12.83,1.87,17.106-1.053,1.577-19.466-5.523-23.329C-139.553-579.944-144.7-579.989-147.092-578.482Z" transform="translate(188.427 673.902)" fill="#ffd8e5"/>
        <path id="路径_18640" data-name="路径 18640" d="M-145.9-578.482c-2.83,1.78-7.853,5.709-4.676,13.543a15.2,15.2,0,0,0,11.119,9s-7.576-.818-6.231,2.69,12.83,1.87,17.106-1.053,1.577-19.466-5.523-23.329C-138.366-579.944-143.509-579.989-145.9-578.482Z" transform="translate(187.724 673.902)" fill="#fff"/>
      </g>
    </g>
    <g id="组_2542" data-name="组 2542" transform="translate(594.007 130.833)">
      <g transform="matrix(1, 0, 0, 1, -578.01, -11)" filter="url(#矩形_1435)">
        <rect id="矩形_1435-2" data-name="矩形 1435" width="102.318" height="61" rx="30.5" transform="translate(578.01 11)" fill="#ffe32c"/>
      </g>
      <g id="组_2541" data-name="组 2541" transform="translate(34.442 7.564)">
        <path id="iconmonstr-cursor-30" d="M4.807,14.845a8.869,8.869,0,0,1,4.138,2.474V2.715a2.779,2.779,0,0,1,5.556,0V11.13c0,1.089,1.131,1.229,1.276.143.3-2.228,3.5-2.524,3.741.554.06.758,1.008.91,1.2.038.453-2.006,3.474-2.025,3.831,1.053.092.8,1.106.967,1.178.047s.39-1.3.843-1.3c1.525,0,3.207,2.8,3.207,6.125,0,5.966-4.167,5.981-4.167,15.543H11.723c-.461-5.475-4.809-10.321-8.71-14.225A3.147,3.147,0,0,1,2,16.939C2,15.647,3.054,14.594,4.807,14.845Z" transform="translate(3.655 11.847)" fill="#7d26b0"/>
        <path id="iconmonstr-cursor-7" d="M15.332,8.88l-2.467,1.229L9.228,2.8,11.7,1.57ZM21.486.41,18.758,0,17.544,8.072l2.728.41ZM10.17,14.257l1.319-2.422-7.17-3.9L3,10.355l7.17,3.9Z" transform="translate(-3 0)" fill="#7d26b0"/>
      </g>
    </g>
    <g id="组_2989" data-name="组 2989" transform="translate(65.784 119.833)">
      <g id="蒙版组_17" data-name="蒙版组 17" transform="translate(125.558 0) rotate(14)" clip-path="url(#clip-path-3)">
        <g id="组_2971" data-name="组 2971" transform="translate(-15.75 6.228) rotate(-3)">
          <g id="组_2957" data-name="组 2957" transform="translate(0 5.487)">
            <path id="路径_19577" data-name="路径 19577" d="M38.546.33c-5.193,3.6-9.153,9.636-11.768,17.936-1.158,3.675-2,7.508-2.813,11.214-.732,3.335-1.489,6.785-2.475,10.116A72.535,72.535,0,0,1,.267,73.1L0,72.8A72.128,72.128,0,0,0,21.1,39.48c.983-3.317,1.738-6.759,2.469-10.087.816-3.715,1.66-7.557,2.822-11.247C29.037,9.758,33.048,3.652,38.318,0Z" transform="translate(0 0)" fill="#fc5185"/>
          </g>
          <g id="组_2959-2" data-name="组 2959" transform="translate(18.108 44.927)">
            <g id="组_2958" data-name="组 2958" transform="translate(0)">
              <path id="路径_19578" data-name="路径 19578" d="M.237,8.565,0,8.416C.044,8.347,4.388,1.468,9.839,0l.074.272C4.567,1.71.28,8.5.237,8.565Z" fill="#fc5185"/>
            </g>
          </g>
          <g id="组_2961-2" data-name="组 2961" transform="translate(18.454 32.846)">
            <g id="组_2960" data-name="组 2960">
              <path id="路径_19579" data-name="路径 19579" d="M3.1,10.792c0-.067-.425-6.8-3.1-10.632L.229,0C2.951,3.9,3.376,10.708,3.381,10.776Z" transform="translate(0)" fill="#fc5185"/>
            </g>
          </g>
          <g id="组_2962" data-name="组 2962" transform="translate(15.388 18.512)">
            <path id="路径_19580" data-name="路径 19580" d="M.476,13.4A12.671,12.671,0,0,1,.5,6.452,29.012,29.012,0,0,1,3.257,0C2.972,2.838,4.939,5.343,5.94,8.014a12.38,12.38,0,0,1,.4,7.209c-.195.8-.527,2.6-1.383,2.976s-1.977-.829-2.5-1.386A8.8,8.8,0,0,1,.476,13.4Z" transform="translate(0 0)" fill="#fc5185"/>
          </g>
          <g id="组_2963" data-name="组 2963" transform="translate(23.31 40.154)">
            <path id="路径_19581" data-name="路径 19581" d="M6.127,7.12c2.077-.749,3.923-1.955,6.028-2.871,2.046-.89,4.446-1.362,6.48-.449A11.544,11.544,0,0,0,8.241.156,11.688,11.688,0,0,0,.372,5.606C-1,7.878,1.757,7.917,3.31,7.769A11.356,11.356,0,0,0,6.127,7.12Z" transform="translate(0 0)" fill="#fc5185"/>
          </g>
          <g id="组_2965" data-name="组 2965" transform="translate(24.464 22.419)">
            <g id="组_2964" data-name="组 2964" transform="translate(0)">
              <path id="路径_19582" data-name="路径 19582" d="M.251,8.885,0,8.76C.034,8.694,3.373,2.1,8.843,0l.1.262C3.575,2.318.283,8.819.251,8.885Z" fill="#fc5185"/>
            </g>
          </g>
          <g id="组_2966" data-name="组 2966" transform="translate(30.433 17.094)">
            <path id="路径_19583" data-name="路径 19583" d="M6.314.377a10.526,10.526,0,0,1,9.1,1.734,2.914,2.914,0,0,0-3.167-.241,6.906,6.906,0,0,0-2.415,2.3A16.367,16.367,0,0,1,7.751,6.816C6.1,8.338,3.018,9.006,1.008,7.771c-2.423-1.487.1-4.2,1.514-5.378A10.354,10.354,0,0,1,6.314.377Z" transform="translate(0)" fill="#fc5185"/>
          </g>
          <g id="组_2968" data-name="组 2968" transform="translate(26.912 11.555)">
            <g id="组_2967" data-name="组 2967" transform="translate(0 0)">
              <path id="路径_19584" data-name="路径 19584" d="M1.031,8.7.754,8.659C.763,8.6,1.662,2.756,0,.151L.236,0C1.955,2.695,1.069,8.46,1.031,8.7Z" transform="translate(0)" fill="#fc5185"/>
            </g>
          </g>
          <g id="组_2969" data-name="组 2969" transform="translate(19.708 1.493)">
            <path id="路径_19585" data-name="路径 19585" d="M3.381,9.76A15.426,15.426,0,0,1,1.85,4.812,11.072,11.072,0,0,0,0,0,10.844,10.844,0,0,1,8.337,5.371,7.673,7.673,0,0,1,9.418,9.116c0,1.268-.439,3.366-2.063,3.279A5.307,5.307,0,0,1,3.381,9.76Z" fill="#fc5185"/>
          </g>
          <g id="组_2970" data-name="组 2970" transform="translate(35.259 0)">
            <path id="路径_19586" data-name="路径 19586" d="M3.408,2.055A12.927,12.927,0,0,1,10.346.007,28.37,28.37,0,0,1,17.6.937,5.092,5.092,0,0,0,12.927,2.23,39.33,39.33,0,0,0,9.553,6,10.01,10.01,0,0,1,5.378,8.9C3.769,9.423.64,9.522.077,7.4-.461,5.375,1.936,3.059,3.408,2.055Z" transform="translate(0 0)" fill="#fc5185"/>
          </g>
        </g>
      </g>
      <path id="路径_19628" data-name="路径 19628" d="M-1.49-16.762c-8.832,0-14.974,11.066-14.974,19.908,0,5.5,2.574,10.364,8.6,10.364C1.318,13.51,7.576,2.443,7.576-6.281,7.576-12.019,4.886-16.762-1.49-16.762ZM-.2-12.312c2.4,0,3.392,2.4,3.392,5.562C3.19-.6-.554,8.416-5.175,8.416c-2.047,0-3.8-1.991-3.8-7.143C-8.977-4.466-5.526-12.312-.2-12.312Zm27.885-3.923H18.615l.409-1.757c.936-4.391,2.4-8.314,5.089-8.314,3.451,0,3.743,3.337,2.749,7.963h2.515c2.047-7.553.819-12.12-4.972-12.12-5.557,0-10.528,4.567-12.166,12.12l-.468,2.108H10.6c-1.813,0-2.749,1.522-2.457,3.4H11.07L5.513,13.041C2.94,24.986,1.244,30.373-2.734,30.373a3.755,3.755,0,0,1-4.036-3.22c-1.17,0-1.93.586-1.93,1.581,0,4.918,2.925,6.851,6.434,6.851,8.189,0,11.23-6.733,14.623-22.543l5.557-25.88h9.768Zm10.528,3.4c1.813,0,2.749-1.522,2.457-3.4h-4.5l.409-1.757c.936-4.391,2.4-8.314,5.089-8.314,1.462,0,2.164.586,2.164,1.7a10.451,10.451,0,0,1-.936,3.806,4.707,4.707,0,0,0,2.34.82c2.164.117,4.094-1.522,4.094-4.8,0-3.806-2.4-5.68-7.37-5.68-5.557,0-10.528,4.567-12.166,12.12l-.468,2.108H28.15c-1.813,0-2.749,1.522-2.457,3.4h2.925l-5.557,25.88c-2.574,11.945-4.27,17.331-8.247,17.331a3.755,3.755,0,0,1-4.036-3.22c-1.17,0-1.93.586-1.93,1.581,0,4.918,2.925,6.851,6.434,6.851,8.189,0,11.23-6.733,14.623-22.543l5.557-25.88Z" transform="translate(159.899 43.39)" fill="#7d26b0"/>
      <path id="路径_19627" data-name="路径 19627" d="M-31.516-26.591c0-13.445,5.051-31.863,20.983-49.737,1.166-1.243.311-3.5-.855-4.818a27.173,27.173,0,0,1-6.217,1.4c-8,.7-9.714-2.642-19.429-2.642-5.518,0-9.714,5.518-7.538,12.9a20.948,20.948,0,0,1,8.937-2.331c6.45,0,8.7,1.554,14.766,1.321C-29.651-60.4-41.93-40.424-41.93-22.627a7.01,7.01,0,0,0,3.73,1.01C-35.324-21.617-31.516-22.861-31.516-26.591ZM22.5-60.941c0-11.035-2.409-19.895-14.3-19.895-18.807,0-25.957,22.926-25.957,39.09,0,11.035,2.409,19.895,14.3,19.895C15.346-21.85,22.5-44.776,22.5-60.941ZM-7.658-39.647c0-8.393,2.642-36.06,14.066-36.06,3.808,0,5.984,4.741,5.984,12.667,0,8.393-2.642,36.06-14.066,36.06C-5.482-26.979-7.658-31.72-7.658-39.647Z" transform="translate(72.103 100.591)" fill="#7d26b0"/>
      <g id="组_3023" data-name="组 3023" transform="translate(98.889 18.9)">
        <g id="组_3022" data-name="组 3022" transform="translate(2.123 6.564)">
          <path id="路径_19600" data-name="路径 19600" d="M0,49.256S4.091,36.521,15.056,21.171,31.977,0,31.977,0" transform="translate(2.578 0) rotate(3)" fill="none" stroke="#7d26b0" stroke-linecap="round" stroke-width="7"/>
        </g>
        <path id="路径_19630" data-name="路径 19630" d="M-10.336-51.409c-8.112,0-13.753,10.153-13.753,18.265,0,5.05,2.364,9.509,7.9,9.509,8.434,0,14.182-10.153,14.182-18.158C-2.009-47.058-4.48-51.409-10.336-51.409Zm1.182,4.083c2.2,0,3.116,2.2,3.116,5.1,0,5.641-3.438,13.914-7.682,13.914-1.88,0-3.492-1.827-3.492-6.554C-17.212-40.128-14.043-47.326-9.154-47.326Z" transform="translate(24.088 51.409)" fill="#7d26b0"/>
        <path id="路径_19631" data-name="路径 19631" d="M-11.429-51.409c-7.467,0-12.66,9.346-12.66,16.813,0,4.648,2.176,8.753,7.269,8.753,7.764,0,13.055-9.346,13.055-16.715C-3.764-47.4-6.039-51.409-11.429-51.409Zm1.088,3.758c2.028,0,2.868,2.028,2.868,4.7,0,5.192-3.165,12.808-7.072,12.808-1.731,0-3.214-1.681-3.214-6.033C-17.759-41.024-14.841-47.651-10.341-47.651Z" transform="translate(38.437 86.483)" fill="#7d26b0"/>
      </g>
      <g id="组_3037" data-name="组 3037" transform="translate(0 23.504)">
        <g id="组_3024" data-name="组 3024" transform="translate(214.13 36.422) rotate(99)">
          <path id="路径_19632" data-name="路径 19632" d="M1.8.561a.788.788,0,0,0-1.509,0A22.2,22.2,0,0,0,.1,6.4a31.021,31.021,0,0,0,.521,5.752.448.448,0,0,0,.858,0A31.02,31.02,0,0,0,2,6.4,22.264,22.264,0,0,0,1.8.561Z" transform="translate(0)" fill="#fff"/>
        </g>
        <g id="组_3025" data-name="组 3025" transform="matrix(0.07, 0.998, -0.998, 0.07, 218.62, 44.818)">
          <path id="路径_19633" data-name="路径 19633" d="M9.14.115c-2.193,1.037-3.4,3.793-4.551,5.823C3.017,8.708,1.539,11.547.148,14.413A1.179,1.179,0,0,0,2.183,15.6a65.946,65.946,0,0,0,4.53-7.3c1.254-2.194,3.464-4.6,3.809-7.128A.952.952,0,0,0,9.14.115Z" transform="translate(0 0)" fill="#fff"/>
        </g>
        <g id="组_3028" data-name="组 3028" transform="matrix(-0.934, -0.358, 0.358, -0.934, 17.796, 27.687)">
          <path id="路径_19636" data-name="路径 19636" d="M13.334.151c-1.9-.508-3.847.385-5.7.88a72.839,72.839,0,0,0-7.1,1.937.766.766,0,0,0,.2,1.5,23.894,23.894,0,0,0,6.714-.9c2.067-.467,4.633-.65,6.218-2.14A.769.769,0,0,0,13.334.151Z" transform="translate(0 0)" fill="#fff"/>
        </g>
        <g id="组_3034" data-name="组 3034" transform="translate(3 0) rotate(33)">
          <path id="路径_19642" data-name="路径 19642" d="M16.994,3.531c-2.655-.524-5.325-.921-7.955-1.571C6.351,1.294,3.779.033.982,0A1.028,1.028,0,0,0,.468,1.9C4.657,4.948,11.951,6.041,16.994,5.268A.906.906,0,0,0,16.994,3.531Z" transform="translate(0 0)" fill="#fff"/>
        </g>
      </g>
    </g>
    <path id="路径_19676" data-name="路径 19676" d="M13.961-8.326a3.333,3.333,0,0,1,1.61,1.219,3.5,3.5,0,0,1,.575,2.047,4.247,4.247,0,0,1-1.932,3.772A9.25,9.25,0,0,1,9.016,0H.943l3.22-16.1h7.429a6.845,6.845,0,0,1,3.876.932,3.044,3.044,0,0,1,1.368,2.679,4.226,4.226,0,0,1-.782,2.565A4.712,4.712,0,0,1,13.961-8.326ZM6.67-13.754l-.9,4.439h4.255a4.692,4.692,0,0,0,2.691-.678,2.259,2.259,0,0,0,.989-1.99q0-1.771-2.783-1.771ZM9.223-2.346a5.181,5.181,0,0,0,2.91-.69A2.286,2.286,0,0,0,13.156-5.06a1.609,1.609,0,0,0-.724-1.483,4.2,4.2,0,0,0-2.174-.449H5.313l-.92,4.646ZM32.8-12.282,30.337,0H27.6l.276-1.357A5.925,5.925,0,0,1,23.713.161,4.634,4.634,0,0,1,20.481-.932,3.929,3.929,0,0,1,19.274-4a6.87,6.87,0,0,1,.161-1.472l1.357-6.808h2.875L22.31-5.543a4.8,4.8,0,0,0-.092.943,2.168,2.168,0,0,0,.61,1.656,2.577,2.577,0,0,0,1.829.575,3.857,3.857,0,0,0,2.6-.885,4.493,4.493,0,0,0,1.38-2.656l1.288-6.371Zm15.548,0L39.882,1.081a9.381,9.381,0,0,1-2.4,2.772,4.829,4.829,0,0,1-2.772.77,5.712,5.712,0,0,1-1.817-.3,3.7,3.7,0,0,1-1.4-.782l1.426-2.093a2.89,2.89,0,0,0,2.024.782,2.217,2.217,0,0,0,1.288-.379,4.37,4.37,0,0,0,1.127-1.3l.391-.6-2.9-12.236H37.72l2.07,9.108,5.681-9.108ZM58.075-16.1h2.99L57.845,0h-2.99Zm13.248,3.68A4.734,4.734,0,0,1,74.6-11.339,3.893,3.893,0,0,1,75.808-8.28a9,9,0,0,1-.161,1.472L74.29,0H71.415l1.334-6.739a4.8,4.8,0,0,0,.092-.943q0-2.231-2.461-2.231a3.891,3.891,0,0,0-2.622.885,4.6,4.6,0,0,0-1.4,2.656L65.067,0H62.192L64.63-12.282h2.737l-.276,1.357A6.075,6.075,0,0,1,71.323-12.42ZM82.409.161a11.448,11.448,0,0,1-2.979-.38,6.63,6.63,0,0,1-2.2-.955l1.2-2.208a5.951,5.951,0,0,0,1.909.874,8.744,8.744,0,0,0,2.369.322,4.5,4.5,0,0,0,2.081-.379,1.189,1.189,0,0,0,.7-1.093.843.843,0,0,0-.586-.8,10.977,10.977,0,0,0-1.852-.529A16.416,16.416,0,0,1,80.9-5.532a3.5,3.5,0,0,1-1.449-.943,2.548,2.548,0,0,1-.609-1.806,3.5,3.5,0,0,1,1.6-3.024,7.278,7.278,0,0,1,4.243-1.115,10.493,10.493,0,0,1,2.461.287,6.456,6.456,0,0,1,1.955.771L88.044-9.154a5.615,5.615,0,0,0-1.714-.713,8.171,8.171,0,0,0-1.92-.23,4.115,4.115,0,0,0-2.059.414,1.23,1.23,0,0,0-.7,1.081.893.893,0,0,0,.609.862,10.849,10.849,0,0,0,1.9.541,16.05,16.05,0,0,1,2.116.54,3.472,3.472,0,0,1,1.426.932,2.468,2.468,0,0,1,.6,1.748A3.473,3.473,0,0,1,86.687-.92,7.557,7.557,0,0,1,82.409.161ZM94.392-4.117a4.861,4.861,0,0,0-.046.529q0,1.38,1.449,1.38a2.8,2.8,0,0,0,1.61-.483l.506,2.116a5.492,5.492,0,0,1-2.967.736,3.66,3.66,0,0,1-2.553-.874,3.092,3.092,0,0,1-.966-2.415,4.917,4.917,0,0,1,.092-.966l1.173-5.8h-2l.46-2.3h2L93.7-15h2.875L96-12.19h3.312l-.46,2.3H95.542Zm20.01-8.165L111.964,0h-2.737l.253-1.265a5.816,5.816,0,0,1-4,1.426,5.836,5.836,0,0,1-2.749-.644,4.763,4.763,0,0,1-1.943-1.875,5.656,5.656,0,0,1-.713-2.887,7.5,7.5,0,0,1,.909-3.691,6.605,6.605,0,0,1,2.484-2.564A6.871,6.871,0,0,1,107-12.42a4.573,4.573,0,0,1,4.186,1.955l.345-1.817ZM106.214-2.3a4.067,4.067,0,0,0,2.173-.587,4.136,4.136,0,0,0,1.507-1.633,5.025,5.025,0,0,0,.552-2.38,2.991,2.991,0,0,0-.851-2.266,3.315,3.315,0,0,0-2.392-.816,4.067,4.067,0,0,0-2.174.587,4.136,4.136,0,0,0-1.507,1.633,5.025,5.025,0,0,0-.552,2.38,2.991,2.991,0,0,0,.851,2.266A3.315,3.315,0,0,0,106.214-2.3Zm24.449-9.982L128.57-1.863a8.359,8.359,0,0,1-2.553,4.934,7.623,7.623,0,0,1-5.037,1.553,9.064,9.064,0,0,1-5.75-1.679L116.725.782a5.335,5.335,0,0,0,1.9,1,8.283,8.283,0,0,0,2.541.38,4.653,4.653,0,0,0,3.036-.874,4.4,4.4,0,0,0,1.4-2.668l.115-.6a5.957,5.957,0,0,1-4.025,1.426,6.314,6.314,0,0,1-2.84-.621A4.657,4.657,0,0,1,116.9-2.944a5.065,5.065,0,0,1-.7-2.691,6.749,6.749,0,0,1,.9-3.439,6.494,6.494,0,0,1,2.5-2.45,7.181,7.181,0,0,1,3.576-.9,6.038,6.038,0,0,1,2.6.541,3.78,3.78,0,0,1,1.748,1.621l.391-2.024ZM122.337-2.99a4.333,4.333,0,0,0,2.173-.54,3.891,3.891,0,0,0,1.5-1.5,4.287,4.287,0,0,0,.541-2.15,2.6,2.6,0,0,0-.851-2.058,3.47,3.47,0,0,0-2.369-.748,4.4,4.4,0,0,0-2.185.54,3.869,3.869,0,0,0-1.507,1.5,4.287,4.287,0,0,0-.54,2.151,2.589,2.589,0,0,0,.863,2.047A3.48,3.48,0,0,0,122.337-2.99ZM137.1-10.7a4.38,4.38,0,0,1,1.966-1.334,8.723,8.723,0,0,1,2.771-.391l-.529,2.737a4.132,4.132,0,0,0-.713-.069q-3.519,0-4.255,3.7L135.125,0H132.25l2.438-12.282h2.737Zm19.3-1.587L153.962,0h-2.737l.253-1.265a5.816,5.816,0,0,1-4,1.426,5.836,5.836,0,0,1-2.748-.644,4.763,4.763,0,0,1-1.944-1.875,5.656,5.656,0,0,1-.713-2.887,7.5,7.5,0,0,1,.909-3.691,6.605,6.605,0,0,1,2.484-2.564,6.871,6.871,0,0,1,3.531-.92,4.573,4.573,0,0,1,4.186,1.955l.345-1.817ZM148.212-2.3a4.067,4.067,0,0,0,2.173-.587,4.136,4.136,0,0,0,1.507-1.633,5.025,5.025,0,0,0,.552-2.38,2.991,2.991,0,0,0-.851-2.266,3.315,3.315,0,0,0-2.392-.816,4.067,4.067,0,0,0-2.174.587,4.136,4.136,0,0,0-1.507,1.633,5.025,5.025,0,0,0-.552,2.38,2.991,2.991,0,0,0,.851,2.266A3.315,3.315,0,0,0,148.212-2.3Zm27.416-10.12a4.711,4.711,0,0,1,3.255,1.058,3.858,3.858,0,0,1,1.184,3.036,7.521,7.521,0,0,1-.161,1.518L178.549,0h-2.875l1.357-6.739a4.918,4.918,0,0,0,.092-.966q0-2.208-2.346-2.208-3.059,0-3.772,3.519L169.717,0h-2.875L168.2-6.739a4.918,4.918,0,0,0,.092-.966q0-2.208-2.346-2.208-3.059,0-3.772,3.542L160.885,0H158.01l2.438-12.282h2.737l-.253,1.334a5.636,5.636,0,0,1,4.025-1.472,4.944,4.944,0,0,1,2.323.517,3.421,3.421,0,0,1,1.5,1.507A6.335,6.335,0,0,1,175.628-12.42ZM6.647,14.407l-.989,4.9h7.8l-.506,2.53H5.175L3.933,28H.943l3.22-16.1H15.916l-.506,2.507ZM21.321,28.161a6.887,6.887,0,0,1-3.139-.678,5,5,0,0,1-2.081-1.9,5.366,5.366,0,0,1-.736-2.829,7.294,7.294,0,0,1,.931-3.68,6.686,6.686,0,0,1,2.6-2.565,7.578,7.578,0,0,1,3.76-.931,7.06,7.06,0,0,1,3.151.667A4.908,4.908,0,0,1,27.9,18.133a5.366,5.366,0,0,1,.736,2.829,7.224,7.224,0,0,1-.943,3.68,6.85,6.85,0,0,1-2.611,2.576A7.5,7.5,0,0,1,21.321,28.161Zm.184-2.461a4.067,4.067,0,0,0,2.174-.587,4.136,4.136,0,0,0,1.507-1.633,5.025,5.025,0,0,0,.552-2.38,2.991,2.991,0,0,0-.851-2.266,3.315,3.315,0,0,0-2.392-.816,4.067,4.067,0,0,0-2.174.587,4.136,4.136,0,0,0-1.507,1.633,5.025,5.025,0,0,0-.552,2.381,2.991,2.991,0,0,0,.851,2.265A3.315,3.315,0,0,0,21.505,25.7ZM33.764,10.934h2.875L33.235,28H30.36Zm6.923,0h2.875L40.158,28H37.283Zm9.591,17.227a6.887,6.887,0,0,1-3.139-.678,5,5,0,0,1-2.081-1.9,5.366,5.366,0,0,1-.736-2.829,7.294,7.294,0,0,1,.931-3.68,6.686,6.686,0,0,1,2.6-2.565,7.578,7.578,0,0,1,3.76-.931,7.06,7.06,0,0,1,3.151.667,4.908,4.908,0,0,1,2.093,1.886,5.366,5.366,0,0,1,.736,2.829,7.224,7.224,0,0,1-.943,3.68,6.85,6.85,0,0,1-2.611,2.576A7.5,7.5,0,0,1,50.278,28.161Zm.184-2.461a4.067,4.067,0,0,0,2.174-.587,4.136,4.136,0,0,0,1.507-1.633,5.025,5.025,0,0,0,.552-2.38,2.991,2.991,0,0,0-.851-2.266,3.315,3.315,0,0,0-2.392-.816,4.067,4.067,0,0,0-2.174.587,4.136,4.136,0,0,0-1.506,1.633,5.025,5.025,0,0,0-.552,2.381,2.991,2.991,0,0,0,.851,2.265A3.315,3.315,0,0,0,50.462,25.7ZM80.73,15.718,73.876,28H71.047l-1.656-8.464L64.584,28H61.8L59.547,15.718h2.622l1.564,9.039,5.129-9.039h2.461l1.633,9.039,5.06-9.039Zm12.236,5.244a8.248,8.248,0,0,1-.184,1.748H83.03q.069,3.013,3.542,3.013a5.76,5.76,0,0,0,1.978-.333,4.539,4.539,0,0,0,1.564-.931l1.2,2a6.136,6.136,0,0,1-2.266,1.277,8.993,8.993,0,0,1-2.771.425,7.245,7.245,0,0,1-3.209-.667,4.872,4.872,0,0,1-2.1-1.9,5.426,5.426,0,0,1-.736-2.84,7.5,7.5,0,0,1,.909-3.692,6.511,6.511,0,0,1,2.53-2.564,7.256,7.256,0,0,1,3.646-.92,5.793,5.793,0,0,1,4.117,1.438A5.131,5.131,0,0,1,92.966,20.962Zm-5.8-3.082a3.953,3.953,0,0,0-2.472.782A4,4,0,0,0,83.283,20.8h7.038a2.671,2.671,0,0,0-.84-2.15A3.341,3.341,0,0,0,87.17,17.88Zm12.305-.575a4.38,4.38,0,0,1,1.966-1.334,8.723,8.723,0,0,1,2.771-.391l-.529,2.737a4.133,4.133,0,0,0-.713-.069q-3.519,0-4.255,3.7L97.5,28H94.622L97.06,15.718H99.8Zm9.2,10.856a11.448,11.448,0,0,1-2.979-.379,6.63,6.63,0,0,1-2.2-.955l1.2-2.208a5.951,5.951,0,0,0,1.909.874,8.745,8.745,0,0,0,2.369.322,4.5,4.5,0,0,0,2.081-.38,1.189,1.189,0,0,0,.7-1.092.843.843,0,0,0-.586-.805,10.977,10.977,0,0,0-1.852-.529,16.416,16.416,0,0,1-2.151-.54,3.5,3.5,0,0,1-1.449-.943,2.548,2.548,0,0,1-.609-1.806,3.5,3.5,0,0,1,1.6-3.024,7.278,7.278,0,0,1,4.243-1.115,10.493,10.493,0,0,1,2.461.287,6.456,6.456,0,0,1,1.955.771l-1.058,2.208a5.615,5.615,0,0,0-1.714-.713,8.171,8.171,0,0,0-1.921-.23,4.115,4.115,0,0,0-2.058.414,1.23,1.23,0,0,0-.7,1.081.893.893,0,0,0,.609.863,10.849,10.849,0,0,0,1.9.54,16.05,16.05,0,0,1,2.116.541,3.472,3.472,0,0,1,1.426.931,2.468,2.468,0,0,1,.6,1.748,3.473,3.473,0,0,1-1.61,3.059A7.557,7.557,0,0,1,108.675,28.161Zm29.371-7.383a14.134,14.134,0,0,1-2.139,3.8l1.541,1.84-1.909,1.84L134,26.436a8.942,8.942,0,0,1-5.428,1.794,7.9,7.9,0,0,1-2.875-.483,4.4,4.4,0,0,1-1.932-1.368,3.288,3.288,0,0,1-.69-2.082,4.19,4.19,0,0,1,1.162-2.921,11.5,11.5,0,0,1,3.507-2.392,4.772,4.772,0,0,1-1.1-2.9,4.055,4.055,0,0,1,.667-2.323,4.311,4.311,0,0,1,1.817-1.518,6.093,6.093,0,0,1,2.576-.529,4.753,4.753,0,0,1,2.933.839,2.733,2.733,0,0,1,1.115,2.311,3.562,3.562,0,0,1-1.023,2.53,10.672,10.672,0,0,1-3.139,2.093l2.783,3.289a12.928,12.928,0,0,0,1.472-2.76Zm-6.44-7.015a2.448,2.448,0,0,0-1.691.564,1.891,1.891,0,0,0-.632,1.483,2.279,2.279,0,0,0,.218.943,5.816,5.816,0,0,0,.748,1.15,9.151,9.151,0,0,0,2.392-1.392,1.892,1.892,0,0,0,.644-1.415,1.2,1.2,0,0,0-.449-.954A1.845,1.845,0,0,0,131.606,13.763Zm-2.76,12.121a6.162,6.162,0,0,0,3.657-1.219l-3.427-4.071a8.719,8.719,0,0,0-2.392,1.518,2.337,2.337,0,0,0-.736,1.7,1.792,1.792,0,0,0,.748,1.507A3.523,3.523,0,0,0,128.846,25.884ZM149.868,11.9h2.99l-2.714,13.57h8.418L158.056,28H146.648Zm12.995,3.818h2.875L163.3,28h-2.875Zm2.093-2.024a1.7,1.7,0,0,1-1.242-.472,1.533,1.533,0,0,1-.483-1.138,1.761,1.761,0,0,1,.54-1.311,1.936,1.936,0,0,1,1.414-.529,1.753,1.753,0,0,1,1.242.448,1.435,1.435,0,0,1,.483,1.093,1.845,1.845,0,0,1-.54,1.38A1.936,1.936,0,0,1,164.956,13.694Zm10.787,7.291L180.067,28h-3.335l-3.289-5.313-2.576,2.07L170.223,28h-2.875l3.4-17.066h2.875L171.6,21.123l6.739-5.4h3.91Zm18.607-.023a8.248,8.248,0,0,1-.184,1.748h-9.752q.069,3.013,3.542,3.013a5.76,5.76,0,0,0,1.978-.333,4.539,4.539,0,0,0,1.564-.931l1.2,2a6.136,6.136,0,0,1-2.265,1.277,8.993,8.993,0,0,1-2.772.425,7.245,7.245,0,0,1-3.208-.667,4.872,4.872,0,0,1-2.1-1.9,5.426,5.426,0,0,1-.736-2.84,7.5,7.5,0,0,1,.909-3.692,6.511,6.511,0,0,1,2.53-2.564,7.256,7.256,0,0,1,3.645-.92,5.793,5.793,0,0,1,4.117,1.438A5.131,5.131,0,0,1,194.35,20.962Zm-5.8-3.082a3.953,3.953,0,0,0-2.473.782,4,4,0,0,0-1.414,2.139H191.7a2.671,2.671,0,0,0-.839-2.15A3.341,3.341,0,0,0,188.554,17.88Zm11.638,10.281a11.448,11.448,0,0,1-2.979-.379,6.63,6.63,0,0,1-2.2-.955l1.2-2.208a5.951,5.951,0,0,0,1.909.874,8.744,8.744,0,0,0,2.369.322,4.5,4.5,0,0,0,2.082-.38,1.189,1.189,0,0,0,.7-1.092.843.843,0,0,0-.587-.805,10.977,10.977,0,0,0-1.852-.529,16.417,16.417,0,0,1-2.15-.54,3.5,3.5,0,0,1-1.449-.943,2.548,2.548,0,0,1-.61-1.806,3.5,3.5,0,0,1,1.6-3.024,7.278,7.278,0,0,1,4.243-1.115,10.493,10.493,0,0,1,2.461.287,6.456,6.456,0,0,1,1.955.771l-1.058,2.208a5.615,5.615,0,0,0-1.714-.713,8.171,8.171,0,0,0-1.921-.23,4.115,4.115,0,0,0-2.059.414,1.23,1.23,0,0,0-.7,1.081.893.893,0,0,0,.61.863,10.849,10.849,0,0,0,1.9.54,16.049,16.049,0,0,1,2.116.541,3.472,3.472,0,0,1,1.426.931,2.468,2.468,0,0,1,.6,1.748,3.473,3.473,0,0,1-1.61,3.059A7.557,7.557,0,0,1,200.192,28.161Z" transform="translate(328.579 155.256)" fill="#f8f9fc"/>
  </g>
</svg>
