<svg xmlns="http://www.w3.org/2000/svg" xmlns:xlink="http://www.w3.org/1999/xlink" width="750" height="1228" viewBox="0 0 750 1228"><defs><style>.a{fill:url(#a);}.b{fill:url(#b);}.c,.l,.m,.u{fill:none;}.d{clip-path:url(#c);}.e{clip-path:url(#d);}.f{fill:#ffd599;}.g,.h,.t{fill:#f75b73;}.h{stroke:rgba(0,0,0,0);}.i,.v{fill:#a354d2;}.j{fill:#6e233a;}.k{fill:#fc97a7;}.l,.m,.v{stroke:#fff;}.l,.m,.u,.v{stroke-miterlimit:10;}.m,.v{stroke-width:0.75px;}.n{clip-path:url(#f);}.o{fill:#fff;}.p,.r{fill:#7d26b0;}.p{opacity:0.5;}.p,.t{mix-blend-mode:multiply;}.p,.q,.t{isolation:isolate;}.q{fill:#42d498;opacity:0.6;mix-blend-mode:screen;}.s{fill:#cb93ec;}.t{opacity:0.2;}.u{stroke:#707070;stroke-width:0.651px;}</style><linearGradient id="a" x1="0.566" y1="0.843" x2="0.559" y2="0.048" gradientUnits="objectBoundingBox"><stop offset="0" stop-color="#fe647c"/><stop offset="1" stop-color="#ffe6ea"/></linearGradient><linearGradient id="b" x1="0.514" y1="0" x2="0.517" y2="1" xlink:href="#a"/><clipPath id="c"><path class="a" d="M0,0H750V1228H0Z"/></clipPath><clipPath id="d"><path class="b" d="M0,0H758.66V1254.163s-150.345-72.953-381.71-72.953S0,1253.948,0,1253.948Z" transform="translate(201.34 299.984)"/></clipPath><clipPath id="f"><path class="c" d="M-230.214,210.368c-.534,25.9,15.7,40.322,36.082,40.743s37.2-13.318,37.73-39.22-15.238-62.619-35.621-63.039S-229.68,184.465-230.214,210.368Z" transform="translate(230.227 -148.848)"/></clipPath></defs><g class="d"><g class="e" transform="translate(-210 -331)"><path class="a" d="M0,0H750V1161.377H0Z" transform="translate(210 299.984)"/><path class="f" d="M-1202.379,261.9s-3.484,7.49-8.541,11.82a37.869,37.869,0,0,1-10.414,6.009,28.564,28.564,0,0,1-3.027,3.063c6.342,15.636,5.089,18.725,4.742,19.206l-1.042-.745a.152.152,0,0,0-.02.026c.131-.342,1.15-3.938-6.2-21.21a33.4,33.4,0,0,0-4.328-1.951,38.444,38.444,0,0,1-12.755-.255c-6.5-1.413-13.124-6.355-13.124-6.355a19.212,19.212,0,0,1,13.13-2.792c6.156.974,11.161,6.58,12.78,8.593,1.267.493,2.733,1.091,3.81,1.627a105.992,105.992,0,0,1-4.77-13.517,8.889,8.889,0,0,1-6.178-3.757,36.147,36.147,0,0,1-10.267-6.3c-4.6-4.241-7.621-11.4-7.621-11.4a18.062,18.062,0,0,1,11.978,3.985c4.437,3.643,5.864,10.36,6.256,12.894a8.162,8.162,0,0,0,5.611,3.768,102.018,102.018,0,0,1-2.957-15.461c-1.459-2.879-3.864-8.716-2.636-14.042a19.211,19.211,0,0,1,7.507-11.128s2.1,7.988.977,14.547a38.246,38.246,0,0,1-4.428,11.733,102.046,102.046,0,0,0,3.514,16.622,37.628,37.628,0,0,0,1.72-3.492c-.256-1.687-1.089-8.776,2.188-13.522a16.607,16.607,0,0,1,9.575-6.547s-.856,7.087-3.851,12a32.659,32.659,0,0,1-6.907,7.7,36.248,36.248,0,0,1-2.427,4.842,103.639,103.639,0,0,0,3.909,10.6q.812,1.886,1.508,3.577a24.557,24.557,0,0,0,2.113-2.1v0c.244-1.57,1.8-10.086,7.291-14.27A19.207,19.207,0,0,1-1202.379,261.9Z" transform="translate(1272.087 412.395)"/><path class="g" d="M-1291.432,1393.986a136.332,136.332,0,0,1-136.332,136.332,135.743,135.743,0,0,1-87.193-31.533,102.39,102.39,0,0,1-78.772,36.864,102.485,102.485,0,0,1-85.568-45.993,136.117,136.117,0,0,1-111.963,58.545,135.83,135.83,0,0,1-56.142-12.058,102.107,102.107,0,0,1-60.409,19.667,102.578,102.578,0,0,1-102.582-102.58c0-1.122.024-2.243.058-3.353a52,52,0,0,1-37.39-49.9A51.975,51.975,0,0,1-1995.76,1348a51.786,51.786,0,0,1,37.424,15.926,102.013,102.013,0,0,1,45.169-13.158,136.32,136.32,0,0,1,121.906-75.236,135.962,135.962,0,0,1,100.637,44.368,67.872,67.872,0,0,1,44.289-16.349,67.976,67.976,0,0,1,48.91,20.685,51.983,51.983,0,0,1,51.543-45.283,51.822,51.822,0,0,1,30.947,10.205,135.749,135.749,0,0,1,87.171-31.51A136.334,136.334,0,0,1-1291.432,1393.986Z" transform="translate(2237.791 -736.471) rotate(-8)"/><path class="f" d="M49.894,36.57s-3.178-6.831-7.789-10.78a34.539,34.539,0,0,0-9.5-5.48,26.054,26.054,0,0,0-2.761-2.793C35.631,3.256,34.488.439,34.172,0l-.951.68A.133.133,0,0,1,33.2.656C33.322.968,34.252,4.247,27.549,20a30.458,30.458,0,0,1-3.947,1.78,35.061,35.061,0,0,0-11.633.232C6.037,23.3,0,27.807,0,27.807a17.521,17.521,0,0,0,11.975,2.546c5.614-.888,10.179-6,11.656-7.837,1.156-.449,2.492-1,3.475-1.484a96.662,96.662,0,0,0-4.351,12.328,8.107,8.107,0,0,0-5.634,3.427,32.967,32.967,0,0,0-9.364,5.741c-4.2,3.868-6.95,10.4-6.95,10.4a16.473,16.473,0,0,0,10.924-3.635c4.046-3.322,5.348-9.449,5.706-11.759A7.444,7.444,0,0,1,22.554,34.1a93.031,93.031,0,0,0-2.7,14.1c-1.33,2.625-3.524,7.95-2.4,12.807A17.52,17.52,0,0,0,24.3,71.153s1.919-7.285.891-13.268a34.885,34.885,0,0,0-4.038-10.7,93.056,93.056,0,0,1,3.2-15.16,34.362,34.362,0,0,1,1.569,3.185c-.233,1.538-.993,8,2,12.333a15.146,15.146,0,0,0,8.732,5.971s-.781-6.463-3.512-10.942a29.783,29.783,0,0,0-6.3-7.022,33.048,33.048,0,0,0-2.214-4.416,94.5,94.5,0,0,1,3.565-9.671q.741-1.72,1.375-3.263A22.4,22.4,0,0,1,31.5,20.118v0c.223,1.432,1.64,9.2,6.65,13.014A17.517,17.517,0,0,0,49.894,36.57Z" transform="translate(1631.457 672.125) rotate(155)"/><path class="h" d="M-2047.726,1403.291a145.638,145.638,0,0,0,145.637,145.637,145.008,145.008,0,0,0,93.145-33.685,109.379,109.379,0,0,0,84.149,39.38,109.48,109.48,0,0,0,91.408-49.133,145.407,145.407,0,0,0,119.6,62.541,145.1,145.1,0,0,0,59.974-12.881,109.076,109.076,0,0,0,64.532,21.009,109.579,109.579,0,0,0,109.583-109.582c0-1.2-.026-2.4-.062-3.582a55.548,55.548,0,0,0,39.942-53.3,55.523,55.523,0,0,0-55.513-55.524,55.321,55.321,0,0,0-39.978,17.013,108.975,108.975,0,0,0-48.252-14.056,145.625,145.625,0,0,0-130.226-80.371,145.242,145.242,0,0,0-107.506,47.4,72.5,72.5,0,0,0-47.312-17.465,72.615,72.615,0,0,0-52.249,22.1,55.531,55.531,0,0,0-55.061-48.374,55.36,55.36,0,0,0-33.06,10.9,145.015,145.015,0,0,0-93.12-33.661A145.639,145.639,0,0,0-2047.726,1403.291Z" transform="matrix(0.94, 0.342, -0.342, 0.94, 2377.771, 670.902)"/><path class="h" d="M-2047.726,1403.291a145.638,145.638,0,0,0,145.637,145.637,145.008,145.008,0,0,0,93.145-33.685,109.379,109.379,0,0,0,84.149,39.38,109.48,109.48,0,0,0,91.408-49.133,145.407,145.407,0,0,0,119.6,62.541,145.1,145.1,0,0,0,59.974-12.881,109.076,109.076,0,0,0,64.532,21.009,109.579,109.579,0,0,0,109.583-109.582c0-1.2-.026-2.4-.062-3.582a55.548,55.548,0,0,0,39.942-53.3,55.523,55.523,0,0,0-55.513-55.524,55.321,55.321,0,0,0-39.978,17.013,108.975,108.975,0,0,0-48.252-14.056,145.625,145.625,0,0,0-130.226-80.371,145.242,145.242,0,0,0-107.506,47.4,72.5,72.5,0,0,0-47.312-17.465,72.615,72.615,0,0,0-52.249,22.1,55.531,55.531,0,0,0-55.061-48.374,55.36,55.36,0,0,0-33.06,10.9,145.015,145.015,0,0,0-93.12-33.661A145.639,145.639,0,0,0-2047.726,1403.291Z" transform="matrix(0.94, 0.342, -0.342, 0.94, 2377.771, 758.087)"/><path class="h" d="M-2047.726,1403.291a145.638,145.638,0,0,0,145.637,145.637,145.008,145.008,0,0,0,93.145-33.685,109.379,109.379,0,0,0,84.149,39.38,109.48,109.48,0,0,0,91.408-49.133,145.407,145.407,0,0,0,119.6,62.541,145.1,145.1,0,0,0,59.974-12.881,109.076,109.076,0,0,0,64.532,21.009,109.579,109.579,0,0,0,109.583-109.582c0-1.2-.026-2.4-.062-3.582a55.548,55.548,0,0,0,39.942-53.3,55.523,55.523,0,0,0-55.513-55.524,55.321,55.321,0,0,0-39.978,17.013,108.975,108.975,0,0,0-48.252-14.056,145.625,145.625,0,0,0-130.226-80.371,145.242,145.242,0,0,0-107.506,47.4,72.5,72.5,0,0,0-47.312-17.465,72.615,72.615,0,0,0-52.249,22.1,55.531,55.531,0,0,0-55.061-48.374,55.36,55.36,0,0,0-33.06,10.9,145.015,145.015,0,0,0-93.12-33.661A145.639,145.639,0,0,0-2047.726,1403.291Z" transform="matrix(0.94, 0.342, -0.342, 0.94, 2967.71, 758.087)"/><path class="i" d="M-1733.86-36.831a64.2,64.2,0,0,0,64.2,64.2A63.958,63.958,0,0,0-1626.4,10.6a87.411,87.411,0,0,0,83.179,60.543A86.878,86.878,0,0,0-1516.615,67a44.9,44.9,0,0,0,30.425,11.818,45.074,45.074,0,0,0,45.08-45.08,44.832,44.832,0,0,0-8.164-25.876,64.354,64.354,0,0,0,41.542-33.637,32.08,32.08,0,0,0,11.808,2.241,32.09,32.09,0,0,0,32.089-32.1,32.1,32.1,0,0,0-32.089-32.1,31.986,31.986,0,0,0-12.924,2.712,64.183,64.183,0,0,0-56.389-33.493,63.906,63.906,0,0,0-18.2,2.625,48.181,48.181,0,0,0-35.089-15.107,48.311,48.311,0,0,0-44.55,29.618c-1.52.346-3.02.741-4.5,1.173a48.122,48.122,0,0,0-20.347-4.481A48.213,48.213,0,0,0-1627-84.776a63.911,63.911,0,0,0-42.667-16.242A64.19,64.19,0,0,0-1733.86-36.831Z" transform="translate(2783.558 762.165) rotate(-8)"/><g transform="translate(1369.445 732.024) rotate(-133)"><g transform="translate(0 0)"><path class="j" d="M48.325,70.4A158.141,158.141,0,0,1,10.958,24.981,160.612,160.612,0,0,1,0,.378L1.086,0A159.253,159.253,0,0,0,11.964,24.427a157.05,157.05,0,0,0,37.1,45.1Z"/></g><g transform="translate(1.091 6.269)"><path class="j" d="M2.084,20.58l-1.126.231A50.569,50.569,0,0,1,1.209,0l1.11.3A49.358,49.358,0,0,0,2.084,20.58Z"/></g><g transform="translate(0.49 21.646)"><path class="j" d="M1.353,0S-2.959,14.525,3.811,14.779,1.353,0,1.353,0Z" transform="translate(0 0)"/></g><g transform="translate(6.771 15.498)"><path class="j" d="M14.917,9.84l-.837.788C9.315,5.567.092,1.079,0,1.034L.5,0C.885.187,10.008,4.627,14.917,9.84Z"/></g><g transform="translate(16.7 21.821)"><path class="j" d="M0,0S6.923,14.065,10.918,9.833,0,0,0,0Z" transform="translate(0 0)"/></g><g transform="translate(13.106 28.603)"><path class="j" d="M4.9,17.759,3.9,18.313C-.376,10.543,0,.427.016,0L1.163.049C1.158.15.787,10.277,4.9,17.759Z"/></g><g transform="translate(15.435 41.645)"><path class="j" d="M0,0S.312,16.131,6.581,13.19C11.362,10.948,0,0,0,0Z" transform="translate(0)"/></g><g transform="translate(23.936 43.582)"><path class="j" d="M12.482,5.044C8.547,3.118.085,1.138,0,1.119L.262,0C.613.081,8.935,2.03,12.987,4.012Z" transform="translate(0 0)"/></g><g transform="translate(32.313 46.41)"><path class="j" d="M0,.019s9.328,10.2,11.511,4.806S0,.019,0,.019Z" transform="translate(0 0)"/></g><g transform="translate(32.094 54.499)"><path class="j" d="M6.819,16.683l-.957.638A39.8,39.8,0,0,1,0,.084L1.145,0C1.152.093,1.877,9.272,6.819,16.683Z" transform="translate(0)"/></g><g transform="translate(35.258 65.87)"><path class="j" d="M0,0S1.97,16.714,7.1,14.168,0,0,0,0Z" transform="translate(0 0)"/></g><g transform="translate(45.196 66.956)"><path class="j" d="M0,0S13.394,21,17.619,13.505C21.835,6.027,0,0,0,0Z"/></g></g><path class="g" d="M-1291.432,1393.986a136.332,136.332,0,0,1-136.332,136.332,135.743,135.743,0,0,1-87.193-31.533,102.39,102.39,0,0,1-78.772,36.864,102.485,102.485,0,0,1-85.568-45.993,136.117,136.117,0,0,1-111.963,58.545,135.83,135.83,0,0,1-56.142-12.058,102.107,102.107,0,0,1-60.409,19.667,102.578,102.578,0,0,1-102.582-102.58c0-1.122.024-2.243.058-3.353a52,52,0,0,1-37.39-49.9A51.975,51.975,0,0,1-1995.76,1348a51.786,51.786,0,0,1,37.424,15.926,102.013,102.013,0,0,1,45.169-13.158,136.32,136.32,0,0,1,121.906-75.236,135.962,135.962,0,0,1,100.637,44.368,67.872,67.872,0,0,1,44.289-16.349,67.976,67.976,0,0,1,48.91,20.685,51.983,51.983,0,0,1,51.543-45.283,51.822,51.822,0,0,1,30.947,10.205,135.749,135.749,0,0,1,87.171-31.51A136.334,136.334,0,0,1-1291.432,1393.986Z" transform="translate(1879.579 -469.126)"/><path class="k" d="M89.3,61.411A142.28,142.28,0,0,1-52.978,203.689a142.867,142.867,0,0,1-32.592-3.75A193.76,193.76,0,0,1-267.493,327c-98.9,0-180.467-74.1-192.237-169.8a141.9,141.9,0,0,1-46.348,7.724,142.021,142.021,0,0,1-112.75-55.5,106.8,106.8,0,0,1-25.9,3.162,107.09,107.09,0,0,1-100.3-69.564,71.158,71.158,0,0,1-67.241,47.859A71.136,71.136,0,0,1-883.4,19.751,71.14,71.14,0,0,1-812.269-51.4a71.073,71.073,0,0,1,62.357,36.9,107.07,107.07,0,0,1,105.18-87.043,106.528,106.528,0,0,1,50.407,12.581,141.574,141.574,0,0,1,88.247-30.675,141.426,141.426,0,0,1,26.84,2.546,99.936,99.936,0,0,1,97.147-76.491A99.936,99.936,0,0,1-288.681-129.2q4.955-.461,10.034-.462a107.07,107.07,0,0,1,106.3,94.223q5.037,2.855,9.893,5.989A141.932,141.932,0,0,1-52.978-80.867,142.28,142.28,0,0,1,89.3,61.411Z" transform="matrix(0.995, -0.105, 0.105, 0.995, 986.051, 1024.107)"/><g transform="translate(900.023 717.527)"><path class="i" d="M-288.841,297.633a22.607,22.607,0,0,1,5.571-6.759c2.369-1.741,5.572-2.6,8.307-1.526,4.283,1.687,5.633,7.06,5.791,11.662a54,54,0,0,1-9.415,32.22A52.722,52.722,0,0,1-260.4,315.877c2.779-1.592,6.089-2.957,9.112-1.9,3.363,1.182,5.129,5.131,4.821,8.682s-2.236,6.746-4.341,9.622A67.588,67.588,0,0,1-275.573,353a33.307,33.307,0,0,1-13,3.789c-5.854.252-11.736-2.084-14.673-7.346-2.708-4.854-1.205-8.269.124-13.187C-299.438,322.61-296.281,309.9-288.841,297.633Z" transform="translate(304.758 -288.873)"/><g transform="translate(7.211 8.775)"><line class="l" x1="20.437" y2="49.16" transform="translate(0)"/><line class="l" x1="34.246" y2="26.454" transform="translate(10.219 25.191)"/><line class="m" y1="8.264" x2="7.921" transform="translate(15.968 2.486)"/><line class="m" y1="13.452" x2="1.525" transform="translate(14.443 0.967)"/><line class="m" y1="9.393" x2="12.007" transform="translate(11.882 11.185)"/><line class="m" y1="19.748" x2="0.686" transform="translate(8.151 9.804)"/><line class="m" y1="11.73" x2="14.094" transform="translate(3.792 28.308)"/><path class="m" d="M-241.737,353.872c.175-.422.7-20.432.7-20.432" transform="translate(242.83 -307.341)"/><line class="m" y1="10.181" x2="4.584" transform="translate(37.257 20.578)"/><line class="m" y1="2.836" x2="11.431" transform="translate(33.586 30.759)"/><line class="m" y1="11.629" x2="4.557" transform="translate(27.342 26.789)"/><line class="m" y1="2.735" x2="14.061" transform="translate(21.704 40.038)"/><line class="m" y1="9.375" x2="3.713" transform="translate(15.206 38.418)"/><line class="m" y1="2.179" x2="13.162" transform="translate(12.384 47.793)"/></g></g><g transform="translate(936.673 1472.434) rotate(21)"><path class="i" d="M-230.214,210.368c-.534,25.9,15.7,40.322,36.082,40.743s37.2-13.318,37.73-39.22-15.238-62.619-35.621-63.039S-229.68,184.465-230.214,210.368Z" transform="translate(230.227 -148.848)"/><g transform="translate(0 0)"><g class="n"><g transform="translate(-6.206 -16.96)"><g transform="translate(3.73)"><path class="o" d="M-153.457,185.729l1.039-.849c-4.577-5.613-9.31-11.418-14.944-16.213-6.4-5.448-13.041-8.76-19.732-9.843a61.211,61.211,0,0,0-9.55-.539,70.427,70.427,0,0,1-8.125-.346,34.788,34.788,0,0,1-27.341-20.552l-1.234.528a36.153,36.153,0,0,0,28.412,21.354,70.583,70.583,0,0,0,8.282.358,60.344,60.344,0,0,1,9.341.521c6.447,1.043,12.865,4.253,19.077,9.541C-162.692,174.4-158,180.16-153.457,185.729Z" transform="translate(233.344 -137.386)"/></g><g transform="translate(1.57 14.263)"><path class="f" d="M-154.011,197.429l4.158-3.392c-4.633-5.682-9.423-11.558-15.2-16.475-6.685-5.69-13.655-9.154-20.715-10.3a62.311,62.311,0,0,0-9.862-.564,66.953,66.953,0,0,1-7.89-.334,32.738,32.738,0,0,1-25.734-19.341l-4.935,2.106a38.193,38.193,0,0,0,30.019,22.563,72.9,72.9,0,0,0,8.519.373,58.068,58.068,0,0,1,9.025.5c6.08.984,12.168,4.041,18.1,9.087C-163.124,186.248-158.493,191.932-154.011,197.429Z" transform="translate(234.188 -147.025)"/></g><g transform="translate(2.946 38.047)"><path class="o" d="M-152.928,211.441l1.04-.849c-4.578-5.613-9.31-11.418-14.945-16.213-6.4-5.448-13.039-8.76-19.732-9.843a61.192,61.192,0,0,0-9.55-.539,70.4,70.4,0,0,1-8.124-.346A34.792,34.792,0,0,1-231.581,163.1l-1.233.528A36.151,36.151,0,0,0-204.4,184.98a70.906,70.906,0,0,0,8.282.358,60.335,60.335,0,0,1,9.34.521c6.447,1.043,12.866,4.253,19.077,9.541C-162.162,200.116-157.468,205.872-152.928,211.441Z" transform="translate(232.814 -163.098)"/></g><g transform="translate(0.784 52.31)"><path class="f" d="M-153.481,223.141l4.159-3.392c-4.632-5.679-9.42-11.554-15.2-16.475-6.684-5.69-13.653-9.154-20.713-10.3a62.331,62.331,0,0,0-9.864-.564,66.937,66.937,0,0,1-7.888-.334,32.736,32.736,0,0,1-25.734-19.341l-4.936,2.106a38.2,38.2,0,0,0,30.021,22.563,72.566,72.566,0,0,0,8.517.373,57.716,57.716,0,0,1,9.026.5c6.079.984,12.166,4.041,18.094,9.087C-162.591,211.964-157.96,217.647-153.481,223.141Z" transform="translate(233.658 -172.737)"/></g><g transform="translate(2.162 76.093)"><path class="o" d="M-152.4,237.153l1.039-.849c-4.577-5.613-9.31-11.418-14.944-16.213-6.4-5.448-13.041-8.76-19.732-9.843a61.311,61.311,0,0,0-9.546-.537,70.15,70.15,0,0,1-8.13-.348A34.788,34.788,0,0,1-231.05,188.81l-1.233.528a36.149,36.149,0,0,0,28.412,21.354,70.568,70.568,0,0,0,8.285.358,60.457,60.457,0,0,1,9.337.521c6.447,1.043,12.865,4.253,19.077,9.541C-161.632,225.828-156.937,231.584-152.4,237.153Z" transform="translate(232.283 -188.81)"/></g><g transform="translate(0 90.358)"><path class="f" d="M-152.951,248.852l4.159-3.392c-4.632-5.679-9.42-11.554-15.2-16.475-6.684-5.69-13.653-9.154-20.715-10.3a62.309,62.309,0,0,0-9.862-.564,67.285,67.285,0,0,1-7.89-.333,32.742,32.742,0,0,1-25.734-19.341l-4.935,2.106a38.2,38.2,0,0,0,30.019,22.563,72.894,72.894,0,0,0,8.519.371,57.886,57.886,0,0,1,9.025.5c6.08.984,12.168,4.041,18.1,9.087C-162.061,237.676-157.43,243.358-152.951,248.852Z" transform="translate(233.128 -198.45)"/></g></g></g></g><path class="p" d="M-194.206,238.324c-19.328-.4-34.914-13.393-36.021-36.821a65.11,65.11,0,0,0,42.144-2.594A65.014,65.014,0,0,0-159.7,175.5a84.372,84.372,0,0,1,3.224,23.6C-157.01,225.007-173.824,238.744-194.206,238.324Z" transform="translate(230.3 -136.061)"/><path class="q" d="M-199.622,162.681c-4.568,7.242-5.333,14.966-1.711,17.251s10.263-1.733,14.831-8.976,5.333-14.964,1.711-17.251S-195.054,155.439-199.622,162.681Z" transform="translate(216.97 -146.825)"/></g><path class="g" d="M102.122,1056.17A154.918,154.918,0,0,1-52.794,1211.087,155.543,155.543,0,0,1-88.281,1207a210.975,210.975,0,0,1-198.085,138.354,210,210,0,0,1-129.714-44.6,108.553,108.553,0,0,1-79.508,34.527,108.8,108.8,0,0,1-108.795-108.793,108.238,108.238,0,0,1,19.7-62.443,155.264,155.264,0,0,1-100.246-81.2,77.168,77.168,0,0,1-28.478,5.409,77.459,77.459,0,0,1-77.465-77.45A77.462,77.462,0,0,1-713.4,933.342a77.142,77.142,0,0,1,31.191,6.538,153.7,153.7,0,0,1,11.366-17.828,115.825,115.825,0,0,1-1.63-19.488A116.578,116.578,0,0,1-555.9,786a116.542,116.542,0,0,1,116.55,115.772A154.952,154.952,0,0,1-401.7,957.859,210.135,210.135,0,0,1-335.033,929.2a116.192,116.192,0,0,1,84.977-36.782,116.383,116.383,0,0,1,94.289,48.027,154.266,154.266,0,0,1,102.974-39.19A154.918,154.918,0,0,1,102.122,1056.17Z" transform="translate(-548.751 1785.083) rotate(-162)"/><g transform="translate(118.059 762.836) rotate(-159)"><g transform="translate(0 0)"><path class="j" d="M32.436,47.256A106.145,106.145,0,0,1,7.355,16.768,107.8,107.8,0,0,1,0,.254L.729,0a106.892,106.892,0,0,0,7.3,16.4,105.413,105.413,0,0,0,24.9,30.269Z" transform="translate(0)"/></g><g transform="translate(0.732 4.208)"><path class="j" d="M1.4,13.813l-.756.155A33.943,33.943,0,0,1,.811,0l.745.2A33.129,33.129,0,0,0,1.4,13.813Z" transform="translate(0)"/></g><g transform="translate(0.329 14.529)"><path class="j" d="M.908,0s-2.894,9.749,1.65,9.92S.908,0,.908,0Z" transform="translate(0 0)"/></g><g transform="translate(4.545 10.403)"><path class="j" d="M10.013,6.6l-.562.529C6.253,3.737.062.724,0,.694L.335,0C.594.126,6.718,3.106,10.013,6.6Z" transform="translate(0 0)"/></g><g transform="translate(11.209 14.647)"><path class="j" d="M0,0S4.647,9.441,7.328,6.6,0,0,0,0Z" transform="translate(0 0)"/></g><g transform="translate(8.797 19.198)"><path class="j" d="M3.291,11.92l-.675.372C-.252,7.076,0,.286.011,0l.77.033C.777.1.529,6.9,3.291,11.92Z" transform="translate(0)"/></g><g transform="translate(10.36 27.953)"><path class="j" d="M0,0S.209,10.827,4.417,8.853C7.626,7.349,0,0,0,0Z" transform="translate(0)"/></g><g transform="translate(16.066 29.252)"><path class="j" d="M8.378,3.386A54.33,54.33,0,0,0,0,.751L.176,0A54.01,54.01,0,0,1,8.717,2.693Z" transform="translate(0 0)"/></g><g transform="translate(21.688 31.151)"><path class="j" d="M0,.013S6.261,6.862,7.726,3.239,0,.013,0,.013Z" transform="translate(0 0)"/></g><g transform="translate(21.542 36.58)"><path class="j" d="M4.577,11.2l-.642.428A26.712,26.712,0,0,1,0,.056L.768,0A26.436,26.436,0,0,0,4.577,11.2Z" transform="translate(0)"/></g><g transform="translate(23.665 44.212)"><path class="j" d="M0,0S1.322,11.219,4.769,9.509,0,0,0,0Z" transform="translate(0 0)"/></g><g transform="translate(30.336 44.941)"><path class="j" d="M0,0S8.99,14.094,11.826,9.065,0,0,0,0Z" transform="translate(0 0)"/></g></g><g transform="translate(240.159 743.633) rotate(13)"><path class="r" d="M39.529,32.1c0,12.2-8.849,20.712-19.765,20.712S0,44.294,0,32.1,8.849,0,19.765,0,39.529,19.9,39.529,32.1Z" transform="translate(0 0)"/><g transform="translate(0.306 0.001)"><path class="s" d="M1.79.048A3.429,3.429,0,0,0,0,.652C.037.7.214.652.728.452A4.936,4.936,0,0,1,2.563,0,6.641,6.641,0,0,0,1.79.048" transform="translate(16.962 0)"/><path class="s" d="M1.843,2.047C.766,3.015-.092,4.059.008,4.282c.127.039.44-.158.93-.586S4.828.086,4.877.027L4.869,0a4.257,4.257,0,0,0-.923.467,14.4,14.4,0,0,0-2.1,1.58" transform="translate(9.91 1.37)"/><path class="s" d="M.173,1.094C-.305,2.1.28,2.864,1.051,2.641c1.291-.372.909-2.325.375-2.619-.085-.047-.2-.034-.5.173a2.443,2.443,0,0,0-.754.9" transform="translate(18.011 0.165)"/><path class="s" d="M.43,2.942C-.541,5.034.258,6.2,1.569,5.646,3.878,4.678,4.692.516,3.6.045c-.511-.22-1.265.434-1.549.681A7.362,7.362,0,0,0,.43,2.942" transform="translate(11.593 4.058)"/><path class="s" d="M.507,3.964c-.839,2.267-.614,3.768.5,3.345C3.147,6.5,4.836.8,3.645.066c-.524-.321-1.282.616-1.568.968a11.645,11.645,0,0,0-1.57,2.93" transform="translate(4.104 11.695)"/><path class="s" d="M0,7.211a.494.494,0,0,0,.014.22h.06C.879,6.554,1.955.839,1.628,0H1.573a.821.821,0,0,0-.107.236A44.544,44.544,0,0,0,0,7.211" transform="translate(0 21.177)"/><path class="s" d="M.639,2.359c1.136,2.217,2.818,2.951,3.15,2.12C4.376,3.009.892-.416.123.042-.027.131-.005.37.013.562a6.347,6.347,0,0,0,.626,1.8" transform="translate(23.017 2.06)"/><path class="s" d="M.016,3.678c.251,3.04,3.316,4.23,4.668,2.452,1.675-2.2-.555-6.4-2.634-6.116A2.138,2.138,0,0,0,.7.943,4.337,4.337,0,0,0,.016,3.678" transform="translate(19.699 8.538)"/><path class="s" d="M.007,4.181C-.162,7.465,2.938,8.559,5.013,6.766,7.5,4.62,6.254.331,3.719.018a3,3,0,0,0-2.471,1.1A5.208,5.208,0,0,0,.007,4.181" transform="translate(11.511 17.545)"/><path class="s" d="M0,3.9c.074,2.555,2.142,4.424,3.9,2.715C6.321,4.274,5.059,0,2.644,0A2.359,2.359,0,0,0,.826,1.061,4.735,4.735,0,0,0,0,3.9" transform="translate(3.917 27.174)"/><path class="s" d="M.664,3.946C1.571,6.16,3,7.526,3.344,6.51,3.976,4.649,1.461-.7.32.077.032.273.012.792,0,1.1A7.914,7.914,0,0,0,.664,3.946" transform="translate(1.011 36.551)"/><path class="s" d="M.341,4.054C1.235,6.9,3.315,8.276,4.05,7.061,5.117,5.3,2.511-.364.807.019.307.131.148.761.071,1.064a6.475,6.475,0,0,0,.27,2.99" transform="translate(30.284 13.203)"/><path class="s" d="M.037,4.109c.427,3.214,4.01,4.2,5.558,2.2C7.357,4.043,5.311-.31,2.636.017A2.846,2.846,0,0,0,.822,1.112a4.1,4.1,0,0,0-.785,3" transform="translate(24.657 22.786)"/><path class="s" d="M.032,4.265a3.632,3.632,0,0,0,6.392,1.99A3.8,3.8,0,0,0,3.254.019,3.676,3.676,0,0,0,1,1.107,4.1,4.1,0,0,0,.032,4.265" transform="translate(15.504 32.006)"/><path class="s" d="M.4,3.4c1.2,2.311,4.114,3.381,4.87,1.248C6.153,2.166,3.022-.942.865.271A1.653,1.653,0,0,0,.2.979,2.65,2.65,0,0,0,.4,3.4" transform="translate(9.321 41.395)"/><path class="s" d="M.974,3.644c.442,1.736.592,2.342.69,2.864q-.189-1.056-.439-2.136C.9,2.954.5,1.515.027.082L0,0C.066.2.081.255.175.579c.193.694.313,1.152.8,3.065" transform="translate(37.057 19.705)"/><path class="s" d="M0,3.95c.067,2.288.9,4.2,1.779,3.163C3.08,5.586,2.79,0,1.414,0,.912,0,.58.722.438,1.031A7.3,7.3,0,0,0,0,3.95" transform="translate(36.301 28.71)"/><path class="s" d="M.071,3.772c-.38,2.1.806,3.567,2.73,2.283C5.282,4.4,5.914.336,3.739.018A2.99,2.99,0,0,0,1.457,1.052,5.483,5.483,0,0,0,.071,3.772" transform="translate(28.795 38.139)"/><path class="s" d="M0,2.6c-.034,1.818,1.894,2.42,3.74.571C5.188,1.719,4.755,0,2.943,0A3.242,3.242,0,0,0,.953.749,2.6,2.6,0,0,0,0,2.6" transform="translate(20.658 46.169)"/><path class="s" d="M.675,1.128a3.373,3.373,0,0,0,1.363.382c.023-.108.077-.207.09-.317A.742.742,0,0,0,2.109.9,1.065,1.065,0,0,0,1.732.369,1.6,1.6,0,0,0,.2.1.35.35,0,0,0,0,.369c0,.1.017.414.675.759" transform="translate(17.345 51.277)"/><path class="s" d="M1.615,3.165C.188,5.009.006,5.251,0,5.372c.053,0,.152,0,.762-.567q.3-.283.592-.58A19.4,19.4,0,0,0,3.33,1.854q.375-.531.718-1.091c.366-.6.352-.7.344-.758-.108-.057-.462.312-.959.884-.47.555-.827.994-1.819,2.276" transform="translate(32.146 42.803)"/><path class="s" d="M1.632,1.844A16.518,16.518,0,0,0,0,2.829l0,.032C1.077,2.983,5.852.828,5.461.084c-.062-.119-.366-.215-1.7.473-.63.343-.714.4-2.127,1.287" transform="translate(23.635 49.329)"/><path class="s" d="M0,.231A4.227,4.227,0,0,0,1.61.021l0-.012A2.787,2.787,0,0,0,.8.13a3.978,3.978,0,0,1-.8.1" transform="translate(19.525 52.579)"/></g></g><g transform="translate(1598.554 -281.149)"><g transform="translate(-1473.209 987.843)"><path class="o" d="M-1361.568,1019.065s-9.376-23.759-14.656-24.942-9.558,3.641-5.553,9.831c3.6,5.564,17.842,18.752,17.842,18.752Z" transform="translate(1447.231 -993.804)"/><path class="o" d="M-1360.976,1018.867l-2.367,3.64s-1.72-1.592-4.116-3.9c-4.493-4.344-11.375-11.218-13.728-14.844-4-6.192.277-11.019,5.552-9.832,4.116.917,10.727,15.561,13.429,21.974C-1361.431,1017.715-1360.976,1018.867-1360.976,1018.867Z" transform="translate(1447.06 -993.748)"/><path class="t" d="M-1354.753,1027.876l-2.367,3.64s-1.72-1.592-4.116-3.9a12.845,12.845,0,0,1,5.253-2.7C-1355.208,1026.725-1354.753,1027.876-1354.753,1027.876Z" transform="translate(1440.837 -1002.758)"/><path class="o" d="M-1429.49,1115.62s-.682.761-1.919,1.87a36.226,36.226,0,0,1-10.493,6.6c-7.393,2.9-9.91,1.8-11.282,5.559s-.874,7.927-3.028,7.251c-1.173-.363-3.064-2.559-4.18-5.431a10.981,10.981,0,0,1-.313-7.969c2.268-5.815,12.448-9.8,13.6-10.258s5.332-2.844,7-2.936a38.715,38.715,0,0,0,5.744-1.3Z" transform="translate(1469.771 -1027.069)"/><path class="t" d="M-1429.49,1115.62s-.682.761-1.919,1.87a45.118,45.118,0,0,1-3.867,2.538s-8.886,5.254-17.161,5.367c-3.654.05-6.625,2.73-7.955,6.071a10.981,10.981,0,0,1-.313-7.969c2.268-5.815,12.448-9.8,13.6-10.258s5.332-2.844,7-2.936a38.715,38.715,0,0,0,5.744-1.3Z" transform="translate(1469.771 -1027.069)"/><path class="o" d="M-1325.248,1077.9c-2.588,2.765-5.133,4.571-7.756,3.675-1.72-.59-6.938.647-12.576,2.5-2.7.882-5.5,1.912-8.054,2.943-.242.1-.483.2-.718.3-7.969,3.306-1.834-5.573,3.441-8.161h.014c.242-.043,3.483-.562,7.457-1.287,5.481-1,12.355-2.367,14.651-3.37C-1324.758,1072.742-1322.66,1075.138-1325.248,1077.9Z" transform="translate(1439.953 -1016.92)"/><path class="t" d="M-1341.97,1079.482a12.127,12.127,0,0,1-2.14,6.206c-2.7.881-5.5,1.912-8.054,2.943l-.931-4.472,3.668-3.391C-1349.186,1080.726-1345.944,1080.207-1341.97,1079.482Z" transform="translate(1438.484 -1018.534)"/><path class="o" d="M-1432.859,1073.961a21.533,21.533,0,0,1-.327,3.37,4.7,4.7,0,0,1-3.057,3.625c-1.941.675-6.227-.057-8.8-2.68a7.056,7.056,0,0,1-1.99-3.96c-.86-5.8,6.5-12.782,11.062-9.32C-1433.25,1067.065-1432.788,1071.075-1432.859,1073.961Z" transform="translate(1465.662 -1014.08)"/><path class="t" d="M-1432.021,1077.982a21.54,21.54,0,0,1-.327,3.37,4.7,4.7,0,0,1-3.057,3.625c-1.941.675-6.227-.057-8.8-2.68,1.472.59,6.071,1.8,11.3-3.5C-1432.6,1078.494-1432.306,1078.224-1432.021,1077.982Z" transform="translate(1464.824 -1018.101)"/><path class="o" d="M-1357.09,1079.753c-3.107,2-5.737,3.228-10.407,1.749-1.77-.562-5.062-.391-8.7-.021-3.213.32-6.7.8-9.675,1.045a27.405,27.405,0,0,1-2.652,2.709c-2.95,2.7-7.173,5.95-9.391,6.96a86.956,86.956,0,0,1-36.789,7.407c-2.915-.05-4.607-.256-4.607-.256s-8.886,5.254-17.161,5.367c-5.268.064-9.121,5.623-8.687,10.713.384,4.514-.882,6.668-2.559,7.372a2.975,2.975,0,0,1-.647.2c-1.991.391-4.87-15.277-3.021-20.474s14.239-6.5,19.649-15.043c4.464-7.059,4.194-8.929,6.433-12.313a25.159,25.159,0,0,1,1.806-2.4c4.379-5.225,18.547-6.306,30.917-9.007s20.651-14.324,22.023-17.78,12.81-5.026,16.663,2.808c0,0-.135,1.713-.583,4.464a85.946,85.946,0,0,1-2.559,11.289,68.859,68.859,0,0,1-2.922,8c-.277.633-.569,1.265-.874,1.891.974.135,2.019.277,3.121.412,5.844.725,13.08,1.294,17.125.441C-1353.038,1073.7-1353.976,1077.763-1357.09,1079.753Z" transform="translate(1472.854 -1008.029)"/><path class="t" d="M-1344.942,1093.331c-3.213.32-6.7.8-9.675,1.045a27.4,27.4,0,0,1-2.652,2.708,21.923,21.923,0,0,1-6.6-6.945l2.019-.846,3.618-3.953s6.412-1.884,9.526-.946c-.277.633-.569,1.265-.874,1.891.974.135,2.019.277,3.121.412A14.8,14.8,0,0,1-1344.942,1093.331Z" transform="translate(1441.597 -1019.879)"/><path class="t" d="M-1422.974,1099.64c-.818,5.481-7.237,10.535-10.87,12.995-2.915-.05-4.607-.256-4.607-.256s-8.886,5.254-17.161,5.367c-5.268.064-9.121,5.623-8.687,10.713.384,4.514-.881,6.668-2.559,7.372-1.607-4.344-2.964-14.467-1.55-18.448,1.855-5.2,14.239-6.5,19.649-15.042a51.655,51.655,0,0,0,3.853-7.088c3.761-8.481,15.625-9.59,20.467-1.671A9.26,9.26,0,0,1-1422.974,1099.64Z" transform="translate(1471.992 -1021.062)"/><path class="t" d="M-1361.566,1058.831s4.563,10.276,16.45,9.105a86.613,86.613,0,0,0,2.561-11.289l-3.66-.825-9.085-.951Z" transform="translate(1440.932 -1011.419)"/><path class="o" d="M-1362.88,1054.5c6.127,3.661,16.105,2.893,21.457-2.269s8.532-10.441,6.38-14.03-5.246-2.379-7.66-4.844-4.462-4.76-9.014-5.451c-2.971-.451-9.2-1.074-14.846,5.955a13.663,13.663,0,0,0-.993,1.395,18.993,18.993,0,0,0-1.5,2.934C-1371.985,1045.45-1368.3,1051.254-1362.88,1054.5Z" transform="translate(1443.397 -1003.55)"/><path class="o" d="M-1340.742,1052.08c-5.353,5.161-15.327,5.929-21.455,2.268-4.848-2.9-8.311-7.848-6.881-14.069a14.726,14.726,0,0,1,.7-2.239,19.179,19.179,0,0,1,1.5-2.936,14.8,14.8,0,0,1,1-1.393,21.333,21.333,0,0,1,1.663-1.834,14.4,14.4,0,0,1,13.18-4.116c4.557.69,6.6,2.986,9.014,5.445s5.509,1.258,7.663,4.848S-1335.389,1046.918-1340.742,1052.08Z" transform="translate(1443.198 -1003.508)"/><path class="t" d="M-1361.6,1037.2l-.27.114a23.827,23.827,0,0,1-7.081,4.742,14.745,14.745,0,0,1,.7-2.239,19.174,19.174,0,0,1,1.5-2.936,14.8,14.8,0,0,1,1-1.393,21.335,21.335,0,0,1,1.664-1.834l.526.2Z" transform="translate(1443.066 -1005.285)"/><path class="g" d="M-1345.372,1037.766c1.3,1.639,3.165,2.327,4.165,1.535s.757-2.767-.541-4.406-3.165-2.327-4.165-1.534S-1346.673,1036.125-1345.372,1037.766Zm1.351-1.9a.825.825,0,0,1,.131-1.156.826.826,0,0,1,1.159.134.824.824,0,0,1-.136,1.156A.822.822,0,0,1-1344.021,1035.863Z" transform="translate(1436.585 -1005.105)"/><path class="g" d="M-1323.157,1042.935a2,2,0,0,0,2.758-.089,2,2,0,0,0,.717-2.664,2,2,0,0,0-2.758.089A2,2,0,0,0-1323.157,1042.935Z" transform="translate(1429.909 -1007.025)"/><path class="u" d="M-1331.27,1048.4s-6.009,4.382-6.231,8.728" transform="translate(1433.975 -1009.547)"/><path class="u" d="M-1329.236,1050.739s-2.47,3.441-2.353,6.4" transform="translate(1432.267 -1010.224)"/><g transform="translate(43.712 9.564)"><path class="o" d="M-1407.216,1020.334c5.244,2.487,32.984,9.331,32.984,9.331l.269-.433,1.072-1.74.862-1.391s-26.969-20.052-33.888-18.847C-1414.16,1008.693-1412.716,1017.727-1407.216,1020.334Z" transform="translate(1411.72 -1007.202)"/><path class="o" d="M-1407.216,1020.785c5.244,2.487,32.984,9.331,32.984,9.331l.269-.433,1.072-1.74.862-1.391S-1399,1006.5-1405.916,1007.7C-1414.16,1009.145-1412.716,1018.178-1407.216,1020.785Z" transform="translate(1411.72 -1007.332)"/><path class="g" d="M-1402.452,1023.741c3.333,1.206,25.331,7.272,30.333,8.65l1.072-1.74c-3.616-1.986-26.754-14.592-30.943-13.572C-1406.546,1018.179-1406.225,1022.381-1402.452,1023.741Z" transform="translate(1409.877 -1010.041)"/></g><path class="o" d="M-1326.851,1091.726c-3.107,2-5.737,3.227-10.408,1.749-3.334-1.052-12.035.483-18.376,1.024-8.182-.746-12.085-4.813-8.374-8.637s13.415.547,13.415.547c6.128.867,15.441,1.87,20.246.853C-1322.8,1085.669-1323.738,1089.736-1326.851,1091.726Z" transform="translate(1442.046 -1019.926)"/><path class="o" d="M-1326.051,1091.62c-3.107,2-5.737,3.228-10.407,1.749-3.334-1.052-12.035.484-18.377,1.024-8.182-.746-12.085-4.813-8.374-8.637s13.415.547,13.415.547c6.128.867,15.441,1.87,20.246.853C-1322,1085.563-1322.937,1089.63-1326.051,1091.62Z" transform="translate(1441.815 -1019.895)"/><path class="o" d="M-1427.182,1096.661c-1.152,7.7-13.358,14.566-13.358,14.566s-8.886,5.254-17.161,5.367c-5.268.064-9.121,5.623-8.687,10.713s-1.223,7.173-3.206,7.571-4.87-15.277-3.021-20.474,14.239-6.5,19.649-15.042a52.335,52.335,0,0,0,3.854-7.086c3.763-8.482,15.625-9.591,20.466-1.674A9.234,9.234,0,0,1-1427.182,1096.661Z" transform="translate(1473.209 -1020.201)"/><path class="o" d="M-1425.954,1097.07c-1.152,7.7-13.358,14.566-13.358,14.566s-8.886,5.254-17.161,5.367c-5.268.064-9.121,5.623-8.687,10.713s-1.223,7.173-3.206,7.571-4.87-15.277-3.021-20.474,14.239-6.5,19.649-15.042a52.348,52.348,0,0,0,3.854-7.085c3.763-8.483,15.625-9.592,20.466-1.675A9.235,9.235,0,0,1-1425.954,1097.07Z" transform="translate(1472.854 -1020.319)"/></g></g><path class="k" d="M-1087.906,33.385a112.071,112.071,0,0,1-112.069,112.068,111.651,111.651,0,0,1-75.523-29.277A152.593,152.593,0,0,1-1420.7,221.867a151.662,151.662,0,0,1-46.449-7.219,78.382,78.382,0,0,1-53.114,20.631,78.687,78.687,0,0,1-78.7-78.7,78.264,78.264,0,0,1,14.253-45.172,112.343,112.343,0,0,1-72.52-58.721,56,56,0,0,1-20.613,3.911A56.02,56.02,0,0,1-1733.86.567a56.03,56.03,0,0,1,56.017-56.033,55.839,55.839,0,0,1,22.561,4.734,112.044,112.044,0,0,1,98.438-58.469,111.564,111.564,0,0,1,31.777,4.583,84.109,84.109,0,0,1,61.256-26.372,84.336,84.336,0,0,1,77.771,51.7c2.653.6,5.272,1.293,7.858,2.048a84.007,84.007,0,0,1,35.521-7.823,84.165,84.165,0,0,1,68.2,34.749,111.571,111.571,0,0,1,74.483-28.354A112.057,112.057,0,0,1-1087.906,33.385Z" transform="translate(1620.883 975.242)"/><g transform="translate(1331.668 932.829) rotate(56)"><g transform="translate(-433.152 180.154)"><path class="o" d="M-435.416,179.553c5.6,2.935,10.265,8.435,13.879,16.348,1.6,3.5,2.9,7.2,4.168,10.778,1.136,3.22,2.31,6.548,3.7,9.732A72.5,72.5,0,0,0-388.5,247.043l.229-.329a72.1,72.1,0,0,1-25.03-30.462c-1.383-3.171-2.555-6.492-3.688-9.7-1.266-3.586-2.574-7.293-4.182-10.811-3.652-8-8.381-13.561-14.057-16.537Z" transform="translate(435.416 -179.198)"/></g><g transform="translate(-417.872 218.001)"><path class="o" d="M-411.633,218.4c-.051-.063-5.208-6.357-10.8-7.142l-.041.292c5.476.771,10.561,6.974,10.612,7.038Z" transform="translate(422.474 -211.254)"/></g><g transform="translate(-411.969 204.882)"><path class="o" d="M-417.148,211.2c0-.067-.414-6.8,1.771-10.925l-.262-.137c-2.221,4.2-1.806,11.014-1.8,11.08Z" transform="translate(417.474 -200.142)"/></g><g transform="translate(-413.85 190.66)"><path class="o" d="M-412.662,201.044a12.65,12.65,0,0,0-.875-6.886,28.923,28.923,0,0,0-3.53-6.063c.633,2.78-1.012,5.508-1.677,8.281a12.371,12.371,0,0,0,.485,7.2c.293.772.842,2.512,1.739,2.783s1.858-1.065,2.313-1.682A8.809,8.809,0,0,0-412.662,201.044Z" transform="translate(419.067 -188.096)"/></g><g transform="translate(-431.84 213.857)"><path class="o" d="M-421.487,214.406c-2.153-.488-4.133-1.458-6.334-2.107-2.138-.632-4.577-.806-6.484.349a11.547,11.547,0,0,1,9.866-4.893,11.682,11.682,0,0,1,8.476,4.442c1.642,2.085-1.09,2.462-2.648,2.508A11.37,11.37,0,0,1-421.487,214.406Z" transform="translate(434.305 -207.744)"/></g><g transform="translate(-425.984 196.329)"><path class="o" d="M-419.42,200.5c-.04-.063-4.167-6.2-9.853-7.607l-.072.287c5.577,1.379,9.639,7.422,9.678,7.483Z" transform="translate(429.345 -192.898)"/></g><g transform="translate(-438.749 191.736)"><path class="o" d="M-431.343,189.121a10.52,10.52,0,0,0-8.814,2.838,2.913,2.913,0,0,1,3.112-.627,6.9,6.9,0,0,1,2.678,1.987,16.517,16.517,0,0,0,2.39,2.366c1.829,1.307,4.963,1.59,6.805.12,2.222-1.775-.615-4.154-2.162-5.15A10.343,10.343,0,0,0-431.343,189.121Z" transform="translate(440.157 -189.007)"/></g><g transform="translate(-421.705 184.8)"><path class="o" d="M-424.6,191.787c-.017-.057-1.627-5.736-.3-8.528l-.266-.126c-1.375,2.883.213,8.5.28,8.736Z" transform="translate(425.72 -183.133)"/></g><g transform="translate(-423.265 173.905)"><path class="o" d="M-420.926,184a15.435,15.435,0,0,0,.911-5.1,11.061,11.061,0,0,1,1.243-5,10.845,10.845,0,0,0-7.612,6.354,7.67,7.67,0,0,0-.612,3.847c.157,1.259.849,3.286,2.45,3A5.3,5.3,0,0,0-420.926,184Z" transform="translate(427.042 -173.905)"/></g><g transform="translate(-447.949 175.538)"><path class="o" d="M-433.734,176.542a12.936,12.936,0,0,0-7.135-1.179,28.4,28.4,0,0,0-7.08,1.813,5.093,5.093,0,0,1,4.793.71,39.159,39.159,0,0,1,3.809,3.325,10.024,10.024,0,0,0,4.5,2.361c1.66.325,4.776.039,5.074-2.136C-429.488,179.361-432.151,177.358-433.734,176.542Z" transform="translate(447.949 -175.288)"/></g></g><g transform="translate(927.238 746.193) rotate(20)"><path class="s" d="M-1415.753,635.705c0,14.579-10.58,24.758-23.626,24.758a23.144,23.144,0,0,1-17.441-7.7,25.3,25.3,0,0,1-6.185-17.058c0-7.515,2.815-17.484,7.33-25.374,4.235-7.412,9.977-12.99,16.3-12.99C-1426.333,597.341-1415.753,621.131-1415.753,635.705Z" transform="translate(1463.005 -597.341)"/><g transform="translate(0.368)"><path class="r" d="M-1412.911,597.4a4.1,4.1,0,0,0-2.139.722c.044.058.256,0,.871-.239a5.907,5.907,0,0,1,2.194-.541,7.9,7.9,0,0,0-.925.057" transform="translate(1435.323 -597.34)"/><path class="r" d="M-1432.429,603.592c-1.287,1.157-2.312,2.4-2.193,2.672.152.046.526-.189,1.112-.7.57-.5,4.65-4.314,4.708-4.385l-.01-.033a5.1,5.1,0,0,0-1.1.558,17.216,17.216,0,0,0-2.514,1.889" transform="translate(1446.476 -599.507)"/><path class="r" d="M-1411.93,599.107c-.571,1.2.128,2.115,1.051,1.849,1.542-.445,1.086-2.779.449-3.13-.1-.056-.237-.041-.6.207a2.922,2.922,0,0,0-.9,1.074" transform="translate(1433.664 -597.601)"/><path class="r" d="M-1429.443,612.126c-1.161,2.5-.206,3.89,1.361,3.233,2.759-1.158,3.732-6.132,2.425-6.7-.611-.263-1.512.519-1.852.814a8.792,8.792,0,0,0-1.934,2.649" transform="translate(1443.814 -603.759)"/><path class="r" d="M-1450.147,634.554c-1,2.71-.734,4.5.6,4,2.556-.969,4.575-7.786,3.151-8.658-.627-.384-1.533.736-1.874,1.157a13.915,13.915,0,0,0-1.877,3.5" transform="translate(1455.659 -615.837)"/><path class="r" d="M-1462.147,664.766a.6.6,0,0,0,.017.264h.071c.957-1.049,2.244-7.879,1.854-8.883h-.066a.988.988,0,0,0-.128.282,53.231,53.231,0,0,0-1.749,8.336" transform="translate(1462.151 -630.835)"/><path class="r" d="M-1397.47,605.882c1.358,2.65,3.368,3.527,3.765,2.534.7-1.758-3.462-5.851-4.382-5.3-.18.107-.153.393-.131.622a7.569,7.569,0,0,0,.748,2.148" transform="translate(1425.746 -600.599)"/><path class="r" d="M-1407.429,625.447c.3,3.634,3.964,5.056,5.58,2.93,2-2.632-.663-7.653-3.149-7.31a2.554,2.554,0,0,0-1.613,1.11,5.187,5.187,0,0,0-.818,3.27" transform="translate(1430.993 -610.845)"/><path class="r" d="M-1430.177,651.059c-.2,3.925,3.5,5.233,5.984,3.09,2.967-2.565,1.484-7.692-1.547-8.066a3.584,3.584,0,0,0-2.953,1.309,6.225,6.225,0,0,0-1.484,3.667" transform="translate(1443.944 -625.09)"/><path class="r" d="M-1451.27,677.465c.088,3.054,2.561,5.287,4.665,3.245,2.888-2.8,1.379-7.911-1.508-7.911a2.819,2.819,0,0,0-2.172,1.268,5.659,5.659,0,0,0-.985,3.4" transform="translate(1455.955 -640.319)"/><path class="r" d="M-1458.55,703.557c1.085,2.646,2.791,4.278,3.2,3.065.755-2.224-2.251-8.62-3.614-7.689-.344.235-.368.854-.382,1.224a9.45,9.45,0,0,0,.793,3.4" transform="translate(1460.552 -655.152)"/><path class="r" d="M-1377.647,638.851c1.068,3.4,3.553,5.046,4.432,3.594,1.277-2.109-1.839-8.875-3.876-8.418-.6.134-.787.887-.879,1.249a7.734,7.734,0,0,0,.323,3.574" transform="translate(1414.252 -618.223)"/><path class="r" d="M-1393.635,665.526c.51,3.841,4.792,5.014,6.643,2.632,2.106-2.711-.34-7.913-3.537-7.523a3.4,3.4,0,0,0-2.168,1.308,4.906,4.906,0,0,0-.938,3.582" transform="translate(1423.151 -633.379)"/><path class="r" d="M-1419.06,691.315a4.341,4.341,0,0,0,7.64,2.379,4.536,4.536,0,0,0-3.789-7.454,4.394,4.394,0,0,0-2.695,1.3,4.9,4.9,0,0,0-1.156,3.774" transform="translate(1437.629 -647.962)"/><path class="r" d="M-1435.786,716.356c1.434,2.762,4.918,4.042,5.821,1.492,1.051-2.966-2.692-6.682-5.269-5.231a1.975,1.975,0,0,0-.8.846,3.166,3.166,0,0,0,.247,2.893" transform="translate(1447.409 -662.814)"/><path class="r" d="M-1358.083,656.416c.528,2.076.708,2.8.825,3.423q-.227-1.263-.524-2.553c-.391-1.694-.871-3.415-1.432-5.128l-.032-.1c.079.245.1.3.209.692.231.829.374,1.377.955,3.664" transform="translate(1403.54 -628.507)"/><path class="r" d="M-1361.339,681.787c.08,2.735,1.077,5.018,2.127,3.781,1.55-1.826,1.2-8.5-.441-8.5-.6,0-1,.863-1.167,1.232a8.719,8.719,0,0,0-.519,3.489" transform="translate(1404.734 -642.75)"/><path class="r" d="M-1382.1,707.757c-.454,2.511.963,4.264,3.263,2.728,2.966-1.98,3.72-6.835,1.121-7.216a3.575,3.575,0,0,0-2.728,1.236,6.552,6.552,0,0,0-1.656,3.252" transform="translate(1416.606 -657.662)"/><path class="r" d="M-1404.783,728.653c-.041,2.173,2.264,2.893,4.471.683,1.729-1.732,1.213-3.785-.953-3.787a3.872,3.872,0,0,0-2.379.9,3.1,3.1,0,0,0-1.138,2.208" transform="translate(1429.476 -670.364)"/><path class="r" d="M-1413.179,741.08a4.037,4.037,0,0,0,1.63.456c.028-.129.092-.247.107-.379a.88.88,0,0,0-.022-.349,1.274,1.274,0,0,0-.451-.635,1.907,1.907,0,0,0-1.829-.326.418.418,0,0,0-.241.326c0,.122.02.495.807.907" transform="translate(1434.717 -678.443)"/><path class="r" d="M-1370.953,719.984c-1.705,2.2-1.923,2.493-1.93,2.637.063,0,.181,0,.911-.678q.361-.338.708-.693a23.129,23.129,0,0,0,2.361-2.833q.448-.634.858-1.3c.438-.723.422-.838.412-.906-.13-.068-.552.373-1.146,1.056-.562.663-.988,1.188-2.174,2.72" transform="translate(1411.306 -665.039)"/><path class="r" d="M-1394.566,736.526a19.764,19.764,0,0,0-1.949,1.177l0,.039c1.287.145,6.994-2.43,6.527-3.32-.074-.141-.438-.256-2.034.566-.752.409-.854.473-2.542,1.538" transform="translate(1424.767 -675.361)"/><path class="r" d="M-1407.931,743.623a5.061,5.061,0,0,0,1.924-.251l0-.015a3.347,3.347,0,0,0-.974.145,4.768,4.768,0,0,1-.952.12" transform="translate(1431.269 -680.501)"/></g></g><path class="g" d="M-1733.86-36.831a64.2,64.2,0,0,0,64.2,64.2A63.958,63.958,0,0,0-1626.4,10.6a87.411,87.411,0,0,0,83.179,60.543A86.878,86.878,0,0,0-1516.615,67a44.9,44.9,0,0,0,30.425,11.818,45.074,45.074,0,0,0,45.08-45.08,44.832,44.832,0,0,0-8.164-25.876,64.354,64.354,0,0,0,41.542-33.637,32.08,32.08,0,0,0,11.808,2.241,32.09,32.09,0,0,0,32.089-32.1,32.1,32.1,0,0,0-32.089-32.1,31.986,31.986,0,0,0-12.924,2.712,64.183,64.183,0,0,0-56.389-33.493,63.906,63.906,0,0,0-18.2,2.625,48.181,48.181,0,0,0-35.089-15.107,48.311,48.311,0,0,0-44.55,29.618c-1.52.346-3.02.741-4.5,1.173a48.122,48.122,0,0,0-20.347-4.481A48.213,48.213,0,0,0-1627-84.776a63.911,63.911,0,0,0-42.667-16.242A64.19,64.19,0,0,0-1733.86-36.831Z" transform="translate(1748.86 824.463)"/><path class="f" d="M49.894,36.57s-3.178-6.831-7.789-10.78a34.539,34.539,0,0,0-9.5-5.48,26.054,26.054,0,0,0-2.761-2.793C35.631,3.256,34.488.439,34.172,0l-.951.68A.133.133,0,0,1,33.2.656C33.322.968,34.252,4.247,27.549,20a30.458,30.458,0,0,1-3.947,1.78,35.061,35.061,0,0,0-11.633.232C6.037,23.3,0,27.807,0,27.807a17.521,17.521,0,0,0,11.975,2.546c5.614-.888,10.179-6,11.656-7.837,1.156-.449,2.492-1,3.475-1.484a96.662,96.662,0,0,0-4.351,12.328,8.107,8.107,0,0,0-5.634,3.427,32.967,32.967,0,0,0-9.364,5.741c-4.2,3.868-6.95,10.4-6.95,10.4a16.473,16.473,0,0,0,10.924-3.635c4.046-3.322,5.348-9.449,5.706-11.759A7.444,7.444,0,0,1,22.554,34.1a93.031,93.031,0,0,0-2.7,14.1c-1.33,2.625-3.524,7.95-2.4,12.807A17.52,17.52,0,0,0,24.3,71.153s1.919-7.285.891-13.268a34.885,34.885,0,0,0-4.038-10.7,93.056,93.056,0,0,1,3.2-15.16,34.362,34.362,0,0,1,1.569,3.185c-.233,1.538-.993,8,2,12.333a15.146,15.146,0,0,0,8.732,5.971s-.781-6.463-3.512-10.942a29.783,29.783,0,0,0-6.3-7.022,33.048,33.048,0,0,0-2.214-4.416,94.5,94.5,0,0,1,3.565-9.671q.741-1.72,1.375-3.263A22.4,22.4,0,0,1,31.5,20.118v0c.223,1.432,1.64,9.2,6.65,13.014A17.517,17.517,0,0,0,49.894,36.57Z" transform="translate(303.612 736.254) rotate(150)"/><g transform="matrix(0.999, -0.035, 0.035, 0.999, 478.193, 413.64)"><path class="i" d="M-224.783,307.006a25.217,25.217,0,0,0-6.216-7.54c-2.643-1.942-6.217-2.905-9.268-1.7-4.779,1.883-6.283,7.877-6.46,13.01a60.247,60.247,0,0,0,10.5,35.946,58.832,58.832,0,0,0-20.285-19.358c-3.1-1.776-6.794-3.3-10.166-2.114-3.751,1.318-5.721,5.723-5.378,9.686s2.495,7.526,4.844,10.734a75.409,75.409,0,0,0,27.622,23.107c4.559,2.226,9.439,4.008,14.506,4.226,6.531.281,13.094-2.324,16.37-8.195,3.02-5.415,1.344-9.225-.138-14.711C-212.961,334.871-216.482,320.694-224.783,307.006Z"/><g transform="translate(-265.292 307.023)"><line class="l" x2="22.8" y2="54.843" transform="translate(27.422)"/><line class="l" x2="38.206" y2="29.513" transform="translate(0.616 28.103)"/><line class="m" x1="8.837" y1="9.22" transform="translate(23.57 2.773)"/><line class="m" x1="1.701" y1="15.007" transform="translate(32.408 1.078)"/><line class="m" x1="13.395" y1="10.479" transform="translate(23.57 12.478)"/><line class="m" x1="0.766" y1="22.032" transform="translate(40.362 10.938)"/><line class="m" x1="15.723" y1="13.086" transform="translate(30.268 31.581)"/><path class="v" d="M-208.284,364.6c-.2-.471-.784-22.8-.784-22.8" transform="translate(257.287 -312.684)"/><line class="m" x1="5.114" y1="11.358" transform="translate(3.543 22.957)"/><line class="m" x1="12.753" y1="3.164" transform="translate(0 34.315)"/><line class="m" x1="5.084" y1="12.973" transform="translate(14.635 29.887)"/><line class="m" x1="15.687" y1="3.051" transform="translate(10.322 44.667)"/><line class="m" x1="4.142" y1="10.459" transform="translate(29.116 42.86)"/><line class="m" x1="14.684" y1="2.431" transform="translate(21.722 53.319)"/></g></g></g></g></svg>