<svg xmlns="http://www.w3.org/2000/svg" xmlns:xlink="http://www.w3.org/1999/xlink" width="1920" height="963" viewBox="0 0 1920 963"><defs><linearGradient id="a" x1="0.514" x2="0.517" y2="1" gradientUnits="objectBoundingBox"><stop offset="0" stop-color="#fe647c"/><stop offset="1" stop-color="#ffe6ea"/></linearGradient><linearGradient id="b" x1="0.519" y1="1.103" x2="0.521" gradientUnits="objectBoundingBox"><stop offset="0" stop-color="#f75b73"/><stop offset="1" stop-color="#ffe6ea"/></linearGradient><clipPath id="c"><path d="M0,0H1920V830.826s-375-86.4-960.532-86.4S0,830.7,0,830.7Z" fill="url(#a)"/></clipPath><clipPath id="d"><path d="M-230.217,197.156c-.419,20.34,12.327,31.663,28.333,31.993s29.208-10.457,29.627-30.8-11.966-49.171-27.971-49.5S-229.8,176.816-230.217,197.156Z" transform="translate(230.227 -148.848)" fill="none"/></clipPath></defs><g transform="translate(0)"><path d="M0,0H1920V963H0Z" fill="#F9F8F2"/><path d="M0,0H1920V830.826S1502.238,737.9,957.291,737.9,0,830.826,0,830.826Z" fill="url(#b)"/><g clip-path="url(#c)"><path d="M-1202.379,261.9s-3.484,7.49-8.541,11.82a37.869,37.869,0,0,1-10.414,6.009,28.564,28.564,0,0,1-3.027,3.063c6.342,15.636,5.089,18.725,4.742,19.206l-1.042-.745a.152.152,0,0,0-.02.026c.131-.342,1.15-3.938-6.2-21.21a33.4,33.4,0,0,0-4.328-1.951,38.444,38.444,0,0,1-12.755-.255c-6.5-1.413-13.124-6.355-13.124-6.355a19.212,19.212,0,0,1,13.13-2.792c6.156.974,11.161,6.58,12.78,8.593,1.267.493,2.733,1.091,3.81,1.627a105.992,105.992,0,0,1-4.77-13.517,8.889,8.889,0,0,1-6.178-3.757,36.147,36.147,0,0,1-10.267-6.3c-4.6-4.241-7.621-11.4-7.621-11.4a18.062,18.062,0,0,1,11.978,3.985c4.437,3.643,5.864,10.36,6.256,12.894a8.162,8.162,0,0,0,5.611,3.768,102.018,102.018,0,0,1-2.957-15.461c-1.459-2.879-3.864-8.716-2.636-14.042a19.211,19.211,0,0,1,7.507-11.128s2.1,7.988.977,14.547a38.246,38.246,0,0,1-4.428,11.733,102.046,102.046,0,0,0,3.514,16.622,37.628,37.628,0,0,0,1.72-3.492c-.256-1.687-1.089-8.776,2.188-13.522a16.607,16.607,0,0,1,9.575-6.547s-.856,7.087-3.851,12a32.659,32.659,0,0,1-6.907,7.7,36.248,36.248,0,0,1-2.427,4.842,103.639,103.639,0,0,0,3.909,10.6q.812,1.886,1.508,3.577a24.557,24.557,0,0,0,2.113-2.1v0c.244-1.57,1.8-10.086,7.291-14.27A19.207,19.207,0,0,1-1202.379,261.9Z" transform="translate(1272.087 412.395)" fill="#ffd599"/><path d="M-1291.432,1393.986a136.332,136.332,0,0,1-136.332,136.332,135.743,135.743,0,0,1-87.193-31.533,102.39,102.39,0,0,1-78.772,36.864,102.485,102.485,0,0,1-85.568-45.993,136.117,136.117,0,0,1-111.963,58.545,135.83,135.83,0,0,1-56.142-12.058,102.107,102.107,0,0,1-60.409,19.667,102.578,102.578,0,0,1-102.582-102.58c0-1.122.024-2.243.058-3.353a52,52,0,0,1-37.39-49.9A51.975,51.975,0,0,1-1995.76,1348a51.786,51.786,0,0,1,37.424,15.926,102.013,102.013,0,0,1,45.169-13.158,136.32,136.32,0,0,1,121.906-75.236,135.962,135.962,0,0,1,100.637,44.368,67.872,67.872,0,0,1,44.289-16.349,67.976,67.976,0,0,1,48.91,20.685,51.983,51.983,0,0,1,51.543-45.283,51.822,51.822,0,0,1,30.947,10.205,135.749,135.749,0,0,1,87.171-31.51A136.334,136.334,0,0,1-1291.432,1393.986Z" transform="translate(3537.367 -439.638) rotate(7)" fill="#f75b73"/><path d="M49.894,36.57s-3.178-6.831-7.789-10.78a34.539,34.539,0,0,0-9.5-5.48,26.054,26.054,0,0,0-2.761-2.793C35.631,3.256,34.488.439,34.172,0l-.951.68A.133.133,0,0,1,33.2.656C33.322.968,34.252,4.247,27.549,20a30.458,30.458,0,0,1-3.947,1.78,35.061,35.061,0,0,0-11.633.232C6.037,23.3,0,27.807,0,27.807a17.521,17.521,0,0,0,11.975,2.546c5.614-.888,10.179-6,11.656-7.837,1.156-.449,2.492-1,3.475-1.484a96.662,96.662,0,0,0-4.351,12.328,8.107,8.107,0,0,0-5.634,3.427,32.967,32.967,0,0,0-9.364,5.741c-4.2,3.868-6.95,10.4-6.95,10.4a16.473,16.473,0,0,0,10.924-3.635c4.046-3.322,5.348-9.449,5.706-11.759A7.444,7.444,0,0,1,22.554,34.1a93.031,93.031,0,0,0-2.7,14.1c-1.33,2.625-3.524,7.95-2.4,12.807A17.52,17.52,0,0,0,24.3,71.153s1.919-7.285.891-13.268a34.885,34.885,0,0,0-4.038-10.7,93.056,93.056,0,0,1,3.2-15.16,34.362,34.362,0,0,1,1.569,3.185c-.233,1.538-.993,8,2,12.333a15.146,15.146,0,0,0,8.732,5.971s-.781-6.463-3.512-10.942a29.783,29.783,0,0,0-6.3-7.022,33.048,33.048,0,0,0-2.214-4.416,94.5,94.5,0,0,1,3.565-9.671q.741-1.72,1.375-3.263A22.4,22.4,0,0,1,31.5,20.118v0c.223,1.432,1.64,9.2,6.65,13.014A17.517,17.517,0,0,0,49.894,36.57Z" transform="translate(1631.457 672.125) rotate(155)" fill="#ffd599"/><path d="M-2047.726,1403.291a145.638,145.638,0,0,0,145.637,145.637,145.008,145.008,0,0,0,93.145-33.685,109.379,109.379,0,0,0,84.149,39.38,109.48,109.48,0,0,0,91.408-49.133,145.407,145.407,0,0,0,119.6,62.541,145.1,145.1,0,0,0,59.974-12.881,109.076,109.076,0,0,0,64.532,21.009,109.579,109.579,0,0,0,109.583-109.582c0-1.2-.026-2.4-.062-3.582a55.548,55.548,0,0,0,39.942-53.3,55.523,55.523,0,0,0-55.513-55.524,55.321,55.321,0,0,0-39.978,17.013,108.975,108.975,0,0,0-48.252-14.056,145.625,145.625,0,0,0-130.226-80.371,145.242,145.242,0,0,0-107.506,47.4,72.5,72.5,0,0,0-47.312-17.465,72.615,72.615,0,0,0-52.249,22.1,55.531,55.531,0,0,0-55.061-48.374,55.36,55.36,0,0,0-33.06,10.9,145.015,145.015,0,0,0-93.12-33.661A145.639,145.639,0,0,0-2047.726,1403.291Z" transform="translate(2404.028 -828.479) rotate(-9)" fill="#a354d2" stroke="rgba(0,0,0,0)" stroke-width="1"/><path d="M-1733.86-36.831a64.2,64.2,0,0,0,64.2,64.2A63.958,63.958,0,0,0-1626.4,10.6a87.411,87.411,0,0,0,83.179,60.543A86.878,86.878,0,0,0-1516.615,67a44.9,44.9,0,0,0,30.425,11.818,45.074,45.074,0,0,0,45.08-45.08,44.832,44.832,0,0,0-8.164-25.876,64.354,64.354,0,0,0,41.542-33.637,32.08,32.08,0,0,0,11.808,2.241,32.09,32.09,0,0,0,32.089-32.1,32.1,32.1,0,0,0-32.089-32.1,31.986,31.986,0,0,0-12.924,2.712,64.183,64.183,0,0,0-56.389-33.493,63.906,63.906,0,0,0-18.2,2.625,48.181,48.181,0,0,0-35.089-15.107,48.311,48.311,0,0,0-44.55,29.618c-1.52.346-3.02.741-4.5,1.173a48.122,48.122,0,0,0-20.347-4.481A48.213,48.213,0,0,0-1627-84.776a63.911,63.911,0,0,0-42.667-16.242A64.19,64.19,0,0,0-1733.86-36.831Z" transform="translate(3291.384 669.408) rotate(-8)" fill="#a354d2"/><g transform="translate(1851.06 691.998) rotate(-6)"><g transform="translate(0 11.673)"><path d="M48.325,0A158.141,158.141,0,0,0,10.958,45.423,160.612,160.612,0,0,0,0,70.026l1.086.378A159.254,159.254,0,0,1,11.964,45.977a157.05,157.05,0,0,1,37.1-45.1Z" transform="translate(0)" fill="#6e233a"/></g><g transform="translate(1.091 54.996)"><path d="M2.084.231.958,0a50.57,50.57,0,0,0,.251,20.811l1.11-.3A49.358,49.358,0,0,1,2.084.231Z" transform="translate(0 0)" fill="#6e233a"/></g><g transform="translate(0.49 45.649)"><path d="M1.353,14.782S-2.959.258,3.811,0,1.353,14.782,1.353,14.782Z" transform="translate(0 0)" fill="#6e233a"/></g><g transform="translate(6.771 55.951)"><path d="M14.917.788,14.081,0C9.315,5.06.092,9.549,0,9.593l.5,1.034C.885,10.44,10.008,6,14.917.788Z" transform="translate(0 0)" fill="#6e233a"/></g><g transform="translate(16.7 49.629)"><path d="M0,10.627S6.923-3.439,10.918.794,0,10.627,0,10.627Z" transform="translate(0 0)" fill="#6e233a"/></g><g transform="translate(13.106 35.16)"><path d="M4.9.554,3.9,0C-.376,7.771,0,17.887.016,18.313l1.147-.049C1.158,18.163.787,8.037,4.9.554Z" transform="translate(0 0)" fill="#6e233a"/></g><g transform="translate(15.434 26.883)"><path d="M0,13.548S.312-2.582,6.581.358C11.362,2.6,0,13.548,0,13.548Z" transform="translate(0)" fill="#6e233a"/></g><g transform="translate(23.936 33.451)"><path d="M12.482,0C8.547,1.926.085,3.906,0,3.925L.262,5.044c.351-.081,8.674-2.03,12.725-4.012Z" transform="translate(0 0)" fill="#6e233a"/></g><g transform="translate(32.313 29.266)"><path d="M0,6.382s9.328-10.2,11.511-4.806S0,6.382,0,6.382Z" transform="translate(0 0)" fill="#6e233a"/></g><g transform="translate(32.094 10.257)"><path d="M6.819.638,5.862,0A39.8,39.8,0,0,0,0,17.237l1.145.084C1.152,17.228,1.877,8.049,6.819.638Z" transform="translate(0 0)" fill="#6e233a"/></g><g transform="translate(35.258 1.775)"><path d="M0,14.432S1.97-2.282,7.1.264,0,14.432,0,14.432Z" transform="translate(0 0)" fill="#6e233a"/></g><g transform="translate(45.196 0)"><path d="M0,15.121s13.394-21,17.618-13.505C21.835,9.094,0,15.121,0,15.121Z" transform="translate(0 0)" fill="#6e233a"/></g></g><g transform="translate(1345.227 744.862) rotate(-125)"><g transform="translate(0 0)"><path d="M58.088,84.628a190.092,190.092,0,0,1-44.917-54.6A193.062,193.062,0,0,1,0,.454L1.3,0A191.429,191.429,0,0,0,14.381,29.362,188.78,188.78,0,0,0,58.974,83.569Z" transform="translate(0)" fill="#6e233a"/></g><g transform="translate(1.312 7.536)"><path d="M2.505,24.738l-1.354.278A60.787,60.787,0,0,1,1.453,0L2.787.355A59.33,59.33,0,0,0,2.505,24.738Z" transform="translate(0)" fill="#6e233a"/></g><g transform="translate(0.589 26.019)"><path d="M1.627,0S-3.556,17.459,4.581,17.765,1.627,0,1.627,0Z" transform="translate(0 0)" fill="#6e233a"/></g><g transform="translate(8.139 18.63)"><path d="M17.931,11.828l-1.006.947C11.2,6.692.11,1.3,0,1.243L.6,0C1.063.225,12.03,5.562,17.931,11.828Z" transform="translate(0 0)" fill="#6e233a"/></g><g transform="translate(20.074 26.23)"><path d="M0,0S8.322,16.907,13.124,11.819,0,0,0,0Z" transform="translate(0 0)" fill="#6e233a"/></g><g transform="translate(15.754 34.382)"><path d="M5.894,21.347l-1.208.666C-.452,12.673,0,.513.019,0L1.4.059C1.392.18.947,12.353,5.894,21.347Z" transform="translate(0)" fill="#6e233a"/></g><g transform="translate(18.553 50.06)"><path d="M0,0S.374,19.39,7.91,15.855C13.658,13.16,0,0,0,0Z" transform="translate(0)" fill="#6e233a"/></g><g transform="translate(28.772 52.387)"><path d="M15,6.063C10.274,3.748.1,1.368,0,1.345L.314,0c.422.1,10.426,2.441,15.3,4.823Z" transform="translate(0 0)" fill="#6e233a"/></g><g transform="translate(38.841 55.787)"><path d="M0,.023S11.213,12.289,13.837,5.8,0,.023,0,.023Z" transform="translate(0 0)" fill="#6e233a"/></g><g transform="translate(38.578 65.51)"><path d="M8.2,20.053l-1.15.767C.9,11.6.033.567,0,.1L1.376,0C1.384.112,2.256,11.146,8.2,20.053Z" transform="translate(0)" fill="#6e233a"/></g><g transform="translate(42.381 79.178)"><path d="M0,0S2.368,20.091,8.54,17.03,0,0,0,0Z" transform="translate(0 0)" fill="#6e233a"/></g><g transform="translate(54.327 80.483)"><path d="M0,0S16.1,25.241,21.178,16.234C26.247,7.245,0,0,0,0Z" transform="translate(0 0)" fill="#6e233a"/></g></g><path d="M-1291.432,1393.986a136.332,136.332,0,0,1-136.332,136.332,135.743,135.743,0,0,1-87.193-31.533,102.39,102.39,0,0,1-78.772,36.864,102.485,102.485,0,0,1-85.568-45.993,136.117,136.117,0,0,1-111.963,58.545,135.83,135.83,0,0,1-56.142-12.058,102.107,102.107,0,0,1-60.409,19.667,102.578,102.578,0,0,1-102.582-102.58c0-1.122.024-2.243.058-3.353a52,52,0,0,1-37.39-49.9A51.975,51.975,0,0,1-1995.76,1348a51.786,51.786,0,0,1,37.424,15.926,102.013,102.013,0,0,1,45.169-13.158,136.32,136.32,0,0,1,121.906-75.236,135.962,135.962,0,0,1,100.637,44.368,67.872,67.872,0,0,1,44.289-16.349,67.976,67.976,0,0,1,48.91,20.685,51.983,51.983,0,0,1,51.543-45.283,51.822,51.822,0,0,1,30.947,10.205,135.749,135.749,0,0,1,87.171-31.51A136.334,136.334,0,0,1-1291.432,1393.986Z" transform="translate(2062.726 -621.271)" fill="#f75b73"/><path d="M89.3,61.411A142.28,142.28,0,0,1-52.978,203.689a142.867,142.867,0,0,1-32.592-3.75A193.76,193.76,0,0,1-267.493,327c-98.9,0-180.467-74.1-192.237-169.8a141.9,141.9,0,0,1-46.348,7.724,142.021,142.021,0,0,1-112.75-55.5,106.8,106.8,0,0,1-25.9,3.162,107.09,107.09,0,0,1-100.3-69.564,71.158,71.158,0,0,1-67.241,47.859A71.136,71.136,0,0,1-883.4,19.751,71.14,71.14,0,0,1-812.269-51.4a71.073,71.073,0,0,1,62.357,36.9,107.07,107.07,0,0,1,105.18-87.043,106.528,106.528,0,0,1,50.407,12.581,141.574,141.574,0,0,1,88.247-30.675,141.426,141.426,0,0,1,26.84,2.546,99.936,99.936,0,0,1,97.147-76.491A99.936,99.936,0,0,1-288.681-129.2q4.955-.461,10.034-.462a107.07,107.07,0,0,1,106.3,94.223q5.037,2.855,9.893,5.989A141.932,141.932,0,0,1-52.978-80.867,142.28,142.28,0,0,1,89.3,61.411Z" transform="matrix(0.995, -0.105, 0.105, 0.995, 1935.943, 809.487)" fill="#fc97a7"/><g transform="translate(1540.926 703.611)"><path d="M-284.417,300.068c1.948-3.212,4.094-6.413,7.12-8.638s7.121-3.327,10.616-1.95c5.474,2.156,7.2,9.023,7.4,14.9a69,69,0,0,1-12.032,41.175,67.375,67.375,0,0,1,23.237-22.175c3.552-2.035,7.782-3.779,11.644-2.422,4.3,1.51,6.554,6.557,6.161,11.1s-2.857,8.621-5.548,12.3a86.374,86.374,0,0,1-31.642,26.468c-5.221,2.55-10.811,4.591-16.617,4.842-7.481.322-15-2.663-18.751-9.388-3.461-6.2-1.54-10.567.158-16.852C-297.959,331.987-293.925,315.747-284.417,300.068Z" transform="translate(304.758 -288.873)" fill="#a354d2"/><g transform="translate(9.216 11.213)"><line x1="26.118" y2="62.824" transform="translate(0)" fill="none" stroke="#fff" stroke-miterlimit="10" stroke-width="1"/><line x1="43.765" y2="33.807" transform="translate(13.059 32.193)" fill="none" stroke="#fff" stroke-miterlimit="10" stroke-width="1"/><line y1="10.562" x2="10.123" transform="translate(20.406 3.177)" fill="none" stroke="#fff" stroke-miterlimit="10" stroke-width="0.75"/><line y1="17.191" x2="1.949" transform="translate(18.457 1.235)" fill="none" stroke="#fff" stroke-miterlimit="10" stroke-width="0.75"/><line y1="12.004" x2="15.345" transform="translate(15.185 14.294)" fill="none" stroke="#fff" stroke-miterlimit="10" stroke-width="0.75"/><line y1="25.237" x2="0.877" transform="translate(10.417 12.529)" fill="none" stroke="#fff" stroke-miterlimit="10" stroke-width="0.75"/><line y1="14.99" x2="18.011" transform="translate(4.846 36.177)" fill="none" stroke="#fff" stroke-miterlimit="10" stroke-width="0.75"/><path d="M-241.737,359.551c.224-.539.9-26.111.9-26.111" transform="translate(243.134 -300.087)" fill="none" stroke="#fff" stroke-miterlimit="10" stroke-width="0.75"/><line y1="13.011" x2="5.858" transform="translate(47.613 26.298)" fill="none" stroke="#fff" stroke-miterlimit="10" stroke-width="0.75"/><line y1="3.624" x2="14.609" transform="translate(42.921 39.308)" fill="none" stroke="#fff" stroke-miterlimit="10" stroke-width="0.75"/><line y1="14.861" x2="5.824" transform="translate(34.941 34.235)" fill="none" stroke="#fff" stroke-miterlimit="10" stroke-width="0.75"/><line y1="3.495" x2="17.969" transform="translate(27.737 51.167)" fill="none" stroke="#fff" stroke-miterlimit="10" stroke-width="0.75"/><line y1="11.981" x2="4.745" transform="translate(19.432 49.096)" fill="none" stroke="#fff" stroke-miterlimit="10" stroke-width="0.75"/><line y1="2.785" x2="16.821" transform="translate(15.827 61.077)" fill="none" stroke="#fff" stroke-miterlimit="10" stroke-width="0.75"/></g></g><g transform="translate(499.446 703.992) rotate(-66)"><g transform="translate(0 11.673)"><path d="M48.325,0A158.141,158.141,0,0,0,10.958,45.423,160.611,160.611,0,0,0,0,70.026l1.086.378A159.253,159.253,0,0,1,11.964,45.977a157.05,157.05,0,0,1,37.1-45.1Z" fill="#6e233a"/></g><g transform="translate(1.091 54.996)"><path d="M2.084.231.958,0a50.569,50.569,0,0,0,.251,20.811l1.11-.3A49.358,49.358,0,0,1,2.084.231Z" transform="translate(0 0)" fill="#6e233a"/></g><g transform="translate(0.49 45.649)"><path d="M1.353,14.782S-2.959.258,3.811,0,1.353,14.782,1.353,14.782Z" transform="translate(0 0)" fill="#6e233a"/></g><g transform="translate(6.771 55.951)"><path d="M14.917.788,14.081,0C9.315,5.06.092,9.549,0,9.593l.5,1.034C.885,10.44,10.008,6,14.917.788Z" transform="translate(0 0)" fill="#6e233a"/></g><g transform="translate(16.7 49.629)"><path d="M0,10.627S6.923-3.439,10.918.794,0,10.627,0,10.627Z" transform="translate(0 0)" fill="#6e233a"/></g><g transform="translate(13.106 35.16)"><path d="M4.9.554,3.9,0C-.376,7.771,0,17.887.016,18.313l1.147-.049C1.158,18.163.787,8.037,4.9.554Z" transform="translate(0 0)" fill="#6e233a"/></g><g transform="translate(15.435 26.883)"><path d="M0,13.548S.312-2.582,6.581.358C11.362,2.6,0,13.548,0,13.548Z" transform="translate(0)" fill="#6e233a"/></g><g transform="translate(23.936 33.451)"><path d="M12.482,0C8.547,1.926.085,3.906,0,3.925L.262,5.044c.351-.081,8.674-2.03,12.725-4.012Z" transform="translate(0 0)" fill="#6e233a"/></g><g transform="translate(32.313 29.266)"><path d="M0,6.382s9.328-10.2,11.511-4.806S0,6.382,0,6.382Z" transform="translate(0)" fill="#6e233a"/></g><g transform="translate(32.094 10.257)"><path d="M6.819.638,5.862,0A39.8,39.8,0,0,0,0,17.237l1.145.084C1.152,17.228,1.877,8.049,6.819.638Z" transform="translate(0)" fill="#6e233a"/></g><g transform="translate(35.258 1.775)"><path d="M0,14.432S1.97-2.282,7.1.264,0,14.432,0,14.432Z" transform="translate(0 0)" fill="#6e233a"/></g><g transform="translate(45.196 0)"><path d="M0,15.121s13.394-21,17.618-13.505C21.835,9.094,0,15.121,0,15.121Z" transform="translate(0)" fill="#6e233a"/></g></g><g transform="translate(1379.356 687.92) rotate(16)"><path d="M63.651,51.686c0,19.637-14.249,33.35-31.825,33.35S0,71.324,0,51.686,14.248,0,31.825,0,63.651,32.049,63.651,51.686Z" transform="translate(0 0)" fill="#cb93ec"/><g transform="translate(0.003 0)"><path d="M3.463.063c-3.539.4-4.414,1.5-2.4,3,1.449,1.081,3.7,1.991,7.793,3.643,9.162,3.7,14.888,6.185,17.147,9.484-.764-1.267-1.562-2.488-2.39-3.653a45.47,45.47,0,0,0-3.99-4.9C17.687,5.835,14.56,4.591,8.282,2.486,4.693,1.284,3.644.915,3.318.421,3.389.209,3.456.01,4.817,0h0q-.68,0-1.354.063" transform="translate(27.004 0)" fill="#fff"/><path d="M1.485,1.413c-4.635,2.861,2.336,5.7,10.531,8.605C23.7,14.157,31.507,17.132,33.472,20.636q-.611-1.242-1.262-2.448c-2.132-3.245-7.415-5.68-18.453-9.912C6.439,5.471-1.855,2.291,4.718,0A18.821,18.821,0,0,0,1.485,1.413" transform="translate(22.374 0.769)" fill="#7d26b0"/><path d="M.288,5.8C-1.55,10.573,5.273,14.87,24.624,21.124c19.7,6.365,29.211,10.134,30,14.339q-.1-1.435-.293-2.93a67.97,67.97,0,0,0-1.206-6.7q-.191-.829-.4-1.663c-1.372-3.353-8.192-6.361-27.025-11.919C13.182,8.56,1.184,4.57,3.854,0A62.1,62.1,0,0,0,.288,5.8" transform="translate(8.895 12.934)" fill="#fff"/><path d="M.074,4.353c-.946,4.549,7.084,8.6,28.64,14.44,19.156,5.192,29.572,8.683,29.757,12.253q.068-1.159.069-2.349c0-.049,0-.1,0-.148-.685-3.988-10.454-7.576-30.727-13.641C7.9,8.954.407,4.634,1.936,0,1.274,1.427.653,2.882.074,4.353" transform="translate(5.106 22.988)" fill="#7d26b0"/><path d="M0,6.449q0,.252,0,.5C.777,10.574,6.191,14.118,30.75,20.58c13.5,3.551,26.345,7.327,22.431,11.018q.585-.539,1.143-1.109A31.159,31.159,0,0,0,57.5,26.672a31.937,31.937,0,0,0,2.111-3.427c1-2.978-6.231-5.806-26.67-10.433S.625,4.6.446,0A50.194,50.194,0,0,0,0,6.449" transform="translate(0 45.237)" fill="#fff"/><path d="M.552,3.5C2.1,7.041,9.738,9.931,30.8,14.948c14.1,3.359,22.129,6,18.581,8.766q.508-.344,1-.709.329-.243.651-.5c3.414-3.124-4.836-5.983-20.241-9.863C12.875,8.131.78,4.253,0,0Q.2,1.788.552,3.5" transform="translate(0.23 55.948)" fill="#7d26b0"/><path d="M4.731,4.657c2.416,1.608,6.08,2.776,15.078,4.806,4.615,1.041,5.56,1.274,6.026,1.606l-.048.155a4.329,4.329,0,0,1-1.449.139,33.037,33.037,0,0,0,4.552-.313c1.117-.17,3.73-.569,2.606-1.492s-5.211-1.8-10.4-2.93C8.712,3.939,2.394,2.261,0,0A30.9,30.9,0,0,0,4.731,4.657" transform="translate(7.482 73.673)" fill="#7d26b0"/><path d="M3.247,1.718c4.269,1.712,8.9,1.721,13.3,2.819l-.042.011c.134,0,.312-.011.446-.027l.045-.08A27.283,27.283,0,0,0,13.2,3.6C6.6,2.317,2.549,1.363,0,0A30.8,30.8,0,0,0,3.247,1.718" transform="translate(15.317 80.489)" fill="#903dc1"/></g></g><g transform="translate(1749.483 729.501) rotate(10)"><path d="M-230.217,197.156c-.419,20.34,12.327,31.663,28.333,31.993s29.208-10.457,29.627-30.8-11.966-49.171-27.971-49.5S-229.8,176.816-230.217,197.156Z" transform="translate(230.227 -148.848)" fill="#a354d2"/><g transform="translate(0 0)"><g clip-path="url(#d)"><g transform="translate(-4.874 -13.318)"><g transform="translate(2.929)"><path d="M-170.613,175.347l.816-.667c-3.594-4.407-7.311-8.966-11.734-12.731-5.027-4.278-10.24-6.879-15.494-7.729a48.069,48.069,0,0,0-7.5-.423,55.3,55.3,0,0,1-6.38-.272,27.317,27.317,0,0,1-21.469-16.138l-.969.415a28.389,28.389,0,0,0,22.31,16.768,55.426,55.426,0,0,0,6.5.281,47.385,47.385,0,0,1,7.335.409c5.063.819,10.1,3.339,14.98,7.492C-177.865,166.454-174.178,170.974-170.613,175.347Z" transform="translate(233.344 -137.386)" fill="#fff"/></g><g transform="translate(1.233 11.2)"><path d="M-171.229,186.6l3.265-2.663c-3.638-4.462-7.4-9.076-11.935-12.937-5.25-4.468-10.722-7.188-16.266-8.086a48.926,48.926,0,0,0-7.744-.443,52.579,52.579,0,0,1-6.2-.263,25.708,25.708,0,0,1-20.207-15.188l-3.875,1.653A29.991,29.991,0,0,0-210.616,166.4a57.246,57.246,0,0,0,6.689.293,45.593,45.593,0,0,1,7.087.389c4.774.773,9.555,3.173,14.209,7.135C-178.386,177.825-174.749,182.288-171.229,186.6Z" transform="translate(234.188 -147.025)" fill="#ffd599"/></g><g transform="translate(2.313 29.876)"><path d="M-170.084,201.059l.817-.667c-3.6-4.407-7.311-8.966-11.736-12.731-5.027-4.278-10.239-6.879-15.494-7.729a48.053,48.053,0,0,0-7.5-.423,55.278,55.278,0,0,1-6.379-.272,27.32,27.32,0,0,1-21.47-16.138l-.968.415a28.387,28.387,0,0,0,22.31,16.768,55.672,55.672,0,0,0,6.5.281,47.376,47.376,0,0,1,7.334.409c5.063.819,10.1,3.339,14.98,7.492C-177.335,192.166-173.649,196.686-170.084,201.059Z" transform="translate(232.814 -163.098)" fill="#fff"/></g><g transform="translate(0.616 41.076)"><path d="M-170.7,212.316l3.266-2.663c-3.637-4.46-7.4-9.072-11.937-12.937-5.248-4.468-10.721-7.188-16.265-8.086a48.946,48.946,0,0,0-7.745-.443,52.559,52.559,0,0,1-6.194-.263,25.706,25.706,0,0,1-20.207-15.188l-3.876,1.653a29.993,29.993,0,0,0,23.573,17.717,56.984,56.984,0,0,0,6.688.293,45.322,45.322,0,0,1,7.088.389c4.773.773,9.553,3.173,14.208,7.135C-177.853,203.54-174.217,208-170.7,212.316Z" transform="translate(233.658 -172.737)" fill="#ffd599"/></g><g transform="translate(1.698 59.752)"><path d="M-169.553,226.771l.816-.667c-3.594-4.407-7.311-8.966-11.734-12.731-5.027-4.278-10.24-6.879-15.494-7.729a48.143,48.143,0,0,0-7.5-.422,55.085,55.085,0,0,1-6.384-.273,27.317,27.317,0,0,1-21.469-16.138l-.968.415a28.386,28.386,0,0,0,22.31,16.768,55.418,55.418,0,0,0,6.506.281,47.47,47.47,0,0,1,7.332.409c5.063.819,10.1,3.339,14.98,7.492C-176.8,217.878-173.118,222.4-169.553,226.771Z" transform="translate(232.283 -188.81)" fill="#fff"/></g><g transform="translate(0 70.953)"><path d="M-170.169,238.028l3.266-2.663c-3.637-4.46-7.4-9.072-11.937-12.937-5.248-4.468-10.721-7.188-16.266-8.086a48.931,48.931,0,0,0-7.744-.443,52.821,52.821,0,0,1-6.2-.261,25.711,25.711,0,0,1-20.207-15.188l-3.875,1.653a30,30,0,0,0,23.572,17.717,57.231,57.231,0,0,0,6.689.292,45.45,45.45,0,0,1,7.087.389c4.774.773,9.555,3.173,14.209,7.135C-177.323,229.252-173.687,233.714-170.169,238.028Z" transform="translate(233.128 -198.45)" fill="#ffd599"/></g></g></g></g><path d="M-201.942,224.832c-15.177-.314-27.416-10.517-28.285-28.914a51.127,51.127,0,0,0,33.093-2.037A51.052,51.052,0,0,0-174.847,175.5a66.255,66.255,0,0,1,2.532,18.534C-172.734,214.375-185.937,225.162-201.942,224.832Z" transform="translate(230.285 -144.531)" fill="#7d26b0" opacity="0.5" style="mix-blend-mode:multiply;isolation:isolate"/><path d="M-200.481,160.615c-3.587,5.687-4.188,11.752-1.343,13.546s8.059-1.361,11.646-7.048,4.188-11.751,1.343-13.546S-196.894,154.929-200.481,160.615Z" transform="translate(214.103 -148.165)" fill="#42d498" opacity="0.6" style="mix-blend-mode:screen;isolation:isolate"/></g><g transform="translate(1421.895 612.637)"><path d="M-202.157-618.308s-25.615-1.381-25.957,6.585,24.746,10.185,31.4,9.046S-194.223-618.36-202.157-618.308Z" transform="translate(235.166 735.956)" fill="#ffd8e5"/><path d="M-201.552-617.309s-25.615-1.381-25.957,6.585,24.747,10.184,31.4,9.045S-193.618-617.361-201.552-617.309Z" transform="translate(234.911 735.534)" fill="#fff"/><path d="M-93.186-597.518s.358-13.063,4.832-13.421,3.758,4.474,3.758,4.474,4.653-9.126,9.663-4.116-6.979,11.453-6.979,11.453,3.221.358,2.147,4.653S-93.186-588.929-93.186-597.518Z" transform="translate(178.241 733.291)" fill="#ffd8e5"/><path d="M-178.035-581.82c-4.482,1.74-12.676,5.945-10.7,18.254A21.655,21.655,0,0,0-176.1-547.2s-10.262-3.441-9.486,2.048,17.228,6.53,24.073,3.562,8.241-27.768-.414-35.484C-167.116-581.7-174.241-583.294-178.035-581.82Z" transform="translate(218.679 720.748)" fill="#ffd8e5"/><path d="M-176.848-581.82c-4.482,1.74-12.676,5.945-10.7,18.254A21.656,21.656,0,0,0-174.913-547.2s-10.262-3.441-9.486,2.048,17.228,6.53,24.073,3.562,8.241-27.768-.414-35.484C-165.929-581.7-173.054-583.294-176.848-581.82Z" transform="translate(218.178 720.748)" fill="#fff"/><path d="M-80.886-599.129s3.221.355,2.147,4.649c-.5,2.007-3.45,3.347-6.455,3.339-3.443-.008-6.966-1.784-6.966-6.374,0,0,.214-7.743,2.354-11.467a3.325,3.325,0,0,1,2.48-1.955c4.471-.363,3.761,4.471,3.761,4.471s4.649-9.128,9.661-4.116S-80.886-599.129-80.886-599.129Z" transform="translate(177.808 733.291)" fill="#fff"/><path d="M-85.194-588.877c-3.443-.008-6.966-1.784-6.966-6.374,0,0,.214-7.743,2.354-11.467C-86.963-601.07-85.061-594.918-85.194-588.877Z" transform="translate(177.808 731.028)" fill="#471066" opacity="0.2" style="mix-blend-mode:multiply;isolation:isolate"/><path d="M-186.23-636.967s-6.936,14.244-2.613,34.952c5.38,25.777,39.852,30.706,55.206,9.474s-12.413-51.286-20.253-54.552S-177.41-649.054-186.23-636.967Z" transform="translate(219.195 748.71)" fill="#ffd8e5"/><path d="M-128.96-599.786a23.554,23.554,0,0,1-3.369,6.588,32.132,32.132,0,0,1-5.263,5.7c-14.562,12.37-37.66,9.313-46.765-6.7a28.762,28.762,0,0,1-3.176-8.469q-.589-2.82-.911-5.463c-2.214-17.716,3.524-29.494,3.524-29.494a27.339,27.339,0,0,1,3.894-4.309,27.863,27.863,0,0,1,3.257-2.5,29.878,29.878,0,0,1,22.675-4.124,17.159,17.159,0,0,1,2.51.815c2.48,1.029,6.951,4.738,11.422,10C-132.906-628.021-124.651-613-128.96-599.786Z" transform="translate(218.643 748.984)" fill="#fff"/><path d="M-100.816-569.512a23.553,23.553,0,0,1-3.369,6.588,32.132,32.132,0,0,1-5.263,5.7l-5.464-.082-5.108-3.894-2.169-4.553-.051-5.049,2.665-6.722S-106.76-577.581-100.816-569.512Z" transform="translate(190.498 718.71)" fill="#471066" opacity="0.2" style="mix-blend-mode:multiply;isolation:isolate"/><path d="M-135.557-637.213c-2.08,2.258-5.648,4.464-11.645,5.848-16.153,3.724-27.021-2.8-27.021-2.8v-.415s-2.162-4.479-1.2-6.826a2.165,2.165,0,0,1,.473-.726,8.478,8.478,0,0,1,2.784-1.777c1.548-.652,3.391-1.14,5.6-2.058,3.724-1.555,10.038-1.14,13.873-1.762a31.726,31.726,0,0,1,3.2-.3,17.173,17.173,0,0,1,2.51.815C-144.5-646.185-140.028-642.477-135.557-637.213Z" transform="translate(213.039 748.456)" fill="#471066" opacity="0.2" style="mix-blend-mode:multiply;isolation:isolate"/><g transform="translate(0 0)"><path d="M-123.585-782.07c-3.087,7.129-8.173,16.738-11.446,22.764-1.866,3.42-3.139,5.678-3.139,5.678l-9.217-5.915s.245-2.606.778-6.752c2.28-17.923,9.942-64.621,26.606-53.857C-110.511-814.029-117.959-795.055-123.585-782.07Z" transform="translate(201.107 821.743)" fill="#ffd8e5"/><path d="M-191.421-729.036l-7.884,6.759-4.035-4.286-13.984-14.858,12.615-10.135,2.051,3.479Z" transform="translate(230.613 792.132)" fill="#fff"/><path d="M-202.05-740.934l8.186,14.6-3.411,2.592-10.369-11.6Z" transform="translate(226.529 787.651)" fill="#f75b73"/><path d="M-203.339-726.563l-13.985-14.858,12.615-10.135,2.051,3.48A150.547,150.547,0,0,1-203.339-726.563Z" transform="translate(230.613 792.132)" fill="#471066" opacity="0.2" style="mix-blend-mode:multiply;isolation:isolate"/><path d="M-122.53-782.07c-3.087,7.129-8.173,16.738-11.445,22.764-1.866,3.42-3.139,5.678-3.139,5.678l-9.217-5.915s.245-2.606.778-6.752c2.28-17.923,9.942-64.621,26.607-53.857C-109.456-814.029-116.9-795.055-122.53-782.07Z" transform="translate(200.662 821.743)" fill="#fff"/><path d="M-144.518-744.4s8.166-39.966,14.049-48.389c5.283-7.565,10.566-1.8,9.125,4.683s-18.731,47.789-18.731,47.789Z" transform="translate(199.897 811.042)" fill="#f75b73"/><path d="M-133.975-718.841c-1.866,3.42-3.139,5.678-3.139,5.678l-9.217-5.915s.245-2.606.778-6.752A31.859,31.859,0,0,1-133.975-718.841Z" transform="translate(200.662 781.279)" fill="#471066" opacity="0.2" style="mix-blend-mode:multiply;isolation:isolate"/><g transform="translate(12.149 55.272)"><path d="M-156.044-687.775c0,19.65-14.16,21.084-31.626,21.084s-31.626-1.434-31.626-21.084,14.159-38.361,31.626-38.361S-156.044-707.425-156.044-687.775Z" transform="translate(219.296 726.136)" fill="#ffd8e5"/><path d="M-155.13-686.86c0,19.65-14.159,21.083-31.625,21.083s-31.626-1.434-31.626-21.083,14.159-38.361,31.626-38.361S-155.13-706.51-155.13-686.86Z" transform="translate(218.91 725.75)" fill="#fff"/><path d="M-161.462-650.879c0,3.243-2.063,5.882-4.6,5.882a4.3,4.3,0,0,1-3.592-2.223,4.312,4.312,0,0,1-3.6,2.223c-2.532,0-4.6-2.639-4.6-5.882a1.028,1.028,0,0,1,1.028-1.028,1.028,1.028,0,0,1,1.027,1.028c0,2.076,1.164,3.827,2.541,3.827s2.544-1.751,2.544-3.827a1.087,1.087,0,0,1,.037-.283c-2.5-.317-4.394-1.764-4.394-2.972,0-1.369,2.421-1.916,5.41-1.916s5.409.547,5.409,1.916c0,1.208-1.891,2.655-4.394,2.972a1.064,1.064,0,0,1,.037.283c0,2.076,1.163,3.827,2.54,3.827s2.545-1.751,2.545-3.827a1.028,1.028,0,0,1,1.027-1.028A1.028,1.028,0,0,1-161.462-650.879Z" transform="translate(201.81 696.568)" fill="#f75b73"/><g transform="translate(16.731 20.168)"><path d="M-149.961-691.251c-2.909,0-5.271,3.864-5.271,8.639s2.362,8.639,5.271,8.639,5.271-3.872,5.271-8.639S-147.052-691.251-149.961-691.251Zm-1.71,9.024a1.876,1.876,0,0,1-1.88-1.873,1.883,1.883,0,0,1,1.88-1.881A1.882,1.882,0,0,1-149.8-684.1,1.875,1.875,0,0,1-151.671-682.227Z" transform="translate(175.538 691.251)" fill="#f75b73"/><path d="M-190.356-682.612c0,4.767,2.362,8.639,5.271,8.639s5.271-3.872,5.271-8.639-2.362-8.639-5.271-8.639S-190.356-687.387-190.356-682.612Zm5.108-1.488a1.882,1.882,0,0,1,1.873-1.881,1.883,1.883,0,0,1,1.88,1.881,1.876,1.876,0,0,1-1.88,1.873A1.875,1.875,0,0,1-185.248-684.1Z" transform="translate(190.356 691.251)" fill="#f75b73"/></g></g><path d="M-215.288-754.284s2.483,46.082-13.023,46.256c-18.233.205-10.878-29.687-8.6-39.5C-234.444-758.145-222.046-761.267-215.288-754.284Z" transform="translate(240.31 794.859)" fill="#ffd8e5"/><path d="M-213.762-754.284s2.483,46.082-13.023,46.256c-18.233.205-10.878-29.687-8.6-39.5C-232.918-758.145-220.52-761.267-213.762-754.284Z" transform="translate(239.666 794.859)" fill="#fff"/></g><path d="M-195.008-602.556s-20.421,15.525-15.525,21.819,25.456-8.252,29.792-13.427S-188.994-607.731-195.008-602.556Z" transform="translate(228.067 729.957)" fill="#ffd8e5"/><path d="M-170.705-587.907l-13.281,19.6a28.762,28.762,0,0,1-3.176-8.469q-.589-2.82-.911-5.463l6.174-3.295Z" transform="translate(218.272 723.091)" fill="#471066" opacity="0.2" style="mix-blend-mode:multiply;isolation:isolate"/><path d="M-193.9-602.443s-20.42,15.525-15.525,21.82,25.456-8.253,29.792-13.427S-186.238-608.478-193.9-602.443Z" transform="translate(227.6 730.056)" fill="#fff"/><path d="M-144.7-577.985c-4.017,2.64-11.148,8.469-6.639,20.091a21.654,21.654,0,0,0,15.785,13.356s-10.755-1.214-8.846,3.99,18.214,2.775,24.285-1.562,2.239-28.879-7.84-34.609C-134-580.154-141.3-580.221-144.7-577.985Z" transform="translate(203.385 719.548)" fill="#ffd8e5"/><path d="M-143.515-577.985c-4.017,2.64-11.148,8.469-6.639,20.091a21.654,21.654,0,0,0,15.785,13.356s-10.755-1.214-8.846,3.99,18.214,2.775,24.285-1.562,2.239-28.879-7.84-34.609C-132.813-580.154-140.114-580.221-143.515-577.985Z" transform="translate(202.884 719.548)" fill="#fff"/></g><path d="M102.122,1056.17A154.918,154.918,0,0,1-52.794,1211.087,155.543,155.543,0,0,1-88.281,1207a210.975,210.975,0,0,1-198.085,138.354,210,210,0,0,1-129.714-44.6,108.553,108.553,0,0,1-79.508,34.527,108.8,108.8,0,0,1-108.795-108.793,108.238,108.238,0,0,1,19.7-62.443,155.264,155.264,0,0,1-100.246-81.2,77.168,77.168,0,0,1-28.478,5.409,77.459,77.459,0,0,1-77.465-77.45A77.462,77.462,0,0,1-713.4,933.342a77.142,77.142,0,0,1,31.191,6.538,153.7,153.7,0,0,1,11.366-17.828,115.825,115.825,0,0,1-1.63-19.488A116.578,116.578,0,0,1-555.9,786a116.542,116.542,0,0,1,116.55,115.772A154.952,154.952,0,0,1-401.7,957.859,210.135,210.135,0,0,1-335.033,929.2a116.192,116.192,0,0,1,84.977-36.782,116.383,116.383,0,0,1,94.289,48.027,154.266,154.266,0,0,1,102.974-39.19A154.918,154.918,0,0,1,102.122,1056.17Z" transform="translate(-545.657 1886.619) rotate(-162)" fill="#f75b73"/><g transform="translate(118.059 762.836) rotate(-159)"><g transform="translate(0 0)"><path d="M32.436,47.256A106.145,106.145,0,0,1,7.355,16.768,107.8,107.8,0,0,1,0,.254L.729,0a106.892,106.892,0,0,0,7.3,16.4,105.413,105.413,0,0,0,24.9,30.269Z" transform="translate(0)" fill="#6e233a"/></g><g transform="translate(0.732 4.208)"><path d="M1.4,13.813l-.756.155A33.943,33.943,0,0,1,.811,0l.745.2A33.129,33.129,0,0,0,1.4,13.813Z" transform="translate(0)" fill="#6e233a"/></g><g transform="translate(0.329 14.529)"><path d="M.908,0s-2.894,9.749,1.65,9.92S.908,0,.908,0Z" transform="translate(0 0)" fill="#6e233a"/></g><g transform="translate(4.545 10.403)"><path d="M10.013,6.6l-.562.529C6.253,3.737.062.724,0,.694L.335,0C.594.126,6.718,3.106,10.013,6.6Z" transform="translate(0 0)" fill="#6e233a"/></g><g transform="translate(11.209 14.647)"><path d="M0,0S4.647,9.441,7.328,6.6,0,0,0,0Z" transform="translate(0 0)" fill="#6e233a"/></g><g transform="translate(8.797 19.198)"><path d="M3.291,11.92l-.675.372C-.252,7.076,0,.286.011,0l.77.033C.777.1.529,6.9,3.291,11.92Z" transform="translate(0)" fill="#6e233a"/></g><g transform="translate(10.36 27.953)"><path d="M0,0S.209,10.827,4.417,8.853C7.626,7.349,0,0,0,0Z" transform="translate(0)" fill="#6e233a"/></g><g transform="translate(16.066 29.252)"><path d="M8.378,3.386A54.33,54.33,0,0,0,0,.751L.176,0A54.01,54.01,0,0,1,8.717,2.693Z" transform="translate(0 0)" fill="#6e233a"/></g><g transform="translate(21.688 31.151)"><path d="M0,.013S6.261,6.862,7.726,3.239,0,.013,0,.013Z" transform="translate(0 0)" fill="#6e233a"/></g><g transform="translate(21.542 36.58)"><path d="M4.577,11.2l-.642.428A26.712,26.712,0,0,1,0,.056L.768,0A26.436,26.436,0,0,0,4.577,11.2Z" transform="translate(0)" fill="#6e233a"/></g><g transform="translate(23.665 44.212)"><path d="M0,0S1.322,11.219,4.769,9.509,0,0,0,0Z" transform="translate(0 0)" fill="#6e233a"/></g><g transform="translate(30.336 44.941)"><path d="M0,0S8.99,14.094,11.826,9.065,0,0,0,0Z" transform="translate(0 0)" fill="#6e233a"/></g></g><path d="M-1733.86-36.831a64.2,64.2,0,0,0,64.2,64.2A63.958,63.958,0,0,0-1626.4,10.6a87.411,87.411,0,0,0,83.179,60.543A86.878,86.878,0,0,0-1516.615,67a44.9,44.9,0,0,0,30.425,11.818,45.074,45.074,0,0,0,45.08-45.08,44.832,44.832,0,0,0-8.164-25.876,64.354,64.354,0,0,0,41.542-33.637,32.08,32.08,0,0,0,11.808,2.241,32.09,32.09,0,0,0,32.089-32.1,32.1,32.1,0,0,0-32.089-32.1,31.986,31.986,0,0,0-12.924,2.712,64.183,64.183,0,0,0-56.389-33.493,63.906,63.906,0,0,0-18.2,2.625,48.181,48.181,0,0,0-35.089-15.107,48.311,48.311,0,0,0-44.55,29.618c-1.52.346-3.02.741-4.5,1.173a48.122,48.122,0,0,0-20.347-4.481A48.213,48.213,0,0,0-1627-84.776a63.911,63.911,0,0,0-42.667-16.242A64.19,64.19,0,0,0-1733.86-36.831Z" transform="translate(1606.848 868.367)" fill="#fc97a7"/><g transform="translate(348.42 724.208) rotate(13)"><path d="M39.529,32.1c0,12.2-8.849,20.712-19.765,20.712S0,44.294,0,32.1,8.849,0,19.765,0,39.529,19.9,39.529,32.1Z" transform="translate(0 0)" fill="#7d26b0"/><g transform="translate(0.306 0.001)"><path d="M1.79.048A3.429,3.429,0,0,0,0,.652C.037.7.214.652.728.452A4.936,4.936,0,0,1,2.563,0,6.641,6.641,0,0,0,1.79.048" transform="translate(16.962 0)" fill="#cb93ec"/><path d="M1.843,2.047C.766,3.015-.092,4.059.008,4.282c.127.039.44-.158.93-.586S4.828.086,4.877.027L4.869,0a4.257,4.257,0,0,0-.923.467,14.4,14.4,0,0,0-2.1,1.58" transform="translate(9.91 1.37)" fill="#cb93ec"/><path d="M.173,1.094C-.305,2.1.28,2.864,1.051,2.641c1.291-.372.909-2.325.375-2.619-.085-.047-.2-.034-.5.173a2.443,2.443,0,0,0-.754.9" transform="translate(18.011 0.165)" fill="#cb93ec"/><path d="M.43,2.942C-.541,5.034.258,6.2,1.569,5.646,3.878,4.678,4.692.516,3.6.045c-.511-.22-1.265.434-1.549.681A7.362,7.362,0,0,0,.43,2.942" transform="translate(11.593 4.058)" fill="#cb93ec"/><path d="M.507,3.964c-.839,2.267-.614,3.768.5,3.345C3.147,6.5,4.836.8,3.645.066c-.524-.321-1.282.616-1.568.968a11.645,11.645,0,0,0-1.57,2.93" transform="translate(4.104 11.695)" fill="#cb93ec"/><path d="M0,7.211a.494.494,0,0,0,.014.22h.06C.879,6.554,1.955.839,1.628,0H1.573a.821.821,0,0,0-.107.236A44.544,44.544,0,0,0,0,7.211" transform="translate(0 21.177)" fill="#cb93ec"/><path d="M.639,2.359c1.136,2.217,2.818,2.951,3.15,2.12C4.376,3.009.892-.416.123.042-.027.131-.005.37.013.562a6.347,6.347,0,0,0,.626,1.8" transform="translate(23.017 2.06)" fill="#cb93ec"/><path d="M.016,3.678c.251,3.04,3.316,4.23,4.668,2.452,1.675-2.2-.555-6.4-2.634-6.116A2.138,2.138,0,0,0,.7.943,4.337,4.337,0,0,0,.016,3.678" transform="translate(19.699 8.538)" fill="#cb93ec"/><path d="M.007,4.181C-.162,7.465,2.938,8.559,5.013,6.766,7.5,4.62,6.254.331,3.719.018a3,3,0,0,0-2.471,1.1A5.208,5.208,0,0,0,.007,4.181" transform="translate(11.511 17.545)" fill="#cb93ec"/><path d="M0,3.9c.074,2.555,2.142,4.424,3.9,2.715C6.321,4.274,5.059,0,2.644,0A2.359,2.359,0,0,0,.826,1.061,4.735,4.735,0,0,0,0,3.9" transform="translate(3.917 27.174)" fill="#cb93ec"/><path d="M.664,3.946C1.571,6.16,3,7.526,3.344,6.51,3.976,4.649,1.461-.7.32.077.032.273.012.792,0,1.1A7.914,7.914,0,0,0,.664,3.946" transform="translate(1.011 36.551)" fill="#cb93ec"/><path d="M.341,4.054C1.235,6.9,3.315,8.276,4.05,7.061,5.117,5.3,2.511-.364.807.019.307.131.148.761.071,1.064a6.475,6.475,0,0,0,.27,2.99" transform="translate(30.284 13.203)" fill="#cb93ec"/><path d="M.037,4.109c.427,3.214,4.01,4.2,5.558,2.2C7.357,4.043,5.311-.31,2.636.017A2.846,2.846,0,0,0,.822,1.112a4.1,4.1,0,0,0-.785,3" transform="translate(24.657 22.786)" fill="#cb93ec"/><path d="M.032,4.265a3.632,3.632,0,0,0,6.392,1.99A3.8,3.8,0,0,0,3.254.019,3.676,3.676,0,0,0,1,1.107,4.1,4.1,0,0,0,.032,4.265" transform="translate(15.504 32.006)" fill="#cb93ec"/><path d="M.4,3.4c1.2,2.311,4.114,3.381,4.87,1.248C6.153,2.166,3.022-.942.865.271A1.653,1.653,0,0,0,.2.979,2.65,2.65,0,0,0,.4,3.4" transform="translate(9.321 41.395)" fill="#cb93ec"/><path d="M.974,3.644c.442,1.736.592,2.342.69,2.864q-.189-1.056-.439-2.136C.9,2.954.5,1.515.027.082L0,0C.066.2.081.255.175.579c.193.694.313,1.152.8,3.065" transform="translate(37.057 19.705)" fill="#cb93ec"/><path d="M0,3.95c.067,2.288.9,4.2,1.779,3.163C3.08,5.586,2.79,0,1.414,0,.912,0,.58.722.438,1.031A7.3,7.3,0,0,0,0,3.95" transform="translate(36.301 28.71)" fill="#cb93ec"/><path d="M.071,3.772c-.38,2.1.806,3.567,2.73,2.283C5.282,4.4,5.914.336,3.739.018A2.99,2.99,0,0,0,1.457,1.052,5.483,5.483,0,0,0,.071,3.772" transform="translate(28.795 38.139)" fill="#cb93ec"/><path d="M0,2.6c-.034,1.818,1.894,2.42,3.74.571C5.188,1.719,4.755,0,2.943,0A3.242,3.242,0,0,0,.953.749,2.6,2.6,0,0,0,0,2.6" transform="translate(20.658 46.169)" fill="#cb93ec"/><path d="M.675,1.128a3.373,3.373,0,0,0,1.363.382c.023-.108.077-.207.09-.317A.742.742,0,0,0,2.109.9,1.065,1.065,0,0,0,1.732.369,1.6,1.6,0,0,0,.2.1.35.35,0,0,0,0,.369c0,.1.017.414.675.759" transform="translate(17.345 51.277)" fill="#cb93ec"/><path d="M1.615,3.165C.188,5.009.006,5.251,0,5.372c.053,0,.152,0,.762-.567q.3-.283.592-.58A19.4,19.4,0,0,0,3.33,1.854q.375-.531.718-1.091c.366-.6.352-.7.344-.758-.108-.057-.462.312-.959.884-.47.555-.827.994-1.819,2.276" transform="translate(32.146 42.803)" fill="#cb93ec"/><path d="M1.632,1.844A16.518,16.518,0,0,0,0,2.829l0,.032C1.077,2.983,5.852.828,5.461.084c-.062-.119-.366-.215-1.7.473-.63.343-.714.4-2.127,1.287" transform="translate(23.635 49.329)" fill="#cb93ec"/><path d="M0,.231A4.227,4.227,0,0,0,1.61.021l0-.012A2.787,2.787,0,0,0,.8.13a3.978,3.978,0,0,1-.8.1" transform="translate(19.525 52.579)" fill="#cb93ec"/></g></g><g transform="translate(1599.715 -297.935)"><g transform="translate(-1473.209 987.843)"><path d="M-1361.568,1019.065s-9.376-23.759-14.656-24.942-9.558,3.641-5.553,9.831c3.6,5.564,17.842,18.752,17.842,18.752Z" transform="translate(1447.231 -993.804)" fill="#fff"/><path d="M-1360.976,1018.867l-2.367,3.64s-1.72-1.592-4.116-3.9c-4.493-4.344-11.375-11.218-13.728-14.844-4-6.192.277-11.019,5.552-9.832,4.116.917,10.727,15.561,13.429,21.974C-1361.431,1017.715-1360.976,1018.867-1360.976,1018.867Z" transform="translate(1447.06 -993.748)" fill="#fff"/><path d="M-1354.753,1027.876l-2.367,3.64s-1.72-1.592-4.116-3.9a12.845,12.845,0,0,1,5.253-2.7C-1355.208,1026.725-1354.753,1027.876-1354.753,1027.876Z" transform="translate(1440.837 -1002.758)" fill="#f75b73" opacity="0.2" style="mix-blend-mode:multiply;isolation:isolate"/><path d="M-1429.49,1115.62s-.682.761-1.919,1.87a36.226,36.226,0,0,1-10.493,6.6c-7.393,2.9-9.91,1.8-11.282,5.559s-.874,7.927-3.028,7.251c-1.173-.363-3.064-2.559-4.18-5.431a10.981,10.981,0,0,1-.313-7.969c2.268-5.815,12.448-9.8,13.6-10.258s5.332-2.844,7-2.936a38.715,38.715,0,0,0,5.744-1.3Z" transform="translate(1469.771 -1027.069)" fill="#fff"/><path d="M-1429.49,1115.62s-.682.761-1.919,1.87a45.118,45.118,0,0,1-3.867,2.538s-8.886,5.254-17.161,5.367c-3.654.05-6.625,2.73-7.955,6.071a10.981,10.981,0,0,1-.313-7.969c2.268-5.815,12.448-9.8,13.6-10.258s5.332-2.844,7-2.936a38.715,38.715,0,0,0,5.744-1.3Z" transform="translate(1469.771 -1027.069)" fill="#f75b73" opacity="0.2" style="mix-blend-mode:multiply;isolation:isolate"/><path d="M-1325.248,1077.9c-2.588,2.765-5.133,4.571-7.756,3.675-1.72-.59-6.938.647-12.576,2.5-2.7.882-5.5,1.912-8.054,2.943-.242.1-.483.2-.718.3-7.969,3.306-1.834-5.573,3.441-8.161h.014c.242-.043,3.483-.562,7.457-1.287,5.481-1,12.355-2.367,14.651-3.37C-1324.758,1072.742-1322.66,1075.138-1325.248,1077.9Z" transform="translate(1439.953 -1016.92)" fill="#fff"/><path d="M-1341.97,1079.482a12.127,12.127,0,0,1-2.14,6.206c-2.7.881-5.5,1.912-8.054,2.943l-.931-4.472,3.668-3.391C-1349.186,1080.726-1345.944,1080.207-1341.97,1079.482Z" transform="translate(1438.484 -1018.534)" fill="#f75b73" opacity="0.2" style="mix-blend-mode:multiply;isolation:isolate"/><path d="M-1432.859,1073.961a21.533,21.533,0,0,1-.327,3.37,4.7,4.7,0,0,1-3.057,3.625c-1.941.675-6.227-.057-8.8-2.68a7.056,7.056,0,0,1-1.99-3.96c-.86-5.8,6.5-12.782,11.062-9.32C-1433.25,1067.065-1432.788,1071.075-1432.859,1073.961Z" transform="translate(1465.662 -1014.08)" fill="#fff"/><path d="M-1432.021,1077.982a21.54,21.54,0,0,1-.327,3.37,4.7,4.7,0,0,1-3.057,3.625c-1.941.675-6.227-.057-8.8-2.68,1.472.59,6.071,1.8,11.3-3.5C-1432.6,1078.494-1432.306,1078.224-1432.021,1077.982Z" transform="translate(1464.824 -1018.101)" fill="#f75b73" opacity="0.2" style="mix-blend-mode:multiply;isolation:isolate"/><path d="M-1357.09,1079.753c-3.107,2-5.737,3.228-10.407,1.749-1.77-.562-5.062-.391-8.7-.021-3.213.32-6.7.8-9.675,1.045a27.405,27.405,0,0,1-2.652,2.709c-2.95,2.7-7.173,5.95-9.391,6.96a86.956,86.956,0,0,1-36.789,7.407c-2.915-.05-4.607-.256-4.607-.256s-8.886,5.254-17.161,5.367c-5.268.064-9.121,5.623-8.687,10.713.384,4.514-.882,6.668-2.559,7.372a2.975,2.975,0,0,1-.647.2c-1.991.391-4.87-15.277-3.021-20.474s14.239-6.5,19.649-15.043c4.464-7.059,4.194-8.929,6.433-12.313a25.159,25.159,0,0,1,1.806-2.4c4.379-5.225,18.547-6.306,30.917-9.007s20.651-14.324,22.023-17.78,12.81-5.026,16.663,2.808c0,0-.135,1.713-.583,4.464a85.946,85.946,0,0,1-2.559,11.289,68.859,68.859,0,0,1-2.922,8c-.277.633-.569,1.265-.874,1.891.974.135,2.019.277,3.121.412,5.844.725,13.08,1.294,17.125.441C-1353.038,1073.7-1353.976,1077.763-1357.09,1079.753Z" transform="translate(1472.854 -1008.029)" fill="#fff"/><path d="M-1344.942,1093.331c-3.213.32-6.7.8-9.675,1.045a27.4,27.4,0,0,1-2.652,2.708,21.923,21.923,0,0,1-6.6-6.945l2.019-.846,3.618-3.953s6.412-1.884,9.526-.946c-.277.633-.569,1.265-.874,1.891.974.135,2.019.277,3.121.412A14.8,14.8,0,0,1-1344.942,1093.331Z" transform="translate(1441.597 -1019.879)" fill="#f75b73" opacity="0.2" style="mix-blend-mode:multiply;isolation:isolate"/><path d="M-1422.974,1099.64c-.818,5.481-7.237,10.535-10.87,12.995-2.915-.05-4.607-.256-4.607-.256s-8.886,5.254-17.161,5.367c-5.268.064-9.121,5.623-8.687,10.713.384,4.514-.881,6.668-2.559,7.372-1.607-4.344-2.964-14.467-1.55-18.448,1.855-5.2,14.239-6.5,19.649-15.042a51.655,51.655,0,0,0,3.853-7.088c3.761-8.481,15.625-9.59,20.467-1.671A9.26,9.26,0,0,1-1422.974,1099.64Z" transform="translate(1471.992 -1021.062)" fill="#f75b73" opacity="0.2" style="mix-blend-mode:multiply;isolation:isolate"/><path d="M-1361.566,1058.831s4.563,10.276,16.45,9.105a86.613,86.613,0,0,0,2.561-11.289l-3.66-.825-9.085-.951Z" transform="translate(1440.932 -1011.419)" fill="#f75b73" opacity="0.2" style="mix-blend-mode:multiply;isolation:isolate"/><path d="M-1362.88,1054.5c6.127,3.661,16.105,2.893,21.457-2.269s8.532-10.441,6.38-14.03-5.246-2.379-7.66-4.844-4.462-4.76-9.014-5.451c-2.971-.451-9.2-1.074-14.846,5.955a13.663,13.663,0,0,0-.993,1.395,18.993,18.993,0,0,0-1.5,2.934C-1371.985,1045.45-1368.3,1051.254-1362.88,1054.5Z" transform="translate(1443.397 -1003.55)" fill="#fff"/><path d="M-1340.742,1052.08c-5.353,5.161-15.327,5.929-21.455,2.268-4.848-2.9-8.311-7.848-6.881-14.069a14.726,14.726,0,0,1,.7-2.239,19.179,19.179,0,0,1,1.5-2.936,14.8,14.8,0,0,1,1-1.393,21.333,21.333,0,0,1,1.663-1.834,14.4,14.4,0,0,1,13.18-4.116c4.557.69,6.6,2.986,9.014,5.445s5.509,1.258,7.663,4.848S-1335.389,1046.918-1340.742,1052.08Z" transform="translate(1443.198 -1003.508)" fill="#fff"/><path d="M-1361.6,1037.2l-.27.114a23.827,23.827,0,0,1-7.081,4.742,14.745,14.745,0,0,1,.7-2.239,19.174,19.174,0,0,1,1.5-2.936,14.8,14.8,0,0,1,1-1.393,21.335,21.335,0,0,1,1.664-1.834l.526.2Z" transform="translate(1443.066 -1005.285)" fill="#f75b73" opacity="0.2" style="mix-blend-mode:multiply;isolation:isolate"/><path d="M-1345.372,1037.766c1.3,1.639,3.165,2.327,4.165,1.535s.757-2.767-.541-4.406-3.165-2.327-4.165-1.534S-1346.673,1036.125-1345.372,1037.766Zm1.351-1.9a.825.825,0,0,1,.131-1.156.826.826,0,0,1,1.159.134.824.824,0,0,1-.136,1.156A.822.822,0,0,1-1344.021,1035.863Z" transform="translate(1436.585 -1005.105)" fill="#f75b73"/><path d="M-1323.157,1042.935a2,2,0,0,0,2.758-.089,2,2,0,0,0,.717-2.664,2,2,0,0,0-2.758.089A2,2,0,0,0-1323.157,1042.935Z" transform="translate(1429.909 -1007.025)" fill="#f75b73"/><path d="M-1331.27,1048.4s-6.009,4.382-6.231,8.728" transform="translate(1433.975 -1009.547)" fill="none" stroke="#707070" stroke-miterlimit="10" stroke-width="0.651"/><path d="M-1329.236,1050.739s-2.47,3.441-2.353,6.4" transform="translate(1432.267 -1010.224)" fill="none" stroke="#707070" stroke-miterlimit="10" stroke-width="0.651"/><g transform="translate(43.712 9.564)"><path d="M-1407.216,1020.334c5.244,2.487,32.984,9.331,32.984,9.331l.269-.433,1.072-1.74.862-1.391s-26.969-20.052-33.888-18.847C-1414.16,1008.693-1412.716,1017.727-1407.216,1020.334Z" transform="translate(1411.72 -1007.202)" fill="#fff"/><path d="M-1407.216,1020.785c5.244,2.487,32.984,9.331,32.984,9.331l.269-.433,1.072-1.74.862-1.391S-1399,1006.5-1405.916,1007.7C-1414.16,1009.145-1412.716,1018.178-1407.216,1020.785Z" transform="translate(1411.72 -1007.332)" fill="#fff"/><path d="M-1402.452,1023.741c3.333,1.206,25.331,7.272,30.333,8.65l1.072-1.74c-3.616-1.986-26.754-14.592-30.943-13.572C-1406.546,1018.179-1406.225,1022.381-1402.452,1023.741Z" transform="translate(1409.877 -1010.041)" fill="#f75b73"/></g><path d="M-1326.851,1091.726c-3.107,2-5.737,3.227-10.408,1.749-3.334-1.052-12.035.483-18.376,1.024-8.182-.746-12.085-4.813-8.374-8.637s13.415.547,13.415.547c6.128.867,15.441,1.87,20.246.853C-1322.8,1085.669-1323.738,1089.736-1326.851,1091.726Z" transform="translate(1442.046 -1019.926)" fill="#fff"/><path d="M-1326.051,1091.62c-3.107,2-5.737,3.228-10.407,1.749-3.334-1.052-12.035.484-18.377,1.024-8.182-.746-12.085-4.813-8.374-8.637s13.415.547,13.415.547c6.128.867,15.441,1.87,20.246.853C-1322,1085.563-1322.937,1089.63-1326.051,1091.62Z" transform="translate(1441.815 -1019.895)" fill="#fff"/><path d="M-1427.182,1096.661c-1.152,7.7-13.358,14.566-13.358,14.566s-8.886,5.254-17.161,5.367c-5.268.064-9.121,5.623-8.687,10.713s-1.223,7.173-3.206,7.571-4.87-15.277-3.021-20.474,14.239-6.5,19.649-15.042a52.335,52.335,0,0,0,3.854-7.086c3.763-8.482,15.625-9.591,20.466-1.674A9.234,9.234,0,0,1-1427.182,1096.661Z" transform="translate(1473.209 -1020.201)" fill="#fff"/><path d="M-1425.954,1097.07c-1.152,7.7-13.358,14.566-13.358,14.566s-8.886,5.254-17.161,5.367c-5.268.064-9.121,5.623-8.687,10.713s-1.223,7.173-3.206,7.571-4.87-15.277-3.021-20.474,14.239-6.5,19.649-15.042a52.348,52.348,0,0,0,3.854-7.085c3.763-8.483,15.625-9.592,20.466-1.675A9.235,9.235,0,0,1-1425.954,1097.07Z" transform="translate(1472.854 -1020.319)" fill="#fff"/></g><g transform="translate(-1342.833 973.324)"><g transform="translate(17.927)"><path d="M-1245.732,982.009c-1.872,4.587-15.42,24.888-15.42,24.888l-3.442-.981s5.449-28.181,10.5-31.405C-1248.063,970.666-1243.769,977.2-1245.732,982.009Z" transform="translate(1264.594 -973.331)" fill="#fff"/><path d="M-1245.207,981.982c-1.873,4.59-15.42,24.889-15.42,24.889l-.419-.119-1.678-.479-1.345-.38s5.45-28.181,10.506-31.408C-1247.536,970.642-1243.242,977.169-1245.207,981.982Z" transform="translate(1264.443 -973.324)" fill="#fff"/></g><path d="M-1251.873,1089.85l4.929,11.132s-10.973-.635-12.245,1.909,5.726,5.407,14.472,4.294,12.087-6.043,12.087-6.043l-5.248-8.747s-3.658-3.816-4.453-3.975S-1251.873,1089.85-1251.873,1089.85Z" transform="translate(1281.001 -1006.595)" fill="#fff"/><path d="M-1252.029,1066.858a17.007,17.007,0,0,1-3.624,6.838,20.767,20.767,0,0,1-7.34,5.288,19.3,19.3,0,0,1-6.35,1.645c-4.638.239-8.855-.731-7.77-3.362.717-1.735,2.587-1.721,5.269-2.989a16.883,16.883,0,0,0,4.768-3.409l.1-.1c5.049-5.125.775-10.791,5.365-13.494C-1258.656,1055.535-1249.419,1057.008-1252.029,1066.858Z" transform="translate(1286.19 -997.413)" fill="#fff"/><path d="M-1251.089,1066.858a17.013,17.013,0,0,1-3.625,6.838,20.767,20.767,0,0,1-7.339,5.288,19.306,19.306,0,0,1-6.35,1.645c-4.639.239-8.856-.731-7.77-3.362.717-1.735,2.586-1.721,5.269-2.989a16.892,16.892,0,0,0,4.767-3.409l.1-.1c5.049-5.125.775-10.791,5.365-13.494C-1257.717,1055.535-1248.479,1057.008-1251.089,1066.858Z" transform="translate(1285.918 -997.413)" fill="#fff"/><path d="M-1252.5,1079.12a20.767,20.767,0,0,1-7.339,5.288c-3.347-.765-7.2-3.462-8.851-4.706a16.885,16.885,0,0,0,4.767-3.409l.1-.1,5.876-.784Z" transform="translate(1283.705 -1002.837)" fill="#f75b73" opacity="0.2" style="mix-blend-mode:multiply;isolation:isolate"/><path d="M-1232.22,1101.143a11.321,11.321,0,0,1-2.573,2.467,20.137,20.137,0,0,1-9.51,3.572,26.991,26.991,0,0,1-10.113-.507c-3.242-.88-5.064-2.381-4.361-3.787,1.272-2.544,12.245-1.908,12.245-1.908l-1.7-3.83-3.232-7.3s4.04-.732,6.88-1.153a15.541,15.541,0,0,1,2.664-.277c.793.158,4.452,3.974,4.452,3.974Z" transform="translate(1280.882 -1006.595)" fill="#fff"/><path d="M-1232.279,1102.394s-.268.545-.679,1.334a20.136,20.136,0,0,1-9.51,3.572,26.993,26.993,0,0,1-10.113-.507c3.375-1.224,9.592-3.811,8.908-6.025a8.158,8.158,0,0,0-2.721-3.5l-3.232-7.3s4.04-.732,6.88-1.153a72.286,72.286,0,0,1,6.2,5.212C-1235.072,1095.652-1232.279,1102.394-1232.279,1102.394Z" transform="translate(1279.048 -1006.713)" fill="#f75b73" opacity="0.2" style="mix-blend-mode:multiply;isolation:isolate"/><path d="M-1218.207,1092.635c-3.725,1.554-27.791,1.708-29.966.469s-2.482-4.816,7.918-5.9a73.783,73.783,0,0,1-11.289-11.313,38.449,38.449,0,0,1-5.011-8.1c-.388-.875-.727-1.731-1.033-2.568a30.956,30.956,0,0,1-2.056-10.639,18.861,18.861,0,0,1,2.156-9.152c2.362-4.27,6.116-9.109,9.678-9.716a4.559,4.559,0,0,1,.569-.062s24.84,5.279,34,20.958S-1214.482,1091.081-1218.207,1092.635Z" transform="translate(1281.09 -991.345)" fill="#fff"/><path d="M-1208.883,1070.487c.007.554-.007,1.1-.036,1.642-.043.938-.128,1.863-.249,2.772,0,.014-.007.036-.007.05-.064.476-.142.946-.22,1.408-1.507,8.6-5.95,15.362-8.125,16.272-1.934.81-9.391,1.237-16.4,1.287H-1234c-6.419.05-12.448-.228-13.486-.818-1.749-1-2.289-3.512,2.993-5.012a28.9,28.9,0,0,1,4.927-.888s-.355-.27-.96-.782a73.764,73.764,0,0,1-10.329-10.528,38.4,38.4,0,0,1-5.012-8.1c-.384-.874-.725-1.728-1.031-2.566a30.873,30.873,0,0,1-2.055-10.642,20.859,20.859,0,0,1,.156-2.63,17.616,17.616,0,0,1,2-6.519c2.36-4.273,6.114-9.107,9.675-9.718.192-.028.377-.05.569-.064a76.743,76.743,0,0,1,15.348,5.424c6.91,3.313,14.438,8.325,18.654,15.54A27.353,27.353,0,0,1-1208.883,1070.487Z" transform="translate(1280.89 -991.344)" fill="#fff"/><path d="M-1203.421,1083.251c.007.555-.007,1.1-.036,1.642-.043.938-.128,1.863-.249,2.773,0,.014-.007.036-.007.05-1.514,8.581-5.95,15.313-8.119,16.223-1.934.81-9.391,1.237-16.4,1.287h-.078c-5.218-.05-9.654-.32-10.528-.818-1.251-.718-1.884-2.211-.192-3.554a10.357,10.357,0,0,1,3.967-1.671,32.746,32.746,0,0,1,4.144-.675l8.126-.668s-1.927-11.3,2.566-15.554C-1216.537,1078.786-1208.02,1078.879-1203.421,1083.251Z" transform="translate(1275.427 -1004.107)" fill="#f75b73" opacity="0.2" style="mix-blend-mode:multiply;isolation:isolate"/><path d="M-1231.141,1041.077a20.465,20.465,0,0,1-2.616,2.41c-7.088,5.538-21.583,7.962-24.974,8.467a17.616,17.616,0,0,1,2-6.519c2.36-4.273,6.114-9.107,9.675-9.718.192-.028.377-.05.569-.064A76.742,76.742,0,0,1-1231.141,1041.077Z" transform="translate(1280.826 -991.344)" fill="#f75b73" opacity="0.2" style="mix-blend-mode:multiply;isolation:isolate"/><path d="M-1241.687,1075.268s-2.927,8.421-8.779,12.074a38.423,38.423,0,0,1-5.011-8.1c-.387-.875-.727-1.731-1.033-2.568Z" transform="translate(1280.184 -1002.796)" fill="#f75b73" opacity="0.2" style="mix-blend-mode:multiply;isolation:isolate"/><path d="M-1254.421,1033.5c-2.609,6.889-11.175,12.661-18.817,11.915s-13.6-2.979-14.161-7.258,2.723-5.289,3.093-8.836.562-6.711,3.8-10.187c2.111-2.268,6.754-6.768,15.832-4.7.192.043.377.085.569.142.377.092.746.213,1.13.348.22.078.434.156.64.242a19.291,19.291,0,0,1,2.46,1.173,12.766,12.766,0,0,1,5.623,6.021c.036.078.064.164.1.242A15.007,15.007,0,0,1-1254.421,1033.5Z" transform="translate(1289.133 -985.057)" fill="#fff"/><path d="M-1254.029,1033.5c-2.609,6.889-11.175,12.661-18.817,11.915s-13.6-2.979-14.161-7.258,2.723-5.289,3.092-8.836.562-6.711,3.8-10.187c2.111-2.268,6.754-6.768,15.832-4.7.192.043.377.085.569.142.377.092.746.213,1.13.348.22.078.434.156.64.242a19.3,19.3,0,0,1,2.46,1.173,12.765,12.765,0,0,1,5.623,6.021c.036.078.064.164.1.242A15.008,15.008,0,0,1-1254.029,1033.5Z" transform="translate(1289.019 -985.057)" fill="#fff"/><path d="M-1244.338,1022.877a69.88,69.88,0,0,1-9.8-2.445l.206-2.9,1.514-1.848a19.3,19.3,0,0,1,2.46,1.173A12.764,12.764,0,0,1-1244.338,1022.877Z" transform="translate(1279.499 -985.57)" fill="#f75b73" opacity="0.2" style="mix-blend-mode:multiply;isolation:isolate"/><path d="M-1251.142,1061.626c-5.272-.975-5.725,6.2-13.041,6.679s-9.224-3.021-11.768-1.749,0,4.771,3.658,7.633,13.677,6.679,22.105.955S-1247.767,1062.25-1251.142,1061.626Z" transform="translate(1286.101 -998.826)" fill="#fff"/><path d="M-1250.548,1062c-5.271-.975-5.725,6.2-13.04,6.68s-9.224-3.021-11.768-1.749,0,4.771,3.658,7.634,13.676,6.679,22.105.954S-1247.172,1062.625-1250.548,1062Z" transform="translate(1285.929 -998.935)" fill="#fff"/><path d="M-1272.941,1024.479c-1.317,0-2.387,1.75-2.387,3.913s1.069,3.912,2.387,3.912,2.387-1.753,2.387-3.912S-1271.623,1024.479-1272.941,1024.479Zm-.774,4.087a.85.85,0,0,1-.852-.848.853.853,0,0,1,.852-.852.852.852,0,0,1,.848.852A.849.849,0,0,1-1273.716,1028.566Z" transform="translate(1285.624 -988.113)" fill="#f75b73"/><ellipse cx="2.289" cy="1.696" rx="2.289" ry="1.696" transform="translate(0 51.174)" fill="#f75b73"/><path d="M-1276.114,1047.39s7.672-.307,10.638,3.069" transform="translate(1285.851 -994.734)" fill="none" stroke="#707070" stroke-miterlimit="10" stroke-width="0.673"/><path d="M-1274.983,1049.581s4.206,1.2,6.008,3.672" transform="translate(1285.524 -995.37)" fill="none" stroke="#707070" stroke-miterlimit="10" stroke-width="0.673"/><path d="M-1206.113,1089.555c-1.507,8.6-5.95,15.363-8.126,16.272-3.717,1.557-27.789,1.706-29.964.469s-2.481-4.813,7.919-5.9l8.126-.668s-1.926-11.3,2.567-15.554,16.115-3.206,19.159,4.408A7.516,7.516,0,0,1-1206.113,1089.555Z" transform="translate(1276.979 -1004.653)" fill="#fff"/><path d="M-1205.232,1089.715c-1.507,8.6-5.95,15.362-8.125,16.272-3.718,1.557-27.789,1.706-29.964.469s-2.481-4.813,7.92-5.9l8.125-.668s-1.927-11.3,2.566-15.554,16.116-3.206,19.158,4.407A7.414,7.414,0,0,1-1205.232,1089.715Z" transform="translate(1276.724 -1004.7)" fill="#fff"/><g transform="translate(21.903 4.731)"><path d="M-1226.539,992.313c-4.411,3.766-29.408,17.613-29.408,17.613l-3.054-2.868s20.8-26.393,27.793-27.034C-1222.872,979.26-1221.913,988.362-1226.539,992.313Z" transform="translate(1259.001 -979.979)" fill="#fff"/><path d="M-1225.978,992.567c-4.414,3.769-29.408,17.614-29.408,17.614l-.372-.348-1.489-1.4-1.2-1.118s20.8-26.393,27.8-27.036C-1222.311,979.518-1221.349,988.615-1225.978,992.567Z" transform="translate(1258.84 -980.053)" fill="#fff"/><path d="M-1228.247,996.422c-2.9,2.034-22.556,13.63-27.026,16.265l-1.489-1.4c2.972-2.861,22.021-21.067,26.331-21.176C-1225.746,989.985-1224.96,994.125-1228.247,996.422Z" transform="translate(1258.354 -982.908)" fill="#fff"/></g></g></g><path d="M-1087.906,33.385a112.071,112.071,0,0,1-112.069,112.068,111.651,111.651,0,0,1-75.523-29.277A152.593,152.593,0,0,1-1420.7,221.867a151.662,151.662,0,0,1-46.449-7.219,78.382,78.382,0,0,1-53.114,20.631,78.687,78.687,0,0,1-78.7-78.7,78.264,78.264,0,0,1,14.253-45.172,112.343,112.343,0,0,1-72.52-58.721,56,56,0,0,1-20.613,3.911A56.02,56.02,0,0,1-1733.86.567a56.03,56.03,0,0,1,56.017-56.033,55.839,55.839,0,0,1,22.561,4.734,112.044,112.044,0,0,1,98.438-58.469,111.564,111.564,0,0,1,31.777,4.583,84.109,84.109,0,0,1,61.256-26.372,84.336,84.336,0,0,1,77.771,51.7c2.653.6,5.272,1.293,7.858,2.048a84.007,84.007,0,0,1,35.521-7.823,84.165,84.165,0,0,1,68.2,34.749,111.571,111.571,0,0,1,74.483-28.354A112.057,112.057,0,0,1-1087.906,33.385Z" transform="translate(1905.662 859.504)" fill="#fc97a7"/><path d="M-1733.86-44.5a58.967,58.967,0,0,0,58.966,58.966,58.746,58.746,0,0,0,39.737-15.4,80.288,80.288,0,0,0,76.4,55.609,79.8,79.8,0,0,0,24.44-3.8,41.241,41.241,0,0,0,27.946,10.855,41.4,41.4,0,0,0,41.407-41.407,41.179,41.179,0,0,0-7.5-23.768,59.11,59.11,0,0,0,38.157-30.9,29.467,29.467,0,0,0,10.846,2.058,29.475,29.475,0,0,0,29.474-29.482,29.481,29.481,0,0,0-29.474-29.482,29.379,29.379,0,0,0-11.87,2.491,58.953,58.953,0,0,0-51.794-30.764,58.7,58.7,0,0,0-16.719,2.411,44.255,44.255,0,0,0-32.23-13.876,44.374,44.374,0,0,0-40.92,27.2c-1.4.318-2.774.68-4.134,1.077a44.2,44.2,0,0,0-18.689-4.116A44.284,44.284,0,0,0-1635.7-88.542a58.7,58.7,0,0,0-39.19-14.919A58.959,58.959,0,0,0-1733.86-44.5Z" transform="translate(1857.604 721.169) rotate(-8)" fill="#fff"/><path d="M-1733.86-45.54A58.26,58.26,0,0,0-1675.6,12.718,58.042,58.042,0,0,0-1636.341-2.5a79.325,79.325,0,0,0,75.485,54.942,78.842,78.842,0,0,0,24.146-3.753A40.747,40.747,0,0,0-1509.1,59.413a40.9,40.9,0,0,0,40.91-40.91A40.685,40.685,0,0,0-1475.6-4.979a58.4,58.4,0,0,0,37.7-30.526,29.114,29.114,0,0,0,10.716,2.033,29.122,29.122,0,0,0,29.12-29.129,29.127,29.127,0,0,0-29.12-29.129,29.027,29.027,0,0,0-11.728,2.461,58.246,58.246,0,0,0-51.173-30.4,58,58,0,0,0-16.519,2.382,43.724,43.724,0,0,0-31.844-13.709,43.842,43.842,0,0,0-40.429,26.878c-1.379.314-2.741.672-4.085,1.065a43.671,43.671,0,0,0-18.465-4.067,43.753,43.753,0,0,0-35.456,18.064,58,58,0,0,0-38.72-14.74A58.252,58.252,0,0,0-1733.86-45.54Z" transform="translate(3328.445 1049.367) rotate(1)" fill="#fff"/><path d="M-1733.86-36.831a64.2,64.2,0,0,0,64.2,64.2A63.958,63.958,0,0,0-1626.4,10.6a87.411,87.411,0,0,0,83.179,60.543A86.878,86.878,0,0,0-1516.615,67a44.9,44.9,0,0,0,30.425,11.818,45.074,45.074,0,0,0,45.08-45.08,44.832,44.832,0,0,0-8.164-25.876,64.354,64.354,0,0,0,41.542-33.637,32.08,32.08,0,0,0,11.808,2.241,32.09,32.09,0,0,0,32.089-32.1,32.1,32.1,0,0,0-32.089-32.1,31.986,31.986,0,0,0-12.924,2.712,64.183,64.183,0,0,0-56.389-33.493,63.906,63.906,0,0,0-18.2,2.625,48.181,48.181,0,0,0-35.089-15.107,48.311,48.311,0,0,0-44.55,29.618c-1.52.346-3.02.741-4.5,1.173a48.122,48.122,0,0,0-20.347-4.481A48.213,48.213,0,0,0-1627-84.776a63.911,63.911,0,0,0-42.667-16.242A64.19,64.19,0,0,0-1733.86-36.831Z" transform="translate(2180.199 627.827) rotate(-8)" fill="#a354d2"/><g transform="matrix(0.998, 0.07, -0.07, 0.998, 858.743, 572.164)"><g transform="translate(-433.152 180.154)"><path d="M-435.416,179.553c5.6,2.935,10.265,8.435,13.879,16.348,1.6,3.5,2.9,7.2,4.168,10.778,1.136,3.22,2.31,6.548,3.7,9.732A72.5,72.5,0,0,0-388.5,247.043l.229-.329a72.1,72.1,0,0,1-25.03-30.462c-1.383-3.171-2.555-6.492-3.688-9.7-1.266-3.586-2.574-7.293-4.182-10.811-3.652-8-8.381-13.561-14.057-16.537Z" transform="translate(435.416 -179.198)" fill="#fff"/></g><g transform="translate(-417.872 218.001)"><path d="M-411.633,218.4c-.051-.063-5.208-6.357-10.8-7.142l-.041.292c5.476.771,10.561,6.974,10.612,7.038Z" transform="translate(422.474 -211.254)" fill="#fff"/></g><g transform="translate(-411.969 204.882)"><path d="M-417.148,211.2c0-.067-.414-6.8,1.771-10.925l-.262-.137c-2.221,4.2-1.806,11.014-1.8,11.08Z" transform="translate(417.474 -200.142)" fill="#fff"/></g><g transform="translate(-413.85 190.66)"><path d="M-412.662,201.044a12.65,12.65,0,0,0-.875-6.886,28.923,28.923,0,0,0-3.53-6.063c.633,2.78-1.012,5.508-1.677,8.281a12.371,12.371,0,0,0,.485,7.2c.293.772.842,2.512,1.739,2.783s1.858-1.065,2.313-1.682A8.809,8.809,0,0,0-412.662,201.044Z" transform="translate(419.067 -188.096)" fill="#fff"/></g><g transform="translate(-431.84 213.857)"><path d="M-421.487,214.406c-2.153-.488-4.133-1.458-6.334-2.107-2.138-.632-4.577-.806-6.484.349a11.547,11.547,0,0,1,9.866-4.893,11.682,11.682,0,0,1,8.476,4.442c1.642,2.085-1.09,2.462-2.648,2.508A11.37,11.37,0,0,1-421.487,214.406Z" transform="translate(434.305 -207.744)" fill="#fff"/></g><g transform="translate(-425.984 196.329)"><path d="M-419.42,200.5c-.04-.063-4.167-6.2-9.853-7.607l-.072.287c5.577,1.379,9.639,7.422,9.678,7.483Z" transform="translate(429.345 -192.898)" fill="#fff"/></g><g transform="translate(-438.749 191.736)"><path d="M-431.343,189.121a10.52,10.52,0,0,0-8.814,2.838,2.913,2.913,0,0,1,3.112-.627,6.9,6.9,0,0,1,2.678,1.987,16.517,16.517,0,0,0,2.39,2.366c1.829,1.307,4.963,1.59,6.805.12,2.222-1.775-.615-4.154-2.162-5.15A10.343,10.343,0,0,0-431.343,189.121Z" transform="translate(440.157 -189.007)" fill="#fff"/></g><g transform="translate(-421.705 184.8)"><path d="M-424.6,191.787c-.017-.057-1.627-5.736-.3-8.528l-.266-.126c-1.375,2.883.213,8.5.28,8.736Z" transform="translate(425.72 -183.133)" fill="#fff"/></g><g transform="translate(-423.265 173.905)"><path d="M-420.926,184a15.435,15.435,0,0,0,.911-5.1,11.061,11.061,0,0,1,1.243-5,10.845,10.845,0,0,0-7.612,6.354,7.67,7.67,0,0,0-.612,3.847c.157,1.259.849,3.286,2.45,3A5.3,5.3,0,0,0-420.926,184Z" transform="translate(427.042 -173.905)" fill="#fff"/></g><g transform="translate(-447.949 175.538)"><path d="M-433.734,176.542a12.936,12.936,0,0,0-7.135-1.179,28.4,28.4,0,0,0-7.08,1.813,5.093,5.093,0,0,1,4.793.71,39.159,39.159,0,0,1,3.809,3.325,10.024,10.024,0,0,0,4.5,2.361c1.66.325,4.776.039,5.074-2.136C-429.488,179.361-432.151,177.358-433.734,176.542Z" transform="translate(447.949 -175.288)" fill="#fff"/></g></g><g transform="matrix(-0.998, 0.07, -0.07, -0.998, 1724.635, 797.191)"><g transform="translate(18.734 0)"><path d="M0,85.447c7.084-3.716,13-10.679,17.571-20.7C19.6,60.313,21.249,55.63,22.848,51.1c1.438-4.076,2.925-8.29,4.683-12.322A91.79,91.79,0,0,1,59.4,0l.29.417A91.278,91.278,0,0,0,28,38.984c-1.75,4.015-3.235,8.22-4.67,12.287-1.6,4.54-3.259,9.233-5.295,13.688C13.41,75.083,7.422,82.128.236,85.9Z" transform="translate(0 0)" fill="#fff"/></g><g transform="translate(38.08 28.7)"><g transform="translate(0 0)"><path d="M13.725.238C13.661.317,7.132,8.286.052,9.28L0,8.91C6.933,7.934,13.371.081,13.435,0Z" transform="translate(0)" fill="#fff"/></g></g><g transform="translate(45.553 40.561)"><g transform="translate(0)"><path d="M.413.024C.407.109-.112,8.631,2.655,13.855l-.332.173C-.488,8.715.036.084.042,0Z" transform="translate(0)" fill="#fff"/></g></g><g transform="translate(43.172 49.427)"><path d="M8.11,6.775A16.016,16.016,0,0,1,7,15.493a36.616,36.616,0,0,1-4.469,7.676c.8-3.52-1.281-6.973-2.123-10.484a15.663,15.663,0,0,1,.614-9.115C1.395,2.591,2.09.388,3.226.046s2.353,1.348,2.928,2.13A11.154,11.154,0,0,1,8.11,6.775Z" transform="translate(0 0)" fill="#fff"/></g><g transform="translate(20.395 34.408)"><path d="M16.229.384C13.5,1,11,2.23,8.209,3.052,5.5,3.852,2.414,4.073,0,2.61A14.619,14.619,0,0,0,12.491,8.8,14.79,14.79,0,0,0,23.222,3.181C25.3.541,21.842.064,19.869.006A14.4,14.4,0,0,0,16.229.384Z" transform="translate(0 0)" fill="#fff"/></g><g transform="translate(27.809 55.581)"><g transform="translate(0 0)"><path d="M12.565.206C12.515.286,7.29,8.055.091,9.837L0,9.474C7.061,7.728,12.2.078,12.253,0Z" transform="translate(0)" fill="#fff"/></g></g><g transform="translate(11.647 61.377)"><path d="M11.159,9.713A13.319,13.319,0,0,1,0,6.119a3.688,3.688,0,0,0,3.94.794A8.74,8.74,0,0,0,7.331,4.4a20.913,20.913,0,0,1,3.025-3c2.315-1.655,6.284-2.013,8.616-.152,2.813,2.247-.779,5.259-2.737,6.52A13.1,13.1,0,0,1,11.159,9.713Z" transform="translate(0 0)" fill="#fff"/></g><g transform="translate(33.227 68.955)"><g transform="translate(0 0)"><path d="M1.422.1C1.4.175-.638,7.365,1.044,10.9l-.336.16C-1.034,7.41.977.3,1.062,0Z" transform="translate(0)" fill="#fff"/></g></g><g transform="translate(31.251 77.061)"><path d="M7.743,3.963A19.542,19.542,0,0,1,8.9,10.414a14.005,14.005,0,0,0,1.574,6.333A13.731,13.731,0,0,1,.834,8.7,9.71,9.71,0,0,1,.06,3.833c.2-1.593,1.075-4.16,3.1-3.8A6.716,6.716,0,0,1,7.743,3.963Z" transform="translate(0)" fill="#fff"/></g><g transform="translate(0 81.112)"><path d="M18,9.042a16.377,16.377,0,0,1-9.033,1.493A35.958,35.958,0,0,1,0,8.239c1.937.9,4.28.271,6.069-.9a49.579,49.579,0,0,0,4.822-4.209,12.691,12.691,0,0,1,5.7-2.99c2.1-.411,6.046-.049,6.425,2.7C23.373,5.472,20,8.009,18,9.042Z" transform="translate(0 0)" fill="#fff"/></g></g><g transform="matrix(0.921, -0.391, 0.391, 0.921, 485.773, 729.022)"><path d="M-1402.545,646.428c0,18.653-13.537,31.678-30.23,31.678a29.613,29.613,0,0,1-22.316-9.853,32.371,32.371,0,0,1-7.914-21.826c0-9.616,3.6-22.371,9.379-32.466,5.419-9.484,12.766-16.621,20.851-16.621C-1416.083,597.341-1402.545,627.78-1402.545,646.428Z" transform="translate(1463.005 -597.341)" fill="#cb93ec"/><g transform="translate(0.471)"><path d="M-1412.313,597.413a5.242,5.242,0,0,0-2.737.924c.057.074.328,0,1.114-.306a7.56,7.56,0,0,1,2.807-.692,10.12,10.12,0,0,0-1.184.073" transform="translate(1440.99 -597.34)" fill="#7d26b0"/><path d="M-1431.813,604.276c-1.647,1.48-2.958,3.077-2.806,3.418.194.059.673-.242,1.423-.9.73-.638,5.95-5.52,6.024-5.61l-.013-.042a6.527,6.527,0,0,0-1.411.714,22.038,22.038,0,0,0-3.216,2.417" transform="translate(1449.787 -599.049)" fill="#7d26b0"/><path d="M-1411.872,599.472c-.731,1.54.164,2.706,1.344,2.366,1.973-.569,1.389-3.555.574-4.005-.13-.072-.3-.052-.766.265a3.739,3.739,0,0,0-1.153,1.374" transform="translate(1439.681 -597.546)" fill="#7d26b0"/><path d="M-1429.3,613.109c-1.485,3.2-.263,4.978,1.742,4.136,3.53-1.482,4.775-7.846,3.1-8.567-.781-.336-1.935.664-2.369,1.042a11.248,11.248,0,0,0-2.475,3.39" transform="translate(1447.687 -602.403)" fill="#7d26b0"/><path d="M-1449.978,635.878c-1.283,3.467-.938,5.762.767,5.116,3.27-1.239,5.853-9.962,4.032-11.077-.8-.491-1.961.941-2.4,1.48a17.811,17.811,0,0,0-2.4,4.481" transform="translate(1457.03 -611.93)" fill="#7d26b0"/><path d="M-1462.146,667.175a.764.764,0,0,0,.022.338h.091c1.225-1.343,2.872-10.082,2.372-11.366h-.084a1.263,1.263,0,0,0-.164.361,68.1,68.1,0,0,0-2.238,10.667" transform="translate(1462.151 -623.76)" fill="#7d26b0"/><path d="M-1397.257,606.67c1.738,3.391,4.309,4.513,4.817,3.242.9-2.249-4.43-7.487-5.607-6.786-.23.137-.2.5-.168.8a9.681,9.681,0,0,0,.958,2.748" transform="translate(1433.435 -599.911)" fill="#7d26b0"/><path d="M-1407.424,626.675c.384,4.649,5.071,6.469,7.139,3.749,2.561-3.368-.849-9.792-4.029-9.353a3.268,3.268,0,0,0-2.063,1.42,6.637,6.637,0,0,0-1.047,4.183" transform="translate(1437.574 -607.992)" fill="#7d26b0"/><path d="M-1430.175,652.456c-.258,5.022,4.483,6.7,7.656,3.953,3.8-3.282,1.9-9.842-1.979-10.321a4.586,4.586,0,0,0-3.779,1.675,7.967,7.967,0,0,0-1.9,4.692" transform="translate(1447.79 -619.229)" fill="#7d26b0"/><path d="M-1451.27,678.769c.113,3.907,3.276,6.765,5.969,4.153,3.695-3.585,1.764-10.122-1.929-10.122a3.607,3.607,0,0,0-2.779,1.622,7.24,7.24,0,0,0-1.261,4.348" transform="translate(1457.264 -631.241)" fill="#7d26b0"/><path d="M-1458.328,704.875c1.388,3.386,3.571,5.474,4.1,3.921.967-2.846-2.88-11.03-4.625-9.838-.44.3-.471,1.093-.489,1.566a12.091,12.091,0,0,0,1.015,4.351" transform="translate(1460.889 -642.941)" fill="#7d26b0"/><path d="M-1377.532,640.205c1.366,4.353,4.546,6.457,5.67,4.6,1.634-2.7-2.353-11.356-4.959-10.771-.763.172-1.007,1.136-1.125,1.6a9.9,9.9,0,0,0,.414,4.573" transform="translate(1424.37 -613.812)" fill="#7d26b0"/><path d="M-1393.623,666.9c.653,4.914,6.132,6.416,8.5,3.368,2.694-3.469-.435-10.125-4.525-9.625a4.356,4.356,0,0,0-2.775,1.674,6.278,6.278,0,0,0-1.2,4.583" transform="translate(1431.389 -625.767)" fill="#7d26b0"/><path d="M-1419.049,692.74a5.555,5.555,0,0,0,9.776,3.043c3.3-3.969.214-10.031-4.848-9.537a5.622,5.622,0,0,0-3.448,1.664,6.272,6.272,0,0,0-1.479,4.829" transform="translate(1442.809 -637.27)" fill="#7d26b0"/><path d="M-1435.651,717.492c1.835,3.534,6.292,5.171,7.448,1.909,1.345-3.8-3.444-8.55-6.742-6.693a2.527,2.527,0,0,0-1.023,1.082,4.051,4.051,0,0,0,.317,3.7" transform="translate(1450.523 -648.984)" fill="#7d26b0"/><path d="M-1357.757,657.633c.675,2.656.906,3.581,1.055,4.38q-.29-1.615-.671-3.267c-.5-2.168-1.114-4.369-1.833-6.561l-.042-.125c.1.313.124.39.268.886.3,1.061.478,1.762,1.222,4.688" transform="translate(1415.92 -621.924)" fill="#7d26b0"/><path d="M-1361.337,683.107c.1,3.5,1.378,6.42,2.721,4.838,1.983-2.336,1.539-10.876-.564-10.879-.768,0-1.276,1.1-1.493,1.576a11.157,11.157,0,0,0-.664,4.465" transform="translate(1416.862 -633.158)" fill="#7d26b0"/><path d="M-1382.079,709.017c-.581,3.214,1.232,5.456,4.175,3.49,3.8-2.533,4.76-8.745,1.435-9.232-1.612-.236-3.026,1.132-3.491,1.582a8.383,8.383,0,0,0-2.119,4.16" transform="translate(1426.226 -644.921)" fill="#7d26b0"/><path d="M-1404.783,729.52c-.053,2.781,2.9,3.7,5.72.873,2.212-2.217,1.551-4.843-1.219-4.845a4.954,4.954,0,0,0-3.044,1.146,3.972,3.972,0,0,0-1.456,2.825" transform="translate(1436.378 -654.94)" fill="#7d26b0"/><path d="M-1412.954,741.457a5.165,5.165,0,0,0,2.085.584c.035-.165.117-.316.137-.485a1.128,1.128,0,0,0-.028-.447,1.631,1.631,0,0,0-.577-.812,2.44,2.44,0,0,0-2.341-.417.535.535,0,0,0-.309.417c.006.156.025.633,1.032,1.16" transform="translate(1440.512 -661.312)" fill="#7d26b0"/><path d="M-1370.414,721.041c-2.182,2.819-2.461,3.189-2.469,3.374.081,0,.232,0,1.166-.868q.463-.433.906-.886a29.609,29.609,0,0,0,3.021-3.625q.574-.812,1.1-1.668c.56-.925.54-1.072.527-1.159-.166-.086-.706.477-1.467,1.352-.719.849-1.264,1.519-2.782,3.481" transform="translate(1422.046 -650.74)" fill="#7d26b0"/><path d="M-1394.021,737.143a25.3,25.3,0,0,0-2.493,1.506l0,.05c1.646.186,8.949-3.109,8.352-4.247-.1-.181-.56-.328-2.6.724-.963.524-1.092.605-3.253,1.968" transform="translate(1432.664 -658.881)" fill="#7d26b0"/><path d="M-1407.931,743.7a6.473,6.473,0,0,0,2.462-.321l0-.019a4.285,4.285,0,0,0-1.246.186,6.094,6.094,0,0,1-1.219.154" transform="translate(1437.792 -662.936)" fill="#7d26b0"/></g></g><g transform="matrix(0.951, 0.309, -0.309, 0.951, 391.393, 540.762)"><path d="M-224.783,307.006a25.217,25.217,0,0,0-6.216-7.54c-2.643-1.942-6.217-2.905-9.268-1.7-4.779,1.883-6.283,7.877-6.46,13.01a60.247,60.247,0,0,0,10.5,35.946,58.832,58.832,0,0,0-20.285-19.358c-3.1-1.776-6.794-3.3-10.166-2.114-3.751,1.318-5.721,5.723-5.378,9.686s2.495,7.526,4.844,10.734a75.409,75.409,0,0,0,27.622,23.107c4.559,2.226,9.439,4.008,14.506,4.226,6.531.281,13.094-2.324,16.37-8.195,3.02-5.415,1.344-9.225-.138-14.711C-212.961,334.871-216.482,320.694-224.783,307.006Z" fill="#a354d2"/><g transform="translate(-265.292 307.023)"><line x2="22.8" y2="54.843" transform="translate(27.422)" fill="none" stroke="#fff" stroke-miterlimit="10" stroke-width="1"/><line x2="38.206" y2="29.513" transform="translate(0.616 28.103)" fill="none" stroke="#fff" stroke-miterlimit="10" stroke-width="1"/><line x1="8.837" y1="9.22" transform="translate(23.57 2.773)" fill="none" stroke="#fff" stroke-miterlimit="10" stroke-width="0.75"/><line x1="1.701" y1="15.007" transform="translate(32.408 1.078)" fill="none" stroke="#fff" stroke-miterlimit="10" stroke-width="0.75"/><line x1="13.395" y1="10.479" transform="translate(23.57 12.478)" fill="none" stroke="#fff" stroke-miterlimit="10" stroke-width="0.75"/><line x1="0.766" y1="22.032" transform="translate(40.362 10.938)" fill="none" stroke="#fff" stroke-miterlimit="10" stroke-width="0.75"/><line x1="15.723" y1="13.086" transform="translate(30.268 31.581)" fill="none" stroke="#fff" stroke-miterlimit="10" stroke-width="0.75"/><path d="M-208.284,364.6c-.2-.471-.784-22.8-.784-22.8" transform="translate(257.287 -312.684)" fill="#a354d2" stroke="#fff" stroke-miterlimit="10" stroke-width="0.75"/><line x1="5.114" y1="11.358" transform="translate(3.543 22.957)" fill="none" stroke="#fff" stroke-miterlimit="10" stroke-width="0.75"/><line x1="12.753" y1="3.164" transform="translate(0 34.315)" fill="none" stroke="#fff" stroke-miterlimit="10" stroke-width="0.75"/><line x1="5.084" y1="12.973" transform="translate(14.635 29.887)" fill="none" stroke="#fff" stroke-miterlimit="10" stroke-width="0.75"/><line x1="15.687" y1="3.051" transform="translate(10.322 44.667)" fill="none" stroke="#fff" stroke-miterlimit="10" stroke-width="0.75"/><line x1="4.142" y1="10.459" transform="translate(29.116 42.86)" fill="none" stroke="#fff" stroke-miterlimit="10" stroke-width="0.75"/><line x1="14.684" y1="2.431" transform="translate(21.722 53.319)" fill="none" stroke="#fff" stroke-miterlimit="10" stroke-width="0.75"/></g></g></g></g></svg>