<svg xmlns="http://www.w3.org/2000/svg" xmlns:xlink="http://www.w3.org/1999/xlink" width="71.774" height="52.419" viewBox="0 0 71.774 52.419"><defs><style>.a{fill:url(#a);}.b{opacity:0.44;fill:url(#c);}.c{clip-path:url(#e);}.d{opacity:0.15;}.d,.i{mix-blend-mode:overlay;isolation:isolate;fill:url(#g);}.e{fill:#fff;}.f{opacity:0.26;fill:url(#h);}.g{fill:#8b5dd8;}.h{clip-path:url(#i);}.i{opacity:0.22;}</style><linearGradient id="a" x1="0.5" x2="0.5" y2="1" gradientUnits="objectBoundingBox"><stop offset="0" stop-color="#e484f0"/><stop offset="1" stop-color="#8a86fe"/></linearGradient><linearGradient id="c" x1="0.099" y1="0.094" x2="0.901" y2="0.752" gradientUnits="objectBoundingBox"><stop offset="0" stop-color="#ffbc39"/><stop offset="1" stop-color="#fd9800"/></linearGradient><clipPath id="e"><rect class="a" width="35.586" height="10.269" rx="5.134"/></clipPath><linearGradient id="g" x1="0.449" y1="0.414" x2="0.917" y2="0.963" gradientUnits="objectBoundingBox"><stop offset="0" stop-color="#fff"/><stop offset="0.072" stop-color="#fff" stop-opacity="0.875"/><stop offset="0.216" stop-color="#fff" stop-opacity="0.647"/><stop offset="0.359" stop-color="#fff" stop-opacity="0.447"/><stop offset="0.5" stop-color="#fff" stop-opacity="0.286"/><stop offset="0.636" stop-color="#fff" stop-opacity="0.161"/><stop offset="0.767" stop-color="#fff" stop-opacity="0.071"/><stop offset="0.891" stop-color="#fff" stop-opacity="0.02"/><stop offset="1" stop-color="#fff" stop-opacity="0"/></linearGradient><linearGradient id="h" x1="0.5" x2="0.5" y2="1" gradientUnits="objectBoundingBox"><stop offset="0" stop-color="#d255d9"/><stop offset="1" stop-color="#882cf3"/></linearGradient><clipPath id="i"><circle class="a" cx="12.517" cy="12.517" r="12.517"/></clipPath></defs><g transform="translate(-1295.213 -215.063)"><path class="b" d="M1333.892,252.143a18.2,18.2,0,0,1,18.205-18.205,27.533,27.533,0,0,1,7.291.525v-14.3a5.1,5.1,0,0,0-5.1-5.1h-4.9a.019.019,0,0,0-.019.019v6.3a6.594,6.594,0,0,1-6.339,6.673,6.442,6.442,0,0,1-6.545-6.441v-6.531a.019.019,0,0,0-.019-.019h-9.153a.019.019,0,0,0-.019.019v6.3a6.594,6.594,0,0,1-6.34,6.673,6.442,6.442,0,0,1-6.545-6.441v-6.531a.019.019,0,0,0-.019-.019h-6.531a5.1,5.1,0,0,0-5.1,5.1v40.494a5.1,5.1,0,0,0,5.1,5.1h32.169A18.157,18.157,0,0,1,1333.892,252.143Z" transform="translate(-3.27)"/><path class="b" d="M1333.892,252.143a18.207,18.207,0,0,1,25.5-16.682v-15.3a5.1,5.1,0,0,0-5.1-5.1h-4.9a.019.019,0,0,0-.019.019v6.3a6.594,6.594,0,0,1-6.339,6.673,6.442,6.442,0,0,1-6.545-6.441v-6.531a.019.019,0,0,0-.019-.019h-9.153a.019.019,0,0,0-.019.019v6.3a6.594,6.594,0,0,1-6.34,6.673,6.442,6.442,0,0,1-6.545-6.441v-6.531a.019.019,0,0,0-.019-.019h-6.531a5.1,5.1,0,0,0-5.1,5.1v40.494a5.1,5.1,0,0,0,5.1,5.1h32.169A18.157,18.157,0,0,1,1333.892,252.143Z" transform="translate(-0.448)"/><g class="c" transform="translate(1295.213 238.111)"><rect class="a" width="35.586" height="10.269" rx="5.134"/><path class="d" d="M20.274,0c11.2,0,20.274,7.815,20.274,17.456S31.47,34.911,20.274,34.911,0,27.1,0,17.456,9.077,0,20.274,0Z" transform="translate(4.373 -2.211) rotate(-3)"/></g><circle class="e" cx="2.903" cy="2.903" r="2.903" transform="translate(1301.965 240.567)"/><circle class="e" cx="2.903" cy="2.903" r="2.903" transform="translate(1310.43 240.567)"/><circle class="e" cx="2.903" cy="2.903" r="2.903" transform="translate(1318.895 240.567)"/><circle class="f" cx="15.338" cy="15.338" r="15.338" transform="translate(1336.31 236.805)"/><circle class="g" cx="12.517" cy="12.517" r="12.517" transform="translate(1340.073 239.627)"/><g class="h" transform="translate(1339.132 239.627)"><circle class="a" cx="12.517" cy="12.517" r="12.517"/><path class="i" d="M20.274,0c11.2,0,20.274,5.841,20.274,13.046S31.47,26.091,20.274,26.091,0,20.25,0,13.046,9.077,0,20.274,0Z" transform="translate(-2.717 12.732) rotate(-21)"/></g><path class="e" d="M5.348,11.932V7.817H1.232a1.234,1.234,0,1,1,0-2.469H5.348V1.233a1.234,1.234,0,1,1,2.469,0V5.348h4.115a1.234,1.234,0,1,1,0,2.469H7.817v4.116a1.234,1.234,0,0,1-2.469,0Z" transform="translate(1351.246 242.715) rotate(45)"/></g></svg>