<svg xmlns="http://www.w3.org/2000/svg" xmlns:xlink="http://www.w3.org/1999/xlink" width="561.004" height="495" viewBox="0 0 561.004 495"><defs><style>.a,.c,.i{fill:#fff;}.a{opacity:0.05;}.b{opacity:0.4;fill:url(#a);}.d{fill:#eb4c44;}.d,.e,.f,.g,.h,.i{fill-rule:evenodd;}.e{fill:#ef8b42;}.f{fill:#a42dba;}.g{fill:#7c35ca;}.h{fill:#eb4e27;}.j,.p{fill:none;}.j{stroke:#66f;stroke-width:8px;}.k{fill:#ffb92d;}.l{fill:#90aae8;}.m{fill:#ff4141;}.n{fill:#66f;}.o{stroke:none;}.q{filter:url(#d);}.r{filter:url(#b);}</style><linearGradient id="a" x1="0.5" x2="0.5" y2="1" gradientUnits="objectBoundingBox"><stop offset="0" stop-color="#ffd6f8"/><stop offset="1" stop-color="#bbd4ff"/></linearGradient><filter id="b" x="105.002" y="70.002" width="352" height="352" filterUnits="userSpaceOnUse"><feOffset input="SourceAlpha"/><feGaussianBlur stdDeviation="20" result="c"/><feFlood flood-color="#320053" flood-opacity="0.161"/><feComposite operator="in" in2="c"/><feComposite in="SourceGraphic"/></filter><filter id="d" x="461.002" y="371.002" width="82" height="82" filterUnits="userSpaceOnUse"><feOffset dy="3" input="SourceAlpha"/><feGaussianBlur stdDeviation="3" result="e"/><feFlood flood-opacity="0.161"/><feComposite operator="in" in2="e"/><feComposite in="SourceGraphic"/></filter></defs><g transform="translate(173.002 -4461.883)"><g transform="translate(-173 4427.682)"><path class="a" d="M15907.727,7856.2h-260.453a280.648,280.648,0,0,1-26.606-481.093c7.354-4.967,15.05-9.646,22.876-13.908h267.913c7.826,4.262,15.521,8.941,22.872,13.908a281.281,281.281,0,0,1,101.63,123.412,279.04,279.04,0,0,1,16.346,52.653,282.746,282.746,0,0,1-5.219,134.288,280.886,280.886,0,0,1-139.359,170.74h0Z" transform="translate(-15497 -7327)"/><g transform="translate(0 0)"><circle class="b" cx="194.5" cy="194.5" r="194.5" transform="translate(86 86.204)"/><g class="r" transform="matrix(1, 0, 0, 1, 0, 34.2)"><circle class="c" cx="116" cy="116" r="116" transform="translate(165 130)"/></g></g><g transform="translate(218.855 218.698)"><g transform="translate(0 0)"><path class="d" d="M115.416,9.34,10.32,114.951A29.947,29.947,0,0,1,.531,92.77V61.136L61.556-.188H93.48A29.937,29.937,0,0,1,115.416,9.34Z" transform="translate(-0.531 0.188)"/><path class="e" d="M.531,64.744V31.077A31.264,31.264,0,0,1,31.795-.187H65.151Z" transform="translate(-0.531 0.187)"/><path class="f" d="M129.684,186.4H96.045a29.914,29.914,0,0,1-21.077-8.649l105.1-105.612a29.923,29.923,0,0,1,8.9,21.332v33.357Z" transform="translate(-65.659 -63.094)"/><path class="g" d="M559.01,587.466h-30.8L590.274,525.1v31.1A31.264,31.264,0,0,1,559.01,587.466Z" transform="translate(-466.968 -464.16)"/></g><g transform="translate(25.666 21.826)"><path class="h" d="M294.982,284.973h-.144a3.8,3.8,0,0,1-3.775,3.527H228.749c-.1.009-.2.031-.3.031a3.5,3.5,0,0,1-2.992-1.694,3.748,3.748,0,0,1-.22-3.9,35.219,35.219,0,0,1,20.821-26.882,24.648,24.648,0,1,1,27.809,0,35.228,35.228,0,0,1,21.12,28.92Z" transform="translate(-224.79 -208.831)"/><path class="i" d="M296.982,269.358h-.031a3.9,3.9,0,0,1-3.882,3.624H229.037c-.114.011-.224.034-.34.034a3.613,3.613,0,0,1-3.333-2.221,3.868,3.868,0,0,1-.417-1.724,6.535,6.535,0,0,1,.191-1.769A36.5,36.5,0,0,1,246.8,239.631a25.342,25.342,0,1,1,28.591-.005A36.086,36.086,0,0,1,296.982,269.358Zm-17.795-50.652a18.1,18.1,0,1,0-18.1,18.106,18.1,18.1,0,0,0,18.1-18.106ZM262.641,244c-.513.031-1.028.052-1.548.052s-1.034-.021-1.545-.051a28.929,28.929,0,0,0-26.31,21.164h55.7A28.916,28.916,0,0,0,262.641,244Z" transform="translate(-224.924 -193.352)"/></g><path class="i" d="M761.815,124.009h-6.076v6.09H750.53v-6.09h-6.076v-5.22h6.076V112.7h5.208v6.09h6.076v5.22Z" transform="translate(-656.172 -98.583)"/></g></g><g transform="translate(-130.955 4453.274)"><g class="j" transform="translate(-0.045 285.611)"><ellipse class="o" cx="17.5" cy="18" rx="17.5" ry="18"/><ellipse class="p" cx="17.5" cy="18" rx="13.5" ry="14"/></g><ellipse class="k" cx="9.5" cy="10" rx="9.5" ry="10" transform="translate(319.955 387.611)"/><circle class="k" cx="7" cy="7" r="7" transform="translate(103.955 48.611)"/><circle class="l" cx="8.5" cy="8.5" r="8.5" transform="translate(465.955 138.611)"/></g><g transform="translate(296.662 4838.975)"><g class="q" transform="matrix(1, 0, 0, 1, -469.66, -377.09)"><circle class="c" cx="32" cy="32" r="32" transform="translate(470 377)"/></g><path class="m" d="M19.624,34.206a4.6,4.6,0,0,1-2.555-1.192C7.992,24.783,2,19.355,2,12.693A9.6,9.6,0,0,1,11.693,3a10.554,10.554,0,0,1,7.931,3.683A10.554,10.554,0,0,1,27.555,3a9.6,9.6,0,0,1,9.693,9.693c0,6.662-5.992,12.09-15.069,20.338A4.558,4.558,0,0,1,19.624,34.206Z" transform="translate(13.971 16.525)"/></g><g transform="translate(-156.54 4839.374)"><path class="n" d="M30.862,0A30.862,30.862,0,1,1,0,30.862,30.862,30.862,0,0,1,30.862,0Z" transform="translate(0)"/><path class="c" d="M23.164,16.665a6.333,6.333,0,1,0-6.333-6.333A6.331,6.331,0,0,0,23.164,16.665ZM8.916,13.5V8.749H5.749V13.5H1v3.166H5.749v4.749H8.916V16.665h4.749V13.5Zm14.248,6.333c-4.227,0-12.665,2.121-12.665,6.333V29.33h25.33V26.164C35.829,21.953,27.391,19.832,23.164,19.832Z" transform="translate(10.692 13.92)"/></g><g transform="translate(197.35 4502.904)"><path class="n" d="M49.586,0A49.586,49.586,0,1,1,0,49.586,49.586,49.586,0,0,1,49.586,0Z" transform="translate(0 0)"/><path class="c" d="M36.611,24.349A10.174,10.174,0,1,0,26.436,14.174,10.172,10.172,0,0,0,36.611,24.349ZM13.718,19.262V11.631H8.631v7.631H1v5.087H8.631V31.98h5.087V24.349h7.631V19.262ZM36.611,29.436c-6.791,0-20.349,3.408-20.349,10.174V44.7h40.7V39.61C56.959,32.845,43.4,29.436,36.611,29.436Z" transform="translate(17.785 24.792)"/></g></g></svg>