<svg xmlns="http://www.w3.org/2000/svg" xmlns:xlink="http://www.w3.org/1999/xlink" width="365.009" height="120.582" viewBox="0 0 365.009 120.582"><defs><style>.a{opacity:0.8;}.b{fill:#fff;}.c,.h{fill:#ffe591;}.c{stroke:rgba(0,0,0,0);stroke-miterlimit:10;}.d{fill:#a22330;}.e{fill:#446d5f;}.f{fill:#5b877c;}.g{fill:#8a1a2c;}.i{fill:#f3b869;}.j{fill:#e6cb75;}.k{fill:#9d6800;}.l{filter:url(#a);}</style><filter id="a" x="99.308" y="53.45" width="166.138" height="45.822" filterUnits="userSpaceOnUse"><feOffset dy="3" input="SourceAlpha"/><feGaussianBlur stdDeviation="3" result="b"/><feFlood flood-opacity="0.161"/><feComposite operator="in" in2="b"/><feComposite in="SourceGraphic"/></filter></defs><g transform="translate(-770 -117.418)"><g class="a" transform="translate(498.883 78.384)"><g transform="translate(555.118 90.392)"><path class="b" d="M599.71,106.308a8.368,8.368,0,0,0-1.353-.855c-.189-.1-.378-.2-.564-.316a7.43,7.43,0,0,1-1.678-1.381,6.513,6.513,0,0,1-.4-1.069c-.223-.836.344-2.609,1.462-1.64a1.444,1.444,0,0,1,.431,1.1.657.657,0,0,0,.053.359c.157.257.566.115.766-.11a2.063,2.063,0,0,0,.416-1.721,4.628,4.628,0,0,0-.73-1.667,4.3,4.3,0,0,0-1.1-1.241c-1.875-1.315-5-.074-6.753.946a1.744,1.744,0,0,1-1.32.367,1.48,1.48,0,0,1-.772-.785,10.028,10.028,0,0,1-1.044-2.836.857.857,0,0,1,.032-.609.905.905,0,0,1,.636-.337q1.161-.248,2.325-.5c.931-.2,2.109-.738,1.95-1.678s-1.459-1.061-2.361-.787a11.255,11.255,0,0,1-3.127.859c-1.088,0-2.3-.846-2.128-1.92.051-.333.227-.67.117-.986-.259-.745-1.487-.31-2.111-.793-.465-.361-.448-1.139-.936-1.472-.395-.269-1.012-.157-1.307-.535-.5-.636.615-1.564.276-2.3-1.241-.089-2.454-.424-3.7-.518a9.077,9.077,0,0,0-1.905.04c-.471.062-1.188.558-1.549.507a2.678,2.678,0,0,1-.543-.2,1.608,1.608,0,0,0-1.979.872.921.921,0,0,0-.011.755.522.522,0,0,0,.651.267.624.624,0,0,0,.439.9.836.836,0,0,0,.855-.609c.435,1.01.235,2.111,1.252,2.853a.8.8,0,0,0,1.067-.055c.365.66.342,1.519.732,2.143.352.558,1.3,1.15.836,1.907a1.222,1.222,0,0,1-1.591.2,4.642,4.642,0,0,1-1.235-1.771,8.4,8.4,0,0,0-4.644-3.67,17.807,17.807,0,0,0-5.968-.81c-.465,0-1.008-.03-1.269-.414a1.338,1.338,0,0,1-.106-.95,5.92,5.92,0,0,0,.129-1.937,1.537,1.537,0,0,0-1.233-1.328c-.649-.053-1.26.759-.874,1.281-.588-.456-1.093.73-1.784,1.008-.356.144-.793.021-1.124.221-.649.386-.187,1.43.462,1.814s1.506.624,1.761,1.334a2.582,2.582,0,0,1-.2,1.606,7.916,7.916,0,0,0,2.811,8.509l-.329.35a4.332,4.332,0,0,0-6.059.424,1.047,1.047,0,0,0-.271.545,1.1,1.1,0,0,0,.594.91c1.657,1.133,3.974,1.207,5.344,2.677s1.264,3.761,2,5.639a8.618,8.618,0,0,0,6.28,4.854,13.848,13.848,0,0,0,2.017.295c.049.709.146,1.4.246,2.088.076.537.146,1.05.2,1.557l-5.654.861a3.373,3.373,0,0,1-2.094-.087.79.79,0,0,1-.337-.6c0-.019,0-.123.034-.148a.894.894,0,0,0-1-1.485,1.908,1.908,0,0,0-.825,1.693,2.548,2.548,0,0,0,1.23,2.09,3.679,3.679,0,0,0,1.875.441,9.629,9.629,0,0,0,1.383-.136l14.1-2.145c4.005-.611,8.11-1.237,12.158-2.151a.9.9,0,0,0,.312.057,1.04,1.04,0,0,0,.178-.019.88.88,0,0,0,.441-.259c1.1-.261,2.2-.541,3.286-.855a8.121,8.121,0,0,0,2.641-1.154,4.744,4.744,0,0,0,.182-7.493Zm-8.7,5.3a26.338,26.338,0,0,1,.855,2.764c-2.59.573-5.208,1.033-7.811,1.449q-.223-1.524-.524-3.034C586.018,112.386,588.508,111.981,591.007,111.609Zm-10.766,4.8-6.676,1.016c-.055-.524-.121-1.042-.193-1.547-.091-.613-.176-1.207-.225-1.791a39.43,39.43,0,0,0,4.411-.4c1.4-.189,2.8-.4,4.2-.619q.305,1.505.526,3.027Zm18.223-4.052a6.515,6.515,0,0,1-2.075.874c-.921.267-1.852.5-2.788.734a27.327,27.327,0,0,0-.791-2.618c.235-.032.469-.072.7-.1a6.748,6.748,0,0,0,1.873-.433c1.5-.673,1.905-2.145,1.905-3.636,0-.1-.015-.187-.019-.282.076.042.151.087.227.129a6.794,6.794,0,0,1,1.076.668,2.953,2.953,0,0,1-.113,4.665Z" transform="translate(-555.118 -82.581)"/></g><g transform="translate(603.151 75.616)"><path class="b" d="M610.7,87.785c-.214-.785-1.25-.887-2.047-1.048a7.339,7.339,0,0,1-2.792-1.636c-.811-.556-1.29-1.018-.641-2.1a11.678,11.678,0,0,1,1.409-1.566,4.988,4.988,0,0,0,.914-1.494,1.428,1.428,0,0,0,.015-1.294q-1.139,1.391-2.274,2.781a20,20,0,0,0,.286-5.223c-.03-.244-.119-.543-.361-.586-.291-.051-.469.3-.537.59a24.048,24.048,0,0,0-.427,5.27c-.369-.6-.9-1.084-1.3-1.648-.223-.31-1.073-.785-1.173-.049a.614.614,0,0,0,.144.4q.71,1.069,1.5,2.085a.74.74,0,0,1,.112.178.64.64,0,0,1,.036.229,5.559,5.559,0,0,1-.119,1.364.2.2,0,0,1-.227.2,3.237,3.237,0,0,1-1.886-.106A2.133,2.133,0,0,1,600.27,82.7c-.235-1.328.8-2.671.456-3.974a13.987,13.987,0,0,0-1.667,3.4q-1.588-1.766-3.326-3.392c-.276-.257-.662-.528-.993-.35a9.322,9.322,0,0,0,2.794,4.126l-2.23.068c-.255.008-.615.187-.479.405a.362.362,0,0,0,.3.121c1.04.049,2.132-.293,3.089.112,3.314,1.4,3.142,4.71,2.438,7.739-.636,2.735-2.883,3.621-5.433,3.57-2.866-.057-5.9-.6-8.634.535a18.882,18.882,0,0,1-2.957,1.277,2.437,2.437,0,0,1-2.788-1.052c-.378,2.889,2.266,4.708,1.922,7.707a4.766,4.766,0,0,1-2.429,3.727,3.254,3.254,0,0,0-1.345.851c-.46.668-.1,1.566,0,2.372a7.213,7.213,0,0,1-.611,3.237,6.927,6.927,0,0,0-.581,3.239,2.4,2.4,0,0,0,2.138,2.17,5.619,5.619,0,0,1-.721-4.733,12.938,12.938,0,0,1,2.306-4.347q1.095-1.483,2.325-2.853c.811-.9,1.854-1.839,3.057-1.687a.626.626,0,0,1,.361.138.712.712,0,0,1,.1.664,6.27,6.27,0,0,1-.8,2.032c-.469.766-1.133,1.547-.993,2.433a2.783,2.783,0,0,0,.384.931,35.6,35.6,0,0,0,3.77,5.4c.416-.579-.136-1.337-.59-1.888a8.3,8.3,0,0,1-1.7-3.549,2.337,2.337,0,0,1-.019-1.135,2.73,2.73,0,0,1,.588-.927q1.6-1.9,3.206-3.8c.677-.8,1.09-1.737,2.109-2.062a10.843,10.843,0,0,1,4.23-.235c.95.085,2.866-.11,3.3,1.025a2.574,2.574,0,0,1,.091,1.035l-.325,6.577a7.364,7.364,0,0,0,.231,2.845,2.5,2.5,0,0,0,2.058,1.761,16.007,16.007,0,0,1-.923-10.27,3.3,3.3,0,0,1,.6-1.37,3.057,3.057,0,0,1,1.994-.885,8.836,8.836,0,0,1,3.006.123q-.506,3.217-1.014,6.432c1.148-1.1.989-2.953,1.549-4.44.369-.976,1.078-1.878,1.035-2.919a.545.545,0,0,0-.081-.3.6.6,0,0,0-.3-.185c-.573-.21-2.34-.526-2.569-1.135s.8-1.74,1.016-2.289a6.86,6.86,0,0,0-.184-5.567,12.115,12.115,0,0,1-.806-1.621,1.869,1.869,0,0,1,.184-1.729,2.207,2.207,0,0,1,1.627-.656,5.906,5.906,0,0,0,1.786-.223A1.284,1.284,0,0,0,610.7,87.785Z" transform="translate(-577.759 -75.616)"/></g></g><g class="a" transform="translate(770 154)"><g transform="translate(34.672 14.776)"><path class="b" d="M556.863,106.308a8.368,8.368,0,0,1,1.353-.855c.189-.1.378-.2.564-.316a7.429,7.429,0,0,0,1.678-1.381,6.513,6.513,0,0,0,.4-1.069c.223-.836-.344-2.609-1.462-1.64a1.443,1.443,0,0,0-.431,1.1.657.657,0,0,1-.053.359c-.157.257-.566.115-.766-.11a2.063,2.063,0,0,1-.416-1.721,4.628,4.628,0,0,1,.73-1.667,4.3,4.3,0,0,1,1.1-1.241c1.875-1.315,5-.074,6.753.946a1.744,1.744,0,0,0,1.32.367,1.48,1.48,0,0,0,.772-.785,10.028,10.028,0,0,0,1.044-2.836.857.857,0,0,0-.032-.609.905.905,0,0,0-.636-.337q-1.161-.248-2.325-.5c-.931-.2-2.109-.738-1.95-1.678s1.459-1.061,2.361-.787a11.256,11.256,0,0,0,3.127.859c1.088,0,2.3-.846,2.128-1.92-.051-.333-.227-.67-.117-.986.259-.745,1.487-.31,2.111-.793.465-.361.448-1.139.936-1.472.395-.269,1.012-.157,1.307-.535.5-.636-.615-1.564-.276-2.3,1.241-.089,2.454-.424,3.7-.518a9.077,9.077,0,0,1,1.905.04c.471.062,1.188.558,1.549.507a2.68,2.68,0,0,0,.543-.2,1.608,1.608,0,0,1,1.979.872.921.921,0,0,1,.011.755.522.522,0,0,1-.651.267.624.624,0,0,1-.439.9.836.836,0,0,1-.855-.609c-.435,1.01-.235,2.111-1.252,2.853a.8.8,0,0,1-1.067-.055c-.365.66-.342,1.519-.732,2.143-.352.558-1.3,1.15-.836,1.907a1.222,1.222,0,0,0,1.591.2,4.642,4.642,0,0,0,1.235-1.771,8.406,8.406,0,0,1,4.644-3.67,17.807,17.807,0,0,1,5.968-.81c.465,0,1.008-.03,1.269-.414a1.338,1.338,0,0,0,.106-.95,5.92,5.92,0,0,1-.129-1.937,1.537,1.537,0,0,1,1.233-1.328c.649-.053,1.26.759.874,1.281.588-.456,1.093.73,1.784,1.008.356.144.793.021,1.124.221.649.386.187,1.43-.462,1.814s-1.506.624-1.761,1.334a2.582,2.582,0,0,0,.2,1.606,7.916,7.916,0,0,1-2.811,8.509l.329.35a4.333,4.333,0,0,1,6.059.424,1.047,1.047,0,0,1,.271.545,1.1,1.1,0,0,1-.594.91c-1.657,1.133-3.974,1.207-5.344,2.677s-1.264,3.761-2,5.639a8.618,8.618,0,0,1-6.28,4.854,13.848,13.848,0,0,1-2.017.295c-.049.709-.146,1.4-.246,2.088-.076.537-.146,1.05-.2,1.557l5.654.861a3.373,3.373,0,0,0,2.094-.087.79.79,0,0,0,.337-.6c0-.019,0-.123-.034-.148a.894.894,0,0,1,1-1.485,1.908,1.908,0,0,1,.825,1.693,2.548,2.548,0,0,1-1.23,2.09,3.679,3.679,0,0,1-1.875.441,9.629,9.629,0,0,1-1.383-.136l-14.1-2.145c-4.005-.611-8.11-1.237-12.158-2.151a.9.9,0,0,1-.312.057,1.04,1.04,0,0,1-.178-.019.88.88,0,0,1-.441-.259c-1.1-.261-2.2-.541-3.286-.855a8.121,8.121,0,0,1-2.641-1.154,4.744,4.744,0,0,1-.182-7.493Zm8.7,5.3a26.338,26.338,0,0,0-.855,2.764c2.59.573,5.208,1.033,7.811,1.449q.223-1.524.524-3.034C570.555,112.386,568.064,111.981,565.565,111.609Zm10.767,4.8,6.676,1.016c.055-.524.121-1.042.193-1.547.091-.613.176-1.207.225-1.791a39.43,39.43,0,0,1-4.411-.4c-1.4-.189-2.8-.4-4.2-.619q-.305,1.505-.526,3.027Zm-18.224-4.052a6.515,6.515,0,0,0,2.075.874c.921.267,1.852.5,2.788.734a27.327,27.327,0,0,1,.791-2.618c-.235-.032-.469-.072-.7-.1a6.748,6.748,0,0,1-1.873-.433c-1.5-.673-1.905-2.145-1.905-3.636,0-.1.015-.187.019-.282-.076.042-.151.087-.227.129A6.794,6.794,0,0,0,558,107.7a2.953,2.953,0,0,0,.113,4.665Z" transform="translate(-555.118 -82.581)"/></g><g transform="translate(0 0)"><path class="b" d="M577.79,87.785c.214-.785,1.25-.887,2.047-1.048a7.339,7.339,0,0,0,2.792-1.636c.811-.556,1.29-1.018.641-2.1a11.683,11.683,0,0,0-1.409-1.566,4.988,4.988,0,0,1-.914-1.494,1.428,1.428,0,0,1-.015-1.294q1.139,1.391,2.274,2.781a20,20,0,0,1-.286-5.223c.03-.244.119-.543.361-.586.291-.051.469.3.537.59a24.048,24.048,0,0,1,.427,5.27c.369-.6.9-1.084,1.3-1.648.223-.31,1.073-.785,1.173-.049a.614.614,0,0,1-.144.4q-.71,1.069-1.5,2.085a.74.74,0,0,0-.112.178.64.64,0,0,0-.036.229,5.559,5.559,0,0,0,.119,1.364.2.2,0,0,0,.227.2,3.237,3.237,0,0,0,1.886-.106,2.133,2.133,0,0,0,1.065-1.436c.235-1.328-.8-2.671-.456-3.974a13.987,13.987,0,0,1,1.667,3.4q1.588-1.766,3.326-3.392c.276-.257.662-.528.993-.35a9.322,9.322,0,0,1-2.794,4.126l2.23.068c.255.008.615.187.479.405a.362.362,0,0,1-.3.121c-1.04.049-2.132-.293-3.089.112-3.314,1.4-3.142,4.71-2.438,7.739.636,2.735,2.883,3.621,5.433,3.57,2.866-.057,5.9-.6,8.634.535a18.882,18.882,0,0,0,2.957,1.277,2.437,2.437,0,0,0,2.788-1.052c.378,2.889-2.266,4.708-1.922,7.707a4.766,4.766,0,0,0,2.429,3.727,3.254,3.254,0,0,1,1.345.851c.46.668.1,1.566,0,2.372a7.213,7.213,0,0,0,.611,3.237,6.927,6.927,0,0,1,.581,3.239,2.4,2.4,0,0,1-2.138,2.17,5.619,5.619,0,0,0,.721-4.733,12.937,12.937,0,0,0-2.306-4.347q-1.095-1.483-2.325-2.853c-.811-.9-1.854-1.839-3.057-1.687a.626.626,0,0,0-.361.138.712.712,0,0,0-.1.664,6.27,6.27,0,0,0,.8,2.032c.469.766,1.133,1.547.993,2.433a2.783,2.783,0,0,1-.384.931,35.6,35.6,0,0,1-3.77,5.4c-.416-.579.136-1.337.59-1.888a8.3,8.3,0,0,0,1.7-3.549,2.337,2.337,0,0,0,.019-1.135,2.73,2.73,0,0,0-.588-.927q-1.6-1.9-3.206-3.8c-.677-.8-1.09-1.737-2.109-2.062a10.844,10.844,0,0,0-4.23-.235c-.95.085-2.866-.11-3.3,1.025a2.574,2.574,0,0,0-.091,1.035l.325,6.577a7.364,7.364,0,0,1-.231,2.845,2.5,2.5,0,0,1-2.058,1.761,16.007,16.007,0,0,0,.923-10.27,3.3,3.3,0,0,0-.6-1.37,3.057,3.057,0,0,0-1.994-.885,8.837,8.837,0,0,0-3.006.123q.506,3.217,1.014,6.432c-1.148-1.1-.989-2.953-1.549-4.44-.369-.976-1.078-1.878-1.035-2.919a.545.545,0,0,1,.081-.3.6.6,0,0,1,.3-.185c.573-.21,2.34-.526,2.569-1.135s-.8-1.74-1.016-2.289a6.86,6.86,0,0,1,.184-5.567,12.115,12.115,0,0,0,.806-1.621,1.869,1.869,0,0,0-.184-1.729,2.207,2.207,0,0,0-1.627-.656,5.906,5.906,0,0,1-1.786-.223A1.284,1.284,0,0,1,577.79,87.785Z" transform="translate(-577.759 -75.616)"/></g></g><g transform="translate(608.854 41.92)"><g transform="translate(269.953 135.447)"><g class="l" transform="matrix(1, 0, 0, 1, -108.81, -59.95)"><path class="c" d="M-10952.456-5444.678q-1.018-.217-1.528-.351a9.277,9.277,0,0,1-3.242-1.428,5.63,5.63,0,0,1-1.706-1.909,3.742,3.742,0,0,1-.415-2.038,3.632,3.632,0,0,1,.623-1.792,3.294,3.294,0,0,1,1.423-1.155,3.029,3.029,0,0,1,1.99-.122,3.173,3.173,0,0,1,1.709.874,1.618,1.618,0,0,1,.442,1.113,1.337,1.337,0,0,1-.423.93.943.943,0,0,1-.857.3c-.114-.025-.176-.081-.184-.153-.164-.326-.367-.5-.607-.526a.855.855,0,0,0-.668.225,1.541,1.541,0,0,0-.456.724,1.52,1.52,0,0,0,.03.991,2.372,2.372,0,0,0,.776,1.013,4.7,4.7,0,0,0,1.8.8,3.108,3.108,0,0,0,1.244.095,2.4,2.4,0,0,0,.96-.354,2.507,2.507,0,0,0,.674-.643,2.519,2.519,0,0,0,.379-.776,3.337,3.337,0,0,0-.081-2.193,6.319,6.319,0,0,0-1.186-1.834,15.193,15.193,0,0,0-1.765-1.634,21.817,21.817,0,0,1-1.793-1.589,6.813,6.813,0,0,1-1.27-1.712,2.872,2.872,0,0,1-.205-2.023,3.609,3.609,0,0,1,1.483-2.372,5.289,5.289,0,0,1,2.341-.8,8.334,8.334,0,0,1,2.371.1q1.115.212,1.554.331a12.95,12.95,0,0,1,2.881,1.077,6.358,6.358,0,0,1,1.7,1.267,2.953,2.953,0,0,1,.727,1.3,2.532,2.532,0,0,1-.028,1.252,3.039,3.039,0,0,1-.564,1.083,2.566,2.566,0,0,1-.922.727,2.3,2.3,0,0,1-1.116.206,2.094,2.094,0,0,1-1.127-.44.4.4,0,0,1-.187-.3.35.35,0,0,1,.2-.306,2.121,2.121,0,0,0,.922-.966,1.353,1.353,0,0,0,0-1.1,2.613,2.613,0,0,0-.937-1.047,5.658,5.658,0,0,0-1.829-.793,4.549,4.549,0,0,0-1.464-.184,2.785,2.785,0,0,0-.964.217,1.527,1.527,0,0,0-.57.426,1.271,1.271,0,0,0-.25.457,2.069,2.069,0,0,0,.339,1.765,9.132,9.132,0,0,0,1.522,1.645q.945.818,2.041,1.709a12.172,12.172,0,0,1,1.887,1.907,5.619,5.619,0,0,1,1.077,2.216,4.2,4.2,0,0,1-.334,2.641,5,5,0,0,1-1.9,2.408,5.846,5.846,0,0,1-2.311.824,7.557,7.557,0,0,1-.9.056A6.087,6.087,0,0,1-10952.456-5444.678Zm-131.518-.729a7.718,7.718,0,0,1-3.02-1.245,8.466,8.466,0,0,1-2.228-2.3,9.577,9.577,0,0,1-1.3-3,10.1,10.1,0,0,1-.244-3.3,8.752,8.752,0,0,1,.913-3.192,8.43,8.43,0,0,1,2.165-2.678,8.879,8.879,0,0,1,3.529-1.712,4.821,4.821,0,0,1,1.258-.173,7.681,7.681,0,0,1,3.44.93,4.423,4.423,0,0,1,1.938,1.979,3.839,3.839,0,0,1-.606,3.894,4.017,4.017,0,0,1-2.1,1.13,3.485,3.485,0,0,1-2.408-.053,2.114,2.114,0,0,1-1.1-1.183,2.053,2.053,0,0,1,.07-1.5,1.609,1.609,0,0,1,1.149-.972.884.884,0,0,1,.868.1c.17.172.187.337.045.49a.519.519,0,0,0-.075.3.716.716,0,0,0,.105.348.675.675,0,0,0,.295.267.69.69,0,0,0,.481.022,1.025,1.025,0,0,0,.743-.84,2.378,2.378,0,0,0-.1-1.42,2.291,2.291,0,0,0-1.075-1.18,2.9,2.9,0,0,0-2.185-.117,3.615,3.615,0,0,0-2.288,1.609,6.326,6.326,0,0,0-.9,2.806,10.212,10.212,0,0,0,.239,3.271,9.978,9.978,0,0,0,1.194,3.012,6.264,6.264,0,0,0,1.926,2.046,2.925,2.925,0,0,0,2.422.39,3.237,3.237,0,0,0,1.918-1.144,3.246,3.246,0,0,0,.643-1.584,2.132,2.132,0,0,0-.292-1.353.787.787,0,0,0-.889-.443.4.4,0,0,1-.439-.125.554.554,0,0,1-.117-.47,1.1,1.1,0,0,1,.359-.587,2.171,2.171,0,0,1,1.021-.479,2.386,2.386,0,0,1,1.723.175,2.968,2.968,0,0,1,1.2,1.164,3.768,3.768,0,0,1,.462,1.773,4.052,4.052,0,0,1-.451,1.99,5.435,5.435,0,0,1-1.586,1.82,7.982,7.982,0,0,1-2.948,1.322,9.659,9.659,0,0,1-2.4.326A7.089,7.089,0,0,1-11083.974-5445.407Zm122.224-1.837c-2.407-.548-3.61-.8-6.026-1.292-.069-.014-.108-.083-.119-.2s.056-.187.2-.206a1.011,1.011,0,0,0,.612-.457,2.315,2.315,0,0,0,.272-.793,4.233,4.233,0,0,0,.048-.946c-.02-.32-.036-.624-.053-.91-2.055-1.139-3.093-1.7-5.188-2.789-.648,1.091-.972,1.639-1.609,2.736a2.153,2.153,0,0,0-.239.854,1.8,1.8,0,0,0,.069.61,1.376,1.376,0,0,0,.215.409,1.26,1.26,0,0,0,.2.208.232.232,0,0,1,.092.281c-.039.1-.095.142-.164.128-1.814-.323-2.722-.476-4.54-.765a.166.166,0,0,1-.152-.165c-.009-.095.063-.175.217-.245a2.78,2.78,0,0,1,.34-.12,2.478,2.478,0,0,0,.522-.25,3.706,3.706,0,0,0,.663-.54,4.467,4.467,0,0,0,.727-1.038c2.794-5,4.239-7.476,7.229-12.4.131-.306.134-.526.008-.668s-.239-.292-.342-.415c-.114-.142-.164-.253-.111-.34a.184.184,0,0,1,.191-.1c.3.053.445.081.741.137,2.04.381,3.059.584,5.1,1a.177.177,0,0,1,.156.175c.006.094-.081.184-.248.264a2.173,2.173,0,0,0-.512.337c-.111.108-.142.356-.095.74.409,5.514.576,8.27.835,13.772a6.472,6.472,0,0,0,.236,1.222,3.879,3.879,0,0,0,.313.727,2.086,2.086,0,0,0,.289.4c.086.089.161.165.22.226.117.123.147.223.092.306a.19.19,0,0,1-.154.1A.15.15,0,0,1-10961.75-5447.244Zm-9.121-9.575c1.572.824,2.352,1.241,3.9,2.087-.217-3.037-.334-4.557-.6-7.6C-10968.909-5460.131-10969.568-5459.029-10970.871-5456.819Zm-101.328,9.138c-.067-.089-.031-.214.108-.326a1.662,1.662,0,0,0,.42-.551,2.183,2.183,0,0,0,0-1.347c-1.169-5.386-1.753-8.078-2.922-13.466a.937.937,0,0,0-.484-.727c-.242-.1-.448-.192-.618-.273s-.251-.167-.234-.267a.193.193,0,0,1,.137-.173c.34-.072.507-.111.847-.184,1.694-.367,2.541-.545,4.238-.885l.85-.167a.176.176,0,0,1,.211.1c.042.086-.011.2-.122.342a5.651,5.651,0,0,1-.439.493.9.9,0,0,0-.17.863c.5,2.5.749,3.75,1.25,6.246,2.1.2,3.14.314,5.219.56-.56-3.109-.841-4.662-1.4-7.769a.894.894,0,0,0-.476-.74,6.371,6.371,0,0,1-.588-.3c-.155-.089-.247-.176-.242-.273a.175.175,0,0,1,.162-.17c.34-.061.509-.095.852-.156,1.7-.306,2.553-.454,4.259-.732l.854-.139a.181.181,0,0,1,.187.111q.079.125-.117.334c-.128.136-.286.3-.473.479a.934.934,0,0,0-.182.854c.891,5.439,1.336,8.159,2.229,13.6a2.183,2.183,0,0,0,.49,1.252,1.7,1.7,0,0,0,.593.362c.17.05.251.15.22.261s-.078.17-.147.181l-.8.131c-1.6.262-2.394.4-3.983.685l-.8.145a.2.2,0,0,1-.217-.117c-.056-.1-.009-.22.137-.326a1.7,1.7,0,0,0,.439-.537,2.2,2.2,0,0,0,.042-1.344c-.248-1.378-.37-2.065-.621-3.443-2.062-.259-3.1-.381-5.18-.6.4,1.981.6,2.973.993,4.954a2.189,2.189,0,0,0,.537,1.236,1.7,1.7,0,0,0,.6.34c.173.044.262.142.248.25a.2.2,0,0,1-.162.189c-.314.064-.476.094-.793.159-1.587.317-2.377.484-3.961.827-.317.069-.476.1-.79.172a.144.144,0,0,1-.031,0A.236.236,0,0,1-11072.2-5447.681Zm91.854-3.025-.8-.12c-1.6-.234-2.4-.342-4-.551-.32-.042-.481-.061-.8-.1-.095-.011-.15-.078-.17-.195s.066-.2.226-.253a1.807,1.807,0,0,0,.584-.412,2.209,2.209,0,0,0,.448-1.27c.471-3.613.7-5.417,1.175-9.029-1.2,1.255-1.79,1.884-2.962,3.154a6.092,6.092,0,0,1,.025,1.294,2.738,2.738,0,0,1-.468,1.319,2.5,2.5,0,0,1-.844.754,2.828,2.828,0,0,1-.971.326c-.326.044-.612.053-.813.067a.262.262,0,0,1-.239-.1.27.27,0,0,1-.008-.245,2.717,2.717,0,0,0,.247-1.47,5.4,5.4,0,0,0-.515-1.762,16.172,16.172,0,0,0-1.169-2.054q-.731-1.1-1.64-2.369c-.342,3.641-.512,5.461-.854,9.1a2.19,2.19,0,0,0,.159,1.336,1.81,1.81,0,0,0,.479.535c.142.086.206.181.147.292s-.122.162-.192.153l-.8-.075c-1.088-.1-1.634-.15-2.722-.242l-.8-.064c-.069-.006-.125-.067-.161-.187s.042-.2.2-.262a1.874,1.874,0,0,0,.565-.44,2.217,2.217,0,0,0,.387-1.289c.456-5.495.685-8.239,1.139-13.733a.882.882,0,0,0-.251-.8c-.2-.167-.367-.312-.509-.44s-.189-.236-.143-.326a.184.184,0,0,1,.179-.125l.859.069c.838.07,1.256.106,2.091.184l.821.075c.793.075,1.188.114,1.979.195a1.593,1.593,0,0,0-.161.852,5.787,5.787,0,0,0,.181.994,4.191,4.191,0,0,0,.638,1.247c.412.6.79,1.258,1.152,1.9a17.754,17.754,0,0,1,.946,1.954c2.294-2.4,3.463-3.588,5.854-5.937.641.086.96.128,1.6.217.271.039.4.058.671.094l1,.145c.34.05.512.078.852.128a.184.184,0,0,1,.147.162c.022.1-.047.192-.211.284s-.365.195-.6.314a.885.885,0,0,0-.426.724c-.8,5.453-1.2,8.181-2,13.633a2.212,2.212,0,0,0,.089,1.345,1.94,1.94,0,0,0,.451.557c.137.095.2.192.134.3s-.119.146-.182.146Zm-74.983-.142c-.064-.1,0-.189.134-.284a1.8,1.8,0,0,0,.45-.557,2.2,2.2,0,0,0,.09-1.345c-.8-5.453-1.2-8.178-2-13.633a.883.883,0,0,0-.429-.721c-.233-.12-.431-.223-.6-.314s-.237-.187-.212-.284.072-.15.145-.161c.343-.053.516-.078.857-.128,2.911-.429,4.37-.621,7.293-.968a6.477,6.477,0,0,1,3.242.328,4.949,4.949,0,0,1,2.091,1.542,4.586,4.586,0,0,1,.907,2.241,5.7,5.7,0,0,1-.22,2.458,5.837,5.837,0,0,1-1.292,2.2,5.447,5.447,0,0,1-2.346,1.478c.089.15.187.309.289.47a5.033,5.033,0,0,1,.295.543,4.281,4.281,0,0,0,1.158,1.492,15.118,15.118,0,0,0,2.383.949,1.791,1.791,0,0,1,1.041,1.534,1.093,1.093,0,0,1-.042.518,1.458,1.458,0,0,1-.256.384,2.409,2.409,0,0,1-2.032,1,3.3,3.3,0,0,1-1.807-.217,3.13,3.13,0,0,1-1.136-.932,5.557,5.557,0,0,1-.731-1.361c-.192-.512-.385-1.016-.576-1.517a7.681,7.681,0,0,0-.693-1.38,2.719,2.719,0,0,0-1.063-.966l-.821.105c.248,1.91.373,2.864.621,4.774a2.184,2.184,0,0,0,.451,1.269,1.825,1.825,0,0,0,.584.412c.159.056.239.128.206.236s-.083.167-.153.176c-2.257.287-3.382.442-5.634.782h-.017C-11055.215-5450.72-11055.273-5450.762-11055.329-5450.849Zm4.59-16.305c-.638.078-.955.12-1.59.2.346,2.65.519,3.975.863,6.625.549-.07.821-.106,1.369-.172a3.343,3.343,0,0,0,1.779-.724,3.467,3.467,0,0,0,1.019-1.355,3.72,3.72,0,0,0,.275-1.65,3.267,3.267,0,0,0-.454-1.567,2.862,2.862,0,0,0-1.244-1.1,3.219,3.219,0,0,0-1.422-.3A4.8,4.8,0,0,0-11050.739-5467.154Zm11.615,14.413c-.056-.114.009-.206.15-.292a1.814,1.814,0,0,0,.487-.526,2.2,2.2,0,0,0,.172-1.336c-.447-5.495-.67-8.239-1.118-13.734a.891.891,0,0,0-.379-.751c-.223-.131-.415-.248-.573-.351s-.223-.2-.2-.295.081-.147.156-.153c.345-.03.518-.042.86-.072,1.733-.139,2.6-.2,4.336-.317l.86-.056c.075,0,.128.042.159.131a.324.324,0,0,1-.131.32c-.131.125-.314.267-.516.431a.9.9,0,0,0-.267.8c.358,5.5.537,8.25.9,13.753a2.192,2.192,0,0,0,.368,1.294,1.785,1.785,0,0,0,.554.448c.156.067.233.15.194.267s-.094.178-.167.184l-.8.05c-1.623.106-2.434.167-4.056.3-.32.025-.481.039-.8.067h-.01C-11039.011-5452.585-11039.071-5452.638-11039.124-5452.741Zm11.12-.841a5.6,5.6,0,0,1-2.157-1.358,3.741,3.741,0,0,1-.963-1.842,3.7,3.7,0,0,1,.1-1.893,3.3,3.3,0,0,1,1.038-1.508,3.013,3.013,0,0,1,1.862-.671,3.147,3.147,0,0,1,1.873.365,1.621,1.621,0,0,1,.729.946,1.349,1.349,0,0,1-.147,1.01.936.936,0,0,1-.734.526c-.114.009-.189-.028-.215-.1a.816.816,0,0,0-.729-.337.859.859,0,0,0-.573.4,1.6,1.6,0,0,0-.233.824,1.537,1.537,0,0,0,.306.941,2.335,2.335,0,0,0,1.02.757,4.641,4.641,0,0,0,1.932.268,3.114,3.114,0,0,0,1.213-.256,2.391,2.391,0,0,0,.818-.607,2.547,2.547,0,0,0,.46-.807,2.38,2.38,0,0,0,.145-.849,3.33,3.33,0,0,0-.682-2.082,6.246,6.246,0,0,0-1.637-1.434,15.007,15.007,0,0,0-2.133-1.077,21.478,21.478,0,0,1-2.148-1.027,6.66,6.66,0,0,1-1.687-1.292,2.882,2.882,0,0,1-.758-1.887,3.61,3.61,0,0,1,.758-2.688,5.248,5.248,0,0,1,2.012-1.422,8.2,8.2,0,0,1,2.285-.568c.746-.07,1.272-.106,1.573-.114a12.768,12.768,0,0,1,3.039.231,6.322,6.322,0,0,1,1.974.741,2.934,2.934,0,0,1,1.05,1.052,2.539,2.539,0,0,1,.319,1.211,3.122,3.122,0,0,1-.236,1.194,2.582,2.582,0,0,1-.679.955,2.223,2.223,0,0,1-1,.509,2.083,2.083,0,0,1-1.194-.105.413.413,0,0,1-.259-.24.344.344,0,0,1,.105-.348,2.143,2.143,0,0,0,.607-1.186,1.351,1.351,0,0,0-.307-1.052,2.572,2.572,0,0,0-1.183-.743,5.59,5.59,0,0,0-1.96-.251,4.54,4.54,0,0,0-1.444.229,2.782,2.782,0,0,0-.86.479,1.562,1.562,0,0,0-.426.571,1.288,1.288,0,0,0-.111.506,2.077,2.077,0,0,0,.813,1.6,8.811,8.811,0,0,0,1.907,1.155c.751.351,1.559.71,2.413,1.075a12.081,12.081,0,0,1,2.327,1.305,5.588,5.588,0,0,1,1.634,1.826,4.248,4.248,0,0,1,.414,2.63,5.038,5.038,0,0,1-1.144,2.842,5.761,5.761,0,0,1-1.974,1.436,6.475,6.475,0,0,1-2.109.538q-1.031.075-1.554.092c-.133,0-.265,0-.394,0A8.7,8.7,0,0,1-11028-5453.582Zm23.008.381c-.323-.014-.484-.022-.8-.039-1.608-.075-2.413-.105-4.024-.156-.323-.011-.484-.017-.8-.025-.069,0-.128-.056-.173-.159s.031-.187.184-.256a1.823,1.823,0,0,0,.54-.467,2.193,2.193,0,0,0,.323-1.308c.167-5.383.25-8.078.418-13.461-.224-.005-.335-.011-.558-.017a5.522,5.522,0,0,0-2.165.292,4.16,4.16,0,0,0-1.312.791,3.72,3.72,0,0,0-.734.908,2.68,2.68,0,0,1-.468.651.917.917,0,0,1-.354.167,1.207,1.207,0,0,1-.459.047.515.515,0,0,1-.351-.156c-.084-.095-.089-.256-.012-.487s.162-.5.262-.81.2-.618.307-.916.2-.579.306-.846.179-.487.231-.67a4.159,4.159,0,0,1,.345-.757.563.563,0,0,1,.526-.236c1.8.028,2.7.047,4.5.1l.111,0c1.648.053,2.472.083,4.12.162l.072,0c1.812.086,2.719.136,4.528.253a.528.528,0,0,1,.471.273,4.405,4.405,0,0,1,.286.782c.062.189.128.42.2.69s.147.56.239.866.173.618.25.938.146.593.2.83.033.4-.07.481a.591.591,0,0,1-.378.128,1.24,1.24,0,0,1-.457-.083.878.878,0,0,1-.337-.2,2.7,2.7,0,0,1-.417-.687,3.723,3.723,0,0,0-.66-.96,4.215,4.215,0,0,0-1.229-.891,5.36,5.36,0,0,0-2.118-.457c-.237-.014-.356-.02-.594-.031-.253,5.383-.381,8.072-.634,13.453a2.193,2.193,0,0,0,.22,1.328,1.856,1.856,0,0,0,.5.512c.147.081.22.164.181.267a.194.194,0,0,1-.186.145Z" transform="translate(11199.62 5531.32)"/></g></g><g transform="translate(270.187 122.36)"><g transform="translate(0 40.9)"><path class="d" d="M416.344,192.924a.571.571,0,0,1-.151-.021c-36.3-9.893-73.849-9.367-98.956-7.184a320.438,320.438,0,0,0-46.28,7.186.572.572,0,1,1-.283-1.108,321.434,321.434,0,0,1,46.44-7.216c25.208-2.193,62.911-2.722,99.38,7.218a.572.572,0,0,1-.15,1.125Z" transform="translate(-270.243 -183.267)"/><g transform="translate(0 3.837)"><path class="d" d="M416.344,197.689a.605.605,0,0,1-.151-.02c-36.3-9.893-73.849-9.367-98.956-7.184a320.307,320.307,0,0,0-46.28,7.186.572.572,0,0,1-.283-1.109,321.643,321.643,0,0,1,46.44-7.215c25.208-2.194,62.911-2.722,99.38,7.218a.572.572,0,0,1-.15,1.124Z" transform="translate(-270.243 -188.032)"/></g></g><g transform="translate(0 3.837)"><g transform="translate(0 0.49)"><path class="d" d="M311.145,137.841a312.6,312.6,0,0,0-40.472,6.645.572.572,0,1,0,.283,1.108,311.47,311.47,0,0,1,40.188-6.6Z" transform="translate(-270.243 -137.841)"/></g><g transform="translate(106.369)"><path class="d" d="M442.241,144.369a240.693,240.693,0,0,0-39.881-7.136v1.15a239.417,239.417,0,0,1,39.58,7.09.572.572,0,1,0,.3-1.1Z" transform="translate(-402.36 -137.233)"/></g></g><g transform="translate(0 0.49)"><path class="d" d="M311.145,133.075a312.765,312.765,0,0,0-40.472,6.645.572.572,0,1,0,.283,1.108,311.632,311.632,0,0,1,40.188-6.6Z" transform="translate(-270.243 -133.075)"/></g><g transform="translate(106.369)"><path class="d" d="M442.241,139.6a240.611,240.611,0,0,0-39.881-7.137v1.15a239.334,239.334,0,0,1,39.58,7.091.6.6,0,0,0,.151.02.572.572,0,0,0,.15-1.124Z" transform="translate(-402.36 -132.467)"/></g></g><g transform="translate(312.623 105.918)"><g transform="translate(0 3.371)"><path class="d" d="M350.749,116.54q-1.3.587-2.592,1.209a3.814,3.814,0,0,0-1.918-.805,37.51,37.51,0,0,0-4.8-.708.82.82,0,0,0-.1,1.637c.869.074,1.734.168,2.6.3.6.093,1.2.2,1.791.326a5.586,5.586,0,0,1,.623.139q-1.611.813-3.184,1.692a4.908,4.908,0,0,0-2.17-.4,25.374,25.374,0,0,0-5.745.287c-1.043.163-.7,1.766.34,1.6a23.616,23.616,0,0,1,3.922-.312c.43,0,1.075-.03,1.6.027-1.176.717-2.325,1.473-3.436,2.273a8.6,8.6,0,0,0-1.9-.048,18.663,18.663,0,0,0-4.18.6c-1.018.262-.684,1.867.34,1.6a17.912,17.912,0,0,1,2.548-.484c.1-.011.6-.072,1.155-.116a38.824,38.824,0,0,0-2.916,2.609c-.69.133-1.378.329-1.976.431-1.536.26-3.118.341-4.414,1.267-.856.612.252,1.821,1.1,1.212a7.406,7.406,0,0,1,3.027-.771c.109-.018.222-.04.337-.064q-.685.8-1.321,1.646c-.326.089-.639.188-.911.255-1.694.419-3.364.92-5.017,1.478-.988.333-.659,1.94.34,1.6,1.1-.372,2.209-.722,3.33-1.035.269-.075.539-.142.809-.213-.339.539-.665,1.093-.973,1.662-.5.922.87,1.822,1.374.894a29.4,29.4,0,0,1,1.955-3.114c.066,0,.118,0,.13.016a26.953,26.953,0,0,1-.51,2.889,31.616,31.616,0,0,0-.139,3.786c.02,1.049,1.657,1.154,1.637.1a31.06,31.06,0,0,1,.279-4.945c.132-.93.874-2.612-.143-3.319-.029-.02-.062-.029-.092-.047.588-.721,1.211-1.406,1.854-2.07.439-.018.661-.148.708.544a4.807,4.807,0,0,1-.282,1.175q-.354,1.47-.706,2.939c-.246,1.02,1.309,1.542,1.555.516a46.571,46.571,0,0,0,1.17-4.91,1.632,1.632,0,0,0-.8-1.858q1.03-.935,2.125-1.8c-.171.481-.407,1.019-.46,1.184l-.911,2.862a.82.82,0,0,0,1.555.516c.456-1.432.922-2.859,1.366-4.294a3.356,3.356,0,0,0,.23-1.595c.848-.6,1.712-1.181,2.6-1.733q-1.011,3.332-2.163,6.619a.82.82,0,0,0,1.556.516q1.028-2.932,1.951-5.9a16.537,16.537,0,0,0,.823-2.515q1.514-.859,3.072-1.649a12.466,12.466,0,0,1-2.076,4.214.82.82,0,0,0,1.374.894A17.649,17.649,0,0,0,348,121.585a9.608,9.608,0,0,0,.631-2.249q1.429-.688,2.869-1.341C352.464,117.561,351.71,116.106,350.749,116.54Z" transform="translate(-322.952 -116.233)"/></g><g transform="translate(31.936 3.443)"><path class="d" d="M363.773,117.133c.886.345,1.77.7,2.653,1.068a3.812,3.812,0,0,1,1.872-.906,37.571,37.571,0,0,1,4.761-.964.82.82,0,0,1,.186,1.629c-.864.121-1.723.261-2.577.44-.593.124-1.186.26-1.771.421a5.574,5.574,0,0,0-.614.172q1.652.725,3.27,1.52a4.893,4.893,0,0,1,2.145-.52,25.314,25.314,0,0,1,5.753-.02c1.051.106.794,1.725-.253,1.619a23.6,23.6,0,0,0-3.933-.1c-.429.028-1.076.028-1.6.113,1.212.654,2.4,1.346,3.552,2.086a8.619,8.619,0,0,1,1.9-.149,18.681,18.681,0,0,1,4.207.373c1.031.207.783,1.828-.254,1.619a17.834,17.834,0,0,0-2.571-.347c-.1-.006-.6-.039-1.159-.055q1.587,1.151,3.051,2.45c.7.1,1.393.255,2,.324,1.547.178,3.132.175,4.474,1.03.888.565-.154,1.832-1.035,1.27a7.411,7.411,0,0,0-3.064-.609c-.11-.012-.224-.028-.339-.046q.726.761,1.407,1.572c.331.072.649.154.923.207,1.713.328,3.408.739,5.088,1.208,1,.279.762,1.9-.254,1.619-1.12-.312-2.245-.6-3.381-.855-.272-.06-.546-.113-.819-.169.367.521.722,1.056,1.06,1.608.549.894-.771,1.866-1.324.965a29.467,29.467,0,0,0-2.118-3c-.067,0-.118,0-.13.023a27.012,27.012,0,0,0,.664,2.857,31.693,31.693,0,0,1,.341,3.774c.036,1.048-1.593,1.241-1.629.186a31,31,0,0,0-.544-4.923c-.181-.922-1.013-2.562-.034-3.324.028-.022.06-.031.089-.051-.626-.689-1.285-1.339-1.962-1.968-.44,0-.668-.113-.678.581a4.784,4.784,0,0,0,.345,1.159l.862,2.9c.3,1.006-1.225,1.609-1.526.6a46.7,46.7,0,0,1-1.431-4.84,1.632,1.632,0,0,1,.7-1.9q-1.078-.879-2.218-1.683c.2.471.461,1,.523,1.158l1.063,2.81a.82.82,0,0,1-1.527.6c-.531-1.4-1.072-2.806-1.593-4.214A3.351,3.351,0,0,1,376,124.86c-.878-.555-1.774-1.088-2.689-1.591q1.188,3.273,2.514,6.493a.82.82,0,0,1-1.526.6q-1.184-2.873-2.263-5.786a16.543,16.543,0,0,1-.956-2.468q-1.558-.777-3.155-1.482a12.448,12.448,0,0,0,2.3,4.1.82.82,0,0,1-1.324.965,17.671,17.671,0,0,1-2.117-3.665,9.609,9.609,0,0,1-.75-2.211q-1.464-.612-2.937-1.186C362.116,118.245,362.791,116.75,363.773,117.133Z" transform="translate(-362.618 -116.322)"/></g><g transform="translate(13.266 6.052)"><path class="e" d="M359.326,129.389c1.816-4.589-2.351-9.472-6.861-9.808a7.4,7.4,0,0,0-5.847,2.36c-2.041,2.192-2.914,5.607-5.644,6.838-1.824.822-1.935,1.4-.845,2.957a19.765,19.765,0,0,0,3.193,3.675,17.635,17.635,0,0,0,5.946,3.407c2.042.684,4.03,1.638,6.215,1.68a1.921,1.921,0,0,0,1.649-.55,2.265,2.265,0,0,0,.114-1.725,13.9,13.9,0,0,1-.172-4.583C357.382,132.118,358.756,130.829,359.326,129.389Z" transform="translate(-339.429 -119.562)"/></g><g transform="translate(26.874 2.705)"><path class="f" d="M369.844,118.222c-2.752-4.1-9.136-3.429-11.969.1a7.394,7.394,0,0,0-1.368,6.154c.65,2.923,2.969,5.578,2.436,8.525-.356,1.969.062,2.39,1.959,2.371a19.764,19.764,0,0,0,4.836-.548,17.637,17.637,0,0,0,6.177-2.97c1.72-1.295,3.633-2.391,4.906-4.169a1.922,1.922,0,0,0,.481-1.67c-.2-.56-.818-.825-1.358-1.072a13.907,13.907,0,0,1-3.873-2.454C370.991,121.371,370.709,119.509,369.844,118.222Z" transform="translate(-356.331 -115.405)"/><g transform="translate(4.456 10.599)"><path class="e" d="M374.871,130.569a26.557,26.557,0,0,1-5.565,3.8c-1.487.76-4.725,2.619-6.445,2.262-2.658-.552.755-3.229,1.585-3.824a34.593,34.593,0,0,1,5.575-3.063,9.3,9.3,0,0,1,4.393-1.167,1.226,1.226,0,0,1,1.089.531C375.749,129.624,375.3,130.189,374.871,130.569Z" transform="translate(-361.866 -128.57)"/></g><g transform="translate(11.85 11.199)"><path class="d" d="M374.5,131.042a1.727,1.727,0,1,1-1.727-1.727A1.727,1.727,0,0,1,374.5,131.042Z" transform="translate(-371.049 -129.315)"/></g></g><g transform="translate(14.498)"><path class="g" d="M356.427,114.969c-3.554-1.931-10.33-4.362-14.017-1.432-2.556,2.031-1.468,5.884,1.2,7.232,4.83,2.44,9.354-2.464,13.273-4.456a21.03,21.03,0,0,1,5.591-1.953c1.515-.282,3.176-.451,4.084,1.138a1.121,1.121,0,0,1,.09,1.138c-.644.983-1.652.593-2.636.585a27.725,27.725,0,0,1-10.5-2.358c-1.13-.474-1.624,1.37-.507,1.84a30.094,30.094,0,0,0,7.694,2.159c2.087.279,5.076.815,7.05-.293,2.471-1.387,1.63-4.7-.588-5.852-4.142-2.145-10.586,1.335-14.007,3.6-1.081.715-2.116,1.518-3.266,2.123-1.679.885-4.366,1.8-5.77-.075a2.774,2.774,0,0,1-.51-1.452,2.737,2.737,0,0,1,.336-1.616c.633-1.056,1.9-.973,2.974-1a14.667,14.667,0,0,1,2.64.232,18.319,18.319,0,0,1,5.909,2.085C356.543,117.2,357.507,115.556,356.427,114.969Z" transform="translate(-340.959 -112.046)"/></g></g><g transform="translate(299.83 80.604)"><g transform="translate(10.583)"><path class="h" d="M386.235,104.276c-33.229-7.565-65.486-.1-65.807-.02l-.221-19.735c1.5-.357,29.07-8.62,66.843-.019Z" transform="translate(-320.207 -80.604)"/></g><g transform="translate(0 9.249)"><path class="i" d="M317.867,106.495l-.162-14.4c-.476.135-.954.264-1.437.378a33.654,33.654,0,0,1-4.475.74c-.511.049-3.866.544-4.121.142q1.2,1.883,2.484,3.7c1.437,2.031,3.135,4.125,5.538,4.771.22.06.477.135.552.35a.662.662,0,0,1-.1.5,28.68,28.68,0,0,1-9.084,10.5,8.941,8.941,0,0,0,4.06,1.035c3.118.036,5.99-1.538,8.813-2.862,1.838-.862,6.122-3.455,7.783-1.314a10.113,10.113,0,0,1,.374-2.175,20.613,20.613,0,0,0,.136-2.57c0-.192-.014-.382-.022-.573C321.839,105.574,317.977,106.468,317.867,106.495Z" transform="translate(-307.062 -92.091)"/><g transform="translate(10.805 12.586)"><path class="j" d="M320.482,109.541l10.356,3.733.255-5.55C324.566,108.6,320.593,109.515,320.482,109.541Z" transform="translate(-320.482 -107.724)"/></g></g><g transform="translate(65.969 9.249)"><g transform="translate(0.25)"><path class="i" d="M399.672,106.495l.161-14.4c.477.135.955.264,1.437.378a33.646,33.646,0,0,0,4.476.74c.511.049,3.865.544,4.121.142q-1.2,1.883-2.485,3.7c-1.437,2.031-3.135,4.125-5.538,4.771-.22.06-.477.135-.552.35a.663.663,0,0,0,.1.5,28.67,28.67,0,0,0,9.083,10.5,8.939,8.939,0,0,1-4.06,1.035c-3.117.036-5.99-1.538-8.813-2.862-1.838-.862-6.122-3.455-7.783-1.314a10.112,10.112,0,0,0-.373-2.175,20.767,20.767,0,0,1-.137-2.57c0-.192.015-.382.022-.573C395.7,105.574,399.561,106.468,399.672,106.495Z" transform="translate(-389.309 -92.091)"/></g><g transform="translate(0 12.425)"><path class="j" d="M399.611,109.5l-10.357,3.733L389,107.524A89.672,89.672,0,0,1,399.611,109.5Z" transform="translate(-388.999 -107.524)"/></g></g></g><g transform="translate(322.867 84.36)"><g transform="translate(0 0.685)"><path class="k" d="M337.881,99.6c-.518-2.654-1-5.581-2.134-11.692,0-.019-.067-.142-.071-.16a.8.8,0,0,1,.156-.465c.126-.022.8-.231.924-.27l.483-.079a6.39,6.39,0,0,1,1.51,1.761c.506.663,1.044,1.383,1.556,2.089l.021,0c.656-1.471,1-2.2,1.705-3.667a2.138,2.138,0,0,1,.4-.784c.5-.1.772-.163,1.215-.21.022,0,.171,0,.213,0,.353.115.493,1.5.617,1.9.461,4.332.689,6.5,1.145,10.83-.029.1-.228.192-.3.2-.414.043-.621.065-1.035.111a.427.427,0,0,1-.147-.115,2.6,2.6,0,0,1-.118-.365c-.154-1.343-.355-2.586-.51-3.929-.111-.97-.165-1.965-.276-2.935-.054-.467-.159-.937-.22-1.374-.048-.345-.183-1.226-.185-1.246l-.079-.142c-.026.136-.275.845-.339,1-.125.337-.74,1.832-.972,2.393a1.015,1.015,0,0,0-.063.141c-.076.2-.225.358-1.09.49a.626.626,0,0,1-.516-.191c-.583-.758-.878-1.134-1.478-1.884a.928.928,0,0,0-.334-.4c-.011.059.006.3,0,.362l.006.037c.184,1.15.94,4.755,1.541,8.442a3.152,3.152,0,0,1-.038.367.97.97,0,0,1-.436.394l-.018,0a2.388,2.388,0,0,1-1.034-.207C337.96,99.95,337.894,99.676,337.881,99.6Z" transform="translate(-335.674 -86.12)"/></g><g transform="translate(11.099 0)"><path class="k" d="M350.073,94.17l-.019-.243c-.06-.749-.482-5.762-.507-6.081a3.49,3.49,0,0,1,.133-2.045c.129-.254.7-.3,1.06-.322l.064,0,.105-.007c.361-.024,3.241-.156,3.474-.184.021,0,.363-.015.424-.015.246,0,.523.452.528.64a1.458,1.458,0,0,1-.544.713l-.335.012c-1.29.08-1.934.128-3.221.242.041,1.013.062,1.52.1,2.533l.023.356.065.052a2.3,2.3,0,0,1,.51-.032c.04,0,.126.048.146.048.523-.031.783-.046,1.306-.071.266-.013.275.194.283.381l0,.039c.012.262.151.812-.223.874-.138.023-.66.128-.742.133l-.282.015c-.262.015-.507-.027-.75-.011l-.04,0-.118.064c-.017.114-.025.171-.042.286.143,2.166.214,3.248.357,5.414,1.2-.079,1.8-.11,3.008-.156.211-.008.833.253.841.477a1.493,1.493,0,0,1-.427.916c-1.137,0-2.247.171-3.381.246l-.132.01-.057,0c-.452.031-1.127.023-1.244-.36C350.306,97.64,350.12,94.75,350.073,94.17Z" transform="translate(-349.46 -85.269)"/></g><g transform="translate(18.828 0.02)"><path class="k" d="M362.632,97.38a18.626,18.626,0,0,1-.22-2.012c-.178-.6-.269-.906-.452-1.508-.076-.245-.706-1.018-1-1.019-.08,0-.06.151-.06.151,0,1.014-.077,2.4-.076,3.417v1.727s-.114.245-.17.245c-.438,0-.658,0-1.1.008-.075,0-.172-.185-.173-.242l.036-.113v-.056c0-.037-.04-.188-.041-.244-.2-3.133-.25-6.343-.3-9.5,0-.319-.01-.619-.014-.939a5.394,5.394,0,0,1,.123-1.6c.107-.311,1.308-.407,1.689-.407,1.547,0,3.385.459,3.923,1.867-.049.205.206.506.225.741a6.062,6.062,0,0,1,.013.808,2.736,2.736,0,0,1-.606,1.633c0,.019-.024.112-.024.112-.022.036-.043.093-.064.092-.284.27-.425.4-.705.675a10.163,10.163,0,0,0-1.359.709c.138.151.377.249.514.4a6.294,6.294,0,0,1,1.22,3.464c.07.246-.015.526.073.773-.015.533-.023.8-.039,1.332-.14.239-.125.37-.465.362h-.019c-.151,0-.8-.018-.828-.224C362.717,97.927,362.63,97.474,362.632,97.38Zm-1.654-6.341a.645.645,0,0,0,.121-.056c.1-.037.385-.149.425-.167a2.539,2.539,0,0,0,1.74-2.043c.031-1.483-.8-1.957-2.366-1.958-.042,0-.084,0-.084.038a20.412,20.412,0,0,1,.1,2.778v.92c0,.037-.04.262-.04.262A1.09,1.09,0,0,0,360.978,91.039Z" transform="translate(-359.06 -85.294)"/></g><g transform="translate(26.702 0.306)"><path class="k" d="M372.138,97.839a18.33,18.33,0,0,1-.079-2.022c-.136-.615-.205-.922-.345-1.536-.06-.25-.634-1.066-.931-1.087-.079-.006-.07.146-.07.146-.071,1.011-.246,2.392-.316,3.4-.018.262-.1,1.461-.119,1.723,0,0-.13.237-.188.233-.437-.03-.656-.043-1.093-.069-.076,0-.159-.2-.156-.254l.044-.109v-.019l0-.038c0-.037-.027-.189-.024-.246.024-3.139.195-6.344.368-9.494l.051-.938a5.408,5.408,0,0,1,.235-1.585c.129-.3,1.333-.313,1.714-.287,1.544.109,3.348.695,3.786,2.137-.063.2.17.52.172.755a6.089,6.089,0,0,1-.043.807,2.734,2.734,0,0,1-.72,1.587c0,.019-.032.109-.032.109-.023.035-.049.089-.069.088-.3.249-.452.374-.752.624a10.241,10.241,0,0,0-1.407.611c.127.161.358.275.485.437a6.286,6.286,0,0,1,.975,3.541c.053.25-.052.523.02.776l-.133,1.326c-.156.229-.15.361-.489.329l-.019,0c-.151-.014-.793-.074-.812-.282C372.184,98.389,372.13,97.932,372.138,97.839ZM370.93,91.4a.64.64,0,0,0,.125-.048c.1-.03.395-.122.436-.137a2.541,2.541,0,0,0,1.88-1.916c.134-1.477-.659-2.009-2.225-2.119-.042,0-.083-.006-.086.032a20.4,20.4,0,0,1-.091,2.778c-.009.131-.063.9-.064.918,0,.038-.059.26-.059.26A1.1,1.1,0,0,0,370.93,91.4Z" transform="translate(-368.84 -85.649)"/></g><g transform="translate(35.07 0.92)"><path class="k" d="M379.29,88.52a4.8,4.8,0,0,1,.7-2.031c.033-.091.118-.081.2-.069.232.03,1.3.25,1.241.64-.018.13-.094.214-.109.326-.02.149-.081.273-.1.4-.052.372-.138.682-.189,1.054-.01.074-.069.5-.08.576.1.318-.1,1.936.524,2.027,1.494.217,1.957-2.7,2.253-3.757.06-.238.05-.716.445-.766l.295.048c.9.15,1.12.267.957,1.077-.968,4.822-2.842,4.23-3.182,4.577-.043.547-.064.822-.109,1.37a.864.864,0,0,0,.027.213c-.178,1.15-.267,1.725-.445,2.876a11.055,11.055,0,0,1-.193,1.376c-.023.148-.122.779-.142.909a.312.312,0,0,1-.308.123c-.353-.054-.53-.08-.883-.13-.32-.047-.053-2.076-.023-2.431.093-1.085.168-2.194.276-3.26.016-.112.124-.893.138-.985a1.336,1.336,0,0,0-.019-.306C379.186,91.733,379.145,89.694,379.29,88.52Z" transform="translate(-379.234 -86.412)"/></g></g><g transform="translate(274.468 87.425)"><g transform="translate(25.362 27.882)"><circle class="d" cx="1.214" cy="1.214" r="1.214"/></g><g transform="translate(131.111 90.819)"><path class="d" d="M440.835,203.091a1.213,1.213,0,1,1-1.213-1.213A1.213,1.213,0,0,1,440.835,203.091Z" transform="translate(-438.408 -201.878)"/></g><g transform="translate(106.161 -8)"><circle class="d" cx="1.214" cy="1.214" r="1.214"/></g><g transform="translate(14.956 90.819)"><path class="d" d="M296.564,203.091a1.214,1.214,0,1,1-1.213-1.213A1.214,1.214,0,0,1,296.564,203.091Z" transform="translate(-294.137 -201.878)"/></g><g transform="translate(0.571 10.784)"><path class="d" d="M277.757,105.447a1.488,1.488,0,1,1,1.488-1.488A1.489,1.489,0,0,1,277.757,105.447Zm0-2.427a.94.94,0,1,0,.94.94A.941.941,0,0,0,277.757,103.019Z" transform="translate(-276.27 -102.471)"/></g><g transform="translate(90.093 93.679)"><path class="d" d="M388.949,208.407a1.488,1.488,0,1,1,1.488-1.489A1.49,1.49,0,0,1,388.949,208.407Zm0-2.428a.94.94,0,1,0,.94.94A.941.941,0,0,0,388.949,205.978Z" transform="translate(-371.461 -193.431)"/></g><g transform="translate(128.409 29.335)"><path class="d" d="M436.54,128.488A1.488,1.488,0,1,1,438.028,127,1.49,1.49,0,0,1,436.54,128.488Zm0-2.427a.94.94,0,1,0,.94.94A.941.941,0,0,0,436.54,126.06Z" transform="translate(-435.052 -125.512)"/></g><g transform="translate(28.221 102.544)"><path class="d" d="M331.973,204.513a1.488,1.488,0,1,1,1.488-1.488A1.489,1.489,0,0,1,331.973,204.513Zm0-2.427a.94.94,0,1,0,.94.94A.941.941,0,0,0,331.973,202.085Z" transform="translate(-330.486 -201.537)"/></g><g transform="translate(-10 31.824)"><path class="d" d="M279.33,122.861h-1.363V121.5a.347.347,0,1,0-.695,0v1.362h-1.363a.348.348,0,1,0,0,.7h1.363v1.363a.347.347,0,0,0,.695,0v-1.363h1.363a.348.348,0,0,0,0-.7Z" transform="translate(-275.561 -121.151)"/></g><g transform="translate(5.17 -11.927)"><path class="d" d="M299.413,99.571h-1.362V98.209a.348.348,0,1,0-.7,0v1.362h-1.362a.348.348,0,1,0,0,.7h1.362v1.363a.348.348,0,1,0,.7,0v-1.363h1.362a.348.348,0,1,0,0-.7Z" transform="translate(-295.645 -97.861)"/></g><g transform="translate(160.111 9.073)"><path class="d" d="M442.176,99.571h-1.362V98.209a.348.348,0,1,0-.7,0v1.362h-1.363a.348.348,0,0,0,0,.7h1.363v1.363a.348.348,0,1,0,.7,0v-1.363h1.362a.348.348,0,0,0,0-.7Z" transform="translate(-438.408 -97.861)"/></g><g transform="translate(-25.483 64.895)"><path class="d" d="M309.782,204.925h-1.363v-1.362a.347.347,0,1,0-.695,0v1.362h-1.363a.348.348,0,0,0,0,.7h1.363v1.363a.347.347,0,0,0,.695,0v-1.363h1.363a.348.348,0,1,0,0-.7Z" transform="translate(-306.013 -203.215)"/></g><g transform="translate(116.53 15.65)"><path class="d" d="M424.066,110.225H422.7v-1.363a.347.347,0,1,0-.695,0v1.363h-1.363a.347.347,0,1,0,0,.695h1.363v1.363a.347.347,0,1,0,.695,0V110.92h1.363a.347.347,0,1,0,0-.695Z" transform="translate(-420.297 -108.514)"/></g><g transform="translate(76.971 87.974)"><path class="d" d="M357.543,202.539h-1.362v-1.362a.348.348,0,1,0-.7,0v1.362h-1.362a.348.348,0,1,0,0,.7h1.362V204.6a.348.348,0,0,0,.7,0v-1.363h1.362a.348.348,0,0,0,0-.7Z" transform="translate(-353.775 -200.829)"/></g></g></g></g></svg>
