<svg xmlns="http://www.w3.org/2000/svg" xmlns:xlink="http://www.w3.org/1999/xlink" width="1920" height="804" viewBox="0 0 1920 804"><defs><radialGradient id="a" cx="0.5" cy="0.5" r="0.5" gradientUnits="objectBoundingBox"><stop offset="0" stop-color="#f85959"/><stop offset="1" stop-color="#ba343d"/></radialGradient><clipPath id="b"><path d="M390.978,445.993,352.5,425.434l15.029-32.461,42.278,22.588Z" transform="translate(-352.498 -392.972)" fill="none"/></clipPath><clipPath id="c"><path d="M354.541,441.588l41.535-16.251-11.36-34.761-45.635,17.855Z" transform="translate(-339.082 -390.576)" fill="none"/></clipPath><linearGradient id="d" x1="0.5" x2="0.5" y2="1" gradientUnits="objectBoundingBox"><stop offset="0" stop-color="#def3ff"/><stop offset="0.745" stop-color="#fff"/><stop offset="1" stop-color="#fff"/></linearGradient><linearGradient id="e" x1="0.324" y1="0.012" x2="0.806" y2="1.346" gradientUnits="objectBoundingBox"><stop offset="0.013" stop-color="#fff"/><stop offset="0.99" stop-color="#fff" stop-opacity="0"/></linearGradient><linearGradient id="f" x1="0.015" y1="-0.842" x2="1.341" y2="2.826" xlink:href="#e"/><linearGradient id="g" x1="0.105" y1="0.777" x2="0.856" y2="0.251" xlink:href="#e"/><linearGradient id="h" x1="0.038" y1="0.823" x2="0.917" y2="0.208" xlink:href="#e"/><linearGradient id="i" x1="-0.056" y1="0.889" x2="1.002" y2="0.149" xlink:href="#e"/><linearGradient id="j" x1="-0.199" y1="0.989" x2="1.13" y2="0.059" xlink:href="#e"/><linearGradient id="k" x1="-0.439" y1="1.158" x2="1.347" y2="-0.093" xlink:href="#e"/><linearGradient id="l" x1="-0.933" y1="1.503" x2="1.792" y2="-0.404" xlink:href="#e"/><linearGradient id="m" x1="0.761" y1="0.239" x2="0.325" y2="0.675" xlink:href="#e"/><linearGradient id="n" x1="0.805" y1="0.195" x2="0.296" y2="0.704" xlink:href="#e"/><linearGradient id="o" x1="0.867" y1="0.133" x2="0.254" y2="0.746" xlink:href="#e"/><linearGradient id="p" x1="0.961" y1="0.039" x2="0.191" y2="0.809" xlink:href="#e"/><linearGradient id="q" x1="1.12" y1="-0.12" x2="0.085" y2="0.915" xlink:href="#e"/><linearGradient id="r" x1="1.446" y1="-0.446" x2="-0.133" y2="1.133" xlink:href="#e"/></defs><g transform="translate(0 269)"><path d="M0,0H1920V794.821H0Z" transform="translate(0 -269)" fill="url(#a)"/><path d="M37.3,55.917a18.647,18.647,0,1,1,18.645,18.64A18.643,18.643,0,0,1,37.3,55.917m-10.081,0A28.726,28.726,0,1,0,55.943,27.2,28.719,28.719,0,0,0,27.217,55.917M79.094,26.066a6.713,6.713,0,1,0,6.716-6.707h0a6.715,6.715,0,0,0-6.713,6.707M33.342,101.432a30.926,30.926,0,0,1-10.389-1.924,17.385,17.385,0,0,1-6.435-4.182A17.253,17.253,0,0,1,12.334,88.9a30.867,30.867,0,0,1-1.924-10.384c-.271-5.894-.325-7.665-.325-22.6s.059-16.7.325-22.6a31.109,31.109,0,0,1,1.924-10.384A17.377,17.377,0,0,1,16.518,16.5a17.242,17.242,0,0,1,6.435-4.183A30.906,30.906,0,0,1,33.342,10.4c5.9-.271,7.668-.325,22.6-.325s16.706.058,22.608.326a31.131,31.131,0,0,1,10.389,1.923,17.333,17.333,0,0,1,6.435,4.183,17.328,17.328,0,0,1,4.185,6.432,30.869,30.869,0,0,1,1.924,10.384c.271,5.9.325,7.665.325,22.6s-.054,16.7-.325,22.6A31.01,31.01,0,0,1,99.559,88.9a18.518,18.518,0,0,1-10.62,10.61,30.89,30.89,0,0,1-10.389,1.924c-5.9.271-7.668.325-22.608.325s-16.706-.054-22.6-.325M32.879.339A41.046,41.046,0,0,0,19.3,2.936a27.458,27.458,0,0,0-9.91,6.45,27.3,27.3,0,0,0-6.453,9.905,40.991,40.991,0,0,0-2.6,13.572C.063,38.825,0,40.731,0,55.917S.063,73.008.339,78.97a40.99,40.99,0,0,0,2.6,13.573,27.334,27.334,0,0,0,6.453,9.905,27.485,27.485,0,0,0,9.91,6.45,41.076,41.076,0,0,0,13.579,2.6c5.968.271,7.872.339,23.064.339s17.1-.063,23.064-.339a41.051,41.051,0,0,0,13.579-2.6,28.594,28.594,0,0,0,16.362-16.355,40.875,40.875,0,0,0,2.6-13.573c.271-5.967.334-7.868.334-23.053s-.063-17.091-.334-23.054a40.979,40.979,0,0,0-2.6-13.572A27.493,27.493,0,0,0,102.5,9.386a27.374,27.374,0,0,0-9.905-6.45A40.988,40.988,0,0,0,79.012.339C73.046.066,71.14,0,55.95,0s-17.1.063-23.069.339" transform="translate(334.262 361.223)" fill="#fff"/><path d="M0,338.039s119.272,36.75,153.072,79,133.3,10.03,184,32,103-6,164,38c37.333,26.928,237.9,54.426,415.763,45.576,112.369-5.591,186.129-46.231,230.063-45.576,113.23,1.69,145.9,15.3,250.677,32.2S1490.6,420.8,1620.6,432.5s164.2-87.28,299.4-80.521V555.04L0,554.783Z" transform="translate(0 -23.378)" fill="#f1feff" opacity="0.94"/><g transform="translate(403 404.763)"><g transform="translate(31.895 0.495)"><path d="M390.978,445.993,352.5,425.434l15.029-32.461,42.278,22.588Z" transform="translate(-352.498 -372.832)" fill="#5b877c"/><path d="M403.895,424.164l-46.5-24.842,3.118-10.716,50.091,26.763Z" transform="translate(-344.247 -380.185)" fill="#446d5f"/><g transform="translate(25.98)"><path d="M391.151,389.62c-6.629-4.882-23.036,12.311-23.036,12.311,1.814,2.579,15.615,7.236,21.1,7.982S397.777,394.505,391.151,389.62Zm-20.3,12.837s16.208-11.157,17.249-8.081S392.353,411.258,370.855,402.457Z" transform="translate(-352.183 -379.946)" fill="#e3bf6b"/><path d="M362.757,396.587c3.06,3.454,12.692,10.867,15.319,10.929,0,0,4.318-19.356-2.144-21.688S359.7,393.13,362.757,396.587Zm11.288-6.441c2.619-.7,2.394,15.714,2.394,15.714C360.365,395.028,371.428,390.849,374.045,390.146Z" transform="translate(-362.179 -385.468)" fill="#e3bf6b"/></g><g transform="translate(0 20.14)"><g clip-path="url(#b)"><g transform="translate(-16.987 -5.491)"><rect width="5.531" height="63.806" transform="matrix(1, 0.006, -0.006, 1, 20.674, 0.114)" fill="#446d5f"/><rect width="5.531" height="63.806" transform="translate(30.592 0.17) rotate(0.323)" fill="#446d5f"/><rect width="5.531" height="63.806" transform="translate(0.359 0) rotate(0.323)" fill="#446d5f"/><rect width="5.531" height="63.806" transform="translate(10.276 0.056) rotate(0.323)" fill="#446d5f"/><g transform="translate(40.15 0.226)"><rect width="5.531" height="63.806" transform="translate(20.675 0.114) rotate(0.323)" fill="#446d5f"/><rect width="5.531" height="63.806" transform="translate(30.592 0.17) rotate(0.323)" fill="#446d5f"/><rect width="5.531" height="63.806" transform="translate(0.359 0) rotate(0.323)" fill="#446d5f"/><rect width="5.531" height="63.806" transform="translate(10.276 0.056) rotate(0.323)" fill="#446d5f"/></g></g></g></g><rect width="5.531" height="46.804" transform="matrix(0.882, 0.471, -0.471, 0.882, 39.409, 20.592)" fill="#e9dcaf"/></g><path d="M354.541,441.588l41.535-16.251-11.36-34.761-45.635,17.855Z" transform="translate(-330.195 -367.372)" fill="#5b877c"/><path d="M341.753,416.978l50.188-19.636-1.878-11.254-54.068,21.155Z" transform="translate(-335.393 -374.93)" fill="#446d5f"/><path d="M340.4,405.586c5.652-.1,20.223-3.17,22.373-5.569,0,0-14.592-19.428-21.906-15.266S334.752,405.682,340.4,405.586Zm2.987-15.642c1.428-3,16.541,10.277,16.541,10.277C337.049,406.571,341.961,392.942,343.391,389.944Z" transform="translate(-335.771 -378.166)" fill="#fc7575"/><path d="M350.807,382.088c-6.839,1.589-4.783,21.761-4.783,21.761,2.679.252,13.347-6.117,16.868-9.257S357.649,380.5,350.807,382.088Zm-2.92,20.274s1.745-16.694,4.318-15.666S365.507,393.3,347.887,402.361Z" transform="translate(-318.992 -381.93)" fill="#fc7575"/><g transform="translate(8.887 23.204)"><g clip-path="url(#c)"><g transform="translate(-5.987 -10.457)"><g transform="translate(40.789 4.593)"><rect width="5.654" height="65.23" transform="translate(15.692 66.587) rotate(-173.574)" fill="#446d5f"/><rect width="5.654" height="65.23" transform="translate(5.619 65.453) rotate(-173.577)" fill="#446d5f"/><g transform="translate(20.639 2.324)"><rect width="5.654" height="65.23" transform="translate(15.692 66.587) rotate(-173.574)" fill="#446d5f"/><rect width="5.654" height="65.23" transform="matrix(-0.994, -0.112, 0.112, -0.994, 5.619, 65.453)" fill="#446d5f"/></g></g><rect width="5.654" height="65.23" transform="translate(15.694 66.587) rotate(-173.577)" fill="#446d5f"/><rect width="5.654" height="65.23" transform="matrix(-0.994, -0.112, 0.112, -0.994, 5.619, 65.453)" fill="#446d5f"/><g transform="translate(20.638 2.324)"><rect width="5.654" height="65.23" transform="matrix(-0.994, -0.112, 0.112, -0.994, 15.695, 66.587)" fill="#446d5f"/><rect width="5.654" height="65.23" transform="translate(5.619 65.453) rotate(-173.574)" fill="#446d5f"/></g></g></g></g><rect width="5.654" height="47.848" transform="translate(47.15 65.294) rotate(158.632)" fill="#ec6767"/></g><g transform="translate(97.999 353.654)"><path d="M20.684,60.794V39.963c-14.762,4.519-23.4.473-19.912.064,2-.236,8.434-5.082,13.773-9.354C4.67,32.284-.553,29.581,2.178,29.257c1.975-.232,8.576-5.274,13.709-9.415-8.572,1.445-13.125-.9-10.771-1.18,1.641-.192,7-4.253,11.324-7.726-6.109.831-9.27-.848-7.516-1.051C11.174,9.62,22.418,0,22.418,0s11.246,9.62,13.5,9.886c1.73.2-1.459,1.84-7.48,1.08,4.318,3.467,9.652,7.5,11.287,7.7,2.324.273-2.27,2.566-10.705,1.232,5.125,4.13,11.68,9.131,13.648,9.362,2.7.32-2.57,2.959-12.291,1.476,5.322,4.258,11.705,9.06,13.7,9.295,3.461.405-5.348,4.394-19.928.036v20.73Z" fill="#fff"/></g><g transform="translate(1702 347.726)"><path d="M252.9,150.671c9.791,3.307,15.853.617,13.605.352s-13.5-9.882-13.5-9.882-11.246,9.619-13.5,9.882S243.113,153.978,252.9,150.671Z" transform="translate(-230.595 -141.141)" fill="#fff"/><path d="M254.049,157.564c12.555,4.242,20.329.791,17.444.452s-17.3-12.67-17.3-12.67-14.419,12.331-17.3,12.67S241.494,161.806,254.049,157.564Z" transform="translate(-231.772 -139.353)" fill="#fff"/><path d="M254.934,165.562c14.687,4.962,23.783.926,20.409.529S255.1,151.267,255.1,151.267s-16.87,14.428-20.244,14.824S240.249,170.524,254.934,165.562Z" transform="translate(-232.68 -136.833)" fill="#fff"/><path d="M255.359,173.386c15.706,5.307,25.433.991,21.824.567S255.535,158.1,255.535,158.1s-18.043,15.43-21.65,15.855S239.652,178.693,255.359,173.386Z" transform="translate(-233.114 -133.927)" fill="#fff"/><rect width="3.456" height="10.717" transform="translate(20.682 36.078)" fill="#fff"/></g><path d="M-20688.09-11052.34v-63.25c-44.824,13.721-71.051,1.434-60.461.2,6.07-.715,25.613-15.43,41.824-28.4-29.988,4.895-45.84-3.314-37.551-4.3,5.992-.709,26.035-16.018,41.625-28.586-26.031,4.385-39.855-2.746-32.707-3.584,4.984-.584,21.254-12.914,34.383-23.457-18.547,2.523-28.141-2.574-22.82-3.191,6.832-.809,40.973-30.014,40.973-30.014s34.145,29.205,40.984,30.014c5.246.609-4.434,5.586-22.723,3.281,13.121,10.523,29.316,22.787,34.277,23.367,7.055.83-6.895,7.793-32.508,3.742,15.57,12.541,35.465,27.723,41.445,28.428,8.191.971-7.8,8.982-37.324,4.479,16.168,12.93,35.543,27.508,41.594,28.223,10.508,1.232-16.234,13.34-60.508.111v62.943Z" transform="translate(22292.887 11508.785)" fill="#fff"/><path d="M0,364.9s121.7,34.45,155.5,76.7,131.3-14.17,182,7.8,122.719,1.69,176.8,33.8,266.057,32.515,379.287,34.2c63.409.946,158.054-37.73,268.78-44.834,87.264-5.6,193.73,18.794,239.833,26.229,104.78,16.9,88.4-78,218.4-66.3s164.2-57.46,299.4-50.7V530.589L0,529.783Z" transform="translate(0 0.622)" fill="#fff"/><path d="M1346.168,548.046s18.164-34.946,55.441-39.68,30.76-11.838,53.837-18.348,48.521,3.55,88.165,8.875,17.761,23.673,68.648,17.165,149.376-9.994,195.376-7.692,183.707,55.012,183.707,55.012Z" transform="translate(-1035 -28.378)" fill="url(#d)"/><g transform="translate(241.931 372.175)"><g transform="translate(16.959)"><path d="M357.5,53.235l-1.112.451a16.149,16.149,0,0,1-2.46-3.408c-.012-.034-.021-.067-.03-.1v0c-.006-.031-.013-.063-.02-.095a7.565,7.565,0,0,1,0,1.39c-.027.4-.076.889-.16,1.484a14.6,14.6,0,0,0-4.829-2.262,29.634,29.634,0,0,0-3.146-.778,51.456,51.456,0,0,0-14.637-.421s.82-4.236,3.5-4.4a1.8,1.8,0,0,1,1.558-2.385s-.82-2.675,2.627-3.985c3.227-1.227,3.3-5.752,8.925-5.141q.577.062,1.236.2c6.868,1.444,6.969,10.764,6.847,14.176A7.438,7.438,0,0,0,357.5,53.235Z" transform="translate(-331.102 -33.529)" fill="#ff352b"/><path d="M353.875,50.08a7.565,7.565,0,0,1,0,1.39c-.027.4-.076.889-.16,1.484,0,0-.069-.059-.214-.163l-.034-.024-.064-.044c-.024-.018-.051-.035-.078-.054h0l-.113-.074c-.024-.016-.048-.032-.074-.047-.061-.039-.127-.08-.2-.123l-.078-.046c-.276-.164-.623-.353-1.045-.556l-.1-.046-.044-.021-.159-.074c-.347-.159-.738-.325-1.175-.491l-.109-.042q-.278-.1-.583-.209l-.147-.05c-.2-.066-.4-.133-.615-.2a29.634,29.634,0,0,0-3.146-.778,51.456,51.456,0,0,0-14.637-.421s.82-4.236,3.5-4.4a1.8,1.8,0,0,1,1.558-2.385s-.82-2.675,2.627-3.985c3.227-1.227,3.3-5.752,8.925-5.141a6.542,6.542,0,0,0-4.842,3.388c-1.458,3.014-2.135,1.783-3.18,3.321s.82,2.337.82,2.337-1.764.493-1.138,1.661,1.138,1.046,1.138,1.046-1.147,1.107,0,2.03c.685.55,5.087.731,8.769,1.7,2.008-.247,3.321-1.021,3.9-3.748.663-3.1-.95-7.449-.993-7.563a13.386,13.386,0,0,1,1.687,4.565A27.211,27.211,0,0,1,353.875,50.08Z" transform="translate(-331.102 -33.529)" fill="#df1c2c"/><path d="M386.278,81.278c.072.042.138.084.2.123Q386.386,81.342,386.278,81.278Z" transform="translate(-364.442 -62.381)" fill="#df1c2c"/><path d="M386.967,81.707l.113.074Z" transform="translate(-364.859 -62.64)" fill="#df1c2c"/></g><g transform="translate(8.901 14.33)"><g transform="translate(0 25.334)"><path d="M347.951,154.144a18.631,18.631,0,1,1-12.62-19.417A18.576,18.576,0,0,1,347.951,154.144Z" transform="translate(-310.742 -133.755)" fill="#f3faff"/><path d="M341.627,166.466a18.639,18.639,0,1,1-6.3-31.739c-9.593-.218-16.7,5.822-17.228,14.888C317.3,163.514,330.721,171.72,341.627,166.466Z" transform="translate(-310.742 -133.755)" fill="#b8eefa"/></g><g transform="translate(5.304)"><path d="M350.769,84.327A13.341,13.341,0,1,1,338.733,69.8,13.291,13.291,0,0,1,350.769,84.327Z" transform="translate(-324.144 -69.739)" fill="#f3faff"/><path d="M346.243,93.144A13.341,13.341,0,1,1,338.733,69.8s-9.446,1.97-10.331,11.4C327.446,91.376,338.44,96.9,346.243,93.144Z" transform="translate(-324.144 -69.739)" fill="#b8eefa"/></g><g transform="translate(17.366 34.579)"><path d="M357.314,158.461a1.345,1.345,0,1,1-1.345-1.345A1.345,1.345,0,0,1,357.314,158.461Z" transform="translate(-354.624 -157.116)" fill="#36322f"/><path d="M357.314,172.313a1.345,1.345,0,1,1-1.345-1.345A1.345,1.345,0,0,1,357.314,172.313Z" transform="translate(-354.624 -165.486)" fill="#36322f"/><path d="M357.314,186.164a1.345,1.345,0,1,1-1.345-1.345A1.345,1.345,0,0,1,357.314,186.164Z" transform="translate(-354.624 -173.856)" fill="#36322f"/></g><path d="M369.365,94.234a1.02,1.02,0,1,1-1.02-1.02A1.02,1.02,0,0,1,369.365,94.234Z" transform="translate(-344.933 -83.924)" fill="#36322f"/><path d="M344.409,94.234a1.02,1.02,0,1,1-1.02-1.02A1.02,1.02,0,0,1,344.409,94.234Z" transform="translate(-329.853 -83.924)" fill="#36322f"/><g transform="translate(8.111 12.115)"><path d="M342.254,102.247a1.35,1.35,0,0,1-1.652.845l-9.365-2.74,9.766.156a1.326,1.326,0,0,1,1.3,1.126,1.237,1.237,0,0,1,.013.131A1.269,1.269,0,0,1,342.254,102.247Z" transform="translate(-331.237 -100.352)" fill="#fa7524"/><path d="M342.254,102.247a1.35,1.35,0,0,1-1.652.845l-9.365-2.74Z" transform="translate(-331.237 -100.352)" fill="#d7591f"/></g></g><path d="M288.25,102.872l3.812,1.982,3.454,4.392.214,5.742,3.12,2.594,3.9,5.515a1.247,1.247,0,0,0,.711-1.476l-3.627-4.84-2.8-2.439-.266-5.221-3.215-4.459,1.619-2.967-.459-.367-1.738,2.3-1.513-3.137-.486.348,1.2,3.005-3.644-1.563Z" transform="translate(-288.25 -73.991)" fill="#36322f"/><path d="M406.555,97.015l-3.823,1.962-3.393,4.569-.06,6.162-3.1,2.651-3.813,5.757a1.455,1.455,0,0,1-.764-1.618l3.557-5.042,2.778-2.5.127-5.6,3.147-4.651-1.727-3.261.457-.374,1.83,2.547,1.453-3.305.5.4-1.14,3.177,3.664-1.519Z" transform="translate(-350.681 -70.258)" fill="#36322f"/><path d="M352.086,75.442a23.17,23.17,0,0,0-10.92-3.494A29.523,29.523,0,0,0,328.3,74.64a9.614,9.614,0,0,1,.294-2.767,11.651,11.651,0,0,1,.862-2.388c13.455-7.426,21.814.969,21.814.969a6.8,6.8,0,0,1,.93,3.528A7.648,7.648,0,0,1,352.086,75.442Z" transform="translate(-312.444 -53.402)" fill="#f3faff"/><path d="M352.086,79.77a23.17,23.17,0,0,0-10.92-3.494A29.523,29.523,0,0,0,328.3,78.968a9.614,9.614,0,0,1,.294-2.767c1.973-1.23,5.588-2.713,11.462-2.616,6.758.114,10.494,2.079,12.174,3.872C352.238,78.319,352.086,79.77,352.086,79.77Z" transform="translate(-312.444 -57.73)" fill="#b8eefa"/><g transform="translate(40.889 17.79)"><circle cx="2.336" cy="2.336" r="2.336" fill="#b8eefa"/><path d="M397.543,80.568a1.735,1.735,0,1,1-1.735-1.735A1.735,1.735,0,0,1,397.543,80.568Z" transform="translate(-393.082 -78.693)" fill="#f3faff"/></g><g transform="translate(11.083 39.017)"><g transform="translate(5.422 23.52)"><g transform="translate(0 4.816)"><path d="M330.169,203.733a.159.159,0,0,1,.054.041l1.381,1.639a.152.152,0,0,1-.233.2l-1.381-1.639a.152.152,0,0,1,.179-.237Z" transform="translate(-329.954 -203.72)" fill="#df1c2c"/></g><g transform="translate(0.648 4.132)"><path d="M331.8,202a.151.151,0,0,1,.054.04l1.407,1.615a.152.152,0,1,1-.229.2l-1.407-1.615a.152.152,0,0,1,.175-.24Z" transform="translate(-331.592 -201.991)" fill="#df1c2c"/></g><g transform="translate(1.296 3.448)"><path d="M333.439,200.274a.154.154,0,0,1,.055.039l1.433,1.59a.152.152,0,0,1-.226.2l-1.433-1.59a.152.152,0,0,1,.171-.243Z" transform="translate(-333.229 -200.262)" fill="#df1c2c"/></g><g transform="translate(1.944 2.764)"><path d="M335.074,198.544a.15.15,0,0,1,.056.038l1.458,1.566a.152.152,0,1,1-.222.207l-1.458-1.566a.152.152,0,0,1,.167-.245Z" transform="translate(-334.866 -198.533)" fill="#df1c2c"/></g><g transform="translate(2.592 2.08)"><path d="M336.709,196.814a.148.148,0,0,1,.056.037l1.484,1.542a.152.152,0,0,1-.219.211l-1.484-1.542a.152.152,0,0,1,.163-.248Z" transform="translate(-336.503 -196.805)" fill="#df1c2c"/></g><g transform="translate(3.239 1.395)"><path d="M338.343,195.084a.149.149,0,0,1,.057.036l1.51,1.517a.152.152,0,0,1-.216.214l-1.51-1.518a.152.152,0,0,1,.159-.251Z" transform="translate(-338.14 -195.075)" fill="#df1c2c"/></g><g transform="translate(3.993 0.613)"><path d="M340.246,193.107a.148.148,0,0,1,.057.035l1.536,1.493a.152.152,0,1,1-.212.218l-1.536-1.493a.152.152,0,0,1,.155-.253Z" transform="translate(-340.045 -193.099)" fill="#df1c2c"/></g><g transform="translate(4.702)"><path d="M343.492,192.827a.151.151,0,0,0-.04-.193l-1.372-1.053a.149.149,0,0,0-.061-.028.152.152,0,0,0-.159.066.16.16,0,0,0,.044.21l1.363,1.046a.151.151,0,0,0,.224-.046Z" transform="translate(-341.837 -191.55)" fill="#df1c2c"/></g></g><path d="M326.644,155.665l-2.54,2.595-2.423,2.475a22.935,22.935,0,0,1-4.863-8.156c-2.142-6.275,2.3-11.413,5.481-14.123a10.26,10.26,0,0,0,3.5-6.337l2.4.345s1.3,3.066-3.093,7.932-3.345,8.627-2.384,11.017S326.644,155.665,326.644,155.665Z" transform="translate(-316.255 -132.118)" fill="#ff352b"/><path d="M331.884,155.665l-2.54,2.595a4.059,4.059,0,0,0-1.785-4.057c-2.4-1.845-3.289-6.55-2.121-10.209a10.993,10.993,0,0,1,3.328-4.7,1.017,1.017,0,0,0-.3-1.71l-.014-.006a10.206,10.206,0,0,0,2.589-5.459l2.4.345s1.3,3.066-3.093,7.932-3.345,8.627-2.384,11.017S331.884,155.665,331.884,155.665Z" transform="translate(-321.495 -132.118)" fill="#df1c2c"/></g><g transform="translate(16.91 37.088)"><path d="M352.705,132.112a4.616,4.616,0,0,1-.267,1.17s-1.295,1.649-9.114,2.1-12.242-2.3-12.242-2.3a8.294,8.294,0,0,1,1.085-5.838,38.221,38.221,0,0,0,5.967,1.327c8.3,1.138,12.931-1.327,12.931-1.327C352.085,127.614,352.917,130.078,352.705,132.112Z" transform="translate(-330.98 -127.246)" fill="#ff352b"/><path d="M352.705,132.112a4.616,4.616,0,0,1-.267,1.17s-1.295,1.649-9.114,2.1-12.242-2.3-12.242-2.3a8.294,8.294,0,0,1,1.085-5.838,38.221,38.221,0,0,0,5.967,1.327s-1.968,4.02,4.429,5.312A14.216,14.216,0,0,0,352.705,132.112Z" transform="translate(-330.98 -127.246)" fill="#df1c2c"/></g></g><g transform="translate(8.076 -258.218)"><g transform="translate(552.513 42.598)" opacity="0.35" style="mix-blend-mode:overlay;isolation:isolate"><g transform="translate(0 0)"><path d="M297.042,122.88a23.386,23.386,0,1,1,23.4-23.386A23.418,23.418,0,0,1,297.042,122.88Zm0-40.819a17.433,17.433,0,1,0,17.441,17.433A17.457,17.457,0,0,0,297.042,82.062Z" transform="translate(-273.645 -76.109)" fill="url(#e)"/></g><circle cx="8.508" cy="8.508" r="8.508" transform="translate(11.365 23.385) rotate(-45)" fill="url(#f)"/></g><g transform="translate(200.591 184.894)" opacity="0.15" style="mix-blend-mode:overlay;isolation:isolate"><g transform="translate(0 0)"><path d="M102.76,199.077a16.507,16.507,0,1,1,16.516-16.507A16.529,16.529,0,0,1,102.76,199.077Zm0-28.812a12.306,12.306,0,1,0,12.311,12.306A12.322,12.322,0,0,0,102.76,170.264Z" transform="translate(-86.245 -166.062)" fill="#fff"/></g><ellipse cx="6.006" cy="6.003" rx="6.006" ry="6.003" transform="translate(10.51 10.505)" fill="#fff"/></g><g transform="translate(295.972) rotate(19)" opacity="0.22"><path d="M2.952,0A3.128,3.128,0,0,0,0,3.3L3.169,59.976,6.247,3.293a3.253,3.253,0,0,0,0-.343A3.126,3.126,0,0,0,2.952,0Z" transform="translate(71.371 -0.01)" fill="#ff8e8e"/><path d="M0,56.683a3.126,3.126,0,0,0,6.243.336,3.232,3.232,0,0,0,0-.343L3.074,0Z" transform="translate(71.489 89.082)" fill="#ff8e8e"/><path d="M3.3,0a3.27,3.27,0,0,0-.343,0A3.125,3.125,0,1,0,3.3,6.245L60,3.064Z" transform="translate(-0.01 71.475)" fill="#ff8e8e"/><path d="M57.041,0A3.3,3.3,0,0,0,56.7,0L0,3.176l56.7,3.06A3.125,3.125,0,1,0,57.041,0Z" transform="translate(89.115 71.332)" fill="#ff8e8e"/><path d="M1.033,37.91A3.125,3.125,0,1,0,5.45,42.318L43.3-.006Z" transform="translate(20.958 84.836)" fill="#ff8e8e"/><path d="M42.265,5.444A3.125,3.125,0,1,0,38.09.794a3.355,3.355,0,0,0-.241.243L-.006,43.361Z" transform="translate(84.848 20.857)" fill="#ff8e8e"/><path d="M0,0,37.919,42.244a3.092,3.092,0,0,0,.243.243,3.125,3.125,0,0,0,4.168-4.659Z" transform="translate(84.858 84.807)" fill="#ff8e8e"/><path d="M1.042,5.454,43.371,43.282,5.452,1.037A3.126,3.126,0,1,0,.8,5.212,3.37,3.37,0,0,0,1.042,5.454Z" transform="translate(20.874 20.959)" fill="#ff8e8e"/><path d="M2.468.093A1.882,1.882,0,1,0,1.3,3.67l32.5,10.6L2.659.168A1.65,1.65,0,0,0,2.468.093Z" transform="translate(32.578 57.079)" fill="#ff8e8e"/><path d="M33.633,13.168a1.881,1.881,0,0,0-.938-2.49A2.043,2.043,0,0,0,32.5,10.6L0,0,31.142,14.105A1.885,1.885,0,0,0,33.633,13.168Z" transform="translate(82.724 77.696)" fill="#ff8e8e"/><path d="M.089,31.324a1.882,1.882,0,1,0,3.578,1.168L14.282,0,.164,31.132A1.633,1.633,0,0,0,.089,31.324Z" transform="translate(57.092 82.697)" fill="#ff8e8e"/><path d="M13.178.166a1.883,1.883,0,0,0-2.491.938,1.958,1.958,0,0,0-.075.192L0,33.79,14.115,2.656A1.882,1.882,0,0,0,13.178.166Z" transform="translate(77.732 32.563)" fill="#ff8e8e"/><path d="M0,0,12.036,31.988a1.959,1.959,0,0,0,.084.19,1.882,1.882,0,0,0,3.356-1.7Z" transform="translate(78.085 82.545)" fill="#ff8e8e"/><path d="M.2,2.733,15.68,33.207,3.645,1.219A1.883,1.883,0,0,0,.121,2.544,1.934,1.934,0,0,0,.2,2.733Z" transform="translate(55.338 33.295)" fill="#ff8e8e"/><path d="M30.487.2,0,15.679,32,3.638a1.786,1.786,0,0,0,.19-.084A1.881,1.881,0,1,0,30.487.2Z" transform="translate(82.579 55.311)" fill="#ff8e8e"/><path d="M.119,14.46a1.884,1.884,0,0,0,2.425,1.1,1.981,1.981,0,0,0,.189-.084L33.222,0l-32,12.041A1.882,1.882,0,0,0,.119,14.46Z" transform="translate(33.304 78.063)" fill="#ff8e8e"/></g><g transform="translate(514.083 334.202)" opacity="0.43" style="mix-blend-mode:overlay;isolation:isolate"><g transform="translate(0 0)"><path d="M251.46,298.734a61.56,61.56,0,1,1-61.588,61.56A61.643,61.643,0,0,1,251.46,298.734Zm0,119.624a58.064,58.064,0,1,0-58.091-58.063A58.144,58.144,0,0,0,251.46,418.358Z" transform="translate(-189.872 -298.734)" fill="url(#g)"/></g><g transform="translate(8.922 8.918)"><path d="M251.831,308.027a52.642,52.642,0,1,1-52.666,52.642A52.715,52.715,0,0,1,251.831,308.027Zm0,101.788a49.146,49.146,0,1,0-49.168-49.145A49.213,49.213,0,0,0,251.831,409.815Z" transform="translate(-199.165 -308.027)" fill="url(#h)"/></g><g transform="translate(17.843 17.836)"><path d="M252.2,317.32a43.724,43.724,0,1,1-43.745,43.724A43.784,43.784,0,0,1,252.2,317.32Zm0,83.952a40.228,40.228,0,1,0-40.247-40.227A40.282,40.282,0,0,0,252.2,401.272Z" transform="translate(-208.457 -317.32)" fill="url(#i)"/></g><g transform="translate(26.765 26.753)"><path d="M252.573,326.612a34.807,34.807,0,1,1-34.824,34.807A34.854,34.854,0,0,1,252.573,326.612Zm0,66.119a31.312,31.312,0,1,0-31.326-31.311A31.354,31.354,0,0,0,252.573,392.73Z" transform="translate(-217.749 -326.612)" fill="url(#j)"/></g><g transform="translate(35.686 35.67)"><path d="M252.943,335.9a25.89,25.89,0,1,1-25.9,25.89A25.926,25.926,0,0,1,252.943,335.9Zm0,48.283a22.394,22.394,0,1,0-22.4-22.393A22.425,22.425,0,0,0,252.943,384.187Z" transform="translate(-227.041 -335.904)" fill="url(#k)"/></g><g transform="translate(44.607 44.587)"><path d="M253.314,345.2a16.973,16.973,0,1,1-16.981,16.973A17,17,0,0,1,253.314,345.2Zm0,30.449a13.477,13.477,0,1,0-13.484-13.476A13.495,13.495,0,0,0,253.314,375.645Z" transform="translate(-236.333 -345.196)" fill="url(#l)"/></g></g><path d="M241.389,86.808H235.33V80.751h-3.761v6.057h-6.06v3.759h6.06v6.056h3.761V90.567h6.059Z" transform="translate(-146.874 123.461)" fill="#fff" style="mix-blend-mode:overlay;isolation:isolate"/><g transform="translate(1821.154 218.172)" opacity="0.35" style="mix-blend-mode:overlay;isolation:isolate"><path d="M442.487,390.3a23.386,23.386,0,1,1-23.4,23.385A23.418,23.418,0,0,1,442.487,390.3Zm0,40.819a17.433,17.433,0,1,0-17.441-17.433A17.457,17.457,0,0,0,442.487,431.122Z" transform="translate(-419.09 -390.303)" fill="#fff"/><circle cx="8.508" cy="8.508" r="8.508" transform="translate(11.365 23.386) rotate(-45)" fill="#fff"/></g><g transform="translate(1327.79 388.991)" opacity="0.35" style="mix-blend-mode:overlay;isolation:isolate"><path d="M583.759,191.26a23.386,23.386,0,1,1-23.4,23.386A23.418,23.418,0,0,1,583.759,191.26Zm0,40.818a17.433,17.433,0,1,0-17.441-17.433A17.456,17.456,0,0,0,583.759,232.078Z" transform="translate(-560.363 -191.26)" fill="#fff"/><circle cx="8.508" cy="8.508" r="8.508" transform="translate(11.365 23.386) rotate(-45)" fill="#fff"/></g><g transform="translate(696.044 325.818)" opacity="0.15" style="mix-blend-mode:overlay;isolation:isolate"><g transform="translate(0 0)"><path d="M618.806,312.912a16.507,16.507,0,1,1-16.516,16.507A16.53,16.53,0,0,1,618.806,312.912Zm0,28.812a12.305,12.305,0,1,0-12.311-12.306A12.323,12.323,0,0,0,618.806,341.724Z" transform="translate(-602.29 -312.912)" fill="#fff"/></g><path d="M625.248,329.862a6.005,6.005,0,1,1-6.005-6A6,6,0,0,1,625.248,329.862Z" transform="translate(-602.727 -313.354)" fill="#fff"/></g><g transform="translate(625.735 362.677)"><path d="M562.589,417.2a1.347,1.347,0,0,0,1.27-1.42l-1.367-24.433-1.324,24.435a1.354,1.354,0,0,0,1.421,1.417Z" transform="translate(-530.34 -352.936)" fill="#d645a3"/><path d="M563.8,352.741a1.348,1.348,0,0,0-2.691-.146,1.423,1.423,0,0,0,0,.148l1.368,24.432Z" transform="translate(-530.338 -351.321)" fill="#d645a3"/><path d="M593.527,386.062a1.259,1.259,0,0,0,.149,0,1.347,1.347,0,1,0-.151-2.69l-24.445,1.368Z" transform="translate(-530.656 -352.614)" fill="#d645a3"/><path d="M530.333,386.121a1.272,1.272,0,0,0,.149,0l24.444-1.367-24.447-1.322a1.347,1.347,0,1,0-.146,2.69Z" transform="translate(-529.059 -352.617)" fill="#d645a3"/><path d="M585.383,363.045a1.07,1.07,0,0,0,.1-.1,1.347,1.347,0,0,0-2.009-1.8l-16.317,18.243Z" transform="translate(-530.579 -351.699)" fill="#d645a3"/><path d="M538.923,405.775a1.347,1.347,0,1,0,1.9,1.9l16.318-18.243Z" transform="translate(-529.435 -352.859)" fill="#d645a3"/><path d="M557.135,379.4l-16.35-18.213a1.4,1.4,0,0,0-.1-.1,1.347,1.347,0,0,0-1.8,2.008Z" transform="translate(-529.433 -351.701)" fill="#d645a3"/><path d="M585.421,405.733l-18.252-16.31,16.351,18.214a1.347,1.347,0,1,0,2.006-1.8A1.2,1.2,0,0,0,585.421,405.733Z" transform="translate(-530.579 -352.859)" fill="#d645a3"/><path d="M579.721,392.344a.811.811,0,1,0,.5-1.542l-14.014-4.573,13.427,6.082A.859.859,0,0,0,579.721,392.344Z" transform="translate(-530.541 -352.73)" fill="#d645a3"/><path d="M543.764,377.44a.812.812,0,0,0,.4,1.074.714.714,0,0,0,.083.032l14.014,4.573-13.427-6.082A.811.811,0,0,0,543.764,377.44Z" transform="translate(-529.643 -352.356)" fill="#d645a3"/><path d="M570.084,367.016a.811.811,0,0,0-1.543-.5l-4.574,14.007,6.085-13.421A.845.845,0,0,0,570.084,367.016Z" transform="translate(-530.452 -351.911)" fill="#d645a3"/><path d="M555.178,402.968a.811.811,0,0,0,1.073-.4c.012-.027.023-.056.033-.084l4.575-14.006-6.085,13.42A.811.811,0,0,0,555.178,402.968Z" transform="translate(-530.082 -352.82)" fill="#d645a3"/><path d="M560.673,380.6l-5.191-13.79c-.011-.027-.023-.055-.036-.082a.811.811,0,0,0-1.447.734Z" transform="translate(-530.051 -351.925)" fill="#d645a3"/><path d="M570.8,401.545l-6.673-13.138,5.191,13.79a.811.811,0,1,0,1.519-.571A.742.742,0,0,0,570.8,401.545Z" transform="translate(-530.458 -352.818)" fill="#d645a3"/><path d="M545.2,393.061l13.144-6.672-13.8,5.189a.631.631,0,0,0-.082.036.811.811,0,1,0,.734,1.446Z" transform="translate(-529.656 -352.736)" fill="#d645a3"/><path d="M580.415,376.7a.811.811,0,0,0-1.045-.473c-.029.011-.056.023-.082.036l-13.144,6.671,13.8-5.189A.81.81,0,0,0,580.415,376.7Z" transform="translate(-530.538 -352.324)" fill="#d645a3"/></g><g transform="translate(1171.329 16.276)" opacity="0.32" style="mix-blend-mode:overlay;isolation:isolate"><path d="M479,203.5a63.869,63.869,0,1,1,63.9-63.869A63.957,63.957,0,0,1,479,203.5Zm0-124.111a60.242,60.242,0,1,0,60.271,60.242A60.324,60.324,0,0,0,479,79.388Z" transform="translate(-415.106 -75.761)" fill="url(#m)"/><g transform="translate(9.256 9.253)"><path d="M479.389,194.637a54.617,54.617,0,1,1,54.643-54.617A54.692,54.692,0,0,1,479.389,194.637Zm0-105.607a50.99,50.99,0,1,0,51.015,50.99A51.06,51.06,0,0,0,479.389,89.029Z" transform="translate(-424.747 -85.403)" fill="url(#n)"/></g><g transform="translate(18.513 18.505)"><path d="M479.774,185.774a45.365,45.365,0,1,1,45.388-45.365A45.426,45.426,0,0,1,479.774,185.774Zm0-87.1a41.737,41.737,0,1,0,41.758,41.737A41.793,41.793,0,0,0,479.774,98.671Z" transform="translate(-434.388 -95.044)" fill="url(#o)"/></g><g transform="translate(27.769 27.756)"><path d="M480.158,176.911A36.113,36.113,0,1,1,516.29,140.8,36.162,36.162,0,0,1,480.158,176.911Zm0-68.6a32.486,32.486,0,1,0,32.5,32.486A32.53,32.53,0,0,0,480.158,108.311Z" transform="translate(-444.029 -104.684)" fill="url(#p)"/></g><g transform="translate(37.025 37.009)"><path d="M480.543,168.048a26.861,26.861,0,1,1,26.875-26.861A26.9,26.9,0,0,1,480.543,168.048Zm0-50.1a23.234,23.234,0,1,0,23.247,23.234A23.266,23.266,0,0,0,480.543,117.952Z" transform="translate(-453.67 -114.326)" fill="url(#q)"/></g><g transform="translate(46.281 46.26)"><path d="M480.928,159.186a17.61,17.61,0,1,1,17.619-17.611A17.634,17.634,0,0,1,480.928,159.186Zm0-31.592a13.982,13.982,0,1,0,13.99,13.982A14,14,0,0,0,480.928,127.593Z" transform="translate(-463.311 -123.966)" fill="url(#r)"/></g></g><g transform="translate(0 33.045)" opacity="0.28"><g transform="translate(0 0)"><g transform="translate(30.542)"><path d="M546.884,121.306c.471,1.764.838,3.529,1.175,5.293s.616,3.529.875,5.293c.229,1.764.5,3.529.635,5.293a22.888,22.888,0,0,1-.162,5.293c-.387,2.323-2.24,3.824-4.14,3.352a3.99,3.99,0,0,1-2.742-3.352,22.874,22.874,0,0,1-.162-5.293c.13-1.765.407-3.53.635-5.293.258-1.765.542-3.53.875-5.293s.7-3.53,1.175-5.293a.941.941,0,0,1,1.217-.755A1.106,1.106,0,0,1,546.884,121.306Z" transform="translate(-542.285 -77.503)" fill="#fff"/><path d="M545.048,100.308c-.471-1.764-.838-3.529-1.175-5.293s-.616-3.529-.875-5.293c-.229-1.764-.505-3.529-.635-5.293a22.876,22.876,0,0,1,.162-5.293c.387-2.323,2.24-3.824,4.14-3.352a3.989,3.989,0,0,1,2.742,3.352,22.889,22.889,0,0,1,.162,5.293c-.131,1.765-.406,3.53-.635,5.293-.258,1.765-.542,3.53-.875,5.293s-.7,3.53-1.175,5.293a.941.941,0,0,1-1.217.755A1.106,1.106,0,0,1,545.048,100.308Z" transform="translate(-542.285 -75.696)" fill="#fff"/></g><g transform="translate(0 30.528)"><path d="M556.083,110.27c1.766-.471,3.531-.839,5.3-1.176s3.531-.615,5.3-.874c1.766-.228,3.531-.5,5.3-.635a22.88,22.88,0,0,1,5.3.163c2.324.386,3.825,2.239,3.353,4.138a3.985,3.985,0,0,1-3.353,2.74,22.877,22.877,0,0,1-5.3.163c-1.765-.131-3.53-.407-5.3-.635-1.765-.259-3.53-.542-5.3-.874s-3.53-.7-5.3-1.176a.94.94,0,0,1-.755-1.217A1.108,1.108,0,0,1,556.083,110.27Z" transform="translate(-512.261 -107.507)" fill="#fff"/><path d="M535.1,112.1c-1.766.471-3.53.839-5.3,1.176s-3.53.615-5.3.874c-1.766.228-3.531.5-5.3.635a22.865,22.865,0,0,1-5.3-.163c-2.325-.386-3.826-2.239-3.354-4.138a3.986,3.986,0,0,1,3.354-2.74,22.868,22.868,0,0,1,5.3-.163c1.765.131,3.53.407,5.3.635,1.766.259,3.53.542,5.3.874s3.53.7,5.3,1.176a.94.94,0,0,1,.755,1.217A1.1,1.1,0,0,1,535.1,112.1Z" transform="translate(-510.474 -107.507)" fill="#fff"/></g><g transform="translate(13.121 13.115)"><path d="M551.492,104.2c.77-1.33,1.6-2.6,2.451-3.848s1.734-2.465,2.629-3.669c.914-1.186,1.8-2.4,2.773-3.527a19.207,19.207,0,0,1,3.247-3.053c1.612-1.153,3.608-.942,4.458.467a3.354,3.354,0,0,1-.365,3.625,19.274,19.274,0,0,1-3.053,3.246c-1.128.972-2.342,1.857-3.528,2.77-1.2.9-2.422,1.777-3.671,2.629s-2.519,1.68-3.85,2.449a.79.79,0,0,1-1.173-.274A.93.93,0,0,1,551.492,104.2Z" transform="translate(-525.225 -89.362)" fill="#fff"/><path d="M540.078,117.806c-.769,1.33-1.6,2.6-2.451,3.847s-1.734,2.465-2.63,3.669c-.914,1.186-1.8,2.4-2.773,3.527a19.2,19.2,0,0,1-3.247,3.053c-1.612,1.152-3.608.943-4.457-.467a3.351,3.351,0,0,1,.364-3.625,19.314,19.314,0,0,1,3.053-3.246c1.128-.971,2.343-1.857,3.528-2.771,1.2-.9,2.423-1.777,3.67-2.629s2.519-1.68,3.85-2.449a.791.791,0,0,1,1.174.274A.933.933,0,0,1,540.078,117.806Z" transform="translate(-524.14 -90.46)" fill="#fff"/></g><g transform="translate(13.121 13.115)"><path d="M538.986,105.292c-1.331-.769-2.6-1.6-3.85-2.449s-2.466-1.733-3.67-2.629c-1.186-.914-2.4-1.8-3.528-2.771a19.266,19.266,0,0,1-3.053-3.245c-1.153-1.612-.944-3.606.468-4.456a3.357,3.357,0,0,1,3.625.364,19.2,19.2,0,0,1,3.247,3.053c.973,1.127,1.859,2.341,2.773,3.527.9,1.2,1.778,2.421,2.63,3.669s1.682,2.518,2.451,3.848a.79.79,0,0,1-.275,1.173A.931.931,0,0,1,538.986,105.292Z" transform="translate(-524.14 -89.362)" fill="#fff"/><path d="M552.584,116.715c1.331.769,2.6,1.6,3.85,2.449s2.467,1.733,3.671,2.629c1.187.914,2.4,1.8,3.528,2.771a19.307,19.307,0,0,1,3.053,3.246c1.153,1.612.944,3.606-.468,4.456a3.357,3.357,0,0,1-3.625-.364,19.206,19.206,0,0,1-3.247-3.053c-.973-1.127-1.859-2.341-2.773-3.527-.9-1.2-1.777-2.421-2.63-3.669s-1.681-2.517-2.451-3.847a.792.792,0,0,1,.274-1.174A.932.932,0,0,1,552.584,116.715Z" transform="translate(-525.225 -90.46)" fill="#fff"/></g></g><g transform="translate(5.203 5.625)"><g transform="translate(15.961)"><path d="M532.525,139.369a4.677,4.677,0,0,1,.4-2.084,9.534,9.534,0,0,1,1.05-1.821,16.885,16.885,0,0,1,1.356-1.7,11.761,11.761,0,0,1,1.708-1.554.347.347,0,0,1,.485.079.337.337,0,0,1,.06.142,11.69,11.69,0,0,1,.143,2.3,16.857,16.857,0,0,1-.209,2.161,9.458,9.458,0,0,1-.515,2.038,4.661,4.661,0,0,1-1.163,1.775,1.984,1.984,0,0,1-3.315-1.343Z" transform="translate(-532.517 -83.599)" fill="#fff"/><path d="M555.783,82.074a4.666,4.666,0,0,0-1.164,1.775,9.492,9.492,0,0,0-.515,2.037,16.873,16.873,0,0,0-.209,2.162,11.661,11.661,0,0,0,.143,2.3.347.347,0,0,0,.545.221,11.726,11.726,0,0,0,1.708-1.554,16.821,16.821,0,0,0,1.356-1.7,9.523,9.523,0,0,0,1.05-1.82,4.678,4.678,0,0,0,.4-2.084,1.983,1.983,0,0,0-3.315-1.343Z" transform="translate(-533.37 -81.557)" fill="#fff"/></g><g transform="translate(0 15.954)"><path d="M573.708,124.761a4.679,4.679,0,0,1-2.084-.4,9.475,9.475,0,0,1-1.822-1.05,16.883,16.883,0,0,1-1.7-1.354,11.734,11.734,0,0,1-1.555-1.708.347.347,0,0,1,.079-.485.353.353,0,0,1,.142-.06,11.711,11.711,0,0,1,2.306-.144,16.7,16.7,0,0,1,2.162.21,9.487,9.487,0,0,1,2.039.513,4.7,4.7,0,0,1,1.776,1.163,1.983,1.983,0,0,1-1.344,3.315Z" transform="translate(-517.912 -99.044)" fill="#fff"/><path d="M516.41,101.5a4.683,4.683,0,0,0,1.775,1.164,9.5,9.5,0,0,0,2.039.513,16.709,16.709,0,0,0,2.162.21,11.784,11.784,0,0,0,2.306-.144.347.347,0,0,0,.281-.4.359.359,0,0,0-.06-.142,11.707,11.707,0,0,0-1.555-1.708,16.907,16.907,0,0,0-1.7-1.354,9.474,9.474,0,0,0-1.823-1.05,4.676,4.676,0,0,0-2.084-.4,1.982,1.982,0,0,0-1.344,3.314Z" transform="translate(-515.893 -98.181)" fill="#fff"/></g><g transform="translate(0.168 0.169)"><g transform="translate(15.387)"><path d="M556.227,140.559a4.669,4.669,0,0,1-1.191-1.757,9.518,9.518,0,0,1-.545-2.03,16.755,16.755,0,0,1-.242-2.158,11.7,11.7,0,0,1,.109-2.307.346.346,0,0,1,.4-.286.337.337,0,0,1,.143.058,11.68,11.68,0,0,1,1.731,1.528,16.857,16.857,0,0,1,1.381,1.676,9.527,9.527,0,0,1,1.078,1.805,4.684,4.684,0,0,1,.432,2.078,1.983,1.983,0,0,1-3.294,1.393Z" transform="translate(-532.978 -83.762)" fill="#fff"/><path d="M532.1,83.624a4.69,4.69,0,0,0,.432,2.078,9.564,9.564,0,0,0,1.078,1.805,16.809,16.809,0,0,0,1.382,1.676,11.674,11.674,0,0,0,1.731,1.528.348.348,0,0,0,.484-.086.337.337,0,0,0,.058-.143,11.67,11.67,0,0,0,.109-2.306,16.777,16.777,0,0,0-.242-2.158,9.532,9.532,0,0,0-.545-2.03,4.682,4.682,0,0,0-1.192-1.757,1.983,1.983,0,0,0-3.294,1.393Z" transform="translate(-532.095 -81.733)" fill="#fff"/></g><g transform="translate(0 15.379)"><path d="M574.9,101.056a4.682,4.682,0,0,1-1.758,1.19,9.483,9.483,0,0,1-2.031.545,16.768,16.768,0,0,1-2.158.243,11.775,11.775,0,0,1-2.308-.108.347.347,0,0,1-.287-.4.356.356,0,0,1,.058-.143,11.784,11.784,0,0,1,1.529-1.731,16.716,16.716,0,0,1,1.677-1.38,9.421,9.421,0,0,1,1.805-1.078,4.682,4.682,0,0,1,2.078-.433,1.983,1.983,0,0,1,1.4,3.294Z" transform="translate(-518.075 -97.759)" fill="#fff"/><path d="M517.961,125.184a4.681,4.681,0,0,0,2.078-.433,9.423,9.423,0,0,0,1.805-1.078,16.713,16.713,0,0,0,1.677-1.38,11.771,11.771,0,0,0,1.53-1.731.348.348,0,0,0-.087-.484.374.374,0,0,0-.143-.058,11.781,11.781,0,0,0-2.307-.108,16.765,16.765,0,0,0-2.159.243,9.489,9.489,0,0,0-2.032.545,4.682,4.682,0,0,0-1.758,1.19,1.983,1.983,0,0,0,1.4,3.293Z" transform="translate(-516.068 -98.652)" fill="#fff"/></g></g></g></g><path d="M338.594,459.668h6.059v6.057h3.761v-6.057h6.06v-3.759h-6.06v-6.056h-3.761v6.056h-6.059Z" transform="translate(104.276 7.38)" fill="#fff" style="mix-blend-mode:overlay;isolation:isolate"/><g transform="translate(1487.578 228.685)" opacity="0.24"><path d="M672.268,217.946a1.14,1.14,0,0,0-1.075,1.2l1.157,20.662,1.119-20.664c0-.041,0-.083,0-.125A1.139,1.139,0,0,0,672.268,217.946Z" transform="translate(-645.17 -217.944)" fill="#ff8e8e" stroke="rgba(0,0,0,0)" stroke-width="1"/><path d="M671.274,293.194a1.14,1.14,0,0,0,2.276.123,1.236,1.236,0,0,0,0-.125l-1.157-20.663Z" transform="translate(-645.203 -240.05)" fill="#ff8e8e" stroke="rgba(0,0,0,0)" stroke-width="1"/><path d="M628.681,261.738a1.23,1.23,0,0,0-.125,0,1.139,1.139,0,1,0,.127,2.275l20.672-1.156Z" transform="translate(-627.48 -235.679)" fill="#ff8e8e" stroke="rgba(0,0,0,0)" stroke-width="1"/><path d="M702.864,261.658a1.1,1.1,0,0,0-.125,0l-20.672,1.157,20.674,1.118a1.139,1.139,0,1,0,.123-2.275Z" transform="translate(-649.571 -235.646)" fill="#ff8e8e" stroke="rgba(0,0,0,0)" stroke-width="1"/><path d="M640.7,283.745a1.139,1.139,0,1,0,1.611,1.606l13.8-15.428Z" transform="translate(-632.678 -238.995)" fill="#ff8e8e" stroke="rgba(0,0,0,0)" stroke-width="1"/><path d="M694.859,232.718a1.14,1.14,0,0,0-1.523-1.7,1.213,1.213,0,0,0-.088.089l-13.8,15.428Z" transform="translate(-648.511 -223.122)" fill="#ff8e8e" stroke="rgba(0,0,0,0)" stroke-width="1"/><path d="M679.46,269.912l13.828,15.4a1.113,1.113,0,0,0,.089.088,1.139,1.139,0,1,0,1.519-1.7Z" transform="translate(-648.516 -238.99)" fill="#ff8e8e" stroke="rgba(0,0,0,0)" stroke-width="1"/><path d="M640.647,232.776l15.436,13.793-13.828-15.4a1.139,1.139,0,0,0-1.7,1.521A1.168,1.168,0,0,0,640.647,232.776Z" transform="translate(-632.655 -223.145)" fill="#ff8e8e" stroke="rgba(0,0,0,0)" stroke-width="1"/><path d="M648.337,252.952a.686.686,0,1,0-.426,1.3l11.851,3.867-11.355-5.144C648.385,252.969,648.361,252.96,648.337,252.952Z" transform="translate(-635.557 -232.108)" fill="#ff8e8e" stroke="rgba(0,0,0,0)" stroke-width="1"/><path d="M690.416,270.358a.686.686,0,0,0-.342-.908c-.023-.01-.047-.019-.07-.027l-11.851-3.867,11.355,5.143A.686.686,0,0,0,690.416,270.358Z" transform="translate(-647.987 -237.226)" fill="#ff8e8e" stroke="rgba(0,0,0,0)" stroke-width="1"/><path d="M662.488,280.037a.686.686,0,0,0,1.3.426l3.869-11.846-5.146,11.349C662.505,279.989,662.5,280.013,662.488,280.037Z" transform="translate(-641.634 -238.466)" fill="#ff8e8e" stroke="rgba(0,0,0,0)" stroke-width="1"/><path d="M679.9,237.963a.686.686,0,0,0-.908.342c-.01.023-.019.047-.027.07l-3.869,11.846,5.146-11.349A.686.686,0,0,0,679.9,237.963Z" transform="translate(-646.749 -226.026)" fill="#ff8e8e" stroke="rgba(0,0,0,0)" stroke-width="1"/><path d="M675.312,268.526l4.39,11.663c.009.023.019.046.03.069a.686.686,0,0,0,1.224-.621Z" transform="translate(-646.838 -238.429)" fill="#ff8e8e" stroke="rgba(0,0,0,0)" stroke-width="1"/><path d="M661.45,239.345l5.644,11.111-4.39-11.662a.686.686,0,0,0-1.285.483A.632.632,0,0,0,661.45,239.345Z" transform="translate(-641.198 -226.208)" fill="#ff8e8e" stroke="rgba(0,0,0,0)" stroke-width="1"/><path d="M689.177,251.914l-11.115,5.641,11.668-4.388a.634.634,0,0,0,.069-.03.686.686,0,1,0-.622-1.223Z" transform="translate(-647.95 -231.671)" fill="#ff8e8e" stroke="rgba(0,0,0,0)" stroke-width="1"/><path d="M647.929,271.047a.686.686,0,0,0,.884.4.7.7,0,0,0,.069-.03L660,265.776l-11.668,4.388A.686.686,0,0,0,647.929,271.047Z" transform="translate(-635.738 -237.315)" fill="#ff8e8e" stroke="rgba(0,0,0,0)" stroke-width="1"/><g transform="translate(5.26 3.982)"><path d="M655.9,226.03a1.395,1.395,0,1,1,1.395,1.394A1.394,1.394,0,0,1,655.9,226.03Z" transform="translate(-644.24 -224.636)" fill="#ff8e8e" stroke="rgba(0,0,0,0)" stroke-width="1"/><path d="M684.012,227.2a1.395,1.395,0,1,1,1.395,1.394A1.395,1.395,0,0,1,684.012,227.2Z" transform="translate(-655.619 -225.111)" fill="#ff8e8e" stroke="rgba(0,0,0,0)" stroke-width="1"/><ellipse cx="1.395" cy="1.394" rx="1.395" ry="1.394" transform="translate(29.44 42.072)" fill="#ff8e8e" stroke="rgba(0,0,0,0)" stroke-width="1"/><ellipse cx="1.395" cy="1.394" rx="1.395" ry="1.394" transform="translate(40.797 29.326)" fill="#ff8e8e" stroke="rgba(0,0,0,0)" stroke-width="1"/><ellipse cx="1.395" cy="1.394" rx="1.395" ry="1.394" transform="translate(0.299 13.842)" fill="#ff8e8e" stroke="rgba(0,0,0,0)" stroke-width="1"/><path d="M705.1,247.786a1.395,1.395,0,1,1,1.395,1.394A1.394,1.394,0,0,1,705.1,247.786Z" transform="translate(-664.152 -233.447)" fill="#ff8e8e" stroke="rgba(0,0,0,0)" stroke-width="1"/><path d="M656.65,296.486a1.395,1.395,0,1,1,1.395,1.394A1.394,1.394,0,0,1,656.65,296.486Z" transform="translate(-644.545 -253.169)" fill="#ff8e8e" stroke="rgba(0,0,0,0)" stroke-width="1"/><path d="M636.316,275.4a1.395,1.395,0,1,1,1.395,1.394A1.394,1.394,0,0,1,636.316,275.4Z" transform="translate(-636.316 -244.629)" fill="#ff8e8e" stroke="rgba(0,0,0,0)" stroke-width="1"/></g></g><g transform="translate(1552.426 42.174)" opacity="0.24"><g transform="translate(0)"><path d="M77.109,224.616A3.088,3.088,0,0,0,74.2,227.87l3.137,56,3.033-56.009c0-.111.006-.226,0-.34A3.089,3.089,0,0,0,77.109,224.616Z" transform="translate(-3.663 -224.611)" fill="#ffa7a7" stroke="rgba(0,0,0,0)" stroke-width="1"/><path d="M74.277,335.206a3.09,3.09,0,0,0,6.17.334,3.378,3.378,0,0,0,0-.339l-3.137-56Z" transform="translate(-3.614 -191.164)" fill="#ffa7a7" stroke="rgba(0,0,0,0)" stroke-width="1"/><path d="M33.736,268.408a2.974,2.974,0,0,0-.339,0,3.088,3.088,0,1,0,.345,6.165l56.029-3.134Z" transform="translate(-30.48 -197.778)" fill="#ffa7a7" stroke="rgba(0,0,0,0)" stroke-width="1"/><path d="M141.436,268.328a2.907,2.907,0,0,0-.34,0l-56.029,3.133,56.035,3.032a3.087,3.087,0,1,0,.334-6.165Z" transform="translate(3.009 -197.827)" fill="#ffa7a7" stroke="rgba(0,0,0,0)" stroke-width="1"/><path d="M44.349,314.051a3.036,3.036,0,0,0-.239.24,3.088,3.088,0,1,0,4.6,4.116l37.4-41.817Z" transform="translate(-22.6 -192.761)" fill="#ffa7a7" stroke="rgba(0,0,0,0)" stroke-width="1"/><path d="M124.217,242.784a3.089,3.089,0,1,0-4.127-4.6,3.36,3.36,0,0,0-.239.24l-37.4,41.815Z" transform="translate(1.402 -216.777)" fill="#ffa7a7" stroke="rgba(0,0,0,0)" stroke-width="1"/><path d="M82.46,276.579l37.478,41.747a3.088,3.088,0,1,0,4.358-4.363Z" transform="translate(1.41 -192.768)" fill="#ffa7a7" stroke="rgba(0,0,0,0)" stroke-width="1"/><path d="M44.3,242.844l41.836,37.383L48.655,238.48a3.088,3.088,0,0,0-4.6,4.124A3.367,3.367,0,0,0,44.3,242.844Z" transform="translate(-22.635 -216.742)" fill="#ffa7a7" stroke="rgba(0,0,0,0)" stroke-width="1"/><path d="M52.876,259.677a1.86,1.86,0,1,0-1.155,3.535l32.121,10.481L53.066,259.751A1.893,1.893,0,0,0,52.876,259.677Z" transform="translate(-18.236 -203.181)" fill="#ffa7a7" stroke="rgba(0,0,0,0)" stroke-width="1"/><path d="M114.391,285.238a1.859,1.859,0,0,0-.926-2.461c-.063-.028-.128-.053-.19-.074L81.153,272.222l30.776,13.942A1.86,1.86,0,0,0,114.391,285.238Z" transform="translate(0.608 -195.438)" fill="#ffa7a7" stroke="rgba(0,0,0,0)" stroke-width="1"/><path d="M65.547,306.236a1.859,1.859,0,0,0,3.535,1.153l10.486-32.1L65.62,306.045C65.594,306.105,65.568,306.17,65.547,306.236Z" transform="translate(-9.023 -193.562)" fill="#ffa7a7" stroke="rgba(0,0,0,0)" stroke-width="1"/><path d="M91.113,244.735a1.861,1.861,0,0,0-2.462.926,1.913,1.913,0,0,0-.073.19l-10.486,32.1,13.947-30.761A1.856,1.856,0,0,0,91.113,244.735Z" transform="translate(-1.27 -212.382)" fill="#ffa7a7" stroke="rgba(0,0,0,0)" stroke-width="1"/><path d="M78.312,275.193l11.9,31.61a1.885,1.885,0,0,0,.084.187,1.859,1.859,0,0,0,3.316-1.684Z" transform="translate(-1.135 -193.617)" fill="#ffa7a7" stroke="rgba(0,0,0,0)" stroke-width="1"/><path d="M64.578,247.716l15.3,30.113-11.9-31.61a1.86,1.86,0,0,0-3.482,1.31A1.78,1.78,0,0,0,64.578,247.716Z" transform="translate(-9.685 -212.109)" fill="#ffa7a7" stroke="rgba(0,0,0,0)" stroke-width="1"/><path d="M111.189,258.708,81.062,274l31.625-11.894a1.758,1.758,0,0,0,.187-.082,1.86,1.86,0,0,0-1.685-3.316Z" transform="translate(0.552 -203.842)" fill="#ffa7a7" stroke="rgba(0,0,0,0)" stroke-width="1"/><path d="M51,286.731a1.861,1.861,0,0,0,2.4,1.085c.063-.024.127-.053.187-.082l30.127-15.292L52.09,284.336A1.859,1.859,0,0,0,51,286.731Z" transform="translate(-17.962 -195.303)" fill="#ffa7a7" stroke="rgba(0,0,0,0)" stroke-width="1"/></g><g transform="translate(14.257 10.792)"><path d="M58.9,235.082a3.78,3.78,0,1,1,3.78,3.779A3.78,3.78,0,0,1,58.9,235.082Z" transform="translate(-27.303 -231.303)" fill="#ffa7a7" stroke="rgba(0,0,0,0)" stroke-width="1"/><path d="M87.012,236.253a3.78,3.78,0,1,1,3.78,3.779A3.78,3.78,0,0,1,87.012,236.253Z" transform="translate(-10.055 -230.585)" fill="#ffa7a7" stroke="rgba(0,0,0,0)" stroke-width="1"/><ellipse cx="3.78" cy="3.778" rx="3.78" ry="3.778" transform="translate(79.793 114.031)" fill="#ffa7a7" stroke="rgba(0,0,0,0)" stroke-width="1"/><path d="M107.847,284.367a3.78,3.78,0,1,1,3.78,3.778A3.779,3.779,0,0,1,107.847,284.367Z" transform="translate(2.728 -201.104)" fill="#ffa7a7" stroke="rgba(0,0,0,0)" stroke-width="1"/><path d="M39.819,258.344a3.78,3.78,0,1,1,3.779,3.779A3.779,3.779,0,0,1,39.819,258.344Z" transform="translate(-39.007 -217.049)" fill="#ffa7a7" stroke="rgba(0,0,0,0)" stroke-width="1"/><path d="M108.1,256.838a3.78,3.78,0,1,1,3.78,3.779A3.779,3.779,0,0,1,108.1,256.838Z" transform="translate(2.881 -217.972)" fill="#ffa7a7" stroke="rgba(0,0,0,0)" stroke-width="1"/><path d="M59.65,305.538a3.78,3.78,0,1,1,3.78,3.777A3.781,3.781,0,0,1,59.65,305.538Z" transform="translate(-26.841 -188.133)" fill="#ffa7a7" stroke="rgba(0,0,0,0)" stroke-width="1"/><path d="M39.316,284.451a3.78,3.78,0,1,1,3.78,3.779A3.78,3.78,0,0,1,39.316,284.451Z" transform="translate(-39.316 -201.053)" fill="#ffa7a7" stroke="rgba(0,0,0,0)" stroke-width="1"/></g></g></g></g></svg>
