<svg xmlns="http://www.w3.org/2000/svg" width="80" height="80" viewBox="0 0 80 80"><defs><style>.a,.d{fill:none;}.a{stroke:#ff9c39;stroke-width:8px;}.b{fill:#ff9c39;}.c{stroke:none;}</style></defs><g transform="translate(-536 -1771)"><g class="a" transform="translate(536 1771)"><circle class="c" cx="40" cy="40" r="40"/><circle class="d" cx="40" cy="40" r="36"/></g><path class="b" d="M12.707,5.54,9.956,2.789A20.055,20.055,0,0,0,2.03,17.89H5.877A16.247,16.247,0,0,1,12.707,5.54ZM36.542,17.89h3.847a20.177,20.177,0,0,0-7.926-15.1L29.732,5.54A16.343,16.343,0,0,1,36.542,17.89Zm-3.79.962C32.752,12.946,29.6,8,24.1,6.694V5.386a2.886,2.886,0,1,0-5.771,0V6.694C12.8,8,9.667,12.927,9.667,18.852V28.47L5.82,32.318v1.924H36.6V32.318L32.752,28.47ZM21.21,40.013a3.369,3.369,0,0,0,.769-.077,3.9,3.9,0,0,0,2.77-2.27,3.862,3.862,0,0,0,.289-1.5H17.343A3.875,3.875,0,0,0,21.21,40.013Z" transform="translate(554.816 1791.303)"/></g></svg>