<svg xmlns="http://www.w3.org/2000/svg" width="55.999" height="55.999" viewBox="0 0 55.999 55.999">
  <g id="_icon_attention" transform="translate(3964.999 14353)" fill="none">
    <path d="M-3947.9-14299.2a27.857,27.857,0,0,1-8.9-6,27.842,27.842,0,0,1-6-8.9,27.8,27.8,0,0,1-2.2-10.9,27.768,27.768,0,0,1,2.2-10.9,27.816,27.816,0,0,1,6-8.9,27.873,27.873,0,0,1,8.9-6,27.787,27.787,0,0,1,10.9-2.2,27.782,27.782,0,0,1,10.9,2.2,27.869,27.869,0,0,1,8.9,6,27.882,27.882,0,0,1,6,8.9,27.829,27.829,0,0,1,2.2,10.9,27.861,27.861,0,0,1-2.2,10.9,27.908,27.908,0,0,1-6,8.9,27.853,27.853,0,0,1-8.9,6,27.834,27.834,0,0,1-10.9,2.2A27.839,27.839,0,0,1-3947.9-14299.2Zm-13.1-25.8a24.028,24.028,0,0,0,24,24,24.028,24.028,0,0,0,24-24,24.028,24.028,0,0,0-24-24A24.028,24.028,0,0,0-3961-14325Zm21.6,9.621a2.9,2.9,0,0,1,2.9-2.9,2.9,2.9,0,0,1,2.9,2.9,2.9,2.9,0,0,1-2.9,2.9A2.9,2.9,0,0,1-3939.4-14315.379Zm0-8.292v-9.945a2.9,2.9,0,0,1,2.9-2.9,2.9,2.9,0,0,1,2.9,2.9v9.945a2.9,2.9,0,0,1-2.9,2.9A2.9,2.9,0,0,1-3939.4-14323.671Z" stroke="none"/>
    <path d="M -3936.999755859375 -14297.0009765625 C -3940.781982421875 -14297.0009765625 -3944.448974609375 -14297.7431640625 -3947.89990234375 -14299.2021484375 C -3951.2353515625 -14300.6103515625 -3954.228759765625 -14302.630859375 -3956.80078125 -14305.203125 C -3959.37255859375 -14307.771484375 -3961.389892578125 -14310.7685546875 -3962.79833984375 -14314.1005859375 C -3964.2607421875 -14317.5546875 -3964.999267578125 -14321.2216796875 -3964.999267578125 -14325 C -3964.999267578125 -14328.779296875 -3964.2607421875 -14332.4462890625 -3962.79833984375 -14335.896484375 C -3961.389892578125 -14339.232421875 -3959.37255859375 -14342.2294921875 -3956.80078125 -14344.7978515625 C -3954.228759765625 -14347.369140625 -3951.2353515625 -14349.390625 -3947.89990234375 -14350.798828125 C -3944.448974609375 -14352.2607421875 -3940.781982421875 -14353 -3936.999755859375 -14353 C -3933.22119140625 -14353 -3929.55419921875 -14352.2607421875 -3926.103271484375 -14350.798828125 C -3922.767822265625 -14349.390625 -3919.7744140625 -14347.369140625 -3917.20263671875 -14344.7978515625 C -3914.630615234375 -14342.2294921875 -3912.613525390625 -14339.232421875 -3911.201416015625 -14335.896484375 C -3909.742431640625 -14332.4462890625 -3909.00048828125 -14328.779296875 -3909.00048828125 -14325 C -3909.00048828125 -14321.2216796875 -3909.742431640625 -14317.5546875 -3911.201416015625 -14314.1005859375 C -3912.613525390625 -14310.7685546875 -3914.630615234375 -14307.771484375 -3917.20263671875 -14305.203125 C -3919.7744140625 -14302.630859375 -3922.767822265625 -14300.6103515625 -3926.103271484375 -14299.2021484375 C -3929.55419921875 -14297.7431640625 -3933.22119140625 -14297.0009765625 -3936.999755859375 -14297.0009765625 Z M -3936.999755859375 -14349.0009765625 C -3950.234130859375 -14349.0009765625 -3961.000732421875 -14338.234375 -3961.000732421875 -14325 C -3961.000732421875 -14311.765625 -3950.234130859375 -14300.9990234375 -3936.999755859375 -14300.9990234375 C -3923.765625 -14300.9990234375 -3912.998779296875 -14311.765625 -3912.998779296875 -14325 C -3912.998779296875 -14338.234375 -3923.765625 -14349.0009765625 -3936.999755859375 -14349.0009765625 Z M -3936.502685546875 -14312.4794921875 C -3938.10205078125 -14312.4794921875 -3939.40234375 -14313.7763671875 -3939.40234375 -14315.37890625 C -3939.40234375 -14316.9814453125 -3938.10205078125 -14318.2822265625 -3936.502685546875 -14318.2822265625 C -3934.899658203125 -14318.2822265625 -3933.599365234375 -14316.9814453125 -3933.599365234375 -14315.37890625 C -3933.599365234375 -14313.7763671875 -3934.899658203125 -14312.4794921875 -3936.502685546875 -14312.4794921875 Z M -3936.502685546875 -14320.767578125 C -3938.10205078125 -14320.767578125 -3939.40234375 -14322.068359375 -3939.40234375 -14323.6708984375 L -3939.40234375 -14333.6162109375 C -3939.40234375 -14335.22265625 -3938.10205078125 -14336.51953125 -3936.502685546875 -14336.51953125 C -3934.899658203125 -14336.51953125 -3933.599365234375 -14335.22265625 -3933.599365234375 -14333.6162109375 L -3933.599365234375 -14323.6708984375 C -3933.599365234375 -14322.068359375 -3934.899658203125 -14320.767578125 -3936.502685546875 -14320.767578125 Z" stroke="none" fill="#a8a8a8"/>
  </g>
</svg>
