<svg xmlns="http://www.w3.org/2000/svg" width="80.005" height="80.005" viewBox="0 0 80.005 80.005"><defs><style>.a{fill:#17d281;}</style></defs><g transform="translate(-2 -2)"><path class="a" d="M41.962,2A40,40,0,1,0,82,42,39.983,39.983,0,0,0,41.962,2ZM42,74A32,32,0,1,1,74,42,31.993,31.993,0,0,1,42,74Z"/><path class="a" d="M140.928,188.141l-17.992,17.992a3.6,3.6,0,0,1-5.088,0l-10.8-10.8a3.6,3.6,0,0,1,5.088-5.088l8.251,8.251,15.448-15.448a3.6,3.6,0,1,1,5.088,5.088Zm0,0" transform="translate(-81.535 -152.198)"/></g></svg>