<svg xmlns="http://www.w3.org/2000/svg" xmlns:xlink="http://www.w3.org/1999/xlink" width="349" height="432" viewBox="0 0 349 432"><defs><style>.a,.f,.g,.i{fill:#fff;}.b{clip-path:url(#a);}.c{opacity:0.058;fill:url(#b);}.d{fill:#ffde55;}.e{fill:#e692fa;}.f{opacity:0.394;}.g{opacity:0.383;}.h{fill:#ffe08b;}.i{opacity:0.172;}.j{fill:#ff8ef6;}</style><clipPath id="a"><rect class="a" width="349" height="432" rx="22" transform="translate(13 11)"/></clipPath><radialGradient id="b" cx="0.5" cy="0.5" r="0.5" gradientUnits="objectBoundingBox"><stop offset="0" stop-color="#fff" stop-opacity="0"/><stop offset="0.209" stop-color="#fff" stop-opacity="0"/><stop offset="0.431" stop-color="#fff" stop-opacity="0.141"/><stop offset="1" stop-color="#fff"/></radialGradient></defs><g transform="translate(-13 -72)"><g class="b" transform="translate(0 61)"><path class="c" d="M470.606,1051.959l56.2-504.569-93.8,499.035-42.99-9.926,135.89-494.853L353.327,1025.122l-40.908-16.529L527.584,533.279l.037-.179-.853,1.248-1.128,2.381.613-1.627-1.48,2.166,1.936-3.4-.33.428L276.537,991.685l-37.82-22.723L515.9,547.873,208.084,946.939l-33.8-28.361L525.373,533.486l.305-.464-.984.759-1.808,1.915,1.086-1.358-2.077,1.6,2.937-2.678.033-.041-.417.285-379.062,357.9-28.945-33.3L510.424,543.094,93.806,827.881,70.425,790.464l449-255.529L52.488,756.205,35.249,715.592l488.629-184.1-1.714.322-2.486.887,1.587-.718-2.581.485,3.837-1.054.565-.255L21.832,678.263l-10.674-42.81,516.826-106.51.153-.069.405-.267.006,0,.031-.149-.077-.408-.626-.916-.25-.236-.832-.156L5.069,594.083,1.225,550.13l521.6-24.093-1.734-.224-2.628.075,1.724-.192-2.6-.335,2.5.116-.387-.073L0,510.483,3.077,466.47l498.409,55.511L9.766,429.56l9.925-42.99L520.513,524.1l.017,0L31.793,349.641l16.529-40.909L524.007,524.066l-1.439-.984-2.381-1.128,1.627.613-2.166-1.48,3.455,1.966.09.034-.366-.282L65.23,272.851l22.723-37.819,421.5,277.456L111.023,205.159l28.36-33.8L524.191,522.189l.56.368-.3-.437-.271-.351-1.915-1.808,1.358,1.086-1.6-2.077,1.105,1.212-.165-.241L166.553,142.46l33.3-28.945,312.177,390.43L230.717,92.414l37.417-23.381L524.586,519.652l.405.507L302.766,51.21,343.38,33.971,527.478,522.6l-.322-1.714-.887-2.486.718,1.587-.485-2.581,1.054,3.837.255.562L380.708,20.554,423.518,9.88,527.631,515.075l-57.026-512L514.619,0l14.993,522.173.068-.615-.184-3.972.336,2.6.193-1.729-.076,2.635.056.43.293-1.42L554.266,1.225,598.22,5.069,534.147,501.433l101-490.093,42.81,10.673L531.7,520.387l-.042.324.507-1.847-.2,1.084L714.9,34.4l40.614,17.24-223.7,472.07.342-.519,1.641-3.624-.883,2.473.957-1.454L532.6,522.9l-.417,1.168.345-.432L790.284,70.73,827.7,94.111,543.284,510.186,858.111,116.44l33.3,28.945-357.654,378.8.109-.012,2.078-2.279-1.6,2.077,1.358-1.086-1.3,1.228.537-.06L918.578,174.286l28.361,33.8L548.058,515.761,968.656,238.9l22.723,37.819L539.5,523.545l.537-.06L1008.7,311.33l16.529,40.909L547.976,522.6l11.176-1.245L1036.32,390.323l9.925,42.991-441.3,82.942,447.012-49.787,3.079,44.014L560.049,524.695l-11.224,2.11,504.988,23.326-3.846,43.953-502.2-64.826L1044.853,631.7l-10.674,42.81L540.771,529.71l481.744,181.505-17.24,40.613L535.649,529.281l-.086.016,1.786.808-2.1-.75-.133.025,1.214.8-1.4-.764-.487.091L986.185,786.6l-23.38,37.417L547.391,540.05,941.523,855.186l-28.947,33.3-.924-.873-.893,1.028-371.5-350.76L883.677,915.654l-33.8,28.361L532.927,533.108l214.714,474.318-40.908,16.529L531.491,533.03l.043.336,1.1,2.933-1-2.107.117.91.109.529-.073-.248.316,2.448,136.538,497.211-42.991,9.925L535.992,567.9l62.228,482.068-43.953,3.846-23.8-515.334-.451-2.4.014.5-.115-1.032-.1-.529-.314,2.434.152-3.3-.064-.343-14.966,521.227ZM533.59,528.376l.095-.026-.183-.087-.048.023Zm7.093-1.948,4.789-1.315-4.929.142-2.895,1.033Zm-7.447-.912.083-.055-.133,0-.032.042Z" transform="translate(-340.033 -19.238)"/></g><path class="a" d="M3.5,0,4.532,2.036,7,2.292,5.171,3.806,5.663,6,3.5,4.9,1.337,6l.492-2.194L0,2.292l2.467-.256Z" transform="translate(67 225)"/><path class="d" d="M5,0,6.475,3.054,10,3.438,7.387,5.709,8.09,9,5,7.35,1.91,9l.7-3.291L0,3.438l3.525-.384Z" transform="matrix(0.985, -0.174, 0.174, 0.985, 77.295, 118.938)"/><path class="d" d="M5,0,6.475,3.054,10,3.438,7.387,5.709,8.09,9,5,7.35,1.91,9l.7-3.291L0,3.438l3.525-.384Z" transform="matrix(0.985, -0.174, 0.174, 0.985, 293.295, 315.938)"/><path class="e" d="M6.5,0,8.417,4.072,13,4.584,9.6,7.612,10.517,12,6.5,9.8,2.483,12,3.4,7.612,0,4.584l4.582-.512Z" transform="translate(295.517 248.691) rotate(13)"/><path class="e" d="M4,0,5.18,2.375l2.82.3L5.909,4.44,6.472,7,4,5.716,1.528,7l.563-2.56L0,2.674l2.82-.3Z" transform="translate(29.388 268.816) rotate(13)"/><path class="f" d="M3.5,0,4.515,2.485,7,3.5,4.515,4.515,3.5,7,2.485,4.515,0,3.5,2.485,2.485Z" transform="translate(264.423 102.738) rotate(-7)"/><path class="f" d="M3.5,0,4.515,2.485,7,3.5,4.515,4.515,3.5,7,2.485,4.515,0,3.5,2.485,2.485Z" transform="translate(67.423 296.738) rotate(-7)"/><circle class="g" cx="3.5" cy="3.5" r="3.5" transform="translate(279 180)"/><circle class="g" cx="3.5" cy="3.5" r="3.5" transform="translate(115 89)"/><circle class="h" cx="3.5" cy="3.5" r="3.5" transform="translate(305 96)"/><circle class="i" cx="3" cy="3" r="3" transform="translate(37 97)"/><circle class="j" cx="2" cy="2" r="2" transform="translate(134 194)"/><circle class="j" cx="2" cy="2" r="2" transform="translate(342 216)"/></g></svg>