<svg xmlns="http://www.w3.org/2000/svg" xmlns:xlink="http://www.w3.org/1999/xlink" width="421.363" height="108.051" viewBox="0 0 421.363 108.051"><defs><radialGradient id="a" cx="0.719" cy="0.051" r="1.854" gradientTransform="matrix(0.548, 0.515, -0.152, 0.395, 9.07, 38.385)" gradientUnits="objectBoundingBox"><stop offset="0" stop-color="#5e2000"/><stop offset="0.004" stop-color="#612300"/><stop offset="0.044" stop-color="#843f01"/><stop offset="0.088" stop-color="#a25702"/><stop offset="0.136" stop-color="#ba6b03"/><stop offset="0.191" stop-color="#cd7a04"/><stop offset="0.255" stop-color="#da8504"/><stop offset="0.337" stop-color="#e18b04"/><stop offset="0.506" stop-color="#e48d05"/><stop offset="0.624" stop-color="#f8d157"/><stop offset="0.764" stop-color="#ffea75"/><stop offset="0.814" stop-color="#f3c74d"/><stop offset="0.864" stop-color="#e9ab2e"/><stop offset="0.912" stop-color="#e39717"/><stop offset="0.959" stop-color="#df8c0a"/><stop offset="1" stop-color="#de8806"/></radialGradient><clipPath id="b"><path d="M2382.258,1358.666c.808-2.615,13.043,4.051,3.192-1.873s-18.983-8.957-20.915-7.016c-.808,2.613,6.155,9.264,16.005,15.184,9.932,5.975.437-2.287,2.26-4.328C2382.784,1360.649,2382.273,1358.651,2382.258,1358.666Z" transform="translate(-2364.471 -1349.193)" fill="none"/></clipPath><radialGradient id="c" cx="0.499" cy="0.498" r="0.49" gradientTransform="matrix(0.385, -0.923, 0.922, 0.383, -66.783, 41.236)" gradientUnits="objectBoundingBox"><stop offset="0" stop-color="#fff3c5"/><stop offset="0.107" stop-color="#dbd1a9"/><stop offset="0.358" stop-color="#8e876e"/><stop offset="0.581" stop-color="#514d3e"/><stop offset="0.769" stop-color="#25231c"/><stop offset="0.915" stop-color="#0a0907"/><stop offset="1"/></radialGradient><radialGradient id="d" cx="0.499" cy="0.498" r="0.489" gradientTransform="matrix(0.385, -0.923, 0.922, 0.383, -85.899, 52.846)" xlink:href="#c"/><radialGradient id="e" cx="0.499" cy="0.492" r="0.457" gradientTransform="translate(0)" gradientUnits="objectBoundingBox"><stop offset="0" stop-color="#b8610a"/><stop offset="0.088" stop-color="#ba6713"/><stop offset="0.234" stop-color="#c2772d"/><stop offset="0.421" stop-color="#ce9257"/><stop offset="0.642" stop-color="#dfb891"/><stop offset="0.888" stop-color="#f4e7db"/><stop offset="1" stop-color="#fff"/></radialGradient><radialGradient id="f" cx="0.499" cy="0.492" r="0.457" xlink:href="#e"/><linearGradient id="g" x1="0.223" y1="-4.289" x2="-0.009" y2="-2.94" gradientUnits="objectBoundingBox"><stop offset="0" stop-color="#618a30"/><stop offset="0.381" stop-color="#3e581e"/><stop offset="1"/></linearGradient><radialGradient id="h" cx="0.499" cy="0.498" r="0.489" gradientTransform="matrix(0.297, -0.955, 0.955, 0.297, -7.56, 4.001)" gradientUnits="objectBoundingBox"><stop offset="0" stop-color="#006e03"/><stop offset="0.008" stop-color="#036f06"/><stop offset="0.173" stop-color="#449547"/><stop offset="0.336" stop-color="#7db57f"/><stop offset="0.492" stop-color="#abcfac"/><stop offset="0.64" stop-color="#d0e4d0"/><stop offset="0.778" stop-color="#e9f3ea"/><stop offset="0.902" stop-color="#f9fbf9"/><stop offset="1" stop-color="#fff"/></radialGradient><radialGradient id="i" cx="0.35" cy="-0.015" r="1.859" gradientTransform="matrix(0.547, -0.514, 0.151, 0.395, -11.68, 48.385)" xlink:href="#a"/><clipPath id="j"><path d="M2624.878,1385.025c-1.924-1.944,9.71-9.609-.148-3.7s-16.833,12.544-16.025,15.159c1.924,1.947,11.064-1.073,20.927-6.982,9.94-5.96-1.815-1.464-2.763-4.032C2626.876,1385.493,2624.874,1385,2624.878,1385.025Z" transform="translate(-2608.641 -1379.128)" fill="none"/></clipPath><radialGradient id="k" cx="0.499" cy="0.499" r="0.489" gradientTransform="matrix(-0.236, -0.972, 0.972, -0.236, -19.654, 3.442)" gradientUnits="objectBoundingBox"><stop offset="0" stop-color="#6e4500"/><stop offset="0.008" stop-color="#6f4703"/><stop offset="0.173" stop-color="#957744"/><stop offset="0.336" stop-color="#b5a07d"/><stop offset="0.492" stop-color="#cfc2ab"/><stop offset="0.64" stop-color="#e4dcd0"/><stop offset="0.778" stop-color="#f3efe9"/><stop offset="0.902" stop-color="#fbfbf9"/><stop offset="1" stop-color="#fff"/></radialGradient><linearGradient id="l" x1="0.042" y1="3.046" x2="1.198" y2="3.046" gradientUnits="objectBoundingBox"><stop offset="0.006" stop-color="#e39a36"/><stop offset="0.515" stop-color="#fffc9c"/><stop offset="0.608" stop-color="#fdf899"/><stop offset="0.683" stop-color="#f8ee8f"/><stop offset="0.752" stop-color="#f0dd7f"/><stop offset="0.818" stop-color="#e5c569"/><stop offset="0.881" stop-color="#d7a64c"/><stop offset="0.941" stop-color="#c68129"/><stop offset="1" stop-color="#b25501"/></linearGradient><radialGradient id="m" cx="0.499" cy="0.5" r="0.275" gradientTransform="matrix(-0.247, -0.898, 1.762, -1.535, -41.494, 26.648)" xlink:href="#c"/><radialGradient id="n" cx="0.499" cy="0.501" r="0.209" gradientTransform="matrix(-0.537, -0.773, 2.282, -2.213, -55.025, 20.095)" xlink:href="#c"/><radialGradient id="o" cx="0.499" cy="0.492" r="0.457" xlink:href="#e"/><radialGradient id="p" cx="0.499" cy="0.498" r="0.489" gradientTransform="matrix(0.297, -0.955, 0.955, 0.297, -6.266, 5.219)" gradientUnits="objectBoundingBox"><stop offset="0" stop-color="#006e03"/><stop offset="0.165" stop-color="#409243"/><stop offset="0.33" stop-color="#7ab37b"/><stop offset="0.489" stop-color="#a9ceaa"/><stop offset="0.64" stop-color="#cee3cf"/><stop offset="0.779" stop-color="#e9f2e9"/><stop offset="0.904" stop-color="#f9fbf9"/><stop offset="1" stop-color="#fff"/></radialGradient><radialGradient id="q" cx="0.499" cy="0.498" r="0.489" gradientTransform="matrix(0.297, -0.955, 0.955, 0.297, -6.266, 5.079)" gradientUnits="objectBoundingBox"><stop offset="0" stop-color="#006e03"/><stop offset="0.477" stop-color="#80b681"/><stop offset="0.838" stop-color="#dbeadb"/><stop offset="1" stop-color="#fff"/></radialGradient><radialGradient id="r" cx="0.499" cy="0.498" r="0.489" gradientTransform="matrix(0.297, -0.955, 0.955, 0.297, -6.795, 4.51)" xlink:href="#p"/><radialGradient id="s" cx="0.499" cy="0.499" r="0.489" gradientTransform="matrix(-0.07, -0.996, 0.999, -0.101, -14.549, 12.358)" gradientUnits="objectBoundingBox"><stop offset="0" stop-color="#900000"/><stop offset="0.477" stop-color="#c78080"/><stop offset="0.838" stop-color="#efdbdb"/><stop offset="1" stop-color="#fff"/></radialGradient><radialGradient id="t" cx="0.364" cy="0.341" r="0.573" gradientTransform="matrix(-0.192, -0.955, 1.066, -0.512, -97.275, 212.712)" gradientUnits="objectBoundingBox"><stop offset="0" stop-color="#620700"/><stop offset="0.224" stop-color="#5a0600"/><stop offset="0.555" stop-color="#470400"/><stop offset="0.949" stop-color="#260200"/><stop offset="1" stop-color="#220200"/></radialGradient><radialGradient id="u" cx="0.415" cy="0.257" r="0.617" gradientTransform="matrix(0.049, -0.996, 1.005, 0.145, -97.7, 131.342)" xlink:href="#t"/><radialGradient id="v" cx="0.499" cy="0.499" r="0.475" gradientTransform="matrix(-0.126, -0.981, 1.023, -0.318, -10.507, 23.716)" gradientUnits="objectBoundingBox"><stop offset="0" stop-color="#ff7b70"/><stop offset="0.107" stop-color="#db6960"/><stop offset="0.358" stop-color="#8e443e"/><stop offset="0.581" stop-color="#512723"/><stop offset="0.769" stop-color="#251110"/><stop offset="0.915" stop-color="#0a0404"/><stop offset="1"/></radialGradient><radialGradient id="w" cx="0.498" cy="0.5" r="0.459" gradientTransform="matrix(-0.524, -0.828, 0.929, -0.673, -14.95, 10.606)" xlink:href="#s"/><radialGradient id="x" cx="0.297" cy="0.474" r="0.435" gradientTransform="matrix(-0.745, -0.688, 1.218, -1.252, -64.402, 154.095)" xlink:href="#t"/></defs><g transform="translate(18397.402 21379.695)"><g transform="translate(-18443.283 -21448.844)"><g transform="translate(432.455 100.284)"><path d="M491.514,246.775h0a.089.089,0,0,1-.112-.055l-1.473-4.286a.089.089,0,0,1,.055-.113h0a.088.088,0,0,1,.112.055l1.473,4.286A.089.089,0,0,1,491.514,246.775Z" transform="translate(-486.615 -242.316)" fill="#e84432"/><path d="M500.42,272.683h0a.089.089,0,0,1-.113-.055l-1.473-4.286a.089.089,0,0,1,.055-.112h0a.088.088,0,0,1,.112.055l1.473,4.286A.089.089,0,0,1,500.42,272.683Z" transform="translate(-493.529 -262.429)" fill="#e84432"/><g transform="translate(0 3.308)"><path d="M479.593,266.071h0a.089.089,0,0,1-.055.113l-4.286,1.473a.089.089,0,0,1-.113-.055h0a.089.089,0,0,1,.055-.113l4.286-1.473A.089.089,0,0,1,479.593,266.071Z" transform="translate(-475.134 -264.019)" fill="#e84432"/><path d="M505.5,257.165h0a.089.089,0,0,1-.055.113l-4.286,1.473a.089.089,0,0,1-.113-.055h0a.089.089,0,0,1,.055-.112l4.286-1.473A.089.089,0,0,1,505.5,257.165Z" transform="translate(-495.247 -257.105)" fill="#e84432"/></g><g transform="translate(3.611 2.094)"><path d="M492.491,268.088h0a.089.089,0,0,1,.041.119l-1.084,2.219a.089.089,0,0,1-.119.041h0a.089.089,0,0,1-.041-.119l1.084-2.219A.089.089,0,0,1,492.491,268.088Z" transform="translate(-491.28 -264.41)" fill="#e84432"/><path d="M500.474,251.687h0a.089.089,0,0,1,.041.119l-1.092,2.235a.089.089,0,0,1-.119.041h0a.089.089,0,0,1-.041-.119l1.092-2.235A.089.089,0,0,1,500.474,251.687Z" transform="translate(-497.471 -251.678)" fill="#e84432"/></g><g transform="translate(2.105 3.6)"><path d="M500.957,266.471h0a.089.089,0,0,1,.119-.041l2.219,1.084a.089.089,0,0,1,.041.119h0a.089.089,0,0,1-.119.041L501,266.589A.089.089,0,0,1,500.957,266.471Z" transform="translate(-497.279 -264.629)" fill="#e84432"/><path d="M484.556,258.461h0a.089.089,0,0,1,.119-.041l2.235,1.091a.088.088,0,0,1,.041.119h0a.088.088,0,0,1-.118.041L484.6,258.58A.089.089,0,0,1,484.556,258.461Z" transform="translate(-484.547 -258.412)" fill="#e84432"/></g></g><g transform="translate(395.525 138.37)"><path d="M612.131,184.86h0a.255.255,0,0,1-.074-.352l7.109-10.905a.254.254,0,0,1,.353-.075h0a.254.254,0,0,1,.074.352l-7.11,10.906A.254.254,0,0,1,612.131,184.86Z" transform="translate(-597.939 -173.486)" fill="#e84432"/><path d="M597.169,207.81h0a.254.254,0,0,1-.074-.352l7.11-10.906a.254.254,0,0,1,.352-.074h0a.255.255,0,0,1,.075.352l-7.11,10.906A.255.255,0,0,1,597.169,207.81Z" transform="translate(-592.589 -181.692)" fill="#e84432"/><g transform="translate(0 4.464)"><path d="M601.479,187.938h0a.255.255,0,0,1-.353.074l-10.905-7.11a.255.255,0,0,1-.075-.352h0a.256.256,0,0,1,.353-.075l10.905,7.11A.255.255,0,0,1,601.479,187.938Z" transform="translate(-590.105 -180.435)" fill="#e84432"/><path d="M624.429,202.9h0a.255.255,0,0,1-.353.075l-10.905-7.11a.255.255,0,0,1-.074-.353h0a.255.255,0,0,1,.353-.074l10.905,7.11A.255.255,0,0,1,624.429,202.9Z" transform="translate(-598.31 -185.784)" fill="#e84432"/></g><g transform="translate(3.638 10.899)"><path d="M603.213,194.416h0a.254.254,0,0,1-.2.3l-6.941,1.462a.255.255,0,0,1-.3-.2h0a.254.254,0,0,1,.2-.3l6.941-1.463A.255.255,0,0,1,603.213,194.416Z" transform="translate(-595.768 -191.796)" fill="#e84432"/><path d="M621.045,190.653h0a.255.255,0,0,1-.2.3l-6.99,1.473a.255.255,0,0,1-.3-.2h0a.254.254,0,0,1,.2-.3l6.991-1.473A.254.254,0,0,1,621.045,190.653Z" transform="translate(-602.126 -190.45)" fill="#e84432"/></g><g transform="translate(10.906 3.631)"><path d="M611.046,197h0a.254.254,0,0,1,.3.2l1.462,6.941a.254.254,0,0,1-.2.3h0a.254.254,0,0,1-.3-.2l-1.462-6.941A.253.253,0,0,1,611.046,197Z" transform="translate(-608.426 -185.524)" fill="#e84432"/><path d="M607.283,179.144h0a.255.255,0,0,1,.3.2l1.473,6.991a.254.254,0,0,1-.2.3h0a.254.254,0,0,1-.3-.2l-1.473-6.99A.255.255,0,0,1,607.283,179.144Z" transform="translate(-607.08 -179.138)" fill="#e84432"/></g></g><g transform="translate(152.764 136.643)"><path d="M220.314,249.016h0a.133.133,0,0,0,.169-.083l2.214-6.44a.133.133,0,0,0-.083-.169h0a.133.133,0,0,0-.169.083l-2.214,6.44A.133.133,0,0,0,220.314,249.016Z" transform="translate(-212.261 -242.316)" fill="#e84432"/><path d="M211.407,274.923h0a.133.133,0,0,0,.169-.083l2.214-6.44a.133.133,0,0,0-.083-.169h0a.133.133,0,0,0-.169.083l-2.214,6.44A.133.133,0,0,0,211.407,274.923Z" transform="translate(-206.348 -259.517)" fill="#e84432"/><g transform="translate(0 4.97)"><path d="M222.445,266.1h0a.133.133,0,0,0,.083.169l6.44,2.214a.133.133,0,0,0,.169-.083h0a.133.133,0,0,0-.083-.169l-6.44-2.214A.133.133,0,0,0,222.445,266.1Z" transform="translate(-213.73 -263.018)" fill="#e84432"/><path d="M196.537,257.195h0a.133.133,0,0,0,.083.169l6.44,2.214a.133.133,0,0,0,.169-.083h0a.133.133,0,0,0-.083-.169l-6.44-2.214A.133.133,0,0,0,196.537,257.195Z" transform="translate(-196.529 -257.105)" fill="#e84432"/></g><g transform="translate(5.401 3.146)"><path d="M220.684,268.092h0a.133.133,0,0,0-.061.178l1.628,3.334a.133.133,0,0,0,.178.061h0a.133.133,0,0,0,.061-.178l-1.628-3.334A.133.133,0,0,0,220.684,268.092Z" transform="translate(-217.918 -262.567)" fill="#e84432"/><path d="M212.674,251.691h0a.133.133,0,0,0-.061.178l1.64,3.358a.133.133,0,0,0,.178.061h0a.133.133,0,0,0,.061-.178l-1.64-3.358A.133.133,0,0,0,212.674,251.691Z" transform="translate(-212.6 -251.678)" fill="#e84432"/></g><g transform="translate(3.138 5.409)"><path d="M209.453,266.5h0a.133.133,0,0,0-.178-.062l-3.334,1.628a.133.133,0,0,0-.061.178h0a.133.133,0,0,0,.178.061l3.334-1.628A.134.134,0,0,0,209.453,266.5Z" transform="translate(-205.866 -263.729)" fill="#e84432"/><path d="M225.807,258.486h0a.133.133,0,0,0-.178-.061l-3.358,1.64a.133.133,0,0,0-.062.178h0a.133.133,0,0,0,.178.061l3.358-1.64A.133.133,0,0,0,225.807,258.486Z" transform="translate(-216.708 -258.412)" fill="#e84432"/></g></g><g transform="translate(72.109 138.37)"><path d="M101.156,184.86h0a.255.255,0,0,0,.075-.352L94.121,173.6a.254.254,0,0,0-.353-.075h0a.254.254,0,0,0-.074.352l7.11,10.906A.254.254,0,0,0,101.156,184.86Z" transform="translate(-89.189 -173.486)" fill="#e84432"/><path d="M116.118,207.81h0a.254.254,0,0,0,.074-.352l-7.11-10.906a.254.254,0,0,0-.352-.074h0a.254.254,0,0,0-.075.352l7.11,10.906A.255.255,0,0,0,116.118,207.81Z" transform="translate(-94.539 -181.692)" fill="#e84432"/><g transform="translate(0 4.464)"><path d="M109.7,187.938h0a.255.255,0,0,0,.353.074l10.905-7.11a.255.255,0,0,0,.075-.352h0a.256.256,0,0,0-.353-.075l-10.905,7.11A.255.255,0,0,0,109.7,187.938Z" transform="translate(-94.91 -180.435)" fill="#e84432"/><path d="M86.746,202.9h0a.255.255,0,0,0,.353.075L98,195.864a.256.256,0,0,0,.075-.353h0a.255.255,0,0,0-.353-.074l-10.905,7.11A.255.255,0,0,0,86.746,202.9Z" transform="translate(-86.705 -185.784)" fill="#e84432"/></g><g transform="translate(3.596 10.899)"><path d="M110.168,194.416h0a.254.254,0,0,0,.2.3l6.941,1.462a.255.255,0,0,0,.3-.2h0a.254.254,0,0,0-.2-.3l-6.941-1.463A.255.255,0,0,0,110.168,194.416Z" transform="translate(-98.688 -191.796)" fill="#e84432"/><path d="M92.308,190.653h0a.255.255,0,0,0,.2.3l6.99,1.473a.255.255,0,0,0,.3-.2h0a.254.254,0,0,0-.2-.3l-6.991-1.473A.254.254,0,0,0,92.308,190.653Z" transform="translate(-92.302 -190.45)" fill="#e84432"/></g><g transform="translate(10.864 3.631)"><path d="M105.384,197h0a.254.254,0,0,0-.3.2l-1.462,6.941a.254.254,0,0,0,.2.3h0a.254.254,0,0,0,.3-.2l1.462-6.941A.253.253,0,0,0,105.384,197Z" transform="translate(-103.614 -185.524)" fill="#e84432"/><path d="M109.141,179.144h0a.255.255,0,0,0-.3.2l-1.473,6.991a.254.254,0,0,0,.2.3h0a.254.254,0,0,0,.3-.2l1.473-6.99A.255.255,0,0,0,109.141,179.144Z" transform="translate(-104.954 -179.138)" fill="#e84432"/></g></g><path d="M245.478,109.445a1.852,1.852,0,1,1-1.852-1.853A1.852,1.852,0,0,1,245.478,109.445Z" transform="translate(-70.039 -11.557)" fill="#52b5b7"/><circle cx="1.852" cy="1.852" r="1.852" transform="translate(374.668 147.996)" fill="#52b5b7"/><path d="M699.673,168.428a1.853,1.853,0,1,1-1.852-1.853A1.852,1.852,0,0,1,699.673,168.428Z" transform="translate(-232.43 -32.645)" fill="#52b5b7"/><circle cx="1.852" cy="1.852" r="1.852" transform="translate(352.401 98.761)" fill="#52b5b7"/><path d="M615.156,121.5a1.853,1.853,0,1,1-1.852-1.852A1.853,1.853,0,0,1,615.156,121.5Z" transform="translate(-202.212 -15.868)" fill="#e84432"/><path d="M674.632,99.653A1.853,1.853,0,1,1,672.78,97.8,1.852,1.852,0,0,1,674.632,99.653Z" transform="translate(-223.477 -8.056)" fill="#e84432"/><path d="M506.991,147.85A1.853,1.853,0,1,1,505.138,146,1.853,1.853,0,0,1,506.991,147.85Z" transform="translate(-163.539 -25.288)" fill="#e84432"/><path d="M49.585,129.142a1.853,1.853,0,1,1-1.852-1.852A1.853,1.853,0,0,1,49.585,129.142Z" transform="translate(0 -18.599)" fill="#e84432"/><path d="M245.034,230.011a1.852,1.852,0,1,1-1.852-1.853A1.852,1.852,0,0,1,245.034,230.011Z" transform="translate(-69.88 -54.663)" fill="#e84432"/><path d="M161.286,77.121a1.853,1.853,0,1,1-1.853-1.852A1.853,1.853,0,0,1,161.286,77.121Z" transform="translate(-39.937)" fill="#e84432"/><path d="M137.951,193.205a1.853,1.853,0,1,1-1.853-1.852A1.853,1.853,0,0,1,137.951,193.205Z" transform="translate(-22.594 -41.504)" fill="#52b5b7"/><path d="M222.456,131.033a.859.859,0,1,1-.859-.86A.859.859,0,0,1,222.456,131.033Z" transform="translate(-62.518 -19.63)" fill="#e84432"/><path d="M466.29,117.753a.86.86,0,1,1-.86-.859A.86.86,0,0,1,466.29,117.753Z" transform="translate(-149.697 -14.882)" fill="#e84432"/><path d="M173.031,168.981a.859.859,0,1,1-.86-.86A.859.859,0,0,1,173.031,168.981Z" transform="translate(-44.846 -33.198)" fill="#e84432"/><path d="M655.44,168.981a.86.86,0,1,1-.86-.86A.859.859,0,0,1,655.44,168.981Z" transform="translate(-217.325 -33.198)" fill="#e84432"/><path d="M118.92,150.71a.859.859,0,1,1-.86-.86A.86.86,0,0,1,118.92,150.71Z" transform="translate(-25.5 -26.665)" fill="#52b5b7"/></g><g transform="translate(-20584.807 -22300.566)"><g transform="translate(2356.111 960.376)"><path d="M2356.111,1174.884c5.281-1.03,9.1.121,8.524,3.608,3.805-1.912,7.985-4.125,8.278-.636,3.4-3.269,6.826-2.793,7.595-.545,2.111-3.432,6.264-6.18,7.759-2.9,1.682-3.979,5.1-7.462,5.085-4.923,2.834-2.281,4.047-7.121,2.369-11.023-1.632-3.8-6.307-5.921-8.231-5.677,1.425,1.838-3.052.894-7.392-.269.456,2.119-3.5,4.326-8.469,3.159.761,2.58-1.971,4.771-6.9,5.193,3.157,2.174-1.831,5.132-5.788,5.595C2362.574,1169.2,2359.444,1172.722,2356.111,1174.884Z" transform="translate(-2356.111 -1152.523)" fill="#44adb1"/><path d="M2399.4,1196.854c0-.289-.035-.734-.355-.841s-.656.129-.894.295a6.767,6.767,0,0,0-1.21,1.163,15.166,15.166,0,0,0-1.331,1.832,17.538,17.538,0,0,0-1.3,2.474,2.527,2.527,0,0,0-1.136-1.27,2.388,2.388,0,0,0-1.553-.137,7.183,7.183,0,0,0-3.427,2.19,12.648,12.648,0,0,0-1.643,2.113,2.654,2.654,0,0,0-1.959-1.706,5.041,5.041,0,0,0-3.43.623,9.831,9.831,0,0,0-2.205,1.627,1.973,1.973,0,0,0-.792-1.591,2.427,2.427,0,0,0-1.674-.187,14.375,14.375,0,0,0-3.809,1.419c-.671.322-1.339.66-2,1a3.451,3.451,0,0,0-.117-1.709,2.9,2.9,0,0,0-1.245-1.446,6.988,6.988,0,0,0-3.555-.814c-.355-.006-.715.006-1.066.027-.41.026-.816.1-1.225.119,3.337-1.977,6.72-3.87,10.163-5.648,3.321-1.717,6.7-3.325,10.14-4.783,3.282-1.391,6.627-2.644,10.038-3.706q2.453-.761,4.949-1.384,1.223-.3,2.459-.566c.109-.024.219-.047.328-.068a.622.622,0,0,1,.164-.035c.074.008.015-.037.078.039a1.241,1.241,0,0,1,.117.295c.039.1.074.2.109.3a10.061,10.061,0,0,1,.316,1.171,9.913,9.913,0,0,1-2.193,8.514A6.585,6.585,0,0,1,2399.4,1196.854Z" transform="translate(-2362.158 -1179.884)" fill="#488485"/></g><g transform="translate(2357.604 970.84)"><path d="M2403.425,1251.973c.535-5.136,5.511-10.74,6.163-18.712s-6.537-11.779-6.537-11.779-6.736-4.57-13.472-.256-9.351,11.336-13.636,14.218c-4.469,3-9.016,4.235-11.049,7.757l18.581,10.828,18.277,11.338C2403.909,1261.921,2402.867,1257.328,2403.425,1251.973Z" transform="translate(-2364.816 -1219.373)" fill="#f1ad47"/><path d="M2401.636,1369.41c1.44-2.393-5.671-9.316-15.885-15.455s-19.659-9.181-21.1-6.785,5.671,9.318,15.885,15.457S2400.2,1371.806,2401.636,1369.41Z" transform="translate(-2364.468 -1323.665)" fill="url(#a)"/><path d="M2401.452,1371.979c.812-2.611-6.151-9.261-16-15.186s-18.983-8.957-20.915-7.016c-.808,2.613,6.155,9.264,16.005,15.184,9.932,5.975,19.139,9.012,20.962,6.967A.327.327,0,0,1,2401.452,1371.979Z" transform="translate(-2364.471 -1326)" fill="#d18440"/><g transform="translate(0.001 23.193)"><g clip-path="url(#b)"><g transform="translate(4.467 -1.15)"><path d="M2413.152,1355.372a4.654,4.654,0,1,1-1.588-6.387A4.652,4.652,0,0,1,2413.152,1355.372Z" transform="translate(-2401.823 -1347.324)" fill="#ffb84e"/></g></g></g><path d="M2385.743,1354.458c9.851,5.925,16.813,12.575,16,15.186a1.063,1.063,0,0,0,.187-.234c1.44-2.393-5.671-9.316-15.885-15.455s-19.659-9.181-21.1-6.785a1.366,1.366,0,0,0-.121.273C2366.759,1345.5,2375.9,1348.537,2385.743,1354.458Z" transform="translate(-2364.763 -1323.665)" fill="#fff" opacity="0.4"/><path d="M2406.426,1361.945a2.824,2.824,0,1,1-3.688,1.522A2.822,2.822,0,0,1,2406.426,1361.945Z" transform="translate(-2395.723 -1336.296)" opacity="0.8" fill="url(#c)" style="mix-blend-mode:screen;isolation:isolate"/><path d="M2409.078,1365.42a2.194,2.194,0,1,1-2.865,1.182A2.188,2.188,0,0,1,2409.078,1365.42Z" transform="translate(-2398.617 -1339.19)" opacity="0.8" fill="url(#d)" style="mix-blend-mode:screen;isolation:isolate"/></g><path d="M2558.4,1231.679a13.949,13.949,0,1,1-13.948-13.947A13.95,13.95,0,0,1,2558.4,1231.679Z" transform="translate(-143.238 -246.3)" fill="url(#e)" style="mix-blend-mode:multiply;isolation:isolate"/><path d="M2521.567,1169.388a13.947,13.947,0,1,1-13.945-13.949A13.947,13.947,0,0,1,2521.567,1169.388Z" transform="translate(-112.986 -194.617)" fill="url(#f)" style="mix-blend-mode:multiply;isolation:isolate"/><g transform="translate(2394.561 960.289)"><path d="M2613.405,1171.063c-5.378-.339-8.941,1.309-7.778,4.72-4.075-1.415-8.571-3.081-8.266.445-3.9-2.822-7.2-1.9-7.572.447-2.669-3.154-7.228-5.359-8.137-1.879-2.338-3.758-6.3-6.793-5.85-4.256a10.3,10.3,0,0,1-4.219-10.709c.96-4.012,5.2-6.742,7.138-6.752-1.089,2.026,3.161.5,7.236-1.233-.086,2.178,4.188,3.868,8.883,2.053-.309,2.675,2.759,4.511,7.684,4.287-2.74,2.586,2.681,4.89,6.658,4.836C2606.068,1166.228,2609.756,1169.338,2613.405,1171.063Z" transform="translate(-2571.332 -1151.846)" fill="#44adb1"/><path d="M2579.871,1153.079c-1.089,2.026,3.161.5,7.236-1.233-.086,2.178,4.188,3.868,8.883,2.053-.309,2.675,2.759,4.511,7.684,4.287-2.74,2.586,2.681,4.89,6.658,4.836-3.115,3.206.574,6.317,4.223,8.042-.472-.029-.929-.043-1.374-.043h.043c-13.96-5.925-27.714-10.257-40.492-11.189C2573.693,1155.819,2577.935,1153.089,2579.871,1153.079Z" transform="translate(-2572.483 -1151.846)" fill="url(#g)" style="mix-blend-mode:screen;isolation:isolate"/></g><path d="M2646.032,1169.022a9.463,9.463,0,1,1-11.857,6.221A9.468,9.468,0,0,1,2646.032,1169.022Z" transform="translate(-228.034 -205.3)" opacity="0.8" fill="url(#h)" style="mix-blend-mode:multiply;isolation:isolate"/><g transform="translate(2393.51 970.768)"><path d="M2599.131,1235.072c-4.281-2.888-6.888-9.915-13.613-14.239s-13.472.234-13.472.234-7.2,3.8-6.557,11.769,5.609,13.584,6.135,18.72c.55,5.358-.5,9.948,1.655,13.4l18.292-11.306,18.6-10.8C2608.143,1239.321,2603.6,1238.081,2599.131,1235.072Z" transform="translate(-2565.448 -1218.97)" fill="#f1ad47"/><path d="M2644.134,1347.023c-1.436-2.4-10.889.624-21.11,6.75s-17.344,13.035-15.9,15.432,10.885-.624,21.11-6.748S2645.57,1349.421,2644.134,1347.023Z" transform="translate(-2599.522 -1323.47)" fill="url(#i)"/><path d="M2645.656,1349.63c-1.928-1.946-11.068,1.075-20.927,6.984s-16.833,12.544-16.025,15.159c1.924,1.947,11.064-1.073,20.927-6.982,9.94-5.96,16.95-12.661,16-15.227C2645.641,1349.585,2645.649,1349.607,2645.656,1349.63Z" transform="translate(-2600.924 -1325.804)" fill="#d18440"/><g transform="translate(7.717 28.613)"><g clip-path="url(#j)"><g transform="translate(2.857 3.611)"><path d="M2629.53,1399.523a6.4,6.4,0,1,1-4.718,7.735A6.4,6.4,0,0,1,2629.53,1399.523Z" transform="translate(-2624.63 -1399.34)" opacity="0.8" fill="url(#k)" style="mix-blend-mode:multiply;isolation:isolate"/><path d="M2641.824,1404.775a4.656,4.656,0,1,1-6.389-1.6A4.661,4.661,0,0,1,2641.824,1404.775Z" transform="translate(-2631.648 -1401.947)" fill="#ffb84e"/></g></g></g><path d="M2623.328,1354.28c9.859-5.909,19-8.929,20.927-6.984a1.273,1.273,0,0,0-.121-.273c-1.436-2.4-10.889.624-21.11,6.75s-17.344,13.035-15.9,15.432a1.179,1.179,0,0,0,.184.234C2606.495,1366.824,2613.469,1360.189,2623.328,1354.28Z" transform="translate(-2599.522 -1323.47)" opacity="0.4" fill="url(#l)"/><path d="M2659.968,1337.707c5.757-2.818,11.076-3.766,11.884-2.117s-3.2,5.271-8.957,8.089-11.076,3.77-11.884,2.119S2654.211,1340.525,2659.968,1337.707Z" transform="translate(-2635.639 -1314.09)" opacity="0.8" fill="url(#m)" style="mix-blend-mode:screen;isolation:isolate"/><path d="M2619.7,1353.912c4.957-4.067,9.917-6.209,11.08-4.791s-1.908,5.868-6.861,9.931-9.917,6.21-11.08,4.789S2614.744,1357.974,2619.7,1353.912Z" transform="translate(-2604.169 -1325.509)" opacity="0.8" fill="url(#n)" style="mix-blend-mode:screen;isolation:isolate"/></g><path d="M2556.655,1142.2a13.949,13.949,0,1,1-13.949-13.949A13.948,13.948,0,0,1,2556.655,1142.2Z" transform="translate(-141.802 -172.06)" fill="url(#o)" style="mix-blend-mode:multiply;isolation:isolate"/><path d="M2548.447,1077.107a9.463,9.463,0,1,1-11.857,6.221A9.469,9.469,0,0,1,2548.447,1077.107Z" transform="translate(-147.883 -129.125)" opacity="0.5" fill="url(#p)" style="mix-blend-mode:multiply;isolation:isolate"/><g transform="translate(2386.385 920.871)"><path d="M2541.417,920.871c-2.115,6.563-5.53,10.136-8.664,7.33-.355,5.454-.632,11.511-4.285,9.685,1.237,5.833-.191,10.44-2.888,9.915,2.166,4.492,4.153,10.257-.012,9.9,2.97,4.35,5.733,10.284,10.62,10.819,4.758.519,6.053-3.5,9.788-7.644-2.385-.8-1.132-4.543,2.982-9.394-3.021-.744-2.072-6.164.441-11.954-4.047,2.2-3.169-5.546-1.276-10.272C2543.236,931.643,2541.589,925.947,2541.417,920.871Z" transform="translate(-2525.568 -920.871)" fill="#44adb1"/><path d="M2536.16,975.917c.675-2.771,1.253-5.565,1.752-8.374.515-2.892.941-5.8,1.3-8.717q.556-4.493.894-9.012.357-4.628.527-9.263.182-4.733.211-9.468c0-.4,0-.8,0-1.2-.191.4-.332.833-.515,1.239s-.367.788-.566,1.173a14.5,14.5,0,0,1-1.28,2.035c-.87,1.132-2.135,2.328-3.672,2.231a3.482,3.482,0,0,1-2.061-.958c-.113,1.756-.207,3.518-.445,5.265a14.943,14.943,0,0,1-.527,2.517,3.745,3.745,0,0,1-1.1,1.889,2.024,2.024,0,0,1-2.209.014,18.881,18.881,0,0,1,.433,4.775,7.446,7.446,0,0,1-1.268,4.326,2.111,2.111,0,0,1-2.053.814,33.121,33.121,0,0,1,1.873,4.607,11.9,11.9,0,0,1,.515,2.359,3.376,3.376,0,0,1-.335,2.168,2.121,2.121,0,0,1-2.065.765c1.21,1.77,2.283,3.628,3.509,5.386a15.5,15.5,0,0,0,4.145,4.356A6.966,6.966,0,0,0,2536.16,975.917Z" transform="translate(-2525.568 -928.273)" fill="#348c8e"/></g><path d="M2548.354,1087.706a9.463,9.463,0,1,1-11.853,6.221A9.466,9.466,0,0,1,2548.354,1087.706Z" transform="translate(-147.809 -137.909)" opacity="0.8" fill="url(#q)" style="mix-blend-mode:multiply;isolation:isolate"/><g transform="translate(2395.917 943.582)"><path d="M2618.907,1056.4c-4.11,4.342-5.4,8.428-1.963,9.64-4,2.545-8.492,5.281-5.581,7.3-4.949,1.489-6.6,4.878-5.082,6.711-4.32.226-9.269,2.667-7.263,5.686-4.543-.445-9.695.952-7.443,2.213a9.849,9.849,0,0,1-11.2-3.335c-2.38-3.4-1.428-8.76-.047-10.409.765,2.23,2.642-2.361,4.239-6.929,1.6,1.479,5.952-1.054,7.927-6.206,1.827,1.989,5.425.572,8.781-3.749.012,3.991,5.655.882,8.461-2.525C2609.958,1059.5,2614.977,1058.385,2618.907,1056.4Z" transform="translate(-2578.924 -1054.796)" fill="#348c8e"/><path d="M2580.332,1074.2c.765,2.23,2.642-2.361,4.239-6.929,1.6,1.479,5.952-1.054,7.927-6.206,1.827,1.989,5.425.572,8.781-3.749.012,3.991,5.655.882,8.461-2.525.219,4.709,5.238,3.589,9.168,1.606-.359.383-.7.761-1.015,1.138.008-.012.02-.023.027-.033h0c-14.522,8.012-27.679,16.876-37.542,27.107C2578,1081.21,2578.95,1075.854,2580.332,1074.2Z" transform="translate(-2578.924 -1054.796)" fill="#44adb1"/></g><path d="M2588.375,1130.567a9.464,9.464,0,1,1-11.853,6.221A9.469,9.469,0,0,1,2588.375,1130.567Z" transform="translate(-180.681 -173.431)" opacity="0.8" fill="url(#r)" style="mix-blend-mode:multiply;isolation:isolate"/><g transform="translate(2357.551 940.623)"><path d="M2364.172,1039.3c3.844,4.707,4.738,9.123.956,10.411,3.938,2.769,8.371,5.747,5.054,7.9,5.066,1.639,6.424,5.3,4.6,7.273,4.547.269,9.5,2.935,7.025,6.178,4.859-.451,10.147,1.089,7.614,2.433,3.786,1.6,9.25.226,12.239-3.526,2.912-3.655,2.529-9.439,1.261-11.227-1.073,2.4-2.521-2.564-3.68-7.5-1.866,1.585-6.175-1.177-7.666-6.746-2.162,2.135-5.8.583-8.855-4.1-.476,4.3-6.084.915-8.66-2.777C2373.281,1042.7,2368.1,1041.464,2364.172,1039.3Z" transform="translate(-2364.172 -1037.625)" fill="#44adb1"/><path d="M2393.635,1086.7c.289-.152.714-.427.652-.8s-.484-.588-.773-.734a7.648,7.648,0,0,0-1.8-.585,17.639,17.639,0,0,0-2.537-.347,19.564,19.564,0,0,0-3.154.035,2.866,2.866,0,0,0,.656-1.813,2.672,2.672,0,0,0-.691-1.616,8.082,8.082,0,0,0-4.008-2.242,13.956,13.956,0,0,0-2.982-.507,3.01,3.01,0,0,0,.652-2.863,5.693,5.693,0,0,0-2.451-3.083,11.1,11.1,0,0,0-2.8-1.327,2.244,2.244,0,0,0,1.163-1.637,2.742,2.742,0,0,0-.71-1.766,16.244,16.244,0,0,0-3.446-3.038c-.679-.5-1.37-.978-2.061-1.462a3.825,3.825,0,0,0,1.639-1.029,3.275,3.275,0,0,0,.777-2.01,7.92,7.92,0,0,0-1.089-3.975c-.184-.357-.386-.706-.593-1.048-.246-.394-.535-.759-.773-1.155,3.747,2.269,7.439,4.627,11.045,7.1,3.485,2.391,6.888,4.894,10.175,7.54,3.138,2.529,6.174,5.189,9.046,8.016q2.073,2.034,4.02,4.188c.636.706,1.265,1.423,1.877,2.148.082.1.164.191.246.289a.7.7,0,0,1,.121.145c.031.078.043,0,0,.1a1.635,1.635,0,0,1-.234.277c-.078.09-.156.18-.238.267a11.314,11.314,0,0,1-10.647,3.3A7.8,7.8,0,0,1,2393.635,1086.7Z" transform="translate(-2368.388 -1050.822)" fill="#348c8e"/></g><g transform="translate(2388.483 953.429)"><path d="M2547.513,1111.025a7.993,7.993,0,1,1-9.89,5.47A7.992,7.992,0,0,1,2547.513,1111.025Z" transform="translate(-2537.309 -1110.71)" fill="#ef4d5e"/><path d="M2558.653,1147.358c3.025-.254,5.647,1.583,5.862,4.1s-2.069,4.769-5.093,5.025-5.651-1.583-5.866-4.1S2555.624,1147.614,2558.653,1147.358Z" transform="translate(-2550.642 -1140.792)" opacity="0.5" fill="url(#s)" style="mix-blend-mode:multiply;isolation:isolate"/><path d="M2563.544,1119.02c.507-.158,1-.047,1.089.248s-.25.663-.757.821-1,.049-1.089-.248S2563.032,1119.178,2563.544,1119.02Z" transform="translate(-2558.222 -1117.476)" fill="url(#t)"/></g><g transform="translate(2393.63 961.441)"><path d="M2580.322,1159.493A8.777,8.777,0,1,1,2568,1160.97,8.776,8.776,0,0,1,2580.322,1159.493Z" transform="translate(-2566.121 -1157.617)" fill="#e53345"/><path d="M2609.837,1163.8c.585.051,1.034.365,1.007.7s-.527.573-1.108.523-1.034-.363-1.007-.7S2609.255,1163.75,2609.837,1163.8Z" transform="translate(-2601.115 -1162.689)" fill="url(#u)"/></g><g transform="translate(2381.624 963.369)"><path d="M2505.691,1169.1a8.777,8.777,0,1,1-6.541,10.549A8.779,8.779,0,0,1,2505.691,1169.1Z" transform="translate(-2498.916 -1168.866)" fill="#d42436"/><path d="M2514.383,1169.757c3.1-.621,5.917.427,6.3,2.336s-1.819,3.96-4.917,4.58-5.921-.427-6.3-2.338S2511.284,1170.375,2514.383,1169.757Z" transform="translate(-2507.545 -1169.451)" fill="url(#v)" style="mix-blend-mode:screen;isolation:isolate"/><path d="M2530.415,1204.786c2.759-1.867,6.26-1.518,7.817.782s.577,5.68-2.182,7.548-6.264,1.518-7.817-.782S2527.651,1206.655,2530.415,1204.786Z" transform="translate(-2522.386 -1197.382)" opacity="0.5" fill="url(#w)" style="mix-blend-mode:multiply;isolation:isolate"/><path d="M2512.456,1189.355c.4-.425.929-.582,1.174-.347s.121.769-.281,1.192-.929.582-1.178.347S2512.054,1189.78,2512.456,1189.355Z" transform="translate(-2509.7 -1185.319)" fill="url(#x)"/></g></g></g></svg>