<svg xmlns="http://www.w3.org/2000/svg" width="331" height="132.8" viewBox="0 0 331 132.8"><defs><style>.a{opacity:0.06;}.b{opacity:0.11;}.c{opacity:0.05;}.d{opacity:0.07;}</style></defs><g transform="translate(-796 -1738.064)"><path class="a" d="M18.042,31.4a4.182,4.182,0,0,1-2.326-1.085C7.454,22.828,2,17.887,2,11.823A8.737,8.737,0,0,1,10.823,3a9.607,9.607,0,0,1,7.219,3.353A9.607,9.607,0,0,1,25.261,3a8.737,8.737,0,0,1,8.823,8.823c0,6.064-5.454,11-13.716,18.512A4.149,4.149,0,0,1,18.042,31.4Z" transform="translate(1092.916 1839.46)"/><path class="a" d="M8.914,15.242a1.8,1.8,0,0,1-1-.468C4.351,11.546,2,9.416,2,6.8A3.766,3.766,0,0,1,5.8,3,4.14,4.14,0,0,1,8.914,4.445,4.14,4.14,0,0,1,12.025,3a3.766,3.766,0,0,1,3.8,3.8c0,2.614-2.351,4.743-5.912,7.979A1.788,1.788,0,0,1,8.914,15.242Z" transform="translate(904.172 1735.46)"/><path class="b" d="M18.706,14.118a5.059,5.059,0,1,0-5.059-5.059A5.057,5.057,0,0,0,18.706,14.118ZM7.323,11.588V7.794H4.794v3.794H1v2.529H4.794v3.794H7.323V14.118h3.794V11.588Zm11.382,5.059c-3.377,0-10.118,1.695-10.118,5.059v2.529H28.823V21.706C28.823,18.342,22.082,16.647,18.706,16.647Z" transform="translate(1024.523 1734.064)"/><path class="c" d="M16.356,12.775a4.387,4.387,0,1,0-4.387-4.387A4.386,4.386,0,0,0,16.356,12.775ZM6.484,10.581V7.29H4.29v3.29H1v2.194H4.29v3.29H6.484v-3.29h3.29V10.581Zm9.871,4.387c-2.929,0-8.775,1.47-8.775,4.387v2.194H25.13V19.356C25.13,16.438,19.284,14.968,16.356,14.968Z" transform="translate(817.523 1846.064)"/><path class="d" d="M-9428-12361a10.932,10.932,0,0,1-7.779-3.221A10.93,10.93,0,0,1-9439-12372a11.013,11.013,0,0,1,11-11,10.937,10.937,0,0,1,7.78,3.222A10.936,10.936,0,0,1-9417-12372a10.93,10.93,0,0,1-3.222,7.777A10.934,10.934,0,0,1-9428-12361Zm0-18a7.008,7.008,0,0,0-7,7,7.007,7.007,0,0,0,7,7,7.007,7.007,0,0,0,7-7A7.008,7.008,0,0,0-9428-12379Z" transform="translate(10419 14193)"/><path class="d" d="M-9431.5-12368a7.452,7.452,0,0,1-5.3-2.2,7.451,7.451,0,0,1-2.2-5.3,7.508,7.508,0,0,1,7.5-7.5,7.456,7.456,0,0,1,5.306,2.2,7.455,7.455,0,0,1,2.2,5.3,7.455,7.455,0,0,1-2.2,5.3A7.46,7.46,0,0,1-9431.5-12368Zm0-11.591a4.1,4.1,0,0,0-4.092,4.092,4.1,4.1,0,0,0,4.092,4.09,4.1,4.1,0,0,0,4.092-4.09A4.1,4.1,0,0,0-9431.5-12379.592Z" transform="translate(10235 14152)"/></g></svg>