<svg xmlns="http://www.w3.org/2000/svg" xmlns:xlink="http://www.w3.org/1999/xlink" width="493" height="408" viewBox="0 0 493 408"><defs><style>.a,.ab,.d{fill:#fff;}.a{stroke:#707070;}.b{fill:none;}.c{clip-path:url(#a);}.d{opacity:0.06;}.e,.f{fill:#f7c3cd;}.f{opacity:0.2;mix-blend-mode:multiply;isolation:isolate;}.g{fill:#31dae7;}.h{fill:#64e8f2;}.i{fill:#feb55b;}.j{fill:#ff9552;}.k{fill:#e5a1af;}.l{fill:#392054;}.m{fill:#ca70be;}.n{fill:#9937bb;}.o{fill:#bc48a7;opacity:0.3;}.p{opacity:0.12;clip-path:url(#b);}.q{fill:url(#c);}.r{fill:url(#k);}.s{fill:url(#l);}.t{fill:#21ded1;}.t,.u{stroke:#fff;stroke-width:2px;}.u{fill:#eee129;}.v{fill:#f4abba;}.w{fill:#493262;}.x{fill:#5ae1ec;}.y{fill:#eadcff;}.z{fill:#feb35a;}.aa{fill:#24c7d4;}.ac{fill:#de9640;}.ad{stroke:none;}.ae{filter:url(#q);}.af{filter:url(#o);}.ag{filter:url(#m);}</style><clipPath id="a"><rect class="a" width="493" height="408" transform="translate(189 72)"/></clipPath><clipPath id="b"><rect class="b" width="168.678" height="202.001"/></clipPath><linearGradient id="c" x1="1.896" y1="0.068" x2="2.093" y2="0.56" gradientUnits="objectBoundingBox"><stop offset="0" stop-color="#fff" stop-opacity="0"/><stop offset="0.508" stop-color="#fff" stop-opacity="0.816"/><stop offset="1" stop-color="#fff" stop-opacity="0"/></linearGradient><linearGradient id="k" x1="0.5" x2="0.5" y2="1" gradientUnits="objectBoundingBox"><stop offset="0" stop-color="#ffb1fc"/><stop offset="1" stop-color="#ffd7b5" stop-opacity="0"/></linearGradient><linearGradient id="l" x1="1" y1="0.5" x2="0" y2="1" gradientUnits="objectBoundingBox"><stop offset="0" stop-color="#fff"/><stop offset="0.661" stop-color="#85ffea"/><stop offset="1" stop-color="#fff" stop-opacity="0"/></linearGradient><filter id="m" x="87.641" y="67.857" width="285.696" height="138.499" filterUnits="userSpaceOnUse"><feOffset dy="20" input="SourceAlpha"/><feGaussianBlur stdDeviation="3" result="n"/><feFlood flood-color="#78003c" flood-opacity="0.161"/><feComposite operator="in" in2="n"/><feComposite in="SourceGraphic"/></filter><filter id="o" x="176.003" y="30.189" width="97.918" height="97.918" filterUnits="userSpaceOnUse"><feOffset dy="10" input="SourceAlpha"/><feGaussianBlur stdDeviation="10" result="p"/><feFlood flood-opacity="0.059"/><feComposite operator="in" in2="p"/><feComposite in="SourceGraphic"/></filter><filter id="q" x="78.479" y="187.889" width="97.918" height="97.918" filterUnits="userSpaceOnUse"><feOffset dy="10" input="SourceAlpha"/><feGaussianBlur stdDeviation="10" result="r"/><feFlood flood-opacity="0.059"/><feComposite operator="in" in2="r"/><feComposite in="SourceGraphic"/></filter></defs><g class="c" transform="translate(-189 -72)"><path class="d" d="M123.1,184.64a61.544,61.544,0,1,1,61.537,61.551A61.544,61.544,0,0,1,123.1,184.64m-33.273,0a94.81,94.81,0,1,0,94.81-94.81,94.808,94.808,0,0,0-94.81,94.81M261.047,86.07a22.157,22.157,0,1,0,22.165-22.148H283.2A22.166,22.166,0,0,0,261.047,86.07m-151,248.863c-18-.82-27.787-3.819-34.289-6.353A57.381,57.381,0,0,1,54.518,314.77a56.971,56.971,0,0,1-13.811-21.223c-2.535-6.5-5.533-16.287-6.352-34.289-.895-19.462-1.074-25.308-1.074-74.617s.194-55.138,1.074-74.617c.82-18,3.841-27.769,6.352-34.287A57.382,57.382,0,0,1,54.518,54.5,56.909,56.909,0,0,1,75.756,40.689c6.5-2.535,16.287-5.533,34.289-6.351,19.462-.9,25.309-1.074,74.594-1.074s55.137.191,74.616,1.077c18,.82,27.77,3.84,34.288,6.351A57.2,57.2,0,0,1,314.782,54.5a57.215,57.215,0,0,1,13.811,21.238c2.535,6.5,5.533,16.287,6.351,34.288.9,19.479,1.074,25.31,1.074,74.617s-.178,55.137-1.074,74.617c-.819,18-3.833,27.786-6.351,34.288a61.128,61.128,0,0,1-35.05,35.034c-6.5,2.535-16.285,5.534-34.288,6.352-19.462.9-25.309,1.074-74.616,1.074s-55.138-.178-74.594-1.074M108.516,1.118C88.86,2.014,75.429,5.131,63.7,9.7a90.618,90.618,0,0,0-32.708,21.3A90.155,90.155,0,0,0,9.694,63.7C5.13,75.436,2.013,88.861,1.119,108.516.208,128.2,0,134.5,0,184.64s.208,56.436,1.119,76.123c.895,19.658,4.011,33.08,8.576,44.817a90.263,90.263,0,0,0,21.3,32.708,90.706,90.706,0,0,0,32.708,21.3c11.752,4.565,25.161,7.681,44.817,8.576,19.7.9,25.981,1.118,76.123,1.118s56.436-.209,76.123-1.118c19.657-.9,33.081-4.011,44.818-8.576a94.395,94.395,0,0,0,54-54c4.565-11.737,7.7-25.161,8.576-44.817.894-19.7,1.1-25.981,1.1-76.123s-.209-56.436-1.1-76.124c-.9-19.657-4.011-33.087-8.576-44.817a90.785,90.785,0,0,0-21.3-32.708A90.342,90.342,0,0,0,305.594,9.7C293.842,5.131,280.418,2,260.777,1.118,241.087.218,234.8,0,184.661,0s-56.44.208-76.137,1.118" transform="translate(367.924 35.766) rotate(30)"/><g transform="translate(255.259 85.96)"><path class="e" d="M4236.173,1830.547h103.952l8.624-23.216a32.833,32.833,0,0,1,17.3-18.452,82.673,82.673,0,0,0,27.483-20.616,190.954,190.954,0,0,0,29.257-44.47l-64.423-.316s5.8-36.036-26.22-83.9a27.092,27.092,0,0,1-4.452-17.411l3.035-34.906s21.758-24.315,8.409-54.482c0,0-12.765-17.675-17.83-11.2,0,0-38.56,91.822-42.07,105.475s-8.192,22.234-3.511,65.144a260.183,260.183,0,0,1,1.669,28.622,101.573,101.573,0,0,1-9.764,43.231Z" transform="translate(-4236.174 -1434.261)"/><path class="f" d="M4333.128,2345.075c-9.649-10.712-23.052-9.021-37.147-13.908s-18.617-40.116-18.617-40.116v0c.022,1.329.033,2.62.031,3.864a101.571,101.571,0,0,1-9.764,43.231l-31.456,66.5h103.952l8.624-23.217a32.835,32.835,0,0,1,17.3-18.452,80.888,80.888,0,0,0,23.083-16.007C4360.5,2359,4342.777,2355.787,4333.128,2345.075Z" transform="translate(-4236.174 -2008.352)"/><g transform="translate(32.463 -0.001)"><path class="g" d="M4435.9,1106.553c23.9,37.708,82.8,71.313,82.8,71.313s-46.823-3.8-70.06-34.063l8.426-6.978s-6.7.648-12.307,1.3A63.4,63.4,0,0,1,4435.9,1106.553Z" transform="translate(-4435.899 -1105.403)"/><path class="h" d="M4498.6,1118.795c-3.634,1.649-9.01,4.161-9.01,4.161l5.18-7.442a60.364,60.364,0,0,0-19.251-9.87c-2.667,3.883-5.8,8.223-5.8,8.223l-.622-9.907a91.878,91.878,0,0,0-33.2-.761c23.9,37.708,82.8,71.313,82.8,71.313C4518.433,1146.806,4510,1129.507,4498.6,1118.795Z" transform="translate(-4435.899 -1102.05)"/></g><g transform="translate(37.141 59.093)"><path class="i" d="M4401.527,1292.327a55.519,55.519,0,0,1,21.093-7.265c2.087,2.384,4.649,5.187,4.649,5.187l.142-5.612c26.637-1.276,49.1,15.5,49.1,15.5-15.243,9.273-28.36,11.873-39.168,11.1-.682-1.96-1.651-4.884-1.651-4.884l-1.808,4.517a49.161,49.161,0,0,1-13.768-4.086c.958-2.343,1.963-5.021,1.963-5.021l-5.679,3.113A50.48,50.48,0,0,1,4401.527,1292.327Z" transform="translate(-4401.527 -1284.566)"/><path class="j" d="M4437.338,1331.88c-.682-1.96-1.651-4.884-1.651-4.884l-1.808,4.517a49.145,49.145,0,0,1-13.768-4.086c.958-2.343,1.963-5.021,1.963-5.021l-5.679,3.113a50.481,50.481,0,0,1-14.868-12.551c30.992-3.542,74.979,7.809,74.979,7.809C4461.264,1330.05,4448.146,1332.65,4437.338,1331.88Z" transform="translate(-4401.527 -1305.207)"/></g><g transform="translate(243.173 17.757)"><path class="k" d="M5190.272,1261.6s22.018-14.736,27.045-5.028-28.606,44.064-28.606,44.064Z" transform="translate(-5188.711 -1253.259)"/><path class="k" d="M5190.272,1513.109s22.018-14.736,27.045-5.028-28.606,44.064-28.606,44.064Z" transform="translate(-5188.711 -1440.563)"/><path class="k" d="M5190.272,1684.469s22.018-14.737,27.045-5.028-28.606,44.064-28.606,44.064Z" transform="translate(-5188.711 -1568.176)"/></g><path class="l" d="M4735.1,1221.235H4614.224a16.3,16.3,0,0,0-16.3,16.3v247.037a16.3,16.3,0,0,0,16.3,16.3H4735.1a16.3,16.3,0,0,0,16.3-16.3V1237.534A16.3,16.3,0,0,0,4735.1,1221.235Z" transform="translate(-4505.574 -1211.653)"/><path class="f" d="M4583.047,1937.684s-21.864,53.52-19.742,63.64,15.388,23.652,47.94,19.141a499.9,499.9,0,0,0,55.051-10.542s1.36-72.229,0-75.892-59.888-29.662-62.191-29.662S4583.047,1937.684,4583.047,1937.684Z" transform="translate(-4479.685 -1720.39)"/><rect class="m" width="137.671" height="235.206" transform="translate(100.253 31.797)"/><path class="n" d="M1.474,0H57.437a1.474,1.474,0,0,1,1.474,1.474v0a1.474,1.474,0,0,1-1.474,1.474H1.474A1.474,1.474,0,0,1,0,1.474v0A1.474,1.474,0,0,1,1.474,0Z" transform="translate(139.744 21.458)"/><path class="e" d="M4484.681,1608.329a10.279,10.279,0,0,0,2.709,4.607l2.232-25.672s16.005-17.887,12.139-42.011a36.044,36.044,0,0,0-11.713-21.382c-3.586-3.152-7.525-5.259-9.847-2.293,0,0-18.132,43.18-30.661,74.721Z" transform="translate(-4395.07 -1434.261)"/><g transform="translate(162.247 271.573)"><path class="o" d="M4885.24,2254.246a6.761,6.761,0,1,1-6.761-6.761A6.761,6.761,0,0,1,4885.24,2254.246Z" transform="translate(-4871.717 -2247.485)"/></g><g transform="translate(69.221 64.588)"><g class="p" transform="translate(0 0)"><g transform="translate(-33 -607)"><rect class="q" width="3" height="314" transform="translate(33 607)"/></g><g transform="translate(-10 -607)"><rect class="q" width="3" height="314" transform="translate(33 607)"/></g><g transform="translate(13 -607)"><rect class="q" width="3" height="314" transform="translate(33 607)"/></g><g transform="translate(36 -607)"><rect class="q" width="3" height="314" transform="translate(33 607)"/></g><g transform="translate(59 -607)"><rect class="q" width="3" height="314" transform="translate(33 607)"/></g><g transform="translate(82 -607)"><rect class="q" width="3" height="314" transform="translate(33 607)"/></g><g transform="translate(105 -607)"><rect class="q" width="3" height="314" transform="translate(33 607)"/></g><g transform="translate(128 -607)"><rect class="q" width="3" height="314" transform="translate(33 607)"/></g></g><path class="r" d="M208.423,139.463v0H0V35.078a1.406,1.406,0,0,0,.94.232c1.229,0,3.679-.686,8.373-3.959A52.88,52.88,0,0,0,13.9,27.645a32.174,32.174,0,0,1,6.621-4.85,21.133,21.133,0,0,1,9.908-2.133,42.656,42.656,0,0,1,5.888.451,100.654,100.654,0,0,1,16.467,4.18l.017.006c5.871,1.857,11.417,3.611,16.482,3.611a16.855,16.855,0,0,0,8.237-1.977c4.821-2.613,9.031-6.672,13.49-10.967,5.87-5.658,11.94-11.508,20.032-14.645A18.732,18.732,0,0,1,117.924,0c3.724,0,7.3,1.08,11.445,2.326l.01,0c.669.2,1.45.438,2.248.67A65.186,65.186,0,0,0,150.87,6a75.9,75.9,0,0,0,11.619-.945,41.347,41.347,0,0,0,5.854-1.365V63.443h40.13l-.049,76.018Z" transform="translate(0.738 61.456)"/></g><g transform="translate(30.382 53.897)"><g transform="translate(0 0)"><g class="ag" transform="matrix(1, 0, 0, 1, -96.64, -67.86)"><path class="s" d="M-5970.021-1226.867a46.108,46.108,0,0,1,12.589,2.631c3.992,1.3,7.852,2.784,11.735,3.963,3.862,1.161,7.815,2.072,11.568,1.748a14.015,14.015,0,0,0,2.717-.519l.332-.093.347-.124.695-.247c.469-.155.918-.344,1.366-.537a24.314,24.314,0,0,0,5.048-2.859c1.575-1.144,3.068-2.53,4.692-3.894a39.135,39.135,0,0,1,5.236-3.8,34.328,34.328,0,0,1,5.916-2.813,26.62,26.62,0,0,1,6.5-1.328,26.682,26.682,0,0,1,6.587.343,43.631,43.631,0,0,1,6.255,1.6c4.044,1.33,7.841,3.016,11.668,4.347a49.61,49.61,0,0,0,5.761,1.678,29.327,29.327,0,0,0,5.818.677,23.017,23.017,0,0,0,5.761-.624,27.85,27.85,0,0,0,5.516-1.919,38.262,38.262,0,0,0,9.729-6.781c2.977-2.729,5.73-5.8,8.741-8.748a57.372,57.372,0,0,1,4.784-4.25,32.922,32.922,0,0,1,5.52-3.505,26.763,26.763,0,0,1,6.228-2.2,25.658,25.658,0,0,1,6.622-.49,58.314,58.314,0,0,1,12.542,2.409c4.022,1.129,7.95,2.376,11.9,3.3a41.865,41.865,0,0,0,11.824,1.3c.983-.046,1.912-.171,2.97-.3,1.023-.133,2.031-.265,3.03-.425a55.242,55.242,0,0,0,5.906-1.23,50.588,50.588,0,0,0,20.963-11.344c6.065-5.3,10.935-11.926,15.38-18.807a216.834,216.834,0,0,0,12.05-21.488c1.834-3.683,3.546-7.427,5.226-11.186l1.339-3.108.332-.769c.219-.513.443-1.024.652-1.542l-3.8,0c1.591-1.517.039-.131,8.715-6.772.857,10.39.87,8.57.848,10.824l-2.646-2.746c-.21.523-.437,1.04-.66,1.558l-.333.777-1.354,3.142c-1.7,3.8-3.431,7.589-5.289,11.319a219.884,219.884,0,0,1-12.24,21.824c-2.263,3.516-4.658,6.959-7.272,10.264-.674.813-1.314,1.649-2.019,2.442l-2.123,2.369-.532.59-.568.559-1.136,1.118-1.136,1.118c-.39.361-.8.7-1.2,1.051a53.992,53.992,0,0,1-22.329,12.074,58.673,58.673,0,0,1-6.248,1.3c-1.045.168-2.091.3-3.12.438-1,.125-2.123.275-3.208.325a45.174,45.174,0,0,1-12.786-1.38c-4.119-.962-8.092-2.228-12.041-3.334a55.261,55.261,0,0,0-11.8-2.287,22.292,22.292,0,0,0-5.73.416,23.359,23.359,0,0,0-5.452,1.928,29.477,29.477,0,0,0-4.945,3.145,54.055,54.055,0,0,0-4.5,4c-2.9,2.843-5.69,5.949-8.818,8.822a41.588,41.588,0,0,1-10.58,7.351,31.2,31.2,0,0,1-6.191,2.153,26.4,26.4,0,0,1-6.554.71,32.749,32.749,0,0,1-6.5-.754,52.921,52.921,0,0,1-6.158-1.79c-3.995-1.393-7.782-3.073-11.609-4.328a29.569,29.569,0,0,0-11.547-1.787,23.227,23.227,0,0,0-5.637,1.151,28.6,28.6,0,0,0-2.685,1.129,28.642,28.642,0,0,0-2.6,1.387,35.881,35.881,0,0,0-4.8,3.49c-1.546,1.295-3.091,2.737-4.866,4.031a27.74,27.74,0,0,1-5.732,3.248c-.5.217-1.008.427-1.523.6l-.767.273c-.251.094-.516.181-.8.256a17.363,17.363,0,0,1-3.372.645,25.666,25.666,0,0,1-6.622-.353,51.69,51.69,0,0,1-6.233-1.525c-4.042-1.23-7.92-2.722-11.8-3.985a43.037,43.037,0,0,0-11.639-2.466Z" transform="translate(6066.76 1392.44)"/></g></g><g class="t" transform="translate(63.075 88.182)"><ellipse class="ad" cx="3.674" cy="3.674" rx="3.674" ry="3.674"/><ellipse class="b" cx="3.674" cy="3.674" rx="4.674" ry="4.674"/></g><g class="t" transform="translate(108.024 95.529)"><ellipse class="ad" cx="3.674" cy="3.674" rx="3.674" ry="3.674"/><ellipse class="b" cx="3.674" cy="3.674" rx="4.674" ry="4.674"/></g><g class="u" transform="translate(153.632 67.553)"><ellipse class="ad" cx="3.674" cy="3.674" rx="3.674" ry="3.674"/><ellipse class="b" cx="3.674" cy="3.674" rx="4.674" ry="4.674"/></g><g class="t" transform="translate(225.673 59.84)"><ellipse class="ad" cx="3.674" cy="3.674" rx="3.674" ry="3.674"/><ellipse class="b" cx="3.674" cy="3.674" rx="4.674" ry="4.674"/></g></g><path class="k" d="M4545.117,1546.939c5.01-2.3,7.625-15.341,8.563-21.2-4.021-4.045-9.064-7.685-11.823-4.16,0,0-3.993,9.508-9.525,22.86C4536.114,1546.544,4541.37,1548.663,4545.117,1546.939Z" transform="translate(-4456.726 -1434.261)"/><path class="v" d="M5020.445,1915.048s-18.595,1.56-19.245,6.5.781,13.653,18.334,15.344h18.183s-5.44-15.083-5.18-15.6S5020.445,1915.048,5020.445,1915.048Z" transform="translate(-4805.808 -1728.342)"/><path class="e" d="M4952.338,1826.726a5.046,5.046,0,0,0-1.965,6.986c8.557,14.757,42.58,73.4,45.647,78.175,3.511,5.461,12.093,18.334,40.568,24.966s40.179,25.745,40.179,25.745h87.769s-20.674-32.767-37.838-117.806c0,0-13.263-70.605-38.229-68.265,0,0-15.213-15.993-30.036-12.873,0,0-28.086-16.774-44.079-16.774l-38.417-45.4a11.116,11.116,0,0,0-15.179-1.8,7.279,7.279,0,0,0-2.968,4.679c-1.17,7.411,8.583,26.135,24.185,48.761s54.223,94.4,37.449,126a169.7,169.7,0,0,1-31.987-33.547C4975.024,1828.259,4960.423,1822.435,4952.338,1826.726Z" transform="translate(-4767.535 -1566.311)"/><path class="k" d="M5203.318,1891.079a159.936,159.936,0,0,1,14.387,14.07,166.069,166.069,0,0,1,18.306,24.056c5.7,9.389,9.456,17.621,11.233,27.96l-.114.023c-2.047-9.712-7.394-20.173-12.051-27.4a202.812,202.812,0,0,0-18.07-24.035c-4.085-4.712-9.267-10.279-13.772-14.59Z" transform="translate(-4956.357 -1710.493)"/><path class="k" d="M5374.508,1956.239a43.346,43.346,0,0,1,11.115,8.429,53.809,53.809,0,0,1,8.422,11.236,54.913,54.913,0,0,1,5.273,13.013,53.069,53.069,0,0,1,1.764,13.835l-.116.009a68.091,68.091,0,0,0-2.53-13.583,61.6,61.6,0,0,0-5.409-12.7,60.185,60.185,0,0,0-8.084-11.187,51.889,51.889,0,0,0-10.494-8.951Z" transform="translate(-5083.861 -1759.018)"/><path class="k" d="M5491.9,2005.856a38.658,38.658,0,0,1,9.182,11,49.573,49.573,0,0,1,5.244,13.373,41.654,41.654,0,0,1,1.223,9.466l-.116.016a70.487,70.487,0,0,0-1.992-9.231,64.578,64.578,0,0,0-5.327-13.1,52.368,52.368,0,0,0-8.266-11.444Z" transform="translate(-5171.288 -1795.968)"/><path class="k" d="M4970.058,2221.657c.779-3.949-3.822-10.212-8-14.937a9.71,9.71,0,0,0-10.344-2.818,5.051,5.051,0,0,0-1.337,6.582c2.3,3.966,6.438,11.1,11.32,19.508C4965.353,2228.131,4969.338,2225.313,4970.058,2221.657Z" transform="translate(-4767.54 -1943.084)"/><path class="k" d="M5009.538,1720.706c2.221-.444,12.288-3.792,11.671-5.628h0l-9.93-11.736a11.312,11.312,0,0,0-7.569-3.955h0l-.047,0c-.081-.007-.263-.021-.518-.02-1.332,0-4.61.38-5.331,3.985-.712,3.56,5.181,12.214,7.781,15.813A3.913,3.913,0,0,0,5009.538,1720.706Z" transform="translate(-4803.332 -1567.719)"/><path class="l" d="M4320.294,2494.036c11,6.757,46.41,26.964,83.025,31.271,2.145.252,3.654,2.219,3.019,3.917l-6.4,17.134a2.846,2.846,0,0,1-3.129,1.622c-10.791-1.31-55.314-8.012-86.641-32.247a2.807,2.807,0,0,1-1.117-3.144l6.528-17.485C4316.2,2493.458,4318.5,2492.935,4320.294,2494.036Z" transform="translate(-4290.344 -2159.088)"/><path class="w" d="M4338.2,2537.372l-.121-.045a1.242,1.242,0,0,1-.729-1.6l1.969-5.274a1.242,1.242,0,0,1,1.6-.729l.122.045a1.241,1.241,0,0,1,.729,1.6l-1.969,5.275A1.241,1.241,0,0,1,4338.2,2537.372Z" transform="translate(-4311.463 -2186.041)"/><path class="w" d="M4364,2553.273l-.121-.046a1.242,1.242,0,0,1-.729-1.6l1.97-5.274a1.241,1.241,0,0,1,1.6-.729l.121.045a1.241,1.241,0,0,1,.729,1.6l-1.969,5.275A1.242,1.242,0,0,1,4364,2553.273Z" transform="translate(-4330.676 -2197.882)"/><path class="w" d="M1.306,0h0A1.306,1.306,0,0,1,2.612,1.306v5.5A1.306,1.306,0,0,1,1.306,8.113h0A1.306,1.306,0,0,1,0,6.807v-5.5A1.306,1.306,0,0,1,1.306,0Z" transform="translate(41.474 351.342) rotate(20.479)"/><path class="w" d="M4416.432,2581.907l-.122-.045a1.241,1.241,0,0,1-.728-1.6l1.97-5.274a1.242,1.242,0,0,1,1.6-.729l.121.045a1.242,1.242,0,0,1,.729,1.6l-1.969,5.275A1.241,1.241,0,0,1,4416.432,2581.907Z" transform="translate(-4369.723 -2219.207)"/><path class="w" d="M1.306,0h5.5A1.306,1.306,0,0,1,8.113,1.306v0A1.306,1.306,0,0,1,6.807,2.612h-5.5A1.306,1.306,0,0,1,0,1.306v0A1.306,1.306,0,0,1,1.306,0Z" transform="translate(52.104 366.032) rotate(-69.521)"/><path class="w" d="M4469.911,2608.675l-.121-.045a1.242,1.242,0,0,1-.729-1.6l1.97-5.274a1.241,1.241,0,0,1,1.6-.729l.121.045a1.241,1.241,0,0,1,.729,1.6l-1.969,5.274A1.241,1.241,0,0,1,4469.911,2608.675Z" transform="translate(-4409.549 -2239.141)"/><path class="w" d="M4497.764,2619.074l-.122-.045a1.242,1.242,0,0,1-.728-1.6l1.969-5.274a1.241,1.241,0,0,1,1.6-.729l.122.045a1.24,1.24,0,0,1,.728,1.6l-1.969,5.274A1.241,1.241,0,0,1,4497.764,2619.074Z" transform="translate(-4430.292 -2246.885)"/><path class="w" d="M1.306,0h0A1.306,1.306,0,0,1,2.612,1.306v5.5A1.306,1.306,0,0,1,1.306,8.113h0A1.306,1.306,0,0,1,0,6.807v-5.5A1.306,1.306,0,0,1,1.306,0Z" transform="translate(76.274 366.396) rotate(20.479)"/><path class="w" d="M1.306,0h0A1.306,1.306,0,0,1,2.612,1.306v5.5A1.305,1.305,0,0,1,1.306,8.113h0A1.306,1.306,0,0,1,0,6.807v-5.5A1.306,1.306,0,0,1,1.306,0Z" transform="translate(83.817 367.894) rotate(20.479)"/><path class="w" d="M4584.466,2641.856l-.121-.045a1.242,1.242,0,0,1-.729-1.6l1.969-5.275a1.241,1.241,0,0,1,1.6-.729l.121.045a1.241,1.241,0,0,1,.729,1.6l-1.969,5.274A1.241,1.241,0,0,1,4584.466,2641.856Z" transform="translate(-4494.859 -2263.852)"/><path class="w" d="M4614.332,2646.862l-.121-.045a1.24,1.24,0,0,1-.729-1.6l1.969-5.275a1.242,1.242,0,0,1,1.6-.729l.121.045a1.241,1.241,0,0,1,.729,1.6l-1.969,5.275A1.241,1.241,0,0,1,4614.332,2646.862Z" transform="translate(-4517.101 -2267.579)"/><path class="w" d="M1.306,0h0A1.306,1.306,0,0,1,2.612,1.306v5.5A1.305,1.305,0,0,1,1.306,8.113h0A1.306,1.306,0,0,1,0,6.806v-5.5A1.306,1.306,0,0,1,1.306,0Z" transform="translate(106.42 372.454) rotate(20.475)"/><path class="x" d="M4403.428,2563.789l.03-.081a1.516,1.516,0,0,1-.347-.084l-8.665-3.235a1.728,1.728,0,0,1-.925-2.256l7.813-20.928a1.728,1.728,0,0,1,2.177-1.1l8.666,3.235a1.618,1.618,0,0,1,.989,1.137q1.02.445,2.058.889a3.747,3.747,0,0,0-2.284-4.071l-8.666-3.235a3.837,3.837,0,0,0-4.833,2.436l-7.813,20.928a3.837,3.837,0,0,0,2.054,5.007l8.666,3.235a3.65,3.65,0,0,0,3.742-.807Q4404.76,2564.339,4403.428,2563.789Z" transform="translate(-4351.741 -2189.168)"/><path class="y" d="M4414.9,2581.747l-3.769-1.407a1.415,1.415,0,0,0-.987,2.644l3.768,1.407Z" transform="translate(-4365.118 -2223.734)"/><path class="f" d="M5213.412,2517.783h87.769s-13.555-21.485-27.826-74.805c-6.262,39.261-40.812,37-54.524,39.175-15.787,2.509-77.07-10.269-85.657-14.294,3.819,5.828,12.871,17.848,40.059,24.179C5201.709,2498.669,5213.412,2517.783,5213.412,2517.783Z" transform="translate(-4904.18 -2121.497)"/><path class="f" d="M5094.346,1943.342c17.208,27.651,48.083,91.168,32.808,118.88l10.139,10.007s25.617-28.379-15.147-90.963A417.231,417.231,0,0,0,5094.346,1943.342Z" transform="translate(-4875.265 -1749.413)"/><g transform="translate(126.644 21.44)"><path class="g" d="M4835.447,1352.521H4708.164a7.478,7.478,0,0,0-7.479,7.478v53.031a7.478,7.478,0,0,0,7.479,7.478h13.217c-.767,5.838-1.771,14.212-1.22,14.212.586,0,7-8.81,10.878-14.212h104.407a7.478,7.478,0,0,0,7.479-7.478V1360A7.478,7.478,0,0,0,4835.447,1352.521Z" transform="translate(-4700.686 -1352.521)"/></g><g transform="translate(32.462 179.382)"><path class="z" d="M4708.164,1352.521h127.283a7.478,7.478,0,0,1,7.479,7.478v53.032a7.478,7.478,0,0,1-7.479,7.478h-13.217c.767,5.838,1.771,14.212,1.22,14.212-.586,0-7-8.81-10.879-14.212H4708.164a7.478,7.478,0,0,1-7.479-7.478V1360A7.478,7.478,0,0,1,4708.164,1352.521Z" transform="translate(-4700.686 -1352.521)"/></g><g transform="translate(139.744 36.229)"><g class="af" transform="matrix(1, 0, 0, 1, -206, -50.19)"><rect class="aa" width="37.918" height="37.918" rx="18.959" transform="translate(206 50.19)"/></g><path class="ab" d="M9.877,13.673h-3.7v-3.7H3.7v3.7H0v2.469H3.7v3.7H6.173v-3.7h3.7Zm6.173,1.235a3.7,3.7,0,1,0-3.7-3.7A3.688,3.688,0,0,0,16.049,14.907Zm0,2.469c-2.469,0-7.407,1.235-7.407,3.7v2.469H23.457V21.08C23.457,18.611,18.519,17.377,16.049,17.377Z" transform="translate(5.537 3.145)"/></g><g class="ae" transform="matrix(1, 0, 0, 1, -66.26, -13.96)"><path class="ac" d="M18.959,0A18.959,18.959,0,1,1,0,18.959,18.959,18.959,0,0,1,18.959,0Z" transform="translate(108.48 207.89)"/></g><path class="ab" d="M12.951,22.179l-1.389-1.253C6.631,16.4,3.375,13.46,3.375,9.8A5.208,5.208,0,0,1,8.642,4.5a5.665,5.665,0,0,1,4.309,2.023A5.665,5.665,0,0,1,17.261,4.5a5.208,5.208,0,0,1,5.267,5.3c0,3.661-3.256,6.6-8.188,11.128Z" transform="translate(48.228 199.548)"/><path class="l" d="M6.759-10.066h3.2a1.545,1.545,0,0,1,.168.414,2.118,2.118,0,0,1,.069.552,1.039,1.039,0,0,1-.256.779.954.954,0,0,1-.69.247H6.759v3.59a2.562,2.562,0,0,1-.454.108,3.593,3.593,0,0,1-.592.049A1.533,1.533,0,0,1,4.8-4.553a1.039,1.039,0,0,1-.306-.878V-8.074H1.237A1.966,1.966,0,0,1,1.069-8.5,2.008,2.008,0,0,1,1-9.041a1.039,1.039,0,0,1,.256-.779.982.982,0,0,1,.71-.247H4.491V-13.6a3.232,3.232,0,0,1,.473-.108,3.593,3.593,0,0,1,.592-.049,1.493,1.493,0,0,1,.9.227,1.039,1.039,0,0,1,.306.878ZM16.6-13.893A1.551,1.551,0,0,1,17-14.9a1.293,1.293,0,0,1,.986-.375H23.84a2.07,2.07,0,0,1,.187.414,1.741,1.741,0,0,1,.089.572,1.146,1.146,0,0,1-.247.789.842.842,0,0,1-.661.276h-4.4l-.237,2.663a6.645,6.645,0,0,1,.848-.256,4.837,4.837,0,0,1,1.124-.118,4.966,4.966,0,0,1,1.706.276,3.616,3.616,0,0,1,1.292.789,3.462,3.462,0,0,1,.819,1.233,4.265,4.265,0,0,1,.286,1.588,4.183,4.183,0,0,1-.3,1.568,3.611,3.611,0,0,1-.878,1.292,4.2,4.2,0,0,1-1.469.878,6.007,6.007,0,0,1-2.071.325,8.012,8.012,0,0,1-1.607-.148,5.022,5.022,0,0,1-1.233-.4,2.315,2.315,0,0,1-.789-.6A1.188,1.188,0,0,1,16.03-4.9a1.113,1.113,0,0,1,.256-.74,1.8,1.8,0,0,1,.572-.464,6.913,6.913,0,0,0,1.193.75A3.888,3.888,0,0,0,19.817-5a2.312,2.312,0,0,0,1.706-.582,1.992,1.992,0,0,0,.582-1.47,1.8,1.8,0,0,0-.562-1.4,2.3,2.3,0,0,0-1.608-.513,3.154,3.154,0,0,0-1.075.168,6.036,6.036,0,0,0-.917.424,1.965,1.965,0,0,1-1.2-.424,1.4,1.4,0,0,1-.454-1.134q0-.1.01-.227t.03-.365Zm14.872-1.322a5.644,5.644,0,0,1,.641-.138,4.066,4.066,0,0,1,.641-.059,3.037,3.037,0,0,1,.651.069,1.711,1.711,0,0,1,.562.227,1.146,1.146,0,0,1,.394.434,1.45,1.45,0,0,1,.148.69v6.056h1.755a1.749,1.749,0,0,1,.178.424,1.969,1.969,0,0,1,.079.562,1.1,1.1,0,0,1-.247.789.874.874,0,0,1-.661.256h-1.1v2.623q-.158.039-.473.1a3.418,3.418,0,0,1-.631.059,2.047,2.047,0,0,1-.986-.2q-.355-.2-.355-.868V-5.9H26.9a1.393,1.393,0,0,1-.572-.523,1.578,1.578,0,0,1-.237-.878,2.915,2.915,0,0,1,.059-.572,1.469,1.469,0,0,1,.217-.533Zm.71,2.347h-.039L28.752-7.936h3.412Zm14.142-1.2a1.265,1.265,0,0,1-.158.621,1.331,1.331,0,0,1-.375.444,7.108,7.108,0,0,0-1.055-.365,4.365,4.365,0,0,0-1.114-.148,2.937,2.937,0,0,0-2.2.858,4.062,4.062,0,0,0-.976,2.594,5,5,0,0,1,1.114-.671,3.908,3.908,0,0,1,1.667-.335,4.852,4.852,0,0,1,1.617.256,3.506,3.506,0,0,1,1.262.759A3.321,3.321,0,0,1,46.927-8.8a4.791,4.791,0,0,1,.286,1.716,4.421,4.421,0,0,1-.3,1.637,3.557,3.557,0,0,1-.868,1.292,4.157,4.157,0,0,1-1.4.858,5.293,5.293,0,0,1-1.894.316,5.141,5.141,0,0,1-1.972-.365,3.942,3.942,0,0,1-1.519-1.1,5.169,5.169,0,0,1-.976-1.864,8.966,8.966,0,0,1-.345-2.623,9.355,9.355,0,0,1,.424-2.988,5.731,5.731,0,0,1,1.164-2.061,4.465,4.465,0,0,1,1.726-1.184,5.891,5.891,0,0,1,2.11-.375,5.184,5.184,0,0,1,2.14.375A1.191,1.191,0,0,1,46.326-14.071ZM42.775-5a1.832,1.832,0,0,0,1.41-.562,2.186,2.186,0,0,0,.523-1.548A1.953,1.953,0,0,0,44.176-8.6a1.984,1.984,0,0,0-1.42-.5,2.853,2.853,0,0,0-1.312.306,2.8,2.8,0,0,0-.957.759l.039.2a3.25,3.25,0,0,0,.6,2.1A2.008,2.008,0,0,0,42.775-5Zm5.74.493a1.565,1.565,0,0,1,.4-1.095,1.432,1.432,0,0,1,1.114-.444,1.408,1.408,0,0,1,1.095.444,1.565,1.565,0,0,1,.4,1.095,1.539,1.539,0,0,1-.4,1.075,1.408,1.408,0,0,1-1.095.444,1.432,1.432,0,0,1-1.114-.444A1.539,1.539,0,0,1,48.515-4.5Zm4.931-9.271a1.136,1.136,0,0,1,.256-.72,2.153,2.153,0,0,1,.71-.562,4.11,4.11,0,0,1,1.095-.365A7.093,7.093,0,0,1,56.9-15.55a6.088,6.088,0,0,1,1.884.266,4.071,4.071,0,0,1,1.381.74,3.07,3.07,0,0,1,.848,1.124,3.541,3.541,0,0,1,.286,1.44,4.086,4.086,0,0,1-.582,2.071,8.741,8.741,0,0,1-1.923,2.15l-2.88,2.505H61.2a1.774,1.774,0,0,1,.178.414,1.869,1.869,0,0,1,.079.552,1.062,1.062,0,0,1-.237.759.86.86,0,0,1-.651.247h-6.9a1.53,1.53,0,0,1-.493-.552,1.663,1.663,0,0,1-.178-.789,1.655,1.655,0,0,1,.207-.848,2.647,2.647,0,0,1,.483-.611l3.136-2.86a8.568,8.568,0,0,0,1.519-1.647,2.429,2.429,0,0,0,.414-1.292,1.481,1.481,0,0,0-.533-1.184,2.344,2.344,0,0,0-1.558-.454,3.878,3.878,0,0,0-1.479.266,5.184,5.184,0,0,0-1.085.582,1.389,1.389,0,0,1-.464-.434A1.166,1.166,0,0,1,53.446-13.775ZM66.523-8.41V-3.3a3.185,3.185,0,0,1-.5.108,4.68,4.68,0,0,1-.7.049,1.618,1.618,0,0,1-1.055-.266,1.2,1.2,0,0,1-.306-.937V-15.254q.158-.039.5-.1a4.022,4.022,0,0,1,.68-.059,1.722,1.722,0,0,1,1.045.256,1.13,1.13,0,0,1,.335.947v4.063l4.734-5.207a2.046,2.046,0,0,1,1.371.375,1.149,1.149,0,0,1,.424.888,1.348,1.348,0,0,1-.207.74,4.561,4.561,0,0,1-.621.74L68.89-9.3q1.538,1.578,2.7,2.821t1.972,1.992a1.358,1.358,0,0,1-.424,1.016,1.406,1.406,0,0,1-.976.365,1.53,1.53,0,0,1-.966-.306,6.863,6.863,0,0,1-.769-.7Z" transform="translate(88.682 216.014)"/><path class="l" d="M1.84-2a.743.743,0,0,1-.558-.21.773.773,0,0,1-.2-.563V-8.728q.088-.022.282-.055a2.252,2.252,0,0,1,.381-.033.964.964,0,0,1,.585.144.633.633,0,0,1,.188.53v4.96H5.353a1.327,1.327,0,0,1,.11.237.931.931,0,0,1,.055.326.682.682,0,0,1-.138.458A.476.476,0,0,1,5-2ZM6.579-7.215q.088-.022.26-.055a1.948,1.948,0,0,1,.37-.033.938.938,0,0,1,.58.144.613.613,0,0,1,.182.508v4.617q-.088.022-.26.055a1.948,1.948,0,0,1-.37.033.938.938,0,0,1-.58-.144A.613.613,0,0,1,6.579-2.6Zm-.11-1.6a.745.745,0,0,1,.226-.547.785.785,0,0,1,.58-.226.767.767,0,0,1,.574.226.755.755,0,0,1,.221.547.768.768,0,0,1-.221.558.767.767,0,0,1-.574.226.785.785,0,0,1-.58-.226A.758.758,0,0,1,6.468-8.817Zm4.374,6.782-.265.055a1.925,1.925,0,0,1-.376.033.942.942,0,0,1-.574-.144A.6.6,0,0,1,9.439-2.6V-9.2a1.436,1.436,0,0,1,.26-.061,2.4,2.4,0,0,1,.381-.028.942.942,0,0,1,.574.144.6.6,0,0,1,.188.508v3.424l2.143-2.132a1.107,1.107,0,0,1,.674.188.569.569,0,0,1,.254.475.659.659,0,0,1-.16.442,4.429,4.429,0,0,1-.5.475L12.057-4.73l2.11,1.977a1.082,1.082,0,0,1-.232.6.679.679,0,0,1-.541.215.823.823,0,0,1-.447-.122,2.422,2.422,0,0,1-.469-.431L10.842-4.3Zm5.3-1.977a1.311,1.311,0,0,0,.574.817,1.972,1.972,0,0,0,1.038.254,2.561,2.561,0,0,0,.856-.138,3.14,3.14,0,0,0,.635-.293.729.729,0,0,1,.254.243.6.6,0,0,1,.1.331.58.58,0,0,1-.149.392,1.215,1.215,0,0,1-.409.293,2.561,2.561,0,0,1-.613.188,4.137,4.137,0,0,1-.762.066,3.774,3.774,0,0,1-1.187-.177,2.424,2.424,0,0,1-.917-.536,2.488,2.488,0,0,1-.6-.889A3.272,3.272,0,0,1,14.752-4.7a3.111,3.111,0,0,1,.21-1.193,2.448,2.448,0,0,1,.569-.851,2.283,2.283,0,0,1,.834-.508,3.03,3.03,0,0,1,1.005-.166,2.79,2.79,0,0,1,.994.171,2.28,2.28,0,0,1,.773.475,2.169,2.169,0,0,1,.5.729,2.317,2.317,0,0,1,.182.922.617.617,0,0,1-.16.464.8.8,0,0,1-.447.2ZM17.37-6.365a1.239,1.239,0,0,0-.906.359,1.52,1.52,0,0,0-.409,1.022l2.452-.365a1.23,1.23,0,0,0-.32-.712A1.049,1.049,0,0,0,17.37-6.365ZM25.013-3.5a1.434,1.434,0,0,1-.574,1.21,2.742,2.742,0,0,1-1.679.436,4.685,4.685,0,0,1-.823-.066,2.579,2.579,0,0,1-.641-.193,1.176,1.176,0,0,1-.42-.309.622.622,0,0,1-.149-.4.689.689,0,0,1,.094-.365.78.78,0,0,1,.249-.254,3.893,3.893,0,0,0,.712.353,2.6,2.6,0,0,0,.933.155,1.277,1.277,0,0,0,.685-.149.467.467,0,0,0,.232-.414q0-.453-.663-.6l-.619-.144a2.556,2.556,0,0,1-1.209-.563,1.327,1.327,0,0,1-.392-1.005,1.409,1.409,0,0,1,.574-1.165,2.569,2.569,0,0,1,1.613-.447,4.146,4.146,0,0,1,.735.061,2.387,2.387,0,0,1,.585.177,1.134,1.134,0,0,1,.387.276.55.55,0,0,1,.138.37.67.67,0,0,1-.088.348.779.779,0,0,1-.21.237,1.527,1.527,0,0,0-.26-.133,3.29,3.29,0,0,0-.353-.122,4.169,4.169,0,0,0-.409-.094,2.4,2.4,0,0,0-.425-.039,1.372,1.372,0,0,0-.674.138.431.431,0,0,0-.243.392.394.394,0,0,0,.138.309,1.121,1.121,0,0,0,.48.2l.541.133a2.747,2.747,0,0,1,1.325.613A1.416,1.416,0,0,1,25.013-3.5Z" transform="translate(105.049 228.678)"/></g><path class="l" d="M-32.577-9.946h3.265a1.579,1.579,0,0,1,.171.423,2.165,2.165,0,0,1,.071.564,1.062,1.062,0,0,1-.262.8.975.975,0,0,1-.706.252h-2.54v3.669a2.618,2.618,0,0,1-.464.111,3.672,3.672,0,0,1-.6.05,1.567,1.567,0,0,1-.937-.232,1.062,1.062,0,0,1-.312-.9v-2.7h-3.326a2.009,2.009,0,0,1-.171-.433,2.052,2.052,0,0,1-.071-.554,1.062,1.062,0,0,1,.262-.8,1,1,0,0,1,.726-.252h2.58v-3.608a3.3,3.3,0,0,1,.484-.111,3.672,3.672,0,0,1,.6-.05,1.526,1.526,0,0,1,.917.232,1.062,1.062,0,0,1,.312.9Z" transform="translate(480.935 144.231)"/><path class="l" d="M-24.65-8.636a1.155,1.155,0,0,1,.107.243,1.048,1.048,0,0,1,.051.333.674.674,0,0,1-.141.463.482.482,0,0,1-.378.158h-2.72v1.795h2.7a1.185,1.185,0,0,1,.107.237,1,1,0,0,1,.051.327.652.652,0,0,1-.141.457.49.49,0,0,1-.378.152h-2.314V-1.8q-.1.023-.288.056a2.174,2.174,0,0,1-.389.034A.926.926,0,0,1-29-1.863a.674.674,0,0,1-.181-.531V-7.857a.77.77,0,0,1,.209-.57.77.77,0,0,1,.57-.209Zm6.208,4.177a3.329,3.329,0,0,1-.2,1.18,2.572,2.572,0,0,1-.559.9,2.41,2.41,0,0,1-.869.57,3.124,3.124,0,0,1-1.14.2,3.124,3.124,0,0,1-1.14-.2,2.447,2.447,0,0,1-.869-.564,2.514,2.514,0,0,1-.559-.892,3.364,3.364,0,0,1-.2-1.191,3.329,3.329,0,0,1,.2-1.18,2.474,2.474,0,0,1,.564-.892,2.5,2.5,0,0,1,.875-.564,3.091,3.091,0,0,1,1.129-.2,3.091,3.091,0,0,1,1.129.2,2.465,2.465,0,0,1,.875.57,2.531,2.531,0,0,1,.564.9A3.3,3.3,0,0,1-18.441-4.459Zm-2.766-1.7a1.153,1.153,0,0,0-.959.446,2,2,0,0,0-.35,1.259A2.015,2.015,0,0,0-22.172-3.2a1.155,1.155,0,0,0,.965.44,1.149,1.149,0,0,0,.965-.446A2.02,2.02,0,0,0-19.9-4.459a2,2,0,0,0-.35-1.259A1.153,1.153,0,0,0-21.207-6.164Zm5.43,4.369q-.09.023-.265.056a1.991,1.991,0,0,1-.378.034.959.959,0,0,1-.593-.147.626.626,0,0,1-.186-.519V-9.122a1.467,1.467,0,0,1,.265-.062,2.378,2.378,0,0,1,.378-.028.959.959,0,0,1,.593.147.626.626,0,0,1,.186.519Zm3.014,0q-.09.023-.265.056a1.991,1.991,0,0,1-.378.034A.959.959,0,0,1-14-1.852a.626.626,0,0,1-.186-.519V-9.122a1.467,1.467,0,0,1,.265-.062,2.378,2.378,0,0,1,.378-.028.959.959,0,0,1,.593.147.626.626,0,0,1,.186.519ZM-5.99-4.459a3.329,3.329,0,0,1-.2,1.18,2.572,2.572,0,0,1-.559.9,2.41,2.41,0,0,1-.869.57,3.124,3.124,0,0,1-1.14.2,3.124,3.124,0,0,1-1.14-.2,2.447,2.447,0,0,1-.869-.564,2.514,2.514,0,0,1-.559-.892,3.364,3.364,0,0,1-.2-1.191,3.329,3.329,0,0,1,.2-1.18,2.475,2.475,0,0,1,.564-.892A2.5,2.5,0,0,1-9.885-7.1a3.091,3.091,0,0,1,1.129-.2,3.091,3.091,0,0,1,1.129.2,2.465,2.465,0,0,1,.875.57,2.531,2.531,0,0,1,.564.9A3.3,3.3,0,0,1-5.99-4.459Zm-2.766-1.7a1.153,1.153,0,0,0-.959.446,2,2,0,0,0-.35,1.259A2.015,2.015,0,0,0-9.721-3.2a1.155,1.155,0,0,0,.965.44A1.149,1.149,0,0,0-7.791-3.2a2.02,2.02,0,0,0,.344-1.259A2,2,0,0,0-7.8-5.718,1.153,1.153,0,0,0-8.756-6.164Zm7.484.914q-.124.463-.265.937t-.282.92q-.141.446-.271.83t-.22.655a1.124,1.124,0,0,1-.316.152,1.6,1.6,0,0,1-.485.062,1.546,1.546,0,0,1-.57-.1.582.582,0,0,1-.333-.288,5.426,5.426,0,0,1-.3-.864q-.169-.593-.35-1.3T-5-5.673q-.152-.728-.254-1.27a1.142,1.142,0,0,1,.31-.209.981.981,0,0,1,.435-.1.746.746,0,0,1,.5.152.787.787,0,0,1,.237.491q.214,1.355.406,2.3T-3.1-3.026h.045q.045-.192.152-.564t.248-.858q.141-.485.3-1.039T-2.017-6.6a1.527,1.527,0,0,1,.333-.141A1.486,1.486,0,0,1-1.272-6.8a1.168,1.168,0,0,1,.514.1.512.512,0,0,1,.277.3q.169.542.322,1.061t.277.965q.124.446.22.8t.152.542H.545q.192-.937.4-1.953t.356-2.1a1.231,1.231,0,0,1,.3-.124,1.309,1.309,0,0,1,.339-.045.8.8,0,0,1,.48.135.508.508,0,0,1,.186.44,3.127,3.127,0,0,1-.068.514q-.068.356-.175.813t-.237.971q-.13.514-.265.993t-.26.869q-.124.389-.214.6a.954.954,0,0,1-.344.152,1.934,1.934,0,0,1-.5.062q-.711,0-.847-.35-.09-.248-.214-.61t-.254-.79q-.13-.429-.26-.892T-1.272-5.25ZM4.8-3.816a1.339,1.339,0,0,0,.587.835,2.016,2.016,0,0,0,1.061.26,2.617,2.617,0,0,0,.875-.141,3.209,3.209,0,0,0,.649-.3.745.745,0,0,1,.26.248.615.615,0,0,1,.1.339.593.593,0,0,1-.152.4,1.242,1.242,0,0,1-.418.3,2.617,2.617,0,0,1-.626.192,4.228,4.228,0,0,1-.779.068A3.857,3.857,0,0,1,5.145-1.8a2.477,2.477,0,0,1-.937-.547,2.543,2.543,0,0,1-.61-.909,3.344,3.344,0,0,1-.22-1.264,3.18,3.18,0,0,1,.214-1.219A2.5,2.5,0,0,1,4.174-6.6a2.333,2.333,0,0,1,.852-.519,3.1,3.1,0,0,1,1.027-.169,2.851,2.851,0,0,1,1.016.175,2.33,2.33,0,0,1,.79.485,2.217,2.217,0,0,1,.514.745,2.368,2.368,0,0,1,.186.943.63.63,0,0,1-.164.474.818.818,0,0,1-.457.2Zm1.253-2.4a1.267,1.267,0,0,0-.926.367,1.553,1.553,0,0,0-.418,1.044l2.506-.373a1.257,1.257,0,0,0-.327-.728A1.072,1.072,0,0,0,6.054-6.221ZM11.1-1.8l-.271.056a1.967,1.967,0,0,1-.384.034.963.963,0,0,1-.587-.147.616.616,0,0,1-.192-.519V-5.95a.875.875,0,0,1,.135-.5,1.234,1.234,0,0,1,.4-.361,3.225,3.225,0,0,1,.864-.35,4.349,4.349,0,0,1,1.112-.135q1.072,0,1.072.666a.876.876,0,0,1-.051.3,1.223,1.223,0,0,1-.107.231,3.092,3.092,0,0,0-.643-.056,2.972,2.972,0,0,0-.745.09,2.617,2.617,0,0,0-.6.226Zm7.213-1.5a1.465,1.465,0,0,1-.587,1.236,2.8,2.8,0,0,1-1.716.446,4.788,4.788,0,0,1-.841-.068,2.636,2.636,0,0,1-.655-.2,1.2,1.2,0,0,1-.429-.316.635.635,0,0,1-.152-.412.7.7,0,0,1,.1-.373.8.8,0,0,1,.254-.26,3.979,3.979,0,0,0,.728.361,2.654,2.654,0,0,0,.954.158,1.305,1.305,0,0,0,.7-.152A.478.478,0,0,0,16.9-3.3q0-.463-.677-.61l-.632-.147a2.612,2.612,0,0,1-1.236-.576,1.356,1.356,0,0,1-.4-1.027,1.44,1.44,0,0,1,.587-1.191A2.626,2.626,0,0,1,16.191-7.3a4.237,4.237,0,0,1,.751.062,2.439,2.439,0,0,1,.6.181,1.159,1.159,0,0,1,.4.282.562.562,0,0,1,.141.378.684.684,0,0,1-.09.356.8.8,0,0,1-.214.243,1.561,1.561,0,0,0-.265-.135,3.362,3.362,0,0,0-.361-.124,4.26,4.26,0,0,0-.418-.1,2.456,2.456,0,0,0-.435-.04,1.4,1.4,0,0,0-.689.141.44.44,0,0,0-.248.4.4.4,0,0,0,.141.316,1.146,1.146,0,0,0,.491.2L16.54-5a2.807,2.807,0,0,1,1.355.627A1.447,1.447,0,0,1,18.313-3.3Z" transform="translate(488.005 156.71)"/><path class="l" d="M1.15-10.166a1.932,1.932,0,0,1-.6-.483,1.3,1.3,0,0,1-.276-.874q0-1.012,1.265-1.495l2.9-1.127h.644a1.609,1.609,0,0,1,1.173.425,1.546,1.546,0,0,1,.437,1.161V0Q6.486.046,6.13.115a4.056,4.056,0,0,1-.771.069,1.954,1.954,0,0,1-1.207-.3,1.276,1.276,0,0,1-.38-1.058V-11.2ZM18.377-6.992a6.772,6.772,0,0,0-.816-3.738,2.435,2.435,0,0,0-2.082-1.208,2.4,2.4,0,0,0-2.07,1.219A6.86,6.86,0,0,0,12.6-6.992a7.38,7.38,0,0,0,.747,3.715,2.351,2.351,0,0,0,2.128,1.254,2.376,2.376,0,0,0,2.139-1.254A7.286,7.286,0,0,0,18.377-6.992ZM15.479.345a5.905,5.905,0,0,1-2.358-.46,4.951,4.951,0,0,1-1.84-1.369,6.41,6.41,0,0,1-1.2-2.288,10.96,10.96,0,0,1-.425-3.22,10.277,10.277,0,0,1,.46-3.243,6.721,6.721,0,0,1,1.242-2.289,4.847,4.847,0,0,1,1.84-1.345,5.905,5.905,0,0,1,2.277-.437,5.773,5.773,0,0,1,2.277.449,5.118,5.118,0,0,1,1.852,1.345,6.483,6.483,0,0,1,1.253,2.277,10.277,10.277,0,0,1,.46,3.243A10.844,10.844,0,0,1,20.9-3.784,6.435,6.435,0,0,1,19.688-1.5a5,5,0,0,1-1.851,1.38A5.905,5.905,0,0,1,15.479.345ZM32.062-6.992a6.772,6.772,0,0,0-.816-3.738,2.435,2.435,0,0,0-2.081-1.208,2.4,2.4,0,0,0-2.07,1.219,6.86,6.86,0,0,0-.805,3.726,7.38,7.38,0,0,0,.748,3.715,2.351,2.351,0,0,0,2.128,1.254A2.376,2.376,0,0,0,31.3-3.278,7.286,7.286,0,0,0,32.062-6.992ZM29.164.345a5.905,5.905,0,0,1-2.358-.46,4.951,4.951,0,0,1-1.84-1.369,6.41,6.41,0,0,1-1.2-2.288,10.96,10.96,0,0,1-.425-3.22,10.277,10.277,0,0,1,.46-3.243,6.721,6.721,0,0,1,1.242-2.289,4.847,4.847,0,0,1,1.84-1.345,5.905,5.905,0,0,1,2.277-.437,5.773,5.773,0,0,1,2.277.449,5.118,5.118,0,0,1,1.852,1.345,6.483,6.483,0,0,1,1.253,2.277,10.277,10.277,0,0,1,.46,3.243,10.844,10.844,0,0,1-.425,3.209A6.435,6.435,0,0,1,33.373-1.5a5,5,0,0,1-1.852,1.38A5.905,5.905,0,0,1,29.164.345ZM40.779-5.98V-.023A3.714,3.714,0,0,1,40.193.1a5.458,5.458,0,0,1-.816.057,1.886,1.886,0,0,1-1.231-.31,1.4,1.4,0,0,1-.356-1.092V-13.961q.184-.046.587-.115a4.69,4.69,0,0,1,.793-.069,2.008,2.008,0,0,1,1.219.3,1.318,1.318,0,0,1,.391,1.1V-8l5.52-6.072a2.386,2.386,0,0,1,1.6.437,1.339,1.339,0,0,1,.495,1.035,1.572,1.572,0,0,1-.242.863,5.318,5.318,0,0,1-.724.862L43.539-7.015q1.794,1.84,3.151,3.289T48.99-1.4A1.583,1.583,0,0,1,48.5-.219a1.64,1.64,0,0,1-1.139.426A1.784,1.784,0,0,1,46.23-.149a8,8,0,0,1-.9-.817Z" transform="translate(455 142)"/></g></svg>