<svg xmlns="http://www.w3.org/2000/svg" width="20.8" height="29.12" viewBox="0 0 20.8 29.12"><defs><style>.a{fill:#7c56ff;}</style></defs><path class="a" d="M14.88.72A9.75,9.75,0,0,1,10.68-.9,21.579,21.579,0,0,0,6.04-3.04,18.328,18.328,0,0,1,3.42-.7a4.156,4.156,0,0,1-1.7.9Q1.28.2.14-1.22A4.181,4.181,0,0,1-1-3.38Q-1-4.12.34-5.5a4.2,4.2,0,0,1,3.1-1.38,9.4,9.4,0,0,1,2.12.24,23.608,23.608,0,0,0,5.32-6.5A15.2,15.2,0,0,0,13.4-20.6a3.692,3.692,0,0,0-1.08-2.82A3.677,3.677,0,0,0,9.7-24.44a5.248,5.248,0,0,0-3,1,8.531,8.531,0,0,0-2.5,2.76l-1.84-.8A10,10,0,0,1,5.98-26.2a9.962,9.962,0,0,1,6.28-2.2,7.435,7.435,0,0,1,5.4,1.88A6.3,6.3,0,0,1,19.6-21.8a10.276,10.276,0,0,1-1.18,4.46,22.718,22.718,0,0,1-3.02,4.62,51.4,51.4,0,0,1-6.88,6.8,31.862,31.862,0,0,0,7.72,1.36,1.4,1.4,0,0,0,1.12-.42,11.539,11.539,0,0,0,1.12-1.94l1.32.28Q19.4.72,14.88.72Z" transform="translate(1 28.4)"/></svg>