<svg xmlns="http://www.w3.org/2000/svg" width="23.76" height="28.56" viewBox="0 0 23.76 28.56"><defs><style>.a{fill:#7c56ff;}</style></defs><path class="a" d="M20.4-6.32a3.521,3.521,0,0,1-2,.56,12.215,12.215,0,0,1-2.08-.16,40.538,40.538,0,0,0-.4,5.28q-1.56.8-6.28.8h-.4a46.508,46.508,0,0,1,1.12-7.24,29.033,29.033,0,0,0-4.5-.4,11.169,11.169,0,0,0-3.54.52L.76-6.4H.72q-.4,0-1.02-.88A3.2,3.2,0,0,1-.96-8.92q0-.28.72-1,6.28-8.92,12.72-17.8a40.046,40.046,0,0,1,7.12-.68,4.138,4.138,0,0,1,.52,2.26,20.306,20.306,0,0,1-.46,3.78q-.46,2.32-1.3,5.92t-1.28,5.92q1.52.08,2.38.08a1.406,1.406,0,0,0,1.26-.6l.64-1.08,1.44.48Q22.2-7.48,20.4-6.32ZM11.24-11.2q2.56-11.24,2.6-13.6A99.487,99.487,0,0,0,4.8-11.68Q7.48-11.64,11.24-11.2Z" transform="translate(0.96 28.4)"/></svg>