<svg xmlns="http://www.w3.org/2000/svg" xmlns:xlink="http://www.w3.org/1999/xlink" width="1920" height="998" viewBox="0 0 1920 998"><defs><style>.a{fill:#fafaff;}.b{clip-path:url(#a);}.c,.d,.e{fill:url(#b);}.d,.f{opacity:0.56;}.e{opacity:0.24;}.f,.g{fill:url(#e);}.g{opacity:0.27;}.h{filter:url(#i);}.i{filter:url(#f);}</style><clipPath id="a"><rect class="a" width="1920" height="998" transform="translate(0 2412)"/></clipPath><linearGradient id="b" x1="0.5" x2="0.5" y2="1" gradientUnits="objectBoundingBox"><stop offset="0" stop-color="#b3f5c2"/><stop offset="1" stop-color="#a0e8c1"/></linearGradient><radialGradient id="e" cx="0.5" cy="0.5" r="0.5" gradientUnits="objectBoundingBox"><stop offset="0" stop-color="#d3d3fe"/><stop offset="1" stop-color="#8788ff"/></radialGradient><filter id="f" x="872.5" y="803.5" width="480" height="480" filterUnits="userSpaceOnUse"><feOffset dy="14" input="SourceAlpha"/><feGaussianBlur stdDeviation="12.5" result="g"/><feFlood flood-color="#b1b1ff"/><feComposite operator="in" in2="g"/><feComposite in="SourceGraphic"/></filter><filter id="i" x="1580.5" y="424.5" width="578" height="578" filterUnits="userSpaceOnUse"><feOffset dy="14" input="SourceAlpha"/><feGaussianBlur stdDeviation="12.5" result="j"/><feFlood flood-color="#b1b1ff"/><feComposite operator="in" in2="j"/><feComposite in="SourceGraphic"/></filter></defs><g class="b" transform="translate(0 -2412)"><rect class="a" width="1920" height="998" transform="translate(0 2412)"/><circle class="c" cx="108" cy="108" r="108" transform="translate(-108 2312)"/><circle class="d" cx="292" cy="292" r="292" transform="translate(-125 3206)"/><circle class="e" cx="406.5" cy="406.5" r="406.5" transform="translate(1144 2180)"/><g class="i" transform="matrix(1, 0, 0, 1, 0, 2412)"><circle class="f" cx="79.5" cy="79.5" r="79.5" transform="translate(1033 950)"/></g><g class="h" transform="matrix(1, 0, 0, 1, 0, 2412)"><circle class="g" cx="149.5" cy="149.5" r="149.5" transform="translate(1720 550)"/></g></g></svg>