<svg xmlns="http://www.w3.org/2000/svg" xmlns:xlink="http://www.w3.org/1999/xlink" width="71" height="68" viewBox="0 0 71 68">
  <defs>
    <linearGradient id="linear-gradient" x1="0.5" x2="0.5" y2="1" gradientUnits="objectBoundingBox">
      <stop offset="0" stop-color="#ff8173"/>
      <stop offset="1" stop-color="#d530e1"/>
    </linearGradient>
    <filter id="矩形_1005" x="0" y="0" width="71" height="68" filterUnits="userSpaceOnUse">
      <feOffset dy="3" input="SourceAlpha"/>
      <feGaussianBlur stdDeviation="3" result="blur"/>
      <feFlood flood-opacity="0.161"/>
      <feComposite operator="in" in2="blur"/>
      <feComposite in="SourceGraphic"/>
    </filter>
  </defs>
  <g id="icon01" transform="translate(-574.5 -173.648)">
    <g transform="matrix(1, 0, 0, 1, 574.5, 173.65)" filter="url(#矩形_1005)">
      <rect id="矩形_1005-2" data-name="矩形 1005" width="52" height="49" rx="8" transform="translate(9.5 6.5)" stroke="rgba(0,0,0,0)" stroke-width="1" fill="url(#linear-gradient)"/>
    </g>
    <rect id="矩形_1006" data-name="矩形 1006" width="14" height="3" rx="1.5" transform="translate(592 207.148)" fill="#fff"/>
    <rect id="矩形_1027" data-name="矩形 1027" width="18" height="3" rx="1.5" transform="translate(592 200.148)" fill="#fff"/>
    <rect id="矩形_1028" data-name="矩形 1028" width="35" height="3" rx="1.5" transform="translate(592 193.148)" fill="#fff"/>
    <path id="路径_22757" data-name="路径 22757" d="M814.514,108.1a15.036,15.036,0,1,1,5.869-1.186,14.984,14.984,0,0,1-5.869,1.186Zm0-26.106a11.029,11.029,0,1,0,11.029,11.029A11.042,11.042,0,0,0,814.514,82Zm13.566,21.226a11.432,11.432,0,0,1-3.562,3.63l8.908,8.721,3.53-3.606Zm0,0" transform="translate(-196.437 118.189)" fill="#ffd86d"/>
  </g>
</svg>
