<svg xmlns="http://www.w3.org/2000/svg" xmlns:xlink="http://www.w3.org/1999/xlink" width="223.476" height="201" viewBox="0 0 223.476 201"><defs><style>.a,.b,.c,.l{fill:none;}.a{stroke:#f4ebfc;}.b{stroke:#66f;stroke-width:3px;}.c{stroke:#fe8673;stroke-width:2px;}.d{fill:#66f;}.e{fill:#ffb92d;}.f{fill:#7c56ff;}.g,.h{fill:#fff;}.g{opacity:0.5;}.i{fill:url(#a);}.j{fill:#ff5679;}.k{stroke:none;}</style><linearGradient id="a" x1="0.5" x2="0.5" y2="1" gradientUnits="objectBoundingBox"><stop offset="0" stop-color="#ff8173"/><stop offset="1" stop-color="#d530e1"/></linearGradient></defs><g transform="translate(-425.617 -6065.344)"><g class="a" transform="translate(431 6065.344)"><circle class="k" cx="100.5" cy="100.5" r="100.5"/><circle class="l" cx="100.5" cy="100.5" r="100"/></g><g class="b" transform="translate(426 6155.344)"><ellipse class="k" cx="7.5" cy="7" rx="7.5" ry="7"/><ellipse class="l" cx="7.5" cy="7" rx="6" ry="5.5"/></g><g class="c" transform="translate(485 6071.344)"><circle class="k" cx="4" cy="4" r="4"/><circle class="l" cx="4" cy="4" r="3"/></g><circle class="d" cx="4.5" cy="4.5" r="4.5" transform="translate(615 6087.344)"/><circle class="e" cx="3" cy="3" r="3" transform="translate(589 6244.344)"/><rect class="f" width="138" height="139" rx="26" transform="translate(464 6093.344)"/><rect class="g" width="124" height="124" rx="26" transform="translate(471 6100.344)"/><rect class="h" width="116" height="115" rx="26" transform="translate(475 6105.344)"/><g transform="translate(483.28 6113.774)"><g transform="translate(0 0)"><path class="i" d="M206.365,188.284h21.627a23.024,23.024,0,0,0-22.8-19.858H194.9Z" transform="translate(-130.079 -168.426)"/><path class="i" d="M160.921,188.283h27.272l-11.465-19.857H149.456Z" transform="translate(-120.864 -168.426)"/><path class="i" d="M190.189,202.358h-76.6v48.061a23.023,23.023,0,0,0,23.023,23.023h52.09a23.023,23.023,0,0,0,23.023-23.023V202.358Z" transform="translate(-113.592 -175.306)"/><path class="i" d="M144.746,188.343l-11.33-19.624a23.029,23.029,0,0,0-19.546,19.624Z" transform="translate(-113.649 -168.485)"/></g><path class="h" d="M191.089,238.662,161.9,221.811a3.58,3.58,0,0,0-5.37,3.1v33.7a3.58,3.58,0,0,0,5.37,3.1l29.187-16.851A3.58,3.58,0,0,0,191.089,238.662Z" transform="translate(-122.299 -179.152)"/></g><rect class="j" width="27.568" height="27.568" rx="4" transform="matrix(0.951, 0.309, -0.309, 0.951, 622.874, 6170.627)"/><rect class="j" width="19.732" height="19.731" rx="4" transform="matrix(0.899, -0.438, 0.438, 0.899, 425.617, 6109.294)"/><path class="h" d="M17.086,1.418h0a4.841,4.841,0,0,0-6.846,0l-.987.987-.987-.987a4.843,4.843,0,0,0-6.848,0h0a4.841,4.841,0,0,0,0,6.846l.987.987h0L9.253,16.1l4.41-4.411L16.1,9.252l.987-.987A4.841,4.841,0,0,0,17.086,1.418Z" transform="matrix(0.951, 0.309, -0.309, 0.951, 625.121, 6177.05)"/><g transform="matrix(0.891, -0.454, 0.454, 0.891, 431.64, 6110.531)"><path class="h" d="M2.407.815V6.3a.815.815,0,0,1-.815.815H.814A.814.814,0,0,1,0,6.3V.815A.814.814,0,0,1,.814,0h.777a.8.8,0,0,1,.8.71A.3.3,0,0,1,2.407.815Z" transform="translate(0 3.516)"/><path class="h" d="M8.67,6.3c-.389,2.05-1.365,3.555-2.834,3.555H.013V4.279A.352.352,0,0,0,0,4.164C1.31,4.017,2.847,2.974,3.81.609a.9.9,0,0,1,.957-.6A.928.928,0,0,1,5.5.938V1a10.271,10.271,0,0,1-.4,2.392C7.879,3.391,9.207,3.486,8.67,6.3Z" transform="translate(2.394 0)"/></g></g></svg>