<svg xmlns="http://www.w3.org/2000/svg" xmlns:xlink="http://www.w3.org/1999/xlink" width="750" height="542" viewBox="0 0 750 542"><defs><clipPath id="a"><path d="M0,0H750V424.77S538.976,542,352.934,542,0,424.77,0,424.77Z" transform="translate(780)" fill="#fff" stroke="#707070" stroke-width="1"/></clipPath><linearGradient id="b" x1="0.431" y1="0.501" x2="0.479" y2="0.217" gradientUnits="objectBoundingBox"><stop offset="0" stop-color="#ff9941"/><stop offset="1" stop-color="#ffbf87"/></linearGradient><linearGradient id="c" x1="0.37" y1="0.645" x2="0.494" y2="0.793" gradientUnits="objectBoundingBox"><stop offset="0" stop-color="#ff9941" stop-opacity="0"/><stop offset="1" stop-color="#ff9941"/></linearGradient></defs><g transform="translate(-780)"><g clip-path="url(#a)"><g transform="translate(1569.529 203.113) rotate(99)"><g transform="translate(-57.452 -11.15)"><path d="M90.428,927.108C140.1,979.466,212.3,971.1,255.281,907.995c34.578-50.763,52.21-131.957,96.248-160.367,37.157-23.971,79.439-1.291,119.524,8.178,56.673,13.39,405.022-29.094,442.906-94.744,39.579-68.586-132.308-209.635-1.637-210.337,37.626-.2,6.827,30.664-32.01-8.59s27.563-35.758,65.392-49.077c56.364-19.845,104.987-84.39,126.289-167.642C773.077,93.729,462.572,47.213,154.083,1.274c-10.69-1.592-22.032-3.012-31.557,4.414-7.987,6.227-13.56,17.842-18.507,29.387C68.7,117.491,50.717,214.814,35.007,311.114,7.866,477.487-14.015,652.485,10.952,820.919c6.283,42.38,16.858,86.739,39.893,111.765" transform="matrix(-0.391, -0.921, 0.921, -0.391, 43.222, 1014.549)" fill="url(#b)"/><path d="M90.428,861.4C140.1,910.047,212.3,902.27,255.281,843.642c34.578-47.166,52.21-122.6,96.248-149,37.157-22.272,79.439-1.2,119.524,7.6,56.673,12.441,119.786-4.294,157.67-65.291C668.3,573.224,758.975,374.013,889.646,373.362c37.626-.186-99.117.635-60.217-.32s78.446,4.534,116.275-7.841c56.364-18.438,104.987-78.409,126.289-155.76C773.077,87.086,462.572,43.867,154.083,1.184c-10.69-1.479-22.032-2.8-31.557,4.1-7.987,5.785-13.56,16.578-18.507,27.3-35.323,76.575-53.3,167-69.012,256.474C7.866,443.646-14.015,606.24,10.952,762.737c6.283,39.376,16.858,80.592,39.893,103.844" transform="translate(941.692 -134.311) rotate(109)" fill="url(#c)"/></g><g transform="translate(48.552 10.349)"><g transform="translate(0.002 31.414)"><path d="M43.544,46.121c-1.829,2.668-3.933,5.444-6.706,6.939a2.351,2.351,0,0,1-3.333-1.352,10.113,10.113,0,0,1-.457-2.468,4.156,4.156,0,0,1-3.448.107c-1.049-.557-1.56-2.139-.721-2.981-1.5.984-3.593-.712-3.665-2.508s1.1-3.378,2.248-4.763c5.245-6.348,11.253-12.466,13.759-20.311-5.03,5.882-10.431,11.434-15.827,16.98a32.542,32.542,0,0,1-7.572,6.329,1.724,1.724,0,0,1-2.531-1.437,7.05,7.05,0,0,1,.149-1.73,2.338,2.338,0,0,1-3.864-2.615,2.776,2.776,0,0,1-2.719-1.359A5.635,5.635,0,0,0,8.1,33.587a6.92,6.92,0,0,0-1.324-.758,3.141,3.141,0,0,1-.9-3.818,8.725,8.725,0,0,1,2.767-3.19,122.046,122.046,0,0,1,24.052-15.4,74,74,0,0,0-21.62,9.741c-1.811,1.2-3.665,2.517-5.82,2.8a2.179,2.179,0,0,1-.031-2.609c-.632.58-1.555-.266-1.98-1.012l-2.7-4.731a3.472,3.472,0,0,1-.538-1.37,3.436,3.436,0,0,1,1.474-2.583c4.395-4.017,9.4-7.508,15.066-9.334,11.255-3.628,24.7.365,31.711,9.89C56.476,22.38,50.454,36.053,43.544,46.121Z" transform="translate(-0.001 -0.001)" fill="#f4c245"/><g transform="translate(4.429 3.116)"><path d="M0,21.608c3.611-4.332,5.853-9.626,7.788-14.925C8.575,4.528,9.317,2.122,8.447,0" transform="translate(36.256 20.708)" fill="none" stroke="#ffdf97" stroke-linecap="round" stroke-linejoin="round" stroke-width="0.826"/><path d="M0,12.032A36.1,36.1,0,0,0,3.617,0" transform="translate(38.649 15.876)" fill="none" stroke="#ffdf97" stroke-linecap="round" stroke-linejoin="round" stroke-width="0.826"/><path d="M0,11.185A34.828,34.828,0,0,0,5.456,0" transform="translate(29.728 23.537)" fill="none" stroke="#ffdf97" stroke-linecap="round" stroke-linejoin="round" stroke-width="0.826"/><path d="M0,7.02A34.177,34.177,0,0,0,5.112,0" transform="translate(30.331 34.094)" fill="none" stroke="#ffdf97" stroke-linecap="round" stroke-linejoin="round" stroke-width="0.826"/><path d="M0,6.153A30.607,30.607,0,0,0,1.869,0" transform="translate(37.137 13.705)" fill="none" stroke="#ffdf97" stroke-linecap="round" stroke-linejoin="round" stroke-width="0.826"/><path d="M0,8.839A80.186,80.186,0,0,0,8.908,0" transform="translate(22.061 18.904)" fill="none" stroke="#ffdf97" stroke-linecap="round" stroke-linejoin="round" stroke-width="0.826"/><path d="M0,12.357Q8,5.961,16.327,0" transform="translate(22.443 9.242)" fill="none" stroke="#ffdf97" stroke-linecap="round" stroke-linejoin="round" stroke-width="0.826"/><path d="M0,2.934,6.2,0" transform="translate(30.056 6.69)" fill="none" stroke="#ffdf97" stroke-linecap="round" stroke-linejoin="round" stroke-width="0.826"/><path d="M0,3.517A56.767,56.767,0,0,1,4.834,0" transform="translate(19.03 13.819)" fill="none" stroke="#ffdf97" stroke-linecap="round" stroke-linejoin="round" stroke-width="0.826"/><path d="M0,3.9,5.071,0" transform="translate(11.051 23.874)" fill="none" stroke="#ffdf97" stroke-linecap="round" stroke-linejoin="round" stroke-width="0.826"/><path d="M0,5.321A39.169,39.169,0,0,1,7.219,0" transform="translate(6.882 21.062)" fill="none" stroke="#ffdf97" stroke-linecap="round" stroke-linejoin="round" stroke-width="0.826"/><path d="M0,5.569Q3.844,2.966,7.426,0" transform="translate(13.253 26.127)" fill="none" stroke="#ffdf97" stroke-linecap="round" stroke-linejoin="round" stroke-width="0.826"/><path d="M0,4.953,1.79,3.882c1.076-.643,2.153-1.288,3.28-1.838A22.232,22.232,0,0,1,11.774,0" transform="translate(4.746 6.953)" fill="none" stroke="#ffdf97" stroke-linecap="round" stroke-linejoin="round" stroke-width="0.826"/><path d="M0,3.369A73.252,73.252,0,0,1,15.32,0" transform="translate(8.4 -0.001)" fill="none" stroke="#ffdf97" stroke-linecap="round" stroke-linejoin="round" stroke-width="0.826"/><path d="M0,.957A21.4,21.4,0,0,1,8.161.079" transform="translate(19.468 3.142)" fill="none" stroke="#ffdf97" stroke-linecap="round" stroke-linejoin="round" stroke-width="0.826"/><path d="M0,0A12.936,12.936,0,0,1,6.282,1.683" transform="translate(28.206 0.575)" fill="none" stroke="#ffdf97" stroke-linecap="round" stroke-linejoin="round" stroke-width="0.826"/><path d="M1.114,4.118A10.231,10.231,0,0,0,0,0" transform="translate(43.558 11.92)" fill="none" stroke="#ffdf97" stroke-linecap="round" stroke-linejoin="round" stroke-width="0.826"/><path d="M0,2.055A8.864,8.864,0,0,1,3.779,0" transform="translate(0 7.855)" fill="none" stroke="#ffdf97" stroke-linecap="round" stroke-linejoin="round" stroke-width="0.826"/></g></g><path d="M7.618,21.5c1.167.608,2.527-5.788,3.14-6.952A10.144,10.144,0,0,0,14.2,21.785a.929.929,0,0,0,.62.3c.446-.024.62-.592.632-1.04.065-2.363-1.027-4.585-2.093-6.7l3.9,5.519a4.072,4.072,0,0,0,1.062,1.151,1.383,1.383,0,0,0,1.487.071c.7-.48.534-1.549.206-2.33-1.494-3.548-4.648-6.078-6.957-9.159-1.485-1.981-2.63-4.209-4.2-6.121A34.268,34.268,0,0,0,6.438.919,3.174,3.174,0,0,0,5.245.06a1.087,1.087,0,0,0-1.3.424,11.42,11.42,0,0,0,2.81,3.841A7.227,7.227,0,0,0,2.379,1.177,2.065,2.065,0,0,0,.27,1.582,1.608,1.608,0,0,0,.325,3.436,4.71,4.71,0,0,0,1.841,4.7l5.7,3.522a9.678,9.678,0,0,0-3.248-.6,2.817,2.817,0,0,0-2.017.6,1.2,1.2,0,0,0,.08,1.849,1.79,1.79,0,0,0,1.171.042c.749-.143,3.045-.384,3.794-.527-.972.734-3.492,1.566-4.464,2.3A2.3,2.3,0,0,0,1.85,13.123C1.5,14.814,3.781,14.894,4.784,14.5c.709-.28,3.962-2.354,3.962-2.354C8.487,11.763,5.181,20.226,7.618,21.5Z" transform="translate(34.417 30.17)" fill="#7b823c"/><path d="M0,41.385A162.287,162.287,0,0,1,69.607,0" transform="translate(43.543 0.002)" fill="none" stroke="#7b823b" stroke-miterlimit="10" stroke-width="1.238"/></g></g><g transform="translate(640.33 71.433) rotate(11)"><g transform="translate(12.586 107.963)"><path d="M129.6,60.17c20.73-16.634,43.086-31.108,65.4-45.55,7.306-4.73,14.7-9.5,22.927-12.353,11.284-3.91,25.422-3.273,33.217,5.774,5.1,5.914,6.464,14.435,4.854,22.075S250.1,44.6,245.015,50.525c-8.651,10.082-19.647,17.837-30.695,25.217q-33.983,22.7-70.078,42.012c-17.819,9.532-36.153,18.479-55.742,23.438-23.9,6.048-48.857,5.97-73.506,5.855-5.44-.025-11.675-.422-15-4.726.251.325,25.527-8.35,28.463-9.024a67.717,67.717,0,0,0,20.258-8.476C67.69,113.5,84.485,98.991,101.066,84.5,110.476,76.272,119.848,67.993,129.6,60.17Z" transform="translate(0.006 0.01)" fill="#b4bf73"/><path d="M229.308-.01,200.027,18.082c-20.739,12.815-41.49,25.637-61.543,39.5-21.256,14.7-41.787,30.61-64.511,42.922S25.812,121.5-.005,120.273" transform="translate(8.301 25.665)" fill="none" stroke="#878e49" stroke-linecap="round" stroke-linejoin="round" stroke-width="1.84"/><path d="M15.541,0C14.285,3.015,11.9,5.383,9.821,7.9A46.5,46.5,0,0,0,0,29.06c11.151.835,22.277-1.429,33.232-3.681" transform="translate(202.596 18.833)" fill="none" stroke="#878e49" stroke-linecap="round" stroke-linejoin="round" stroke-width="1.84"/><path d="M15.542,0C14.287,3.014,11.9,5.382,9.821,7.9A46.525,46.525,0,0,0,0,29.059c11.153.835,22.277-1.429,33.232-3.681" transform="translate(173.785 35.919)" fill="none" stroke="#878e49" stroke-linecap="round" stroke-linejoin="round" stroke-width="1.84"/><path d="M15.541,0C14.285,3.014,11.9,5.382,9.821,7.9A46.494,46.494,0,0,0,0,29.06c11.151.834,22.277-1.43,33.232-3.682" transform="translate(145.017 55.621)" fill="none" stroke="#878e49" stroke-linecap="round" stroke-linejoin="round" stroke-width="1.84"/><path d="M15.542,0C14.287,3.015,11.9,5.382,9.821,7.9A46.523,46.523,0,0,0,0,29.06c11.153.834,22.277-1.431,33.232-3.681" transform="translate(117.077 73.902)" fill="none" stroke="#878e49" stroke-linecap="round" stroke-linejoin="round" stroke-width="1.84"/><path d="M15.435,0c-1.247,2.995-3.619,5.346-5.682,7.85A46.182,46.182,0,0,0,0,28.862c11.075.83,22.125-1.419,33.005-3.656" transform="translate(90.254 93.193)" fill="none" stroke="#878e49" stroke-linecap="round" stroke-linejoin="round" stroke-width="1.828"/><path d="M14.291,0C13.07,2.082,11.085,3.577,9.31,5.213A34.365,34.365,0,0,0,0,19.722c8.082,1.729,16.456,1.184,24.7.632" transform="translate(63.599 115.193)" fill="none" stroke="#878e49" stroke-linecap="round" stroke-linejoin="round" stroke-width="1.36"/></g><g transform="translate(-0.011 -0.009)"><path d="M108.473,108.835c15.949-26.481,34.541-51.26,53.1-75.986,6.075-8.1,12.233-16.278,20.064-22.691,10.749-8.8,26.438-13.78,38.583-7.036,7.939,4.408,12.855,13.163,14.167,22.148s-.616,18.178-3.786,26.688c-5.394,14.479-14.284,27.361-23.379,39.853q-27.979,38.431-59.625,74c-15.623,17.558-32.044,34.689-51.439,47.968-23.657,16.2-50.937,26.137-77.892,35.911-5.949,2.156-12.916,4.228-18.274.863.4.253,24.513-19.366,27.448-21.281a78.815,78.815,0,0,0,18.71-17.387C62.312,191.907,74.82,169.328,87.1,146.848,94.067,134.09,100.972,121.291,108.473,108.835Z" transform="translate(0.011 0.009)" fill="#dae2ac"/><path d="M202.009-.009,177.311,31.5c-17.494,22.318-35,44.646-51.316,67.835-17.3,24.583-33.323,50.195-53.184,72.762S28.665,214.348-.01,223.379" transform="translate(10.515 27.794)" fill="none" stroke="#a2ad64" stroke-linecap="round" stroke-linejoin="round" stroke-width="2.14"/><path d="M6.087,0c-.159,3.8-1.814,7.339-3.07,10.924A54.078,54.078,0,0,0,.793,37.964C13.3,34.4,24.54,27.458,35.593,20.6" transform="translate(182.439 28.158)" fill="none" stroke="#a2ad64" stroke-linecap="round" stroke-linejoin="round" stroke-width="2.14"/><path d="M6.087,0C5.927,3.8,4.272,7.338,3.016,10.924A54.1,54.1,0,0,0,.793,37.964C13.3,34.4,24.538,27.458,35.593,20.6" transform="translate(157.851 58.377)" fill="none" stroke="#a2ad64" stroke-linecap="round" stroke-linejoin="round" stroke-width="2.14"/><path d="M6.088,0C5.927,3.8,4.272,7.34,3.016,10.925A54.094,54.094,0,0,0,.793,37.965C13.3,34.4,24.538,27.459,35.593,20.6" transform="translate(134.359 91.436)" fill="none" stroke="#a2ad64" stroke-linecap="round" stroke-linejoin="round" stroke-width="2.14"/><path d="M6.087,0c-.159,3.8-1.814,7.339-3.071,10.924A54.1,54.1,0,0,0,.793,37.964C13.3,34.4,24.54,27.458,35.593,20.6" transform="translate(111.201 122.612)" fill="none" stroke="#a2ad64" stroke-linecap="round" stroke-linejoin="round" stroke-width="2.14"/><path d="M6.046,0C5.887,3.77,4.243,7.289,3,10.851A53.707,53.707,0,0,0,.788,37.706C13.212,34.164,24.372,27.272,35.35,20.462" transform="translate(89.594 154.484)" fill="none" stroke="#a2ad64" stroke-linecap="round" stroke-linejoin="round" stroke-width="2.126"/><path d="M7.705,0c-.5,2.764-2.065,5.193-3.343,7.692A39.986,39.986,0,0,0,.025,27.269c9.517-1.358,18.441-5.314,27.221-9.23" transform="translate(66.423 189.663)" fill="none" stroke="#a2ad64" stroke-linecap="round" stroke-linejoin="round" stroke-width="1.582"/></g></g><g transform="translate(1633.854 268.89) rotate(-169)"><g transform="translate(10.098 -0.002)"><path d="M103.889,69.659c16.616,13.333,34.537,24.935,52.422,36.51,5.857,3.791,11.786,7.617,18.378,9.9,9.045,3.133,20.379,2.622,26.628-4.631,4.086-4.741,5.183-11.572,3.892-17.7s-4.724-11.611-8.8-16.36c-6.934-8.081-15.749-14.3-24.6-20.213q-27.24-18.2-56.174-33.674C101.349,15.857,86.653,8.686,70.95,4.712,51.794-.134,31.784-.07,12.025.023,7.664.044,2.666.362,0,3.813c.2-.261,20.463,6.692,22.817,7.232a54.274,54.274,0,0,1,16.239,6.794c15.21,9.076,28.673,20.7,41.963,32.321C88.562,56.753,96.073,63.389,103.889,69.659Z" transform="translate(0 0.001)" fill="#b4bf73"/><path d="M183.817,96.5,160.346,82c-16.625-10.272-33.258-20.549-49.332-31.663C93.975,38.553,77.518,25.8,59.3,15.932S20.7-.89,0,.092" transform="translate(6.65 0.829)" fill="none" stroke="#878e49" stroke-linecap="round" stroke-linejoin="round" stroke-width="1.84"/><path d="M12.457,23.438c-1.006-2.417-2.92-4.316-4.585-6.335A37.271,37.271,0,0,1,0,.142c8.939-.67,17.858,1.144,26.639,2.949" transform="translate(162.4 79.363)" fill="none" stroke="#878e49" stroke-linecap="round" stroke-linejoin="round" stroke-width="1.84"/><path d="M12.458,23.436C11.452,21.02,9.537,19.122,7.872,17.1A37.29,37.29,0,0,1,0,.142c8.94-.67,17.858,1.144,26.639,2.949" transform="translate(139.305 65.669)" fill="none" stroke="#878e49" stroke-linecap="round" stroke-linejoin="round" stroke-width="1.84"/><path d="M12.457,23.437c-1.006-2.416-2.92-4.315-4.585-6.335A37.265,37.265,0,0,1,0,.142c8.939-.669,17.858,1.145,26.639,2.95" transform="translate(116.245 49.876)" fill="none" stroke="#878e49" stroke-linecap="round" stroke-linejoin="round" stroke-width="1.84"/><path d="M12.458,23.437C11.452,21.02,9.537,19.122,7.872,17.1A37.287,37.287,0,0,1,0,.142C8.94-.527,17.858,1.287,26.639,3.091" transform="translate(93.849 35.223)" fill="none" stroke="#878e49" stroke-linecap="round" stroke-linejoin="round" stroke-width="1.84"/><path d="M12.373,23.278c-1-2.4-2.9-4.285-4.555-6.292A37.014,37.014,0,0,1,0,.141C8.878-.525,17.736,1.278,26.458,3.07" transform="translate(72.348 19.92)" fill="none" stroke="#878e49" stroke-linecap="round" stroke-linejoin="round" stroke-width="1.828"/><path d="M11.456,16.749A19.723,19.723,0,0,0,7.463,12.57,27.543,27.543,0,0,1,0,.94C6.479-.447,13.192-.011,19.8.431" transform="translate(50.982 8.815)" fill="none" stroke="#878e49" stroke-linecap="round" stroke-linejoin="round" stroke-width="1.36"/></g><g transform="translate(0 2.179)"><path d="M86.955,115.025c12.783,21.228,27.686,41.09,42.56,60.91,4.869,6.49,9.805,13.048,16.083,18.188,8.616,7.053,21.193,11.045,30.929,5.638,6.365-3.535,10.306-10.552,11.358-17.755s-.492-14.572-3.033-21.394C180.528,149,173.4,138.679,166.112,128.665q-22.426-30.806-47.793-59.32C105.8,55.271,92.634,41.539,77.087,30.9,58.124,17.912,36.256,9.947,14.649,2.113,9.88.385,4.3-1.275,0,1.422c.324-.2,19.649,15.523,22,17.058A63.167,63.167,0,0,1,37,32.417C49.956,48.434,59.981,66.533,69.823,84.554,75.408,94.781,80.943,105.04,86.955,115.025Z" transform="translate(0 0)" fill="#dae2ac"/><path d="M161.93,179.063l-19.8-25.257C128.111,135.917,114.082,118.019,101,99.431,87.134,79.725,74.291,59.195,58.372,41.105S22.986,7.238,0,0" transform="translate(8.421 0.935)" fill="none" stroke="#a2ad64" stroke-linecap="round" stroke-linejoin="round" stroke-width="2.14"/><path d="M4.879,30.433c-.127-3.042-1.454-5.883-2.46-8.757A43.35,43.35,0,0,1,.637,0c10.028,2.858,19.036,8.42,27.9,13.917" transform="translate(146.236 149.268)" fill="none" stroke="#a2ad64" stroke-linecap="round" stroke-linejoin="round" stroke-width="2.14"/><path d="M4.879,30.433c-.128-3.042-1.455-5.883-2.461-8.757A43.364,43.364,0,0,1,.637,0c10.028,2.858,19.035,8.42,27.9,13.917" transform="translate(126.527 125.045)" fill="none" stroke="#a2ad64" stroke-linecap="round" stroke-linejoin="round" stroke-width="2.14"/><path d="M4.879,30.434c-.128-3.044-1.455-5.884-2.461-8.758A43.363,43.363,0,0,1,.637,0c10.028,2.858,19.035,8.42,27.9,13.917" transform="translate(107.698 98.544)" fill="none" stroke="#a2ad64" stroke-linecap="round" stroke-linejoin="round" stroke-width="2.14"/><path d="M4.879,30.433c-.127-3.042-1.454-5.883-2.461-8.757A43.364,43.364,0,0,1,.637,0c10.028,2.858,19.036,8.42,27.9,13.917" transform="translate(89.135 73.555)" fill="none" stroke="#a2ad64" stroke-linecap="round" stroke-linejoin="round" stroke-width="2.14"/><path d="M4.845,30.227C4.718,27.2,3.4,24.383,2.4,21.528A43.052,43.052,0,0,1,.633,0c9.959,2.839,18.9,8.363,27.705,13.821" transform="translate(71.817 48.213)" fill="none" stroke="#a2ad64" stroke-linecap="round" stroke-linejoin="round" stroke-width="2.126"/><path d="M6.176,21.86c-.4-2.216-1.655-4.162-2.679-6.166A32.051,32.051,0,0,1,.021,0C7.651,1.088,14.8,4.259,21.842,7.4" transform="translate(53.244 28.38)" fill="none" stroke="#a2ad64" stroke-linecap="round" stroke-linejoin="round" stroke-width="1.582"/></g></g><g transform="translate(1965.74 -33.566) rotate(150)"><path d="M0,0A78.306,78.306,0,0,0,14.421,17.729" transform="translate(56.249 1.53)" fill="none" stroke="#bca9ff" stroke-linecap="round" stroke-linejoin="round" stroke-width="5"/><path d="M0,0A29.512,29.512,0,0,0,11.432,18.071" transform="translate(14.456 0.001)" fill="none" stroke="#fff" stroke-linecap="round" stroke-linejoin="round" stroke-width="5"/><path d="M0,0A50.6,50.6,0,0,0,13.6,15.829" transform="translate(37.07 11.426)" fill="none" stroke="#fffe40" stroke-linecap="round" stroke-linejoin="round" stroke-width="5"/><path d="M0,0,4.626,4.707" transform="translate(33.238 38.025)" fill="none" stroke="#fff" stroke-linecap="round" stroke-linejoin="round" stroke-width="5"/><path d="M0,0A31.5,31.5,0,0,0,8.646,10" transform="translate(0.003 30.61)" fill="none" stroke="#bca9ff" stroke-linecap="round" stroke-linejoin="round" stroke-width="5"/><path d="M0,0A87.737,87.737,0,0,0,14.13,9.793" transform="translate(57.923 48.683)" fill="none" stroke="#fffe40" stroke-linecap="round" stroke-linejoin="round" stroke-width="5"/><path d="M0,0,8.454,6.286" transform="translate(81.411 35.816)" fill="none" stroke="#fff" stroke-linecap="round" stroke-linejoin="round" stroke-width="5"/></g></g></g></svg>
