<svg xmlns="http://www.w3.org/2000/svg" xmlns:xlink="http://www.w3.org/1999/xlink" width="512.782" height="130.955" viewBox="0 0 512.782 130.955"><defs><style>.a{fill:#fff;}.b{clip-path:url(#a);}.c{fill:#fc5185;}.d{clip-path:url(#b);}.e{clip-path:url(#c);}.f{fill:#7d26b0;}.g{clip-path:url(#d);}.h{fill:none;stroke:#7d26b0;stroke-linecap:round;stroke-width:7px;}</style><clipPath id="a"><path class="a" d="M31.4,39.209l2.928-15.619,7.484-1.952V11.877L38.233,4.555,27.17,0H6.833L0,4.555s1.79,10.25,3.254,12.039,9.111,11.389,9.111,11.389,4.113.115,4.438,1.9,1.836.583,1.348,4.813,3.081-1.155,3.081-1.155L32.7,42.3Z" transform="translate(0 0)"/></clipPath><clipPath id="b"><path class="a" d="M14.686,55.3l-4.13-22.028L0,30.518V16.751L5.048,6.425,20.652,0H49.334l9.637,6.425s-2.524,14.456-4.589,16.98-12.85,16.062-12.85,16.062-5.8.162-6.26,2.686-2.589.823-1.9,6.789-4.345-1.629-4.345-1.629L12.85,59.66Z"/></clipPath><clipPath id="c"><path class="a" d="M14.9,56.12,10.712,33.765,0,30.971V17L5.123,6.52,20.958,0H50.066l9.78,6.52s-2.562,14.67-4.657,17.232-13.04,16.3-13.04,16.3-5.887.164-6.353,2.726-2.628.835-1.929,6.889-4.409-1.653-4.409-1.653L13.04,60.545Z" transform="translate(0 0)"/></clipPath><clipPath id="d"><path class="a" d="M28.295,35.332l2.639-14.074L37.677,19.5V10.7L34.452,4.1,24.483,0H6.157L0,4.1s1.613,9.236,2.932,10.849,8.21,10.262,8.21,10.262,3.706.1,4,1.716,1.654.526,1.215,4.337,2.776-1.041,2.776-1.041l10.336,7.889Z" transform="translate(0 0)"/></clipPath></defs><g transform="translate(-2655.402 249.92)"><g class="b" transform="translate(3108.173 -136.589) rotate(158)"><g transform="translate(52.559 78.224) rotate(-177)"><g transform="translate(0 0)"><path class="c" d="M35.6,67.2c-4.8-3.325-8.452-8.9-10.867-16.563-1.07-3.394-1.847-6.933-2.6-10.356-.676-3.08-1.375-6.265-2.286-9.342A66.985,66.985,0,0,0,.247,0L0,.277A66.608,66.608,0,0,1,19.489,31.046c.907,3.063,1.6,6.242,2.28,9.315.753,3.431,1.533,6.979,2.606,10.387,2.44,7.746,6.145,13.385,11.011,16.758Z" transform="translate(0)"/></g><g transform="translate(16.722 23.174)"><g transform="translate(0 0)"><path class="c" d="M.219,0,0,.137C.04.2,4.052,6.554,9.086,7.91l.068-.251C4.217,6.331.258.064.219,0Z"/></g></g><g transform="translate(17.042 32.274)"><g transform="translate(0 0)"><path class="c" d="M2.864,0C2.86.062,2.471,6.281,0,9.818l.212.148C2.725,6.369,3.118.077,3.122.014Z"/></g></g><g transform="translate(14.21 38.603)"><path class="c" d="M.439,4.5A11.7,11.7,0,0,0,.46,10.915a26.792,26.792,0,0,0,2.548,5.959c-.264-2.621,1.553-4.935,2.477-7.4a11.433,11.433,0,0,0,.372-6.657C5.677,2.074,5.371.418,4.58.067S2.754.833,2.268,1.348A8.124,8.124,0,0,0,.439,4.5Z" transform="translate(0 0)"/></g><g transform="translate(21.526 28.27)"><path class="c" d="M5.659.646c1.918.691,3.623,1.805,5.567,2.652a7.535,7.535,0,0,0,5.984.414,10.66,10.66,0,0,1-9.6,3.366A10.794,10.794,0,0,1,.344,2.044C-.925-.054,1.622-.09,3.057.046A10.488,10.488,0,0,1,5.659.646Z" transform="translate(0 0)"/></g><g transform="translate(22.592 43.664)"><g transform="translate(0 0)"><path class="c" d="M.231,0,0,.116C.031.177,3.115,6.27,8.166,8.205l.093-.242C3.3,6.065.261.061.231,0Z"/></g></g><g transform="translate(28.104 49.017)"><path class="c" d="M5.831,7.422a9.72,9.72,0,0,0,8.4-1.6,2.691,2.691,0,0,1-2.925.222A6.377,6.377,0,0,1,9.08,3.917,15.114,15.114,0,0,0,7.158,1.476C5.629.07,2.787-.547.931.593c-2.237,1.373.093,3.877,1.4,4.967A9.561,9.561,0,0,0,5.831,7.422Z" transform="translate(0 0)"/></g><g transform="translate(24.852 53.865)"><g transform="translate(0 0)"><path class="c" d="M.952,0,.7.04C.7.094,1.535,5.491,0,7.9l.218.14C1.805,5.548.987.224.952,0Z" transform="translate(0 0)"/></g></g><g transform="translate(18.2 59.745)"><path class="c" d="M3.122,2.435A14.246,14.246,0,0,0,1.708,7,10.224,10.224,0,0,1,0,11.448a10.015,10.015,0,0,0,7.7-4.96,7.086,7.086,0,0,0,1-3.458C8.7,1.859,8.292-.078,6.792,0A4.9,4.9,0,0,0,3.122,2.435Z" transform="translate(0 0)"/></g><g transform="translate(32.561 64.063)"><path class="c" d="M3.147,6.612A11.938,11.938,0,0,0,9.554,8.5a26.2,26.2,0,0,0,6.7-.859A4.7,4.7,0,0,1,11.938,6.45,36.319,36.319,0,0,1,8.822,2.971,9.244,9.244,0,0,0,4.967.294C3.481-.191.591-.283.071,1.677-.426,3.546,1.788,5.685,3.147,6.612Z" transform="translate(0 0)"/></g></g></g><g class="d" transform="matrix(-0.788, -0.616, 0.616, -0.788, 2926.976, -118.965)"><g transform="translate(-20.514 8.112) rotate(-3)"><g transform="translate(0 7.147)"><path class="c" d="M50.205.43C43.441,5.12,38.284,12.981,34.878,23.791c-1.509,4.786-2.6,9.778-3.664,14.606-.953,4.343-1.94,8.837-3.224,13.176A94.475,94.475,0,0,1,.348,95.21L0,94.819a93.944,93.944,0,0,0,27.487-43.4c1.28-4.32,2.263-8.8,3.215-13.138,1.063-4.839,2.161-9.842,3.676-14.649C37.819,12.709,43.044,4.757,49.908,0Z" transform="translate(0 0)"/></g><g transform="translate(23.585 58.516)"><g transform="translate(0 0)"><path class="c" d="M.309,11.156,0,10.962C.057,10.871,5.715,1.912,12.814,0l.1.354C5.948,2.227.364,11.065.309,11.156Z"/></g></g><g transform="translate(24.036 42.781)"><g transform="translate(0 0)"><path class="c" d="M4.039,14.056C4.034,13.969,3.485,5.2,0,.208L.3,0C3.843,5.074,4.4,13.947,4.4,14.036Z"/></g></g><g transform="translate(20.042 24.112)"><path class="c" d="M.619,17.449A16.5,16.5,0,0,1,.649,8.4,37.787,37.787,0,0,1,4.243,0C3.871,3.7,6.433,6.96,7.736,10.439a16.125,16.125,0,0,1,.525,9.389c-.254,1.045-.686,3.381-1.8,3.875S3.884,22.623,3.2,21.9A11.458,11.458,0,0,1,.619,17.449Z" transform="translate(0 0)"/></g><g transform="translate(30.36 52.3)"><path class="c" d="M7.981,9.274c2.705-.975,5.11-2.546,7.852-3.74,2.664-1.159,5.791-1.774,8.44-.585A15.035,15.035,0,0,0,10.734.2,15.224,15.224,0,0,0,.485,7.3c-1.79,2.959,1.8,3.01,3.826,2.817A14.792,14.792,0,0,0,7.981,9.274Z" transform="translate(0 0)"/></g><g transform="translate(31.864 29.2)"><g transform="translate(0 0)"><path class="c" d="M.326,11.573,0,11.409C.044,11.323,4.393,2.73,11.517,0l.131.341C4.657,3.018.369,11.487.326,11.573Z"/></g></g><g transform="translate(39.638 22.264)"><path class="c" d="M8.224.491A13.709,13.709,0,0,1,20.076,2.75a3.8,3.8,0,0,0-4.125-.313,8.994,8.994,0,0,0-3.145,3,21.317,21.317,0,0,1-2.711,3.443c-2.156,1.982-6.164,2.852-8.781,1.245-3.155-1.937.131-5.469,1.972-7A13.485,13.485,0,0,1,8.224.491Z" transform="translate(0 0)"/></g><g transform="translate(35.051 15.051)"><g transform="translate(0 0)"><path class="c" d="M1.342,11.335l-.36-.057C.994,11.2,2.164,3.59,0,.2L.308,0C2.546,3.51,1.392,11.019,1.342,11.335Z" transform="translate(0 0)"/></g></g><g transform="translate(25.669 1.945)"><path class="c" d="M4.4,12.712A20.092,20.092,0,0,1,2.409,6.267,14.42,14.42,0,0,0,0,0,14.125,14.125,0,0,1,10.858,7a9.994,9.994,0,0,1,1.408,4.877c0,1.651-.571,4.384-2.688,4.27A6.912,6.912,0,0,1,4.4,12.712Z"/></g><g transform="translate(45.924 0)"><path class="c" d="M4.438,2.676A16.837,16.837,0,0,1,13.475.009,36.95,36.95,0,0,1,22.921,1.22c-2.092-.675-4.406.264-6.084,1.685a51.227,51.227,0,0,0-4.394,4.907A13.038,13.038,0,0,1,7,11.588c-2.1.685-6.171.815-6.9-1.95C-.6,7,2.522,3.984,4.438,2.676Z" transform="translate(0)"/></g></g></g><g class="e" transform="matrix(0.799, 0.602, -0.602, 0.799, 2911.859, -249.92)"><g transform="translate(-20.818 8.232) rotate(-3)"><g transform="translate(0 7.252)"><path class="c" d="M50.949.436C44.085,5.2,38.852,13.173,35.4,24.143,33.864,29,32.752,34.067,31.677,38.966c-.967,4.408-1.969,8.968-3.272,13.371A95.876,95.876,0,0,1,.354,96.621L0,96.225a95.337,95.337,0,0,0,27.894-44.04c1.3-4.384,2.3-8.934,3.263-13.333,1.078-4.911,2.194-9.988,3.73-14.866C38.38,12.9,43.682,4.828,50.648,0Z" transform="translate(0 0)"/></g><g transform="translate(23.935 59.384)"><g transform="translate(0 0)"><path class="c" d="M.314,11.321,0,11.124C.058,11.033,5.8,1.941,13,0l.1.359C6.036,2.26.37,11.229.314,11.321Z"/></g></g><g transform="translate(24.392 43.415)"><g transform="translate(0 0)"><path class="c" d="M4.1,14.264c0-.089-.562-8.99-4.1-14.053L.3,0C3.9,5.149,4.462,14.154,4.468,14.244Z"/></g></g><g transform="translate(20.339 24.469)"><path class="c" d="M.629,17.708a16.748,16.748,0,0,1,.03-9.179A38.347,38.347,0,0,1,4.306,0C3.928,3.751,6.529,7.063,7.851,10.593a16.364,16.364,0,0,1,.532,9.528c-.257,1.061-.7,3.432-1.828,3.933s-2.614-1.1-3.309-1.833A11.628,11.628,0,0,1,.629,17.708Z" transform="translate(0 0)"/></g><g transform="translate(30.81 53.075)"><path class="c" d="M8.1,9.412c2.745-.989,5.186-2.584,7.968-3.8,2.7-1.176,5.876-1.8,8.565-.593A15.258,15.258,0,0,0,10.893.206a15.449,15.449,0,0,0-10.4,7.2c-1.816,3,1.83,3.054,3.883,2.859A15.011,15.011,0,0,0,8.1,9.412Z" transform="translate(0 0)"/></g><g transform="translate(32.336 29.633)"><g transform="translate(0 0)"><path class="c" d="M.331,11.744,0,11.578C.044,11.491,4.458,2.77,11.688,0l.133.346C4.726,3.063.374,11.657.331,11.744Z"/></g></g><g transform="translate(40.225 22.594)"><path class="c" d="M8.345.5A13.913,13.913,0,0,1,20.374,2.791a3.852,3.852,0,0,0-4.186-.318A9.128,9.128,0,0,0,13,5.515a21.633,21.633,0,0,1-2.751,3.494C8.057,11.02,3.989,11.9,1.333,10.272c-3.2-1.966.133-5.55,2-7.109A13.685,13.685,0,0,1,8.345.5Z" transform="translate(0 0)"/></g><g transform="translate(35.571 15.274)"><g transform="translate(0 0)"><path class="c" d="M1.362,11.5,1,11.445c.012-.077,1.2-7.8-1-11.246L.312,0C2.584,3.562,1.413,11.182,1.362,11.5Z"/></g></g><g transform="translate(26.05 1.974)"><path class="c" d="M4.468,12.9A20.39,20.39,0,0,1,2.445,6.36,14.634,14.634,0,0,0,0,0,14.334,14.334,0,0,1,11.019,7.1a10.142,10.142,0,0,1,1.429,4.949c0,1.676-.58,4.449-2.727,4.334A7.014,7.014,0,0,1,4.468,12.9Z"/></g><g transform="translate(46.605 0)"><path class="c" d="M4.5,2.716A17.087,17.087,0,0,1,13.674.009a37.5,37.5,0,0,1,9.586,1.229c-2.123-.685-4.471.268-6.174,1.71a51.985,51.985,0,0,0-4.459,4.98,13.231,13.231,0,0,1-5.519,3.831C4.982,12.454.846,12.586.1,9.78-.609,7.1,2.559,4.043,4.5,2.716Z" transform="translate(0)"/></g></g></g><path class="f" d="M-116.177-59.1a16.174,16.174,0,0,0,7.5,13.884A23.172,23.172,0,0,0-125.089-23.36c0,9.756,5.441,18.574,17.73,18.574,8.349,0,18.105-2.72,24.672-9.287a2.823,2.823,0,0,0,.844-2.064,2.482,2.482,0,0,0-1.595-2.251A29.438,29.438,0,0,1-100.7-13.041c-7.692,0-11.163-5.722-11.163-12.008,0-7.6,5.16-16.135,14.447-16.792a4.526,4.526,0,0,0,.938-3.565c-6.567-1.595-9.569-7.5-9.569-13.415,0-6.848,4.034-13.7,11.257-13.7,3.846,0,5.535,2.627,5.535,5.535s-1.689,6.1-4.6,6.942a6.37,6.37,0,0,0,5.441,3.752c4.69,0,7.692-4.6,7.692-9.85,0-6-4.409-11.632-15.291-11.632C-108.859-77.77-116.177-68.3-116.177-59.1Zm53.471,5.816c-13.04,0-23.64,16.323-23.64,32.74,0,6,1.97,15.76,11.726,15.76,5.347,0,10.319-3.94,14.259-9.475-.094,7.411,4.315,9.475,8.724,9.475,5.066,0,11.82-4.315,16.229-9.287a3.264,3.264,0,0,0,.844-2.064,2.482,2.482,0,0,0-1.595-2.251c-2.345,2.345-6.379,4.69-9.85,4.69-2.439,0-3.94-1.689-2.814-6.942l6.567-31.051a8.127,8.127,0,0,0-4.409-1.22,8.314,8.314,0,0,0-6.379,2.72C-55.388-52.254-58.484-53.286-62.705-53.286Zm2.533,32.927c-2.533,3.471-6.473,5.91-9.475,5.91-2.908,0-5.066-2.064-5.066-6.754,0-10.225,4.034-25.047,15.385-25.047a12.81,12.81,0,0,1,4.409.75ZM-29.215-4.786c13.79,0,19.231-6.754,19.231-15.854,0-11.914-15.385-9.756-15.385-19.7,0-5.066,2.908-7.6,5.441-7.6,2.251,0,4.221,1.595,4.221,5.066A8.573,8.573,0,0,1-17.3-37.807a7.555,7.555,0,0,0,3.752,1.313c3.471.188,6.567-2.439,6.567-7.692,0-6.1-3.846-9.1-11.82-9.1-10.882,0-16.041,6.942-16.041,14.447,0,14.071,15.479,13.227,15.479,20.357a7.5,7.5,0,0,1-7.411,7.5c-3,0-5.91-1.876-5.91-6.191a9.331,9.331,0,0,1,1.97-5.91,5.256,5.256,0,0,0-3.752-1.313c-4.6,0-7.317,3.377-7.974,7.223C-43.474-10.884-39.253-4.786-29.215-4.786ZM16.658-47c2.908,0,4.409-2.439,3.94-5.441H13.75l2.627-12.383a8.127,8.127,0,0,0-4.409-1.22c-3.377,0-6.942,1.595-7.88,5.91L2.4-52.441H.522C-2.386-52.441-3.887-50-3.418-47h4.69l-6,28.33C-6.888-8.351-3.136-4.786,2.586-4.786,8.872-4.786,16-9.1,20.41-14.073a3.264,3.264,0,0,0,.844-2.064,2.482,2.482,0,0,0-1.595-2.251c-2.345,2.345-6.379,4.69-9.85,4.69C7.371-13.7,5.87-15.387,7-20.64L12.53-47Zm34.334,2.72c0-4.221-2.158-9.006-10.694-9.006-15.479,0-23.546,19.512-23.546,31.708,0,11.539,7.13,16.792,15.948,16.792,9.1,0,19.981-5.629,26.454-15.1,1.032-1.689.094-3.659-2.345-3.19C52.774-17.732,44.144-12.948,37.39-12.948c-4.315,0-7.786-1.876-8.724-6.942C46.771-29.927,50.992-36.306,50.992-44.28ZM40.954-45.969c1.595,0,2.72,1.5,2.72,3.659,0,6.1-6.191,12.664-15.291,18.387C28.665-30.49,31.667-45.969,40.954-45.969Zm30.207-1.782c.75-3.565-1.126-5.16-4.5-5.16-3.94,0-7.317,1.97-10.507,4.5a3.424,3.424,0,0,0,0,5.16c.844-.75,1.407-1.126,1.876-1.126.844,0,1.22.844.938,2.345L51.273-6.006a8.127,8.127,0,0,0,4.409,1.22c3.377,0,6.942-1.595,7.88-5.91l1.126-5.722c4.784-21.67,9.193-25.891,12.289-25.891,1.97,0,2.908,1.032,2.908,2.345a4.063,4.063,0,0,1-1.032,2.908,9.068,9.068,0,0,0,2.72.375c4.878,0,7.5-4.6,7.5-8.818,0-3.846-2.345-7.411-6.848-7.411-4.315,0-8.349,2.627-12.1,10.225Z" transform="translate(3062.465 -145.82)"/><path class="f" d="M1.653-13.886C-9.033-13.886-16.464-.5-16.464,10.2c0,6.659,3.114,12.539,10.4,12.539,11.11,0,18.682-13.389,18.682-23.944C12.622-8.148,9.366-13.886,1.653-13.886ZM3.21-8.5c2.9,0,4.1,2.9,4.1,6.73,0,7.438-4.529,18.348-10.12,18.348-2.477,0-4.6-2.409-4.6-8.643C-7.405.99-3.23-8.5,3.21-8.5Zm33.737-4.746H25.977l.5-2.125c1.132-5.313,2.9-10.059,6.157-10.059,4.175,0,4.529,4.038,3.326,9.634H39c2.477-9.138.991-14.664-6.015-14.664-6.723,0-12.738,5.526-14.719,14.664l-.566,2.55H16.282c-2.194,0-3.326,1.842-2.972,4.109h3.538L10.126,22.171C7.012,36.623,4.96,43.14.148,43.14a4.543,4.543,0,0,1-4.883-3.9c-1.415,0-2.335.708-2.335,1.913,0,5.951,3.538,8.288,7.784,8.288,9.907,0,13.587-8.147,17.692-27.273L25.128-9.14H36.946ZM49.684-9.14c2.194,0,3.326-1.842,2.972-4.109H47.207l.5-2.125c1.132-5.313,2.9-10.059,6.157-10.059,1.769,0,2.618.708,2.618,2.054a12.644,12.644,0,0,1-1.132,4.6,5.7,5.7,0,0,0,2.831.992c2.618.142,4.954-1.842,4.954-5.809,0-4.6-2.9-6.872-8.917-6.872-6.723,0-12.738,5.526-14.719,14.664l-.566,2.55H37.512c-2.194,0-3.326,1.842-2.972,4.109h3.538L31.356,22.171C28.242,36.623,26.19,43.14,21.378,43.14a4.543,4.543,0,0,1-4.883-3.9c-1.415,0-2.335.708-2.335,1.913,0,5.951,3.538,8.288,7.784,8.288,9.907,0,13.587-8.147,17.692-27.273L46.358-9.14Z" transform="translate(2845.403 -192.442)"/><g class="g" transform="matrix(-0.951, 0.309, -0.309, -0.951, 2740.996, -136.9)"><g transform="translate(47.361 70.488) rotate(-177)"><g transform="translate(0 0)"><path class="c" d="M32.076,60.555c-4.322-3-7.616-8.019-9.793-14.925-.964-3.058-1.664-6.247-2.341-9.332-.609-2.775-1.239-5.646-2.06-8.418A60.36,60.36,0,0,0,.223,0L0,.25A60.021,60.021,0,0,1,17.562,27.976c.818,2.76,1.446,5.624,2.054,8.394.679,3.092,1.381,6.288,2.348,9.359,2.2,6.98,5.537,12.061,9.922,15.1Z" transform="translate(0 0)"/></g><g transform="translate(15.069 20.882)"><g transform="translate(0 0)"><path class="c" d="M.2,0,0,.124c.036.058,3.651,5.782,8.187,7L8.249,6.9C3.8,5.7.233.058.2,0Z" transform="translate(0 0)"/></g></g><g transform="translate(15.356 29.082)"><g transform="translate(0 0)"><path class="c" d="M2.58,0c0,.056-.354,5.66-2.58,8.847l.191.133C2.456,5.739,2.809.07,2.813.013Z" transform="translate(0)"/></g></g><g transform="translate(12.805 34.786)"><path class="c" d="M.4,4.057A10.544,10.544,0,0,0,.414,9.836a24.142,24.142,0,0,0,2.3,5.369c-.237-2.362,1.4-4.446,2.232-6.669a10.3,10.3,0,0,0,.335-6C5.116,1.869,4.839.376,4.127.061S2.482.751,2.044,1.215A7.321,7.321,0,0,0,.4,4.057Z" transform="translate(0 0)"/></g><g transform="translate(19.397 25.474)"><path class="c" d="M5.1.582c1.728.623,3.265,1.627,5.016,2.389a6.79,6.79,0,0,0,5.393.373,9.606,9.606,0,0,1-8.65,3.033A9.726,9.726,0,0,1,.31,1.842C-.834-.049,1.462-.081,2.754.042A9.451,9.451,0,0,1,5.1.582Z" transform="translate(0 0)"/></g><g transform="translate(20.358 39.346)"><g transform="translate(0 0)"><path class="c" d="M.209,0,0,.1C.028.159,2.807,5.65,7.358,7.394l.084-.218C2.975,5.465.236.055.209,0Z" transform="translate(0)"/></g></g><g transform="translate(25.325 44.17)"><path class="c" d="M5.254,6.688a8.759,8.759,0,0,0,7.573-1.443,2.425,2.425,0,0,1-2.635.2,5.747,5.747,0,0,1-2.01-1.915A13.62,13.62,0,0,0,6.45,1.33,5.063,5.063,0,0,0,.839.534C-1.177,1.772.923,4.028,2.1,5.01A8.616,8.616,0,0,0,5.254,6.688Z" transform="translate(0 0)"/></g><g transform="translate(22.394 48.538)"><g transform="translate(0 0)"><path class="c" d="M.858,0,.628.036C.635.085,1.383,4.948,0,7.116l.2.126C1.627,5,.889.2.858,0Z" transform="translate(0 0)"/></g></g><g transform="translate(16.4 53.837)"><path class="c" d="M2.813,2.194A12.837,12.837,0,0,0,1.539,6.312a9.213,9.213,0,0,1-1.539,4,9.024,9.024,0,0,0,6.937-4.47,6.385,6.385,0,0,0,.9-3.116C7.836,1.676,7.472-.07,6.12,0A4.416,4.416,0,0,0,2.813,2.194Z" transform="translate(0 0)"/></g><g transform="translate(29.341 57.727)"><path class="c" d="M2.836,5.958a10.757,10.757,0,0,0,5.773,1.7,23.607,23.607,0,0,0,6.035-.774,4.238,4.238,0,0,1-3.887-1.076A32.727,32.727,0,0,1,7.95,2.677,8.33,8.33,0,0,0,4.475.265C3.136-.173.533-.255.064,1.511-.384,3.2,1.611,5.123,2.836,5.958Z" transform="translate(0 0)"/></g></g></g><path class="f" d="M-28.653-14.881c0-16.266,6.112-38.55,25.387-60.176,1.41-1.5.376-4.231-1.034-5.83a32.876,32.876,0,0,1-7.522,1.692c-9.685.846-11.753-3.2-23.506-3.2-6.676,0-11.753,6.676-9.12,15.608A25.345,25.345,0,0,1-33.636-69.6c7.8,0,10.531,1.88,17.865,1.6C-26.4-55.781-41.252-31.617-41.252-10.085a8.482,8.482,0,0,0,4.513,1.222C-33.26-8.863-28.653-10.367-28.653-14.881ZM36.694-56.439c0-13.351-2.915-24.07-17.3-24.07-22.754,0-31.4,27.737-31.4,47.294,0,13.351,2.915,24.07,17.3,24.07C28.043-9.145,36.694-36.882,36.694-56.439ZM.212-30.677c0-10.155,3.2-43.627,17.018-43.627,4.607,0,7.24,5.735,7.24,15.326,0,10.155-3.2,43.627-17.018,43.627C2.845-15.351.212-21.086.212-30.677Z" transform="translate(2733.16 -134.134)"/><path class="c" d="M-27.069-.607a13.6,13.6,0,0,1-3.811-.534A8.939,8.939,0,0,1-33.838-2.53l1.306-2.9A8.863,8.863,0,0,0-29.99-4.169a9.544,9.544,0,0,0,2.945.475,4.7,4.7,0,0,0,2.422-.487,1.471,1.471,0,0,0,.784-1.294A1.237,1.237,0,0,0-24.3-6.46,3.511,3.511,0,0,0-25.49-7.09q-.724-.237-1.959-.522a27.082,27.082,0,0,1-3.111-.9,5.054,5.054,0,0,1-2.078-1.449,3.912,3.912,0,0,1-.867-2.66,4.627,4.627,0,0,1,.784-2.624,5.272,5.272,0,0,1,2.363-1.864A9.642,9.642,0,0,1-26.5-17.8a12.778,12.778,0,0,1,3.111.38,9.19,9.19,0,0,1,2.66,1.092l-1.187,2.921a9.269,9.269,0,0,0-4.607-1.306,4.32,4.32,0,0,0-2.387.522,1.6,1.6,0,0,0-.772,1.377,1.347,1.347,0,0,0,.891,1.271,13.982,13.982,0,0,0,2.719.819,27.082,27.082,0,0,1,3.111.9A5.152,5.152,0,0,1-20.883-8.4a3.82,3.82,0,0,1,.867,2.636,4.539,4.539,0,0,1-.8,2.6A5.345,5.345,0,0,1-23.2-1.3,9.73,9.73,0,0,1-27.069-.607Zm21.3-3.847h-7.718L-14.958-.892H-18.9l7.409-16.623h3.8L-.258-.892H-4.3ZM-6.979-7.375l-2.636-6.364-2.636,6.364ZM2.14-17.515H5.987V-4.026h8.335V-.892H2.14ZM30.02-3.979V-.892H17.149V-17.515H29.711v3.087H20.972v3.61H28.69v2.992H20.972v3.847Z" transform="translate(3135.188 -204.977)"/><g transform="translate(2899.828 -192.659)"><path class="f" d="M-895.313,1528.64l-.407,1.184h3.967l-.7,2.035h-3.915l-4,11.615h-2.473l4-11.615h-2.318l.7-2.035h2.318l.416-1.21a6.213,6.213,0,0,1,6.024-4.4,3.483,3.483,0,0,1,2.507.8l-1.395,1.88a2.326,2.326,0,0,0-1.684-.644A3.1,3.1,0,0,0-895.313,1528.64Z" transform="translate(902.841 -1524.211)"/><path class="f" d="M-889.1,1539.824a10.394,10.394,0,0,1,9.5-6.954c4.1,0,6.09,2.885,4.689,6.954a10.4,10.4,0,0,1-9.487,6.978C-888.491,1546.8-890.5,1543.892-889.1,1539.824Zm11.694,0c1-2.911-.309-4.791-2.936-4.791a6.886,6.886,0,0,0-6.26,4.791c-1,2.909.325,4.816,2.952,4.816A6.894,6.894,0,0,0-877.407,1539.824Z" transform="translate(897.951 -1527.385)"/><path class="f" d="M-853.839,1532.87l-.825,2.395a4.146,4.146,0,0,0-.557-.026c-2.653,0-4.86,1.623-5.889,4.611l-2.341,6.8h-2.473l4.7-13.649h2.37l-.789,2.292A7.479,7.479,0,0,1-853.839,1532.87Z" transform="translate(889.26 -1527.385)"/></g><path class="c" d="M-26.38,277.207a12.835,12.835,0,0,0-1.975,6.767,12.2,12.2,0,0,0-5.023-4.767,12.2,12.2,0,0,0,1.645,6.726,12.833,12.833,0,0,0-6.855-1.645,12.257,12.257,0,0,0,5.054,5.083,12.914,12.914,0,0,0,7.078,1.768,12.918,12.918,0,0,0,1.98-7.023A12.258,12.258,0,0,0-26.38,277.207Z" transform="translate(3085.09 -495.826)"/><g transform="translate(2775.044 -215.678)"><g transform="translate(2.569 7.942)"><path class="h" d="M0,59.594S4.949,44.185,18.216,25.614,38.688,0,38.688,0" transform="translate(3.119 0) rotate(3)"/></g><path class="f" d="M-7.45-51.409c-9.814,0-16.639,12.284-16.639,22.1,0,6.11,2.86,11.5,9.554,11.5,10.2,0,17.159-12.284,17.159-21.969C2.625-46.144-.365-51.409-7.45-51.409Zm1.43,4.94c2.665,0,3.77,2.665,3.77,6.175,0,6.825-4.16,16.834-9.294,16.834-2.275,0-4.225-2.21-4.225-7.929C-15.769-37.76-11.934-46.469-6.02-46.469Z" transform="translate(24.088 51.409)"/><path class="f" d="M-8.772-51.409c-9.034,0-15.316,11.308-15.316,20.342,0,5.624,2.633,10.59,8.795,10.59C-5.9-20.477.5-31.785.5-40.7.5-46.563-2.251-51.409-8.772-51.409Zm1.316,4.547c2.453,0,3.47,2.453,3.47,5.684,0,6.282-3.829,15.5-8.556,15.5-2.094,0-3.889-2.034-3.889-7.3C-16.43-38.845-12.9-46.862-7.456-46.862Z" transform="translate(41.448 93.844)"/></g><g transform="translate(2655.402 -210.108)"><g transform="translate(506.46 41.362) rotate(99)"><path class="a" d="M2.178.679a.953.953,0,0,0-1.825,0C-.229,2.955.075,5.411.115,7.744A37.531,37.531,0,0,0,.746,14.7a.541.541,0,0,0,1.038,0,37.53,37.53,0,0,0,.63-6.959C2.453,5.411,2.758,2.955,2.178.679Z" transform="translate(0)"/></g><g transform="matrix(0.07, 0.998, -0.998, 0.07, 511.893, 51.52)"><path class="a" d="M11.058.139C8.4,1.394,6.944,4.728,5.552,7.184c-1.9,3.352-3.69,6.786-5.373,10.254a1.427,1.427,0,0,0,2.462,1.439,79.786,79.786,0,0,0,5.48-8.83c1.518-2.655,4.191-5.569,4.608-8.624A1.152,1.152,0,0,0,11.058.139Z" transform="translate(0)"/></g><g transform="matrix(-0.934, -0.358, 0.358, -0.934, 21.531, 33.497)"><path class="a" d="M16.133.183c-2.3-.615-4.654.466-6.893,1.065A88.126,88.126,0,0,0,.65,3.591.927.927,0,0,0,.9,5.4,28.908,28.908,0,0,0,9.018,4.314c2.5-.565,5.6-.786,7.523-2.589A.93.93,0,0,0,16.133.183Z" transform="translate(0)"/></g><g transform="translate(3.629 0) rotate(33)"><path class="a" d="M20.56,4.272c-3.213-.634-6.442-1.114-9.625-1.9C7.684,1.566,4.572.04,1.188,0A1.243,1.243,0,0,0,.566,2.3C5.634,5.986,14.459,7.309,20.56,6.374A1.1,1.1,0,0,0,20.56,4.272Z"/></g></g></g></svg>
