<svg xmlns="http://www.w3.org/2000/svg" xmlns:xlink="http://www.w3.org/1999/xlink" width="1921.807" height="963.045" viewBox="0 0 1921.807 963.045"><defs><style>.a{fill:#f9f8f2;}.b{fill:#ffbe40;}.c{fill:#fff;}.d{clip-path:url(#a);}.e{fill:url(#b);}.f{clip-path:url(#c);}.g{fill:url(#d);}.h{fill:url(#e);}.aa,.ac,.ae,.ag,.ah,.ai,.ak,.am,.an,.ao,.ap,.aq,.ar,.as,.at,.au,.av,.aw,.ax,.ay,.az,.ba,.bb,.bd,.be,.bf,.bg,.bh,.bi,.i,.l,.n,.p,.q,.s,.t,.u,.w,.x,.y,.z{fill:none;}.i{stroke:#f68019;}.aa,.aw,.ay,.i,.n,.q{stroke-miterlimit:10;}.az,.ba,.bb,.i{stroke-width:3px;}.j{fill:url(#f);}.k{fill:#f4c245;}.av,.ax,.l,.p,.z{stroke:#ffdf97;}.ac,.ae,.ag,.ah,.ai,.ak,.am,.an,.ao,.ap,.aq,.ar,.as,.at,.au,.av,.ax,.az,.ba,.bb,.bd,.be,.bf,.bg,.bh,.bi,.l,.p,.s,.t,.u,.w,.x,.y,.z{stroke-linecap:round;stroke-linejoin:round;}.l{stroke-width:1.094px;}.m{fill:#7b823c;}.aa,.aw,.ay,.n,.q{stroke:#7b823b;}.n{stroke-width:1.642px;}.o{fill:#a580de;}.p{stroke-width:1.211px;}.q{stroke-width:1.816px;}.r{fill:#b4bf73;}.bd,.be,.bf,.s,.t,.u{stroke:#878e49;}.s{stroke-width:1.84px;}.t{stroke-width:1.828px;}.u{stroke-width:1.36px;}.v{fill:#dae2ac;}.bg,.bh,.bi,.w,.x,.y{stroke:#a2ad64;}.w{stroke-width:2.14px;}.x{stroke-width:2.126px;}.y{stroke-width:1.582px;}.z{stroke-width:0.826px;}.aa{stroke-width:1.238px;}.ab{fill:#567a84;}.ac,.ae{stroke:#7ea8af;}.ac{stroke-width:1.589px;}.ad{fill:#466a72;}.ae{stroke-width:2.16px;}.af{fill:#cdd2e8;}.ag,.ah,.ak,.am,.an,.ao,.ap{stroke:#ef9c95;}.ag{stroke-width:1.683px;}.ah,.ai{stroke-width:1.122px;}.ai,.aq{stroke:#c45b53;}.aj{fill:#fcf9f2;}.ak{stroke-width:3.135px;}.al{fill:#b2bad1;}.am{stroke-width:1.343px;}.an{stroke-width:0.895px;}.ao{stroke-width:1.851px;}.ap{stroke-width:1.234px;}.aq{stroke-width:1.018px;}.ar,.ba{stroke:#e0fa85;}.ar,.as,.at,.au{stroke-width:2px;}.as{stroke:#bca9ff;}.at,.az{stroke:#fff;}.au,.bb{stroke:#6b3bb6;}.av{stroke-width:0.911px;}.aw{stroke-width:1.366px;}.ax{stroke-width:1.201px;}.ay{stroke-width:1.801px;}.bc{clip-path:url(#h);}.bd{stroke-width:1.54px;}.be{stroke-width:1.53px;}.bf{stroke-width:1.138px;}.bg{stroke-width:1.792px;}.bh{stroke-width:1.78px;}.bi{stroke-width:1.324px;}.bj{clip-path:url(#i);}.bk{clip-path:url(#j);}</style><clipPath id="a"><path class="a" d="M0,0H1920V963H0Z"/></clipPath><linearGradient id="b" x1="0.475" y1="0.316" x2="0.479" y2="0.817" gradientUnits="objectBoundingBox"><stop offset="0" stop-color="#ffbf87"/><stop offset="1" stop-color="#ff9941"/></linearGradient><clipPath id="c"><path class="b" d="M.193,0V23.6L.278,695.452S211.824,938.728,409.265,950.187,998.945,764.2,998.945,764.2s124.282,163.947,289.992,162.184,406.342-200.967,632.87-185.983c-.054-28.365-1.779-740.45-1.779-740.45L9.825,0Z"/></clipPath><linearGradient id="d" x1="0.419" y1="0.633" x2="0.489" y2="0.793" gradientUnits="objectBoundingBox"><stop offset="0" stop-color="#ff9941" stop-opacity="0"/><stop offset="1" stop-color="#ff9941"/></linearGradient><linearGradient id="e" x1="0.57" y1="0.228" x2="0.539" y2="0.676" gradientUnits="objectBoundingBox"><stop offset="0" stop-color="#f68019"/><stop offset="1" stop-color="#f68019" stop-opacity="0"/></linearGradient><linearGradient id="f" x1="0.37" y1="0.645" x2="0.494" y2="0.793" xlink:href="#d"/><clipPath id="h"><path class="c" d="M1685.113,701.294s83.285,27.14,106.282,26.933,25.9-69.819,24.861-71.476-64.846-25.483-84.321-25.69-41.021,2.072-44.129,16.367,1.657,6.215-1.657,27.14S1685.113,701.294,1685.113,701.294Z"/></clipPath><clipPath id="i"><path class="c" d="M138.529,754.419s23.047,9.685,45.113,4.9,55.533-14.588,56.146-14.833,1.1-23.415-.735-26.234-35.429-20.963-40.577-21.453-13.117-2.82-22.311-.981-12.136,3.433-16.3,9.439-6.252,12.382-7.723,16.672-6.007,16.672-7.11,19.369S138.529,754.419,138.529,754.419Z"/></clipPath><clipPath id="j"><path class="c" d="M1525.588,734.65s-32.527,35.22-52.209,40.607-18.024-23.2-18.646-23.825-6.423-24.861-6.423-26.519,12.638-19.889,13.881-21.132,12.431-3.108,13.881-1.865S1505.7,712.9,1505.7,712.9l9.116,4.351Z"/></clipPath></defs><g transform="translate(0 0.045)"><path class="a" d="M0,0H1920V963H0Z"/><g class="d"><path class="e" d="M.193,0V23.6L.278,695.452S211.824,938.728,409.265,950.187,998.945,764.2,998.945,764.2s124.282,163.947,289.992,162.184,406.342-200.967,632.87-185.983c-.054-28.365-1.779-740.45-1.779-740.45L9.825,0Z"/></g><g class="f"><path class="g" d="M82.582,747.074c45.358,42.191,111.3,35.445,150.549-15.4,31.577-40.906,47.68-106.332,87.9-129.226,33.933-19.316,72.547-1.04,109.153,6.59,51.756,10.79,109.393-3.724,143.99-56.625,36.145-55.267,118.95-228.038,238.284-228.6,34.362-.161-90.517.551-54.992-.277s71.639,3.932,106.186-6.8c51.473-15.991,95.878-68,115.331-135.087C706,75.528,422.436,38.044,140.713,1.026c-9.762-1.283-20.12-2.427-28.819,3.557C104.6,9.6,99.512,18.961,94.993,28.264,62.735,94.676,46.317,173.1,31.969,250.7,7.183,384.764-12.8,525.779,10,661.505c5.738,34.15,15.4,69.9,36.431,90.062" transform="translate(396.283 1242.124) rotate(-150)"/><path class="h" d="M69.534,16.49c38.191-25.133,93.712-21.115,126.761,9.175,26.588,24.367,40.146,63.342,74.008,76.979,28.571,11.506,61.084.62,91.907-3.926,43.578-6.427,92.108,2.219,121.238,33.732C513.882,165.372,583.6,268.291,684.081,268.627c28.932.1-76.215-.328-46.3.165s60.32-2.343,89.408,4.051c43.34,9.526,80.729,40.509,97.108,80.471C594.447,416.528,355.688,438.856,118.48,460.908c-8.22.764-16.941,1.446-24.265-2.119-6.142-2.989-10.427-8.565-14.231-14.106C52.823,405.121,39,358.4,26.918,312.179,6.048,232.316-10.777,148.314,8.422,67.463,13.253,47.119,21.385,25.826,39.1,13.813" transform="matrix(0.995, -0.105, 0.105, 0.995, -130.927, 684.091)"/><g transform="matrix(0.966, 0.259, -0.259, 0.966, 50.526, 170.449)"><path class="i" d="M411.743,556.092c42.44-43.309,85.9-87.377,139.909-114.935,51.186-26.116,109.233-35.939,166.615-38.985s114.916.336,172.363-1.045"/><path class="i" d="M434.827,552.435c-.444-3.853,2.864-7,5.879-9.444,35.632-28.843,73.143-56.181,115.416-73.919,22.449-9.42,46-16.022,69.789-21.181a614.358,614.358,0,0,1,233.1-5.143"/><path class="i" d="M449.793,560.841c7.641-9.528,17.868-16.614,28.26-23.031,37.753-23.31,94.377-58.339,137.974-66.579,64.644-12.219,185.56-3.662,251.105,1.989"/></g><path class="j" d="M90.428,861.4C140.1,910.047,212.3,902.27,255.281,843.642c34.578-47.166,52.21-122.6,96.248-149,37.157-22.272,79.439-1.2,119.524,7.6,56.673,12.441,119.786-4.294,157.67-65.291C668.3,573.224,758.975,374.013,889.646,373.362c37.626-.186-99.117.635-60.217-.32s78.446,4.534,116.275-7.841c56.364-18.438,104.987-78.409,126.289-155.76C773.077,87.086,462.572,43.867,154.083,1.184c-10.69-1.479-22.032-2.8-31.557,4.1-7.987,5.785-13.56,16.578-18.507,27.3-35.323,76.575-53.3,167-69.012,256.474C7.866,443.646-14.015,606.24,10.952,762.737c6.283,39.376,16.858,80.592,39.893,103.844" transform="matrix(-0.883, -0.469, 0.469, -0.883, 1711.874, 1310.222)"/><g transform="translate(386.992 834.899)"><g transform="translate(0)"><path class="k" d="M-1.155,367.566a11.325,11.325,0,0,1-2.116-4.739,1.265,1.265,0,0,1,1.343-1.392A5.441,5.441,0,0,1-.6,361.7a2.235,2.235,0,0,1,.638-1.743,1.078,1.078,0,0,1,1.632.238c-.19-.948,1.076-1.65,1.987-1.326a4.025,4.025,0,0,1,1.926,2.078c2.115,3.891,3.963,8.117,7.374,10.942-1.925-3.69-3.612-7.5-5.3-11.306a17.515,17.515,0,0,1-1.639-5.049.927.927,0,0,1,1.225-.975,3.763,3.763,0,0,1,.834.422,1.258,1.258,0,0,1,2.08-1.4,1.494,1.494,0,0,1,1.223-1.084,3.035,3.035,0,0,0,.834-.1,3.756,3.756,0,0,0,.643-.509,1.689,1.689,0,0,1,2.086.316,4.7,4.7,0,0,1,1.036,2.021,65.664,65.664,0,0,1,2.857,15.094,39.815,39.815,0,0,0-.522-12.745,7.771,7.771,0,0,1-.229-3.466,1.172,1.172,0,0,1,1.308.508c-.163-.431.444-.723.9-.785l2.9-.4a1.867,1.867,0,0,1,.792.006c.53.161.8.736.992,1.254a22.5,22.5,0,0,1,1.635,9.392,15.71,15.71,0,0,1-11.3,13.842C8.1,378.784,2.483,373.035-1.155,367.566Z" transform="translate(3.279 -351.643)"/><g transform="translate(3.041 3.042)"><path class="l" d="M3.975,386.548a26.469,26.469,0,0,0,5.885,6.881,5.079,5.079,0,0,0,3.2,1.669" transform="translate(-3.975 -374.955)"/><path class="l" d="M19.975,396.289a19.414,19.414,0,0,0,5.278,4.219" transform="translate(-13.266 -380.612)"/><path class="l" d="M16.136,382.411a18.741,18.741,0,0,0,4.486,4.967" transform="translate(-11.037 -372.552)"/><path class="l" d="M8.241,380.07a18.376,18.376,0,0,0,2.477,3.959" transform="translate(-6.452 -371.193)"/><path class="l" d="M30.28,398.343a16.429,16.429,0,0,0,2.7,2.167" transform="translate(-19.251 -381.804)"/><path class="l" d="M28.111,376.625a43.145,43.145,0,0,0,2.623,6.219" transform="translate(-17.991 -369.192)"/><path class="l" d="M35.241,380.02q1.587,5.274,2.889,10.627" transform="translate(-22.132 -371.164)"/><path class="l" d="M45.847,394.811l.22,3.683" transform="translate(-28.291 -379.753)"/><path class="l" d="M41.946,378a30.518,30.518,0,0,1,.785,3.118" transform="translate(-26.025 -369.989)"/><path class="l" d="M33.341,363.5l.929,3.314" transform="translate(-21.028 -361.572)"/><path class="l" d="M36.994,359.208a21.067,21.067,0,0,1,1.206,4.67" transform="translate(-23.15 -359.078)"/><path class="l" d="M27.622,364.248q.528,2.441,1.289,4.823" transform="translate(-17.707 -362.005)"/><path class="l" d="M55.244,363.594q.087.554.175,1.108c.105.666.21,1.333.259,2.005a11.962,11.962,0,0,1-.325,3.756" transform="translate(-33.748 -361.625)"/><path class="l" d="M61.726,372.028a39.428,39.428,0,0,1-1.393,8.322" transform="translate(-36.703 -366.523)"/><path class="l" d="M55.828,384.852a11.5,11.5,0,0,1-1.2,4.249" transform="translate(-33.39 -373.97)"/><path class="l" d="M54.593,396.94a6.969,6.969,0,0,1-2.1,2.8" transform="translate(-32.15 -380.99)"/><path class="l" d="M31.22,409.139a5.482,5.482,0,0,0,2.278.27" transform="translate(-19.797 -388.074)"/><path class="l" d="M59.891,358.9a4.77,4.77,0,0,1,.267,2.3" transform="translate(-36.446 -358.898)"/></g></g><path class="m" d="M30.17,398.36c-.538.46,2.381,2.423,2.839,2.962a5.455,5.455,0,0,0-4.3.266.5.5,0,0,0-.273.25c-.078.228.171.429.392.525a7.753,7.753,0,0,0,3.761.3l-3.536.839a2.19,2.19,0,0,0-.788.3.744.744,0,0,0-.334.728c.1.444.666.577,1.121.57,2.07-.034,3.966-1.1,5.966-1.634,1.287-.344,2.628-.468,3.9-.87a18.668,18.668,0,0,0,1.763-.693,1.711,1.711,0,0,0,.668-.423.585.585,0,0,0,.049-.732,6.136,6.136,0,0,0-2.48.632,3.889,3.889,0,0,0,2.449-1.554,1.112,1.112,0,0,0,.221-1.134.865.865,0,0,0-.937-.345,2.528,2.528,0,0,0-.934.5l-2.9,2.14a5.187,5.187,0,0,0,.949-1.5,1.512,1.512,0,0,0,.108-1.125.646.646,0,0,0-.939-.332.966.966,0,0,0-.256.576c-.079.4-.419,1.6-.5,2-.171-.632-.081-2.057-.252-2.689a1.234,1.234,0,0,0-.415-.753c-.774-.513-1.271.609-1.275,1.189,0,.41.379,2.449.379,2.449C34.852,400.746,31.292,397.4,30.17,398.36Z" transform="translate(-14.835 -378)"/><path class="n" d="M44.805,406.919a87.3,87.3,0,0,1,6.682,43.041" transform="translate(-24.644 -383.743)"/></g><g transform="translate(1908.884 677.403) rotate(133)"><path class="i" d="M-34.456-62C-34.4-17.645-5.36,21.049,24.836,53.536c27.378,29.454,57.637,57.449,94.384,73.782" transform="translate(130.393 61.998)"/><path class="i" d="M35.53-56.984C34.1-38.5,43.52-21.046,53.369-5.338A592,592,0,0,0,91.93,49.088C105.586,66.227,120.292,82.7,137.491,96.28a189.631,189.631,0,0,0,77.666,36.486c-53.078-2.315-105.058-21.96-147.272-54.22S-6.747,1.678-25.732-47.944" transform="translate(25.732 61.998)"/></g><path class="o" d="M82.8,579.145q12.491-18.97,24.98-37.94c12.164-18.479,24.415-37.066,38.42-51.65,27.029-28.148,59.616-40.057,91.657-39.6s63.664,12.745,93.923,29.985c35.515,20.234,72.024,51.234,88.488,106.539-120.945,12.4-242.113,24.447-363.233,18.1" transform="matrix(0.996, 0.087, -0.087, 0.996, 257.787, 400.477)"/><path class="h" d="M71.934,17.059c39.51-26,96.946-21.844,131.136,9.491,27.506,25.208,41.532,65.528,76.563,79.636,29.557,11.9,63.192.641,95.079-4.061,45.082-6.649,95.287,2.3,125.423,34.9C531.619,171.08,603.747,277.551,707.693,277.9c29.931.1-78.846-.339-47.9.171s62.4-2.423,92.494,4.191c44.836,9.855,83.515,41.907,100.46,83.249C614.966,430.9,367.965,454,122.569,476.817c-8.5.791-17.526,1.5-25.1-2.192-6.354-3.092-10.786-8.86-14.722-14.593-28.1-40.927-42.4-89.256-54.9-137.077-21.59-82.619-39-169.521-19.135-253.163,5-21.045,13.41-43.074,31.734-55.5" transform="translate(1161.315 832.869) rotate(-31)"/><g transform="translate(1647.789 686.58) rotate(39)"><g transform="translate(0 0)"><path class="k" d="M40.016,6.641c-1.658-2.45-3.566-5-6.093-6.384a2.149,2.149,0,0,0-3.055,1.216,9.2,9.2,0,0,0-.432,2.254,3.8,3.8,0,0,0-3.153-.119A1.832,1.832,0,0,0,26.6,6.331c-1.37-.909-3.29.629-3.367,2.272s.99,3.1,2.029,4.369c4.76,5.835,10.218,11.466,12.465,18.654-4.566-5.408-9.473-10.516-14.375-15.62a29.791,29.791,0,0,0-6.889-5.832,1.576,1.576,0,0,0-2.323,1.3,6.4,6.4,0,0,0,.126,1.583,2.139,2.139,0,0,0-3.549,2.369,2.538,2.538,0,0,0-2.494,1.226,5.144,5.144,0,0,1-.7,1.243,6.354,6.354,0,0,1-1.215.685,2.87,2.87,0,0,0-.847,3.486A7.989,7.989,0,0,0,7.975,25,111.659,111.659,0,0,0,29.883,39.219a67.679,67.679,0,0,1-19.715-9.035c-1.651-1.107-3.338-2.322-5.306-2.593a1.992,1.992,0,0,0-.044,2.385c-.575-.534-1.424.234-1.817.913L.508,35.2a3.16,3.16,0,0,0-.5,1.25,3.14,3.14,0,0,0,1.334,2.37,38.248,38.248,0,0,0,13.724,8.625c10.272,3.384,22.593-.189,29.06-8.857C51.7,28.426,46.277,15.889,40.016,6.641Z" transform="translate(0 0)"/><g transform="translate(4.05 7.254)"><path class="p" d="M0,0C3.278,3.983,5.3,8.837,7.036,13.694c.706,1.974,1.37,4.179.563,6.114" transform="translate(33.348 0)"/><path class="p" d="M0,0A32.993,32.993,0,0,1,3.237,11.023" transform="translate(35.452 13.188)"/><path class="p" d="M0,0A31.845,31.845,0,0,1,4.924,10.259" transform="translate(27.334 6.906)"/><path class="p" d="M0,0A31.308,31.308,0,0,1,4.634,6.449" transform="translate(27.922 1.064)"/><path class="p" d="M0,0A27.977,27.977,0,0,1,1.673,5.637" transform="translate(34.023 20.541)"/><path class="p" d="M0,0A73.335,73.335,0,0,1,8.1,8.134" transform="translate(20.281 13.242)"/><path class="p" d="M0,0Q7.274,5.9,14.859,11.394" transform="translate(20.594 18.863)"/><path class="p" d="M0,0,5.653,2.72" transform="translate(27.486 29.857)"/><path class="p" d="M0,0A51.64,51.64,0,0,0,4.4,3.245" transform="translate(17.448 22.74)"/><path class="p" d="M0,0,4.614,3.6" transform="translate(10.211 13.147)"/><path class="p" d="M0,0A35.855,35.855,0,0,0,6.571,4.908" transform="translate(6.391 14.397)"/><path class="p" d="M0,0Q3.5,2.4,6.759,5.136" transform="translate(12.248 9.575)"/><path class="p" d="M0,0,1.631.99c.98.595,1.961,1.191,2.988,1.7A20.34,20.34,0,0,0,10.738,4.6" transform="translate(4.353 27.622)"/><path class="p" d="M0,0A66.929,66.929,0,0,0,13.991,3.171" transform="translate(7.645 35.449)"/><path class="p" d="M0,0A19.56,19.56,0,0,0,7.459.85" transform="translate(17.771 34.847)"/><path class="p" d="M0,1.5A11.841,11.841,0,0,0,5.755,0" transform="translate(25.742 36.619)"/><path class="p" d="M1.042,0A9.335,9.335,0,0,1,0,3.758" transform="translate(39.849 24.078)"/><path class="p" d="M0,0A8.112,8.112,0,0,0,3.444,1.9" transform="translate(0 29.419)"/></g></g><path class="m" d="M7.078.5C8.149-.053,9.356,5.8,9.909,6.872A9.273,9.273,0,0,1,13.1.269.854.854,0,0,1,13.67,0c.408.024.564.546.573.955.046,2.161-.966,4.187-1.954,6.109l3.6-5.023A3.722,3.722,0,0,1,16.867.995a1.266,1.266,0,0,1,1.36-.057c.635.443.479,1.42.174,2.132C17.014,6.306,14.115,8.6,11.986,11.4c-1.37,1.8-2.43,3.834-3.88,5.572A31.5,31.5,0,0,1,5.879,19.3a2.908,2.908,0,0,1-1.1.778A1,1,0,0,1,3.6,19.688a10.431,10.431,0,0,1,2.593-3.5,6.615,6.615,0,0,1-4.023,2.852,1.888,1.888,0,0,1-1.926-.383,1.469,1.469,0,0,1,.061-1.7A4.313,4.313,0,0,1,1.7,15.821l5.237-3.187a8.816,8.816,0,0,1-2.974.525A2.572,2.572,0,0,1,2.12,12.6,1.1,1.1,0,0,1,2.2,10.912a1.639,1.639,0,0,1,1.071-.031c.684.135,2.783.369,3.467.5-.885-.677-3.184-1.452-4.069-2.129a2.1,2.1,0,0,1-.918-1.138c-.307-1.549,1.778-1.608,2.692-1.24.647.26,3.61,2.176,3.61,2.176C7.816,9.4,4.842,1.642,7.078.5Z" transform="translate(31.405 29.791)"/><path class="q" d="M0,0A148.428,148.428,0,0,0,63.417,38.249" transform="translate(39.805 39.694)"/></g><path class="o" d="M84.56,579.145q13.345-18.97,26.688-37.94c13-18.479,26.084-37.066,41.046-51.65,28.876-28.148,63.691-40.057,97.922-39.6S318.231,462.7,350.559,479.94c37.942,20.234,76.947,51.234,94.536,106.539-129.212,12.4-258.663,24.447-388.062,18.1" transform="translate(1154.229 392.793) rotate(-1)"/><g transform="translate(381.131 794.324) rotate(4)"><g transform="translate(8.158 69.941)"><path class="r" d="M83.935,38.98c13.425-10.774,27.9-20.15,42.354-29.5,4.732-3.064,9.522-6.156,14.848-8C148.444-1.058,157.6-.645,162.65,5.215c3.3,3.831,4.187,9.351,3.144,14.3s-3.817,9.382-7.109,13.22c-5.6,6.53-12.724,11.554-19.879,16.334Q116.8,63.774,93.421,76.28c-11.54,6.174-23.414,11.969-36.1,15.181-15.476,3.917-31.642,3.866-47.606,3.791C6.192,95.236,2.154,94.979,0,92.19c.162.211,16.533-5.408,18.434-5.845a43.849,43.849,0,0,0,13.12-5.49c12.288-7.334,23.166-16.73,33.9-26.118C71.552,49.409,77.621,44.047,83.935,38.98Z"/><path class="s" d="M148.511,0,129.547,11.719c-13.431,8.3-26.87,16.605-39.857,25.587-13.766,9.522-27.063,19.827-41.779,27.8S16.72,78.7,0,77.909" transform="translate(5.373 16.619)"/><path class="s" d="M10.065,0c-.813,1.953-2.359,3.488-3.7,5.119A30.122,30.122,0,0,0,0,18.824c7.222.541,14.428-.925,21.522-2.384" transform="translate(131.207 12.199)"/><path class="s" d="M10.066,0c-.813,1.953-2.36,3.487-3.705,5.119A30.137,30.137,0,0,0,0,18.823c7.223.541,14.428-.925,21.522-2.384" transform="translate(112.548 23.266)"/><path class="s" d="M10.065,0c-.813,1.953-2.359,3.487-3.7,5.119A30.117,30.117,0,0,0,0,18.824c7.222.541,14.428-.926,21.522-2.385" transform="translate(93.917 36.027)"/><path class="s" d="M10.066,0c-.813,1.953-2.36,3.487-3.705,5.119A30.135,30.135,0,0,0,0,18.824c7.223.54,14.428-.926,21.522-2.384" transform="translate(75.822 47.868)"/><path class="t" d="M10,0c-.808,1.94-2.344,3.463-3.68,5.085A29.915,29.915,0,0,0,0,18.7c7.173.538,14.329-.919,21.376-2.367" transform="translate(58.451 60.363)"/><path class="u" d="M9.256,0A15.939,15.939,0,0,1,6.03,3.377,22.259,22.259,0,0,0,0,12.775c5.234,1.12,10.658.767,16,.41" transform="translate(41.189 74.613)"/></g><g transform="translate(0 0)"><path class="v" d="M70.256,70.5c10.329-17.153,22.369-33.2,34.387-49.219,3.934-5.244,7.922-10.544,12.994-14.7,6.961-5.7,17.122-8.926,24.988-4.557,5.142,2.856,8.326,8.527,9.176,14.347s-.4,11.775-2.451,17.287c-3.493,9.379-9.25,17.723-15.141,25.815q-18.119,24.893-38.614,47.935c-10.118,11.373-20.752,22.469-33.313,31.071-15.321,10.492-32.988,16.929-50.445,23.26-3.853,1.4-8.365,2.738-11.835.559.262.164,15.875-12.544,17.776-13.784a51.043,51.043,0,0,0,12.117-11.262c10.469-12.943,18.569-27.568,26.521-42.13C60.926,86.861,65.4,78.571,70.256,70.5Z"/><path class="w" d="M130.831,0,114.836,20.409C103.507,34.865,92.172,49.329,81.6,64.349,70.4,80.273,60.023,96.863,47.161,111.48S18.571,138.848,0,144.7" transform="translate(6.804 17.998)"/><path class="w" d="M3.943,0c-.1,2.458-1.175,4.754-1.988,7.076A35.035,35.035,0,0,0,.514,24.591c8.1-2.31,15.379-6.8,22.538-11.247" transform="translate(118.15 18.239)"/><path class="w" d="M3.943,0c-.1,2.458-1.176,4.754-1.989,7.076A35.046,35.046,0,0,0,.514,24.591c8.1-2.31,15.378-6.8,22.538-11.247" transform="translate(102.227 37.813)"/><path class="w" d="M3.943,0c-.1,2.459-1.176,4.755-1.989,7.077A35.045,35.045,0,0,0,.514,24.592c8.1-2.31,15.378-6.8,22.538-11.247" transform="translate(87.013 59.227)"/><path class="w" d="M3.943,0c-.1,2.458-1.175,4.754-1.989,7.076A35.046,35.046,0,0,0,.514,24.591c8.1-2.31,15.379-6.8,22.538-11.246" transform="translate(72.016 79.421)"/><path class="x" d="M3.916,0c-.1,2.442-1.168,4.722-1.975,7.029a34.794,34.794,0,0,0-1.429,17.4c8.046-2.294,15.274-6.758,22.384-11.169" transform="translate(58.023 100.066)"/><path class="y" d="M4.991,0A18.581,18.581,0,0,1,2.826,4.982,25.9,25.9,0,0,0,.017,17.664c6.164-.88,11.943-3.442,17.629-5.978" transform="translate(43.017 122.853)"/></g></g><g transform="translate(2128.881 517.278) rotate(138)"><g transform="translate(651.518 194.211)"><path class="k" d="M673.962,232.184a10.853,10.853,0,0,1-3.457,3.576,1.212,1.212,0,0,1-1.718-.7,5.22,5.22,0,0,1-.235-1.272,2.143,2.143,0,0,1-1.777.055,1.032,1.032,0,0,1-.372-1.536c-.775.507-1.852-.367-1.889-1.293a3.857,3.857,0,0,1,1.159-2.455c2.7-3.271,5.8-6.425,7.093-10.468-2.593,3.031-5.377,5.893-8.158,8.751a16.772,16.772,0,0,1-3.9,3.262.888.888,0,0,1-1.3-.74,3.627,3.627,0,0,1,.077-.892,1.205,1.205,0,0,1-1.992-1.348,1.431,1.431,0,0,1-1.4-.7,2.9,2.9,0,0,0-.391-.7,3.561,3.561,0,0,0-.682-.39,1.619,1.619,0,0,1-.465-1.968,4.5,4.5,0,0,1,1.426-1.644,62.914,62.914,0,0,1,12.4-7.936,38.147,38.147,0,0,0-11.144,5.021,7.446,7.446,0,0,1-3,1.443,1.123,1.123,0,0,1-.016-1.344c-.326.3-.8-.137-1.021-.521l-1.39-2.438a1.344,1.344,0,0,1,.483-2.037,21.557,21.557,0,0,1,7.766-4.811,15.054,15.054,0,0,1,16.346,5.1C680.629,219.948,677.524,226.995,673.962,232.184Z" transform="translate(-651.518 -208.416)"/><g transform="translate(2.283 1.606)"><path class="z" d="M690.89,242.6a25.363,25.363,0,0,0,4.015-7.692,4.864,4.864,0,0,0,.339-3.444" transform="translate(-672.202 -220.794)"/><path class="z" d="M693.206,232.992a18.6,18.6,0,0,0,1.864-6.2" transform="translate(-673.284 -218.609)"/><path class="z" d="M684.573,239.967a17.946,17.946,0,0,0,2.812-5.764" transform="translate(-669.25 -222.073)"/><path class="z" d="M685.156,248.036a17.614,17.614,0,0,0,2.635-3.618" transform="translate(-669.522 -226.847)"/><path class="z" d="M691.743,227.861a15.765,15.765,0,0,0,.964-3.171" transform="translate(-672.6 -217.627)"/><path class="z" d="M677.153,234.276a41.333,41.333,0,0,0,4.592-4.555" transform="translate(-665.782 -219.979)"/><path class="z" d="M677.523,226.74q4.121-3.3,8.416-6.368" transform="translate(-665.955 -215.609)"/><path class="z" d="M684.89,219.415l3.2-1.512" transform="translate(-669.398 -214.455)"/><path class="z" d="M674.22,226.614a29.276,29.276,0,0,1,2.492-1.813" transform="translate(-664.411 -217.679)"/><path class="z" d="M666.5,236.541l2.614-2.011" transform="translate(-660.802 -222.226)"/><path class="z" d="M662.464,234.551a20.194,20.194,0,0,1,3.721-2.742" transform="translate(-658.917 -220.954)"/><path class="z" d="M668.629,239.58q1.981-1.341,3.828-2.87" transform="translate(-661.798 -223.245)"/><path class="z" d="M660.4,220.71l.923-.552c.554-.331,1.11-.664,1.691-.947a11.461,11.461,0,0,1,3.456-1.054" transform="translate(-657.951 -214.574)"/><path class="z" d="M663.933,213.166a37.763,37.763,0,0,1,7.9-1.736" transform="translate(-659.603 -211.43)"/><path class="z" d="M674.644,214.963a11.034,11.034,0,0,1,4.207-.452" transform="translate(-664.609 -212.851)"/><path class="z" d="M683.1,211.986a6.669,6.669,0,0,1,3.238.867" transform="translate(-668.561 -211.69)"/><path class="z" d="M698.531,225.085a5.272,5.272,0,0,0-.574-2.122" transform="translate(-675.505 -216.82)"/><path class="z" d="M655.8,220.09a4.57,4.57,0,0,1,1.948-1.059" transform="translate(-655.804 -214.982)"/></g></g><path class="m" d="M688.75,218.289c.6.313,1.3-2.983,1.619-3.583a5.227,5.227,0,0,0,1.775,3.732.479.479,0,0,0,.32.153c.23-.012.32-.305.326-.536a7.431,7.431,0,0,0-1.079-3.45l2.01,2.844a2.1,2.1,0,0,0,.548.593.713.713,0,0,0,.766.037c.36-.247.275-.8.106-1.2-.77-1.829-2.4-3.132-3.586-4.72-.766-1.021-1.356-2.169-2.167-3.154a17.67,17.67,0,0,0-1.246-1.32,1.635,1.635,0,0,0-.615-.443.56.56,0,0,0-.668.218,5.884,5.884,0,0,0,1.448,1.979,3.724,3.724,0,0,0-2.257-1.622,1.064,1.064,0,0,0-1.087.209.828.828,0,0,0,.028.956,2.427,2.427,0,0,0,.781.65l2.94,1.815a4.99,4.99,0,0,0-1.674-.307,1.452,1.452,0,0,0-1.04.307.619.619,0,0,0,.041.953.923.923,0,0,0,.6.022c.386-.074,1.57-.2,1.956-.272-.5.378-1.8.807-2.3,1.185a1.183,1.183,0,0,0-.522.638c-.179.872,1,.913,1.513.709.365-.144,2.042-1.213,2.042-1.213C689.2,213.273,687.494,217.635,688.75,218.289Z" transform="translate(-15.565 -13.642)"/><path class="aa" d="M693.657,199.35a83.66,83.66,0,0,1,35.879-21.328" transform="translate(-19.694)"/></g><g transform="translate(1873.347 614.937)"><path class="ab" d="M-36.266,298.767c4.045-14.774,11.507-28.366,19.416-41.483,6.373-10.57,13.148-21.022,21.82-29.806A180.967,180.967,0,0,1,22.726,212.35q5.282-4.124,10.566-8.245c.816,23.4,7.316,46.725,4.287,69.941-1.4,10.733-4.809,21.093-8.365,31.318-7.534,21.665-16.57,44.143-34.523,58.421C-7.856,365.81-10.7,367.7-13.93,368.1a20.625,20.625,0,0,1-4.839-.176,35.531,35.531,0,0,1-8.606-1.724c-9.91-3.765-12.975-15.221-12.956-24.779C-40.3,327.012-40.1,312.77-36.266,298.767Z" transform="translate(40.331 -204.105)"/><path class="ac" d="M33.647,209.8Q11.394,264.747-9.372,320.277c-5.88,15.723-11.711,31.65-13.8,48.305C-18.555,360.212-12.1,353-7.106,344.85A119.869,119.869,0,0,0-.23,331.529c8.751-19.356,14.972-39.739,21.169-60.057,6.384-20.935,9.508-40.019,12.708-61.671-2.086,4.656,6.637,42.807-12.763,98.467-2.829,8.117-5.352,16.4-9.511,23.918C3.514,346.4-8.389,361.847-23.17,368.582" transform="translate(38.114 -204.841)"/><path class="ac" d="M-19.019,315.005c-3.061,8.627-6.8,17.084-8.344,26.107s-1.1,18.64,2.96,26.845c-7.126-12.853-10.517-28.089-7.652-42.5,1.506-7.573,4.694-40.747,43.427-97.612,4.629-6.8,12.6-11.056,19.034-16.149C30.813,218.1,5.559,245.749-19.019,315.005Z" transform="translate(39.393 -205.085)"/></g><g transform="translate(1506.693 942.692) rotate(-166)"><g transform="translate(7.372 0)"><path class="r" d="M75.846,50.867c12.131,9.736,25.215,18.208,38.272,26.66,4.276,2.768,8.6,5.562,13.417,7.23,6.6,2.288,14.877,1.915,19.44-3.38,2.983-3.462,3.783-8.449,2.841-12.921a27.492,27.492,0,0,0-6.424-11.946c-5.062-5.9-11.5-10.44-17.963-14.76q-19.887-13.288-41.01-24.589C73.99,11.582,63.261,6.345,51.8,3.443,37.812-.1,23.2-.05,8.779.017,5.6.032,1.946.265,0,2.784c.147-.19,14.939,4.887,16.657,5.281a39.623,39.623,0,0,1,11.855,4.961c11.1,6.627,20.933,15.118,30.636,23.6C64.656,41.442,70.14,46.288,75.846,50.867Z"/><path class="s" d="M134.2,70.468,117.062,59.878c-12.137-7.5-24.281-15.005-36.016-23.121-12.439-8.6-24.454-17.916-37.753-25.122S15.109-.649,0,.067" transform="translate(4.855 0.605)"/><path class="s" d="M9.1,17.114a19.5,19.5,0,0,0-3.347-4.626A27.219,27.219,0,0,1,0,.1C6.526-.385,13.037.94,19.448,2.258" transform="translate(118.562 57.953)"/><path class="s" d="M9.1,17.113a19.544,19.544,0,0,0-3.348-4.626A27.233,27.233,0,0,1,0,.1C6.527-.385,13.037.94,19.448,2.258" transform="translate(101.701 47.953)"/><path class="s" d="M9.1,17.114a19.537,19.537,0,0,0-3.347-4.626A27.214,27.214,0,0,1,0,.1C6.526-.385,13.037.94,19.448,2.258" transform="translate(84.866 36.421)"/><path class="s" d="M9.1,17.114a19.525,19.525,0,0,0-3.348-4.626A27.231,27.231,0,0,1,0,.1C6.527-.385,13.037.941,19.448,2.258" transform="translate(68.515 25.721)"/><path class="t" d="M9.033,17A19.4,19.4,0,0,0,5.708,12.4,27.031,27.031,0,0,1,0,.1c6.482-.486,12.948.83,19.315,2.139" transform="translate(52.818 14.547)"/><path class="u" d="M8.364,12.23A14.4,14.4,0,0,0,5.449,9.178,20.114,20.114,0,0,1,0,.686C4.73-.326,9.631-.007,14.456.316" transform="translate(37.219 6.437)"/></g><g transform="translate(0 1.592)"><path class="v" d="M63.485,83.99c9.333,15.5,20.213,30,31.073,44.476,3.555,4.739,7.159,9.528,11.742,13.281,6.29,5.15,15.472,8.066,22.58,4.118,4.646-2.581,7.524-7.7,8.291-12.964s-.36-10.64-2.215-15.621c-3.156-8.475-8.359-16.015-13.681-23.327Q104.9,71.459,86.381,50.638c-9.143-10.277-18.752-20.3-30.1-28.076C42.434,13.081,26.469,7.264,10.695,1.544,7.213.282,3.136-.931,0,1.039.236.89,14.345,12.373,16.063,13.494A46.124,46.124,0,0,1,27.012,23.671c9.46,11.7,16.779,24.912,23.965,38.07C55.054,69.208,59.1,76.7,63.485,83.99Z"/><path class="w" d="M118.222,130.752l-14.453-18.442c-10.238-13.063-20.48-26.132-30.03-39.7-10.125-14.389-19.5-29.38-31.123-42.589S16.781,5.286,0,0" transform="translate(6.148 0.683)"/><path class="w" d="M3.563,22.221C3.47,20,2.5,17.926,1.766,15.827A31.659,31.659,0,0,1,.465,0c7.321,2.087,13.9,6.149,20.366,10.163" transform="translate(106.763 108.996)"/><path class="w" d="M3.563,22.221c-.094-2.222-1.063-4.3-1.8-6.394A31.669,31.669,0,0,1,.465,0c7.321,2.087,13.9,6.149,20.366,10.163" transform="translate(92.374 91.308)"/><path class="w" d="M3.563,22.222c-.094-2.222-1.063-4.3-1.8-6.4A31.668,31.668,0,0,1,.465,0c7.321,2.087,13.9,6.149,20.366,10.163" transform="translate(78.627 71.957)"/><path class="w" d="M3.563,22.221C3.47,20,2.5,17.926,1.765,15.827A31.669,31.669,0,0,1,.465,0c7.321,2.087,13.9,6.149,20.366,10.163" transform="translate(65.075 53.71)"/><path class="x" d="M3.538,22.071c-.093-2.207-1.055-4.267-1.785-6.351A31.441,31.441,0,0,1,.462,0c7.271,2.073,13.8,6.107,20.226,10.093" transform="translate(52.431 35.206)"/><path class="y" d="M4.51,15.961a16.79,16.79,0,0,0-1.956-4.5A23.407,23.407,0,0,1,.016,0c5.57.795,10.792,3.11,15.93,5.4" transform="translate(38.871 20.724)"/></g></g><g transform="translate(-18.467 617.508)"><g transform="translate(7.277)"><path class="ab" d="M-36.9,284.1c3.418-12.485,9.724-23.972,16.408-35.058,5.386-8.932,11.111-17.766,18.44-25.189a152.933,152.933,0,0,1,15.006-12.784l8.929-6.968c.69,19.773,6.183,39.488,3.623,59.107-1.184,9.071-4.064,17.826-7.069,26.467-6.367,18.309-14,37.305-29.176,49.372-2.153,1.712-4.555,3.31-7.285,3.643a17.431,17.431,0,0,1-4.089-.149,30.026,30.026,0,0,1-7.273-1.457c-8.375-3.182-10.965-12.864-10.95-20.941C-40.307,307.974-40.135,295.938-36.9,284.1Z" transform="translate(40.331 -204.105)"/><path class="ac" d="M24.846,209.8Q6.04,256.236-11.509,303.165c-4.969,13.287-9.9,26.747-11.661,40.823,3.9-7.073,9.355-13.17,13.576-20.056a101.3,101.3,0,0,0,5.811-11.258c7.4-16.358,12.653-33.584,17.89-50.755,5.395-17.692,8.035-33.82,10.74-52.118-1.763,3.935,5.609,36.176-10.786,83.215-2.391,6.86-4.523,13.856-8.038,20.213-6.642,12.014-16.7,25.066-29.193,30.759" transform="translate(35.799 -205.609)"/><path class="ac" d="M-21.2,299c-2.587,7.291-5.746,14.438-7.051,22.063s-.929,15.753,2.5,22.686c-6.023-10.862-8.888-23.738-6.466-35.919,1.272-6.4,3.967-34.435,36.7-82.493C8.4,219.6,15.139,216,20.573,211.693,20.918,217.1-.425,240.474-21.2,299Z" transform="translate(38.414 -206.109)"/></g><g transform="translate(0 32.694)"><path class="ad" d="M-22.4,377.021c10.983-15.746,25.5-28.66,40.356-40.826,11.967-9.8,24.36-19.3,38.291-26.027,8.782-4.241,18.067-7.328,27.322-10.4l15.942-5.3c-8.868,27.971-10.994,58.249-24.326,84.388-6.165,12.086-14.542,22.887-23.036,33.466-18,22.417-38.115,45.162-65.313,54.48-3.86,1.322-8.01,2.36-11.992,1.467a25.829,25.829,0,0,1-5.64-2.241,44.536,44.536,0,0,1-9.437-5.651c-10.12-8.611-8.925-23.425-4.887-34.7C-39.036,408.677-32.81,391.945-22.4,377.021Z" transform="translate(48.079 -294.469)"/><path class="ae" d="M97.556,300.789Q48.194,356.318.34,413.165c-13.549,16.095-27.127,32.451-36.591,51.242,8.967-7.944,19.619-13.75,28.941-21.274a150.295,150.295,0,0,0,13.716-12.84c18.466-19.178,34.377-40.633,50.231-62.021,16.336-22.037,28.043-43.259,40.919-67.481-4.42,4.621-10.149,53.335-56.445,110.909-6.751,8.4-13.207,17.111-21.279,24.246-15.253,13.483-35.8,26.72-56.082,28.462" transform="translate(45.749 -295.714)"/><path class="ae" d="M-7.421,403.41c-7.24,8.9-15.208,17.316-20.822,27.321s-9.131,21.549-7.785,32.942c-3.015-18.172-.618-37.587,8.824-53.4,4.96-8.31,22.664-46.142,92.294-97.015,8.321-6.08,19.528-7.76,29.261-11.07C92.141,309.915,50.7,331.958-7.421,403.41Z" transform="translate(45.947 -295.989)"/></g></g><g transform="matrix(0.819, -0.574, 0.574, 0.819, 1728.007, 697.453)"><g transform="matrix(0.966, -0.259, 0.259, 0.966, 0, 39.098)"><path class="ad" d="M26.283,84.495C37.525,68.378,52.389,55.16,67.589,42.708c12.249-10.034,24.933-19.754,39.192-26.639,8.989-4.341,18.493-7.5,27.965-10.647L151.064,0c-9.077,28.629-11.253,59.62-24.9,86.375-6.31,12.371-14.884,23.426-23.579,34.254-18.424,22.945-39.013,46.225-66.851,55.762-3.951,1.353-8.2,2.416-12.274,1.5a26.434,26.434,0,0,1-5.773-2.294,45.583,45.583,0,0,1-9.659-5.784c-10.358-8.814-9.135-23.976-5-35.521C9.256,116.9,15.628,99.77,26.283,84.495Z" transform="translate(0 0)"/><path class="ae" d="M136.957,0q-50.524,56.836-99.5,115.021C23.584,131.5,9.686,148.236,0,167.469c9.178-8.131,20.08-14.074,29.622-21.775a153.83,153.83,0,0,0,14.039-13.143c18.9-19.629,35.186-41.59,51.413-63.482C111.8,46.514,123.778,24.793,136.957,0c-4.524,4.73-10.388,54.591-57.774,113.52-6.91,8.593-13.518,17.514-21.78,24.817-15.612,13.8-36.641,27.349-57.4,29.132" transform="translate(9.722 5.195)"/><path class="ae" d="M30.536,103.608c-7.41,9.109-15.566,17.724-21.313,27.964S-.123,153.629,1.255,165.29c-3.086-18.6-.632-38.472,9.031-54.661,5.077-8.506,23.2-47.228,94.466-99.3C113.27,5.108,124.741,3.388,134.7,0,132.441,7.912,90.025,30.474,30.536,103.608Z" transform="translate(8.897 6.342)"/></g></g><g transform="matrix(0.995, 0.105, -0.105, 0.995, 317.689, 862.673)"><g transform="translate(30.81 0)"><path class="af" d="M14,14.741a11.648,11.648,0,0,0,2.232-8.775A3.321,3.321,0,0,0,14.546,3.35c-1.122-.459-2.365.184-3.405.807A4.346,4.346,0,0,0,8.75.427a5.369,5.369,0,0,0-5.873,1.23A9.743,9.743,0,0,0,.3,7.381C-.269,11.49-.221,16.1,2.14,19.515c.633.915,2.195,2.329,6.376.082A16.333,16.333,0,0,0,14,14.741Z" transform="translate(0.439 0)"/><path class="ag" d="M10.917,0A63.049,63.049,0,0,1,8.3,6.849C6.471,10.9,3.989,14.972,0,16.924" transform="translate(0 4.794)"/><path class="ah" d="M5.855,3.14,1.4,5.15c-.083.037-.192.07-.254,0A.223.223,0,0,1,1.1,5.046L0,0" transform="translate(7.531 5.266)"/><path class="ah" d="M0,0C.442,3.529.909,7.143,2.543,10.3A17.274,17.274,0,0,0,8.824,7.59" transform="translate(4.617 4.049)"/><path class="ah" d="M6.9,4.52,1.371,5.61A32.983,32.983,0,0,1,0,0" transform="translate(3.891 11.911)"/></g><g transform="translate(29.911 17.974)"><path class="ai" d="M10.435,0A14.894,14.894,0,0,1,7.613,8.917,14.892,14.892,0,0,1,0,14.35a13.261,13.261,0,0,0,8.322-.821,20.4,20.4,0,0,0,6.82-4.984" transform="translate(0 1.978)"/><path class="ai" d="M0,6.625A6.414,6.414,0,0,0,.852,0" transform="translate(4.442 7.445)"/><path class="ai" d="M0,5.517A5.987,5.987,0,0,0,1.857,3.826l1.5-1.813A4.858,4.858,0,0,0,4.528,0" transform="translate(8.681 3.563)"/><path class="ai" d="M0,1.122a7.324,7.324,0,0,0,1.354.342,6.48,6.48,0,0,0,1.983-.148A28.257,28.257,0,0,0,8,0" transform="translate(7.663 14.823)"/><path class="aj" d="M2.987,1.008A1.541,1.541,0,1,1,1.008.1,1.541,1.541,0,0,1,2.987,1.008Z" transform="translate(3.504 5.031)"/><path class="aj" d="M2.987,1.008A1.541,1.541,0,1,1,1.008.1,1.541,1.541,0,0,1,2.987,1.008Z" transform="translate(8.539 0)"/><path class="aj" d="M2.987,1.008A1.541,1.541,0,1,1,1.008.1,1.541,1.541,0,0,1,2.987,1.008Z" transform="translate(11.833 2.47)"/><path class="aj" d="M2.987,1.008A1.541,1.541,0,1,1,1.008.1,1.541,1.541,0,0,1,2.987,1.008Z" transform="translate(13.473 8.633)"/><path class="aj" d="M2.987,1.008A1.541,1.541,0,1,1,1.008.1,1.541,1.541,0,0,1,2.987,1.008Z" transform="translate(14.963 12.972)"/></g><path class="ak" d="M26.877,0A91.053,91.053,0,0,1,14.032,53C10.384,59.027,5.914,64.731,0,68.559" transform="translate(3.549 16.209)"/><g transform="translate(14.888 9.019)"><path class="al" d="M3.384,12.892A9.3,9.3,0,0,1,.007,6.5,2.65,2.65,0,0,1,.822,4.158a3.2,3.2,0,0,1,2.793-.013A3.469,3.469,0,0,1,4.769.8,4.284,4.284,0,0,1,9.556.657a7.774,7.774,0,0,1,3.07,3.957c1.215,3.08,2.043,6.668.852,9.757-.32.828-1.266,2.218-4.931,1.26A13.037,13.037,0,0,1,3.384,12.892Z" transform="translate(0 0)"/><path class="am" d="M0,0A50.261,50.261,0,0,0,3.317,4.822c2.176,2.8,4.865,5.493,8.326,6.259" transform="translate(4.248 4.515)"/><path class="an" d="M0,3.534l3.831.724c.071.014.162.019.2-.044a.176.176,0,0,0,.015-.092L3.953,0" transform="translate(3.011 4.246)"/><path class="an" d="M5.421,0a24.232,24.232,0,0,1-.04,8.469A13.782,13.782,0,0,1,0,7.543" transform="translate(3.574 2.756)"/><path class="an" d="M0,4.8l4.492-.19A26.322,26.322,0,0,0,4.5,0" transform="translate(6.53 8.719)"/></g><g transform="translate(0 46.012)"><path class="al" d="M1.85,15.3A12.813,12.813,0,0,1,.45,5.442,3.653,3.653,0,0,1,2.6,2.78c1.282-.369,2.565.482,3.628,1.286A4.781,4.781,0,0,1,9.285.27a5.906,5.906,0,0,1,6.278,2.042A10.717,10.717,0,0,1,17.7,8.877c.139,4.562-.461,9.6-3.447,13.053-.8.926-2.676,2.287-6.983-.666A17.971,17.971,0,0,1,1.85,15.3Z" transform="translate(0 0)"/><path class="ao" d="M0,0A69.335,69.335,0,0,0,2.053,7.8C3.57,12.446,5.8,17.2,9.933,19.8" transform="translate(6.878 4.841)"/><path class="ap" d="M0,2.74,4.631,5.466c.086.051.2.1.278.034a.242.242,0,0,0,.062-.113L6.776,0" transform="translate(3.751 5.759)"/><path class="ap" d="M10.55,0c-.9,3.807-1.841,7.7-4,10.966A19,19,0,0,1,0,7.255" transform="translate(3.306 4.774)"/><path class="ap" d="M0,4.126,5.915,5.974A36.289,36.289,0,0,0,8.08,0" transform="translate(5.638 13.458)"/></g><g transform="translate(6.213 17.454)"><path class="af" d="M8.192,17.172A11.651,11.651,0,0,1,.693,12.1,3.321,3.321,0,0,1,.212,9.025C.746,7.936,2.1,7.591,3.293,7.365A4.347,4.347,0,0,1,2.6,2.989,5.369,5.369,0,0,1,7.807.005a9.742,9.742,0,0,1,5.727,2.568c3.158,2.69,6.188,6.17,6.691,10.288.135,1.1-.092,3.2-4.71,4.3A16.336,16.336,0,0,1,8.192,17.172Z" transform="translate(0 0)"/><path class="ag" d="M0,0A62.971,62.971,0,0,0,6.509,3.378c4.055,1.812,8.617,3.207,12.9,2.015" transform="translate(4.212 7.4)"/><path class="ah" d="M0,6.237,4.663,4.78c.087-.027.19-.075.193-.166A.219.219,0,0,0,4.818,4.5L2.289,0" transform="translate(4.767 5.502)"/><path class="ah" d="M1.55,0C3.565,2.931,5.618,5.942,6.5,9.388A17.266,17.266,0,0,1,0,11.535" transform="translate(6.875 2.658)"/><path class="ah" d="M0,7.961,4.855,5.1A33,33,0,0,0,2.151,0" transform="translate(12.041 8.05)"/></g><g transform="translate(27.074 34.648)"><path class="al" d="M10.153,13.6a9.3,9.3,0,0,0,4.978-5.238,2.65,2.65,0,0,0-.15-2.477A3.2,3.2,0,0,0,12.3,5.121a3.469,3.469,0,0,0-.209-3.53A4.284,4.284,0,0,0,7.517.156,7.774,7.774,0,0,0,3.492,3.137C1.491,5.774-.276,9,.036,12.3c.084.884.619,2.478,4.407,2.545A13.034,13.034,0,0,0,10.153,13.6Z" transform="translate(2.619 0)"/><path class="am" d="M14.2,0a50.158,50.158,0,0,1-4.5,3.746C6.857,5.852,3.539,7.72,0,7.522" transform="translate(0 5.306)"/><path class="an" d="M4.066,4.471.182,4.133C.109,4.126.02,4.107,0,4.036a.178.178,0,0,1,.011-.093L1.215,0" transform="translate(10.447 4.313)"/><path class="an" d="M2.25,0A24.235,24.235,0,0,0,0,8.164a13.778,13.778,0,0,0,5.431.563" transform="translate(7.859 2.329)"/><path class="an" d="M4.273,5.838,0,4.441A26.315,26.315,0,0,1,1.235,0" transform="translate(5.301 7.519)"/></g><g transform="translate(9.913 72.294)"><path class="al" d="M8.858,13.433a9.3,9.3,0,0,0,6.671-2.777,2.65,2.65,0,0,0,.865-2.326c-.244-.936-1.25-1.422-2.145-1.788A3.468,3.468,0,0,0,15.486,3.23a4.284,4.284,0,0,0-3.6-3.161A7.776,7.776,0,0,0,7,1.166C4.1,2.768,1.181,5.007.133,8.148c-.281.842-.436,2.516,3,4.11A13.032,13.032,0,0,0,8.858,13.433Z" transform="translate(2.508 0)"/><path class="am" d="M16.033,0a50.257,50.257,0,0,1-5.627,1.607C6.946,2.38,3.156,2.745,0,1.133" transform="translate(0 6.423)"/><path class="an" d="M3.541,5.242.126,3.361C.062,3.326-.011,3.272,0,3.2A.175.175,0,0,1,.049,3.12L2.743,0" transform="translate(11.367 4.487)"/><path class="an" d="M5.36,0A24.229,24.229,0,0,0,0,6.556,13.78,13.78,0,0,0,4.739,9.268" transform="translate(8.131 2.045)"/><path class="an" d="M3.342,6.569,0,3.562A26.341,26.341,0,0,1,2.926,0" transform="translate(5.199 5.345)"/></g><g transform="translate(19.868 51.957)"><path class="af" d="M12.049,17.17a11.65,11.65,0,0,0,7.512-5.056,3.319,3.319,0,0,0,.489-3.071c-.53-1.09-1.886-1.439-3.076-1.668A4.346,4.346,0,0,0,17.677,3a5.369,5.369,0,0,0-5.2-3A9.741,9.741,0,0,0,6.745,2.557C3.579,5.239.541,8.711.027,12.827c-.138,1.1.084,3.2,4.7,4.311A16.334,16.334,0,0,0,12.049,17.17Z" transform="translate(3.364 0)"/><path class="ag" d="M19.418,0A62.978,62.978,0,0,1,12.9,3.361C8.841,5.162,4.275,6.545,0,5.342" transform="translate(0 7.409)"/><path class="ah" d="M4.852,6.243.192,4.774C.106,4.747,0,4.7,0,4.608A.218.218,0,0,1,.039,4.5L2.579,0" transform="translate(14 5.503)"/><path class="ah" d="M4.97,0C2.948,2.926.887,5.931,0,9.376a17.273,17.273,0,0,0,6.49,2.164" transform="translate(10.247 2.655)"/><path class="ah" d="M4.847,7.967,0,5.1A32.968,32.968,0,0,1,2.717,0" transform="translate(6.72 8.033)"/></g><g transform="translate(13.276 32.282)"><path class="aq" d="M7.812,0a13.405,13.405,0,0,0,.83,16.082,12.039,12.039,0,0,1-5.922-4.746A18.521,18.521,0,0,1,0,4.168" transform="translate(4.411 1.653)"/><path class="aq" d="M.033,5.461A5.821,5.821,0,0,1,2.666,0" transform="translate(10.758 8.357)"/><path class="aq" d="M.892,6.438A5.434,5.434,0,0,1,.318,4.233L.076,2.113A4.406,4.406,0,0,1,.18,0" transform="translate(9.147 1.485)"/><path class="aq" d="M5.528,4.814a6.645,6.645,0,0,1-1.2-.411A5.888,5.888,0,0,1,2.894,3.309,25.647,25.647,0,0,1,0,0" transform="translate(1.886 8.834)"/><path class="aj" d="M.563.277A1.4,1.4,0,1,0,2.52.563,1.4,1.4,0,0,0,.563.277Z" transform="translate(12.648 6.418)"/><path class="aj" d="M.563.277A1.4,1.4,0,1,0,2.52.563,1.4,1.4,0,0,0,.563.277Z" transform="translate(11.309 0.098)"/><circle class="aj" cx="1.398" cy="1.398" r="1.398" transform="translate(7.236 0.812) rotate(-16.879)"/><path class="aj" d="M.563.277A1.4,1.4,0,1,0,2.52.563,1.4,1.4,0,0,0,.563.277Z" transform="translate(3.282 4.221)"/><path class="aj" d="M.563.277A1.4,1.4,0,1,0,2.52.563,1.4,1.4,0,0,0,.563.277Z" transform="translate(0 6.783)"/></g></g><g transform="translate(90.509 856.437) rotate(-88)"><g transform="translate(52.848 109.799)"><path class="af" d="M24.009,10.4c3.117,4.314,4.8,9.821,3.828,15.053-.339,1.825-1.167,3.784-2.885,4.487-1.925.788-4.057-.315-5.841-1.384a7.455,7.455,0,0,1-4.1,6.4c-3.287,1.6-7.45.435-10.075-2.11s-3.91-6.2-4.414-9.818C-.461,15.974-.379,8.06,3.67,2.209,4.756.639,7.435-1.786,14.608,2.067A28.016,28.016,0,0,1,24.009,10.4Z" transform="translate(0.754 1.57)"/><path class="ag" d="M18.727,29.03a108.145,108.145,0,0,0-4.494-11.749C11.1,10.336,6.843,3.348,0,0" transform="translate(0 0)"/><path class="ah" d="M10.043,3.52,2.405.072c-.142-.064-.329-.12-.436-.008a.383.383,0,0,0-.078.186Q.946,4.578,0,8.907" transform="translate(12.917 19.314)"/><path class="ah" d="M0,17.672C.758,11.618,1.559,5.42,4.361,0A29.63,29.63,0,0,1,15.136,4.653" transform="translate(7.92 12.635)"/><path class="ah" d="M11.832,1.87,2.352,0A56.575,56.575,0,0,0,0,9.624" transform="translate(6.675 7.197)"/></g><g transform="translate(51.307 87.631)"><path class="ai" d="M17.9,25.2A25.549,25.549,0,0,0,13.058,9.9,25.544,25.544,0,0,0,0,.582,22.746,22.746,0,0,1,14.274,1.991a35,35,0,0,1,11.7,8.549" transform="translate(0 0)"/><path class="ai" d="M0,0A11,11,0,0,1,1.462,11.365" transform="translate(7.62 4.454)"/><path class="ai" d="M0,0A10.268,10.268,0,0,1,3.185,2.9L5.753,6.01A8.332,8.332,0,0,1,7.767,9.463" transform="translate(14.89 13.014)"/><path class="ai" d="M0,.634A12.564,12.564,0,0,1,2.323.048,11.114,11.114,0,0,1,5.725.3a48.473,48.473,0,0,1,8,2.256" transform="translate(13.145 0.606)"/><path class="aj" d="M5.124,3.558A2.643,2.643,0,1,0,1.73,5.124,2.643,2.643,0,0,0,5.124,3.558Z" transform="translate(6.01 14.672)"/><path class="aj" d="M5.124,3.558A2.643,2.643,0,1,0,1.73,5.123,2.643,2.643,0,0,0,5.124,3.558Z" transform="translate(14.648 23.302)"/><path class="aj" d="M5.123,3.558A2.643,2.643,0,1,0,1.729,5.123,2.643,2.643,0,0,0,5.123,3.558Z" transform="translate(20.296 19.066)"/><path class="aj" d="M5.124,3.558A2.643,2.643,0,1,0,1.73,5.124,2.643,2.643,0,0,0,5.124,3.558Z" transform="translate(23.11 8.494)"/><path class="aj" d="M5.123,3.557A2.643,2.643,0,1,0,1.729,5.123,2.642,2.642,0,0,0,5.123,3.557Z" transform="translate(25.666 1.052)"/></g><path class="ak" d="M46.1,117.6A156.185,156.185,0,0,0,24.069,26.688C17.812,16.35,10.145,6.565,0,0" transform="translate(6.088 1.649)"/><g transform="translate(25.538 104.212)"><path class="al" d="M5.8,5.255A15.948,15.948,0,0,0,.013,16.214c-.079,1.479.2,3.154,1.4,4.022,1.345.972,3.206.516,4.79.022A5.95,5.95,0,0,0,8.18,25.989c2.249,1.857,5.7,1.734,8.211.252a13.335,13.335,0,0,0,5.266-6.788c2.084-5.283,3.5-11.438,1.461-16.736C22.569,1.3,20.946-1.087,14.66.557A22.363,22.363,0,0,0,5.8,5.255Z" transform="translate(0 0)"/><path class="am" d="M0,19.007a86.218,86.218,0,0,1,5.689-8.271C9.421,5.936,14.034,1.314,19.971,0" transform="translate(7.287 0.616)"/><path class="an" d="M0,1.257,6.571.015c.122-.023.278-.032.339.076a.3.3,0,0,1,.026.158L6.78,7.318" transform="translate(5.165 12.766)"/><path class="an" d="M9.3,14.537C9.847,9.7,10.387,4.74,9.23.01A23.641,23.641,0,0,0,0,1.6" transform="translate(6.131 8.104)"/><path class="an" d="M0,0,7.7.327a45.149,45.149,0,0,1,.02,7.907" transform="translate(11.201 4.179)"/></g><g transform="translate(0 25.853)"><path class="al" d="M3.174,13.31C.277,18.4-.911,24.618.773,30.225c.587,1.956,1.725,4,3.687,4.565,2.2.633,4.4-.826,6.224-2.206A8.2,8.2,0,0,0,15.927,39.1c3.784,1.36,8.2-.408,10.768-3.5s3.541-7.241,3.663-11.261c.238-7.825-.79-16.47-5.912-22.389C23.072.355,19.855-1.98,12.467,3.086A30.825,30.825,0,0,0,3.174,13.31Z" transform="translate(0 2.714)"/><path class="ao" d="M0,33.969A118.933,118.933,0,0,1,3.522,20.587C6.124,12.62,9.951,4.473,17.038,0" transform="translate(11.798 0)"/><path class="ap" d="M0,4.789,7.944.113c.148-.087.346-.17.476-.059a.415.415,0,0,1,.106.194l3.1,9.242" transform="translate(6.433 22.905)"/><path class="ap" d="M18.1,18.81C16.55,12.279,14.939,5.594,11.231,0A32.586,32.586,0,0,0,0,6.366" transform="translate(5.671 15.275)"/><path class="ap" d="M0,3.17,10.146,0A62.246,62.246,0,0,1,13.86,10.247" transform="translate(9.671 8.941)"/></g><g transform="translate(10.657 86.955)"><path class="af" d="M14.052.7C8.857,1.854,3.94,4.851,1.189,9.407.23,11-.453,13.01.364,14.677c.915,1.867,3.242,2.46,5.285,2.847A7.456,7.456,0,0,0,4.461,25.03c1.393,3.379,5.279,5.276,8.932,5.118s7.04-2.033,9.823-4.4C28.632,21.13,33.83,15.161,34.692,8.1c.231-1.894-.158-5.486-8.079-7.373A28.021,28.021,0,0,0,14.052.7Z" transform="translate(0 0)"/><path class="ag" d="M0,10.011A108.013,108.013,0,0,1,11.166,4.217c6.955-3.109,14.78-5.5,22.119-3.456" transform="translate(7.224 7.453)"/><path class="ah" d="M0,0,8,2.5c.149.046.326.128.331.284a.376.376,0,0,1-.066.19L3.926,10.7" transform="translate(8.178 10.02)"/><path class="ah" d="M2.659,19.787c3.456-5.027,6.977-10.192,8.484-16.1A29.615,29.615,0,0,0,0,0" transform="translate(11.792 5.812)"/><path class="ah" d="M0,0,8.327,4.9A56.606,56.606,0,0,1,3.69,13.656" transform="translate(20.654 2.692)"/></g><g transform="translate(46.44 62.152)"><path class="al" d="M17.416,2.134a15.947,15.947,0,0,1,8.538,8.985c.476,1.4.664,3.09-.258,4.249-1.032,1.3-2.947,1.363-4.606,1.316a5.95,5.95,0,0,1-.359,6.054c-1.664,2.4-5.017,3.209-7.837,2.462a13.334,13.334,0,0,1-6.9-5.113C2.557,15.564-.474,10.023.062,4.369.205,2.852,1.123.119,7.621,0A22.357,22.357,0,0,1,17.416,2.134Z" transform="translate(4.493 0)"/><path class="am" d="M24.364,12.928A86.034,86.034,0,0,0,16.651,6.5C11.761,2.889,6.07-.314,0,.025" transform="translate(0 3.44)"/><path class="an" d="M6.974,0,.311.58C.188.591.035.624,0,.745A.305.305,0,0,0,.024.9l2.06,6.764" transform="translate(17.92 10.402)"/><path class="an" d="M3.859,15.079C2.025,10.569.164,5.941,0,1.075A23.635,23.635,0,0,1,9.316.11" transform="translate(13.48 6.394)"/><path class="an" d="M7.33,0,0,2.4a45.14,45.14,0,0,0,2.118,7.617" transform="translate(9.093 2.556)"/></g><g transform="translate(17.005 0)"><path class="al" d="M15.194,0A15.948,15.948,0,0,1,26.638,4.767c1,1.09,1.857,2.557,1.483,3.991-.418,1.606-2.143,2.439-3.68,3.067a5.949,5.949,0,0,1,2.122,5.681c-.552,2.865-3.29,4.965-6.171,5.422a13.338,13.338,0,0,1-8.382-1.882C7.039,18.3,2.026,14.456.228,9.069-.254,7.624-.52,4.753,5.375,2.018A22.354,22.354,0,0,1,15.194,0Z" transform="translate(4.303 0)"/><path class="am" d="M27.5,3.885a86.21,86.21,0,0,0-9.653-2.756C11.915-.2,5.414-.824,0,1.942" transform="translate(0 8.143)"/><path class="an" d="M6.074,0,.216,3.226c-.109.06-.235.153-.213.275a.3.3,0,0,0,.082.138L4.7,8.991" transform="translate(19.498 6.358)"/><path class="an" d="M9.195,15.9C5.692,12.515,2.118,9.035,0,4.652A23.638,23.638,0,0,1,8.129,0" transform="translate(13.948 3.641)"/><path class="an" d="M5.733,0,0,5.158a45.183,45.183,0,0,0,5.019,6.11" transform="translate(8.917 2.61)"/></g><g transform="translate(34.08 27.792)"><path class="af" d="M20.667.685c5.2,1.139,10.123,4.124,12.885,8.672.964,1.587,1.652,3.6.839,5.268-.91,1.87-3.234,2.469-5.276,2.861a7.455,7.455,0,0,1,1.207,7.5c-1.385,3.383-5.266,5.29-8.918,5.141s-7.045-2.015-9.834-4.378C6.14,21.151.928,15.2.047,8.135-.19,6.241.19,2.648,8.107.741A28.018,28.018,0,0,1,20.667.685Z" transform="translate(5.77 0)"/><path class="ag" d="M33.308,9.939A108.027,108.027,0,0,0,22.128,4.175C15.165,1.084,7.334-1.289,0,.776" transform="translate(0 7.491)"/><path class="ah" d="M8.322,0,.33,2.52C.181,2.566,0,2.649,0,2.8a.375.375,0,0,0,.066.19l4.357,7.715" transform="translate(24.014 9.989)"/><path class="ah" d="M8.526,19.794C5.056,14.775,1.522,9.62,0,3.712A29.628,29.628,0,0,1,11.133,0" transform="translate(17.578 5.79)"/><path class="ah" d="M8.315,0,0,4.924a56.551,56.551,0,0,0,4.66,8.743" transform="translate(11.527 2.692)"/></g><g transform="translate(22.772 61.256)"><path class="aq" d="M13.4,27.586A22.994,22.994,0,0,1,14.823,0,20.651,20.651,0,0,0,4.665,8.141,31.77,31.77,0,0,0,0,20.437" transform="translate(7.566 0)"/><path class="aq" d="M.057,0A9.985,9.985,0,0,0,4.574,9.368" transform="translate(18.454 6.719)"/><path class="aq" d="M1.53,0A9.321,9.321,0,0,0,.545,3.783L.131,7.42a7.558,7.558,0,0,0,.178,3.624" transform="translate(15.69 16.83)"/><path class="aq" d="M9.482,0A11.4,11.4,0,0,0,7.425.7,10.1,10.1,0,0,0,4.964,2.582,43.993,43.993,0,0,0,0,8.258" transform="translate(3.235 7.011)"/><path class="aj" d="M.965,4.322a2.4,2.4,0,1,1,3.357-.49A2.4,2.4,0,0,1,.965,4.322Z" transform="translate(21.695 14.615)"/><path class="aj" d="M.965,4.322a2.4,2.4,0,1,1,3.357-.49A2.4,2.4,0,0,1,.965,4.322Z" transform="translate(19.399 25.456)"/><ellipse class="aj" cx="2.399" cy="2.399" rx="2.399" ry="2.399" transform="translate(13.805 24.438) rotate(16.879)"/><path class="aj" d="M.965,4.322a2.4,2.4,0,1,1,3.357-.49A2.4,2.4,0,0,1,.965,4.322Z" transform="translate(5.63 18.383)"/><path class="aj" d="M.965,4.322a2.4,2.4,0,1,1,3.357-.49A2.4,2.4,0,0,1,.965,4.322Z" transform="translate(0 13.989)"/></g></g><g transform="matrix(0.799, -0.602, 0.602, 0.799, 1736.007, 736.439)"><g transform="translate(0.375 0)"><path class="af" d="M2.812,17.33A13.694,13.694,0,0,1,.188,7.014,3.9,3.9,0,0,1,2.166,3.938c1.319-.54,2.78.216,4,.949A5.11,5.11,0,0,1,8.979.5a6.311,6.311,0,0,1,6.9,1.446A11.454,11.454,0,0,1,18.91,8.677c.673,4.831.617,10.254-2.158,14.265-.744,1.076-2.58,2.738-7.5.1A19.2,19.2,0,0,1,2.812,17.33Z" transform="translate(0 0)"/><path class="ag" d="M0,0A74.119,74.119,0,0,0,3.08,8.052C5.227,12.812,8.145,17.6,12.835,19.9" transform="translate(6.949 5.636)"/><path class="ah" d="M0,3.692,5.235,6.055c.1.044.225.083.3.005a.263.263,0,0,0,.053-.128L6.883,0" transform="translate(4.047 6.19)"/><path class="ah" d="M10.373,0C9.854,4.149,9.305,8.4,7.384,12.112A20.309,20.309,0,0,1,0,8.923" transform="translate(3.981 4.76)"/><path class="ah" d="M0,5.314,6.5,6.6A38.772,38.772,0,0,0,8.109,0" transform="translate(7.099 14.003)"/></g><g transform="translate(0 21.131)"><path class="ai" d="M5.534,0A17.51,17.51,0,0,0,8.852,10.483,17.507,17.507,0,0,0,17.8,16.87,15.59,15.59,0,0,1,8.018,15.9,23.988,23.988,0,0,1,0,10.045" transform="translate(3.413 2.326)"/><path class="ai" d="M1.658,7.789A7.541,7.541,0,0,1,.656,0" transform="translate(14.334 8.753)"/><path class="ai" d="M5.323,6.486A7.037,7.037,0,0,1,3.14,4.5L1.38,2.367A5.711,5.711,0,0,1,0,0" transform="translate(5.686 4.189)"/><path class="ai" d="M9.4,1.319a8.608,8.608,0,0,1-1.592.4A7.617,7.617,0,0,1,5.48,1.546,33.227,33.227,0,0,1,0,0" transform="translate(2.802 17.426)"/><path class="aj" d="M.112,1.185A1.811,1.811,0,1,0,2.438.112,1.812,1.812,0,0,0,.112,1.185Z" transform="translate(13.471 5.915)"/><path class="aj" d="M.112,1.185A1.811,1.811,0,1,0,2.438.112,1.812,1.812,0,0,0,.112,1.185Z" transform="translate(7.551 0)"/><path class="aj" d="M.112,1.185A1.811,1.811,0,1,0,2.438.112,1.811,1.811,0,0,0,.112,1.185Z" transform="translate(3.68 2.904)"/><path class="aj" d="M.112,1.185A1.811,1.811,0,1,0,2.438.112,1.812,1.812,0,0,0,.112,1.185Z" transform="translate(1.752 10.149)"/><path class="aj" d="M.112,1.186A1.811,1.811,0,1,0,2.438.112,1.811,1.811,0,0,0,.112,1.186Z" transform="translate(0 15.25)"/></g><path class="ak" d="M.245,0a107.044,107.044,0,0,0,15.1,62.308c4.289,7.085,9.544,13.792,16.5,18.291" transform="translate(20.364 19.055)"/><g transform="translate(20.194 10.603)"><path class="al" d="M12.546,15.156a10.93,10.93,0,0,0,3.97-7.511,3.115,3.115,0,0,0-.957-2.756c-.922-.666-2.2-.354-3.283-.015A4.078,4.078,0,0,0,10.918.945,5.037,5.037,0,0,0,5.291.772,9.14,9.14,0,0,0,1.682,5.424c-1.428,3.621-2.4,7.839-1,11.471.376.974,1.488,2.608,5.8,1.481A15.326,15.326,0,0,0,12.546,15.156Z" transform="translate(2.157 0)"/><path class="am" d="M13.687,0a59.1,59.1,0,0,1-3.9,5.669C7.23,8.958,4.069,12.126,0,13.027" transform="translate(0 5.308)"/><path class="an" d="M4.754,4.155l-4.5.851c-.084.016-.19.022-.233-.052A.207.207,0,0,1,0,4.845L.107,0" transform="translate(10.388 4.992)"/><path class="an" d="M.423,0C.047,3.316-.323,6.715.47,9.956A16.2,16.2,0,0,0,6.8,8.868" transform="translate(7.684 3.24)"/><path class="an" d="M5.406,5.643.126,5.419A30.943,30.943,0,0,1,.112,0" transform="translate(5.598 10.25)"/></g><g transform="translate(35.551 54.093)"><path class="al" d="M18.653,17.991A15.064,15.064,0,0,0,20.3,6.4c-.4-1.341-1.182-2.742-2.527-3.129-1.507-.434-3.015.566-4.265,1.512A5.621,5.621,0,0,0,9.913.318c-2.594-.932-5.62.28-7.38,2.4A12.6,12.6,0,0,0,.022,10.436C-.141,15.8.563,21.724,4.073,25.781,5.015,26.87,7.22,28.47,12.283,25A21.126,21.126,0,0,0,18.653,17.991Z" transform="translate(0 0)"/><path class="ao" d="M11.677,0A81.515,81.515,0,0,1,9.263,9.172C7.48,14.632,4.857,20.216,0,23.281" transform="translate(1.065 5.692)"/><path class="ap" d="M7.965,3.221,2.521,6.426c-.1.06-.237.117-.326.041a.284.284,0,0,1-.073-.133L0,0" transform="translate(8.453 6.771)"/><path class="ap" d="M0,0C1.06,4.476,2.164,9.057,4.705,12.892a22.333,22.333,0,0,0,7.7-4.363" transform="translate(4.538 5.613)"/><path class="ap" d="M9.5,4.85,2.545,7.023A42.664,42.664,0,0,1,0,0" transform="translate(4.701 15.822)"/></g><g transform="translate(21.311 20.519)"><path class="af" d="M14.177,20.188a13.7,13.7,0,0,0,8.816-5.966,3.9,3.9,0,0,0,.566-3.612c-.627-1.28-2.222-1.686-3.622-1.951a5.11,5.11,0,0,0,.814-5.145A6.312,6.312,0,0,0,14.629.006,11.453,11.453,0,0,0,7.9,3.025C4.184,6.187.622,10.278.031,15.119c-.158,1.3.109,3.76,5.537,5.053A19.2,19.2,0,0,0,14.177,20.188Z" transform="translate(3.956 0)"/><path class="ag" d="M22.812,0A74.016,74.016,0,0,1,15.16,3.971C10.393,6.1,5.03,7.742,0,6.34" transform="translate(0 8.7)"/><path class="ah" d="M5.709,7.333.227,5.62C.125,5.588,0,5.532,0,5.425a.257.257,0,0,1,.045-.131L3.018,0" transform="translate(16.45 6.469)"/><path class="ah" d="M5.814,0C3.446,3.446,1.033,6.985,0,11.037a20.3,20.3,0,0,0,7.637,2.524" transform="translate(12.045 3.124)"/><path class="ah" d="M5.707,9.36,0,6A38.8,38.8,0,0,1,3.178,0" transform="translate(7.901 9.464)"/></g><g transform="translate(3.412 40.732)"><path class="al" d="M6.123,15.993A10.93,10.93,0,0,1,.271,9.835,3.115,3.115,0,0,1,.448,6.922c.708-.89,2.02-.935,3.157-.9A4.078,4.078,0,0,1,3.85,1.871,5.037,5.037,0,0,1,9.222.184a9.139,9.139,0,0,1,4.732,3.5c2.353,3.1,4.431,6.9,4.063,10.773-.1,1.039-.728,2.913-5.181,2.992A15.324,15.324,0,0,1,6.123,15.993Z" transform="translate(0 0)"/><path class="am" d="M0,0A58.958,58.958,0,0,0,5.286,4.4C8.638,6.88,12.538,9.076,16.7,8.843" transform="translate(4.44 6.237)"/><path class="an" d="M0,5.256l4.566-.4c.085-.007.189-.031.21-.113a.209.209,0,0,0-.013-.109L3.352,0" transform="translate(4.077 5.07)"/><path class="an" d="M3.74,0C5,3.091,6.273,6.263,6.385,9.6A16.2,16.2,0,0,1,0,10.26" transform="translate(5.514 2.738)"/><path class="an" d="M0,6.864,5.024,5.221A30.938,30.938,0,0,0,3.572,0" transform="translate(9.883 8.84)"/></g><g transform="translate(22.441 84.99)"><path class="al" d="M8.921,15.792a10.93,10.93,0,0,1-7.843-3.264A3.115,3.115,0,0,1,.061,9.793c.287-1.1,1.469-1.672,2.522-2.1A4.077,4.077,0,0,1,1.129,3.8,5.037,5.037,0,0,1,5.359.08,9.141,9.141,0,0,1,11.1,1.371c3.406,1.883,6.843,4.516,8.075,8.208.33.99.513,2.958-3.528,4.832A15.32,15.32,0,0,1,8.921,15.792Z" transform="translate(0 0)"/><path class="am" d="M0,0A59.1,59.1,0,0,0,6.616,1.889c4.067.909,8.522,1.339,12.233-.557" transform="translate(3.435 7.551)"/><path class="an" d="M0,6.162,4.015,3.951c.074-.041.161-.1.146-.188a.205.205,0,0,0-.056-.095L.939,0" transform="translate(4.757 5.275)"/><path class="an" d="M0,0C2.4,2.318,4.85,4.7,6.3,7.707A16.2,16.2,0,0,1,.731,10.9" transform="translate(6.422 2.404)"/><path class="an" d="M0,7.722,3.93,4.187A30.973,30.973,0,0,0,.49,0" transform="translate(12.242 6.284)"/></g><g transform="translate(5.249 61.082)"><path class="af" d="M9.653,20.186A13.7,13.7,0,0,1,.822,14.242a3.9,3.9,0,0,1-.575-3.61C.87,9.35,2.463,8.94,3.863,8.671a5.11,5.11,0,0,1-.827-5.142A6.311,6.311,0,0,1,9.148.006a11.452,11.452,0,0,1,6.74,3c3.721,3.153,7.294,7.234,7.9,12.074.162,1.3-.1,3.761-5.524,5.068A19.2,19.2,0,0,1,9.653,20.186Z" transform="translate(0 0)"/><path class="ag" d="M0,0A74.045,74.045,0,0,0,7.663,3.951C12.435,6.069,17.8,7.695,22.829,6.28" transform="translate(4.943 8.71)"/><path class="ah" d="M0,7.34,5.478,5.613c.1-.032.223-.088.226-.2a.257.257,0,0,0-.045-.13L2.672,0" transform="translate(5.61 6.47)"/><path class="ah" d="M1.787,0c2.378,3.44,4.8,6.973,5.843,11.022A20.308,20.308,0,0,1,0,13.566" transform="translate(8.095 3.122)"/><path class="ah" d="M0,9.366,5.7,5.992A38.761,38.761,0,0,0,2.5,0" transform="translate(14.173 9.444)"/></g><g transform="translate(22.613 37.951)"><path class="aq" d="M.976,0A15.886,15.886,0,0,1,3.643,9.616,15.889,15.889,0,0,1,0,18.907a14.154,14.154,0,0,0,6.963-5.579A21.774,21.774,0,0,0,10.16,4.9" transform="translate(2.813 1.944)"/><path class="aq" d="M3.1,6.42A6.843,6.843,0,0,0,0,0" transform="translate(2.375 9.825)"/><path class="aq" d="M0,7.569A6.389,6.389,0,0,0,.676,4.976L.959,2.484A5.18,5.18,0,0,0,.837,0" transform="translate(6.355 1.746)"/><path class="aq" d="M0,5.66a7.818,7.818,0,0,0,1.41-.483A6.922,6.922,0,0,0,3.1,3.89,30.156,30.156,0,0,0,6.5,0" transform="translate(9.442 10.386)"/><path class="aj" d="M2.627.326a1.644,1.644,0,1,1-2.3.336A1.644,1.644,0,0,1,2.627.326Z" transform="translate(0 7.546)"/><path class="aj" d="M2.627.326a1.644,1.644,0,1,1-2.3.336A1.644,1.644,0,0,1,2.627.326Z" transform="translate(1.574 0.115)"/><circle class="aj" cx="1.644" cy="1.644" r="1.644" transform="translate(8.696 4.101) rotate(-163.121)"/><path class="aj" d="M2.627.326a1.644,1.644,0,1,1-2.3.336A1.644,1.644,0,0,1,2.627.326Z" transform="translate(11.011 4.963)"/><path class="aj" d="M2.627.326a1.644,1.644,0,1,1-2.3.336A1.644,1.644,0,0,1,2.627.326Z" transform="translate(14.869 7.975)"/></g></g><g transform="matrix(-0.996, -0.087, 0.087, -0.996, 1604.557, 901.858)"><g transform="translate(0.597 119.988)"><path class="af" d="M4.483,11.361C1.077,16.076-.762,22.093.3,27.81c.371,1.995,1.275,4.135,3.153,4.9,2.1.861,4.433-.345,6.383-1.513a8.147,8.147,0,0,0,4.481,6.992c3.592,1.748,8.142.475,11.01-2.306s4.272-6.773,4.824-10.729c1.073-7.7.983-16.35-3.441-22.745C25.523.7,22.6-1.952,14.757,2.259A30.617,30.617,0,0,0,4.483,11.361Z" transform="translate(0 1.716)"/><path class="ag" d="M0,31.724A118.185,118.185,0,0,1,4.911,18.885C8.334,11.3,12.987,3.659,20.464,0" transform="translate(11.079 0)"/><path class="ah" d="M0,3.847,8.347.079c.155-.07.359-.132.476-.008a.419.419,0,0,1,.085.2Q9.941,5,10.975,9.733" transform="translate(6.453 21.106)"/><path class="ah" d="M16.54,19.312C15.712,12.7,14.837,5.923,11.774,0A32.381,32.381,0,0,0,0,5.085" transform="translate(6.348 13.807)"/><path class="ah" d="M0,2.044,10.36,0a61.823,61.823,0,0,1,2.57,10.517" transform="translate(11.319 7.865)"/></g><g transform="translate(0 95.762)"><path class="ai" d="M8.823,27.535A27.683,27.683,0,0,1,28.384.636a24.857,24.857,0,0,0-15.6,1.54A38.248,38.248,0,0,0,0,11.518" transform="translate(5.442 0)"/><path class="ai" d="M2.644,0a12.024,12.024,0,0,0-1.6,12.419" transform="translate(22.854 4.867)"/><path class="ai" d="M8.487,0a11.221,11.221,0,0,0-3.48,3.17L2.2,6.567A9.105,9.105,0,0,0,0,10.341" transform="translate(9.066 14.222)"/><path class="ai" d="M14.993.693A13.724,13.724,0,0,0,12.454.053,12.144,12.144,0,0,0,8.737.33,52.979,52.979,0,0,0,0,2.8" transform="translate(4.468 0.662)"/><path class="aj" d="M.179,3.888A2.888,2.888,0,1,1,3.888,5.6,2.889,2.889,0,0,1,.179,3.888Z" transform="translate(21.479 16.034)"/><path class="aj" d="M.179,3.888A2.888,2.888,0,1,1,3.888,5.6,2.889,2.889,0,0,1,.179,3.888Z" transform="translate(12.04 25.465)"/><path class="aj" d="M.179,3.888A2.888,2.888,0,1,1,3.888,5.6,2.888,2.888,0,0,1,.179,3.888Z" transform="translate(5.868 20.835)"/><path class="aj" d="M.179,3.888A2.888,2.888,0,1,1,3.888,5.6,2.889,2.889,0,0,1,.179,3.888Z" transform="translate(2.793 9.282)"/><path class="aj" d="M.179,3.888A2.888,2.888,0,1,1,3.888,5.6,2.888,2.888,0,0,1,.179,3.888Z" transform="translate(0 1.149)"/></g><path class="ak" d="M.39,128.512A170.677,170.677,0,0,1,24.468,29.165C31.306,17.868,39.685,7.174,50.771,0" transform="translate(32.47 1.802)"/><g transform="translate(32.199 113.883)"><path class="al" d="M20,5.743a17.427,17.427,0,0,1,6.33,11.976c.087,1.616-.214,3.447-1.526,4.395-1.47,1.062-3.5.564-5.235.024A6.5,6.5,0,0,1,17.408,28.4c-2.458,2.03-6.227,1.9-8.973.276a14.574,14.574,0,0,1-5.754-7.418C.4,15.485-1.148,8.76,1.085,2.97c.6-1.553,2.373-4.158,9.243-2.361A24.438,24.438,0,0,1,20,5.743Z" transform="translate(3.439 0)"/><path class="am" d="M21.824,20.771a94.218,94.218,0,0,0-6.217-9.039C11.529,6.487,6.487,1.435,0,0" transform="translate(0 0.674)"/><path class="an" d="M7.58,1.373.4.016C.266-.009.1-.019.028.1A.33.33,0,0,0,0,.272L.171,8" transform="translate(16.563 13.951)"/><path class="an" d="M.674,15.886C.075,10.6-.515,5.179.749.011A25.832,25.832,0,0,1,10.836,1.747" transform="translate(12.252 8.856)"/><path class="an" d="M8.62,0,.2.357A49.338,49.338,0,0,0,.179,9" transform="translate(8.926 4.567)"/></g><g transform="translate(56.684 28.251)"><path class="al" d="M29.741,14.545C32.907,20.1,34.205,26.9,32.365,33.03c-.642,2.138-1.885,4.372-4.029,4.989-2.4.692-4.808-.9-6.8-2.411a8.962,8.962,0,0,1-5.73,7.115C11.67,44.209,6.844,42.277,4.038,38.9s-3.87-7.913-4-12.306c-.26-8.551.864-18,6.461-24.467C8,.388,11.512-2.163,19.585,3.372A33.684,33.684,0,0,1,29.741,14.545Z" transform="translate(0 2.966)"/><path class="ao" d="M18.619,37.121A129.97,129.97,0,0,0,14.77,22.5C11.927,13.791,7.745,4.888,0,0" transform="translate(1.698 0)"/><path class="ap" d="M12.7,5.234,4.019.123C3.858.028,3.641-.063,3.5.058A.453.453,0,0,0,3.383.27L0,10.37" transform="translate(13.479 25.031)"/><path class="ap" d="M0,20.555C1.69,13.418,3.451,6.114,7.5,0A35.61,35.61,0,0,1,19.776,6.956" transform="translate(7.236 16.692)"/><path class="ap" d="M15.146,3.464,4.058,0A68.026,68.026,0,0,0,0,11.2" transform="translate(7.495 9.771)"/></g><g transform="translate(33.979 95.024)"><path class="af" d="M22.6.767c5.677,1.26,11.05,4.535,14.057,9.513,1.048,1.737,1.795,3.938.9,5.759-1,2.041-3.542,2.688-5.775,3.111a8.148,8.148,0,0,1,1.3,8.2c-1.523,3.693-5.769,5.765-9.76,5.593s-7.693-2.222-10.734-4.813C6.671,23.09.991,16.568.049,8.849c-.253-2.07.173-6,8.829-8.057A30.622,30.622,0,0,1,22.6.767Z" transform="translate(6.308 0)"/><path class="ag" d="M36.373,10.94a118.017,118.017,0,0,0-12.2-6.331C16.571,1.211,8.02-1.4,0,.831" transform="translate(0 8.144)"/><path class="ah" d="M9.1,0,.361,2.731C.2,2.781,0,2.871,0,3.041a.41.41,0,0,0,.072.208l4.74,8.442" transform="translate(26.229 10.95)"/><path class="ah" d="M9.271,21.623C5.494,16.129,1.647,10.485,0,4.025A32.36,32.36,0,0,1,12.177,0" transform="translate(19.205 6.351)"/><path class="ah" d="M9.1,0,0,5.357a61.856,61.856,0,0,0,5.068,9.567" transform="translate(12.598 2.942)"/></g><g transform="translate(5.44 67.919)"><path class="al" d="M9.763,2.332a17.427,17.427,0,0,0-9.33,9.819c-.52,1.533-.726,3.376.282,4.644,1.128,1.419,3.221,1.49,5.033,1.438a6.5,6.5,0,0,0,.392,6.616c1.818,2.619,5.482,3.507,8.565,2.691a14.572,14.572,0,0,0,7.544-5.587c3.752-4.943,7.064-11,6.479-17.177C28.57,3.117,27.567.13,20.467,0A24.433,24.433,0,0,0,9.763,2.332Z" transform="translate(0 0)"/><path class="am" d="M0,14.127A94.014,94.014,0,0,1,8.429,7.106C13.772,3.157,19.991-.344,26.625.027" transform="translate(7.079 3.759)"/><path class="an" d="M0,0,7.281.633c.135.012.3.049.335.18A.333.333,0,0,1,7.6.988L5.344,8.38" transform="translate(6.5 11.367)"/><path class="an" d="M5.964,16.478c2-4.929,4.038-9.986,4.217-15.3A25.827,25.827,0,0,0,0,.12" transform="translate(8.792 6.987)"/><path class="an" d="M0,0,8.01,2.619A49.329,49.329,0,0,1,5.7,10.944" transform="translate(15.758 2.793)"/></g><g transform="translate(35.781 0)"><path class="al" d="M14.225,0a17.427,17.427,0,0,0-12.505,5.2C.623,6.4-.311,8,.1,9.57c.457,1.755,2.342,2.666,4.022,3.351A6.5,6.5,0,0,0,1.8,19.13c.6,3.131,3.6,5.426,6.744,5.926A14.575,14.575,0,0,0,17.7,23c5.432-3,10.91-7.2,12.875-13.088.527-1.579.817-4.717-5.625-7.7A24.426,24.426,0,0,0,14.225,0Z" transform="translate(0)"/><path class="am" d="M0,4.245A94.244,94.244,0,0,1,10.549,1.234c6.484-1.449,13.588-2.135,19.5.888" transform="translate(5.477 8.898)"/><path class="an" d="M0,0,6.4,3.525c.119.065.256.167.233.3a.328.328,0,0,1-.09.151L1.5,9.825" transform="translate(7.585 6.948)"/><path class="an" d="M0,17.372c3.828-3.7,7.733-7.5,10.048-12.289A25.831,25.831,0,0,0,1.165,0" transform="translate(10.24 3.979)"/><path class="an" d="M0,0,6.265,5.636A49.386,49.386,0,0,1,.781,12.313" transform="translate(19.52 2.852)"/></g><g transform="translate(8.37 30.37)"><path class="af" d="M15.391.749C9.71,1.994,4.329,5.255,1.31,10.226c-1.053,1.734-1.8,3.933-.917,5.756.994,2.044,3.535,2.7,5.766,3.127a8.147,8.147,0,0,0-1.319,8.2c1.513,3.7,5.754,5.78,9.745,5.618s7.7-2.2,10.747-4.784C31.266,23.114,36.962,16.606,37.925,8.89c.259-2.07-.157-6-8.808-8.08A30.617,30.617,0,0,0,15.391.749Z" transform="translate(0 0)"/><path class="ag" d="M0,10.861a118.059,118.059,0,0,1,12.218-6.3C19.827,1.185,28.385-1.408,36.4.848" transform="translate(7.882 8.186)"/><path class="ah" d="M0,0,8.734,2.753c.162.051.355.141.36.311a.41.41,0,0,1-.072.208L4.26,11.7" transform="translate(8.945 10.915)"/><path class="ah" d="M2.85,21.63C6.641,16.146,10.5,10.513,12.166,4.056A32.379,32.379,0,0,0,0,0" transform="translate(12.907 6.327)"/><path class="ah" d="M0,0,9.087,5.38a61.8,61.8,0,0,1-5.093,9.554" transform="translate(22.599 2.942)"/></g><g transform="translate(36.056 66.94)"><path class="aq" d="M1.556,30.146A25.33,25.33,0,0,0,5.809,14.813,25.335,25.335,0,0,0,0,0,22.568,22.568,0,0,1,11.1,8.9a34.717,34.717,0,0,1,5.1,13.437" transform="translate(4.485 0)"/><path class="aq" d="M4.936,0A10.911,10.911,0,0,1,0,10.237" transform="translate(3.787 7.342)"/><path class="aq" d="M0,0A10.187,10.187,0,0,1,1.077,4.134l.452,3.974a8.259,8.259,0,0,1-.195,3.96" transform="translate(10.133 18.392)"/><path class="aq" d="M0,0A12.464,12.464,0,0,1,2.248.77a11.037,11.037,0,0,1,2.69,2.052,48.084,48.084,0,0,1,5.424,6.2" transform="translate(15.054 7.661)"/><path class="aj" d="M4.188,4.724A2.622,2.622,0,1,0,.52,4.188,2.622,2.622,0,0,0,4.188,4.724Z" transform="translate(0 15.971)"/><path class="aj" d="M4.188,4.723A2.621,2.621,0,1,0,.519,4.188,2.621,2.621,0,0,0,4.188,4.723Z" transform="translate(2.509 27.819)"/><ellipse class="aj" cx="2.621" cy="2.621" rx="2.621" ry="2.621" transform="translate(15.388 31.723) rotate(163.121)"/><path class="aj" d="M4.188,4.723A2.621,2.621,0,1,0,.52,4.188,2.621,2.621,0,0,0,4.188,4.723Z" transform="translate(17.557 20.089)"/><path class="aj" d="M4.188,4.723A2.621,2.621,0,1,0,.519,4.188,2.621,2.621,0,0,0,4.188,4.723Z" transform="translate(23.709 15.287)"/></g></g><g transform="matrix(0.996, 0.087, -0.087, 0.996, -722.085, 140.501)"><path class="ar" d="M1032.739,469.472c8.835-.6,18.49-.969,25.644,4.25" transform="translate(-3.867 -6.587)"/><path class="as" d="M1027.7,443.978a18.294,18.294,0,0,1,10.543-.031" transform="translate(-3.022 -2.234)"/><path class="ar" d="M1067.094,443.818a69.294,69.294,0,0,1,17.533,4.379" transform="translate(-9.628 -2.34)"/><path class="at" d="M1048.081,429.963a59.643,59.643,0,0,1,11.385.439" transform="translate(-6.44)"/><path class="as" d="M1086.76,470.9a10.844,10.844,0,0,1,5.592,3.605" transform="translate(-12.926 -6.881)"/><path class="at" d="M1106.178,456.806a68.414,68.414,0,0,1,8.054,6.4" transform="translate(-16.183 -4.518)"/><path class="au" d="M1056.721,491.693a25.371,25.371,0,0,1,6.221,3.125" transform="translate(-7.889 -10.369)"/><path class="at" d="M1024.7,487.02a35.856,35.856,0,0,0-15.017,1.1" transform="translate(0 -9.527)"/><path class="at" d="M1014.285,459.859l-3.854.716" transform="translate(-0.125 -5.03)"/><path class="ar" d="M1129.761,487.6a62.794,62.794,0,0,1,8.854,6.967" transform="translate(-20.138 -9.682)"/><path class="at" d="M1134.033,527.319a30.489,30.489,0,0,1,2.943,4.9" transform="translate(-20.854 -16.344)"/></g><g transform="translate(206.805 803.451)"><g transform="matrix(0.985, 0.174, -0.174, 0.985, 58.403, 51.254)"><g transform="translate(19.176 0)"><path class="k" d="M1.127,4.757A10.558,10.558,0,0,1,3.171.373a1.178,1.178,0,0,1,1.8.1,5.079,5.079,0,0,1,.62,1.094A2.084,2.084,0,0,1,7.207.947a1,1,0,0,1,.829,1.294c.552-.712,1.819-.25,2.147.589A3.751,3.751,0,0,1,9.9,5.455C8.45,9.321,6.6,13.2,6.7,17.329c1.422-3.609,3.073-7.123,4.723-10.634a16.326,16.326,0,0,1,2.553-4.237.864.864,0,0,1,1.434.267,3.518,3.518,0,0,1,.213.844,1.172,1.172,0,0,1,2.259.607,1.391,1.391,0,0,1,1.51.2,2.837,2.837,0,0,0,.583.522,3.511,3.511,0,0,0,.751.142A1.574,1.574,0,0,1,21.776,6.7a4.376,4.376,0,0,1-.79,1.964,61.189,61.189,0,0,1-8.879,11.23,37.107,37.107,0,0,0,8.651-8.152,7.243,7.243,0,0,1,2.3-2.278,1.093,1.093,0,0,1,.441,1.231c.2-.378.78-.129,1.1.155l2.052,1.8a1.73,1.73,0,0,1,.479.561,1.723,1.723,0,0,1-.277,1.465,20.973,20.973,0,0,1-5.613,6.888,14.641,14.641,0,0,1-16.644.5C-1.118,18.12-.5,10.658,1.127,4.757Z" transform="translate(0)"/><g transform="translate(1.342 4.216)"><path class="av" d="M1.253,0A24.671,24.671,0,0,0,0,8.345a4.734,4.734,0,0,0,.781,3.274" transform="translate(0 0.4)"/><path class="av" d="M.164,0A18.094,18.094,0,0,0,.418,6.292" transform="translate(2.312 7.617)"/><path class="av" d="M.786,0A17.464,17.464,0,0,0,.03,6.192" transform="translate(4.803 2.929)"/><path class="av" d="M1.274,0A17.125,17.125,0,0,0,0,4.162" transform="translate(2.983 0)"/><path class="av" d="M.035,0A15.332,15.332,0,0,0,.156,3.221" transform="translate(4.473 11.184)"/><path class="av" d="M2.776,0A40.177,40.177,0,0,0,0,5.645" transform="translate(7.587 4.982)"/><path class="av" d="M5.716,0Q2.974,4.339,0,8.525" transform="translate(5.471 7.955)"/><path class="av" d="M2.458,0,0,2.4" transform="translate(7.08 14.874)"/><path class="av" d="M1.715,0A28.385,28.385,0,0,1,0,2.457" transform="translate(11.786 9.416)"/><path class="av" d="M1.765,0,0,2.678" transform="translate(13.81 3.165)"/><path class="av" d="M2.551,0A19.627,19.627,0,0,1,0,3.7" transform="translate(15.227 3.143)"/><path class="av" d="M2.608,0Q1.211,1.863,0,3.853" transform="translate(11.282 1.668)"/><path class="av" d="M4.769,0,4.1.8c-.4.481-.809.962-1.253,1.407A11.151,11.151,0,0,1,0,4.273" transform="translate(16.389 9.652)"/><path class="av" d="M6.709,0A36.686,36.686,0,0,1,0,4.1" transform="translate(14.114 14.294)"/><path class="av" d="M3.724,0A10.73,10.73,0,0,1,0,1.751" transform="translate(11.735 15.759)"/><path class="av" d="M3.251,0A6.481,6.481,0,0,1,0,.231" transform="translate(8.643 18.858)"/><path class="av" d="M0,0A5.114,5.114,0,0,0,1.2,1.768" transform="translate(1.563 14.226)"/><path class="av" d="M1.455,0A4.45,4.45,0,0,1,0,1.591" transform="translate(22.279 9.821)"/></g></g><path class="m" d="M5.815,0c-.653-.1-.251,3.156-.351,3.807A5.085,5.085,0,0,0,2.648.942.467.467,0,0,0,2.305.9c-.208.085-.2.382-.13.6A7.231,7.231,0,0,0,4.262,4.328L1.512,2.351A2.046,2.046,0,0,0,.819,1.98.693.693,0,0,0,.1,2.189c-.252.342,0,.822.284,1.138,1.288,1.437,3.2,2.119,4.794,3.2,1.028.7,1.935,1.564,2.993,2.213a17.3,17.3,0,0,0,1.565.818,1.6,1.6,0,0,0,.706.211.545.545,0,0,0,.545-.413A5.719,5.719,0,0,0,9.031,8a3.624,3.624,0,0,0,2.589.775,1.036,1.036,0,0,0,.933-.537.806.806,0,0,0-.33-.87,2.36,2.36,0,0,0-.924-.35L8.021,6.279A4.844,4.844,0,0,0,9.657,6.03a1.411,1.411,0,0,0,.858-.612.6.6,0,0,0-.34-.863.9.9,0,0,0-.561.171c-.331.191-1.38.68-1.712.871.341-.507,1.4-1.313,1.739-1.82a1.151,1.151,0,0,0,.277-.752C9.806,2.167,8.713,2.5,8.3,2.854,8.012,3.1,6.81,4.617,6.81,4.617,7,4.755,7.178.2,5.815,0Z" transform="translate(19.435 16.764)"/><path class="aw" d="M26.215,0A81.36,81.36,0,0,1,0,30.993" transform="translate(0 21.883)"/></g><g transform="matrix(0.788, 0.616, -0.616, 0.788, 61.927, -9.127)"><g transform="translate(0 0)"><path class="k" d="M45.86,13.578c.384-2.669.664-5.56-.193-8.044A1.959,1.959,0,0,0,42.861,4.48a8.426,8.426,0,0,0-1.674,1.255A3.47,3.47,0,0,0,39.133,3.72a1.67,1.67,0,0,0-2.127,1.42c-.366-1.454-2.606-1.595-3.665-.534S32.109,7.3,32.029,8.8c-.37,6.856-.144,14-3.039,20.228.238-6.449.063-12.9-.111-19.355a27.162,27.162,0,0,0-1.067-8.159A1.437,1.437,0,0,0,25.448.962a5.838,5.838,0,0,0-.887,1.145A2.021,2.021,0,0,0,22.91.019a2.022,2.022,0,0,0-2.195,1.507,2.314,2.314,0,0,0-2.435-.7,4.707,4.707,0,0,1-1.237.408A5.784,5.784,0,0,1,15.8.947a2.619,2.619,0,0,0-2.711,1.831,7.281,7.281,0,0,0-.105,3.52,101.79,101.79,0,0,0,6.048,23.033A61.722,61.722,0,0,1,11.284,11.14a12.047,12.047,0,0,0-1.987-5A1.816,1.816,0,0,0,7.8,7.717C7.745,7,6.7,7,6.019,7.218L1.693,8.6a2.892,2.892,0,0,0-1.1.535,2.866,2.866,0,0,0-.554,2.417A34.88,34.88,0,0,0,4,25.785C8.848,34.37,19.35,39.52,29.03,37.642,40.376,35.441,44.407,23.656,45.86,13.578Z"/><g transform="translate(3.177 5.553)"><path class="ax" d="M7.029,0C6.8,4.7,5.18,9.21,3.372,13.552,2.637,15.317,1.731,17.212,0,18.021" transform="translate(33.511 6.831)"/><path class="ax" d="M4.581,0A30.092,30.092,0,0,1,0,9.421" transform="translate(29.287 17.016)"/><path class="ax" d="M2.974,0A29.04,29.04,0,0,1,0,9.941" transform="translate(29.273 7.798)"/><path class="ax" d="M.832,0A28.512,28.512,0,0,1,0,7.192" transform="translate(35.396 4.22)"/><path class="ax" d="M2.33,0A25.5,25.5,0,0,1,0,4.828" transform="translate(26.062 21.099)"/><path class="ax" d="M0,0A66.857,66.857,0,0,1,.469,10.453" transform="translate(23.603 7.744)"/><path class="ax" d="M0,0Q1.288,8.44,3.03,16.8" transform="translate(20.365 11.727)"/><path class="ax" d="M0,0,2.143,5.3" transform="translate(18.268 23.37)"/><path class="ax" d="M0,0A47.283,47.283,0,0,0,.977,4.887" transform="translate(15.865 12.411)"/><path class="ax" d="M0,0Q.452,2.629.905,5.258" transform="translate(16.87 1.502)"/><path class="ax" d="M0,0A32.663,32.663,0,0,0,1.42,7.341" transform="translate(13.527 0)"/><path class="ax" d="M0,0Q.886,3.769,1.407,7.611" transform="translate(20.436 0.342)"/><path class="ax" d="M0,0,.492,1.668c.3,1,.592,2.006.972,2.98A18.564,18.564,0,0,0,4.421,9.69" transform="translate(4.039 7.668)"/><path class="ax" d="M0,0A61.057,61.057,0,0,0,7.49,10.723" transform="translate(1.455 14.967)"/><path class="ax" d="M0,0A17.844,17.844,0,0,0,4.509,5.151" transform="translate(8.654 20.774)"/><path class="ax" d="M0,0A10.8,10.8,0,0,0,4.8,2.519" transform="translate(12.021 27.873)"/><path class="ax" d="M3.009,0A8.507,8.507,0,0,1,0,1.895" transform="translate(27.845 27.698)"/><path class="ax" d="M0,0A7.393,7.393,0,0,0,1.156,3.4" transform="translate(0 6.21)"/></g></g><path class="m" d="M15.758.036c1.059.287-1.721,4.977-2,6.037a8.456,8.456,0,0,1,6.2-2.494.778.778,0,0,1,.548.168c.261.267.046.714-.2,1a12.016,12.016,0,0,1-5.066,2.921l5.51-1.179a3.385,3.385,0,0,1,1.3-.105,1.153,1.153,0,0,1,.952.8c.156.688-.548,1.252-1.191,1.544-2.921,1.331-6.284,1.1-9.44,1.684-2.03.376-3.991,1.095-6.036,1.378a28.793,28.793,0,0,1-2.93.2,2.645,2.645,0,0,1-1.217-.148.908.908,0,0,1-.556-.992,9.517,9.517,0,0,1,3.894-.767,6.03,6.03,0,0,1-4.463-.544C.516,9.226-.039,8.722,0,8.092A1.341,1.341,0,0,1,1.084,6.987a3.933,3.933,0,0,1,1.642.083L8.214,8.133A8.031,8.031,0,0,1,5.886,6.663a2.344,2.344,0,0,1-.9-1.5c-.034-.6.514-1.242,1.093-1.089a1.493,1.493,0,0,1,.742.636c.379.511,1.65,1.956,2.029,2.468-.182-1-1.256-2.934-1.438-3.933a1.916,1.916,0,0,1,.08-1.331c.743-1.233,2.185.006,2.577.816.276.572,1.1,3.682,1.1,3.682C10.792,6.494,13.547-.563,15.758.036Z" transform="translate(14.559 28.548)"/><path class="ay" d="M0,0A135.334,135.334,0,0,0,19.3,64.707" transform="translate(25.437 35.74)"/></g></g><g transform="translate(1728.007 758.231) rotate(135)"><g transform="translate(0 0)"><g transform="translate(0 15.374)"><path class="k" d="M21.315,22.572a10.308,10.308,0,0,1-3.283,3.4,1.151,1.151,0,0,1-1.631-.662,4.949,4.949,0,0,1-.224-1.208,2.035,2.035,0,0,1-1.688.053.98.98,0,0,1-.353-1.459c-.736.482-1.759-.348-1.794-1.228a3.663,3.663,0,0,1,1.1-2.331c2.568-3.107,5.509-6.1,6.736-9.941-2.462,2.879-5.106,5.6-7.748,8.311a15.93,15.93,0,0,1-3.707,3.1.844.844,0,0,1-1.239-.7,3.451,3.451,0,0,1,.073-.847,1.144,1.144,0,0,1-1.891-1.28,1.359,1.359,0,0,1-1.331-.665,2.758,2.758,0,0,0-.371-.668,3.388,3.388,0,0,0-.648-.371A1.537,1.537,0,0,1,2.874,14.2a4.271,4.271,0,0,1,1.355-1.562A59.748,59.748,0,0,1,16,5.1,36.227,36.227,0,0,0,5.42,9.869a7.07,7.07,0,0,1-2.849,1.37,1.066,1.066,0,0,1-.015-1.277c-.31.284-.761-.13-.969-.5L.267,7.152A1.7,1.7,0,0,1,0,6.482,1.682,1.682,0,0,1,.725,5.217,20.472,20.472,0,0,1,8.1.649a14.3,14.3,0,0,1,15.523,4.84C27.646,10.953,24.7,17.644,21.315,22.572Z"/><g transform="translate(2.168 1.525)"><path class="z" d="M0,10.576a24.085,24.085,0,0,0,3.813-7.3A4.62,4.62,0,0,0,4.135,0" transform="translate(17.748 10.135)"/><path class="z" d="M0,5.889A17.664,17.664,0,0,0,1.77,0" transform="translate(18.919 7.77)"/><path class="z" d="M0,5.474A17.045,17.045,0,0,0,2.671,0" transform="translate(14.552 11.519)"/><path class="z" d="M0,3.436A16.729,16.729,0,0,0,2.5,0" transform="translate(14.847 16.687)"/><path class="z" d="M0,3.011A14.98,14.98,0,0,0,.915,0" transform="translate(18.179 6.707)"/><path class="z" d="M0,4.326A39.256,39.256,0,0,0,4.361,0" transform="translate(10.799 9.252)"/><path class="z" d="M0,6.048Q3.914,2.917,7.992,0" transform="translate(10.986 4.523)"/><path class="z" d="M0,1.436,3.035,0" transform="translate(14.713 3.274)"/><path class="z" d="M0,1.721A27.787,27.787,0,0,1,2.366,0" transform="translate(9.315 6.764)"/><path class="z" d="M0,1.91,2.482,0" transform="translate(5.409 11.685)"/><path class="z" d="M0,2.6A19.175,19.175,0,0,1,3.534,0" transform="translate(3.369 10.308)"/><path class="z" d="M0,2.725Q1.882,1.451,3.635,0" transform="translate(6.487 12.788)"/><path class="z" d="M0,2.424.876,1.9C1.4,1.585,1.93,1.27,2.482,1A10.885,10.885,0,0,1,5.763,0" transform="translate(2.323 3.403)"/><path class="z" d="M0,1.649A35.865,35.865,0,0,1,7.5,0" transform="translate(4.112 0)"/><path class="z" d="M0,.468A10.479,10.479,0,0,1,4,.039" transform="translate(9.53 1.538)"/><path class="z" d="M0,0A6.333,6.333,0,0,1,3.075.824" transform="translate(13.807 0.281)"/><path class="z" d="M.545,2.015A5.006,5.006,0,0,0,0,0" transform="translate(21.322 5.834)"/><path class="z" d="M0,1.006A4.34,4.34,0,0,1,1.85,0" transform="translate(0 3.845)"/></g></g><path class="m" d="M3.729,10.52c.571.3,1.237-2.833,1.537-3.4a4.964,4.964,0,0,0,1.686,3.544.455.455,0,0,0,.3.146c.219-.012.3-.29.31-.509A7.059,7.059,0,0,0,6.541,7.022l1.909,2.7a1.993,1.993,0,0,0,.52.564.677.677,0,0,0,.728.035c.341-.235.262-.758.1-1.14C9.067,7.445,7.523,6.207,6.393,4.7c-.727-.97-1.287-2.06-2.058-3A16.773,16.773,0,0,0,3.152.45a1.553,1.553,0,0,0-.584-.42.532.532,0,0,0-.635.207,5.588,5.588,0,0,0,1.375,1.88A3.537,3.537,0,0,0,1.165.576a1.011,1.011,0,0,0-1.032.2.787.787,0,0,0,.027.907A2.305,2.305,0,0,0,.9,2.3L3.693,4.023A4.738,4.738,0,0,0,2.1,3.732a1.379,1.379,0,0,0-.987.291.588.588,0,0,0,.039.9.876.876,0,0,0,.573.021c.367-.07,1.491-.188,1.857-.258C3.11,5.05,1.876,5.457,1.4,5.817a1.124,1.124,0,0,0-.5.606c-.17.828.945.867,1.437.673.347-.137,1.939-1.152,1.939-1.152C4.154,5.757,2.536,9.9,3.729,10.52Z" transform="translate(16.847 14.765)"/><path class="aa" d="M0,20.255A79.45,79.45,0,0,1,34.074,0" transform="translate(21.315 0)"/></g></g><g transform="translate(2961.78 53.635) rotate(140)"><path class="az" d="M1397.237,388.652a29.509,29.509,0,0,0,11.431,18.073"/><path class="ba" d="M1419.851,400.077a50.6,50.6,0,0,0,13.6,15.83"/><path class="az" d="M1416.016,426.68l4.626,4.707"/><path class="bb" d="M1382.78,419.266a31.5,31.5,0,0,0,8.645,10"/><path class="ba" d="M1440.7,437.337a87.712,87.712,0,0,0,14.13,9.793"/><path class="az" d="M1464.192,424.466l8.454,6.286"/></g><g class="bc"><g transform="matrix(0.53, 0.848, -0.848, 0.53, 1762.58, 660.727)"><g transform="translate(0 24.529)"><path class="r" d="M28.957,15.367A182.051,182.051,0,0,0,14.428,3.906,25.189,25.189,0,0,0,9.285.726C6.723-.336,3.438-.383,1.506,1.606a6.016,6.016,0,0,0-1.43,5.05,10.9,10.9,0,0,0,2.263,4.883A34,34,0,0,0,9.1,17.809q7.564,5.731,15.663,10.706a57.941,57.941,0,0,0,12.6,6.2c5.455,1.732,11.242,2.058,16.957,2.372,1.261.069,2.712.063,3.542-.889-.062.072-5.8-2.288-6.472-2.485a15.736,15.736,0,0,1-4.579-2.244A85.257,85.257,0,0,1,35.234,21.4C33.167,19.364,31.109,17.315,28.957,15.367Z" transform="translate(0 0)"/><path class="bd" d="M0,0,6.537,4.6C11.167,7.855,15.8,11.113,20.256,14.6c4.724,3.7,9.263,7.672,14.36,10.84s10.874,5.53,16.874,5.6" transform="translate(4.4 5.874)"/><path class="bd" d="M4.451,0A7.73,7.73,0,0,0,5.667,1.911,10.8,10.8,0,0,1,7.652,6.951,28.135,28.135,0,0,1,0,5.64" transform="translate(4.557 4.561)"/><path class="bd" d="M4.45,0A7.743,7.743,0,0,0,5.667,1.911,10.8,10.8,0,0,1,7.652,6.951,28.133,28.133,0,0,1,0,5.639" transform="translate(10.999 8.919)"/><path class="bd" d="M4.451,0A7.753,7.753,0,0,0,5.667,1.911a10.8,10.8,0,0,1,1.984,5.04A28.135,28.135,0,0,1,0,5.639" transform="translate(17.395 13.884)"/><path class="bd" d="M4.45,0A7.751,7.751,0,0,0,5.667,1.911a10.8,10.8,0,0,1,1.985,5.04A28.117,28.117,0,0,1,0,5.639" transform="translate(23.618 18.507)"/><path class="be" d="M4.42,0A7.679,7.679,0,0,0,5.629,1.9,10.729,10.729,0,0,1,7.6,6.9,27.934,27.934,0,0,1,0,5.6" transform="translate(29.624 23.35)"/><path class="bf" d="M2.694,0A5.73,5.73,0,0,0,3.777,1.277,7.983,7.983,0,0,1,5.735,4.77,20.806,20.806,0,0,1,0,4.575" transform="translate(37.49 28.834)"/></g><g transform="translate(9.365 0)"><path class="v" d="M28.226,26.613A211.758,211.758,0,0,0,16.968,8.265a29.305,29.305,0,0,0-4.337-5.537C10.261.539,6.693-.831,3.786.564A7,7,0,0,0,.2,5.5,12.689,12.689,0,0,0,.7,11.743,39.563,39.563,0,0,0,5.573,21.3q5.955,9.295,12.8,17.978a67.394,67.394,0,0,0,11.26,11.83c5.26,4.081,11.445,6.762,17.558,9.4,1.349.582,2.935,1.158,4.224.452-.1.053-5.415-4.828-6.068-5.312a18.3,18.3,0,0,1-4.1-4.289A99.166,99.166,0,0,1,32.655,35.72C31.216,32.666,29.793,29.6,28.226,26.613Z" transform="translate(0 0)"/><path class="bg" d="M0,0,5.29,7.645c3.746,5.415,7.5,10.833,10.957,16.434,3.671,5.938,7.031,12.1,11.322,17.6s9.649,10.4,16.171,12.893" transform="translate(5.231 6.386)"/><path class="bg" d="M7.124,0a9.016,9.016,0,0,0,.561,2.575,12.561,12.561,0,0,1,.142,6.3A32.734,32.734,0,0,1,0,4.369" transform="translate(3.664 6.803)"/><path class="bg" d="M7.124,0a9.006,9.006,0,0,0,.561,2.575,12.564,12.564,0,0,1,.142,6.3A32.723,32.723,0,0,1,0,4.369" transform="translate(8.946 14.148)"/><path class="bg" d="M7.124,0a9.019,9.019,0,0,0,.561,2.575,12.56,12.56,0,0,1,.142,6.3A32.723,32.723,0,0,1,0,4.369" transform="translate(13.935 22.136)"/><path class="bg" d="M7.123,0a9.016,9.016,0,0,0,.561,2.575,12.566,12.566,0,0,1,.142,6.3A32.733,32.733,0,0,1,0,4.369" transform="translate(18.872 29.683)"/><path class="bh" d="M7.075,0a8.95,8.95,0,0,0,.557,2.558,12.48,12.48,0,0,1,.141,6.256A32.509,32.509,0,0,1,0,4.339" transform="translate(23.498 37.37)"/><path class="bi" d="M4.779,0a6.671,6.671,0,0,0,.669,1.829,9.285,9.285,0,0,1,.735,4.6A24.179,24.179,0,0,1,0,3.912" transform="translate(30.294 45.823)"/></g></g></g><g class="bj"><g transform="translate(534.246 574.513) rotate(155)"><g transform="translate(375.663 -28.857)"><path class="r" d="M405.127-6.73A185.254,185.254,0,0,1,390.343,4.932a25.631,25.631,0,0,1-5.233,3.235c-2.606,1.081-5.949,1.129-7.915-.9a6.121,6.121,0,0,1-1.455-5.139,11.094,11.094,0,0,1,2.3-4.968,34.593,34.593,0,0,1,6.884-6.379q7.7-5.832,15.937-10.893a58.955,58.955,0,0,1,12.817-6.31c5.551-1.762,11.438-2.094,17.253-2.413,1.283-.07,2.759-.064,3.6.9-.064-.073-5.9,2.328-6.586,2.528a16.011,16.011,0,0,0-4.659,2.284,86.75,86.75,0,0,0-11.78,10.246C409.411-10.8,407.316-8.713,405.127-6.73Z" transform="translate(-375.663 28.857)"/><path class="bd" d="M386.934,3.226l6.652-4.678c4.711-3.314,9.425-6.629,13.959-10.182,4.807-3.766,9.425-7.807,14.611-11.03s11.064-5.627,17.169-5.7" transform="translate(-382.457 28.56)"/><path class="bd" d="M391.865,43.794A7.864,7.864,0,0,1,393.1,41.85a10.994,10.994,0,0,0,2.019-5.129,28.627,28.627,0,0,0-7.786,1.335" transform="translate(-382.699 -10.672)"/><path class="bd" d="M408.366,32.631a7.878,7.878,0,0,1,1.238-1.944,10.993,10.993,0,0,0,2.019-5.129,28.625,28.625,0,0,0-7.786,1.335" transform="translate(-392.647 -3.943)"/><path class="bd" d="M424.751,19.914a7.888,7.888,0,0,1,1.238-1.944,10.991,10.991,0,0,0,2.019-5.128,28.628,28.628,0,0,0-7.786,1.335" transform="translate(-402.523 3.723)"/><path class="bd" d="M440.693,8.071a7.887,7.887,0,0,1,1.238-1.944A10.99,10.99,0,0,0,443.951,1a28.609,28.609,0,0,0-7.786,1.335" transform="translate(-412.133 10.862)"/><path class="be" d="M456.047-4.264a7.814,7.814,0,0,1,1.23-1.931,10.917,10.917,0,0,0,2.005-5.094,28.424,28.424,0,0,0-7.732,1.326" transform="translate(-421.407 18.268)"/><path class="bf" d="M474.439-15.215a5.83,5.83,0,0,1,1.1-1.3,8.123,8.123,0,0,0,1.992-3.553,21.17,21.17,0,0,0-5.835.2" transform="translate(-433.552 23.64)"/></g><g transform="translate(385.192 -28.498)"><path class="v" d="M428.373,7.332A215.463,215.463,0,0,1,416.918,26a29.817,29.817,0,0,1-4.413,5.634c-2.411,2.227-6.042,3.621-9,2.2a7.121,7.121,0,0,1-3.652-5.026,12.911,12.911,0,0,1,.518-6.348,40.255,40.255,0,0,1,4.954-9.729q6.059-9.457,13.022-18.293A68.574,68.574,0,0,1,429.8-17.6c5.352-4.153,11.646-6.88,17.866-9.564,1.372-.592,2.987-1.179,4.3-.46-.1-.054-5.509,4.912-6.174,5.405a18.619,18.619,0,0,0-4.169,4.364A100.9,100.9,0,0,0,432.88-1.934C431.416,1.173,429.967,4.289,428.373,7.332Z" transform="translate(-399.653 27.952)"/><path class="bg" d="M413.052,28.422l5.382-7.778c3.812-5.51,7.626-11.022,11.149-16.721,3.735-6.042,7.154-12.308,11.52-17.91s9.818-10.586,16.454-13.119" transform="translate(-407.73 27.442)"/><path class="bg" d="M416.288,97.919a9.172,9.172,0,0,1,.57-2.62A12.78,12.78,0,0,0,417,88.89a33.306,33.306,0,0,0-7.963,4.584" transform="translate(-405.311 -42.48)"/><path class="bg" d="M429.818,79.1a9.165,9.165,0,0,1,.571-2.62,12.784,12.784,0,0,0,.144-6.409,33.294,33.294,0,0,0-7.963,4.584" transform="translate(-413.467 -31.138)"/><path class="bg" d="M442.6,58.642a9.176,9.176,0,0,1,.57-2.62,12.78,12.78,0,0,0,.145-6.409,33.3,33.3,0,0,0-7.963,4.584" transform="translate(-421.17 -18.803)"/><path class="bg" d="M455.244,39.31a9.175,9.175,0,0,1,.571-2.62,12.786,12.786,0,0,0,.145-6.41A33.307,33.307,0,0,0,448,34.864" transform="translate(-428.794 -7.15)"/><path class="bh" d="M467.045,19.711a9.1,9.1,0,0,1,.567-2.6,12.7,12.7,0,0,0,.143-6.366,33.078,33.078,0,0,0-7.909,4.553" transform="translate(-435.937 4.627)"/><path class="bi" d="M482.118,1.744a6.788,6.788,0,0,1,.68-1.861,9.448,9.448,0,0,0,.748-4.679,24.6,24.6,0,0,0-6.29,2.559" transform="translate(-446.432 13.994)"/></g></g></g><g class="bk"><g transform="translate(1465.741 729.525) rotate(-15)"><g transform="translate(0.269)"><path class="af" d="M168.971,345.854a9.829,9.829,0,0,1-1.883-7.4,2.8,2.8,0,0,1,1.419-2.207c.947-.387,2,.155,2.873.681a3.667,3.667,0,0,1,2.017-3.147,4.53,4.53,0,0,1,4.956,1.038,8.221,8.221,0,0,1,2.172,4.83c.483,3.467.443,7.36-1.549,10.239-.534.772-1.852,1.965-5.38.069A13.782,13.782,0,0,1,168.971,345.854Z" transform="translate(-166.953 -333.415)"/><path class="ag" d="M165.564,348.565a53.2,53.2,0,0,0,2.211,5.779c1.541,3.416,3.635,6.854,7,8.5" transform="translate(-160.577 -344.52)"/><path class="ah" d="M189.362,352.706l3.757,1.7c.07.031.162.059.214,0a.189.189,0,0,0,.038-.092l.931-4.258" transform="translate(-186.457 -345.613)"/><path class="ah" d="M187.6,346.212c-.373,2.978-.767,6.027-2.145,8.693a14.576,14.576,0,0,1-5.3-2.289" transform="translate(-177.298 -342.795)"/><path class="ah" d="M177.861,374.872l4.664.92a27.83,27.83,0,0,0,1.157-4.734" transform="translate(-172.766 -361.007)"/></g><g transform="translate(0 15.166)"><path class="ai" d="M166.7,396.469a12.461,12.461,0,0,0,8.805,12.108,11.19,11.19,0,0,1-7.022-.693,17.217,17.217,0,0,1-5.755-4.206" transform="translate(-160.274 -394.8)"/><path class="ai" d="M177.953,419.338a5.413,5.413,0,0,1-.719-5.591" transform="translate(-166.475 -407.465)"/><path class="ai" d="M193.978,406.134a5.051,5.051,0,0,1-1.567-1.427l-1.263-1.529a4.1,4.1,0,0,1-.991-1.7" transform="translate(-186.076 -398.472)"/><path class="ai" d="M193.691,438.007a6.178,6.178,0,0,1-1.143.288,5.466,5.466,0,0,1-1.673-.125,23.851,23.851,0,0,1-3.933-1.11" transform="translate(-184.931 -424.553)"/><path class="aj" d="M173.878,406.968a1.3,1.3,0,1,0,1.67-.77A1.3,1.3,0,0,0,173.878,406.968Z" transform="translate(-164.128 -401.872)"/><path class="aj" d="M189.791,391.069a1.3,1.3,0,1,0,1.67-.77A1.3,1.3,0,0,0,189.791,391.069Z" transform="translate(-184.29 -390.218)"/><path class="aj" d="M200.2,398.874a1.3,1.3,0,1,0,1.67-.77A1.3,1.3,0,0,0,200.2,398.874Z" transform="translate(-197.476 -395.939)"/><path class="aj" d="M205.381,418.351a1.3,1.3,0,1,0,1.67-.77A1.3,1.3,0,0,0,205.381,418.351Z" transform="translate(-204.043 -410.216)"/><path class="aj" d="M210.091,432.062a1.3,1.3,0,1,0,1.67-.77A1.3,1.3,0,0,0,210.091,432.062Z" transform="translate(-210.01 -420.266)"/></g><path class="ak" d="M79.591,384.638a76.829,76.829,0,0,0,10.839,44.721c3.078,5.085,6.85,9.9,11.84,13.128" transform="translate(-64.799 -370.961)"/><g transform="translate(14.494 7.61)"><path class="al" d="M124.254,372.8a7.845,7.845,0,0,0,2.849-5.391,2.236,2.236,0,0,0-.687-1.978,2.7,2.7,0,0,0-2.356-.011,2.927,2.927,0,0,0-.975-2.82,3.615,3.615,0,0,0-4.039-.124,6.56,6.56,0,0,0-2.59,3.339c-1.025,2.6-1.724,5.626-.719,8.233.27.7,1.068,1.872,4.16,1.063A11,11,0,0,0,124.254,372.8Z" transform="translate(-113.701 -361.919)"/><path class="am" d="M138.5,376.188a42.412,42.412,0,0,1-2.8,4.069c-1.836,2.361-4.1,4.635-7.025,5.281" transform="translate(-128.674 -372.378)"/><path class="an" d="M128.176,378.32l-3.233.611c-.06.012-.137.016-.167-.037a.148.148,0,0,1-.013-.078l.077-3.477" transform="translate(-117.308 -371.755)"/><path class="an" d="M126.847,370.629a20.447,20.447,0,0,0,.034,7.146,11.628,11.628,0,0,0,4.54-.781" transform="translate(-121.029 -368.303)"/><path class="an" d="M139.765,393.522l-3.79-.161a22.206,22.206,0,0,1-.01-3.889" transform="translate(-131.867 -382.115)"/></g><g transform="translate(25.516 38.825)"><path class="al" d="M81.586,491.737a10.812,10.812,0,0,0,1.181-8.321,3.082,3.082,0,0,0-1.814-2.246c-1.081-.311-2.164.406-3.061,1.085a4.034,4.034,0,0,0-2.579-3.2,4.984,4.984,0,0,0-5.3,1.723,9.043,9.043,0,0,0-1.8,5.539c-.117,3.849.389,8.1,2.908,11.014.676.781,2.258,1.93,5.893-.562A15.163,15.163,0,0,0,81.586,491.737Z" transform="translate(-68.199 -478.824)"/><path class="ao" d="M98.316,494.124a58.5,58.5,0,0,1-1.733,6.583c-1.28,3.919-3.162,7.927-6.649,10.127" transform="translate(-89.171 -490.039)"/><path class="ap" d="M85.768,499.337l-3.908,2.3c-.073.043-.17.084-.234.029a.2.2,0,0,1-.052-.1l-1.523-4.546" transform="translate(-73.984 -492.165)"/><path class="ap" d="M78.647,493.912c.761,3.213,1.553,6.5,3.377,9.253a16.03,16.03,0,0,0,5.525-3.131" transform="translate(-75.39 -489.884)"/><path class="ap" d="M92.834,524.837,87.843,526.4a30.623,30.623,0,0,1-1.827-5.041" transform="translate(-82.642 -510)"/></g><g transform="translate(15.296 14.728)"><path class="af" d="M98.008,403.064a9.831,9.831,0,0,0,6.327-4.282,2.8,2.8,0,0,0,.406-2.593c-.45-.919-1.595-1.21-2.6-1.4a3.668,3.668,0,0,0,.584-3.692,4.531,4.531,0,0,0-4.394-2.518,8.22,8.22,0,0,0-4.832,2.166c-2.665,2.27-5.222,5.206-5.646,8.681-.114.932.078,2.7,3.974,3.627A13.784,13.784,0,0,0,98.008,403.064Z" transform="translate(-84.993 -388.574)"/><path class="ag" d="M117.516,411.96a53.131,53.131,0,0,1-5.493,2.85c-3.421,1.529-7.271,2.706-10.881,1.7" transform="translate(-101.143 -405.716)"/><path class="ah" d="M107,411.226,103.062,410c-.073-.023-.16-.063-.163-.14a.185.185,0,0,1,.032-.094l2.134-3.8" transform="translate(-91.092 -401.32)"/><path class="ah" d="M113.731,396.973c-1.7,2.473-3.432,5.014-4.173,7.922a14.567,14.567,0,0,0,5.481,1.812" transform="translate(-100.913 -394.73)"/><path class="ah" d="M129.98,420.733l-4.1-2.411a27.842,27.842,0,0,1,2.281-4.307" transform="translate(-120.213 -407.222)"/></g><g transform="translate(2.449 29.235)"><path class="al" d="M166.43,454.388a7.845,7.845,0,0,1-4.2-4.42,2.236,2.236,0,0,1,.127-2.09,2.7,2.7,0,0,1,2.266-.647,2.927,2.927,0,0,1,.176-2.978,3.615,3.615,0,0,1,3.855-1.211,6.559,6.559,0,0,1,3.4,2.515c1.689,2.225,3.18,4.951,2.917,7.732-.071.746-.522,2.091-3.718,2.148A11,11,0,0,1,166.43,454.388Z" transform="translate(-162.035 -442.909)"/><path class="am" d="M153.758,459.676a42.317,42.317,0,0,0,3.794,3.161c2.405,1.777,5.2,3.353,8.191,3.186" transform="translate(-150.571 -455.199)"/><path class="an" d="M186.773,460.311l3.277-.285c.061-.005.136-.022.151-.081a.15.15,0,0,0-.009-.078l-1.013-3.327" transform="translate(-183.847 -452.9)"/><path class="an" d="M181.277,450.27a20.449,20.449,0,0,1,1.9,6.889,11.626,11.626,0,0,1-4.583.475" transform="translate(-174.635 -448.305)"/><path class="an" d="M170.51,471.6l3.606-1.179a22.206,22.206,0,0,0-1.042-3.747" transform="translate(-163.417 -460.327)"/></g><g transform="translate(16.107 61.001)"><path class="al" d="M113.857,573.213a7.845,7.845,0,0,1-5.629-2.343,2.236,2.236,0,0,1-.73-1.963c.206-.79,1.054-1.2,1.81-1.509a2.926,2.926,0,0,1-1.044-2.795,3.615,3.615,0,0,1,3.036-2.667,6.561,6.561,0,0,1,4.123.926c2.445,1.352,4.911,3.241,5.8,5.891.237.711.368,2.123-2.532,3.468A11,11,0,0,1,113.857,573.213Z" transform="translate(-107.454 -561.879)"/><path class="am" d="M99.527,582.177a42.441,42.441,0,0,0,4.748,1.356c2.919.652,6.117.961,8.78-.4" transform="translate(-97.061 -576.757)"/><path class="an" d="M135.45,580.481l2.882-1.587c.053-.029.115-.075.1-.135a.147.147,0,0,0-.04-.068l-2.273-2.633" transform="translate(-132.035 -572.272)"/><path class="an" d="M125.224,568.34a20.444,20.444,0,0,1,4.523,5.532,11.626,11.626,0,0,1-4,2.288" transform="translate(-120.614 -566.615)"/><path class="an" d="M115.956,584.313l2.82-2.537a22.229,22.229,0,0,0-2.469-3.005" transform="translate(-107.169 -574.26)"/></g><g transform="translate(3.768 43.841)"><path class="af" d="M148.545,512.1a9.83,9.83,0,0,1-6.338-4.266,2.8,2.8,0,0,1-.413-2.591c.447-.92,1.591-1.214,2.6-1.407a3.667,3.667,0,0,1-.594-3.691,4.53,4.53,0,0,1,4.387-2.529,8.219,8.219,0,0,1,4.838,2.154c2.671,2.263,5.235,5.192,5.668,8.666.116.932-.071,2.7-3.965,3.637A13.782,13.782,0,0,1,148.545,512.1Z" transform="translate(-141.617 -497.61)"/><path class="ag" d="M130.986,521.023a53.149,53.149,0,0,0,5.5,2.836c3.425,1.52,7.277,2.687,10.885,1.672" transform="translate(-127.438 -514.772)"/><path class="ah" d="M175.228,520.27l3.932-1.239c.073-.023.16-.064.162-.14a.184.184,0,0,0-.033-.094L177.145,515" transform="translate(-171.201 -510.358)"/><path class="ah" d="M164.653,506c1.707,2.469,3.445,5,4.194,7.911a14.575,14.575,0,0,1-5.477,1.826" transform="translate(-157.56 -503.761)"/><path class="ah" d="M152.222,529.719l4.09-2.422a27.823,27.823,0,0,0-2.293-4.3" transform="translate(-142.049 -516.218)"/></g><g transform="translate(16.231 27.239)"><path class="aq" d="M124.793,440.658a11.311,11.311,0,0,1-.7,13.57,10.159,10.159,0,0,0,5-4,15.628,15.628,0,0,0,2.295-6.049" transform="translate(-122.073 -439.263)"/><path class="aq" d="M146.373,466.452a4.912,4.912,0,0,0-2.222-4.608" transform="translate(-142.447 -454.792)"/><path class="aq" d="M139.06,445.56a4.585,4.585,0,0,0,.485-1.861l.2-1.789a3.718,3.718,0,0,0-.088-1.783" transform="translate(-134.499 -438.874)"/><path class="aq" d="M116.113,467.413a5.609,5.609,0,0,0,1.012-.347,4.968,4.968,0,0,0,1.211-.924,21.643,21.643,0,0,0,2.442-2.792" transform="translate(-109.336 -455.897)"/><path class="aj" d="M152.009,455.95a1.18,1.18,0,1,1-1.651.241A1.18,1.18,0,0,1,152.009,455.95Z" transform="translate(-150.123 -450.301)"/><path class="aj" d="M147.779,435.977a1.18,1.18,0,1,1-1.651.241A1.18,1.18,0,0,1,147.779,435.977Z" transform="translate(-144.764 -435.66)"/><circle class="aj" cx="1.18" cy="1.18" r="1.18" transform="translate(6.242 2.944) rotate(-163.121)"/><path class="aj" d="M122.41,449.007a1.18,1.18,0,1,1-1.651.241A1.18,1.18,0,0,1,122.41,449.007Z" transform="translate(-112.622 -445.211)"/><path class="aj" d="M112.039,457.1a1.18,1.18,0,1,1-1.651.241A1.18,1.18,0,0,1,112.039,457.1Z" transform="translate(-99.481 -451.146)"/></g></g></g></g></g></svg>
