<svg xmlns="http://www.w3.org/2000/svg" width="19.037" height="22.654" viewBox="0 0 19.037 22.654"><path d="M19.916,43.971a4.722,4.722,0,0,1,2.529-4.289,5.434,5.434,0,0,0-4.284-2.256c-1.8-.142-3.758,1.047-4.476,1.047-.759,0-2.5-1-3.864-1C7,37.523,4,39.728,4,44.214a12.606,12.606,0,0,0,.728,4.107c.647,1.856,2.984,6.408,5.422,6.332,1.275-.03,2.175-.905,3.834-.905,1.608,0,2.443.905,3.864.905,2.458-.035,4.572-4.173,5.189-6.034A5.014,5.014,0,0,1,19.916,43.971Zm-2.863-8.3A4.764,4.764,0,0,0,18.268,32a5.363,5.363,0,0,0-3.434,1.765A4.838,4.838,0,0,0,13.539,37.4,4.248,4.248,0,0,0,17.054,35.667Z" transform="translate(-4 -32)" fill="#fff" opacity="0.8"/></svg>