<svg xmlns="http://www.w3.org/2000/svg" width="17.886" height="17.886" viewBox="0 0 17.886 17.886"><defs><style>.a{fill:none;stroke:#7f8498;stroke-linecap:round;stroke-linejoin:round;stroke-width:1.333px;}</style></defs><g transform="translate(0.276 0.276)"><path class="a" d="M12.987,13.122a7.183,7.183,0,0,1-4.32,1.545c-5.091,0-8-6-8-6a13.734,13.734,0,0,1,3.68-4.455M7.139,2.847a6.441,6.441,0,0,1,1.527-.18c5.091,0,8,6,8,6A13.907,13.907,0,0,1,15.1,11.059m-4.887-.8a2.14,2.14,0,0,1-2.136.646A2.217,2.217,0,0,1,6.5,9.28a2.3,2.3,0,0,1,.627-2.2" transform="translate(0 0)"/><path class="a" d="M.667.667l16,16"/></g></svg>