<svg xmlns="http://www.w3.org/2000/svg" width="58.617" height="58.617" viewBox="0 0 58.617 58.617"><defs><style>.a{fill:#fff;}</style></defs><path class="a" d="M66.617,37.308A29.308,29.308,0,1,1,37.308,8,29.3,29.3,0,0,1,66.617,37.308Zm-16.97-3.415L41.09,42.815V21.236A2.829,2.829,0,0,0,38.254,18.4H36.363a2.829,2.829,0,0,0-2.836,2.836V42.815L24.97,33.893a2.839,2.839,0,0,0-4.054-.047l-1.288,1.3a2.825,2.825,0,0,0,0,4.006L35.3,54.834a2.825,2.825,0,0,0,4.006,0L54.988,39.152a2.825,2.825,0,0,0,0-4.006l-1.288-1.3a2.839,2.839,0,0,0-4.054.047Z" transform="translate(-8 -8)"/></svg>