<svg xmlns="http://www.w3.org/2000/svg" width="138.217" height="45.824" viewBox="0 0 138.217 45.824"><g transform="translate(-605.783 -402)"><path d="M8.994,5.459V16H-1.217Z" transform="translate(607 397)" fill="#cf3338"/><path d="M-1.217,5.459V16H8.994Z" transform="translate(735 397)" fill="#cf3338"/><rect width="118" height="37" transform="translate(616 402)" fill="#e8454b"/><path d="M0,.31S7.012,2.751,22.717,2.86c10.522,0,19.748-5.2,35.1-5.535C70.935-2.961,71.237,2.28,84.848,2.86c7.926.337,19.128-5.046,28.1-5.535A71.675,71.675,0,0,1,138,.31V11.425H0Z" transform="translate(606 436)" fill="#fff"/><path d="M-27.391-4.719a2.157,2.157,0,0,0,1.222-2.028c0-1.469-1.17-2.353-3.263-2.353h-4.082V0h4.342c2.3,0,3.484-.9,3.484-2.457A2.2,2.2,0,0,0-27.391-4.719Zm-2.158-3.328c1.326,0,2.08.494,2.08,1.456s-.754,1.456-2.08,1.456h-2.665V-8.047Zm.325,6.994h-2.99V-4.082h2.99c1.443,0,2.223.468,2.223,1.521S-27.781-1.053-29.224-1.053Zm11.6-2.353a3.322,3.322,0,0,0-3.406-3.549,3.374,3.374,0,0,0-3.458,3.51,3.449,3.449,0,0,0,3.7,3.523A3.458,3.458,0,0,0-18.07-1.04l-.689-.806a2.573,2.573,0,0,1-1.989.832,2.334,2.334,0,0,1-2.5-2.015h5.59C-17.641-3.146-17.628-3.3-17.628-3.406Zm-3.406-2.5a2.149,2.149,0,0,1,2.21,1.976h-4.42A2.148,2.148,0,0,1-21.034-5.9Zm7.111,5.98c1.833,0,2.977-.793,2.977-2.041,0-2.678-4.368-1.352-4.368-2.977,0-.546.533-.949,1.625-.949a3.6,3.6,0,0,1,1.989.546l.533-.988a5.014,5.014,0,0,0-2.509-.624c-1.768,0-2.873.832-2.873,2.067,0,2.743,4.355,1.4,4.355,2.951,0,.585-.481.936-1.638.936a4.428,4.428,0,0,1-2.418-.715l-.52.988A4.973,4.973,0,0,0-13.923.078ZM-5.9-1.3a1.572,1.572,0,0,1-.975.325A1.015,1.015,0,0,1-7.956-2.132V-5.863H-5.98V-6.89H-7.956V-8.4H-9.2V-6.89h-1.17v1.027H-9.2V-2.08A1.966,1.966,0,0,0-7.02.078,2.354,2.354,0,0,0-5.512-.4ZM2.327.1C4.732.1,5.85-1.092,5.85-2.483,5.85-5.824.338-4.433.338-6.656.338-7.449,1-8.1,2.548-8.1a4.7,4.7,0,0,1,2.5.741L5.473-8.4A5.354,5.354,0,0,0,2.548-9.2C.156-9.2-.936-8.008-.936-6.6c0,3.38,5.512,1.976,5.512,4.2C4.576-1.612,3.9-1,2.327-1a4.684,4.684,0,0,1-3-1.053L-1.157-1.04A5.4,5.4,0,0,0,2.327.1Zm11.466-3.51a3.322,3.322,0,0,0-3.406-3.549,3.374,3.374,0,0,0-3.458,3.51A3.449,3.449,0,0,0,10.634.078,3.458,3.458,0,0,0,13.351-1.04l-.689-.806a2.573,2.573,0,0,1-1.989.832,2.334,2.334,0,0,1-2.5-2.015h5.59C13.78-3.146,13.793-3.3,13.793-3.406ZM10.387-5.9A2.149,2.149,0,0,1,12.6-3.926H8.177A2.148,2.148,0,0,1,10.387-5.9ZM15.522,0H16.77V-9.646H15.522Zm3.627,0H20.4V-9.646H19.149ZM29-3.406A3.322,3.322,0,0,0,25.6-6.955a3.374,3.374,0,0,0-3.458,3.51,3.449,3.449,0,0,0,3.7,3.523A3.458,3.458,0,0,0,28.561-1.04l-.689-.806a2.573,2.573,0,0,1-1.989.832,2.334,2.334,0,0,1-2.5-2.015h5.59C28.99-3.146,29-3.3,29-3.406ZM25.6-5.9a2.149,2.149,0,0,1,2.21,1.976h-4.42A2.148,2.148,0,0,1,25.6-5.9Zm6.331.169V-6.89h-1.2V0H31.98V-3.432a2.056,2.056,0,0,1,2.171-2.327,2.2,2.2,0,0,1,.286.013V-6.955A2.63,2.63,0,0,0,31.928-5.733Z" transform="translate(676 425)" fill="#fff"/><path d="M611.52,447.824s6.738-10.7,16.7-10.607,14.832,4.854,28.818,2.843a198.029,198.029,0,0,0,27.037-6.081s6.422-3.372,25.582,3.238,34.256-8.5,34.256-2.345a54.013,54.013,0,0,1-1.992,12.952Z" transform="translate(-3)" fill="#fff" opacity="0.6"/><path d="M1,0A1,1,0,1,1,0,1,1,1,0,0,1,1,0Z" transform="translate(619 408)" fill="#fff" opacity="0.71"/><path d="M1,0A1,1,0,1,1,0,1,1,1,0,0,1,1,0Z" transform="translate(681 409)" fill="#fff" opacity="0.71"/><path d="M1,0A1,1,0,1,1,0,1,1,1,0,0,1,1,0Z" transform="translate(698 430)" fill="#fff" opacity="0.22"/><path d="M1,0A1,1,0,1,1,0,1,1,1,0,0,1,1,0Z" transform="translate(644 432)" fill="#fff" opacity="0.35"/><path d="M.5,0A.5.5,0,1,1,0,.5.5.5,0,0,1,.5,0Z" transform="translate(620 433)" fill="#fff" opacity="0.35"/><path d="M.5,0A.5.5,0,1,1,0,.5.5.5,0,0,1,.5,0Z" transform="translate(713 409)" fill="#fff" opacity="0.71"/></g></svg>