<svg xmlns="http://www.w3.org/2000/svg" width="36.537" height="36.902" viewBox="0 0 36.537 36.902"><defs><style>.a{fill:#ff9c39;}</style></defs><path class="a" d="M38.537,8.925,30.134,1.8,27.759,4.54l8.4,7.125Zm-25.759-4.2L10.4,1.983,2,8.925l2.375,2.74,8.4-6.942Zm7.49,1.1A16.442,16.442,0,1,0,36.71,22.261,16.373,16.373,0,0,0,20.269,5.819Zm0,29.23A12.788,12.788,0,1,1,33.057,22.261,12.709,12.709,0,0,1,20.269,35.049Z" transform="translate(-2 -1.8)"/><path class="a" d="M53.732,35.55h-2.74V46.511l8.586,5.3,1.461-2.192-7.307-4.384Z" transform="translate(-34.55 -24.224)"/></svg>