<svg id="组件_63_1" data-name="组件 63 – 1" xmlns="http://www.w3.org/2000/svg" xmlns:xlink="http://www.w3.org/1999/xlink" width="41.145" height="32" viewBox="0 0 41.145 32">
  <defs>
    <linearGradient id="linear-gradient" y1="0.468" x2="1" y2="0.471" gradientUnits="objectBoundingBox">
      <stop offset="0" stop-color="#ffe047"/>
      <stop offset="0.456" stop-color="#ff6388"/>
      <stop offset="1" stop-color="#1d34ff"/>
    </linearGradient>
  </defs>
  <path id="路径_1506" data-name="路径 1506" d="M15647.72-4678v-1.141a9.156,9.156,0,0,0-9.151-9.142H15634a9.152,9.152,0,0,0-9.142,9.142V-4678h-3.429v-2.286a11.443,11.443,0,0,1,11.436-11.426h6.853a11.443,11.443,0,0,1,11.431,11.426V-4678Zm-33.146-13.146V-4694h-2.865a1.711,1.711,0,0,1-1.708-1.714,1.711,1.711,0,0,1,1.708-1.714h2.865v-2.859a1.705,1.705,0,0,1,1.709-1.71,1.713,1.713,0,0,1,1.72,1.71v2.859h2.853a1.714,1.714,0,0,1,1.714,1.714,1.714,1.714,0,0,1-1.714,1.714H15618v2.854a1.717,1.717,0,0,1-1.72,1.719A1.71,1.71,0,0,1,15614.573-4691.146Zm12.57-9.707a9.153,9.153,0,0,1,9.141-9.146,9.15,9.15,0,0,1,9.141,9.146,9.145,9.145,0,0,1-9.141,9.137A9.148,9.148,0,0,1,15627.144-4700.854Zm3.427,0a5.72,5.72,0,0,0,5.714,5.713,5.723,5.723,0,0,0,5.718-5.713,5.724,5.724,0,0,0-5.718-5.717A5.72,5.72,0,0,0,15630.57-4700.854Z" transform="translate(-15610 4710)" fill="url(#linear-gradient)"/>
</svg>
