<svg xmlns="http://www.w3.org/2000/svg" width="70.418" height="70.418" viewBox="0 0 70.418 70.418"><defs><style>.a{fill:#e8454b;}.b{fill:#fff;}</style></defs><g transform="translate(-1239.582 -755)"><path class="a" d="M-3900.582-5223.583-3971-5294h35l35.418,35.418v35Z" transform="translate(5210.582 6049)"/><path class="b" d="M-21.528-9.1v3.757h-4.706V-9.1h-1.69V0h1.69V-3.9h4.706V0h1.69V-9.1Zm7.1,9.191a3.5,3.5,0,0,0,3.7-3.562,3.491,3.491,0,0,0-3.7-3.549,3.494,3.494,0,0,0-3.692,3.549A3.5,3.5,0,0,0-14.43.091Zm0-1.391a2.019,2.019,0,0,1-2.054-2.171A2.019,2.019,0,0,1-14.43-5.642a2.022,2.022,0,0,1,2.067,2.171A2.022,2.022,0,0,1-14.43-1.3Zm8.983-.234a1.461,1.461,0,0,1-.91.286c-.624,0-.962-.364-.962-1.04v-3.3H-5.46v-1.3H-7.319V-8.476H-8.944V-6.89h-1.144v1.3h1.144v3.341A2.133,2.133,0,0,0-6.552.091a2.553,2.553,0,0,0,1.56-.468ZM.091,0H4.069C7.02,0,9.035-1.82,9.035-4.55S7.02-9.1,4.069-9.1H.091Zm1.69-1.43V-7.67h2.21A3.038,3.038,0,0,1,7.332-4.55,3.038,3.038,0,0,1,3.991-1.43Zm15.418-2a3.385,3.385,0,0,0-3.51-3.588A3.452,3.452,0,0,0,10.1-3.471,3.525,3.525,0,0,0,13.936.091a3.519,3.519,0,0,0,2.8-1.131l-.871-1a2.488,2.488,0,0,1-1.885.754,2.1,2.1,0,0,1-2.249-1.664h5.447C17.186-3.107,17.2-3.3,17.2-3.432ZM13.689-5.72a1.89,1.89,0,0,1,1.963,1.69H11.713A1.919,1.919,0,0,1,13.689-5.72Zm7.527-1.3a4.881,4.881,0,0,0-2.938.858l.637,1.183a3.437,3.437,0,0,1,2.106-.689c1.157,0,1.729.559,1.729,1.508v.1H20.956c-2.106,0-2.886.91-2.886,2.067,0,1.209,1,2.08,2.587,2.08a2.46,2.46,0,0,0,2.184-.936V0h1.534V-4.069C24.375-6.071,23.218-7.02,21.216-7.02ZM21-1.092c-.832,0-1.326-.377-1.326-.962,0-.507.3-.923,1.4-.923H22.75v.806A1.77,1.77,0,0,1,21-1.092ZM26.455,0H28.08V-9.646H26.455Z" transform="translate(1280.464 784.536) rotate(45)"/></g></svg>