<svg xmlns="http://www.w3.org/2000/svg" width="70.418" height="70.418" viewBox="0 0 70.418 70.418"><defs><style>.a{fill:#ff470d;}.b{fill:#fff;}</style></defs><g transform="translate(-1239.582 -755)"><path class="a" d="M-3900.582-5223.583-3971-5294h35l35.418,35.418v35Z" transform="translate(5210.582 6049)"/><path class="b" d="M3.049-18.207H.112V-19.6h7.52v1.393H4.695v7.469H3.049Zm7.381,7.558a3.836,3.836,0,0,1-1.848-.443A3.231,3.231,0,0,1,7.3-12.327a3.486,3.486,0,0,1-.462-1.791A3.452,3.452,0,0,1,7.3-15.9a3.244,3.244,0,0,1,1.285-1.228,3.836,3.836,0,0,1,1.848-.443,3.862,3.862,0,0,1,1.861.443A3.244,3.244,0,0,1,13.576-15.9a3.452,3.452,0,0,1,.462,1.785,3.486,3.486,0,0,1-.462,1.791,3.231,3.231,0,0,1-1.285,1.234A3.862,3.862,0,0,1,10.43-10.649Zm0-1.355a1.933,1.933,0,0,0,1.443-.582,2.1,2.1,0,0,0,.57-1.532,2.1,2.1,0,0,0-.57-1.532,1.933,1.933,0,0,0-1.443-.582,1.913,1.913,0,0,0-1.437.582,2.11,2.11,0,0,0-.563,1.532,2.11,2.11,0,0,0,.563,1.532A1.913,1.913,0,0,0,10.43-12Zm8.242-5.57a3.589,3.589,0,0,1,1.766.43,3.1,3.1,0,0,1,1.222,1.215,3.619,3.619,0,0,1,.443,1.81,3.655,3.655,0,0,1-.443,1.817,3.093,3.093,0,0,1-1.222,1.222,3.589,3.589,0,0,1-1.766.43,2.729,2.729,0,0,1-2.165-.912v3.279H14.924V-17.5h1.507v.886a2.448,2.448,0,0,1,.968-.722A3.27,3.27,0,0,1,18.672-17.574ZM18.494-12a1.913,1.913,0,0,0,1.437-.582,2.11,2.11,0,0,0,.563-1.532,2.11,2.11,0,0,0-.563-1.532,1.913,1.913,0,0,0-1.437-.582,2.035,2.035,0,0,0-1.025.26,1.876,1.876,0,0,0-.722.741,2.266,2.266,0,0,0-.266,1.114A2.266,2.266,0,0,0,16.747-13a1.876,1.876,0,0,0,.722.741A2.035,2.035,0,0,0,18.494-12ZM32.167-17.5l-2.9,6.76H27.635l-2.9-6.76h1.646l2.1,5.013L30.648-17.5Zm6.52,3.418q0,.165-.025.468h-5.3a1.839,1.839,0,0,0,.728,1.184,2.386,2.386,0,0,0,1.462.437,2.464,2.464,0,0,0,1.836-.734l.848.975a2.858,2.858,0,0,1-1.152.823,4.2,4.2,0,0,1-1.57.279,4.178,4.178,0,0,1-1.962-.443,3.191,3.191,0,0,1-1.31-1.234,3.486,3.486,0,0,1-.462-1.791,3.537,3.537,0,0,1,.449-1.779,3.188,3.188,0,0,1,1.247-1.234,3.638,3.638,0,0,1,1.8-.443,3.547,3.547,0,0,1,1.766.437A3.093,3.093,0,0,1,38.25-15.91,3.724,3.724,0,0,1,38.687-14.08Zm-3.418-2.228a1.909,1.909,0,0,0-1.285.449,1.89,1.89,0,0,0-.639,1.2H37.18a1.866,1.866,0,0,0-.62-1.19A1.887,1.887,0,0,0,35.269-16.308Zm8.14-1.266a2.825,2.825,0,0,1,2.051.747,2.946,2.946,0,0,1,.772,2.215v3.874H44.65v-3.671a1.9,1.9,0,0,0-.418-1.336,1.545,1.545,0,0,0-1.19-.449,1.827,1.827,0,0,0-1.38.525,2.094,2.094,0,0,0-.506,1.513v3.418H39.573V-17.5H41.08v.874a2.474,2.474,0,0,1,.987-.709A3.554,3.554,0,0,1,43.409-17.574Zm8.267,6.469a1.863,1.863,0,0,1-.677.342,3.05,3.05,0,0,1-.842.114,2.389,2.389,0,0,1-1.722-.582,2.241,2.241,0,0,1-.608-1.7v-3.254H46.713v-1.266h1.114v-1.545H49.41v1.545h1.81v1.266H49.41v3.216a1.07,1.07,0,0,0,.241.753.9.9,0,0,0,.7.26,1.39,1.39,0,0,0,.886-.279Zm6.8-2.975q0,.165-.025.468h-5.3a1.839,1.839,0,0,0,.728,1.184,2.386,2.386,0,0,0,1.462.437,2.464,2.464,0,0,0,1.836-.734l.848.975a2.858,2.858,0,0,1-1.152.823,4.2,4.2,0,0,1-1.57.279,4.178,4.178,0,0,1-1.962-.443,3.191,3.191,0,0,1-1.31-1.234,3.486,3.486,0,0,1-.462-1.791,3.537,3.537,0,0,1,.449-1.779,3.188,3.188,0,0,1,1.247-1.234,3.638,3.638,0,0,1,1.8-.443,3.547,3.547,0,0,1,1.766.437,3.093,3.093,0,0,1,1.215,1.228A3.724,3.724,0,0,1,58.474-14.08Zm-3.418-2.228a1.909,1.909,0,0,0-1.285.449,1.89,1.89,0,0,0-.639,1.2h3.836a1.866,1.866,0,0,0-.62-1.19A1.886,1.886,0,0,0,55.056-16.308Z" transform="translate(1252.249 772.237) rotate(45)"/></g></svg>