<svg xmlns="http://www.w3.org/2000/svg" width="70.418" height="70.418" viewBox="0 0 70.418 70.418"><defs><style>.a{fill:#ff470d;}.b{fill:#fff;}</style></defs><g transform="translate(-1239.582 -755)"><path class="a" d="M-3900.582-5223.583-3971-5294h35l35.418,35.418v35Z" transform="translate(5210.582 6049)"/><path class="b" d="M7.861-15.955H9.4v3.5a4.91,4.91,0,0,1-1.582.829,6.069,6.069,0,0,1-1.858.289,5.011,5.011,0,0,1-2.423-.584,4.337,4.337,0,0,1-1.695-1.613,4.44,4.44,0,0,1-.615-2.323,4.44,4.44,0,0,1,.615-2.323,4.326,4.326,0,0,1,1.7-1.613,5.074,5.074,0,0,1,2.442-.584A5.331,5.331,0,0,1,8-20.01a3.942,3.942,0,0,1,1.519,1.067l-1.029,1a3.3,3.3,0,0,0-2.423-1,3.424,3.424,0,0,0-1.651.389,2.838,2.838,0,0,0-1.13,1.092,3.142,3.142,0,0,0-.408,1.607,3.093,3.093,0,0,0,.408,1.582,2.926,2.926,0,0,0,1.13,1.1,3.311,3.311,0,0,0,1.638.4,3.535,3.535,0,0,0,1.808-.452Zm9.4-2.21v6.7H15.77v-.854a2.5,2.5,0,0,1-.942.7,3.029,3.029,0,0,1-1.218.245A2.914,2.914,0,0,1,11.5-12.12a2.947,2.947,0,0,1-.772-2.216v-3.829h1.569v3.616A1.942,1.942,0,0,0,12.7-13.2a1.5,1.5,0,0,0,1.161.446,1.759,1.759,0,0,0,1.337-.521,2.093,2.093,0,0,0,.5-1.5v-3.39Zm5.461,6.34a1.847,1.847,0,0,1-.672.339,3.025,3.025,0,0,1-.835.113,2.369,2.369,0,0,1-1.707-.577,2.223,2.223,0,0,1-.6-1.682v-3.226H17.8v-1.255h1.1v-1.532h1.569v1.532h1.8v1.255h-1.8v3.189a1.061,1.061,0,0,0,.239.747.9.9,0,0,0,.69.257,1.379,1.379,0,0,0,.879-.276Zm6.742-2.95q0,.163-.025.465h-5.26a1.823,1.823,0,0,0,.722,1.174,2.366,2.366,0,0,0,1.45.433,2.444,2.444,0,0,0,1.82-.728l.841.967a2.834,2.834,0,0,1-1.142.816,4.161,4.161,0,0,1-1.557.276,4.143,4.143,0,0,1-1.946-.439,3.164,3.164,0,0,1-1.3-1.224,3.457,3.457,0,0,1-.458-1.776,3.508,3.508,0,0,1,.446-1.764A3.161,3.161,0,0,1,24.294-17.8a3.608,3.608,0,0,1,1.783-.439,3.517,3.517,0,0,1,1.751.433,3.067,3.067,0,0,1,1.205,1.218A3.693,3.693,0,0,1,29.466-14.775Zm-3.39-2.21a1.893,1.893,0,0,0-1.274.446,1.875,1.875,0,0,0-.634,1.186h3.8a1.85,1.85,0,0,0-.615-1.18A1.871,1.871,0,0,0,26.077-16.985Zm7.256-3.264h3.842a5.513,5.513,0,0,1,2.5.546,4.042,4.042,0,0,1,1.695,1.544,4.369,4.369,0,0,1,.6,2.3,4.369,4.369,0,0,1-.6,2.3,4.042,4.042,0,0,1-1.695,1.544,5.513,5.513,0,0,1-2.5.546H33.333ZM37.1-12.842a3.73,3.73,0,0,0,1.7-.37,2.65,2.65,0,0,0,1.13-1.055,3.117,3.117,0,0,0,.4-1.588,3.117,3.117,0,0,0-.4-1.588A2.65,2.65,0,0,0,38.8-18.5a3.73,3.73,0,0,0-1.7-.37H34.965v6.026Zm12.127-1.933q0,.163-.025.465h-5.26a1.823,1.823,0,0,0,.722,1.174,2.366,2.366,0,0,0,1.45.433,2.444,2.444,0,0,0,1.82-.728l.841.967a2.834,2.834,0,0,1-1.142.816,4.161,4.161,0,0,1-1.557.276,4.143,4.143,0,0,1-1.946-.439,3.165,3.165,0,0,1-1.3-1.224,3.457,3.457,0,0,1-.458-1.776,3.508,3.508,0,0,1,.446-1.764A3.161,3.161,0,0,1,44.054-17.8a3.608,3.608,0,0,1,1.783-.439,3.517,3.517,0,0,1,1.751.433,3.067,3.067,0,0,1,1.205,1.218A3.693,3.693,0,0,1,49.227-14.775Zm-3.39-2.21a1.893,1.893,0,0,0-1.274.446,1.875,1.875,0,0,0-.634,1.186h3.8a1.85,1.85,0,0,0-.615-1.18A1.871,1.871,0,0,0,45.837-16.985Zm6.641-1.255a3.269,3.269,0,0,1,2.266.709,2.742,2.742,0,0,1,.785,2.14v3.929H54.047v-.816a1.826,1.826,0,0,1-.822.672,3.214,3.214,0,0,1-1.287.232,3.153,3.153,0,0,1-1.318-.257,2.037,2.037,0,0,1-.873-.716,1.816,1.816,0,0,1-.308-1.036,1.775,1.775,0,0,1,.672-1.45,3.336,3.336,0,0,1,2.115-.546h1.732v-.1a1.374,1.374,0,0,0-.421-1.08,1.82,1.82,0,0,0-1.249-.377,3.606,3.606,0,0,0-1.111.176,2.729,2.729,0,0,0-.923.49l-.615-1.142a3.809,3.809,0,0,1,1.268-.615A5.642,5.642,0,0,1,52.478-18.24Zm-.213,5.725a2.026,2.026,0,0,0,1.048-.27,1.469,1.469,0,0,0,.647-.772v-.778H52.34q-1.356,0-1.356.891a.8.8,0,0,0,.339.678A1.554,1.554,0,0,0,52.265-12.515Zm4.645-8.261h1.569v9.315H56.91Zm5.072,9.4a6,6,0,0,1-1.594-.213,4.011,4.011,0,0,1-1.243-.54l.6-1.193a3.874,3.874,0,0,0,1.086.483,4.512,4.512,0,0,0,1.249.182q1.406,0,1.406-.741a.5.5,0,0,0-.358-.49,6.178,6.178,0,0,0-1.149-.264,9.319,9.319,0,0,1-1.35-.289,2.071,2.071,0,0,1-.9-.571,1.6,1.6,0,0,1-.383-1.136,1.786,1.786,0,0,1,.8-1.525A3.628,3.628,0,0,1,62.3-18.24a6.214,6.214,0,0,1,1.381.157,3.872,3.872,0,0,1,1.13.421l-.6,1.193a3.717,3.717,0,0,0-1.921-.5,2.129,2.129,0,0,0-1.048.207.618.618,0,0,0-.358.546.545.545,0,0,0,.383.534,6.085,6.085,0,0,0,1.186.3,9.154,9.154,0,0,1,1.318.289,2.063,2.063,0,0,1,.885.552,1.54,1.54,0,0,1,.37,1.1,1.748,1.748,0,0,1-.816,1.506A3.848,3.848,0,0,1,61.982-11.373Z" transform="translate(1248.36 769.485) rotate(45)"/></g></svg>