<svg xmlns="http://www.w3.org/2000/svg" width="535.376" height="328.178" viewBox="0 0 535.376 328.178">
  <g id="pic" transform="translate(-57.583 -170.391)">
    <ellipse id="椭圆_988" data-name="椭圆 988" cx="80.762" cy="15.935" rx="80.762" ry="15.935" transform="translate(182.009 457.643)" fill="#104f9b" stroke="rgba(0,0,0,0)" stroke-miterlimit="10" stroke-width="1" opacity="0.3"/>
    <path id="路径_20128" data-name="路径 20128" d="M562.488,388.971H59.978A1.979,1.979,0,0,1,58,386.992h0a1.978,1.978,0,0,1,1.978-1.978h502.51a1.978,1.978,0,0,1,1.978,1.978h0A1.979,1.979,0,0,1,562.488,388.971Z" transform="translate(1.615 81.026)" fill="#d5b4ff" stroke="rgba(0,0,0,0)" stroke-miterlimit="10" stroke-width="1" opacity="0.7"/>
    <g id="组_1737" data-name="组 1737" transform="translate(82.845 224.017)">
      <g id="组_1722" data-name="组 1722" transform="translate(0 105.877)">
        <g id="组_1716" data-name="组 1716" transform="translate(0 59.226)">
          <g id="组_1709" data-name="组 1709" transform="translate(89.361 15.114)">
            <path id="路径_20129" data-name="路径 20129" d="M173.327,338.152h0a29.428,29.428,0,0,1,3.984,41.429h0A29.431,29.431,0,0,1,173.327,338.152Z" transform="translate(-135.955 -338.152)" fill="#4067b2" stroke="rgba(0,0,0,0)" stroke-miterlimit="10" stroke-width="1"/>
            <path id="路径_20130" data-name="路径 20130" d="M143.366,379.8h0a29.43,29.43,0,0,1,40.773-8.357h0A29.431,29.431,0,0,1,143.366,379.8Z" transform="translate(-143.366 -329.088)" fill="#4067b2" stroke="rgba(0,0,0,0)" stroke-miterlimit="10" stroke-width="1"/>
          </g>
          <g id="组_1710" data-name="组 1710" transform="translate(75.847 3.452)">
            <path id="路径_20131" data-name="路径 20131" d="M154.031,329.31h0a27.067,27.067,0,0,1,9.757,37.014h0A27.067,27.067,0,0,1,154.031,329.31Z" transform="translate(-127.626 -329.31)" fill="#4067b2" stroke="rgba(0,0,0,0)" stroke-miterlimit="10" stroke-width="1"/>
            <path id="路径_20132" data-name="路径 20132" d="M133.12,372.279h0a27.068,27.068,0,0,1,35.771-13.628h0A27.068,27.068,0,0,1,133.12,372.279Z" transform="translate(-133.12 -320.71)" fill="#4067b2" stroke="rgba(0,0,0,0)" stroke-miterlimit="10" stroke-width="1"/>
          </g>
          <g id="组_1711" data-name="组 1711" transform="translate(63.994 0.094)">
            <path id="路径_20133" data-name="路径 20133" d="M132.014,326.764h0a23.6,23.6,0,0,1,16.833,28.816h0A23.6,23.6,0,0,1,132.014,326.764Z" transform="translate(-121.868 -326.764)" fill="#df98ff" stroke="rgba(0,0,0,0)" stroke-miterlimit="10" stroke-width="1"/>
            <path id="路径_20134" data-name="路径 20134" d="M124.133,369.132h0A23.6,23.6,0,0,1,151,349.336h0A23.6,23.6,0,0,1,124.133,369.132Z" transform="translate(-124.133 -319.651)" fill="#df98ff" stroke="rgba(0,0,0,0)" stroke-miterlimit="10" stroke-width="1"/>
          </g>
          <g id="组_1712" data-name="组 1712" transform="translate(50.457)">
            <path id="路径_20135" data-name="路径 20135" d="M114.072,326.693h0a22.3,22.3,0,0,1,20.946,23.586h0A22.306,22.306,0,0,1,114.072,326.693Z" transform="translate(-113.817 -326.693)" fill="#df98ff" stroke="rgba(0,0,0,0)" stroke-miterlimit="10" stroke-width="1"/>
            <path id="路径_20136" data-name="路径 20136" d="M113.894,368.533h0a22.307,22.307,0,0,1,21.232-23.33h0A22.306,22.306,0,0,1,113.894,368.533Z" transform="translate(-113.869 -320.79)" fill="#df98ff" stroke="rgba(0,0,0,0)" stroke-miterlimit="10" stroke-width="1"/>
          </g>
          <g id="组_1713" data-name="组 1713" transform="translate(31.51 7.413)">
            <path id="路径_20137" data-name="路径 20137" d="M99.5,332.453h0a18.952,18.952,0,0,1,21.09,16.542h0A18.953,18.953,0,0,1,99.5,332.453Z" transform="translate(-99.504 -332.314)" fill="#df98ff" stroke="rgba(0,0,0,0)" stroke-miterlimit="10" stroke-width="1"/>
            <path id="路径_20138" data-name="路径 20138" d="M104.968,368.2h0a18.953,18.953,0,0,1,14.211-22.726h0A18.955,18.955,0,0,1,104.968,368.2Z" transform="translate(-97.917 -328.116)" fill="#df98ff" stroke="rgba(0,0,0,0)" stroke-miterlimit="10" stroke-width="1"/>
          </g>
          <g id="组_1714" data-name="组 1714" transform="translate(14.159 18.532)">
            <path id="路径_20139" data-name="路径 20139" d="M86.348,341.537h0A15.776,15.776,0,0,1,106.262,351.6h0A15.776,15.776,0,0,1,86.348,341.537Z" transform="translate(-86.348 -340.744)" fill="#df98ff" stroke="rgba(0,0,0,0)" stroke-miterlimit="10" stroke-width="1"/>
            <path id="路径_20140" data-name="路径 20140" d="M95.994,370.243h0a15.778,15.778,0,0,1,7.891-20.869h0A15.775,15.775,0,0,1,95.994,370.243Z" transform="translate(-83.718 -337.991)" fill="#df98ff" stroke="rgba(0,0,0,0)" stroke-miterlimit="10" stroke-width="1"/>
          </g>
          <g id="组_1715" data-name="组 1715" transform="translate(3.624 31.12)">
            <path id="路径_20141" data-name="路径 20141" d="M78.361,351.877h0a11.625,11.625,0,0,1,15.9,4.172h0A11.623,11.623,0,0,1,78.361,351.877Z" transform="translate(-78.361 -350.288)" fill="#df98ff" stroke="rgba(0,0,0,0)" stroke-miterlimit="10" stroke-width="1"/>
            <path id="路径_20142" data-name="路径 20142" d="M89.3,371.168h0a11.623,11.623,0,0,1,2.46-16.253h0A11.623,11.623,0,0,1,89.3,371.168Z" transform="translate(-75.596 -348.812)" fill="#df98ff" stroke="rgba(0,0,0,0)" stroke-miterlimit="10" stroke-width="1"/>
          </g>
          <path id="路径_20143" data-name="路径 20143" d="M75.613,369.465h0a11.622,11.622,0,0,1,12.348-10.849h0A11.622,11.622,0,0,1,75.613,369.465Z" transform="translate(-75.613 -316.52)" fill="#df98ff" stroke="rgba(0,0,0,0)" stroke-miterlimit="10" stroke-width="1"/>
          <path id="路径_20144" data-name="路径 20144" d="M209.379,383.642a113.621,113.621,0,0,0-12.306-12.985,122.19,122.19,0,0,0-14.049-10.98,101.6,101.6,0,0,0-15.615-8.593c-1.38-.561-2.734-1.177-4.131-1.69l-4.209-1.48-4.293-1.219c-1.434-.393-2.9-.646-4.352-.975a76.434,76.434,0,0,0-17.736-1.339A80.865,80.865,0,0,0,115.2,347.44,99.515,99.515,0,0,0,84.08,364.083a99.238,99.238,0,0,1,31.273-16.108,80.237,80.237,0,0,1,17.37-2.758,75.527,75.527,0,0,1,17.477,1.6c1.423.347,2.865.619,4.272,1.028l4.207,1.266,4.123,1.523c1.365.526,2.692,1.155,4.04,1.726a100.161,100.161,0,0,1,15.242,8.7,120.245,120.245,0,0,1,13.667,11.032,111.8,111.8,0,0,1,11.841,12.883Z" transform="translate(-72.913 -321.072)" fill="#fff" stroke="rgba(0,0,0,0)" stroke-miterlimit="10" stroke-width="1"/>
        </g>
        <g id="组_1721" data-name="组 1721" transform="translate(15.04)">
          <path id="路径_20145" data-name="路径 20145" d="M87.016,290.232h0c1.68,18.078,12.786,29.048,25.74,35.249,13.4,6.181,28.643,7.593,48.852,6.055h0c5.727-16.63,2.729-32.473-11.452-41.835C136.544,280.466,111.751,277.714,87.016,290.232Z" transform="translate(-87.016 -281.788)" fill="#9dc7ff" stroke="rgba(0,0,0,0)" stroke-miterlimit="10" stroke-width="1"/>
          <g id="组_1717" data-name="组 1717" transform="translate(10.358 10.591)">
            <path id="路径_20146" data-name="路径 20146" d="M173.348,348.835A127.352,127.352,0,0,0,142,314.329a149.694,149.694,0,0,0-47.132-24.1l.127-.409a150.082,150.082,0,0,1,47.266,24.169,126.1,126.1,0,0,1,31.452,34.626Z" transform="translate(-94.869 -289.818)" fill="#fff" stroke="rgba(0,0,0,0)" stroke-miterlimit="10" stroke-width="1"/>
          </g>
          <g id="组_1718" data-name="组 1718" transform="translate(18.588 23.109)">
            <path id="路径_20147" data-name="路径 20147" d="M101.283,307.285l-.174-.392a159.81,159.81,0,0,1,20.77-7.584l.119.412A159.029,159.029,0,0,0,101.283,307.285Z" transform="translate(-101.109 -299.309)" fill="#fff" stroke="rgba(0,0,0,0)" stroke-miterlimit="10" stroke-width="1"/>
          </g>
          <g id="组_1719" data-name="组 1719" transform="translate(53.626 12.99)">
            <path id="路径_20148" data-name="路径 20148" d="M128.1,310.934l-.427-.046c.681-6.38,1.457-12.856,2.307-19.251l.425.058C129.557,298.084,128.782,304.559,128.1,310.934Z" transform="translate(-127.675 -291.637)" fill="#fff" stroke="rgba(0,0,0,0)" stroke-miterlimit="10" stroke-width="1"/>
          </g>
          <g id="组_1720" data-name="组 1720" transform="translate(44.216 40.693)">
            <path id="路径_20149" data-name="路径 20149" d="M120.652,317.032l-.112-.415a141.571,141.571,0,0,1,21.086-3.975l.048.425A140.893,140.893,0,0,0,120.652,317.032Z" transform="translate(-120.54 -312.641)" fill="#fff" stroke="rgba(0,0,0,0)" stroke-miterlimit="10" stroke-width="1"/>
          </g>
        </g>
      </g>
      <g id="组_1736" data-name="组 1736" transform="translate(174.143 0)">
        <g id="组_1730" data-name="组 1730">
          <g id="组_1723" data-name="组 1723" transform="translate(25.256 70.06)">
            <path id="路径_20150" data-name="路径 20150" d="M226.8,282.211h0c9.751,9.1,23.291,8.929,30.244-.381h0C247.289,272.729,233.748,272.9,226.8,282.211Z" transform="translate(-226.796 -248.1)" fill="#4067b2" stroke="rgba(0,0,0,0)" stroke-miterlimit="10" stroke-width="1"/>
            <path id="路径_20151" data-name="路径 20151" d="M250.075,254.632h0c-7.948,8.292-7.129,23.15,1.829,33.187h0C259.852,279.525,259.033,264.668,250.075,254.632Z" transform="translate(-221.114 -254.632)" fill="#4067b2" stroke="rgba(0,0,0,0)" stroke-miterlimit="10" stroke-width="1"/>
          </g>
          <g id="组_1724" data-name="组 1724" transform="translate(12.288 60.225)">
            <path id="路径_20152" data-name="路径 20152" d="M216.964,267.493h0c7.819,9.64,20.446,11.7,28.2,4.6h0C237.347,262.449,224.719,260.392,216.964,267.493Z" transform="translate(-216.964 -242.043)" fill="#df98ff" stroke="rgba(0,0,0,0)" stroke-miterlimit="10" stroke-width="1"/>
            <path id="路径_20153" data-name="路径 20153" d="M242.749,247.175h0c-8.541,6.039-9.83,19.316-2.878,29.655h0C248.414,270.79,249.7,257.514,242.749,247.175Z" transform="translate(-211.086 -247.175)" fill="#df98ff" stroke="rgba(0,0,0,0)" stroke-miterlimit="10" stroke-width="1"/>
          </g>
          <g id="组_1725" data-name="组 1725" transform="translate(4.536 51.252)">
            <path id="路径_20154" data-name="路径 20154" d="M211.086,250.017h0c4.76,9.755,15.379,14.651,23.718,10.934h0C230.046,251.2,219.427,246.3,211.086,250.017Z" transform="translate(-211.086 -237.693)" fill="#df98ff" stroke="rgba(0,0,0,0)" stroke-miterlimit="10" stroke-width="1"/>
            <path id="路径_20155" data-name="路径 20155" d="M238.839,240.372h0c-8.8,2.66-12.811,13-8.963,23.093h0C238.673,260.8,242.686,250.466,238.839,240.372Z" transform="translate(-205.56 -240.372)" fill="#df98ff" stroke="rgba(0,0,0,0)" stroke-miterlimit="10" stroke-width="1"/>
          </g>
          <g id="组_1726" data-name="组 1726" transform="translate(0 40.649)">
            <path id="路径_20156" data-name="路径 20156" d="M207.647,235.636h0c2.865,9.73,12.168,16.293,20.781,14.657h0C225.565,240.564,216.26,234,207.647,235.636Z" transform="translate(-207.647 -231.359)" fill="#df98ff" stroke="rgba(0,0,0,0)" stroke-miterlimit="10" stroke-width="1"/>
            <path id="路径_20157" data-name="路径 20157" d="M236.5,232.333h0c-8.868.594-14.488,9.06-12.555,18.908h0C232.818,250.648,238.439,242.181,236.5,232.333Z" transform="translate(-202.569 -232.333)" fill="#df98ff" stroke="rgba(0,0,0,0)" stroke-miterlimit="10" stroke-width="1"/>
          </g>
          <g id="组_1727" data-name="组 1727" transform="translate(1.713 28.989)">
            <path id="路径_20158" data-name="路径 20158" d="M208.946,223.492h0c1.088,8.383,8.16,15.267,15.8,15.376h0C223.653,230.484,216.581,223.6,208.946,223.492Z" transform="translate(-208.946 -223.492)" fill="#df98ff" stroke="rgba(0,0,0,0)" stroke-miterlimit="10" stroke-width="1"/>
            <path id="路径_20159" data-name="路径 20159" d="M234.779,225.176h0c-7.708-1-13.735,4.943-13.462,13.267h0C229.024,239.441,235.051,233.5,234.779,225.176Z" transform="translate(-205.003 -222.99)" fill="#df98ff" stroke="rgba(0,0,0,0)" stroke-miterlimit="10" stroke-width="1"/>
          </g>
          <g id="组_1728" data-name="组 1728" transform="translate(6.765 14.16)">
            <path id="路径_20160" data-name="路径 20160" d="M212.794,212.249h0c-.359,6.824,4.548,13.539,10.958,15h0C224.11,220.42,219.2,213.706,212.794,212.249Z" transform="translate(-212.776 -212.249)" fill="#df98ff" stroke="rgba(0,0,0,0)" stroke-miterlimit="10" stroke-width="1"/>
            <path id="路径_20161" data-name="路径 20161" d="M234.766,217.768h0c-6.335-2.174-12.311,1.442-13.346,8.074h0C227.755,228.015,233.731,224.4,234.766,217.768Z" transform="translate(-210.019 -210.69)" fill="#df98ff" stroke="rgba(0,0,0,0)" stroke-miterlimit="10" stroke-width="1"/>
          </g>
          <g id="组_1729" data-name="组 1729" transform="translate(13.993 4.623)">
            <path id="路径_20162" data-name="路径 20162" d="M218.562,205.018h0a11.019,11.019,0,0,0,6,12.3h0A11.019,11.019,0,0,0,218.562,205.018Z" transform="translate(-218.256 -205.018)" fill="#df98ff" stroke="rgba(0,0,0,0)" stroke-miterlimit="10" stroke-width="1"/>
            <path id="路径_20163" data-name="路径 20163" d="M234.358,212.248h0c-4.4-2.59-9.372-1.088-11.1,3.354h0C227.665,218.192,232.633,216.69,234.358,212.248Z" transform="translate(-216.66 -203.117)" fill="#df98ff" stroke="rgba(0,0,0,0)" stroke-miterlimit="10" stroke-width="1"/>
          </g>
          <path id="路径_20164" data-name="路径 20164" d="M230.291,201.513h0c-4.48.88-6.883,5.7-5.367,10.765h0C229.4,211.4,231.807,206.579,230.291,201.513Z" transform="translate(-202.282 -201.513)" fill="#df98ff" stroke="rgba(0,0,0,0)" stroke-miterlimit="10" stroke-width="1"/>
          <path id="路径_20165" data-name="路径 20165" d="M264.385,307.008a103.207,103.207,0,0,1-11.588-8.686A116.606,116.606,0,0,1,242.3,288.076a100.12,100.12,0,0,1-9.094-11.7c-.661-1.05-1.358-2.076-1.989-3.144l-1.856-3.225-1.687-3.314c-.553-1.108-1.013-2.257-1.525-3.382a73.488,73.488,0,0,1-4.335-14.01,71.48,71.48,0,0,1-1.159-14.193,75.333,75.333,0,0,1,5.909-26.207,75.729,75.729,0,0,0-5.5,26.286,71.4,71.4,0,0,0,1.351,14.07,72.831,72.831,0,0,0,4.468,13.78c.52,1.1.987,2.229,1.547,3.314l1.7,3.242,1.869,3.152c.636,1.043,1.336,2.046,2,3.069a98.443,98.443,0,0,0,9.1,11.392,114.007,114.007,0,0,0,10.456,9.937,101.069,101.069,0,0,0,11.429,8.325Z" transform="translate(-203.5 -199.157)" fill="#fff" stroke="rgba(0,0,0,0)" stroke-miterlimit="10" stroke-width="1"/>
        </g>
        <g id="组_1735" data-name="组 1735" transform="translate(35.38 1.583)">
          <path id="路径_20166" data-name="路径 20166" d="M264.055,202.713h0c18.7,9.85,25.566,26.677,26.476,43.373.69,17.163-4.574,34.193-15.216,55.251h0c-20.438-1.236-36.15-11.509-39.916-30.929C231.519,251.657,239.585,223.758,264.055,202.713Z" transform="translate(-234.472 -202.713)" fill="#9dc7ff" stroke="rgba(0,0,0,0)" stroke-miterlimit="10" stroke-width="1"/>
          <g id="组_1731" data-name="组 1731" transform="translate(26.433 12.236)">
            <path id="路径_20167" data-name="路径 20167" d="M283.953,322.537a148.31,148.31,0,0,1-23.18-49.073,174.257,174.257,0,0,1-4.966-61.429l-.5-.045a174.734,174.734,0,0,0,4.979,61.6,146.769,146.769,0,0,0,23.263,49.241Z" transform="translate(-254.513 -211.99)" fill="#fff" stroke="rgba(0,0,0,0)" stroke-miterlimit="10" stroke-width="1"/>
          </g>
          <g id="组_1732" data-name="组 1732" transform="translate(27.855 29.895)">
            <path id="路径_20168" data-name="路径 20168" d="M273.333,225.74l-.343-.361a186.031,186.031,0,0,0-17.4,18.973l.389.311A185.344,185.344,0,0,1,273.333,225.74Z" transform="translate(-255.592 -225.379)" fill="#fff" stroke="rgba(0,0,0,0)" stroke-miterlimit="10" stroke-width="1"/>
          </g>
          <g id="组_1733" data-name="组 1733" transform="translate(9.468 62.199)">
            <path id="路径_20169" data-name="路径 20169" d="M263.376,256.434l.139-.48c-7.166-2.105-14.479-4.151-21.736-6.082l-.128.483C248.9,252.283,256.215,254.329,263.376,256.434Z" transform="translate(-241.651 -249.872)" fill="#fff" stroke="rgba(0,0,0,0)" stroke-miterlimit="10" stroke-width="1"/>
          </g>
          <g id="组_1734" data-name="组 1734" transform="translate(35.233 63.684)">
            <path id="路径_20170" data-name="路径 20170" d="M275.238,251.3l-.4-.3a164.652,164.652,0,0,0-13.656,20.917l.437.239A163.911,163.911,0,0,1,275.238,251.3Z" transform="translate(-261.186 -250.998)" fill="#fff" stroke="rgba(0,0,0,0)" stroke-miterlimit="10" stroke-width="1"/>
          </g>
        </g>
      </g>
    </g>
    <g id="组_1742" data-name="组 1742" transform="translate(148.494 170.893)">
      <g id="组_1741" data-name="组 1741" transform="translate(0 0)">
        <g id="组_1740" data-name="组 1740">
          <g id="组_1739" data-name="组 1739">
            <path id="路径_20171" data-name="路径 20171" d="M492.155,305.972c-.571-12.117-11.009-21.439-23.139-21.439H351.688c-2.126,0,4.752-10.57,11.335-20.033a63.6,63.6,0,0,0,11.311-38.193c-.41-14.115-2.594-31.927-9.814-45.711-7.857-15-22.074-18.866-33.137-19.347a13.51,13.51,0,0,0-13.894,15.223l5,40.037a31.224,31.224,0,0,1-12.25,28.854l-12.017,9.012a51.918,51.918,0,0,0-19.138,28.618v0a22.546,22.546,0,0,1-21.837,16.935H211.82l5.135,136.019h56.458l6.713,7.159a42.306,42.306,0,0,0,30.864,13.371H415.519c9.9,0,18.424-7.612,18.89-17.5a18.391,18.391,0,0,0-18.37-19.277H436.1c12.13,0,22.568-9.321,23.139-21.438a22.529,22.529,0,0,0-22.5-23.618h18.4c12.13,0,22.568-9.323,23.138-21.44a22.53,22.53,0,0,0-22.5-23.614h13.876A22.529,22.529,0,0,0,492.155,305.972Z" transform="translate(-97.822 -161.235)" fill="#fff" stroke="rgba(0,0,0,0)" stroke-miterlimit="10" stroke-width="1"/>
            <g id="组_1738" data-name="组 1738" transform="translate(300.717 123.298)" opacity="0.4">
              <path id="路径_20172" data-name="路径 20172" d="M370.889,357.2h-16.98a18.39,18.39,0,0,1,18.37,19.277c-.464,9.892-8.986,17.5-18.89,17.5h16.98c9.9,0,18.424-7.611,18.89-17.5A18.391,18.391,0,0,0,370.889,357.2Z" transform="translate(-353.389 -222.035)" fill="#9dc7ff" stroke="rgba(0,0,0,0)" stroke-miterlimit="10" stroke-width="1"/>
              <path id="路径_20173" data-name="路径 20173" d="M386.614,323.041h-16.98a22.529,22.529,0,0,1,22.5,23.618C391.565,358.776,381.127,368.1,369,368.1h16.98c12.13,0,22.568-9.321,23.139-21.438A22.529,22.529,0,0,0,386.614,323.041Z" transform="translate(-348.411 -232.929)" fill="#9dc7ff" stroke="rgba(0,0,0,0)" stroke-miterlimit="10" stroke-width="1"/>
              <path id="路径_20174" data-name="路径 20174" d="M437.424,276.158c-.571-12.117-11.009-21.439-23.139-21.439H397.3c12.13,0,22.568,9.322,23.139,21.439a22.529,22.529,0,0,1-22.5,23.618H384.065a22.528,22.528,0,0,1,22.5,23.614c-.568,12.117-11.006,21.44-23.137,21.44h16.98c12.13,0,22.568-9.323,23.138-21.44a22.529,22.529,0,0,0-22.5-23.614h13.876A22.529,22.529,0,0,0,437.424,276.158Z" transform="translate(-343.808 -254.719)" fill="#9dc7ff" stroke="rgba(0,0,0,0)" stroke-miterlimit="10" stroke-width="1"/>
            </g>
            <rect id="矩形_898" data-name="矩形 898" width="49.791" height="167.857" transform="translate(81.205 126.952)" fill="#9dc7ff" stroke="rgba(0,0,0,0)" stroke-miterlimit="10" stroke-width="1"/>
            <rect id="矩形_899" data-name="矩形 899" width="90.257" height="176.91" transform="translate(0 117.899)" fill="#3473f2" stroke="rgba(0,0,0,0)" stroke-miterlimit="10" stroke-width="1"/>
            <path id="路径_20175" data-name="路径 20175" d="M216.693,355.343a8.556,8.556,0,1,1-8.556-8.556A8.557,8.557,0,0,1,216.693,355.343Z" transform="translate(-101.725 -102.058)" fill="#fff" stroke="rgba(0,0,0,0)" stroke-miterlimit="10" stroke-width="1"/>
          </g>
        </g>
      </g>
    </g>
    <g id="组_1743" data-name="组 1743" transform="translate(388.77 187.951)" opacity="0.2">
      <path id="路径_20176" data-name="路径 20176" d="M319.981,254.719l13.425,4.259a8.278,8.278,0,0,1,5.757,7.333l3.169,53.543,2.346-.586.393,7.863s.806,16.667,1.344,19.357,3.764,5.376,5.377,2.688c.806-1.344.2-7.125-.605-12.568s-1.815-10.551-1.815-10.551l.015-2h0l.043-5.975L355.84,263.7a9.818,9.818,0,0,0-3.113-8.551l6.7,1.05a6.109,6.109,0,0,1,5.1,6.923l-6.931,53.9-1.231,7.159s-2.42,19.624-1.076,22.581,5.646,1.613,5.377-2.419.806-18.28.806-18.28l.563-2,1.453-5.165,1.916.609,15.769-58.589a9.774,9.774,0,0,0-.171-6.191h-61.02Z" transform="translate(-303.602 -148.478)" fill="#104f9b" stroke="rgba(0,0,0,0)" stroke-miterlimit="10" stroke-width="1"/>
      <path id="路径_20177" data-name="路径 20177" d="M311.422,258.108l7.787,4.159-.383,12.146-.033.656.013,0-.013.419,1.033-.248a7.746,7.746,0,0,0,1.518,3.2c1.434-3.49,6.448-11.074,11.314-18.067a63.609,63.609,0,0,0,11.311-38.193c-.411-14.115-2.594-31.927-9.814-45.711-.422-.8-.87-1.562-1.327-2.3a16.476,16.476,0,0,0-3.367,3.667q-.455.673-.844,1.389c-.223.41-.419.834-.608,1.264a19.729,19.729,0,0,1-3.355,4.475c-2.633,2.357-6.756,3.387-7.972,6.7-.646,1.759-.253,3.7-.02,5.563.317,2.517.34,5.077.877,7.553a13.248,13.248,0,0,0-4.823,9.045l-5.084,36.848A7.3,7.3,0,0,0,311.422,258.108Z" transform="translate(-307.563 -174.168)" fill="#104f9b" stroke="rgba(0,0,0,0)" stroke-miterlimit="10" stroke-width="1"/>
    </g>
    <g id="组_1746" data-name="组 1746" transform="translate(409.69 184.186)">
      <path id="路径_20178" data-name="路径 20178" d="M359.356,303.171l-.058,7.977s1.008,5.107,1.815,10.551,1.411,11.224.6,12.568c-1.612,2.688-4.838,0-5.376-2.688S355,312.222,355,312.222l-.538-10.753Z" transform="translate(-313.527 -129.804)" fill="#292857" stroke="rgba(0,0,0,0)" stroke-miterlimit="10" stroke-width="1"/>
      <path id="路径_20179" data-name="路径 20179" d="M365.017,301.952l-1.232,7.159s-2.419,19.624-1.075,22.581,5.646,1.613,5.377-2.419.806-18.28.806-18.28l2.42-8.6Z" transform="translate(-311.025 -129.65)" fill="#292857" stroke="rgba(0,0,0,0)" stroke-miterlimit="10" stroke-width="1"/>
      <path id="路径_20180" data-name="路径 20180" d="M344.027,177.955c-2.147,2.337-3.266,5.526-5.631,7.643-2.633,2.357-6.756,3.387-7.972,6.7-.646,1.759-.255,3.7-.02,5.563a75.784,75.784,0,0,0,.929,7.838c.6,2.565,1.916,5.115,4.2,6.432a7.876,7.876,0,0,0,7.31.055,11.127,11.127,0,0,0,5.04-5.505c.677-1.514,1.19-3.281,2.619-4.122a9.939,9.939,0,0,1,3.516-.768c3.742-.619,6.7-3.742,8.077-7.275s1.4-7.44,1.169-11.224c-.2-3.139-.64-6.463-2.637-8.891C356.385,169.254,347.555,174.116,344.027,177.955Z" transform="translate(-321.305 -171.039)" fill="#e58848" stroke="rgba(0,0,0,0)" stroke-miterlimit="10" stroke-width="1"/>
      <g id="组_1744" data-name="组 1744" transform="translate(11.23 0)">
        <path id="路径_20181" data-name="路径 20181" d="M371.167,235.745l-.588,8.835,22.762,10.984a9.816,9.816,0,0,1,4.732,11.49L382.3,325.644l-7.808-2.484,6.931-53.9a6.111,6.111,0,0,0-5.1-6.923l-8.1-1.27-8.634-8.8,9.979,8.956a9.815,9.815,0,0,1,3.172,8.611l-6.407,54.382-7.1,1.774-3.169-53.543a8.278,8.278,0,0,0-5.757-7.333l-14.028-4.45a7.7,7.7,0,0,1-3.692-6.374l.59-18.847Z" transform="translate(-331.732 -150.859)" fill="#f35c5c" stroke="rgba(0,0,0,0)" stroke-miterlimit="10" stroke-width="1"/>
        <path id="路径_20182" data-name="路径 20182" d="M331.939,268.586l3.758-73.161s15.561-.932,20.19-.932c2.523,0,6.832,1.2,10.234,2.287,3.2,1.025,5.851.934,7.4,3.909l25.519,48.91-15.679,1.493-5.227-5.972,2.659-4.031-9.533-22.482,1.872,40.826Z" transform="translate(-331.939 -163.921)" fill="#35324c" stroke="rgba(0,0,0,0)" stroke-miterlimit="10" stroke-width="1"/>
        <path id="路径_20183" data-name="路径 20183" d="M362.091,206.015l16.917,30.559-5.268,6.17a9.308,9.308,0,0,1-4.176-.229l-.936-1.07,2.659-4.031-9.533-22.482Z" transform="translate(-322.431 -160.246)" fill="#1f1e30" stroke="rgba(0,0,0,0)" stroke-miterlimit="10" stroke-width="1"/>
        <path id="路径_20184" data-name="路径 20184" d="M354.138,216.589c-5.143,0-14.574-13.427-14.574-18.568a9.266,9.266,0,0,1,.5-2.978c4.794-.257,10.8-.55,13.4-.55a20.883,20.883,0,0,1,4.26.617,9.275,9.275,0,0,1,.471,2.911C358.186,203.162,359.279,216.589,354.138,216.589Z" transform="translate(-329.507 -163.921)" fill="#ffb096" stroke="rgba(0,0,0,0)" stroke-miterlimit="10" stroke-width="1"/>
        <path id="路径_20185" data-name="路径 20185" d="M333.855,204.774l-1.916,60.949,25.174-6.033Z" transform="translate(-331.939 -160.642)" fill="#1f1e30" stroke="rgba(0,0,0,0)" stroke-miterlimit="10" stroke-width="1"/>
        <path id="路径_20186" data-name="路径 20186" d="M353.925,189.843c-.437.872-3.491,12.875-3.491,12.875a3.873,3.873,0,0,1-3.71,1.746c-2.619-.219-3.71-3.929-3.71-3.929l4.583-15.057Z" transform="translate(-328.407 -166.796)" fill="#f88d72" stroke="rgba(0,0,0,0)" stroke-miterlimit="10" stroke-width="1"/>
        <path id="路径_20187" data-name="路径 20187" d="M339.041,186.8c0,8.268,8.778,17.418,17.046,17.418s12.9-9.149,12.9-17.418a14.97,14.97,0,1,0-29.941,0Z" transform="translate(-329.674 -171.148)" fill="#ffb096" stroke="rgba(0,0,0,0)" stroke-miterlimit="10" stroke-width="1"/>
        <circle id="椭圆_989" data-name="椭圆 989" cx="16.855" cy="16.855" r="16.855" transform="translate(7.79)" fill="#ffb096" stroke="rgba(0,0,0,0)" stroke-miterlimit="10" stroke-width="1"/>
        <path id="路径_20188" data-name="路径 20188" d="M359.095,191.211c-.336.583-.285,1.241.116,1.473s1-.054,1.333-.637.284-1.241-.116-1.472S359.431,190.629,359.095,191.211Z" transform="translate(-323.349 -165.196)" fill="#35324c" stroke="rgba(0,0,0,0)" stroke-miterlimit="10" stroke-width="1"/>
        <path id="路径_20189" data-name="路径 20189" d="M352.668,191.924c-.369.64-.313,1.364.126,1.617s1.1-.059,1.464-.7.313-1.364-.127-1.617S353.037,191.284,352.668,191.924Z" transform="translate(-325.406 -164.991)" fill="#35324c" stroke="rgba(0,0,0,0)" stroke-miterlimit="10" stroke-width="1"/>
      </g>
      <path id="路径_20190" data-name="路径 20190" d="M348.451,246.039c.654-.218,6.184-2.9,10.113-2.9s8.729,4.147,8.729,4.147.655,2.183-1.964,1.746.36,1.647.36,1.647a23.271,23.271,0,0,1-3.2.535c-3.055.435-14.967-.2-14.967-.2Z" transform="translate(-315.739 -148.406)" fill="#ffb096" stroke="rgba(0,0,0,0)" stroke-miterlimit="10" stroke-width="1"/>
      <path id="路径_20191" data-name="路径 20191" d="M338.412,195.2l-2.105,48.151,19.79,17.906-.942,5.026L327.284,251.4a7.293,7.293,0,0,1-3.791-7.432l5.084-36.848a13.264,13.264,0,0,1,7.338-10.687Z" transform="translate(-323.425 -163.696)" fill="#35324c" stroke="rgba(0,0,0,0)" stroke-miterlimit="10" stroke-width="1"/>
      <g id="组_1745" data-name="组 1745" transform="translate(28.831 64.909)">
        <path id="路径_20192" data-name="路径 20192" d="M347.132,253.122h50.417v-3.7H347.132a1.847,1.847,0,0,0-1.848,1.848h0A1.847,1.847,0,0,0,347.132,253.122Z" transform="translate(-345.284 -211.31)" fill="#fff" stroke="rgba(0,0,0,0)" stroke-miterlimit="10" stroke-width="1"/>
        <path id="路径_20193" data-name="路径 20193" d="M357.173,262.338H405.79a4.741,4.741,0,0,0,4.583-3.524l8.581-32.329a4.742,4.742,0,0,0-4.583-5.958H371.917a4.743,4.743,0,0,0-4.583,3.525Z" transform="translate(-341.492 -220.527)" fill="#fff" stroke="rgba(0,0,0,0)" stroke-miterlimit="10" stroke-width="1"/>
        <path id="路径_20194" data-name="路径 20194" d="M378.91,239.471a2.914,2.914,0,0,0,2.964,3.818,5.308,5.308,0,0,0,4.892-3.818,2.915,2.915,0,0,0-2.964-3.818A5.308,5.308,0,0,0,378.91,239.471Z" transform="translate(-334.598 -215.703)" fill="#35324c" stroke="rgba(0,0,0,0)" stroke-miterlimit="10" stroke-width="1"/>
      </g>
      <path id="路径_20195" data-name="路径 20195" d="M354.7,171.314a16.85,16.85,0,0,1,16.733,14.906,13.39,13.39,0,0,1-20.21-5.067,23.747,23.747,0,0,1-.051,5.6,7.981,7.981,0,0,1-2.553,4.869,8.512,8.512,0,0,0-.915-3.793,2.921,2.921,0,0,0-3.332-1.432,2.722,2.722,0,0,0-1.57,2.188,5.533,5.533,0,0,0,.451,2.755,11.885,11.885,0,0,0,2.341,3.737,24.574,24.574,0,0,1-6.084.359,16.824,16.824,0,0,1,15.19-24.123Z" transform="translate(-318.826 -171.313)" fill="#e58848" stroke="rgba(0,0,0,0)" stroke-miterlimit="10" stroke-width="1"/>
      <path id="路径_20196" data-name="路径 20196" d="M355.184,187.71c-1.571-.05-3.384-.433-4.528.648a4.53,4.53,0,0,0-1.022,1.935l-1.484,4.445c-.394,1.182-.715,5.686-1.666,6.49-1.406,1.188-3.463,1.06-5.294.865-1.682-.178-3.664-3.715-4.712-5.041a5.185,5.185,0,0,1-.907-3.036,15.95,15.95,0,0,1,6.161-12.691,24.312,24.312,0,0,1,13.536-4.934,8.638,8.638,0,0,1,3.231.222c2.5.783,5.608,4.507,4.562,6.992C361.935,186.285,357.834,187.8,355.184,187.71Z" transform="translate(-319.555 -169.71)" fill="#e58848" stroke="rgba(0,0,0,0)" stroke-miterlimit="10" stroke-width="1"/>
      <path id="路径_20197" data-name="路径 20197" d="M339.66,187.434a5.107,5.107,0,1,0,5.107-5.107A5.107,5.107,0,0,0,339.66,187.434Z" transform="translate(-318.247 -167.801)" fill="#ffb096" stroke="rgba(0,0,0,0)" stroke-miterlimit="10" stroke-width="1"/>
      <path id="路径_20198" data-name="路径 20198" d="M364.584,301.952l-.92,5.349,5.359,1.69,1.485-5.28Z" transform="translate(-310.592 -129.65)" fill="#ffb096" stroke="rgba(0,0,0,0)" stroke-miterlimit="10" stroke-width="1"/>
      <path id="路径_20199" data-name="路径 20199" d="M359.278,308.733l-4.427.855-.282-5.641,4.752-1.188Z" transform="translate(-313.492 -129.392)" fill="#ffb096" stroke="rgba(0,0,0,0)" stroke-miterlimit="10" stroke-width="1"/>
    </g>
    <path id="路径_20200" data-name="路径 20200" d="M295.53,407.363c-1.439-3.464-6.006-4.078-9.757-4.107q-12.685-.1-25.355.725c-.047-.807-.121-2.05-.222-3.627a14.5,14.5,0,0,0,1.6.338c4.248-.241,11.079-.509,12.054-6.192a5.2,5.2,0,0,0-1.075-4.454c-.182-.917-.4-1.92-.645-3.049-.615-2.83-3.568-8.944-7.08-15.591l3.717-4.684c-1.2-6.39-5.63-12.269-7.91-15.827-1.493-2.329-5.81-3.338-9.462-3.776-.3-.513-.47-.8-.47-.8s.008.269.024.739c-2.1-.23-3.921-.274-4.767-.281-.228-.054-.456-.1-.685-.145h0a36.6,36.6,0,0,0-4.835-.645l-.044-2.753a16.84,16.84,0,0,0,10.66-10.28,4.7,4.7,0,0,0,.475.041,5.045,5.045,0,0,0,.169-10.083c-.131-.262-.266-.518-.411-.772-.038-.12-.078-.237-.117-.356,1.038.141,2.28.158,2.84-.729.623-.989-.144-2.3-1.068-3s-2.076-1.208-2.618-2.245c-.346-.663-.386-1.459-.739-2.118a3.18,3.18,0,0,0-3.032-2.028c.071-3.313-3.841-4.544-6.953-5.317a45.84,45.84,0,0,0-7.655-1.356c-1.327-.1-2.821-.038-3.75.932s-.521,3.08.808,3.089c-4.1-.257-8.515-.435-11.969,1.831a2.594,2.594,0,0,0-.985.99,2.084,2.084,0,0,0,.931,2.482,5.825,5.825,0,0,0,2.747.671c-2.307.922-5.032,2.462-4.914,4.983a3.137,3.137,0,0,0,4.181,2.642,9.461,9.461,0,0,0-.9,1.018,5.043,5.043,0,0,0,1.566,9.864h.013a16.839,16.839,0,0,0,11.01,9.91l.041,2.67a136.474,136.474,0,0,0-18.175,2.669c-.058.015-.112.131-.164.322-2.859.733-5.747,1.783-7.48,3.27-3.209,2.749-9.346,7.684-10.347,14.109l.256.241c-1.316,1.41-2.99,3.214-4.81,5.2l.787,20.865h1.974l-1.343-3.424,12.441-14.085,2.294,2.171,5.017-5.958.357-.861c-.084,7.481-.106,15.6-.1,22.157h35.822l6.713,7.159a42.3,42.3,0,0,0,30.863,13.371h9.421C295.751,411.456,296.372,409.393,295.53,407.363Z" transform="translate(43.786 55.494)" fill="#104f9b" stroke="rgba(0,0,0,0)" stroke-miterlimit="10" stroke-width="1" opacity="0.2"/>
    <g id="组_1757" data-name="组 1757" transform="translate(152.681 173.189)">
      <path id="路径_20201" data-name="路径 20201" d="M162.512,205.644h0a5.167,5.167,0,0,1-5.2-5.127l-.119-15.7a.693.693,0,0,1,.688-.7l8.942-.069a.694.694,0,0,1,.7.688l.12,15.7A5.167,5.167,0,0,1,162.512,205.644Z" transform="translate(-119.432 -156.255)" fill="#ffb096" stroke="rgba(0,0,0,0)" stroke-miterlimit="10" stroke-width="1"/>
      <path id="路径_20202" data-name="路径 20202" d="M183.634,187.922c.005-.175.013-.348.013-.525a18.27,18.27,0,0,0-.566-4.516v-2a17.957,17.957,0,0,0-17.9-17.9h0a17.957,17.957,0,0,0-17.9,17.9v7.042Z" transform="translate(-122.595 -162.976)" fill="#35324c" stroke="rgba(0,0,0,0)" stroke-miterlimit="10" stroke-width="1"/>
      <path id="路径_20203" data-name="路径 20203" d="M181.37,182.516V180.79a16.562,16.562,0,0,0-16.513-16.513h0a16.561,16.561,0,0,0-16.512,16.513v6.766a6.091,6.091,0,0,0,.149,1.324,16.772,16.772,0,1,0,32.876-6.364Z" transform="translate(-122.253 -162.561)" fill="#ffb096" stroke="rgba(0,0,0,0)" stroke-miterlimit="10" stroke-width="1"/>
      <path id="路径_20204" data-name="路径 20204" d="M157.633,183.812a1.27,1.27,0,1,1-1.27-1.27A1.27,1.27,0,0,1,157.633,183.812Z" transform="translate(-120.101 -156.736)" fill="#35324c" stroke="rgba(0,0,0,0)" stroke-miterlimit="10" stroke-width="1"/>
      <path id="路径_20205" data-name="路径 20205" d="M166.776,183.812a1.269,1.269,0,1,1-1.269-1.27A1.269,1.269,0,0,1,166.776,183.812Z" transform="translate(-117.184 -156.736)" fill="#35324c" stroke="rgba(0,0,0,0)" stroke-miterlimit="10" stroke-width="1"/>
      <circle id="椭圆_990" data-name="椭圆 990" cx="4.67" cy="4.67" r="4.67" transform="translate(21.509 21.806)" fill="#ffb096" stroke="rgba(0,0,0,0)" stroke-miterlimit="10" stroke-width="1"/>
      <path id="路径_20206" data-name="路径 20206" d="M179.184,184.179a4.67,4.67,0,1,1-4.67-4.67A4.671,4.671,0,0,1,179.184,184.179Z" transform="translate(-115.396 -157.703)" fill="#ffb096" stroke="rgba(0,0,0,0)" stroke-miterlimit="10" stroke-width="1"/>
      <path id="路径_20207" data-name="路径 20207" d="M149.008,180.724a3.08,3.08,0,0,0,0,6.136Z" transform="translate(-122.938 -157.316)" fill="#ef8e9e" stroke="rgba(0,0,0,0)" stroke-miterlimit="10" stroke-width="1"/>
      <path id="路径_20208" data-name="路径 20208" d="M174.945,250.274,150.6,261.692l4.508,74.222H146.4l-17.629-76.109a8.018,8.018,0,0,1,3.62-8.644l23.023-14.11Z" transform="translate(-128.562 -139.351)" fill="#bdbacf" stroke="rgba(0,0,0,0)" stroke-miterlimit="10" stroke-width="1"/>
      <path id="路径_20209" data-name="路径 20209" d="M178.021,237.052l23.022,14.11a8.018,8.018,0,0,1,3.62,8.644l-17.627,76.109H178.32l4.508-74.222-24.339-11.418Z" transform="translate(-119.017 -139.351)" fill="#bdbacf" stroke="rgba(0,0,0,0)" stroke-miterlimit="10" stroke-width="1"/>
      <path id="路径_20210" data-name="路径 20210" d="M152.715,312.009l1.2,11.119s-10.306,16.141-14.746,16.591-3.483-4.906-.956-8.5,7.5-11.136,7.5-11.136l1.9-8.072Z" transform="translate(-126.165 -115.446)" fill="#ffb096" stroke="rgba(0,0,0,0)" stroke-miterlimit="10" stroke-width="1"/>
      <path id="路径_20211" data-name="路径 20211" d="M175.007,312.009l-1.2,11.119s9.819,15.4,14.259,15.847,3.97-4.163,1.443-7.758-7.5-11.136-7.5-11.136l-1.9-8.072Z" transform="translate(-114.132 -115.446)" fill="#ffb096" stroke="rgba(0,0,0,0)" stroke-miterlimit="10" stroke-width="1"/>
      <path id="路径_20212" data-name="路径 20212" d="M173.144,180.724a3.08,3.08,0,0,1,0,6.136Z" transform="translate(-114.344 -157.316)" fill="#ef8e9e" stroke="rgba(0,0,0,0)" stroke-miterlimit="10" stroke-width="1"/>
      <path id="路径_20213" data-name="路径 20213" d="M170.106,180.053c.444,1.419,1.091,3.044,2.523,3.442a4.09,4.09,0,0,0,3.268-.958,2.411,2.411,0,0,0,1.176-1.46,2.542,2.542,0,0,0-.439-1.527,26.894,26.894,0,0,0-3.395-5.237c-1.232-1.384-3.449-3.63-4.757-1.258C167.588,174.676,169.6,178.44,170.106,180.053Z" transform="translate(-115.902 -160.093)" fill="#35324c" stroke="rgba(0,0,0,0)" stroke-miterlimit="10" stroke-width="1"/>
      <path id="路径_20214" data-name="路径 20214" d="M177.265,171.847a21.765,21.765,0,0,0-13.034-4.329l.193-2.96c-4.851,0-9.537,4.558-13.177,7.254,3.179,3.613,7.833,7.025,13.024,7.025C169.446,178.838,174.087,175.441,177.265,171.847Z" transform="translate(-121.327 -162.471)" fill="#35324c" stroke="rgba(0,0,0,0)" stroke-miterlimit="10" stroke-width="1"/>
      <path id="路径_20215" data-name="路径 20215" d="M153.869,180.053c-.444,1.419-1.091,3.044-2.523,3.442a4.09,4.09,0,0,1-3.268-.958,2.407,2.407,0,0,1-1.176-1.46,2.542,2.542,0,0,1,.439-1.527,26.9,26.9,0,0,1,3.395-5.237c1.232-1.384,3.449-3.63,4.757-1.258C156.387,174.676,154.373,178.44,153.869,180.053Z" transform="translate(-122.718 -160.093)" fill="#35324c" stroke="rgba(0,0,0,0)" stroke-miterlimit="10" stroke-width="1"/>
      <path id="路径_20216" data-name="路径 20216" d="M168.493,171.7a7.281,7.281,0,0,1,1.612.5,10.864,10.864,0,0,1,2.966,2.455,85.183,85.183,0,0,0,7.459,6.508.943.943,0,0,0,.6.282.707.707,0,0,0,.375-.153c.9-.652.747-2.009.5-3.09-.679-2.993-1.434-6.134-3.514-8.39a17.7,17.7,0,0,0-2.534-2.137,20.717,20.717,0,0,0-5.88-3.428,17.788,17.788,0,0,0-3.223-.628,14.5,14.5,0,0,0-4.96.033,15.057,15.057,0,0,0-1.989.641,23.344,23.344,0,0,0-6.2,3.147c-4.025,3.118-5.9,8.466-5.7,13.555.028.7.3,1.6,1,1.592a1.369,1.369,0,0,0,.9-.535c2-2.125,2.917-4.794,5.119-6.728a16,16,0,0,1,8.23-3.776A15.063,15.063,0,0,1,168.493,171.7Z" transform="translate(-122.364 -162.832)" fill="#35324c" stroke="rgba(0,0,0,0)" stroke-miterlimit="10" stroke-width="1"/>
      <g id="组_1751" data-name="组 1751" transform="translate(9.034 201.387)">
        <path id="路径_20217" data-name="路径 20217" d="M141.945,318.393a2.838,2.838,0,0,1,1.936-2.4,5.859,5.859,0,0,1,1.762-.328c1.282.03,2.249,2.511,2.06,3.114S145.8,329.37,145.8,329.37s-5.388.3-5.546-.38,1.537-8.009,1.537-8.009S141.8,319.642,141.945,318.393Z" transform="translate(-133.871 -315.667)" fill="#cd3d3d" stroke="rgba(0,0,0,0)" stroke-miterlimit="10" stroke-width="1"/>
        <path id="路径_20218" data-name="路径 20218" d="M153.015,315.986s3.812,5.12,4.407,8.276c0,0,.41.776-2.027,3.216s-2.184,8.395-10.869,10.826-8.231.88-8.231.88-3.466-5.933,3.343-11.637c3.32-2.782,3.38-8.4,3.38-8.4s1.15-1.153,1.34.149-2.155,8.408-2.155,8.408l1.481-.272s1.018-8.376,2.51-9.17,4.5.682,5.642-.187A2.95,2.95,0,0,0,153.015,315.986Z" transform="translate(-135.411 -315.565)" fill="#f35c5c" stroke="rgba(0,0,0,0)" stroke-miterlimit="10" stroke-width="1"/>
        <path id="路径_20219" data-name="路径 20219" d="M144.5,336.708c-8.684,2.432-8.231.88-8.231.88a7.643,7.643,0,0,1-.76-2.339c1.1.289,4.31.765,9.777-1.318,6.909-2.631,5.52-6.667,8.115-8.777a15.123,15.123,0,0,0,3.47-4.164,9.134,9.134,0,0,1,.525,1.676s.41.776-2.027,3.216S153.18,334.277,144.5,336.708Z" transform="translate(-135.382 -313.969)" fill="#fff" stroke="rgba(0,0,0,0)" stroke-miterlimit="10" stroke-width="1"/>
        <g id="组_1747" data-name="组 1747" transform="translate(6.854 3.583)">
          <path id="路径_20220" data-name="路径 20220" d="M145.731,320.2a.609.609,0,0,0,.071-1.1,5.294,5.294,0,0,0-3.634-.567,2.55,2.55,0,0,0-1.509,1.43.609.609,0,0,0,1.115.489,1.3,1.3,0,0,1,.785-.766,4.041,4.041,0,0,1,2.659.481A.611.611,0,0,0,145.731,320.2Z" transform="translate(-140.608 -318.383)" fill="#fff" stroke="rgba(0,0,0,0)" stroke-miterlimit="10" stroke-width="1"/>
        </g>
        <g id="组_1748" data-name="组 1748" transform="translate(6.432 5.945)">
          <path id="路径_20221" data-name="路径 20221" d="M145.411,321.993a.609.609,0,0,0,.071-1.1,5.3,5.3,0,0,0-3.634-.566,2.562,2.562,0,0,0-1.509,1.428.609.609,0,0,0,1.115.491,1.328,1.328,0,0,1,.785-.766,4.04,4.04,0,0,1,2.66.48A.6.6,0,0,0,145.411,321.993Z" transform="translate(-140.288 -320.174)" fill="#fff" stroke="rgba(0,0,0,0)" stroke-miterlimit="10" stroke-width="1"/>
        </g>
        <g id="组_1749" data-name="组 1749" transform="translate(5.356 8.195)">
          <path id="路径_20222" data-name="路径 20222" d="M144.595,323.7a.609.609,0,0,0,.07-1.1,5.3,5.3,0,0,0-3.632-.568,2.569,2.569,0,0,0-1.509,1.43.609.609,0,1,0,1.114.489,1.356,1.356,0,0,1,.786-.766,4.018,4.018,0,0,1,2.658.483A.606.606,0,0,0,144.595,323.7Z" transform="translate(-139.472 -321.88)" fill="#fff" stroke="rgba(0,0,0,0)" stroke-miterlimit="10" stroke-width="1"/>
        </g>
        <g id="组_1750" data-name="组 1750" transform="translate(4.607 10.501)">
          <path id="路径_20223" data-name="路径 20223" d="M144.027,325.448a.608.608,0,0,0,.071-1.1,5.307,5.307,0,0,0-3.635-.567,2.566,2.566,0,0,0-1.508,1.43.609.609,0,0,0,1.115.489,1.357,1.357,0,0,1,.783-.766,4.036,4.036,0,0,1,2.66.483A.611.611,0,0,0,144.027,325.448Z" transform="translate(-138.904 -323.629)" fill="#fff" stroke="rgba(0,0,0,0)" stroke-miterlimit="10" stroke-width="1"/>
        </g>
      </g>
      <g id="组_1756" data-name="组 1756" transform="translate(56.425 200.892)">
        <path id="路径_20224" data-name="路径 20224" d="M183.327,318.017a2.835,2.835,0,0,0-1.936-2.4,5.777,5.777,0,0,0-1.762-.328c-1.282.029-2.249,2.51-2.06,3.114s1.907,10.587,1.907,10.587,5.388.3,5.546-.38-1.537-8.009-1.537-8.009S183.468,319.266,183.327,318.017Z" transform="translate(-169.365 -315.291)" fill="#cd3d3d" stroke="rgba(0,0,0,0)" stroke-miterlimit="10" stroke-width="1"/>
        <path id="路径_20225" data-name="路径 20225" d="M175.776,315.61s-3.812,5.121-4.407,8.276c0,0-.41.775,2.027,3.215s2.184,8.395,10.869,10.827,8.231.878,8.231.878,3.466-5.931-3.343-11.637c-3.32-2.782-3.38-8.4-3.38-8.4s-1.15-1.153-1.34.15,2.155,8.407,2.155,8.407l-1.481-.272s-1.02-8.376-2.51-9.169-4.5.681-5.642-.189A2.948,2.948,0,0,1,175.776,315.61Z" transform="translate(-171.343 -315.19)" fill="#f35c5c" stroke="rgba(0,0,0,0)" stroke-miterlimit="10" stroke-width="1"/>
        <path id="路径_20226" data-name="路径 20226" d="M184.266,336.333c8.684,2.432,8.231.878,8.231.878a7.641,7.641,0,0,0,.76-2.338c-1.1.29-4.31.765-9.777-1.316-6.909-2.631-5.52-6.668-8.115-8.777a15.123,15.123,0,0,1-3.47-4.165,9.035,9.035,0,0,0-.525,1.676s-.41.775,2.027,3.216S175.581,333.9,184.266,336.333Z" transform="translate(-171.343 -313.594)" fill="#fff" stroke="rgba(0,0,0,0)" stroke-miterlimit="10" stroke-width="1"/>
        <g id="组_1752" data-name="组 1752" transform="translate(9.672 3.583)">
          <path id="路径_20227" data-name="路径 20227" d="M179.064,319.827a.608.608,0,0,1-.071-1.1,5.31,5.31,0,0,1,3.634-.567,2.553,2.553,0,0,1,1.509,1.431.609.609,0,0,1-1.115.489,1.3,1.3,0,0,0-.785-.766,4.033,4.033,0,0,0-2.659.481A.611.611,0,0,1,179.064,319.827Z" transform="translate(-178.676 -318.008)" fill="#fff" stroke="rgba(0,0,0,0)" stroke-miterlimit="10" stroke-width="1"/>
        </g>
        <g id="组_1753" data-name="组 1753" transform="translate(10.094 5.944)">
          <path id="路径_20228" data-name="路径 20228" d="M179.384,321.617a.609.609,0,0,1-.071-1.1,5.3,5.3,0,0,1,3.634-.566,2.561,2.561,0,0,1,1.509,1.43.609.609,0,1,1-1.114.489,1.332,1.332,0,0,0-.785-.766,4.039,4.039,0,0,0-2.66.481A.607.607,0,0,1,179.384,321.617Z" transform="translate(-178.996 -319.798)" fill="#fff" stroke="rgba(0,0,0,0)" stroke-miterlimit="10" stroke-width="1"/>
        </g>
        <g id="组_1754" data-name="组 1754" transform="translate(11.17 8.195)">
          <path id="路径_20229" data-name="路径 20229" d="M180.2,323.324a.608.608,0,0,1-.071-1.1,5.3,5.3,0,0,1,3.634-.567,2.561,2.561,0,0,1,1.509,1.43.609.609,0,0,1-1.115.489,1.355,1.355,0,0,0-.786-.768,4.026,4.026,0,0,0-2.658.483A.6.6,0,0,1,180.2,323.324Z" transform="translate(-179.813 -321.505)" fill="#fff" stroke="rgba(0,0,0,0)" stroke-miterlimit="10" stroke-width="1"/>
        </g>
        <g id="组_1755" data-name="组 1755" transform="translate(11.919 10.5)">
          <path id="路径_20230" data-name="路径 20230" d="M180.768,325.073a.616.616,0,0,1-.314-.277.608.608,0,0,1,.243-.824,5.314,5.314,0,0,1,3.635-.567,2.566,2.566,0,0,1,1.508,1.43.609.609,0,1,1-1.114.489,1.351,1.351,0,0,0-.783-.765,4.037,4.037,0,0,0-2.66.481A.616.616,0,0,1,180.768,325.073Z" transform="translate(-180.38 -323.253)" fill="#fff" stroke="rgba(0,0,0,0)" stroke-miterlimit="10" stroke-width="1"/>
        </g>
      </g>
      <path id="路径_20231" data-name="路径 20231" d="M143.751,198.047a139.978,139.978,0,0,1,23.53-3v-.034l.247.013c.16-.015.247-.02.247-.02v.033c3.117.186,14.305-.144,17.977,5.765,4.045,6.512,6.684,54.7,6.684,54.7L174.9,261.058a23.773,23.773,0,0,1-13.34.3l-18.913-5.079S142.3,198.426,143.751,198.047Z" transform="translate(-124.082 -152.762)" fill="#fff" stroke="rgba(0,0,0,0)" stroke-miterlimit="10" stroke-width="1"/>
      <path id="路径_20232" data-name="路径 20232" d="M152.009,196.316a84.926,84.926,0,0,1,12.274-1.273v-.034l.247.013c.16-.015.247-.02.247-.02v.033a57.646,57.646,0,0,1,9.376.863,4.33,4.33,0,0,1-.82,1.914c-4.719,7.7-16.09,7.8-20.674.017A4.821,4.821,0,0,1,152.009,196.316Z" transform="translate(-121.084 -152.762)" fill="#ffb096" stroke="rgba(0,0,0,0)" stroke-miterlimit="10" stroke-width="1"/>
      <path id="路径_20233" data-name="路径 20233" d="M162.35,186.19h0a4.932,4.932,0,0,1,5.007,4.854l.142,9.2a4.929,4.929,0,0,1-4.852,5.005h0a4.93,4.93,0,0,1-5.007-4.852l-.142-9.2A4.93,4.93,0,0,1,162.35,186.19Z" transform="translate(-119.334 -155.573)" fill="#ffb096" stroke="rgba(0,0,0,0)" stroke-miterlimit="10" stroke-width="1"/>
      <path id="路径_20234" data-name="路径 20234" d="M136.967,213.806s-8.3,22.567-6.679,26.538,35.744,3.61,35.744,3.61l.723-5.956L144.369,233.3l2.527-11.915-3.429-8.485Z" transform="translate(-128.079 -147.053)" fill="#ffb096" stroke="rgba(0,0,0,0)" stroke-miterlimit="10" stroke-width="1"/>
      <path id="路径_20235" data-name="路径 20235" d="M132.7,217.473l12.063,14.61,10.86-35.68s-12.679.2-15.358,4.677C138.055,204.782,133.722,210.918,132.7,217.473Z" transform="translate(-127.242 -152.315)" fill="#f35c5c" stroke="rgba(0,0,0,0)" stroke-miterlimit="10" stroke-width="1"/>
      <path id="路径_20236" data-name="路径 20236" d="M191.466,211.4s8.816,25.815,7.191,29.788-32.285-6.861-32.285-6.861l2.708-6.679,13.9,1.264-.934-6.679,3.43-8.486Z" transform="translate(-116.503 -147.533)" fill="#ffb096" stroke="rgba(0,0,0,0)" stroke-miterlimit="10" stroke-width="1"/>
      <path id="路径_20237" data-name="路径 20237" d="M192.5,216.143l-12.213,15.4-11.353-35.744s12.679-.2,15.495,4.2C186.754,203.623,191.276,209.622,192.5,216.143Z" transform="translate(-115.687 -152.51)" fill="#f35c5c" stroke="rgba(0,0,0,0)" stroke-miterlimit="10" stroke-width="1"/>
      <path id="路径_20238" data-name="路径 20238" d="M160.692,226.411a6.047,6.047,0,1,0,6.047-6.047A6.048,6.048,0,0,0,160.692,226.411Z" transform="translate(-118.315 -144.674)" fill="#ffb096" stroke="rgba(0,0,0,0)" stroke-miterlimit="10" stroke-width="1"/>
      <rect id="矩形_900" data-name="矩形 900" width="11.012" height="17.331" rx="1.521" transform="translate(37.412 75.419)" fill="#35324c" stroke="rgba(0,0,0,0)" stroke-miterlimit="10" stroke-width="1"/>
      <path id="路径_20239" data-name="路径 20239" d="M167.791,235.513a6.047,6.047,0,1,1-6.047-6.047A6.047,6.047,0,0,1,167.791,235.513Z" transform="translate(-119.908 -141.771)" fill="#ffb096" stroke="rgba(0,0,0,0)" stroke-miterlimit="10" stroke-width="1"/>
    </g>
    <g id="组_1778" data-name="组 1778" transform="translate(199.184 357.813)">
      <path id="路径_20240" data-name="路径 20240" d="M220.622,380.23a350.518,350.518,0,0,0-46.657-2.742c-3.751.03-8.317.645-9.757,4.108-1.575,3.793,1.941,7.712,5.372,9.968,16.376,10.776,37.207,11.286,56.809,11.442a64.6,64.6,0,0,0,2.019-10.416c-1.257-1.57,5.636-5.892,4.378-7.461C230.94,382.826,220.245,383.157,220.622,380.23Z" transform="translate(-163.82 -279.19)" fill="#35324c" stroke="rgba(0,0,0,0)" stroke-miterlimit="10" stroke-width="1"/>
      <path id="路径_20241" data-name="路径 20241" d="M219.171,380.23a350.531,350.531,0,0,1,46.657-2.742c3.751.03,8.318.645,9.757,4.108,1.576,3.793-1.941,7.712-5.372,9.968-12.158,8-24.97,10.86-42.978,9.772-5.111-.309-8.781,1.63-13.83,1.67a64.607,64.607,0,0,1-2.019-10.416c1.258-1.57,2.374-3.07,3.631-4.64C216.863,385.648,219.548,383.157,219.171,380.23Z" transform="translate(-148.651 -279.19)" fill="#35324c" stroke="rgba(0,0,0,0)" stroke-miterlimit="10" stroke-width="1"/>
      <path id="路径_20247" data-name="路径 20247" d="M197.586,336.876a136.918,136.918,0,0,1,23.057-2.944V333.9l.241.012.241-.02v.034c3.053.182,14.018-.141,17.616,5.649,3.965,6.381,6.55,53.6,6.55,53.6l-17.183,5.443a23.292,23.292,0,0,1-13.073.29L196.5,393.935S196.163,337.247,197.586,336.876Z" transform="translate(-153.409 -293.091)" fill="#fff" stroke="rgba(0,0,0,0)" stroke-miterlimit="10" stroke-width="1"/>
      <path id="路径_20248" data-name="路径 20248" d="M226.244,334.319s19.506,32.857,21.206,40.674c1.705,7.842,2.258,10.174-3.619,12.379-6.473,2.428-9.59-5.232-10.5-10.578-1.457-8.561-5.892-22.254-6.146-23.345C226.824,351.91,226.244,334.319,226.244,334.319Z" transform="translate(-143.912 -292.954)" fill="#f88d72" stroke="rgba(0,0,0,0)" stroke-miterlimit="10" stroke-width="1"/>
      <path id="路径_20249" data-name="路径 20249" d="M245.356,354.607l-11.968,15.087-11.126-35.027s12.424-.194,15.185,4.114C239.726,342.338,244.156,348.218,245.356,354.607Z" transform="translate(-145.182 -292.844)" fill="#35324c" stroke="rgba(0,0,0,0)" stroke-miterlimit="10" stroke-width="1"/>
      <path id="路径_20250" data-name="路径 20250" d="M205.677,335.179a82.978,82.978,0,0,1,12.029-1.246V333.9l.241.012.241-.02v.034a56.1,56.1,0,0,1,9.188.845,4.247,4.247,0,0,1-.8,1.876c-4.625,7.547-15.768,7.643-20.26.016A4.72,4.72,0,0,1,205.677,335.179Z" transform="translate(-150.471 -293.091)" fill="#ffb096" stroke="rgba(0,0,0,0)" stroke-miterlimit="10" stroke-width="1"/>
      <path id="路径_20251" data-name="路径 20251" d="M215.812,325.256h0a4.831,4.831,0,0,1,4.905,4.756l.141,9.016a4.833,4.833,0,0,1-4.756,4.906h0a4.833,4.833,0,0,1-4.906-4.756l-.14-9.018A4.831,4.831,0,0,1,215.812,325.256Z" transform="translate(-148.756 -295.845)" fill="#ffb096" stroke="rgba(0,0,0,0)" stroke-miterlimit="10" stroke-width="1"/>
      <path id="路径_20252" data-name="路径 20252" d="M215.778,325.715h0a4.83,4.83,0,0,1,4.905,4.756l.1,6.2a16.725,16.725,0,0,1-9.661.149l-.1-6.2A4.832,4.832,0,0,1,215.778,325.715Z" transform="translate(-148.767 -295.698)" fill="#f88d72" stroke="rgba(0,0,0,0)" stroke-miterlimit="10" stroke-width="1"/>
      <path id="路径_20253" data-name="路径 20253" d="M201.789,324.169a16.816,16.816,0,1,0,16.554-17.076A16.816,16.816,0,0,0,201.789,324.169Z" transform="translate(-151.712 -301.638)" fill="#ffb096" stroke="rgba(0,0,0,0)" stroke-miterlimit="10" stroke-width="1"/>
      <path id="路径_20254" data-name="路径 20254" d="M222.979,321.686a5.057,5.057,0,1,0,4.978-5.135A5.057,5.057,0,0,0,222.979,321.686Z" transform="translate(-144.954 -298.621)" fill="#ffb096" stroke="rgba(0,0,0,0)" stroke-miterlimit="10" stroke-width="1"/>
      <path id="路径_20255" data-name="路径 20255" d="M198.813,322.061a5.057,5.057,0,1,0,4.978-5.135A5.057,5.057,0,0,0,198.813,322.061Z" transform="translate(-152.661 -298.501)" fill="#ffb096" stroke="rgba(0,0,0,0)" stroke-miterlimit="10" stroke-width="1"/>
      <path id="路径_20256" data-name="路径 20256" d="M218.144,323.843a1.25,1.25,0,1,0,1.231-1.26A1.245,1.245,0,0,0,218.144,323.843Z" transform="translate(-146.495 -296.697)" fill="#35324c" stroke="rgba(0,0,0,0)" stroke-miterlimit="10" stroke-width="1"/>
      <path id="路径_20257" data-name="路径 20257" d="M209.258,323.981a1.251,1.251,0,1,0,1.231-1.259A1.246,1.246,0,0,0,209.258,323.981Z" transform="translate(-149.329 -296.653)" fill="#35324c" stroke="rgba(0,0,0,0)" stroke-miterlimit="10" stroke-width="1"/>
      <g id="组_1760" data-name="组 1760" transform="translate(71.459 20.352)">
        <path id="路径_20258" data-name="路径 20258" d="M223.253,321.086l.7-.673a6.72,6.72,0,0,0-5.95-1.928l.2.948A5.741,5.741,0,0,1,223.253,321.086Z" transform="translate(-218 -318.387)" fill="#35324c" stroke="rgba(0,0,0,0)" stroke-miterlimit="10" stroke-width="1"/>
      </g>
      <path id="路径_20259" data-name="路径 20259" d="M191.739,347.434s-23.829,25.082-23.515,27.9,18.89,15.774,18.89,15.774l4.625-1.98-6.271-15.989,16.617-18.812,4.077-6.584" transform="translate(-162.417 -288.771)" fill="#ffb096" stroke="rgba(0,0,0,0)" stroke-miterlimit="10" stroke-width="1"/>
      <g id="组_1761" data-name="组 1761" transform="translate(56.7 20.522)">
        <path id="路径_20260" data-name="路径 20260" d="M207.528,321.345a5.739,5.739,0,0,1,4.995-1.81l.174-.954a6.72,6.72,0,0,0-5.886,2.112Z" transform="translate(-206.81 -318.516)" fill="#35324c" stroke="rgba(0,0,0,0)" stroke-miterlimit="10" stroke-width="1"/>
      </g>
      <path id="路径_20261" data-name="路径 20261" d="M183.675,354.137l11.6,10.975,5.017-5.958,9.91-23.89s-11.792,1-16.182,4.764C190.813,342.778,184.675,347.713,183.675,354.137Z" transform="translate(-157.488 -292.653)" fill="#35324c" stroke="rgba(0,0,0,0)" stroke-miterlimit="10" stroke-width="1"/>
      <rect id="矩形_901" data-name="矩形 901" width="11.012" height="17.331" rx="1.521" transform="translate(58.916 68.468)" fill="#35324c" stroke="rgba(0,0,0,0)" stroke-miterlimit="10" stroke-width="1"/>
      <path id="路径_20262" data-name="路径 20262" d="M207.99,369.5a6.007,6.007,0,1,0,5.913-6.1A6.006,6.006,0,0,0,207.99,369.5Z" transform="translate(-149.734 -283.68)" fill="#ffb096" stroke="rgba(0,0,0,0)" stroke-miterlimit="10" stroke-width="1"/>
      <path id="路径_20263" data-name="路径 20263" d="M180.309,382.735a6.007,6.007,0,1,0,5.914-6.1A6.007,6.007,0,0,0,180.309,382.735Z" transform="translate(-158.562 -279.458)" fill="#ffb096" stroke="rgba(0,0,0,0)" stroke-miterlimit="10" stroke-width="1"/>
      <path id="路径_20264" data-name="路径 20264" d="M215.848,367.482l25.637-2.523s12.353-.133,11,7.764c-.975,5.683-7.807,5.951-12.054,6.194-.75.042-24.316-6.25-24.316-6.25Z" transform="translate(-147.228 -283.182)" fill="#ffb096" stroke="rgba(0,0,0,0)" stroke-miterlimit="10" stroke-width="1"/>
      <g id="组_1762" data-name="组 1762" transform="translate(63.674 32.161)">
        <path id="路径_20265" data-name="路径 20265" d="M214.132,329.846a9.52,9.52,0,0,1-2.034-.43l.226-.691a8.961,8.961,0,0,0,8.038-1.384l.467.557A9.606,9.606,0,0,1,214.132,329.846Z" transform="translate(-212.098 -327.341)" fill="#f2785b" stroke="rgba(0,0,0,0)" stroke-miterlimit="10" stroke-width="1"/>
      </g>
      <g id="组_1763" data-name="组 1763" transform="translate(55.21 21.862)">
        <path id="路径_20266" data-name="路径 20266" d="M211.052,330.277a5.373,5.373,0,1,1,5.373-5.373A5.379,5.379,0,0,1,211.052,330.277Zm0-9.776a4.4,4.4,0,1,0,4.4,4.4A4.407,4.407,0,0,0,211.052,320.5Z" transform="translate(-205.68 -319.532)" fill="#35324c" stroke="rgba(0,0,0,0)" stroke-miterlimit="10" stroke-width="1"/>
      </g>
      <g id="组_1764" data-name="组 1764" transform="translate(67.766 21.862)">
        <path id="路径_20267" data-name="路径 20267" d="M220.573,330.277a5.373,5.373,0,1,1,5.373-5.373A5.38,5.38,0,0,1,220.573,330.277Zm0-9.776a4.4,4.4,0,1,0,4.4,4.4A4.408,4.408,0,0,0,220.573,320.5Z" transform="translate(-215.2 -319.532)" fill="#35324c" stroke="rgba(0,0,0,0)" stroke-miterlimit="10" stroke-width="1"/>
      </g>
      <g id="组_1765" data-name="组 1765" transform="translate(50.087 20.893)">
        <rect id="矩形_902" data-name="矩形 902" width="0.969" height="6.844" transform="matrix(0.616, -0.788, 0.788, 0.616, 0, 0.764)" fill="#35324c" stroke="rgba(0,0,0,0)" stroke-miterlimit="10" stroke-width="1"/>
      </g>
      <g id="组_1766" data-name="组 1766" transform="translate(77.56 20.725)">
        <rect id="矩形_903" data-name="矩形 903" width="6.844" height="0.969" transform="translate(0 4.213) rotate(-37.997)" fill="#35324c" stroke="rgba(0,0,0,0)" stroke-miterlimit="10" stroke-width="1"/>
      </g>
      <path id="路径_20268" data-name="路径 20268" d="M223.82,304.346a45.746,45.746,0,0,0-7.656-1.356c-1.325-.1-2.82-.038-3.748.932s-.521,3.08.809,3.089c-4.1-.257-8.515-.435-11.969,1.829a2.6,2.6,0,0,0-.985.992,2.083,2.083,0,0,0,.93,2.481,5.819,5.819,0,0,0,2.747.673c-2.305.922-5.03,2.461-4.913,4.983a3.136,3.136,0,0,0,4.181,2.641,5.117,5.117,0,0,0-1.436,2.042,1.77,1.77,0,0,0,.83,2.146c.649.248,1.311-.19,1.968-.421,3.425-1.207,5.017-1.651,7.691-4.442a5.685,5.685,0,0,0-1.364,3,1.566,1.566,0,0,0,.131,1.026c.464.754,1.606.4,2.346-.074,2.836-1.818,2.573-1.145,4.475-3.954-1.176,1.765-3.192,3.631,1.617,4.265,2.432.321,2.555-3.262,2.795-3.089.212.154-.822,4.115,1.176,2.943,3.135-1.841,6.257-9.694,7.18-13.268C231.7,306.607,227.263,305.2,223.82,304.346Z" transform="translate(-152.591 -302.956)" fill="#35324c" stroke="rgba(0,0,0,0)" stroke-miterlimit="10" stroke-width="1"/>
      <path id="路径_20269" data-name="路径 20269" d="M227.192,310.072c.351.661.393,1.456.739,2.118.542,1.038,1.695,1.542,2.618,2.246s1.691,2.015,1.068,3c-.575.913-1.875.869-2.931.719a6.754,6.754,0,0,1,1.283,3.722c-.09,1.335-1.364,2.658-2.61,2.24a10.394,10.394,0,0,1-2.323-6.742,1.826,1.826,0,0,1-2.109,1.4,3.475,3.475,0,0,1-2.2-1.647C217.251,311.872,224.15,304.371,227.192,310.072Z" transform="translate(-145.977 -301.338)" fill="#35324c" stroke="rgba(0,0,0,0)" stroke-miterlimit="10" stroke-width="1"/>
      <path id="路径_20270" data-name="路径 20270" d="M219.438,389.977l5.439.363s-.847,5.439,1.208,7.01l-8.822-1.088Z" transform="translate(-146.776 -275.204)" fill="#ffb096" stroke="rgba(0,0,0,0)" stroke-miterlimit="10" stroke-width="1"/>
      <g id="组_1767" data-name="组 1767" transform="translate(64.943 26.444)">
        <path id="路径_20271" data-name="路径 20271" d="M216.824,324.888h-.973a.909.909,0,1,0-1.817,0h-.973a1.882,1.882,0,0,1,3.764,0Z" transform="translate(-213.06 -323.006)" fill="#35324c" stroke="rgba(0,0,0,0)" stroke-miterlimit="10" stroke-width="1"/>
      </g>
      <path id="路径_20272" data-name="路径 20272" d="M204.114,392.143a27.7,27.7,0,0,0-4.119-.791s2.9,5.681-.967,6.647l5.438.363,4.955-1.572.241-3.263Z" transform="translate(-152.592 -274.765)" fill="#ffb096" stroke="rgba(0,0,0,0)" stroke-miterlimit="10" stroke-width="1"/>
      <g id="组_1772" data-name="组 1772" transform="translate(56.885 112.655)">
        <path id="路径_20273" data-name="路径 20273" d="M224.632,398.793a2.837,2.837,0,0,0,1.823-2.485,5.875,5.875,0,0,0-.133-1.787c-.357-1.232-3-1.533-3.537-1.195s-9.748,4.552-9.748,4.552,1.088,5.285,1.785,5.264,7.35-3.533,7.35-3.533S223.461,399.25,224.632,398.793Z" transform="translate(-205.01 -386.832)" fill="#cd3d3d" stroke="rgba(0,0,0,0)" stroke-miterlimit="10" stroke-width="1"/>
        <path id="路径_20274" data-name="路径 20274" d="M226.364,390.53s-5.925-2.375-9.128-2.143c0,0-.855-.2-2.59,2.782s-7.556,4.259-7.687,13.276,1.256,8.183,1.256,8.183,6.621,1.835,10.394-6.208c1.84-3.92,7.254-5.414,7.254-5.414s.82-1.407-.487-1.258-7.577,4.234-7.577,4.234l-.116-1.5s7.838-3.127,8.223-4.771-1.81-4.177-1.262-5.5A2.949,2.949,0,0,1,226.364,390.53Z" transform="translate(-206.951 -388.371)" fill="#f35c5c" stroke="rgba(0,0,0,0)" stroke-miterlimit="10" stroke-width="1"/>
        <path id="路径_20275" data-name="路径 20275" d="M206.959,404.445c-.129,9.019,1.256,8.183,1.256,8.183a7.634,7.634,0,0,0,2.456.137c-.563-.993-1.843-3.971-1.228-9.789.777-7.352,5.034-7.04,6.41-10.09a15.162,15.162,0,0,1,3.139-4.421,9.147,9.147,0,0,0-1.756-.078s-.855-.2-2.59,2.782S207.09,395.427,206.959,404.445Z" transform="translate(-206.951 -388.371)" fill="#fff" stroke="rgba(0,0,0,0)" stroke-miterlimit="10" stroke-width="1"/>
        <g id="组_1768" data-name="组 1768" transform="translate(16.033 8.333)">
          <path id="路径_20276" data-name="路径 20276" d="M219.111,395.23a.607.607,0,0,1,1.045-.351,5.3,5.3,0,0,1,1.477,3.367,2.547,2.547,0,0,1-1,1.825.608.608,0,1,1-.757-.952,1.3,1.3,0,0,0,.539-.955,4.034,4.034,0,0,0-1.145-2.448A.611.611,0,0,1,219.111,395.23Z" transform="translate(-219.107 -394.689)" fill="#fff" stroke="rgba(0,0,0,0)" stroke-miterlimit="10" stroke-width="1"/>
        </g>
        <g id="组_1769" data-name="组 1769" transform="translate(13.859 9.345)">
          <path id="路径_20277" data-name="路径 20277" d="M217.462,396a.609.609,0,0,1,1.046-.351,5.31,5.31,0,0,1,1.476,3.368,2.569,2.569,0,0,1-1,1.824.609.609,0,1,1-.758-.952,1.33,1.33,0,0,0,.539-.955,4.045,4.045,0,0,0-1.145-2.449A.607.607,0,0,1,217.462,396Z" transform="translate(-217.458 -395.456)" fill="#fff" stroke="rgba(0,0,0,0)" stroke-miterlimit="10" stroke-width="1"/>
        </g>
        <g id="组_1770" data-name="组 1770" transform="translate(11.957 10.962)">
          <path id="路径_20278" data-name="路径 20278" d="M216.02,397.222a.609.609,0,0,1,1.046-.35,5.3,5.3,0,0,1,1.479,3.367,2.565,2.565,0,0,1-1,1.824.608.608,0,1,1-.757-.952,1.354,1.354,0,0,0,.539-.956,4.008,4.008,0,0,0-1.146-2.445A.605.605,0,0,1,216.02,397.222Z" transform="translate(-216.016 -396.682)" fill="#fff" stroke="rgba(0,0,0,0)" stroke-miterlimit="10" stroke-width="1"/>
        </g>
        <g id="组_1771" data-name="组 1771" transform="translate(9.919 12.275)">
          <path id="路径_20279" data-name="路径 20279" d="M214.475,398.218a.609.609,0,0,1,1.046-.351A5.307,5.307,0,0,1,217,401.235a2.565,2.565,0,0,1-1,1.824.609.609,0,0,1-.758-.952,1.358,1.358,0,0,0,.541-.952,4.043,4.043,0,0,0-1.147-2.451A.612.612,0,0,1,214.475,398.218Z" transform="translate(-214.471 -397.677)" fill="#fff" stroke="rgba(0,0,0,0)" stroke-miterlimit="10" stroke-width="1"/>
        </g>
      </g>
      <g id="组_1777" data-name="组 1777" transform="translate(49.235 115.519)">
        <path id="路径_20280" data-name="路径 20280" d="M202.886,400.717a2.838,2.838,0,0,1-1.734-2.548,5.8,5.8,0,0,1,.2-1.782c.4-1.217,3.055-1.424,3.577-1.07s9.582,4.891,9.582,4.891-1.273,5.244-1.969,5.2-7.221-3.789-7.221-3.789S204.04,401.213,202.886,400.717Z" transform="translate(-201.15 -389.069)" fill="#cd3d3d" stroke="rgba(0,0,0,0)" stroke-miterlimit="10" stroke-width="1"/>
        <path id="路径_20281" data-name="路径 20281" d="M202.906,392.4s6.006-2.167,9.2-1.823c0,0,.861-.168,2.491,2.873s7.4,4.52,7.216,13.537-1.542,8.134-1.542,8.134-6.682,1.6-10.17-6.57c-1.7-3.983-7.059-5.666-7.059-5.666s-.772-1.435.53-1.24,7.424,4.5,7.424,4.5l.169-1.5s-7.724-3.4-8.051-5.057,1.955-4.11,1.453-5.455A2.951,2.951,0,0,0,202.906,392.4Z" transform="translate(-200.619 -390.542)" fill="#f35c5c" stroke="rgba(0,0,0,0)" stroke-miterlimit="10" stroke-width="1"/>
        <path id="路径_20282" data-name="路径 20282" d="M219.99,406.988c-.187,9.016-1.542,8.134-1.542,8.134a7.621,7.621,0,0,1-2.458.05c.6-.973,1.98-3.905,1.569-9.74-.518-7.374-4.784-7.213-6.051-10.307a15.181,15.181,0,0,0-2.982-4.529,9.267,9.267,0,0,1,1.757-.017s.861-.168,2.491,2.873S220.177,397.971,219.99,406.988Z" transform="translate(-198.798 -390.541)" fill="#fff" stroke="rgba(0,0,0,0)" stroke-miterlimit="10" stroke-width="1"/>
        <g id="组_1773" data-name="组 1773" transform="translate(2.798 8.127)">
          <path id="路径_20283" data-name="路径 20283" d="M205.9,397.265a.609.609,0,0,0-1.033-.386,5.3,5.3,0,0,0-1.595,3.313,2.548,2.548,0,0,0,.932,1.858.608.608,0,1,0,.79-.925,1.3,1.3,0,0,1-.505-.973,4.031,4.031,0,0,1,1.231-2.406A.615.615,0,0,0,205.9,397.265Z" transform="translate(-203.272 -396.704)" fill="#fff" stroke="rgba(0,0,0,0)" stroke-miterlimit="10" stroke-width="1"/>
        </g>
        <g id="组_1774" data-name="组 1774" transform="translate(4.936 9.213)">
          <path id="路径_20284" data-name="路径 20284" d="M207.522,398.089a.617.617,0,0,0-.174-.38.607.607,0,0,0-.859-.007,5.3,5.3,0,0,0-1.595,3.314,2.565,2.565,0,0,0,.933,1.858.609.609,0,0,0,.79-.926,1.332,1.332,0,0,1-.506-.972,4.044,4.044,0,0,1,1.232-2.408A.609.609,0,0,0,207.522,398.089Z" transform="translate(-204.893 -397.528)" fill="#fff" stroke="rgba(0,0,0,0)" stroke-miterlimit="10" stroke-width="1"/>
        </g>
        <g id="组_1775" data-name="组 1775" transform="translate(6.779 10.897)">
          <path id="路径_20285" data-name="路径 20285" d="M208.919,399.365a.6.6,0,0,0-.173-.379.607.607,0,0,0-.86-.008,5.306,5.306,0,0,0-1.595,3.313,2.56,2.56,0,0,0,.931,1.857.608.608,0,1,0,.791-.924,1.353,1.353,0,0,1-.506-.973,4.014,4.014,0,0,1,1.231-2.4A.6.6,0,0,0,208.919,399.365Z" transform="translate(-206.29 -398.804)" fill="#fff" stroke="rgba(0,0,0,0)" stroke-miterlimit="10" stroke-width="1"/>
        </g>
        <g id="组_1776" data-name="组 1776" transform="translate(8.769 12.28)">
          <path id="路径_20286" data-name="路径 20286" d="M210.428,400.414a.609.609,0,0,0-1.033-.386,5.31,5.31,0,0,0-1.595,3.314,2.565,2.565,0,0,0,.931,1.857.609.609,0,1,0,.791-.925,1.36,1.36,0,0,1-.506-.971,4.043,4.043,0,0,1,1.232-2.408A.611.611,0,0,0,210.428,400.414Z" transform="translate(-207.799 -399.853)" fill="#fff" stroke="rgba(0,0,0,0)" stroke-miterlimit="10" stroke-width="1"/>
        </g>
      </g>
    </g>
    <g id="组_1780" data-name="组 1780" transform="translate(504.881 195.122)">
      <path id="路径_20293" data-name="路径 20293" d="M386.016,184.652a4.008,4.008,0,0,0-3.756-2.531l-6.151.075a4.118,4.118,0,0,0-4.069,4.168l.175,14.506a4.119,4.119,0,0,0,4.168,4.069l6.152-.074a4.016,4.016,0,0,0,3.7-2.61Z" transform="translate(-372.039 -166.852)" fill="#d2afff" stroke="rgba(0,0,0,0)" stroke-miterlimit="10" stroke-width="1"/>
      <path id="路径_20294" data-name="路径 20294" d="M405.314,189.112a2.879,2.879,0,1,0-.07-5.757l-3.068.037-4.661.057-2.94.036a28.264,28.264,0,0,1,.166-3.767c.89-5.131.369-8.833-3.334-9.151-4.681-.4-3.212,4.643-3.212,4.643l-.024,5.236a6.412,6.412,0,0,1-1.072,2.7l-3.581,4.847.211,17.539,1.564,1.1,9.846-.119,6.82-.083.909-.011a2.879,2.879,0,0,0-.07-5.757l1.208-.015a2.879,2.879,0,1,0-.07-5.757l1.447-.017a2.879,2.879,0,0,0-.07-5.757Z" transform="translate(-368.378 -170.544)" fill="#d2afff" stroke="rgba(0,0,0,0)" stroke-miterlimit="10" stroke-width="1"/>
    </g>
    <g id="组_1782" data-name="组 1782" transform="translate(562.073 270.594)">
      <path id="路径_20297" data-name="路径 20297" d="M411.545,140.9a3.054,3.054,0,0,0-3.448-.116l-3.941,2.534a3.136,3.136,0,0,0-.943,4.334l5.973,9.294a3.136,3.136,0,0,0,4.334.943l3.942-2.534a3.056,3.056,0,0,0,1.331-3.176Z" transform="translate(-402.715 -125.393)" fill="#d2afff" stroke="rgba(0,0,0,0)" stroke-width="1"/>
      <path id="路径_20298" data-name="路径 20298" d="M425.222,135.729a2.192,2.192,0,1,0-2.37-3.689l-1.966,1.264-2.986,1.919-1.883,1.211a21.533,21.533,0,0,1-1.415-2.5c-1.5-3.672-3.33-5.852-5.849-4.561-3.184,1.633-.2,4.294-.2,4.294l2.1,3.391a4.888,4.888,0,0,1,.4,2.175l-.354,4.577,7.222,11.237,1.452.076,6.308-4.053,4.37-2.809.583-.375a2.192,2.192,0,1,0-2.371-3.688l.774-.5a2.192,2.192,0,1,0-2.37-3.689l.926-.6a2.192,2.192,0,1,0-2.37-3.688Z" transform="translate(-401.259 -128.999)" fill="#d2afff" stroke="rgba(0,0,0,0)" stroke-width="1"/>
    </g>
    <g id="组_1783" data-name="组 1783" transform="translate(58.093 360.039)">
      <path id="路径_20299" data-name="路径 20299" d="M105.565,190.854a3.581,3.581,0,0,0-4.032-.348l-4.775,2.725a3.681,3.681,0,0,0-1.37,5.021l6.427,11.256a3.68,3.68,0,0,0,5.021,1.372l4.773-2.726a3.585,3.585,0,0,0,1.754-3.64Z" transform="translate(-94.903 -172.684)" fill="#d2afff" stroke="rgba(0,0,0,0)" stroke-width="1"/>
      <path id="路径_20300" data-name="路径 20300" d="M121.856,185.694a2.572,2.572,0,0,0-2.551-4.467l-2.381,1.359-3.618,2.065-2.28,1.3a25.431,25.431,0,0,1-1.5-3.015c-1.529-4.395-3.541-7.06-6.572-5.7-3.831,1.716-.5,5.018-.5,5.018l2.253,4.1a5.746,5.746,0,0,1,.331,2.573l-.7,5.34,7.771,13.609,1.7.181,7.639-4.363,5.293-3.022.706-.4A2.572,2.572,0,0,0,124.9,195.8l.936-.534a2.573,2.573,0,1,0-2.551-4.469l1.122-.641a2.571,2.571,0,1,0-2.549-4.466Z" transform="translate(-92.925 -176.881)" fill="#d2afff" stroke="rgba(0,0,0,0)" stroke-width="1"/>
    </g>
    <g id="组_1784" data-name="组 1784" transform="translate(79.956 285.768)">
      <path id="路径_20301" data-name="路径 20301" d="M147.819,141.119a2.791,2.791,0,0,0-2.538-1.868L141,139.124a2.865,2.865,0,0,0-2.948,2.779l-.3,10.086a2.864,2.864,0,0,0,2.779,2.948l4.277.127a2.792,2.792,0,0,0,2.643-1.707Z" transform="translate(-137.757 -128.993)" fill="#d2afff" stroke="rgba(0,0,0,0)" stroke-width="1"/>
      <path id="路径_20302" data-name="路径 20302" d="M161.208,144.767a2,2,0,1,0,.119-4l-2.133-.063-3.241-.1-2.044-.061a19.652,19.652,0,0,1,.224-2.613c.768-3.539.512-6.128-2.052-6.455-3.242-.414-2.366,3.132-2.366,3.132l-.168,3.639a4.465,4.465,0,0,1-.824,1.844l-2.629,3.264-.36,12.195,1.054.809,6.845.2,4.743.14.632.02a2,2,0,1,0,.117-4l.84.024a2,2,0,1,0,.119-4l1.006.03a2,2,0,1,0,.117-4Z" transform="translate(-135.213 -131.442)" fill="#d2afff" stroke="rgba(0,0,0,0)" stroke-width="1"/>
    </g>
  </g>
</svg>
