<svg xmlns="http://www.w3.org/2000/svg" width="51.42" height="63.515" viewBox="0 0 51.42 63.515"><defs><style>.a,.d{fill:#7257fa;}.a{stroke:rgba(0,0,0,0);stroke-miterlimit:10;}.b{fill:#fff;}.c{fill:#ffd8e5;}.e{fill:#471066;opacity:0.2;mix-blend-mode:multiply;isolation:isolate;}</style></defs><g transform="matrix(0.966, 0.259, -0.259, 0.966, -416.805, -517.505)"><circle class="a" cx="25.21" cy="25.21" r="25.21" transform="translate(540.285 404.031) rotate(-15)"/><path class="b" d="M10.236,2.9a1.549,1.549,0,0,1,.772.533,1.482,1.482,0,0,1,.285.927,1.358,1.358,0,0,1-.587,1.178,2.95,2.95,0,0,1-1.711.415H6.076V.084H8.827a2.7,2.7,0,0,1,1.6.407,1.307,1.307,0,0,1,.562,1.12,1.47,1.47,0,0,1-.2.772A1.378,1.378,0,0,1,10.236,2.9ZM7.166.939V2.558H8.71a1.569,1.569,0,0,0,.876-.205.677.677,0,0,0,.306-.6.685.685,0,0,0-.306-.608A1.569,1.569,0,0,0,8.71.939ZM8.928,5.1q1.267,0,1.267-.847T8.928,3.405H7.166V5.1Zm7.851-.059v.914h-4.4V.084h4.286V1h-3.2V2.525H16.3v.9H13.466V5.041Zm2.952,1a4.479,4.479,0,0,1-1.313-.193,2.739,2.739,0,0,1-1-.512l.377-.847a2.973,2.973,0,0,0,.885.466,3.218,3.218,0,0,0,1.053.18,1.819,1.819,0,0,0,.977-.21.635.635,0,0,0,.323-.554.536.536,0,0,0-.18-.415,1.266,1.266,0,0,0-.457-.256q-.277-.092-.755-.21a8.8,8.8,0,0,1-1.086-.319,1.787,1.787,0,0,1-.713-.5,1.344,1.344,0,0,1-.3-.918,1.567,1.567,0,0,1,.264-.885,1.788,1.788,0,0,1,.8-.633A3.228,3.228,0,0,1,19.907,0a4.213,4.213,0,0,1,1.057.134,2.921,2.921,0,0,1,.9.386l-.344.847a3.393,3.393,0,0,0-.805-.344A3.012,3.012,0,0,0,19.9.906a1.7,1.7,0,0,0-.96.218.673.673,0,0,0-.315.579.523.523,0,0,0,.18.411,1.3,1.3,0,0,0,.457.252q.277.092.755.21a7.944,7.944,0,0,1,1.074.315,1.839,1.839,0,0,1,.717.5,1.315,1.315,0,0,1,.3.906,1.547,1.547,0,0,1-.264.881,1.8,1.8,0,0,1-.8.629A3.259,3.259,0,0,1,19.731,6.039ZM24.21,1.007H22.264V.084h4.982v.923H25.3V5.955H24.21Zm-21.9,13.42A4.479,4.479,0,0,1,1,14.234a2.739,2.739,0,0,1-1-.512l.377-.847a2.973,2.973,0,0,0,.885.466,3.218,3.218,0,0,0,1.053.18,1.819,1.819,0,0,0,.977-.21.635.635,0,0,0,.323-.554.536.536,0,0,0-.18-.415,1.266,1.266,0,0,0-.457-.256q-.277-.092-.755-.21a8.8,8.8,0,0,1-1.086-.319,1.788,1.788,0,0,1-.713-.5,1.344,1.344,0,0,1-.3-.918A1.567,1.567,0,0,1,.39,9.256a1.788,1.788,0,0,1,.8-.633,3.228,3.228,0,0,1,1.3-.235,4.213,4.213,0,0,1,1.057.134,2.921,2.921,0,0,1,.9.386L4.1,9.755A3.393,3.393,0,0,0,3.3,9.411a3.012,3.012,0,0,0-.814-.117,1.7,1.7,0,0,0-.96.218.673.673,0,0,0-.315.579.523.523,0,0,0,.18.411,1.3,1.3,0,0,0,.457.252q.277.092.755.21a7.944,7.944,0,0,1,1.074.315,1.839,1.839,0,0,1,.717.5,1.315,1.315,0,0,1,.3.906,1.547,1.547,0,0,1-.264.881,1.8,1.8,0,0,1-.8.629A3.259,3.259,0,0,1,2.315,14.427Zm7.775-1v.914h-4.4V8.471H9.973v.914h-3.2v1.527H9.612v.9H6.777v1.619Zm1.132-4.957h1.09V13.42h3.07v.923h-4.16Zm4.94,0h1.09V13.42h3.07v.923h-4.16Zm9.344,4.957v.914H21.1V8.471h4.286v.914h-3.2v1.527h2.835v.9H22.193v1.619Zm4.974.914-1.2-1.719a2.235,2.235,0,0,1-.226.008H27.729v1.711h-1.09V8.471h2.416a3.25,3.25,0,0,1,1.329.252,1.933,1.933,0,0,1,.868.721,2.018,2.018,0,0,1,.3,1.116,1.989,1.989,0,0,1-.323,1.141,1.921,1.921,0,0,1-.927.713l1.35,1.929Zm-.025-3.783a1.052,1.052,0,0,0-.369-.864A1.675,1.675,0,0,0,29,9.394H27.729v2.34H29a1.658,1.658,0,0,0,1.082-.306A1.065,1.065,0,0,0,30.455,10.56Z" transform="matrix(0.966, -0.259, 0.259, 0.966, 556.327, 427.65)"/><g transform="translate(548.403 388.816) rotate(-15)"><path class="c" d="M7.412,12.355c-.961,2.22-2.545,5.212-3.564,7.089-.581,1.065-.977,1.768-.977,1.768L0,19.37s.076-.811.242-2.1C.952,11.686,3.338-2.856,8.528.5,11.483,2.4,9.164,8.311,7.412,12.355Z" transform="translate(16.729)"/><path class="b" d="M8.067,7.013l-2.455,2.1L4.355,7.783,0,3.156,3.928,0l.639,1.083Z" transform="translate(4.138 12.636)"/><path class="d" d="M1.742,0,4.291,4.546l-1.062.807L0,1.742Z" transform="translate(5.881 14.548)"/><path class="e" d="M4.355,7.783,0,3.156,3.928,0l.639,1.084A46.88,46.88,0,0,1,4.355,7.783Z" transform="translate(4.138 12.636)"/><path class="b" d="M7.412,12.355c-.961,2.22-2.545,5.212-3.564,7.089-.581,1.065-.978,1.768-.978,1.768L0,19.37s.076-.811.242-2.1C.952,11.686,3.338-2.856,8.528.5,11.483,2.4,9.164,8.311,7.412,12.355Z" transform="translate(16.919)"/><path class="d" d="M0,16.187S2.543,3.741,4.375,1.118C6.02-1.238,7.665.557,7.217,2.576S1.384,17.458,1.384,17.458Z" transform="translate(17.246 4.566)"/><path class="e" d="M3.848,2.176C3.267,3.242,2.87,3.945,2.87,3.945L0,2.1S.076,1.291.242,0A9.921,9.921,0,0,1,3.848,2.176Z" transform="translate(16.919 17.267)"/><g transform="translate(3.783 17.212)"><path class="c" d="M19.7,11.946c0,6.119-4.41,6.566-9.849,6.566S0,18.065,0,11.946,4.409,0,9.849,0,19.7,5.827,19.7,11.946Z"/><path class="b" d="M19.7,11.946c0,6.119-4.409,6.566-9.848,6.566S0,18.065,0,11.946,4.409,0,9.849,0,19.7,5.827,19.7,11.946Z" transform="translate(0.165 0.165)"/><path class="d" d="M5.1,1.61A1.671,1.671,0,0,1,3.67,3.442,1.339,1.339,0,0,1,2.551,2.75a1.343,1.343,0,0,1-1.12.692A1.672,1.672,0,0,1,0,1.61a.32.32,0,1,1,.64,0C.64,2.257,1,2.8,1.431,2.8s.792-.545.792-1.192a.339.339,0,0,1,.012-.088C1.456,1.423.867.973.867.6c0-.426.754-.6,1.685-.6S4.236.17,4.236.6c0,.376-.589.827-1.368.926a.331.331,0,0,1,.012.088c0,.646.362,1.192.791,1.192s.793-.545.793-1.192a.32.32,0,1,1,.64,0Z" transform="translate(7.462 12.618)"/><g transform="translate(5.21 6.28)"><path class="d" d="M1.641,0C.735,0,0,1.2,0,2.69s.735,2.69,1.641,2.69S3.283,4.175,3.283,2.69,2.547,0,1.641,0ZM1.109,2.81a.585.585,0,1,1,.583-.583A.584.584,0,0,1,1.109,2.81Z" transform="translate(6.323)"/><path class="d" d="M0,2.69c0,1.485.735,2.69,1.642,2.69S3.283,4.175,3.283,2.69,2.547,0,1.642,0,0,1.2,0,2.69Zm1.591-.463a.584.584,0,1,1,.583.583A.586.586,0,0,1,1.591,2.227Z"/></g></g><path class="c" d="M7.792,1.163s.773,14.35-4.055,14.4c-5.678.064-3.388-9.245-2.678-12.3A4,4,0,0,1,7.792,1.163Z" transform="translate(0 11.472)"/><path class="b" d="M7.792,1.163s.773,14.35-4.055,14.4c-5.678.064-3.388-9.245-2.678-12.3A4,4,0,0,1,7.792,1.163Z" transform="translate(0.275 11.472)"/></g></g></svg>
