<svg xmlns="http://www.w3.org/2000/svg" width="41.031" height="50.531" viewBox="0 0 41.031 50.531"><defs><style>.a,.d{fill:#7257fa;}.a{stroke:rgba(0,0,0,0);stroke-miterlimit:10;}.b{fill:#fff;}.c{fill:#ffd8e5;}.e{fill:#471066;opacity:0.2;mix-blend-mode:multiply;isolation:isolate;}</style></defs><g transform="matrix(0.966, 0.259, -0.259, 0.966, -417.987, -515.688)"><circle class="a" cx="20.016" cy="20.016" r="20.016" transform="translate(540.285 399.464) rotate(-15)"/><path class="b" d="M8.127,2.3a1.23,1.23,0,0,1,.613.423,1.177,1.177,0,0,1,.226.736A1.078,1.078,0,0,1,8.5,4.4a2.342,2.342,0,0,1-1.358.33H4.824V.067H7.008A2.145,2.145,0,0,1,8.28.39a1.038,1.038,0,0,1,.446.889,1.167,1.167,0,0,1-.16.613A1.094,1.094,0,0,1,8.127,2.3ZM5.69.746V2.031H6.915a1.245,1.245,0,0,0,.7-.163.537.537,0,0,0,.243-.476A.544.544,0,0,0,7.611.909a1.245,1.245,0,0,0-.7-.163Zm1.4,3.3q1.006,0,1.006-.673T7.088,2.7H5.69V4.049ZM13.321,4v.726h-3.5V.067h3.4V.792H10.691V2h2.251v.713H10.691V4Zm2.344.792a3.556,3.556,0,0,1-1.042-.153,2.175,2.175,0,0,1-.8-.406l.3-.673a2.361,2.361,0,0,0,.7.37,2.555,2.555,0,0,0,.836.143,1.444,1.444,0,0,0,.776-.166.5.5,0,0,0,.256-.44.426.426,0,0,0-.143-.33,1,1,0,0,0-.363-.2q-.22-.073-.6-.166a6.987,6.987,0,0,1-.862-.253,1.419,1.419,0,0,1-.566-.4,1.067,1.067,0,0,1-.236-.729,1.244,1.244,0,0,1,.21-.7,1.419,1.419,0,0,1,.633-.5A2.563,2.563,0,0,1,15.805,0a3.345,3.345,0,0,1,.839.107,2.319,2.319,0,0,1,.713.306l-.273.673a2.694,2.694,0,0,0-.639-.273A2.391,2.391,0,0,0,15.8.719a1.349,1.349,0,0,0-.762.173.534.534,0,0,0-.25.459.415.415,0,0,0,.143.326,1.034,1.034,0,0,0,.363.2q.22.073.6.166a6.307,6.307,0,0,1,.852.25,1.46,1.46,0,0,1,.569.4,1.044,1.044,0,0,1,.236.719,1.228,1.228,0,0,1-.21.7,1.427,1.427,0,0,1-.636.5A2.587,2.587,0,0,1,15.665,4.795Zm3.556-4H17.677V.067h3.956V.8H20.087V4.728h-.866ZM1.838,11.454A3.556,3.556,0,0,1,.8,11.3a2.175,2.175,0,0,1-.8-.406l.3-.673a2.361,2.361,0,0,0,.7.37,2.555,2.555,0,0,0,.836.143,1.444,1.444,0,0,0,.776-.166.5.5,0,0,0,.256-.44.426.426,0,0,0-.143-.33,1,1,0,0,0-.363-.2q-.22-.073-.6-.166A6.987,6.987,0,0,1,.9,9.177a1.419,1.419,0,0,1-.566-.4A1.067,1.067,0,0,1,.1,8.051a1.244,1.244,0,0,1,.21-.7,1.419,1.419,0,0,1,.633-.5,2.563,2.563,0,0,1,1.036-.186,3.345,3.345,0,0,1,.839.107,2.319,2.319,0,0,1,.713.306l-.273.673a2.694,2.694,0,0,0-.639-.273,2.391,2.391,0,0,0-.646-.093,1.349,1.349,0,0,0-.762.173.534.534,0,0,0-.25.459.415.415,0,0,0,.143.326,1.034,1.034,0,0,0,.363.2q.22.073.6.166a6.307,6.307,0,0,1,.852.25,1.46,1.46,0,0,1,.569.4,1.044,1.044,0,0,1,.236.719,1.228,1.228,0,0,1-.21.7,1.427,1.427,0,0,1-.636.5A2.587,2.587,0,0,1,1.838,11.454Zm6.173-.792v.726h-3.5V6.726h3.4v.726H5.381V8.664H7.632v.713H5.381v1.285Zm.9-3.936h.866v3.929h2.437v.733H8.91Zm3.922,0H13.7v3.929h2.437v.733h-3.3Zm7.418,3.936v.726h-3.5V6.726h3.4v.726H17.621V8.664h2.251v.713H17.621v1.285Zm3.949.726-.952-1.365a1.775,1.775,0,0,1-.18.007H22.016v1.358H21.15V6.726h1.918a2.581,2.581,0,0,1,1.055.2,1.535,1.535,0,0,1,.689.573,1.6,1.6,0,0,1,.24.886,1.579,1.579,0,0,1-.256.906,1.525,1.525,0,0,1-.736.566l1.072,1.532Zm-.02-3a.836.836,0,0,0-.293-.686,1.33,1.33,0,0,0-.859-.24H22.016V9.316h1.012a1.317,1.317,0,0,0,.859-.243A.845.845,0,0,0,24.18,8.384Z" transform="matrix(0.966, -0.259, 0.259, 0.966, 553.021, 418.216)"/><g transform="translate(546.73 387.384) rotate(-15)"><path class="c" d="M5.885,9.809c-.763,1.763-2.021,4.138-2.83,5.628-.461.846-.776,1.4-.776,1.4L0,15.379s.06-.644.192-1.669C.756,9.278,2.65-2.268,6.771.394,9.117,1.907,7.276,6.6,5.885,9.809Z" transform="translate(13.282)"/><path class="b" d="M6.4,5.568,4.455,7.239l-1-1.06L0,2.506,3.119,0l.507.86Z" transform="translate(3.286 10.032)"/><path class="d" d="M1.383,0,3.407,3.61l-.843.641L0,1.383Z" transform="translate(4.669 11.551)"/><path class="e" d="M3.458,6.179,0,2.506,3.119,0l.507.86A37.22,37.22,0,0,1,3.458,6.179Z" transform="translate(3.286 10.032)"/><path class="b" d="M5.885,9.809c-.763,1.763-2.021,4.138-2.83,5.628-.461.846-.776,1.4-.776,1.4L0,15.379s.06-.644.192-1.669C.756,9.278,2.65-2.268,6.771.394,9.117,1.907,7.276,6.6,5.885,9.809Z" transform="translate(13.433)"/><path class="d" d="M0,12.851S2.019,2.97,3.474.887C4.78-.983,6.086.442,5.73,2.045S1.1,13.861,1.1,13.861Z" transform="translate(13.692 3.625)"/><path class="e" d="M3.055,1.728c-.461.846-.776,1.4-.776,1.4L0,1.669S.06,1.025.192,0A7.877,7.877,0,0,1,3.055,1.728Z" transform="translate(13.433 13.709)"/><g transform="translate(3.004 13.666)"><path class="c" d="M15.639,9.485c0,4.858-3.5,5.213-7.819,5.213S0,14.343,0,9.485,3.5,0,7.819,0,15.639,4.626,15.639,9.485Z"/><path class="b" d="M15.639,9.485c0,4.858-3.5,5.213-7.819,5.213S0,14.343,0,9.485,3.5,0,7.819,0,15.639,4.626,15.639,9.485Z" transform="translate(0.131 0.131)"/><path class="d" d="M4.051,1.279A1.327,1.327,0,0,1,2.914,2.733a1.063,1.063,0,0,1-.888-.55,1.066,1.066,0,0,1-.889.55A1.327,1.327,0,0,1,0,1.279a.254.254,0,1,1,.508,0c0,.513.288.946.628.946s.629-.433.629-.946a.269.269,0,0,1,.009-.07C1.156,1.13.688.772.688.474.688.135,1.287,0,2.026,0S3.363.135,3.363.474c0,.3-.468.656-1.086.735a.263.263,0,0,1,.009.07c0,.513.288.946.628.946s.629-.433.629-.946a.254.254,0,1,1,.508,0Z" transform="translate(5.924 10.018)"/><g transform="translate(4.137 4.986)"><path class="d" d="M1.3,0C.584,0,0,.955,0,2.136S.584,4.272,1.3,4.272s1.3-.957,1.3-2.136S2.023,0,1.3,0ZM.88,2.231a.464.464,0,1,1,.463-.463A.464.464,0,0,1,.88,2.231Z" transform="translate(5.021)"/><path class="d" d="M0,2.136C0,3.315.584,4.272,1.3,4.272s1.3-.957,1.3-2.136S2.023,0,1.3,0,0,.955,0,2.136Zm1.263-.368a.464.464,0,1,1,.463.463A.465.465,0,0,1,1.263,1.768Z"/></g></g><path class="c" d="M6.186.923S6.8,12.317,2.967,12.36C-1.541,12.411.277,5.02.84,2.594A3.176,3.176,0,0,1,6.186.923Z" transform="translate(0 9.109)"/><path class="b" d="M6.186.923S6.8,12.317,2.967,12.36C-1.541,12.411.277,5.02.84,2.594A3.176,3.176,0,0,1,6.186.923Z" transform="translate(0.218 9.109)"/></g></g></svg>