<svg xmlns="http://www.w3.org/2000/svg" width="155" height="46.243" viewBox="0 0 155 46.243"><defs><style>.a{fill:#ef6565;}.b{fill:#fff;}</style></defs><g transform="translate(-817.5 -307.717)"><path class="a" d="M-12901.55,1663.09l-4.949-6.09h-53a17.5,17.5,0,0,1-17.5-17.5,17.5,17.5,0,0,1,17.5-17.5h137.5v35h-71.5l-4.948,6.09a1.987,1.987,0,0,1-1.551.738A1.985,1.985,0,0,1-12901.55,1663.09Z" transform="translate(13794.5 -1309.868)"/><path class="b" d="M-12901.55,1663.09l-4.949-6.09h-53a17.5,17.5,0,0,1-17.5-17.5,17.5,17.5,0,0,1,17.5-17.5h137.5v35h-71.5l-4.948,6.09a1.987,1.987,0,0,1-1.551.738A1.985,1.985,0,0,1-12901.55,1663.09Z" transform="translate(13794.5 -1314.283)"/></g></svg>