<svg xmlns="http://www.w3.org/2000/svg" width="68" height="68" viewBox="0 0 68 68"><defs><style>.a{fill:#59ecd2;}.b{fill:#fff;}</style></defs><g transform="translate(-280 -6903)"><circle class="a" cx="34" cy="34" r="34" transform="translate(280 6903)"/><path class="b" d="M-16.07-6.88h3.24a1.567,1.567,0,0,1,.17.42,2.148,2.148,0,0,1,.07.56,1.054,1.054,0,0,1-.26.79.968.968,0,0,1-.7.25h-2.52v3.64a2.6,2.6,0,0,1-.46.11,3.644,3.644,0,0,1-.6.05,1.555,1.555,0,0,1-.93-.23,1.053,1.053,0,0,1-.31-.89V-4.86h-3.3a1.993,1.993,0,0,1-.17-.43,2.036,2.036,0,0,1-.07-.55,1.054,1.054,0,0,1,.26-.79,1,1,0,0,1,.72-.25h2.56v-3.58a3.277,3.277,0,0,1,.48-.11,3.644,3.644,0,0,1,.6-.05,1.514,1.514,0,0,1,.91.23,1.053,1.053,0,0,1,.31.89Zm5.98-3.88a1.572,1.572,0,0,1,.4-1.02,1.311,1.311,0,0,1,1-.38h5.94a2.1,2.1,0,0,1,.19.42,1.765,1.765,0,0,1,.09.58,1.162,1.162,0,0,1-.25.8.854.854,0,0,1-.67.28H-7.85l-.24,2.7a6.738,6.738,0,0,1,.86-.26,4.905,4.905,0,0,1,1.14-.12,5.036,5.036,0,0,1,1.73.28,3.667,3.667,0,0,1,1.31.8,3.51,3.51,0,0,1,.83,1.25,4.324,4.324,0,0,1,.29,1.61,4.241,4.241,0,0,1-.3,1.59A3.661,3.661,0,0,1-3.12-.92a4.263,4.263,0,0,1-1.49.89A6.091,6.091,0,0,1-6.71.3,8.124,8.124,0,0,1-8.34.15,5.092,5.092,0,0,1-9.59-.26a2.348,2.348,0,0,1-.8-.61,1.2,1.2,0,0,1-.28-.77,1.128,1.128,0,0,1,.26-.75,1.823,1.823,0,0,1,.58-.47,7.01,7.01,0,0,0,1.21.76,3.943,3.943,0,0,0,1.79.36A2.345,2.345,0,0,0-5.1-2.33a2.02,2.02,0,0,0,.59-1.49,1.826,1.826,0,0,0-.57-1.42,2.335,2.335,0,0,0-1.63-.52,3.2,3.2,0,0,0-1.09.17,6.121,6.121,0,0,0-.93.43,1.993,1.993,0,0,1-1.22-.43,1.423,1.423,0,0,1-.46-1.15q0-.1.01-.23t.03-.37ZM7.37-6.08a5.889,5.889,0,0,0-.71-3.25,2.118,2.118,0,0,0-1.81-1.05,2.09,2.09,0,0,0-1.8,1.06,5.965,5.965,0,0,0-.7,3.24A6.417,6.417,0,0,0,3-2.85,2.044,2.044,0,0,0,4.85-1.76,2.066,2.066,0,0,0,6.71-2.85,6.336,6.336,0,0,0,7.37-6.08ZM4.85.3A5.135,5.135,0,0,1,2.8-.1,4.305,4.305,0,0,1,1.2-1.29,5.574,5.574,0,0,1,.16-3.28a9.531,9.531,0,0,1-.37-2.8A8.936,8.936,0,0,1,.19-8.9a5.845,5.845,0,0,1,1.08-1.99,4.215,4.215,0,0,1,1.6-1.17,5.135,5.135,0,0,1,1.98-.38,5.02,5.02,0,0,1,1.98.39,4.45,4.45,0,0,1,1.61,1.17A5.637,5.637,0,0,1,9.53-8.9a8.936,8.936,0,0,1,.4,2.82,9.429,9.429,0,0,1-.37,2.79A5.6,5.6,0,0,1,8.51-1.3,4.347,4.347,0,0,1,6.9-.1,5.135,5.135,0,0,1,4.85.3ZM19.27-6.08a5.889,5.889,0,0,0-.71-3.25,2.118,2.118,0,0,0-1.81-1.05,2.09,2.09,0,0,0-1.8,1.06,5.965,5.965,0,0,0-.7,3.24,6.417,6.417,0,0,0,.65,3.23,2.044,2.044,0,0,0,1.85,1.09,2.066,2.066,0,0,0,1.86-1.09A6.336,6.336,0,0,0,19.27-6.08ZM16.75.3A5.135,5.135,0,0,1,14.7-.1a4.305,4.305,0,0,1-1.6-1.19,5.574,5.574,0,0,1-1.04-1.99,9.531,9.531,0,0,1-.37-2.8,8.936,8.936,0,0,1,.4-2.82,5.845,5.845,0,0,1,1.08-1.99,4.215,4.215,0,0,1,1.6-1.17,5.135,5.135,0,0,1,1.98-.38,5.02,5.02,0,0,1,1.98.39,4.45,4.45,0,0,1,1.61,1.17A5.637,5.637,0,0,1,21.43-8.9a8.936,8.936,0,0,1,.4,2.82,9.429,9.429,0,0,1-.37,2.79A5.6,5.6,0,0,1,20.41-1.3,4.347,4.347,0,0,1,18.8-.1,5.135,5.135,0,0,1,16.75.3Z" transform="translate(313.279 6943.619) rotate(-19)"/></g></svg>