<svg xmlns="http://www.w3.org/2000/svg" width="54" height="54" viewBox="0 0 54 54"><defs><style>.a{fill:#b1b2ff;}.b{fill:#fff;}</style></defs><g transform="translate(-105 -7089)"><circle class="a" cx="27" cy="27" r="27" transform="translate(105 7089)"/><g transform="translate(-208.884 6830.935) rotate(-9)"><path class="b" d="M295.369,326.137a5.744,5.744,0,0,1,2.676,4.271,4.586,4.586,0,0,0,1.964.442,4.644,4.644,0,1,0-4.64-4.713m-3.043,9.5A4.642,4.642,0,1,0,287.685,331a4.645,4.645,0,0,0,4.641,4.643m1.969.318h-3.939a5.949,5.949,0,0,0-5.943,5.942v4.82l.01.075.334.1a27.018,27.018,0,0,0,8.082,1.3,16.576,16.576,0,0,0,7.057-1.324l.31-.156h.033V341.9a5.95,5.95,0,0,0-5.944-5.942m7.681-4.8h-3.908a5.731,5.731,0,0,1-1.766,3.986,7.063,7.063,0,0,1,5.045,6.76v1.485a15.965,15.965,0,0,0,6.231-1.311l.31-.158h.034v-4.817a5.951,5.951,0,0,0-5.946-5.945m-17.8-.314a4.625,4.625,0,0,0,2.469-.716,5.737,5.737,0,0,1,2.159-3.666c.005-.086.013-.171.013-.258a4.643,4.643,0,1,0-4.641,4.64m4.169,4.3a5.729,5.729,0,0,1-1.765-3.962c-.145-.01-.288-.024-.436-.024h-3.94a5.952,5.952,0,0,0-5.944,5.945v4.817l.012.076.331.106a27.69,27.69,0,0,0,6.7,1.256V341.91a7.067,7.067,0,0,1,5.046-6.76"/></g></g></svg>