<svg xmlns="http://www.w3.org/2000/svg" width="55" height="55" viewBox="0 0 55 55"><defs><style>.a{fill:#59ecd2;}.b{fill:#fff;}</style></defs><g transform="translate(-1799 -6948)"><circle class="a" cx="27.5" cy="27.5" r="27.5" transform="translate(1799 6948)"/><path class="b" d="M284.609,403.583a7.581,7.581,0,1,0-9.252,0,13.985,13.985,0,0,0-9.357,13.2,1.18,1.18,0,0,0,1.18,1.18h25.605a1.18,1.18,0,0,0,1.18-1.18A13.987,13.987,0,0,0,284.609,403.583Zm-9.847-6a5.221,5.221,0,1,1,5.221,5.221A5.227,5.227,0,0,1,274.761,397.581Zm-6.342,18.024a11.623,11.623,0,0,1,23.126,0Zm27.788-18.024a1.18,1.18,0,0,1-1.18,1.18h-1.062v1.062a1.18,1.18,0,0,1-2.36,0v-1.062h-1.062a1.18,1.18,0,0,1,0-2.36h1.062v-1.062a1.18,1.18,0,0,1,2.36,0V396.4h1.062A1.18,1.18,0,0,1,296.207,397.581Z" transform="matrix(0.951, -0.309, 0.309, 0.951, 1434.271, 6677.172)"/></g></svg>