<svg xmlns="http://www.w3.org/2000/svg" width="69" height="69" viewBox="0 0 69 69"><defs><style>.a{fill:#b1b2ff;}.b{fill:#fff;}</style></defs><g transform="translate(-1570 -7070)"><circle class="a" cx="34.5" cy="34.5" r="34.5" transform="translate(1570 7070)"/><g transform="translate(1171.795 6917.152) rotate(-31)"><path class="b" d="M290.077,379.379c-.537-3.3-2.382-5.085-5.315-6.713a6.964,6.964,0,0,0-7.463.621c-2.1,1.479-3.345,4.083-3.892,4.007-.279-.038-1.9-2.965-4.559-4.083a8.7,8.7,0,0,0-5.719-.235,9.444,9.444,0,0,0-6.558,7.333c-1.554,9.024,9.365,16,16.1,19.929a2.317,2.317,0,0,0,2.531.228,2.572,2.572,0,0,0,.308-.158C282.451,395.829,291.694,389.335,290.077,379.379Z"/></g></g></svg>