<svg xmlns="http://www.w3.org/2000/svg" xmlns:xlink="http://www.w3.org/1999/xlink" width="343" height="538" viewBox="0 0 343 538"><defs><style>.a{fill:url(#a);}.b{fill:url(#b);}.c{clip-path:url(#c);}.d{opacity:0.58;fill:url(#d);}.e,.k{fill:none;}.e{stroke:#fff;stroke-width:2px;}.e,.f{opacity:0.7;}.f,.g,.h,.i{fill:#fff;}.g{opacity:0.73;}.h{opacity:0.64;}.i{opacity:0.06;}.j{stroke:none;}.l{filter:url(#e);}</style><linearGradient id="a" x1="0.837" y1="-0.489" x2="0.138" y2="1.425" gradientUnits="objectBoundingBox"><stop offset="0" stop-color="#5a0ed9"/><stop offset="1" stop-color="#ff6075"/></linearGradient><linearGradient id="b" x1="0.845" y1="-0.22" x2="0.132" y2="1.228" gradientUnits="objectBoundingBox"><stop offset="0" stop-color="#7c56ff"/><stop offset="1" stop-color="#ff8192"/></linearGradient><clipPath id="c"><rect class="a" width="343" height="438" rx="12" transform="translate(401 4395)"/></clipPath><linearGradient id="d" x1="0.027" y1="1.005" x2="0.974" y2="0.003" gradientUnits="objectBoundingBox"><stop offset="0" stop-color="#c19dd8" stop-opacity="0"/><stop offset="0.464" stop-color="#ff7dc3" stop-opacity="0.09"/><stop offset="1" stop-color="#ff437c"/></linearGradient><filter id="e" x="38.814" y="57.719" width="334.185" height="344.955" filterUnits="userSpaceOnUse"><feOffset dy="10" input="SourceAlpha"/><feGaussianBlur stdDeviation="10" result="f"/><feFlood flood-color="#630285" flood-opacity="0.29"/><feComposite operator="in" in2="f"/><feComposite in="SourceGraphic"/></filter></defs><g transform="translate(192 -6453)"><rect class="b" width="343" height="538" rx="12" transform="translate(-192 6453)"/><g class="c" transform="translate(-593 2058)"><g transform="translate(414.446 755.473)"><g class="l" transform="matrix(1, 0, 0, 1, -13.45, 3639.53)"><path class="d" d="M252.137,20.151,245.888,0,228.15,10.753l7.135,2.8C213.193,67.618,188.254,96.975,161.16,100.8c-9.046,1.278-17.069-.377-24.829-1.977-11.012-2.272-22.4-4.621-33.35,3.427-11.2,8.229-14.155,21.328-17.017,33.995-2.834,12.547-5.512,24.4-16.093,30.06a19.544,19.544,0,0,1-8.323,2.277,46.857,46.857,0,0,0-7.128,1.2C30.026,176.083,12.226,206.126,0,261.625l10.708,2.359c6.319-28.683,14.253-50.419,23.581-64.6,6.873-10.45,14.568-16.837,22.872-18.983a36.759,36.759,0,0,1,5.571-.912,30.185,30.185,0,0,0,12.31-3.509c15-8.025,18.515-23.584,21.616-37.312,2.529-11.2,4.918-21.772,12.815-27.576,6.693-4.919,13.386-3.845,24.642-1.524,8.272,1.706,17.647,3.641,28.579,2.1,13.963-1.973,27.328-9.351,39.723-21.93,15.425-15.654,29.919-39.94,43.079-72.181Z" transform="matrix(1, 0.09, -0.09, 1, 91.82, 77.72)"/></g><g class="e" transform="translate(5.093 3769.105)"><circle class="j" cx="3.599" cy="3.599" r="3.599"/><circle class="k" cx="3.599" cy="3.599" r="2.599"/></g><g class="e" transform="translate(320.554 3819.205)"><circle class="j" cx="4.5" cy="4.5" r="4.5"/><circle class="k" cx="4.5" cy="4.5" r="3.5"/></g><circle class="f" cx="2.5" cy="2.5" r="2.5" transform="translate(130.649 3648.827)"/><circle class="f" cx="2.5" cy="2.5" r="2.5" transform="translate(303.142 3652.815)"/><path class="g" d="M13.886,11.363A3.682,3.682,0,1,0,10.2,7.682,3.681,3.681,0,0,0,13.886,11.363ZM5.6,9.523V6.761H3.761V9.523H1v1.841H3.761v2.761H5.6V11.363H8.363V9.523ZM13.886,13.2c-2.458,0-7.363,1.233-7.363,3.682v1.841H21.249V16.886C21.249,14.438,16.343,13.2,13.886,13.2Z" transform="translate(284.542 3709.501) rotate(20)"/><path class="h" d="M8.565,14.624a1.711,1.711,0,0,1-.952-.444C4.232,11.114,2,9.092,2,6.611A3.576,3.576,0,0,1,5.611,3,3.931,3.931,0,0,1,8.565,4.372,3.931,3.931,0,0,1,11.519,3,3.576,3.576,0,0,1,15.13,6.611c0,2.481-2.232,4.5-5.613,7.576A1.7,1.7,0,0,1,8.565,14.624Z" transform="translate(-6.776 3657.403) rotate(-19)"/><path class="i" d="M110.427,165.628a55.207,55.207,0,1,1,55.2,55.213,55.207,55.207,0,0,1-55.2-55.213m-29.847,0A85.048,85.048,0,1,0,165.627,80.58a85.046,85.046,0,0,0-85.048,85.048m153.587-88.42A19.875,19.875,0,1,0,254.05,57.34h-.008a19.884,19.884,0,0,0-19.875,19.867M98.714,300.446c-16.148-.736-24.925-3.426-30.758-5.7A51.473,51.473,0,0,1,48.9,282.359a51.1,51.1,0,0,1-12.389-19.037c-2.274-5.83-4.963-14.61-5.7-30.758-.8-17.458-.963-22.7-.963-66.934s.174-49.46.963-66.934c.736-16.147,3.446-24.91,5.7-30.757A51.473,51.473,0,0,1,48.9,48.888,51.049,51.049,0,0,1,67.956,36.5c5.831-2.274,14.61-4.963,30.758-5.7,17.458-.8,22.7-.963,66.913-.963s49.46.171,66.933.966c16.149.735,24.911,3.444,30.757,5.7a51.311,51.311,0,0,1,19.052,12.389,51.324,51.324,0,0,1,12.389,19.051c2.274,5.831,4.963,14.61,5.7,30.757.8,17.474.963,22.7.963,66.933s-.16,49.46-.963,66.934c-.735,16.148-3.439,24.925-5.7,30.758a54.834,54.834,0,0,1-31.441,31.426c-5.829,2.274-14.608,4.964-30.757,5.7-17.458.8-22.7.963-66.933.963s-49.46-.16-66.913-.963M97.342,1c-17.632.8-29.68,3.6-40.2,7.694A81.287,81.287,0,0,0,27.8,27.8,80.872,80.872,0,0,0,8.7,57.141C4.6,67.669,1.806,79.711,1,97.342.187,115,0,120.648,0,165.628s.187,50.625,1,68.284c.8,17.634,3.6,29.674,7.693,40.2a80.969,80.969,0,0,0,19.1,29.34,81.367,81.367,0,0,0,29.34,19.1c10.542,4.1,22.57,6.89,40.2,7.693,17.669.8,23.305,1,68.285,1s50.625-.187,68.284-1c17.633-.8,29.674-3.6,40.2-7.693a84.675,84.675,0,0,0,48.444-48.444c4.1-10.529,6.9-22.57,7.693-40.2.8-17.673.989-23.306.989-68.284s-.187-50.625-.989-68.285c-.8-17.633-3.6-29.68-7.693-40.2a81.437,81.437,0,0,0-19.1-29.34A81.039,81.039,0,0,0,274.128,8.7C263.586,4.6,251.544,1.793,233.925,1,216.262.2,210.619,0,165.646,0s-50.629.187-68.3,1" transform="translate(-76.309 3653.826) rotate(30)"/></g></g></g></svg>