<svg xmlns="http://www.w3.org/2000/svg" xmlns:xlink="http://www.w3.org/1999/xlink" width="66.723" height="61" viewBox="0 0 66.723 61"><defs><style>.a{fill:url(#a);}.b{opacity:0.38;fill:url(#b);}.c{fill:#8b5dd8;}.d{clip-path:url(#d);}.e{opacity:0.21;mix-blend-mode:overlay;isolation:isolate;fill:url(#f);}.f{fill:#fff;}</style><linearGradient id="a" x1="0.5" x2="0.5" y2="1" gradientUnits="objectBoundingBox"><stop offset="0" stop-color="#e484f0"/><stop offset="1" stop-color="#8a86fe"/></linearGradient><linearGradient id="b" x1="0.099" y1="0.094" x2="0.901" y2="0.752" gradientUnits="objectBoundingBox"><stop offset="0" stop-color="#ffbc39"/><stop offset="1" stop-color="#fd9800"/></linearGradient><clipPath id="d"><path class="a" d="M0,20.094s26.792-8.931,46.886-4.465l-2.233,4.465,20.094-6.7L46.886,0l2.233,6.7S24.559,4.465,0,20.094Z" transform="translate(0 33.347) rotate(-31)"/></clipPath><linearGradient id="f" x1="0.449" y1="0.414" x2="0.917" y2="0.963" gradientUnits="objectBoundingBox"><stop offset="0" stop-color="#fff"/><stop offset="0.072" stop-color="#fff" stop-opacity="0.875"/><stop offset="0.216" stop-color="#fff" stop-opacity="0.647"/><stop offset="0.359" stop-color="#fff" stop-opacity="0.447"/><stop offset="0.5" stop-color="#fff" stop-opacity="0.286"/><stop offset="0.636" stop-color="#fff" stop-opacity="0.161"/><stop offset="0.767" stop-color="#fff" stop-opacity="0.071"/><stop offset="0.891" stop-color="#fff" stop-opacity="0.02"/><stop offset="1" stop-color="#fff" stop-opacity="0"/></linearGradient></defs><g transform="translate(-82.513 -2079.73)"><ellipse class="b" cx="32" cy="30.5" rx="32" ry="30.5" transform="translate(83 2079.73)"/><ellipse class="b" cx="30" cy="28" rx="30" ry="28" transform="translate(83 2084.73)"/><path class="c" d="M0,19.578s25.1-8.061,45.194-3.6l-2.763,5.789L64.28,13.107,46.952,0l.862,8.071S24.559,3.95,0,19.578Z" transform="translate(82.924 2115.549) rotate(-31)"/><g class="d" transform="translate(82.513 2081.991)"><path class="a" d="M0,20.094s26.792-8.931,46.886-4.465l-2.233,4.465,20.094-6.7L46.886,0l2.233,6.7S24.559,4.465,0,20.094Z" transform="translate(0 33.347) rotate(-31)"/><path class="e" d="M44.648,0C69.306,0,89.3,6.392,89.3,14.277S69.306,28.554,44.648,28.554,0,22.162,0,14.277,19.989,0,44.648,0Z" transform="translate(6.643 38.496) rotate(-26)"/></g><path class="a" d="M22.133,44.266a22.082,22.082,0,0,1-15.162-6.01L9.936,36.25A18.652,18.652,0,0,0,40.781,22.52L44.2,20.467c.041.555.061,1.115.061,1.666A22.129,22.129,0,0,1,22.133,44.266ZM2.58,32.523v0c-.318-.609-.6-1.207-.842-1.773A22.139,22.139,0,0,1,29.926,1.416L25.869,3.855a18.445,18.445,0,0,0-3.736-.381A18.684,18.684,0,0,0,3.467,22.133a18.371,18.371,0,0,0,2.018,8.434l-2.9,1.955Z" transform="translate(92.184 2090.449) rotate(-3)"/><path class="f" d="M131.106,2409.666l-7.119,8.268,4.364-.416-4.879,8.927,11-11.879-5.206.764Z" transform="translate(-6.125 -298.775)"/></g></svg>