<svg xmlns="http://www.w3.org/2000/svg" xmlns:xlink="http://www.w3.org/1999/xlink" width="79.457" height="45.095" viewBox="0 0 79.457 45.095"><defs><style>.a{fill:url(#a);}.b{opacity:0.68;}.c{fill:url(#b);}.d,.g{fill:#fff;}.e{clip-path:url(#e);}.f{opacity:0.24;mix-blend-mode:overlay;isolation:isolate;fill:url(#g);}.g{font-size:23px;font-family:Montserrat-Medium, Montserrat;font-weight:500;}</style><linearGradient id="a" x1="0.5" x2="0.5" y2="1" gradientUnits="objectBoundingBox"><stop offset="0" stop-color="#e484f0"/><stop offset="1" stop-color="#8a86fe"/></linearGradient><linearGradient id="b" x1="0.099" y1="0.094" x2="0.901" y2="0.752" gradientUnits="objectBoundingBox"><stop offset="0" stop-color="#ffbc39"/><stop offset="1" stop-color="#fd9800"/></linearGradient><clipPath id="e"><path class="a" d="M85.188,2535.156c6.115,0,34.386.561,39.207-1.33s12.637-8.734,10.775-16.071-7.09-3.12-13.232-12.76-13.8-13.613-23.16-10.021-11.06,11.91-19.85,12.005-19.724,9.834-14.273,20.039S79.074,2535.156,85.188,2535.156Z" transform="translate(-63.194 -2493.669)"/></clipPath><linearGradient id="g" x1="0.449" y1="0.414" x2="0.917" y2="0.963" gradientUnits="objectBoundingBox"><stop offset="0" stop-color="#fff"/><stop offset="0.072" stop-color="#fff" stop-opacity="0.875"/><stop offset="0.216" stop-color="#fff" stop-opacity="0.647"/><stop offset="0.359" stop-color="#fff" stop-opacity="0.447"/><stop offset="0.5" stop-color="#fff" stop-opacity="0.286"/><stop offset="0.636" stop-color="#fff" stop-opacity="0.161"/><stop offset="0.767" stop-color="#fff" stop-opacity="0.071"/><stop offset="0.891" stop-color="#fff" stop-opacity="0.02"/><stop offset="1" stop-color="#fff" stop-opacity="0"/></linearGradient></defs><g transform="translate(-88.611 -2507.657)"><g class="b" transform="matrix(0.998, -0.07, 0.07, 0.998, 88.611, 2517.337)"><path class="c" d="M19.134,15.266a11.78,11.78,0,0,1-5.592,2.395c-3.523.558-5.078-1.127-5.078-1.127s1.388-3.3,3.388-4.231a19.661,19.661,0,0,0-6.115,2.508s-2.151.033-3.008-3.251c0,0,1.275-1.976,5.551-3.043a14.088,14.088,0,0,0-6.351.3C1.648,8.93.45,4.685.087,2.726S.512.788,2.039.381,8.765-.284,9.721.556s1.441,3.711,1.441,3.711a5.678,5.678,0,0,0,.7-3.075,5.458,5.458,0,0,1,3.249.077c1.715.6,1.606,1.434,1.606,2.682A13.208,13.208,0,0,1,16.2,7.669s1.184-1.025,1.226-4.8a17.328,17.328,0,0,1,3.249,3.689C21.605,8.26,21.369,12.722,19.134,15.266Z" transform="translate(0 0)"/><g transform="translate(1.595 1.453)"><path class="d" d="M17.538,14.011a.2.2,0,0,1-.179-.112C14.516,7.992,3.947,1.129.16.393A.2.2,0,0,1,.236,0c3.849.749,14.592,7.723,17.48,13.724a.2.2,0,0,1-.092.264A.192.192,0,0,1,17.538,14.011Z" transform="translate(0 0)"/></g></g><g transform="translate(88.979 2507.657)"><path class="c" d="M573.881,351.578a14.8,14.8,0,0,1-7.027,3.009c-4.427.7-6.382-1.416-6.382-1.416s1.744-4.152,4.258-5.317a24.707,24.707,0,0,0-7.684,3.152s-2.7.041-3.78-4.085c0,0,1.6-2.483,6.976-3.825a17.7,17.7,0,0,0-7.982.379c-.353.14-1.859-5.194-2.315-7.656s.533-2.435,2.452-2.947,8.453-.835,9.654.221,1.811,4.664,1.811,4.664a7.135,7.135,0,0,0,.874-3.864,6.859,6.859,0,0,1,4.083.1c2.155.751,2.018,1.8,2.018,3.371a16.594,16.594,0,0,1-.645,4.67s1.488-1.288,1.541-6.036a21.775,21.775,0,0,1,4.083,4.636C576.987,342.773,576.69,348.38,573.881,351.578Z" transform="translate(-549.837 -332.393)"/><g transform="translate(2.005 1.826)"><path class="d" d="M576.327,354.055a.25.25,0,0,1-.224-.141c-3.573-7.422-16.855-16.047-21.613-16.973a.249.249,0,0,1,.1-.489c4.836.941,18.337,9.7,21.966,17.246a.248.248,0,0,1-.116.332A.242.242,0,0,1,576.327,354.055Z" transform="translate(-554.287 -336.448)"/></g></g><g transform="matrix(-0.276, 0.961, -0.961, -0.276, 168.068, 2520.08)"><path class="c" d="M12.441,9.927A7.661,7.661,0,0,1,8.8,11.484a3.706,3.706,0,0,1-3.3-.733S6.405,8.6,7.706,8A12.788,12.788,0,0,0,3.73,9.63s-1.4.021-1.956-2.114c0,0,.829-1.285,3.61-1.979a9.16,9.16,0,0,0-4.13.2c-.183.072-.962-2.688-1.2-3.961S.333.513,1.326.247s4.374-.432,5,.114a5.668,5.668,0,0,1,.937,2.413,3.691,3.691,0,0,0,.452-2,3.549,3.549,0,0,1,2.113.05c1.115.389,1.044.932,1.044,1.744a8.587,8.587,0,0,1-.334,2.417s.77-.666.8-3.123a11.265,11.265,0,0,1,2.113,2.4A6,6,0,0,1,12.441,9.927Z" transform="translate(0 0)"/><g transform="translate(1.037 0.945)"><path class="d" d="M11.4,9.11a.129.129,0,0,1-.116-.073C9.439,5.2,2.566.734.1.255A.129.129,0,0,1,.153,0c2.5.487,9.488,5.021,11.366,8.923a.129.129,0,0,1-.06.172A.126.126,0,0,1,11.4,9.11Z" transform="translate(0 0)"/></g></g><g class="e" transform="translate(93.695 2511.094)"><path class="a" d="M85.188,2535.156c6.115,0,34.386.561,39.207-1.33s12.637-8.734,10.775-16.071-7.09-3.12-13.232-12.76-13.8-13.613-23.16-10.021-11.06,11.91-19.85,12.005-19.724,9.834-14.273,20.039S79.074,2535.156,85.188,2535.156Z" transform="translate(-63.194 -2493.669)"/><path class="f" d="M85.188,2535.156c6.115,0,34.386.561,39.207-1.33s12.637-8.734,10.775-16.071-7.09-3.12-13.232-12.76-13.8-13.613-23.16-10.021-11.06,11.91-19.85,12.005-19.724,9.834-14.273,20.039S79.074,2535.156,85.188,2535.156Z" transform="translate(-59.801 -2489.146)"/></g><text class="g" transform="translate(101.877 2543.822)"><tspan x="0" y="0">24.7</tspan></text></g></svg>