<svg xmlns="http://www.w3.org/2000/svg" xmlns:xlink="http://www.w3.org/1999/xlink" width="64.877" height="53.018" viewBox="0 0 64.877 53.018"><defs><style>.a{opacity:0.39;fill:url(#a);}.b,.e{fill:#8b5dd8;}.c{fill:url(#c);}.d{fill:#030091;}.d,.e,.f,.g{stroke:rgba(0,0,0,0);stroke-miterlimit:10;}.f{fill:#fef6ff;}.g,.h{opacity:0.5;mix-blend-mode:overlay;isolation:isolate;}.g{fill:url(#e);}.i{fill:url(#f);}.j{fill:url(#g);}</style><linearGradient id="a" x1="0.099" y1="0.094" x2="0.901" y2="0.752" gradientUnits="objectBoundingBox"><stop offset="0" stop-color="#ffbc39"/><stop offset="1" stop-color="#fd9800"/></linearGradient><linearGradient id="c" x1="0.5" x2="0.5" y2="1" gradientUnits="objectBoundingBox"><stop offset="0" stop-color="#e484f0"/><stop offset="1" stop-color="#8a86fe"/></linearGradient><linearGradient id="e" x1="0.449" y1="0.414" x2="0.917" y2="0.963" gradientUnits="objectBoundingBox"><stop offset="0" stop-color="#fff"/><stop offset="0.072" stop-color="#fff" stop-opacity="0.875"/><stop offset="0.216" stop-color="#fff" stop-opacity="0.647"/><stop offset="0.359" stop-color="#fff" stop-opacity="0.447"/><stop offset="0.5" stop-color="#fff" stop-opacity="0.286"/><stop offset="0.636" stop-color="#fff" stop-opacity="0.161"/><stop offset="0.767" stop-color="#fff" stop-opacity="0.071"/><stop offset="0.891" stop-color="#fff" stop-opacity="0.02"/><stop offset="1" stop-color="#fff" stop-opacity="0"/></linearGradient><linearGradient id="f" x1="0.468" y1="0.463" x2="0.966" y2="1.034" xlink:href="#e"/><linearGradient id="g" x1="-0.25" y1="0.241" x2="1.365" y2="0.86" xlink:href="#e"/></defs><g transform="translate(-848.122 -162.293)"><path class="a" d="M841.875,212.94H799.183c-2.758,0-4.328-1.969-3.506-4.4l9.5-28.09a7.182,7.182,0,0,1,6.483-4.4h42.692c2.758,0,4.328,1.97,3.506,4.4l-9.5,28.09A7.181,7.181,0,0,1,841.875,212.94Z" transform="translate(54.921 1.72)"/><rect class="a" width="52.681" height="41.887" rx="2" transform="translate(848.122 173.424)"/><g transform="translate(857.402 162.293)"><path class="b" d="M950.123,342.788a12.615,12.615,0,0,1,12.369-12.612,12.813,12.813,0,0,1,12.86,12.861v9.232h-4.179v-9.481a8.462,8.462,0,1,0-16.923,0v.052l-.04,9.429H950.03Z" transform="translate(-944.157 -330.173)"/><path class="c" d="M947.438,342.788a12.615,12.615,0,0,1,12.369-12.612,12.813,12.813,0,0,1,12.861,12.861v9.232h-4.18v-9.481a8.461,8.461,0,1,0-16.923,0v.052l-.041,9.429h-4.179Z" transform="translate(-943.878 -330.173)"/><g transform="translate(0 22.095)"><g transform="translate(12.447 4.991)"><path class="d" d="M959.578,367.447a3.676,3.676,0,1,1,2.928,0l1.709,9.232a.5.5,0,0,1-.49.59h-5.366a.5.5,0,0,1-.49-.59Z" transform="translate(-957.366 -360.4)"/><path class="e" d="M959.578,367.447a3.676,3.676,0,1,1,2.928,0l1.709,9.232a.5.5,0,0,1-.49.59h-5.366a.5.5,0,0,1-.49-.59Z" transform="translate(-957.366 -360.4)"/></g><path class="f" d="M960.308,366.69l-1.708,9.233a.5.5,0,0,0,.49.589h5.08l.051.273a.5.5,0,0,1-.49.59h-5.366a.5.5,0,0,1-.49-.59l1.709-9.232a3.67,3.67,0,0,1-.954-6.134,3.67,3.67,0,0,0,1.678,5.271Z" transform="translate(-944.92 -355.516)"/><path class="c" d="M943.476,355.329v19.616a5.932,5.932,0,0,0,5.932,5.933H969.8a5.933,5.933,0,0,0,5.933-5.933V355.329a.5.5,0,0,0-.5-.5H943.974A.5.5,0,0,0,943.476,355.329Zm14.664,11.539a3.676,3.676,0,1,1,2.928,0l1.709,9.232a.5.5,0,0,1-.49.59h-5.366a.5.5,0,0,1-.49-.59Z" transform="translate(-943.476 -354.831)"/><path class="g" d="M975.749,355.02,963.1,365.231a3.678,3.678,0,0,1-1.809,1.723L963,376.187a.5.5,0,0,1-.49.589h-5.366a.5.5,0,0,1-.49-.589l1.251-6.761-12.265,9.9a5.893,5.893,0,0,0,3.99,1.568h20.393a5.933,5.933,0,0,0,5.933-5.933v-19.55A.488.488,0,0,0,975.749,355.02Z" transform="translate(-943.701 -354.851)"/></g><g class="h" transform="translate(3.468 3.509)"><path class="i" d="M947.346,354.406h4.179l.016-3.66Z" transform="translate(-947.346 -335.82)"/><path class="j" d="M970.759,334.089l-3.1,2.707a8.435,8.435,0,0,1,2.942,6.4v9.48h4.18v-9.231A12.965,12.965,0,0,0,970.759,334.089Z" transform="translate(-949.456 -334.089)"/></g></g></g></svg>