<svg xmlns="http://www.w3.org/2000/svg" xmlns:xlink="http://www.w3.org/1999/xlink" width="57.526" height="70.217" viewBox="0 0 57.526 70.217"><defs><style>.a,.f{fill:url(#a);}.b,.c,.d{opacity:0.31;}.b{fill:url(#b);}.c{fill:url(#c);}.d,.f{mix-blend-mode:overlay;isolation:isolate;}.d{fill:url(#e);}.e{clip-path:url(#f);}.f{stroke:rgba(0,0,0,0);opacity:0.5;}.g{fill:#fff;}.h{fill:#8b5dd8;}</style><linearGradient id="a" x1="0.5" x2="0.5" y2="1" gradientUnits="objectBoundingBox"><stop offset="0" stop-color="#e484f0"/><stop offset="1" stop-color="#8a86fe"/></linearGradient><linearGradient id="b" x1="0.099" y1="0.094" x2="0.901" y2="0.752" gradientUnits="objectBoundingBox"><stop offset="0" stop-color="#ffbc39"/><stop offset="1" stop-color="#fd9800"/></linearGradient><linearGradient id="c" x1="0.099" y1="0.094" x2="0.901" y2="0.752" gradientUnits="objectBoundingBox"><stop offset="0" stop-color="#fd9800"/><stop offset="1" stop-color="#f26f00"/></linearGradient><linearGradient id="e" x1="0.356" y1="0.267" x2="0.895" y2="0.727" gradientUnits="objectBoundingBox"><stop offset="0" stop-color="#fff"/><stop offset="0.072" stop-color="#fff" stop-opacity="0.875"/><stop offset="0.216" stop-color="#fff" stop-opacity="0.647"/><stop offset="0.359" stop-color="#fff" stop-opacity="0.447"/><stop offset="0.5" stop-color="#fff" stop-opacity="0.286"/><stop offset="0.636" stop-color="#fff" stop-opacity="0.161"/><stop offset="0.767" stop-color="#fff" stop-opacity="0.071"/><stop offset="0.891" stop-color="#fff" stop-opacity="0.02"/><stop offset="1" stop-color="#fff" stop-opacity="0"/></linearGradient><clipPath id="f"><path class="a" d="M497.887,276.2a40.928,40.928,0,0,1-8.388-5.669c-6.468-5.707-9.748-12.583-9.748-20.441v-11.2a72.225,72.225,0,0,0,18.124-7.673A72.232,72.232,0,0,0,516,238.883v11.2C516,265.462,503.164,273.531,497.887,276.2Z" transform="translate(-479.75 -231.211)"/></clipPath></defs><g transform="translate(-465.315 -213.545)"><path class="b" d="M497.6,217.847c-10.822,8.8-28.763,12.318-28.763,12.318v19c0,28.081,28.763,38.9,28.763,38.9s28.764-10.82,28.764-38.9v-19S508.426,226.647,497.6,217.847Z" transform="translate(-3.525 -4.302)"/><path class="c" d="M496.651,217.847H494.69l.276,1.276c-9.242,6.534-22.722,9.176-22.722,9.176V244.42c0,20.489,18.046,30.148,23.1,32.453l-.657.556h1.961s24.407-9.181,24.407-33.009V228.3S505.834,225.314,496.651,217.847Z" transform="translate(-0.836 0.741)"/><path class="b" d="M493.246,217.847c-9.183,7.468-24.407,10.452-24.407,10.452V244.42c0,23.828,24.407,33.009,24.407,33.009s24.407-9.181,24.407-33.009V228.3S502.43,225.314,493.246,217.847Z" transform="translate(0.607 0.741)"/><path class="d" d="M473.64,261.567c6.391,14.175,21.642,19.912,21.642,19.912s24.407-9.181,24.407-33.009V232.349a77.72,77.72,0,0,1-15.2-4.953Z" transform="translate(-1.429 -3.309)"/><g class="e" transform="translate(475.732 226.283)"><path class="a" d="M497.887,276.2a40.928,40.928,0,0,1-8.388-5.669c-6.468-5.707-9.748-12.583-9.748-20.441v-11.2a72.225,72.225,0,0,0,18.124-7.673A72.232,72.232,0,0,0,516,238.883v11.2C516,265.462,503.164,273.531,497.887,276.2Z" transform="translate(-479.75 -231.211)"/><path class="f" d="M28.543,0C44.307,0,57.086,7.418,57.086,16.57s-12.779,16.57-28.543,16.57S0,25.721,0,16.57,12.779,0,28.543,0Z" transform="translate(-7.935 36.521) rotate(-42)"/></g><path class="g" d="M511.858,255.785c-1.464,1.126-2.872,2.307-4.239,3.529s-2.686,2.493-3.978,3.791c-.976.977-1.916,1.99-2.842,3.017-.894-.753-1.8-1.494-2.739-2.2a42.3,42.3,0,0,0-4.251-2.878,42.189,42.189,0,0,0,2.878,4.251c1.023,1.353,2.1,2.655,3.206,3.922l.909,1.038,1.18-1.038c1.377-1.212,2.725-2.454,4.021-3.748s2.573-2.606,3.791-3.978,2.4-2.776,3.529-4.239a42.869,42.869,0,0,0,3.152-4.617A42.876,42.876,0,0,0,511.858,255.785Z" transform="translate(-9.984 -14.013)"/><path class="h" d="M487.541,270.815c6.515-5.748,9.818-12.675,9.818-20.589V238.939a73.94,73.94,0,0,1-17.594-7.327c.221-.133.443-.264.661-.4a72.744,72.744,0,0,0,18.255,7.728v11.286c0,7.915-3.3,14.841-9.819,20.589a41.22,41.22,0,0,1-8.449,5.71c-.208-.1-.432-.222-.663-.345A41.042,41.042,0,0,0,487.541,270.815Z" transform="translate(13.765 -5.255)"/></g></svg>