<svg xmlns="http://www.w3.org/2000/svg" xmlns:xlink="http://www.w3.org/1999/xlink" width="407" height="419" viewBox="0 0 407 419"><defs><style>.a,.f{fill:#fff;}.a{stroke:#707070;}.b{clip-path:url(#a);}.c{isolation:isolate;}.d{fill:#fcfcfc;}.e{opacity:0.9;}.g{fill:#e6e8ec;opacity:0.31;}.h{fill:#f1f4f6;}.i{fill:url(#b);}.j{fill:#6257ff;}.k{fill:#ff6565;}.l{fill:#837fec;}.m{fill:#a5d2ff;}.n{fill:url(#k);}.o{fill:#ff5151;}.p{fill:#ae4610;}.q{fill:#f85359;}.r{fill:#b08aff;}.s,.v{fill:none;}.s{stroke:#ffd061;stroke-width:3px;}.t{fill:#46dde8;}.u{stroke:none;}.w{filter:url(#n);}.x{filter:url(#l);}.y{filter:url(#i);}.z{filter:url(#g);}.aa{filter:url(#e);}.ab{filter:url(#c);}</style><clipPath id="a"><rect class="a" width="291" height="317" transform="translate(1075 6708)"/></clipPath><linearGradient id="b" x1="0.103" y1="0.913" x2="0.921" y2="0.076" gradientUnits="objectBoundingBox"><stop offset="0" stop-color="#feb25c"/><stop offset="0.545" stop-color="#eb5bac"/><stop offset="1" stop-color="#4761ff"/></linearGradient><filter id="c" x="29" y="239" width="113" height="113" filterUnits="userSpaceOnUse"><feOffset dy="10" input="SourceAlpha"/><feGaussianBlur stdDeviation="10" result="d"/><feFlood flood-color="#4d65ff" flood-opacity="0.271"/><feComposite operator="in" in2="d"/><feComposite in="SourceGraphic"/></filter><filter id="e" x="0" y="0" width="94" height="94" filterUnits="userSpaceOnUse"><feOffset dy="10" input="SourceAlpha"/><feGaussianBlur stdDeviation="10" result="f"/><feFlood flood-color="#ff4d4d" flood-opacity="0.271"/><feComposite operator="in" in2="f"/><feComposite in="SourceGraphic"/></filter><filter id="g" x="277" y="270" width="114" height="114" filterUnits="userSpaceOnUse"><feOffset dy="10" input="SourceAlpha"/><feGaussianBlur stdDeviation="10" result="h"/><feFlood flood-opacity="0.059"/><feComposite operator="in" in2="h"/><feComposite in="SourceGraphic"/></filter><filter id="i" x="316" y="2" width="91" height="91" filterUnits="userSpaceOnUse"><feOffset dy="10" input="SourceAlpha"/><feGaussianBlur stdDeviation="10" result="j"/><feFlood flood-opacity="0.059"/><feComposite operator="in" in2="j"/><feComposite in="SourceGraphic"/></filter><linearGradient id="k" x1="0.5" x2="0.5" y2="1" gradientUnits="objectBoundingBox"><stop offset="0" stop-color="#ffd278"/><stop offset="1" stop-color="#ffce6d"/></linearGradient><filter id="l" x="89.427" y="82" width="110.148" height="110.148" filterUnits="userSpaceOnUse"><feOffset dy="10" input="SourceAlpha"/><feGaussianBlur stdDeviation="10" result="m"/><feFlood flood-color="#ffb300" flood-opacity="0.278"/><feComposite operator="in" in2="m"/><feComposite in="SourceGraphic"/></filter><filter id="n" x="237.333" y="107.625" width="132.667" height="110.526" filterUnits="userSpaceOnUse"><feOffset dy="10" input="SourceAlpha"/><feGaussianBlur stdDeviation="10" result="o"/><feFlood flood-color="#ff0057" flood-opacity="0.188"/><feComposite operator="in" in2="o"/><feComposite in="SourceGraphic"/></filter></defs><g transform="translate(-418 -6710)"><g class="b" transform="translate(-598 104)"><g class="c" transform="translate(677.291 6600.83)"><path class="d" d="M686.027,174.84H657.433V177.8c0,7.758-7.319,14.048-16.347,14.048H549.84c-9.028,0-16.346-6.29-16.346-14.048V174.84H506.637c-10.964,0-19.852,7.641-19.847,17.063v379.78c0,9.423,8.882,17.063,19.847,17.063h179.39c10.966,0,19.855-7.639,19.855-17.063V191.9c0-9.424-8.89-17.063-19.855-17.063Z" transform="translate(-55.866 -53.251)"/><g transform="translate(412.71 107.17)"><g class="e"><rect class="f" width="7.473" height="61.59" rx="2.29" transform="translate(248.504 103.872)"/><rect class="f" width="4.192" height="20.277" rx="2.096" transform="translate(0.152 67.005)"/><rect class="f" width="4.723" height="35.291" rx="2.29" transform="translate(0 94.417)"/><rect class="f" width="4.496" height="35.595" rx="2.248" transform="translate(0.076 137.605)"/><path class="f" d="M34.8,0H215.2c19.221,0,34.8,14.229,34.8,31.782V432.228c0,17.553-15.581,31.782-34.8,31.782H34.8C15.581,464.01,0,449.781,0,432.228V31.782C0,14.229,15.581,0,34.8,0Z" transform="translate(2.53)"/><rect class="g" width="34.911" height="7.085" rx="3.543" transform="translate(103.41 15.166)"/><circle class="g" cx="4.023" cy="4.023" r="4.023" transform="translate(143.601 14.693)"/></g><path class="h" d="M686.027,174.84H657.433v3.134c0,8.2-7.319,14.85-16.347,14.85H549.84c-9.028,0-16.346-6.649-16.346-14.85V174.84H506.637c-10.964,0-19.852,8.077-19.847,18.038V594.344c0,9.961,8.882,18.038,19.847,18.038h179.39c10.966,0,19.855-8.076,19.855-18.038V192.878c0-9.962-8.89-18.038-19.855-18.038Z" transform="translate(-468.816 -161.614)"/></g><path class="i" d="M23.744,35.613A11.871,11.871,0,1,1,35.613,47.485,11.871,11.871,0,0,1,23.744,35.613m-6.418,0A18.287,18.287,0,1,0,35.613,17.326,18.287,18.287,0,0,0,17.326,35.613M50.351,16.6a4.274,4.274,0,1,0,4.275-4.272h0A4.275,4.275,0,0,0,50.351,16.6m-29.125,48a19.68,19.68,0,0,1-6.614-1.225,11.068,11.068,0,0,1-4.1-2.664A10.989,10.989,0,0,1,7.852,56.62a19.667,19.667,0,0,1-1.225-6.614c-.173-3.754-.207-4.882-.207-14.392s.037-10.635.207-14.392a19.82,19.82,0,0,1,1.225-6.613,11.068,11.068,0,0,1,2.664-4.1,10.977,10.977,0,0,1,4.1-2.664,19.668,19.668,0,0,1,6.614-1.225c3.754-.173,4.882-.207,14.388-.207s10.635.037,14.392.208a19.808,19.808,0,0,1,6.613,1.225,11.033,11.033,0,0,1,4.1,2.664,11.036,11.036,0,0,1,2.664,4.1A19.669,19.669,0,0,1,64.6,21.222c.173,3.757.207,4.882.207,14.392s-.034,10.635-.207,14.392a19.758,19.758,0,0,1-1.225,6.614,11.79,11.79,0,0,1-6.76,6.757A19.655,19.655,0,0,1,50.005,64.6c-3.754.173-4.882.207-14.392.207s-10.635-.034-14.388-.207M20.931.216A26.117,26.117,0,0,0,12.286,1.87,17.478,17.478,0,0,0,5.978,5.978,17.389,17.389,0,0,0,1.87,12.286,26.119,26.119,0,0,0,.216,20.931C.04,24.728,0,25.942,0,35.613S.04,46.5.216,50.3A26.117,26.117,0,0,0,1.87,58.94a17.41,17.41,0,0,0,4.108,6.309,17.5,17.5,0,0,0,6.309,4.108,26.135,26.135,0,0,0,8.644,1.654c3.8.173,5.011.216,14.683.216s10.885-.04,14.683-.216a26.119,26.119,0,0,0,8.644-1.654A18.207,18.207,0,0,0,69.357,58.94,26.044,26.044,0,0,0,71.011,50.3c.172-3.8.213-5.011.213-14.683s-.04-10.885-.213-14.683a26.109,26.109,0,0,0-1.654-8.644,17.511,17.511,0,0,0-4.108-6.309A17.425,17.425,0,0,0,58.943,1.87,26.081,26.081,0,0,0,50.3.216C46.5.042,45.288,0,35.617,0S24.731.04,20.932.216" transform="matrix(1, 0, 0, 1, 505.086, 217.047)"/></g></g><g transform="translate(-580.5 205.5)"><g class="ab" transform="matrix(1, 0, 0, 1, 998.5, 6504.5)"><rect class="j" width="53" height="53" rx="26.5" transform="translate(59 259)"/></g><path class="f" d="M5.26,11.329H1.214A1.214,1.214,0,0,0,0,12.543V24.681a1.214,1.214,0,0,0,1.214,1.214H5.26a1.214,1.214,0,0,0,1.214-1.214V12.543A1.214,1.214,0,0,0,5.26,11.329ZM3.237,23.872a1.214,1.214,0,1,1,1.214-1.214A1.214,1.214,0,0,1,3.237,23.872ZM19.421,4.119c0,2.145-1.313,3.348-1.683,4.782h5.145a3.022,3.022,0,0,1,3.012,2.938,3.662,3.662,0,0,1-.983,2.488l-.006.006a4.225,4.225,0,0,1-.471,4.019,4,4,0,0,1-.829,3.781,2.685,2.685,0,0,1-.311,2.257c-1.032,1.483-3.591,1.5-5.754,1.5H17.4a14.519,14.519,0,0,1-6.047-1.6,7.959,7.959,0,0,0-2.663-.818.607.607,0,0,1-.6-.607V12.053a.606.606,0,0,1,.18-.431c2-1.98,2.865-4.076,4.507-5.721a6.125,6.125,0,0,0,1.284-2.979c.225-.936.7-2.923,1.716-2.923C16.993,0,19.421.4,19.421,4.119Z" transform="translate(1070.552 6773.561)"/></g><g transform="translate(-609.5 -33.5)"><g class="aa" transform="matrix(1, 0, 0, 1, 1027.5, 6743.5)"><rect class="k" width="34" height="34" rx="17" transform="translate(30 20)"/></g><path class="f" d="M12.214,20.819l-1.282-1.156C6.38,15.483,3.375,12.77,3.375,9.391A4.807,4.807,0,0,1,8.237,4.5a5.229,5.229,0,0,1,3.978,1.868A5.229,5.229,0,0,1,16.192,4.5a4.807,4.807,0,0,1,4.862,4.891c0,3.379-3.005,6.092-7.558,10.271Z" transform="translate(1061.846 6768.801)"/></g><g transform="translate(-779 8)"><g class="z" transform="matrix(1, 0, 0, 1, 1197, 6702)"><rect class="f" width="54" height="54" rx="27" transform="translate(307 290)"/></g><path class="l" d="M19.8,5.408c1.092-.155,3.552-.58,4.268-1.3A2.4,2.4,0,0,0,24.03.72a2.4,2.4,0,0,0-3.4-.034c-.715.715-1.136,3.175-1.3,4.268A.4.4,0,0,0,19.8,5.408ZM4.949,19.337c-1.092.155-3.552.58-4.268,1.3A2.4,2.4,0,0,0,.72,24.025a2.4,2.4,0,0,0,3.393.034c.715-.715,1.136-3.175,1.3-4.268a.4.4,0,0,0-.459-.454ZM20.014,6.94A1.954,1.954,0,0,1,17.8,4.732,20.32,20.32,0,0,1,18.361,2,11.972,11.972,0,0,0,2,18.361a20.939,20.939,0,0,1,2.731-.556A1.952,1.952,0,0,1,6.94,20.014a20.319,20.319,0,0,1-.556,2.731,11.972,11.972,0,0,0,16.36-16.36,21.112,21.112,0,0,1-2.731.556ZM12.358,5.123A.58.58,0,0,1,13.5,5.21l.232,2.528,2.528.232a.58.58,0,0,1,.087,1.141L11.971,10.2a.578.578,0,0,1-.7-.7l1.087-4.379ZM7.965,16.254l-.232-2.528L5.2,13.494a.58.58,0,0,1-.087-1.141l4.374-1.092a.578.578,0,0,1,.7.7L9.1,16.336a.577.577,0,0,1-1.136-.082ZM18.39,18.39a8.54,8.54,0,0,1-5.64,2.436,4.207,4.207,0,0,1-2.465-.71.769.769,0,0,1,.1-1.315,20.961,20.961,0,0,0,4.727-3.688A21.068,21.068,0,0,0,18.8,10.386a.775.775,0,0,1,1.319-.1C21.676,12.479,20.458,16.317,18.39,18.39Z" transform="translate(1518.625 7006.627)"/></g><g transform="translate(-740 -260)"><g class="y" transform="matrix(1, 0, 0, 1, 1158, 6970)"><rect class="f" width="31" height="31" rx="15.5" transform="translate(346 22)"/></g><path class="m" d="M6.678,11.674h-2.5v-2.5H2.5v2.5H0v1.669H2.5v2.5H4.174v-2.5h2.5Zm4.174.835a2.5,2.5,0,1,0-2.5-2.5A2.494,2.494,0,0,0,10.851,12.508Zm0,1.669c-1.669,0-5.008.835-5.008,2.5v1.669H15.859V16.682C15.859,15.012,12.521,14.178,10.851,14.178Z" transform="translate(1509.919 6994.407)"/></g><g transform="translate(-844.573 -0.09)"><g class="x" transform="matrix(1, 0, 0, 1, 1262.57, 6710.09)"><circle class="n" cx="25.074" cy="25.074" r="25.074" transform="translate(119.43 102)"/></g><path class="o" d="M8.282,14.124a1.638,1.638,0,0,1-.911-.425C4.136,10.765,2,8.83,2,6.455A3.422,3.422,0,0,1,5.455,3,3.762,3.762,0,0,1,8.282,4.313,3.762,3.762,0,0,1,11.109,3a3.422,3.422,0,0,1,3.455,3.455c0,2.375-2.136,4.31-5.371,7.25A1.625,1.625,0,0,1,8.282,14.124Z" transform="translate(1389.375 6822.282)"/><path class="o" d="M8.282,14.124a1.638,1.638,0,0,1-.911-.425C4.136,10.765,2,8.83,2,6.455A3.422,3.422,0,0,1,5.455,3,3.762,3.762,0,0,1,8.282,4.313,3.762,3.762,0,0,1,11.109,3a3.422,3.422,0,0,1,3.455,3.455c0,2.375-2.136,4.31-5.371,7.25A1.625,1.625,0,0,1,8.282,14.124Z" transform="translate(1408.208 6822.282)"/><path class="p" d="M3.424,0H13.7a3.424,3.424,0,0,1,3.424,3.424V6.848c0,1.891-3.868,4.8-8.722,4.8S0,8.739,0,6.848V3.424A3.424,3.424,0,0,1,3.424,0Z" transform="translate(1398.634 6841.542)"/><path class="q" d="M17.121,4.857c0,1.891-3.868,4.8-8.722,4.8S0,6.748,0,4.857c0,0,1.836-2.06,8.4-2.06S17.121,4.857,17.121,4.857Z" transform="translate(1398.634 6843.534)"/></g><g transform="translate(112.333 6644.625)"><g class="w" transform="matrix(1, 0, 0, 1, 305.67, 65.37)"><path class="k" d="M34.175,49.61l-6.836-7.083H8a8,8,0,0,1-8-8V8A8,8,0,0,1,8,0H64.667a8,8,0,0,1,8,8V34.527a8,8,0,0,1-8,8H45.328L38.492,49.61a3,3,0,0,1-4.317,0Z" transform="translate(267.33 127.62)"/></g><path class="f" d="M9.759,14.849H5.349V10.44H2.41v4.41H-2v2.94H2.41V22.2h2.94v-4.41h4.41Zm9.349,1.47a4.41,4.41,0,1,0-4.41-4.41A4.391,4.391,0,0,0,19.108,16.319Zm0,2.94c-2.94,0-8.819,1.47-8.819,4.41v2.94H27.927v-2.94C27.927,20.729,22.048,19.259,19.108,19.259Z" transform="translate(593.758 196.945)"/></g><circle class="r" cx="3.5" cy="3.5" r="3.5" transform="translate(656 6774)"/><g class="s" transform="translate(454 6896)"><circle class="u" cx="11" cy="11" r="11"/><circle class="v" cx="11" cy="11" r="9.5"/></g><path class="t" d="M26.027,6.75H19.842A1.257,1.257,0,0,0,18.954,8.9l1.7,1.7-3.843,3.844-3.843-3.843a1.676,1.676,0,0,0-2.37,0L7,14.192a.838.838,0,0,0,0,1.185l1.185,1.185a.838.838,0,0,0,1.185,0l2.413-2.413,3.843,3.843a1.676,1.676,0,0,0,2.37,0l5.029-5.029,1.7,1.7a1.257,1.257,0,0,0,2.146-.889V7.588A.837.837,0,0,0,26.027,6.75Z" transform="translate(624.137 6877.017)"/></g></svg>