<svg xmlns="http://www.w3.org/2000/svg" width="24.612" height="29.087" viewBox="0 0 24.612 29.087"><defs><style>.a{opacity:0.5;}.b{fill:#2a2a2a;}</style></defs><g class="a" transform="translate(-42.544 0)"><g transform="translate(42.544 0)"><path class="b" d="M44.344,179.141a1.737,1.737,0,0,0-1.276.524,1.716,1.716,0,0,0-.524,1.259v7.516a1.79,1.79,0,0,0,1.8,1.8,1.71,1.71,0,0,0,1.268-.524,1.752,1.752,0,0,0,.516-1.276v-7.516a1.79,1.79,0,0,0-1.783-1.783Z" transform="translate(-42.544 -169.719)"/><path class="b" d="M134.712,2.674l1.241-2.29a.23.23,0,0,0-.087-.35.242.242,0,0,0-.35.1l-1.258,2.308a8.768,8.768,0,0,0-7.027,0L125.972.14a.242.242,0,0,0-.35-.1.23.23,0,0,0-.087.35l1.241,2.29a7.664,7.664,0,0,0-3.007,2.683,6.777,6.777,0,0,0-1.119,3.767H138.82A6.779,6.779,0,0,0,137.7,5.358,7.7,7.7,0,0,0,134.712,2.674ZM127.536,6a.655.655,0,0,1-.481.2.626.626,0,0,1-.472-.2.7.7,0,0,1,0-.961.628.628,0,0,1,.472-.2A.679.679,0,0,1,127.536,6ZM134.9,6a.627.627,0,0,1-.472.2.682.682,0,0,1,0-1.363.628.628,0,0,1,.472.2.7.7,0,0,1,0,.961Z" transform="translate(-118.438 0)"/><path class="b" d="M123.971,197.092a1.909,1.909,0,0,0,1.923,1.923h1.294l.018,3.968a1.737,1.737,0,0,0,.524,1.276,1.717,1.717,0,0,0,1.259.524,1.79,1.79,0,0,0,1.8-1.8v-3.968H133.2v3.968a1.8,1.8,0,1,0,3.6,0v-3.968h1.311a1.909,1.909,0,0,0,1.905-1.923V185.45H123.971Z" transform="translate(-119.688 -175.696)"/><path class="b" d="M444.159,179.141a1.732,1.732,0,0,0-1.259.516,1.709,1.709,0,0,0-.524,1.267v7.516a1.736,1.736,0,0,0,.524,1.276,1.717,1.717,0,0,0,1.259.524,1.79,1.79,0,0,0,1.8-1.8v-7.516a1.709,1.709,0,0,0-.524-1.267A1.753,1.753,0,0,0,444.159,179.141Z" transform="translate(-421.347 -169.719)"/></g></g></svg>