<svg xmlns="http://www.w3.org/2000/svg" width="122" height="122" viewBox="0 0 122 122">
  <defs>
    <style>
      .cls-1 {
        fill: #9e66ff;
      }

      .cls-2 {
        fill: #fff;
      }
    </style>
  </defs>
  <g id="icon_adduser" transform="translate(-100 -51)">
    <circle id="椭圆_17" data-name="椭圆 17" class="cls-1" cx="61" cy="61" r="61" transform="translate(100 51)"/>
    <path id="ic_group_add_24px" class="cls-2" d="M27,21.877H16.877V11.751H10.126V21.877H0v6.751H10.126V38.755h6.751V28.628H27Zm33.755,3.375a10.126,10.126,0,1,0-3.072-19.78,16.656,16.656,0,0,1,3.038,9.654,16.984,16.984,0,0,1-3.038,9.654A10.092,10.092,0,0,0,60.759,25.253Zm-16.877,0A10.126,10.126,0,1,0,33.755,15.126,10.084,10.084,0,0,0,43.881,25.253Zm22.346,7.291a12.489,12.489,0,0,1,4.658,9.586v6.751H81.012V42.13C81.012,36.932,73.012,33.725,66.227,32.544ZM43.881,32C37.13,32,23.628,35.379,23.628,42.13v6.751H64.134V42.13C64.134,35.379,50.632,32,43.881,32Z" transform="translate(120.994 84.58)"/>
  </g>
</svg>
