<svg xmlns="http://www.w3.org/2000/svg" xmlns:xlink="http://www.w3.org/1999/xlink" width="693.393" height="480.599" viewBox="0 0 693.393 480.599">
  <defs>
    <linearGradient id="linear-gradient" y1="0.674" x2="1.048" y2="0.203" gradientUnits="objectBoundingBox">
      <stop offset="0" stop-color="#ffb16d"/>
      <stop offset="0.523" stop-color="#a733ff"/>
      <stop offset="1" stop-color="#1423f9"/>
    </linearGradient>
    <filter id="safe" x="120.352" y="0" width="293.97" height="327.778" filterUnits="userSpaceOnUse">
      <feOffset dy="30" input="SourceAlpha"/>
      <feGaussianBlur stdDeviation="30" result="blur"/>
      <feFlood flood-color="#5400ff" flood-opacity="0.188"/>
      <feComposite operator="in" in2="blur"/>
      <feComposite in="SourceGraphic"/>
    </filter>
    <filter id="safe-2" x="196.243" y="60.605" width="142.188" height="166.568" filterUnits="userSpaceOnUse">
      <feOffset dy="10" input="SourceAlpha"/>
      <feGaussianBlur stdDeviation="10" result="blur-2"/>
      <feFlood flood-color="#b40000" flood-opacity="0.361"/>
      <feComposite operator="in" in2="blur-2"/>
      <feComposite in="SourceGraphic"/>
    </filter>
    <linearGradient id="linear-gradient-2" x1="0.5" x2="0.5" y2="1" gradientUnits="objectBoundingBox">
      <stop offset="0" stop-color="#d091ff"/>
      <stop offset="1" stop-color="#8a86fe"/>
    </linearGradient>
    <linearGradient id="linear-gradient-3" x1="0.5" x2="0.5" y2="1" gradientUnits="objectBoundingBox">
      <stop offset="0" stop-color="#ffd6f8"/>
      <stop offset="1" stop-color="#bbd4ff"/>
    </linearGradient>
    <linearGradient id="linear-gradient-4" x1="0.027" y1="1.005" x2="0.974" y2="0.003" gradientUnits="objectBoundingBox">
      <stop offset="0" stop-color="#c19dd8"/>
      <stop offset="0.464" stop-color="#ff7dc3"/>
      <stop offset="1" stop-color="#ff437c"/>
    </linearGradient>
    <filter id="img_growup" x="294.07" y="183.071" width="207.773" height="214.717" filterUnits="userSpaceOnUse">
      <feOffset dy="10" input="SourceAlpha"/>
      <feGaussianBlur stdDeviation="10" result="blur-3"/>
      <feFlood flood-color="#630285" flood-opacity="0.29"/>
      <feComposite operator="in" in2="blur-3"/>
      <feComposite in="SourceGraphic"/>
    </filter>
    <linearGradient id="linear-gradient-5" x1="0.5" x2="0.5" y2="1" gradientUnits="objectBoundingBox">
      <stop offset="0" stop-color="#fff" stop-opacity="0.471"/>
      <stop offset="0.858" stop-color="#ebefff" stop-opacity="0"/>
      <stop offset="1" stop-color="#fff" stop-opacity="0"/>
    </linearGradient>
    <linearGradient id="linear-gradient-9" x1="0.5" x2="0.5" y2="1" gradientUnits="objectBoundingBox">
      <stop offset="0" stop-color="#ae8dff"/>
      <stop offset="1" stop-color="#c59eff"/>
    </linearGradient>
    <clipPath id="clip-path">
      <path id="路径_22412" data-name="路径 22412" d="M628.616,114.123a9.129,9.129,0,0,0,17.226,5.906Z" transform="translate(-628.313 -114.123)" fill="none"/>
    </clipPath>
    <linearGradient id="linear-gradient-10" x1="0.5" x2="0.5" y2="1" gradientUnits="objectBoundingBox">
      <stop offset="0" stop-color="#e9aaff"/>
      <stop offset="1" stop-color="#9c39c5"/>
    </linearGradient>
  </defs>
  <g id="pic01" transform="translate(-492.443 -4263.133)">
    <path id="路径_22386" data-name="路径 22386" d="M582.211,102.567V440.533H-111.182c49.894-136.113,275.255-41.682,324.416-65.943,29.166-14.38,32.308-56.367,42.533-83.364,6.425-16.934,15.414-33.494,30.18-44.56,17.451-13.093,39.615-15.647,60.258-20.481a134.608,134.608,0,0,0,75.4-48.138C461.928,125.9,518.528,84.619,582.211,102.567Z" transform="translate(603.625 4303.199)" fill="#b0affd" opacity="0.18"/>
    <g id="img_safe" transform="matrix(1, 0.017, -0.017, 1, 702.83, 4321.145)" opacity="0.19">
      <g transform="matrix(1, -0.02, 0.02, 1, -211.37, -54.33)" filter="url(#safe)">
        <path id="safe-3" data-name="safe" d="M56.984,0,0,25.887v46.9c0,9.6,2.972,19.5,8.832,29.438a110.848,110.848,0,0,0,18.831,23.153,186.309,186.309,0,0,0,29.321,22.4,186.324,186.324,0,0,0,29.322-22.4,110.883,110.883,0,0,0,18.832-23.154c5.86-9.933,8.831-19.837,8.831-29.438v-46.9Z" transform="translate(210.35 60)" fill="url(#linear-gradient)"/>
      </g>
      <g transform="matrix(1, -0.02, 0.02, 1, -211.37, -54.33)" filter="url(#safe-2)">
        <path id="safe-4" data-name="safe" d="M41.093,0,0,18.668V52.492C0,59.415,2.143,66.557,6.369,73.72a79.937,79.937,0,0,0,13.58,16.7,134.351,134.351,0,0,0,21.145,16.151,134.364,134.364,0,0,0,21.145-16.15,79.961,79.961,0,0,0,13.581-16.7c4.226-7.163,6.368-14.305,6.368-21.228V18.668Z" transform="translate(226.24 80.61)" fill="rgba(255,255,255,0.35)"/>
      </g>
      <path id="crrect" d="M37.2,6.542,18.039,25.7a3.831,3.831,0,0,1-5.419,0l-11.5-11.5A3.832,3.832,0,0,1,6.542,8.787l8.787,8.787L31.782,1.123A3.832,3.832,0,1,1,37.2,6.542Zm0,0" transform="translate(42.004 58.72)" fill="#fff"/>
    </g>
    <g id="组_3843" data-name="组 3843" transform="translate(246.433 4126.254)">
      <g id="Background_Complete" data-name="Background Complete" transform="translate(432.157 171.947)">
        <g id="img_feature_safety" transform="translate(-472.59 -4045.404)">
          <g id="img_dots" transform="translate(394.475 3956.898)">
            <g id="circle" transform="translate(231.702 128.151)" fill="none" opacity="0.7">
              <path d="M6.865,0A6.865,6.865,0,1,1,0,6.865,6.865,6.865,0,0,1,6.865,0Z" stroke="none"/>
              <path d="M 6.865234375 5.000004768371582 C 5.83674430847168 5.000004768371582 5.000004768371582 5.83674430847168 5.000004768371582 6.865234375 C 5.000004768371582 7.89372444152832 5.83674430847168 8.730464935302734 6.865234375 8.730464935302734 C 7.89372444152832 8.730464935302734 8.730464935302734 7.89372444152832 8.730464935302734 6.865234375 C 8.730464935302734 5.83674430847168 7.89372444152832 5.000004768371582 6.865234375 5.000004768371582 M 6.865234375 4.76837158203125e-06 C 10.65679454803467 4.76837158203125e-06 13.73046398162842 3.073674201965332 13.73046398162842 6.865234375 C 13.73046398162842 10.65679454803467 10.65679454803467 13.73046398162842 6.865234375 13.73046398162842 C 3.073674201965332 13.73046398162842 4.76837158203125e-06 10.65679454803467 4.76837158203125e-06 6.865234375 C 4.76837158203125e-06 3.073674201965332 3.073674201965332 4.76837158203125e-06 6.865234375 4.76837158203125e-06 Z" stroke="none" fill="#fc0"/>
            </g>
            <path id="circle-2" data-name="circle" d="M4.863,0A4.863,4.863,0,1,1,0,4.863,4.863,4.863,0,0,1,4.863,0Z" transform="translate(201.38 97.83)" fill="#0085ff" opacity="0.7"/>
          </g>
        </g>
      </g>
      <g id="Device" transform="translate(547.329 147.747)">
        <g id="组_3502" data-name="组 3502">
          <g id="组_3500" data-name="组 3500">
            <g id="组_3459" data-name="组 3459">
              <g id="组_3458" data-name="组 3458">
                <g id="组_3457" data-name="组 3457">
                  <g id="组_3456" data-name="组 3456">
                    <g id="组_3453" data-name="组 3453">
                      <g id="组_3452" data-name="组 3452">
                        <path id="路径_22436" data-name="路径 22436" d="M709.5,583.125l-147.72-.684a32.175,32.175,0,0,1-32.03-32.313l1.565-370.339a32.178,32.178,0,0,1,32.327-32.042l147.721.682a32.179,32.179,0,0,1,32.029,32.314l-1.565,370.34A32.178,32.178,0,0,1,709.5,583.125Z" transform="translate(-529.751 -147.747)" stroke="rgba(0,0,0,0)" stroke-width="1" fill="url(#linear-gradient-2)"/>
                      </g>
                    </g>
                    <g id="组_3455" data-name="组 3455" transform="translate(9.809 12.783)">
                      <g id="组_3454" data-name="组 3454">
                        <path id="路径_22437" data-name="路径 22437" d="M710.167,159.924l-28.641-.132a7.115,7.115,0,0,0-6.984,7.238l-.023,5.2a7.112,7.112,0,0,1-6.984,7.238l-55.826-.258a7.121,7.121,0,0,1-6.924-7.3l.022-5.195a7.122,7.122,0,0,0-6.925-7.3l-10.072-.047-25.067-.116a22.538,22.538,0,0,0-22.64,22.441l-1.528,361.477A22.536,22.536,0,0,0,561,565.795l147.426.68a22.537,22.537,0,0,0,22.64-22.44L732.6,182.556A22.536,22.536,0,0,0,710.167,159.924Z" transform="translate(-538.573 -159.244)" fill="#fafafa"/>
                      </g>
                    </g>
                  </g>
                </g>
              </g>
            </g>
            <path id="路径_22438" data-name="路径 22438" d="M574.072,272.642l1.918,3.887,4.29.623-3.1,3.026.733,4.272-3.837-2.017-3.837,2.017.733-4.272-3.1-3.026,4.29-.623Z" transform="translate(-525.488 -133.779)" fill="#7c35ca"/>
            <path id="路径_22439" data-name="路径 22439" d="M685.428,237.99,686.912,241l3.317.482-2.4,2.34.567,3.3-2.967-1.56-2.967,1.56.567-3.3-2.4-2.34,3.317-.482Z" transform="translate(-512.878 -137.654)" fill="#cd90fe"/>
            <path id="路径_22440" data-name="路径 22440" d="M682.59,302.844l1.286,1.744,2.166-.071-1.262,1.762.737,2.038-2.066-.655-1.711,1.331-.016-2.167-1.794-1.216,2.057-.685Z" transform="translate(-512.956 -130.402)" fill="#7c35ca"/>
            <path id="路径_22441" data-name="路径 22441" d="M572.326,249.843a2.03,2.03,0,1,1,2.03-2.029A2.032,2.032,0,0,1,572.326,249.843Zm0-2.947a.918.918,0,1,0,.918.918A.919.919,0,0,0,572.326,246.9Z" transform="translate(-525.217 -136.781)" fill="#e8505b"/>
            <path id="路径_22442" data-name="路径 22442" d="M675.506,275.071a2.03,2.03,0,1,1,2.029-2.029A2.031,2.031,0,0,1,675.506,275.071Zm0-2.947a.918.918,0,1,0,.917.918A.919.919,0,0,0,675.506,272.124Z" transform="translate(-513.678 -133.961)" fill="#eb4e27"/>
            <path id="路径_22443" data-name="路径 22443" d="M651.689,236.551a2.029,2.029,0,1,1,2.029-2.029A2.031,2.031,0,0,1,651.689,236.551Zm0-2.946a.917.917,0,1,0,.917.917A.918.918,0,0,0,651.689,233.6Z" transform="translate(-511.341 -149.27)" fill="#e8505b"/>
            <circle id="椭圆_1031" data-name="椭圆 1031" cx="1.473" cy="1.473" r="1.473" transform="translate(34.598 175.518)" fill="#e8505b"/>
            <g id="组_3468" data-name="组 3468" transform="translate(102.547 196.546)">
              <path id="路径_22444" data-name="路径 22444" d="M624.929,326a1.473,1.473,0,1,1-1.473-1.473A1.473,1.473,0,0,1,624.929,326Z" transform="translate(-621.983 -324.523)" fill="#e8505b"/>
            </g>
            <circle id="椭圆_1032" data-name="椭圆 1032" cx="1.473" cy="1.473" r="1.473" transform="translate(88.256 79.828)" fill="#b78dfe"/>
            <g id="logo" transform="translate(80.298 95.964)">
              <g id="组_2" data-name="组 2" transform="translate(0.531 -0.188)">
                <path id="矩形_1" data-name="矩形 1" d="M51.622,4.049,4.884,51.015A13.318,13.318,0,0,1,.531,41.151V27.083L27.669-.188h14.2a13.313,13.313,0,0,1,9.755,4.237Z" transform="translate(-0.531 0.188)" fill="#eb4c44" fill-rule="evenodd"/>
                <path id="矩形_1_拷贝_4" data-name="矩形 1 拷贝 4" d="M.531,28.56V13.655A13.841,13.841,0,0,1,14.373-.187H29.14Z" transform="translate(-0.531 0.187)" fill="#ef8b42" fill-rule="evenodd"/>
                <path id="矩形_1_拷贝_5" data-name="矩形 1 拷贝 5" d="M99.3,122.954H84.341a13.3,13.3,0,0,1-9.373-3.846l46.739-46.968a13.307,13.307,0,0,1,3.958,9.487V96.46Z" transform="translate(-70.847 -68.135)" fill="#a42dba" fill-rule="evenodd"/>
                <path id="矩形_1_拷贝_6" data-name="矩形 1 拷贝 6" d="M541.844,552.712H528.206L555.686,525.1v13.77A13.841,13.841,0,0,1,541.844,552.712Z" transform="translate(-500.867 -497.893)" fill="#7c35ca" fill-rule="evenodd"/>
              </g>
              <g id="组_1" data-name="组 1" transform="translate(12.008 9.589)">
                <path id="follow_拷贝" data-name="follow 拷贝" d="M255.866,243.775H255.8a1.68,1.68,0,0,1-1.671,1.562H226.543c-.045,0-.089.014-.135.014a1.55,1.55,0,0,1-1.325-.75,1.659,1.659,0,0,1-.1-1.725,15.593,15.593,0,0,1,9.218-11.9,10.913,10.913,0,1,1,12.312,0A15.6,15.6,0,0,1,255.866,243.775Z" transform="translate(-224.79 -210.064)" fill="#eb4e27" fill-rule="evenodd"/>
                <path id="follow" d="M256.837,227h-.014a1.726,1.726,0,0,1-1.719,1.6H226.756c-.05,0-.1.015-.151.015a1.6,1.6,0,0,1-1.476-.983,1.712,1.712,0,0,1-.185-.763,2.893,2.893,0,0,1,.085-.783,16.162,16.162,0,0,1,9.591-12.251,11.22,11.22,0,1,1,12.658,0A15.977,15.977,0,0,1,256.837,227Zm-7.878-22.425a8.014,8.014,0,1,0-8.015,8.016,8.014,8.014,0,0,0,8.015-8.016Zm-7.326,11.2c-.227.014-.455.023-.686.023s-.458-.009-.684-.023a12.808,12.808,0,0,0-11.648,9.37h24.662A12.8,12.8,0,0,0,241.633,215.774Z" transform="translate(-224.935 -193.352)" fill="#fff" fill-rule="evenodd"/>
              </g>
              <path id="圆角矩形_2_拷贝" data-name="圆角矩形 2 拷贝" d="M752.141,117.707h-2.69v2.7h-2.306v-2.7h-2.69V115.4h2.69v-2.7h2.306v2.7h2.69v2.311Z" transform="translate(-704.611 -106.638)" fill="#fff" fill-rule="evenodd"/>
            </g>
          </g>
        </g>
      </g>
      <g id="Floor" transform="translate(372.567 582.51)">
        <g id="组_3504" data-name="组 3504">
          <g id="组_3503" data-name="组 3503">
            <path id="路径_22460" data-name="路径 22460" d="M895.568,539.069c0,.16-117.087.289-261.487.289-144.452,0-261.513-.129-261.513-.289s117.061-.289,261.513-.289C778.48,538.78,895.568,538.909,895.568,539.069Z" transform="translate(-372.567 -538.78)" fill="#736ec2"/>
          </g>
        </g>
      </g>
      <g id="Plant" transform="translate(750.883 404.648)">
        <g id="组_3842" data-name="组 3842">
          <g id="组_3722" data-name="组 3722" transform="translate(31.822 123.183)">
            <g id="组_3720" data-name="组 3720" transform="translate(0.113 0.113)">
              <rect id="矩形_967" data-name="矩形 967" width="65.86" height="9.049" fill="#b5b5c9"/>
            </g>
            <g id="组_3721" data-name="组 3721">
              <path id="路径_22531" data-name="路径 22531" d="M806.844,490.014H740.759v-9.275h66.085Zm-65.859-.225h65.633v-8.824H740.985Z" transform="translate(-740.759 -480.739)" fill="#b5b5c9"/>
            </g>
          </g>
          <g id="组_3724" data-name="组 3724" transform="translate(38.041 129.333)">
            <g id="组_3723" data-name="组 3723">
              <path id="路径_22532" data-name="路径 22532" d="M747.346,487.254l9.48,46.768H791.9l9.164-43.756Z" transform="translate(-747.346 -487.254)" fill="#b5b5c9"/>
            </g>
          </g>
          <g id="组_3726" data-name="组 3726" transform="translate(38.041 171.677)">
            <g id="组_3725" data-name="组 3725">
              <path id="路径_22533" data-name="路径 22533" d="M747.346,532.106l5.056,6.952h42.635l6.029-6.952Z" transform="translate(-747.346 -532.106)" fill="#b5b5c9"/>
            </g>
          </g>
          <g id="组_3729" data-name="组 3729" transform="translate(61.984 33.919)">
            <g id="组_3728" data-name="组 3728">
              <g id="组_3727" data-name="组 3727">
                <path id="路径_22534" data-name="路径 22534" d="M773.115,482.968c-.129,0-.3-21.667-.371-48.388s-.031-48.393.1-48.393.3,21.661.371,48.392S773.244,482.967,773.115,482.968Z" transform="translate(-772.707 -386.188)" fill="#263238"/>
              </g>
            </g>
          </g>
          <g id="组_3732" data-name="组 3732" transform="translate(70.998 76.479)">
            <g id="组_3731" data-name="组 3731">
              <g id="组_3730" data-name="组 3730">
                <path id="路径_22535" data-name="路径 22535" d="M788.32,431.269a2.345,2.345,0,0,1-.178.5l-.587,1.4q-.2.463-.43,1.01l-.439,1.229q-.239.666-.508,1.411c-.176.5-.314,1.045-.487,1.609a65.589,65.589,0,0,0-1.842,8.063,98.458,98.458,0,0,0-1.02,10.084,135.876,135.876,0,0,0,.521,18.42c.211,2.352.425,4.251.581,5.563.067.616.122,1.116.166,1.512a.267.267,0,1,1-.094.014c-.066-.394-.15-.891-.253-1.5-.212-1.306-.477-3.2-.731-5.555a121.193,121.193,0,0,1-.659-18.475,91.726,91.726,0,0,1,1.062-10.133,61.084,61.084,0,0,1,1.951-8.091c.184-.563.334-1.107.522-1.608s.374-.965.545-1.407.329-.842.477-1.222c.163-.369.328-.7.47-1l.669-1.37A2.177,2.177,0,0,1,788.32,431.269Z" transform="translate(-782.255 -431.269)" fill="#263238"/>
              </g>
            </g>
          </g>
          <g id="组_3735" data-name="组 3735" transform="translate(66.827 58.956)">
            <g id="组_3734" data-name="组 3734">
              <g id="组_3733" data-name="组 3733">
                <path id="路径_22536" data-name="路径 22536" d="M786.389,412.708a4.462,4.462,0,0,1-.21.714q-.256.752-.685,2.015-.229.661-.5,1.452l-.531,1.749c-.385,1.254-.832,2.678-1.228,4.281q-.316,1.2-.661,2.5l-.617,2.74c-.46,1.886-.792,3.935-1.216,6.074-.726,4.3-1.365,9.061-1.806,14.079-.416,5.022-.6,9.82-.662,14.186-.012,4.365.042,8.3.222,11.6.058,1.651.164,3.141.249,4.45s.158,2.438.242,3.358q.1,1.331.16,2.122a4.229,4.229,0,0,1,.025.743,4.473,4.473,0,0,1-.118-.734q-.094-.789-.249-2.115c-.111-.919-.221-2.045-.321-3.355s-.24-2.8-.319-4.452c-.222-3.3-.312-7.243-.323-11.618.041-4.376.21-9.188.626-14.224.443-5.031,1.1-9.8,1.848-14.114.437-2.144.784-4.2,1.262-6.085q.334-1.419.646-2.742.361-1.3.692-2.5c.418-1.6.888-3.024,1.3-4.273l.568-1.742.544-1.442q.483-1.246.769-1.986A4.324,4.324,0,0,1,786.389,412.708Z" transform="translate(-777.837 -412.708)" fill="#263238"/>
              </g>
            </g>
          </g>
          <g id="组_3738" data-name="组 3738" transform="translate(45.677 36.85)">
            <g id="组_3737" data-name="组 3737">
              <g id="组_3736" data-name="组 3736">
                <path id="路径_22537" data-name="路径 22537" d="M767.983,486.974a1.1,1.1,0,0,1-.037-.253c-.016-.194-.037-.44-.062-.746-.046-.69-.111-1.649-.193-2.869-.158-2.527-.383-6.124-.66-10.553-.572-8.909-1.4-21.218-2.9-34.753-.766-6.768-1.654-13.2-2.577-19.023-.491-2.909-.937-5.677-1.442-8.251-.464-2.583-.963-4.974-1.422-7.158-.433-2.189-.916-4.149-1.3-5.879s-.751-3.213-1.059-4.422c-.291-1.187-.519-2.12-.684-2.793-.069-.3-.124-.539-.167-.729a1.085,1.085,0,0,1-.042-.253.983.983,0,0,1,.088.24c.056.188.125.424.211.718l.769,2.771c.336,1.2.732,2.679,1.138,4.407s.919,3.683,1.373,5.87c.481,2.181,1,4.572,1.479,7.155.523,2.575.983,5.344,1.487,8.255.948,5.831,1.85,12.265,2.617,19.039,1.5,13.55,2.275,25.871,2.762,34.786.243,4.459.411,8.068.512,10.563.045,1.222.08,2.183.106,2.874.007.307.011.553.016.749A.979.979,0,0,1,767.983,486.974Z" transform="translate(-755.434 -389.292)" fill="#263238"/>
              </g>
            </g>
          </g>
          <g id="组_3740" data-name="组 3740" transform="translate(41.139 38.918)">
            <g id="组_3739" data-name="组 3739">
              <path id="路径_22538" data-name="路径 22538" d="M771.343,396.9c-.286-3.07-3.388-5.385-6.471-5.417a10.191,10.191,0,0,0-7.841,4.256,24.528,24.528,0,0,0-3.775,8.38c-2.076,7.232-3.211,14.83-2.323,22.3s3.919,14.827,9.28,20.105c.871.858,2,1.716,3.2,1.461a3.858,3.858,0,0,0,1.687-1.042,49.906,49.906,0,0,0,16.2-37.948c-.083-2.842-.457-5.8-2.03-8.165s-5.241-4.88-7.919-3.929" transform="translate(-750.627 -391.483)" fill="#bfbff5"/>
            </g>
          </g>
          <g id="组_3760" data-name="组 3760" transform="translate(21.978)">
            <g id="组_3742" data-name="组 3742" transform="translate(0.07 8.515)">
              <g id="组_3741" data-name="组 3741">
                <path id="路径_22539" data-name="路径 22539" d="M747.194,370.514l-4.342,7.863c-.1.183-.235.389-.444.406-.228.019-.4-.2-.524-.389q-5.738-8.808-11.478-17.617l2.645-1.5Z" transform="translate(-730.406 -359.279)" fill="#9a9aee"/>
              </g>
            </g>
            <g id="组_3747" data-name="组 3747">
              <g id="组_3746" data-name="组 3746">
                <path id="路径_22541" data-name="路径 22541" d="M770.472,384.178l-39.156-23.105a1.821,1.821,0,0,1-.953-.961c-.157-.58.279-1.139.7-1.569a26.985,26.985,0,0,1,20.925-8.221A23.907,23.907,0,0,1,770.9,362.087c3.779,6.752,3.9,15.681-.43,22.091" transform="translate(-730.331 -350.26)" fill="#bfbff5"/>
              </g>
            </g>
            <g id="组_3750" data-name="组 3750" transform="translate(6.629 3.297)">
              <g id="组_3749" data-name="组 3749">
                <g id="组_3748" data-name="组 3748">
                  <path id="路径_22542" data-name="路径 22542" d="M737.353,353.893a2.127,2.127,0,0,1,.513-.063c.338-.017.836-.078,1.48-.072a29.457,29.457,0,0,1,5.432.431,31.756,31.756,0,0,1,25.344,22.933,29.409,29.409,0,0,1,.971,5.363c.072.639.06,1.141.077,1.478a2.047,2.047,0,0,1-.013.517c-.042,0-.09-.707-.245-1.977a33.358,33.358,0,0,0-1.108-5.291,31.984,31.984,0,0,0-25.083-22.7,33.36,33.36,0,0,0-5.376-.575C738.066,353.912,737.355,353.934,737.353,353.893Z" transform="translate(-737.353 -353.752)" fill="#263238"/>
                </g>
              </g>
            </g>
            <g id="组_3753" data-name="组 3753" transform="translate(20.746 17.961)">
              <g id="组_3752" data-name="组 3752">
                <g id="组_3751" data-name="组 3751">
                  <path id="路径_22543" data-name="路径 22543" d="M766.4,369.294a9.41,9.41,0,0,1-1.98.9c-1.247.492-2.991,1.121-4.94,1.74s-3.738,1.112-5.04,1.43a9.442,9.442,0,0,1-2.135.407,10.677,10.677,0,0,1,2.047-.727l4.987-1.558,4.971-1.6A10.576,10.576,0,0,1,766.4,369.294Z" transform="translate(-752.306 -369.285)" fill="#263238"/>
                </g>
              </g>
            </g>
            <g id="组_3756" data-name="组 3756" transform="translate(28.6 1.409)">
              <g id="组_3755" data-name="组 3755">
                <g id="组_3754" data-name="组 3754">
                  <path id="路径_22544" data-name="路径 22544" d="M760.7,351.752a27.388,27.388,0,0,1,.221,8.754,81.884,81.884,0,0,1-.221-8.754Z" transform="translate(-760.625 -351.752)" fill="#263238"/>
                </g>
              </g>
            </g>
            <g id="组_3759" data-name="组 3759" transform="translate(0.643 5.551)">
              <g id="组_3758" data-name="组 3758">
                <g id="组_3757" data-name="组 3757">
                  <path id="路径_22545" data-name="路径 22545" d="M731.013,360.964a17.534,17.534,0,0,1,2.844-1c1.779-.548,4.257-1.242,7.018-1.908s5.285-1.175,7.118-1.5a17.6,17.6,0,0,1,2.988-.4,21.064,21.064,0,0,1-2.923.73c-1.813.4-4.318.964-7.074,1.628s-5.239,1.306-7.037,1.772A21.055,21.055,0,0,1,731.013,360.964Z" transform="translate(-731.013 -356.139)" fill="#263238"/>
                </g>
              </g>
            </g>
          </g>
          <g id="组_3778" data-name="组 3778" transform="translate(0 34.152)">
            <g id="组_3762" data-name="组 3762">
              <g id="组_3761" data-name="组 3761">
                <path id="路径_22546" data-name="路径 22546" d="M751.117,389.352c-3.368-2.554-6.929-3.057-11.151-2.889a34.066,34.066,0,0,0-12.205,3.149c-6.6,2.892-12.809,7.154-16.754,13.187s-5.318,14.019-2.365,20.594a2.934,2.934,0,0,0,1.338,1.622,3.193,3.193,0,0,0,2.21-.169c7.509-2.45,15.071-4.922,21.976-8.759s13.19-9.169,16.9-16.145a13.881,13.881,0,0,0,1.778-5.358,6.662,6.662,0,0,0-1.722-5.233" transform="translate(-707.052 -386.434)" fill="#bfbff5"/>
              </g>
            </g>
            <g id="组_3765" data-name="组 3765" transform="translate(2.594 2.123)">
              <g id="组_3764" data-name="组 3764">
                <g id="组_3763" data-name="组 3763">
                  <path id="路径_22547" data-name="路径 22547" d="M751.337,388.686a2.691,2.691,0,0,1-.54.22l-1.574.541-1.14.38c-.413.149-.853.334-1.331.518-.95.385-2.052.768-3.215,1.332l-1.841.839c-.638.295-1.276.657-1.951,1-1.36.669-2.738,1.523-4.2,2.389a66.434,66.434,0,0,0-16.567,14.575c-1.046,1.345-2.068,2.6-2.9,3.867-.428.626-.868,1.212-1.241,1.808l-1.067,1.719c-.707,1.08-1.228,2.126-1.73,3.019-.245.45-.483.863-.684,1.254l-.522,1.082-.737,1.492a2.756,2.756,0,0,1-.286.508,2.605,2.605,0,0,1,.2-.546l.658-1.531q.222-.506.487-1.1c.188-.4.417-.818.651-1.276.482-.909.986-1.97,1.678-3.067l1.047-1.745c.368-.6.8-1.2,1.226-1.833.828-1.282,1.846-2.557,2.889-3.918a64.357,64.357,0,0,1,16.675-14.67c1.483-.862,2.876-1.709,4.253-2.367.682-.338,1.328-.695,1.975-.983l1.864-.816c1.176-.547,2.293-.911,3.256-1.274.484-.174.93-.347,1.349-.484l1.156-.342,1.6-.458A2.738,2.738,0,0,1,751.337,388.686Z" transform="translate(-709.8 -388.683)" fill="#263238"/>
                </g>
              </g>
            </g>
            <g id="组_3768" data-name="组 3768" transform="translate(1.307 16.361)">
              <g id="组_3767" data-name="组 3767">
                <g id="组_3766" data-name="组 3766">
                  <path id="路径_22548" data-name="路径 22548" d="M724.951,403.774a157.741,157.741,0,0,1-16.515,4.829,157.914,157.914,0,0,1,16.515-4.829Z" transform="translate(-708.436 -403.764)" fill="#263238"/>
                </g>
              </g>
            </g>
            <g id="组_3771" data-name="组 3771" transform="translate(17.272 17.032)">
              <g id="组_3770" data-name="组 3770">
                <g id="组_3769" data-name="组 3769">
                  <path id="路径_22549" data-name="路径 22549" d="M725.56,421.891a12.966,12.966,0,0,1-.18-2.552c-.043-1.578-.05-3.759.017-6.168s.2-4.586.328-6.159a13.113,13.113,0,0,1,.322-2.538,14.562,14.562,0,0,1,.01,2.557c-.054,1.729-.119,3.83-.191,6.154s-.11,4.425-.154,6.154A14.632,14.632,0,0,1,725.56,421.891Z" transform="translate(-725.347 -404.475)" fill="#263238"/>
                </g>
              </g>
            </g>
            <g id="组_3774" data-name="组 3774" transform="translate(31.56 6.728)">
              <g id="组_3773" data-name="组 3773">
                <g id="组_3772" data-name="组 3772">
                  <path id="路径_22550" data-name="路径 22550" d="M741.891,413.392c-.129.008-.541-4.424-.92-9.9s-.581-9.924-.451-9.933.541,4.423.92,9.9S742.021,413.383,741.891,413.392Z" transform="translate(-740.482 -393.561)" fill="#263238"/>
                </g>
              </g>
            </g>
            <g id="组_3777" data-name="组 3777" transform="translate(13.695 6.216)">
              <g id="组_3776" data-name="组 3776">
                <g id="组_3775" data-name="组 3775">
                  <path id="路径_22551" data-name="路径 22551" d="M721.558,393.1a14.716,14.716,0,0,1,2.625-.079c1.619.011,3.854.059,6.322.141s4.7.182,6.317.278a14.578,14.578,0,0,1,2.615.253,14.649,14.649,0,0,1-2.622.079c-1.619-.011-3.856-.06-6.326-.141s-4.7-.182-6.321-.278A14.436,14.436,0,0,1,721.558,393.1Z" transform="translate(-721.558 -393.019)" fill="#263238"/>
                </g>
              </g>
            </g>
          </g>
          <g id="组_3781" data-name="组 3781" transform="translate(52.225 44.445)">
            <g id="组_3780" data-name="组 3780">
              <g id="组_3779" data-name="组 3779">
                <path id="路径_22552" data-name="路径 22552" d="M762.548,448.96a2.23,2.23,0,0,1-.057-.535c-.018-.4-.041-.912-.069-1.538-.059-1.337-.073-3.272-.022-5.664s.2-5.238.482-8.389c.306-3.149.747-6.6,1.378-10.2.649-3.6,1.427-6.989,2.229-10.05.823-3.055,1.657-5.781,2.443-8.04s1.46-4.075,1.976-5.308l.6-1.42a.27.27,0,1,1,.088.035l-.513,1.45c-.464,1.252-1.1,3.078-1.833,5.346s-1.542,4.994-2.339,8.045c-.776,3.057-1.538,6.441-2.185,10.022-.63,3.584-1.083,7.021-1.41,10.157-.3,3.138-.5,5.973-.581,8.358s-.129,4.315-.127,5.65c-.008.627-.014,1.136-.02,1.539A2.387,2.387,0,0,1,762.548,448.96Z" transform="translate(-762.37 -397.337)" fill="#263238"/>
              </g>
            </g>
          </g>
          <g id="组_3784" data-name="组 3784" transform="translate(42.599 69.35)">
            <g id="组_3783" data-name="组 3783">
              <g id="组_3782" data-name="组 3782">
                <path id="路径_22553" data-name="路径 22553" d="M764.043,423.72a10.7,10.7,0,0,1-1.562,1.714c-1.013,1.01-2.452,2.367-4.093,3.806s-3.175,2.688-4.309,3.56a10.672,10.672,0,0,1-1.9,1.324,12.2,12.2,0,0,1,1.694-1.58l4.21-3.655,4.175-3.7A12.032,12.032,0,0,1,764.043,423.72Z" transform="translate(-752.174 -423.717)" fill="#263238"/>
              </g>
            </g>
          </g>
          <g id="组_3787" data-name="组 3787" transform="translate(55.794 63.431)">
            <g id="组_3786" data-name="组 3786">
              <g id="组_3785" data-name="组 3785">
                <path id="路径_22554" data-name="路径 22554" d="M777.218,433.353a18.647,18.647,0,0,1-1.663-2.3l-3.869-5.647-3.95-5.592a18.356,18.356,0,0,1-1.582-2.361A15.939,15.939,0,0,1,768,419.612c1.086,1.379,2.539,3.322,4.07,5.522s2.846,4.237,3.762,5.734A15.777,15.777,0,0,1,777.218,433.353Z" transform="translate(-766.151 -417.448)" fill="#263238"/>
              </g>
            </g>
          </g>
          <g id="组_3790" data-name="组 3790" transform="translate(41.725 47.935)">
            <g id="组_3789" data-name="组 3789">
              <g id="组_3788" data-name="组 3788">
                <path id="路径_22555" data-name="路径 22555" d="M769.893,401.037c.07.109-4.046,2.88-9.194,6.189s-9.378,5.905-9.449,5.8,4.046-2.88,9.2-6.191S769.823,400.927,769.893,401.037Z" transform="translate(-751.248 -401.033)" fill="#263238"/>
              </g>
            </g>
          </g>
          <g id="组_3793" data-name="组 3793" transform="translate(59.849 48.621)">
            <g id="组_3792" data-name="组 3792">
              <g id="组_3791" data-name="组 3791">
                <path id="路径_22556" data-name="路径 22556" d="M782.575,413.607a153.4,153.4,0,0,1-12.128-11.844,153,153,0,0,1,12.128,11.844Z" transform="translate(-770.446 -401.76)" fill="#263238"/>
              </g>
            </g>
          </g>
          <g id="组_3811" data-name="组 3811" transform="translate(74.898 34.063)">
            <g id="组_3795" data-name="组 3795" transform="translate(0 0.287)">
              <g id="组_3794" data-name="组 3794">
                <path id="路径_22557" data-name="路径 22557" d="M786.386,412.511l3.535-.293a17.487,17.487,0,0,0,7.136-2.186,28.449,28.449,0,0,1,3.327-1.67c4.369-1.754,9.244-1.441,13.947-1.677a57.765,57.765,0,0,0,22.188-5.673,2.159,2.159,0,0,0,.967-.878c.726-1.322-.622-2.5-1.783-3.215-5.954-3.669-12.014-7.385-18.767-9.206s-14.417-1.513-20.178,2.452c-6.763,4.654-9.228,14.214-10.371,22.345" transform="translate(-786.386 -386.644)" fill="#bfbff5"/>
              </g>
            </g>
            <g id="组_3798" data-name="组 3798" transform="translate(0.076 3.636)">
              <g id="组_3797" data-name="组 3797">
                <g id="组_3796" data-name="组 3796">
                  <path id="路径_22558" data-name="路径 22558" d="M837.569,399.9a3.509,3.509,0,0,1-.6-.279l-1.676-.878c-1.453-.764-3.544-1.891-6.187-3.159a57.826,57.826,0,0,0-9.577-3.691,31.643,31.643,0,0,0-12.414-1.005,21.221,21.221,0,0,0-11.316,4.859,25.19,25.19,0,0,0-5.893,8.277c-1.241,2.649-2.006,4.9-2.563,6.444-.261.739-.47,1.331-.629,1.782a3.53,3.53,0,0,1-.247.613,3.4,3.4,0,0,1,.157-.642q.207-.687.546-1.811a58.906,58.906,0,0,1,2.437-6.526,25.035,25.035,0,0,1,5.907-8.461,21.468,21.468,0,0,1,11.541-5,31.6,31.6,0,0,1,12.589,1.055,55.678,55.678,0,0,1,9.607,3.809c2.634,1.31,4.7,2.484,6.13,3.3l1.633.954A3.438,3.438,0,0,1,837.569,399.9Z" transform="translate(-786.466 -390.192)" fill="#263238"/>
                </g>
              </g>
            </g>
            <g id="组_3801" data-name="组 3801" transform="translate(22.305 4.156)">
              <g id="组_3800" data-name="组 3800">
                <g id="组_3799" data-name="组 3799">
                  <path id="路径_22559" data-name="路径 22559" d="M830.4,404.49c-.073.108-4.695-2.882-10.323-6.677s-10.134-6.96-10.062-7.067,4.694,2.882,10.324,6.678S830.471,404.383,830.4,404.49Z" transform="translate(-810.012 -390.742)" fill="#263238"/>
                </g>
              </g>
            </g>
            <g id="组_3804" data-name="组 3804" transform="translate(30.964 3.674)">
              <g id="组_3803" data-name="组 3803">
                <g id="组_3802" data-name="组 3802">
                  <path id="路径_22560" data-name="路径 22560" d="M826.471,390.274a17.355,17.355,0,0,1-7.287.671,84.622,84.622,0,0,1,7.287-.671Z" transform="translate(-819.184 -390.232)" fill="#263238"/>
                </g>
              </g>
            </g>
            <g id="组_3807" data-name="组 3807" transform="translate(14.077)">
              <g id="组_3806" data-name="组 3806">
                <g id="组_3805" data-name="组 3805">
                  <path id="路径_22561" data-name="路径 22561" d="M804.746,386.343a24.486,24.486,0,0,1-3.436,5.826,24.484,24.484,0,0,1,3.436-5.826Z" transform="translate(-801.297 -386.34)" fill="#263238"/>
                </g>
              </g>
            </g>
            <g id="组_3810" data-name="组 3810" transform="translate(7.604 10.68)">
              <g id="组_3809" data-name="组 3809">
                <g id="组_3808" data-name="组 3808">
                  <path id="路径_22562" data-name="路径 22562" d="M808.5,407.6a12.359,12.359,0,0,1-2.224-1.207c-1.335-.81-3.14-2-5.068-3.4s-3.629-2.725-4.85-3.693a13.79,13.79,0,0,1-1.92-1.646,13.185,13.185,0,0,1,2.119,1.38l4.925,3.579c1.922,1.394,3.688,2.62,4.973,3.5A14.916,14.916,0,0,1,808.5,407.6Z" transform="translate(-794.44 -397.653)" fill="#263238"/>
                </g>
              </g>
            </g>
          </g>
          <g id="组_3829" data-name="组 3829" transform="translate(71.823 73.636)">
            <g id="组_3813" data-name="组 3813">
              <g id="组_3812" data-name="组 3812">
                <path id="路径_22563" data-name="路径 22563" d="M791.408,429.852c-3.371-.89-7.389,2.389-8.084,5.805s.586,6.912,2.086,10.059a51.317,51.317,0,0,0,13.94,18.24,34.469,34.469,0,0,0,21.315,7.846c-1.425-6.619.378-13.534-.417-20.259a26.354,26.354,0,0,0-23.341-23.108c-2.151-.232-4.642-.569-5.5,1.417" transform="translate(-783.129 -428.257)" fill="#bfbff5"/>
              </g>
            </g>
            <g id="组_3816" data-name="组 3816" transform="translate(8.275 1.595)">
              <g id="组_3815" data-name="组 3815">
                <g id="组_3814" data-name="组 3814">
                  <path id="路径_22564" data-name="路径 22564" d="M821.156,471.9a2.226,2.226,0,0,1-.48-.223,8.73,8.73,0,0,1-1.261-.847,13.157,13.157,0,0,1-3.329-4.451c-.537-1.044-1.138-2.177-1.725-3.432l-1.814-4.009a38.689,38.689,0,0,0-2.229-4.285,33.584,33.584,0,0,0-3.066-4.171c-2.308-2.711-4.785-5.056-6.931-7.3a47.584,47.584,0,0,1-5.284-6.34,23.279,23.279,0,0,1-2.582-4.932,15,15,0,0,1-.45-1.446,2.149,2.149,0,0,1-.107-.517c.043-.012.234.688.727,1.9a25.449,25.449,0,0,0,2.686,4.811,50.25,50.25,0,0,0,5.321,6.227c2.155,2.217,4.646,4.556,6.979,7.294a33.361,33.361,0,0,1,3.1,4.235,38.046,38.046,0,0,1,2.23,4.347l1.773,4.024c.565,1.249,1.151,2.394,1.667,3.443a13.616,13.616,0,0,0,3.15,4.464C820.517,471.537,821.183,471.852,821.156,471.9Z" transform="translate(-791.894 -429.947)" fill="#263238"/>
                </g>
              </g>
            </g>
            <g id="组_3819" data-name="组 3819" transform="translate(20.087 23.058)">
              <g id="组_3818" data-name="组 3818">
                <g id="组_3817" data-name="组 3817">
                  <path id="路径_22565" data-name="路径 22565" d="M804.423,467.668a10.105,10.105,0,0,1,.31-2.27c.264-1.389.7-3.294,1.281-5.37s1.211-3.928,1.711-5.25a10.074,10.074,0,0,1,.92-2.1,12.232,12.232,0,0,1-.607,2.2c-.417,1.345-.989,3.2-1.573,5.27s-1.063,3.95-1.409,5.315A12.3,12.3,0,0,1,804.423,467.668Z" transform="translate(-804.406 -452.681)" fill="#263238"/>
                </g>
              </g>
            </g>
            <g id="组_3822" data-name="组 3822" transform="translate(20.711 18.129)">
              <g id="组_3821" data-name="组 3821">
                <g id="组_3820" data-name="组 3820">
                  <path id="路径_22566" data-name="路径 22566" d="M821.253,451.128a13.972,13.972,0,0,1-2.374-.546c-1.453-.38-3.458-.9-5.69-1.4s-4.267-.893-5.742-1.173a13.945,13.945,0,0,1-2.38-.525,11.454,11.454,0,0,1,2.432.2c1.494.2,3.549.538,5.793,1.042s4.247,1.078,5.68,1.541A11.467,11.467,0,0,1,821.253,451.128Z" transform="translate(-805.067 -447.46)" fill="#263238"/>
                </g>
              </g>
            </g>
            <g id="组_3825" data-name="组 3825" transform="translate(7.58 9.056)">
              <g id="组_3824" data-name="组 3824">
                <g id="组_3823" data-name="组 3823">
                  <path id="路径_22567" data-name="路径 22567" d="M791.173,455.311a13.832,13.832,0,0,1,.364-2.626c.3-1.61.769-3.822,1.4-6.238s1.3-4.579,1.829-6.127a13.75,13.75,0,0,1,.966-2.47,16.243,16.243,0,0,1-.649,2.568c-.446,1.571-1.063,3.739-1.693,6.147s-1.149,4.6-1.528,6.189A16.025,16.025,0,0,1,791.173,455.311Z" transform="translate(-791.158 -437.85)" fill="#263238"/>
                </g>
              </g>
            </g>
            <g id="组_3828" data-name="组 3828" transform="translate(10.416 5.622)">
              <g id="组_3827" data-name="组 3827">
                <g id="组_3826" data-name="组 3826">
                  <path id="路径_22568" data-name="路径 22568" d="M812.91,436.228c-.013.128-4.222-.212-9.4-.761s-9.363-1.1-9.349-1.227,4.221.211,9.4.761S812.924,436.1,812.91,436.228Z" transform="translate(-794.162 -434.212)" fill="#263238"/>
                </g>
              </g>
            </g>
          </g>
          <g id="组_3832" data-name="组 3832" transform="translate(31.826 132.072)">
            <g id="组_3831" data-name="组 3831">
              <g id="组_3830" data-name="组 3830">
                <path id="路径_22569" data-name="路径 22569" d="M806.841,490.39c0,.129-14.794.234-33.038.234s-33.04-.1-33.04-.234,14.79-.235,33.04-.235S806.841,490.261,806.841,490.39Z" transform="translate(-740.763 -490.155)" fill="#455a64"/>
              </g>
            </g>
          </g>
          <g id="组_3835" data-name="组 3835" transform="translate(43.09 151.11)">
            <g id="组_3834" data-name="组 3834">
              <g id="组_3833" data-name="组 3833">
                <path id="路径_22570" data-name="路径 22570" d="M797.216,510.554c0,.13-9.968.235-22.26.235s-22.262-.1-22.262-.235,9.966-.234,22.262-.234S797.216,510.425,797.216,510.554Z" transform="translate(-752.694 -510.32)" fill="#455a64"/>
              </g>
            </g>
          </g>
          <g id="组_3838" data-name="组 3838" transform="translate(43.479 153.832)">
            <g id="组_3837" data-name="组 3837">
              <g id="组_3836" data-name="组 3836">
                <path id="路径_22571" data-name="路径 22571" d="M797.628,513.437c0,.13-9.968.235-22.26.235s-22.261-.1-22.261-.235,9.965-.234,22.261-.234S797.628,513.308,797.628,513.437Z" transform="translate(-753.106 -513.203)" fill="#455a64"/>
              </g>
            </g>
          </g>
          <g id="组_3841" data-name="组 3841" transform="translate(41.95 148.866)">
            <g id="组_3840" data-name="组 3840">
              <g id="组_3839" data-name="组 3839">
                <path id="路径_22572" data-name="路径 22572" d="M797.537,508.178c0,.129-10.31.234-23.025.234s-23.026-.1-23.026-.234,10.307-.235,23.026-.235S797.537,508.049,797.537,508.178Z" transform="translate(-751.486 -507.943)" fill="#455a64"/>
              </g>
            </g>
          </g>
        </g>
      </g>
      <path id="bg_cricle" d="M75.238,0A75.238,75.238,0,1,1,0,75.238,75.238,75.238,0,0,1,75.238,0Z" transform="translate(582.162 356.939)" fill="url(#linear-gradient-3)"/>
      <g transform="matrix(1, 0, 0, 1, 246.01, 136.88)" filter="url(#img_growup)">
        <path id="img_growup-2" data-name="img_growup" d="M-577.362,300.908l-3.663-11.81-10.4,6.3,4.182,1.638c-12.948,31.689-27.564,48.9-43.443,51.139-5.3.749-10-.221-14.552-1.159-6.454-1.331-13.128-2.708-19.546,2.008-6.562,4.823-8.3,12.5-9.973,19.924-1.661,7.354-3.23,14.3-9.432,17.618a11.454,11.454,0,0,1-4.878,1.334,27.459,27.459,0,0,0-4.177.7c-14.3,3.694-24.729,21.3-31.894,53.828l6.276,1.383c3.7-16.811,8.353-29.55,13.821-37.864,4.028-6.125,8.538-9.868,13.405-11.125a21.547,21.547,0,0,1,3.265-.535,17.691,17.691,0,0,0,7.214-2.057c8.791-4.7,10.851-13.822,12.669-21.868,1.482-6.562,2.882-12.76,7.511-16.162,3.923-2.883,7.845-2.254,14.442-.893,4.848,1,10.343,2.134,16.749,1.228,8.184-1.156,16.016-5.48,23.281-12.853,9.041-9.175,17.535-23.408,25.248-42.3Z" transform="translate(1049.21 -86.03)" fill="url(#linear-gradient-4)"/>
      </g>
      <path id="img_data_01" d="M3.79,0H15.919a3.79,3.79,0,0,1,3.79,3.79V40.935a3.79,3.79,0,0,1-3.79,3.79H3.79A3.79,3.79,0,0,1,0,40.935V3.79A3.79,3.79,0,0,1,3.79,0Z" transform="translate(605.283 447.906)" fill="url(#linear-gradient-5)"/>
      <path id="img_data_02" d="M3.79,0H15.919a3.79,3.79,0,0,1,3.79,3.79V71.637a3.79,3.79,0,0,1-3.79,3.79H3.79A3.79,3.79,0,0,1,0,71.637V3.79A3.79,3.79,0,0,1,3.79,0Z" transform="translate(634.469 419.1)" fill="url(#linear-gradient-5)"/>
      <path id="img_data_03" d="M3.79,0H15.919a3.79,3.79,0,0,1,3.79,3.79V76.564a3.79,3.79,0,0,1-3.79,3.79H3.79A3.79,3.79,0,0,1,0,76.564V3.79A3.79,3.79,0,0,1,3.79,0Z" transform="translate(667.065 413.035)" fill="url(#linear-gradient-5)"/>
      <path id="img_data_04" d="M3.79,0H15.919a3.79,3.79,0,0,1,3.79,3.79V92.484a3.79,3.79,0,0,1-3.79,3.79H3.79A3.79,3.79,0,0,1,0,92.484V3.79A3.79,3.79,0,0,1,3.79,0Z" transform="translate(696.629 396.358)" fill="url(#linear-gradient-5)"/>
      <g id="img_block" transform="translate(702.567 457.927)">
        <path id="circle-3" data-name="circle" d="M18.035,0A18.035,18.035,0,1,1,0,18.035,18.035,18.035,0,0,1,18.035,0Z" fill="url(#linear-gradient-9)"/>
        <path id="lock" d="M27.538,18.352V15.97A4.2,4.2,0,0,0,23.147,12a4.2,4.2,0,0,0-4.391,3.97v2.382A1.683,1.683,0,0,0,17,19.94v6.352a1.683,1.683,0,0,0,1.756,1.588h8.782a1.683,1.683,0,0,0,1.756-1.588V19.94A1.683,1.683,0,0,0,27.538,18.352Zm-1.756,0H20.513V15.97a2.514,2.514,0,0,1,2.635-2.382,2.514,2.514,0,0,1,2.635,2.382Z" transform="translate(-5.16 -1.883)" fill="#fff"/>
      </g>
      <g id="Character" transform="translate(381.233 368.129)">
        <g id="组_3719" data-name="组 3719">
          <g id="组_3505" data-name="组 3505" transform="translate(195.422 201.981)">
            <path id="路径_22461" data-name="路径 22461" d="M556.128,527.626l3.193,12.23,35.79-.328s-4.893-3.7-22.878-3.43l-1.744-8.472Z" transform="translate(-556.128 -527.626)" fill="#ffbe9d"/>
          </g>
          <g id="组_3554" data-name="组 3554" transform="translate(47.112 57.885)">
            <g id="组_3506" data-name="组 3506">
              <path id="路径_22462" data-name="路径 22462" d="M532.026,403.956l-26.846,2.533-10.907,3.088a29.578,29.578,0,0,0-12.421,7.118l-35.143,33.733-6.415-52.4-17.558,1.527L425.665,467A20.09,20.09,0,0,0,444.8,480.988a20.743,20.743,0,0,0,14.138-5.818l25.024-23.521-2.485,31.037-8.6,19.294,61.428,34.691s7.216-35.714,11.089-60.421c3.133-19.987,4.726-63.522,4.726-63.522Z" transform="translate(-422.735 -398.024)" fill="#976ee6"/>
            </g>
            <g id="组_3507" data-name="组 3507" transform="translate(121.492 14.086)">
              <path id="路径_22463" data-name="路径 22463" d="M536.3,410.693s13.583,5.034,16.868,15.672c2.912,9.434,12.629,62.483,12.629,62.483l9.642,56.146-20.188.767-23.246-95.69Z" transform="translate(-532.007 -410.693)" fill="#976ee6"/>
            </g>
            <g id="组_3509" data-name="组 3509" transform="translate(58.216 35.33)">
              <g id="组_3508" data-name="组 3508">
                <path id="路径_22464" data-name="路径 22464" d="M475.114,477.757c-.16-.014.741-10.764,2.009-24s2.427-23.967,2.586-23.952-.74,10.763-2.009,24.008S475.273,477.772,475.114,477.757Z" transform="translate(-475.095 -429.8)" fill="#263238"/>
              </g>
            </g>
            <g id="组_3511" data-name="组 3511" transform="translate(62.096 56.896)">
              <g id="组_3510" data-name="组 3510">
                <path id="路径_22465" data-name="路径 22465" d="M519.433,449.2a1.972,1.972,0,0,1-.178.525c-.166.4-.369.878-.614,1.462a22.332,22.332,0,0,1-1.081,2.266c-.464.862-.943,1.873-1.618,2.907l-1.016,1.649c-.358.57-.786,1.126-1.2,1.722-.809,1.207-1.813,2.392-2.842,3.66a54.814,54.814,0,0,1-16.541,13.136c-1.469.715-2.85,1.424-4.208,1.939-.675.268-1.313.559-1.95.779l-1.836.616c-1.161.424-2.254.662-3.2.917a22.3,22.3,0,0,1-2.452.539l-1.563.267a.279.279,0,1,1-.021-.115l1.537-.372c.67-.146,1.487-.338,2.416-.632s2.009-.547,3.151-.993l1.809-.647c.628-.228,1.256-.528,1.921-.8,1.34-.529,2.7-1.249,4.147-1.969A56.783,56.783,0,0,0,510.48,463.04c1.03-1.246,2.039-2.408,2.857-3.593.418-.585.853-1.13,1.217-1.689l1.04-1.615c.692-1.012,1.193-2,1.68-2.845s.869-1.59,1.163-2.21l.71-1.412A2.017,2.017,0,0,1,519.433,449.2Z" transform="translate(-478.585 -449.197)" fill="#263238"/>
              </g>
            </g>
            <g id="组_3513" data-name="组 3513" transform="translate(62.762 63.941)" opacity="0.2">
              <g id="组_3512" data-name="组 3512">
                <path id="路径_22466" data-name="路径 22466" d="M481.785,480.323c-1.96-.558-2.975-2.963-2.474-4.938a7.1,7.1,0,0,1,4-4.361,29.385,29.385,0,0,1,5.848-1.731A49.052,49.052,0,0,0,512,456.481c.582-.578,1.409-1.22,2.128-.826.966.527.36,2-.356,2.84a73.759,73.759,0,0,1-32.61,21.879" transform="translate(-479.184 -455.534)"/>
              </g>
            </g>
            <g id="组_3515" data-name="组 3515" transform="translate(119.937 46.112)">
              <g id="组_3514" data-name="组 3514">
                <path id="路径_22467" data-name="路径 22467" d="M537.365,469.481a4.893,4.893,0,0,1-.409-1.142c-.229-.745-.536-1.829-.9-3.172-.725-2.686-1.659-6.416-2.591-10.559s-1.684-7.914-2.18-10.652c-.248-1.37-.435-2.479-.547-3.25a4.843,4.843,0,0,1-.118-1.208,4.905,4.905,0,0,1,.339,1.164q.3,1.323.727,3.212c.63,2.852,1.444,6.534,2.344,10.607.931,4.065,1.771,7.741,2.423,10.587q.422,1.89.718,3.214A4.861,4.861,0,0,1,537.365,469.481Z" transform="translate(-530.608 -439.498)" fill="#263238"/>
              </g>
            </g>
            <g id="组_3517" data-name="组 3517" transform="translate(2.513 1.222)">
              <g id="组_3516" data-name="组 3516">
                <path id="路径_22468" data-name="路径 22468" d="M425.588,404.466a12.535,12.535,0,0,1-.451-5.343,12.582,12.582,0,0,1,.451,5.343Z" transform="translate(-424.995 -399.123)" fill="#263238"/>
              </g>
            </g>
            <g id="组_3519" data-name="组 3519" transform="translate(7.775 1.062)">
              <g id="组_3518" data-name="组 3518">
                <path id="路径_22469" data-name="路径 22469" d="M430.2,404.645a14.019,14.019,0,0,1-.288-5.666,14.071,14.071,0,0,1,.288,5.666Z" transform="translate(-429.728 -398.979)" fill="#263238"/>
              </g>
            </g>
            <g id="组_3521" data-name="组 3521" transform="translate(12.834 0.089)">
              <g id="组_3520" data-name="组 3520">
                <path id="路径_22470" data-name="路径 22470" d="M434.793,404.415a17.424,17.424,0,0,1-.352-6.311,17.363,17.363,0,0,1,.352,6.311Z" transform="translate(-434.278 -398.104)" fill="#263238"/>
              </g>
            </g>
            <g id="组_3523" data-name="组 3523" transform="translate(23.141 51.226)">
              <g id="组_3522" data-name="组 3522">
                <path id="路径_22471" data-name="路径 22471" d="M443.629,453.324a37.289,37.289,0,0,1,.952-9.226,37.278,37.278,0,0,1-.952,9.226Z" transform="translate(-443.549 -444.098)" fill="#263238"/>
              </g>
            </g>
            <g id="组_3525" data-name="组 3525" transform="translate(147.982 143.308)">
              <g id="组_3524" data-name="组 3524">
                <path id="路径_22472" data-name="路径 22472" d="M555.909,526.918a14.731,14.731,0,0,1,.988,5.728,14.741,14.741,0,0,1-.988-5.728Z" transform="translate(-555.832 -526.918)" fill="#263238"/>
              </g>
            </g>
            <g id="组_3527" data-name="组 3527" transform="translate(154.611 143.304)">
              <g id="组_3526" data-name="组 3526">
                <path id="路径_22473" data-name="路径 22473" d="M561.881,526.914a12.141,12.141,0,0,1,.864,5.2,12.151,12.151,0,0,1-.864-5.2Z" transform="translate(-561.795 -526.914)" fill="#263238"/>
              </g>
            </g>
            <g id="组_3529" data-name="组 3529" transform="translate(160.878 142.665)">
              <g id="组_3528" data-name="组 3528">
                <path id="路径_22474" data-name="路径 22474" d="M567.549,526.339a25.029,25.029,0,0,1,.981,5.825,10.978,10.978,0,0,1-.981-5.825Z" transform="translate(-567.431 -526.339)" fill="#263238"/>
              </g>
            </g>
            <g id="组_3531" data-name="组 3531" transform="translate(119.588 20.502)">
              <g id="组_3530" data-name="组 3530">
                <path id="路径_22475" data-name="路径 22475" d="M547.394,416.586c0,.108-1.41.022-3.6.48a16.765,16.765,0,0,0-12.513,10.92c-.749,2.106-.856,3.515-.962,3.5a2.935,2.935,0,0,1,.018-.99,13.887,13.887,0,0,1,.556-2.641,16.141,16.141,0,0,1,12.825-11.193,13.944,13.944,0,0,1,2.691-.193A2.925,2.925,0,0,1,547.394,416.586Z" transform="translate(-530.294 -416.464)" fill="#263238"/>
              </g>
            </g>
            <g id="组_3533" data-name="组 3533" transform="translate(121.334 43.438)">
              <g id="组_3532" data-name="组 3532">
                <path id="路径_22476" data-name="路径 22476" d="M555.52,437.1a20.9,20.9,0,0,1-3.349,1.421c-2.1.795-5.029,1.821-8.3,2.843s-6.265,1.843-8.444,2.385a20.947,20.947,0,0,1-3.562.738,24.632,24.632,0,0,1,3.454-1.133l8.38-2.543,8.337-2.677A24.705,24.705,0,0,1,555.52,437.1Z" transform="translate(-531.865 -437.093)" fill="#fafafa"/>
              </g>
            </g>
            <g id="组_3535" data-name="组 3535" transform="translate(129.502 82.133)">
              <g id="组_3534" data-name="组 3534">
                <path id="路径_22477" data-name="路径 22477" d="M563.262,471.912a22.278,22.278,0,0,1-3.483.944c-2.165.51-5.163,1.176-8.482,1.878s-6.332,1.3-8.519,1.711a22.282,22.282,0,0,1-3.567.544,22.211,22.211,0,0,1,3.478-.944c2.165-.51,5.166-1.176,8.489-1.878s6.335-1.3,8.522-1.712A22.078,22.078,0,0,1,563.262,471.912Z" transform="translate(-539.211 -471.895)" fill="#fafafa"/>
              </g>
            </g>
            <g id="组_3537" data-name="组 3537" transform="translate(140.546 130.331)">
              <g id="组_3536" data-name="组 3536">
                <path id="路径_22478" data-name="路径 22478" d="M571.859,515.508a21.665,21.665,0,0,1-3.335.171c-2.058.053-4.9.14-8.031.319s-5.966.421-8.016.6a21.536,21.536,0,0,1-3.332.211,17.062,17.062,0,0,1,3.285-.618c2.045-.289,4.883-.594,8.03-.776s6-.2,8.064-.15A17.069,17.069,0,0,1,571.859,515.508Z" transform="translate(-549.144 -515.246)" fill="#fafafa"/>
              </g>
            </g>
            <g id="组_3539" data-name="组 3539" transform="translate(58.718 77.711)">
              <g id="组_3538" data-name="组 3538">
                <path id="路径_22479" data-name="路径 22479" d="M490.98,475.257a11.421,11.421,0,0,1-2.309-.983l-5.442-2.606L477.77,469.1a11.437,11.437,0,0,1-2.221-1.167,10.276,10.276,0,0,1,2.384.792c1.442.568,3.409,1.411,5.546,2.425s4.032,2.006,5.381,2.765A10.271,10.271,0,0,1,490.98,475.257Z" transform="translate(-475.547 -467.918)" fill="#fafafa"/>
              </g>
            </g>
            <g id="组_3541" data-name="组 3541" transform="translate(85.849 79.418)">
              <g id="组_3540" data-name="组 3540">
                <path id="路径_22480" data-name="路径 22480" d="M533,482.677a6.568,6.568,0,0,1-1.313-.5l-3.5-1.523c-2.951-1.291-7.039-3.044-11.6-4.87s-8.733-3.372-11.76-4.472l-3.585-1.309a6.557,6.557,0,0,1-1.294-.545,6.63,6.63,0,0,1,1.365.33c.867.247,2.114.634,3.647,1.136,3.065,1,7.268,2.494,11.841,4.321s8.642,3.647,11.554,5.034c1.455.694,2.625,1.273,3.424,1.693A6.492,6.492,0,0,1,533,482.677Z" transform="translate(-499.949 -469.454)" fill="#fafafa"/>
              </g>
            </g>
            <g id="组_3543" data-name="组 3543" transform="translate(61.409 52.067)">
              <g id="组_3542" data-name="组 3542">
                <path id="路径_22481" data-name="路径 22481" d="M538.94,453.837a2.652,2.652,0,0,1-.627-.055l-1.777-.266-6.52-1.056c-5.5-.9-13.108-2.116-21.525-3.356s-16.054-2.263-21.583-2.986l-6.548-.867-1.778-.257a2.527,2.527,0,0,1-.616-.129,2.655,2.655,0,0,1,.629.013l1.79.149c1.554.14,3.8.372,6.571.684,5.545.621,13.193,1.582,21.618,2.821s16.023,2.523,21.511,3.525c2.744.5,4.961.925,6.49,1.239l1.758.372A2.515,2.515,0,0,1,538.94,453.837Z" transform="translate(-477.967 -444.854)" fill="#fafafa"/>
              </g>
            </g>
            <g id="组_3545" data-name="组 3545" transform="translate(66.212 19.655)">
              <g id="组_3544" data-name="组 3544">
                <path id="路径_22482" data-name="路径 22482" d="M535.941,423.729c-.023.158-12.055-1.509-26.869-3.722s-26.809-4.137-26.785-4.3,12.052,1.508,26.871,3.722S535.964,423.572,535.941,423.729Z" transform="translate(-482.287 -415.702)" fill="#fafafa"/>
              </g>
            </g>
            <g id="组_3547" data-name="组 3547" transform="translate(45.659 32.015)">
              <g id="组_3546" data-name="组 3546">
                <path id="路径_22483" data-name="路径 22483" d="M474.987,451.667a29.164,29.164,0,0,1-1.708-3.612l-3.909-8.8-3.993-8.763a29.181,29.181,0,0,1-1.57-3.673,3.855,3.855,0,0,1,.575.911c.338.6.8,1.485,1.364,2.585,1.121,2.2,2.606,5.269,4.152,8.7s2.856,6.582,3.759,8.879c.45,1.149.8,2.084,1.03,2.736A3.806,3.806,0,0,1,474.987,451.667Z" transform="translate(-463.802 -426.818)" fill="#fafafa"/>
              </g>
            </g>
            <g id="组_3549" data-name="组 3549" transform="translate(26.602 50.191)">
              <g id="组_3548" data-name="组 3548">
                <path id="路径_22484" data-name="路径 22484" d="M452.953,473.278c-.156.033-1.689-6.682-3.422-15s-3.013-15.082-2.856-15.115,1.689,6.681,3.423,15S453.11,473.245,452.953,473.278Z" transform="translate(-446.661 -443.167)" fill="#fafafa"/>
              </g>
            </g>
            <g id="组_3551" data-name="组 3551" transform="translate(2.031 43.804)">
              <g id="组_3550" data-name="组 3550">
                <path id="路径_22485" data-name="路径 22485" d="M445.528,437.44a99.352,99.352,0,0,1-10.421,2.528,99.157,99.157,0,0,1-10.545,1.962,99.869,99.869,0,0,1,10.423-2.528A99.449,99.449,0,0,1,445.528,437.44Z" transform="translate(-424.562 -437.422)" fill="#fafafa"/>
              </g>
            </g>
            <g id="组_3553" data-name="组 3553" transform="translate(0.535 13.388)">
              <g id="组_3552" data-name="组 3552">
                <path id="路径_22486" data-name="路径 22486" d="M442.193,410.095a12.927,12.927,0,0,1-2.742.6c-1.706.29-4.072.633-6.694.931s-5.008.5-6.735.595a13.014,13.014,0,0,1-2.805.03,14.039,14.039,0,0,1,2.77-.437l6.706-.763,6.7-.762A14.188,14.188,0,0,1,442.193,410.095Z" transform="translate(-423.216 -410.066)" fill="#fafafa"/>
              </g>
            </g>
          </g>
          <g id="组_3560" data-name="组 3560" transform="translate(48.956 18.489)">
            <g id="组_3558" data-name="组 3558" transform="translate(8.064)">
              <g id="组_3555" data-name="组 3555">
                <path id="路径_22487" data-name="路径 22487" d="M450.287,362.59c.318.628,8.667,43.545,8.667,43.545l-19.686.919-7.622-36.906Z" transform="translate(-431.646 -362.59)" fill="#455a64"/>
              </g>
              <g id="组_3556" data-name="组 3556" transform="translate(18.372 0.109)">
                <path id="路径_22488" data-name="路径 22488" d="M457.105,406.124l2.255-.954-8.518-42.3-2.672-.178Z" transform="translate(-448.17 -362.688)" fill="#263238"/>
              </g>
              <g id="组_3557" data-name="组 3557" transform="translate(8.695 8.486)">
                <path id="路径_22489" data-name="路径 22489" d="M441.5,371.117a1.02,1.02,0,1,1-1.136-.887A1.02,1.02,0,0,1,441.5,371.117Z" transform="translate(-439.466 -370.222)" fill="#263238"/>
              </g>
            </g>
            <g id="组_3559" data-name="组 3559" transform="translate(0 18.581)">
              <path id="路径_22490" data-name="路径 22490" d="M439.12,400.23l-.291-5.62,8.409-3.464-3.279-7.788a6.784,6.784,0,0,0-9.445-3.232l-3.373,1.831a9.637,9.637,0,0,0-4.786,6.223A124.03,124.03,0,0,0,424.4,401.9" transform="translate(-424.393 -379.302)" fill="#ffbe9d"/>
            </g>
          </g>
          <g id="组_3578" data-name="组 3578" transform="translate(3.884 199.226)">
            <g id="组_3561" data-name="组 3561" transform="translate(0 1.849)">
              <path id="路径_22491" data-name="路径 22491" d="M421.145,526.811s-34.6,9.575-35.984,10.063c-2.085.734-1.734,8.37,1.509,8.251,1.534-.057,26.574.933,29.738.735s12.708-3.959,12.708-3.959Z" transform="translate(-383.856 -526.811)" fill="#e8505b"/>
            </g>
            <g id="组_3563" data-name="组 3563" transform="translate(18.9 8.139)">
              <g id="组_3562" data-name="组 3562">
                <path id="路径_22492" data-name="路径 22492" d="M404.831,539.379a15.161,15.161,0,0,0-3.97-6.9,7.687,7.687,0,0,1,3.97,6.9Z" transform="translate(-400.855 -532.468)" fill="#263238"/>
              </g>
            </g>
            <g id="组_3565" data-name="组 3565" transform="translate(23.149 6.802)">
              <g id="组_3564" data-name="组 3564">
                <path id="路径_22493" data-name="路径 22493" d="M408.011,537.878c-.17.029-.52-1.607-1.442-3.413-.9-1.817-2.008-3.072-1.883-3.191a8.679,8.679,0,0,1,3.326,6.6Z" transform="translate(-404.676 -531.266)" fill="#263238"/>
              </g>
            </g>
            <g id="组_3567" data-name="组 3567" transform="translate(27.166 5.606)">
              <g id="组_3566" data-name="组 3566">
                <path id="路径_22494" data-name="路径 22494" d="M410.991,537.092A12.145,12.145,0,0,0,408.3,530.2a6.5,6.5,0,0,1,2.694,6.891Z" transform="translate(-408.289 -530.19)" fill="#263238"/>
              </g>
            </g>
            <g id="组_3569" data-name="组 3569" transform="translate(28.883)">
              <g id="组_3568" data-name="组 3568">
                <path id="路径_22495" data-name="路径 22495" d="M410.2,533.188a6.148,6.148,0,0,1-.37-2.575,12.084,12.084,0,0,1,.35-2.821,11.95,11.95,0,0,1,.515-1.606,1.944,1.944,0,0,1,.554-.848.921.921,0,0,1,1.189.059,1.526,1.526,0,0,1,.46.978,6.585,6.585,0,0,1,.046.914,7.693,7.693,0,0,1-.213,1.693,10.3,10.3,0,0,1-1.065,2.645,6.954,6.954,0,0,1-1.554,2.082c-.079-.056.5-.862,1.192-2.273a11.353,11.353,0,0,0,.907-2.572,7.645,7.645,0,0,0,.167-1.581c-.016-.531-.008-1.2-.319-1.451a.334.334,0,0,0-.457-.039,1.444,1.444,0,0,0-.379.6,12.756,12.756,0,0,0-.525,1.527,13.838,13.838,0,0,0-.457,2.7C410.141,532.194,410.3,533.173,410.2,533.188Z" transform="translate(-409.833 -525.148)" fill="#263238"/>
              </g>
            </g>
            <g id="组_3571" data-name="组 3571" transform="translate(29.296 7.327)">
              <g id="组_3570" data-name="组 3570">
                <path id="路径_22496" data-name="路径 22496" d="M410.205,532.1a4.846,4.846,0,0,1,2.231-.36,10.018,10.018,0,0,1,2.455.3,5.4,5.4,0,0,1,1.414.52,1.46,1.46,0,0,1,.782,1.581,1.729,1.729,0,0,1-1.246,1.235,3.167,3.167,0,0,1-1.552,0,5.952,5.952,0,0,1-2.248-1.105,6.065,6.065,0,0,1-1.608-1.583,15.207,15.207,0,0,1,1.842,1.247,6.141,6.141,0,0,0,2.123.918,2.719,2.719,0,0,0,1.283-.018,1.172,1.172,0,0,0,.842-.822.892.892,0,0,0-.514-.966,5.305,5.305,0,0,0-1.255-.489,11.6,11.6,0,0,0-2.33-.407C411.069,532.053,410.219,532.191,410.205,532.1Z" transform="translate(-410.205 -531.738)" fill="#263238"/>
              </g>
            </g>
            <g id="组_3573" data-name="组 3573" transform="translate(15.178 9.576)">
              <g id="组_3572" data-name="组 3572">
                <path id="路径_22497" data-name="路径 22497" d="M399.89,539.6a9.332,9.332,0,0,0-2.376-5.828,4.962,4.962,0,0,1,2.376,5.828Z" transform="translate(-397.507 -533.761)" fill="#263238"/>
              </g>
            </g>
            <g id="组_3575" data-name="组 3575" transform="translate(4.583 17.007)">
              <g id="组_3574" data-name="组 3574">
                <path id="路径_22498" data-name="路径 22498" d="M425.1,540.454a7.115,7.115,0,0,1-1.338.63,29.854,29.854,0,0,1-3.85,1.193,54.938,54.938,0,0,1-13.209,1.252c-5.184-.058-9.856-.294-13.244-.429l-4.009-.212a7.239,7.239,0,0,1-1.468-.157,7.237,7.237,0,0,1,1.474-.069l4.015.029,13.235.259a61.913,61.913,0,0,0,13.115-1.072C423.124,541.2,425.055,540.347,425.1,540.454Z" transform="translate(-387.978 -540.445)" fill="#263238"/>
              </g>
            </g>
            <g id="组_3577" data-name="组 3577" transform="translate(25.93 14.863)">
              <g id="组_3576" data-name="组 3576">
                <path id="路径_22499" data-name="路径 22499" d="M423.971,541.459c-.047.079-.993-.474-2.592-1.175a12.045,12.045,0,0,0-6.547-1.087,10.374,10.374,0,0,0-5.659,3.366,20.306,20.306,0,0,1-1.993,2.037,10.728,10.728,0,0,1,1.693-2.315,13.713,13.713,0,0,1,2.294-2.145,8.239,8.239,0,0,1,3.574-1.516,11.443,11.443,0,0,1,6.81,1.29A9.145,9.145,0,0,1,423.971,541.459Z" transform="translate(-407.177 -538.516)" fill="#263238"/>
              </g>
            </g>
          </g>
          <g id="组_3598" data-name="组 3598" transform="translate(65.718 191.523)">
            <g id="组_3579" data-name="组 3579">
              <path id="路径_22500" data-name="路径 22500" d="M451.647,518.22s32.738,21.435,33.912,22.321c1.763,1.333-.259,7.676-3.313,6.578-1.444-.519-28.915-8.162-31.87-9.31s-10.906-7.632-10.906-7.632Z" transform="translate(-439.47 -518.22)" fill="#e8505b"/>
            </g>
            <g id="组_3581" data-name="组 3581" transform="translate(21.879 11.559)">
              <g id="组_3580" data-name="组 3580">
                <path id="路径_22501" data-name="路径 22501" d="M459.169,534.012a7.691,7.691,0,0,1,5.878-5.368,32.758,32.758,0,0,0-3.3,2.292A32.268,32.268,0,0,0,459.169,534.012Z" transform="translate(-459.148 -528.616)" fill="#263238"/>
              </g>
            </g>
            <g id="组_3583" data-name="组 3583" transform="translate(18.941 9.001)">
              <g id="组_3582" data-name="组 3582">
                <path id="路径_22502" data-name="路径 22502" d="M456.524,531.615a8.681,8.681,0,0,1,5.174-5.282c.082.151-1.352,1.011-2.764,2.468C457.508,530.243,456.676,531.694,456.524,531.615Z" transform="translate(-456.505 -526.315)" fill="#263238"/>
              </g>
            </g>
            <g id="组_3585" data-name="组 3585" transform="translate(15.967 6.64)">
              <g id="组_3584" data-name="组 3584">
                <path id="路径_22503" data-name="路径 22503" d="M453.876,529.961a6.5,6.5,0,0,1,4.659-5.747,12.135,12.135,0,0,0-4.659,5.747Z" transform="translate(-453.831 -524.192)" fill="#263238"/>
              </g>
            </g>
            <g id="组_3587" data-name="组 3587" transform="translate(16.797 0.148)">
              <g id="组_3586" data-name="组 3586">
                <path id="路径_22504" data-name="路径 22504" d="M455.733,526.544c-.086-.042.362-.927.742-2.45a13.979,13.979,0,0,0,.385-2.713,12.994,12.994,0,0,0-.036-1.613,1.463,1.463,0,0,0-.178-.692.335.335,0,0,0-.448-.1c-.374.149-.568.785-.745,1.286a7.593,7.593,0,0,0-.32,1.557,11.406,11.406,0,0,0,.082,2.726c.23,1.554.537,2.5.446,2.526a6.948,6.948,0,0,1-.848-2.456,10.233,10.233,0,0,1-.211-2.843,7.666,7.666,0,0,1,.31-1.679,6.794,6.794,0,0,1,.321-.857,1.518,1.518,0,0,1,.736-.792.921.921,0,0,1,1.15.3,1.936,1.936,0,0,1,.27.976,11.87,11.87,0,0,1,0,1.687,12.2,12.2,0,0,1-.523,2.794A6.15,6.15,0,0,1,455.733,526.544Z" transform="translate(-454.578 -518.353)" fill="#263238"/>
              </g>
            </g>
            <g id="组_3589" data-name="组 3589" transform="translate(10.837 6.489)">
              <g id="组_3588" data-name="组 3588">
                <path id="路径_22505" data-name="路径 22505" d="M456.4,525.557c-.042.085-.809-.306-2.128-.627a11.641,11.641,0,0,0-2.345-.319,5.2,5.2,0,0,0-1.344.084.89.89,0,0,0-.783.764,1.172,1.172,0,0,0,.553,1.04,2.735,2.735,0,0,0,1.217.406,6.125,6.125,0,0,0,2.3-.23,15.159,15.159,0,0,1,2.135-.629,6.066,6.066,0,0,1-2.014,1.021,5.979,5.979,0,0,1-2.477.37,3.165,3.165,0,0,1-1.48-.468,1.725,1.725,0,0,1-.812-1.554,1.46,1.46,0,0,1,1.224-1.27,5.437,5.437,0,0,1,1.505-.067,10.068,10.068,0,0,1,2.43.459A4.857,4.857,0,0,1,456.4,525.557Z" transform="translate(-449.217 -524.056)" fill="#263238"/>
              </g>
            </g>
            <g id="组_3591" data-name="组 3591" transform="translate(37.68 19.616)">
              <g id="组_3590" data-name="组 3590">
                <path id="路径_22506" data-name="路径 22506" d="M474.284,543.949c-.037.051-.55-.331-.8-1.269a4.837,4.837,0,0,1,.613-3.552,13.123,13.123,0,0,1,1.1-1.634,6.011,6.011,0,0,1,1.112-1.193,1.937,1.937,0,0,1,1.045-.437c.275-.012.414.056.409.089a3.092,3.092,0,0,0-1.191.66,7.49,7.49,0,0,0-.944,1.194,18.724,18.724,0,0,0-1.021,1.6,5.062,5.062,0,0,0-.719,3.192C474,543.446,474.362,543.894,474.284,543.949Z" transform="translate(-473.36 -535.863)" fill="#263238"/>
              </g>
            </g>
            <g id="组_3593" data-name="组 3593" transform="translate(26.791 14.057)">
              <g id="组_3592" data-name="组 3592">
                <path id="路径_22507" data-name="路径 22507" d="M463.627,535.727a4.963,4.963,0,0,1,4.034-4.831,9.343,9.343,0,0,0-4.034,4.831Z" transform="translate(-463.566 -530.863)" fill="#263238"/>
              </g>
            </g>
            <g id="组_3595" data-name="组 3595" transform="translate(3.366 13.11)">
              <g id="组_3594" data-name="组 3594">
                <path id="路径_22508" data-name="路径 22508" d="M442.5,530.013a11.364,11.364,0,0,1,1.439.987,41.2,41.2,0,0,0,4.037,2.474,53.13,53.13,0,0,0,6.411,2.853c2.479.925,5.259,1.8,8.2,2.65,5.889,1.7,11.222,3.245,15.069,4.4l4.55,1.4a10.2,10.2,0,0,1,1.646.588,10.024,10.024,0,0,1-1.708-.371l-4.6-1.22c-3.877-1.056-9.223-2.544-15.119-4.242-2.946-.854-5.738-1.745-8.226-2.705a48.116,48.116,0,0,1-6.42-2.994,32.348,32.348,0,0,1-3.974-2.651A9.054,9.054,0,0,1,442.5,530.013Z" transform="translate(-442.497 -530.011)" fill="#263238"/>
              </g>
            </g>
            <g id="组_3597" data-name="组 3597" transform="translate(2.152 12.63)">
              <g id="组_3596" data-name="组 3596">
                <path id="路径_22509" data-name="路径 22509" d="M441.406,530.5a9.191,9.191,0,0,1,2.774-.738,11.457,11.457,0,0,1,6.881.841,8.232,8.232,0,0,1,2.945,2.529,13.749,13.749,0,0,1,1.534,2.741,10.714,10.714,0,0,1,.91,2.72,20.365,20.365,0,0,1-1.281-2.546,10.366,10.366,0,0,0-4.37-4.925,12.031,12.031,0,0,0-6.568-.952C442.5,530.353,441.426,530.592,441.406,530.5Z" transform="translate(-441.406 -529.58)" fill="#263238"/>
              </g>
            </g>
          </g>
          <g id="组_3704" data-name="组 3704" transform="translate(116.907)">
            <g id="组_3700" data-name="组 3700" transform="translate(0 1.528)">
              <g id="组_3699" data-name="组 3699">
                <g id="组_3615" data-name="组 3615">
                  <g id="组_3614" data-name="组 3614">
                    <g id="组_3613" data-name="组 3613">
                      <g id="组_3605" data-name="组 3605">
                        <g id="组_3604" data-name="组 3604">
                          <g id="组_3603" data-name="组 3603">
                            <g id="组_3602" data-name="组 3602">
                              <g id="组_3601" data-name="组 3601">
                                <g id="组_3600" data-name="组 3600">
                                  <g id="组_3599" data-name="组 3599">
                                    <path id="路径_22510" data-name="路径 22510" d="M523.217,367.509l2.137,43.24a12.878,12.878,0,0,1-12.863,13.514h0A12.885,12.885,0,0,1,499.627,412c-.158-3.255-.3-5.969-.334-6.3,0,0-11.059-.491-12.392-11.347-.644-5.246-1.091-16.159-1.382-26.037a20.374,20.374,0,0,1,18.137-20.837l1.05-.116C516.088,346.776,522.945,356.115,523.217,367.509Z" transform="translate(-485.51 -347.336)" fill="#ffbe9d"/>
                                  </g>
                                </g>
                              </g>
                            </g>
                          </g>
                        </g>
                      </g>
                      <g id="组_3612" data-name="组 3612" transform="translate(13.748 52.617)">
                        <g id="组_3611" data-name="组 3611">
                          <g id="组_3610" data-name="组 3610">
                            <g id="组_3609" data-name="组 3609">
                              <g id="组_3608" data-name="组 3608">
                                <g id="组_3607" data-name="组 3607">
                                  <g id="组_3606" data-name="组 3606">
                                    <path id="路径_22511" data-name="路径 22511" d="M497.875,400.251A25.43,25.43,0,0,0,511.6,394.66s-2.487,8.193-13.442,8.41Z" transform="translate(-497.875 -394.66)" fill="#eb996e"/>
                                  </g>
                                </g>
                              </g>
                            </g>
                          </g>
                        </g>
                      </g>
                    </g>
                  </g>
                </g>
                <g id="组_3682" data-name="组 3682" transform="translate(2.9 16.408)">
                  <g id="组_3681" data-name="组 3681">
                    <g id="组_3666" data-name="组 3666" transform="translate(0 6.157)">
                      <g id="组_3665" data-name="组 3665">
                        <g id="组_3664" data-name="组 3664">
                          <g id="组_3631" data-name="组 3631" transform="translate(0 1.499)">
                            <g id="组_3622" data-name="组 3622" transform="translate(0.561 2.12)">
                              <g id="组_3621" data-name="组 3621">
                                <g id="组_3620" data-name="组 3620">
                                  <g id="组_3619" data-name="组 3619">
                                    <g id="组_3618" data-name="组 3618">
                                      <g id="组_3617" data-name="组 3617">
                                        <g id="组_3616" data-name="组 3616">
                                          <path id="路径_22512" data-name="路径 22512" d="M488.626,372.466a1.561,1.561,0,0,0,1.67,1.4,1.494,1.494,0,0,0,1.445-1.577,1.563,1.563,0,0,0-1.668-1.4A1.5,1.5,0,0,0,488.626,372.466Z" transform="translate(-488.622 -370.886)" fill="#263238"/>
                                        </g>
                                      </g>
                                    </g>
                                  </g>
                                </g>
                              </g>
                            </g>
                            <g id="组_3630" data-name="组 3630">
                              <g id="组_3629" data-name="组 3629">
                                <g id="组_3628" data-name="组 3628">
                                  <g id="组_3627" data-name="组 3627">
                                    <g id="组_3626" data-name="组 3626">
                                      <g id="组_3625" data-name="组 3625">
                                        <g id="组_3624" data-name="组 3624">
                                          <g id="组_3623" data-name="组 3623">
                                            <path id="路径_22513" data-name="路径 22513" d="M488.151,370.971c.215.181,1.3-.819,2.966-1,1.667-.2,2.987.521,3.145.3.079-.1-.157-.445-.734-.774a4.285,4.285,0,0,0-2.546-.488,4.116,4.116,0,0,0-2.333,1.048C488.18,370.506,488.047,370.891,488.151,370.971Z" transform="translate(-488.118 -368.979)" fill="#263238"/>
                                          </g>
                                        </g>
                                      </g>
                                    </g>
                                  </g>
                                </g>
                              </g>
                            </g>
                          </g>
                          <g id="组_3647" data-name="组 3647" transform="translate(16.455)">
                            <g id="组_3638" data-name="组 3638" transform="translate(0.509 2.207)">
                              <g id="组_3637" data-name="组 3637">
                                <g id="组_3636" data-name="组 3636">
                                  <g id="组_3635" data-name="组 3635">
                                    <g id="组_3634" data-name="组 3634">
                                      <g id="组_3633" data-name="组 3633">
                                        <g id="组_3632" data-name="组 3632">
                                          <path id="路径_22514" data-name="路径 22514" d="M503.379,371.2a1.562,1.562,0,0,0,1.67,1.4,1.494,1.494,0,0,0,1.445-1.577,1.563,1.563,0,0,0-1.668-1.4A1.5,1.5,0,0,0,503.379,371.2Z" transform="translate(-503.375 -369.616)" fill="#263238"/>
                                        </g>
                                      </g>
                                    </g>
                                  </g>
                                </g>
                              </g>
                            </g>
                            <g id="组_3646" data-name="组 3646">
                              <g id="组_3645" data-name="组 3645">
                                <g id="组_3644" data-name="组 3644">
                                  <g id="组_3643" data-name="组 3643">
                                    <g id="组_3642" data-name="组 3642">
                                      <g id="组_3641" data-name="组 3641">
                                        <g id="组_3640" data-name="组 3640">
                                          <g id="组_3639" data-name="组 3639">
                                            <path id="路径_22515" data-name="路径 22515" d="M502.951,369.622c.215.181,1.3-.818,2.966-1,1.666-.2,2.987.52,3.145.3.079-.1-.156-.444-.734-.774a4.286,4.286,0,0,0-2.546-.487,4.112,4.112,0,0,0-2.333,1.047C502.981,369.156,502.847,369.542,502.951,369.622Z" transform="translate(-502.918 -367.631)" fill="#263238"/>
                                          </g>
                                        </g>
                                      </g>
                                    </g>
                                  </g>
                                </g>
                              </g>
                            </g>
                          </g>
                          <g id="组_3655" data-name="组 3655" transform="translate(7.392 1.046)">
                            <g id="组_3654" data-name="组 3654">
                              <g id="组_3653" data-name="组 3653">
                                <g id="组_3652" data-name="组 3652">
                                  <g id="组_3651" data-name="组 3651">
                                    <g id="组_3650" data-name="组 3650">
                                      <g id="组_3649" data-name="组 3649">
                                        <g id="组_3648" data-name="组 3648">
                                          <path id="路径_22516" data-name="路径 22516" d="M499.167,382.574a11.1,11.1,0,0,0-2.767-.19c-.431,0-.844-.038-.948-.32a2.184,2.184,0,0,1,.146-1.3q.43-1.614.9-3.387c1.242-4.819,2.09-8.761,1.9-8.809s-1.359,3.817-2.6,8.636q-.444,1.78-.847,3.4a2.478,2.478,0,0,0-.037,1.7,1.075,1.075,0,0,0,.769.547,2.884,2.884,0,0,0,.736.02A10.947,10.947,0,0,0,499.167,382.574Z" transform="translate(-494.767 -368.572)" fill="#263238"/>
                                        </g>
                                      </g>
                                    </g>
                                  </g>
                                </g>
                              </g>
                            </g>
                          </g>
                          <g id="组_3663" data-name="组 3663" transform="translate(12 15.662)">
                            <g id="组_3662" data-name="组 3662">
                              <g id="组_3661" data-name="组 3661">
                                <g id="组_3660" data-name="组 3660">
                                  <g id="组_3659" data-name="组 3659">
                                    <g id="组_3658" data-name="组 3658">
                                      <g id="组_3657" data-name="组 3657">
                                        <g id="组_3656" data-name="组 3656">
                                          <path id="路径_22517" data-name="路径 22517" d="M503.746,381.718c-.273.013-.077,1.828-1.487,3.285s-3.362,1.472-3.349,1.727c-.012.117.469.3,1.288.237a4.543,4.543,0,0,0,2.807-1.339,3.957,3.957,0,0,0,1.13-2.743C504.121,382.121,503.87,381.694,503.746,381.718Z" transform="translate(-498.911 -381.717)" fill="#263238"/>
                                        </g>
                                      </g>
                                    </g>
                                  </g>
                                </g>
                              </g>
                            </g>
                          </g>
                        </g>
                      </g>
                    </g>
                    <g id="组_3673" data-name="组 3673" transform="translate(15.318)">
                      <g id="组_3672" data-name="组 3672">
                        <g id="组_3671" data-name="组 3671">
                          <g id="组_3670" data-name="组 3670">
                            <g id="组_3669" data-name="组 3669">
                              <g id="组_3668" data-name="组 3668">
                                <g id="组_3667" data-name="组 3667">
                                  <path id="路径_22518" data-name="路径 22518" d="M501.912,363.743c.216.436,1.859.037,3.845.057,1.987-.02,3.631.379,3.846-.057.094-.208-.228-.6-.916-.974a6.684,6.684,0,0,0-5.858,0C502.141,363.138,501.817,363.535,501.912,363.743Z" transform="translate(-501.896 -362.093)" fill="#263238"/>
                                </g>
                              </g>
                            </g>
                          </g>
                        </g>
                      </g>
                    </g>
                    <g id="组_3680" data-name="组 3680" transform="translate(0.053 2.669)">
                      <g id="组_3679" data-name="组 3679">
                        <g id="组_3678" data-name="组 3678">
                          <g id="组_3677" data-name="组 3677">
                            <g id="组_3676" data-name="组 3676">
                              <g id="组_3675" data-name="组 3675">
                                <g id="组_3674" data-name="组 3674">
                                  <path id="路径_22519" data-name="路径 22519" d="M488.227,366.57c.336.348,1.443-.173,2.825-.345,1.375-.219,2.583-.027,2.81-.454.1-.206-.13-.565-.682-.867a4.116,4.116,0,0,0-4.54.643C488.2,365.991,488.077,366.4,488.227,366.57Z" transform="translate(-488.165 -364.493)" fill="#263238"/>
                                </g>
                              </g>
                            </g>
                          </g>
                        </g>
                      </g>
                    </g>
                  </g>
                </g>
                <g id="组_3698" data-name="组 3698" transform="translate(37.707 27.669)">
                  <g id="组_3689" data-name="组 3689">
                    <g id="组_3688" data-name="组 3688">
                      <g id="组_3687" data-name="组 3687">
                        <g id="组_3686" data-name="组 3686">
                          <g id="组_3685" data-name="组 3685">
                            <g id="组_3684" data-name="组 3684">
                              <g id="组_3683" data-name="组 3683">
                                <path id="路径_22520" data-name="路径 22520" d="M519.424,372.874c.177-.1,7.226-3.033,7.807,4.424s-7.025,6.5-7.055,6.292S519.424,372.874,519.424,372.874Z" transform="translate(-519.424 -372.222)" fill="#ffbe9d"/>
                              </g>
                            </g>
                          </g>
                        </g>
                      </g>
                    </g>
                  </g>
                  <g id="组_3697" data-name="组 3697" transform="translate(2.805 2.351)">
                    <g id="组_3696" data-name="组 3696">
                      <g id="组_3695" data-name="组 3695">
                        <g id="组_3694" data-name="组 3694">
                          <g id="组_3693" data-name="组 3693">
                            <g id="组_3692" data-name="组 3692">
                              <g id="组_3691" data-name="组 3691">
                                <g id="组_3690" data-name="组 3690">
                                  <path id="路径_22521" data-name="路径 22521" d="M521.953,380.35c.03-.027.137.08.365.163a1.3,1.3,0,0,0,.972-.056,3.221,3.221,0,0,0,1.263-3,4.309,4.309,0,0,0-.509-1.832,1.5,1.5,0,0,0-1.055-.921.664.664,0,0,0-.739.416c-.083.216-.025.361-.062.377-.02.021-.17-.112-.134-.425a.84.84,0,0,1,.257-.49.986.986,0,0,1,.7-.246,1.831,1.831,0,0,1,1.448,1.051,4.407,4.407,0,0,1,.613,2.044c.07,1.507-.59,2.972-1.643,3.368a1.394,1.394,0,0,1-1.2-.1C521.979,380.529,521.927,380.365,521.953,380.35Z" transform="translate(-521.947 -374.336)" fill="#eb996e"/>
                                </g>
                              </g>
                            </g>
                          </g>
                        </g>
                      </g>
                    </g>
                  </g>
                </g>
              </g>
            </g>
          </g>
          <g id="组_3717" data-name="组 3717" transform="translate(0 137.355)">
            <g id="组_3705" data-name="组 3705" transform="translate(37.241 4.92)">
              <path id="路径_22523" data-name="路径 22523" d="M413.857,532.325s80.284-52.661,83.572-53.757,11.232-6.3,19.176-4.109,15.068,9.315,18.629,19.725,3.836,33.7,3.836,33.7-6.3,18.354-18.629,22.19a31.32,31.32,0,0,1-3.21.8c-15.048,2.986-30.35-3.934-38.773-16.755l-1.792-2.727s-52.519,19.295-53.341,19.021Z" transform="translate(-413.857 -473.926)" fill="#263238"/>
            </g>
            <g id="组_3706" data-name="组 3706">
              <path id="路径_22524" data-name="路径 22524" d="M390.224,471.392s-9.821,3.507-9.862,14.519c-.079,21.095,42.621,44.345,42.621,44.345l56.824-37.65v-3.956S406.661,462.352,390.224,471.392Z" transform="translate(-380.362 -469.501)" fill="#263238"/>
            </g>
            <g id="组_3708" data-name="组 3708" transform="translate(36.862 8.427)">
              <g id="组_3707" data-name="组 3707">
                <path id="路径_22525" data-name="路径 22525" d="M513.22,517.477s-.146.075-.44.195l-1.314.521-5.089,1.96-18.916,7.126c-8.036,3-17.66,6.562-28.458,10.491s-22.767,8.235-35.548,12.563l-.232.078-.115-.218-6.272-11.978c-1.1-2.092-2.183-4.169-3.2-6.108l-.123-.236.222-.141,61.241-38.876,18.4-11.6,5-3.118,1.3-.8c.295-.177.454-.255.454-.255s-.138.11-.424.3l-1.275.844-4.94,3.207-18.3,11.755-61.14,39.025.1-.376,3.2,6.107,6.269,11.981-.346-.139c12.775-4.316,24.748-8.6,35.557-12.5l28.5-10.372,18.976-6.961,5.124-1.865,1.333-.471C513.062,517.517,513.22,517.477,513.22,517.477Z" transform="translate(-413.516 -477.08)" fill="#455a64"/>
              </g>
            </g>
            <g id="组_3710" data-name="组 3710" transform="translate(36.215 12.546)">
              <g id="组_3709" data-name="组 3709">
                <path id="路径_22526" data-name="路径 22526" d="M447.38,510.362a10.53,10.53,0,0,1-1.48-1c-.932-.675-2.26-1.677-3.887-2.934-3.253-2.515-7.679-6.08-12.441-10.167s-8.955-7.926-11.932-10.762c-1.49-1.418-2.681-2.579-3.489-3.4a10.5,10.5,0,0,1-1.215-1.311,10.715,10.715,0,0,1,1.371,1.147l3.611,3.261c3.046,2.756,7.276,6.539,12.031,10.624s9.134,7.691,12.319,10.284l3.77,3.078A10.464,10.464,0,0,1,447.38,510.362Z" transform="translate(-412.934 -480.785)" fill="#455a64"/>
              </g>
            </g>
            <g id="组_3712" data-name="组 3712" transform="translate(25.903 9.633)">
              <g id="组_3711" data-name="组 3711">
                <path id="路径_22527" data-name="路径 22527" d="M403.66,478.308A14.089,14.089,0,0,1,414,481.36c-.095.151-2.166-1.169-5.033-2C406.114,478.5,403.658,478.485,403.66,478.308Z" transform="translate(-403.66 -478.165)" fill="#455a64"/>
              </g>
            </g>
            <g id="组_3714" data-name="组 3714" transform="translate(30.794 6.436)">
              <g id="组_3713" data-name="组 3713">
                <path id="路径_22528" data-name="路径 22528" d="M408.062,475.3a8.635,8.635,0,0,1,5.137,6.361c-.165.058-.786-1.712-2.218-3.463C409.571,476.434,407.972,475.455,408.062,475.3Z" transform="translate(-408.059 -475.29)" fill="#455a64"/>
              </g>
            </g>
            <g id="组_3716" data-name="组 3716" transform="translate(6.737 73.184)">
              <g id="组_3715" data-name="组 3715">
                <path id="路径_22529" data-name="路径 22529" d="M386.422,535.383c-.03-.067.678-.2,1.464.444a5.31,5.31,0,0,1,1.642,3.3,6.465,6.465,0,0,1-.518,3.637c-.4.863-.844,1.268-.894,1.227-.078-.055.233-.534.515-1.381a7.38,7.38,0,0,0,.325-3.4,5.708,5.708,0,0,0-1.344-3.076C387.009,535.5,386.41,535.475,386.422,535.383Z" transform="translate(-386.421 -535.323)" fill="#263238"/>
              </g>
            </g>
          </g>
          <g id="组_3718" data-name="组 3718" transform="translate(48.971 55.059)">
            <path id="路径_22530" data-name="路径 22530" d="M424.407,395.482" transform="translate(-424.407 -395.482)" fill="#ffbe9d"/>
          </g>
        </g>
        <g id="组_3875" data-name="组 3875" transform="translate(115.334 28.617)">
          <g id="组_3848" data-name="组 3848" transform="translate(-6.836 -34.088)">
            <g id="组_3847" data-name="组 3847">
              <g id="组_3846" data-name="组 3846">
                <g id="组_3845" data-name="组 3845">
                  <path id="路径_22577" data-name="路径 22577" d="M145.6,271.993a4.3,4.3,0,0,1,1.59-3.847,3.053,3.053,0,0,1,3.955.3,3.564,3.564,0,0,1,3.064-4.321c1.9-.12,3.524,1.316,5.362,1.82a8.652,8.652,0,0,0,5.445-.628c1.725-.7,3.338-1.654,5.086-2.293a14.911,14.911,0,0,1,19.072,8.757,6.621,6.621,0,0,1,7.022,2.659,10.861,10.861,0,0,1,1.662,7.65,24.3,24.3,0,0,1-1.333,5.234c0,.149.015.3.013.447-.121,6.413-.846,13.943-3.581,13.985-4.769.074-3.633-8.91-3.633-8.91-5.852-2.261-3.672-11.029-5.135-12.359s-4.523-4.42-16.775,1.841c-4.758,2.431-11.083,2.356-14.536,1.573-.1-.022-.2-.038-.306-.063-.021,0-.049-.008-.07-.014-.038-.01-.064-.031-.1-.04a11.058,11.058,0,0,1-3.142-1.333,6.2,6.2,0,0,1-2.589-2.879,3.4,3.4,0,0,1,.669-3.65A7.469,7.469,0,0,1,145.6,271.993Z" transform="translate(-145.585 -262.129)" fill="#263238"/>
                </g>
              </g>
            </g>
          </g>
        </g>
      </g>
    </g>
    <g id="组_3844" data-name="组 3844" transform="translate(170.196 4229.574)">
      <g id="组_3349" data-name="组 3349" transform="translate(801.414 170.148)">
        <path id="路径_22390" data-name="路径 22390" d="M601,131.549A13.354,13.354,0,1,1,586.623,119.3,13.353,13.353,0,0,1,601,131.549Z" transform="translate(-574.334 -119.26)" fill="#f7546c"/>
        <g id="组_3348" data-name="组 3348" transform="translate(4.652 6.703)">
          <path id="路径_22391" data-name="路径 22391" d="M594.07,126.653a4.5,4.5,0,0,0-8.581-.521,4.5,4.5,0,1,0-6.817,5.683l6.914,5.891a1.168,1.168,0,0,0,1.645-.132l5.891-6.914A4.512,4.512,0,0,0,594.07,126.653Z" transform="translate(-577.085 -123.224)" fill="#fff"/>
        </g>
      </g>
      <g id="组_3351" data-name="组 3351" transform="translate(922.242 180.065)">
        <ellipse id="椭圆_1015" data-name="椭圆 1015" cx="14.33" cy="14.33" rx="14.33" ry="14.33" transform="translate(22.743 49.697) rotate(-70.123)" fill="#f7546c"/>
        <g id="组_3350" data-name="组 3350" transform="translate(30.651 32.594)">
          <path id="icon_person_add" d="M11.052,6.315A3.158,3.158,0,1,0,7.894,3.158,3.157,3.157,0,0,0,11.052,6.315Zm-7.1-1.579V2.368H2.368V4.736H0V6.315H2.368V8.683H3.947V6.315H6.315V4.736Zm7.1,3.158c-2.108,0-6.315,1.058-6.315,3.158V12.63h12.63V11.052C17.367,8.952,13.159,7.894,11.052,7.894Z" transform="translate(2.886 0.487) rotate(14)" fill="#fff"/>
        </g>
      </g>
      <g id="组_3353" data-name="组 3353" transform="translate(890.406 67.55)">
        <circle id="椭圆_1016" data-name="椭圆 1016" cx="26.555" cy="26.555" r="26.555" transform="translate(0 53.11) rotate(-89.734)" fill="#f7546c"/>
        <g id="组_3352" data-name="组 3352" transform="translate(8.864 11.384)">
          <path id="路径_22393" data-name="路径 22393" d="M657.714,70.4a8.949,8.949,0,0,0-16.635,3.94,8.957,8.957,0,1,0-9.712,14.739l16.548,7.238a2.323,2.323,0,0,0,3.059-1.2l7.24-16.55A8.966,8.966,0,0,0,657.714,70.4Z" transform="translate(-625.986 -66.005)" fill="#fff"/>
        </g>
      </g>
      <g id="组_3357" data-name="组 3357" transform="translate(870.131 202.748)">
        <path id="路径_22395" data-name="路径 22395" d="M640.409,150.418A19.016,19.016,0,1,1,616.8,137.544,19.016,19.016,0,0,1,640.409,150.418Z" transform="translate(-603.146 -136.765)" fill="#f7546c"/>
        <g id="组_3356" data-name="组 3356" transform="translate(6.314 8.471)">
          <path id="路径_22396" data-name="路径 22396" d="M630.19,145.419a6.409,6.409,0,0,0-12.113,1.777,6.414,6.414,0,1,0-7.842,9.912L621.59,163.3a1.662,1.662,0,0,0,2.255-.665l6.192-11.356A6.421,6.421,0,0,0,630.19,145.419Z" transform="translate(-606.88 -141.775)" fill="#fff"/>
        </g>
      </g>
      <g id="组_3379" data-name="组 3379" transform="translate(884.552 146.347)">
        <circle id="椭圆_1023" data-name="椭圆 1023" cx="14.259" cy="14.259" r="14.259" transform="matrix(0.244, -0.97, 0.97, 0.244, 0, 27.656)" fill="#ffd05a"/>
        <g id="组_3375" data-name="组 3375" transform="translate(8.132 15.116)">
          <path id="路径_22410" data-name="路径 22410" d="M628.616,114.123a9.129,9.129,0,0,0,17.226,5.906Z" transform="translate(-628.313 -114.123)" fill="#252c37"/>
          <g id="组_3374" data-name="组 3374">
            <g id="组_3373" data-name="组 3373" clip-path="url(#clip-path)">
              <path id="路径_22411" data-name="路径 22411" d="M643.577,127.426c-1.358,3.955-6.19,5.881-10.8,4.3s-7.239-6.067-5.883-10.022,6.19-5.882,10.794-4.3S644.933,123.469,643.577,127.426Z" transform="translate(-629.536 -112.239)" fill="#f7546c"/>
            </g>
          </g>
        </g>
        <g id="组_3378" data-name="组 3378" transform="translate(9.473 7.182)">
          <g id="组_3376" data-name="组 3376" transform="translate(12.539 5.116)">
            <path id="路径_22413" data-name="路径 22413" d="M640.409,118.259a.841.841,0,0,1-.313-.193l-3.321-3.24a.838.838,0,0,1,.4-1.419l4.225-.932a.838.838,0,0,1,.362,1.637l-2.71.6,2.21,2.154a.838.838,0,0,1-.857,1.393Z" transform="translate(-636.522 -112.456)" fill="#252c37"/>
          </g>
          <g id="组_3377" data-name="组 3377">
            <path id="路径_22414" data-name="路径 22414" d="M629.674,114.91a.838.838,0,0,1,.177-1.627l3.065-.345-1.772-2.134a.839.839,0,0,1,1.29-1.072l2.763,3.329a.839.839,0,0,1-.55,1.37l-4.609.519A.846.846,0,0,1,629.674,114.91Z" transform="translate(-629.106 -109.431)" fill="#252c37"/>
          </g>
        </g>
      </g>
      <g id="组_3390" data-name="组 3390" transform="translate(826.685 120.908)">
        <circle id="椭圆_1026" data-name="椭圆 1026" cx="19.409" cy="19.409" r="19.409" transform="translate(0 5.113) rotate(-7.569)" fill="#976ee6"/>
        <g id="组_3389" data-name="组 3389" transform="translate(9.778 9.474)">
          <path id="路径_22422" data-name="路径 22422" d="M608.131,119.575a36.028,36.028,0,0,1-4.6,1.161,4.979,4.979,0,0,1-1.6-.082,1.849,1.849,0,0,1-1.514-1.429c-.644-2.363-1.325-4.717-2.016-7.067a4.494,4.494,0,0,1,.012-2.488c.3-1.109.627-2.209.982-3.3a5.857,5.857,0,0,0-.022-4.327c-.215-.488-.328-1.019-.5-1.528-.3-.929-.129-1.354.748-1.772a2.8,2.8,0,0,1,3.462.749,7.019,7.019,0,0,1,1.5,3.224,18.109,18.109,0,0,1,.32,1.883c.053.48.223.6.687.453,1.146-.355,2.3-.673,3.458-.993a11.328,11.328,0,0,1,1.269-.283,2.424,2.424,0,0,1,3.029,2.744.938.938,0,0,0,.459.984,2.484,2.484,0,0,1,.521,3.171.629.629,0,0,0-.029.794,2.159,2.159,0,0,1-.336,2.8.544.544,0,0,0-.131.656,2.471,2.471,0,0,1-1.819,3.534C610.824,118.813,609.62,119.149,608.131,119.575Z" transform="translate(-590.536 -98.438)" fill="#fdfdfe"/>
          <path id="路径_22423" data-name="路径 22423" d="M601.684,110.808c.484,1.69.972,3.378,1.448,5.07.293,1.044.021,1.53-1.015,1.837s-2.055.6-3.087.878a1.212,1.212,0,0,1-1.694-.939q-1.5-5.176-2.963-10.361a1.223,1.223,0,0,1,.939-1.7c1.021-.322,2.053-.609,3.086-.888s1.534,0,1.835,1.036C600.723,107.426,601.2,109.118,601.684,110.808Z" transform="translate(-594.289 -92.572)" fill="#fdfdfe"/>
        </g>
      </g>
      <g id="组_3392" data-name="组 3392" transform="translate(972.894 141.522)">
        <path id="路径_22424" data-name="路径 22424" d="M715.778,120.783a20.045,20.045,0,1,1-21.573-18.39A20.046,20.046,0,0,1,715.778,120.783Z" transform="translate(-675.751 -102.329)" fill="#976ee6"/>
        <g id="组_3391" data-name="组 3391" transform="translate(7.464 7.179)">
          <path id="路径_22425" data-name="路径 22425" d="M693.291,129.5a37.525,37.525,0,0,1-4.893.237,5.223,5.223,0,0,1-1.6-.409,1.91,1.91,0,0,1-1.241-1.757c-.169-2.523-.379-5.045-.6-7.565a4.639,4.639,0,0,1,.521-2.518q.791-1.59,1.667-3.14a6.045,6.045,0,0,0,.862-4.384c-.117-.538-.125-1.1-.19-1.649-.12-1,.147-1.4,1.118-1.642a2.9,2.9,0,0,1,3.353,1.466,7.259,7.259,0,0,1,.864,3.571,18.73,18.73,0,0,1-.061,1.973c-.046.5.1.648.6.6,1.233-.123,2.469-.211,3.7-.3a11.824,11.824,0,0,1,1.341-.025,2.5,2.5,0,0,1,2.506,3.4.973.973,0,0,0,.264,1.089,2.567,2.567,0,0,1-.12,3.317.649.649,0,0,0-.191.8,2.227,2.227,0,0,1-.913,2.763.563.563,0,0,0-.266.637,2.552,2.552,0,0,1-2.563,3.208C696.174,129.283,694.886,129.374,693.291,129.5Z" transform="translate(-676.865 -106.575)" fill="#fdfdfe"/>
          <path id="路径_22426" data-name="路径 22426" d="M686.857,119.97c.144,1.809.294,3.618.43,5.428.083,1.118-.291,1.554-1.4,1.652s-2.2.189-3.3.26a1.253,1.253,0,0,1-1.523-1.3q-.462-5.544-.884-11.092a1.265,1.265,0,0,1,1.3-1.534c1.1-.117,2.2-.2,3.3-.267s1.552.315,1.647,1.422C686.575,116.35,686.713,118.159,686.857,119.97Z" transform="translate(-680.165 -102.06)" fill="#fdfdfe"/>
        </g>
      </g>
      <g id="组_3402" data-name="组 3402" transform="translate(828.781 211.868)">
        <line id="直线_68" data-name="直线 68" y2="7.819" transform="translate(3.91)" fill="none" stroke="#91a9e8" stroke-linejoin="round" stroke-width="1"/>
        <line id="直线_69" data-name="直线 69" x1="7.819" transform="translate(0 3.91)" fill="none" stroke="#91a9e8" stroke-linejoin="round" stroke-width="1"/>
      </g>
    </g>
    <g id="icon_person_add-2" data-name="icon_person_add" transform="translate(3841.498 -1071.547)">
      <path id="bg" d="M17.89,0A17.89,17.89,0,1,1,0,17.89,17.89,17.89,0,0,1,17.89,0Z" transform="translate(-3017.498 5631.768)" fill="url(#linear-gradient-10)"/>
      <path id="icon_person_add-3" data-name="icon_person_add" d="M13.848,11.342a3.671,3.671,0,1,0-3.671-3.671A3.67,3.67,0,0,0,13.848,11.342ZM5.589,9.506V6.753H3.753V9.506H1v1.835H3.753v2.753H5.589V11.342H8.342V9.506Zm8.259,3.671c-2.45,0-7.342,1.23-7.342,3.671v1.835H21.19V16.848C21.19,14.407,16.3,13.177,13.848,13.177Z" transform="translate(-3011.72 5638.156)" fill="#fff"/>
    </g>
  </g>
</svg>
