<svg xmlns="http://www.w3.org/2000/svg" width="67" height="40" viewBox="0 0 67 40"><defs><style>.a{fill:#fff;opacity:0;}.b{fill:#5f6368;}.c{fill:#4285f4;}.d{fill:#34a853;}.e{fill:#fabb05;}.f{fill:#e94235;}</style></defs><g transform="translate(0.139 -0.347)"><rect class="a" width="67" height="40" rx="6" transform="translate(-0.139 0.347)"/><g transform="translate(10.087 10.759)"><path class="b" d="M47.49,19.276v4.729H50.42a2.32,2.32,0,0,0,1.732-.7,2.3,2.3,0,0,0,0-3.311,2.292,2.292,0,0,0-1.732-.72H47.49Zm0,6.394v5.485H45.74V17.612h4.643a4.21,4.21,0,0,1,3.006,1.173,3.9,3.9,0,0,1,0,5.731,4.207,4.207,0,0,1-3.007,1.153H47.49Zm8.924,2.647A1.387,1.387,0,0,0,57,29.453a2.144,2.144,0,0,0,1.36.454,2.8,2.8,0,0,0,1.969-.813,2.538,2.538,0,0,0,.865-1.91,3.609,3.609,0,0,0-2.283-.643,2.977,2.977,0,0,0-1.779.511,1.511,1.511,0,0,0-.713,1.266m2.265-6.733a4.36,4.36,0,0,1,3.064,1.031,3.651,3.651,0,0,1,1.122,2.828v5.713H61.191V29.869h-.076a3.346,3.346,0,0,1-2.892,1.589,3.774,3.774,0,0,1-2.579-.908,2.893,2.893,0,0,1-1.037-2.27A2.746,2.746,0,0,1,55.7,25.992a4.629,4.629,0,0,1,2.921-.852,5.192,5.192,0,0,1,2.569.568v-.4a1.978,1.978,0,0,0-.724-1.541,2.488,2.488,0,0,0-1.693-.633,2.686,2.686,0,0,0-2.321,1.231L54.91,23.4a4.308,4.308,0,0,1,3.769-1.816m13.8.3L66.633,35.241H64.825l2.169-4.672-3.844-8.682h1.9l2.778,6.658h.038l2.7-6.658Z" transform="translate(-25.068 -16.528)"/><path class="c" d="M34.161,27.065a9.289,9.289,0,0,0-.134-1.582H26.643v3h4.228a3.6,3.6,0,0,1-1.563,2.365v1.947h2.524a7.591,7.591,0,0,0,2.329-5.727" transform="translate(-18.814 -19.106)"/><path class="d" d="M23.236,36.08A7.518,7.518,0,0,0,28.424,34.2L25.9,32.255A4.743,4.743,0,0,1,23.236,33a4.679,4.679,0,0,1-4.4-3.212h-2.6v2.005a7.834,7.834,0,0,0,7,4.288" transform="translate(-15.406 -20.516)"/><path class="e" d="M18.434,27.36a4.651,4.651,0,0,1,0-2.979v-2h-2.6a7.736,7.736,0,0,0,0,6.988l2.6-2.005Z" transform="translate(-15 -18.089)"/><path class="f" d="M23.236,19.08a4.263,4.263,0,0,1,3,1.168h0l2.235-2.221A7.551,7.551,0,0,0,23.235,16a7.834,7.834,0,0,0-6.995,4.288l2.6,2.005a4.679,4.679,0,0,1,4.4-3.212" transform="translate(-15.406 -16)"/></g></g></svg>