<svg xmlns="http://www.w3.org/2000/svg" width="62.222" height="40" viewBox="0 0 62.222 40"><defs><style>.a{fill:#fff;opacity:0;}.b{fill:#142688;}</style></defs><rect class="a" width="62.222" height="40" rx="6" transform="translate(0 0)"/><path class="b" d="M46.222,19.265l-.807.029-1.747,0c-.164,0-.162-.06-.193-.216L43.2,17.549c-.038-.2-.1-.251-.3-.251-1.289.009-2.578.011-3.867,0a.323.323,0,0,0-.367.273q-.257.767-.551,1.52l-.222.2c-1.111.009-2.227,0-3.342,0l-.073-.029.311-.771L39.544,7.143A1.545,1.545,0,0,1,41.22,6.058h2.493c.2,0,.284.016.329.229q1.117,5.4,2.249,10.8l.144,2-.216.133v.051Zm-4.633-9.4-.06.082a46.978,46.978,0,0,0-1.771,4.978h2.851c-.342-2.222-.68-3.438-1.018-5.06ZM4,6.036h.524l5.54.009a1.563,1.563,0,0,1,1.667,1.3q.7,3.633,1.391,7.273l.089.382.127-.24c1.122-2.838,2.244-5.871,3.36-8.711.071-.178.156,0,.347,0h3.333l-.1.256L15.189,18.469c-.116.276-.182.644-.4.784s-.564.038-.856.04l-2.444.007c-.222.007-.3-.067-.356-.273-.878-3.436-1.778-6.867-2.644-10.3A2.015,2.015,0,0,0,7.267,7.392,12.951,12.951,0,0,0,4,6.407ZM24.833,18.805l.622-2.907.378.173a6.542,6.542,0,0,0,3.456.636,3.211,3.211,0,0,0,1.156-.349,1,1,0,0,0,.162-1.747,11.5,11.5,0,0,0-1.233-.773,18.5,18.5,0,0,1-1.838-1.151,3.441,3.441,0,0,1-.218-5.178c.9-.933,1.453-1.456,2.718-1.456a21.018,21.018,0,0,1,5.053.249l.16.071-.6,2.789a6.279,6.279,0,0,0-2.422-.6,6.729,6.729,0,0,0-1.444.138,1.609,1.609,0,0,0-.7.4.759.759,0,0,0-.022,1.173,4.442,4.442,0,0,0,.831.609l1.871,1.058a3.415,3.415,0,0,1,1.778,2.333,3.942,3.942,0,0,1-1.436,3.889A3.955,3.955,0,0,1,30.7,19.3a25.019,25.019,0,0,1-5.52-.362l-.344-.133ZM25.3,6.036c-.382,2.222-.756,3.529-1.127,5.273-.544,2.549-1.093,5.1-1.627,7.651-.056.267-.151.387-.427.378-.92-.018-1.844.031-2.762.031h-.318a9.4,9.4,0,0,0,.4-1.927c.789-3.689,1.578-7.4,2.362-11.089.051-.244.133-.316.391-.311.918.022,1.84-.007,2.76-.007H25.3Z" transform="translate(4.889 7.297)"/></svg>