<svg xmlns="http://www.w3.org/2000/svg" width="96" height="40" viewBox="0 0 96 40"><defs><style>.a{fill:#fff;opacity:0;}.b{fill:#253b80;}.c{fill:#179bd7;}.d{fill:#222d65;}</style></defs><g transform="translate(0 -0.347)"><rect class="a" width="96" height="40" rx="6" transform="translate(0 0.347)"/><path class="b" d="M42.755,6.749h-4.6a.639.639,0,0,0-.631.539l-1.86,11.793a.383.383,0,0,0,.379.442h2.2a.639.639,0,0,0,.631-.54l.5-3.181a.639.639,0,0,1,.631-.54h1.456c3.029,0,4.778-1.466,5.234-4.371a3.542,3.542,0,0,0-.586-2.969,4.267,4.267,0,0,0-3.352-1.174Zm.531,4.307c-.252,1.65-1.512,1.65-2.732,1.65H39.86l.487-3.082a.383.383,0,0,1,.379-.323h.318c.83,0,1.614,0,2.019.473a1.533,1.533,0,0,1,.223,1.282ZM56.5,11H54.3a.383.383,0,0,0-.379.323l-.1.616-.154-.223a3.135,3.135,0,0,0-2.6-.923,5.064,5.064,0,0,0-4.917,4.429,4.157,4.157,0,0,0,.82,3.383,3.446,3.446,0,0,0,2.774,1.12,4.214,4.214,0,0,0,3.048-1.261l-.1.612a.383.383,0,0,0,.378.444h1.984a.639.639,0,0,0,.631-.54l1.19-7.538A.382.382,0,0,0,56.5,11Zm-3.07,4.286a2.454,2.454,0,0,1-2.485,2.1,1.706,1.706,0,0,1-1.824-2.141,2.465,2.465,0,0,1,2.468-2.12,1.858,1.858,0,0,1,1.469.6,1.906,1.906,0,0,1,.373,1.558ZM68.232,11H66.018a.642.642,0,0,0-.529.28l-3.052,4.5-1.294-4.321A.641.641,0,0,0,60.53,11H58.355a.383.383,0,0,0-.364.507l2.438,7.154L58.137,21.9a.383.383,0,0,0,.313.605h2.21a.638.638,0,0,0,.525-.274L68.546,11.6a.383.383,0,0,0-.315-.6Z" transform="translate(-4.283 5.858)"/><path class="c" d="M91.536,6.749h-4.6a.639.639,0,0,0-.631.539l-1.86,11.793a.383.383,0,0,0,.378.442h2.36a.447.447,0,0,0,.441-.378l.528-3.343a.639.639,0,0,1,.631-.54h1.455c3.03,0,4.778-1.466,5.235-4.371a3.54,3.54,0,0,0-.587-2.969,4.263,4.263,0,0,0-3.351-1.174Zm.531,4.307c-.251,1.65-1.512,1.65-2.732,1.65h-.693l.488-3.082a.382.382,0,0,1,.378-.323h.318c.83,0,1.614,0,2.019.473a1.533,1.533,0,0,1,.223,1.282ZM105.283,11h-2.2a.381.381,0,0,0-.378.323l-.1.616-.155-.223a3.133,3.133,0,0,0-2.6-.923,5.064,5.064,0,0,0-4.916,4.429,4.159,4.159,0,0,0,.82,3.383,3.448,3.448,0,0,0,2.774,1.12,4.214,4.214,0,0,0,3.048-1.261l-.1.612a.383.383,0,0,0,.379.444h1.983a.639.639,0,0,0,.631-.54l1.191-7.538a.384.384,0,0,0-.38-.442Zm-3.07,4.286a2.453,2.453,0,0,1-2.485,2.1A1.706,1.706,0,0,1,97.9,15.251a2.466,2.466,0,0,1,2.468-2.12,1.858,1.858,0,0,1,1.469.6A1.9,1.9,0,0,1,102.213,15.289Zm5.666-8.217-1.888,12.009a.383.383,0,0,0,.378.442h1.9a.638.638,0,0,0,.631-.54L110.76,7.191a.383.383,0,0,0-.378-.443h-2.125a.384.384,0,0,0-.378.324Z" transform="translate(-20.26 5.859)"/><path class="b" d="M5.234,19.94l.352-2.234L4.8,17.688H1.061L3.661,1.2a.212.212,0,0,1,.211-.18H10.18c2.094,0,3.539.436,4.294,1.3a2.954,2.954,0,0,1,.688,1.289,4.654,4.654,0,0,1,0,1.778l-.008.052v.455l.354.2a2.481,2.481,0,0,1,.716.546,2.543,2.543,0,0,1,.581,1.3,5.513,5.513,0,0,1-.083,1.891,6.659,6.659,0,0,1-.775,2.14,4.4,4.4,0,0,1-1.227,1.345,4.979,4.979,0,0,1-1.653.746,8.243,8.243,0,0,1-2.066.239h-.491a1.476,1.476,0,0,0-1.46,1.246l-.037.2L8.4,19.688l-.028.145a.124.124,0,0,1-.039.084.1.1,0,0,1-.065.024H5.234Z" transform="translate(7.05 7.734)"/><path class="c" d="M17.526,7.667q-.028.181-.065.37c-.832,4.271-3.678,5.746-7.312,5.746H8.3a.9.9,0,0,0-.888.761l-.948,6.009-.268,1.7a.473.473,0,0,0,.467.547H9.944a.79.79,0,0,0,.78-.666l.032-.167.618-3.922.04-.215a.789.789,0,0,1,.78-.667h.491c3.18,0,5.67-1.291,6.4-5.027a4.281,4.281,0,0,0-.658-3.781,3.138,3.138,0,0,0-.9-.693Z" transform="translate(5.37 5.559)"/><path class="d" d="M17.251,7.005a6.561,6.561,0,0,0-.809-.18,10.278,10.278,0,0,0-1.631-.119H9.866a.788.788,0,0,0-.779.667L8.035,14.035l-.03.194a.9.9,0,0,1,.888-.761h1.851c3.635,0,6.481-1.476,7.312-5.746.025-.126.046-.249.065-.37a4.434,4.434,0,0,0-.684-.288q-.093-.031-.186-.059Z" transform="translate(4.775 5.873)"/><path class="b" d="M6.465,5.177a.786.786,0,0,1,.779-.666h4.944a10.278,10.278,0,0,1,1.631.119,6.561,6.561,0,0,1,1,.237,4.5,4.5,0,0,1,.684.288,4.034,4.034,0,0,0-.855-3.626C13.7.459,12.006,0,9.833,0H3.525a.9.9,0,0,0-.891.762L.007,17.415a.542.542,0,0,0,.535.627H4.436l.978-6.2L6.465,5.177Z" transform="translate(7.397 8.069)"/></g></svg>