<svg xmlns="http://www.w3.org/2000/svg" xmlns:xlink="http://www.w3.org/1999/xlink" width="278.806" height="83.812" viewBox="0 0 278.806 83.812">
  <defs>
    <linearGradient id="linear-gradient" x1="-0.023" y1="0.5" x2="0.955" y2="0.594" gradientUnits="objectBoundingBox">
      <stop offset="0" stop-color="#fecb48"/>
      <stop offset="1" stop-color="#f4e2ff" stop-opacity="0"/>
    </linearGradient>
    <filter id="路径_12785" x="210.384" y="15.39" width="68.422" height="68.422" filterUnits="userSpaceOnUse">
      <feOffset dy="4" input="SourceAlpha"/>
      <feGaussianBlur stdDeviation="3" result="blur"/>
      <feFlood flood-color="#67573b" flood-opacity="0.431"/>
      <feComposite operator="in" in2="blur"/>
      <feComposite in="SourceGraphic"/>
    </filter>
    <linearGradient id="linear-gradient-2" x1="0.638" y1="2.449" x2="0.5" y2="-0.607" gradientUnits="objectBoundingBox">
      <stop offset="0" stop-color="#111ec5"/>
      <stop offset="0.941" stop-color="#ad34d8"/>
      <stop offset="1" stop-color="#6166ff"/>
    </linearGradient>
    <linearGradient id="linear-gradient-3" x1="0.5" x2="0.5" y2="1" gradientUnits="objectBoundingBox">
      <stop offset="0" stop-color="#ac3efe"/>
      <stop offset="1" stop-color="#6c7ffe"/>
    </linearGradient>
    <filter id="路径_12818" x="0" y="0" width="81.725" height="81.726" filterUnits="userSpaceOnUse">
      <feOffset dy="6" input="SourceAlpha"/>
      <feGaussianBlur stdDeviation="6" result="blur-2"/>
      <feFlood flood-color="#535353" flood-opacity="0.329"/>
      <feComposite operator="in" in2="blur-2"/>
      <feComposite in="SourceGraphic"/>
    </filter>
    <linearGradient id="linear-gradient-4" x1="0.5" x2="0.5" y2="1" gradientUnits="objectBoundingBox">
      <stop offset="0" stop-color="#8763fe"/>
      <stop offset="1" stop-color="#680adc"/>
    </linearGradient>
    <filter id="路径_12817" x="29.617" y="25.515" width="22.497" height="22.497" filterUnits="userSpaceOnUse">
      <feOffset dy="2" input="SourceAlpha"/>
      <feGaussianBlur stdDeviation="2" result="blur-3"/>
      <feFlood flood-color="#7e2e00" flood-opacity="0.31"/>
      <feComposite operator="in" in2="blur-3"/>
      <feComposite in="SourceGraphic"/>
    </filter>
    <radialGradient id="radial-gradient" cx="0.5" cy="0.5" r="0.5" gradientUnits="objectBoundingBox">
      <stop offset="0" stop-color="#fff"/>
      <stop offset="1" stop-color="#fceaa0"/>
    </radialGradient>
    <filter id="联合_19" x="34.901" y="30.779" width="11.579" height="9.387" filterUnits="userSpaceOnUse">
      <feOffset dy="1" input="SourceAlpha"/>
      <feGaussianBlur stdDeviation="1" result="blur-4"/>
      <feFlood flood-opacity="0.161"/>
      <feComposite operator="in" in2="blur-4"/>
      <feComposite in="SourceGraphic"/>
    </filter>
  </defs>
  <g id="组件_22_1" data-name="组件 22 – 1" transform="translate(1.102 11.142)">
    <g id="组_4357" data-name="组 4357" transform="translate(-979.507 -3577.541)">
      <g id="join_us" data-name="join us" transform="translate(-106 2)">
        <rect id="矩形_871" data-name="矩形 871" width="210" height="34" rx="17" transform="translate(1125 3594)" fill="url(#linear-gradient)"/>
        <text id="_Join_Now" data-name=" Join Now" transform="translate(1148 3621)" fill="#8618ef" font-size="28" font-family="Montserrat-Bold, Montserrat" font-weight="700"><tspan x="0" y="0" xml:space="preserve"> Join Now</tspan></text>
        <g transform="matrix(1, 0, 0, 1, 1084.41, 3564.4)" filter="url(#路径_12785)">
          <path id="路径_12785-2" data-name="路径 12785" d="M25.211,0A25.211,25.211,0,1,1,0,25.211,25.211,25.211,0,0,1,25.211,0Z" transform="translate(219.38 20.39)" fill="#8618ef"/>
        </g>
        <path id="路径_12773" data-name="路径 12773" d="M295.5,260.771h15.632v6.544l8.841-8.157L311.131,251v6.543H295.5Z" transform="translate(1020.9 3351.436)" fill="#fff" fill-rule="evenodd"/>
        <g id="组_4315" data-name="组 4315" transform="translate(929.604 3382.105)">
          <path id="路径_12774" data-name="路径 12774" d="M385.607,202.686a.5.5,0,0,0-.375.22,6.3,6.3,0,0,0-.553.768c-.1.191-.206.389-.289.591.067.126.008.3.211.34a.28.28,0,0,0,.337-.139c.081-.154.167-.307.244-.46a3.122,3.122,0,0,1,.589-1.009.176.176,0,0,0,.028-.233C385.759,202.689,385.694,202.679,385.607,202.686Z" transform="translate(-10.187)" fill="#8618ef"/>
          <path id="路径_12775" data-name="路径 12775" d="M372.545,211.821c.132-.011.231.009.233-.137s-.081-.192-.231-.22a5.931,5.931,0,0,0-1.553,0c-.176.058-.519-.012-.8.2-.079.06-.155.116-.134.229s.119.058.183.079a1.2,1.2,0,0,0,.742-.055A7.852,7.852,0,0,1,372.545,211.821Z" transform="translate(0 -6.205)" fill="#8618ef"/>
          <path id="路径_12776" data-name="路径 12776" d="M376.521,215.49a4.511,4.511,0,0,0-1.008.778c-.112.151-.322.246-.3.442,0,.149.027.25.135.3s.163-.054.232-.108c.133-.1.2-.266.342-.37.3-.217.573-.466.872-.68.166-.118.059-.222.007-.311A.19.19,0,0,0,376.521,215.49Z" transform="translate(-3.662 -9.075)" fill="#8618ef"/>
          <path id="路径_12777" data-name="路径 12777" d="M388.113,210.552a.217.217,0,0,0-.092.33c.076.124.22.172.312.071a.861.861,0,0,1,.448-.2,3.479,3.479,0,0,1,.61-.2c.164-.023.318-.155.5-.133.122.015.173-.047.208-.163-.06-.075-.079-.176-.231-.185a3.6,3.6,0,0,0-.869.167A5.8,5.8,0,0,0,388.113,210.552Z" transform="translate(-12.74 -5.249)" fill="#8618ef"/>
          <path id="路径_12778" data-name="路径 12778" d="M390.931,217.711a2.864,2.864,0,0,1-1.049-.32.325.325,0,0,0-.362-.008c-.058.036-.113.084-.091.161.042.147.172.191.3.237a.187.187,0,0,0,.083.015.657.657,0,0,1,.412.145,1.862,1.862,0,0,0,.858.331c.113,0,.231.01.287-.123s-.02-.184-.1-.267A.488.488,0,0,0,390.931,217.711Z" transform="translate(-13.765 -10.411)" fill="#8618ef"/>
          <path id="路径_12779" data-name="路径 12779" d="M378.436,204.742a8.627,8.627,0,0,1-.892-1.052c-.078-.107-.2-.2-.339-.1s-.094.235-.022.355a15.162,15.162,0,0,0,1,1.2.147.147,0,0,0,.2.034c.067-.048.154-.088.126-.214C378.492,204.9,378.489,204.8,378.436,204.742Z" transform="translate(-5.017 -0.613)" fill="#8618ef"/>
          <path id="路径_12780" data-name="路径 12780" d="M384.711,221.345c.186,0,.177-.178.171-.317a5.953,5.953,0,0,0-.027-.838.791.791,0,0,1,.047-.523.284.284,0,0,0-.147-.419c-.128-.06-.241.071-.318.2a.425.425,0,0,0-.038.237c-.014.448.165.877.115,1.332C384.5,221.131,384.547,221.341,384.711,221.345Z" transform="translate(-10.193 -11.763)" fill="#8618ef"/>
        </g>
        <g id="组_4316" data-name="组 4316" transform="translate(1328.596 3183.49) rotate(82)">
          <path id="路径_12774-2" data-name="路径 12774" d="M385.226,202.686a.345.345,0,0,0-.257.151,4.331,4.331,0,0,0-.38.527c-.07.131-.142.267-.2.406.046.087.006.207.145.234a.192.192,0,0,0,.232-.1c.055-.106.115-.21.167-.315a2.143,2.143,0,0,1,.4-.693.121.121,0,0,0,.019-.16C385.33,202.687,385.285,202.681,385.226,202.686Z" transform="translate(-11.487)" fill="#8618ef"/>
          <path id="路径_12775-2" data-name="路径 12775" d="M371.766,211.693c.09-.008.159.006.16-.094s-.055-.132-.159-.151a4.07,4.07,0,0,0-1.066,0c-.121.04-.356-.008-.548.137-.054.041-.107.08-.092.157s.081.039.125.054a.821.821,0,0,0,.509-.038A5.39,5.39,0,0,1,371.766,211.693Z" transform="translate(0 -6.996)" fill="#8618ef"/>
          <path id="路径_12776-2" data-name="路径 12776" d="M376.11,215.478a3.093,3.093,0,0,0-.692.534c-.077.1-.221.169-.207.3,0,.1.019.172.093.207s.112-.037.159-.074c.091-.072.137-.183.234-.254.2-.149.393-.32.6-.466.114-.081.041-.152,0-.213A.13.13,0,0,0,376.11,215.478Z" transform="translate(-4.129 -10.233)" fill="#8618ef"/>
          <path id="路径_12777-2" data-name="路径 12777" d="M388.072,210.4a.149.149,0,0,0-.063.226c.052.085.151.118.214.049a.591.591,0,0,1,.308-.137,2.389,2.389,0,0,1,.418-.138c.113-.016.218-.107.346-.091.084.01.118-.032.143-.112-.041-.052-.054-.121-.158-.127a2.473,2.473,0,0,0-.6.115A3.98,3.98,0,0,0,388.072,210.4Z" transform="translate(-14.365 -5.918)" fill="#8618ef"/>
          <path id="路径_12778-2" data-name="路径 12778" d="M390.459,217.592a1.966,1.966,0,0,1-.72-.22.223.223,0,0,0-.249-.005c-.04.025-.078.058-.063.111.029.1.118.131.2.162a.128.128,0,0,0,.057.011.451.451,0,0,1,.283.1,1.278,1.278,0,0,0,.589.227c.077,0,.158.007.2-.085s-.014-.126-.066-.183A.335.335,0,0,0,390.459,217.592Z" transform="translate(-15.522 -11.74)" fill="#8618ef"/>
          <path id="路径_12779-2" data-name="路径 12779" d="M378.023,204.367a5.922,5.922,0,0,1-.612-.722c-.053-.073-.137-.139-.233-.069s-.065.162-.015.244a10.4,10.4,0,0,0,.686.824.1.1,0,0,0,.14.023c.046-.033.106-.061.087-.147C378.061,204.475,378.059,204.4,378.023,204.367Z" transform="translate(-5.658 -0.691)" fill="#8618ef"/>
          <path id="路径_12780-2" data-name="路径 12780" d="M384.613,220.682c.128,0,.122-.122.117-.218a4.09,4.09,0,0,0-.018-.575.543.543,0,0,1,.032-.359.2.2,0,0,0-.1-.288c-.088-.041-.165.049-.219.139a.292.292,0,0,0-.026.163c-.009.308.113.6.079.914C384.469,220.535,384.5,220.68,384.613,220.682Z" transform="translate(-11.493 -13.264)" fill="#8618ef"/>
        </g>
        <g id="组_4317" data-name="组 4317" transform="matrix(0.485, 0.875, -0.875, 0.485, 1043.042, 3320.012)">
          <path id="路径_12781" data-name="路径 12781" d="M273.187,99.448h0a.393.393,0,0,0,.392-.392V96.392a.393.393,0,0,0-.392-.392h0a.393.393,0,0,0-.392.392v2.664A.393.393,0,0,0,273.187,99.448Z" transform="translate(-4.463)" fill="#a151f2"/>
          <path id="路径_12782" data-name="路径 12782" d="M267,102.188h0a.393.393,0,0,0,.392.392h2.664a.393.393,0,0,0,.392-.392h0a.393.393,0,0,0-.392-.392h-2.664A.393.393,0,0,0,267,102.188Z" transform="translate(0 -4.464)" fill="#a151f2"/>
        </g>
        <g id="组_4327" data-name="组 4327" transform="matrix(0.485, 0.875, -0.875, 0.485, 1212.042, 3309.012)">
          <path id="路径_12781-2" data-name="路径 12781" d="M273.187,99.448h0a.393.393,0,0,0,.392-.392V96.392a.393.393,0,0,0-.392-.392h0a.393.393,0,0,0-.392.392v2.664A.393.393,0,0,0,273.187,99.448Z" transform="translate(-4.463)" fill="#a151f2"/>
          <path id="路径_12782-2" data-name="路径 12782" d="M267,102.188h0a.393.393,0,0,0,.392.392h2.664a.393.393,0,0,0,.392-.392h0a.393.393,0,0,0-.392-.392h-2.664A.393.393,0,0,0,267,102.188Z" transform="translate(0 -4.464)" fill="#a151f2"/>
        </g>
        <g id="组_4318" data-name="组 4318" transform="matrix(0.999, -0.035, 0.035, 0.999, 1017.818, 3546.633)">
          <path id="路径_12781-3" data-name="路径 12781" d="M273.118,98.844h0a.324.324,0,0,0,.323-.323v-2.2a.324.324,0,0,0-.323-.323h0a.324.324,0,0,0-.323.323v2.2A.324.324,0,0,0,273.118,98.844Z" transform="translate(-4.696)" fill="#a151f2"/>
          <path id="路径_12782-3" data-name="路径 12782" d="M267,102.119h0a.324.324,0,0,0,.323.323h2.2a.324.324,0,0,0,.323-.323h0a.324.324,0,0,0-.323-.323h-2.2A.324.324,0,0,0,267,102.119Z" transform="translate(0 -4.697)" fill="#a151f2"/>
        </g>
        <g id="椭圆_262" data-name="椭圆 262" transform="translate(1187 3636)" fill="none" stroke="#c19dd8" stroke-width="1">
          <circle cx="2" cy="2" r="2" stroke="none"/>
          <circle cx="2" cy="2" r="1.5" fill="none"/>
        </g>
      </g>
      <g id="小转盘" transform="translate(626.373 3073.541)">
        <path id="路径_12798" data-name="路径 12798" d="M723.37,518.321a.847.847,0,0,0-.986,1.378,25.525,25.525,0,0,1,8.32,10.033.847.847,0,0,0,.769.491.829.829,0,0,0,.356-.079.847.847,0,0,0,.413-1.124,27.247,27.247,0,0,0-8.872-10.7Z" transform="translate(-314.74 -12.664)" fill="#a85af8"/>
        <path id="路径_12799" data-name="路径 12799" d="M759.787,508.8a.847.847,0,0,0,1.3-1.082l-.027-.031a30.574,30.574,0,0,0-3.579-3.484.847.847,0,0,0-1.1,1.283l.027.022A29.141,29.141,0,0,1,759.787,508.8Z" transform="translate(-345.19 0)" fill="#a859f7"/>
        <path id="路径_12800" data-name="路径 12800" d="M809.423,560.522a.847.847,0,0,0-1.388.97l.224.326a.847.847,0,0,0,1.4-.948h0Z" transform="translate(-391.51 -50.222)" fill="#a445fe"/>
        <path id="路径_12801" data-name="路径 12801" d="M493.631,928.1h21.592l3.6,8.775H490.032Z" transform="translate(-111.532 -380.544)" fill="url(#linear-gradient-2)"/>
        <g transform="matrix(1, 0, 0, 1, 352.03, 492.86)" filter="url(#路径_12818)">
          <path id="路径_12818-2" data-name="路径 12818" d="M22.863,0A22.863,22.863,0,1,1,0,22.863,22.863,22.863,0,0,1,22.863,0Z" transform="translate(18 12)" fill="url(#linear-gradient-3)"/>
        </g>
        <path id="路径_12802" data-name="路径 12802" d="M436.322,546.785a22.858,22.858,0,0,1-31.61,31.61,22.863,22.863,0,1,0,31.61-31.61Z" transform="translate(-31.009 -38.256)" fill="#7f44f5"/>
        <circle id="椭圆_264" data-name="椭圆 264" cx="19.476" cy="19.476" r="19.476" transform="translate(373.419 508.245)" fill="#ffd33f"/>
        <path id="路径_12803" data-name="路径 12803" d="M530.492,545.585a19.509,19.509,0,0,0-14.908,0l7.457,18Z" transform="translate(-130.146 -35.86)" fill="#ffc888"/>
        <path id="路径_12804" data-name="路径 12804" d="M426.56,558.089a19.542,19.542,0,0,0-10.544,10.544l18,7.452Z" transform="translate(-41.117 -48.364)" fill="#feda9b"/>
        <path id="路径_12805" data-name="路径 12805" d="M403.512,657.705a19.508,19.508,0,0,0,0,14.907l18-7.456Z" transform="translate(-28.613 -137.436)" fill="#ffc888"/>
        <path id="路径_12806" data-name="路径 12806" d="M604.028,657.662l-18,7.452,18,7.452a19.51,19.51,0,0,0,0-14.908Z" transform="translate(-193.137 -137.393)" fill="#ffc888"/>
        <path id="路径_12807" data-name="路径 12807" d="M711.068,657.662l-1.907.788a22.744,22.744,0,0,1-3.418,11.913l5.324,2.2a19.509,19.509,0,0,0,0-14.908Z" transform="translate(-300.178 -137.393)" fill="#f6ba74"/>
        <path id="路径_12808" data-name="路径 12808" d="M604.028,568.633a19.542,19.542,0,0,0-10.544-10.544l-7.452,18Z" transform="translate(-193.137 -48.364)" fill="#feda9b"/>
        <path id="路径_12809" data-name="路径 12809" d="M735.44,622.032a19.425,19.425,0,0,0-2.44-4.223,22.932,22.932,0,0,1,.533,4.9v.111Z" transform="translate(-324.549 -101.763)" fill="#f5cb83"/>
        <path id="路径_12810" data-name="路径 12810" d="M515.632,746.1a19.509,19.509,0,0,0,14.908,0l-7.457-18Z" transform="translate(-130.189 -200.384)" fill="#ffc888"/>
        <path id="路径_12811" data-name="路径 12811" d="M516.42,851.235l-.788,1.907a19.509,19.509,0,0,0,14.908,0l-2.2-5.324a22.745,22.745,0,0,1-11.918,3.418Z" transform="translate(-130.189 -307.425)" fill="#f6ba74"/>
        <path id="路径_12812" data-name="路径 12812" d="M593.484,746.1a19.541,19.541,0,0,0,10.544-10.544l-18-7.452Z" transform="translate(-193.137 -200.384)" fill="#feda9b"/>
        <path id="路径_12813" data-name="路径 12813" d="M643.053,777.705a22.955,22.955,0,0,1-7.421,7.421l2.2,5.325a19.542,19.542,0,0,0,10.544-10.544Z" transform="translate(-237.487 -244.734)" fill="#f5cb83"/>
        <path id="路径_12814" data-name="路径 12814" d="M416.016,735.557A19.541,19.541,0,0,0,426.56,746.1l7.452-18Z" transform="translate(-41.117 -200.384)" fill="#feda9b"/>
        <path id="路径_12815" data-name="路径 12815" d="M480.615,875.606a22.928,22.928,0,0,1-4.9-.533,19.417,19.417,0,0,0,4.225,2.44l.788-1.907Z" transform="translate(-94.494 -331.796)" fill="#f5cb83"/>
        <path id="路径_12816" data-name="路径 12816" d="M570.252,680.182l-7.244-10.33,1.945,12.075Z" transform="translate(-174.698 -153.321)" fill="#7e4af4"/>
        <g transform="matrix(1, 0, 0, 1, 352.03, 492.86)" filter="url(#路径_12817)">
          <g id="路径_12817-2" data-name="路径 12817" transform="translate(35.62 29.52)" fill="url(#linear-gradient-4)">
            <path d="M 5.248434066772461 9.997035026550293 C 2.630144119262695 9.997035026550293 0.5000040531158447 7.866855144500732 0.5000040531158447 5.248515129089355 C 0.5000040531158447 2.630175113677979 2.630144119262695 0.5000051259994507 5.248434066772461 0.5000051259994507 C 7.866724014282227 0.5000051259994507 9.996864318847656 2.630175113677979 9.996864318847656 5.248515129089355 C 9.996864318847656 7.866855144500732 7.866724014282227 9.997035026550293 5.248434066772461 9.997035026550293 Z" stroke="none"/>
            <path d="M 5.248434066772461 0.999995231628418 C 2.905844211578369 0.999995231628418 1.000003814697266 2.905875205993652 1.000003814697266 5.248515129089355 C 1.000003814697266 7.591155052185059 2.905844211578369 9.497025489807129 5.248434066772461 9.497025489807129 C 7.591024398803711 9.497025489807129 9.496864318847656 7.591155052185059 9.496864318847656 5.248515129089355 C 9.496864318847656 2.905875205993652 7.591024398803711 0.999995231628418 5.248434066772461 0.999995231628418 M 5.248434066772461 -4.76837158203125e-06 C 8.147064208984375 -4.76837158203125e-06 10.49686431884766 2.349835395812988 10.49686431884766 5.248515129089355 C 10.49686431884766 8.147185325622559 8.147064208984375 10.49702548980713 5.248434066772461 10.49702548980713 C 2.349803924560547 10.49702548980713 3.814697265625e-06 8.147185325622559 3.814697265625e-06 5.248515129089355 C 3.814697265625e-06 2.349835395812988 2.349803924560547 -4.76837158203125e-06 5.248434066772461 -4.76837158203125e-06 Z" stroke="none" fill="#fff"/>
          </g>
        </g>
        <g id="组_4322" data-name="组 4322" transform="translate(371.489 506.128)">
          <ellipse id="椭圆_222" data-name="椭圆 222" cx="0.603" cy="0.603" rx="0.603" ry="0.603" transform="translate(20.973 0)" fill="url(#radial-gradient)"/>
          <ellipse id="椭圆_223" data-name="椭圆 223" cx="0.583" cy="0.583" rx="0.583" ry="0.583" transform="translate(10.476 2.83)" fill="url(#radial-gradient)"/>
          <ellipse id="椭圆_224" data-name="椭圆 224" cx="0.583" cy="0.583" rx="0.583" ry="0.583" transform="translate(2.796 10.51)" fill="url(#radial-gradient)"/>
          <ellipse id="椭圆_225" data-name="椭圆 225" cx="0.557" cy="0.603" rx="0.557" ry="0.603" transform="translate(0 20.973)" fill="url(#radial-gradient)"/>
          <ellipse id="椭圆_226" data-name="椭圆 226" cx="0.583" cy="0.583" rx="0.583" ry="0.583" transform="translate(2.796 31.491)" fill="url(#radial-gradient)"/>
          <ellipse id="椭圆_227" data-name="椭圆 227" cx="0.583" cy="0.583" rx="0.583" ry="0.583" transform="translate(10.476 39.171)" fill="url(#radial-gradient)"/>
          <ellipse id="椭圆_228" data-name="椭圆 228" cx="0.603" cy="0.557" rx="0.603" ry="0.557" transform="translate(20.973 41.946)" fill="url(#radial-gradient)"/>
          <ellipse id="椭圆_229" data-name="椭圆 229" cx="0.583" cy="0.583" rx="0.583" ry="0.583" transform="translate(31.457 39.171)" fill="url(#radial-gradient)"/>
          <ellipse id="椭圆_230" data-name="椭圆 230" cx="0.583" cy="0.583" rx="0.583" ry="0.583" transform="translate(39.137 31.491)" fill="url(#radial-gradient)"/>
          <ellipse id="椭圆_231" data-name="椭圆 231" cx="0.557" cy="0.603" rx="0.557" ry="0.603" transform="translate(41.946 20.973)" fill="url(#radial-gradient)"/>
          <ellipse id="椭圆_232" data-name="椭圆 232" cx="0.583" cy="0.583" rx="0.583" ry="0.583" transform="translate(39.137 10.51)" fill="url(#radial-gradient)"/>
          <ellipse id="椭圆_233" data-name="椭圆 233" cx="0.583" cy="0.583" rx="0.583" ry="0.583" transform="translate(31.457 2.83)" fill="url(#radial-gradient)"/>
          <ellipse id="椭圆_234" data-name="椭圆 234" cx="0.603" cy="0.603" rx="0.603" ry="0.603" transform="translate(20.973 0)" fill="url(#radial-gradient)"/>
        </g>
        <g transform="matrix(1, 0, 0, 1, 352.03, 492.86)" filter="url(#联合_19)">
          <path id="联合_19-2" data-name="联合 19" d="M2.888,3.316a.744.744,0,0,1-.309-.209.828.828,0,0,1-.171-.347,1.986,1.986,0,0,1-.052-.48V.965A.946.946,0,0,1,2.614.248,1.036,1.036,0,0,1,3.358,0,1.013,1.013,0,0,1,4.1.248a.96.96,0,0,1,.253.717V2.279a2.068,2.068,0,0,1-.05.48.823.823,0,0,1-.167.347.729.729,0,0,1-.305.209,1.336,1.336,0,0,1-.468.071A1.353,1.353,0,0,1,2.888,3.316ZM3.214.623a.261.261,0,0,0-.079.1A.475.475,0,0,0,3.1.866a1.4,1.4,0,0,0-.008.151V2.344a1.477,1.477,0,0,0,.008.151.562.562,0,0,0,.036.151.278.278,0,0,0,.082.114.215.215,0,0,0,.142.045A.207.207,0,0,0,3.5,2.76a.27.27,0,0,0,.077-.114.565.565,0,0,0,.031-.151q.006-.082.006-.151V1.017q0-.073-.006-.151a.478.478,0,0,0-.031-.14A.246.246,0,0,0,3.5.623.229.229,0,0,0,3.354.582.221.221,0,0,0,3.214.623ZM.433,3.309A.651.651,0,0,1,.18,3.092a.927.927,0,0,1-.138-.327A1.867,1.867,0,0,1,0,2.357V1.03A1.091,1.091,0,0,1,.24.25.994.994,0,0,1,.987,0a1.117,1.117,0,0,1,.736.22.882.882,0,0,1,.263.715v.241H1.25V1a.874.874,0,0,0-.042-.31A.186.186,0,0,0,1.02.582.241.241,0,0,0,.792.668a.471.471,0,0,0-.056.25v1.6A.325.325,0,0,0,.8,2.73a.258.258,0,0,0,.209.075.26.26,0,0,0,.144-.034.206.206,0,0,0,.077-.093.424.424,0,0,0,.031-.134q.006-.075.006-.153V2.137H1V1.556H2V3.314H1.5l-.033-.289H1.46a.682.682,0,0,1-.255.284.8.8,0,0,1-.381.078A.878.878,0,0,1,.433,3.309Zm4.427,0V2.572h.707v.737Zm.163-1.038L4.843.892V.078h.736V.892L5.4,2.271Z" transform="translate(37.9 32.78)" fill="#fff"/>
        </g>
      </g>
    </g>
    <g id="gift_box" data-name="gift box" transform="translate(-1167.63 -134.658)">
      <rect id="矩形_865" data-name="矩形 865" width="17.384" height="15.645" transform="translate(1177.966 171.356)" fill="#a94eff"/>
      <rect id="矩形_866" data-name="矩形 866" width="1.738" height="17.384" transform="translate(1195.349 178.617) rotate(90)" fill="#8618ef"/>
      <path id="路径_12786" data-name="路径 12786" d="M1835.866,699.752s3.075-2,5.166-1.356l-.431.4.194.677a7.664,7.664,0,0,0-4.993.391Z" transform="translate(-648.578 -528.236)" fill="#bd77ff"/>
      <path id="路径_12787" data-name="路径 12787" d="M1261.076,306.154s-.543-.066-1.352-.177c-2.148-.3-6.17-.913-6.891-1.485-1.135-.9,1.554-4.714,2.717-5.243S1261.076,306.154,1261.076,306.154Z" transform="translate(-73.96 -135.092)" fill="#a94eff"/>
      <path id="路径_12788" data-name="路径 12788" d="M1831.658,166.312c.194.945-8.59,5.028-8.59,5.028s.16-.432.42-1.109h0c.949-2.471,3.237-8.206,3.989-8.127a.907.907,0,0,1,.262.078C1828.9,162.69,1831.479,165.441,1831.658,166.312Z" transform="translate(-636.032)" fill="#9227f8"/>
      <path id="路径_12789" data-name="路径 12789" d="M1855.682,163.022c-.536.932-4.121,7.112-4.177,7.208.949-2.471,3.237-8.206,3.989-8.127a.477.477,0,0,1,.262.078C1855.894,162.282,1855.979,162.508,1855.682,163.022Z" transform="translate(-664.048)" fill="#a94eff"/>
      <path id="路径_12790" data-name="路径 12790" d="M1273.122,586.54h0c-2.147-.3-6.169-.913-6.891-1.485-.326-.918.52-.993,1.135-1.058S1273.122,586.54,1273.122,586.54Z" transform="translate(-87.357 -415.654)" fill="#9227f8"/>
      <path id="路径_12791" data-name="路径 12791" d="M1717.69,708.843s.492-1.12,1.461-1.182c1.013-.065,1.587,1.182,1.587,1.182Z" transform="translate(-532.212 -537.488)" fill="#a94eff"/>
      <rect id="矩形_868" data-name="矩形 868" width="17.384" height="2.608" transform="translate(1177.966 171.356)" fill="#9227f8"/>
      <path id="路径_12792" data-name="路径 12792" d="M1303.988,743.023a9.643,9.643,0,0,0-4.673-.3c-2.17.673-2.042,3.351-2.042,3.351l.51-.21.689.323s.116-2.836,1.886-3.233A10.744,10.744,0,0,1,1303.988,743.023Z" transform="translate(-118.011 -571.838)" fill="#bd77ff"/>
      <rect id="矩形_870" data-name="矩形 870" width="1.039" height="15.645" transform="translate(1186.983 171.356)" fill="#8618ef"/>
    </g>
  </g>
</svg>
