<svg xmlns="http://www.w3.org/2000/svg" width="1010.85" height="213.235" viewBox="0 0 1010.85 213.235"><g transform="translate(146.822 -1901.144)"><path d="M1.684,0H863.936l-24.18,69H25.639Z" transform="translate(-33.533 1950)" fill="#6b2acf"/><path d="M607.8,2007.875h44.223L636.6,2030.5l3.6,25.711H595.977Z" transform="translate(212 -43)" fill="#6b2acf"/><path d="M623,2007.875H569.75l11.385,21.953-14.984,23.785H624.8Z" transform="translate(-628 -40)" fill="#6b2acf"/><g transform="translate(-29.193 -9.613)"><path d="M7.423,11.02c-1.4,1.8-4.512,2.255-4.885,4.85-.006-.041-.016-.076-.021-.119v.328c0,.036-.009.07-.01.106a14.813,14.813,0,0,0,.01,2.53c.232,1.878,1.7,2.3,3.247,2.208L3.676,24.436c-.439.739.428,2.245,0,2.965l4.05-6.81a4.814,4.814,0,0,0,0-1.449V17.626l-.04.068c.01-.036.022-.063.04-.068-1.46.381-3.511.668-4.557-.369,1-1.249,2.845-1.767,3.985-2.955a3.188,3.188,0,0,0,.891-1.924c.007.041.016.078.021.121v-.318c.047-.548.017-1.124.013-1.736,0-.13-.006-.255-.013-.377V9.534c-.01.06-.023.117-.035.176A2.718,2.718,0,0,0,5.587,7.2c-1.7-.381-4.071-.068-5.058-1.452.82-1.477,2.457-2.177,4.143-2.788.335-.122-.3-2.857,0-2.965C2.619.744.35,1.7.062,4.152a17.711,17.711,0,0,0,0,2.885c0,.013,0,.025,0,.038v.01C.322,11.155,5.541,9.061,7.423,11.02Z" transform="matrix(0.799, 0.602, -0.602, 0.799, 675.854, 1910.757)" fill="#fff"/><path d="M9.844,14.613C7.983,17,3.859,17.6,3.365,21.045c-.008-.054-.021-.1-.027-.158v.435c0,.048-.012.092-.014.141a19.636,19.636,0,0,0,.014,3.355c.308,2.491,2.257,3.05,4.306,2.928L4.874,32.4c-.583.981.568,2.977,0,3.931l5.37-9.031a6.377,6.377,0,0,0,0-1.921v-2.01l-.053.09c.013-.048.029-.084.053-.09-1.936.5-4.656.885-6.043-.489,1.327-1.656,3.773-2.344,5.284-3.919a4.228,4.228,0,0,0,1.181-2.552c.009.054.021.1.028.16v-.421c.062-.727.022-1.49.017-2.3,0-.172-.008-.338-.017-.5v-.708c-.013.08-.03.156-.047.233-.229-1.76-1.125-2.85-3.239-3.323C5.153,9.048,2.01,9.463.7,7.628,1.789,5.67,3.96,4.742,6.2,3.931,6.641,3.77,5.8.142,6.2,0,3.473.986.464,2.251.082,5.505a23.5,23.5,0,0,0,0,3.826c0,.017,0,.033.006.051V9.4C.427,14.792,7.348,12.016,9.844,14.613Z" transform="matrix(-0.407, 0.914, -0.914, -0.407, 805.398, 2033.693)" fill="#fff"/><path d="M7.644,11.349C6.2,13.206,3,13.671,2.613,16.343c-.006-.042-.017-.079-.021-.122v.338c0,.037-.009.072-.011.11a15.243,15.243,0,0,0,.011,2.606c.239,1.934,1.753,2.369,3.344,2.274L3.785,25.166c-.453.762.441,2.312,0,3.053l4.17-7.014a4.953,4.953,0,0,0,0-1.492V18.152l-.041.07c.01-.037.023-.065.041-.07-1.5.392-3.616.688-4.693-.38,1.03-1.286,2.93-1.82,4.1-3.043a3.284,3.284,0,0,0,.917-1.982c.007.042.017.081.022.125v-.327c.048-.564.017-1.157.013-1.788,0-.134-.006-.262-.013-.388v-.55c-.01.062-.024.121-.036.181A2.8,2.8,0,0,0,5.754,7.419C4,7.026,1.561,7.349.545,5.924,1.389,4.4,3.075,3.682,4.812,3.053,5.157,2.928,4.507.11,4.812,0,2.7.766.361,1.748.064,4.275a18.24,18.24,0,0,0,0,2.971c0,.014,0,.026,0,.039V7.3C.332,11.488,5.707,9.331,7.644,11.349Z" transform="matrix(-0.574, 0.819, -0.819, -0.574, 647.894, 2117.166)" fill="#fff"/><path d="M5.079,7.54c-.96,1.234-3.088,1.543-3.343,3.318,0-.028-.011-.052-.014-.081V11c0,.025-.006.048-.007.073a10.133,10.133,0,0,0,.007,1.731c.159,1.285,1.165,1.574,2.222,1.511l-1.429,2.4c-.3.506.293,1.536,0,2.028l2.771-4.66a3.288,3.288,0,0,0,0-.991V12.06l-.028.046c.007-.025.015-.043.028-.046-1,.261-2.4.457-3.118-.252.685-.854,1.947-1.209,2.727-2.022A2.182,2.182,0,0,0,5.5,8.469c0,.028.011.054.015.083V8.335c.032-.375.012-.769.009-1.188,0-.089,0-.174-.009-.258V6.524c-.007.041-.016.08-.024.12A1.86,1.86,0,0,0,3.823,4.929C2.659,4.668,1.037,4.883.362,3.936A4.881,4.881,0,0,1,3.2,2.028c.229-.083-.2-1.955,0-2.028C1.792.509.239,1.162.042,2.841a12.122,12.122,0,0,0,0,1.974c0,.009,0,.017,0,.026v.007C.22,7.632,3.791,6.2,5.079,7.54Z" transform="translate(427.307 1911.831)" fill="#fff"/><path d="M5.29,7.853c-1,1.285-3.216,1.607-3.481,3.456,0-.029-.011-.054-.015-.085v.234c0,.026-.006.05-.007.076a10.563,10.563,0,0,0,.007,1.8c.165,1.338,1.213,1.639,2.314,1.574l-1.489,2.5c-.313.527.305,1.6,0,2.113l2.886-4.853a3.42,3.42,0,0,0,0-1.033v-1.08l-.029.048c.007-.026.016-.045.029-.048-1.04.271-2.5.476-3.248-.263.713-.89,2.027-1.259,2.84-2.106a2.272,2.272,0,0,0,.635-1.371c0,.029.011.056.015.086V8.681c.033-.391.012-.8.009-1.237,0-.093,0-.181-.009-.269V6.795c-.007.043-.016.084-.025.125A1.937,1.937,0,0,0,3.982,5.134C2.769,4.862,1.08,5.086.377,4.1A5.084,5.084,0,0,1,3.33,2.113C3.569,2.026,3.119.076,3.33,0,1.866.53.25,1.21.044,2.959a12.614,12.614,0,0,0,0,2.056c0,.009,0,.018,0,.027v.007C.23,7.95,3.949,6.457,5.29,7.853Z" transform="matrix(0.978, -0.208, 0.208, 0.978, 299.857, 1922.477)" fill="#fff"/><path d="M5.29,7.853c-1,1.285-3.216,1.607-3.481,3.456,0-.029-.011-.054-.015-.085v.234c0,.026-.006.05-.007.076a10.563,10.563,0,0,0,.007,1.8c.165,1.338,1.213,1.639,2.314,1.574l-1.489,2.5c-.313.527.305,1.6,0,2.113l2.886-4.853a3.42,3.42,0,0,0,0-1.033v-1.08l-.029.048c.007-.026.016-.045.029-.048-1.04.271-2.5.476-3.248-.263.713-.89,2.027-1.259,2.84-2.106a2.272,2.272,0,0,0,.635-1.371c0,.029.011.056.015.086V8.681c.033-.391.012-.8.009-1.237,0-.093,0-.181-.009-.269V6.795c-.007.043-.016.084-.025.125A1.937,1.937,0,0,0,3.982,5.134C2.769,4.862,1.08,5.086.377,4.1A5.084,5.084,0,0,1,3.33,2.113C3.569,2.026,3.119.076,3.33,0,1.866.53.25,1.21.044,2.959a12.614,12.614,0,0,0,0,2.056c0,.009,0,.018,0,.027v.007C.23,7.95,3.949,6.457,5.29,7.853Z" transform="translate(-12.132 1938.002) rotate(-45)" fill="#fff"/><path d="M4.543,6.744c-.859,1.1-2.762,1.38-2.99,2.968,0-.025-.01-.047-.013-.073v.2c0,.022-.005.043-.006.065a9.065,9.065,0,0,0,.006,1.549c.142,1.149,1.042,1.408,1.987,1.351L2.25,14.955c-.269.453.262,1.374,0,1.814L4.728,12.6a2.937,2.937,0,0,0,0-.887v-.928l-.025.041c.006-.022.013-.039.025-.041-.893.233-2.149.409-2.789-.226C2.551,9.8,3.68,9.48,4.378,8.753a1.951,1.951,0,0,0,.545-1.178c0,.025.01.048.013.074V7.455c.029-.335.01-.688.008-1.062,0-.079,0-.156-.008-.231V5.835c-.006.037-.014.072-.022.108A1.664,1.664,0,0,0,3.42,4.409C2.378,4.176.928,4.367.324,3.521A4.366,4.366,0,0,1,2.86,1.814C3.065,1.74,2.678.066,2.86,0,1.6.455.214,1.039.038,2.541a10.83,10.83,0,0,0,0,1.766c0,.008,0,.015,0,.023v.006C.2,6.827,3.391,5.545,4.543,6.744Z" transform="matrix(-0.629, -0.777, 0.777, -0.629, -49.005, 2051.738)" fill="#fff"/><path d="M6.2,9.2C5.025,10.7,2.429,11.081,2.118,13.247c0-.034-.014-.064-.017-.1v.274c0,.03-.007.058-.009.089A12.357,12.357,0,0,0,2.1,15.623c.194,1.568,1.421,1.92,2.711,1.843L3.068,20.4c-.367.617.358,1.874,0,2.475l3.38-5.685a4.013,4.013,0,0,0,0-1.21V14.714l-.034.056c.008-.03.018-.053.034-.056-1.219.318-2.931.557-3.8-.308.835-1.042,2.375-1.475,3.327-2.467a2.661,2.661,0,0,0,.743-1.606c.006.034.013.066.018.1v-.265c.039-.457.014-.938.011-1.449,0-.108,0-.213-.011-.315V7.959c-.008.05-.019.1-.03.147A2.269,2.269,0,0,0,4.664,6.014C3.244,5.7,1.265,5.957.442,4.8A5.955,5.955,0,0,1,3.9,2.475c.28-.1-.247-2.385,0-2.475C2.186.621.292,1.417.052,3.466a14.786,14.786,0,0,0,0,2.409c0,.011,0,.021,0,.032v.009C.269,9.312,4.625,7.564,6.2,9.2Z" transform="matrix(-0.629, -0.777, 0.777, -0.629, 90.282, 2103.086)" fill="#fff"/><path d="M-17211.465-20112.414l-10.67,12.8,4.268,8.533Z" transform="translate(17612.592 22036.211)" fill="#fb0844"/><path d="M-17215.164-20105.551l-7.842,6.352,5.283,6.959Z" transform="translate(17624.479 22210.922)" fill="#fb0844"/><path d="M7.162,0,0,5.922l4.268,8.534Z" transform="translate(156.712 1926.897) rotate(-34)" fill="#fb0844"/><path d="M6.243,0H0L6.243,12.624Z" transform="matrix(0.602, 0.799, -0.799, 0.602, 734.046, 1924.927)" fill="#fb0844"/><path d="M-17254.225-20110.363l12.8-7.469Z" transform="translate(17466.354 22051.984)" fill="#05fdf6"/><path d="M-17254.959-20125.16v13.867l12.8-7.465Z" transform="translate(17137.33 22096.516)" fill="#fc5e96"/><path d="M-17253.041-20122.016l3.125,10.238,7.434-7.51Z" transform="translate(18107.195 22226.227)" fill="#fc5e96"/><path d="M0,0,4.984,11.817,12.8,6.4Z" transform="translate(140.122 2109.646) rotate(-68)" fill="#6e7afc"/><path d="M0,0,4.984,11.817,12.8,6.4Z" transform="translate(687.628 2104.815) rotate(-68)" fill="#6e7afc"/></g></g></svg>