<svg xmlns="http://www.w3.org/2000/svg" xmlns:xlink="http://www.w3.org/1999/xlink" width="112.594" height="113.098" viewBox="0 0 112.594 113.098"><defs><radialGradient id="a" cx="0.5" cy="0.5" r="8.246" gradientTransform="matrix(0.061, 0.025, 0, 0.055, 0.472, 33.197)" gradientUnits="objectBoundingBox"><stop offset="0" stop-color="#391b00" stop-opacity="0.8"/><stop offset="1" stop-color="#fff" stop-opacity="0"/></radialGradient><radialGradient id="b" cx="0.678" cy="0.274" r="0.779" gradientUnits="objectBoundingBox"><stop offset="0.005" stop-color="#ffffa6"/><stop offset="0.079" stop-color="#fffb97"/><stop offset="0.175" stop-color="#fff98a"/><stop offset="0.267" stop-color="#fdf382"/><stop offset="0.407" stop-color="#fae26c"/><stop offset="0.58" stop-color="#f5c849"/><stop offset="0.776" stop-color="#eda419"/><stop offset="0.84" stop-color="#eb9708"/><stop offset="0.929" stop-color="#f18d08"/><stop offset="1" stop-color="#fa8308"/></radialGradient><clipPath id="c"><ellipse cx="12.825" cy="12.825" rx="12.825" ry="12.825" fill="none"/></clipPath><linearGradient id="d" x1="0.5" y1="0.034" x2="0.5" y2="0.525" gradientUnits="objectBoundingBox"><stop offset="0" stop-color="#fff" stop-opacity="0.8"/><stop offset="0.292" stop-color="#fff" stop-opacity="0.58"/><stop offset="0.962" stop-color="#fff" stop-opacity="0.031"/><stop offset="1" stop-color="#fff" stop-opacity="0"/></linearGradient><radialGradient id="e" cx="0.48" cy="0.932" fx="0.372343510389328" r="1.015" gradientTransform="translate(0.081) scale(0.838 1)" gradientUnits="objectBoundingBox"><stop offset="0.005" stop-color="#ff201f"/><stop offset="0.221" stop-color="#fb1f1e"/><stop offset="0.41" stop-color="#f01d1c"/><stop offset="0.589" stop-color="#de1b19"/><stop offset="0.762" stop-color="#c51715"/><stop offset="0.929" stop-color="#a5130f"/><stop offset="1" stop-color="#95110d"/></radialGradient><filter id="f" x="53.832" y="48.552" width="20.567" height="19.179" filterUnits="userSpaceOnUse"><feOffset dx="1" dy="1" input="SourceAlpha"/><feGaussianBlur stdDeviation="2" result="g"/><feFlood flood-color="#99530d" flood-opacity="0.749"/><feComposite operator="in" in2="g"/><feComposite in="SourceGraphic"/></filter><clipPath id="h"><path d="M.375.036A.374.374,0,0,0,.028.55,6.935,6.935,0,0,0,6.609,5.025,7.048,7.048,0,0,0,13.243.516.374.374,0,0,0,12.9,0Z" fill="none"/></clipPath><radialGradient id="i" cx="0.5" cy="0.5" r="4.258" gradientTransform="translate(0.444) scale(0.112 1)" gradientUnits="objectBoundingBox"><stop offset="0.005" stop-color="#fff"/><stop offset="0.318" stop-color="#fbfbfb"/><stop offset="0.593" stop-color="#f0f1f1"/><stop offset="0.852" stop-color="#dee0e1"/><stop offset="1" stop-color="#d1d3d4"/></radialGradient><radialGradient id="j" cx="0.5" cy="0.5" r="1.12" gradientTransform="translate(0.209 -1.335) scale(0.583 0.606)" gradientUnits="objectBoundingBox"><stop offset="0.005" stop-color="#ff5a3d"/><stop offset="0.495" stop-color="#ff6241" stop-opacity="0.349"/><stop offset="0.627" stop-color="#ff8150" stop-opacity="0.275"/><stop offset="0.892" stop-color="#ffd478" stop-opacity="0.086"/><stop offset="1" stop-color="#fff98a" stop-opacity="0"/></radialGradient><radialGradient id="k" cx="0.5" cy="0.5" r="1.12" xlink:href="#j"/></defs><g transform="translate(75.955 76.197) rotate(180)"><ellipse cx="9.335" cy="0.571" rx="9.335" ry="0.571" transform="translate(3.545 28.382)" opacity="0.75" fill="url(#a)"/><g transform="translate(0 0)"><g transform="translate(0 0)"><ellipse cx="12.825" cy="12.825" rx="12.825" ry="12.825" fill="url(#b)"/><path d="M0,11.1A12.674,12.674,0,0,0,7.085,7.416,12.65,12.65,0,0,0,10.594,0,16.429,16.429,0,0,1,0,11.1Z" transform="translate(14.361 14.098)" fill="#fff98a" opacity="0.75"/></g><g transform="translate(0 0)"><g clip-path="url(#c)"><path d="M12.511,6.228A14.643,14.643,0,0,1,24.994,13.15c.017-.265.029-.531.029-.8A12.432,12.432,0,0,0,12.511,0,12.432,12.432,0,0,0,0,12.35c0,.269.012.535.029.8A14.643,14.643,0,0,1,12.511,6.228Z" transform="translate(0.374 0.335)" fill="url(#d)"/><g transform="translate(2.712 9.102)"><path d="M.375.036A.374.374,0,0,0,.028.55,6.935,6.935,0,0,0,6.609,5.025,7.048,7.048,0,0,0,13.243.516.374.374,0,0,0,12.9,0Z" transform="translate(3.522 5.776)" fill="#6a0000"/><path d="M4.673,2.026A6.12,6.12,0,0,1,0,.057,5.573,5.573,0,0,0,4.675,2.363,5.641,5.641,0,0,0,9.407,0,6.175,6.175,0,0,1,4.673,2.026Z" transform="translate(5.46 9.262)" fill="#bc7a1b" opacity="0.75" style="mix-blend-mode:multiply;isolation:isolate"/><g transform="matrix(-1, 0, 0, -1, 73.24, 67.09)" filter="url(#f)"><path d="M0,.219s.5,7.061,4.469,6.96S8.567,0,8.567,0" transform="translate(67.4 60.73) rotate(180)" fill="url(#e)"/></g><g transform="translate(3.522 5.776)"><g transform="translate(0 0)" clip-path="url(#h)"><path d="M.341.01C.1.01-.066.082.025.148.5.49,2.086,1.352,6.02,1.352S11.573.484,12.063.139C12.157.073,11.989,0,11.746,0Z" transform="translate(0.591 -0.118)" fill="url(#i)"/></g></g><g transform="translate(0 2.254)"><ellipse cx="2.531" cy="1.475" rx="2.531" ry="1.475" transform="translate(15.166)" fill="url(#j)"/><ellipse cx="2.531" cy="1.475" rx="2.531" ry="1.475" fill="url(#k)"/></g><g transform="translate(2.812)"><path d="M.125,2.385A.59.59,0,0,1,.1,2.321a1.549,1.549,0,0,1-.055-.189A1.674,1.674,0,0,1,0,1.828a1.391,1.391,0,0,1,0-.191,1.4,1.4,0,0,1,.023-.215,1.438,1.438,0,0,1,.055-.235A1.484,1.484,0,0,1,.18.939,1.578,1.578,0,0,1,.331.688,1.99,1.99,0,0,1,.542.451a2.392,2.392,0,0,1,.269-.2,2.383,2.383,0,0,1,.31-.142A2.964,2.964,0,0,1,1.449.028L1.776,0h.01l.041,0h0l.017,0,.033,0,.066.006.131.012a.951.951,0,0,1,.167.031c.061.015.121.031.181.048a1.776,1.776,0,0,1,.317.139,2.253,2.253,0,0,1,.274.193A2.341,2.341,0,0,1,3.231.67a1.771,1.771,0,0,1,.154.251,1.7,1.7,0,0,1,.155.485,1.485,1.485,0,0,1,.023.215,1.422,1.422,0,0,1,0,.192,1.682,1.682,0,0,1-.042.3,1.526,1.526,0,0,1-.056.188.607.607,0,0,1-.027.064s-.04-.089-.114-.231c-.037-.07-.079-.155-.133-.245-.026-.046-.053-.093-.085-.14a1.482,1.482,0,0,0-.1-.144A1.325,1.325,0,0,0,2.9,1.471a1.28,1.28,0,0,0-.124-.131,1.581,1.581,0,0,0-.135-.114l-.145-.092c-.056-.018-.1-.048-.157-.066L2.25,1.046a.263.263,0,0,0-.079-.021c-.025,0-.05-.006-.074-.011A.386.386,0,0,0,2.006,1L1.781.987q-.1.007-.2.01c-.063.009-.122.021-.184.029s-.11.036-.169.048-.1.048-.156.07-.1.058-.145.094a1.371,1.371,0,0,0-.135.116,1.2,1.2,0,0,0-.124.132,1.27,1.27,0,0,0-.112.142,1.473,1.473,0,0,0-.1.144c-.033.047-.059.094-.085.14-.054.09-.1.174-.134.244C.166,2.3.125,2.385.125,2.385Z" transform="translate(0)" fill="#6a0000"/><path d="M.125,2.385A.585.585,0,0,1,.1,2.321a1.518,1.518,0,0,1-.055-.189A1.677,1.677,0,0,1,0,1.828a1.4,1.4,0,0,1,0-.191,1.4,1.4,0,0,1,.023-.215,1.44,1.44,0,0,1,.055-.235A1.48,1.48,0,0,1,.18.939,1.575,1.575,0,0,1,.331.688,1.99,1.99,0,0,1,.542.451a2.389,2.389,0,0,1,.269-.2,2.383,2.383,0,0,1,.31-.142A2.964,2.964,0,0,1,1.449.028L1.776,0h.01l.041,0h0l.017,0,.033,0,.066.006.131.012a.95.95,0,0,1,.167.031c.061.015.121.031.181.048a1.778,1.778,0,0,1,.317.139,2.256,2.256,0,0,1,.274.193A2.341,2.341,0,0,1,3.231.67a1.771,1.771,0,0,1,.154.251,1.7,1.7,0,0,1,.155.485,1.476,1.476,0,0,1,.023.215,1.419,1.419,0,0,1,0,.192,1.684,1.684,0,0,1-.042.3,1.5,1.5,0,0,1-.056.188.615.615,0,0,1-.027.064s-.04-.089-.114-.231c-.037-.07-.079-.155-.133-.245-.026-.046-.053-.093-.085-.14a1.478,1.478,0,0,0-.1-.144A1.33,1.33,0,0,0,2.9,1.471a1.282,1.282,0,0,0-.124-.131,1.581,1.581,0,0,0-.135-.114l-.145-.092c-.056-.018-.1-.048-.157-.066L2.25,1.046a.263.263,0,0,0-.079-.021c-.025,0-.05-.006-.074-.011A.385.385,0,0,0,2.006,1L1.781.987q-.1.007-.2.01c-.063.009-.122.021-.184.029s-.11.036-.169.048-.1.048-.156.07-.1.058-.145.094a1.371,1.371,0,0,0-.135.116,1.2,1.2,0,0,0-.124.132,1.268,1.268,0,0,0-.112.142,1.477,1.477,0,0,0-.1.144c-.033.047-.059.094-.085.14-.054.09-.1.174-.134.244C.166,2.3.125,2.385.125,2.385Z" transform="translate(11.13)" fill="#6a0000"/></g></g></g></g></g></g></svg>