<svg xmlns="http://www.w3.org/2000/svg" width="17.041" height="17.041" viewBox="0 0 17.041 17.041"><path d="M8.521,0A8.521,8.521,0,1,1,0,8.521,8.521,8.521,0,0,1,8.521,0Z" transform="translate(0 0)" fill="#fff"/><path d="M625.745,406.83l-6.3,6.476c-.047.049-.057.034-.046-.019a.689.689,0,0,1-.9.069l-4.136-4.24a.8.8,0,0,1,.175-1.065l.4-.417c.334-.346.8-.429,1.033-.185l2.974,3.048a.426.426,0,0,1,.04-.055l5.144-5.279c.237-.243.7-.16,1.033.186l.4.417A.8.8,0,0,1,625.745,406.83Z" transform="translate(-611.498 -400.548)" fill="#7c56ff" fill-rule="evenodd"/></svg>