<svg xmlns="http://www.w3.org/2000/svg" xmlns:xlink="http://www.w3.org/1999/xlink" width="120.685" height="214.056" viewBox="0 0 120.685 214.056">
  <defs>
    <filter id="路径_2464" x="12.39" y="0" width="98.5" height="135.342" filterUnits="userSpaceOnUse">
      <feOffset dy="-4" input="SourceAlpha"/>
      <feGaussianBlur stdDeviation="8.5" result="blur"/>
      <feFlood flood-color="#733201" flood-opacity="0.302"/>
      <feComposite operator="in" in2="blur"/>
      <feComposite in="SourceGraphic"/>
    </filter>
    <linearGradient id="linear-gradient" x1="0.5" x2="0.5" y2="1" gradientUnits="objectBoundingBox">
      <stop offset="0" stop-color="#8763fe"/>
      <stop offset="1" stop-color="#680adc"/>
    </linearGradient>
    <filter id="椭圆_221" x="0" y="93.371" width="120.685" height="120.685" filterUnits="userSpaceOnUse">
      <feOffset dy="9" input="SourceAlpha"/>
      <feGaussianBlur stdDeviation="5" result="blur-2"/>
      <feFlood flood-color="#7e2e00" flood-opacity="0.38"/>
      <feComposite operator="in" in2="blur-2"/>
      <feComposite in="SourceGraphic"/>
    </filter>
    <filter id="联合_18" x="32.371" y="129.5" width="52.276" height="33.238" filterUnits="userSpaceOnUse">
      <feOffset dy="3" input="SourceAlpha"/>
      <feGaussianBlur result="blur-3"/>
      <feFlood flood-opacity="0.161"/>
      <feComposite operator="in" in2="blur-3"/>
      <feComposite in="SourceGraphic"/>
    </filter>
  </defs>
  <g id="go" transform="translate(14.999 29.499)">
    <g transform="matrix(1, 0, 0, 1, -15, -29.5)" filter="url(#路径_2464)">
      <path id="路径_2464-2" data-name="路径 2464" d="M-17760.369-21712.461l-22.3,84.342h47.5Z" transform="translate(17820.56 21741.96)" fill="#8761fd"/>
    </g>
    <g transform="matrix(1, 0, 0, 1, -15, -29.5)" filter="url(#椭圆_221)">
      <g id="椭圆_221-2" data-name="椭圆 221" transform="translate(15 99.37)" stroke="#fff2e1" stroke-width="2" fill="url(#linear-gradient)">
        <ellipse cx="45.343" cy="45.343" rx="45.343" ry="45.343" stroke="none"/>
        <ellipse cx="45.343" cy="45.343" rx="44.343" ry="44.343" fill="none"/>
      </g>
    </g>
    <g transform="matrix(1, 0, 0, 1, -15, -29.5)" filter="url(#联合_18)">
      <path id="联合_18-2" data-name="联合 18" d="M27.059,29.6a6.991,6.991,0,0,1-2.9-1.866,7.26,7.26,0,0,1-1.607-3.1,16.935,16.935,0,0,1-.49-4.29V8.617a8.224,8.224,0,0,1,2.43-6.405Q26.921,0,31.467,0t6.917,2.212a8.336,8.336,0,0,1,2.371,6.405V20.351a17.625,17.625,0,0,1-.47,4.29,7.215,7.215,0,0,1-1.568,3.1A6.853,6.853,0,0,1,35.856,29.6a13.086,13.086,0,0,1-4.389.635A13.257,13.257,0,0,1,27.059,29.6ZM30.115,5.559a2.352,2.352,0,0,0-.745.923,4.084,4.084,0,0,0-.333,1.25,11.874,11.874,0,0,0-.078,1.346V20.928a12.57,12.57,0,0,0,.078,1.346,4.825,4.825,0,0,0,.333,1.347,2.489,2.489,0,0,0,.764,1.019,2.08,2.08,0,0,0,1.332.4,2,2,0,0,0,1.313-.4,2.412,2.412,0,0,0,.725-1.019,4.838,4.838,0,0,0,.294-1.347q.059-.73.059-1.346V9.079q0-.654-.059-1.346a4.1,4.1,0,0,0-.294-1.25,2.205,2.205,0,0,0-.725-.923,2.219,2.219,0,0,0-1.352-.366A2.145,2.145,0,0,0,30.115,5.559ZM4.056,29.546A6.027,6.027,0,0,1,1.685,27.6,8.076,8.076,0,0,1,.392,24.679,15.911,15.911,0,0,1,0,21.044V9.195Q0,4.462,2.253,2.231T9.248,0a10.824,10.824,0,0,1,6.9,1.962q2.469,1.962,2.469,6.386V10.5h-6.9V8.925a7.464,7.464,0,0,0-.392-2.77,1.76,1.76,0,0,0-1.763-.962,2.315,2.315,0,0,0-2.136.769A4.046,4.046,0,0,0,6.9,8.194V22.467a2.8,2.8,0,0,0,.588,1.9,2.484,2.484,0,0,0,1.96.673,2.531,2.531,0,0,0,1.352-.308,1.868,1.868,0,0,0,.725-.827,3.641,3.641,0,0,0,.294-1.193q.059-.673.059-1.366v-2.27H9.4V13.888h9.366v15.7h-4.7l-.314-2.578h-.078a6.209,6.209,0,0,1-2.39,2.539,7.771,7.771,0,0,1-3.566.693A8.577,8.577,0,0,1,4.056,29.546Zm41.48,0V22.967h6.623v6.579Zm1.528-9.272L45.379,7.963V.692h6.9V7.963L50.591,20.274Z" transform="translate(32.37 129.5)" fill="#fff"/>
    </g>
  </g>
</svg>
