<svg xmlns="http://www.w3.org/2000/svg" width="42.073" height="49.723" viewBox="0 0 42.073 49.723">
  <g id="icon_android_logo" transform="translate(-42.544 0)">
    <g id="组_141" data-name="组 141" transform="translate(42.544 0)">
      <path id="路径_644" data-name="路径 644" d="M45.622,179.141a2.969,2.969,0,0,0-2.181.9,2.934,2.934,0,0,0-.9,2.151v12.849a3.061,3.061,0,0,0,3.078,3.078,2.923,2.923,0,0,0,2.167-.9,3,3,0,0,0,.881-2.182V182.189a3.06,3.06,0,0,0-3.048-3.048Z" transform="translate(-42.544 -163.035)" fill="#fff"/>
      <path id="路径_645" data-name="路径 645" d="M143.269,4.572,145.39.658a.394.394,0,0,0-.149-.6.414.414,0,0,0-.6.179l-2.151,3.945a14.988,14.988,0,0,0-12.013,0L128.328.239a.414.414,0,0,0-.6-.179.393.393,0,0,0-.149.6L129.7,4.572a13.1,13.1,0,0,0-5.14,4.587,11.586,11.586,0,0,0-1.913,6.44h27.64a11.589,11.589,0,0,0-1.913-6.44A13.157,13.157,0,0,0,143.269,4.572ZM131,10.265a1.12,1.12,0,0,1-.822.344,1.069,1.069,0,0,1-.807-.344,1.191,1.191,0,0,1,0-1.643,1.073,1.073,0,0,1,.807-.343A1.161,1.161,0,0,1,131,10.265Zm12.595,0a1.072,1.072,0,0,1-.807.344,1.165,1.165,0,0,1,0-2.331,1.074,1.074,0,0,1,.807.343,1.191,1.191,0,0,1,0,1.643Z" transform="translate(-115.449 0)" fill="#fff"/>
      <path id="路径_646" data-name="路径 646" d="M123.971,205.351a3.263,3.263,0,0,0,3.286,3.287h2.211l.03,6.784a2.97,2.97,0,0,0,.9,2.182,2.934,2.934,0,0,0,2.151.9,3.061,3.061,0,0,0,3.078-3.078v-6.783h4.124v6.783a3.077,3.077,0,1,0,6.155,0v-6.783h2.241a3.263,3.263,0,0,0,3.257-3.287v-19.9h-27.43Z" transform="translate(-116.65 -168.777)" fill="#fff"/>
      <path id="路径_647" data-name="路径 647" d="M445.424,179.141a2.961,2.961,0,0,0-2.152.881,2.922,2.922,0,0,0-.9,2.166v12.849a2.968,2.968,0,0,0,.9,2.182,2.935,2.935,0,0,0,2.152.9,3.061,3.061,0,0,0,3.078-3.078V182.189a2.922,2.922,0,0,0-.9-2.166A3,3,0,0,0,445.424,179.141Z" transform="translate(-406.428 -163.035)" fill="#fff"/>
    </g>
  </g>
</svg>
