<svg xmlns="http://www.w3.org/2000/svg" xmlns:xlink="http://www.w3.org/1999/xlink" width="24.804" height="25.618" viewBox="0 0 24.804 25.618"><defs><radialGradient id="a" cx="0.5" cy="0.5" r="1.435" gradientTransform="translate(0.267 561.25) scale(0.35 0.334)" gradientUnits="objectBoundingBox"><stop offset="0.769" stop-color="#56585a"/><stop offset="0.871" stop-color="#bec0c2"/><stop offset="0.885" stop-color="#d0d1d3"/><stop offset="0.905" stop-color="#e4e5e6"/><stop offset="0.929" stop-color="#f3f4f4"/><stop offset="0.957" stop-color="#fcfcfc"/><stop offset="1" stop-color="#fff"/></radialGradient><linearGradient id="b" x1="0.256" y1="0.94" x2="0.819" y2="-0.621" gradientUnits="objectBoundingBox"><stop offset="0" stop-color="#bf5d00"/><stop offset="1" stop-color="#face1d"/></linearGradient><linearGradient id="c" x1="0.237" y1="1.083" x2="0.787" y2="-0.135" gradientUnits="objectBoundingBox"><stop offset="0" stop-color="#f38a08"/><stop offset="1" stop-color="#f8e261"/></linearGradient><linearGradient id="d" x1="0.244" y1="1.227" x2="0.786" y2="-1.112" gradientUnits="objectBoundingBox"><stop offset="0" stop-color="#fff"/><stop offset="0.57" stop-color="#e0e1e2"/><stop offset="1" stop-color="#efeff0"/></linearGradient><linearGradient id="f" x1="0.85" y1="-0.937" x2="-0.282" y2="3.712" gradientUnits="objectBoundingBox"><stop offset="0" stop-color="#e9a900"/><stop offset="1" stop-color="#f6df3d"/></linearGradient></defs><g transform="translate(25.741 8.089) rotate(135)"><g transform="translate(0 0)"><path d="M24.883,4.79c.009-.027.014-.051.021-.078.012-.046.024-.092.033-.138,0-.03.01-.06.013-.09.006-.048.008-.1.011-.144,0-.024,0-.049,0-.071a1.557,1.557,0,0,0-.017-.205c0-.024-.009-.047-.014-.072a1.443,1.443,0,0,0-.037-.153c-.007-.022-.013-.046-.021-.07a1.813,1.813,0,0,0-.086-.214s0,0,0-.005l-.021-.042-.008-.015c-.005-.01-.011-.02-.015-.03s-.01-.018-.017-.027a.065.065,0,0,0-.009-.017l-.024-.042,0,0c-.017-.027-.033-.053-.051-.079h0a5.831,5.831,0,0,0-2.763-1.863l-.047-.019c-.1-.04-.211-.08-.32-.12l-.077-.027c-.129-.046-.259-.091-.4-.135l-.056-.018L20.922,1.1c-.149-.048-.3-.092-.455-.136C20.356.928,20.242.9,20.129.868L20.007.835c-.129-.034-.262-.065-.393-.1-.028,0-.053-.012-.08-.018-.127-.03-.256-.058-.385-.086L19.066.615h0A29.6,29.6,0,0,0,14.427.041h-.013Q13.828.012,13.238,0h-.015c-.8-.012-1.6,0-2.4.046h-.01q-.588.032-1.168.083H9.636a27.6,27.6,0,0,0-4.5.751h0C5.106.893,5.078.9,5.048.909c-.119.031-.237.064-.354.1l-.086.025c-.122.036-.243.072-.362.109l-.131.043c-.1.033-.2.066-.3.1-.144.049-.286.1-.425.153l-.053.021-.053.019c-.126.049-.247.1-.367.15l-.066.029c-.1.044-.2.088-.3.133l-.039.018A4.589,4.589,0,0,0,.149,3.772h0l-.033.08,0,0L.1,3.9c0,.005,0,.011-.006.016s-.007.019-.01.029-.006.02-.009.03a.149.149,0,0,0-.005.016c0,.013-.009.029-.012.043l0,0a1.58,1.58,0,0,0-.041.217c0,.024-.005.047-.007.07A1.471,1.471,0,0,0,0,4.476c0,.023,0,.047,0,.072a1.664,1.664,0,0,0,.026.2c0,.023.012.047.017.07.012.048.026.1.042.143.009.03.021.06.032.089.018.047.04.092.061.137.013.026.024.051.038.077.033.059.068.119.107.178h0A5.313,5.313,0,0,0,2.653,7.128l.136.06.24.1.23.089.2.073c.152.054.308.107.47.161l.056.019.057.018c.149.047.3.092.453.135.124.036.25.069.377.1l.08.022a28.169,28.169,0,0,0,5.587.8h0a35.558,35.558,0,0,0,4.787-.093h0a25.806,25.806,0,0,0,5.4-1.009l.055-.017c.126-.041.251-.081.374-.123.142-.05.284-.1.422-.152l.053-.02.052-.02c.151-.059.3-.119.436-.179.061-.026.118-.053.177-.079s.145-.066.214-.1.147-.07.217-.106l.126-.066A4.161,4.161,0,0,0,24.811,4.97h0A1.757,1.757,0,0,0,24.883,4.79Z" transform="translate(0 2.697)" opacity="0.6" fill="url(#a)" style="mix-blend-mode:multiply;isolation:isolate"/><path d="M23.476,2.393V2.371c0-.539-.008-1.832-.011-2.371a1.439,1.439,0,0,1-.011.179c0,.014,0,.027-.007.041a1.245,1.245,0,0,1-.024.133c0,.016-.008.033-.013.049-.293,1.076-1.676,1.833-2.668,2.256l-.077.032a24.4,24.4,0,0,1-8.221,1.491A26.918,26.918,0,0,1,3.294,3C2.17,2.6.483,1.817.086.649.077.623.066.6.059.57.046.526.038.481.029.438.025.415.019.393.015.372A1.564,1.564,0,0,1,0,.172C0,.71.007,2,.012,2.543a1.33,1.33,0,0,0,.015.2c0,.023.01.045.013.066.008.044.017.089.029.133.007.026.018.053.027.078.439,1.283,2.41,2.1,3.661,2.5A25.025,25.025,0,0,0,10,6.53c.017,0,.034,0,.051,0a32.712,32.712,0,0,0,6.418-.348c2.106-.337,6.394-1.371,6.95-3.412,0-.017.009-.034.012-.05s.008-.028.011-.042c.006-.031.01-.061.014-.091,0-.013,0-.027.007-.041C23.471,2.5,23.475,2.446,23.476,2.393Z" transform="translate(1.325 4.023)" fill="url(#b)"/><path d="M19.718,1.047c4.746,1.513,5.02,4.11.609,5.8S8.493,8.683,3.747,7.17s-5.019-4.11-.609-5.8S14.971-.467,19.718,1.047Z" transform="translate(1.325 0)" fill="url(#c)"/><path d="M11.4,1.046A29.413,29.413,0,0,0,0,.2C.793,1.947,3.333,5.277,11.386,7.067,11.6,7,11.8,6.923,12,6.847,16.416,5.156,16.142,2.559,11.4,1.046Z" transform="translate(9.648 0.001)" fill="#fff2b4"/><path d="M20.326,2.746c-4.409,1.69-11.834,1.835-16.58.322C1.273,2.28.018,1.2,0,.1-.053,1.229,1.2,2.349,3.745,3.159c4.746,1.513,12.171,1.369,16.58-.322,2.115-.81,3.149-1.829,3.135-2.837C23.414.978,22.376,1.96,20.326,2.746Z" transform="translate(1.326 4.011)" fill="url(#d)" style="mix-blend-mode:overlay;isolation:isolate"/><path d="M20.326,2.746c-4.409,1.69-11.834,1.835-16.58.322C1.273,2.28.018,1.2,0,.1-.053,1.229,1.2,2.349,3.745,3.159c4.746,1.513,12.171,1.369,16.58-.322,2.115-.81,3.149-1.829,3.135-2.837C23.414.978,22.376,1.96,20.326,2.746Z" transform="translate(1.326 4.011)" opacity="0.5" fill="url(#d)" style="mix-blend-mode:overlay;isolation:isolate"/><g transform="translate(3.609 0.56)"><path d="M14.865.563C10.589-.457,4.7-.053,1.707,1.464S-.242,5.035,4.034,6.055s10.164.615,13.154-.9S19.14,1.582,14.865.563" transform="translate(0 0)" fill="url(#f)"/></g><path d="M8.534.563A25.013,25.013,0,0,0,0,.206C.941,1.829,3.233,4.261,8.8,5.915a10.825,10.825,0,0,0,2.062-.762C13.85,3.636,12.809,1.582,8.534.563Z" transform="translate(9.94 0.56)" fill="#ffd93b"/><path d="M14.292.541C10.181-.439,4.516-.051,1.64,1.408S-.231,4.842,3.879,5.822s9.773.592,12.648-.867S18.4,1.521,14.292.541" transform="translate(3.973 0.814)" fill="#f8e261"/><path d="M8.176.541A24.043,24.043,0,0,0,0,.195C1.02,1.8,3.339,4.07,8.588,5.643a10.124,10.124,0,0,0,1.823-.689C13.288,3.5,12.288,1.52,8.176.541Z" transform="translate(10.088 0.814)" fill="#ffe67a"/><path d="M0,3.02a4.691,4.691,0,0,0,.817-.628V0A4.822,4.822,0,0,1,0,.634Z" transform="translate(23.293 5.415)" fill="#f8e261"/><path d="M0,3.888A17.574,17.574,0,0,0,4.9,2.381V0c-.281.152-.562.284-.817.392L4,.424A18.455,18.455,0,0,1,0,1.516Z" transform="translate(17.987 6.287)" fill="#f6df3d"/><path d="M0,2.364a8.1,8.1,0,0,0,1.811.952V.95A8.11,8.11,0,0,1,0,0Z" transform="translate(2.454 5.935)" fill="#a34a00"/><path d="M0,2.366c.128.047.251.089.37.129V.12C.272.087.168.06.071.026L0,0Z" transform="translate(4.548 6.992)" fill="#a34a00"/></g></g></svg>