<svg xmlns="http://www.w3.org/2000/svg" xmlns:xlink="http://www.w3.org/1999/xlink" width="28.352" height="35.155" viewBox="0 0 28.352 35.155"><defs><radialGradient id="a" cx="0.5" cy="0.5" r="1.435" gradientTransform="translate(0.267 561.25) scale(0.35 0.334)" gradientUnits="objectBoundingBox"><stop offset="0.769" stop-color="#56585a"/><stop offset="0.871" stop-color="#bec0c2"/><stop offset="0.885" stop-color="#d0d1d3"/><stop offset="0.905" stop-color="#e4e5e6"/><stop offset="0.929" stop-color="#f3f4f4"/><stop offset="0.957" stop-color="#fcfcfc"/><stop offset="1" stop-color="#fff"/></radialGradient><linearGradient id="b" x1="0.256" y1="0.94" x2="0.819" y2="-0.621" gradientUnits="objectBoundingBox"><stop offset="0" stop-color="#bf5d00"/><stop offset="1" stop-color="#face1d"/></linearGradient><linearGradient id="c" x1="0.237" y1="1.083" x2="0.787" y2="-0.135" gradientUnits="objectBoundingBox"><stop offset="0" stop-color="#f38a08"/><stop offset="1" stop-color="#f8e261"/></linearGradient><linearGradient id="d" x1="0.244" y1="1.227" x2="0.786" y2="-1.112" gradientUnits="objectBoundingBox"><stop offset="0" stop-color="#fff"/><stop offset="0.57" stop-color="#e0e1e2"/><stop offset="1" stop-color="#efeff0"/></linearGradient><linearGradient id="f" x1="0.85" y1="-0.937" x2="-0.282" y2="3.712" gradientUnits="objectBoundingBox"><stop offset="0" stop-color="#e9a900"/><stop offset="1" stop-color="#f6df3d"/></linearGradient><radialGradient id="g" cx="0.5" cy="0.5" r="0.993" gradientTransform="matrix(0.499, 0.397, -0.072, 0.307, 45.964, 439.075)" xlink:href="#a"/><linearGradient id="h" x1="0.172" y1="-2.063" x2="0.756" y2="-2.869" xlink:href="#b"/><linearGradient id="i" x1="0.115" y1="-2.2" x2="0.707" y2="-3.042" xlink:href="#c"/><linearGradient id="j" x1="0.124" y1="-2.562" x2="0.708" y2="-3.49" xlink:href="#d"/><linearGradient id="l" x1="0.744" y1="-4.35" x2="-0.472" y2="-1.135" xlink:href="#f"/></defs><g transform="translate(14.542 37.748) rotate(-114)"><g transform="translate(0 3.677)"><path d="M24.883,4.79c.009-.027.014-.051.021-.078.012-.046.024-.092.033-.138,0-.03.01-.06.013-.09.006-.048.008-.1.011-.144,0-.024,0-.049,0-.071a1.555,1.555,0,0,0-.017-.205c0-.024-.009-.047-.014-.072a1.444,1.444,0,0,0-.037-.153c-.007-.022-.013-.046-.021-.07a1.811,1.811,0,0,0-.086-.214s0,0,0-.005l-.021-.042-.008-.015c-.005-.01-.011-.02-.015-.03s-.01-.018-.017-.027a.066.066,0,0,0-.009-.017l-.024-.042,0,0c-.017-.027-.033-.053-.051-.079h0a5.831,5.831,0,0,0-2.763-1.863l-.047-.019c-.1-.04-.211-.08-.32-.12l-.077-.027c-.128-.046-.259-.091-.4-.135l-.056-.018L20.922,1.1c-.149-.048-.3-.092-.455-.136C20.356.928,20.242.9,20.129.868L20.007.835c-.129-.034-.262-.065-.393-.1-.028,0-.053-.012-.08-.018-.127-.03-.256-.058-.385-.086L19.066.615h0A29.606,29.606,0,0,0,14.427.041h-.013Q13.828.012,13.238,0h-.015c-.8-.012-1.6,0-2.4.046h-.01q-.588.032-1.168.082H9.636a27.6,27.6,0,0,0-4.5.751h0C5.106.893,5.078.9,5.048.909c-.119.031-.237.064-.354.1l-.086.025c-.122.036-.243.072-.362.109l-.131.043c-.1.033-.2.066-.3.1-.144.049-.286.1-.425.153l-.053.021-.053.019c-.126.049-.247.1-.367.15l-.066.029c-.1.044-.2.088-.3.133l-.039.018A4.589,4.589,0,0,0,.149,3.772h0l-.033.08,0,0c0,.014-.01.027-.015.041s0,.011-.006.016-.007.019-.01.029-.006.02-.009.03a.151.151,0,0,0-.005.016c0,.013-.009.029-.012.043l0,0a1.58,1.58,0,0,0-.041.217c0,.024-.005.047-.007.07A1.472,1.472,0,0,0,0,4.476c0,.023,0,.047,0,.072a1.664,1.664,0,0,0,.026.2c0,.023.012.047.017.07.012.048.026.1.042.143.009.03.021.06.032.089.018.047.04.092.061.137.013.026.024.051.038.077.033.059.068.119.107.178h0A5.313,5.313,0,0,0,2.653,7.128l.136.06.24.1.23.089.2.073c.152.054.308.107.47.161l.056.019.057.018c.149.047.3.092.453.135.124.036.25.069.377.1l.08.022a28.17,28.17,0,0,0,5.587.8h0a35.565,35.565,0,0,0,4.788-.093h0a25.807,25.807,0,0,0,5.4-1.009l.055-.017c.126-.041.251-.081.374-.123.142-.05.284-.1.422-.152l.053-.02.052-.02c.151-.059.3-.119.436-.179.061-.026.118-.053.177-.079s.145-.066.214-.1.147-.07.217-.106l.126-.066A4.161,4.161,0,0,0,24.811,4.97h0A1.759,1.759,0,0,0,24.883,4.79Z" transform="translate(0 2.697)" opacity="0.6" fill="url(#a)" style="mix-blend-mode:multiply;isolation:isolate"/><path d="M23.476,2.393V2.371c0-.539-.008-1.832-.011-2.371a1.438,1.438,0,0,1-.011.179c0,.014,0,.027-.007.041a1.245,1.245,0,0,1-.024.133c0,.016-.008.033-.013.049-.293,1.076-1.676,1.833-2.668,2.256l-.077.032a24.4,24.4,0,0,1-8.221,1.491A26.917,26.917,0,0,1,3.294,3C2.17,2.6.483,1.817.086.649.077.623.066.6.059.57.046.526.038.481.029.438.025.415.019.393.015.372A1.564,1.564,0,0,1,0,.172C0,.71.007,2,.012,2.543a1.33,1.33,0,0,0,.015.2c0,.023.01.045.013.066.008.044.017.089.029.133.007.026.018.053.027.078.439,1.283,2.41,2.1,3.661,2.5A25.025,25.025,0,0,0,10,6.53c.017,0,.034,0,.051,0a32.712,32.712,0,0,0,6.418-.348c2.106-.337,6.394-1.371,6.95-3.412,0-.017.009-.034.012-.05s.008-.028.011-.042c.006-.031.01-.061.014-.091,0-.013,0-.027.007-.041C23.471,2.5,23.475,2.446,23.476,2.393Z" transform="translate(1.325 4.023)" fill="url(#b)"/><path d="M19.718,1.047c4.746,1.513,5.02,4.11.609,5.8S8.493,8.683,3.747,7.17s-5.019-4.11-.609-5.8S14.971-.467,19.718,1.047Z" transform="translate(1.325 0)" fill="url(#c)"/><path d="M11.4,1.046A29.414,29.414,0,0,0,0,.2C.793,1.947,3.333,5.277,11.386,7.067,11.6,7,11.8,6.923,12,6.847,16.416,5.156,16.142,2.559,11.4,1.046Z" transform="translate(9.648 0.001)" fill="#fff2b4"/><path d="M20.326,2.746c-4.409,1.69-11.834,1.835-16.58.322C1.273,2.28.018,1.2,0,.1-.053,1.229,1.2,2.349,3.745,3.159c4.746,1.513,12.171,1.369,16.58-.322,2.115-.81,3.149-1.829,3.135-2.837C23.414.978,22.376,1.96,20.326,2.746Z" transform="translate(1.326 4.011)" fill="url(#d)" style="mix-blend-mode:overlay;isolation:isolate"/><path d="M20.326,2.746c-4.409,1.69-11.834,1.835-16.58.322C1.273,2.28.018,1.2,0,.1-.053,1.229,1.2,2.349,3.745,3.159c4.746,1.513,12.171,1.369,16.58-.322,2.115-.81,3.149-1.829,3.135-2.837C23.414.978,22.376,1.96,20.326,2.746Z" transform="translate(1.326 4.011)" opacity="0.5" fill="url(#d)" style="mix-blend-mode:overlay;isolation:isolate"/><g transform="translate(3.609 0.56)"><path d="M14.865.563C10.589-.457,4.7-.053,1.707,1.464S-.242,5.035,4.034,6.055s10.164.615,13.154-.9S19.14,1.582,14.865.563" transform="translate(0 0)" fill="url(#f)"/></g><path d="M8.534.563A25.012,25.012,0,0,0,0,.206C.941,1.829,3.233,4.261,8.8,5.915a10.823,10.823,0,0,0,2.062-.762C13.85,3.636,12.809,1.582,8.534.563Z" transform="translate(9.94 0.559)" fill="#ffd93b"/><path d="M14.292.541C10.181-.439,4.516-.051,1.64,1.408S-.231,4.842,3.879,5.822s9.773.592,12.648-.867S18.4,1.521,14.292.541" transform="translate(3.973 0.814)" fill="#f8e261"/><path d="M8.176.541A24.043,24.043,0,0,0,0,.195C1.02,1.8,3.339,4.07,8.588,5.643a10.126,10.126,0,0,0,1.823-.689C13.288,3.5,12.288,1.52,8.176.541Z" transform="translate(10.088 0.814)" fill="#ffe67a"/><path d="M0,3.02a4.692,4.692,0,0,0,.817-.628V0A4.823,4.823,0,0,1,0,.634Z" transform="translate(23.293 5.415)" fill="#f8e261"/><path d="M0,3.888A17.574,17.574,0,0,0,4.9,2.381V0c-.281.152-.562.284-.817.392L4,.424A18.455,18.455,0,0,1,0,1.516Z" transform="translate(17.987 6.287)" fill="#f6df3d"/><path d="M0,2.364a8.094,8.094,0,0,0,1.811.952V.95A8.11,8.11,0,0,1,0,0Z" transform="translate(2.454 5.935)" fill="#a34a00"/><path d="M0,2.366c.128.047.251.089.37.129V.12C.272.087.168.06.071.026L0,0Z" transform="translate(4.548 6.992)" fill="#a34a00"/></g><path d="M20.7,10.546c.016-.018.03-.037.045-.056s.053-.068.077-.1.03-.046.044-.069c.022-.039.041-.078.061-.117.009-.019.019-.039.027-.058a1.537,1.537,0,0,0,.06-.177c.005-.021.009-.042.013-.065a1.317,1.317,0,0,0,.025-.141c0-.021.005-.042.008-.064a1.838,1.838,0,0,0,.005-.209s0,0,0-.006,0-.028,0-.042V9.422c0-.01,0-.02,0-.03l0-.029a.06.06,0,0,0,0-.017c0-.015,0-.029,0-.043v0c0-.028-.009-.056-.014-.084h0A5.283,5.283,0,0,0,19.4,6.67l-.031-.033c-.073-.07-.147-.143-.223-.216l-.054-.049c-.09-.085-.183-.169-.279-.254l-.041-.035c-.014-.012-.027-.024-.041-.035-.107-.094-.217-.185-.33-.278l-.247-.2-.091-.07c-.1-.075-.194-.149-.292-.223l-.06-.045q-.143-.106-.29-.21l-.061-.044h0a26.893,26.893,0,0,0-3.652-2.149h0l-.011,0q-.476-.234-.965-.454l-.012-.007c-.661-.3-1.334-.574-2.011-.825l-.009,0q-.5-.186-1-.352l-.01,0h0a25.072,25.072,0,0,0-4.013-1h0L5.594.172C5.485.155,5.375.14,5.265.126L5.185.115C5.071.1,4.957.087,4.845.075L4.72.064c-.1-.01-.193-.019-.286-.026C4.3.028,4.159.018,4.024.013l-.051,0-.051,0C3.8,0,3.68,0,3.563,0H3.5c-.1,0-.2,0-.3,0L3.161,0A4.144,4.144,0,0,0,.488.788h0C.468.8.45.823.431.842h0L.4.873.389.884.37.9C.365.91.359.919.352.925L.343.937C.334.947.325.957.317.968l0,0A1.523,1.523,0,0,0,.2,1.136C.19,1.155.18,1.173.17,1.193c-.022.042-.041.083-.06.126-.007.021-.017.039-.024.06a1.529,1.529,0,0,0-.052.18c0,.021-.007.043-.011.065-.007.044-.013.089-.017.133,0,.029,0,.058-.005.086,0,.046,0,.09,0,.136,0,.025,0,.051,0,.078.007.061.014.124.025.187h0A4.817,4.817,0,0,0,1.361,4.482l.092.1c.054.056.108.113.165.17l.159.157.138.132c.107.1.218.2.334.3l.04.036.041.035c.107.093.216.184.328.275.09.075.183.148.276.221l.058.047A25.411,25.411,0,0,0,7.353,8.63h0a32.049,32.049,0,0,0,4.015,1.648h0a23.27,23.27,0,0,0,4.855,1.106c.017,0,.034,0,.051.005.12.013.239.023.356.033.136.01.273.019.406.025l.051,0,.051,0c.148.005.288.007.427.008.06,0,.118,0,.176,0s.144,0,.214-.007.148-.005.219-.01l.129-.01a3.774,3.774,0,0,0,2.268-.761h0A1.534,1.534,0,0,0,20.7,10.546Z" transform="translate(13.778 1.911)" opacity="0.6" fill="url(#g)" style="mix-blend-mode:multiply;isolation:isolate"/><path d="M19.679,10.308l.008-.019c.19-.449.653-1.527.844-1.976a1.286,1.286,0,0,1-.073.145.338.338,0,0,1-.02.031,1.021,1.021,0,0,1-.068.1l-.029.036c-.631.789-2.054.921-3.031.914h-.076A22.091,22.091,0,0,1,9.858,7.818,24.376,24.376,0,0,1,2.673,3.536C1.882,2.8.76,1.542.851.427.852.4.853.377.856.353.862.312.871.272.879.232c0-.02.008-.04.012-.059A1.488,1.488,0,0,1,.951,0C.76.449.3,1.528.106,1.976a1.242,1.242,0,0,0-.059.172c-.006.02-.008.04-.012.059-.009.04-.018.081-.024.121,0,.024,0,.051-.006.075-.1,1.225,1.248,2.615,2.145,3.4a22.672,22.672,0,0,0,4.83,3.092l.042.02a29.619,29.619,0,0,0,5.464,2.024c1.873.479,5.813,1.165,7.01-.334l.029-.036.024-.03.044-.071c.006-.01.014-.021.02-.031C19.636,10.393,19.659,10.352,19.679,10.308Z" transform="translate(15.113 1.23)" fill="url(#h)"/><path d="M17.645,5.717c3.4,2.969,2.695,5.228-1.584,5.046A26.442,26.442,0,0,1,2.152,5.055C-1.251,2.085-.541-.172,3.737.01A26.443,26.443,0,0,1,17.645,5.717Z" transform="translate(15.956 0)" fill="url(#i)"/><path d="M9.175,4.81A26.666,26.666,0,0,0,0,0C.03,1.739.943,5.425,7,9.816c.2.018.4.031.594.04C11.869,10.038,12.577,7.779,9.175,4.81Z" transform="translate(24.426 0.907)" fill="#fff2b4"/><path d="M16.092,9.521A26.435,26.435,0,0,1,2.184,3.814C.412,2.267-.242.915.139,0-.312.915.33,2.3,2.152,3.89A26.442,26.442,0,0,0,16.06,9.6c2.051.088,3.278-.388,3.63-1.231C19.3,9.164,18.081,9.606,16.092,9.521Z" transform="translate(15.957 1.165)" fill="url(#j)" style="mix-blend-mode:overlay;isolation:isolate"/><path d="M16.092,9.521A26.435,26.435,0,0,1,2.184,3.814C.412,2.267-.242.915.139,0-.312.915.33,2.3,2.152,3.89A26.442,26.442,0,0,0,16.06,9.6c2.051.088,3.278-.388,3.63-1.231C19.3,9.164,18.081,9.606,16.092,9.521Z" transform="translate(15.957 1.165)" opacity="0.5" fill="url(#j)" style="mix-blend-mode:overlay;isolation:isolate"/><g transform="translate(17.971 0.849)"><path d="M13.465,4.006C10.275,1.616,5.229-.171,2.2.013S-.712,2.281,2.477,4.67s8.234,4.175,11.267,3.991,2.91-2.267-.279-4.655" transform="translate(0 0)" fill="url(#l)"/></g><path d="M6.97,3.373A22.683,22.683,0,0,0,0,0C.2,1.689,1.228,4.538,5.259,7.919a9.74,9.74,0,0,0,1.99.109C10.284,7.845,10.159,5.761,6.97,3.373Z" transform="translate(24.466 1.482)" fill="#ffd93b"/><path d="M12.947,3.851C9.881,1.554,5.028-.164,2.111.013s-2.795,2.182.272,4.479S10.3,8.506,13.216,8.328s2.8-2.181-.269-4.477" transform="translate(18.231 1.121)" fill="#f8e261"/><path d="M6.677,3.233A21.773,21.773,0,0,0,0,0C.269,1.705,1.381,4.426,5.18,7.627a9.214,9.214,0,0,0,1.765.083C9.863,7.535,9.744,5.529,6.677,3.233Z" transform="translate(24.501 1.739)" fill="#ffe67a"/><path d="M0,1.972a15.938,15.938,0,0,0,4.617.511L5.475.5c-.288.025-.57.034-.821.031H4.578A16.75,16.75,0,0,1,.855,0Z" transform="translate(27.769 10.237)" fill="#f6df3d"/><path d="M0,1.968A7.4,7.4,0,0,0,1.163,3.413l.853-1.968A7.342,7.342,0,0,1,.852,0Z" transform="translate(15.524 3.083)" fill="#a34a00"/><path d="M0,1.968c.09.085.177.165.262.24L1.117.233C1.047.17.971.11.9.047.887.032.87.015.853,0Z" transform="translate(16.884 4.719)" fill="#a34a00"/></g></svg>