<svg xmlns="http://www.w3.org/2000/svg" width="1195.339" height="199.165" viewBox="0 0 1195.339 199.165"><g transform="translate(197.544 13.242)"><path d="M47.6,137.139c-3.425.788-9.827-6.682-11.424-8.567-2.193-2.588-5.374-7.384-5.629-10.928.911-.438,9.332-3.627,9.143-4.519a29.077,29.077,0,0,0,4.935,11c.535.735,7.545,8.11,7.94,7.5a30.836,30.836,0,0,1-3.969,4.951A2.011,2.011,0,0,1,47.6,137.139Z" transform="translate(-30.549 -55.421)" fill="#d4eeff"/><path d="M40.171,85.678C38.3,87.2,36.549,89.223,34.1,89.741a.908.908,0,0,1-.6-.02c-.308-.156-.355-.569-.364-.915a100.082,100.082,0,0,0-.739-10.76,25.463,25.463,0,0,1,7.912,5.372,1.649,1.649,0,0,1,.63,1.158A1.685,1.685,0,0,1,40.171,85.678Z" transform="translate(-29.358 -78.046)" fill="#fcd033"/><path d="M125.376,142.63a.659.659,0,0,1-.081.049,1.111,1.111,0,0,1-.8-.038c-3.491-.525-5.588-2.979-8.016-5.275a.423.423,0,0,1,.021-.758l6.721-5.845c.921,2.374,2.938,3.968,4.945,5.4a.468.468,0,0,1,.2.684,26.753,26.753,0,0,1-2.671,5.407A1.329,1.329,0,0,1,125.376,142.63Z" transform="translate(24.726 -44.046)" fill="#fcd033"/><path d="M64.457,267.157c2.379.393,5.055.359,7.068,1.849a.915.915,0,0,1,.385.462c.087.334-.189.643-.443.878a99.6,99.6,0,0,0-7.562,7.692,25.478,25.478,0,0,1-1.229-9.485,1.646,1.646,0,0,1,.449-1.24A1.678,1.678,0,0,1,64.457,267.157Z" transform="translate(-126.857 -92.115)" fill="#f2e5f5"/><path d="M241.975,244.953c1.1,2.143,2.729,4.27,2.736,6.774a.918.918,0,0,1-.142.586c-.217.27-.63.232-.97.169A99.927,99.927,0,0,0,232.915,251a25.5,25.5,0,0,1,6.878-6.646,1.649,1.649,0,0,1,1.263-.38C241.5,244.1,241.765,244.544,241.975,244.953Z" transform="translate(428.971 -142.045)" fill="#d4eeff"/><path d="M40.733,260.831c-1.967.036-4.533.331-6.261-.737a7.82,7.82,0,0,1-3.019-4.244c-.649-1.931.134-3.957.949-5.786a3.322,3.322,0,0,1,1.531-1.836,3.722,3.722,0,0,1,2.466.13l4.621,1.329c-2.374,2.784-2.243,7.648,1.013,9.67.336.207.071.833-.187,1.13A1.465,1.465,0,0,1,40.733,260.831Z" transform="translate(45.88 -92.448)" fill="#ef487c"/><path d="M85.712,91.619A6.641,6.641,0,0,0,83.4,94.844a6.93,6.93,0,0,0,.117,4.711.76.76,0,0,1,.063.281c-.007.313-.347.492-.635.614a15.923,15.923,0,0,0-4.6,2.953c-1.54-3.5-2.528-8.723-.811-12.3a11.056,11.056,0,0,1,4.981-5A13.029,13.029,0,0,1,89.5,84.818a14.113,14.113,0,0,0,.434,3.173c.036.166.462,1.944.181,1.989a13.036,13.036,0,0,0-3.943,1.334C86.009,91.41,85.858,91.51,85.712,91.619Z" transform="translate(-0.824 -73.712)" fill="#754ff0"/><g transform="translate(-197.544 20.778)"><path d="M38.769,207.335a16.115,16.115,0,0,0-.619,2.836,11.283,11.283,0,0,0,1.263,5.846c.554,1.12,2.555,4.4,4.042,4.418a12.561,12.561,0,0,1-8.718-3.744,13.292,13.292,0,0,1-3.727-8.755c-.137-3.778,1.308-7.366,2.958-10.691.234-.47.9-2.433,1.388-2.594.512-.171,1.477.745,1.856.994,1.189.78,2.413,1.525,3.627,2.27.457.281,1.619.722,1.9,1.189.646,1.069-.413,1.63-1.071,2.52A19.511,19.511,0,0,0,38.769,207.335Z" transform="translate(-31.001 -194.631)" fill="#754ff0"/><path d="M43.7,207.489a46.336,46.336,0,0,0-3.732-3.2,7.083,7.083,0,0,1-4.163,4.3c.158.418.327.826.51,1.2.554,1.12,2.555,4.4,4.042,4.418a11.545,11.545,0,0,1-1.216-.076c1.948.8,4.247-1.962,5.246-3.394a2.522,2.522,0,0,0,.48-1.015A2.783,2.783,0,0,0,43.7,207.489Z" transform="translate(-27.902 -188.4)" fill="#5c2a8b"/></g><path d="M134.367,102.395a6.782,6.782,0,0,0,5.228-3.505,10.66,10.66,0,0,0,1.364-7.481c-.278-1.459-.862-2.857-1.028-4.335a7.9,7.9,0,0,1,3.255-7.193,53.488,53.488,0,0,0,5.886,1.546,14.379,14.379,0,0,0-2.522,4.731,13.08,13.08,0,0,0,.036,4.923c.178,1.247.605,2.324.674,3.616a12.861,12.861,0,0,1-2.461,8.136,9.856,9.856,0,0,1-2.693,2.768,14.275,14.275,0,0,1-4.478,1.642.8.8,0,0,1-.439.023c-.441-.15-.913-1.52-1.161-1.926-.548-.895-1.087-1.791-1.614-2.7" transform="translate(36.411 -76.864)" fill="#ef487c"/><g transform="translate(-95.562 106.231)"><path d="M159.355,186.4c-3.584-.266-8.072-2.137-9.947-5.432a12.6,12.6,0,0,1-1.235-4.729c.628,2.441,4.374,3.655,6.6,3.818a23.129,23.129,0,0,0,7.307-1.038,30.957,30.957,0,0,1,1.137,6.244.825.825,0,0,1-.058.474.753.753,0,0,1-.359.276A6.98,6.98,0,0,1,159.355,186.4Z" transform="translate(-148.114 -159.947)" fill="#ef487c"/><path d="M148.195,182.625c.406,1.576,2.114,2.639,3.872,3.239.339-.275.663-.568.933-.814,3.03-2.754,6.863-7.945,5.6-12.3a10.351,10.351,0,0,0-1.851-3.574,8.464,8.464,0,0,0-4.489-2.643,3.7,3.7,0,0,0-3.119.3,4.347,4.347,0,0,1,4.275,3.255,8.278,8.278,0,0,1-.724,5.662,15.613,15.613,0,0,1-2.867,4.259,9.167,9.167,0,0,0-1.434,1.7,3.888,3.888,0,0,0,.13,3.012C148.382,184.032,148.282,183.325,148.195,182.625Z" transform="translate(-148.136 -166.334)" fill="#d82766"/></g><path d="M393.571,232.057c2.384.548,6.835-4.647,7.945-5.958,1.526-1.8,3.739-5.136,3.916-7.6-.633-.3-6.491-2.523-6.358-3.142a20.276,20.276,0,0,1-3.433,7.652c-.372.51-5.247,5.639-5.522,5.213a21.483,21.483,0,0,0,2.76,3.445A1.4,1.4,0,0,0,393.571,232.057Z" transform="translate(592.362 -157.485)" fill="#5cd4ed"/><path d="M491.294,235a.569.569,0,0,0-.087.038,1.112,1.112,0,0,0-.431.679c-1.579,3.158-.78,6.285-.3,9.59a.56.56,0,0,0,.178.4.569.569,0,0,0,.454.018l8.648-2.135c-1.41-2.12-1.555-4.685-1.571-7.152a.621.621,0,0,0-.076-.359.611.611,0,0,0-.367-.2,26.657,26.657,0,0,0-5.96-.926A1.318,1.318,0,0,0,491.294,235Z" transform="translate(434.68 -170.845)" fill="#754ff0"/><path d="M359.141,243.992c-2.377.395-5.055.36-7.068,1.849a.911.911,0,0,0-.385.464c-.087.334.191.643.443.878a100.218,100.218,0,0,1,7.563,7.69,25.469,25.469,0,0,0,1.229-9.483,1.657,1.657,0,0,0-.451-1.242A1.69,1.69,0,0,0,359.141,243.992Z" transform="translate(563.564 -102.055)" fill="#d05ca4"/><path d="M491.328,140.314c2.41.082,5.029.643,7.3-.419a.919.919,0,0,0,.469-.378c.15-.311-.059-.668-.262-.949a99.738,99.738,0,0,1-5.9-9.029,25.475,25.475,0,0,0-3.073,9.056,1.65,1.65,0,0,0,.2,1.3A1.689,1.689,0,0,0,491.328,140.314Z" transform="translate(265.663 -44.836)" fill="#ef487c"/><g transform="translate(565.713 -13.242)"><path d="M378.11,105.5a11.235,11.235,0,0,1-.161-2.027,7.911,7.911,0,0,1,1.429-3.943c.491-.725,2.19-2.818,3.226-2.688a8.808,8.808,0,0,0-6.41,1.778,9.315,9.315,0,0,0-3.417,5.729,15.848,15.848,0,0,0,1.046,7.706c.118.348.4,1.776.72,1.934.339.166,1.1-.379,1.383-.515.9-.43,1.821-.831,2.733-1.235.345-.151,1.194-.348,1.433-.646.549-.683-.134-1.173-.506-1.853A13.674,13.674,0,0,1,378.11,105.5Z" transform="translate(-372.63 -96.739)" fill="#754ff0"/><path d="M383.458,101.83a32.772,32.772,0,0,1-2.9,1.867,4.967,4.967,0,0,0-2.486-3.378c.149-.274.3-.542.467-.782.491-.725,2.19-2.818,3.226-2.688a8.116,8.116,0,0,0-.852-.062c1.429-.369,2.766,1.764,3.324,2.853a1.76,1.76,0,0,1,.238.751C384.49,101,383.954,101.47,383.458,101.83Z" transform="translate(-371.796 -96.744)" fill="#5c2a8b"/></g><g transform="translate(831.387 14.044)"><path d="M387.784,182.561a16.057,16.057,0,0,1-2.035,2.071,11.3,11.3,0,0,1-5.583,2.147c-1.24.15-5.083.275-5.91-.961a12.567,12.567,0,0,0,7.907,5.241,13.283,13.283,0,0,0,9.366-1.675c3.236-1.958,5.447-5.131,7.323-8.332.266-.452,1.541-2.091,1.41-2.584-.136-.52-1.433-.826-1.847-1.007-1.3-.569-2.6-1.184-3.885-1.791-.485-.229-1.492-.959-2.036-.938-1.248.046-1.138,1.239-1.522,2.277A19.558,19.558,0,0,1,387.784,182.561Z" transform="translate(-374.256 -174.732)" fill="#ef487c"/></g><g transform="translate(843.33 127.042)"><path d="M484.9,176.857c-3.237,1.563-6.726,4.948-7.262,8.7a12.608,12.608,0,0,0,.586,4.854c-.311-2.5,2.729-5.006,4.742-5.975a23.143,23.143,0,0,1,7.18-1.714,31.116,31.116,0,0,0-1.234-6.226.816.816,0,0,0-.229-.419.749.749,0,0,0-.433-.125A6.963,6.963,0,0,0,484.9,176.857Z" transform="translate(-477.567 -175.946)" fill="#5cd4ed"/><path d="M478.146,186.479c-.2-1.617,1-3.231,2.415-4.435.416.132.824.285,1.166.415,3.829,1.451,9.3,4.876,9.723,9.391a10.371,10.371,0,0,1-.411,4,8.464,8.464,0,0,1-3.208,4.106,3.7,3.7,0,0,1-3.013.86,4.348,4.348,0,0,0,2.785-4.6,8.289,8.289,0,0,0-2.752-5,15.628,15.628,0,0,0-4.229-2.912,9.128,9.128,0,0,1-1.958-1.056,3.892,3.892,0,0,1-.984-2.851C477.8,185.1,477.97,185.795,478.146,186.479Z" transform="translate(-477.494 -172.013)" fill="#24b4e6"/></g></g></svg>