<svg xmlns="http://www.w3.org/2000/svg" xmlns:xlink="http://www.w3.org/1999/xlink" width="1005.557" height="652.933" viewBox="0 0 1005.557 652.933"><defs><filter id="a" x="0" y="0" width="1005.557" height="652.933" filterUnits="userSpaceOnUse"><feOffset dx="-6" dy="11" input="SourceAlpha"/><feGaussianBlur stdDeviation="12" result="b"/><feFlood flood-color="#3d5991" flood-opacity="0.212"/><feComposite operator="in" in2="b"/><feComposite in="SourceGraphic"/></filter><filter id="c" x="82.537" y="51.193" width="840.483" height="550.548" filterUnits="userSpaceOnUse"><feOffset dx="-6" dy="11" input="SourceAlpha"/><feGaussianBlur stdDeviation="12" result="d"/><feFlood flood-color="#3d5991" flood-opacity="0.059"/><feComposite operator="in" in2="d"/><feComposite in="SourceGraphic"/></filter><filter id="e" x="129.743" y="75.414" width="747.289" height="492.181" filterUnits="userSpaceOnUse"><feOffset dx="-6" dy="11" input="SourceAlpha"/><feGaussianBlur stdDeviation="12" result="f"/><feFlood flood-color="#3d5991" flood-opacity="0.278"/><feComposite operator="in" in2="f"/><feComposite in="SourceGraphic"/></filter><linearGradient id="g" x1="0.5" y1="-8.607" x2="0.5" y2="-7.531" gradientUnits="objectBoundingBox"><stop offset="0" stop-color="#00003b"/><stop offset="0.119" stop-color="#00066e"/><stop offset="0.232" stop-color="#000b98"/><stop offset="0.334" stop-color="#000eb7"/><stop offset="0.421" stop-color="#0011c9"/><stop offset="0.483" stop-color="#0012d0"/><stop offset="0.591" stop-color="#000ca1"/><stop offset="0.711" stop-color="#000775"/><stop offset="0.819" stop-color="#000355"/><stop offset="0.909" stop-color="#000042"/><stop offset="0.97" stop-color="#00003b"/></linearGradient><linearGradient id="h" x1="0.269" y1="-0.676" x2="0.514" y2="0.645" xlink:href="#g"/><linearGradient id="i" x1="0.5" y1="-39.278" x2="0.5" y2="-37.29" xlink:href="#g"/><linearGradient id="j" x1="0.5" y1="-59.387" x2="0.5" y2="-56.336" xlink:href="#g"/><linearGradient id="k" x1="0.5" y1="-37.726" x2="0.5" y2="-35.738" xlink:href="#g"/><linearGradient id="l" x1="0.5" y1="-57.004" x2="0.5" y2="-53.952" xlink:href="#g"/><linearGradient id="m" x1="0.5" y1="-36.176" x2="0.5" y2="-34.188" xlink:href="#g"/><linearGradient id="n" x1="0.5" y1="-53.543" x2="0.5" y2="-50.491" xlink:href="#g"/><linearGradient id="o" x1="159.813" y1="-26.551" x2="159.813" y2="-24.563" xlink:href="#g"/><linearGradient id="p" x1="162.917" y1="-27.329" x2="162.917" y2="-25.341" xlink:href="#g"/><linearGradient id="q" x1="124.976" y1="-43.421" x2="124.976" y2="-40.369" xlink:href="#g"/><linearGradient id="r" x1="169.076" y1="-28.881" x2="169.076" y2="-26.893" xlink:href="#g"/><linearGradient id="s" x1="172.181" y1="-29.657" x2="172.181" y2="-27.67" xlink:href="#g"/><linearGradient id="t" x1="178.146" y1="-31.134" x2="178.146" y2="-29.146" xlink:href="#g"/><linearGradient id="u" x1="0.5" x2="0.5" y2="1" gradientUnits="objectBoundingBox"><stop offset="0" stop-color="#bbd4ff"/><stop offset="1" stop-color="#ffd6f8"/></linearGradient><linearGradient id="w" x1="-0.065" y1="1.474" x2="3.241" y2="-4.229" xlink:href="#g"/><linearGradient id="x" x1="-5.216" y1="10.342" x2="11.731" y2="-18.836" xlink:href="#g"/><linearGradient id="aa" x1="0.5" x2="0.5" y2="1" gradientUnits="objectBoundingBox"><stop offset="0" stop-color="#ffb16d"/><stop offset="0.246" stop-color="#ff437c"/><stop offset="0.65" stop-color="#b035f1"/><stop offset="1" stop-color="#a733ff"/></linearGradient><filter id="ab" x="614.781" y="231.461" width="85.619" height="78.877" filterUnits="userSpaceOnUse"><feOffset dy="3" input="SourceAlpha"/><feGaussianBlur stdDeviation="3" result="ac"/><feFlood flood-opacity="0.161"/><feComposite operator="in" in2="ac"/><feComposite in="SourceGraphic"/></filter><filter id="ad" x="324.244" y="292.337" width="80.415" height="80.463" filterUnits="userSpaceOnUse"><feOffset dy="3" input="SourceAlpha"/><feGaussianBlur stdDeviation="3" result="ae"/><feFlood flood-opacity="0.161"/><feComposite operator="in" in2="ae"/><feComposite in="SourceGraphic"/></filter><filter id="af" x="357.176" y="163.785" width="362.785" height="297.298" filterUnits="userSpaceOnUse"><feOffset dy="3" input="SourceAlpha"/><feGaussianBlur stdDeviation="3" result="ag"/><feFlood flood-color="#42008e" flood-opacity="0.161"/><feComposite operator="in" in2="ag"/><feComposite in="SourceGraphic"/></filter></defs><g transform="translate(-278.152 -2034.068) rotate(7)"><g transform="matrix(0.99, -0.12, 0.12, 0.99, 523.97, 1985.01)" filter="url(#a)"><path d="M441,0C684.558,0,882,106.78,882,238.5S684.558,477,441,477,0,370.22,0,238.5,197.442,0,441,0Z" transform="translate(100.13 25) rotate(7)" fill="#6322c4" opacity="0.25"/></g><g transform="matrix(0.99, -0.12, 0.12, 0.99, 523.97, 1985.01)" filter="url(#c)"><g transform="translate(172.43 76.19) rotate(7)" fill="none" stroke="#eaeef6" stroke-width="1" opacity="0.13"><ellipse cx="363" cy="196.5" rx="363" ry="196.5" stroke="none"/><ellipse cx="363" cy="196.5" rx="362.5" ry="196" fill="none"/></g></g><g transform="matrix(0.99, -0.12, 0.12, 0.99, 523.97, 1985.01)" filter="url(#e)"><ellipse cx="319" cy="172.5" rx="319" ry="172.5" transform="translate(213.79 100.41) rotate(7)" fill="#862ace" opacity="0.37"/></g><g transform="translate(913.16 2043.897) rotate(20)"><g transform="translate(0 0)"><path d="M413.684,98.423,305.251,161.438c-10.005,5.814-26.32,5.814-36.38.005L7.624,10.613C2.556,7.687.025,3.841.036,0L0,12.674c-.011,3.841,2.52,7.687,7.588,10.612L268.835,174.118c10.06,5.808,26.375,5.808,36.38-.007L413.648,111.1c4.965-2.886,7.451-6.67,7.461-10.46l.036-12.673C421.133,91.754,418.649,95.537,413.684,98.423Z" transform="translate(0 77.836)" fill="#7c56ff"/><g transform="translate(0.036 0)"><path d="M413.529,155.193c10.06,5.807,10.112,15.257.119,21.066L305.215,239.274c-10.005,5.814-26.32,5.814-36.38.005L7.588,88.45c-10.071-5.815-10.124-15.265-.119-21.08L115.9,4.356c9.994-5.808,26.31-5.808,36.38.006Z" transform="translate(0 0)" fill="#7c56ff"/></g><g transform="translate(305.939 178.864)"><g transform="translate(45.365 25.013)"><path d="M2.722,17.9a1.924,1.924,0,0,1-2.249.109,2.227,2.227,0,0,1-.284-2.362L1.42,11.8A5.966,5.966,0,0,1,3.955,8.6L18.122.425c1.127-.651,2.122-.547,2.533.265l1.233,2.429A3.183,3.183,0,0,1,21.6,5.811,5.98,5.98,0,0,1,19.355,8.3Z" transform="translate(0 0)" fill="url(#g)"/><path d="M18.8,7.094,2.166,16.7C.641,17.577-.406,16.645.152,14.9l1.233-3.853A4.77,4.77,0,0,1,3.4,8.515L17.566.334c.89-.514,1.689-.43,2.014.211l1.233,2.431C21.369,4.074,20.324,6.212,18.8,7.094Z" transform="translate(0.556 0.648)" fill="url(#h)"/></g><g transform="translate(0 0)"><g transform="translate(0 39.785)"><g transform="translate(0 7.903)"><path d="M4.19,1.21A4.346,4.346,0,0,1,2.1,4.514C.938,5.182,0,4.786,0,3.628A4.345,4.345,0,0,1,2.1.324C3.252-.343,4.19.053,4.19,1.21Z" transform="translate(0 15.022)" fill="url(#i)" style="mix-blend-mode:multiply;isolation:isolate"/><ellipse cx="2.785" cy="1.576" rx="2.785" ry="1.576" transform="translate(5.667 14.964) rotate(-53.051)" fill="url(#j)" style="mix-blend-mode:multiply;isolation:isolate"/><path d="M4.189,1.211a4.346,4.346,0,0,1-2.094,3.3C.938,5.182,0,4.786,0,3.629A4.347,4.347,0,0,1,2.094.325C3.251-.344,4.189.053,4.189,1.211Z" transform="translate(13.011 7.511)" fill="url(#k)" style="mix-blend-mode:multiply;isolation:isolate"/><ellipse cx="2.785" cy="1.576" rx="2.785" ry="1.576" transform="matrix(0.601, -0.799, 0.799, 0.601, 18.676, 7.453)" fill="url(#l)" style="mix-blend-mode:multiply;isolation:isolate"/><path d="M4.189,1.209a4.346,4.346,0,0,1-2.094,3.3C.938,5.182,0,4.786,0,3.628A4.342,4.342,0,0,1,2.094.325C3.251-.344,4.189.053,4.189,1.209Z" transform="translate(26.02 0)" fill="url(#m)" style="mix-blend-mode:multiply;isolation:isolate"/></g><ellipse cx="2.785" cy="1.576" rx="2.785" ry="1.576" transform="matrix(0.601, -0.799, 0.799, 0.601, 37.563, 4.451)" fill="url(#n)" style="mix-blend-mode:multiply;isolation:isolate"/></g><g transform="translate(70.216 0)" style="mix-blend-mode:multiply;isolation:isolate"><g transform="translate(12.381 0)"><path d="M0,3.628c0,1.158.938,1.554,2.094.886a4.347,4.347,0,0,0,2.095-3.3c0-1.157-.938-1.553-2.095-.886A4.346,4.346,0,0,0,0,3.628Z" transform="translate(26.02 0)" fill="url(#o)"/><path d="M0,3.629c0,1.157.938,1.553,2.094.884a4.344,4.344,0,0,0,2.095-3.3c0-1.157-.938-1.553-2.095-.885A4.342,4.342,0,0,0,0,3.629Z" transform="translate(19.515 3.756)" fill="url(#p)"/><ellipse cx="2.785" cy="1.576" rx="2.785" ry="1.576" transform="translate(12.172 11.209) rotate(-53.051)" fill="url(#q)"/><path d="M0,3.629c0,1.157.939,1.553,2.1.886A4.347,4.347,0,0,0,4.19,1.21C4.19.054,3.252-.344,2.1.324A4.348,4.348,0,0,0,0,3.629Z" transform="translate(6.505 11.267)" fill="url(#r)"/><path d="M0,3.628c0,1.157.938,1.554,2.1.886A4.347,4.347,0,0,0,4.19,1.21C4.19.053,3.252-.343,2.1.324A4.344,4.344,0,0,0,0,3.628Z" transform="translate(0 15.022)" fill="url(#s)"/></g><path d="M0,3.629c0,1.157.938,1.553,2.095.886a4.347,4.347,0,0,0,2.094-3.3c0-1.158-.938-1.554-2.094-.886A4.347,4.347,0,0,0,0,3.629Z" transform="translate(0 22.171)" fill="url(#t)"/></g></g></g></g><g transform="translate(39.56 112.071)"><path d="M20.829,15.744,2.3,4.963A4.779,4.779,0,0,1,0,1.33H0C0,.059,1.031-.377,2.3.356L20.829,11.139a4.775,4.775,0,0,1,2.3,3.632h0C23.132,16.043,22.1,16.479,20.829,15.744Z" transform="translate(0 0)" fill="url(#u)"/><path d="M20.828,15.744,2.3,4.962A4.779,4.779,0,0,1,0,1.33H0C0,.058,1.031-.378,2.3.357L20.828,11.139a4.777,4.777,0,0,1,2.3,3.633h0C23.132,16.043,22.1,16.479,20.828,15.744Z" transform="translate(26.687 15.805)" fill="url(#u)"/></g><g transform="translate(5.568 2.547)"><path d="M117.759,2.73,105.018,9.586c-3.335,1.932-4.1,4.864-1.864,7.125h0c2.24,2.262,1.473,5.2-1.866,7.133L43.368,57.409a16.037,16.037,0,0,1-12.286,1.062h0A16.033,16.033,0,0,0,18.8,59.533L4.765,67.666c-6.084,3.525-6.382,9.118-.659,12.495L269.425,237.718c5.951,3.511,15.794,3.429,21.977-.185l117.354-67.874c6.159-3.6,6.286-9.334.288-12.8L141.678,2.411C135.909-.925,123.821-.781,117.759,2.73Z" transform="translate(0 0)" fill="#fff"/><path d="M38.218,1.95,3.344,22.156a3.073,3.073,0,0,1-2.8.037h0c-.751-.44-.715-1.171.083-1.633L35.49.358A3.084,3.084,0,0,1,38.3.318h0C39.048.758,39.013,1.488,38.218,1.95Z" transform="translate(39.717 29.045)" fill="url(#w)" style="mix-blend-mode:multiply;isolation:isolate"/><path d="M6.539.606c1.439.838,1.374,2.23-.145,3.111a5.888,5.888,0,0,1-5.356.076C-.4,2.956-.336,1.563,1.184.684A5.889,5.889,0,0,1,6.539.606Z" transform="translate(82.229 22.237)" fill="url(#x)" style="mix-blend-mode:multiply;isolation:isolate"/></g></g><path d="M18.937,9.468c0-.742-3.474-1.353-8-1.465-.111-4.528-.723-8-1.465-8S8.115,3.474,8,8c-4.53.112-8,.723-8,1.465s3.474,1.354,8,1.465c.111,4.53.722,8,1.465,8s1.353-3.474,1.465-8C15.463,10.822,18.937,10.211,18.937,9.468Z" transform="matrix(0.921, -0.391, 0.391, 0.921, 1148.455, 2014.759)" fill="url(#u)"/><path d="M18.937,9.468c0-.742-3.474-1.353-8-1.465-.111-4.528-.723-8-1.465-8S8.115,3.474,8,8c-4.53.112-8,.723-8,1.465s3.474,1.354,8,1.465c.111,4.53.722,8,1.465,8s1.353-3.474,1.465-8C15.463,10.822,18.937,10.211,18.937,9.468Z" transform="matrix(0.921, -0.391, 0.391, 0.921, 730.812, 2108.461)" fill="#2a2a2a" opacity="0.09"/><path d="M16.708,8.353c0-.655-3.065-1.194-7.06-1.293C9.55,3.065,9.009,0,8.355,0S7.16,3.065,7.062,7.06C3.065,7.16,0,7.7,0,8.353S3.065,9.548,7.062,9.646c.1,4,.637,7.062,1.293,7.062s1.193-3.065,1.293-7.062C13.643,9.548,16.708,9.009,16.708,8.353Z" transform="matrix(0.966, 0.259, -0.259, 0.966, 1035.899, 2440.294)" fill="#fff" opacity="0.14"/><circle cx="7" cy="7" r="7" transform="translate(935.14 2007.039)" fill="url(#u)"/><circle cx="3.5" cy="3.5" r="3.5" transform="translate(920.182 2429.076)" opacity="0.3" fill="url(#aa)"/><ellipse cx="3.5" cy="4" rx="3.5" ry="4" transform="translate(679.401 2196.619)" fill="#e8e8e8"/><g transform="matrix(0.99, -0.12, 0.12, 0.99, 523.97, 1985.01)" filter="url(#ab)"><path d="M436.991,276.039H392.349a8.608,8.608,0,0,0-8.44,8.766v45.014c5.785-11.352,12.952-10.827,12.952-10.827h40.13a8.608,8.608,0,0,0,8.441-8.765V284.806A8.609,8.609,0,0,0,436.991,276.039Z" transform="translate(282.93 -83.31) rotate(7)" fill="#fff"/></g><path d="M337.3,229.389c-.253,1.342-1.974,5.717-13.025,15.1h-1.179s-9-7.655-12.338-13.9a7.189,7.189,0,0,1-1.236-4.038,6.957,6.957,0,0,1,6.838-7.071,6.668,6.668,0,0,1,4.571,1.845,10.147,10.147,0,0,1,2.8,2.813h.907l.015-.032a6.838,6.838,0,0,1,6.394-4.626,6.957,6.957,0,0,1,6.838,7.071A7.232,7.232,0,0,1,337.3,229.389Z" transform="translate(887.748 1931.539)" fill="#ff6363" fill-rule="evenodd"/><g transform="matrix(0.99, -0.12, 0.12, 0.99, 523.97, 1985.01)" filter="url(#ad)"><path d="M9.539,0h39.4a9.541,9.541,0,0,1,9.54,9.54V58.527C51.935,46.172,43.837,46.744,43.837,46.744H9.539A9.539,9.539,0,0,1,0,37.205V9.54A9.54,9.54,0,0,1,9.539,0Z" transform="translate(333.24 302.42) rotate(-4)" fill="#fff"/></g><path d="M28.058,12.925a3.9,3.9,0,0,0-3.894-3.894H18.113V4.665a4.565,4.565,0,0,0-1.6-3.94,5,5,0,0,0-4.077-.5.686.686,0,0,0-.48.656V5.777c0,3.856-4.473,5.174-4.664,5.227a.645.645,0,0,0-.236.122,1.285,1.285,0,0,0-1.006-.488H1.288A1.291,1.291,0,0,0,0,11.927V25.346a1.291,1.291,0,0,0,1.288,1.288H6.035a1.281,1.281,0,0,0,1.113-.648,3.875,3.875,0,0,0,2.69,1.082H21.8c2.644,0,4.328-1.387,4.626-3.8l1.608-10.234a.241.241,0,0,0,.023-.107ZM25.07,23.067" transform="translate(907.694 2248.535) rotate(-11)" fill="#ff6363"/><g transform="translate(937.428 2105.302)"><g transform="translate(182.513 196.833)"><path d="M99.067,1138.838l4.178,7.879-4.756-2.954-4.906-1.6Z" transform="translate(-93.584 -1138.838)" fill="#cbcbcb"/></g><g transform="translate(169.423 199.407)"><path d="M89.856,1140.075a7.98,7.98,0,0,1,6.742,2.558c1.152,1.4,1.011,2.778-.179,3.491l-.565.239.311,1.373-1.724-1.115a8.126,8.126,0,0,1-5.992-2.626C86.974,1142.2,87.605,1140.448,89.856,1140.075Z" transform="translate(-87.652 -1140.005)" fill="#cbcbcb"/></g><g transform="translate(182.349 212.843)"><path d="M131.214,1146.093l4.418,5.363-37.713,6.257-4.409-5.353Z" transform="translate(-93.51 -1146.093)" fill="#cbcbcb"/></g><g transform="translate(171.663 219.283)"><path d="M90.374,1149.061c2.044-.34,5.12,1.112,6.874,3.242,1.772,2.136,1.527,4.137-.516,4.475s-5.129-1.11-6.883-3.239S88.322,1149.4,90.374,1149.061Z" transform="translate(-88.668 -1149.012)" fill="#7c56ff"/></g><g transform="translate(156.492 201.667)"><path d="M86.268,1141.053a4.6,4.6,0,0,1,3.621,1.785c2.063,2.5.87,5.01.291,5.352l-.179.031c-.927-.093-5.469-1.637-7.539-4.151-.958-1.163-.878-2.242.163-2.414a4.263,4.263,0,0,1,3.068,1.207C85.2,1141.946,85.408,1141.2,86.268,1141.053Z" transform="translate(-81.793 -1141.029)" fill="#fe2c71"/></g><g transform="translate(0)" style="isolation:isolate"><g transform="matrix(0.99, -0.12, 0.12, 0.99, -413.46, -120.29)" filter="url(#af)"><path d="M147.419,1049.647l181.074,219.718-136.529,22.68L156.078,1248.5l9.779-1.624,126.607-21.031L175.32,1083.52,38.787,1106.191l-27.906-33.862Zm-99.672,44.612c3.3-1.077,3.465-4.815.21-8.766-3.529-4.272-9.695-7.19-13.793-6.51-4.125.682-4.586,4.7-1.07,8.971a18.851,18.851,0,0,0,11.6,6.557l.241.022.249.016.256.008c.11,0,.19,0,.269,0s.161,0,.227,0l.077,0,.15-.007.086-.006.139-.011.084-.009.148-.015.071-.009c.073-.009.143-.02.214-.031l.212-.04.055-.011.15-.033.06-.016.15-.04c.1-.029.159-.046.216-.064m44.678-12.826-4.416-5.363L50.3,1082.335l4.409,5.354,37.713-6.256m142.927,186.422-4.416-5.363-37.7,6.265,4.409,5.354,37.711-6.256m-52.843-18.73c-2.251.373-2.884,2.123-1.406,3.919a8.126,8.126,0,0,0,5.992,2.626l1.724,1.115-.311-1.373.565-.239c1.189-.713,1.331-2.092.179-3.491a7.979,7.979,0,0,0-6.742-2.558m8.1,27.573c2.044-.338,2.289-2.34.516-4.476-1.754-2.13-4.831-3.582-6.874-3.242s-2.286,2.339-.525,4.477,4.84,3.58,6.883,3.24m8.269-30.216-5.484,3.328,4.906,1.6,4.756,2.955-4.178-7.879m97.722-6.854-6.8-8.252-6.292,1.044,6.806,8.249,1.525-2.483,4.758,1.441m-120.838,18.849c.578-.342,1.772-2.847-.291-5.352a4.6,4.6,0,0,0-3.621-1.785c-.861.141-1.07.894-.574,1.81a4.26,4.26,0,0,0-3.068-1.207c-1.042.172-1.121,1.251-.163,2.414,2.07,2.514,6.612,4.058,7.539,4.151l.179-.031m-22.389-188.886c.757-.124.834-.865.192-1.644a3.146,3.146,0,0,0-2.522-1.185c-.748.124-.834.856-.192,1.635a3.155,3.155,0,0,0,2.522,1.194m3.2,3.884c.757-.124.843-.856.2-1.635a3.146,3.146,0,0,0-2.531-1.194c-.748.126-.834.856-.183,1.644a3.124,3.124,0,0,0,2.514,1.185m-6.407-7.777c.746-.124.841-.856.2-1.636a3.177,3.177,0,0,0-2.531-1.194c-.748.124-.834.854-.185,1.644a3.138,3.138,0,0,0,2.516,1.185" transform="translate(512.84 -873.36) rotate(7)" fill="#fefefe"/></g><g transform="translate(272.629 181.728)"><path d="M140.71,1131.994l6.8,8.251-4.757-1.442-1.525,2.482-6.806-8.25Z" transform="translate(-134.419 -1131.994)" fill="#cbcbcb"/></g><g transform="translate(211.891 132.151)"><path d="M106.9,1109.529c.21.033.417.066.625.1l-.095.821A6.43,6.43,0,0,0,106.9,1109.529Z" transform="translate(-106.896 -1109.529)" fill="#311aa2"/></g><g transform="translate(160.789 33.878)"><path d="M87.372,1065l52.185,63.314-4.092,35.06c-.207-.035-.415-.069-.625-.1a9.319,9.319,0,0,0-1.046-1.258c-3.613-3.681-10.78-6-16.957-7.532-5.1-1.267-10.171-2.353-15.185-3.253l-4.946-12.956c-.04-.188-.082-.378-.128-.567l-.386-1.373a8.038,8.038,0,0,0,2.494.02c2.392-.4,3.626-2.112,2.911-4.654a12.812,12.812,0,0,0-4.718-6.093c1.3-6.612-3.981-21.566-11.771-28.336q-.662-.576-1.368-1.139Z" transform="translate(-83.74 -1064.998)" fill="#eee"/></g><g transform="translate(164.421 33.878)"><path d="M85.386,1065,202.68,1207.3l-14.36-17.407c-14.965-12.175-32.619-22.877-54.84-26.52l4.091-35.06Z" transform="translate(-85.386 -1064.998)" fill="#ececec"/></g><g transform="translate(211.864 133.073)"><path d="M106.884,1114.7l.556-4.751A4.459,4.459,0,0,1,106.884,1114.7Z" transform="translate(-106.884 -1109.947)" fill="#180d4d"/></g><g transform="translate(158.357 65.009)"><path d="M85.07,1079.1q.705.563,1.368,1.139c7.79,6.77,13.073,21.724,11.771,28.336a3.861,3.861,0,0,1-1.913,3,2.157,2.157,0,0,1-.554.166,2.454,2.454,0,0,1-.34.035c-2.275.084-5.537-2.443-7.042-4.511-1.732-2.388-2.858-5.309-5.722-7.314Z" transform="translate(-82.638 -1079.105)" fill="#7e6cbc"/></g><g transform="translate(171.121 94.484)"><path d="M91.229,1092.461a12.815,12.815,0,0,1,4.718,6.093c.715,2.542-.519,4.259-2.911,4.655a8.047,8.047,0,0,1-2.494-.02l-2.121-7.525a2.511,2.511,0,0,0,.34-.035,2.152,2.152,0,0,0,.554-.166A3.861,3.861,0,0,0,91.229,1092.461Z" transform="translate(-88.422 -1092.461)" fill="#f5b7a4"/></g><g transform="translate(155.51 100.8)"><path d="M82.454,1095.323l4.451,1.053c.677,4.234-1.3,7.724-5.557,8.43Z" transform="translate(-81.348 -1095.323)" fill="#fefefe"/></g><g transform="translate(101.417 47.123)"><path d="M62.624,1071.337a39.334,39.334,0,0,1,11.414.188c11.758,1.741,30.867,8.328,42.171,17.361l-2.432,20.853a10.68,10.68,0,0,0-1.3-.777,8.38,8.38,0,0,0-5.279-.837,9.244,9.244,0,0,0-1.428.355,10.633,10.633,0,0,1-1.66.417,11.86,11.86,0,0,1-8.059-1.785c-3.875-2.238-7.141-5.563-11.268-7.232a25.5,25.5,0,0,0-7.556-1.483,21.148,21.148,0,0,1-5.581-1.2c-3.445-1.313-6.835-4.279-6.312-6.618a7.8,7.8,0,0,1,1.671-2.686c1.026-1.47,1.161-3.654-1.962-5.9-3.522-2.542-10.127-5.628-7.675-8.353C58.451,1072.432,60.351,1071.713,62.624,1071.337Z" transform="translate(-56.836 -1071)" fill="#7e6cbc"/></g><g transform="translate(135.637 95.837)"><path d="M72.343,1093.074l20.978,4.963-1.108,9.483a13.182,13.182,0,0,1-5.583-.444A21.088,21.088,0,0,1,72.343,1093.074Z" transform="translate(-72.343 -1093.074)" fill="#fefefe"/></g><g transform="translate(154.493 85.862)"><path d="M84.751,1088.554c2.864,2,3.99,4.926,5.722,7.313,1.505,2.068,4.767,4.595,7.042,4.511l2.121,7.526.386,1.372c.046.19.088.38.128.567a11.956,11.956,0,0,1-.082,6.027,8.022,8.022,0,0,1-1.765,3.078,12.252,12.252,0,0,1-7.1,3.443,24.54,24.54,0,0,1-10.313-.715l1.015-8.7c4.264-.706,6.237-4.2,5.559-8.43l-4.451-1.053Z" transform="translate(-80.887 -1088.554)" fill="#ffcabb"/></g><g transform="translate(119.789 80.705)"><path d="M68.272,1086.29c.21-.033.428-.057.653-.073a75.891,75.891,0,0,0,3.112,12.122c-3.233-1.867-5.923-4.729-6.671-7.4C64.646,1088.4,65.876,1086.687,68.272,1086.29Z" transform="translate(-65.161 -1086.217)" fill="#f5b7a4"/></g><g transform="translate(151.712 118.089)"><path d="M79.627,1103.157c.936.349,1.865.647,2.781.9l-.417,3.58Z" transform="translate(-79.627 -1103.157)" fill="#f5b7a4"/></g><g transform="translate(151.668 118.071)"><path d="M79.607,1103.149l.044.017,2.364,4.476,0,.031Z" transform="translate(-79.607 -1103.149)" fill="#fe9c7f"/></g><g transform="translate(154.072 122.563)"><path d="M80.7,1105.217l0-.032,3.338,6.318Z" transform="translate(-80.697 -1105.185)" fill="#fea68c"/></g><g transform="translate(154.076 113.178)"><path d="M100.3,1100.932c2.8,7.849-.3,14.638-8.554,16.006a23.456,23.456,0,0,1-7.616-.132l-.09-.17-3.339-6.318.417-3.58a24.542,24.542,0,0,0,10.313.715,12.253,12.253,0,0,0,7.1-3.443A8.024,8.024,0,0,0,100.3,1100.932Z" transform="translate(-80.698 -1100.932)" fill="#f5b7a4"/></g><g transform="translate(121.809 74.521)"><path d="M66.077,1083.415a25.5,25.5,0,0,1,7.556,1.483c4.127,1.668,7.393,4.994,11.268,7.232a11.861,11.861,0,0,0,8.059,1.785,10.674,10.674,0,0,0,1.66-.417,9.273,9.273,0,0,1,1.428-.356,8.384,8.384,0,0,1,5.279.837,10.7,10.7,0,0,1,1.3.777l-1.741,14.938-20.978-4.963a21.089,21.089,0,0,0,14.287,14,13.187,13.187,0,0,0,5.583.443l-1.015,8.7c-.916-.249-1.845-.547-2.781-.9-.9-.338-1.759-.7-2.62-1.108a37.12,37.12,0,0,1-5.451-3.178c-9.858-6.916-14.477-14.3-16.977-20.976A75.879,75.879,0,0,1,67.82,1089.6a33.316,33.316,0,0,0-1.393-5.276Q66.249,1083.859,66.077,1083.415Z" transform="translate(-66.077 -1083.415)" fill="#ffcabb"/></g><g transform="translate(152.242 120.108)"><path d="M81.7,1106.559l3.341,6.287.09.17,1.39,2.615c3.244,6.1,11.52,11.637,18.478,12.343a12.127,12.127,0,0,0,3.173-.064c4.615-.766,6.239-4.643,3.542-9.719l-5.387-14.119c5.014.9,10.09,1.986,15.188,3.253,6.175,1.531,13.343,3.851,16.955,7.532a9.323,9.323,0,0,1,1.046,1.258,6.432,6.432,0,0,1,.53.923l-.556,4.751a10.858,10.858,0,0,1-3.039,2.679,51.313,51.313,0,0,1-18.476,7.031,43.342,43.342,0,0,1-15.183-.124c-6.122-1.149-14.848-4.687-22.925-9.121Z" transform="translate(-79.867 -1104.072)" fill="#30265f"/></g><g transform="translate(157.505 107.152)"><path d="M98.422,1104.227a11.955,11.955,0,0,0,.082-6.027l4.946,12.956,5.387,14.12c2.7,5.076,1.073,8.953-3.544,9.719a12.162,12.162,0,0,1-3.171.064c-6.958-.706-15.234-6.239-18.478-12.343l-1.39-2.615a23.464,23.464,0,0,0,7.616.133C98.126,1118.865,101.224,1112.078,98.422,1104.227Z" transform="translate(-82.252 -1098.201)" fill="#ffcabb"/></g><g transform="translate(39.422 26.422)"><path d="M66.449,1061.62l4.418,5.363-37.713,6.258-4.409-5.353Z" transform="translate(-28.744 -1061.62)" fill="#cbcbcb"/></g><g transform="translate(131.344 116.931)"><path d="M81.064,1102.664q3.476-.073,7.082.017,1.291.61,2.575,1.091l2.405,4.524-1.832,15.7c-7.929-4.352-15.234-9.564-18.838-14.228a13.236,13.236,0,0,1-1.885-3.167c-.8-2.028,1.256-3,4.125-3.474A47.1,47.1,0,0,1,81.064,1102.664Z" transform="translate(-70.398 -1102.632)" fill="#180d4d"/></g><g transform="translate(37.543 44.183)"><path d="M27.893,1069.815c.093-.048.181-.1.265-.148C28.072,1069.719,27.986,1069.767,27.893,1069.815Z" transform="translate(-27.893 -1069.668)" fill="#666"/></g><g transform="translate(37.249 44.347)"><path d="M27.76,1069.861c.09-.038.179-.078.263-.119C27.939,1069.784,27.85,1069.824,27.76,1069.861Z" transform="translate(-27.76 -1069.742)" fill="#666"/></g><g transform="translate(36.879 44.488)"><path d="M27.916,1069.806q-.159.063-.324.119Q27.758,1069.869,27.916,1069.806Z" transform="translate(-27.592 -1069.806)" fill="#666"/></g><g transform="translate(27.506 39.092)"><path d="M27.267,1067.469a14.738,14.738,0,0,1,7.971,1.514,3.472,3.472,0,0,1-2.52,3.893l-.188.057-.042.011-.15.04-.06.016-.15.033-.055.011-.21.04c-.073.011-.143.022-.216.031l-.071.009-.148.018-.084.007-.139.011-.086.006-.15.007-.077,0c-.066,0-.135,0-.2,0-.106,0-.185,0-.265,0l-.245-.006-.042,0-.207-.013-.042,0-.234-.02a16.405,16.405,0,0,1-6.312-2.18,4.281,4.281,0,0,1,3.888-3.478Z" transform="translate(-23.345 -1067.36)" fill="#fff"/></g><g transform="translate(19.852 29.239)"><path d="M37.1,1069.5c2.911,3.533,3.087,6.894.737,8.333a3.451,3.451,0,0,0,1.587-3.465,14.734,14.734,0,0,0-7.971-1.514,4.3,4.3,0,0,0-3.922,3.484,16.356,16.356,0,0,0,6.3,2.178,18.85,18.85,0,0,1-11.6-6.556c-3.516-4.268-3.054-8.289,1.053-8.968S33.571,1065.23,37.1,1069.5Zm-6.4,2.481c1.543-.256,1.721-1.775.388-3.392s-3.661-2.708-5.2-2.454-1.737,1.768-.406,3.383,3.67,2.721,5.221,2.463" transform="translate(-19.876 -1062.896)" fill="#7c56ff"/></g><g transform="translate(24.569 32.444)"><path d="M23.309,1064.385c1.543-.253,3.873.839,5.2,2.454s1.154,3.138-.388,3.392-3.888-.845-5.221-2.463S21.758,1064.643,23.309,1064.385Z" transform="translate(-22.014 -1064.348)" fill="#fff"/></g><g transform="translate(27.892 33.878)"><path d="M23.52,1087.667,160.049,1065l-3.632,31.132c-11.3-9.033-30.413-15.62-42.171-17.363a39.414,39.414,0,0,0-11.414-.186c-2.273.375-4.173,1.095-5.255,2.3-2.452,2.725,4.153,5.811,7.675,8.353,3.123,2.249,2.988,4.434,1.962,5.9a7.8,7.8,0,0,0-1.671,2.686c-.523,2.339,2.867,5.305,6.312,6.618a21.24,21.24,0,0,0,5.581,1.2q.172.443.351.907a33.335,33.335,0,0,1,1.393,5.277c-.225.015-.444.04-.653.073-2.4.4-3.626,2.114-2.906,4.654.748,2.664,3.438,5.528,6.671,7.4,2.5,6.675,7.119,14.06,16.977,20.976a37.1,37.1,0,0,0,5.451,3.178q-3.6-.089-7.082-.018a47.08,47.08,0,0,0-6.367.459c-2.869.477-4.928,1.446-4.125,3.474a13.234,13.234,0,0,0,1.885,3.167c-27.963-9.081-53.953-19.615-80.5-37.172Z" transform="translate(-23.52 -1064.998)" fill="#ececec"/></g><g transform="translate(154.978 132.252)"><path d="M193.484,1136.094l14.349,17.41L81.107,1174.56l50.941-8.47,5.945-50.943a4.459,4.459,0,0,0,.556-4.751l.095-.821C160.865,1113.218,178.52,1123.92,193.484,1136.094Z" transform="translate(-81.107 -1109.575)" fill="#1a0098"/></g><g transform="translate(147.082 137.824)"><path d="M120.8,1121.81a51.311,51.311,0,0,0,18.476-7.031,10.855,10.855,0,0,0,3.039-2.679l-5.945,50.943-50.943,8.466-7.894-14.7,5.16-44.241c8.077,4.433,16.8,7.971,22.925,9.121A43.354,43.354,0,0,0,120.8,1121.81Z" transform="translate(-77.529 -1112.1)" fill="#311aa2"/></g><g transform="translate(52.872 86.87)"><path d="M129.049,1184.671l-11.306-21.056c-5.866-1.562-26.972-7.366-27.617-7.541l-55.288-67.064c26.579,17.577,52.569,28.111,80.457,37.11,3.679,4.745,10.984,9.957,18.913,14.309Z" transform="translate(-34.839 -1089.011)" fill="#1a0098"/></g><g transform="translate(108.16 153.935)"><path d="M96.91,1164.316,59.892,1119.4c.644.174,21.751,5.979,27.617,7.541L98.814,1148Z" transform="translate(-59.892 -1119.4)" fill="#ececec"/></g><g transform="translate(145.186 182.53)"><path d="M76.67,1148.687l1.9-16.329,7.894,14.7Z" transform="translate(-76.67 -1132.358)" fill="#eee"/></g><g transform="translate(145.176 198.85)"><path d="M76.667,1139.753l.008.01-.009,0Z" transform="translate(-76.665 -1139.753)" fill="gray" opacity="0.102"/></g></g><g transform="translate(139.539 17.094)"><path d="M74.733,1057.411a3.152,3.152,0,0,1,2.525,1.185c.64.779.563,1.521-.194,1.644a3.154,3.154,0,0,1-2.522-1.194C73.9,1058.267,73.985,1057.536,74.733,1057.411Z" transform="translate(-74.111 -1057.393)" fill="#cbcbcb"/></g><g transform="translate(136.333 13.201)"><path d="M73.28,1055.647a3.176,3.176,0,0,1,2.531,1.194c.64.779.545,1.511-.2,1.635a3.136,3.136,0,0,1-2.516-1.185C72.446,1056.5,72.532,1055.77,73.28,1055.647Z" transform="translate(-72.658 -1055.629)" fill="#cbcbcb"/></g><g transform="translate(142.74 20.978)"><path d="M76.183,1059.171a3.141,3.141,0,0,1,2.531,1.2c.642.777.556,1.51-.2,1.635A3.132,3.132,0,0,1,76,1060.814C75.348,1060.027,75.435,1059.3,76.183,1059.171Z" transform="translate(-75.562 -1059.153)" fill="#cbcbcb"/></g></g></g></svg>