<svg id="组件_25_1" data-name="组件 25 – 1" xmlns="http://www.w3.org/2000/svg" width="660" height="240.054" viewBox="0 0 660 240.054">
  <g id="组_4358" data-name="组 4358" transform="translate(-42 -145.067)">
    <g id="gift_box" data-name="gift box" transform="matrix(0.998, -0.07, 0.07, 0.998, -641.111, 147.166)">
      <rect id="矩形_854" data-name="矩形 854" width="24.315" height="70.036" transform="translate(987.34 112.44)" fill="#ffa412"/>
      <rect id="矩形_855" data-name="矩形 855" width="64.237" height="70.036" transform="translate(923.103 112.44)" fill="#ffb93e"/>
      <rect id="矩形_856" data-name="矩形 856" width="4.902" height="64.237" transform="translate(987.34 146.701) rotate(90)" fill="#ffa412"/>
      <rect id="矩形_857" data-name="矩形 857" width="4.902" height="24.315" transform="translate(1011.655 146.701) rotate(90)" fill="#fa9712"/>
      <path id="路径_12738" data-name="路径 12738" d="M1579.841,611.946s14.512-9.43,24.377-6.4l-2.035,1.9.917,3.194a36.157,36.157,0,0,0-23.56,1.843Z" transform="translate(-612.448 -498.755)" fill="#f99746"/>
      <path id="路径_12739" data-name="路径 12739" d="M1036.481,238.608s-2.561-.309-6.377-.834c-10.132-1.394-29.109-4.309-32.516-7.007-5.352-4.238,7.331-22.239,12.82-24.738S1036.481,238.608,1036.481,238.608Z" transform="translate(-69.9 -127.553)" fill="#f99746"/>
      <path id="路径_12740" data-name="路径 12740" d="M1607.336,88.639c.915,4.46-40.529,23.725-40.529,23.725s.754-2.038,1.981-5.231l0-.005c4.481-11.66,15.275-38.718,18.822-38.343a4.3,4.3,0,0,1,1.239.368C1594.3,71.55,1606.493,84.532,1607.336,88.639Z" transform="translate(-600.603 0)" fill="#f99746"/>
      <path id="路径_12741" data-name="路径 12741" d="M1614.955,73.119c-2.531,4.4-19.446,33.555-19.711,34.009,4.481-11.66,15.275-38.718,18.822-38.343a2.255,2.255,0,0,1,1.239.368C1615.951,69.624,1616.352,70.691,1614.955,73.119Z" transform="translate(-627.056 0)" fill="#ed7d2b"/>
      <path id="路径_12742" data-name="路径 12742" d="M1042.76,502.677h-.007c-10.132-1.394-29.109-4.309-32.516-7.007-1.538-4.332,2.453-4.685,5.357-4.99S1042.76,502.677,1042.76,502.677Z" transform="translate(-82.549 -392.457)" fill="#ed7d2b"/>
      <path id="路径_12743" data-name="路径 12743" d="M1461.429,619.925s2.323-5.285,6.9-5.578c4.776-.306,7.488,5.578,7.488,5.578Z" transform="translate(-502.577 -507.49)" fill="#ed7d2b"/>
      <rect id="矩形_858" data-name="矩形 858" width="67.215" height="9.633" transform="translate(921.155 112.44)" fill="#ffc261"/>
      <rect id="矩形_859" data-name="矩形 859" width="25.334" height="9.633" transform="translate(988.371 112.44)" fill="#fa9712"/>
      <path id="路径_12744" data-name="路径 12744" d="M1072.7,651.558s-13.165-4.17-22.048-1.413c-10.24,3.178-9.633,15.813-9.633,15.813l2.408-.99,3.251,1.525s.548-13.379,8.9-15.252C1062.792,649.621,1072.7,651.558,1072.7,651.558Z" transform="translate(-111.492 -539.924)" fill="#f99746"/>
      <rect id="矩形_860" data-name="矩形 860" width="4.902" height="70.029" transform="translate(949.55 112.44)" fill="#ffa412"/>
    </g>
    <g id="gift_box-2" data-name="gift box" transform="matrix(0.951, 0.309, -0.309, 0.951, -461.1, -178.756)">
      <rect id="矩形_854-2" data-name="矩形 854" width="15.619" height="44.988" transform="translate(963.67 96.826)" fill="#ffa412"/>
      <rect id="矩形_855-2" data-name="矩形 855" width="41.263" height="44.988" transform="translate(922.406 96.826)" fill="#ffb93e"/>
      <rect id="矩形_856-2" data-name="矩形 856" width="3.149" height="41.263" transform="translate(963.67 118.834) rotate(90)" fill="#ffa412"/>
      <rect id="矩形_857-2" data-name="矩形 857" width="3.149" height="15.619" transform="translate(979.289 118.834) rotate(90)" fill="#fa9712"/>
      <path id="路径_12738-2" data-name="路径 12738" d="M1579.734,609.443s9.322-6.058,15.659-4.111l-1.307,1.221.589,2.052a23.226,23.226,0,0,0-15.134,1.184Z" transform="translate(-628.877 -512.135)" fill="#f99746"/>
      <path id="路径_12739-2" data-name="路径 12739" d="M1022.11,226.911s-1.645-.2-4.1-.536c-6.508-.9-18.7-2.768-20.887-4.5-3.438-2.723,4.709-14.286,8.235-15.891S1022.11,226.911,1022.11,226.911Z" transform="translate(-71.775 -130.975)" fill="#f99746"/>
      <path id="路径_12740-2" data-name="路径 12740" d="M1592.841,81.537c.588,2.865-26.034,15.24-26.034,15.24s.485-1.309,1.272-3.36l0,0c2.878-7.49,9.812-24.871,12.09-24.63a2.762,2.762,0,0,1,.8.237C1584.467,70.56,1592.3,78.9,1592.841,81.537Z" transform="translate(-616.714 0)" fill="#f99746"/>
      <path id="路径_12741-2" data-name="路径 12741" d="M1607.905,71.567c-1.626,2.824-12.491,21.554-12.661,21.846,2.878-7.49,9.812-24.871,12.09-24.63a1.448,1.448,0,0,1,.8.237C1608.545,69.323,1608.8,70.008,1607.905,71.567Z" transform="translate(-643.877 0)" fill="#ed7d2b"/>
      <path id="路径_12742-2" data-name="路径 12742" d="M1031.006,498.385h0c-6.508-.9-18.7-2.768-20.887-4.5-.988-2.783,1.576-3.01,3.441-3.206S1031.006,498.385,1031.006,498.385Z" transform="translate(-84.763 -402.984)" fill="#ed7d2b"/>
      <path id="路径_12743-2" data-name="路径 12743" d="M1461.429,617.926s1.492-3.4,4.43-3.583c3.068-.2,4.81,3.583,4.81,3.583Z" transform="translate(-516.059 -521.104)" fill="#ed7d2b"/>
      <rect id="矩形_858-2" data-name="矩形 858" width="43.176" height="6.188" transform="translate(921.155 96.826)" fill="#ffc261"/>
      <rect id="矩形_859-2" data-name="矩形 859" width="16.274" height="6.188" transform="translate(964.332 96.826)" fill="#fa9712"/>
      <path id="路径_12744-2" data-name="路径 12744" d="M1061.365,650.715s-8.457-2.679-14.163-.908c-6.577,2.041-6.188,10.157-6.188,10.157l1.547-.636,2.088.98s.352-8.594,5.715-9.8C1055,649.471,1061.365,650.715,1061.365,650.715Z" transform="translate(-114.483 -554.407)" fill="#f99746"/>
      <rect id="矩形_860-2" data-name="矩形 860" width="3.149" height="44.984" transform="translate(939.395 96.826)" fill="#ffa412"/>
    </g>
    <path id="路径_12772" data-name="路径 12772" d="M42,339v28.383s161.349,22.023,354.443,16.99,305.043-23.281,305.043-23.281V327.756Z" fill="#ffc358" opacity="0.39"/>
    <path id="路径_12745" data-name="路径 12745" d="M40,0H620a40,40,0,0,1,40,40v82c0,22.091-660,22.091-660,0V40A40,40,0,0,1,40,0Z" transform="translate(42 238)" fill="#ffc358"/>
  </g>
  <g id="组_4314" data-name="组 4314" transform="translate(-1082.531 -4.795)">
    <g id="组_4309" data-name="组 4309" transform="translate(1620.287 105.662)">
      <path id="路径_12759" data-name="路径 12759" d="M2588.717,239.754a14.377,14.377,0,0,1-4.867-7.286c-.741-3.239,1.118-7.3,1.27-7.489l-5.184-1.033S2578.4,230.826,2581,235.4a13.117,13.117,0,0,0,4.594,4.052A4.477,4.477,0,0,0,2588.717,239.754Z" transform="translate(-2579.485 -223.947)" fill="#6bb7bf"/>
      <path id="路径_12760" data-name="路径 12760" d="M2601.266,258.08l4.716,5.4s-13.33,3.54-20.95-5.891C2585.031,257.585,2596.253,261.38,2601.266,258.08Z" transform="translate(-2583.026 -245.427)" fill="#86d1cd"/>
    </g>
    <g id="组_4310" data-name="组 4310" transform="translate(1574.725 42.592)">
      <path id="路径_12761" data-name="路径 12761" d="M1955.258,54.352s4.008-6.651,11.077-2.581l3.873-4.214s-4.046-2.679-12.6,3.147C1952.008,54.515,1955.258,54.352,1955.258,54.352Z" transform="translate(-1951.254 -46.942)" fill="#f99746"/>
      <path id="路径_12762" data-name="路径 12762" d="M1944.179,63.971s-1.347-7.25,10.589-12.6c0,0-4.282,2.428-5.176,9.8Z" transform="translate(-1944.134 -50.038)" fill="#f99746"/>
    </g>
    <g id="组_4311" data-name="组 4311" transform="translate(1221.763 127.145)">
      <path id="路径_12763" data-name="路径 12763" d="M1116.677,760.4s-6.826-2.689-4.146-9.915L1108,747.537s-1.86,4.19,4.912,11.247C1117.34,763.4,1116.677,760.4,1116.677,760.4Z" transform="translate(-1107.763 -747.537)" fill="#5685d8"/>
      <path id="路径_12764" data-name="路径 12764" d="M1128.225,779.818s-6.543,2.393-13.4-7.886c0,0,2.935,3.608,9.943,3.282Z" transform="translate(-1112.612 -764.292)" fill="#739af0"/>
    </g>
    <path id="路径_12765" data-name="路径 12765" d="M1199.043,477.022s5.351-3.38,5.914-7.463c0,0,5.21.282,6.337,1.971,0,0-2.394,6.759-5.21,8.026C1206.083,479.556,1199.747,479.979,1199.043,477.022Z" transform="translate(-35.685 -393.665)" fill="#f1a34f"/>
    <path id="路径_12766" data-name="路径 12766" d="M1822.01,304.376s-6.794-4.291-7.509-9.476c0,0-6.616.358-8.046,2.5,0,0,3.04,8.582,6.615,10.191C1813.07,307.594,1821.116,308.131,1822.01,304.376Z" transform="translate(-333.96 -159.476)" fill="#8c07ff"/>
    <g id="组_4312" data-name="组 4312" transform="translate(1140.534 124.361)">
      <path id="路径_12767" data-name="路径 12767" d="M1847.99,928.675a13.229,13.229,0,0,1-7.784,2.1c-3.042-.306-6.04-3.123-6.156-3.31l-2.425,4.216s5.546,3.362,10.3,2.441a12.078,12.078,0,0,0,4.885-2.813A4.121,4.121,0,0,0,1847.99,928.675Z" transform="translate(-1831.625 -917.37)" fill="#b45eff"/>
      <path id="路径_12768" data-name="路径 12768" d="M1875.979,894.248l6.092-2.524s-.836,12.664-11.3,16.533C1870.772,908.257,1877.383,899.588,1875.979,894.248Z" transform="translate(-1859.715 -891.724)" fill="#8c07ff"/>
    </g>
    <g id="组_4313" data-name="组 4313" transform="translate(1700.364 173.73) rotate(-115)">
      <path id="路径_12769" data-name="路径 12769" d="M1880.726,1259.428s-3.137-3.808-3.091-8.363c.033-3.381,2.836-6.964,3.03-7.111l-4.886-2.249s-3.148,6.444-1.658,11.586a13.351,13.351,0,0,0,3.587,5.1A4.559,4.559,0,0,0,1880.726,1259.428Z" transform="translate(-1873.72 -1241.705)" fill="#8c07ff"/>
      <path id="路径_12770" data-name="路径 12770" d="M1891.622,1279.754l3.39,6.457s-14.031.347-19.339-10.791C1875.673,1275.42,1885.881,1281.833,1891.622,1279.754Z" transform="translate(-1874.955 -1263.02)" fill="#8c07ff"/>
    </g>
  </g>
</svg>
