<svg id="组件_22_1" data-name="组件 22 – 1" xmlns="http://www.w3.org/2000/svg" xmlns:xlink="http://www.w3.org/1999/xlink" width="220.715" height="186" viewBox="0 0 220.715 186">
  <defs>
    <linearGradient id="linear-gradient" x1="0.638" y1="2.449" x2="0.5" y2="-0.607" gradientUnits="objectBoundingBox">
      <stop offset="0" stop-color="#111ec5"/>
      <stop offset="0.941" stop-color="#ad34d8"/>
      <stop offset="1" stop-color="#6166ff"/>
    </linearGradient>
    <linearGradient id="linear-gradient-2" x1="0.5" x2="0.5" y2="1" gradientUnits="objectBoundingBox">
      <stop offset="0" stop-color="#ac3efe"/>
      <stop offset="1" stop-color="#6c7ffe"/>
    </linearGradient>
    <filter id="路径_12818" x="21.612" y="32.797" width="120.223" height="120.223" filterUnits="userSpaceOnUse">
      <feOffset dy="6" input="SourceAlpha"/>
      <feGaussianBlur stdDeviation="6" result="blur"/>
      <feFlood flood-color="#535353" flood-opacity="0.329"/>
      <feComposite operator="in" in2="blur"/>
      <feComposite in="SourceGraphic"/>
    </filter>
    <linearGradient id="linear-gradient-3" x1="0.5" x2="0.5" y2="1" gradientUnits="objectBoundingBox">
      <stop offset="0" stop-color="#8763fe"/>
      <stop offset="1" stop-color="#680adc"/>
    </linearGradient>
    <filter id="路径_12817" x="66.062" y="73.059" width="31.334" height="31.335" filterUnits="userSpaceOnUse">
      <feOffset dy="2" input="SourceAlpha"/>
      <feGaussianBlur stdDeviation="2" result="blur-2"/>
      <feFlood flood-color="#7e2e00" flood-opacity="0.31"/>
      <feComposite operator="in" in2="blur-2"/>
      <feComposite in="SourceGraphic"/>
    </filter>
    <radialGradient id="radial-gradient" cx="0.5" cy="0.5" r="0.5" gradientUnits="objectBoundingBox">
      <stop offset="0" stop-color="#fff"/>
      <stop offset="1" stop-color="#fceaa0"/>
    </radialGradient>
    <filter id="联合_19" x="73.268" y="81.07" width="16.276" height="12.238" filterUnits="userSpaceOnUse">
      <feOffset dy="1" input="SourceAlpha"/>
      <feGaussianBlur stdDeviation="1" result="blur-3"/>
      <feFlood flood-opacity="0.161"/>
      <feComposite operator="in" in2="blur-3"/>
      <feComposite in="SourceGraphic"/>
    </filter>
    <linearGradient id="linear-gradient-4" x1="-0.023" y1="0.5" x2="0.955" y2="0.594" gradientUnits="objectBoundingBox">
      <stop offset="0" stop-color="#fecb48"/>
      <stop offset="1" stop-color="#f4e2ff" stop-opacity="0"/>
    </linearGradient>
    <filter id="路径_12785" x="157.715" y="139" width="42" height="42" filterUnits="userSpaceOnUse">
      <feOffset dy="4" input="SourceAlpha"/>
      <feGaussianBlur stdDeviation="3" result="blur-4"/>
      <feFlood flood-color="#67573b" flood-opacity="0.431"/>
      <feComposite operator="in" in2="blur-4"/>
      <feComposite in="SourceGraphic"/>
    </filter>
  </defs>
  <g id="小转盘" transform="translate(-330.42 -460.783)">
    <path id="路径_12798" data-name="路径 12798" d="M724.5,518.454a1.56,1.56,0,0,0-1.815,2.538,47.014,47.014,0,0,1,15.324,18.481,1.559,1.559,0,0,0,1.416.9,1.528,1.528,0,0,0,.655-.145,1.56,1.56,0,0,0,.761-2.07A50.188,50.188,0,0,0,724.5,518.454Z" transform="translate(-283.372 -11.401)" fill="#a85af8"/>
    <path id="路径_12799" data-name="路径 12799" d="M762.9,512.844a1.56,1.56,0,1,0,2.4-1.992l-.05-.057a56.321,56.321,0,0,0-6.593-6.417,1.56,1.56,0,0,0-2.035,2.364l.05.041A53.68,53.68,0,0,1,762.9,512.844Z" transform="translate(-310.788 0)" fill="#a859f7"/>
    <path id="路径_12800" data-name="路径 12800" d="M810.716,560.821a1.56,1.56,0,0,0-2.556,1.787l.412.6a1.56,1.56,0,0,0,2.586-1.745h0Z" transform="translate(-352.491 -45.217)" fill="#a445fe"/>
    <path id="路径_12801" data-name="路径 12801" d="M496.66,928.1h39.77l6.628,16.646H490.032Z" transform="translate(-104.402 -343.869)" fill="url(#linear-gradient)"/>
    <g transform="matrix(1, 0, 0, 1, 330.42, 460.78)" filter="url(#路径_12818)">
      <path id="路径_12818-2" data-name="路径 12818" d="M42.111,0A42.111,42.111,0,1,1,0,42.111,42.111,42.111,0,0,1,42.111,0Z" transform="translate(39.61 44.8)" fill="url(#linear-gradient-2)"/>
    </g>
    <path id="路径_12802" data-name="路径 12802" d="M462.935,546.785a42.1,42.1,0,0,1-58.223,58.223,42.111,42.111,0,1,0,58.223-58.223Z" transform="translate(-27.919 -34.444)" fill="#7f44f5"/>
    <circle id="椭圆_264" data-name="椭圆 264" cx="35.873" cy="35.873" r="35.873" transform="translate(376.271 511.819)" fill="#ffd33f"/>
    <path id="路径_12803" data-name="路径 12803" d="M543.044,546.832a35.936,35.936,0,0,0-27.46,0l13.735,33.146Z" transform="translate(-117.175 -32.286)" fill="#ffc888"/>
    <path id="路径_12804" data-name="路径 12804" d="M435.437,558.089a36,36,0,0,0-19.421,19.421l33.146,13.725Z" transform="translate(-37.019 -43.544)" fill="#feda9b"/>
    <path id="路径_12805" data-name="路径 12805" d="M404.759,657.705a35.932,35.932,0,0,0,0,27.458L437.9,671.43Z" transform="translate(-25.761 -123.739)" fill="#ffc888"/>
    <path id="路径_12806" data-name="路径 12806" d="M619.178,657.666l-33.146,13.725,33.146,13.725a35.936,35.936,0,0,0,0-27.46Z" transform="translate(-173.889 -123.7)" fill="#ffc888"/>
    <path id="路径_12807" data-name="路径 12807" d="M715.551,657.666l-3.512,1.452a41.893,41.893,0,0,1-6.295,21.943l9.807,4.055a35.936,35.936,0,0,0,0-27.46Z" transform="translate(-270.261 -123.7)" fill="#f6ba74"/>
    <path id="路径_12808" data-name="路径 12808" d="M619.178,577.51a35.995,35.995,0,0,0-19.421-19.421l-13.725,33.146Z" transform="translate(-173.889 -43.544)" fill="#feda9b"/>
    <path id="路径_12809" data-name="路径 12809" d="M737.493,625.587A35.782,35.782,0,0,0,733,617.809a42.236,42.236,0,0,1,.981,9.026v.2Z" transform="translate(-292.204 -91.621)" fill="#f5cb83"/>
    <path id="路径_12810" data-name="路径 12810" d="M515.632,761.251a35.934,35.934,0,0,0,27.46,0L529.357,728.1Z" transform="translate(-117.214 -180.413)" fill="#ffc888"/>
    <path id="路径_12811" data-name="路径 12811" d="M517.084,854.112l-1.452,3.512a35.934,35.934,0,0,0,27.46,0l-4.055-9.807a41.892,41.892,0,0,1-21.953,6.295Z" transform="translate(-117.214 -276.786)" fill="#f6ba74"/>
    <path id="路径_12812" data-name="路径 12812" d="M599.757,761.251a35.993,35.993,0,0,0,19.421-19.421L586.032,728.1Z" transform="translate(-173.889 -180.413)" fill="#feda9b"/>
    <path id="路径_12813" data-name="路径 12813" d="M649.3,777.705a42.285,42.285,0,0,1-13.669,13.669l4.055,9.807a35.994,35.994,0,0,0,19.421-19.421Z" transform="translate(-213.819 -220.343)" fill="#f5cb83"/>
    <path id="路径_12814" data-name="路径 12814" d="M416.016,741.83a35.992,35.992,0,0,0,19.421,19.421L449.162,728.1Z" transform="translate(-37.019 -180.413)" fill="#feda9b"/>
    <path id="路径_12815" data-name="路径 12815" d="M484.743,876.054a42.228,42.228,0,0,1-9.031-.981,35.763,35.763,0,0,0,7.783,4.493l1.452-3.512Z" transform="translate(-85.077 -298.728)" fill="#f5cb83"/>
    <path id="路径_12816" data-name="路径 12816" d="M576.351,688.879l-13.343-19.028,3.583,22.24Z" transform="translate(-159.31 -142.771)" fill="#7e4af4"/>
    <g transform="matrix(1, 0, 0, 1, 330.42, 460.78)" filter="url(#路径_12817)">
      <g id="路径_12817-2" data-name="路径 12817" transform="translate(72.06 77.06)" fill="url(#linear-gradient-3)">
        <path d="M 9.667218208312988 18.83473968505859 C 4.612398147583008 18.83473968505859 0.4999982118606567 14.72226905822754 0.4999982118606567 9.66736888885498 C 0.4999982118606567 4.612468719482422 4.612398147583008 0.4999988973140717 9.667218208312988 0.4999988973140717 C 14.72203826904297 0.4999988973140717 18.83443832397461 4.612468719482422 18.83443832397461 9.66736888885498 C 18.83443832397461 14.72226905822754 14.72203826904297 18.83473968505859 9.667218208312988 18.83473968505859 Z" stroke="none"/>
        <path d="M 9.667218208312988 0.9999980926513672 C 4.888097763061523 0.9999980926513672 0.9999980926513672 4.888169288635254 0.9999980926513672 9.66736888885498 C 0.9999980926513672 14.44656944274902 4.888097763061523 18.33473968505859 9.667218208312988 18.33473968505859 C 14.44633865356445 18.33473968505859 18.33443832397461 14.44656944274902 18.33443832397461 9.66736888885498 C 18.33443832397461 4.888169288635254 14.44633865356445 0.9999980926513672 9.667218208312988 0.9999980926513672 M 9.667218208312988 -1.9073486328125e-06 C 15.0062780380249 -1.9073486328125e-06 19.33443832397461 4.328228950500488 19.33443832397461 9.66736888885498 C 19.33443832397461 15.00650882720947 15.0062780380249 19.33473968505859 9.667218208312988 19.33473968505859 C 4.328158378601074 19.33473968505859 -1.9073486328125e-06 15.00650882720947 -1.9073486328125e-06 9.66736888885498 C -1.9073486328125e-06 4.328228950500488 4.328158378601074 -1.9073486328125e-06 9.667218208312988 -1.9073486328125e-06 Z" stroke="none" fill="#fff"/>
      </g>
    </g>
    <g id="组_4322" data-name="组 4322" transform="translate(372.715 507.92)">
      <ellipse id="椭圆_222" data-name="椭圆 222" cx="1.111" cy="1.111" rx="1.111" ry="1.111" transform="translate(38.631 0)" fill="url(#radial-gradient)"/>
      <ellipse id="椭圆_223" data-name="椭圆 223" cx="1.074" cy="1.074" rx="1.074" ry="1.074" transform="translate(19.296 5.212)" fill="url(#radial-gradient)"/>
      <ellipse id="椭圆_224" data-name="椭圆 224" cx="1.074" cy="1.074" rx="1.074" ry="1.074" transform="translate(5.15 19.358)" fill="url(#radial-gradient)"/>
      <ellipse id="椭圆_225" data-name="椭圆 225" cx="1.026" cy="1.111" rx="1.026" ry="1.111" transform="translate(0 38.631)" fill="url(#radial-gradient)"/>
      <ellipse id="椭圆_226" data-name="椭圆 226" cx="1.074" cy="1.074" rx="1.074" ry="1.074" transform="translate(5.15 58.004)" fill="url(#radial-gradient)"/>
      <ellipse id="椭圆_227" data-name="椭圆 227" cx="1.074" cy="1.074" rx="1.074" ry="1.074" transform="translate(19.296 72.149)" fill="url(#radial-gradient)"/>
      <ellipse id="椭圆_228" data-name="椭圆 228" cx="1.111" cy="1.026" rx="1.111" ry="1.026" transform="translate(38.631 77.261)" fill="url(#radial-gradient)"/>
      <ellipse id="椭圆_229" data-name="椭圆 229" cx="1.074" cy="1.074" rx="1.074" ry="1.074" transform="translate(57.942 72.149)" fill="url(#radial-gradient)"/>
      <ellipse id="椭圆_230" data-name="椭圆 230" cx="1.074" cy="1.074" rx="1.074" ry="1.074" transform="translate(72.087 58.004)" fill="url(#radial-gradient)"/>
      <ellipse id="椭圆_231" data-name="椭圆 231" cx="1.026" cy="1.111" rx="1.026" ry="1.111" transform="translate(77.261 38.631)" fill="url(#radial-gradient)"/>
      <ellipse id="椭圆_232" data-name="椭圆 232" cx="1.074" cy="1.074" rx="1.074" ry="1.074" transform="translate(72.087 19.358)" fill="url(#radial-gradient)"/>
      <ellipse id="椭圆_233" data-name="椭圆 233" cx="1.074" cy="1.074" rx="1.074" ry="1.074" transform="translate(57.942 5.212)" fill="url(#radial-gradient)"/>
      <ellipse id="椭圆_234" data-name="椭圆 234" cx="1.111" cy="1.111" rx="1.111" ry="1.111" transform="translate(38.631 0)" fill="url(#radial-gradient)"/>
    </g>
    <g transform="matrix(1, 0, 0, 1, 330.42, 460.78)" filter="url(#联合_19)">
      <path id="联合_19-2" data-name="联合 19" d="M5.319,6.107a1.37,1.37,0,0,1-.57-.385,1.524,1.524,0,0,1-.316-.639,3.659,3.659,0,0,1-.1-.885V1.778A1.743,1.743,0,0,1,4.814.456,1.908,1.908,0,0,1,6.185,0a1.866,1.866,0,0,1,1.36.456,1.768,1.768,0,0,1,.466,1.321V4.2a3.808,3.808,0,0,1-.092.885,1.517,1.517,0,0,1-.308.639,1.344,1.344,0,0,1-.562.385,2.461,2.461,0,0,1-.863.131A2.493,2.493,0,0,1,5.319,6.107Zm.6-4.961a.482.482,0,0,0-.146.19.876.876,0,0,0-.065.258,2.57,2.57,0,0,0-.015.278V4.318a2.721,2.721,0,0,0,.015.278,1.036,1.036,0,0,0,.065.278.512.512,0,0,0,.15.21.4.4,0,0,0,.262.083.381.381,0,0,0,.258-.083.5.5,0,0,0,.143-.21A1.04,1.04,0,0,0,6.644,4.6q.012-.151.012-.278V1.873q0-.135-.012-.278a.88.88,0,0,0-.058-.258.452.452,0,0,0-.143-.19.421.421,0,0,0-.266-.075A.407.407,0,0,0,5.92,1.147ZM.8,6.1a1.2,1.2,0,0,1-.466-.4,1.708,1.708,0,0,1-.254-.6A3.438,3.438,0,0,1,0,4.341V1.9A2.009,2.009,0,0,1,.443.46,1.831,1.831,0,0,1,1.818,0,2.057,2.057,0,0,1,3.174.4a1.624,1.624,0,0,1,.485,1.318v.445H2.3V1.841a1.61,1.61,0,0,0-.077-.571.343.343,0,0,0-.347-.2.444.444,0,0,0-.42.159.868.868,0,0,0-.1.46V4.635a.6.6,0,0,0,.116.393.475.475,0,0,0,.385.139A.479.479,0,0,0,2.122,5.1a.38.38,0,0,0,.142-.171.782.782,0,0,0,.058-.246q.012-.139.012-.282V3.937H1.849V2.865H3.69V6.1H2.765L2.7,5.572H2.688a1.256,1.256,0,0,1-.47.524,1.466,1.466,0,0,1-.7.143A1.617,1.617,0,0,1,.8,6.1Zm8.154,0V4.738h1.3V6.1Zm.3-1.913L8.92,1.643V.143h1.356v1.5l-.331,2.54Z" transform="translate(76.27 83.07)" fill="#fff"/>
    </g>
  </g>
  <text id="Time-limited_Followers_Giveaway_" data-name="Time-limited 
Followers Giveaway!

" transform="translate(86.715 14)" fill="#1e1e1e" font-size="14" font-family="Montserrat-Bold, Montserrat" font-weight="700"><tspan x="-48.755" y="0">Time-limited </tspan><tspan x="-74.263" y="18">Followers Giveaway!</tspan><tspan x="0" y="36"></tspan><tspan x="0" y="54"></tspan></text>
  <g id="join_us" data-name="join us" transform="translate(-1114.285 -3454)">
    <rect id="矩形_871" data-name="矩形 871" width="210" height="34" rx="17" transform="translate(1125 3594)" fill="url(#linear-gradient-4)"/>
    <text id="_Join_Us_Now" data-name=" Join Us Now" transform="translate(1148 3617)" fill="#8618ef" font-size="18" font-family="Montserrat-Bold, Montserrat" font-weight="700"><tspan x="0" y="0" xml:space="preserve"> Join Us Now</tspan></text>
    <g transform="matrix(1, 0, 0, 1, 1114.28, 3454)" filter="url(#路径_12785)">
      <path id="路径_12785-2" data-name="路径 12785" d="M12,0A12,12,0,1,1,0,12,12,12,0,0,1,12,0Z" transform="translate(166.72 144)" fill="#8618ef"/>
    </g>
    <path id="路径_12773" data-name="路径 12773" d="M295.5,255.651h7.44v3.115l4.208-3.883L302.939,251v3.114H295.5Z" transform="translate(991.502 3355.4)" fill="#fff" fill-rule="evenodd"/>
    <g id="组_4315" data-name="组 4315" transform="translate(873.604 3386.105)">
      <path id="路径_12774" data-name="路径 12774" d="M385.607,202.686a.5.5,0,0,0-.375.22,6.3,6.3,0,0,0-.553.768c-.1.191-.206.389-.289.591.067.126.008.3.211.34a.28.28,0,0,0,.337-.139c.081-.154.167-.307.244-.46a3.122,3.122,0,0,1,.589-1.009.176.176,0,0,0,.028-.233C385.759,202.689,385.694,202.679,385.607,202.686Z" transform="translate(-10.187)" fill="#8618ef"/>
      <path id="路径_12775" data-name="路径 12775" d="M372.545,211.821c.132-.011.231.009.233-.137s-.081-.192-.231-.22a5.931,5.931,0,0,0-1.553,0c-.176.058-.519-.012-.8.2-.079.06-.155.116-.134.229s.119.058.183.079a1.2,1.2,0,0,0,.742-.055A7.852,7.852,0,0,1,372.545,211.821Z" transform="translate(0 -6.205)" fill="#8618ef"/>
      <path id="路径_12776" data-name="路径 12776" d="M376.521,215.49a4.511,4.511,0,0,0-1.008.778c-.112.151-.322.246-.3.442,0,.149.027.25.135.3s.163-.054.232-.108c.133-.1.2-.266.342-.37.3-.217.573-.466.872-.68.166-.118.059-.222.007-.311A.19.19,0,0,0,376.521,215.49Z" transform="translate(-3.662 -9.075)" fill="#8618ef"/>
      <path id="路径_12777" data-name="路径 12777" d="M388.113,210.552a.217.217,0,0,0-.092.33c.076.124.22.172.312.071a.861.861,0,0,1,.448-.2,3.479,3.479,0,0,1,.61-.2c.164-.023.318-.155.5-.133.122.015.173-.047.208-.163-.06-.075-.079-.176-.231-.185a3.6,3.6,0,0,0-.869.167A5.8,5.8,0,0,0,388.113,210.552Z" transform="translate(-12.74 -5.249)" fill="#8618ef"/>
      <path id="路径_12778" data-name="路径 12778" d="M390.931,217.711a2.864,2.864,0,0,1-1.049-.32.325.325,0,0,0-.362-.008c-.058.036-.113.084-.091.161.042.147.172.191.3.237a.187.187,0,0,0,.083.015.657.657,0,0,1,.412.145,1.862,1.862,0,0,0,.858.331c.113,0,.231.01.287-.123s-.02-.184-.1-.267A.488.488,0,0,0,390.931,217.711Z" transform="translate(-13.765 -10.411)" fill="#8618ef"/>
      <path id="路径_12779" data-name="路径 12779" d="M378.436,204.742a8.627,8.627,0,0,1-.892-1.052c-.078-.107-.2-.2-.339-.1s-.094.235-.022.355a15.162,15.162,0,0,0,1,1.2.147.147,0,0,0,.2.034c.067-.048.154-.088.126-.214C378.492,204.9,378.489,204.8,378.436,204.742Z" transform="translate(-5.017 -0.613)" fill="#8618ef"/>
      <path id="路径_12780" data-name="路径 12780" d="M384.711,221.345c.186,0,.177-.178.171-.317a5.953,5.953,0,0,0-.027-.838.791.791,0,0,1,.047-.523.284.284,0,0,0-.147-.419c-.128-.06-.241.071-.318.2a.425.425,0,0,0-.038.237c-.014.448.165.877.115,1.332C384.5,221.131,384.547,221.341,384.711,221.345Z" transform="translate(-10.193 -11.763)" fill="#8618ef"/>
    </g>
    <g id="组_4316" data-name="组 4316" transform="translate(1292.596 3191.49) rotate(82)">
      <path id="路径_12774-2" data-name="路径 12774" d="M385.226,202.686a.345.345,0,0,0-.257.151,4.331,4.331,0,0,0-.38.527c-.07.131-.142.267-.2.406.046.087.006.207.145.234a.192.192,0,0,0,.232-.1c.055-.106.115-.21.167-.315a2.143,2.143,0,0,1,.4-.693.121.121,0,0,0,.019-.16C385.33,202.687,385.285,202.681,385.226,202.686Z" transform="translate(-11.487)" fill="#8618ef"/>
      <path id="路径_12775-2" data-name="路径 12775" d="M371.766,211.693c.09-.008.159.006.16-.094s-.055-.132-.159-.151a4.07,4.07,0,0,0-1.066,0c-.121.04-.356-.008-.548.137-.054.041-.107.08-.092.157s.081.039.125.054a.821.821,0,0,0,.509-.038A5.39,5.39,0,0,1,371.766,211.693Z" transform="translate(0 -6.996)" fill="#8618ef"/>
      <path id="路径_12776-2" data-name="路径 12776" d="M376.11,215.478a3.093,3.093,0,0,0-.692.534c-.077.1-.221.169-.207.3,0,.1.019.172.093.207s.112-.037.159-.074c.091-.072.137-.183.234-.254.2-.149.393-.32.6-.466.114-.081.041-.152,0-.213A.13.13,0,0,0,376.11,215.478Z" transform="translate(-4.129 -10.233)" fill="#8618ef"/>
      <path id="路径_12777-2" data-name="路径 12777" d="M388.072,210.4a.149.149,0,0,0-.063.226c.052.085.151.118.214.049a.591.591,0,0,1,.308-.137,2.389,2.389,0,0,1,.418-.138c.113-.016.218-.107.346-.091.084.01.118-.032.143-.112-.041-.052-.054-.121-.158-.127a2.473,2.473,0,0,0-.6.115A3.98,3.98,0,0,0,388.072,210.4Z" transform="translate(-14.365 -5.918)" fill="#8618ef"/>
      <path id="路径_12778-2" data-name="路径 12778" d="M390.459,217.592a1.966,1.966,0,0,1-.72-.22.223.223,0,0,0-.249-.005c-.04.025-.078.058-.063.111.029.1.118.131.2.162a.128.128,0,0,0,.057.011.451.451,0,0,1,.283.1,1.278,1.278,0,0,0,.589.227c.077,0,.158.007.2-.085s-.014-.126-.066-.183A.335.335,0,0,0,390.459,217.592Z" transform="translate(-15.522 -11.74)" fill="#8618ef"/>
      <path id="路径_12779-2" data-name="路径 12779" d="M378.023,204.367a5.922,5.922,0,0,1-.612-.722c-.053-.073-.137-.139-.233-.069s-.065.162-.015.244a10.4,10.4,0,0,0,.686.824.1.1,0,0,0,.14.023c.046-.033.106-.061.087-.147C378.061,204.475,378.059,204.4,378.023,204.367Z" transform="translate(-5.658 -0.691)" fill="#8618ef"/>
      <path id="路径_12780-2" data-name="路径 12780" d="M384.613,220.682c.128,0,.122-.122.117-.218a4.09,4.09,0,0,0-.018-.575.543.543,0,0,1,.032-.359.2.2,0,0,0-.1-.288c-.088-.041-.165.049-.219.139a.292.292,0,0,0-.026.163c-.009.308.113.6.079.914C384.469,220.535,384.5,220.68,384.613,220.682Z" transform="translate(-11.493 -13.264)" fill="#8618ef"/>
    </g>
    <g id="组_4317" data-name="组 4317" transform="translate(926.152 3422.529) rotate(16)">
      <path id="路径_12781" data-name="路径 12781" d="M273.055,98.285h0a.26.26,0,0,0,.26-.26V96.26a.26.26,0,0,0-.26-.26h0a.26.26,0,0,0-.26.26v1.766A.26.26,0,0,0,273.055,98.285Z" transform="translate(-4.912)" fill="#a151f2"/>
      <path id="路径_12782" data-name="路径 12782" d="M267,102.056h0a.26.26,0,0,0,.26.26h1.766a.26.26,0,0,0,.26-.26h0a.26.26,0,0,0-.26-.26H267.26A.26.26,0,0,0,267,102.056Z" transform="translate(0 -4.913)" fill="#a151f2"/>
    </g>
    <g id="组_4318" data-name="组 4318" transform="translate(1046.152 3453.529) rotate(16)">
      <path id="路径_12781-2" data-name="路径 12781" d="M273.055,98.285h0a.26.26,0,0,0,.26-.26V96.26a.26.26,0,0,0-.26-.26h0a.26.26,0,0,0-.26.26v1.766A.26.26,0,0,0,273.055,98.285Z" transform="translate(-4.912)" fill="#a151f2"/>
      <path id="路径_12782-2" data-name="路径 12782" d="M267,102.056h0a.26.26,0,0,0,.26.26h1.766a.26.26,0,0,0,.26-.26h0a.26.26,0,0,0-.26-.26H267.26A.26.26,0,0,0,267,102.056Z" transform="translate(0 -4.913)" fill="#a151f2"/>
    </g>
    <g id="组_4319" data-name="组 4319" transform="translate(-63.68 3427.717)">
      <rect id="矩形_865" data-name="矩形 865" width="24.72" height="22.248" transform="translate(1177.966 175.261)" fill="#a94eff"/>
      <rect id="矩形_866" data-name="矩形 866" width="2.472" height="24.72" transform="translate(1202.685 185.587) rotate(90)" fill="#8618ef"/>
      <path id="路径_12786" data-name="路径 12786" d="M1835.892,700.378s4.374-2.842,7.347-1.929l-.613.573.276.963a10.9,10.9,0,0,0-7.1.555Z" transform="translate(-644.67 -524.89)" fill="#bd77ff"/>
      <path id="路径_12787" data-name="路径 12787" d="M1264.67,309.08s-.771-.093-1.922-.251c-3.054-.42-8.773-1.3-9.8-2.112-1.613-1.277,2.209-6.7,3.864-7.456S1264.67,309.08,1264.67,309.08Z" transform="translate(-73.692 -134.236)" fill="#a94eff"/>
      <path id="路径_12788" data-name="路径 12788" d="M1835.283,168.088c.276,1.344-12.215,7.151-12.215,7.151s.227-.614.6-1.577v0c1.35-3.514,4.6-11.669,5.672-11.556a1.3,1.3,0,0,1,.373.111C1831.354,162.937,1835.029,166.85,1835.283,168.088Z" transform="translate(-632.204)" fill="#9227f8"/>
      <path id="路径_12789" data-name="路径 12789" d="M1857.445,163.41c-.763,1.325-5.86,10.113-5.94,10.25,1.35-3.514,4.6-11.669,5.672-11.556a.681.681,0,0,1,.374.111C1857.746,162.357,1857.867,162.678,1857.445,163.41Z" transform="translate(-660.043)" fill="#a94eff"/>
      <path id="路径_12790" data-name="路径 12790" d="M1276.062,587.614h0c-3.054-.42-8.773-1.3-9.8-2.112-.464-1.306.739-1.412,1.614-1.5S1276.062,587.614,1276.062,587.614Z" transform="translate(-87.004 -413.021)" fill="#9227f8"/>
      <path id="路径_12791" data-name="路径 12791" d="M1717.69,709.343s.7-1.593,2.078-1.681c1.439-.092,2.257,1.681,2.257,1.681Z" transform="translate(-529.042 -534.083)" fill="#a94eff"/>
      <rect id="矩形_868" data-name="矩形 868" width="24.72" height="3.708" transform="translate(1177.965 175.261)" fill="#9227f8"/>
      <path id="路径_12792" data-name="路径 12792" d="M1306.822,743.234s-3.968-1.257-6.645-.426c-3.086.958-2.9,4.766-2.9,4.766l.726-.3.98.46s.165-4.032,2.681-4.6A15.271,15.271,0,0,1,1306.822,743.234Z" transform="translate(-117.464 -568.215)" fill="#bd77ff"/>
      <rect id="矩形_870" data-name="矩形 870" width="1.477" height="22.248" transform="translate(1190.789 175.261)" fill="#8618ef"/>
    </g>
    <g id="椭圆_262" data-name="椭圆 262" transform="translate(1187 3636)" fill="none" stroke="#c19dd8" stroke-width="1">
      <circle cx="2" cy="2" r="2" stroke="none"/>
      <circle cx="2" cy="2" r="1.5" fill="none"/>
    </g>
  </g>
</svg>
