<svg xmlns="http://www.w3.org/2000/svg" xmlns:xlink="http://www.w3.org/1999/xlink" width="50.018" height="27.093" viewBox="0 0 50.018 27.093"><defs><style>.a{fill:url(#a);}</style><linearGradient id="a" x1="1" y1="0.868" x2="0.014" y2="0.9" gradientUnits="objectBoundingBox"><stop offset="0" stop-color="#ff5c87"/><stop offset="1" stop-color="#4761ff"/></linearGradient></defs><path class="a" d="M16.673,15.42H10.42V9.168H6.252V15.42H0v4.168H6.252v6.252H10.42V19.588h6.252ZM37.513,17.5a6.252,6.252,0,1,0-1.9-12.213,10.283,10.283,0,0,1,1.876,5.96,10.486,10.486,0,0,1-1.876,5.96A6.231,6.231,0,0,0,37.513,17.5Zm-10.42,0a6.252,6.252,0,1,0-6.252-6.252A6.226,6.226,0,0,0,27.093,17.5Zm13.8,4.5a7.711,7.711,0,0,1,2.876,5.919v4.168h6.252V27.925C50.018,24.715,45.078,22.735,40.889,22.006Zm-13.8-.333c-4.168,0-12.5,2.084-12.5,6.252v4.168H39.6V27.925C39.6,23.757,31.261,21.673,27.093,21.673Z" transform="translate(0 -5)"/></svg>