<svg xmlns="http://www.w3.org/2000/svg" width="49.836" height="30" viewBox="0 0 49.836 30"><defs><style>.a{fill:none;fill-rule:evenodd;}.b{fill:#fff;}.c{fill:#0061c2;}</style></defs><g transform="translate(0 0.099)"><path class="a" d="M49.836,2.718V27.183A2.751,2.751,0,0,1,47.068,29.9H2.769A2.752,2.752,0,0,1,0,27.183V2.718A2.752,2.752,0,0,1,2.769,0h44.3A2.751,2.751,0,0,1,49.836,2.718Z"/><rect class="b" width="49" height="30" rx="4" transform="translate(0.424 -0.099)"/><path class="c" d="M12.043,11.3l1.168,1.275H10.882l1.16-1.275Zm24.269.053h-4.5v.562H36.24v.842H31.827v.626h4.5v.5l3.136-1.525-3.137-1.59-.009.583ZM15.081,9.768h6.032l1.34,1.315,1.24-1.319H39.349l1.628.808,1.683-.808h7.192l-5.313,2.617,5.259,2.6H42.5l-1.628-.808-1.7.808H13.641l-.745-.808H11.191l-.748.808H4.537L9.5,9.764h5.178l.4,0ZM28.16,10.5H24.78l-2.264,2.4-2.454-2.4H16.707v3.268L13.6,10.5H10.588l-3.6,3.746H9.339l.746-.809H14l.746.809h4.107V11.572L21.5,14.25h1.8l2.627-2.67v2.671h2.2l.037-3.752h0Zm14.1,1.881L46.083,10.5h-2.75l-2.418,1.173L38.578,10.5h-8.9v3.75h8.772l2.437-1.181,2.336,1.181h2.832l-3.793-1.869h0Z" transform="translate(-2.276 2.577)"/></g></svg>