<svg xmlns="http://www.w3.org/2000/svg" width="326.271" height="121.328" viewBox="0 0 326.271 121.328"><defs><style>.a{fill:#f77c16;}.b{fill:#e74f41;}.c{fill:#207ede;}.d{fill:#fff;}.e{fill:#2ea61c;}</style></defs><g transform="translate(1 -15.923)"><path class="a" d="M650.7,389.22a5.4,5.4,0,0,0-3.617-2.249l.5-3.139a8.638,8.638,0,0,1,5.788,3.6Z" transform="translate(-648.08 -362.776)"/><path class="b" d="M809.844,402.552a4.828,4.828,0,0,0-3.524,1.39l-2.039-1.983a7.721,7.721,0,0,1,5.638-2.224Z" transform="translate(-747.213 -270.452)"/><path class="b" d="M889.451,266.325a4.826,4.826,0,0,0-3.523,1.39l-2.039-1.983a7.724,7.724,0,0,1,5.639-2.225Z" transform="translate(-573.452 -202.975)"/><path class="b" d="M729.365,381.808a4.628,4.628,0,0,0-.7,3.666l-2.8.621a7.406,7.406,0,0,1,1.124-5.866Z" transform="translate(-428.074 -248.844)"/><path class="a" d="M585.233,420.113a5.006,5.006,0,0,0-3.617-1.539q0-1.463,0-2.926a8.009,8.009,0,0,1,5.788,2.462Z" transform="translate(-448.294 -395.279)"/><path class="a" d="M874.254,226.567a4.958,4.958,0,0,0-3.186,2.28l-2.565-1.487a7.931,7.931,0,0,1,5.1-3.647Q873.927,225.14,874.254,226.567Z" transform="translate(-589.95 -207.79)"/><path class="b" d="M829.753,438.577a9.478,9.478,0,0,0-4.465.292,11.784,11.784,0,0,1,8.1-4.529q.158,1.412.315,2.824A8.939,8.939,0,0,0,829.753,438.577Z" transform="translate(-508.433 -405.265)"/><path class="c" d="M552.349,246.315a9.443,9.443,0,0,0-4.283,1.274,11.658,11.658,0,0,1,6.854-6.206l.955,2.682A8.863,8.863,0,0,0,552.349,246.315Z" transform="translate(-542.777 -156.86)"/><path class="c" d="M833.772,235.2a9.148,9.148,0,0,0-2.47,3.666,11.353,11.353,0,0,1,1.243-9.075l2.478,1.466A8.574,8.574,0,0,0,833.772,235.2Z" transform="translate(-645.167 -209.793)"/><path class="d" d="M618.93,229.184a9.461,9.461,0,0,1,4.4.785,11.723,11.723,0,0,0-7.53-5.4q-.319,1.385-.636,2.771A8.9,8.9,0,0,1,618.93,229.184Z" transform="translate(-504.287 -204.668)"/><path class="b" d="M572.23,269.968a9.078,9.078,0,0,1,10.014.122l1.406-1.117a9.632,9.632,0,0,0-13.382-1.387Z" transform="translate(-566.499 -211.089)"/><path class="e" d="M592.242,377.153l4.335-.556,3.029,2.372-7.108.132Z" transform="translate(-561.506 -307.006)"/><path class="e" d="M607.482,246.244l4.335-.556,3.029,2.372-7.108.132Z" transform="translate(-557.777 -223.402)"/><path class="e" d="M719.352,410.153l1.51,4.03-1.686,3.426-1.7-6.781Z" transform="translate(-518.552 -286.225)"/><path class="e" d="M845.7,390.557l-4.309.725-2.182,3.145,6.831-1.935Z" transform="translate(-640.316 -300.904)"/></g></svg>