<svg xmlns="http://www.w3.org/2000/svg" width="50" height="30" viewBox="0 0 50 30"><defs><style>.a{fill:#fff;}.b{fill:#5f6368;}.c{fill:#4285f4;}.d{fill:#34a853;}.e{fill:#fabb05;}.f{fill:#e94235;}</style></defs><g transform="translate(-0.106 0.099)"><rect class="a" width="50" height="30" rx="4" transform="translate(0.106 -0.099)"/><g transform="translate(7.475 7.974)"><path class="b" d="M47.037,18.845v3.5h2.172a1.72,1.72,0,0,0,1.284-.519,1.7,1.7,0,0,0,0-2.453,1.7,1.7,0,0,0-1.284-.533H47.037Zm0,4.738v4.065h-1.3V17.612h3.441a3.12,3.12,0,0,1,2.228.869,2.888,2.888,0,0,1,0,4.247,3.118,3.118,0,0,1-2.228.855H47.037Zm6.614,1.962a1.028,1.028,0,0,0,.431.841,1.589,1.589,0,0,0,1.008.336,2.073,2.073,0,0,0,1.459-.6,1.881,1.881,0,0,0,.641-1.415,2.674,2.674,0,0,0-1.692-.476,2.206,2.206,0,0,0-1.319.379,1.12,1.12,0,0,0-.528.938m1.678-4.99a3.231,3.231,0,0,1,2.271.764,2.706,2.706,0,0,1,.831,2.1v4.234H57.191V26.7h-.056a2.48,2.48,0,0,1-2.143,1.178A2.8,2.8,0,0,1,53.08,27.2a2.144,2.144,0,0,1-.768-1.682,2.035,2.035,0,0,1,.811-1.7,3.431,3.431,0,0,1,2.164-.631,3.848,3.848,0,0,1,1.9.421v-.3a1.466,1.466,0,0,0-.536-1.142,1.844,1.844,0,0,0-1.255-.469,1.991,1.991,0,0,0-1.72.912L52.536,21.9a3.193,3.193,0,0,1,2.793-1.346m10.224.224-4.33,9.9h-1.34l1.608-3.463L58.643,20.78h1.41l2.059,4.934h.028l2-4.934Z" transform="translate(-30.421 -16.809)"/><path class="c" d="M32.215,26.656a6.884,6.884,0,0,0-.1-1.173H26.643V27.7h3.134a2.669,2.669,0,0,1-1.159,1.753V30.9h1.87a5.626,5.626,0,0,0,1.726-4.244" transform="translate(-20.841 -20.757)"/><path class="d" d="M21.424,34.451a5.572,5.572,0,0,0,3.845-1.392L23.4,31.616a3.515,3.515,0,0,1-1.975.552,3.468,3.468,0,0,1-3.257-2.381H16.24v1.486a5.806,5.806,0,0,0,5.184,3.178" transform="translate(-15.622 -22.916)"/><path class="e" d="M17.545,26.07a3.447,3.447,0,0,1,0-2.208V22.377H15.618a5.733,5.733,0,0,0,0,5.178l1.927-1.486Z" transform="translate(-15 -19.199)"/><path class="f" d="M21.424,18.282a3.159,3.159,0,0,1,2.226.866h0L25.306,17.5A5.6,5.6,0,0,0,21.424,16a5.806,5.806,0,0,0-5.184,3.178l1.927,1.486a3.468,3.468,0,0,1,3.257-2.381" transform="translate(-15.622 -16)"/></g></g></svg>