<svg xmlns="http://www.w3.org/2000/svg" width="48" height="48" viewBox="0 0 48 48"><defs><style>.a{fill:#eb4c44;}.a,.b,.c,.d,.e,.f{fill-rule:evenodd;}.b{fill:#ef8b42;}.c{fill:#a42dba;}.d{fill:#7c35ca;}.e{fill:#eb4e27;}.f{fill:#fff;}</style></defs><g transform="translate(-0.531 0.188)"><g transform="translate(0.531 -0.188)"><path class="a" d="M45.155,3.513,4.333,44.537a11.633,11.633,0,0,1-3.8-8.616V23.633L24.234-.188h12.4a11.628,11.628,0,0,1,8.52,3.7Z" transform="translate(-0.531 0.188)"/><path class="b" d="M.531,25.847v-13.5A12.535,12.535,0,0,1,13.066-.187H26.441Z" transform="translate(-0.531 0.187)"/><path class="c" d="M96.215,116.512H83.153a11.615,11.615,0,0,1-8.185-3.359l40.811-41.015a11.621,11.621,0,0,1,3.456,8.284V93.377Z" transform="translate(-71.236 -68.512)"/><path class="d" d="M540.557,550.106H528.206L553.092,525.1v12.471A12.535,12.535,0,0,1,540.557,550.106Z" transform="translate(-505.092 -502.106)"/></g><g transform="translate(10.1 7.842)"><path class="e" d="M252.933,240.686h-.058a1.521,1.521,0,0,1-1.514,1.414H226.377c-.041,0-.08.012-.122.012a1.4,1.4,0,0,1-1.2-.679,1.5,1.5,0,0,1-.088-1.563,14.121,14.121,0,0,1,8.348-10.778,9.883,9.883,0,1,1,11.15,0A14.125,14.125,0,0,1,252.933,240.686Z" transform="translate(-224.79 -210.157)"/><path class="f" d="M253.827,223.827h-.013a1.563,1.563,0,0,1-1.557,1.453H226.585c-.046,0-.09.014-.137.014a1.449,1.449,0,0,1-1.336-.89,1.551,1.551,0,0,1-.167-.691,2.619,2.619,0,0,1,.077-.709,14.636,14.636,0,0,1,8.686-11.095,10.161,10.161,0,1,1,11.464,0A14.469,14.469,0,0,1,253.827,223.827Zm-7.135-20.309a7.258,7.258,0,1,0-7.258,7.26,7.258,7.258,0,0,0,7.258-7.26Zm-6.634,10.14c-.206.012-.412.021-.621.021s-.414-.008-.62-.021a11.6,11.6,0,0,0-10.549,8.486H250.6A11.594,11.594,0,0,0,240.058,213.658Z" transform="translate(-224.936 -193.352)"/></g><path class="f" d="M751.415,117.234h-2.436v2.442H746.89v-2.442h-2.436v-2.093h2.436V112.7h2.088v2.442h2.436v2.093Z" transform="translate(-709.967 -107.228)"/></g></svg>