<svg xmlns="http://www.w3.org/2000/svg" width="50" height="30" viewBox="0 0 50 30"><defs><style>.a{fill:#fff;}.b{fill:#ff5f00;}.c{fill:#eb001b;}.d{fill:#f79e1b;}</style></defs><g transform="translate(0.03 0.099)"><rect class="a" width="50" height="30" rx="4" transform="translate(-0.03 -0.099)"/><g transform="translate(11.498 6.515)"><path class="b" d="M43.049,16.764h7.38V30.29h-7.38Z" transform="translate(-33.094 -14.924)"/><path class="c" d="M33.5,21.677a8.649,8.649,0,0,1,3.221-6.764,8.316,8.316,0,0,0-11.407.927,8.728,8.728,0,0,0,0,11.671,8.315,8.315,0,0,0,11.407.927A8.651,8.651,0,0,1,33.5,21.677Z" transform="translate(-23.073 -13.073)"/><path class="d" d="M64.1,21.676a8.62,8.62,0,0,1-4.748,7.737,8.3,8.3,0,0,1-8.9-.975,8.708,8.708,0,0,0,0-13.526,8.3,8.3,0,0,1,8.9-.975A8.617,8.617,0,0,1,64.1,21.674Zm-.806,5.45v-.378h.11V26.67h-.279v.078h.12v.378h.05Zm.541,0V26.67H63.75l-.1.325-.1-.325h-.075v.455h.061v-.342l.091.3h.063l.092-.3v.345Z" transform="translate(-36.808 -13.072)"/></g></g></svg>