<svg xmlns="http://www.w3.org/2000/svg" width="71" height="30" viewBox="0 0 71 30"><defs><style>.a{fill:#fff;}.b{fill:#253b80;}.c{fill:#179bd7;}.d{fill:#222d65;}</style></defs><g transform="translate(0 0.099)"><rect class="a" width="71" height="30" rx="4" transform="translate(0 -0.099)"/><path class="b" d="M40.918,6.749H37.51a.473.473,0,0,0-.468.4l-1.378,8.74a.284.284,0,0,0,.281.328h1.627a.473.473,0,0,0,.468-.4l.372-2.357a.473.473,0,0,1,.467-.4h1.079a3.5,3.5,0,0,0,3.879-3.239,2.625,2.625,0,0,0-.435-2.2,3.162,3.162,0,0,0-2.484-.87Zm.393,3.192c-.186,1.223-1.121,1.223-2.024,1.223h-.514l.361-2.284a.284.284,0,0,1,.281-.24h.236c.615,0,1.2,0,1.5.351a1.136,1.136,0,0,1,.165.95ZM51.106,9.9H49.474a.284.284,0,0,0-.281.24l-.072.456-.114-.165a2.323,2.323,0,0,0-1.928-.684,3.753,3.753,0,0,0-3.644,3.282,3.081,3.081,0,0,0,.608,2.507,2.554,2.554,0,0,0,2.056.83,3.123,3.123,0,0,0,2.259-.934l-.073.454a.284.284,0,0,0,.28.329h1.47a.473.473,0,0,0,.468-.4l.882-5.586a.283.283,0,0,0-.28-.328Zm-2.275,3.177a1.819,1.819,0,0,1-1.841,1.558,1.264,1.264,0,0,1-1.352-1.587,1.827,1.827,0,0,1,1.829-1.571,1.377,1.377,0,0,1,1.088.445,1.413,1.413,0,0,1,.276,1.155ZM59.8,9.9h-1.64a.475.475,0,0,0-.392.208L55.5,13.441l-.959-3.2a.475.475,0,0,0-.455-.338H52.479a.284.284,0,0,0-.27.376l1.807,5.3-1.7,2.4a.284.284,0,0,0,.232.449h1.638a.473.473,0,0,0,.389-.2l5.455-7.874A.284.284,0,0,0,59.8,9.9Z" transform="translate(-12.407 2.595)"/><path class="c" d="M89.7,6.748H86.29a.473.473,0,0,0-.467.4l-1.378,8.74a.284.284,0,0,0,.28.328h1.749a.331.331,0,0,0,.327-.28l.391-2.477a.473.473,0,0,1,.467-.4h1.078a3.5,3.5,0,0,0,3.88-3.239,2.623,2.623,0,0,0-.435-2.2,3.159,3.159,0,0,0-2.483-.87Zm.393,3.192c-.186,1.223-1.12,1.223-2.024,1.223h-.514l.361-2.284a.283.283,0,0,1,.28-.24h.236c.615,0,1.2,0,1.5.351a1.136,1.136,0,0,1,.165.95ZM99.887,9.9H98.255a.283.283,0,0,0-.28.24L97.9,10.6l-.115-.165a2.322,2.322,0,0,0-1.927-.684,3.753,3.753,0,0,0-3.643,3.282,3.082,3.082,0,0,0,.607,2.507,2.555,2.555,0,0,0,2.056.83,3.123,3.123,0,0,0,2.259-.934l-.073.454a.284.284,0,0,0,.281.329h1.47a.473.473,0,0,0,.467-.4l.883-5.586a.285.285,0,0,0-.282-.328Zm-2.275,3.177a1.818,1.818,0,0,1-1.841,1.558,1.264,1.264,0,0,1-1.352-1.587,1.828,1.828,0,0,1,1.829-1.571,1.377,1.377,0,0,1,1.088.445A1.406,1.406,0,0,1,97.612,13.078Zm4.2-6.089-1.4,8.9a.284.284,0,0,0,.28.328H102.1a.473.473,0,0,0,.468-.4l1.379-8.739a.284.284,0,0,0-.28-.328h-1.575a.285.285,0,0,0-.28.24Z" transform="translate(-36.877 2.595)"/><path class="b" d="M4.153,15.043l.261-1.656-.581-.013H1.061L2.988,1.158a.157.157,0,0,1,.156-.134H7.819A4.161,4.161,0,0,1,11,1.984a2.189,2.189,0,0,1,.51.955,3.449,3.449,0,0,1,0,1.318l-.006.038v.337l.262.149a1.839,1.839,0,0,1,.531.4,1.884,1.884,0,0,1,.431.966,4.085,4.085,0,0,1-.061,1.4A4.935,4.935,0,0,1,12.1,9.139a3.263,3.263,0,0,1-.91,1,3.69,3.69,0,0,1-1.225.553,6.109,6.109,0,0,1-1.531.177H8.067a1.094,1.094,0,0,0-1.082.923l-.027.149L6.5,14.856l-.021.107a.092.092,0,0,1-.029.062.077.077,0,0,1-.048.017H4.153Z" transform="translate(4.95 5.467)"/><path class="c" d="M14.59,7.667q-.021.134-.048.274c-.616,3.165-2.726,4.258-5.419,4.258H7.752a.666.666,0,0,0-.658.564l-.7,4.453-.2,1.262a.351.351,0,0,0,.346.406H8.971a.585.585,0,0,0,.578-.493l.024-.124.458-2.906.029-.159a.585.585,0,0,1,.578-.494H11c2.357,0,4.2-.957,4.741-3.726a3.172,3.172,0,0,0-.487-2.8,2.326,2.326,0,0,0-.666-.513Z" transform="translate(2.378 2.134)"/><path class="d" d="M14.857,6.928a4.862,4.862,0,0,0-.6-.133,7.617,7.617,0,0,0-1.209-.088H9.384a.584.584,0,0,0-.578.494l-.779,4.937-.022.144a.666.666,0,0,1,.658-.564h1.371c2.694,0,4.8-1.094,5.419-4.258.018-.094.034-.185.048-.274a3.286,3.286,0,0,0-.507-.214l-.138-.043Z" transform="translate(1.466 2.616)"/><path class="b" d="M4.791,3.837a.583.583,0,0,1,.578-.494H9.033a7.617,7.617,0,0,1,1.209.088,4.863,4.863,0,0,1,.738.176,3.336,3.336,0,0,1,.507.214,2.989,2.989,0,0,0-.634-2.687A4.644,4.644,0,0,0,7.287,0H2.612a.668.668,0,0,0-.66.565L.005,12.906a.4.4,0,0,0,.4.464H3.287l.725-4.6.779-4.937Z" transform="translate(5.482 5.98)"/></g></svg>