<svg xmlns="http://www.w3.org/2000/svg" xmlns:xlink="http://www.w3.org/1999/xlink" width="425" height="304" viewBox="0 0 425 304"><defs><style>.a{fill:#fff;stroke:#707070;}.b{clip-path:url(#a);}.c{fill:#f9f0ef;}.d{fill:#feffff;}.e{fill:#e27d95;}.f{fill:#cbc69e;}.g{fill:#d15478;}</style><clipPath id="a"><rect class="a" width="425" height="304"/></clipPath></defs><g class="b"><circle class="c" cx="191.919" cy="191.919" r="191.919" transform="translate(-122.717 21.11) rotate(-45)"/><g transform="translate(179.832 -57.936)"><g transform="translate(0 0)"><g transform="translate(0 39.823)"><g transform="translate(0 0)"><path class="d" d="M204.206,9.982a4.1,4.1,0,0,1,.622-3.066c.641-.715,1.536-1.146,2.159-1.914-1.768-1.965-1.208-5.281.086-7.384A13.9,13.9,0,0,1,213.9-8.043a15.964,15.964,0,0,1,11.024.079c4,1.454,6.543,5.408,7.981,9.248.783,2.09,1.347,4.268,2.332,6.271,1.254,2.546,3.141,4.721,4.6,7.155a.416.416,0,0,1-.16.681,42.67,42.67,0,0,1-8.823,4.993,24.968,24.968,0,0,1-13.589,1.569,17.252,17.252,0,0,1-11.339-7.287A10.49,10.49,0,0,1,204.206,9.982Z" transform="translate(-151.366 8.987)"/><path class="d" d="M203.483,17.2a3.842,3.842,0,0,0-2.866.6c-.665.6-1.062,1.445-1.778,2.032-1.851-1.642-4.951-1.1-6.912.127a13.012,13.012,0,0,0-5.258,6.427,14.962,14.962,0,0,0,.141,10.32c1.386,3.735,5.1,6.091,8.705,7.413,1.96.721,4,1.236,5.884,2.146,2.391,1.157,4.438,2.91,6.725,4.263a.39.39,0,0,0,.636-.154,39.952,39.952,0,0,0,4.62-8.289,23.358,23.358,0,0,0,1.386-12.728,16.149,16.149,0,0,0-6.889-10.569A9.821,9.821,0,0,0,203.483,17.2Z" transform="translate(-159.427 20.478)"/><path class="d" d="M189.38,2.591a3.833,3.833,0,0,0-2.912-.315c-.819.368-1.457,1.045-2.319,1.383-1.252-2.135-4.368-2.575-6.612-2.017A13.015,13.015,0,0,0,170.55,6.13a14.959,14.959,0,0,0-3.054,9.858c.163,3.98,2.969,7.369,5.988,9.741,1.642,1.29,3.424,2.411,4.931,3.857,1.917,1.839,3.322,4.141,5.079,6.133a.52.52,0,0,0,.282.2.526.526,0,0,0,.37-.148,40,40,0,0,0,6.956-6.457,23.374,23.374,0,0,0,5.252-11.676,16.147,16.147,0,0,0-3.286-12.181A9.788,9.788,0,0,0,189.38,2.591Z" transform="translate(-167.483 13.56)"/><path class="d" d="M207.255,29.993a3.205,3.205,0,0,1,.574-2.376c.52-.54,1.232-.851,1.74-1.432-1.323-1.586-.79-4.158.281-5.763a10.864,10.864,0,0,1,5.5-4.224,12.485,12.485,0,0,1,8.606.38c3.082,1.249,4.953,4.412,5.966,7.451.55,1.654.928,3.371,1.639,4.963.905,2.024,2.317,3.777,3.387,5.719a.326.326,0,0,1-.144.528,33.444,33.444,0,0,1-7.033,3.644,19.5,19.5,0,0,1-10.655.833,13.471,13.471,0,0,1-8.645-6.016A8.2,8.2,0,0,1,207.255,29.993Z" transform="translate(-150.014 19.791)"/></g></g><g transform="translate(14.623)"><path class="d" d="M181.345,31.5a1.106,1.106,0,0,0,.715-1.39c-1.118-3.486-2.274-7.092-2.2-10.73a29.975,29.975,0,0,1,2.137-9.324c1.337-3.76,3.018-7.942,6-10.912A56.333,56.333,0,0,0,193.745,14.2a1.063,1.063,0,0,0,.111.438,1.092,1.092,0,0,0,.276.286,117.711,117.711,0,0,0,7.3,11.379c.583.813,1.193,1.648,1.815,2.49a20.411,20.411,0,0,0-3.148,14.33,26.666,26.666,0,0,0,6.324,13.451,1.106,1.106,0,1,0,1.68-1.438,24.458,24.458,0,0,1-5.814-12.324,18.331,18.331,0,0,1,2.378-12.135c6.427,8.4,14.867,17.443,25.9,22.216a1.107,1.107,0,0,0,.878-2.032c-12.488-5.4-21.641-16.649-28.217-25.846a118.376,118.376,0,0,1-6.84-10.562c3.285-1.5,7.446-.892,10.807-.132a94.2,94.2,0,0,1,21.533,7.741,1.09,1.09,0,0,0,1.484-.488,1.1,1.1,0,0,0-.488-1.485,96.1,96.1,0,0,0-22.039-7.922c-3.758-.854-8.445-1.513-12.342.338a50.153,50.153,0,0,1-5.8-17.291,48.884,48.884,0,0,1-.242-8.056c.046-1.064.03-2.142.009-3.218a33.075,33.075,0,0,1,.115-4.426,27.687,27.687,0,0,1,6.159-14.35,1.1,1.1,0,0,0-.138-1.557,1.107,1.107,0,0,0-1.557.137h0a29.919,29.919,0,0,0-6.661,15.51,35.05,35.05,0,0,0-.127,4.724c.017,1.031.036,2.065-.009,3.082a51.065,51.065,0,0,0,.253,8.419c.045.366.135.717.189,1.08a17.171,17.171,0,0,0-2.2,2.188c-2.631,3.132-4.17,7.034-5.429,10.572a32.313,32.313,0,0,0-2.263,10.025c-.078,4.006,1.134,7.788,2.309,11.446A1.105,1.105,0,0,0,181.345,31.5Z" transform="translate(-177.643 36.654)"/></g></g></g><g transform="translate(-19.602 89.053)"><path class="d" d="M72.531,79.917A13.863,13.863,0,1,0,45.1,82.138a13.87,13.87,0,1,0,2.152,26.809,13.868,13.868,0,1,0,26.619-5.727,11.684,11.684,0,1,0-1.343-23.3Z" transform="translate(-28.924 -65.468)"/><g transform="translate(23.96 21.02)"><path class="e" d="M50.669,81.444a2.731,2.731,0,1,1-3.726-1.009A2.732,2.732,0,0,1,50.669,81.444Z" transform="translate(-45.57 -80.072)"/><path class="e" d="M55.482,83.483a2.73,2.73,0,1,1-3.726-1.01A2.729,2.729,0,0,1,55.482,83.483Z" transform="translate(-43.456 -79.176)"/><path class="e" d="M50.856,87.6a2.731,2.731,0,1,1-3.728-1.01A2.73,2.73,0,0,1,50.856,87.6Z" transform="translate(-45.489 -77.37)"/></g></g><g transform="translate(279.902 8.693)"><g transform="translate(0 0)"><path class="e" d="M257.443,53.734a13.863,13.863,0,1,0,21.528-17.14,13.87,13.87,0,1,0-16.737-21.053,13.868,13.868,0,1,0-18.9,19.6,11.685,11.685,0,1,0,14.11,18.595Z" transform="translate(-237.008 -9.637)"/><g transform="translate(19.17 17.013)"><path class="d" d="M256.98,31.638a2.731,2.731,0,1,1,3.657-1.239A2.732,2.732,0,0,1,256.98,31.638Z" transform="translate(-248.072 -19.26)"/><path class="d" d="M251.849,32.63a2.731,2.731,0,1,1,3.657-1.239A2.731,2.731,0,0,1,251.849,32.63Z" transform="translate(-250.327 -18.824)"/><path class="d" d="M253.4,26.637a2.731,2.731,0,1,1,3.657-1.239A2.731,2.731,0,0,1,253.4,26.637Z" transform="translate(-249.646 -21.457)"/></g></g></g><g transform="translate(89.621 136.48)"><path class="d" d="M121.506,127.739a8.8,8.8,0,1,0,11.225-13.377,8.8,8.8,0,1,0-13.066-10.981,8.8,8.8,0,1,0-9.281,14.575,7.415,7.415,0,1,0,11.122,9.783Z" transform="translate(-104.807 -98.419)"/><g transform="translate(13.894 11.975)"><path class="e" d="M118.817,112.8a1.732,1.732,0,1,1,2.117-1.232A1.731,1.731,0,0,1,118.817,112.8Z" transform="translate(-113.112 -105.571)"/><path class="e" d="M115.75,114.069a1.733,1.733,0,1,1,2.119-1.232A1.732,1.732,0,0,1,115.75,114.069Z" transform="translate(-114.46 -105.015)"/><path class="e" d="M115.957,110.146a1.732,1.732,0,1,1,2.119-1.232A1.732,1.732,0,0,1,115.957,110.146Z" transform="translate(-114.369 -106.739)"/></g></g><g transform="translate(70.928 -50.892)"><g transform="translate(0 0)"><path class="f" d="M211.06,113.058a66.668,66.668,0,0,0-22.444-46.371c-7.951-6.913-17.579-11.875-26.888-16.675-2.671-1.376-5.339-2.752-7.973-4.171-17.406-9.386-30.765-19.523-40.841-30.993C100.7.936,93.2-15.549,91.82-31.57l2.2-.19c1.346,15.555,8.645,31.588,20.554,45.146,9.9,11.27,23.057,21.25,40.228,30.507,2.62,1.415,5.277,2.782,7.934,4.154,9.428,4.858,19.174,9.884,27.329,16.971a68.915,68.915,0,0,1,23.2,47.936Z" transform="translate(-91.82 31.76)"/><g transform="translate(114.746 129.735)"><path class="f" d="M190.658,80.3c1.01,5.187.335,10.586-3.59,14.539a6.382,6.382,0,0,1-4.589,2.2,6.106,6.106,0,0,1-2.408-.711,14.176,14.176,0,0,1-6.194-6.519,24.378,24.378,0,0,1-2.215-8.826,38.434,38.434,0,0,1,.872-11.735c.4-1.723.825-3.423,1.291-5.111.5-1.816.24-3.876.235-5.759a41.6,41.6,0,0,1,3.554,2.375,35.116,35.116,0,0,1,10.447,12.112A28.96,28.96,0,0,1,190.658,80.3Z" transform="translate(-171.541 -58.375)"/></g><g transform="translate(87.554 102.519)"><path class="f" d="M172.895,64.7c-.15,1.566-.367,3.128-.6,4.685a22.6,22.6,0,0,1-2.034,7.371c-1.105,2-4.511,3.01-6.622,3.138a10.259,10.259,0,0,1-8.295-3.621c-2.866-3.391-3.309-8.377-1.968-12.61s4.239-7.808,7.467-10.858a29.479,29.479,0,0,0,4.407-4.615c1.772-2.605,1.38-5.762,1.861-8.721.469,1.21,1.544,2.312,2.114,3.548a30.879,30.879,0,0,1,2.156,5.759,51.022,51.022,0,0,1,1.708,12.239C173.083,62.242,173.01,63.471,172.895,64.7Z" transform="translate(-152.649 -39.466)"/></g><g transform="translate(101.123 95.575)"><path class="f" d="M183.924,55.747a13.975,13.975,0,0,0,2.206.433c4.862.535,9.746-2,12.8-5.826a10.786,10.786,0,0,0,2.6-6.17,8.79,8.79,0,0,0-3.25-6.881A12.174,12.174,0,0,0,191,34.659a16.061,16.061,0,0,0-7.591,1.415c-2.165,1.081-4.5,1.824-6.66,2.979a29.464,29.464,0,0,1-5.776,2.717c-3.188.9-5.766-.5-8.9-1,.422.068.777,1.015.984,1.313a3.309,3.309,0,0,0,1.059.99,32.539,32.539,0,0,1,3.594,2.941,51.023,51.023,0,0,0,11.962,8.044A24.907,24.907,0,0,0,183.924,55.747Z" transform="translate(-162.076 -34.642)"/></g><g transform="translate(51.269 74.08)"><path class="f" d="M147.692,41.975a18.923,18.923,0,0,1-.59,10.3c-1.481,3.859-5.006,7.1-9.13,7.384-6.856.463-10.624-6.831-10.53-12.832.071-4.44,1.818-8.7,4.036-12.545a29.605,29.605,0,0,0,2.9-5.688c.949-3-.332-5.914-.721-8.888.8,1.026,2.143,1.772,3.044,2.792,4.7,5.32,8.756,10.562,10.569,17.577C147.427,40.7,147.571,41.336,147.692,41.975Z" transform="translate(-127.44 -19.708)"/></g><g transform="translate(56.391 58.975)"><path class="f" d="M156.227,31.868a13.9,13.9,0,0,0,2.238-.219c4.812-.884,8.761-4.717,10.585-9.255a10.784,10.784,0,0,0,.715-6.657,8.792,8.792,0,0,0-5.09-5.659,12.181,12.181,0,0,0-7.728-.442,16.041,16.041,0,0,0-6.864,3.536c-1.763,1.657-3.788,3.04-5.524,4.766a29.533,29.533,0,0,1-4.751,4.262c-2.8,1.776-5.668,1.173-8.81,1.592.423-.056,1.036.748,1.321.974a3.294,3.294,0,0,0,1.3.643,32.89,32.89,0,0,1,4.288,1.785,51.053,51.053,0,0,0,13.769,4.272A24.959,24.959,0,0,0,156.227,31.868Z" transform="translate(-130.998 -9.214)"/></g><g transform="translate(7.729 43.526)"><path class="f" d="M118.153,22.631A18.923,18.923,0,0,1,116,32.722c-2.054,3.588-6.032,6.257-10.152,5.9C99,38.035,96.39,30.249,97.4,24.333c.747-4.378,3.125-8.318,5.9-11.781a29.613,29.613,0,0,0,3.732-5.179c1.4-2.823.576-5.9.645-8.894.63,1.136,1.848,2.078,2.582,3.226,3.829,5.973,7.04,11.775,7.759,18.985Q118.117,21.656,118.153,22.631Z" transform="translate(-97.189 1.52)"/></g><g transform="translate(17.222 32.752)"><path class="f" d="M127.485,12.918a13.915,13.915,0,0,0,2.244.127c4.889-.14,9.379-3.323,11.875-7.531a10.787,10.787,0,0,0,1.724-6.468,8.793,8.793,0,0,0-4.164-6.371,12.186,12.186,0,0,0-7.57-1.618A16.059,16.059,0,0,0,124.27-6.5c-1.995,1.367-4.209,2.425-6.188,3.866A29.6,29.6,0,0,1,112.735.855c-3.034,1.327-5.78.292-8.95.226.427.01.91.9,1.157,1.166a3.3,3.3,0,0,0,1.185.835A32.61,32.61,0,0,1,110.091,5.5a51.069,51.069,0,0,0,12.954,6.326A25.1,25.1,0,0,0,127.485,12.918Z" transform="translate(-103.785 9.005)"/></g></g></g><g transform="translate(-5.047 -2.468)"><path class="e" d="M96.973,62.691c-.594-.268-1.16-.567-1.723-.871.237.594.469,1.192.665,1.811C99.768,75.779,94.13,88.4,94.13,88.4s-11.885-7.07-15.736-19.217a31.93,31.93,0,0,1-1.182-12.512A31.683,31.683,0,0,1,69.856,66.84c-9.52,8.472-23.348,8.475-23.348,8.475s1.608-13.734,11.128-22.206a31.886,31.886,0,0,1,10.8-6.133A31.848,31.848,0,0,1,56.3,44.357C44.677,39.12,39.035,26.5,39.035,26.5s13.2-4.135,24.814,1.1c.592.266,1.159.566,1.72.871-.236-.594-.468-1.192-.664-1.812C61.054,14.509,66.692,1.883,66.692,1.883S78.577,8.952,82.428,21.1a31.71,31.71,0,0,1,1.127,12.5,31.944,31.944,0,0,1,7.411-10.149c9.52-8.472,23.348-8.473,23.348-8.473s-1.608,13.734-11.128,22.206a31.83,31.83,0,0,1-11.1,6.176,31.825,31.825,0,0,1,12.436,2.575c11.617,5.236,17.259,17.861,17.259,17.861S108.591,67.927,96.973,62.691Z" transform="translate(-39.035 -1.883)"/><path class="g" d="M76.992,41.93a9.5,9.5,0,1,0-13.406-.78A9.5,9.5,0,0,0,76.992,41.93Z" transform="translate(-29.304 8.424)"/></g><g transform="translate(74.479 60.313)"><path class="e" d="M136.962,90.29c-.438-.2-.855-.417-1.269-.641.176.438.347.877.491,1.333,2.838,8.948-1.316,18.248-1.316,18.248s-8.754-5.208-11.591-14.154a23.521,23.521,0,0,1-.869-9.216,23.337,23.337,0,0,1-5.419,7.487c-7.011,6.24-17.2,6.241-17.2,6.241s1.185-10.116,8.2-16.355a23.509,23.509,0,0,1,7.955-4.518A23.47,23.47,0,0,1,107,76.787C98.442,72.929,94.287,63.63,94.287,63.63s9.72-3.044,18.277.812c.436.2.854.417,1.268.642-.174-.438-.344-.877-.489-1.334C110.506,54.8,114.658,45.5,114.658,45.5s8.754,5.208,11.591,14.156a23.342,23.342,0,0,1,.831,9.2,23.564,23.564,0,0,1,5.458-7.476c7.012-6.24,17.2-6.241,17.2-6.241s-1.183,10.117-8.2,16.357a23.437,23.437,0,0,1-8.173,4.55,23.415,23.415,0,0,1,9.16,1.9C151.084,81.8,155.239,91.1,155.239,91.1S145.52,94.148,136.962,90.29Z" transform="translate(-94.287 -45.501)"/><ellipse class="g" cx="6.994" cy="6.994" rx="6.994" ry="6.994" transform="translate(23.088 38.441) rotate(-86.666)"/></g></g></svg>