<svg xmlns="http://www.w3.org/2000/svg" xmlns:xlink="http://www.w3.org/1999/xlink" width="1576.985" height="537.524" viewBox="0 0 1576.985 537.524"><defs><style>.a{fill:#ffd5d5;}.b{fill:url(#a);}.c{fill:url(#b);}.d{fill:url(#c);}.e{fill:url(#e);}.f{fill:url(#f);}.g{fill:url(#g);}.h{fill:url(#h);}.i{fill:url(#i);}.j{fill:url(#j);}.k{fill:url(#k);}.l{fill:url(#l);}.m{fill:url(#m);}.n{fill:#fff;}.o{fill:#ff6d88;}.p{filter:url(#o);}</style><linearGradient id="a" x1="0.209" y1="0.109" x2="0.749" y2="0.835" gradientUnits="objectBoundingBox"><stop offset="0" stop-color="#fef8fa"/><stop offset="1" stop-color="#fff"/></linearGradient><linearGradient id="b" x1="-12.649" y1="-3.166" x2="-12.113" y2="-2.463" gradientUnits="objectBoundingBox"><stop offset="0" stop-color="#fff"/><stop offset="1" stop-color="#f8d6c7"/></linearGradient><linearGradient id="c" x1="-49.322" y1="-98.901" x2="-48.781" y2="-98.174" xlink:href="#a"/><linearGradient id="e" x1="-39.979" y1="-10.47" x2="-39.439" y2="-9.744" xlink:href="#a"/><linearGradient id="f" x1="-12.21" y1="-6.125" x2="-11.675" y2="-5.421" xlink:href="#b"/><linearGradient id="g" x1="-38.616" y1="-19.9" x2="-38.076" y2="-19.174" xlink:href="#a"/><linearGradient id="h" x1="0.978" y1="0.888" x2="0.13" y2="0.154" gradientUnits="objectBoundingBox"><stop offset="0" stop-color="#ff6d88"/><stop offset="1" stop-color="#ff8698"/></linearGradient><linearGradient id="i" x1="-47.7" y1="-19.867" x2="-47.16" y2="-19.141" xlink:href="#b"/><linearGradient id="j" x1="-6.524" y1="-21.114" x2="-7.36" y2="-21.853" xlink:href="#h"/><linearGradient id="k" x1="-52.508" y1="-100.698" x2="-51.968" y2="-99.972" xlink:href="#b"/><linearGradient id="l" x1="-21.721" y1="-6.49" x2="-21.185" y2="-5.787" xlink:href="#b"/><linearGradient id="m" x1="-68.218" y1="-21.066" x2="-67.677" y2="-20.34" xlink:href="#a"/><filter id="o" x="509.423" y="4.113" width="27.287" height="27.287" filterUnits="userSpaceOnUse"><feOffset dy="3" input="SourceAlpha"/><feGaussianBlur stdDeviation="3" result="p"/><feFlood flood-color="#f62743" flood-opacity="0.459"/><feComposite operator="in" in2="p"/><feComposite in="SourceGraphic"/></filter></defs><g transform="translate(-247.73 -179.614)"><g transform="translate(1786.516 506.031)"><path class="a" d="M961.2,363.8a5.43,5.43,0,0,0-5.7-4.014c-2.134.09-5.2,1.521-7.921,3.067.627-3.067,1.042-6.426.466-8.483a5.815,5.815,0,0,0-11.16,0c-.576,2.061-.16,5.423.469,8.493-2.728-1.544-5.8-2.978-7.935-3.064a5.816,5.816,0,0,0-3.44,10.619c1.778,1.18,5.1,1.822,8.212,2.169-2.31,2.113-4.616,4.588-5.359,6.591a5.815,5.815,0,0,0,9.034,6.554c1.674-1.326,3.31-4.288,4.6-7.139,1.3,2.849,2.937,5.809,4.611,7.134a5.816,5.816,0,0,0,9.027-6.565c-.745-2-3.055-4.472-5.366-6.584,3.111-.353,6.433-1,8.21-2.18A5.429,5.429,0,0,0,961.2,363.8Z" transform="translate(-923.362 -350.183)"/><path class="b" d="M942.8,364.1a5.986,5.986,0,1,1-5.987-5.987A5.986,5.986,0,0,1,942.8,364.1Z" transform="translate(-917.713 -344.183)"/></g><g transform="translate(508.288 446.098)"><path class="c" d="M630.653,353.446a3.624,3.624,0,0,0,.184-4.652,14.039,14.039,0,0,0-4.592-3.331,14.05,14.05,0,0,0,4.926-2.812,3.883,3.883,0,0,0-4.047-6.259,14.039,14.039,0,0,0-4.592,3.343,14.075,14.075,0,0,0-1.159-5.561,3.883,3.883,0,0,0-7.2,1.922,14.026,14.026,0,0,0,1.76,5.391,14.042,14.042,0,0,0-5.639-.615,3.884,3.884,0,0,0-.4,7.443,14.043,14.043,0,0,0,5.672-.009,14.047,14.047,0,0,0-2.329,5.173,3.884,3.884,0,0,0,6.955,2.681,14.049,14.049,0,0,0,1.746-5.4,14.044,14.044,0,0,0,4.2,3.814A3.624,3.624,0,0,0,630.653,353.446Z" transform="translate(-607.288 -332.264)"/><circle class="d" cx="3.997" cy="3.997" r="3.997" transform="translate(9.042 8.962)"/></g><g transform="translate(247.73 360.761)"><path class="c" d="M957.391,210.784a5.427,5.427,0,0,0-6.547-2.4c-2.038.639-4.625,2.818-6.856,5.015-.188-3.125-.659-6.475-1.746-8.312a5.816,5.816,0,0,0-10.781,2.893c-.023,2.138,1.251,5.279,2.654,8.081-3.034-.783-6.371-1.372-8.458-.9a5.815,5.815,0,0,0-.569,11.146c2.025.68,5.4.437,8.5-.033-1.683,2.642-3.271,5.628-3.468,7.756a5.815,5.815,0,0,0,10.424,3.988c1.272-1.714,2.085-5,2.595-8.088,1.992,2.417,4.342,4.85,6.3,5.7a5.816,5.816,0,0,0,7.018-8.68c-1.238-1.741-4.111-3.529-6.891-4.97,2.914-1.145,5.955-2.63,7.366-4.232A5.427,5.427,0,0,0,957.391,210.784Z" transform="translate(-921.172 -202.233)"/><path class="e" d="M940.777,214.357a5.986,5.986,0,1,1-7.332-4.23A5.985,5.985,0,0,1,940.777,214.357Z" transform="translate(-915.242 -196.417)"/></g><g transform="translate(1379.563 194.409)"><path class="f" d="M709.012,207.609a5.427,5.427,0,0,0-6.547-2.4c-2.038.639-4.627,2.816-6.856,5.015-.188-3.125-.659-6.475-1.748-8.312a5.814,5.814,0,0,0-10.779,2.893c-.023,2.138,1.251,5.279,2.654,8.081-3.034-.785-6.371-1.372-8.458-.9a5.816,5.816,0,0,0-.569,11.148c2.024.68,5.4.437,8.5-.033-1.683,2.64-3.271,5.628-3.468,7.756a5.815,5.815,0,0,0,10.424,3.988c1.272-1.714,2.085-5,2.595-8.089,1.992,2.417,4.343,4.85,6.3,5.7a5.815,5.815,0,0,0,7.016-8.681c-1.237-1.739-4.109-3.527-6.89-4.968,2.914-1.147,5.955-2.63,7.366-4.234A5.427,5.427,0,0,0,709.012,207.609Z" transform="translate(-672.792 -199.058)"/><path class="g" d="M692.4,211.18a5.986,5.986,0,1,1-7.334-4.228A5.989,5.989,0,0,1,692.4,211.18Z" transform="translate(-666.862 -193.242)"/></g><g transform="translate(632.194 678.974)"><g transform="translate(0)"><path class="h" d="M740.862,442.368a5.429,5.429,0,0,0-6.547-2.4c-2.038.639-4.625,2.818-6.856,5.017-.188-3.127-.659-6.477-1.746-8.314a5.816,5.816,0,0,0-10.781,2.893c-.023,2.14,1.251,5.279,2.654,8.082-3.034-.785-6.371-1.374-8.458-.9a5.816,5.816,0,0,0-.569,11.148c2.025.678,5.4.436,8.5-.033-1.683,2.64-3.269,5.628-3.468,7.754A5.815,5.815,0,0,0,724.01,469.6c1.274-1.716,2.085-5,2.595-8.089,1.992,2.417,4.342,4.85,6.3,5.7a5.815,5.815,0,0,0,7.018-8.68c-1.238-1.741-4.111-3.529-6.89-4.97,2.912-1.145,5.953-2.628,7.364-4.232A5.427,5.427,0,0,0,740.862,442.368Z" transform="translate(-704.643 -433.818)"/><path class="i" d="M724.248,445.94a5.986,5.986,0,1,1-7.332-4.228A5.985,5.985,0,0,1,724.248,445.94Z" transform="translate(-698.713 -428.001)"/></g></g><g transform="translate(1388.574 416.444)"><path class="j" d="M677.31,143.443a4.057,4.057,0,0,0-2.477-4.585c-1.458-.652-3.986-.715-6.322-.587,1.442-1.844,2.837-3.952,3.137-5.519a4.345,4.345,0,0,0-7.467-3.717c-1.072,1.186-1.913,3.575-2.516,5.839-1.31-1.943-2.888-3.924-4.288-4.694a4.347,4.347,0,0,0-5.839,5.959c.8,1.382,2.807,2.918,4.773,4.188-2.249.645-4.616,1.532-5.781,2.624a4.346,4.346,0,0,0,3.863,7.394c1.562-.33,3.641-1.765,5.456-3.243-.081,2.338.03,4.864.71,6.308a4.346,4.346,0,0,0,8.226-1.384c.169-1.588-.553-4.01-1.4-6.194,2.2.8,4.636,1.476,6.22,1.277A4.056,4.056,0,0,0,677.31,143.443Z" transform="translate(-649.118 -127.561)"/><path class="k" d="M662.767,139.369a4.473,4.473,0,1,1-2.011-6A4.473,4.473,0,0,1,662.767,139.369Z" transform="translate(-645.206 -123.521)"/></g><g transform="translate(1052.505 471.576)"><path class="l" d="M880.626,335.86a3.535,3.535,0,0,0-4.263-1.563,13.677,13.677,0,0,0-4.466,3.267,13.692,13.692,0,0,0-1.138-5.416,3.788,3.788,0,0,0-7.021,1.885,13.7,13.7,0,0,0,1.73,5.263,13.691,13.691,0,0,0-5.509-.587,3.788,3.788,0,0,0-.372,7.26,13.681,13.681,0,0,0,5.533-.023,13.716,13.716,0,0,0-2.259,5.05,3.788,3.788,0,0,0,6.789,2.6,13.7,13.7,0,0,0,1.692-5.268,13.707,13.707,0,0,0,4.1,3.71,3.788,3.788,0,0,0,4.571-5.653,13.679,13.679,0,0,0-4.488-3.237,13.674,13.674,0,0,0,4.8-2.756A3.532,3.532,0,0,0,880.626,335.86Z" transform="translate(-857.036 -330.29)"/><path class="m" d="M869.806,338.186a3.9,3.9,0,1,1-4.776-2.754A3.9,3.9,0,0,1,869.806,338.186Z" transform="translate(-853.174 -326.502)"/></g><g transform="translate(757.185 179.614)"><g transform="translate(0)"><path class="c" d="M894.7,259.183a4.21,4.21,0,0,0-2.981-4.513c-1.567-.539-4.184-.372-6.589-.026,1.323-2.038,2.572-4.346,2.739-5.994a4.511,4.511,0,0,0-8.061-3.158c-1,1.323-1.649,3.87-2.064,6.266-1.534-1.888-3.345-3.791-4.864-4.458a4.51,4.51,0,0,0-5.488,6.695c.95,1.356,3.167,2.76,5.316,3.891-2.266.873-4.632,2.008-5.734,3.243a4.51,4.51,0,0,0,4.669,7.29c1.583-.485,3.6-2.159,5.344-3.852.13,2.424.476,5.026,1.311,6.457a4.511,4.511,0,0,0,8.377-2.187c.028-1.657-.94-4.095-2.013-6.275,2.347.627,4.927,1.1,6.547.752A4.212,4.212,0,0,0,894.7,259.183Z" transform="translate(-865.777 -243.672)"/><g class="p" transform="matrix(1, 0, 0, 1, -509.45, 0)"><path class="n" d="M879.848,255.765a4.642,4.642,0,1,1-2.628-6.015A4.644,4.644,0,0,1,879.848,255.765Z" transform="translate(-352.46 -239.32)"/></g></g></g><path class="o" d="M19.738,19.836h-7.4v-7.4H7.4v7.4H0V24.77H7.4v7.4h4.934v-7.4h7.4ZM32.073,22.3a7.4,7.4,0,1,0-7.4-7.4A7.371,7.371,0,0,0,32.073,22.3Zm0,4.934c-4.934,0-14.8,2.467-14.8,7.4v4.934H46.877V34.639C46.877,29.7,37.008,27.238,32.073,27.238Z" transform="translate(514.564 201.704)"/><path class="n" d="M18.9,33.167l-2.252-2.031c-8-7.342-13.276-12.107-13.276-18.043A8.445,8.445,0,0,1,11.915,4.5,9.186,9.186,0,0,1,18.9,7.781,9.185,9.185,0,0,1,25.89,4.5a8.445,8.445,0,0,1,8.54,8.592c0,5.936-5.279,10.7-13.276,18.043Z" transform="translate(680.283 367.387)"/><path class="o" d="M12.833,21.96l-1.372-1.237C6.59,16.251,3.375,13.349,3.375,9.733A5.143,5.143,0,0,1,8.577,4.5a5.6,5.6,0,0,1,4.256,2,5.6,5.6,0,0,1,4.256-2,5.143,5.143,0,0,1,5.2,5.233c0,3.615-3.216,6.518-8.086,10.99Z" transform="translate(1641.411 368.637)"/></g></svg>