<svg xmlns="http://www.w3.org/2000/svg" xmlns:xlink="http://www.w3.org/1999/xlink" width="294" height="195" viewBox="0 0 294 195"><defs><style>.a{fill:#fff;stroke:#707070;}.b{clip-path:url(#a);}.c{fill:#84bcb4;}.d{fill:#a7d0cb;}.e{fill:#7a7969;fill-rule:evenodd;}.f{fill:#e27d95;}.g{fill:#d15478;}.h{fill:#efb381;}.i{fill:#e99375;}.j{fill:#365360;}.k{fill:#feffff;}</style><clipPath id="a"><rect class="a" width="294" height="195" transform="translate(1626)"/></clipPath></defs><g class="b" transform="translate(-1626)"><g transform="translate(-2)"><g transform="translate(1740.504 -9.046)"><path class="c" d="M719.022,1.368A238.061,238.061,0,0,1,769.7-.942,51.237,51.237,0,0,1,779.755.387a7.093,7.093,0,0,1,3.9,2.114c1.5,1.89.959,4.8-.569,6.671s-3.8,2.941-5.987,3.955a101.513,101.513,0,0,0-14.211,8.219c-3.826,2.59-7.819,4.389-11.437,7.264-8.442,6.709-17.5,12.916-27.6,16.854a157.644,157.644,0,0,1-33.574,8.981c-4.837.733-9.786,1.239-14.6.395a26.572,26.572,0,0,1-11.4-4.966,12.268,12.268,0,0,1-4.589-5.788,12.547,12.547,0,0,1-.208-5.582c1.638-11.245,9.689-19.628,19.161-25.179,10.747-6.3,22.251-8.666,34.317-10.915Q715.976,1.846,719.022,1.368Z" transform="translate(-659.257 1.374)"/><path class="d" d="M767.53,6.092a.7.7,0,0,0-.367-.2c-16.736-3.325-33.809-1.824-50.651-.241a.761.761,0,0,0,.121,1.517c15.946-1.5,32.087-2.891,47.962-.155-1.259.4-2.521.793-3.781,1.194a.737.737,0,0,0-.73.021c-.256.149-.513.3-.769.452-7.762,2.456-15.528,4.906-23.314,7.277a.761.761,0,0,0-.237-.056c-15.657-.55-31.153-1.7-46.567,1.823-.951.218-.426,1.647.519,1.431,13.867-3.17,27.868-2.464,41.936-1.9-.414.125-.829.244-1.244.369a.712.712,0,0,0-.241.042c-.064.027-.127.058-.192.085-3.1.922-6.189,1.855-9.293,2.742-4.269,1.218-8.565,2.33-12.858,3.446a.649.649,0,0,0-.5-.115c-13.356,2.047-27.055.062-40.259,3.338-.948.236-.424,1.665.519,1.431,10.468-2.6,21.283-1.821,31.97-2.454-2.017.551-4.032,1.111-6.038,1.709q-14.12,4.206-28.057,8.984a.762.762,0,0,0,.521,1.431q13.937-4.769,28.056-8.984c2.424-.722,4.859-1.4,7.3-2.056-9.834,5.365-18.38,12.838-26.247,20.806-.689.7.473,1.681,1.158.988,9.375-9.5,19.714-18.359,32.145-23.561a.792.792,0,0,0,.238-.16c4.2-1.092,8.4-2.18,12.569-3.372.639-.182,1.273-.38,1.91-.563a61.8,61.8,0,0,0-8.189,6.387c-2.331,2.13-4.546,4.381-6.726,6.664-2.123,2.223-4.38,4.4-5.747,7.2a.761.761,0,0,0,1.37.662c1.306-2.667,3.51-4.75,5.535-6.871,2.065-2.164,4.159-4.3,6.359-6.328A50.041,50.041,0,0,1,730.5,19.18q11.583-3.451,23.114-7.1A116.991,116.991,0,0,0,741.3,20.444c-5.636,4.488-10.142,10.339-16.181,14.312-.818.539.051,1.788.87,1.248,6.045-3.975,10.544-9.823,16.181-14.311a148.429,148.429,0,0,1,17.752-11.61q9.174-2.9,18.349-5.777c.935-.291.415-1.721-.519-1.431Q772.639,4.469,767.53,6.092Z" transform="translate(-657.139 2.934)"/></g><g transform="translate(1788.432 67.766)"><g transform="translate(0 0)"><path class="e" d="M697.089,118.77s18.829,14.235,34.365-2.579C731.454,116.191,712.295,103.278,697.089,118.77Z" transform="translate(-697.089 -24.516)"/><g transform="translate(17.309 68.635)"><path class="e" d="M709.72,98.08s4.488,23.176,27.5,20.984C737.218,119.064,731.589,96.656,709.72,98.08Z" transform="translate(-709.72 -98.015)"/></g><g transform="translate(57.3 52.896)"><path class="e" d="M738.9,91.2s15.737,17.6,34.368,3.914C773.27,95.111,756.944,78.76,738.9,91.2Z" transform="translate(-738.902 -86.529)"/></g><g transform="translate(39.463 63.233)"><path class="e" d="M725.886,94.711s7.78,22.288,30.235,16.8C756.121,111.514,747.322,90.15,725.886,94.711Z" transform="translate(-725.886 -94.072)"/></g><g transform="translate(71.789 33.601)"><path class="e" d="M749.475,81.926S769.532,94.375,783.555,76C783.555,76,763.284,64.909,749.475,81.926Z" transform="translate(-749.475 -72.449)"/></g><g transform="translate(30.399 89.529)"><path class="e" d="M720.86,145.466s-8.189-22.14,12.617-32.205C733.478,113.261,740.294,135.338,720.86,145.466Z" transform="translate(-719.272 -113.261)"/></g><g transform="translate(86.935 61.442)"><path class="e" d="M770.684,126.884S752.3,112.078,765,92.765C765,92.765,782.173,108.223,770.684,126.884Z" transform="translate(-760.527 -92.765)"/></g><g transform="translate(58.323 80.54)"><path class="e" d="M742.957,140.39s-11.292-20.73,7.848-33.688C750.805,106.7,760.73,127.567,742.957,140.39Z" transform="translate(-739.649 -106.702)"/></g><g transform="translate(104.315 37.189)"><path class="e" d="M789.57,106.2s-21.811-9.029-15.065-31.138C774.505,75.067,795.336,85.062,789.57,106.2Z" transform="translate(-773.21 -75.067)"/></g><path class="e" d="M720.947,141.187s40.07-1.747,62.959-33.168c9.794-13.43,16.465-32.3,15.463-58.829a1.312,1.312,0,0,0-2.623.1c.976,25.767-5.446,44.122-14.958,57.188-22.156,30.409-60.96,32.085-60.96,32.085a1.311,1.311,0,0,0,.118,2.62Z" transform="translate(-688.759 -47.929)"/></g></g><g transform="translate(1678.439 57.277)"><path class="f" d="M634.088,75.7c.48.3.966.569,1.457.832-.544.111-1.088.23-1.631.385-10.646,3.03-17.09,13.165-17.09,13.165s10.816,5.221,21.462,2.19a27.745,27.745,0,0,0,9.63-5.139,27.549,27.549,0,0,0-3.838,10.2c-1.575,10.956,5.051,20.974,5.051,20.974s9.179-7.745,10.753-18.7a27.674,27.674,0,0,0-.733-10.763,27.686,27.686,0,0,0,7.715,7.538c9.362,5.906,21.211,3.944,21.211,3.944s-3.329-11.54-12.69-17.446c-.477-.3-.966-.569-1.455-.829.543-.114,1.087-.233,1.629-.388C686.205,78.634,692.65,68.5,692.65,68.5s-10.816-5.221-21.463-2.19a27.539,27.539,0,0,0-9.593,5.172,27.763,27.763,0,0,0,3.8-10.233c1.575-10.956-5.051-20.974-5.051-20.974s-9.179,7.745-10.753,18.7a27.634,27.634,0,0,0,.843,11,27.637,27.637,0,0,0-7.825-7.775c-9.361-5.906-21.211-3.944-21.211-3.944S624.727,69.8,634.088,75.7Z" transform="translate(-616.824 -40.275)"/><path class="g" d="M638.556,69.8a8.247,8.247,0,1,1,6.989,9.338A8.245,8.245,0,0,1,638.556,69.8Z" transform="translate(-608.806 -31.959)"/></g><g transform="translate(1674.498 -1.385)"><path class="f" d="M626.667,23.564c.352.222.711.419,1.072.613-.4.082-.8.17-1.2.284-7.843,2.232-12.59,9.7-12.59,9.7s7.969,3.845,15.809,1.613a20.438,20.438,0,0,0,7.093-3.786,20.29,20.29,0,0,0-2.827,7.514c-1.159,8.07,3.721,15.448,3.721,15.448s6.761-5.7,7.921-13.775a20.377,20.377,0,0,0-.54-7.928,20.381,20.381,0,0,0,5.683,5.553c6.9,4.351,15.624,2.9,15.624,2.9s-2.452-8.5-9.347-12.85c-.351-.222-.711-.418-1.073-.611.4-.082.8-.171,1.2-.285,7.841-2.232,12.588-9.7,12.588-9.7s-7.967-3.845-15.809-1.613a20.286,20.286,0,0,0-7.066,3.81,20.439,20.439,0,0,0,2.8-7.537c1.161-8.07-3.721-15.448-3.721-15.448s-6.761,5.7-7.921,13.775a20.358,20.358,0,0,0,.621,8.1,20.354,20.354,0,0,0-5.764-5.727c-6.894-4.351-15.622-2.905-15.622-2.905S619.771,19.213,626.667,23.564Z" transform="translate(-613.948 2.532)"/><path class="g" d="M629.956,19.217A6.074,6.074,0,1,1,635.1,26.1,6.075,6.075,0,0,1,629.956,19.217Z" transform="translate(-608.042 8.657)"/></g><g transform="translate(1821.301 -15.849)"><path class="h" d="M837.61,74.442c11.049,1.228,17.412-7.238,17.412-7.238,7.774-13.158-8.383-19.07-8.383-19.07a58.766,58.766,0,0,0-37.676-1.666,58.766,58.766,0,0,0,24.871-28.328s6.919-15.751-7.956-19.254c0,0-10.514-1.269-17.278,7.553,1.227-11.051-7.238-17.411-7.238-17.411-13.16-7.774-19.07,8.383-19.07,8.383a58.754,58.754,0,0,0-1.675,37.641A58.771,58.771,0,0,0,752.284,10.21S736.531,3.3,733.036,18.175c0,0-1.268,10.513,7.56,17.275-11.051-1.225-17.411,7.244-17.411,7.244-7.767,13.162,8.392,19.069,8.392,19.069a58.764,58.764,0,0,0,37.659,1.651,58.766,58.766,0,0,0-24.87,28.349s-6.914,15.754,7.966,19.25c0,0,10.512,1.266,17.274-7.56-1.224,11.051,7.245,17.409,7.245,17.409,13.161,7.769,19.068-8.392,19.068-8.392a58.758,58.758,0,0,0,1.642-37.695,58.771,58.771,0,0,0,28.348,24.9s15.753,6.92,19.254-7.956C845.163,91.719,846.435,81.206,837.61,74.442Zm-48.87-18.408c-.011.008-.081.025-.1.034-.007-.021-.047-.079-.047-.093l-.269.2c-.785.211-2.731.611-5.359,1.379,2.378-1.37,4.018-2.5,4.717-2.923l.334-.052c-.01-.011-.025-.081-.034-.1.021-.008.079-.047.092-.048l-.2-.269c-.211-.78-.609-2.706-1.366-5.309,1.354,2.349,2.469,3.969,2.887,4.661l.053.332c.008-.008.08-.025.1-.034.007.021.047.081.048.095l.27-.2c.787-.214,2.74-.615,5.375-1.384-2.372,1.368-4.01,2.494-4.706,2.913l-.333.055a.971.971,0,0,1,.034.1c-.021.007-.079.048-.093.049l.2.27c.215.792.619,2.764,1.4,5.425-1.383-2.4-2.526-4.06-2.949-4.763Z" transform="translate(-721.074 13.088)"/><path class="i" d="M803.436,55.088a9.824,9.824,0,0,0,8.516-3.54c3.8-6.437-4.1-9.328-4.1-9.328a28.743,28.743,0,0,0-18.429-.815,28.745,28.745,0,0,0,12.165-13.856s3.385-7.7-3.892-9.417a9.825,9.825,0,0,0-8.45,3.695,9.831,9.831,0,0,0-3.541-8.517c-6.437-3.8-9.328,4.1-9.328,4.1a28.741,28.741,0,0,0-.818,18.412A28.74,28.74,0,0,0,761.7,23.671s-7.706-3.381-9.415,3.9a9.823,9.823,0,0,0,3.7,8.45,9.826,9.826,0,0,0-8.516,3.542c-3.8,6.438,4.106,9.327,4.106,9.327a28.743,28.743,0,0,0,18.419.809A28.738,28.738,0,0,0,757.83,63.56s-3.382,7.706,3.9,9.416a9.824,9.824,0,0,0,8.448-3.7,9.822,9.822,0,0,0,3.544,8.514c6.438,3.8,9.325-4.1,9.325-4.1a28.737,28.737,0,0,0,.8-18.437,28.748,28.748,0,0,0,13.865,12.18s7.7,3.385,9.416-3.892A9.824,9.824,0,0,0,803.436,55.088Z" transform="translate(-711.681 22.481)"/><path class="j" d="M781.266,42.222a8.8,8.8,0,1,1-4.885-11.454A8.805,8.805,0,0,1,781.266,42.222Z" transform="translate(-705.068 29.094)"/></g><g transform="translate(1628.342 19.281)"><path class="k" d="M611.3,34.141a9.705,9.705,0,1,0-11.4-15.53,9.71,9.71,0,1,0-15.187,11.13,9.708,9.708,0,1,0,13.19,13.76,8.18,8.18,0,1,0,13.4-9.36Z" transform="translate(-580.266 -12.549)"/><g transform="translate(12.188 13.016)"><path class="f" d="M596.53,24.871a1.911,1.911,0,1,1-.766-2.593A1.91,1.91,0,0,1,596.53,24.871Z" transform="translate(-587.761 -22.047)"/><path class="f" d="M597.111,28.67a1.911,1.911,0,1,1-.766-2.591A1.912,1.912,0,0,1,597.111,28.67Z" transform="translate(-587.546 -20.64)"/><path class="f" d="M592.752,27.361a1.911,1.911,0,1,1-.766-2.593A1.91,1.91,0,0,1,592.752,27.361Z" transform="translate(-589.16 -21.125)"/></g></g></g></g></svg>