<svg xmlns="http://www.w3.org/2000/svg" width="67" height="40" viewBox="0 0 67 40"><defs><style>.a{fill:#fff;opacity:0;}.b{fill:#ff5f00;}.c{fill:#eb001b;}.d{fill:#f79e1b;}</style></defs><g transform="translate(-0.246 -0.347)"><rect class="a" width="67" height="40" rx="6" transform="translate(0.246 0.347)"/><g transform="translate(15.516 8.791)"><path class="b" d="M43.049,16.764h9.958V35.016H43.049Z" transform="translate(-29.616 -14.281)"/><path class="c" d="M37.139,24.683a11.67,11.67,0,0,1,4.346-9.127,11.221,11.221,0,0,0-15.393,1.251,11.778,11.778,0,0,0,0,15.749,11.221,11.221,0,0,0,15.393,1.251,11.674,11.674,0,0,1-4.347-9.124Z" transform="translate(-23.073 -13.073)"/><path class="d" d="M68.866,24.682a11.631,11.631,0,0,1-6.407,10.44,11.2,11.2,0,0,1-12.007-1.316,11.75,11.75,0,0,0,0-18.251A11.2,11.2,0,0,1,62.46,14.24a11.628,11.628,0,0,1,6.407,10.439Zm-1.087,7.353v-.51h.149v-.1h-.377v.1h.161v.51h.067Zm.73,0v-.615H68.4l-.132.439-.133-.439h-.1v.615h.082v-.461l.123.4h.085l.124-.4v.466Z" transform="translate(-32.041 -13.072)"/></g></g></svg>