<svg xmlns="http://www.w3.org/2000/svg" width="109.577" height="67.89" viewBox="0 0 109.577 67.89"><defs><style>.a{fill:#cfe7ff;}.b{fill:#ff54d4;}.c,.d,.e,.f,.g{fill:none;}.c,.d,.e{stroke:#000;stroke-width:3px;}.c,.d{stroke-miterlimit:10;}.d,.e,.f,.g{stroke-linecap:round;}.f{stroke:#8b78f6;}.f,.g{stroke-linejoin:round;stroke-width:2px;}.g{stroke:#dfe1e0;}</style></defs><g transform="translate(-828.973 -237.102)"><circle class="a" cx="23.5" cy="23.5" r="23.5" transform="translate(860.185 243.758)"/><circle class="b" cx="4.5" cy="4.5" r="4.5" transform="translate(879.185 262.758)"/><path class="c" d="M967.577,347.525a3.953,3.953,0,1,1-3.953-3.953c.125,0,.248.006.37.017s.249.029.371.052a3.949,3.949,0,0,1,3.212,3.883Z" transform="translate(-79.767 -79.767)"/><path class="d" d="M911.159,300.587q.231-.268.471-.528.286-.312.585-.613" transform="translate(-44.743 -47.91)"/><path class="d" d="M900.341,279.356a22.953,22.953,0,0,1,13.677-4.493q1.091,0,2.157.1,1.1.1,2.166.305a22.925,22.925,0,0,1,9.694,4.344,23.054,23.054,0,1,1-33.663,6.231" transform="translate(-30.161 -30.161)"/><path class="e" d="M0,2v8.3" transform="translate(883.857 253.502)"/><line class="d" y1="7.5" x2="9.875" transform="translate(887.81 260.258)"/><line class="d" x1="2.317" transform="translate(901.344 267.65)"/><line class="d" x1="2.317" transform="translate(864.053 267.65)"/><line class="d" y2="2.317" transform="translate(883.857 247.846)"/><line class="d" y2="2.317" transform="translate(883.857 285.137)"/><g transform="translate(386.958 -22.08)"><line class="f" y2="7.577" transform="translate(446.803 262.626)"/><line class="f" x1="7.577" transform="translate(443.015 266.414)"/></g><g transform="translate(486.958 28.132)"><line class="g" y2="7.577" transform="translate(446.803 262.626)"/><line class="g" x1="7.577" transform="translate(443.015 266.414)"/></g><g transform="translate(481.301 -24.524)"><line class="f" y2="5.656" transform="translate(445.843 262.626)"/><line class="f" x1="5.656" transform="translate(443.015 265.454)"/></g><g transform="translate(399.301 35.71)"><line class="g" y2="5.656" transform="translate(445.843 262.626)"/><line class="g" x1="5.656" transform="translate(443.015 265.454)"/></g></g></svg>