<svg xmlns="http://www.w3.org/2000/svg" xmlns:xlink="http://www.w3.org/1999/xlink" width="104.795" height="99.462" viewBox="0 0 104.795 99.462"><defs><style>.a,.b{fill:none;}.a,.b,.d{stroke:#000;stroke-linecap:round;stroke-miterlimit:10;stroke-width:3px;}.a,.d{stroke-linejoin:round;}.c{fill:#5942d8;}.d{fill:#cfe7ff;}.e{fill:url(#a);}.f{fill:#d54acc;}.g{opacity:0.29;}.h{opacity:0.65;}</style><linearGradient id="a" x1="1" y1="0.868" x2="0.014" y2="0.9" gradientUnits="objectBoundingBox"><stop offset="0" stop-color="#ff5c87"/><stop offset="1" stop-color="#4761ff"/></linearGradient></defs><g transform="translate(-1291.242 -2499.799)"><path class="a" d="M531.594,100.047H528.8a5.266,5.266,0,0,0-5.266,5.267v17.622A5.266,5.266,0,0,0,528.8,128.2h4.183l2.484,5.474a2.074,2.074,0,0,0,3.777,0l2.484-5.474h15.382a5.267,5.267,0,0,0,5.266-5.267V105.313a5.267,5.267,0,0,0-5.266-5.267h-13.2" transform="translate(769.207 2401.252)"/><line class="b" x1="1.928" transform="translate(1305.756 2501.299)"/><path class="c" d="M622.494,582.409a3.233,3.233,0,0,1,1.507,2.4,2.607,2.607,0,0,0,3.718-2.366,2.613,2.613,0,0,0-5.225-.039m-1.713,5.351a2.614,2.614,0,1,0-2.613-2.614,2.615,2.615,0,0,0,2.613,2.614m1.109.179h-2.218a3.349,3.349,0,0,0-3.345,3.346V594l.005.042.188.059a15.213,15.213,0,0,0,4.55.733,9.316,9.316,0,0,0,3.974-.746l.174-.087h.019v-2.714a3.35,3.35,0,0,0-3.347-3.346m4.325-2.7h-2.2a3.229,3.229,0,0,1-.994,2.244,3.977,3.977,0,0,1,2.84,3.806v.836a8.991,8.991,0,0,0,3.508-.738l.174-.089h.02v-2.712a3.351,3.351,0,0,0-3.348-3.347m-10.019-.177a2.606,2.606,0,0,0,1.39-.4A3.23,3.23,0,0,1,618.8,582.6c0-.048.007-.1.007-.145a2.614,2.614,0,1,0-2.613,2.612m2.347,2.421a3.223,3.223,0,0,1-.994-2.231c-.082-.006-.162-.014-.245-.014h-2.218a3.351,3.351,0,0,0-3.347,3.347V591.3l.007.043.187.06a15.593,15.593,0,0,0,3.77.707v-.819a3.978,3.978,0,0,1,2.841-3.806" transform="translate(691.743 1928.607)"/><path class="d" d="M786.447,471.719H807.06a4,4,0,0,0,4-4V448.688a4,4,0,0,0-4-4H783.044l-2.385-5.256a1.991,1.991,0,0,0-3.626,0l-2.385,5.256h-6.237a4,4,0,0,0-4,4v19.031a4,4,0,0,0,4,4h6.227" transform="translate(572.214 2126.042)"/><line class="b" x2="1.602" transform="translate(1351.574 2597.761)"/><path d="M4.6-1.339H2.964V-3.758H.533V-5.421H2.964V-7.852H4.6v2.431H7.046v1.663H4.6ZM10.48-1.5h3.313a1.208,1.208,0,0,1,.755.2.663.663,0,0,1,.26.552.734.734,0,0,1-.206.527A.827.827,0,0,1,13.978,0H9.306a1.011,1.011,0,0,1-.743-.263A.842.842,0,0,1,8.3-.882a1.576,1.576,0,0,1,.171-.606,2.173,2.173,0,0,1,.375-.594q.844-.876,1.523-1.5a10.006,10.006,0,0,1,.971-.822,5.6,5.6,0,0,0,.866-.74,2.939,2.939,0,0,0,.527-.762,1.811,1.811,0,0,0,.181-.765,1.378,1.378,0,0,0-.194-.727,1.341,1.341,0,0,0-.527-.5,1.52,1.52,0,0,0-.727-.178,1.484,1.484,0,0,0-1.308.73,3.167,3.167,0,0,0-.213.521,2.173,2.173,0,0,1-.336.654.669.669,0,0,1-.549.229.714.714,0,0,1-.527-.209.772.772,0,0,1-.209-.571,2.39,2.39,0,0,1,.2-.914A2.62,2.62,0,0,1,9.106-8.5a2.907,2.907,0,0,1,.99-.625A3.8,3.8,0,0,1,11.5-9.363a4.065,4.065,0,0,1,1.657.3,2.492,2.492,0,0,1,.781.559,2.584,2.584,0,0,1,.524.822,2.576,2.576,0,0,1,.187.968,2.709,2.709,0,0,1-.39,1.431,4.45,4.45,0,0,1-.8,1.009Q13.057-3.9,12.1-3.123a10.2,10.2,0,0,0-1.311,1.212A3.6,3.6,0,0,0,10.48-1.5ZM22.414-4.564a10.883,10.883,0,0,1-.127,1.79,4.168,4.168,0,0,1-.47,1.358A3.12,3.12,0,0,1,20.7-.26a2.932,2.932,0,0,1-1.523.406A2.9,2.9,0,0,1,17.447-.4a3.323,3.323,0,0,1-1.152-1.511,5.618,5.618,0,0,1-.289-1.165,9.689,9.689,0,0,1-.092-1.381,13.263,13.263,0,0,1,.1-1.727,5.7,5.7,0,0,1,.317-1.32A2.983,2.983,0,0,1,17.421-8.9a2.986,2.986,0,0,1,1.7-.479,3.179,3.179,0,0,1,1.187.213,2.708,2.708,0,0,1,.936.622,3.556,3.556,0,0,1,.682,1.012A7.279,7.279,0,0,1,22.414-4.564Zm-1.739-.127a10.573,10.573,0,0,0-.14-1.9,2.339,2.339,0,0,0-.47-1.117,1.15,1.15,0,0,0-.914-.378,1.174,1.174,0,0,0-1.165.844,7.693,7.693,0,0,0-.327,2.6,11.188,11.188,0,0,0,.14,1.955,2.457,2.457,0,0,0,.47,1.152,1.111,1.111,0,0,0,.9.39,1.113,1.113,0,0,0,.914-.406,2.52,2.52,0,0,0,.463-1.162A11.833,11.833,0,0,0,20.674-4.691Zm9.464.127a10.883,10.883,0,0,1-.127,1.79,4.168,4.168,0,0,1-.47,1.358A3.12,3.12,0,0,1,28.425-.26,2.932,2.932,0,0,1,26.9.146,2.9,2.9,0,0,1,25.172-.4,3.323,3.323,0,0,1,24.02-1.911a5.618,5.618,0,0,1-.289-1.165,9.689,9.689,0,0,1-.092-1.381,13.263,13.263,0,0,1,.1-1.727,5.7,5.7,0,0,1,.317-1.32A2.983,2.983,0,0,1,25.146-8.9a2.986,2.986,0,0,1,1.7-.479,3.179,3.179,0,0,1,1.187.213,2.708,2.708,0,0,1,.936.622,3.556,3.556,0,0,1,.682,1.012A7.279,7.279,0,0,1,30.139-4.564ZM28.4-4.691a10.573,10.573,0,0,0-.14-1.9,2.339,2.339,0,0,0-.47-1.117,1.15,1.15,0,0,0-.914-.378,1.174,1.174,0,0,0-1.165.844,7.693,7.693,0,0,0-.327,2.6,11.188,11.188,0,0,0,.14,1.955,2.457,2.457,0,0,0,.47,1.152,1.111,1.111,0,0,0,.9.39,1.113,1.113,0,0,0,.914-.406,2.52,2.52,0,0,0,.463-1.162A11.833,11.833,0,0,0,28.4-4.691Z" transform="translate(1344.851 2588.829)"/><path class="b" d="M760.809,186.567h24.645a9.429,9.429,0,0,1,9.429,9.43v37.21" transform="translate(575.16 2330.494)"/><path class="b" d="M663.447,322.039H658.1a9.43,9.43,0,0,1-9.429-9.43V273.185" transform="translate(666.872 2261.369)"/><path class="e" d="M1173.015,670.1c-6.507,0-12.687-.579-15.047,5.479-.975,2.5-.833,5.751-.833,10.4,0,4.083-.131,7.919.833,10.4,2.355,6.061,8.584,5.481,15.043,5.481,6.231,0,12.656.649,15.045-5.481.976-2.527.833-5.728.833-10.4,0-6.2.343-10.21-2.667-13.217-3.047-3.047-7.167-2.665-13.215-2.665Zm-1.423,2.862c13.574-.021,15.3-1.531,14.348,19.432-.339,7.414-5.984,6.6-12.923,6.6-12.652,0-13.016-.362-13.016-13.02,0-12.8,1-13.006,11.592-13.017Zm9.9,2.636a1.905,1.905,0,1,0,1.905,1.905,1.905,1.905,0,0,0-1.905-1.905Zm-8.476,2.228a8.155,8.155,0,1,0,8.152,8.156,8.156,8.156,0,0,0-8.152-8.156Zm0,2.862c7,0,7.007,10.588,0,10.588s-7.008-10.588,0-10.588Zm0,0" transform="translate(170.016 1859.181)"/><g transform="matrix(0.891, 0.454, -0.454, 0.891, 1379.339, 2547.73)"><path class="f" d="M9.919,2.215A2.627,2.627,0,0,0,8.352.236a2.052,2.052,0,0,0-2.2.183c-.62.436-.986,1.2-1.147,1.181A4.309,4.309,0,0,0,3.662.4,2.566,2.566,0,0,0,1.977.327,2.783,2.783,0,0,0,.044,2.489C-.414,5.148,2.8,7.2,4.79,8.362a.683.683,0,0,0,.746.067.767.767,0,0,0,.091-.047C7.671,7.063,10.4,5.149,9.919,2.215Z" transform="translate(0 0)"/></g><g class="g" transform="matrix(0.946, -0.326, 0.326, 0.946, 1385.038, 2533.861)"><path class="f" d="M5.181,1.157A1.372,1.372,0,0,0,4.363.123a1.072,1.072,0,0,0-1.149.1c-.324.228-.515.629-.6.617a2.251,2.251,0,0,0-.7-.629,1.34,1.34,0,0,0-.88-.036A1.454,1.454,0,0,0,.023,1.3C-.216,2.689,1.465,3.763,2.5,4.368a.357.357,0,0,0,.39.035.4.4,0,0,0,.047-.024C4.007,3.689,5.43,2.69,5.181,1.157Z" transform="translate(0 0)"/></g><g class="h" transform="matrix(0.999, -0.035, 0.035, 0.999, 1390.101, 2544.61)"><path class="f" d="M5.736,1.281A1.519,1.519,0,0,0,4.831.137,1.187,1.187,0,0,0,3.558.242c-.358.252-.57.7-.663.683a2.492,2.492,0,0,0-.777-.7,1.484,1.484,0,0,0-.975-.04A1.61,1.61,0,0,0,.025,1.439c-.265,1.538,1.6,2.727,2.745,3.4a.4.4,0,0,0,.431.039.444.444,0,0,0,.052-.027C4.437,4.085,6.012,2.978,5.736,1.281Z" transform="translate(0 0)"/></g></g></svg>