<svg xmlns="http://www.w3.org/2000/svg" xmlns:xlink="http://www.w3.org/1999/xlink" width="52.386" height="63.116" viewBox="0 0 52.386 63.116"><defs><style>.a{fill:none;stroke:#000;stroke-linecap:round;stroke-miterlimit:10;stroke-width:3px;}.b{fill:url(#a);}</style><linearGradient id="a" x1="1" y1="0.868" x2="0.014" y2="0.9" gradientUnits="objectBoundingBox"><stop offset="0" stop-color="#ff5c87"/><stop offset="1" stop-color="#4761ff"/></linearGradient></defs><g transform="translate(-1311.898 -2514.081)"><path class="a" d="M760.809,186.567H783.14a8.544,8.544,0,0,1,8.544,8.544v33.715" transform="translate(571.1 2329.014)"/><path class="a" d="M662.059,317.451h-4.848a8.544,8.544,0,0,1-8.544-8.544V273.185" transform="translate(664.731 2258.246)"/><path class="b" d="M1171.523,670.1c-5.9,0-11.5-.525-13.634,4.964-.883,2.267-.755,5.211-.755,9.426,0,3.7-.119,7.176.755,9.425,2.133,5.492,7.778,4.966,13.63,4.966,5.646,0,11.468.588,13.632-4.966.885-2.289.755-5.19.755-9.425,0-5.622.311-9.251-2.416-11.976-2.76-2.76-6.494-2.415-11.974-2.415Zm-1.289,2.593c12.3-.019,13.864-1.387,13,17.607-.307,6.718-5.422,5.98-11.709,5.98-11.464,0-11.794-.328-11.794-11.8,0-11.6.909-11.784,10.5-11.794Zm8.97,2.388a1.726,1.726,0,1,0,1.726,1.726,1.726,1.726,0,0,0-1.726-1.726Zm-7.68,2.018a7.389,7.389,0,1,0,7.387,7.39,7.39,7.39,0,0,0-7.387-7.39Zm0,2.594c6.341,0,6.349,9.593,0,9.593s-6.35-9.593,0-9.593Zm0,0" transform="translate(166.785 1856.555)"/></g></svg>