<svg xmlns="http://www.w3.org/2000/svg" width="38.194" height="34.573" viewBox="0 0 38.194 34.573"><defs><style>.a,.b{fill:none;stroke:#000;stroke-linecap:round;stroke-miterlimit:10;stroke-width:3px;}.a{stroke-linejoin:round;}.c{fill:#5942d8;}</style></defs><g transform="translate(-1291.242 -2499.799)"><path class="a" d="M530.837,100.047h-2.53a4.772,4.772,0,0,0-4.772,4.772v15.967a4.772,4.772,0,0,0,4.772,4.772h3.79l2.251,4.96a1.879,1.879,0,0,0,3.422,0l2.251-4.96h13.938a4.772,4.772,0,0,0,4.772-4.772V104.819a4.772,4.772,0,0,0-4.772-4.772H542" transform="translate(769.207 2401.252)"/><line class="b" x1="1.747" transform="translate(1304.534 2501.299)"/><g transform="translate(1302.473 2507.771)"><g transform="translate(0)"><path class="c" d="M621.484,582.167a2.929,2.929,0,0,1,1.365,2.179,2.344,2.344,0,0,0,1,.225,2.369,2.369,0,1,0-2.367-2.4m-1.552,4.849a2.368,2.368,0,1,0-2.368-2.369,2.37,2.37,0,0,0,2.368,2.369m1,.162h-2.01a3.035,3.035,0,0,0-3.031,3.031v2.459l.005.038.17.053a13.785,13.785,0,0,0,4.123.664,8.441,8.441,0,0,0,3.6-.676l.158-.079h.017v-2.459a3.036,3.036,0,0,0-3.033-3.031m3.918-2.446h-1.993a2.926,2.926,0,0,1-.9,2.034,3.6,3.6,0,0,1,2.574,3.448v.758a8.147,8.147,0,0,0,3.179-.669l.158-.081h.018v-2.457a3.037,3.037,0,0,0-3.034-3.033m-9.078-.16a2.362,2.362,0,0,0,1.26-.365,2.926,2.926,0,0,1,1.1-1.87c0-.044.007-.087.007-.132a2.369,2.369,0,1,0-2.368,2.367m2.127,2.194a2.921,2.921,0,0,1-.9-2.021c-.074-.005-.147-.012-.222-.012h-2.01a3.036,3.036,0,0,0-3.033,3.033v2.457l.006.039.169.054a14.129,14.129,0,0,0,3.416.641v-.742a3.6,3.6,0,0,1,2.574-3.448" transform="translate(-611.738 -579.834)"/></g></g></g></svg>