<svg xmlns="http://www.w3.org/2000/svg" width="45.268" height="33.314" viewBox="0 0 45.268 33.314"><defs><style>.a{fill:#cfe7ff;stroke-linejoin:round;}.a,.b{stroke:#000;stroke-linecap:round;stroke-miterlimit:10;stroke-width:3px;}.b{fill:none;}</style></defs><g transform="translate(-1331.004 -2556.887)"><path class="a" d="M784.377,468.577h18.677a3.625,3.625,0,0,0,3.625-3.625V447.709a3.625,3.625,0,0,0-3.625-3.625h-21.76l-2.161-4.762a1.8,1.8,0,0,0-3.286,0l-2.161,4.762h-5.651a3.625,3.625,0,0,0-3.625,3.625v17.243a3.625,3.625,0,0,0,3.625,3.625h5.642" transform="translate(568.093 2120.124)"/><line class="b" x2="1.451" transform="translate(1346.049 2588.701)"/><path d="M4.248-1.236H2.736V-3.469H.492V-5H2.736V-7.248H4.248V-5H6.5v1.535H4.248Zm5.426-.146h3.059a1.115,1.115,0,0,1,.7.188.612.612,0,0,1,.24.51.678.678,0,0,1-.19.486A.764.764,0,0,1,12.9,0H8.59A.933.933,0,0,1,7.9-.243a.777.777,0,0,1-.246-.571,1.455,1.455,0,0,1,.158-.56,2.006,2.006,0,0,1,.346-.548q.779-.809,1.406-1.386a9.236,9.236,0,0,1,.9-.759,5.171,5.171,0,0,0,.8-.683,2.713,2.713,0,0,0,.486-.7,1.672,1.672,0,0,0,.167-.706,1.272,1.272,0,0,0-.179-.671,1.238,1.238,0,0,0-.486-.46,1.4,1.4,0,0,0-.671-.164,1.37,1.37,0,0,0-1.207.674,2.923,2.923,0,0,0-.2.48,2.005,2.005,0,0,1-.311.6.617.617,0,0,1-.507.211.659.659,0,0,1-.486-.193.713.713,0,0,1-.193-.527,2.206,2.206,0,0,1,.182-.844,2.418,2.418,0,0,1,.542-.8,2.683,2.683,0,0,1,.914-.577,3.507,3.507,0,0,1,1.3-.22,3.752,3.752,0,0,1,1.529.281,2.3,2.3,0,0,1,.721.516,2.385,2.385,0,0,1,.483.759,2.377,2.377,0,0,1,.173.894,2.5,2.5,0,0,1-.36,1.321,4.108,4.108,0,0,1-.735.932q-.375.337-1.257,1.058a9.412,9.412,0,0,0-1.21,1.119A3.327,3.327,0,0,0,9.674-1.383Zm11.016-2.83a10.046,10.046,0,0,1-.117,1.652,3.847,3.847,0,0,1-.434,1.254A2.88,2.88,0,0,1,19.107-.24,2.707,2.707,0,0,1,17.7.135a2.681,2.681,0,0,1-1.6-.5,3.067,3.067,0,0,1-1.063-1.395,5.186,5.186,0,0,1-.267-1.075,8.944,8.944,0,0,1-.085-1.274,12.243,12.243,0,0,1,.094-1.594,5.263,5.263,0,0,1,.293-1.219,2.754,2.754,0,0,1,1-1.286,2.757,2.757,0,0,1,1.573-.442,2.934,2.934,0,0,1,1.1.2,2.5,2.5,0,0,1,.864.574,3.283,3.283,0,0,1,.63.935A6.719,6.719,0,0,1,20.689-4.213ZM19.084-4.33a9.76,9.76,0,0,0-.129-1.755,2.159,2.159,0,0,0-.434-1.031,1.062,1.062,0,0,0-.844-.349,1.084,1.084,0,0,0-1.075.779,7.1,7.1,0,0,0-.3,2.4,10.327,10.327,0,0,0,.129,1.8,2.268,2.268,0,0,0,.434,1.063,1.025,1.025,0,0,0,.826.36,1.027,1.027,0,0,0,.844-.375A2.326,2.326,0,0,0,18.961-2.5,10.923,10.923,0,0,0,19.084-4.33Zm8.736.117A10.046,10.046,0,0,1,27.7-2.561a3.847,3.847,0,0,1-.434,1.254A2.88,2.88,0,0,1,26.238-.24a2.707,2.707,0,0,1-1.406.375,2.681,2.681,0,0,1-1.6-.5,3.067,3.067,0,0,1-1.063-1.395,5.186,5.186,0,0,1-.267-1.075,8.944,8.944,0,0,1-.085-1.274,12.243,12.243,0,0,1,.094-1.594,5.263,5.263,0,0,1,.293-1.219,2.754,2.754,0,0,1,1-1.286,2.757,2.757,0,0,1,1.573-.442,2.934,2.934,0,0,1,1.1.2,2.5,2.5,0,0,1,.864.574,3.283,3.283,0,0,1,.63.935A6.719,6.719,0,0,1,27.82-4.213ZM26.215-4.33a9.76,9.76,0,0,0-.129-1.755,2.159,2.159,0,0,0-.434-1.031,1.062,1.062,0,0,0-.844-.349,1.084,1.084,0,0,0-1.075.779,7.1,7.1,0,0,0-.3,2.4,10.327,10.327,0,0,0,.129,1.8,2.268,2.268,0,0,0,.434,1.063,1.025,1.025,0,0,0,.826.36,1.027,1.027,0,0,0,.844-.375A2.326,2.326,0,0,0,26.092-2.5,10.923,10.923,0,0,0,26.215-4.33Z" transform="translate(1340 2580.299)"/></g></svg>