<svg xmlns="http://www.w3.org/2000/svg" xmlns:xlink="http://www.w3.org/1999/xlink" width="265" height="278.5" viewBox="0 0 265 278.5"><defs><clipPath id="a"><rect width="214" height="277" transform="translate(0.371 0)" fill="none"/></clipPath><clipPath id="b"><rect width="183" height="324" rx="22" transform="translate(15.371 14)" fill="#ae7474" stroke="#707070" stroke-width="1"/></clipPath><clipPath id="c"><rect width="785" height="303" transform="translate(0 -0.13)" fill="none"/></clipPath><linearGradient id="d" x1="-0.077" y1="1" x2="1.066" y2="0.055" gradientUnits="objectBoundingBox"><stop offset="0" stop-color="#fe5c88"/><stop offset="0.238" stop-color="#f98569"/><stop offset="0.556" stop-color="#9d50e1"/><stop offset="0.824" stop-color="#9264ff"/><stop offset="1" stop-color="#479dff"/></linearGradient><linearGradient id="e" x1="0.5" x2="0.5" y2="1" gradientUnits="objectBoundingBox"><stop offset="0" stop-color="#fff"/><stop offset="1" stop-color="#fff" stop-opacity="0"/></linearGradient><linearGradient id="g" y1="0.5" x2="1" y2="0.5" gradientUnits="objectBoundingBox"><stop offset="0" stop-color="#20d2a8"/><stop offset="1" stop-color="#05c3e1"/></linearGradient><filter id="h" x="35.5" y="155" width="209" height="99" filterUnits="userSpaceOnUse"><feOffset dy="12" input="SourceAlpha"/><feGaussianBlur stdDeviation="12" result="i"/><feFlood flood-opacity="0.188"/><feComposite operator="in" in2="i"/><feComposite in="SourceGraphic"/></filter><filter id="j" x="36.217" y="3.569" width="215.605" height="410.691" filterUnits="userSpaceOnUse"><feOffset dx="4" dy="6" input="SourceAlpha"/><feGaussianBlur stdDeviation="4" result="k"/><feFlood flood-opacity="0.129"/><feComposite operator="in" in2="k"/><feComposite in="SourceGraphic"/></filter></defs><g transform="translate(-665.723 -421.676)"><g transform="translate(698.852 421.676)" clip-path="url(#a)"><rect width="214" height="277" transform="translate(0.371 0)" fill="none"/><path d="M23.495,0H159.11A23.495,23.495,0,0,1,182.6,23.495V354.2a23.494,23.494,0,0,1-23.494,23.494H23.495A23.495,23.495,0,0,1,0,354.2V23.495A23.495,23.495,0,0,1,23.495,0Z" transform="translate(15.588 14.069)" fill="none" stroke="#707070" stroke-miterlimit="10" stroke-width="9" opacity="0.39" style="mix-blend-mode:multiply;isolation:isolate"/><g clip-path="url(#b)"><g transform="translate(15.371 14)" fill="#ae7474" stroke="#707070" stroke-width="1"><rect width="183" height="324" rx="22" stroke="none"/><rect x="0.5" y="0.5" width="182" height="323" rx="21.5" fill="none"/></g><g transform="translate(528.371 5.317)"><g transform="translate(-935 2.813)" clip-path="url(#c)"><rect width="785" height="303" transform="translate(0 -0.13)" fill="none"/><path d="M0,0H2002.854V302.929H0Z" transform="translate(-1216.896 0.194)" fill="url(#d)"/><path d="M-3210.834,341.8s144.159,142.04,243.8,108.12,212-67.84,262.88-21.2,195.04,76.32,260.759,36.04,129.32-50.88,167.48-25.44,117.458-77.852,151.6-70.429,72.742,129.9,143.258,99.464,116.536-34.144,202.64-10.392,141.774-52.7,203.382-31.918,112.825,56.412,195.217,18.557,150.681-72.742,207.836-46.763,82.392-25.237,82.392-25.237l25.237,139.547-1561.735,36.371-578.228-19.3Z" transform="translate(1939.402 -201.685)" opacity="0.1" fill="url(#e)"/><path d="M-3210.834,341.8s144.159,142.04,243.8,108.12,212-67.84,262.88-21.2,195.04,76.32,260.759,36.04,129.32-50.88,167.48-25.44,117.458-77.852,151.6-70.429,72.742,129.9,143.258,99.464,116.536-34.144,202.64-10.392,141.774-52.7,203.382-31.918,112.825,56.412,195.217,18.557,150.681-72.742,207.836-46.763,82.392-25.237,82.392-25.237l25.237,139.547-1561.735,36.371-578.228-19.3Z" transform="translate(1939.402 -201.276)" fill="none" stroke="#dbd4ff" stroke-width="1" opacity="0.24"/><path d="M-3116.761,607.479c4.435-1.254,158.73-36.379,275.392-16.308s235.834,32.615,327.407,0,249.633,41.4,333.68,20.071,210.745-45.16,316.117-20.071,206-6.243,263.431-18.816,117.956,36.531,156.211,32.534,106.2-49.675,159.873-22.268,115.908,3.426,134.179-6.281,76.511-38.255,114.2,10.278,4.568,92.5,4.568,92.5l-2092.628,5.139Z" transform="translate(1845.328 -330.055)" opacity="0.11" fill="url(#e)"/><path d="M-3116.761,607.479c4.435-1.254,158.73-36.379,275.392-16.308s235.834,32.615,327.407,0,249.633,41.4,333.68,20.071,210.745-45.16,316.117-20.071,206-6.243,263.431-18.816,117.956,36.531,156.211,32.534,106.2-49.675,159.873-22.268,115.908,3.426,134.179-6.281,76.511-38.255,114.2,10.278,4.568,92.5,4.568,92.5l-2092.628,5.139Z" transform="translate(1845.328 -330.055)" fill="none" stroke="#fff" stroke-width="1" opacity="0.15"/></g><g transform="translate(-497.079 49.484)"><text transform="translate(72.079 16.198)" fill="#fff" font-size="14" font-family="BalooChettan2-SemiBold, 'Baloo Chettan \32 '" font-weight="600"><tspan x="-47.187" y="0">Live Instagram </tspan><tspan x="-53.354" y="20">Follower Counter</tspan></text><text transform="translate(0.079 56.198)" fill="#fff" font-size="7" font-family="BalooChettan2-Medium, 'Baloo Chettan \32 '" font-weight="500"><tspan x="3.053" y="8">Real-time, accurate, exact Instagram follower </tspan><tspan x="18.709" y="17">count. No Instagram account log in.</tspan></text><text transform="translate(11.079 173.198)" fill="#98ffea" font-size="8" font-family="BalooChettan2-SemiBold, 'Baloo Chettan \32 '" font-weight="600"><tspan x="1.868" y="9" text-decoration="underline">Download</tspan><tspan y="9" xml:space="preserve" fill="#fff" font-family="BalooChettan2-Medium, 'Baloo Chettan \32 '" font-weight="500"> GetInsta to increase your </tspan><tspan x="20.324" y="19" fill="#fff" font-family="BalooChettan2-Medium, 'Baloo Chettan \32 '" font-weight="500">Instagram follower count</tspan></text><g transform="translate(7.079 86.199)"><rect width="137" height="27" rx="4" fill="#fff"/><text transform="translate(39.862 15.5)" fill="#9a9a9a" font-size="6" font-family="BalooChettan2-Medium, 'Baloo Chettan \32 '" font-weight="500"><tspan x="-34.161" y="0">Type Instagram Username</tspan></text></g><g transform="matrix(1, 0, 0, 1, -64.42, -54.8)" filter="url(#h)"><rect width="137" height="27" rx="4" transform="translate(71.5 179)" fill="url(#g)"/></g><text transform="translate(76.079 140.698)" fill="#fff" font-size="8" font-family="BalooChettan2-Medium, 'Baloo Chettan \32 '" font-weight="500"><tspan x="-19.296" y="0">Check Now</tspan></text></g></g></g><path d="M1.787,0H3.613a0,0,0,0,1,0,0V32.376a0,0,0,0,1,0,0H1.787A1.787,1.787,0,0,1,0,30.589V1.787A1.787,1.787,0,0,1,1.787,0Z" transform="translate(7.586 138.211)" fill="#dee6eb"/><path d="M1.787,0H3.613a0,0,0,0,1,0,0V32.376a0,0,0,0,1,0,0H1.787A1.787,1.787,0,0,1,0,30.589V1.787A1.787,1.787,0,0,1,1.787,0Z" transform="translate(7.586 93.744)" fill="#dfe7ec"/><g transform="matrix(1, 0, 0, 1, -33.13, 0)" filter="url(#j)"><path d="M23.495,0H159.11A23.495,23.495,0,0,1,182.6,23.495V354.2a23.494,23.494,0,0,1-23.494,23.494H23.495A23.495,23.495,0,0,1,0,354.2V23.495A23.495,23.495,0,0,1,23.495,0Z" transform="translate(48.72 14.07)" fill="none" stroke="#fff" stroke-miterlimit="10" stroke-width="9"/></g><path d="M845.271,451.336H760.086a8.581,8.581,0,0,1-8.311-6.448,11.618,11.618,0,0,0-2.175-4.481l-1.279-1.577H857.035l-1.279,1.577a11.634,11.634,0,0,0-2.175,4.481A8.58,8.58,0,0,1,845.271,451.336Z" transform="translate(-695.788 -420.606)" fill="#fff"/><rect width="192.291" height="385.232" rx="26.74" transform="translate(10.745 10.299)" fill="none" stroke="#dfe7ec" stroke-miterlimit="10" stroke-width="1.978"/></g><line x1="265" transform="translate(665.723 699.176)" fill="none" stroke="#dfe7ec" stroke-width="2"/></g></svg>