<svg xmlns="http://www.w3.org/2000/svg" xmlns:xlink="http://www.w3.org/1999/xlink" width="192" height="201" viewBox="0 0 192 201"><defs><clipPath id="a"><rect width="192" height="201" transform="translate(421.614 1962.469)" fill="none"/></clipPath><clipPath id="b"><rect width="185.852" height="240.566" transform="translate(0 0)" fill="none"/></clipPath><clipPath id="c"><rect width="158.93" height="281.384" rx="22" fill="#ae7474" stroke="#707070" stroke-width="1"/></clipPath><clipPath id="d"><rect width="681.748" height="263.146" transform="translate(0 0)" fill="none"/></clipPath><linearGradient id="e" x1="-0.077" y1="1" x2="1.066" y2="0.055" gradientUnits="objectBoundingBox"><stop offset="0" stop-color="#fe5c88"/><stop offset="0.238" stop-color="#f98569"/><stop offset="0.556" stop-color="#9d50e1"/><stop offset="0.824" stop-color="#9264ff"/><stop offset="1" stop-color="#479dff"/></linearGradient><linearGradient id="f" x1="0.5" x2="0.5" y2="1" gradientUnits="objectBoundingBox"><stop offset="0" stop-color="#fff"/><stop offset="1" stop-color="#fff" stop-opacity="0"/></linearGradient><linearGradient id="h" y1="0.5" x2="1" y2="0.5" gradientUnits="objectBoundingBox"><stop offset="0" stop-color="#20d2a8"/><stop offset="1" stop-color="#05c3e1"/></linearGradient><filter id="i" x="-0.477" y="118.719" width="190.98" height="95.449" filterUnits="userSpaceOnUse"><feOffset dy="12" input="SourceAlpha"/><feGaussianBlur stdDeviation="12" result="j"/><feFlood flood-opacity="0.188"/><feComposite operator="in" in2="j"/><feComposite in="SourceGraphic"/></filter><filter id="k" x="3.237" y="1.719" width="191.587" height="361.013" filterUnits="userSpaceOnUse"><feOffset dx="4" dy="6" input="SourceAlpha"/><feGaussianBlur stdDeviation="4" result="l"/><feFlood flood-opacity="0.129"/><feComposite operator="in" in2="l"/><feComposite in="SourceGraphic"/></filter></defs><g transform="translate(-421.614 -1962.469)" clip-path="url(#a)"><rect width="192" height="201" transform="translate(421.614 1962.469)" fill="none"/><g transform="translate(-270.681 1540.793)"><g transform="translate(694.817 421.676)" clip-path="url(#b)"><rect width="185.852" height="240.566" transform="translate(0 0)" fill="none"/><path d="M23.495,0h111.6a23.495,23.495,0,0,1,23.495,23.495V304.518a23.494,23.494,0,0,1-23.494,23.494H23.495A23.495,23.495,0,0,1,0,304.518V23.495A23.495,23.495,0,0,1,23.495,0Z" transform="translate(13.215 12.219)" fill="none" stroke="#707070" stroke-miterlimit="10" stroke-width="9" opacity="0.39" style="mix-blend-mode:multiply;isolation:isolate"/><g transform="translate(13.027 12.159)" clip-path="url(#c)"><g fill="#ae7474" stroke="#707070" stroke-width="1"><rect width="158.93" height="281.384" rx="22" stroke="none"/><rect x="0.5" y="0.5" width="157.93" height="280.384" rx="21.5" fill="none"/></g><g transform="translate(-366.494 -5.211)"><g transform="translate(0 0)" clip-path="url(#d)"><rect width="681.748" height="263.146" transform="translate(0 0)" fill="none"/><path d="M0,0H1739.415V263.084H0Z" transform="translate(-1056.836 -38.719)" fill="url(#e)"/><path d="M-3210.834,341.8s125.2,123.357,211.732,93.9,184.115-58.917,228.3-18.411,169.386,66.281,226.461,31.3,112.31-44.188,145.451-22.094,102.009-67.612,131.662-61.165,63.174,112.812,124.415,86.382,101.208-29.653,175.986-9.025,123.126-45.769,176.631-27.719,97.985,48.992,169.54,16.116,130.861-63.174,180.5-40.612,71.554-21.918,71.554-21.918l21.918,121.192L-2703,521.328l-502.173-16.761Z" transform="translate(2106.635 -259.002)" opacity="0.1" fill="url(#f)"/><path d="M-3210.834,341.8s125.2,123.357,211.732,93.9,184.115-58.917,228.3-18.411,169.386,66.281,226.461,31.3,112.31-44.188,145.451-22.094,102.009-67.612,131.662-61.165,63.174,112.812,124.415,86.382,101.208-29.653,175.986-9.025,123.126-45.769,176.631-27.719,97.985,48.992,169.54,16.116,130.861-63.174,180.5-40.612,71.554-21.918,71.554-21.918l21.918,121.192L-2703,521.328l-502.173-16.761Z" transform="translate(2106.635 -258.646)" fill="none" stroke="#dbd4ff" stroke-width="1" opacity="0.24"/><path d="M-3117.757,601.121c3.851-1.089,137.852-31.594,239.169-14.163s204.814,28.325,284.343,0,216.8,35.951,289.791,17.431,183.025-39.22,274.538-17.431,178.9-5.422,228.782-16.342,102.441,31.726,135.664,28.254,92.233-43.141,138.845-19.339,100.662,2.975,116.53-5.455,66.447-33.224,99.175,8.926,3.967,80.332,3.967,80.332L-3124.334,667.8Z" transform="translate(2013.558 -399.075)" opacity="0.11" fill="url(#f)"/><path d="M-3117.757,601.121c3.851-1.089,137.852-31.594,239.169-14.163s204.814,28.325,284.343,0,216.8,35.951,289.791,17.431,183.025-39.22,274.538-17.431,178.9-5.422,228.782-16.342,102.441,31.726,135.664,28.254,92.233-43.141,138.845-19.339,100.662,2.975,116.53-5.455,66.447-33.224,99.175,8.926,3.967,80.332,3.967,80.332L-3124.334,667.8Z" transform="translate(2013.558 -399.075)" fill="none" stroke="#fff" stroke-width="1" opacity="0.15"/></g><g transform="translate(380.389 41.687)"><text transform="translate(62.16 11)" fill="#fff" font-size="14" font-family="BalooChettan2-SemiBold, 'Baloo Chettan \32 '" font-weight="600"><tspan x="-47.187" y="0">Live Instagram </tspan><tspan x="-53.354" y="15">Follower Counter</tspan></text><text transform="translate(0 39.766)" fill="#fff" font-size="6" font-family="BalooChettan2-Medium, 'Baloo Chettan \32 '" font-weight="500"><tspan x="3.433" y="6">Real-time, accurate, exact Instagram follower </tspan><tspan x="16.852" y="15">count. No Instagram account log in.</tspan></text><text transform="translate(9.553 124.377)" fill="#98ffea" font-size="6" font-family="BalooChettan2-SemiBold, 'Baloo Chettan \32 '" font-weight="600"><tspan x="-46.974" y="6" text-decoration="underline">Download</tspan><tspan y="6" xml:space="preserve" fill="#fff" font-family="BalooChettan2-Medium, 'Baloo Chettan \32 '" font-weight="500"> GetInsta to increase your </tspan><tspan x="-33.132" y="16" fill="#fff" font-family="BalooChettan2-Medium, 'Baloo Chettan \32 '" font-weight="500">Instagram follower count</tspan></text><g transform="translate(6.079 64.82)"><rect width="118.98" height="23.449" rx="4" fill="#fff"/><text transform="translate(41.091 13.724)" fill="#9a9a9a" font-size="6" font-family="BalooChettan2-Medium, 'Baloo Chettan \32 '" font-weight="500"><tspan x="-34.161" y="0">Type Instagram Username</tspan></text></g><g transform="matrix(1, 0, 0, 1, -29.44, -48.63)" filter="url(#i)"><rect width="118.98" height="23.449" rx="4" transform="translate(35.52 142.72)" fill="url(#h)"/></g><text transform="translate(63.16 107.629)" fill="#fff" font-size="7" font-family="BalooChettan2-Medium, 'Baloo Chettan \32 '" font-weight="500"><tspan x="-16.884" y="0">Check Now</tspan></text></g></g></g><path d="M1.787,0h1.35a0,0,0,0,1,0,0V28.118a0,0,0,0,1,0,0H1.787A1.787,1.787,0,0,1,0,26.33V1.787A1.787,1.787,0,0,1,1.787,0Z" transform="translate(6.266 120.032)" fill="#dee6eb"/><path d="M1.787,0h1.35a0,0,0,0,1,0,0V28.118a0,0,0,0,1,0,0H1.787A1.787,1.787,0,0,1,0,26.33V1.787A1.787,1.787,0,0,1,1.787,0Z" transform="translate(6.266 81.414)" fill="#dfe7ec"/><g transform="matrix(1, 0, 0, 1, -2.52, 0)" filter="url(#k)"><path d="M23.495,0h111.6a23.495,23.495,0,0,1,23.495,23.495V304.518a23.494,23.494,0,0,1-23.494,23.494H23.495A23.495,23.495,0,0,1,0,304.518V23.495A23.495,23.495,0,0,1,23.495,0Z" transform="translate(15.74 12.22)" fill="none" stroke="#fff" stroke-miterlimit="10" stroke-width="9"/></g><path d="M832.519,449.691h-73.98a7.452,7.452,0,0,1-7.218-5.6,10.088,10.088,0,0,0-1.889-3.892l-1.111-1.369h94.415l-1.111,1.369a10.1,10.1,0,0,0-1.889,3.892A7.451,7.451,0,0,1,832.519,449.691Z" transform="translate(-703.02 -423.003)" fill="#fff"/><rect width="166.998" height="334.562" rx="26.74" transform="translate(9.009 8.944)" fill="none" stroke="#dfe7ec" stroke-miterlimit="10" stroke-width="1.978"/></g><line x1="230.144" transform="translate(665.723 662.676)" fill="none" stroke="#dfe7ec" stroke-width="2"/></g></g></svg>