<svg xmlns="http://www.w3.org/2000/svg" xmlns:xlink="http://www.w3.org/1999/xlink" width="17" height="17" viewBox="0 0 17 17"><defs><linearGradient id="a" x1="1" y1="0.77" x2="0" y2="0.203" gradientUnits="objectBoundingBox"><stop offset="0" stop-color="#ffdd6d"/><stop offset="1" stop-color="#ffb84e"/></linearGradient><filter id="b" x="3.136" y="4.892" width="11.217" height="8.441" filterUnits="userSpaceOnUse"><feOffset dx="1" dy="1" input="SourceAlpha"/><feGaussianBlur result="c"/><feFlood flood-color="#aa5307" flood-opacity="0.231"/><feComposite operator="in" in2="c"/><feComposite in="SourceGraphic"/></filter></defs><g transform="translate(-969 -3700.775)"><circle cx="8.5" cy="8.5" r="8.5" transform="translate(969 3700.775)" fill="url(#a)"/><g transform="matrix(1, 0, 0, 1, 969, 3700.78)" filter="url(#b)"><path d="M.672,2.805a.382.382,0,0,0-.553,0,.382.382,0,0,0,0,.553l3,3a.291.291,0,0,0,.237.079A.8.8,0,0,0,3.6,6.362L9.049.672a.382.382,0,0,0,0-.553.382.382,0,0,0-.553,0L3.28,5.492Zm0,0" transform="translate(3.69 5.39)" fill="#fff" stroke="#fff" stroke-width="1"/></g></g></svg>