<svg xmlns="http://www.w3.org/2000/svg" xmlns:xlink="http://www.w3.org/1999/xlink" width="375" height="229" viewBox="0 0 375 229"><defs><clipPath id="a"><rect width="375" height="229" transform="translate(56 3833)" fill="none"/></clipPath><linearGradient id="b" x1="0.5" x2="0.5" y2="1" gradientUnits="objectBoundingBox"><stop offset="0" stop-color="#f5ff8f"/><stop offset="1" stop-color="#fca421"/></linearGradient><filter id="c" x="-19.797" y="207.782" width="45.594" height="45.594" filterUnits="userSpaceOnUse"><feOffset dy="6" input="SourceAlpha"/><feGaussianBlur stdDeviation="4" result="d"/><feFlood flood-opacity="0.059"/><feComposite operator="in" in2="d"/><feComposite in="SourceGraphic"/></filter><linearGradient id="e" y1="0.733" x2="1.067" y2="0.356" gradientUnits="objectBoundingBox"><stop offset="0" stop-color="#fa0"/><stop offset="0.463" stop-color="#ff506e"/><stop offset="1" stop-color="#8c00d1"/></linearGradient><filter id="g" x="30.44" y="59.92" width="29.166" height="29.167" filterUnits="userSpaceOnUse"><feOffset dy="6" input="SourceAlpha"/><feGaussianBlur stdDeviation="4" result="h"/><feFlood flood-opacity="0.059"/><feComposite operator="in" in2="h"/><feComposite in="SourceGraphic"/></filter><linearGradient id="i" y1="0.5" x2="0.275" y2="0.5" gradientUnits="objectBoundingBox"><stop offset="0" stop-color="#1a74a4" stop-opacity="0"/><stop offset="0.793" stop-color="#7213a1" stop-opacity="0.902"/><stop offset="1" stop-color="#a11330" stop-opacity="0.902"/></linearGradient><filter id="j" x="91.352" y="26.399" width="226.708" height="356.974" filterUnits="userSpaceOnUse"><feOffset dy="3" input="SourceAlpha"/><feGaussianBlur stdDeviation="3" result="k"/><feFlood flood-opacity="0.161"/><feComposite operator="in" in2="k"/><feComposite in="SourceGraphic"/></filter><filter id="l" x="250.457" y="106.624" width="90.771" height="69.376" filterUnits="userSpaceOnUse"><feOffset dx="8" dy="6" input="SourceAlpha"/><feGaussianBlur stdDeviation="4" result="m"/><feFlood flood-color="#d55e4d" flood-opacity="0.451"/><feComposite operator="in" in2="m"/><feComposite in="SourceGraphic"/></filter><clipPath id="n"><rect width="24.163" height="30.464" transform="translate(-2 -2)" fill="#fff"/></clipPath><linearGradient id="q" x1="0.5" x2="0.5" y2="1" gradientUnits="objectBoundingBox"><stop offset="0" stop-color="#fff" stop-opacity="0"/><stop offset="1" stop-color="#a4a1a2" stop-opacity="0.4"/></linearGradient></defs><g transform="translate(-56 -3833)" clip-path="url(#a)"><rect width="375" height="229" transform="translate(56 3833)" fill="none"/><g transform="translate(-103.82 418.474)"><g transform="translate(170.819 3419.512)"><g transform="translate(206.63 9.03)" opacity="0.08"><path d="M-327.789,181.238a1.127,1.127,0,0,1-1.125-1.125,1.127,1.127,0,0,1,1.125-1.127,1.128,1.128,0,0,1,1.127,1.127A1.128,1.128,0,0,1-327.789,181.238Zm-6.73,0a1.128,1.128,0,0,1-1.127-1.125,1.128,1.128,0,0,1,1.127-1.127,1.127,1.127,0,0,1,1.125,1.127A1.127,1.127,0,0,1-334.519,181.238Zm-6.731,0a1.128,1.128,0,0,1-1.127-1.125,1.128,1.128,0,0,1,1.127-1.127,1.127,1.127,0,0,1,1.125,1.127A1.127,1.127,0,0,1-341.25,181.238Zm-6.731,0a1.127,1.127,0,0,1-1.125-1.125,1.127,1.127,0,0,1,1.125-1.127,1.128,1.128,0,0,1,1.127,1.127A1.128,1.128,0,0,1-347.982,181.238Zm20.193-6.731a1.126,1.126,0,0,1-1.125-1.125,1.126,1.126,0,0,1,1.125-1.125,1.127,1.127,0,0,1,1.127,1.125A1.127,1.127,0,0,1-327.789,174.506Zm-6.73,0a1.127,1.127,0,0,1-1.127-1.125,1.127,1.127,0,0,1,1.127-1.125,1.126,1.126,0,0,1,1.125,1.125A1.126,1.126,0,0,1-334.519,174.506Zm-6.731,0a1.127,1.127,0,0,1-1.127-1.125,1.127,1.127,0,0,1,1.127-1.125,1.126,1.126,0,0,1,1.125,1.125A1.126,1.126,0,0,1-341.25,174.506Zm-6.731,0a1.126,1.126,0,0,1-1.125-1.125,1.126,1.126,0,0,1,1.125-1.125,1.127,1.127,0,0,1,1.127,1.125A1.127,1.127,0,0,1-347.982,174.506Zm20.193-6.73a1.127,1.127,0,0,1-1.125-1.127,1.126,1.126,0,0,1,1.125-1.125,1.127,1.127,0,0,1,1.127,1.125A1.128,1.128,0,0,1-327.789,167.776Zm-6.73,0a1.128,1.128,0,0,1-1.127-1.127,1.127,1.127,0,0,1,1.127-1.125,1.126,1.126,0,0,1,1.125,1.125A1.127,1.127,0,0,1-334.519,167.776Zm-6.731,0a1.128,1.128,0,0,1-1.127-1.127,1.127,1.127,0,0,1,1.127-1.125,1.126,1.126,0,0,1,1.125,1.125A1.127,1.127,0,0,1-341.25,167.776Zm-6.731,0a1.127,1.127,0,0,1-1.125-1.127,1.126,1.126,0,0,1,1.125-1.125,1.127,1.127,0,0,1,1.127,1.125A1.128,1.128,0,0,1-347.982,167.776Zm20.193-6.731a1.127,1.127,0,0,1-1.125-1.125,1.127,1.127,0,0,1,1.125-1.127,1.128,1.128,0,0,1,1.127,1.127A1.128,1.128,0,0,1-327.789,161.045Zm-6.73,0a1.128,1.128,0,0,1-1.127-1.125,1.128,1.128,0,0,1,1.127-1.127,1.127,1.127,0,0,1,1.125,1.127A1.127,1.127,0,0,1-334.519,161.045Zm-6.731,0a1.128,1.128,0,0,1-1.127-1.125,1.128,1.128,0,0,1,1.127-1.127,1.127,1.127,0,0,1,1.125,1.127A1.127,1.127,0,0,1-341.25,161.045Zm-6.731,0a1.127,1.127,0,0,1-1.125-1.125,1.127,1.127,0,0,1,1.125-1.127,1.128,1.128,0,0,1,1.127,1.127A1.128,1.128,0,0,1-347.982,161.045Z" transform="translate(349.107 -158.793)" fill="#fff"/></g><g transform="translate(84.054 294.648)"><path d="M-423.753,404.847a1.126,1.126,0,0,1-1.125-1.125,1.126,1.126,0,0,1,1.125-1.125,1.126,1.126,0,0,1,1.125,1.125A1.126,1.126,0,0,1-423.753,404.847Zm-6.731,0a1.126,1.126,0,0,1-1.125-1.125,1.126,1.126,0,0,1,1.125-1.125,1.126,1.126,0,0,1,1.125,1.125A1.126,1.126,0,0,1-430.484,404.847Zm-6.731,0a1.126,1.126,0,0,1-1.125-1.125,1.126,1.126,0,0,1,1.125-1.125,1.127,1.127,0,0,1,1.127,1.125A1.127,1.127,0,0,1-437.215,404.847Zm-6.731,0a1.126,1.126,0,0,1-1.125-1.125,1.126,1.126,0,0,1,1.125-1.125,1.127,1.127,0,0,1,1.127,1.125A1.127,1.127,0,0,1-443.947,404.847Zm20.194-6.73a1.127,1.127,0,0,1-1.125-1.127,1.126,1.126,0,0,1,1.125-1.125,1.126,1.126,0,0,1,1.125,1.125A1.127,1.127,0,0,1-423.753,398.117Zm-6.731,0a1.127,1.127,0,0,1-1.125-1.127,1.126,1.126,0,0,1,1.125-1.125,1.126,1.126,0,0,1,1.125,1.125A1.127,1.127,0,0,1-430.484,398.117Zm-6.731,0a1.127,1.127,0,0,1-1.125-1.127,1.126,1.126,0,0,1,1.125-1.125,1.127,1.127,0,0,1,1.127,1.125A1.129,1.129,0,0,1-437.215,398.117Zm-6.731,0a1.127,1.127,0,0,1-1.125-1.127,1.126,1.126,0,0,1,1.125-1.125,1.127,1.127,0,0,1,1.127,1.125A1.128,1.128,0,0,1-443.947,398.117Zm20.194-6.731a1.126,1.126,0,0,1-1.125-1.125,1.127,1.127,0,0,1,1.125-1.127,1.127,1.127,0,0,1,1.125,1.127A1.126,1.126,0,0,1-423.753,391.386Zm-6.731,0a1.126,1.126,0,0,1-1.125-1.125,1.127,1.127,0,0,1,1.125-1.127,1.127,1.127,0,0,1,1.125,1.127A1.126,1.126,0,0,1-430.484,391.386Zm-6.731,0a1.126,1.126,0,0,1-1.125-1.125,1.127,1.127,0,0,1,1.125-1.127,1.128,1.128,0,0,1,1.127,1.127A1.127,1.127,0,0,1-437.215,391.386Zm-6.731,0a1.126,1.126,0,0,1-1.125-1.125,1.127,1.127,0,0,1,1.125-1.127,1.128,1.128,0,0,1,1.127,1.127A1.127,1.127,0,0,1-443.947,391.386Zm20.194-6.731a1.126,1.126,0,0,1-1.125-1.125,1.126,1.126,0,0,1,1.125-1.125,1.126,1.126,0,0,1,1.125,1.125A1.126,1.126,0,0,1-423.753,384.655Zm-6.731,0a1.126,1.126,0,0,1-1.125-1.125,1.126,1.126,0,0,1,1.125-1.125,1.126,1.126,0,0,1,1.125,1.125A1.126,1.126,0,0,1-430.484,384.655Zm-6.731,0a1.126,1.126,0,0,1-1.125-1.125,1.126,1.126,0,0,1,1.125-1.125,1.127,1.127,0,0,1,1.127,1.125A1.127,1.127,0,0,1-437.215,384.655Zm-6.731,0a1.126,1.126,0,0,1-1.125-1.125,1.126,1.126,0,0,1,1.125-1.125,1.127,1.127,0,0,1,1.127,1.125A1.127,1.127,0,0,1-443.947,384.655Z" transform="translate(445.072 -382.404)" fill="#fff"/></g><g transform="translate(0 104.446)" opacity="0.09"><path d="M-489.559,255.939a1.127,1.127,0,0,1-1.127-1.125,1.128,1.128,0,0,1,1.127-1.127,1.127,1.127,0,0,1,1.125,1.127A1.126,1.126,0,0,1-489.559,255.939Zm-6.731,0a1.126,1.126,0,0,1-1.125-1.125,1.127,1.127,0,0,1,1.125-1.127,1.127,1.127,0,0,1,1.125,1.127A1.126,1.126,0,0,1-496.29,255.939Zm-6.731,0a1.126,1.126,0,0,1-1.125-1.125,1.127,1.127,0,0,1,1.125-1.127,1.128,1.128,0,0,1,1.127,1.127A1.127,1.127,0,0,1-503.021,255.939Zm-6.731,0a1.126,1.126,0,0,1-1.125-1.125,1.127,1.127,0,0,1,1.125-1.127,1.128,1.128,0,0,1,1.127,1.127A1.127,1.127,0,0,1-509.753,255.939Zm20.194-6.731a1.127,1.127,0,0,1-1.127-1.125,1.127,1.127,0,0,1,1.127-1.125,1.126,1.126,0,0,1,1.125,1.125A1.126,1.126,0,0,1-489.559,249.207Zm-6.731,0a1.126,1.126,0,0,1-1.125-1.125,1.126,1.126,0,0,1,1.125-1.125,1.126,1.126,0,0,1,1.125,1.125A1.126,1.126,0,0,1-496.29,249.207Zm-6.731,0a1.126,1.126,0,0,1-1.125-1.125,1.126,1.126,0,0,1,1.125-1.125,1.127,1.127,0,0,1,1.127,1.125A1.127,1.127,0,0,1-503.021,249.207Zm-6.731,0a1.126,1.126,0,0,1-1.125-1.125,1.126,1.126,0,0,1,1.125-1.125,1.127,1.127,0,0,1,1.127,1.125A1.127,1.127,0,0,1-509.753,249.207Zm20.194-6.73a1.128,1.128,0,0,1-1.127-1.127,1.127,1.127,0,0,1,1.127-1.125,1.126,1.126,0,0,1,1.125,1.125A1.127,1.127,0,0,1-489.559,242.477Zm-6.731,0a1.127,1.127,0,0,1-1.125-1.127,1.126,1.126,0,0,1,1.125-1.125,1.126,1.126,0,0,1,1.125,1.125A1.127,1.127,0,0,1-496.29,242.477Zm-6.731,0a1.127,1.127,0,0,1-1.125-1.127,1.126,1.126,0,0,1,1.125-1.125,1.127,1.127,0,0,1,1.127,1.125A1.128,1.128,0,0,1-503.021,242.477Zm-6.731,0a1.127,1.127,0,0,1-1.125-1.127,1.126,1.126,0,0,1,1.125-1.125,1.127,1.127,0,0,1,1.127,1.125A1.128,1.128,0,0,1-509.753,242.477Zm20.194-6.731a1.127,1.127,0,0,1-1.127-1.125,1.128,1.128,0,0,1,1.127-1.127,1.127,1.127,0,0,1,1.125,1.127A1.126,1.126,0,0,1-489.559,235.746Zm-6.731,0a1.126,1.126,0,0,1-1.125-1.125,1.127,1.127,0,0,1,1.125-1.127,1.127,1.127,0,0,1,1.125,1.127A1.126,1.126,0,0,1-496.29,235.746Zm-6.731,0a1.126,1.126,0,0,1-1.125-1.125,1.127,1.127,0,0,1,1.125-1.127,1.128,1.128,0,0,1,1.127,1.127A1.127,1.127,0,0,1-503.021,235.746Zm-6.731,0a1.126,1.126,0,0,1-1.125-1.125,1.127,1.127,0,0,1,1.125-1.127,1.128,1.128,0,0,1,1.127,1.127A1.127,1.127,0,0,1-509.753,235.746Z" transform="translate(510.878 -233.494)" fill="#fff"/></g><g transform="translate(271.368 183.379)" opacity="0.14"><path d="M-277.1,317.736a1.127,1.127,0,0,1-1.125-1.125,1.127,1.127,0,0,1,1.125-1.127,1.127,1.127,0,0,1,1.125,1.127A1.127,1.127,0,0,1-277.1,317.736Zm-6.731,0a1.127,1.127,0,0,1-1.125-1.125,1.127,1.127,0,0,1,1.125-1.127,1.128,1.128,0,0,1,1.127,1.127A1.128,1.128,0,0,1-283.835,317.736Zm-6.73,0a1.127,1.127,0,0,1-1.127-1.125,1.128,1.128,0,0,1,1.127-1.127,1.128,1.128,0,0,1,1.125,1.127A1.128,1.128,0,0,1-290.565,317.736Zm-6.731,0a1.128,1.128,0,0,1-1.127-1.125,1.128,1.128,0,0,1,1.127-1.127,1.127,1.127,0,0,1,1.125,1.127A1.127,1.127,0,0,1-297.3,317.736ZM-277.1,311a1.126,1.126,0,0,1-1.125-1.125,1.126,1.126,0,0,1,1.125-1.125,1.126,1.126,0,0,1,1.125,1.125A1.126,1.126,0,0,1-277.1,311Zm-6.731,0a1.126,1.126,0,0,1-1.125-1.125,1.126,1.126,0,0,1,1.125-1.125,1.127,1.127,0,0,1,1.127,1.125A1.127,1.127,0,0,1-283.835,311Zm-6.73,0a1.127,1.127,0,0,1-1.127-1.125,1.127,1.127,0,0,1,1.127-1.125,1.127,1.127,0,0,1,1.125,1.125A1.127,1.127,0,0,1-290.565,311Zm-6.731,0a1.127,1.127,0,0,1-1.127-1.125,1.127,1.127,0,0,1,1.127-1.125,1.126,1.126,0,0,1,1.125,1.125A1.126,1.126,0,0,1-297.3,311Zm20.193-6.731a1.126,1.126,0,0,1-1.125-1.125,1.126,1.126,0,0,1,1.125-1.125,1.126,1.126,0,0,1,1.125,1.125A1.126,1.126,0,0,1-277.1,304.273Zm-6.731,0a1.126,1.126,0,0,1-1.125-1.125,1.126,1.126,0,0,1,1.125-1.125,1.127,1.127,0,0,1,1.127,1.125A1.127,1.127,0,0,1-283.835,304.273Zm-6.73,0a1.127,1.127,0,0,1-1.127-1.125,1.127,1.127,0,0,1,1.127-1.125,1.127,1.127,0,0,1,1.125,1.125A1.127,1.127,0,0,1-290.565,304.273Zm-6.731,0a1.127,1.127,0,0,1-1.127-1.125,1.127,1.127,0,0,1,1.127-1.125,1.126,1.126,0,0,1,1.125,1.125A1.126,1.126,0,0,1-297.3,304.273Zm20.193-6.73a1.127,1.127,0,0,1-1.125-1.125,1.127,1.127,0,0,1,1.125-1.127,1.127,1.127,0,0,1,1.125,1.127A1.127,1.127,0,0,1-277.1,297.543Zm-6.731,0a1.127,1.127,0,0,1-1.125-1.125,1.127,1.127,0,0,1,1.125-1.127,1.128,1.128,0,0,1,1.127,1.127A1.128,1.128,0,0,1-283.835,297.543Zm-6.73,0a1.127,1.127,0,0,1-1.127-1.125,1.128,1.128,0,0,1,1.127-1.127,1.128,1.128,0,0,1,1.125,1.127A1.128,1.128,0,0,1-290.565,297.543Zm-6.731,0a1.128,1.128,0,0,1-1.127-1.125,1.128,1.128,0,0,1,1.127-1.127,1.127,1.127,0,0,1,1.125,1.127A1.127,1.127,0,0,1-297.3,297.543Z" transform="translate(298.423 -295.291)" fill="#fff"/></g><g transform="translate(-18.796 208.796)"><g transform="matrix(1, 0, 0, 1, 7.8, -213.78)" filter="url(#c)"><path d="M-505.566,360.747a10.809,10.809,0,0,1-10.8-10.8,10.809,10.809,0,0,1,10.8-10.8,10.809,10.809,0,0,1,10.8,10.8A10.809,10.809,0,0,1-505.566,360.747Zm0-17.227a6.437,6.437,0,0,0-6.43,6.429,6.438,6.438,0,0,0,6.43,6.43,6.436,6.436,0,0,0,6.429-6.43A6.435,6.435,0,0,0-505.566,343.52Z" transform="translate(508.57 -125.37)" fill="url(#b)"/></g></g><g transform="translate(67.231 81.1)" opacity="0.11"><path d="M-241.052,302.22a7.61,7.61,0,0,1-7.6-7.6,7.61,7.61,0,0,1,7.6-7.6,7.61,7.61,0,0,1,7.6,7.6A7.61,7.61,0,0,1-241.052,302.22Zm0-12.129a4.532,4.532,0,0,0-4.526,4.527,4.531,4.531,0,0,0,4.526,4.526,4.532,4.532,0,0,0,4.527-4.526A4.532,4.532,0,0,0-241.052,290.092Z" transform="translate(229.654 -302.017)" fill="#fff"/></g><circle cx="11.991" cy="11.991" r="11.991" transform="translate(40.073 285.462) rotate(-45)" fill="#fff"/><circle cx="6.267" cy="6.267" r="6.267" transform="translate(320.554 0)" fill="#fff" opacity="0.11"/><path d="M-240.5,191.064a3.861,3.861,0,0,0,3.861,3.861,3.86,3.86,0,0,0,3.858-3.861,3.86,3.86,0,0,0-3.858-3.858A3.86,3.86,0,0,0-240.5,191.064Z" transform="translate(572.274 14.758)" fill="#fff" opacity="0.11"/><circle cx="2.988" cy="2.988" r="2.988" transform="translate(304.252 173.371)" fill="url(#e)"/><g transform="matrix(1, 0, 0, 1, -11, -4.99)" filter="url(#g)"><circle cx="2.583" cy="2.583" r="2.583" transform="translate(42.44 65.92)" opacity="0.43" fill="url(#b)"/></g><g transform="translate(67.08 105.356)"><rect width="81.694" height="87.899" rx="4" transform="translate(2.228 2.228)" fill="#1370a1" opacity="0.2" style="mix-blend-mode:multiply;isolation:isolate"/><rect width="81.694" height="87.899" rx="11" fill="#f9efff"/><rect width="62.295" height="67.327" transform="translate(74.511 18.419) rotate(90)" fill="#fe7b73"/><g transform="translate(22.525 32.539)"><path d="M-430.6,300.185l-5.206-3.365a62.852,62.852,0,0,1-5.256-3.859c-3.66-3.013-7.861-7.205-7.861-12.928a9.589,9.589,0,0,1,9.588-9.589,9.59,9.59,0,0,1,8.734,5.626,9.589,9.589,0,0,1,8.733-5.626,9.589,9.589,0,0,1,9.589,9.589c0,5.723-4.2,9.915-7.861,12.928a62.3,62.3,0,0,1-5.256,3.859Z" transform="translate(448.921 -270.444)" fill="#fff"/></g><path d="M-458.334,244.027a3.836,3.836,0,0,0-3.836-3.836,3.836,3.836,0,0,0-3.836,3.836,3.836,3.836,0,0,0,3.836,3.836A3.836,3.836,0,0,0-458.334,244.027Z" transform="translate(473.19 -234.818)" fill="#fe7c72"/></g><path d="M-375.709,234.207h-52.132V359.24h52.132a5.109,5.109,0,0,0,5.109-5.109V239.316A5.109,5.109,0,0,0-375.709,234.207Z" transform="translate(533.904 -128.851)" opacity="0.2" fill="url(#i)" style="mix-blend-mode:multiply;isolation:isolate"/><g transform="matrix(1, 0, 0, 1, -11, -4.99)" filter="url(#j)" style="mix-blend-mode:multiply;isolation:isolate"><path d="M6.585,0H127.124a6.585,6.585,0,0,1,6.585,6.585V257.39a6.585,6.585,0,0,1-6.585,6.585H6.585A6.585,6.585,0,0,1,0,257.39V6.585A6.585,6.585,0,0,1,6.585,0Z" transform="translate(137.85 69.9)" fill="#7814b1" opacity="0.2"/></g><g transform="translate(85.04 9.055)"><rect width="134.671" height="266.862" rx="18" transform="translate(34.887 49.249)" fill="#fff" stroke="rgba(0,0,0,0)" stroke-miterlimit="10" stroke-width="1"/><rect width="258.865" height="128.598" rx="31" transform="translate(166.521 53.247) rotate(90)" fill="#f9efff" stroke="rgba(0,0,0,0)" stroke-miterlimit="10" stroke-width="1"/><path d="M-334.243,396.721h-46.772a7.2,7.2,0,0,1-7.2-7.2h0a7.2,7.2,0,0,1,7.2-7.2h46.772a7.2,7.2,0,0,1,7.2,7.2h0A7.2,7.2,0,0,1-334.243,396.721Z" transform="translate(459.851 -96.836)" fill="#fff" stroke="rgba(0,0,0,0)" stroke-miterlimit="10" stroke-width="1"/><path d="M-300.932,200.5H-399.69a14.938,14.938,0,0,0-14.92,14.921V229.38h128.6V215.42A14.937,14.937,0,0,0-300.932,200.5Z" transform="translate(452.533 -147.252)" fill="#f9efff" stroke="rgba(0,0,0,0)" stroke-miterlimit="10" stroke-width="1"/><path d="M-338.458,217.572h-54.423a3.078,3.078,0,0,1-3.078-3.078h0a3.078,3.078,0,0,1,3.078-3.079h54.423a3.079,3.079,0,0,1,3.079,3.079h0A3.078,3.078,0,0,1-338.458,217.572Z" transform="translate(467.892 -145.115)" fill="#cfc4ff" stroke="rgba(0,0,0,0)" stroke-miterlimit="10" stroke-width="1"/><path d="M-351.966,248.737H-364.9a1.98,1.98,0,0,1-1.98-1.98h0a1.98,1.98,0,0,1,1.98-1.98h12.93a1.979,1.979,0,0,1,1.98,1.98h0A1.98,1.98,0,0,1-351.966,248.737Z" transform="translate(423.21 -24.649)" fill="#b3aec8" stroke="rgba(0,0,0,0)" stroke-miterlimit="10" stroke-width="1" opacity="0.16"/><path d="M-323.057,258.944h-41.707a2.113,2.113,0,0,1-2.112-2.112h0a2.112,2.112,0,0,1,2.112-2.112h41.707a2.112,2.112,0,0,1,2.112,2.112h0A2.112,2.112,0,0,1-323.057,258.944Z" transform="translate(423.21 -43.38)" fill="#b3aec8" stroke="rgba(0,0,0,0)" stroke-miterlimit="10" stroke-width="1" opacity="0.16"/><path d="M-348.428,265.931h-16.45a2,2,0,0,1-2-2h0a2,2,0,0,1,2-2h16.45a2,2,0,0,1,2,2h0A2,2,0,0,1-348.428,265.931Z" transform="translate(423.21 -59.156)" fill="#b3aec8" stroke="rgba(0,0,0,0)" stroke-miterlimit="10" stroke-width="1" opacity="0.16"/><g transform="translate(152.746 32.558) rotate(-9)" fill="none" opacity="0.05"><path d="M28.214,0A28.214,28.214,0,1,1,0,28.214,28.214,28.214,0,0,1,28.214,0Z" stroke="none"/><path d="M 28.21360969543457 2 C 24.67391014099121 2 21.24116134643555 2.69281005859375 18.01070022583008 4.059169769287109 C 14.88943862915039 5.379360198974609 12.08583831787109 7.269729614257813 9.677791595458984 9.677791595458984 C 7.269729614257813 12.08583831787109 5.379360198974609 14.88943862915039 4.059169769287109 18.01070022583008 C 2.69281005859375 21.24116134643555 2 24.67391014099121 2 28.21360969543457 C 2 31.75329971313477 2.69281005859375 35.18605804443359 4.059169769287109 38.41651153564453 C 5.379360198974609 41.53776931762695 7.269729614257813 44.34136962890625 9.677791595458984 46.74942779541016 C 12.08584976196289 49.15748977661133 14.88943862915039 51.04785919189453 18.01070022583008 52.36803817749023 C 21.24116134643555 53.73440933227539 24.67391014099121 54.42721939086914 28.21360969543457 54.42721939086914 C 31.75329971313477 54.42721939086914 35.18605804443359 53.73440933227539 38.41651153564453 52.36803817749023 C 41.53776931762695 51.04785919189453 44.34136962890625 49.15748977661133 46.74942779541016 46.74942779541016 C 49.15748977661133 44.34136962890625 51.04785919189453 41.53776931762695 52.36803817749023 38.41651153564453 C 53.73440933227539 35.18605804443359 54.42721939086914 31.75329971313477 54.42721939086914 28.21360969543457 C 54.42721939086914 24.67391014099121 53.73440933227539 21.24116134643555 52.36803817749023 18.01070022583008 C 51.04785919189453 14.88943862915039 49.15748977661133 12.08584976196289 46.74942779541016 9.677791595458984 C 44.34136962890625 7.269729614257813 41.53776931762695 5.379360198974609 38.41651153564453 4.059169769287109 C 35.18605804443359 2.69281005859375 31.75329971313477 2 28.21360969543457 2 M 28.21360969543457 0 C 43.79554748535156 0 56.42721939086914 12.63166046142578 56.42721939086914 28.21360969543457 C 56.42721939086914 43.79554748535156 43.79554748535156 56.42721939086914 28.21360969543457 56.42721939086914 C 12.63166046142578 56.42721939086914 0 43.79554748535156 0 28.21360969543457 C 0 12.63166046142578 12.63166046142578 0 28.21360969543457 0 Z" stroke="none" fill="#fff"/></g></g><g transform="translate(243.458 107.157)"><rect width="66.771" height="45.858" rx="6" transform="translate(0 0)" fill="#fff" opacity="0.46"/><g transform="matrix(1, 0, 0, 1, -254.46, -112.14)" filter="url(#l)"><rect width="66.771" height="45.376" rx="6" transform="translate(254.46 112.62)" fill="#fff"/></g><rect width="36.888" height="58.291" rx="6" transform="translate(62.531 4.721) rotate(90)" fill="#fc815d"/><g transform="translate(24.304 8.401)"><g transform="translate(0 0)" clip-path="url(#n)"><path d="M1267.346,507.211c-4.283,0-8.722-3.97-8.766-4.01a.774.774,0,0,0-1.04,0c-.044.04-4.471,4.01-8.766,4.01a.774.774,0,0,0-.774.774v9.267c0,7.507,5.584,10.507,9.784,12.111a.775.775,0,0,0,.552,0c5.889-2.248,9.784-5.756,9.784-12.111v-9.267a.774.774,0,0,0-.774-.774Zm0,0" transform="translate(-1248.135 -503.158)" fill="#fff"/></g></g><path d="M982.756,732a5.459,5.459,0,1,0,5.459,5.459A5.465,5.465,0,0,0,982.756,732Zm2.111,5.23-2.339,2.339a.779.779,0,0,1-1.1,0l-.78-.78a.78.78,0,0,1,1.1-1.1l.228.229,1.788-1.788a.78.78,0,1,1,1.1,1.1Zm0,0" transform="translate(-948.526 -716.01)" fill="#fc815d"/></g><path d="M5.6,19.673a5.605,5.605,0,0,1-5.6-5.6V5.6A5.605,5.605,0,0,1,5.6,0h8.474a5.606,5.606,0,0,1,5.6,5.6v8.474a5.606,5.606,0,0,1-5.6,5.6ZM1.686,5.6v8.474A3.917,3.917,0,0,0,5.6,17.987h8.474a3.918,3.918,0,0,0,3.913-3.913V5.6a3.917,3.917,0,0,0-3.913-3.913H5.6A3.917,3.917,0,0,0,1.686,5.6ZM4.8,9.836a5.037,5.037,0,1,1,5.037,5.037A5.043,5.043,0,0,1,4.8,9.836Zm1.686,0A3.351,3.351,0,1,0,9.836,6.486,3.355,3.355,0,0,0,6.486,9.836Zm7.393-5.326a1.211,1.211,0,1,1,1.21,1.211A1.211,1.211,0,0,1,13.879,4.511Z" transform="translate(260.114 56.737) rotate(-9)" fill="#fff" stroke="rgba(0,0,0,0)" stroke-miterlimit="10" stroke-width="1" opacity="0.21"/><text transform="translate(151.001 163.014)" fill="#7b2f84" font-size="8" font-family="BalooChettan2-Regular, 'Baloo Chettan \32 '"><tspan x="-8.692" y="0">3449</tspan></text><text transform="translate(150.001 170.014)" fill="#b3aec8" font-size="5" font-family="BalooChettan2-Regular, 'Baloo Chettan \32 '"><tspan x="-4.797" y="0">Post</tspan></text><text transform="translate(186.001 170.014)" fill="#b3aec8" font-size="5" font-family="BalooChettan2-Regular, 'Baloo Chettan \32 '"><tspan x="-10.373" y="0">Followers</tspan></text><text transform="translate(225.001 169.014)" fill="#b3aec8" font-size="5" font-family="BalooChettan2-Regular, 'Baloo Chettan \32 '"><tspan x="-10.052" y="0">following</tspan></text><text transform="translate(187.001 163.014)" fill="#7b2f84" font-size="8" font-family="BalooChettan2-Regular, 'Baloo Chettan \32 '"><tspan x="-5.992" y="0">18K</tspan></text><text transform="translate(226.001 162.014)" fill="#7b2f84" font-size="8" font-family="BalooChettan2-Regular, 'Baloo Chettan \32 '"><tspan x="-4.216" y="0">52</tspan></text></g><g transform="translate(331.128 3526.263) rotate(-13)"><circle cx="21.951" cy="21.951" r="21.951" fill="url(#e)"/><circle cx="18.135" cy="18.135" r="18.135" transform="translate(3.816 3.817)" fill="#fff"/><path d="M.127,24.72A1.173,1.173,0,0,1,0,24.2a1.976,1.976,0,0,1,.058-.537,11.065,11.065,0,0,1,6.568-8.388,7.682,7.682,0,1,1,8.668,0,10.939,10.939,0,0,1,6.545,9.013h-.01a1.182,1.182,0,0,1-1.177,1.1H1.241c-.034,0-.068.01-.1.01A1.1,1.1,0,0,1,.127,24.72Zm2.387-1.709H19.4a8.767,8.767,0,0,0-7.973-6.417c-.156.01-.312.016-.47.016s-.314-.006-.468-.015A8.769,8.769,0,0,0,2.514,23.011ZM5.469,8.929a5.488,5.488,0,1,0,10.975,0h0a5.488,5.488,0,0,0-10.975,0ZM20.9,5.274V3.428H19.054V1.846H20.9V0h1.579V1.846h1.842V3.429H22.475V5.274Z" transform="translate(10.586 8.924)" fill="url(#e)"/></g><g transform="translate(314.505 3608.102)"><path d="M257.42,387.3a2.537,2.537,0,0,0-4.8-.679,2.538,2.538,0,1,0-4.084,2.886l3.619,3.619a.658.658,0,0,0,.93,0l3.619-3.619A2.54,2.54,0,0,0,257.42,387.3Z" transform="translate(-247.794 -384.529)" fill="none" stroke="#c1b9d4" stroke-linejoin="round" stroke-width="1"/><path d="M305.43,392.428a4.085,4.085,0,0,0,.927-2.563,4.733,4.733,0,1,0-4.717,4.342,5,5,0,0,0,2.038-.442l2.679,1.191Z" transform="translate(-273.422 -385.521)" fill="none" stroke="#c1b9d4" stroke-linejoin="round" stroke-width="1"/><g transform="translate(46.015 0.643)"><path d="M316.774,385.943l3.816,3.064.821,5.086,6.183-8.15Z" transform="translate(-316.774 -385.943)" fill="none" stroke="#c1b9d4" stroke-linejoin="round" stroke-width="1"/><line y1="3.064" x2="7.004" transform="translate(3.816)" fill="none" stroke="#c1b9d4" stroke-linejoin="round" stroke-width="1"/></g></g><rect width="136" height="45" transform="translate(289.82 3597.526)" fill="url(#q)"/></g></g></svg>