<svg xmlns="http://www.w3.org/2000/svg" xmlns:xlink="http://www.w3.org/1999/xlink" width="734" height="545" viewBox="0 0 734 545"><defs><style>.a,.ad,.u,.x{fill:none;}.b,.i,.q,.v,.z{fill:#fff;}.c{clip-path:url(#a);}.d{opacity:0.08;}.e{opacity:0.09;}.f{opacity:0.14;}.g{fill:url(#b);}.h,.i{opacity:0.11;}.j{fill:#1370a1;}.j,.o,.p{opacity:0.2;}.ai,.j,.o{mix-blend-mode:multiply;}.ai,.j,.l,.o{isolation:isolate;}.k,.r{fill:#f9efff;}.l{opacity:0.5;mix-blend-mode:overlay;fill:url(#e);}.m{fill:#fe7b73;}.n{fill:#fe7c72;}.o{fill:url(#f);}.p{fill:#7814b1;}.q,.r,.s,.t,.z{stroke:rgba(0,0,0,0);}.q,.r,.s,.t,.x,.z{stroke-miterlimit:10;}.s{fill:#cfc4ff;}.ab,.t{fill:#b3aec8;}.t{opacity:0.16;}.u{opacity:0.05;}.v{opacity:0.46;}.w{fill:#ff658c;}.x{stroke:#fff;stroke-width:2px;}.y{clip-path:url(#k);}.z{opacity:0.21;}.aa{fill:#7b2f84;font-size:18px;}.aa,.ab{font-family:BalooChettan2-Regular, 'Baloo Chettan \32 ';}.ab{font-size:12px;}.ac{fill:url(#l);}.ad{stroke:#c1b9d4;stroke-linejoin:round;}.ae{fill:url(#n);}.af,.ag{stroke:none;}.ag{fill:#fff;}.ah{filter:url(#i);}.ai{filter:url(#g);}.aj{filter:url(#c);}</style><clipPath id="a"><rect class="a" width="734" height="545" transform="translate(162 3408)"/></clipPath><linearGradient id="b" x1="0.5" x2="0.5" y2="1" gradientUnits="objectBoundingBox"><stop offset="0" stop-color="#f5ff8f"/><stop offset="1" stop-color="#fca421"/></linearGradient><filter id="c" x="35.214" y="512.943" width="68.868" height="68.868" filterUnits="userSpaceOnUse"><feOffset dy="6" input="SourceAlpha"/><feGaussianBlur stdDeviation="4" result="d"/><feFlood flood-opacity="0.059"/><feComposite operator="in" in2="d"/><feComposite in="SourceGraphic"/></filter><linearGradient id="e" x1="0.092" y1="0.879" x2="0.8" y2="0.222" gradientUnits="objectBoundingBox"><stop offset="0.333" stop-color="#555e63" stop-opacity="0.902"/><stop offset="0.44" stop-color="#525b60" stop-opacity="0.906"/><stop offset="0.479" stop-color="#495358" stop-opacity="0.933"/><stop offset="0.507" stop-color="#3a444a" stop-opacity="0.976"/><stop offset="0.516" stop-color="#323d43"/><stop offset="0.517" stop-color="#394349"/><stop offset="0.525" stop-color="#626a6f"/><stop offset="0.534" stop-color="#878e91"/><stop offset="0.544" stop-color="#a8adaf"/><stop offset="0.554" stop-color="#c3c6c8"/><stop offset="0.567" stop-color="#d9dbdc"/><stop offset="0.581" stop-color="#eaebec"/><stop offset="0.598" stop-color="#f6f6f7"/><stop offset="0.622" stop-color="#fdfdfd"/><stop offset="0.69" stop-color="#fff"/></linearGradient><linearGradient id="f" y1="0.5" x2="0.275" y2="0.5" gradientUnits="objectBoundingBox"><stop offset="0" stop-color="#1a74a4" stop-opacity="0"/><stop offset="0.793" stop-color="#7213a1" stop-opacity="0.902"/><stop offset="1" stop-color="#a11330" stop-opacity="0.902"/></linearGradient><filter id="g" x="225.892" y="102.89" width="370.818" height="641.484" filterUnits="userSpaceOnUse"><feOffset dy="3" input="SourceAlpha"/><feGaussianBlur stdDeviation="3" result="h"/><feFlood flood-opacity="0.161"/><feComposite operator="in" in2="h"/><feComposite in="SourceGraphic"/></filter><filter id="i" x="509" y="222.243" width="162.736" height="118.282" filterUnits="userSpaceOnUse"><feOffset dx="8" dy="6" input="SourceAlpha"/><feGaussianBlur stdDeviation="4" result="j"/><feFlood flood-color="#d43f6f" flood-opacity="0.478"/><feComposite operator="in" in2="j"/><feComposite in="SourceGraphic"/></filter><clipPath id="k"><rect class="b" width="36.325" height="33.275"/></clipPath><linearGradient id="l" y1="0.733" x2="1.067" y2="0.356" gradientUnits="objectBoundingBox"><stop offset="0" stop-color="#fa0"/><stop offset="0.463" stop-color="#ff506e"/><stop offset="1" stop-color="#8c00d1"/></linearGradient><linearGradient id="n" x1="0.5" x2="0.5" y2="1" gradientUnits="objectBoundingBox"><stop offset="0" stop-color="#fff" stop-opacity="0"/><stop offset="1" stop-color="#a4a1a2" stop-opacity="0.4"/></linearGradient></defs><g class="c" transform="translate(-162 -3408)"><rect class="a" width="734" height="545" transform="translate(162 3408)"/><g transform="translate(503.021 3142)"><g class="d" transform="translate(97.132 296.275)"><path class="b" d="M-304.812,205.428a2.342,2.342,0,0,1-2.338-2.338,2.342,2.342,0,0,1,2.338-2.341,2.345,2.345,0,0,1,2.341,2.341A2.344,2.344,0,0,1-304.812,205.428Zm-13.984,0a2.344,2.344,0,0,1-2.341-2.338,2.344,2.344,0,0,1,2.341-2.341,2.342,2.342,0,0,1,2.338,2.341A2.342,2.342,0,0,1-318.8,205.428Zm-13.986,0a2.344,2.344,0,0,1-2.341-2.338,2.345,2.345,0,0,1,2.341-2.341,2.342,2.342,0,0,1,2.338,2.341A2.342,2.342,0,0,1-332.782,205.428Zm-13.987,0a2.342,2.342,0,0,1-2.338-2.338,2.342,2.342,0,0,1,2.338-2.341,2.344,2.344,0,0,1,2.341,2.341A2.344,2.344,0,0,1-346.769,205.428Zm41.957-13.986a2.34,2.34,0,0,1-2.338-2.338,2.34,2.34,0,0,1,2.338-2.338,2.342,2.342,0,0,1,2.341,2.338A2.342,2.342,0,0,1-304.812,191.442Zm-13.984,0a2.342,2.342,0,0,1-2.341-2.338,2.342,2.342,0,0,1,2.341-2.338,2.34,2.34,0,0,1,2.338,2.338A2.34,2.34,0,0,1-318.8,191.442Zm-13.986,0a2.342,2.342,0,0,1-2.341-2.338,2.342,2.342,0,0,1,2.341-2.338,2.34,2.34,0,0,1,2.338,2.338A2.34,2.34,0,0,1-332.782,191.442Zm-13.987,0a2.34,2.34,0,0,1-2.338-2.338,2.34,2.34,0,0,1,2.338-2.338,2.342,2.342,0,0,1,2.341,2.338A2.342,2.342,0,0,1-346.769,191.442Zm41.957-13.984a2.342,2.342,0,0,1-2.338-2.341,2.34,2.34,0,0,1,2.338-2.338,2.342,2.342,0,0,1,2.341,2.338A2.345,2.345,0,0,1-304.812,177.458Zm-13.984,0a2.344,2.344,0,0,1-2.341-2.341,2.342,2.342,0,0,1,2.341-2.338,2.34,2.34,0,0,1,2.338,2.338A2.342,2.342,0,0,1-318.8,177.458Zm-13.986,0a2.345,2.345,0,0,1-2.341-2.341,2.342,2.342,0,0,1,2.341-2.338,2.34,2.34,0,0,1,2.338,2.338A2.342,2.342,0,0,1-332.782,177.458Zm-13.987,0a2.342,2.342,0,0,1-2.338-2.341,2.34,2.34,0,0,1,2.338-2.338,2.342,2.342,0,0,1,2.341,2.338A2.345,2.345,0,0,1-346.769,177.458Zm41.957-13.986a2.342,2.342,0,0,1-2.338-2.338,2.342,2.342,0,0,1,2.338-2.341,2.345,2.345,0,0,1,2.341,2.341A2.344,2.344,0,0,1-304.812,163.472Zm-13.984,0a2.344,2.344,0,0,1-2.341-2.338,2.344,2.344,0,0,1,2.341-2.341,2.342,2.342,0,0,1,2.338,2.341A2.342,2.342,0,0,1-318.8,163.472Zm-13.986,0a2.344,2.344,0,0,1-2.341-2.338,2.345,2.345,0,0,1,2.341-2.341,2.342,2.342,0,0,1,2.338,2.341A2.342,2.342,0,0,1-332.782,163.472Zm-13.987,0a2.342,2.342,0,0,1-2.338-2.338,2.342,2.342,0,0,1,2.338-2.341,2.344,2.344,0,0,1,2.341,2.341A2.344,2.344,0,0,1-346.769,163.472Z" transform="translate(349.107 -158.793)"/></g><g transform="translate(-157.556 889.73)"><path class="b" d="M-400.775,429.037a2.34,2.34,0,0,1-2.338-2.338,2.34,2.34,0,0,1,2.338-2.338,2.34,2.34,0,0,1,2.338,2.338A2.34,2.34,0,0,1-400.775,429.037Zm-13.986,0A2.34,2.34,0,0,1-417.1,426.7a2.34,2.34,0,0,1,2.338-2.338,2.34,2.34,0,0,1,2.338,2.338A2.34,2.34,0,0,1-414.761,429.037Zm-13.986,0a2.34,2.34,0,0,1-2.338-2.338,2.34,2.34,0,0,1,2.338-2.338,2.342,2.342,0,0,1,2.341,2.338A2.342,2.342,0,0,1-428.747,429.037Zm-13.986,0a2.34,2.34,0,0,1-2.338-2.338,2.34,2.34,0,0,1,2.338-2.338,2.341,2.341,0,0,1,2.341,2.338A2.341,2.341,0,0,1-442.734,429.037Zm41.959-13.984a2.342,2.342,0,0,1-2.338-2.341,2.34,2.34,0,0,1,2.338-2.338,2.34,2.34,0,0,1,2.338,2.338A2.342,2.342,0,0,1-400.775,415.053Zm-13.986,0a2.343,2.343,0,0,1-2.338-2.341,2.34,2.34,0,0,1,2.338-2.338,2.34,2.34,0,0,1,2.338,2.338A2.342,2.342,0,0,1-414.761,415.053Zm-13.986,0a2.342,2.342,0,0,1-2.338-2.341,2.34,2.34,0,0,1,2.338-2.338,2.342,2.342,0,0,1,2.341,2.338A2.345,2.345,0,0,1-428.747,415.053Zm-13.986,0a2.342,2.342,0,0,1-2.338-2.341,2.34,2.34,0,0,1,2.338-2.338,2.341,2.341,0,0,1,2.341,2.338A2.343,2.343,0,0,1-442.734,415.053Zm41.959-13.986a2.34,2.34,0,0,1-2.338-2.338,2.342,2.342,0,0,1,2.338-2.341,2.342,2.342,0,0,1,2.338,2.341A2.34,2.34,0,0,1-400.775,401.067Zm-13.986,0a2.34,2.34,0,0,1-2.338-2.338,2.342,2.342,0,0,1,2.338-2.341,2.342,2.342,0,0,1,2.338,2.341A2.34,2.34,0,0,1-414.761,401.067Zm-13.986,0a2.34,2.34,0,0,1-2.338-2.338,2.342,2.342,0,0,1,2.338-2.341,2.345,2.345,0,0,1,2.341,2.341A2.342,2.342,0,0,1-428.747,401.067Zm-13.986,0a2.34,2.34,0,0,1-2.338-2.338,2.342,2.342,0,0,1,2.338-2.341,2.343,2.343,0,0,1,2.341,2.341A2.341,2.341,0,0,1-442.734,401.067Zm41.959-13.986a2.34,2.34,0,0,1-2.338-2.338,2.34,2.34,0,0,1,2.338-2.338,2.34,2.34,0,0,1,2.338,2.338A2.34,2.34,0,0,1-400.775,387.08Zm-13.986,0a2.34,2.34,0,0,1-2.338-2.338,2.34,2.34,0,0,1,2.338-2.338,2.34,2.34,0,0,1,2.338,2.338A2.34,2.34,0,0,1-414.761,387.08Zm-13.986,0a2.34,2.34,0,0,1-2.338-2.338,2.34,2.34,0,0,1,2.338-2.338,2.342,2.342,0,0,1,2.341,2.338A2.342,2.342,0,0,1-428.747,387.08Zm-13.986,0a2.34,2.34,0,0,1-2.338-2.338,2.34,2.34,0,0,1,2.338-2.338,2.341,2.341,0,0,1,2.341,2.338A2.341,2.341,0,0,1-442.734,387.08Z" transform="translate(445.072 -382.404)"/></g><g class="e" transform="translate(-332.202 494.529)"><path class="b" d="M-466.581,280.129a2.342,2.342,0,0,1-2.341-2.338,2.345,2.345,0,0,1,2.341-2.341,2.342,2.342,0,0,1,2.338,2.341A2.34,2.34,0,0,1-466.581,280.129Zm-13.986,0a2.34,2.34,0,0,1-2.338-2.338,2.342,2.342,0,0,1,2.338-2.341,2.342,2.342,0,0,1,2.338,2.341A2.34,2.34,0,0,1-480.567,280.129Zm-13.986,0a2.34,2.34,0,0,1-2.338-2.338,2.342,2.342,0,0,1,2.338-2.341,2.345,2.345,0,0,1,2.341,2.341A2.342,2.342,0,0,1-494.554,280.129Zm-13.986,0a2.34,2.34,0,0,1-2.338-2.338,2.342,2.342,0,0,1,2.338-2.341,2.345,2.345,0,0,1,2.341,2.341A2.342,2.342,0,0,1-508.54,280.129Zm41.959-13.986a2.342,2.342,0,0,1-2.341-2.338,2.342,2.342,0,0,1,2.341-2.338,2.34,2.34,0,0,1,2.338,2.338A2.34,2.34,0,0,1-466.581,266.143Zm-13.986,0a2.34,2.34,0,0,1-2.338-2.338,2.34,2.34,0,0,1,2.338-2.338,2.34,2.34,0,0,1,2.338,2.338A2.34,2.34,0,0,1-480.567,266.143Zm-13.986,0a2.34,2.34,0,0,1-2.338-2.338,2.34,2.34,0,0,1,2.338-2.338,2.342,2.342,0,0,1,2.341,2.338A2.342,2.342,0,0,1-494.554,266.143Zm-13.986,0a2.34,2.34,0,0,1-2.338-2.338,2.34,2.34,0,0,1,2.338-2.338A2.342,2.342,0,0,1-506.2,263.8,2.342,2.342,0,0,1-508.54,266.143Zm41.959-13.984a2.345,2.345,0,0,1-2.341-2.341,2.342,2.342,0,0,1,2.341-2.338,2.34,2.34,0,0,1,2.338,2.338A2.342,2.342,0,0,1-466.581,252.159Zm-13.986,0a2.342,2.342,0,0,1-2.338-2.341,2.34,2.34,0,0,1,2.338-2.338,2.34,2.34,0,0,1,2.338,2.338A2.342,2.342,0,0,1-480.567,252.159Zm-13.986,0a2.342,2.342,0,0,1-2.338-2.341,2.34,2.34,0,0,1,2.338-2.338,2.342,2.342,0,0,1,2.341,2.338A2.345,2.345,0,0,1-494.554,252.159Zm-13.986,0a2.342,2.342,0,0,1-2.338-2.341,2.34,2.34,0,0,1,2.338-2.338,2.342,2.342,0,0,1,2.341,2.338A2.345,2.345,0,0,1-508.54,252.159Zm41.959-13.986a2.342,2.342,0,0,1-2.341-2.338,2.345,2.345,0,0,1,2.341-2.341,2.342,2.342,0,0,1,2.338,2.341A2.34,2.34,0,0,1-466.581,238.173Zm-13.986,0a2.34,2.34,0,0,1-2.338-2.338,2.342,2.342,0,0,1,2.338-2.341,2.342,2.342,0,0,1,2.338,2.341A2.34,2.34,0,0,1-480.567,238.173Zm-13.986,0a2.34,2.34,0,0,1-2.338-2.338,2.342,2.342,0,0,1,2.338-2.341,2.345,2.345,0,0,1,2.341,2.341A2.342,2.342,0,0,1-494.554,238.173Zm-13.986,0a2.34,2.34,0,0,1-2.338-2.338,2.342,2.342,0,0,1,2.338-2.341,2.345,2.345,0,0,1,2.341,2.341A2.342,2.342,0,0,1-508.54,238.173Z" transform="translate(510.878 -233.494)"/></g><g class="f" transform="translate(231.645 658.535)"><path class="b" d="M-254.126,341.926a2.342,2.342,0,0,1-2.338-2.338,2.342,2.342,0,0,1,2.338-2.341,2.342,2.342,0,0,1,2.338,2.341A2.342,2.342,0,0,1-254.126,341.926Zm-13.986,0a2.342,2.342,0,0,1-2.338-2.338,2.342,2.342,0,0,1,2.338-2.341,2.345,2.345,0,0,1,2.341,2.341A2.344,2.344,0,0,1-268.112,341.926Zm-13.984,0a2.342,2.342,0,0,1-2.341-2.338,2.343,2.343,0,0,1,2.341-2.341,2.344,2.344,0,0,1,2.338,2.341A2.343,2.343,0,0,1-282.1,341.926Zm-13.986,0a2.344,2.344,0,0,1-2.341-2.338,2.345,2.345,0,0,1,2.341-2.341,2.342,2.342,0,0,1,2.338,2.341A2.342,2.342,0,0,1-296.082,341.926Zm41.956-13.986a2.34,2.34,0,0,1-2.338-2.338,2.34,2.34,0,0,1,2.338-2.338,2.34,2.34,0,0,1,2.338,2.338A2.34,2.34,0,0,1-254.126,327.94Zm-13.986,0a2.34,2.34,0,0,1-2.338-2.338,2.34,2.34,0,0,1,2.338-2.338,2.342,2.342,0,0,1,2.341,2.338A2.342,2.342,0,0,1-268.112,327.94Zm-13.984,0a2.341,2.341,0,0,1-2.341-2.338,2.341,2.341,0,0,1,2.341-2.338,2.342,2.342,0,0,1,2.338,2.338A2.342,2.342,0,0,1-282.1,327.94Zm-13.986,0a2.342,2.342,0,0,1-2.341-2.338,2.342,2.342,0,0,1,2.341-2.338,2.34,2.34,0,0,1,2.338,2.338A2.34,2.34,0,0,1-296.082,327.94Zm41.956-13.986a2.34,2.34,0,0,1-2.338-2.338,2.34,2.34,0,0,1,2.338-2.338,2.34,2.34,0,0,1,2.338,2.338A2.34,2.34,0,0,1-254.126,313.954Zm-13.986,0a2.34,2.34,0,0,1-2.338-2.338,2.34,2.34,0,0,1,2.338-2.338,2.342,2.342,0,0,1,2.341,2.338A2.342,2.342,0,0,1-268.112,313.954Zm-13.984,0a2.341,2.341,0,0,1-2.341-2.338,2.341,2.341,0,0,1,2.341-2.338,2.342,2.342,0,0,1,2.338,2.338A2.342,2.342,0,0,1-282.1,313.954Zm-13.986,0a2.342,2.342,0,0,1-2.341-2.338,2.342,2.342,0,0,1,2.341-2.338,2.34,2.34,0,0,1,2.338,2.338A2.34,2.34,0,0,1-296.082,313.954Zm41.956-13.984a2.342,2.342,0,0,1-2.338-2.338,2.342,2.342,0,0,1,2.338-2.341,2.342,2.342,0,0,1,2.338,2.341A2.342,2.342,0,0,1-254.126,299.97Zm-13.986,0a2.342,2.342,0,0,1-2.338-2.338,2.342,2.342,0,0,1,2.338-2.341,2.345,2.345,0,0,1,2.341,2.341A2.344,2.344,0,0,1-268.112,299.97Zm-13.984,0a2.342,2.342,0,0,1-2.341-2.338,2.343,2.343,0,0,1,2.341-2.341,2.344,2.344,0,0,1,2.338,2.341A2.343,2.343,0,0,1-282.1,299.97Zm-13.986,0a2.344,2.344,0,0,1-2.341-2.338,2.345,2.345,0,0,1,2.341-2.341,2.342,2.342,0,0,1,2.338,2.341A2.342,2.342,0,0,1-296.082,299.97Z" transform="translate(298.423 -295.291)"/></g><g transform="translate(-293.807 784.943)"><g class="aj" transform="matrix(1, 0, 0, 1, -47.21, -518.94)"><path class="g" d="M-493.929,384.021a22.46,22.46,0,0,1-22.434-22.436,22.459,22.459,0,0,1,22.434-22.431A22.459,22.459,0,0,1-471.5,361.584,22.46,22.46,0,0,1-493.929,384.021Zm0-35.794a13.375,13.375,0,0,0-13.36,13.358,13.376,13.376,0,0,0,13.36,13.36,13.372,13.372,0,0,0,13.357-13.36A13.371,13.371,0,0,0-493.929,348.227Z" transform="translate(563.58 179.79)"/></g></g><g class="h" transform="translate(-192.51 446.021)"><path class="b" d="M-232.859,318.606a15.812,15.812,0,0,1-15.795-15.795,15.812,15.812,0,0,1,15.795-15.795,15.812,15.812,0,0,1,15.795,15.795A15.812,15.812,0,0,1-232.859,318.606Zm0-25.2a9.416,9.416,0,0,0-9.4,9.406,9.415,9.415,0,0,0,9.4,9.4,9.416,9.416,0,0,0,9.406-9.4A9.416,9.416,0,0,0-232.859,293.405Z" transform="translate(248.654 -287.017)"/></g><circle class="b" cx="24.914" cy="24.914" r="24.914" transform="translate(-248.939 870.643) rotate(-45)"/><circle class="i" cx="13.021" cy="13.021" r="13.021" transform="translate(333.844 277.512)"/><path class="i" d="M-240.5,195.222a8.022,8.022,0,0,0,8.022,8.022,8.021,8.021,0,0,0,8.016-8.022,8.019,8.019,0,0,0-8.016-8.016A8.021,8.021,0,0,0-240.5,195.222Z" transform="translate(610.123 549.271)"/><g transform="translate(-234.346 496.421)"><rect class="j" width="241.455" height="259.794" rx="4" transform="translate(6.584 6.584)"/><rect class="k" width="241.455" height="259.794" rx="11"/><path class="l" d="M-243.167,234.207H-463.39a10.616,10.616,0,0,0-10.616,10.616V483.385A10.616,10.616,0,0,0-463.39,494h220.223a10.616,10.616,0,0,0,10.616-10.616V244.823A10.616,10.616,0,0,0-243.167,234.207Zm9.822,249.178a9.832,9.832,0,0,1-9.822,9.82H-463.39a9.831,9.831,0,0,1-9.82-9.82V244.823a9.831,9.831,0,0,1,9.82-9.82h220.223a9.832,9.832,0,0,1,9.822,9.82Z" transform="translate(474.006 -234.207)"/><rect class="m" width="184.121" height="198.992" transform="translate(220.224 54.44) rotate(90)"/><g transform="translate(66.575 96.172)"><path class="b" d="M-394.767,358.346l-15.388-9.944a185.8,185.8,0,0,1-15.534-11.407c-10.818-8.9-23.233-21.3-23.233-38.209a28.34,28.34,0,0,1,28.339-28.342,28.345,28.345,0,0,1,25.815,16.627,28.341,28.341,0,0,1,25.812-16.627,28.341,28.341,0,0,1,28.342,28.342c0,16.914-12.418,29.305-23.235,38.209A184.148,184.148,0,0,1-379.382,348.4Z" transform="translate(448.921 -270.444)"/></g><path class="n" d="M-443.331,251.529a11.339,11.339,0,0,0-11.338-11.338,11.339,11.339,0,0,0-11.338,11.338,11.337,11.337,0,0,0,11.338,11.338A11.337,11.337,0,0,0-443.331,251.529Z" transform="translate(487.238 -224.309)"/></g><path class="o" d="M-319.522,234.207H-427.841V494h108.319a10.616,10.616,0,0,0,10.616-10.616V244.823A10.616,10.616,0,0,0-319.522,234.207Z" transform="translate(316.016 262.214)"/><g class="ai" transform="matrix(1, 0, 0, 1, -341.02, 266)"><path class="p" d="M13.682,0H264.137a13.681,13.681,0,0,1,13.681,13.681V534.8a13.681,13.681,0,0,1-13.681,13.682H13.682A13.682,13.682,0,0,1,0,534.8V13.682A13.681,13.681,0,0,1,13.682,0Z" transform="translate(272.39 146.39)"/></g><g transform="translate(-82.019 401.654)"><rect class="q" width="279.818" height="554.484" rx="35" transform="translate(-1 -3)"/><rect class="r" width="537.867" height="267.2" rx="31" transform="translate(272.509 5.308) rotate(90)"/><path class="q" d="M-276.07,412.248h-97.183a14.967,14.967,0,0,1-14.966-14.966h0a14.967,14.967,0,0,1,14.966-14.968h97.183A14.968,14.968,0,0,1-261.1,397.282h0A14.967,14.967,0,0,1-276.07,412.248Z" transform="translate(463.569 105.523)"/><path class="r" d="M-178.41,200.5h-205.2a31.038,31.038,0,0,0-31,31v29h267.2v-29A31.036,31.036,0,0,0-178.41,200.5Z" transform="translate(419.918 -195.192)"/><path class="s" d="M-276.485,224.208H-389.564a6.4,6.4,0,0,1-6.395-6.395h0a6.4,6.4,0,0,1,6.395-6.4h113.079a6.4,6.4,0,0,1,6.4,6.4h0A6.4,6.4,0,0,1-276.485,224.208Z" transform="translate(471.933 -178.984)"/><path class="t" d="M-335.9,253h-26.867a4.114,4.114,0,0,1-4.113-4.113h0a4.113,4.113,0,0,1,4.113-4.113H-335.9a4.112,4.112,0,0,1,4.113,4.113h0A4.113,4.113,0,0,1-335.9,253Z" transform="translate(410.438 107.277)"/><path class="t" d="M-275.829,263.5h-86.659a4.39,4.39,0,0,1-4.388-4.388h0a4.389,4.389,0,0,1,4.388-4.388h86.659a4.387,4.387,0,0,1,4.388,4.388h0A4.389,4.389,0,0,1-275.829,263.5Z" transform="translate(410.438 79.073)"/><path class="t" d="M-328.544,270.239h-34.18a4.154,4.154,0,0,1-4.152-4.152h0a4.152,4.152,0,0,1,4.152-4.152h34.18a4.151,4.151,0,0,1,4.152,4.152h0A4.152,4.152,0,0,1-328.544,270.239Z" transform="translate(410.438 54.069)"/><g class="u" transform="translate(-73.488 -83.584) rotate(-9)"><path class="af" d="M69.5,0A69.5,69.5,0,1,1,0,69.5,69.5,69.5,0,0,1,69.5,0Z"/><path class="ag" d="M 69.5 2 C 60.38668060302734 2 51.54701995849609 3.784393310546875 43.2265625 7.303665161132813 C 39.22734069824219 8.99517822265625 35.36994171142578 11.08894348144531 31.76149749755859 13.52675628662109 C 28.18682098388672 15.94175720214844 24.82530212402344 18.71527862548828 21.77027893066406 21.77027893066406 C 18.71527862548828 24.82530212402344 15.94175720214844 28.18682098388672 13.52675628662109 31.76149749755859 C 11.08894348144531 35.36994171142578 8.99517822265625 39.22734069824219 7.303665161132813 43.2265625 C 3.784393310546875 51.54701995849609 2 60.38668060302734 2 69.5 C 2 78.61331939697266 3.784393310546875 87.45298004150391 7.303665161132813 95.77342224121094 C 8.99517822265625 99.77265930175781 11.08894348144531 103.6300582885742 13.52675628662109 107.2385025024414 C 15.94175720214844 110.8131561279297 18.71527862548828 114.1746978759766 21.77027893066406 117.2296981811523 C 24.82530212402344 120.2847213745117 28.18682098388672 123.0582427978516 31.76149749755859 125.4732360839844 C 35.36994171142578 127.9110565185547 39.22734069824219 130.0048065185547 43.2265625 131.6963348388672 C 51.54701995849609 135.215576171875 60.38668060302734 137 69.5 137 C 78.61331939697266 137 87.45298004150391 135.215576171875 95.77342224121094 131.6963348388672 C 99.77264404296875 130.0048065185547 103.6300582885742 127.9110565185547 107.2385025024414 125.4732360839844 C 110.8131561279297 123.0582427978516 114.1746978759766 120.2847213745117 117.2296981811523 117.2296981811523 C 120.2847213745117 114.1746978759766 123.0582427978516 110.8131561279297 125.4732360839844 107.2385025024414 C 127.9110565185547 103.6300582885742 130.0048065185547 99.77264404296875 131.6963348388672 95.77342224121094 C 135.215576171875 87.45298004150391 137 78.61331939697266 137 69.5 C 137 60.38668060302734 135.215576171875 51.54701995849609 131.6963348388672 43.2265625 C 130.0048065185547 39.22734069824219 127.9110565185547 35.36994171142578 125.4732360839844 31.76149749755859 C 123.0582427978516 28.18682098388672 120.2847213745117 24.82530212402344 117.2296981811523 21.77027893066406 C 114.1746978759766 18.71527862548828 110.8131561279297 15.94175720214844 107.2385025024414 13.52675628662109 C 103.6300582885742 11.08894348144531 99.77265930175781 8.99517822265625 95.77342224121094 7.303665161132813 C 87.45298004150391 3.784393310546875 78.61331939697266 2 69.5 2 M 69.5 0 C 107.8837814331055 0 139 31.11620330810547 139 69.5 C 139 107.8837814331055 107.8837814331055 139 69.5 139 C 31.11620330810547 139 0 107.8837814331055 0 69.5 C 0 31.11620330810547 31.11620330810547 0 69.5 0 Z"/></g></g><g transform="translate(171.979 494.243)"><rect class="v" width="138.736" height="95.282" rx="5" transform="translate(0 -1)"/><g class="ah" transform="matrix(1, 0, 0, 1, -513, -228.24)"><rect class="b" width="138.736" height="94.282" rx="5" transform="translate(513 228.24)"/></g><rect class="w" width="76.646" height="121.118" rx="6" transform="translate(129.927 8.809) rotate(90)"/><path class="x" d="M-565.883-3559.525H-695l0-.014a27.164,27.164,0,0,1,3.469-5.849,20.11,20.11,0,0,1,4.405-4.245,13.472,13.472,0,0,1,6.241-2.383,11.29,11.29,0,0,1,1.2-.064,15.09,15.09,0,0,1,5.6,1.273l.235.089a13.373,13.373,0,0,0,4.813,1.184,10.25,10.25,0,0,0,6.142-2.418c2.595-1.927,5.555-5.079,9.05-9.634,3.86-5.035,7.77-7.379,12.3-7.379,3.206,0,6.289,1.128,9.552,2.322l.146.053c3.192,1.167,6.493,2.375,10,2.375a14.152,14.152,0,0,0,7.264-2c5.154-2.984,10.272-9.435,15.69-16.265,8.956-11.289,19.106-24.083,33.008-26.541v69.5Z" transform="translate(699.81 3649)"/><g transform="translate(-865.687 -652.42)"><g transform="translate(917.398 673.871)"><g class="y"><path class="b" d="M927.374,678.387a4.661,4.661,0,1,1,4.662,4.66,4.66,4.66,0,0,1-4.662-4.66Zm6.9,7.834a5.038,5.038,0,0,1,.958-2.73,5.984,5.984,0,0,0-1.221-.126h-3.954a6.081,6.081,0,0,0-1.216.124,2.064,2.064,0,0,0,3.409,2.313,5.082,5.082,0,0,1,2.024.419Zm.79.419a5.323,5.323,0,0,1,2.475,3.952,4.292,4.292,0,1,0-2.475-3.952Zm-2.814,8.79a4.293,4.293,0,1,0-4.295-4.293,4.293,4.293,0,0,0,4.295,4.293Zm1.822.292h-3.644a5.5,5.5,0,0,0-5.5,5.5v4.457l.012.068.307.1a25.03,25.03,0,0,0,7.473,1.206,15.339,15.339,0,0,0,6.528-1.226l.286-.145h.03V701.22a5.5,5.5,0,0,0-5.5-5.5Zm7.1-4.431H937.56a5.283,5.283,0,0,1-1.631,3.686,6.531,6.531,0,0,1,4.664,6.251V702.6a14.808,14.808,0,0,0,5.762-1.21l.288-.146h.03v-4.457a5.5,5.5,0,0,0-5.5-5.5Zm.968-8.972a5.322,5.322,0,0,1,2.476,3.952,4.291,4.291,0,1,0-2.476-3.952Zm6.111,4.651h-3.615a5.285,5.285,0,0,1-1.632,3.686,6.533,6.533,0,0,1,4.664,6.251v1.372a14.755,14.755,0,0,0,5.762-1.21l.287-.144h.032v-4.457a5.5,5.5,0,0,0-5.5-5.5ZM924.717,691a4.279,4.279,0,0,0,2.285-.663,5.31,5.31,0,0,1,2-3.389c0-.081.012-.161.012-.243A4.293,4.293,0,1,0,924.717,691Zm3.856,3.978a5.293,5.293,0,0,1-1.631-3.666c-.134-.01-.267-.02-.405-.02H922.9a5.5,5.5,0,0,0-5.5,5.5v4.455l.012.07.307.1a25.749,25.749,0,0,0,6.191,1.163v-1.345a6.528,6.528,0,0,1,4.665-6.251Zm0,0" transform="translate(-917.398 -673.801)"/></g></g></g></g><path class="z" d="M-486.656-3084.5a16.383,16.383,0,0,1-16.365-16.365v-24.768A16.383,16.383,0,0,1-486.656-3142h24.768a16.384,16.384,0,0,1,16.365,16.365v24.768a16.384,16.384,0,0,1-16.365,16.365Zm-11.436-41.133v24.768a11.45,11.45,0,0,0,11.436,11.438h24.768a11.45,11.45,0,0,0,11.436-11.437v-24.768a11.449,11.449,0,0,0-11.436-11.437h-24.768A11.449,11.449,0,0,0-498.092-3125.635Zm9.1,12.384a14.739,14.739,0,0,1,14.722-14.722,14.739,14.739,0,0,1,14.722,14.722,14.739,14.739,0,0,1-14.722,14.722A14.739,14.739,0,0,1-488.994-3113.25Zm4.929,0a9.8,9.8,0,0,0,9.793,9.794,9.8,9.8,0,0,0,9.793-9.794,9.8,9.8,0,0,0-9.793-9.793A9.8,9.8,0,0,0-484.065-3113.25Zm21.609-15.566a3.538,3.538,0,0,1,3.538-3.538,3.538,3.538,0,0,1,3.539,3.538,3.538,3.538,0,0,1-3.539,3.539A3.538,3.538,0,0,1-462.456-3128.816Z" transform="translate(875 3368.631) rotate(-9)"/><text class="aa" transform="translate(-18.021 617)"><tspan x="-19.557" y="0">3449</tspan></text><text class="ab" transform="translate(-18.021 634)"><tspan x="-11.514" y="0">Post</tspan></text><text class="ab" transform="translate(57.979 634)"><tspan x="-24.894" y="0">Followers</tspan></text><text class="ab" transform="translate(138.979 632)"><tspan x="-24.126" y="0">following</tspan></text><text class="aa" transform="translate(57.979 617)"><tspan x="-13.482" y="0">18K</tspan></text><text class="aa" transform="translate(138.979 615)"><tspan x="-9.486" y="0">52</tspan></text></g><g transform="translate(-852.885 117.073) rotate(-13)"><circle class="ac" cx="45.611" cy="45.611" r="45.611" transform="translate(529.236 3739.132)"/><circle class="b" cx="37.68" cy="37.68" r="37.68" transform="translate(537.165 3747.062)"/><path class="ac" d="M.264,51.363A2.438,2.438,0,0,1,0,50.276a4.105,4.105,0,0,1,.121-1.115A22.992,22.992,0,0,1,13.769,31.732a15.962,15.962,0,1,1,18.009,0,22.73,22.73,0,0,1,13.6,18.728h-.02a2.457,2.457,0,0,1-2.445,2.284H2.578c-.071.006-.141.022-.214.022A2.279,2.279,0,0,1,.264,51.363Zm4.961-3.55H40.312A18.216,18.216,0,0,0,23.746,34.48c-.324.02-.648.033-.976.033s-.652-.013-.973-.032A18.22,18.22,0,0,0,5.225,47.813Zm6.139-29.259a11.4,11.4,0,1,0,22.8,0h0a11.4,11.4,0,0,0-22.8,0Zm32.054-7.594V7.122H39.591V3.835h3.827V0H46.7V3.835h3.828V7.124H46.7v3.837Z" transform="translate(551.232 3757.675)"/></g><g transform="translate(220.206 3426.191)"><path class="ad" d="M267.8,389.6a5.27,5.27,0,0,0-9.968-1.41,5.273,5.273,0,1,0-8.486,6l7.52,7.52a1.367,1.367,0,0,0,1.933,0l7.52-7.52A5.277,5.277,0,0,0,267.8,389.6Z" transform="translate(1.368 1.334)"/><path class="ad" d="M314.6,399.872a8.488,8.488,0,0,0,1.926-5.326c0-4.985-4.388-9.024-9.8-9.024s-9.8,4.039-9.8,9.024,4.389,9.022,9.8,9.022a10.39,10.39,0,0,0,4.235-.918l5.566,2.475Z" transform="translate(1.068 -0.35)"/><g transform="translate(344.772 386.506)"><path class="ad" d="M316.774,385.943l7.928,6.367,1.707,10.567,12.847-16.934Z" transform="translate(-316.774 -385.943)"/><line class="ad" y1="6.367" x2="14.553" transform="translate(7.928)"/></g></g><rect class="ae" width="280" height="94" transform="translate(420 3859)"/></g></svg>