<svg xmlns="http://www.w3.org/2000/svg" xmlns:xlink="http://www.w3.org/1999/xlink" width="88" height="95.737" viewBox="0 0 88 95.737"><defs><style>.a{fill:none;}.b{fill:#fff;}.c{opacity:0.24;}.d{clip-path:url(#c);}.e{fill:#ff668d;}.f{fill:#fe658b;}.g{filter:url(#a);}</style><filter id="a" x="0" y="0" width="88" height="95.737" filterUnits="userSpaceOnUse"><feOffset dx="3" dy="6" input="SourceAlpha"/><feGaussianBlur stdDeviation="4" result="b"/><feFlood flood-color="#cb345d" flood-opacity="0.361"/><feComposite operator="in" in2="b"/><feComposite in="SourceGraphic"/></filter><clipPath id="c"><rect class="a" width="34" height="44" transform="translate(0.114 0.462)"/></clipPath></defs><g transform="translate(4.592 27.73)"><g class="g" transform="matrix(1, 0, 0, 1, -4.59, -27.73)"><path class="b" d="M-595.858-3412.055l-3.755-7.067a32.01,32.01,0,0,1-26.98-31.608,32,32,0,0,1,32-32,32,32,0,0,1,32,32,32.009,32.009,0,0,1-25.877,31.414l-3.857,7.26a1.979,1.979,0,0,1-1.766,1.062A1.979,1.979,0,0,1-595.858-3412.055Z" transform="translate(635.59 3488.73)"/></g><g class="c" transform="translate(-1227.333 -514.551)"><g class="d" transform="translate(1246.628 502.359)"><path class="e" d="M1279.9,509.943c-7.062,0-14.381-6.546-14.453-6.612a1.276,1.276,0,0,0-1.715,0c-.072.066-7.372,6.612-14.453,6.612a1.276,1.276,0,0,0-1.276,1.276V526.5c0,12.378,9.207,17.325,16.132,19.969a1.279,1.279,0,0,0,.91,0c9.71-3.707,16.132-9.49,16.132-19.969v-15.28a1.276,1.276,0,0,0-1.276-1.276Zm0,0" transform="translate(-1247.473 -502.313)"/></g></g><path class="f" d="M986.3,732a9,9,0,1,0,9,9,9.01,9.01,0,0,0-9-9Zm3.48,8.623-3.857,3.857a1.285,1.285,0,0,1-1.818,0l-1.286-1.286a1.286,1.286,0,0,1,1.818-1.818l.376.377,2.948-2.948a1.286,1.286,0,1,1,1.818,1.818Zm0,0" transform="translate(-949.889 -730.73)"/></g></svg>