<svg xmlns="http://www.w3.org/2000/svg" xmlns:xlink="http://www.w3.org/1999/xlink" width="23.787" height="23.783" viewBox="0 0 23.787 23.783"><defs><radialGradient id="a" cx="0.529" cy="0.58" r="0.575" gradientTransform="matrix(1, -0.004, 0.004, 1, 0.013, 0.001)" gradientUnits="objectBoundingBox"><stop offset="0" stop-color="#f79f40"/><stop offset="0.163" stop-color="#f7a442"/><stop offset="0.371" stop-color="#f8b449"/><stop offset="0.601" stop-color="#f9ce55"/><stop offset="0.771" stop-color="#fbe660"/><stop offset="0.91" stop-color="#fbf36f"/><stop offset="0.932" stop-color="#fbf672"/><stop offset="0.947" stop-color="#fbf676"/><stop offset="0.962" stop-color="#fbf782"/><stop offset="0.978" stop-color="#fbf897"/><stop offset="0.994" stop-color="#fcfab4"/><stop offset="1" stop-color="#fdfbc2"/></radialGradient><clipPath id="b"><path d="M-317.253,282.485v-.03c0-.054.014-.382.075-.866,0-.042.011-.086.017-.129.008-.061.017-.124.027-.188a11.838,11.838,0,0,1,1.561-4.346l.006-.01c.086-.143.175-.284.267-.423v0a11.927,11.927,0,0,1,1.516-1.855,10.576,10.576,0,0,1,.876-.792c.191-.156.389-.306.591-.451l.03-.022.026-.018.1-.074c.13-.091.271-.185.424-.282h0l.017-.01c.074-.046.151-.093.232-.141l.109-.063.092-.054.074-.041a11.975,11.975,0,0,1,1.454-.692c.131-.053.231-.091.289-.113l.09-.032.088-.032.013,0,.02-.007.147-.049.021-.007.021-.006.1-.033.133-.041.115-.035.065-.018.019-.006.023-.007.037-.01.129-.035.107-.029.1-.026h0l.065-.016.124-.029.087-.019.119-.026.022,0,.089-.019.053-.01.065-.013.01,0,.022,0,.036-.007.1-.017.062-.011h0l.106-.017.092-.015.055-.008.083-.012.079-.011.133-.017.122-.015.04,0h.009l.113-.011.166-.015.114-.01.127-.008.134-.008.083,0,.074,0h.057l.063,0c.239-.007.478-.006.716,0l.152,0,.16.008.095.006c.078,0,.154.011.23.017l.08.007c.109.01.215.022.316.033l.146.018h-.01l.013,0,.03,0,.225.032.17.027c.129.022.232.04.3.054.344.067.685.15,1.022.247.2.056.379.112.6.19a11.9,11.9,0,0,1,2.629,1.294h0c.083.054.164.108.245.165l.031.022q.211.147.415.3l.033.025.013.009.01.008.017.013.012.01.112.088c.076.06.148.12.218.178l.118.1q.121.1.227.2l.01.009.009.009.051.046c.372.34.6.588.613.6.115.122.229.251.342.382.08.092.162.189.246.291l.018.021.013.017c.167.207.344.44.536.723l0,.006,0,.006.008.012c.088.129.178.273.269.425.079.13.158.259.227.37l.226.436c.075.141.146.278.21.4a8.688,8.688,0,0,1,.378.9v.006c.107.295.209.609.3.913l0,.01,0,.013a8.987,8.987,0,0,1,.246,1.057,10.851,10.851,0,0,1,.2,1.915,11.376,11.376,0,0,1-.112,1.885,11.463,11.463,0,0,1-.4,1.826,11.532,11.532,0,0,1-.686,1.738,7.533,7.533,0,0,1-.37.706c-.159.277-.335.552-.524.821l-.065.1a7.76,7.76,0,0,1-.69.89c-.169.185-.388.437-.564.616s-.411.408-.6.572h0c-.209.185-.3.261-.493.412-.239.192-.482.372-.728.538l0,0c-.08.054-.16.106-.241.157s-.189.118-.273.167l-.179.1-.033.019c-.074.042-.161.09-.257.142l-.063.034c-.287.152-.648.332-1.048.5-.088.035-.207.084-.349.138l-.12.047-.21.075-.146.05-.053.017-.01,0-.079.025-.133.042-.131.039-.012,0a11,11,0,0,1-1.465.327l-.045.008-.132.019-.013,0-.115.016-.261.032c-.118.012-.275.025-.394.036s-.242.017-.368.022h0l-.182.006c-.164,0-.382,0-.547,0s-.392-.016-.559-.023c-.357-.03-.832-.082-1.186-.138a9.031,9.031,0,0,1-.913-.19l-.213-.06c-.213-.06-.433-.125-.617-.178l-.216-.08q-.259-.089-.512-.188l-.086-.031c-.2-.074-.439-.187-.655-.293-.092-.044-.184-.09-.275-.136a8.147,8.147,0,0,1-.773-.435l-.023-.015q-.307-.19-.6-.4l-.127-.086-.216-.168-.172-.135-.328-.256a7.663,7.663,0,0,1-.68-.622l-.017-.016-.032-.034c-.172-.175-.368-.383-.6-.638l-.015-.017h0a10.553,10.553,0,0,1-1-1.345l-.01-.017c-.093-.147-.187-.3-.282-.469v0c-.04-.07-.081-.143-.121-.216-.056-.1-.11-.2-.154-.292l-.044-.09c-.079-.157-.156-.321-.231-.491-.1-.232-.205-.468-.276-.674h0c-.13-.347-.249-.716-.353-1.1-.066-.237-.124-.476-.163-.7-.049-.241-.091-.488-.125-.741-.009-.058-.016-.114-.023-.17q-.063-.513-.08-1.061l0-.038v-.025C-317.269,283.079-317.267,282.786-317.253,282.485Z" transform="translate(317.266 -271.158)" fill="none"/></clipPath><linearGradient id="c" x1="3.516" y1="-447.069" x2="4.525" y2="-447.069" gradientUnits="objectBoundingBox"><stop offset="0" stop-color="#19b79c"/><stop offset="0.405" stop-color="#1dbb9d"/><stop offset="0.825" stop-color="#29c7a2"/><stop offset="0.997" stop-color="#31cfa6"/></linearGradient><linearGradient id="d" x1="8.512" y1="-502.588" x2="9.52" y2="-502.588" xlink:href="#c"/><linearGradient id="e" x1="51.076" y1="-52.895" x2="51.272" y2="-52.214" gradientUnits="objectBoundingBox"><stop offset="0" stop-color="#fff"/><stop offset="0.173" stop-color="#fff" stop-opacity="0.773"/><stop offset="0.398" stop-color="#fff" stop-opacity="0.502"/><stop offset="0.601" stop-color="#fff" stop-opacity="0.286"/><stop offset="0.775" stop-color="#fff" stop-opacity="0.129"/><stop offset="0.913" stop-color="#fff" stop-opacity="0.035"/><stop offset="0.997" stop-color="#fff" stop-opacity="0"/></linearGradient><linearGradient id="f" x1="23.271" y1="124.947" x2="23.528" y2="126.029" gradientUnits="objectBoundingBox"><stop offset="0" stop-color="#fff9ff"/><stop offset="0.173" stop-color="#fff1e4" stop-opacity="0.773"/><stop offset="0.399" stop-color="#ffe8c5" stop-opacity="0.502"/><stop offset="0.603" stop-color="#ffe0ac" stop-opacity="0.286"/><stop offset="0.777" stop-color="#ffdb9a" stop-opacity="0.129"/><stop offset="0.915" stop-color="#ffd890" stop-opacity="0.035"/><stop offset="1" stop-color="#ffd78c" stop-opacity="0"/></linearGradient></defs><g transform="translate(0)"><g transform="translate(0 0)"><path d="M-293.5,282.389v-.03c0-.053-.017-.381-.082-.864-.006-.043-.012-.086-.018-.129-.008-.061-.018-.124-.029-.188a11.85,11.85,0,0,0-1.6-4.333l-.006-.009c-.088-.143-.177-.283-.271-.421h0a11.859,11.859,0,0,0-1.531-1.842,10.417,10.417,0,0,0-.882-.785c-.193-.154-.392-.3-.595-.446l-.029-.022-.027-.018-.1-.072c-.131-.09-.272-.183-.426-.278h0l-.017-.01c-.074-.046-.152-.092-.232-.139l-.11-.063-.093-.053-.074-.04a12,12,0,0,0-1.46-.681c-.131-.051-.231-.089-.29-.11l-.09-.031-.089-.032-.013,0-.02-.007-.147-.048-.021-.006-.021-.007-.1-.031-.134-.04-.115-.033-.065-.018-.019-.006-.024-.006-.037-.01-.128-.033-.108-.028-.1-.024h0l-.065-.015-.124-.029-.087-.019-.119-.025-.022,0-.09-.017-.053-.01-.065-.013h-.011l-.022,0-.036-.006-.1-.017-.062-.01h0l-.107-.017-.092-.014-.055-.008-.083-.011-.08-.01-.133-.016-.122-.014-.04,0h-.009l-.113-.01-.167-.013-.114-.009-.127-.008-.134-.007-.083,0-.074,0h-.12c-.239-.006-.478,0-.716.006l-.152.006-.16.009-.095.006c-.078,0-.154.012-.23.019l-.079.008c-.109.011-.215.023-.316.036l-.146.019.01,0-.012,0-.031,0c-.079.011-.154.022-.224.034l-.17.028c-.129.022-.231.042-.3.056-.344.07-.684.156-1.021.255-.2.057-.378.115-.6.195a11.9,11.9,0,0,0-2.618,1.315h0c-.081.054-.162.11-.243.166l-.031.023q-.21.148-.413.306l-.033.025-.013.009-.01.008-.016.012-.013.01-.111.089c-.075.06-.147.12-.217.18l-.117.1c-.079.07-.155.137-.225.2l-.01.009-.009.009-.05.046c-.369.343-.594.593-.608.609-.114.123-.227.253-.339.385-.079.093-.16.19-.243.294l-.018.021-.012.017c-.166.207-.341.442-.531.727l0,.006,0,.007-.008.012c-.086.129-.176.275-.266.427-.079.131-.156.26-.224.371l-.223.438c-.074.142-.143.28-.207.407a8.532,8.532,0,0,0-.371.9v.006c-.105.3-.2.611-.291.915l0,.011,0,.012a8.958,8.958,0,0,0-.238,1.059,10.83,10.83,0,0,0-.182,1.917,11.292,11.292,0,0,0,.127,1.884,11.452,11.452,0,0,0,.419,1.822,11.528,11.528,0,0,0,.7,1.732,7.766,7.766,0,0,0,.376.7c.161.275.34.549.531.817l.066.1a7.756,7.756,0,0,0,.7.885c.17.184.392.435.569.612s.415.4.607.567h0c.211.183.3.259.5.407.241.191.485.369.733.532l0,0c.081.053.161.1.241.155.1.06.191.117.275.165.045.026.108.062.18.1l.033.018c.074.042.161.089.259.14l.063.033c.288.149.651.327,1.052.488.088.035.207.083.35.136l.12.045.21.074.147.048.052.017.01,0,.079.025.134.04.131.038.011,0a11.037,11.037,0,0,0,1.468.315l.044.007.132.018.013,0,.115.015.262.029c.118.012.275.024.393.033s.242.015.369.019h0l.182.006c.164,0,.382,0,.547,0s.391-.019.559-.027c.357-.033.831-.089,1.184-.147a9.067,9.067,0,0,0,.912-.2c.068-.019.139-.04.212-.062.213-.062.432-.129.615-.184l.215-.081q.258-.091.51-.193l.085-.032c.2-.076.437-.191.653-.3q.138-.068.274-.138a8.106,8.106,0,0,0,.769-.442l.023-.015q.3-.193.6-.405l.126-.086.214-.17.172-.136.325-.259a7.7,7.7,0,0,0,.675-.627l.017-.016.032-.035c.17-.176.364-.385.59-.642l.015-.017h0a10.468,10.468,0,0,0,.99-1.353l.01-.017c.092-.147.185-.3.278-.471v0c.04-.071.079-.143.119-.218.056-.1.108-.2.152-.294l.043-.091q.116-.237.227-.492c.1-.232.2-.469.271-.676h0c.127-.348.243-.718.343-1.108.065-.237.12-.476.157-.7q.071-.361.12-.742c.008-.058.015-.113.022-.169q.058-.514.072-1.062l0-.038v-.025C-293.476,282.983-293.481,282.689-293.5,282.389Z" transform="translate(317.266 -271.158)" fill="url(#a)"/><g transform="translate(0 0)"><g clip-path="url(#b)"><g transform="translate(1.859 3.459)"><path d="M-303.517,290.353a6.819,6.819,0,0,1-2.057,1.515c-2.4-3.2-6.646-7.052-8.9-7.464.376-2.022,1.3-3.489,1.63-3.194a22.33,22.33,0,0,0,3.78,3.807,55.131,55.131,0,0,0,5.7,4.148c.538.434.118.887-.159,1.188" transform="translate(314.556 -277.667)" fill="#593d3d"/><path d="M-306.069,293.479c-4.372,1.689-9.222-1.58-8.441-7.66.985.137,2.18.848,4.123,2.456a28.825,28.825,0,0,1,4.776,5.009c-.137.058-.319.143-.458.2" transform="translate(314.593 -279.082)" fill="#fa605d"/><path d="M-305.055,279.565c-.882.606-1.757.577-3.872.507,0-.262-.013-.61,0-.871.111-2.645,2.52-3.513,3.316-2.865.192.286.147.564-.163,1.027,1.491-.332,1.86.674,1.38,1.513a2.092,2.092,0,0,1-.655.688" transform="translate(312.87 -276.132)" fill="#fa605d"/><path d="M-297.471,285.221c-.828,1-2.527.969-4.025.941-.111-.295-.261-.687-.369-.983-1.351-3.868,1.271-4.165,2.076-3.785a1.284,1.284,0,0,1,.707,1.444,1.428,1.428,0,0,1,1.447.05,1.644,1.644,0,0,1,.164,2.333" transform="translate(310.832 -277.697)" fill="#fa605d"/></g><g transform="translate(0.026 7.035)"><path d="M-284.394,281.5c-.026-.076-.056-.152-.088-.226Z" transform="translate(307.255 -281.274)" fill="url(#c)"/><path d="M-317.19,290.976c-.014-.069-.026-.136-.038-.2C-317.218,290.843-317.2,290.91-317.19,290.976Z" transform="translate(317.228 -284.168)" fill="url(#d)"/></g><g transform="translate(0.822 -0.789)" style="mix-blend-mode:screen;isolation:isolate"><path d="M-312.539,277.849c.276.025.563.065.859.111a4.172,4.172,0,0,0,3.761-1.878,1.536,1.536,0,0,0,.449-1.691c-.111-.58-.644-1.017-.209-1.622a2.329,2.329,0,0,1,1.659-.712l4.95-.68a10.2,10.2,0,0,0-11.233.716,10.2,10.2,0,0,0-3.369,10.74,7.657,7.657,0,0,1,.271-3.373A2.4,2.4,0,0,1-312.539,277.849Z" transform="translate(316.083 -270.023)" fill="url(#e)"/></g></g></g></g></g></svg>