<svg xmlns="http://www.w3.org/2000/svg" xmlns:xlink="http://www.w3.org/1999/xlink" width="55.641" height="55.632" viewBox="0 0 55.641 55.632"><defs><radialGradient id="a" cx="0.529" cy="0.58" r="0.575" gradientTransform="matrix(1, -0.004, 0.004, 1, 0.009, 0.001)" gradientUnits="objectBoundingBox"><stop offset="0" stop-color="#f79f40"/><stop offset="0.163" stop-color="#f7a442"/><stop offset="0.371" stop-color="#f8b449"/><stop offset="0.601" stop-color="#f9ce55"/><stop offset="0.771" stop-color="#fbe660"/><stop offset="0.91" stop-color="#fbf36f"/><stop offset="0.932" stop-color="#fbf672"/><stop offset="0.947" stop-color="#fbf676"/><stop offset="0.962" stop-color="#fbf782"/><stop offset="0.978" stop-color="#fbf897"/><stop offset="0.994" stop-color="#fcfab4"/><stop offset="1" stop-color="#fdfbc2"/></radialGradient><clipPath id="b"><path d="M-511.506,304.328l0-.07c0-.125.031-.892.175-2.024.011-.1.025-.2.039-.3.02-.143.041-.29.064-.442a27.689,27.689,0,0,1,3.652-10.165l.014-.022q.3-.5.625-.991l0,0a27.832,27.832,0,0,1,3.546-4.338,24.406,24.406,0,0,1,2.049-1.853q.673-.548,1.381-1.054l.07-.053.061-.042c.081-.058.161-.116.243-.172.3-.214.633-.433.991-.659h0l.039-.024c.173-.109.354-.218.541-.329.084-.051.17-.1.256-.15l.216-.125.174-.1a28.081,28.081,0,0,1,3.4-1.619c.3-.123.54-.212.677-.263l.211-.075.207-.075.031-.01.046-.016c.1-.036.24-.081.343-.116l.049-.015.049-.016.234-.075c.093-.03.218-.068.311-.1l.27-.08.152-.044.044-.013.054-.015.086-.024.3-.082.252-.065.239-.06.012,0,.151-.037.29-.068.2-.045.277-.061.05-.01.21-.043.124-.024.152-.03.024,0,.052-.01.085-.015.227-.041.144-.027h0l.249-.041.216-.035.127-.02.195-.028.187-.026c.1-.015.206-.027.309-.041l.285-.034.094-.012.021,0c.081-.009.172-.017.264-.027.13-.013.26-.023.389-.035l.267-.023c.1-.008.2-.013.3-.02l.314-.02.192-.008.174-.009c.044,0,.088,0,.132,0l.148,0q.838-.026,1.675,0c.125,0,.245.007.356.012s.25.01.374.017l.221.013c.182.012.36.025.537.041l.187.016c.256.023.5.05.738.079.115.013.228.028.343.042l-.024,0,.029,0,.071.01c.185.024.362.05.525.075.133.02.267.041.4.063.3.051.541.1.7.126q1.208.236,2.392.579c.472.129.888.26,1.4.444a27.785,27.785,0,0,1,6.15,3.026l0,0h0q.289.19.571.386l.074.052q.492.342.971.708l.078.058.029.021.024.02.038.029.029.023c.088.068.175.137.262.206.177.14.347.279.511.417l.277.234c.187.161.365.316.531.467l.025.021.021.021.118.107c.869.8,1.4,1.376,1.434,1.413.27.285.536.586.8.895.188.214.379.44.576.681l.042.049.029.039c.391.482.8,1.029,1.255,1.69l.01.014.01.015.019.028c.205.3.418.64.63.994.187.3.369.6.531.865l.529,1.02c.175.33.341.651.49.947a20.081,20.081,0,0,1,.886,2.111l0,.006,0,.008c.25.691.49,1.424.7,2.136l.008.024.008.03a21,21,0,0,1,.576,2.473,25.251,25.251,0,0,1,.46,4.478,26.468,26.468,0,0,1-.261,4.41,26.861,26.861,0,0,1-.947,4.27,27.029,27.029,0,0,1-1.6,4.066,18.072,18.072,0,0,1-.867,1.652c-.373.648-.785,1.29-1.225,1.922l-.153.234a18.44,18.44,0,0,1-1.613,2.083c-.4.432-.909,1.023-1.32,1.441s-.961.956-1.408,1.337h0c-.489.434-.693.611-1.153.962q-.838.676-1.7,1.257l-.006,0c-.188.126-.374.25-.563.368-.221.141-.443.277-.639.391-.1.061-.251.146-.418.241l-.077.043c-.174.1-.377.211-.6.333l-.148.079c-.67.357-1.516.778-2.451,1.161-.2.085-.482.2-.816.326l-.279.109-.491.175c-.1.036-.24.081-.343.116l-.122.039-.024.008-.184.06-.312.1-.306.09-.027.008a26.024,26.024,0,0,1-3.426.765l-.1.016c-.093.015-.2.03-.308.045l-.031,0-.268.037-.612.074c-.275.03-.643.06-.919.085-.255.023-.566.039-.861.052h-.013c-.148.007-.294.012-.424.016-.383.01-.895,0-1.277.006s-.917-.037-1.308-.053c-.835-.07-1.946-.192-2.773-.322a21.314,21.314,0,0,1-2.137-.444c-.159-.044-.326-.092-.5-.143-.5-.14-1.013-.293-1.442-.417l-.5-.185q-.605-.207-1.2-.441l-.2-.073c-.466-.175-1.027-.438-1.533-.685-.216-.1-.43-.21-.642-.32a19.01,19.01,0,0,1-1.808-1.016l-.055-.036c-.477-.3-.948-.608-1.412-.938-.1-.068-.2-.138-.3-.2l-.505-.394q-.2-.156-.4-.316l-.766-.6a18.266,18.266,0,0,1-1.59-1.456l-.041-.037-.075-.081c-.4-.408-.859-.894-1.391-1.489l-.036-.042,0,0a24.768,24.768,0,0,1-2.342-3.145l-.024-.038q-.325-.515-.658-1.1l0-.007,0,0c-.094-.165-.188-.333-.282-.506-.132-.236-.258-.471-.362-.683l-.1-.212q-.275-.551-.54-1.149c-.246-.541-.479-1.094-.644-1.576v0c-.3-.811-.582-1.674-.824-2.583-.155-.554-.29-1.113-.381-1.63q-.17-.843-.293-1.733c-.021-.136-.037-.267-.053-.4-.1-.8-.161-1.628-.188-2.481l-.006-.09v-.058C-511.543,305.718-511.538,305.031-511.506,304.328Z" transform="translate(511.536 -277.832)" fill="none"/></clipPath><linearGradient id="c" x1="2.635" y1="-316.934" x2="3.64" y2="-316.934" gradientUnits="objectBoundingBox"><stop offset="0" stop-color="#19b79c"/><stop offset="0.405" stop-color="#1dbb9d"/><stop offset="0.825" stop-color="#29c7a2"/><stop offset="0.997" stop-color="#31cfa6"/></linearGradient><linearGradient id="d" x1="6.51" y1="-356.555" x2="7.521" y2="-356.555" xlink:href="#c"/><linearGradient id="e" x1="34.151" y1="-36.433" x2="34.347" y2="-35.752" gradientUnits="objectBoundingBox"><stop offset="0" stop-color="#fff"/><stop offset="0.173" stop-color="#fff" stop-opacity="0.773"/><stop offset="0.398" stop-color="#fff" stop-opacity="0.502"/><stop offset="0.601" stop-color="#fff" stop-opacity="0.286"/><stop offset="0.775" stop-color="#fff" stop-opacity="0.129"/><stop offset="0.913" stop-color="#fff" stop-opacity="0.035"/><stop offset="0.997" stop-color="#fff" stop-opacity="0"/></linearGradient><linearGradient id="f" x1="15.389" y1="81.902" x2="15.646" y2="82.983" gradientUnits="objectBoundingBox"><stop offset="0" stop-color="#fff9ff"/><stop offset="0.173" stop-color="#fff1e4" stop-opacity="0.773"/><stop offset="0.399" stop-color="#ffe8c5" stop-opacity="0.502"/><stop offset="0.603" stop-color="#ffe0ac" stop-opacity="0.286"/><stop offset="0.777" stop-color="#ffdb9a" stop-opacity="0.129"/><stop offset="0.915" stop-color="#ffd890" stop-opacity="0.035"/><stop offset="1" stop-color="#ffd78c" stop-opacity="0"/></linearGradient></defs><g transform="translate(0)"><path d="M-455.937,304.1l0-.07c0-.126-.039-.892-.191-2.022-.013-.1-.028-.2-.042-.3-.021-.141-.044-.29-.068-.44a27.682,27.682,0,0,0-3.734-10.136l-.014-.021q-.306-.5-.633-.985l0,0a27.687,27.687,0,0,0-3.581-4.31,24.346,24.346,0,0,0-2.064-1.836c-.451-.363-.916-.708-1.39-1.043l-.07-.053-.063-.041c-.081-.057-.162-.115-.245-.17-.306-.211-.636-.428-1-.65l0,0-.039-.023q-.261-.16-.544-.326c-.085-.05-.172-.1-.257-.146s-.141-.082-.217-.124l-.174-.1a28.022,28.022,0,0,0-3.414-1.591c-.306-.121-.541-.207-.678-.257l-.212-.074-.209-.073-.031-.01-.046-.016c-.1-.035-.241-.079-.344-.112l-.048-.015-.05-.016-.234-.073-.313-.094-.27-.079-.152-.043-.044-.012-.055-.015-.087-.024-.3-.079-.252-.064-.24-.058-.01,0-.152-.036-.291-.066-.2-.044-.278-.058-.05-.01-.21-.042-.124-.023-.152-.029-.024,0-.052-.01-.086-.015-.226-.038-.145-.026h0c-.082-.014-.166-.026-.249-.038l-.216-.034-.129-.017-.194-.027-.187-.025-.311-.037-.285-.031-.1-.01-.021,0-.263-.024-.389-.032-.268-.021c-.1-.007-.2-.012-.3-.016s-.21-.013-.314-.017c-.065,0-.128,0-.192-.007l-.174-.008h-.133l-.147,0c-.56-.013-1.117-.007-1.675.014l-.357.015c-.124.007-.249.013-.373.021-.076,0-.155.009-.22.015-.183.013-.362.028-.538.044l-.185.017c-.256.027-.5.054-.738.085l-.342.045.024,0-.03,0-.07.01c-.185.027-.362.053-.525.08-.133.021-.267.043-.4.066-.3.053-.54.1-.7.132-.8.163-1.6.365-2.386.6-.471.133-.885.268-1.4.455a27.868,27.868,0,0,0-6.124,3.076l0,0,0,0q-.287.191-.568.389l-.074.053q-.489.346-.965.715c-.026.021-.051.039-.076.059l-.029.021-.025.021-.037.029-.029.023c-.087.068-.174.138-.26.209-.176.141-.345.283-.508.421l-.276.236q-.278.243-.527.472l-.024.021-.021.021-.117.108c-.864.8-1.39,1.387-1.423,1.424-.267.287-.531.591-.792.9-.185.217-.375.444-.57.687l-.042.049-.029.039c-.387.486-.8,1.036-1.241,1.7l-.01.014-.01.015-.018.028c-.2.3-.413.643-.622,1-.183.306-.364.61-.523.869l-.52,1.025c-.173.331-.336.654-.483.952a20.231,20.231,0,0,0-.868,2.117l0,.006,0,.008c-.245.692-.479,1.428-.679,2.141l-.008.026-.007.03a20.824,20.824,0,0,0-.556,2.477,25.283,25.283,0,0,0-.424,4.483,26.482,26.482,0,0,0,.3,4.408,26.7,26.7,0,0,0,.982,4.262,27.1,27.1,0,0,0,1.634,4.053,18.273,18.273,0,0,0,.88,1.645c.379.644.8,1.283,1.241,1.911l.155.232a18.214,18.214,0,0,0,1.63,2.07c.4.43.917,1.016,1.332,1.43s.968.948,1.419,1.326h0c.493.428.7.6,1.16.953q.843.668,1.714,1.244l.006,0c.189.125.377.247.566.364.224.139.445.274.642.386.105.06.253.144.421.238l.076.043c.175.1.379.207.605.327l.15.078c.672.351,1.522.765,2.461,1.142.2.082.483.194.818.319l.281.107.492.172c.1.035.241.079.344.112l.123.039.023.007.185.059.313.094.306.088.027.007a25.956,25.956,0,0,0,3.433.737l.1.016.308.043.031,0,.268.036.612.068c.276.028.644.054.92.078.256.021.567.035.861.045h.013c.15,0,.294.009.424.012.384.008.895,0,1.278,0s.916-.045,1.309-.065c.833-.076,1.944-.207,2.77-.344a21.16,21.16,0,0,0,2.133-.461c.159-.045.326-.094.5-.146.5-.144,1.009-.3,1.438-.429l.5-.19q.6-.212,1.195-.451l.2-.075c.465-.178,1.022-.445,1.527-.7q.322-.158.64-.324a19.381,19.381,0,0,0,1.8-1.031l.053-.037c.475-.3.943-.615,1.4-.948l.3-.2.5-.4q.2-.157.4-.319l.76-.6a17.825,17.825,0,0,0,1.578-1.467l.039-.038.075-.081c.4-.411.852-.9,1.379-1.5l.035-.042,0,0a24.69,24.69,0,0,0,2.317-3.164l.024-.039q.322-.516.649-1.1l0-.007,0,0q.139-.249.278-.509c.13-.239.254-.473.356-.686l.1-.213q.271-.553.531-1.152c.241-.544.471-1.1.633-1.581v0c.3-.815.568-1.679.8-2.59.151-.556.282-1.115.369-1.633.109-.562.2-1.142.279-1.735.02-.136.035-.267.05-.4q.137-1.2.168-2.484l0-.089v-.059C-455.888,305.492-455.9,304.806-455.937,304.1Z" transform="translate(511.536 -277.832)" fill="url(#a)"/><g transform="translate(0 0)"><g clip-path="url(#b)"><g transform="translate(0.061 16.456)"><path d="M-465.315,292.561c-.063-.178-.131-.356-.208-.53Z" transform="translate(518.79 -292.031)" fill="url(#c)"/><path d="M-511.394,305.837c-.031-.162-.061-.32-.089-.471C-511.459,305.525-511.429,305.682-511.394,305.837Z" transform="translate(511.483 -289.911)" fill="url(#d)"/></g><path d="M-463.618,298.408a18.653,18.653,0,0,1,1,6.177c-2.619,1.612-19.667,14.139-23.726,17.364-1.188-.735-6.977-5.046-4.023-6.461a61.439,61.439,0,0,0,15.58-8.23c4.681-3.444,7.967-7.027,9.709-10.278.637-.87,1.231.8,1.455,1.428" transform="translate(514.77 -274.827)" fill="#593d3d"/><path d="M-463.33,304.789c-.868,12.087-12.189,22.083-23.675,16.083,3.067-2.457,3.856-3.034,13.517-10.091,8.637-6.33,8.637-6.33,10.208-7.273-.015.385-.023.9-.051,1.281" transform="translate(515.436 -273.75)" fill="#fa605d"/><path d="M-481.517,299.315c1.448,3.228-1.081,7.466-2.593,10-.756-.1-1.763-.224-2.516-.338-8.892-1.408-8.279-7.329-6.075-8.979.158-.118.4-.233.566-.333a3.5,3.5,0,0,1,3.534.6c.167-4.07,4.072-4.427,6.158-2.316a5.2,5.2,0,0,1,.927,1.369" transform="translate(514.309 -274.836)" fill="#fa605d"/><path d="M-473.271,290.456c2.662,2.979,1.941,7.621,1.633,9.6-.591.049-1.379.114-1.97.16-9.015.557-9.366-5.776-7.659-7.431.726-.7,1.8-.821,3.179-.348-.6-1.4-.632-2.238-.114-3.1,1.729-1.676,4.145.236,4.93,1.115" transform="translate(516.22 -276.108)" fill="#fa605d"/><g transform="translate(-2.233 -3.607)" style="mix-blend-mode:screen;isolation:isolate"><path d="M-503.841,295.967c.749.067,1.529.177,2.332.3,4.178.639,7.745-2,10.208-5.1,1.485-1.871,1.66-2.266,1.218-4.592-.3-1.574-1.749-2.76-.568-4.4.981-1.365,2.835-1.7,4.5-1.932l13.44-1.846a27.692,27.692,0,0,0-30.494,1.944,27.694,27.694,0,0,0-9.146,29.156c-.212-3.082-.408-6.286.736-9.156C-509.975,296.224-507.208,295.665-503.841,295.967Z" transform="translate(513.462 -274.72)" fill="url(#e)"/></g></g></g></g></svg>