<svg xmlns="http://www.w3.org/2000/svg" xmlns:xlink="http://www.w3.org/1999/xlink" width="115.61" height="115.592" viewBox="0 0 115.61 115.592"><defs><style>.a{fill:none;}.b{fill:url(#a);}.c{clip-path:url(#b);}.d{fill:url(#c);}.e{fill:url(#d);}.f{fill:#593d3d;}.g{fill:#fa605d;}.h{fill:#e68623;opacity:0.8;mix-blend-mode:multiply;}.h,.i,.l{isolation:isolate;}.i,.l{mix-blend-mode:screen;}.j{fill:url(#e);}.k{fill:url(#f);}.l{fill:#606060;opacity:0.7;}</style><radialGradient id="a" cx="0.529" cy="0.58" r="0.575" gradientTransform="matrix(1, -0.004, 0.004, 1, 0.009, 0.001)" gradientUnits="objectBoundingBox"><stop offset="0" stop-color="#f79f40"/><stop offset="0.163" stop-color="#f7a442"/><stop offset="0.371" stop-color="#f8b449"/><stop offset="0.601" stop-color="#f9ce55"/><stop offset="0.771" stop-color="#fbe660"/><stop offset="0.91" stop-color="#fbf36f"/><stop offset="0.932" stop-color="#fbf672"/><stop offset="0.947" stop-color="#fbf676"/><stop offset="0.962" stop-color="#fbf782"/><stop offset="0.978" stop-color="#fbf897"/><stop offset="0.994" stop-color="#fcfab4"/><stop offset="1" stop-color="#fdfbc2"/></radialGradient><clipPath id="b"><path class="a" d="M-511.474,332.884l0-.145c.007-.26.065-1.854.364-4.2.024-.209.053-.417.082-.626.041-.3.084-.6.132-.918A57.533,57.533,0,0,1-503.3,305.87l.029-.046q.629-1.044,1.3-2.059l0-.007a57.832,57.832,0,0,1,7.369-9.014,50.725,50.725,0,0,1,4.258-3.851q1.4-1.138,2.87-2.189l.145-.111.128-.087c.168-.12.335-.241.506-.356.633-.445,1.315-.9,2.059-1.37l0,0,.082-.051c.359-.226.734-.453,1.125-.684.176-.106.354-.207.532-.311.152-.087.291-.171.448-.26l.361-.2a58.356,58.356,0,0,1,7.066-3.364c.633-.255,1.122-.441,1.406-.547l.438-.156.431-.157.065-.022.1-.034c.214-.075.5-.169.713-.241l.1-.031.1-.034.487-.157c.193-.063.453-.142.645-.2l.561-.166c.1-.031.209-.06.315-.091l.091-.026.113-.031.178-.051.624-.171c.157-.041.349-.092.523-.135s.33-.084.5-.125l.024-.007c.1-.024.21-.051.313-.077l.6-.142.424-.094c.193-.043.383-.087.576-.128l.1-.022.436-.089.258-.051.316-.063.051-.01.108-.022.176-.031c.156-.029.313-.058.472-.084l.3-.055h.007l.518-.084.448-.072c.079-.014.178-.026.265-.041l.4-.058.388-.053c.214-.031.429-.055.643-.084l.592-.07.195-.024.043,0c.169-.019.356-.036.549-.055.27-.027.539-.048.809-.072l.554-.048c.209-.017.412-.026.619-.041s.436-.029.653-.041c.135-.007.265-.01.4-.017l.361-.019c.091,0,.183,0,.275,0s.207-.007.308-.01q1.741-.054,3.48,0c.26.007.508.015.739.024.26.012.52.022.778.036.159.01.323.017.46.027.378.024.749.053,1.115.084l.388.034c.532.048,1.045.1,1.534.164.238.026.474.058.713.087l-.051-.007.06.01.147.022c.385.051.751.1,1.091.157.277.041.554.084.829.13.628.106,1.124.2,1.459.263q2.511.491,4.97,1.2c.98.267,1.845.539,2.919.922a57.728,57.728,0,0,1,12.778,6.288l.007,0,0,0q.6.394,1.187.8c.051.034.1.072.154.108q1.022.712,2.018,1.471c.053.041.106.079.161.12l.06.043.051.041.079.06.06.048c.183.142.364.284.544.429.369.291.72.58,1.062.867.193.161.383.323.576.486.388.335.759.657,1.1.971l.053.043.043.043c.082.072.164.147.246.221,1.806,1.652,2.909,2.859,2.979,2.936.561.592,1.113,1.218,1.662,1.859.39.446.787.915,1.2,1.416l.087.1.06.082c.812,1,1.671,2.138,2.608,3.511l.022.029.022.031.039.058c.426.626.869,1.329,1.31,2.066.388.631.766,1.257,1.1,1.8l1.1,2.119c.364.686.708,1.353,1.019,1.967a41.741,41.741,0,0,1,1.84,4.385l0,.012,0,.017c.52,1.435,1.019,2.96,1.447,4.438l.017.051.017.063a43.63,43.63,0,0,1,1.2,5.139,52.468,52.468,0,0,1,.956,9.305,55,55,0,0,1-.542,9.163,55.809,55.809,0,0,1-1.967,8.872,56.144,56.144,0,0,1-3.328,8.448,37.548,37.548,0,0,1-1.8,3.432c-.776,1.346-1.63,2.68-2.545,3.993-.1.159-.207.316-.318.486a38.317,38.317,0,0,1-3.352,4.327c-.821.9-1.888,2.126-2.743,2.993s-2,1.987-2.926,2.779h0c-1.016.9-1.44,1.269-2.4,2q-1.741,1.405-3.54,2.613l-.012.01c-.39.262-.778.52-1.17.766-.46.294-.92.576-1.327.812-.217.128-.522.3-.869.5l-.159.089c-.361.207-.783.438-1.252.691-.1.055-.2.111-.308.164-1.392.742-3.15,1.616-5.093,2.413-.424.176-1,.409-1.7.677-.2.075-.395.154-.58.226l-1.021.364c-.212.075-.5.169-.713.241l-.253.082-.05.017-.383.125-.648.2-.636.188-.055.017a54.093,54.093,0,0,1-7.118,1.589l-.217.034c-.193.031-.416.063-.64.094l-.065.01c-.195.027-.39.055-.556.077l-1.272.154c-.571.063-1.337.125-1.91.176-.53.048-1.175.082-1.789.108h-.027c-.308.014-.612.024-.881.034-.795.022-1.859.01-2.654.012-.816,0-1.9-.077-2.719-.111-1.734-.144-4.043-.4-5.763-.67a44.272,44.272,0,0,1-4.441-.922c-.33-.092-.677-.19-1.033-.3-1.033-.291-2.1-.609-3-.867l-1.048-.385q-1.257-.43-2.488-.917l-.417-.152c-.968-.364-2.134-.91-3.186-1.423-.448-.217-.893-.436-1.334-.665a39.513,39.513,0,0,1-3.757-2.112l-.113-.075c-.992-.619-1.97-1.264-2.933-1.948-.207-.142-.422-.287-.614-.414l-1.05-.819q-.423-.325-.838-.657l-1.592-1.24a37.955,37.955,0,0,1-3.3-3.025l-.084-.077-.156-.169c-.833-.848-1.785-1.857-2.89-3.094l-.075-.087,0,0a51.48,51.48,0,0,1-4.867-6.536l-.05-.079q-.676-1.069-1.368-2.278l-.01-.014.007.01c-.195-.342-.39-.691-.585-1.052-.274-.491-.537-.978-.751-1.418-.07-.142-.142-.294-.214-.441q-.571-1.145-1.122-2.386c-.51-1.125-.995-2.273-1.339-3.275l0-.007c-.631-1.686-1.209-3.477-1.712-5.368-.323-1.151-.6-2.312-.792-3.386q-.354-1.752-.609-3.6c-.043-.282-.077-.554-.111-.824-.2-1.662-.335-3.383-.39-5.156l-.012-.188,0-.12C-511.551,335.774-511.541,334.346-511.474,332.884Z" transform="translate(511.536 -277.832)"/></clipPath><linearGradient id="c" x1="2.635" y1="-316.934" x2="3.64" y2="-316.934" gradientUnits="objectBoundingBox"><stop offset="0" stop-color="#19b79c"/><stop offset="0.405" stop-color="#1dbb9d"/><stop offset="0.825" stop-color="#29c7a2"/><stop offset="0.997" stop-color="#31cfa6"/></linearGradient><linearGradient id="d" x1="6.51" y1="-356.555" x2="7.521" y2="-356.555" xlink:href="#c"/><linearGradient id="e" x1="34.151" y1="-36.433" x2="34.347" y2="-35.752" gradientUnits="objectBoundingBox"><stop offset="0" stop-color="#fff"/><stop offset="0.173" stop-color="#fff" stop-opacity="0.773"/><stop offset="0.398" stop-color="#fff" stop-opacity="0.502"/><stop offset="0.601" stop-color="#fff" stop-opacity="0.286"/><stop offset="0.775" stop-color="#fff" stop-opacity="0.129"/><stop offset="0.913" stop-color="#fff" stop-opacity="0.035"/><stop offset="0.997" stop-color="#fff" stop-opacity="0"/></linearGradient><linearGradient id="f" x1="15.389" y1="81.902" x2="15.646" y2="82.983" gradientUnits="objectBoundingBox"><stop offset="0" stop-color="#fff9ff"/><stop offset="0.173" stop-color="#fff1e4" stop-opacity="0.773"/><stop offset="0.399" stop-color="#ffe8c5" stop-opacity="0.502"/><stop offset="0.603" stop-color="#ffe0ac" stop-opacity="0.286"/><stop offset="0.777" stop-color="#ffdb9a" stop-opacity="0.129"/><stop offset="0.915" stop-color="#ffd890" stop-opacity="0.035"/><stop offset="1" stop-color="#ffd78c" stop-opacity="0"/></linearGradient></defs><g transform="translate(0)"><path class="b" d="M-396.013,332.417l0-.145c-.01-.262-.082-1.854-.4-4.2-.026-.21-.058-.417-.087-.626-.043-.294-.092-.6-.142-.915a57.516,57.516,0,0,0-7.759-21.062l-.029-.043q-.636-1.04-1.315-2.047l0-.007a57.529,57.529,0,0,0-7.441-8.956,50.593,50.593,0,0,0-4.289-3.814c-.937-.754-1.9-1.471-2.887-2.167l-.144-.111-.13-.084c-.169-.118-.337-.238-.508-.354-.636-.438-1.322-.889-2.071-1.351l0,0-.082-.048q-.542-.332-1.129-.677c-.176-.1-.356-.2-.535-.3-.152-.087-.294-.171-.45-.258-.123-.067-.241-.13-.361-.2a58.23,58.23,0,0,0-7.094-3.306c-.636-.25-1.125-.431-1.409-.535l-.44-.154-.434-.152-.065-.022-.1-.034c-.214-.072-.5-.164-.715-.234l-.1-.031-.1-.034-.486-.152c-.2-.06-.455-.137-.65-.2l-.561-.164c-.1-.029-.21-.058-.315-.089l-.091-.024-.113-.031-.181-.051-.624-.164c-.156-.041-.352-.089-.523-.132s-.332-.082-.5-.12l-.022-.007c-.106-.024-.212-.048-.315-.075l-.6-.137-.424-.091c-.193-.041-.385-.082-.578-.12l-.1-.022-.436-.087-.258-.048-.316-.06-.051-.007-.108-.022-.178-.031-.47-.079-.3-.053h-.007c-.171-.029-.344-.053-.518-.08l-.448-.07c-.08-.012-.178-.024-.267-.036-.135-.019-.267-.039-.4-.055l-.388-.053-.646-.077-.592-.065-.2-.022-.043,0c-.169-.017-.354-.034-.547-.051-.27-.024-.539-.046-.809-.067-.2-.015-.385-.029-.556-.043-.209-.014-.412-.024-.619-.034s-.436-.027-.653-.036c-.135-.007-.265-.01-.4-.014l-.361-.017c-.091,0-.183,0-.277,0l-.306-.007c-1.163-.026-2.322-.014-3.48.029-.26.01-.508.022-.742.031-.258.014-.518.027-.775.043-.159.01-.323.019-.458.031-.38.026-.751.058-1.117.092l-.385.036c-.532.055-1.045.113-1.534.176l-.71.094.051-.007-.063.01-.145.022c-.385.055-.751.111-1.091.166-.277.043-.554.089-.828.137-.626.111-1.122.207-1.457.274-1.671.34-3.323.759-4.958,1.243-.978.277-1.84.556-2.914.946a57.9,57.9,0,0,0-12.725,6.391l-.007,0,0,0q-.6.4-1.18.809l-.154.111q-1.015.719-2.006,1.486c-.053.043-.106.082-.159.123l-.06.043-.053.043-.077.06-.06.048c-.181.142-.361.287-.539.434-.366.294-.718.588-1.055.874-.193.164-.383.328-.573.491q-.578.506-1.1.98l-.051.043-.043.043-.243.224c-1.794,1.666-2.887,2.883-2.957,2.96-.554.6-1.1,1.228-1.645,1.871-.385.45-.78.922-1.185,1.428l-.087.1-.06.082c-.8,1.009-1.652,2.153-2.579,3.533l-.022.029-.022.031-.038.058c-.422.631-.857,1.337-1.293,2.076-.38.636-.756,1.267-1.086,1.806l-1.081,2.129c-.359.689-.7,1.358-1,1.977a42.06,42.06,0,0,0-1.8,4.4l0,.012,0,.017c-.508,1.438-.995,2.967-1.411,4.448l-.017.053-.014.063a43.215,43.215,0,0,0-1.156,5.146,52.532,52.532,0,0,0-.881,9.315,55.038,55.038,0,0,0,.616,9.158,55.466,55.466,0,0,0,2.04,8.855,56.29,56.29,0,0,0,3.4,8.421,37.9,37.9,0,0,0,1.828,3.417c.787,1.339,1.652,2.666,2.579,3.971l.323.482a37.854,37.854,0,0,0,3.386,4.3c.828.893,1.9,2.112,2.767,2.972s2.011,1.97,2.948,2.755l0,0c1.023.889,1.45,1.257,2.411,1.98q1.752,1.387,3.562,2.584l.012.007c.393.26.783.513,1.175.756.465.289.925.568,1.334.8.219.125.525.3.874.494l.159.089c.364.2.788.431,1.257.679.1.055.207.108.311.161,1.4.73,3.162,1.589,5.113,2.372.424.171,1,.4,1.7.662l.583.222,1.023.357c.214.072.5.164.715.233l.255.082.048.015.385.123c.2.058.455.135.65.2l.636.183.055.014a53.942,53.942,0,0,0,7.133,1.532l.217.034c.193.029.417.058.641.089l.065.007.556.075,1.272.142c.573.058,1.339.113,1.912.161.532.043,1.178.072,1.789.094h.026c.311.01.612.019.881.024.8.017,1.859,0,2.656-.007.816,0,1.9-.094,2.719-.135,1.731-.159,4.038-.431,5.755-.715a43.959,43.959,0,0,0,4.431-.958c.33-.094.677-.2,1.033-.3,1.031-.3,2.1-.626,2.988-.891l1.043-.4q1.257-.441,2.483-.937l.414-.157c.966-.371,2.124-.925,3.174-1.447q.668-.329,1.329-.674a40.267,40.267,0,0,0,3.74-2.143l.111-.077c.987-.626,1.96-1.279,2.916-1.97.209-.144.421-.291.614-.421l1.043-.828q.419-.325.833-.662l1.58-1.255a37.038,37.038,0,0,0,3.28-3.049l.082-.08.156-.168c.826-.855,1.77-1.871,2.866-3.119l.072-.087,0,0a51.3,51.3,0,0,0,4.814-6.574l.051-.082q.668-1.073,1.348-2.288l.01-.014-.007.01q.289-.517.578-1.057c.27-.5.527-.983.739-1.426.068-.142.14-.294.21-.443q.563-1.149,1.1-2.394c.5-1.129.978-2.28,1.315-3.285l0-.007c.617-1.693,1.18-3.489,1.666-5.382.313-1.156.585-2.317.766-3.393.226-1.168.421-2.372.58-3.605.041-.282.072-.554.1-.824q.285-2.5.349-5.161l.01-.185,0-.123C-395.912,335.3-395.934,333.879-396.013,332.417Z" transform="translate(511.536 -277.832)"/><g transform="translate(0 0)"><g class="c"><g transform="translate(0.127 34.193)"><path class="d" d="M-465.091,293.131c-.13-.371-.272-.739-.431-1.1C-465.385,292.38-465.24,292.751-465.091,293.131Z" transform="translate(576.203 -292.031)"/><path class="e" d="M-511.3,306.345c-.065-.337-.128-.665-.185-.978C-511.432,305.694-511.37,306.022-511.3,306.345Z" transform="translate(511.483 -273.252)"/></g><path class="f" d="M-433.9,300.212a38.759,38.759,0,0,1,2.088,12.835c-5.443,3.35-40.864,29.377-49.3,36.079-2.468-1.527-14.5-10.485-8.359-13.425a127.657,127.657,0,0,0,32.373-17.1c9.726-7.157,16.553-14.6,20.173-21.355,1.324-1.809,2.558,1.662,3.022,2.967" transform="translate(540.182 -251.216)"/><path class="g" d="M-437.814,306.169c-1.8,25.114-25.326,45.885-49.191,33.418,6.372-5.105,8.012-6.3,28.086-20.968,17.945-13.153,17.945-13.153,21.211-15.111-.031.8-.048,1.864-.106,2.661" transform="translate(546.078 -241.677)"/><path class="g" d="M-467.962,302.16c3.008,6.707-2.247,15.513-5.387,20.777-1.57-.207-3.663-.465-5.228-.7-18.475-2.926-17.2-15.229-12.624-18.656.328-.246.824-.484,1.175-.691,2.661-.934,4.65-.6,7.342,1.24.347-8.457,8.46-9.2,12.794-4.811a10.811,10.811,0,0,1,1.927,2.844" transform="translate(536.097 -251.298)"/><path class="g" d="M-463.785,292.375c5.531,6.189,4.033,15.836,3.393,19.956-1.228.1-2.866.236-4.094.332-18.731,1.158-19.46-12-15.913-15.441,1.507-1.462,3.73-1.7,6.605-.722-1.247-2.9-1.312-4.65-.236-6.442,3.593-3.482,8.611.491,10.244,2.317" transform="translate(553.025 -262.563)"/><g class="i" transform="translate(-4.639 -7.495)"><path class="j" d="M-493.472,318.866c1.556.14,3.176.368,4.845.624,8.681,1.327,16.093-4.152,21.211-10.6,3.085-3.887,3.448-4.708,2.531-9.541-.624-3.27-3.634-5.734-1.18-9.151,2.037-2.837,5.89-3.54,9.351-4.014l27.925-3.836c-19.321-11.528-45.663-9.847-63.361,4.038s-25.6,39.072-19,60.579c-.441-6.4-.848-13.062,1.529-19.024C-506.216,319.4-500.468,318.24-493.472,318.866Z" transform="translate(513.462 -274.72)"/></g></g></g></g></svg>