<svg xmlns="http://www.w3.org/2000/svg" xmlns:xlink="http://www.w3.org/1999/xlink" width="49.424" height="49.417" viewBox="0 0 49.424 49.417"><defs><style>.a{fill:none;}.b{fill:url(#a);}.c{clip-path:url(#b);}.d{fill:#593d3d;}.e{fill:#fa605d;}.f{fill:url(#c);}.g{fill:url(#d);}.h{fill:#e68623;opacity:0.8;mix-blend-mode:multiply;}.h,.i,.l{isolation:isolate;}.i,.l{mix-blend-mode:screen;}.j{fill:url(#e);}.k{fill:url(#f);}.l{fill:#606060;opacity:0.7;}</style><radialGradient id="a" cx="0.529" cy="0.58" r="0.575" gradientTransform="matrix(1, -0.004, 0.004, 1, 0.013, 0.001)" gradientUnits="objectBoundingBox"><stop offset="0" stop-color="#f79f40"/><stop offset="0.163" stop-color="#f7a442"/><stop offset="0.371" stop-color="#f8b449"/><stop offset="0.601" stop-color="#f9ce55"/><stop offset="0.771" stop-color="#fbe660"/><stop offset="0.91" stop-color="#fbf36f"/><stop offset="0.932" stop-color="#fbf672"/><stop offset="0.947" stop-color="#fbf676"/><stop offset="0.962" stop-color="#fbf782"/><stop offset="0.978" stop-color="#fbf897"/><stop offset="0.994" stop-color="#fcfab4"/><stop offset="1" stop-color="#fdfbc2"/></radialGradient><clipPath id="b"><path class="a" d="M-317.239,294.694l0-.062c0-.113.029-.793.156-1.8.01-.088.023-.178.035-.267.017-.126.036-.257.056-.392a24.6,24.6,0,0,1,3.244-9.03l.013-.02c.178-.3.364-.59.555-.879v0a24.782,24.782,0,0,1,3.15-3.854,21.96,21.96,0,0,1,1.821-1.646c.4-.324.808-.636,1.227-.936l.062-.046.055-.038.215-.153c.27-.189.562-.384.881-.585h0l.035-.022c.153-.1.314-.194.481-.292.075-.045.152-.088.227-.132s.126-.075.192-.113l.153-.085a24.871,24.871,0,0,1,3.021-1.438c.272-.11.48-.189.6-.234l.188-.066.183-.066.027-.01.042-.015c.091-.032.214-.072.3-.1l.043-.014.043-.013.207-.068.277-.085.238-.072.136-.038.039-.012.048-.014.077-.022.267-.072c.066-.019.149-.039.222-.059l.212-.053h.01l.134-.033.257-.061.181-.04.247-.055.045-.009.185-.039.11-.022.136-.026.022,0,.046-.009.075-.014.2-.036.129-.023h0l.221-.036.191-.032.114-.016.173-.025.165-.023.276-.036.253-.03.084-.01h.019c.071-.009.152-.016.234-.023.114-.012.23-.022.345-.032l.237-.022.264-.016c.094-.006.186-.013.279-.017.058,0,.114,0,.172-.007l.153-.009.119,0,.131,0c.5-.014.993-.013,1.487,0l.316.01.332.016.2.012c.162.01.321.023.477.036l.166.014c.227.02.447.045.656.069l.3.038-.022,0,.027,0,.062.009c.165.022.321.045.467.066.118.019.236.036.354.056.269.045.481.084.624.113.715.139,1.423.312,2.124.513.419.116.788.233,1.248.395A24.724,24.724,0,0,1-279,275.207h0c.172.113.341.225.509.342l.065.046q.438.306.863.629l.069.052.026.019.022.017.035.026.025.02c.078.061.156.121.233.183.158.124.308.249.454.37l.246.208q.251.215.473.415l.022.019.019.019.105.1c.773.707,1.244,1.221,1.273,1.254.24.254.477.522.711.795.166.191.337.392.511.605l.038.043.026.035c.347.429.714.915,1.114,1.5l.01.013.009.013.017.025c.182.267.37.568.559.883.165.27.328.539.471.769l.47.906c.156.293.3.578.436.841a18.04,18.04,0,0,1,.786,1.876v0l0,.007c.223.613.435,1.266.618,1.9l.007.022.007.026a18.677,18.677,0,0,1,.511,2.2,22.551,22.551,0,0,1,.409,3.979,23.633,23.633,0,0,1-.233,3.917,23.815,23.815,0,0,1-.84,3.793,23.964,23.964,0,0,1-1.425,3.611,15.661,15.661,0,0,1-.769,1.467c-.331.575-.7,1.146-1.088,1.707l-.136.208a16.131,16.131,0,0,1-1.433,1.85c-.351.384-.806.909-1.172,1.28s-.854.848-1.251,1.188h0c-.435.384-.616.543-1.025.855-.5.4-1,.773-1.513,1.117l-.006,0c-.166.111-.332.221-.5.327-.2.126-.393.246-.566.347-.094.055-.224.13-.373.214l-.068.039c-.155.087-.334.186-.535.295-.045.023-.088.048-.132.071-.6.316-1.347.689-2.178,1.032-.182.074-.429.175-.725.288-.082.033-.169.066-.248.1l-.436.156-.3.1-.11.035-.02.007-.165.052-.276.087-.272.081-.025.006a22.856,22.856,0,0,1-3.043.679l-.092.016c-.082.013-.178.026-.275.039l-.028,0-.238.033-.542.066c-.246.026-.572.052-.818.075-.227.02-.5.035-.764.045h-.01c-.133.006-.262.01-.377.013-.341.01-.795,0-1.136.006s-.814-.033-1.162-.048c-.741-.062-1.728-.171-2.464-.286a18.8,18.8,0,0,1-1.9-.395c-.142-.039-.29-.081-.442-.126-.442-.124-.9-.26-1.282-.37l-.448-.166q-.538-.184-1.063-.392l-.178-.065c-.413-.155-.912-.389-1.361-.608-.192-.092-.381-.186-.571-.283a16.932,16.932,0,0,1-1.607-.9l-.048-.032q-.637-.395-1.254-.832c-.088-.061-.181-.123-.263-.178l-.448-.35c-.12-.092-.24-.186-.358-.28l-.681-.532a15.93,15.93,0,0,1-1.413-1.292l-.035-.033-.066-.071c-.357-.363-.764-.795-1.237-1.325l-.032-.036h0a21.941,21.941,0,0,1-2.081-2.795l-.022-.035c-.192-.3-.389-.629-.585-.974l0-.006,0,0c-.084-.146-.168-.3-.251-.449-.117-.211-.228-.419-.321-.607l-.091-.188c-.163-.327-.324-.668-.48-1.02-.218-.481-.426-.972-.574-1.4v0c-.27-.721-.517-1.487-.733-2.295-.137-.493-.257-.988-.338-1.448-.1-.5-.189-1.013-.26-1.539-.019-.121-.033-.237-.048-.353q-.13-1.066-.166-2.205l-.006-.079v-.052C-317.272,295.928-317.268,295.318-317.239,294.694Z" transform="translate(317.266 -271.158)"/></clipPath><linearGradient id="c" x1="3.516" y1="-447.069" x2="4.525" y2="-447.069" gradientUnits="objectBoundingBox"><stop offset="0" stop-color="#19b79c"/><stop offset="0.405" stop-color="#1dbb9d"/><stop offset="0.825" stop-color="#29c7a2"/><stop offset="0.997" stop-color="#31cfa6"/></linearGradient><linearGradient id="d" x1="8.512" y1="-502.588" x2="9.52" y2="-502.588" xlink:href="#c"/><linearGradient id="e" x1="51.076" y1="-52.895" x2="51.272" y2="-52.214" gradientUnits="objectBoundingBox"><stop offset="0" stop-color="#fff"/><stop offset="0.173" stop-color="#fff" stop-opacity="0.773"/><stop offset="0.398" stop-color="#fff" stop-opacity="0.502"/><stop offset="0.601" stop-color="#fff" stop-opacity="0.286"/><stop offset="0.775" stop-color="#fff" stop-opacity="0.129"/><stop offset="0.913" stop-color="#fff" stop-opacity="0.035"/><stop offset="0.997" stop-color="#fff" stop-opacity="0"/></linearGradient><linearGradient id="f" x1="23.271" y1="124.947" x2="23.528" y2="126.029" gradientUnits="objectBoundingBox"><stop offset="0" stop-color="#fff9ff"/><stop offset="0.173" stop-color="#fff1e4" stop-opacity="0.773"/><stop offset="0.399" stop-color="#ffe8c5" stop-opacity="0.502"/><stop offset="0.603" stop-color="#ffe0ac" stop-opacity="0.286"/><stop offset="0.777" stop-color="#ffdb9a" stop-opacity="0.129"/><stop offset="0.915" stop-color="#ffd890" stop-opacity="0.035"/><stop offset="1" stop-color="#ffd78c" stop-opacity="0"/></linearGradient></defs><g transform="translate(0 0)"><path class="b" d="M-267.88,294.493v-.062c0-.111-.035-.792-.171-1.8-.012-.09-.025-.178-.038-.267-.017-.126-.038-.257-.059-.392a24.62,24.62,0,0,0-3.318-9l-.012-.019c-.182-.3-.368-.588-.562-.876l0,0a24.639,24.639,0,0,0-3.18-3.828,21.641,21.641,0,0,0-1.834-1.631c-.4-.321-.814-.629-1.236-.926l-.061-.046-.056-.038c-.072-.051-.143-.1-.217-.15-.272-.188-.565-.38-.886-.578h0l-.035-.022c-.155-.1-.315-.191-.483-.289l-.228-.13-.194-.11-.155-.084a24.914,24.914,0,0,0-3.033-1.415c-.272-.107-.48-.185-.6-.228l-.188-.065-.185-.066-.027-.009-.042-.014-.3-.1-.043-.013-.043-.014-.208-.065-.277-.084-.24-.069-.136-.038-.039-.012-.049-.013-.077-.022-.266-.069-.224-.058-.212-.051-.01,0-.136-.032-.257-.059-.181-.039-.247-.052-.045-.009-.186-.036-.11-.022-.134-.026-.023,0-.046-.009-.075-.013c-.066-.013-.134-.025-.2-.035l-.129-.022h0l-.223-.035-.191-.029-.114-.016-.172-.023-.166-.022c-.092-.013-.184-.023-.276-.033l-.253-.029-.084-.009-.019,0-.234-.022-.347-.027-.237-.019c-.09-.007-.176-.01-.264-.016l-.279-.014-.172-.006-.153-.007h-.118l-.132,0c-.5-.012-.993-.006-1.488.013l-.315.013c-.111.006-.223.012-.332.019l-.2.013c-.162.01-.321.025-.477.039l-.165.016c-.227.023-.447.048-.656.075l-.3.04.022,0-.026,0-.064.01c-.163.023-.321.046-.465.071-.118.019-.237.038-.354.059-.267.046-.48.088-.623.117-.715.145-1.422.324-2.121.53-.418.118-.786.238-1.244.4a24.733,24.733,0,0,0-5.44,2.733l0,0h0c-.169.113-.337.228-.5.345l-.065.048q-.436.308-.858.636l-.068.052-.026.019-.022.017-.033.026-.026.022c-.078.061-.155.123-.231.185-.156.126-.3.25-.451.374-.081.069-.163.139-.244.21-.165.144-.322.285-.468.419l-.022.019-.019.019c-.035.032-.069.062-.1.1-.767.712-1.234,1.231-1.264,1.264-.237.256-.471.526-.7.8-.165.192-.332.395-.506.61l-.038.043-.025.036c-.344.431-.708.919-1.1,1.51l-.009.012-.009.014-.017.025c-.179.269-.366.571-.552.887-.163.272-.324.54-.465.772l-.462.91c-.153.295-.3.581-.429.845a17.715,17.715,0,0,0-.77,1.88l0,.006v.007c-.218.614-.425,1.269-.6,1.9l-.006.023-.007.026a18.61,18.61,0,0,0-.494,2.2,22.5,22.5,0,0,0-.377,3.982,23.453,23.453,0,0,0,.264,3.914,23.8,23.8,0,0,0,.871,3.786,23.958,23.958,0,0,0,1.452,3.6,16.136,16.136,0,0,0,.782,1.461c.335.572.707,1.14,1.1,1.7l.137.207a16.123,16.123,0,0,0,1.448,1.838c.354.382.814.9,1.182,1.272s.861.841,1.261,1.178h0c.438.38.62.538,1.03.845q.75.594,1.523,1.105l.006,0c.168.11.334.218.5.322.2.124.4.243.571.342.094.053.224.129.374.211l.068.038c.155.087.335.185.538.292l.132.069c.6.311,1.352.679,2.186,1.013.182.074.429.172.727.283l.25.094.436.153c.092.03.214.071.306.1l.108.035.022.007.165.052.277.082.272.079.023.006a22.943,22.943,0,0,0,3.05.655l.092.014c.082.013.178.026.275.038l.026,0,.238.032.545.061c.244.025.572.049.816.069.227.017.5.03.766.039h.01l.377.012c.341.007.795,0,1.136,0s.813-.039,1.162-.056c.741-.068,1.727-.185,2.461-.306a18.826,18.826,0,0,0,1.894-.41c.142-.039.289-.084.441-.129.442-.129.9-.269,1.279-.382l.447-.169q.535-.189,1.061-.4l.176-.067c.413-.159.909-.4,1.357-.62.191-.094.38-.189.569-.288a16.845,16.845,0,0,0,1.6-.918l.048-.032q.633-.4,1.247-.842c.088-.061.179-.124.262-.179l.445-.354c.12-.094.238-.188.357-.283l.676-.538a16,16,0,0,0,1.4-1.3l.036-.033.066-.072c.353-.366.757-.8,1.225-1.334l.03-.036v0a21.737,21.737,0,0,0,2.058-2.81l.022-.035c.191-.306.384-.631.578-.978l0-.006,0,0c.082-.147.165-.3.247-.452.116-.211.225-.421.316-.61l.09-.189q.241-.492.471-1.023c.215-.483.419-.975.562-1.4v0c.263-.724.5-1.491.712-2.3.134-.493.25-.99.327-1.449q.147-.75.249-1.542c.017-.12.032-.236.045-.351q.121-1.069.149-2.206l0-.079v-.052Q-267.829,295.43-267.88,294.493Z" transform="translate(317.266 -271.158)"/><g transform="translate(0 0)"><g class="c"><g transform="translate(3.862 7.187)"><path class="d" d="M-291.709,300.249a14.166,14.166,0,0,1-4.274,3.147c-4.988-6.648-13.808-14.654-18.49-15.509.782-4.2,2.711-7.249,3.387-6.637a46.4,46.4,0,0,0,7.855,7.911,114.545,114.545,0,0,0,11.853,8.619c1.117.9.246,1.844-.331,2.468" transform="translate(314.646 -273.889)"/><path class="e" d="M-296.882,301.736c-9.083,3.508-19.16-3.283-17.538-15.917,2.048.285,4.529,1.761,8.566,5.1a59.892,59.892,0,0,1,9.924,10.407c-.285.121-.662.3-.952.408" transform="translate(314.593 -271.821)"/><path class="e" d="M-300.873,283.266c-1.832,1.26-3.651,1.2-8.046,1.053-.007-.543-.026-1.267-.01-1.809.231-5.5,5.237-7.3,6.89-5.952.4.594.306,1.172-.34,2.134,3.1-.689,3.864,1.4,2.867,3.144a4.345,4.345,0,0,1-1.361,1.429" transform="translate(317.11 -276.132)"/><path class="e" d="M-292.326,289.479c-1.72,2.081-5.25,2.014-8.364,1.955-.231-.613-.542-1.428-.766-2.042-2.806-8.037,2.641-8.654,4.313-7.865a2.668,2.668,0,0,1,1.468,3,2.968,2.968,0,0,1,3.007.1,3.416,3.416,0,0,1,.341,4.848" transform="translate(320.088 -273.845)"/></g><g transform="translate(0.054 14.617)"><path class="f" d="M-284.3,281.744c-.055-.159-.116-.315-.183-.47Z" transform="translate(331.799 -281.274)"/><path class="g" d="M-317.149,291.193c-.029-.143-.055-.283-.079-.418C-317.206,290.917-317.179,291.055-317.149,291.193Z" transform="translate(317.228 -277.046)"/></g><g class="i" transform="translate(1.709 -1.64)"><path class="j" d="M-308.719,286.285c.574.052,1.17.136,1.784.23,3.2.488,5.93-1.529,7.815-3.9,1.137-1.432,1.27-1.734.932-3.514-.23-1.205-1.338-2.113-.435-3.371.751-1.046,2.17-1.3,3.446-1.48l10.285-1.413a21.2,21.2,0,0,0-23.341,1.488,21.2,21.2,0,0,0-7,22.316c-.163-2.36-.312-4.812.564-7.008C-313.414,286.483-311.3,286.055-308.719,286.285Z" transform="translate(316.083 -270.023)"/></g></g></g></g></svg>