<svg xmlns="http://www.w3.org/2000/svg" width="73.106" height="58.878" viewBox="0 0 73.106 58.878"><defs><style>.a{fill:#cfe7ff;}.b{fill:none;stroke:#000;stroke-linecap:round;stroke-linejoin:round;stroke-width:3px;}.c{fill:#ff4885;}</style></defs><g transform="translate(-809.608 -608.629)"><path class="a" d="M847.271,609a39.134,39.134,0,0,0-22.005,6.584c-7.663,5.171-12.713,13.334-12.713,22.485a25.173,25.173,0,0,0,3.607,12.912l-6.376,10.5a3.314,3.314,0,0,0,3.641,4.934l15.2-3.821a39.6,39.6,0,0,0,18.648,4.546c19.174,0,34.718-13.014,34.718-29.069S866.445,609,847.271,609Z" transform="translate(0.725)"/><g transform="translate(1.887 1.13)"><path class="b" d="M815.012,626.135a23.905,23.905,0,0,0,.881,23.213l-6.128,10.09a3.185,3.185,0,0,0,3.5,4.743l14.608-3.672a38.059,38.059,0,0,0,17.923,4.369c18.429,0,33.369-12.509,33.369-27.939S864.224,609,845.795,609a38.346,38.346,0,0,0-16.391,3.6" transform="translate(0 0)"/><path class="b" d="M854.218,640.252a30.431,30.431,0,0,0-5.04,4.769" transform="translate(-30.74 -24.086)"/></g><path class="c" d="M1.1-12.682A4.772,4.772,0,0,1,1.9-15.224a6.2,6.2,0,0,1,2.35-2.132,7.393,7.393,0,0,1,3.6-.845,7.7,7.7,0,0,1,3.38.706A5.481,5.481,0,0,1,13.5-15.574a4.711,4.711,0,0,1,.8,2.64,4.083,4.083,0,0,1-.455,1.967,6.02,6.02,0,0,1-1.083,1.459q-.627.614-2.251,2.066a9.164,9.164,0,0,0-.719.719,2.923,2.923,0,0,0-.4.568,2.786,2.786,0,0,0-.2.515q-.073.257-.218.9A1.469,1.469,0,0,1,7.4-3.362a1.606,1.606,0,0,1-1.155-.449,1.763,1.763,0,0,1-.469-1.333,4.911,4.911,0,0,1,.343-1.921,4.876,4.876,0,0,1,.911-1.426A20.9,20.9,0,0,1,8.558-9.95q.845-.739,1.221-1.116a3.787,3.787,0,0,0,.634-.838,2.028,2.028,0,0,0,.257-1,2.333,2.333,0,0,0-.786-1.782,2.868,2.868,0,0,0-2.026-.726,2.8,2.8,0,0,0-2.139.733,5.842,5.842,0,0,0-1.162,2.158q-.449,1.492-1.7,1.492a1.674,1.674,0,0,1-1.248-.521A1.6,1.6,0,0,1,1.1-12.682ZM7.541,1.787a2.077,2.077,0,0,1-1.406-.521,1.829,1.829,0,0,1-.6-1.459,1.88,1.88,0,0,1,.581-1.4,1.962,1.962,0,0,1,1.426-.568,1.9,1.9,0,0,1,1.4.568,1.9,1.9,0,0,1,.568,1.4,1.843,1.843,0,0,1-.594,1.452A2,2,0,0,1,7.541,1.787Z" transform="translate(825.008 645.352)"/><rect width="22.444" height="2.828" rx="1.414" transform="translate(844.362 627.253)"/><rect width="22.444" height="2.828" rx="1.414" transform="translate(844.362 634.317)"/><rect width="22.444" height="2.828" rx="1.414" transform="translate(844.362 641.381)"/></g></svg>