<svg xmlns="http://www.w3.org/2000/svg" xmlns:xlink="http://www.w3.org/1999/xlink" width="89.32" height="91.71" viewBox="0 0 89.32 91.71"><defs><style>.a{fill:url(#a);}.b{fill:url(#b);}.c{fill:#fff;font-size:20px;font-family:Sriracha-Regular, Sriracha;}.d{fill:none;stroke:#fff;stroke-linecap:round;stroke-width:3px;}.e{filter:url(#c);}</style><linearGradient id="a" x1="0.5" x2="0.5" y2="1" gradientUnits="objectBoundingBox"><stop offset="0" stop-color="#b589f8"/><stop offset="1" stop-color="#5228f6"/></linearGradient><linearGradient id="b" x1="0.5" x2="0.5" y2="1" gradientUnits="objectBoundingBox"><stop offset="0" stop-color="#f9b6fd"/><stop offset="1" stop-color="#bf6ffc"/></linearGradient><filter id="c" x="0" y="4.193" width="67.789" height="58.527" filterUnits="userSpaceOnUse"><feOffset dx="6" dy="3" input="SourceAlpha"/><feGaussianBlur result="d"/><feFlood flood-opacity="0.102"/><feComposite operator="in" in2="d"/><feComposite in="SourceGraphic"/></filter></defs><g transform="translate(-603.974 -4628.776)"><path class="a" d="M4.718,71.8c6.927,7.405,23.211,13.39,35.114,1.672S50.5,55.331,60.375,50.061,76.619,36.923,72.319,23.068,45.565-3.447,31.472.853,5.912,25.218,2.807,36.206-2.209,64.394,4.718,71.8Z" transform="matrix(0.985, 0.174, -0.174, 0.985, 620.729, 4628.83)"/><g class="e" transform="matrix(1, 0, 0, 1, 603.97, 4628.78)"><path class="b" d="M45.191,55.527a16.42,16.42,0,0,1-10.2-3.516L6.377,29.654A16.586,16.586,0,0,1,3.518,6.375,16.418,16.418,0,0,1,9.436,1.618,16.744,16.744,0,0,1,16.6,0,16.421,16.421,0,0,1,26.8,3.516L55.413,25.873a16.59,16.59,0,0,1-3.06,28.036A16.747,16.747,0,0,1,45.191,55.527Zm5.385-16.2a2.993,2.993,0,1,0,2.993,2.993A3,3,0,0,0,50.576,39.324Z" transform="translate(0 4.19)"/></g><text class="c" transform="matrix(0.788, 0.616, -0.616, 0.788, 628.388, 4660.002)"><tspan x="-19.83" y="0">Free</tspan></text><line class="d" x1="0.801" y2="7.212" transform="translate(666.899 4648.896)"/><line class="d" x1="4.007" y2="4.007" transform="translate(670.905 4656.601)"/><line class="d" x1="5.609" y2="0.801" transform="translate(673.309 4664.615)"/></g></svg>