<svg xmlns="http://www.w3.org/2000/svg" xmlns:xlink="http://www.w3.org/1999/xlink" width="111.466" height="114.382" viewBox="0 0 111.466 114.382"><defs><linearGradient id="a" x1="0.5" x2="0.5" y2="1" gradientUnits="objectBoundingBox"><stop offset="0" stop-color="#b589f8"/><stop offset="1" stop-color="#5228f6"/></linearGradient><linearGradient id="b" x1="0.5" x2="0.5" y2="1" gradientUnits="objectBoundingBox"><stop offset="0" stop-color="#f9b6fd"/><stop offset="1" stop-color="#bf6ffc"/></linearGradient><filter id="c" x="0" y="5.166" width="83.109" height="72.294" filterUnits="userSpaceOnUse"><feOffset dx="6" dy="3" input="SourceAlpha"/><feGaussianBlur result="d"/><feFlood flood-opacity="0.102"/><feComposite operator="in" in2="d"/><feComposite in="SourceGraphic"/></filter></defs><path d="M1405.112,5781.987c8.645,9.241,28.966,16.71,43.82,2.086s13.312-22.637,25.636-29.213,20.271-16.4,14.9-33.685-33.387-33.089-50.975-27.723-31.9,30.406-35.772,44.118S1396.467,5772.746,1405.112,5781.987Z" transform="matrix(0.985, 0.174, -0.174, 0.985, -368.584, -5848.88)" fill="url(#a)"/><g transform="matrix(1, 0, 0, 1, 0, 0)" filter="url(#c)"><path d="M56.455,69.355a20.488,20.488,0,0,1-12.727-4.388l-35.71-27.9A20.7,20.7,0,0,1,4.451,8.016,20.485,20.485,0,0,1,11.835,2.08,20.894,20.894,0,0,1,20.773.061,20.492,20.492,0,0,1,33.5,4.45l35.71,27.9a20.7,20.7,0,0,1-3.818,34.987A20.9,20.9,0,0,1,56.455,69.355Zm6.72-20.221A3.735,3.735,0,1,0,66.91,52.87,3.74,3.74,0,0,0,63.176,49.135Z" transform="translate(-0.06 5.1)" fill="url(#b)"/></g><path d="M-11.661-17.732a1.443,1.443,0,0,1,.936,1.248,1.135,1.135,0,0,1-.494.871,3.141,3.141,0,0,1-1.118.585l-.312.026q-3.354.182-6.136.494l-1.456,5.824q1.924-.312,3.406-.442l1.768-.156,1.014-.078q1.014.442,1.014,1.2a1.267,1.267,0,0,1-.468.91,2.666,2.666,0,0,1-1.066.624l-.39.052q-1.17.13-2.184.208-2.652.234-3.77.416L-22.165-.936a3.134,3.134,0,0,1-.273.793.85.85,0,0,1-.494.364,3.549,3.549,0,0,1-1.053.117A2.037,2.037,0,0,1-25.168.065a1.063,1.063,0,0,1-.377-.923,1.89,1.89,0,0,1,.078-.546L-21.9-15.47a4.026,4.026,0,0,1,.611-1.521,1.511,1.511,0,0,1,1.183-.377,3.963,3.963,0,0,1,1.482.234Q-14.807-17.628-11.661-17.732ZM-8.073-.988q-.026.156-.117.611A.858.858,0,0,1-8.632.26,2.522,2.522,0,0,1-9.737.442,3.148,3.148,0,0,1-10.985.26a.77.77,0,0,1-.39-.78l1.248-4.966q1.04-4.29,1.378-5.46l-.65-.78a.249.249,0,0,1-.078-.182q0-.26.572-.429a5.844,5.844,0,0,1,1.586-.169A1.322,1.322,0,0,1-6.1-12a3.051,3.051,0,0,1,.39,1.313l-.182.676a7.447,7.447,0,0,1,1.937-1.677,3.934,3.934,0,0,1,1.963-.663,3.284,3.284,0,0,1,1.742.39,1.163,1.163,0,0,1,.624,1.014A2.093,2.093,0,0,1,0-9.815a3.552,3.552,0,0,1-.949.988,2.34,2.34,0,0,1-1.118.455,1.309,1.309,0,0,1-.7-.13.448.448,0,0,1-.182-.39l.156-.858a7.28,7.28,0,0,0-3.77,2.756ZM4.3.546A5.607,5.607,0,0,1,.585-.468a3.4,3.4,0,0,1-1.17-2.7A8.887,8.887,0,0,1,.65-7.748a9.314,9.314,0,0,1,3.3-3.341,8.542,8.542,0,0,1,4.459-1.235,3.7,3.7,0,0,1,2.444.819A2.945,2.945,0,0,1,11.843-9.1a2.025,2.025,0,0,1-.585,1.495,5.16,5.16,0,0,1-1.677,1.04Q8.489-6.11,6.045-5.278q-2.21.728-3.588,1.222a3.115,3.115,0,0,0-.1.806,1.25,1.25,0,0,0,.611,1.118,3.213,3.213,0,0,0,1.729.39,5.462,5.462,0,0,0,1.612-.286,1.865,1.865,0,0,0,1.144-.728q.884-1.612,1.612-1.612a1.966,1.966,0,0,1,1.443.4,1.4,1.4,0,0,1,.4.9A4.552,4.552,0,0,1,9.685-1.391,7.182,7.182,0,0,1,7.371,0,8.394,8.394,0,0,1,4.3.546ZM3.185-6.448Q5.759-7.28,7.423-7.995T9.087-9.412a.577.577,0,0,0-.338-.507,1.432,1.432,0,0,0-.728-.195,3.577,3.577,0,0,0-1.781.6A9.555,9.555,0,0,0,4.381-8.06,5.655,5.655,0,0,0,3.185-6.448ZM17.667.546A5.607,5.607,0,0,1,13.949-.468a3.4,3.4,0,0,1-1.17-2.7,8.887,8.887,0,0,1,1.235-4.576,9.314,9.314,0,0,1,3.3-3.341,8.542,8.542,0,0,1,4.459-1.235,3.7,3.7,0,0,1,2.444.819A2.945,2.945,0,0,1,25.207-9.1a3.358,3.358,0,0,1-1.313,2.8,8.548,8.548,0,0,1-3.3,1.508,34.109,34.109,0,0,1-4.771.741,3.115,3.115,0,0,0-.1.806,1.25,1.25,0,0,0,.611,1.118,3.213,3.213,0,0,0,1.729.39,6.5,6.5,0,0,0,1.911-.338A3.133,3.133,0,0,0,21.619-3.2a2.29,2.29,0,0,1,.793-.7,1.942,1.942,0,0,1,.923-.26.891.891,0,0,1,.676.273,1.147,1.147,0,0,1,.26.819,4.552,4.552,0,0,1-1.222,1.677A7.182,7.182,0,0,1,20.735,0,8.394,8.394,0,0,1,17.667.546ZM16.549-6.448a15.113,15.113,0,0,0,2.288-.286,7.619,7.619,0,0,0,2.5-.923,1.987,1.987,0,0,0,1.118-1.755.577.577,0,0,0-.338-.507,1.432,1.432,0,0,0-.728-.195,3.577,3.577,0,0,0-1.781.6A9.555,9.555,0,0,0,17.745-8.06,5.655,5.655,0,0,0,16.549-6.448Z" transform="matrix(0.788, 0.616, -0.616, 0.788, 30.027, 41.158)" fill="#fff"/><line x1="1" y2="9" transform="translate(78.527 25.042)" fill="none" stroke="#fff" stroke-linecap="round" stroke-width="3"/><line x1="5" y2="5" transform="translate(83.527 34.658)" fill="none" stroke="#fff" stroke-linecap="round" stroke-width="3"/><line x1="7" y2="1" transform="translate(86.527 44.658)" fill="none" stroke="#fff" stroke-linecap="round" stroke-width="3"/></svg>