<svg xmlns="http://www.w3.org/2000/svg" xmlns:xlink="http://www.w3.org/1999/xlink" width="98.458" height="89.666" viewBox="0 0 98.458 89.666"><defs><style>.a{fill:url(#a);}.b,.c{stroke:rgba(0,0,0,0);}.b{fill:url(#b);}.c{fill:url(#e);}.d{fill:#fff;}.e{fill:#8055f6;}.f{filter:url(#f);}.g{filter:url(#c);}</style><linearGradient id="a" x1="0.5" x2="0.5" y2="1" gradientUnits="objectBoundingBox"><stop offset="0" stop-color="#b589f8"/><stop offset="1" stop-color="#5228f6"/></linearGradient><linearGradient id="b" x1="0.5" x2="0.5" y2="1" gradientUnits="objectBoundingBox"><stop offset="0" stop-color="#f9b6fd"/><stop offset="1" stop-color="#bf6ffc"/></linearGradient><filter id="c" x="10.799" y="1.401" width="59.061" height="72.46" filterUnits="userSpaceOnUse"><feOffset dx="6" dy="3" input="SourceAlpha"/><feGaussianBlur result="d"/><feFlood flood-opacity="0.102"/><feComposite operator="in" in2="d"/><feComposite in="SourceGraphic"/></filter><linearGradient id="e" x1="0.5" x2="0.5" y2="1" gradientUnits="objectBoundingBox"><stop offset="0" stop-color="#d194ff"/><stop offset="1" stop-color="#a454ff"/></linearGradient><filter id="f" x="28.33" y="20.025" width="50.443" height="50.444" filterUnits="userSpaceOnUse"><feOffset dy="1" input="SourceAlpha"/><feGaussianBlur stdDeviation="3" result="g"/><feFlood flood-opacity="0.161"/><feComposite operator="in" in2="g"/><feComposite in="SourceGraphic"/></filter></defs><g transform="translate(-736.402 -5113.566)"><path class="a" d="M1644.4,6321.293c6.741-3.069,21.3-10.557,24.522-16.751s2.651-13.171,0-17.45a88.118,88.118,0,0,0-10.067-12.39,209.49,209.49,0,0,1-14.326-17.165c-3.614-5.163-11.229-8.647-17.94-6.711s-15.745,7.873-23.876,14.067-15.363,11.194-17.9,23.9,0,25.26,1.255,30.694,5.381,13.662,11.486,16.778,20.908,6.065,29.039.774S1637.664,6324.361,1644.4,6321.293Z" transform="translate(-836.276 -1136.717)"/><g transform="translate(747.702 5115.58)"><g transform="translate(0 0)"><g class="g" transform="matrix(1, 0, 0, 1, -11.3, -2.01)"><path class="b" d="M798.066,466.076c-11.083,0-22.57-10.273-22.683-10.376a2,2,0,0,0-2.691,0c-.114.1-11.57,10.376-22.683,10.376a2,2,0,0,0-2,2v23.98c0,19.426,14.448,27.188,25.317,31.338a2.007,2.007,0,0,0,1.428,0c15.239-5.818,25.317-14.893,25.317-31.338v-23.98a2,2,0,0,0-2-2Zm0,0" transform="translate(-736.71 -453.17)"/></g></g><path class="c" d="M-306.817,162.38h-1.73v-2.307A8.082,8.082,0,0,0-316.62,152a8.082,8.082,0,0,0-8.073,8.073v2.307h-1.73a.576.576,0,0,0-.577.577v14.416a2.309,2.309,0,0,0,2.307,2.307h16.146a2.309,2.309,0,0,0,2.307-2.307V162.956A.576.576,0,0,0-306.817,162.38Zm-8.44,8.775.364,3.271a.578.578,0,0,1-.144.448.577.577,0,0,1-.43.192h-2.307a.577.577,0,0,1-.43-.192.578.578,0,0,1-.144-.448l.364-3.271a2.281,2.281,0,0,1-.944-1.855,2.309,2.309,0,0,1,2.307-2.307,2.309,2.309,0,0,1,2.307,2.307A2.282,2.282,0,0,1-315.257,171.155Zm3.25-8.775h-9.226v-2.307a4.619,4.619,0,0,1,4.613-4.613,4.619,4.619,0,0,1,4.613,4.613Z" transform="translate(339.454 -135.131)"/><g class="f" transform="matrix(1, 0, 0, 1, -11.3, -2.01)"><path class="d" d="M1209.722,602.215a16.222,16.222,0,1,0,16.222,16.222,16.24,16.24,0,0,0-16.222-16.222Zm6.273,15.543-6.952,6.952a2.315,2.315,0,0,1-3.276,0l-2.317-2.317a2.317,2.317,0,0,1,3.277-3.277l.678.679,5.314-5.314a2.317,2.317,0,1,1,3.276,3.277Zm0,0" transform="translate(-1156.17 -574.19)"/></g></g><g transform="translate(736.402 5115.58)"><path class="e" d="M1179.818,495.608a4.132,4.132,0,0,0-4.127,4.127,1.376,1.376,0,1,0,2.752,0,1.377,1.377,0,0,1,1.375-1.375,1.376,1.376,0,0,0,0-2.752Zm0,0" transform="translate(-1169.894 -489.809)"/><path class="e" d="M1161.916,471.9a9.936,9.936,0,0,0-9.924,9.926,1.376,1.376,0,1,0,2.752,0,7.181,7.181,0,0,1,7.172-7.174,1.376,1.376,0,1,0,0-2.752Zm0,0" transform="translate(-1151.992 -471.901)"/></g></g></svg>