<svg xmlns="http://www.w3.org/2000/svg" xmlns:xlink="http://www.w3.org/1999/xlink" width="89.32" height="91.657" viewBox="0 0 89.32 91.657"><defs><linearGradient id="a" x1="0.5" x2="0.5" y2="1" gradientUnits="objectBoundingBox"><stop offset="0" stop-color="#b589f8"/><stop offset="1" stop-color="#5228f6"/></linearGradient><linearGradient id="b" x1="0.5" x2="0.5" y2="1" gradientUnits="objectBoundingBox"><stop offset="0" stop-color="#f9b6fd"/><stop offset="1" stop-color="#bf6ffc"/></linearGradient><filter id="c" x="0" y="4.139" width="67.789" height="58.527" filterUnits="userSpaceOnUse"><feOffset dx="6" dy="3" input="SourceAlpha"/><feGaussianBlur result="d"/><feFlood flood-opacity="0.102"/><feComposite operator="in" in2="d"/><feComposite in="SourceGraphic"/></filter></defs><g transform="translate(-603.974 -4628.83)"><path d="M4.718,71.8c6.927,7.405,23.211,13.39,35.114,1.672S50.5,55.331,60.375,50.061,76.619,36.923,72.319,23.068,45.565-3.447,31.472.853,5.912,25.218,2.807,36.206-2.209,64.394,4.718,71.8Z" transform="matrix(0.985, 0.174, -0.174, 0.985, 620.729, 4628.83)" fill="url(#a)"/><g transform="matrix(1, 0, 0, 1, 603.97, 4628.83)" filter="url(#c)"><path d="M45.191,55.527a16.42,16.42,0,0,1-10.2-3.516L6.377,29.654A16.586,16.586,0,0,1,3.518,6.375,16.418,16.418,0,0,1,9.436,1.618,16.744,16.744,0,0,1,16.6,0,16.421,16.421,0,0,1,26.8,3.516L55.413,25.873a16.59,16.59,0,0,1-3.06,28.036A16.747,16.747,0,0,1,45.191,55.527Zm5.385-16.2a2.993,2.993,0,1,0,2.993,2.993A3,3,0,0,0,50.576,39.324Z" transform="translate(0 4.14)" fill="url(#b)"/></g><path d="M-8.97-13.64a1.11,1.11,0,0,1,.72.96.873.873,0,0,1-.38.67,2.416,2.416,0,0,1-.86.45l-.24.02q-2.58.14-4.72.38l-1.12,4.48q1.48-.24,2.62-.34l1.36-.12.78-.06q.78.34.78.92a.974.974,0,0,1-.36.7,2.051,2.051,0,0,1-.82.48l-.3.04q-.9.1-1.68.16-2.04.18-2.9.32l-.96,3.86a2.411,2.411,0,0,1-.21.61.654.654,0,0,1-.38.28,2.73,2.73,0,0,1-.81.09,1.567,1.567,0,0,1-.91-.21.818.818,0,0,1-.29-.71,1.454,1.454,0,0,1,.06-.42l2.74-10.82a3.1,3.1,0,0,1,.47-1.17,1.162,1.162,0,0,1,.91-.29,3.048,3.048,0,0,1,1.14.18Q-11.39-13.56-8.97-13.64ZM-6.21-.76q-.02.12-.09.47A.66.66,0,0,1-6.64.2a1.94,1.94,0,0,1-.85.14A2.422,2.422,0,0,1-8.45.2a.592.592,0,0,1-.3-.6l.96-3.82q.8-3.3,1.06-4.2l-.5-.6a.192.192,0,0,1-.06-.14q0-.2.44-.33a4.5,4.5,0,0,1,1.22-.13,1.017,1.017,0,0,1,.94.39,2.347,2.347,0,0,1,.3,1.01l-.14.52A5.728,5.728,0,0,1-3.04-8.99,3.026,3.026,0,0,1-1.53-9.5a2.526,2.526,0,0,1,1.34.3.894.894,0,0,1,.48.78A1.61,1.61,0,0,1,0-7.55a2.732,2.732,0,0,1-.73.76,1.8,1.8,0,0,1-.86.35,1.007,1.007,0,0,1-.54-.1.344.344,0,0,1-.14-.3l.12-.66a5.6,5.6,0,0,0-2.9,2.12ZM3.31.42A4.313,4.313,0,0,1,.45-.36a2.615,2.615,0,0,1-.9-2.08A6.836,6.836,0,0,1,.5-5.96,7.164,7.164,0,0,1,3.04-8.53a6.571,6.571,0,0,1,3.43-.95,2.847,2.847,0,0,1,1.88.63A2.265,2.265,0,0,1,9.11-7a1.557,1.557,0,0,1-.45,1.15,3.969,3.969,0,0,1-1.29.8q-.84.35-2.72.99-1.7.56-2.76.94a2.4,2.4,0,0,0-.08.62.961.961,0,0,0,.47.86,2.472,2.472,0,0,0,1.33.3,4.2,4.2,0,0,0,1.24-.22,1.435,1.435,0,0,0,.88-.56q.68-1.24,1.24-1.24a1.513,1.513,0,0,1,1.11.31,1.074,1.074,0,0,1,.31.69,3.5,3.5,0,0,1-.94,1.29A5.525,5.525,0,0,1,5.67,0,6.457,6.457,0,0,1,3.31.42ZM2.45-4.96Q4.43-5.6,5.71-6.15T6.99-7.24a.444.444,0,0,0-.26-.39,1.1,1.1,0,0,0-.56-.15,2.752,2.752,0,0,0-1.37.46A7.35,7.35,0,0,0,3.37-6.2,4.35,4.35,0,0,0,2.45-4.96ZM13.59.42a4.313,4.313,0,0,1-2.86-.78,2.615,2.615,0,0,1-.9-2.08,6.836,6.836,0,0,1,.95-3.52,7.164,7.164,0,0,1,2.54-2.57,6.571,6.571,0,0,1,3.43-.95,2.847,2.847,0,0,1,1.88.63A2.265,2.265,0,0,1,19.39-7a2.583,2.583,0,0,1-1.01,2.15,6.575,6.575,0,0,1-2.54,1.16,26.238,26.238,0,0,1-3.67.57,2.4,2.4,0,0,0-.08.62.961.961,0,0,0,.47.86,2.472,2.472,0,0,0,1.33.3,5,5,0,0,0,1.47-.26,2.41,2.41,0,0,0,1.27-.86A1.761,1.761,0,0,1,17.24-3a1.494,1.494,0,0,1,.71-.2.686.686,0,0,1,.52.21.882.882,0,0,1,.2.63,3.5,3.5,0,0,1-.94,1.29A5.525,5.525,0,0,1,15.95,0,6.457,6.457,0,0,1,13.59.42Zm-.86-5.38a11.625,11.625,0,0,0,1.76-.22,5.861,5.861,0,0,0,1.92-.71,1.528,1.528,0,0,0,.86-1.35.444.444,0,0,0-.26-.39,1.1,1.1,0,0,0-.56-.15,2.752,2.752,0,0,0-1.37.46A7.35,7.35,0,0,0,13.65-6.2,4.35,4.35,0,0,0,12.73-4.96Z" transform="matrix(0.788, 0.616, -0.616, 0.788, 628.388, 4660.002)" fill="#fff"/><line x1="0.801" y2="7.212" transform="translate(666.899 4648.896)" fill="none" stroke="#fff" stroke-linecap="round" stroke-width="3"/><line x1="4.007" y2="4.007" transform="translate(670.905 4656.601)" fill="none" stroke="#fff" stroke-linecap="round" stroke-width="3"/><line x1="5.609" y2="0.801" transform="translate(673.309 4664.615)" fill="none" stroke="#fff" stroke-linecap="round" stroke-width="3"/></g></svg>