<svg xmlns="http://www.w3.org/2000/svg" xmlns:xlink="http://www.w3.org/1999/xlink" width="93.491" height="85.495" viewBox="0 0 93.491 85.495"><defs><style>.a{fill:url(#a);}.b{stroke:rgba(0,0,0,0);fill:url(#b);}.c,.e{fill:none;stroke:#fff;stroke-linecap:round;}.c{stroke-width:4px;}.d{fill:#fff;}.e{stroke-width:3px;}.f{filter:url(#l);}.g{filter:url(#i);}.h{filter:url(#f);}.i{filter:url(#c);}</style><linearGradient id="a" x1="0.5" x2="0.5" y2="1" gradientUnits="objectBoundingBox"><stop offset="0" stop-color="#b589f8"/><stop offset="1" stop-color="#5228f6"/></linearGradient><linearGradient id="b" x1="0.5" x2="0.5" y2="1" gradientUnits="objectBoundingBox"><stop offset="0" stop-color="#f9b6fd"/><stop offset="1" stop-color="#bf6ffc"/></linearGradient><filter id="c" x="0" y="41.54" width="28.915" height="22.629" filterUnits="userSpaceOnUse"><feOffset dx="6" dy="3" input="SourceAlpha"/><feGaussianBlur result="d"/><feFlood flood-opacity="0.102"/><feComposite operator="in" in2="d"/><feComposite in="SourceGraphic"/></filter><filter id="f" x="4.525" y="12.396" width="62.895" height="51.136" filterUnits="userSpaceOnUse"><feOffset dx="6" dy="3" input="SourceAlpha"/><feGaussianBlur result="g"/><feFlood flood-opacity="0.102"/><feComposite operator="in" in2="g"/><feComposite in="SourceGraphic"/></filter><filter id="i" x="48.547" y="53.747" width="24.805" height="19.037" filterUnits="userSpaceOnUse"><feOffset dx="6" dy="3" input="SourceAlpha"/><feGaussianBlur result="j"/><feFlood flood-opacity="0.102"/><feComposite operator="in" in2="j"/><feComposite in="SourceGraphic"/></filter><filter id="l" x="42.594" y="0" width="34.004" height="26.806" filterUnits="userSpaceOnUse"><feOffset dx="6" dy="3" input="SourceAlpha"/><feGaussianBlur result="m"/><feFlood flood-opacity="0.102"/><feComposite operator="in" in2="m"/><feComposite in="SourceGraphic"/></filter></defs><g transform="translate(-732.071 -4609.289)"><path class="a" d="M1413.169,6329.994c5.289-4,6.7-7.561,8.213-14s3.931-11.325,8.862-19,3.689-19.411,0-26.377-14.946-15.551-25.865-15.646-17.13,1.355-23.468,9.211-8.327,25.361-17.791,28.011-19.226,5.551-21.071,16.276,2.271,24.6,21.071,26.749S1407.88,6334,1413.169,6329.994Z" transform="translate(-607.93 -1641.105)"/><g transform="translate(732.582 4651.362)"><g class="i" transform="matrix(1, 0, 0, 1, -0.51, -42.07)"><path class="b" d="M77.454,296.126a5.749,5.749,0,0,0-10.873-1.538,5.753,5.753,0,1,0-9.259,6.543l8.2,8.2a1.491,1.491,0,0,0,2.109,0l8.2-8.2A5.761,5.761,0,0,0,77.454,296.126Z" transform="translate(-55.12 -249.22)"/></g></g><g transform="translate(737.123 4622.196)"><g class="h" transform="matrix(1, 0, 0, 1, -5.05, -12.91)"><path class="b" d="M111.29,303.615a14.665,14.665,0,0,0-27.735-3.922,14.675,14.675,0,1,0-23.617,16.69l20.927,20.925a3.8,3.8,0,0,0,5.38,0l20.927-20.925A14.7,14.7,0,0,0,111.29,303.615Z" transform="translate(-50.58 -278.39)"/></g></g><g transform="translate(781.127 4663.563)"><g class="g" transform="matrix(1, 0, 0, 1, -49.06, -54.27)"><path class="b" d="M73.361,295.22a4.671,4.671,0,0,0-8.834-1.249,4.674,4.674,0,1,0-7.522,5.316l6.665,6.665a1.211,1.211,0,0,0,1.714,0l6.665-6.665A4.681,4.681,0,0,0,73.361,295.22Z" transform="translate(-6.58 -237.02)"/></g></g><g transform="translate(775.179 4609.828)"><g class="f" transform="matrix(1, 0, 0, 1, -43.11, -0.54)"><path class="b" d="M82.522,297.248a7.085,7.085,0,0,0-13.4-1.895,7.089,7.089,0,1,0-11.41,8.063l10.11,10.109a1.837,1.837,0,0,0,2.6,0l10.11-10.109A7.1,7.1,0,0,0,82.522,297.248Z" transform="translate(-12.53 -290.76)"/></g></g><path class="c" d="M761.91,4673.127l8.25,8.775" transform="translate(-12.113 -26.8)"/><circle class="d" cx="1.28" cy="1.28" r="1.28" transform="translate(744.889 4640.336)"/><line class="e" x1="4.268" y2="4.268" transform="translate(793.821 4653.933) rotate(-34)"/><line class="e" x1="5.975" y2="0.854" transform="translate(800.718 4659.578) rotate(-34)"/></g></svg>