<svg xmlns="http://www.w3.org/2000/svg" xmlns:xlink="http://www.w3.org/1999/xlink" width="90.162" height="78.547" viewBox="0 0 90.162 78.547"><defs><style>.a{fill:url(#a);}.b{stroke:rgba(0,0,0,0);fill:url(#b);}.c{fill:#fff;}.d{fill:none;stroke:#fff;stroke-linecap:round;stroke-width:1.6px;}.e{fill:#7248f6;}.f{filter:url(#w);}.g{filter:url(#s);}.h{filter:url(#n);}.i{filter:url(#k);}.j{filter:url(#g);}.k{filter:url(#c);}</style><linearGradient id="a" x1="0.5" x2="0.5" y2="1" gradientUnits="objectBoundingBox"><stop offset="0" stop-color="#b589f8"/><stop offset="1" stop-color="#5228f6"/></linearGradient><linearGradient id="b" x1="0.5" x2="0.5" y2="1" gradientUnits="objectBoundingBox"><stop offset="0" stop-color="#f9b6fd"/><stop offset="1" stop-color="#bf6ffc"/></linearGradient><filter id="c" x="3.575" y="28.685" width="34.007" height="24.716" filterUnits="userSpaceOnUse"><feOffset dx="6" dy="3" input="SourceAlpha"/><feGaussianBlur result="d"/><feFlood flood-opacity="0.102"/><feComposite operator="in" in2="d"/><feComposite in="SourceGraphic"/></filter><filter id="g" x="10.81" y="13.72" width="21.483" height="19.516" filterUnits="userSpaceOnUse"><feOffset dx="6" dy="3" input="SourceAlpha"/><feGaussianBlur result="h"/><feFlood flood-opacity="0.102"/><feComposite operator="in" in2="h"/><feComposite in="SourceGraphic"/></filter><filter id="k" x="40.189" y="28.685" width="34.007" height="24.716" filterUnits="userSpaceOnUse"><feOffset dx="6" dy="3" input="SourceAlpha"/><feGaussianBlur result="l"/><feFlood flood-opacity="0.102"/><feComposite operator="in" in2="l"/><feComposite in="SourceGraphic"/></filter><filter id="n" x="15.208" y="35.229" width="47.328" height="23.345" filterUnits="userSpaceOnUse"><feOffset dx="6" dy="3" input="SourceAlpha"/><feGaussianBlur result="o"/><feFlood flood-opacity="0.102"/><feComposite operator="in" in2="o"/><feComposite in="SourceGraphic"/></filter><filter id="s" x="25.299" y="11.552" width="27.172" height="23.92" filterUnits="userSpaceOnUse"><feOffset dx="6" dy="3" input="SourceAlpha"/><feGaussianBlur result="t"/><feFlood flood-opacity="0.102"/><feComposite operator="in" in2="t"/><feComposite in="SourceGraphic"/></filter><filter id="w" x="45.477" y="13.814" width="21.483" height="19.421" filterUnits="userSpaceOnUse"><feOffset dx="6" dy="3" input="SourceAlpha"/><feGaussianBlur result="x"/><feFlood flood-opacity="0.102"/><feComposite operator="in" in2="x"/><feComposite in="SourceGraphic"/></filter></defs><g transform="translate(-1188.693 -4612.023)"><path class="a" d="M1552.533,6134.242c-2.565-5.452-.881-11.89,4.58-17.968s23.428-17.614,25.189-20.785-1.233-14.973,3.875-19.993,12.276-7.372,20.962-7.31,20.521,6.87,24.308,18.759,1.212,32.717-2.955,40.01-14.031,19.776-25.971,19.776-19-4.736-27.392-7.2S1555.1,6139.693,1552.533,6134.242Z" transform="translate(-354.435 -1456.163)"/><g transform="translate(1192.768 4617.11)"><g class="k" transform="matrix(1, 0, 0, 1, -4.07, -5.09)"><path class="b" d="M670.794,618.905a7.689,7.689,0,0,0-3.753-2.148l-5.32-1.275,0,0,0,0v-3.248h-6.5v3.258h0l-5.306,1.268a7.708,7.708,0,0,0-5.918,7.5v8.692h11.762Z" transform="translate(-639.93 -583.05)"/></g><path class="b" d="M736.74,603.234v4.5l-3.372,8.076L730,607.745v-4.511Z" transform="translate(-718.879 -580.3)"/><g class="j" transform="matrix(1, 0, 0, 1, -4.07, -5.09)"><path class="b" d="M714.434,500.99v4.5a7.241,7.241,0,0,1-7.242,7.241h0a7.241,7.241,0,0,1-7.242-7.241v-4.5l13.16-3.669,1.323,3.669Z" transform="translate(-688.64 -482.99)"/></g><path class="b" d="M714.434,476.207v-1.743a7.241,7.241,0,0,0-7.242-7.241h0a7.242,7.242,0,0,0-7.242,7.241v1.743h4.992a17.266,17.266,0,0,0,8.875-2.455h0" transform="translate(-692.716 -461.875)"/><g class="i" transform="matrix(1, 0, 0, 1, -4.07, -5.09)"><path class="b" d="M928.79,618.905a7.69,7.69,0,0,1,3.753-2.148l5.32-1.275,0,0,0,0v-3.248h6.5v3.258h0l5.306,1.268a7.708,7.708,0,0,1,5.918,7.5v8.692H943.822Z" transform="translate(-887.89 -583.05)"/></g><g class="h" transform="matrix(1, 0, 0, 1, -4.07, -5.09)"><path class="b" d="M749.607,662.84l-7.41,1.776a10.737,10.737,0,0,0-8.235,10.441v7.127H774.29v-7.121a10.737,10.737,0,0,0-8.242-10.443l-7.391-1.766Z" transform="translate(-718.25 -627.11)"/></g><g transform="translate(26.984 23.064)"><path class="b" d="M1004.62,604.234v4.382l-3.368,8.065L997.88,608.6v-4.37Z" transform="translate(-979.104 -604.234)"/><path class="b" d="M857.5,635.521l5.015-10.261a7.084,7.084,0,0,1-.752-2.735v-2.993h-8.53v2.993a6.673,6.673,0,0,1-.56,2.678Z" transform="translate(-852.674 -617.555)"/></g><g class="g" transform="matrix(1, 0, 0, 1, -4.07, -5.09)"><path class="b" d="M832.173,482.735v6.959a10.086,10.086,0,1,1-20.172,0v-6.959a20.187,20.187,0,0,1,13.4-2.589A18.994,18.994,0,0,1,832.173,482.735Z" transform="translate(-786.2 -467.81)"/></g><path class="b" d="M822.085,425.874h0A10.086,10.086,0,0,0,812,435.96v2.428h4.931a11.082,11.082,0,0,0,8.494-3.964h0l6.747,3.964V435.96A10.086,10.086,0,0,0,822.085,425.874Z" transform="translate(-790.275 -425.874)"/><g class="f" transform="matrix(1, 0, 0, 1, -4.07, -5.09)"><path class="b" d="M968.045,500.99v4.5a7.242,7.242,0,0,0,14.483,0v-4.5c-4.627-3.726-9.754-4.671-12.591-2.576a5.7,5.7,0,0,0-1.892,2.576Z" transform="translate(-922.07 -482.99)"/></g><path class="b" d="M968.045,476.207v-1.743a7.241,7.241,0,0,1,7.241-7.241h0a7.242,7.242,0,0,1,7.242,7.241v1.743h-4.992a17.266,17.266,0,0,1-8.875-2.455h0" transform="translate(-926.143 -461.875)"/><g transform="translate(25.681 16.081)"><path class="c" d="M301.445,682.335a1.352,1.352,0,1,0,.955.4A1.362,1.362,0,0,0,301.445,682.335Z" transform="translate(-300.094 -682.335)"/><path class="c" d="M368.314,685.038a1.352,1.352,0,1,0-.955-.4A1.361,1.361,0,0,0,368.314,685.038Z" transform="translate(-357.927 -682.335)"/></g><path class="d" d="M37.243,27.364a2.725,2.725,0,0,0,3.832-.189" transform="translate(-7.02 -5.708)"/></g><g transform="translate(1252.313 4621.958)"><path class="c" d="M1031.7,366.6h.742a1.081,1.081,0,0,0,0-2.162h-.742a1.081,1.081,0,1,0,0,2.162Z" transform="translate(-1030.62 -361.443)"/><path class="c" d="M1080.222,366.6h.742a1.081,1.081,0,0,0,0-2.162h-.742a1.081,1.081,0,1,0,0,2.162Z" transform="translate(-1073.895 -361.443)"/><path class="c" d="M1059.392,388.172a1.081,1.081,0,0,0,1.081-1.081v-.742a1.081,1.081,0,0,0-2.162,0v.742A1.081,1.081,0,0,0,1059.392,388.172Z" transform="translate(-1055.317 -380.022)"/><path class="c" d="M1059.392,339.651a1.081,1.081,0,0,0,1.081-1.081v-.742a1.081,1.081,0,0,0-2.162,0v.742A1.081,1.081,0,0,0,1059.392,339.651Z" transform="translate(-1055.317 -336.747)"/></g><g transform="translate(1188.693 4635.616)"><path class="e" d="M1031.7,366.6h.742a1.081,1.081,0,0,0,0-2.162h-.742a1.081,1.081,0,1,0,0,2.162Z" transform="translate(-1030.62 -361.443)"/><path class="e" d="M1080.222,366.6h.742a1.081,1.081,0,0,0,0-2.162h-.742a1.081,1.081,0,1,0,0,2.162Z" transform="translate(-1073.895 -361.443)"/><path class="e" d="M1059.392,388.172a1.081,1.081,0,0,0,1.081-1.081v-.742a1.081,1.081,0,0,0-2.162,0v.742A1.081,1.081,0,0,0,1059.392,388.172Z" transform="translate(-1055.317 -380.022)"/><path class="e" d="M1059.392,339.651a1.081,1.081,0,0,0,1.081-1.081v-.742a1.081,1.081,0,0,0-2.162,0v.742A1.081,1.081,0,0,0,1059.392,339.651Z" transform="translate(-1055.317 -336.747)"/></g></g></svg>