<svg xmlns="http://www.w3.org/2000/svg" width="29.097" height="22.28" viewBox="0 0 29.097 22.28"><defs><style>.a{fill:#7c56ff;}</style></defs><path class="a" d="M23.642,85.823H18.868a.684.684,0,0,1-.682-.682V82.868a.684.684,0,0,1,.682-.682h4.774a1.817,1.817,0,0,0,1.819-1.819V69.456a1.817,1.817,0,0,0-1.819-1.819H18.868a.684.684,0,0,1-.682-.682V64.682A.684.684,0,0,1,18.868,64h4.774A5.457,5.457,0,0,1,29.1,69.456V80.367A5.457,5.457,0,0,1,23.642,85.823ZM20.971,74.4l-9.548-9.548a1.366,1.366,0,0,0-2.33.966v5.456H1.364A1.361,1.361,0,0,0,0,72.638v5.456a1.361,1.361,0,0,0,1.364,1.364H9.093v5.456a1.366,1.366,0,0,0,2.33.966l9.548-9.548A1.376,1.376,0,0,0,20.971,74.4Z" transform="translate(0 -64)"/></svg>