<svg xmlns="http://www.w3.org/2000/svg" xmlns:xlink="http://www.w3.org/1999/xlink" width="718" height="112" viewBox="0 0 718 112"><defs><clipPath id="a"><rect width="718" height="88" rx="18" fill="#532654"/></clipPath><clipPath id="b"><path d="M.193-.024V11.167l.04,318.59s100.314,115.361,193.94,120.794S473.8,362.359,473.8,362.359s58.934,77.743,137.513,76.907,192.686-95.3,300.1-88.192c-.026-13.45-.843-351.119-.843-351.119L4.76-.024Z" transform="translate(0 0)" fill="#ffbe40"/></clipPath><clipPath id="c"><rect width="132" height="112" transform="translate(-5.379 -59.756)" fill="#fff" stroke="#707070" stroke-width="1"/></clipPath><filter id="d" x="591" y="31" width="96" height="72" filterUnits="userSpaceOnUse"><feOffset dy="8" input="SourceAlpha"/><feGaussianBlur result="e"/><feFlood flood-color="#4514ee"/><feComposite operator="in" in2="e"/><feComposite in="SourceGraphic"/></filter><filter id="f" x="614.706" y="44.169" width="48.992" height="55.19" filterUnits="userSpaceOnUse"><feOffset dy="3" input="SourceAlpha"/><feGaussianBlur stdDeviation="3" result="g"/><feFlood flood-color="#4514ee"/><feComposite operator="in" in2="g"/><feComposite in="SourceGraphic"/></filter><filter id="h" x="608.396" y="30.952" width="38.624" height="33.906" filterUnits="userSpaceOnUse"><feOffset dy="3" input="SourceAlpha"/><feGaussianBlur stdDeviation="3" result="i"/><feFlood flood-color="#4514ee"/><feComposite operator="in" in2="i"/><feComposite in="SourceGraphic"/></filter></defs><g transform="translate(-16 -97.833)"><g transform="translate(0 20.166)"><g transform="translate(16 99.667)"><g transform="translate(0 0)"><g clip-path="url(#a)"><rect width="718" height="88" fill="#ffbe40"/><g transform="translate(-80.804 -281.056)" clip-path="url(#b)"><g transform="translate(147.683 279.59) rotate(30)" opacity="0.53"><path d="M0,52.946c14.475-14.771,29.3-29.8,47.718-39.2C65.176,4.839,84.974,1.488,104.545.45s39.194.115,58.787-.356" transform="translate(0 0)" fill="none" stroke="#d3a562" stroke-miterlimit="10" stroke-width="2"/><path d="M.014,40.391C-.138,39.077.991,38,2.019,37.17c12.153-9.837,24.947-19.161,39.364-25.211a135.65,135.65,0,0,1,23.8-7.224,209.537,209.537,0,0,1,79.5-1.754" transform="translate(7.859 11.308)" fill="none" stroke="#d3a562" stroke-miterlimit="10" stroke-width="2"/><path d="M0,32.688a36.678,36.678,0,0,1,9.639-7.855C22.515,16.883,41.827,4.935,56.7,2.125,78.745-2.042,119.985.876,142.34,2.8" transform="translate(12.978 21.878)" fill="none" stroke="#d3a562" stroke-miterlimit="10" stroke-width="2"/></g><path d="M39.711,254.159c21.811,14.353,53.519,12.059,72.394-5.24,15.185-13.916,22.928-36.175,42.267-43.963,16.317-6.571,34.885-.354,52.488,2.242,24.888,3.671,52.6-1.267,69.24-19.264,17.381-18.8,57.2-77.58,114.583-77.772,16.523-.055-43.527.187-26.444-.094s34.449,1.338,51.061-2.314c24.752-5.44,46.1-23.135,55.459-45.958C339.493,25.695,203.136,12.943,67.665.349,62.97-.087,57.99-.477,53.807,1.559,50.3,3.266,47.852,6.451,45.679,9.616,30.167,32.209,22.272,58.889,15.373,85.289,3.454,130.9-6.155,178.873,4.81,225.048c2.759,11.618,7.4,23.779,17.519,30.64" transform="matrix(-0.766, -0.643, 0.643, -0.766, 196.783, 600.672)" fill="#ffa900"/><g transform="matrix(0.616, -0.788, 0.788, 0.616, -39.648, 323.661)"><g transform="translate(4.098 0)"><path d="M-37.862,261.6c2.457-8.974,6.989-17.23,11.794-25.2,3.871-6.42,7.986-12.769,13.254-18.1a109.926,109.926,0,0,1,10.785-9.189L4.389,204.1c.5,14.212,4.444,28.382,2.6,42.483-.851,6.52-2.921,12.812-5.081,19.023-4.576,13.16-10.065,26.813-20.97,35.486a10.854,10.854,0,0,1-5.236,2.619,12.528,12.528,0,0,1-2.939-.107,21.581,21.581,0,0,1-5.227-1.047c-6.019-2.287-7.881-9.246-7.87-15.051C-40.314,278.761-40.19,270.11-37.862,261.6Z" transform="translate(40.331 -204.105)" fill="#567a84"/><path d="M11.342,209.8q-13.517,33.375-26.13,67.105c-3.571,9.55-7.114,19.225-8.381,29.341,2.8-5.084,6.724-9.466,9.758-14.415a72.814,72.814,0,0,0,4.176-8.092C-3.92,271.984-.141,259.6,3.622,247.261,7.5,234.545,9.4,222.953,11.342,209.8c-1.267,2.828,4.032,26-7.753,59.811-1.718,4.931-3.251,9.959-5.777,14.528-4.774,8.635-12,18.016-20.982,22.108" transform="translate(32.247 -206.788)" fill="none" stroke="#7ea8af" stroke-linecap="round" stroke-linejoin="round" stroke-width="1.589"/><path d="M-24.536,274.447c-1.859,5.24-4.13,10.377-5.068,15.858s-.668,11.322,1.8,16.306c-4.329-7.807-6.388-17.062-4.648-25.817.915-4.6,2.851-24.75,26.378-59.291,2.812-4.128,7.656-6.716,11.561-9.809C5.733,215.582-9.607,232.379-24.536,274.447Z" transform="translate(36.912 -207.679)" fill="none" stroke="#7ea8af" stroke-linecap="round" stroke-linejoin="round" stroke-width="1.589"/></g><g transform="translate(0 47.796)"><path d="M-31.165,348.844c7.234-10.371,16.8-18.878,26.581-26.891C3.3,315.5,11.462,309.24,20.638,304.81a149.329,149.329,0,0,1,18-6.852l10.5-3.489c-5.841,18.424-7.242,38.367-16.023,55.584-4.061,7.961-9.578,15.075-15.173,22.043-11.856,14.766-25.106,29.747-43.02,35.884-2.543.871-5.276,1.555-7.9.966a17.011,17.011,0,0,1-3.715-1.476,29.334,29.334,0,0,1-6.216-3.722c-6.666-5.672-5.879-15.429-3.219-22.859C-42.123,369.694-38.022,358.674-31.165,348.844Z" transform="translate(48.079 -294.469)" fill="#466a72"/><path d="M51.884,300.789Q19.371,337.365-12.15,374.808c-8.924,10.6-17.868,21.375-24.1,33.752,5.906-5.232,12.922-9.057,19.063-14.013a99,99,0,0,0,9.035-8.458c12.163-12.632,22.643-26.764,33.086-40.852,10.76-14.515,18.471-28.493,26.952-44.448-2.911,3.044-6.685,35.13-37.179,73.053-4.447,5.53-8.7,11.27-14.016,15.97-10.046,8.881-23.58,17.6-36.94,18.747" transform="translate(42.507 -297.446)" fill="none" stroke="#7ea8af" stroke-linecap="round" stroke-linejoin="round" stroke-width="2.16"/><path d="M-17.6,368.859c-4.769,5.862-10.017,11.406-13.715,18s-6.014,14.194-5.127,21.7c-1.986-11.969-.407-24.758,5.812-35.175,3.267-5.474,14.928-30.392,60.792-63.9,5.481-4,12.863-5.112,19.273-7.292C47.975,307.276,20.679,321.8-17.6,368.859Z" transform="translate(42.98 -298.104)" fill="none" stroke="#7ea8af" stroke-linecap="round" stroke-linejoin="round" stroke-width="2.16"/></g></g><g transform="matrix(-0.921, 0.391, -0.391, -0.921, 125.545, 406.905)"><g transform="translate(0 0)"><path d="M26.753,20.091A168.193,168.193,0,0,1,13.33,30.68a23.272,23.272,0,0,1-4.752,2.938c-2.367.981-5.4,1.025-7.187-.813A5.558,5.558,0,0,1,.07,28.139a10.074,10.074,0,0,1,2.09-4.511,31.412,31.412,0,0,1,6.251-5.792q6.988-5.3,14.471-9.891A53.531,53.531,0,0,1,34.52,2.215C39.559.615,44.905.313,50.186.024c1.165-.064,2.505-.058,3.272.821-.058-.066-5.36,2.113-5.98,2.3a14.538,14.538,0,0,0-4.23,2.073,78.766,78.766,0,0,0-10.7,9.3C30.642,16.4,28.741,18.291,26.753,20.091Z" fill="#b4bf73"/><path d="M0,28.683l6.04-4.248c4.278-3.009,8.558-6.019,12.675-9.245C23.078,11.772,27.272,8.1,31.981,5.176S42.027.067,47.57,0" transform="translate(4.065 0.178)" fill="none" stroke="#878e49" stroke-linecap="round" stroke-linejoin="round" stroke-width="1.54"/><path d="M4.112,6.424A7.141,7.141,0,0,1,5.236,4.658,9.982,9.982,0,0,0,7.069,0,25.993,25.993,0,0,0,0,1.213" transform="translate(4.21 23.651)" fill="none" stroke="#878e49" stroke-linecap="round" stroke-linejoin="round" stroke-width="1.54"/><path d="M4.112,6.424A7.155,7.155,0,0,1,5.236,4.658,9.982,9.982,0,0,0,7.069,0,25.991,25.991,0,0,0,0,1.214" transform="translate(10.162 19.625)" fill="none" stroke="#878e49" stroke-linecap="round" stroke-linejoin="round" stroke-width="1.54"/><path d="M4.112,6.423A7.163,7.163,0,0,1,5.236,4.658,9.979,9.979,0,0,0,7.069,0,25.993,25.993,0,0,0,0,1.213" transform="translate(16.071 15.038)" fill="none" stroke="#878e49" stroke-linecap="round" stroke-linejoin="round" stroke-width="1.54"/><path d="M4.112,6.423A7.161,7.161,0,0,1,5.236,4.658,9.979,9.979,0,0,0,7.069,0,25.977,25.977,0,0,0,0,1.213" transform="translate(21.82 10.767)" fill="none" stroke="#878e49" stroke-linecap="round" stroke-linejoin="round" stroke-width="1.54"/><path d="M4.084,6.38A7.094,7.094,0,0,1,5.2,4.627,9.913,9.913,0,0,0,7.021,0,25.808,25.808,0,0,0,0,1.205" transform="translate(27.369 6.336)" fill="none" stroke="#878e49" stroke-linecap="round" stroke-linejoin="round" stroke-width="1.53"/><path d="M2.489,4.528a5.293,5.293,0,0,1,1-1.18A7.375,7.375,0,0,0,5.3.122,19.222,19.222,0,0,0,0,.3" transform="translate(34.636 3.121)" fill="none" stroke="#878e49" stroke-linecap="round" stroke-linejoin="round" stroke-width="1.138"/></g><g transform="translate(8.652 0.327)"><path d="M26.077,32.037a195.639,195.639,0,0,1-10.4,16.951A27.073,27.073,0,0,1,11.669,54.1c-2.19,2.022-5.486,3.288-8.172,2A6.466,6.466,0,0,1,.181,51.539a11.723,11.723,0,0,1,.47-5.764,36.552,36.552,0,0,1,4.5-8.834q5.5-8.587,11.824-16.609A62.265,62.265,0,0,1,27.376,9.4C32.235,5.632,37.95,3.156,43.6.719,44.844.181,46.31-.351,47.5.3c-.09-.049-5,4.46-5.606,4.908a16.905,16.905,0,0,0-3.785,3.962,91.618,91.618,0,0,0-7.94,14.452C28.84,26.444,27.525,29.274,26.077,32.037Z" transform="translate(0 0)" fill="#dae2ac"/><path d="M0,50.419l4.887-7.063c3.461-5,6.925-10.008,10.123-15.183C18.4,22.688,21.506,17,25.47,11.911S34.385,2.3,40.41,0" transform="translate(4.832 0.305)" fill="none" stroke="#a2ad64" stroke-linecap="round" stroke-linejoin="round" stroke-width="1.792"/><path d="M6.581,8.2A8.329,8.329,0,0,1,7.1,5.82,11.6,11.6,0,0,0,7.23,0,30.242,30.242,0,0,0,0,4.162" transform="translate(3.385 42.14)" fill="none" stroke="#a2ad64" stroke-linecap="round" stroke-linejoin="round" stroke-width="1.792"/><path d="M6.581,8.2A8.32,8.32,0,0,1,7.1,5.82,11.608,11.608,0,0,0,7.23,0,30.232,30.232,0,0,0,0,4.162" transform="translate(8.265 35.354)" fill="none" stroke="#a2ad64" stroke-linecap="round" stroke-linejoin="round" stroke-width="1.792"/><path d="M6.581,8.2A8.332,8.332,0,0,1,7.1,5.82,11.6,11.6,0,0,0,7.23,0,30.231,30.231,0,0,0,0,4.162" transform="translate(12.874 27.974)" fill="none" stroke="#a2ad64" stroke-linecap="round" stroke-linejoin="round" stroke-width="1.792"/><path d="M6.581,8.2A8.331,8.331,0,0,1,7.1,5.82,11.609,11.609,0,0,0,7.23,0,30.241,30.241,0,0,0,0,4.162" transform="translate(17.435 21.002)" fill="none" stroke="#a2ad64" stroke-linecap="round" stroke-linejoin="round" stroke-width="1.792"/><path d="M6.536,8.143A8.269,8.269,0,0,1,7.051,5.78,11.53,11.53,0,0,0,7.181,0,30.034,30.034,0,0,0,0,4.134" transform="translate(21.709 13.955)" fill="none" stroke="#a2ad64" stroke-linecap="round" stroke-linejoin="round" stroke-width="1.78"/><path d="M4.415,5.938a6.163,6.163,0,0,1,.618-1.69A8.579,8.579,0,0,0,5.711,0,22.338,22.338,0,0,0,0,2.324" transform="translate(27.988 8.351)" fill="none" stroke="#a2ad64" stroke-linecap="round" stroke-linejoin="round" stroke-width="1.324"/></g></g><g transform="translate(793.693 351.973) rotate(133)" opacity="0.57"><path d="M0,0C.027,21.032,13.8,39.381,28.116,54.786,41.1,68.753,55.447,82.028,72.873,89.773" transform="translate(45.493 0)" fill="none" stroke="#d3a562" stroke-miterlimit="10" stroke-width="2"/><path d="M29.05,0c-.679,8.766,3.789,17.042,8.459,24.49A280.726,280.726,0,0,0,55.795,50.3c6.476,8.127,13.449,15.938,21.6,22.378a89.922,89.922,0,0,0,36.829,17.3A125.043,125.043,0,0,1,44.393,64.268,137.551,137.551,0,0,1,0,4.287" transform="translate(0 2.378)" fill="none" stroke="#d3a562" stroke-miterlimit="10" stroke-width="2"/></g><path d="M20.293,61.267,39.968,43.276c9.58-8.763,19.23-17.577,30.26-24.492C91.515,5.436,117.181-.21,142.417.006s50.142,6.044,73.975,14.219c27.972,9.595,56.727,24.3,69.694,50.521C190.828,70.628,95.4,76.338,0,73.328" transform="matrix(0.978, 0.208, -0.208, 0.978, 41.604, 359.137)" fill="#997cff"/><path d="M40.043,9.5c21.994-14.473,53.966-12.16,73,5.283,15.311,14.033,23.119,36.477,42.62,44.331,16.453,6.626,35.177.357,52.927-2.261,25.1-3.7,53.043,1.278,69.819,19.425,17.526,18.959,57.677,78.228,115.54,78.422,16.661.055-43.891-.189-26.665.1s34.737-1.349,51.488,2.333c24.959,5.486,46.49,23.328,55.922,46.342-132.364,36.4-269.86,49.261-406.463,61.96-4.733.44-9.756.833-13.974-1.22-3.537-1.721-6-4.932-8.2-8.124C30.419,233.3,22.458,206.4,15.5,179.777,3.483,133.786-6.206,85.411,4.85,38.85c2.782-11.715,7.465-23.978,17.665-30.9" transform="matrix(0.788, -0.616, 0.616, 0.788, 442.846, 418.481)" fill="#ffa900"/><g transform="matrix(0.993, 0.122, -0.122, 0.993, 769.762, 319.114)"><g transform="translate(0 25.945)"><path d="M30.628,16.254A192.557,192.557,0,0,0,15.261,4.131,26.643,26.643,0,0,0,9.821.768C7.111-.356,3.636-.406,1.593,1.7A6.363,6.363,0,0,0,.08,7.041a11.533,11.533,0,0,0,2.393,5.165A35.962,35.962,0,0,0,9.63,18.837q8,6.062,16.567,11.324A61.285,61.285,0,0,0,39.52,36.72c5.77,1.832,11.89,2.177,17.935,2.508,1.334.073,2.868.067,3.746-.94-.066.076-6.136-2.42-6.846-2.628a16.644,16.644,0,0,1-4.843-2.374A90.178,90.178,0,0,1,37.268,22.635C35.081,20.481,32.9,18.315,30.628,16.254Z" transform="translate(0 0)" fill="#b4bf73"/><path d="M0,0,6.915,4.863c4.9,3.445,9.8,6.891,14.511,10.584,5,3.915,9.8,8.115,15.189,11.466s11.5,5.849,17.848,5.926" transform="translate(4.654 6.213)" fill="none" stroke="#878e49" stroke-linecap="round" stroke-linejoin="round" stroke-width="1.54"/><path d="M4.708,0A8.176,8.176,0,0,0,5.995,2.021a11.428,11.428,0,0,1,2.1,5.331A29.758,29.758,0,0,1,0,5.965" transform="translate(4.82 4.824)" fill="none" stroke="#878e49" stroke-linecap="round" stroke-linejoin="round" stroke-width="1.54"/><path d="M4.707,0A8.19,8.19,0,0,0,5.995,2.021a11.428,11.428,0,0,1,2.1,5.331A29.756,29.756,0,0,1,0,5.965" transform="translate(11.634 9.434)" fill="none" stroke="#878e49" stroke-linecap="round" stroke-linejoin="round" stroke-width="1.54"/><path d="M4.708,0A8.2,8.2,0,0,0,5.995,2.021a11.425,11.425,0,0,1,2.1,5.331A29.759,29.759,0,0,1,0,5.965" transform="translate(18.399 14.685)" fill="none" stroke="#878e49" stroke-linecap="round" stroke-linejoin="round" stroke-width="1.54"/><path d="M4.707,0A8.2,8.2,0,0,0,5.994,2.021a11.424,11.424,0,0,1,2.1,5.331A29.74,29.74,0,0,1,0,5.965" transform="translate(24.982 19.575)" fill="none" stroke="#878e49" stroke-linecap="round" stroke-linejoin="round" stroke-width="1.54"/><path d="M4.675,0A8.122,8.122,0,0,0,5.954,2.008,11.349,11.349,0,0,1,8.038,7.3,29.547,29.547,0,0,1,0,5.924" transform="translate(31.334 24.698)" fill="none" stroke="#878e49" stroke-linecap="round" stroke-linejoin="round" stroke-width="1.53"/><path d="M2.849,0A6.061,6.061,0,0,0,3.994,1.351,8.444,8.444,0,0,1,6.066,5.045,22.007,22.007,0,0,1,0,4.839" transform="translate(39.653 30.498)" fill="none" stroke="#878e49" stroke-linecap="round" stroke-linejoin="round" stroke-width="1.138"/></g><g transform="translate(9.906 0)"><path d="M29.855,28.149A223.981,223.981,0,0,0,17.948,8.742,31,31,0,0,0,13.36,2.885C10.853.571,7.08-.879,4,.6a7.4,7.4,0,0,0-3.8,5.224,13.422,13.422,0,0,0,.538,6.6A41.847,41.847,0,0,0,5.895,22.534q6.3,9.831,13.537,19.016a71.284,71.284,0,0,0,11.91,12.513C36.905,58.379,43.448,61.214,49.914,64c1.427.616,3.1,1.225,4.468.479-.1.056-5.727-5.106-6.418-5.619a19.354,19.354,0,0,1-4.333-4.536c-3.671-5.135-6.408-10.854-9.09-16.546C33.018,34.551,31.512,31.312,29.855,28.149Z" transform="translate(0)" fill="#dae2ac"/><path d="M0,0,5.595,8.086c3.963,5.727,7.928,11.458,11.59,17.382,3.883,6.28,7.436,12.794,11.975,18.617s10.206,11,17.1,13.637" transform="translate(5.532 6.755)" fill="none" stroke="#a2ad64" stroke-linecap="round" stroke-linejoin="round" stroke-width="1.792"/><path d="M7.535,0a9.536,9.536,0,0,0,.593,2.724,13.285,13.285,0,0,1,.15,6.663A34.623,34.623,0,0,1,0,4.621" transform="translate(3.876 7.196)" fill="none" stroke="#a2ad64" stroke-linecap="round" stroke-linejoin="round" stroke-width="1.792"/><path d="M7.535,0a9.526,9.526,0,0,0,.593,2.724,13.289,13.289,0,0,1,.15,6.663A34.611,34.611,0,0,1,0,4.621" transform="translate(9.463 14.965)" fill="none" stroke="#a2ad64" stroke-linecap="round" stroke-linejoin="round" stroke-width="1.792"/><path d="M7.535,0a9.539,9.539,0,0,0,.593,2.724,13.285,13.285,0,0,1,.15,6.663A34.611,34.611,0,0,1,0,4.621" transform="translate(14.739 23.414)" fill="none" stroke="#a2ad64" stroke-linecap="round" stroke-linejoin="round" stroke-width="1.792"/><path d="M7.534,0a9.537,9.537,0,0,0,.593,2.724,13.291,13.291,0,0,1,.15,6.663A34.622,34.622,0,0,1,0,4.621" transform="translate(19.961 31.396)" fill="none" stroke="#a2ad64" stroke-linecap="round" stroke-linejoin="round" stroke-width="1.792"/><path d="M7.483,0a9.467,9.467,0,0,0,.59,2.705,13.2,13.2,0,0,1,.149,6.617A34.385,34.385,0,0,1,0,4.59" transform="translate(24.854 39.527)" fill="none" stroke="#a2ad64" stroke-linecap="round" stroke-linejoin="round" stroke-width="1.78"/><path d="M5.054,0a7.056,7.056,0,0,0,.707,1.935A9.821,9.821,0,0,1,6.539,6.8,25.574,25.574,0,0,1,0,4.138" transform="translate(32.043 48.467)" fill="none" stroke="#a2ad64" stroke-linecap="round" stroke-linejoin="round" stroke-width="1.324"/></g></g><g transform="translate(111.038 316.812)"><g transform="translate(9.362 51.348)"><g transform="translate(26.28)"><path d="M502.72,446.434a14.471,14.471,0,0,1,2.8-6.009,1.615,1.615,0,0,1,2.467.131,6.958,6.958,0,0,1,.85,1.5,2.857,2.857,0,0,1,2.215-.843,1.376,1.376,0,0,1,1.136,1.774c.756-.976,2.493-.343,2.943.807a5.141,5.141,0,0,1-.392,3.6c-1.984,5.3-4.513,10.617-4.384,16.273,1.949-4.946,4.212-9.762,6.473-14.574a22.375,22.375,0,0,1,3.5-5.807,1.184,1.184,0,0,1,1.966.365,4.817,4.817,0,0,1,.291,1.157,1.606,1.606,0,0,1,3.1.832,1.906,1.906,0,0,1,2.07.273,3.885,3.885,0,0,0,.8.716,4.806,4.806,0,0,0,1.029.195,2.157,2.157,0,0,1,1.442,2.277,6,6,0,0,1-1.082,2.691,83.859,83.859,0,0,1-12.169,15.391,50.856,50.856,0,0,0,11.857-11.173,9.926,9.926,0,0,1,3.153-3.122,1.5,1.5,0,0,1,.6,1.687c.281-.519,1.069-.176,1.512.212l2.812,2.468a1.79,1.79,0,0,1,.278,2.776,28.744,28.744,0,0,1-7.692,9.439c-6.5,4.879-16.123,5.3-22.811.688C499.643,464.748,500.49,454.52,502.72,446.434Z" transform="translate(-501.175 -439.914)" fill="#f4c245"/><g transform="translate(1.839 5.778)"><path d="M505.749,449.746a33.811,33.811,0,0,0-1.712,11.437c-.028,1.575.03,3.3,1.071,4.487" transform="translate(-504.033 -449.198)" fill="none" stroke="#ffdf97" stroke-linecap="round" stroke-linejoin="round" stroke-width="0.911"/><path d="M509.182,465.119a24.8,24.8,0,0,0,.348,8.624" transform="translate(-505.789 -454.68)" fill="none" stroke="#ffdf97" stroke-linecap="round" stroke-linejoin="round" stroke-width="0.911"/><path d="M515.339,455.135a23.933,23.933,0,0,0-1.036,8.486" transform="translate(-507.68 -451.12)" fill="none" stroke="#ffdf97" stroke-linecap="round" stroke-linejoin="round" stroke-width="0.911"/><path d="M512.133,448.895a23.466,23.466,0,0,0-1.746,5.7" transform="translate(-506.298 -448.895)" fill="none" stroke="#ffdf97" stroke-linecap="round" stroke-linejoin="round" stroke-width="0.911"/><path d="M513.609,472.718a21.008,21.008,0,0,0,.165,4.414" transform="translate(-507.43 -457.39)" fill="none" stroke="#ffdf97" stroke-linecap="round" stroke-linejoin="round" stroke-width="0.911"/><path d="M524,459.506a55.07,55.07,0,0,0-3.8,7.736" transform="translate(-509.796 -452.679)" fill="none" stroke="#ffdf97" stroke-linecap="round" stroke-linejoin="round" stroke-width="0.911"/><path d="M523.519,465.84q-3.758,5.946-7.833,11.683" transform="translate(-508.188 -454.938)" fill="none" stroke="#ffdf97" stroke-linecap="round" stroke-linejoin="round" stroke-width="0.911"/><path d="M522.482,480.577l-3.368,3.3" transform="translate(-509.411 -460.193)" fill="none" stroke="#ffdf97" stroke-linecap="round" stroke-linejoin="round" stroke-width="0.911"/><path d="M531.488,468.952a38.9,38.9,0,0,1-2.351,3.367" transform="translate(-512.985 -456.047)" fill="none" stroke="#ffdf97" stroke-linecap="round" stroke-linejoin="round" stroke-width="0.911"/><path d="M535.868,455.636l-2.419,3.67" transform="translate(-514.522 -451.299)" fill="none" stroke="#ffdf97" stroke-linecap="round" stroke-linejoin="round" stroke-width="0.911"/><path d="M539.964,455.59a26.9,26.9,0,0,1-3.5,5.073" transform="translate(-515.599 -451.282)" fill="none" stroke="#ffdf97" stroke-linecap="round" stroke-linejoin="round" stroke-width="0.911"/><path d="M531.639,452.447q-1.914,2.553-3.574,5.281" transform="translate(-512.602 -450.162)" fill="none" stroke="#ffdf97" stroke-linecap="round" stroke-linejoin="round" stroke-width="0.911"/><path d="M545.478,469.455l-.923,1.1c-.554.659-1.109,1.319-1.717,1.929a15.28,15.28,0,0,1-3.9,2.83" transform="translate(-516.481 -456.227)" fill="none" stroke="#ffdf97" stroke-linecap="round" stroke-linejoin="round" stroke-width="0.911"/><path d="M543.29,479.343a50.28,50.28,0,0,1-9.194,5.623" transform="translate(-514.753 -459.753)" fill="none" stroke="#ffdf97" stroke-linecap="round" stroke-linejoin="round" stroke-width="0.911"/><path d="M534.132,482.463a14.7,14.7,0,0,1-5.1,2.4" transform="translate(-512.946 -460.865)" fill="none" stroke="#ffdf97" stroke-linecap="round" stroke-linejoin="round" stroke-width="0.911"/><path d="M526.9,489.065a8.882,8.882,0,0,1-4.456.316" transform="translate(-510.597 -463.22)" fill="none" stroke="#ffdf97" stroke-linecap="round" stroke-linejoin="round" stroke-width="0.911"/><path d="M507.362,479.2a7.008,7.008,0,0,0,1.646,2.424" transform="translate(-505.22 -459.701)" fill="none" stroke="#ffdf97" stroke-linecap="round" stroke-linejoin="round" stroke-width="0.911"/><path d="M553.482,469.815A6.1,6.1,0,0,1,551.488,472" transform="translate(-520.955 -456.355)" fill="none" stroke="#ffdf97" stroke-linecap="round" stroke-linejoin="round" stroke-width="0.911"/></g></g><path d="M509.7,475.626c-.894-.133-.344,4.325-.481,5.218a6.969,6.969,0,0,0-3.86-3.93.641.641,0,0,0-.469-.055c-.285.116-.27.524-.178.818a9.909,9.909,0,0,0,2.86,3.877l-3.77-2.709a2.8,2.8,0,0,0-.948-.51.95.95,0,0,0-.981.287c-.345.468,0,1.126.389,1.559,1.765,1.969,4.38,2.9,6.57,4.387,1.409.954,2.651,2.144,4.1,3.032a23.715,23.715,0,0,0,2.144,1.121,2.186,2.186,0,0,0,.968.289.747.747,0,0,0,.747-.566,7.84,7.84,0,0,0-2.686-1.864,4.967,4.967,0,0,0,3.548,1.062,1.42,1.42,0,0,0,1.279-.736,1.1,1.1,0,0,0-.452-1.192,3.234,3.234,0,0,0-1.267-.479l-4.493-1.008a6.639,6.639,0,0,0,2.243-.342,1.933,1.933,0,0,0,1.176-.838.825.825,0,0,0-.466-1.183,1.232,1.232,0,0,0-.77.235c-.454.261-1.892.932-2.346,1.193.467-.695,1.917-1.8,2.384-2.494a1.578,1.578,0,0,0,.379-1.031c-.154-1.176-1.652-.717-2.215-.235-.4.341-2.045,2.417-2.045,2.417C511.313,482.14,511.563,475.9,509.7,475.626Z" transform="translate(-475.091 -452.648)" fill="#7b823c"/><path d="M496.256,486.527A111.5,111.5,0,0,1,460.329,529" transform="translate(-460.329 -456.536)" fill="none" stroke="#7b823b" stroke-miterlimit="10" stroke-width="1.366"/></g><g transform="translate(16.044 -49)"><path d="M446.18,374.855c-.418-2.9-.721-6.04.209-8.737a2.128,2.128,0,0,1,3.048-1.145,9.151,9.151,0,0,1,1.819,1.363,3.769,3.769,0,0,1,2.231-2.188,1.814,1.814,0,0,1,2.31,1.543c.4-1.579,2.83-1.732,3.981-.58s1.338,2.927,1.425,4.553c.4,7.447.156,15.209,3.3,21.972-.259-7-.069-14.016.121-21.023a29.5,29.5,0,0,1,1.159-8.863,1.561,1.561,0,0,1,2.567-.6,6.34,6.34,0,0,1,.963,1.244,2.118,2.118,0,0,1,4.178-.631,2.513,2.513,0,0,1,2.644-.764,5.114,5.114,0,0,0,1.343.443,6.284,6.284,0,0,0,1.346-.308,2.845,2.845,0,0,1,2.944,1.989,7.909,7.909,0,0,1,.115,3.823,110.565,110.565,0,0,1-6.57,25.019,67.045,67.045,0,0,0,8.421-19.759c.471-1.911.9-3.925,2.159-5.436a1.972,1.972,0,0,1,1.621,1.718c.065-.774,1.2-.778,1.939-.542l4.7,1.5a2.359,2.359,0,0,1,1.8,3.207,37.887,37.887,0,0,1-4.3,15.464c-5.269,9.325-16.676,14.92-27.191,12.88C452.137,398.6,447.758,385.8,446.18,374.855Z" transform="translate(-445.779 -360.107)" fill="#f4c245"/><g transform="translate(2.728 6.032)"><path d="M450.019,381.014c.254,5.1,2.009,10,3.973,14.72.8,1.917,1.782,3.975,3.662,4.854" transform="translate(-450.019 -373.594)" fill="none" stroke="#ffdf97" stroke-linecap="round" stroke-linejoin="round" stroke-width="1.201"/><path d="M461.285,398.208a32.687,32.687,0,0,0,4.975,10.233" transform="translate(-454.036 -379.725)" fill="none" stroke="#ffdf97" stroke-linecap="round" stroke-linejoin="round" stroke-width="1.201"/><path d="M464.02,382.646a31.543,31.543,0,0,0,3.23,10.8" transform="translate(-455.012 -374.176)" fill="none" stroke="#ffdf97" stroke-linecap="round" stroke-linejoin="round" stroke-width="1.201"/><path d="M457.3,376.606a30.968,30.968,0,0,0,.9,7.812" transform="translate(-452.614 -372.022)" fill="none" stroke="#ffdf97" stroke-linecap="round" stroke-linejoin="round" stroke-width="1.201"/><path d="M470.529,405.1a27.7,27.7,0,0,0,2.531,5.244" transform="translate(-457.333 -382.183)" fill="none" stroke="#ffdf97" stroke-linecap="round" stroke-linejoin="round" stroke-width="1.201"/><path d="M478.309,382.555a72.618,72.618,0,0,0-.509,11.354" transform="translate(-459.911 -374.143)" fill="none" stroke="#ffdf97" stroke-linecap="round" stroke-linejoin="round" stroke-width="1.201"/><path d="M482.256,389.279q-1.4,9.167-3.292,18.25" transform="translate(-460.341 -376.541)" fill="none" stroke="#ffdf97" stroke-linecap="round" stroke-linejoin="round" stroke-width="1.201"/><path d="M486.33,408.935,484,414.695" transform="translate(-462.137 -383.55)" fill="none" stroke="#ffdf97" stroke-linecap="round" stroke-linejoin="round" stroke-width="1.201"/><path d="M491.09,390.434a51.393,51.393,0,0,1-1.061,5.309" transform="translate(-464.287 -376.953)" fill="none" stroke="#ffdf97" stroke-linecap="round" stroke-linejoin="round" stroke-width="1.201"/><path d="M489.435,372.016q-.491,2.856-.983,5.711" transform="translate(-463.724 -370.385)" fill="none" stroke="#ffdf97" stroke-linecap="round" stroke-linejoin="round" stroke-width="1.201"/><path d="M494.769,369.481a35.476,35.476,0,0,1-1.543,7.974" transform="translate(-465.427 -369.481)" fill="none" stroke="#ffdf97" stroke-linecap="round" stroke-linejoin="round" stroke-width="1.201"/><path d="M483.114,370.059q-.962,4.094-1.528,8.267" transform="translate(-461.276 -369.687)" fill="none" stroke="#ffdf97" stroke-linecap="round" stroke-linejoin="round" stroke-width="1.201"/><path d="M508.982,382.427l-.535,1.812c-.322,1.089-.643,2.179-1.056,3.237a20.164,20.164,0,0,1-3.211,5.477" transform="translate(-469.333 -374.098)" fill="none" stroke="#ffdf97" stroke-linecap="round" stroke-linejoin="round" stroke-width="1.201"/><path d="M511.495,394.749a66.323,66.323,0,0,1-8.136,11.647" transform="translate(-469.04 -378.492)" fill="none" stroke="#ffdf97" stroke-linecap="round" stroke-linejoin="round" stroke-width="1.201"/><path d="M501.136,404.552a19.381,19.381,0,0,1-4.9,5.595" transform="translate(-466.501 -381.987)" fill="none" stroke="#ffdf97" stroke-linecap="round" stroke-linejoin="round" stroke-width="1.201"/><path d="M495.276,416.537a11.73,11.73,0,0,1-5.217,2.736" transform="translate(-464.297 -386.261)" fill="none" stroke="#ffdf97" stroke-linecap="round" stroke-linejoin="round" stroke-width="1.201"/><path d="M466.373,416.242a9.24,9.24,0,0,0,3.268,2.058" transform="translate(-455.851 -386.156)" fill="none" stroke="#ffdf97" stroke-linecap="round" stroke-linejoin="round" stroke-width="1.201"/><path d="M517.765,379.964a8.031,8.031,0,0,1-1.256,3.688" transform="translate(-473.729 -373.219)" fill="none" stroke="#ffdf97" stroke-linecap="round" stroke-linejoin="round" stroke-width="1.201"/></g><path d="M468.266,408.341c-1.15.311,1.869,5.406,2.175,6.557a9.185,9.185,0,0,0-6.739-2.709.845.845,0,0,0-.6.182c-.283.29-.05.775.217,1.082,1.407,1.613,3.5,2.422,5.5,3.173l-5.985-1.28a3.676,3.676,0,0,0-1.414-.115,1.252,1.252,0,0,0-1.034.865c-.17.748.6,1.36,1.293,1.677,3.173,1.446,6.826,1.195,10.254,1.829,2.2.409,4.335,1.189,6.556,1.5a31.28,31.28,0,0,0,3.182.221,2.872,2.872,0,0,0,1.322-.161.986.986,0,0,0,.6-1.078,10.337,10.337,0,0,0-4.23-.833,6.55,6.55,0,0,0,4.848-.591c.6-.333,1.2-.881,1.156-1.565a1.457,1.457,0,0,0-1.175-1.2,4.27,4.27,0,0,0-1.783.09l-5.961,1.156a8.724,8.724,0,0,0,2.529-1.6,2.546,2.546,0,0,0,.978-1.634c.037-.65-.558-1.349-1.188-1.183a1.622,1.622,0,0,0-.806.691c-.411.555-1.793,2.125-2.2,2.68.2-1.086,1.365-3.187,1.562-4.272a2.081,2.081,0,0,0-.087-1.446c-.807-1.34-2.373.006-2.8.886-.3.621-1.194,4-1.194,4C473.66,415.356,470.668,407.691,468.266,408.341Z" transform="translate(-450.982 -377.293)" fill="#7b823c"/><path d="M469.264,420.443A147,147,0,0,1,448.3,490.727" transform="translate(-446.678 -381.623)" fill="none" stroke="#7b823b" stroke-miterlimit="10" stroke-width="1.801"/></g></g><path d="M20.293,61.267,39.968,43.276c9.58-8.763,19.23-17.577,30.26-24.492C91.515,5.436,117.181-.21,142.417.006s50.142,6.044,73.975,14.219c27.972,9.595,56.727,24.3,69.694,50.521C190.828,70.628,95.4,76.338,0,73.328" transform="translate(582.16 376.633) rotate(-1)" fill="#997cff"/><g transform="translate(134.567 289.122) rotate(11)"><g transform="translate(4.586 39.313)"><path d="M47.179,21.91A285.272,285.272,0,0,1,70.986,5.326a39.508,39.508,0,0,1,8.346-4.5c4.108-1.423,9.254-1.191,12.092,2.1a9.432,9.432,0,0,1,1.767,8.037,17.1,17.1,0,0,1-4,7.431c-3.149,3.671-7.152,6.494-11.174,9.181q-12.371,8.266-25.51,15.3c-6.487,3.47-13.161,6.728-20.292,8.533-8.7,2.2-17.786,2.173-26.759,2.131-1.98-.009-4.25-.154-5.461-1.721.091.118,9.293-3.04,10.362-3.285a24.647,24.647,0,0,0,7.374-3.086c6.907-4.122,13.021-9.4,19.057-14.681C40.219,27.773,43.63,24.758,47.179,21.91Z" transform="translate(0 0)" fill="#b4bf73"/><path d="M83.477,0,72.817,6.587c-7.55,4.666-15.1,9.334-22.4,14.382C42.676,26.321,35.2,32.114,26.93,36.6S9.4,44.238,0,43.792" transform="translate(3.02 9.341)" fill="none" stroke="#878e49" stroke-linecap="round" stroke-linejoin="round" stroke-width="1.84"/><path d="M5.658,0A12.132,12.132,0,0,1,3.575,2.877,16.931,16.931,0,0,0,0,10.581c4.059.3,8.11-.52,12.1-1.34" transform="translate(73.75 6.857)" fill="none" stroke="#878e49" stroke-linecap="round" stroke-linejoin="round" stroke-width="1.84"/><path d="M5.658,0A12.157,12.157,0,0,1,3.575,2.877,16.94,16.94,0,0,0,0,10.58c4.06.3,8.11-.52,12.1-1.34" transform="translate(63.262 13.077)" fill="none" stroke="#878e49" stroke-linecap="round" stroke-linejoin="round" stroke-width="1.84"/><path d="M5.658,0A12.153,12.153,0,0,1,3.575,2.877,16.928,16.928,0,0,0,0,10.581c4.059.3,8.11-.521,12.1-1.34" transform="translate(52.79 20.251)" fill="none" stroke="#878e49" stroke-linecap="round" stroke-linejoin="round" stroke-width="1.84"/><path d="M5.658,0A12.146,12.146,0,0,1,3.575,2.877,16.939,16.939,0,0,0,0,10.581c4.06.3,8.11-.521,12.1-1.34" transform="translate(42.619 26.906)" fill="none" stroke="#878e49" stroke-linecap="round" stroke-linejoin="round" stroke-width="1.84"/><path d="M5.619,0A12.07,12.07,0,0,1,3.551,2.858,16.815,16.815,0,0,0,0,10.509c4.032.3,8.054-.516,12.015-1.331" transform="translate(32.855 33.93)" fill="none" stroke="#878e49" stroke-linecap="round" stroke-linejoin="round" stroke-width="1.828"/><path d="M5.2,0A8.959,8.959,0,0,1,3.389,1.9,12.512,12.512,0,0,0,0,7.181a32.581,32.581,0,0,0,8.993.231" transform="translate(23.152 41.939)" fill="none" stroke="#878e49" stroke-linecap="round" stroke-linejoin="round" stroke-width="1.36"/></g><g transform="translate(0 0)"><path d="M39.49,39.629C45.3,29.987,52.064,20.965,58.819,11.963a45.966,45.966,0,0,1,7.3-8.261C70.035.5,75.747-1.315,80.168,1.141A10.972,10.972,0,0,1,85.325,9.2a19.9,19.9,0,0,1-1.378,9.717c-1.963,5.272-5.2,9.962-8.51,14.51q-10.185,13.992-21.7,26.944c-5.687,6.393-11.665,12.63-18.725,17.464-8.612,5.9-18.543,9.516-28.355,13.074-2.166.785-4.7,1.539-6.653.314.147.092,8.923-7.051,9.992-7.748A28.691,28.691,0,0,0,16.8,77.15c5.885-7.275,10.437-15.5,14.907-23.681C34.246,48.824,36.76,44.164,39.49,39.629Z" transform="translate(0 0)" fill="#dae2ac"/><path d="M73.539,0l-8.99,11.472C58.18,19.6,51.809,27.727,45.868,36.17c-6.3,8.951-12.13,18.276-19.36,26.492S10.438,78.045,0,81.333" transform="translate(3.824 10.117)" fill="none" stroke="#a2ad64" stroke-linecap="round" stroke-linejoin="round" stroke-width="2.14"/><path d="M2.216,0A14.128,14.128,0,0,1,1.1,3.977a19.693,19.693,0,0,0-.81,9.845C4.843,12.524,8.934,10,12.957,7.5" transform="translate(66.411 10.252)" fill="none" stroke="#a2ad64" stroke-linecap="round" stroke-linejoin="round" stroke-width="2.14"/><path d="M2.216,0A14.145,14.145,0,0,1,1.1,3.977a19.7,19.7,0,0,0-.809,9.845C4.843,12.524,8.933,10,12.957,7.5" transform="translate(57.461 21.254)" fill="none" stroke="#a2ad64" stroke-linecap="round" stroke-linejoin="round" stroke-width="2.14"/><path d="M2.216,0A14.145,14.145,0,0,1,1.1,3.978a19.7,19.7,0,0,0-.809,9.845C4.843,12.525,8.933,10,12.957,7.5" transform="translate(48.909 33.291)" fill="none" stroke="#a2ad64" stroke-linecap="round" stroke-linejoin="round" stroke-width="2.14"/><path d="M2.216,0A14.111,14.111,0,0,1,1.1,3.977a19.7,19.7,0,0,0-.809,9.845C4.843,12.524,8.934,10,12.957,7.5" transform="translate(40.479 44.642)" fill="none" stroke="#a2ad64" stroke-linecap="round" stroke-linejoin="round" stroke-width="2.14"/><path d="M2.2,0a14.047,14.047,0,0,1-1.11,3.951,19.558,19.558,0,0,0-.8,9.778c4.523-1.29,8.585-3.8,12.582-6.278" transform="translate(32.614 56.246)" fill="none" stroke="#a2ad64" stroke-linecap="round" stroke-linejoin="round" stroke-width="2.126"/><path d="M2.805,0A10.444,10.444,0,0,1,1.588,2.8,14.56,14.56,0,0,0,.01,9.929a37.887,37.887,0,0,0,9.909-3.36" transform="translate(24.18 69.055)" fill="none" stroke="#a2ad64" stroke-linecap="round" stroke-linejoin="round" stroke-width="1.582"/></g></g><g transform="matrix(0.819, -0.574, 0.574, 0.819, 782.402, 291.645)"><g transform="matrix(0.966, -0.259, 0.259, 0.966, 0, 29.442)"><path d="M19.792,63.627C28.257,51.491,39.45,41.537,50.9,32.16,60.121,24.6,69.672,17.285,80.409,12.1a174.739,174.739,0,0,1,21.059-8.018L113.756,0c-6.835,21.559-8.474,44.9-18.749,65.043C90.255,74.358,83.8,82.683,77.251,90.837c-13.874,17.278-29.378,34.809-50.34,41.99-2.975,1.019-6.174,1.819-9.243,1.131a19.9,19.9,0,0,1-4.347-1.727,34.325,34.325,0,0,1-7.274-4.355c-7.8-6.637-6.879-18.055-3.767-26.749C6.97,88.026,11.768,75.13,19.792,63.627Z" transform="translate(0 0)" fill="#466a72"/><path d="M103.133,0Q65.087,42.8,28.2,86.614C17.76,99.02,7.294,111.626,0,126.109c6.911-6.123,15.121-10.6,22.306-16.4a115.84,115.84,0,0,0,10.572-9.9c14.233-14.781,26.5-31.318,38.716-47.8C84.185,35.026,93.209,18.67,103.133,0,99.726,3.562,95.31,41.108,59.627,85.484c-5.2,6.471-10.18,13.188-16.4,18.688C31.47,114.564,15.634,124.766,0,126.109" transform="translate(7.321 3.912)" fill="none" stroke="#7ea8af" stroke-linecap="round" stroke-linejoin="round" stroke-width="2.16"/><path d="M22.994,78.02c-5.58,6.86-11.721,13.347-16.049,21.058s-7.038,16.609-6,25.391C-1.379,110.463.469,95.5,7.746,83.307,11.569,76.9,25.214,47.743,78.882,8.533,85.3,3.847,93.934,2.551,101.435,0,99.732,5.958,67.792,22.948,22.994,78.02Z" transform="translate(6.7 4.776)" fill="none" stroke="#7ea8af" stroke-linecap="round" stroke-linejoin="round" stroke-width="2.16"/></g></g><g transform="translate(599.404 343.655) rotate(-27)"><g transform="translate(0.359 0)"><path d="M2.7,16.616A13.13,13.13,0,0,1,.181,6.725a3.744,3.744,0,0,1,1.9-2.949c1.265-.518,2.666.207,3.838.91A4.9,4.9,0,0,1,8.61.481a6.051,6.051,0,0,1,6.62,1.387,10.983,10.983,0,0,1,2.9,6.452c.645,4.632.591,9.832-2.069,13.677-.714,1.032-2.474,2.625-7.188.093A18.411,18.411,0,0,1,2.7,16.616Z" transform="translate(0 0)" fill="#cdd2e8"/><path d="M0,0A71.068,71.068,0,0,0,2.953,7.72c2.058,4.564,4.856,9.156,9.353,11.356" transform="translate(6.662 5.404)" fill="none" stroke="#ef9c95" stroke-linecap="round" stroke-linejoin="round" stroke-width="1.683"/><path d="M0,3.54,5.019,5.805c.093.042.216.079.286,0a.252.252,0,0,0,.051-.122L6.6,0" transform="translate(3.88 5.935)" fill="none" stroke="#ef9c95" stroke-linecap="round" stroke-linejoin="round" stroke-width="1.122"/><path d="M9.946,0c-.5,3.978-1.024,8.051-2.866,11.613A19.471,19.471,0,0,1,0,8.555" transform="translate(3.817 4.564)" fill="none" stroke="#ef9c95" stroke-linecap="round" stroke-linejoin="round" stroke-width="1.122"/><path d="M0,5.095,6.23,6.324A37.177,37.177,0,0,0,7.775,0" transform="translate(6.807 13.427)" fill="none" stroke="#ef9c95" stroke-linecap="round" stroke-linejoin="round" stroke-width="1.122"/></g><g transform="translate(0 20.261)"><path d="M5.306,0A16.789,16.789,0,0,0,8.487,10.051a16.786,16.786,0,0,0,8.581,6.124,14.947,14.947,0,0,1-9.38-.926A23,23,0,0,1,0,9.631" transform="translate(3.273 2.23)" fill="none" stroke="#c45b53" stroke-linecap="round" stroke-linejoin="round" stroke-width="1.122"/><path d="M1.59,7.468A7.23,7.23,0,0,1,.629,0" transform="translate(13.743 8.393)" fill="none" stroke="#c45b53" stroke-linecap="round" stroke-linejoin="round" stroke-width="1.122"/><path d="M5.1,6.218A6.747,6.747,0,0,1,3.011,4.312L1.323,2.269A5.475,5.475,0,0,1,0,0" transform="translate(5.452 4.017)" fill="none" stroke="#c45b53" stroke-linecap="round" stroke-linejoin="round" stroke-width="1.122"/><path d="M9.016,1.264a8.254,8.254,0,0,1-1.527.385,7.3,7.3,0,0,1-2.235-.167A31.856,31.856,0,0,1,0,0" transform="translate(2.687 16.708)" fill="none" stroke="#c45b53" stroke-linecap="round" stroke-linejoin="round" stroke-width="1.122"/><path d="M.108,1.137A1.737,1.737,0,1,0,2.338.108,1.737,1.737,0,0,0,.108,1.137Z" transform="translate(12.916 5.671)" fill="#fcf9f2"/><path d="M.108,1.136A1.737,1.737,0,1,0,2.338.108,1.737,1.737,0,0,0,.108,1.136Z" transform="translate(7.24 0)" fill="#fcf9f2"/><path d="M.108,1.137A1.737,1.737,0,1,0,2.338.108,1.737,1.737,0,0,0,.108,1.137Z" transform="translate(3.529 2.784)" fill="#fcf9f2"/><path d="M.108,1.137A1.737,1.737,0,1,0,2.338.108,1.737,1.737,0,0,0,.108,1.137Z" transform="translate(1.68 9.731)" fill="#fcf9f2"/><path d="M.108,1.137A1.737,1.737,0,1,0,2.338.108,1.736,1.736,0,0,0,.108,1.137Z" transform="translate(0 14.622)" fill="#fcf9f2"/></g><path d="M.235,0A102.635,102.635,0,0,0,14.714,59.742c4.112,6.793,9.15,13.224,15.817,17.538" transform="translate(19.525 18.27)" fill="none" stroke="#ef9c95" stroke-linecap="round" stroke-linejoin="round" stroke-width="3.135"/><g transform="translate(19.362 10.167)"><path d="M12.03,14.532a10.48,10.48,0,0,0,3.806-7.2,2.987,2.987,0,0,0-.918-2.643c-.884-.638-2.107-.339-3.148-.014a3.91,3.91,0,0,0-1.3-3.767A4.829,4.829,0,0,0,5.073.74,8.764,8.764,0,0,0,1.613,5.2c-1.369,3.472-2.3,7.516-.96,11,.36.934,1.427,2.5,5.558,1.42A14.7,14.7,0,0,0,12.03,14.532Z" transform="translate(2.068 0)" fill="#b2bad1"/><path d="M13.124,0A56.657,56.657,0,0,1,9.385,5.435C6.933,8.589,3.9,11.627,0,12.49" transform="translate(0 5.09)" fill="none" stroke="#ef9c95" stroke-linecap="round" stroke-linejoin="round" stroke-width="1.343"/><path d="M4.558,3.983.24,4.8c-.08.015-.183.021-.223-.05A.2.2,0,0,1,0,4.645L.1,0" transform="translate(9.96 4.787)" fill="none" stroke="#ef9c95" stroke-linecap="round" stroke-linejoin="round" stroke-width="0.895"/><path d="M.405,0C.045,3.18-.31,6.438.45,9.546A15.535,15.535,0,0,0,6.516,8.5" transform="translate(7.367 3.107)" fill="none" stroke="#ef9c95" stroke-linecap="round" stroke-linejoin="round" stroke-width="0.895"/><path d="M5.184,5.411.12,5.2A29.669,29.669,0,0,1,.108,0" transform="translate(5.368 9.828)" fill="none" stroke="#ef9c95" stroke-linecap="round" stroke-linejoin="round" stroke-width="0.895"/></g><g transform="translate(34.086 51.865)"><path d="M17.885,17.25A14.443,14.443,0,0,0,19.463,6.134a4.118,4.118,0,0,0-2.423-3c-1.445-.416-2.891.543-4.09,1.45A5.389,5.389,0,0,0,9.5.3a6.658,6.658,0,0,0-7.076,2.3,12.08,12.08,0,0,0-2.407,7.4C-.136,15.148.54,20.829,3.906,24.719c.9,1.044,3.017,2.578,7.872-.751A20.256,20.256,0,0,0,17.885,17.25Z" transform="translate(0 0)" fill="#b2bad1"/><path d="M11.2,0A78.154,78.154,0,0,1,8.882,8.794C7.172,14.029,4.657,19.383,0,22.322" transform="translate(1.021 5.457)" fill="none" stroke="#ef9c95" stroke-linecap="round" stroke-linejoin="round" stroke-width="1.851"/><path d="M7.637,3.089,2.417,6.162c-.1.057-.227.112-.313.039a.272.272,0,0,1-.07-.127L0,0" transform="translate(8.105 6.492)" fill="none" stroke="#ef9c95" stroke-linecap="round" stroke-linejoin="round" stroke-width="1.234"/><path d="M0,0C1.016,4.292,2.075,8.684,4.511,12.361a21.414,21.414,0,0,0,7.381-4.183" transform="translate(4.352 5.382)" fill="none" stroke="#ef9c95" stroke-linecap="round" stroke-linejoin="round" stroke-width="1.234"/><path d="M9.108,4.65,2.44,6.734A40.9,40.9,0,0,1,0,0" transform="translate(4.507 15.17)" fill="none" stroke="#ef9c95" stroke-linecap="round" stroke-linejoin="round" stroke-width="1.234"/></g><g transform="translate(20.433 19.674)"><path d="M13.593,19.357a13.133,13.133,0,0,0,8.453-5.721,3.744,3.744,0,0,0,.543-3.463c-.6-1.227-2.13-1.616-3.473-1.871a4.9,4.9,0,0,0,.78-4.933A6.052,6.052,0,0,0,14.026.006,10.981,10.981,0,0,0,7.571,2.9C4.012,5.932.6,9.854.029,14.5c-.152,1.245.1,3.605,5.309,4.845A18.414,18.414,0,0,0,13.593,19.357Z" transform="translate(3.793 0)" fill="#cdd2e8"/><path d="M21.873,0a70.978,70.978,0,0,1-7.337,3.807C9.965,5.85,4.823,7.423,0,6.079" transform="translate(0 8.341)" fill="none" stroke="#ef9c95" stroke-linecap="round" stroke-linejoin="round" stroke-width="1.683"/><path d="M5.474,7.031.217,5.388C.12,5.358,0,5.3,0,5.2a.247.247,0,0,1,.043-.125L2.894,0" transform="translate(15.773 6.202)" fill="none" stroke="#ef9c95" stroke-linecap="round" stroke-linejoin="round" stroke-width="1.122"/><path d="M5.575,0C3.3,3.3.99,6.7,0,10.583A19.46,19.46,0,0,0,7.322,13" transform="translate(11.549 2.996)" fill="none" stroke="#ef9c95" stroke-linecap="round" stroke-linejoin="round" stroke-width="1.122"/><path d="M5.472,8.974,0,5.753A37.2,37.2,0,0,1,3.048,0" transform="translate(7.576 9.074)" fill="none" stroke="#ef9c95" stroke-linecap="round" stroke-linejoin="round" stroke-width="1.122"/></g><g transform="translate(3.271 39.055)"><path d="M5.871,15.334A10.479,10.479,0,0,1,.26,9.43,2.987,2.987,0,0,1,.429,6.637c.678-.854,1.937-.9,3.026-.865a3.91,3.91,0,0,1,.236-3.978A4.829,4.829,0,0,1,8.842.176a8.762,8.762,0,0,1,4.537,3.36c2.256,2.973,4.248,6.614,3.9,10.329-.094,1-.7,2.793-4.967,2.869A14.692,14.692,0,0,1,5.871,15.334Z" transform="translate(0 0)" fill="#b2bad1"/><path d="M0,0A56.534,56.534,0,0,0,5.069,4.222C8.282,6.6,12.021,8.7,16.011,8.479" transform="translate(4.257 5.981)" fill="none" stroke="#ef9c95" stroke-linecap="round" stroke-linejoin="round" stroke-width="1.343"/><path d="M0,5.039l4.378-.381c.081-.007.182-.029.2-.108a.2.2,0,0,0-.012-.1L3.214,0" transform="translate(3.909 4.862)" fill="none" stroke="#ef9c95" stroke-linecap="round" stroke-linejoin="round" stroke-width="0.895"/><path d="M3.586,0C4.792,2.964,6.014,6.005,6.122,9.2A15.532,15.532,0,0,1,0,9.837" transform="translate(5.287 2.626)" fill="none" stroke="#ef9c95" stroke-linecap="round" stroke-linejoin="round" stroke-width="0.895"/><path d="M0,6.581,4.817,5.006A29.664,29.664,0,0,0,3.425,0" transform="translate(9.476 8.476)" fill="none" stroke="#ef9c95" stroke-linecap="round" stroke-linejoin="round" stroke-width="0.895"/></g><g transform="translate(21.516 81.49)"><path d="M8.554,15.141a10.48,10.48,0,0,1-7.52-3.13A2.987,2.987,0,0,1,.059,9.389c.275-1.055,1.409-1.6,2.418-2.015A3.909,3.909,0,0,1,1.083,3.641,4.829,4.829,0,0,1,5.138.077a8.764,8.764,0,0,1,5.508,1.237c3.266,1.806,6.561,4.33,7.742,7.87.317.949.492,2.836-3.382,4.633A14.689,14.689,0,0,1,8.554,15.141Z" transform="translate(0 0)" fill="#b2bad1"/><path d="M0,0A56.657,56.657,0,0,0,6.343,1.811c3.9.871,8.171,1.284,11.729-.534" transform="translate(3.294 7.24)" fill="none" stroke="#ef9c95" stroke-linecap="round" stroke-linejoin="round" stroke-width="1.343"/><path d="M0,5.908l3.85-2.12c.071-.039.154-.1.14-.18a.2.2,0,0,0-.054-.091L.9,0" transform="translate(4.561 5.058)" fill="none" stroke="#ef9c95" stroke-linecap="round" stroke-linejoin="round" stroke-width="0.895"/><path d="M0,0C2.3,2.222,4.65,4.509,6.042,7.39A15.533,15.533,0,0,1,.7,10.447" transform="translate(6.158 2.305)" fill="none" stroke="#ef9c95" stroke-linecap="round" stroke-linejoin="round" stroke-width="0.895"/><path d="M0,7.4,3.768,4.015A29.7,29.7,0,0,0,.47,0" transform="translate(11.738 6.025)" fill="none" stroke="#ef9c95" stroke-linecap="round" stroke-linejoin="round" stroke-width="0.895"/></g><g transform="translate(5.033 58.566)"><path d="M9.255,19.354a13.132,13.132,0,0,1-8.467-5.7,3.742,3.742,0,0,1-.551-3.462c.6-1.229,2.125-1.622,3.467-1.88a4.9,4.9,0,0,1-.793-4.93A6.052,6.052,0,0,1,8.771.005a10.98,10.98,0,0,1,6.462,2.877c3.568,3.023,6.993,6.936,7.572,11.577.156,1.245-.095,3.606-5.3,4.859A18.412,18.412,0,0,1,9.255,19.354Z" transform="translate(0 0)" fill="#cdd2e8"/><path d="M0,0A71,71,0,0,0,7.347,3.788c4.576,2.031,9.722,3.59,14.541,2.234" transform="translate(4.74 8.351)" fill="none" stroke="#ef9c95" stroke-linecap="round" stroke-linejoin="round" stroke-width="1.683"/><path d="M0,7.037,5.252,5.382c.1-.031.214-.085.217-.187a.246.246,0,0,0-.044-.125L2.562,0" transform="translate(5.379 6.203)" fill="none" stroke="#ef9c95" stroke-linecap="round" stroke-linejoin="round" stroke-width="1.122"/><path d="M1.714,0c2.28,3.3,4.6,6.686,5.6,10.568A19.471,19.471,0,0,1,0,13.007" transform="translate(7.761 2.993)" fill="none" stroke="#ef9c95" stroke-linecap="round" stroke-linejoin="round" stroke-width="1.122"/><path d="M0,8.981,5.464,5.745A37.164,37.164,0,0,0,2.4,0" transform="translate(13.59 9.055)" fill="none" stroke="#ef9c95" stroke-linecap="round" stroke-linejoin="round" stroke-width="1.122"/></g><g transform="translate(21.682 36.388)"><path d="M.936,0A15.232,15.232,0,0,1,3.493,9.22,15.235,15.235,0,0,1,0,18.128a13.571,13.571,0,0,0,6.676-5.35A20.877,20.877,0,0,0,9.741,4.7" transform="translate(2.697 1.864)" fill="none" stroke="#c45b53" stroke-linecap="round" stroke-linejoin="round" stroke-width="1.018"/><path d="M2.968,6.156A6.561,6.561,0,0,0,0,0" transform="translate(2.278 9.42)" fill="none" stroke="#c45b53" stroke-linecap="round" stroke-linejoin="round" stroke-width="1.018"/><path d="M0,7.257A6.126,6.126,0,0,0,.648,4.771L.92,2.382A4.966,4.966,0,0,0,.8,0" transform="translate(6.093 1.674)" fill="none" stroke="#c45b53" stroke-linecap="round" stroke-linejoin="round" stroke-width="1.018"/><path d="M0,5.427a7.492,7.492,0,0,0,1.352-.463A6.637,6.637,0,0,0,2.969,3.73,28.913,28.913,0,0,0,6.231,0" transform="translate(9.053 9.958)" fill="none" stroke="#c45b53" stroke-linecap="round" stroke-linejoin="round" stroke-width="1.018"/><path d="M2.519.312A1.576,1.576,0,1,1,.313.634,1.576,1.576,0,0,1,2.519.312Z" transform="translate(0 7.235)" fill="#fcf9f2"/><path d="M2.518.313A1.576,1.576,0,1,1,.312.634,1.576,1.576,0,0,1,2.518.313Z" transform="translate(1.509 0.11)" fill="#fcf9f2"/><circle cx="1.576" cy="1.576" r="1.576" transform="translate(8.338 3.932) rotate(-163.121)" fill="#fcf9f2"/><path d="M2.518.313A1.576,1.576,0,1,1,.313.634,1.576,1.576,0,0,1,2.518.313Z" transform="translate(10.557 4.758)" fill="#fcf9f2"/><path d="M2.518.313A1.576,1.576,0,1,1,.312.634,1.576,1.576,0,0,1,2.518.313Z" transform="translate(14.257 7.646)" fill="#fcf9f2"/></g></g><g transform="translate(773.334 284.248)"><g transform="translate(0 0)"><path d="M-.876,369.652a12.809,12.809,0,0,1-2.393-5.36,1.43,1.43,0,0,1,1.519-1.574,6.156,6.156,0,0,1,1.5.3,2.528,2.528,0,0,1,.722-1.971,1.219,1.219,0,0,1,1.846.269c-.214-1.072,1.217-1.866,2.247-1.5a4.552,4.552,0,0,1,2.178,2.35c2.392,4.4,4.482,9.18,8.339,12.375-2.177-4.173-4.085-8.482-5.99-12.786a19.809,19.809,0,0,1-1.854-5.71,1.049,1.049,0,0,1,1.385-1.1,4.257,4.257,0,0,1,.943.477,1.422,1.422,0,0,1,2.352-1.588,1.689,1.689,0,0,1,1.384-1.226,3.432,3.432,0,0,0,.943-.119,4.249,4.249,0,0,0,.727-.575,1.91,1.91,0,0,1,2.36.358,5.313,5.313,0,0,1,1.172,2.285,74.261,74.261,0,0,1,3.231,17.071,45.029,45.029,0,0,0-.591-14.414,8.788,8.788,0,0,1-.259-3.92,1.326,1.326,0,0,1,1.479.574c-.184-.488.5-.818,1.02-.888l3.282-.448a2.112,2.112,0,0,1,.9.007c.6.182.9.832,1.122,1.418a25.445,25.445,0,0,1,1.849,10.622,17.767,17.767,0,0,1-12.778,15.655C9.586,382.338,3.238,375.837-.876,369.652Z" transform="translate(3.279 -351.643)" fill="#f4c245"/><g transform="translate(3.44 3.44)"><path d="M3.975,386.548a29.936,29.936,0,0,0,6.655,7.783c1.037.932,2.227,1.9,3.622,1.888" transform="translate(-3.975 -373.436)" fill="none" stroke="#ffdf97" stroke-linecap="round" stroke-linejoin="round" stroke-width="1.094"/><path d="M19.975,396.289a21.957,21.957,0,0,0,5.969,4.772" transform="translate(-12.388 -378.558)" fill="none" stroke="#ffdf97" stroke-linecap="round" stroke-linejoin="round" stroke-width="1.094"/><path d="M16.136,382.411a21.2,21.2,0,0,0,5.074,5.618" transform="translate(-10.369 -371.261)" fill="none" stroke="#ffdf97" stroke-linecap="round" stroke-linejoin="round" stroke-width="1.094"/><path d="M8.241,380.07a20.782,20.782,0,0,0,2.8,4.478" transform="translate(-6.218 -370.03)" fill="none" stroke="#ffdf97" stroke-linecap="round" stroke-linejoin="round" stroke-width="1.094"/><path d="M30.28,398.343a18.58,18.58,0,0,0,3.048,2.451" transform="translate(-17.806 -379.638)" fill="none" stroke="#ffdf97" stroke-linecap="round" stroke-linejoin="round" stroke-width="1.094"/><path d="M28.111,376.625a48.8,48.8,0,0,0,2.966,7.034" transform="translate(-16.666 -368.219)" fill="none" stroke="#ffdf97" stroke-linecap="round" stroke-linejoin="round" stroke-width="1.094"/><path d="M35.241,380.02q1.8,5.964,3.267,12.019" transform="translate(-20.415 -370.004)" fill="none" stroke="#ffdf97" stroke-linecap="round" stroke-linejoin="round" stroke-width="1.094"/><path d="M45.847,394.811l.249,4.165" transform="translate(-25.991 -377.781)" fill="none" stroke="#ffdf97" stroke-linecap="round" stroke-linejoin="round" stroke-width="1.094"/><path d="M41.946,378a34.512,34.512,0,0,1,.888,3.526" transform="translate(-23.94 -368.94)" fill="none" stroke="#ffdf97" stroke-linecap="round" stroke-linejoin="round" stroke-width="1.094"/><path d="M33.341,363.5l1.051,3.748" transform="translate(-19.416 -361.319)" fill="none" stroke="#ffdf97" stroke-linecap="round" stroke-linejoin="round" stroke-width="1.094"/><path d="M36.994,359.208a23.826,23.826,0,0,1,1.364,5.282" transform="translate(-21.337 -359.061)" fill="none" stroke="#ffdf97" stroke-linecap="round" stroke-linejoin="round" stroke-width="1.094"/><path d="M27.622,364.248q.6,2.761,1.458,5.455" transform="translate(-16.409 -361.711)" fill="none" stroke="#ffdf97" stroke-linecap="round" stroke-linejoin="round" stroke-width="1.094"/><path d="M55.244,363.594q.1.627.2,1.253c.119.754.238,1.507.293,2.268a13.529,13.529,0,0,1-.368,4.248" transform="translate(-30.932 -361.367)" fill="none" stroke="#ffdf97" stroke-linecap="round" stroke-linejoin="round" stroke-width="1.094"/><path d="M61.908,372.028a44.593,44.593,0,0,1-1.575,9.412" transform="translate(-33.608 -365.802)" fill="none" stroke="#ffdf97" stroke-linecap="round" stroke-linejoin="round" stroke-width="1.094"/><path d="M55.985,384.852a13.008,13.008,0,0,1-1.357,4.806" transform="translate(-30.609 -372.545)" fill="none" stroke="#ffdf97" stroke-linecap="round" stroke-linejoin="round" stroke-width="1.094"/><path d="M54.868,396.94a7.882,7.882,0,0,1-2.375,3.164" transform="translate(-29.486 -378.901)" fill="none" stroke="#ffdf97" stroke-linecap="round" stroke-linejoin="round" stroke-width="1.094"/><path d="M31.22,409.139a6.2,6.2,0,0,0,2.576.306" transform="translate(-18.301 -385.315)" fill="none" stroke="#ffdf97" stroke-linecap="round" stroke-linejoin="round" stroke-width="1.094"/><path d="M59.891,358.9a5.394,5.394,0,0,1,.3,2.6" transform="translate(-33.376 -358.898)" fill="none" stroke="#ffdf97" stroke-linecap="round" stroke-linejoin="round" stroke-width="1.094"/></g></g><path d="M30.465,398.534c-.608.521,2.693,2.74,3.211,3.35a6.169,6.169,0,0,0-4.869.3.569.569,0,0,0-.309.282c-.088.258.193.485.443.593a8.769,8.769,0,0,0,4.253.338l-4,.949a2.476,2.476,0,0,0-.891.338.842.842,0,0,0-.377.823c.112.5.753.652,1.268.644,2.341-.039,4.485-1.244,6.747-1.848,1.455-.389,2.972-.529,4.408-.983a21.11,21.11,0,0,0,1.994-.784,1.934,1.934,0,0,0,.755-.479.662.662,0,0,0,.055-.828,6.939,6.939,0,0,0-2.805.715,4.4,4.4,0,0,0,2.77-1.757,1.258,1.258,0,0,0,.25-1.282.978.978,0,0,0-1.059-.39,2.859,2.859,0,0,0-1.056.569l-3.282,2.42a5.869,5.869,0,0,0,1.073-1.7,1.71,1.71,0,0,0,.122-1.273.731.731,0,0,0-1.062-.375,1.092,1.092,0,0,0-.289.651c-.09.455-.474,1.806-.564,2.261-.193-.715-.091-2.326-.285-3.042a1.4,1.4,0,0,0-.469-.852c-.876-.58-1.438.689-1.442,1.345,0,.464.429,2.77.429,2.77C35.761,401.233,31.735,397.447,30.465,398.534Z" transform="translate(-13.122 -375.508)" fill="#7b823c"/><path d="M44.805,406.919A98.73,98.73,0,0,1,52.362,455.6" transform="translate(-22.004 -380.707)" fill="none" stroke="#7b823b" stroke-miterlimit="10" stroke-width="1.642"/></g><g transform="translate(227.727 260.689) rotate(16)"><path d="M0,.189C5.034-.151,10.535-.363,14.611,2.61" transform="translate(10.933 18.624)" fill="none" stroke="#fffe40" stroke-linecap="round" stroke-linejoin="round" stroke-width="5"/><path d="M0,.451A10.423,10.423,0,0,1,6.007.433" transform="translate(8.544 6.316)" fill="none" stroke="#bca9ff" stroke-linecap="round" stroke-linejoin="round" stroke-width="5"/><path d="M0,0A39.479,39.479,0,0,1,9.989,2.495" transform="translate(27.224 6.616)" fill="none" stroke="#fffe40" stroke-linecap="round" stroke-linejoin="round" stroke-width="5"/><path d="M0,.055a33.981,33.981,0,0,1,6.486.25" transform="translate(18.208 0)" fill="none" stroke="#fff" stroke-linecap="round" stroke-linejoin="round" stroke-width="5"/><path d="M0,0A6.179,6.179,0,0,1,3.186,2.054" transform="translate(36.549 19.457)" fill="none" stroke="#bca9ff" stroke-linecap="round" stroke-linejoin="round" stroke-width="5"/><path d="M0,0A38.981,38.981,0,0,1,4.589,3.648" transform="translate(45.757 12.775)" fill="none" stroke="#fff" stroke-linecap="round" stroke-linejoin="round" stroke-width="5"/><path d="M0,0A14.456,14.456,0,0,1,3.545,1.781" transform="translate(22.305 29.318)" fill="none" stroke="#bca9ff" stroke-linecap="round" stroke-linejoin="round" stroke-width="5"/><path d="M8.556.2A20.43,20.43,0,0,0,0,.821" transform="translate(0 26.939)" fill="none" stroke="#fff" stroke-linecap="round" stroke-linejoin="round" stroke-width="5"/><path d="M2.2,0,0,.408" transform="translate(0.354 14.223)" fill="none" stroke="#fff" stroke-linecap="round" stroke-linejoin="round" stroke-width="5"/><path d="M0,0A35.779,35.779,0,0,1,5.044,3.969" transform="translate(56.94 27.375)" fill="none" stroke="#fffe40" stroke-linecap="round" stroke-linejoin="round" stroke-width="5"/></g><g transform="matrix(-0.914, 0.407, -0.407, -0.914, 679.527, 288.248)"><path d="M0,0A37.125,37.125,0,0,0,6.838,8.407" transform="translate(26.674 0.724)" fill="none" stroke="#bca9ff" stroke-linecap="round" stroke-linejoin="round" stroke-width="5"/><path d="M0,0A13.993,13.993,0,0,0,5.42,8.57" transform="translate(6.855 0)" fill="none" stroke="#fff" stroke-linecap="round" stroke-linejoin="round" stroke-width="5"/><path d="M0,0A23.993,23.993,0,0,0,6.447,7.507" transform="translate(17.579 5.418)" fill="none" stroke="#fffe40" stroke-linecap="round" stroke-linejoin="round" stroke-width="5"/><path d="M0,0A14.937,14.937,0,0,0,4.1,4.743" transform="translate(0 14.517)" fill="none" stroke="#bca9ff" stroke-linecap="round" stroke-linejoin="round" stroke-width="5"/><path d="M0,0A41.591,41.591,0,0,0,6.7,4.644" transform="translate(27.466 23.086)" fill="none" stroke="#fffe40" stroke-linecap="round" stroke-linejoin="round" stroke-width="5"/><path d="M0,0,4.009,2.981" transform="translate(38.605 16.983)" fill="none" stroke="#fff" stroke-linecap="round" stroke-linejoin="round" stroke-width="5"/></g><g transform="translate(91.676 321.692) rotate(9)"><g transform="translate(31.771 0)"><path d="M181.386,348.617a12.012,12.012,0,0,0,2.3-9.049,3.425,3.425,0,0,0-1.734-2.7c-1.157-.473-2.439.19-3.511.832a4.482,4.482,0,0,0-2.465-3.847,5.536,5.536,0,0,0-6.057,1.269,10.047,10.047,0,0,0-2.654,5.9c-.59,4.237-.541,8.995,1.893,12.513.653.944,2.263,2.4,6.575.085A16.843,16.843,0,0,0,181.386,348.617Z" transform="translate(-166.5 -333.415)" fill="#cdd2e8"/><path d="M176.822,348.565a65.019,65.019,0,0,1-2.7,7.063c-1.883,4.175-4.442,8.376-8.556,10.389" transform="translate(-165.564 -343.622)" fill="none" stroke="#ef9c95" stroke-linecap="round" stroke-linejoin="round" stroke-width="1.683"/><path d="M195.4,353.294l-4.592,2.073c-.085.039-.2.072-.262,0a.23.23,0,0,1-.047-.112l-1.137-5.2" transform="translate(-181.596 -344.626)" fill="none" stroke="#ef9c95" stroke-linecap="round" stroke-linejoin="round" stroke-width="1.122"/><path d="M180.156,346.212c.456,3.639.937,7.366,2.622,10.624a17.813,17.813,0,0,0,6.477-2.8" transform="translate(-175.394 -342.036)" fill="none" stroke="#ef9c95" stroke-linecap="round" stroke-linejoin="round" stroke-width="1.122"/><path d="M184.974,375.719l-5.7,1.124a34.012,34.012,0,0,1-1.414-5.785" transform="translate(-173.848 -358.775)" fill="none" stroke="#ef9c95" stroke-linecap="round" stroke-linejoin="round" stroke-width="1.122"/></g><g transform="translate(30.845 18.535)"><path d="M173.485,396.469a15.229,15.229,0,0,1-10.761,14.8,13.674,13.674,0,0,0,8.581-.847,21.04,21.04,0,0,0,7.033-5.14" transform="translate(-162.724 -394.429)" fill="none" stroke="#c45b53" stroke-linecap="round" stroke-linejoin="round" stroke-width="1.122"/><path d="M176.763,420.579a6.615,6.615,0,0,0,.879-6.832" transform="translate(-172.182 -406.069)" fill="none" stroke="#c45b53" stroke-linecap="round" stroke-linejoin="round" stroke-width="1.122"/><path d="M190.157,407.168a6.173,6.173,0,0,0,1.914-1.744l1.544-1.869a5.008,5.008,0,0,0,1.211-2.076" transform="translate(-181.205 -397.804)" fill="none" stroke="#c45b53" stroke-linecap="round" stroke-linejoin="round" stroke-width="1.122"/><path d="M186.942,438.217a7.551,7.551,0,0,0,1.4.352,6.679,6.679,0,0,0,2.045-.153,29.135,29.135,0,0,0,4.807-1.356" transform="translate(-179.039 -421.775)" fill="none" stroke="#c45b53" stroke-linecap="round" stroke-linejoin="round" stroke-width="1.122"/><path d="M176.878,407.157a1.589,1.589,0,1,1-2.04-.941A1.589,1.589,0,0,1,176.878,407.157Z" transform="translate(-170.184 -400.929)" fill="#fcf9f2"/><path d="M192.791,391.257a1.589,1.589,0,1,1-2.04-.941A1.589,1.589,0,0,1,192.791,391.257Z" transform="translate(-180.904 -390.218)" fill="#fcf9f2"/><path d="M203.2,399.062a1.589,1.589,0,1,1-2.04-.941A1.589,1.589,0,0,1,203.2,399.062Z" transform="translate(-187.915 -395.476)" fill="#fcf9f2"/><path d="M208.38,418.54a1.589,1.589,0,1,1-2.04-.941A1.589,1.589,0,0,1,208.38,418.54Z" transform="translate(-191.407 -408.598)" fill="#fcf9f2"/><path d="M213.09,432.251a1.589,1.589,0,1,1-2.04-.941A1.589,1.589,0,0,1,213.09,432.251Z" transform="translate(-194.58 -417.835)" fill="#fcf9f2"/></g><path d="M107.131,384.638a93.894,93.894,0,0,1-13.246,54.654c-3.762,6.215-8.371,12.1-14.47,16.044" transform="translate(-75.755 -367.924)" fill="none" stroke="#ef9c95" stroke-linecap="round" stroke-linejoin="round" stroke-width="3.135"/><g transform="translate(15.353 9.301)"><path d="M118.738,375.213a9.587,9.587,0,0,1-3.482-6.588,2.732,2.732,0,0,1,.84-2.418,3.3,3.3,0,0,1,2.88-.013,3.577,3.577,0,0,1,1.191-3.446,4.418,4.418,0,0,1,4.936-.152,8.017,8.017,0,0,1,3.166,4.081c1.253,3.176,2.107,6.876.878,10.061-.33.854-1.305,2.287-5.085,1.3A13.445,13.445,0,0,1,118.738,375.213Z" transform="translate(-115.249 -361.919)" fill="#b2bad1"/><path d="M128.674,376.188a51.841,51.841,0,0,0,3.42,4.972c2.243,2.886,5.017,5.664,8.586,6.454" transform="translate(-124.293 -371.532)" fill="none" stroke="#ef9c95" stroke-linecap="round" stroke-linejoin="round" stroke-width="1.343"/><path d="M124.764,378.982l3.951.747c.073.014.167.019.2-.046a.182.182,0,0,0,.015-.1l-.094-4.25" transform="translate(-121.659 -370.959)" fill="none" stroke="#ef9c95" stroke-linecap="round" stroke-linejoin="round" stroke-width="0.895"/><path d="M132.134,370.629c.329,2.909.654,5.89-.041,8.733a14.212,14.212,0,0,1-5.549-.955" transform="translate(-122.858 -367.787)" fill="none" stroke="#ef9c95" stroke-linecap="round" stroke-linejoin="round" stroke-width="0.895"/><path d="M135.885,394.422l4.632-.2a27.144,27.144,0,0,0,.012-4.753" transform="translate(-129.151 -380.481)" fill="none" stroke="#ef9c95" stroke-linecap="round" stroke-linejoin="round" stroke-width="0.895"/></g><g transform="translate(0 47.449)"><path d="M70.107,494.605a13.213,13.213,0,0,1-1.444-10.169,3.767,3.767,0,0,1,2.217-2.745c1.322-.38,2.645.5,3.741,1.326a4.93,4.93,0,0,1,3.152-3.914,6.09,6.09,0,0,1,6.474,2.106,11.051,11.051,0,0,1,2.2,6.77c.143,4.7-.475,9.9-3.554,13.46-.826.955-2.76,2.358-7.2-.687A18.531,18.531,0,0,1,70.107,494.605Z" transform="translate(-68.199 -478.824)" fill="#b2bad1"/><path d="M89.935,494.124a71.5,71.5,0,0,0,2.117,8.045c1.564,4.789,3.865,9.687,8.125,12.376" transform="translate(-82.842 -489.132)" fill="none" stroke="#ef9c95" stroke-linecap="round" stroke-linejoin="round" stroke-width="1.851"/><path d="M80.051,499.851l4.776,2.811c.089.052.208.1.286.036a.249.249,0,0,0,.064-.116l1.861-5.556" transform="translate(-76.183 -491.086)" fill="none" stroke="#ef9c95" stroke-linecap="round" stroke-linejoin="round" stroke-width="1.234"/><path d="M89.526,493.912c-.93,3.926-1.9,7.945-4.127,11.308a19.59,19.59,0,0,1-6.752-3.827" transform="translate(-75.238 -488.989)" fill="none" stroke="#ef9c95" stroke-linecap="round" stroke-linejoin="round" stroke-width="1.234"/><path d="M86.016,525.61l6.1,1.906a37.419,37.419,0,0,0,2.233-6.16" transform="translate(-80.202 -507.477)" fill="none" stroke="#ef9c95" stroke-linecap="round" stroke-linejoin="round" stroke-width="1.234"/></g><g transform="translate(6.407 17.999)"><path d="M96.281,406.282a12.015,12.015,0,0,1-7.733-5.233,3.425,3.425,0,0,1-.5-3.168c.55-1.123,1.949-1.479,3.177-1.711a4.482,4.482,0,0,1-.714-4.513,5.537,5.537,0,0,1,5.369-3.077,10.046,10.046,0,0,1,5.905,2.648c3.257,2.774,6.381,6.362,6.9,10.609.139,1.139-.1,3.3-4.857,4.433A16.846,16.846,0,0,1,96.281,406.282Z" transform="translate(-87.833 -388.574)" fill="#cdd2e8"/><path d="M101.143,411.96a64.938,64.938,0,0,0,6.713,3.483c4.181,1.869,8.885,3.307,13.3,2.078" transform="translate(-96.8 -404.329)" fill="none" stroke="#ef9c95" stroke-linecap="round" stroke-linejoin="round" stroke-width="1.683"/><path d="M102.9,412.395l4.809-1.5c.089-.028.2-.077.2-.171a.226.226,0,0,0-.039-.115l-2.608-4.644" transform="translate(-97.983 -400.289)" fill="none" stroke="#ef9c95" stroke-linecap="round" stroke-linejoin="round" stroke-width="1.122"/><path d="M111.157,396.973c2.078,3.022,4.194,6.127,5.1,9.681a17.8,17.8,0,0,1-6.7,2.214" transform="translate(-102.469 -394.232)" fill="none" stroke="#ef9c95" stroke-linecap="round" stroke-linejoin="round" stroke-width="1.122"/><path d="M125.884,422.225l5.006-2.947a34.028,34.028,0,0,0-2.788-5.263" transform="translate(-113.468 -405.713)" fill="none" stroke="#ef9c95" stroke-linecap="round" stroke-linejoin="round" stroke-width="1.122"/></g><g transform="translate(27.919 35.729)"><path d="M172.505,456.937a9.587,9.587,0,0,0,5.133-5.4,2.732,2.732,0,0,0-.155-2.555,3.3,3.3,0,0,0-2.769-.791,3.577,3.577,0,0,0-.216-3.64,4.418,4.418,0,0,0-4.712-1.48,8.016,8.016,0,0,0-4.15,3.074c-2.064,2.719-3.886,6.05-3.564,9.45.086.912.638,2.555,4.544,2.624A13.44,13.44,0,0,0,172.505,456.937Z" transform="translate(-159.334 -442.909)" fill="#b2bad1"/><path d="M168.405,459.676a51.719,51.719,0,0,1-4.637,3.863c-2.94,2.172-6.361,4.1-10.01,3.894" transform="translate(-153.758 -454.205)" fill="none" stroke="#ef9c95" stroke-linecap="round" stroke-linejoin="round" stroke-width="1.343"/><path d="M190.966,461.149l-4.005-.348c-.074-.007-.166-.027-.184-.1a.184.184,0,0,1,.011-.1l1.238-4.067" transform="translate(-176 -452.091)" fill="none" stroke="#ef9c95" stroke-linecap="round" stroke-linejoin="round" stroke-width="0.895"/><path d="M180.913,450.27c-1.1,2.712-2.222,5.494-2.32,8.419a14.21,14.21,0,0,0,5.6.58" transform="translate(-170.489 -447.868)" fill="none" stroke="#ef9c95" stroke-linecap="round" stroke-linejoin="round" stroke-width="0.895"/><path d="M174.916,472.692l-4.407-1.441a27.139,27.139,0,0,1,1.273-4.579" transform="translate(-165.044 -458.918)" fill="none" stroke="#ef9c95" stroke-linecap="round" stroke-linejoin="round" stroke-width="0.895"/></g><g transform="translate(10.223 74.55)"><path d="M116.588,575.731a9.588,9.588,0,0,0,6.88-2.863,2.733,2.733,0,0,0,.892-2.4c-.252-.965-1.289-1.466-2.212-1.844a3.576,3.576,0,0,0,1.276-3.416,4.418,4.418,0,0,0-3.71-3.26,8.017,8.017,0,0,0-5.039,1.132c-2.988,1.652-6,3.961-7.083,7.2-.29.869-.45,2.595,3.094,4.239A13.439,13.439,0,0,0,116.588,575.731Z" transform="translate(-104.867 -561.878)" fill="#b2bad1"/><path d="M116.06,582.177a51.853,51.853,0,0,1-5.8,1.657c-3.567.8-7.475,1.174-10.73-.489" transform="translate(-99.527 -575.553)" fill="none" stroke="#ef9c95" stroke-linecap="round" stroke-linejoin="round" stroke-width="1.343"/><path d="M139.1,581.463l-3.522-1.939c-.065-.036-.141-.092-.128-.165a.18.18,0,0,1,.049-.083l2.778-3.218" transform="translate(-123.728 -571.431)" fill="none" stroke="#ef9c95" stroke-linecap="round" stroke-linejoin="round" stroke-width="0.895"/><path d="M130.752,568.34c-2.106,2.033-4.254,4.125-5.528,6.76a14.211,14.211,0,0,0,4.887,2.8" transform="translate(-116.839 -566.232)" fill="none" stroke="#ef9c95" stroke-linecap="round" stroke-linejoin="round" stroke-width="0.895"/><path d="M119.4,585.544l-3.447-3.1a27.166,27.166,0,0,1,3.017-3.673" transform="translate(-110.595 -573.258)" fill="none" stroke="#ef9c95" stroke-linecap="round" stroke-linejoin="round" stroke-width="0.895"/></g><g transform="translate(20.488 53.579)"><path d="M154.042,515.316a12.014,12.014,0,0,0,7.746-5.214,3.423,3.423,0,0,0,.5-3.167c-.547-1.124-1.944-1.484-3.172-1.72a4.482,4.482,0,0,0,.725-4.511,5.536,5.536,0,0,0-5.361-3.091,10.045,10.045,0,0,0-5.912,2.632c-3.264,2.766-6.4,6.346-6.927,10.591-.142,1.139.086,3.3,4.846,4.445A16.845,16.845,0,0,0,154.042,515.316Z" transform="translate(-138.148 -497.61)" fill="#cdd2e8"/><path d="M151.01,521.023a64.957,64.957,0,0,1-6.722,3.465c-4.186,1.858-8.894,3.284-13.3,2.043" transform="translate(-130.986 -513.383)" fill="none" stroke="#ef9c95" stroke-linecap="round" stroke-linejoin="round" stroke-width="1.683"/><path d="M180.231,521.44l-4.8-1.515c-.089-.028-.2-.078-.2-.171a.225.225,0,0,1,.04-.114l2.62-4.638" transform="translate(-160.791 -509.327)" fill="none" stroke="#ef9c95" stroke-linecap="round" stroke-linejoin="round" stroke-width="1.122"/><path d="M168.5,506c-2.086,3.017-4.21,6.116-5.125,9.668a17.814,17.814,0,0,0,6.693,2.231" transform="translate(-152.803 -503.263)" fill="none" stroke="#ef9c95" stroke-linecap="round" stroke-linejoin="round" stroke-width="1.122"/><path d="M157.221,531.212l-5-2.96a33.994,33.994,0,0,1,2.8-5.256" transform="translate(-145.292 -514.712)" fill="none" stroke="#ef9c95" stroke-linecap="round" stroke-linejoin="round" stroke-width="1.122"/></g><g transform="translate(13.69 33.289)"><path d="M132.147,440.658A13.823,13.823,0,0,0,133,457.242a12.415,12.415,0,0,1-6.107-4.894,19.1,19.1,0,0,1-2.8-7.392" transform="translate(-119.544 -438.953)" fill="none" stroke="#c45b53" stroke-linecap="round" stroke-linejoin="round" stroke-width="1.018"/><path d="M144.186,467.476a6,6,0,0,1,2.715-5.632" transform="translate(-133.058 -453.226)" fill="none" stroke="#c45b53" stroke-linecap="round" stroke-linejoin="round" stroke-width="1.018"/><path d="M139.98,446.766a5.6,5.6,0,0,1-.593-2.274l-.249-2.186a4.543,4.543,0,0,1,.107-2.179" transform="translate(-129.628 -438.595)" fill="none" stroke="#c45b53" stroke-linecap="round" stroke-linejoin="round" stroke-width="1.018"/><path d="M121.814,468.315a6.856,6.856,0,0,1-1.237-.424,6.073,6.073,0,0,1-1.48-1.129,26.448,26.448,0,0,1-2.984-3.412" transform="translate(-114.168 -454.241)" fill="none" stroke="#c45b53" stroke-linecap="round" stroke-linejoin="round" stroke-width="1.018"/><path d="M150.7,456a1.442,1.442,0,1,0,2.018.295A1.442,1.442,0,0,0,150.7,456Z" transform="translate(-137.081 -449.098)" fill="#fcf9f2"/><path d="M146.474,436.028a1.442,1.442,0,1,0,2.018.294A1.442,1.442,0,0,0,146.474,436.028Z" transform="translate(-134.231 -435.641)" fill="#fcf9f2"/><circle cx="1.442" cy="1.442" r="1.442" transform="translate(7.462 0.837) rotate(-16.879)" fill="#fcf9f2"/><path d="M121.106,449.059a1.442,1.442,0,1,0,2.018.294A1.442,1.442,0,0,0,121.106,449.059Z" transform="translate(-117.141 -444.42)" fill="#fcf9f2"/><path d="M110.734,457.155a1.442,1.442,0,1,0,2.018.294A1.442,1.442,0,0,0,110.734,457.155Z" transform="translate(-110.153 -449.874)" fill="#fcf9f2"/></g></g></g></g></g></g></g><g transform="translate(1452.707 -1311.201)"><g transform="matrix(0.545, -0.839, 0.839, 0.545, -1032.5, 1505.391)"><path d="M0,0A14.583,14.583,0,0,0,5.649,8.931" transform="translate(0 0)" fill="none" stroke="#fff" stroke-linecap="round" stroke-linejoin="round" stroke-width="2"/><path d="M0,0A15.567,15.567,0,0,0,4.272,4.943" transform="translate(3.957 16.644)" fill="none" stroke="#bca9ff" stroke-linecap="round" stroke-linejoin="round" stroke-width="2"/><path d="M0,0A43.343,43.343,0,0,0,6.983,4.84" transform="translate(19.502 21.378)" fill="none" stroke="#fffe40" stroke-linecap="round" stroke-linejoin="round" stroke-width="2"/></g><g transform="translate(-1221.748 1497.929)"><g transform="translate(25.227)"><path d="M159.578,361.918c-7.494,4.913-10.35,14.892-17.727,19.977,3.8.433,7.943-.233,10.764-2.817,2.264-2.074,3.4-5.1,4.16-8.07s1.255-6.053,2.576-8.824Z" transform="translate(-141.512 -361.562)" fill="#fffd00"/><path d="M159.125,361.224a.186.186,0,0,0-.064.03c-7.561,5.156-10.327,14.68-17.729,19.979a.343.343,0,0,0-.01.58.353.353,0,0,0,.183.065,20.414,20.414,0,0,0,2.861.074c3.684-.174,7.248-1.448,9.544-4.566,3.267-4.437,3.183-10.327,5.334-15.25.02-.045.04-.094.059-.139a.2.2,0,0,0,.025-.089c.025-.02.055-.035.079-.055C159.755,361.621,159.468,361.075,159.125,361.224ZM146.3,381.03a15.274,15.274,0,0,1-2.087.228c-.585.025-1.17.025-1.76,0,6.212-4.9,9.127-12.806,15.057-17.937.253-.218.511-.431.773-.635-.178.471-.337.947-.491,1.423-1.15,3.679-1.581,7.59-3.337,11.056A10.846,10.846,0,0,1,146.3,381.03Z" transform="translate(-141.167 -361.199)" fill="#fffd00"/></g><g transform="translate(0 10.032)"><path d="M121.339,382.266c-10.28-.882-19.965,6.123-30.262,5.479,3.133,3.1,7.358,5.44,11.75,5.106,3.525-.267,6.7-2.2,9.508-4.348s5.442-4.588,8.61-6.157Z" transform="translate(-90.683 -381.815)" fill="#fff"/><path d="M120.985,381.491c-.015,0-.03,0-.045,0-.828-.055-1.651-.064-2.469-.04h0c-9.5.342-18.145,5.949-27.788,5.518a.373.373,0,0,0-.317.159.406.406,0,0,0,.035.521q.3.283.61.565c3.753,3.356,8.646,5.647,13.748,4.259,6.237-1.7,10.406-7.238,15.994-10.158a.237.237,0,0,0,.045-.03,1.477,1.477,0,0,1,.149.005C121.436,382.319,121.451,381.571,120.985,381.491Zm-29.186,6.3c8.473-.015,16.207-4.422,24.506-5.374.64-.074,1.279-.129,1.929-.154.337-.02.674-.03,1.016-.03-4.209,2.514-7.585,6.252-12,8.428-4.883,2.4-9.727,1.344-13.812-1.537a19.494,19.494,0,0,1-1.7-1.334Z" transform="translate(-90.283 -381.434)" fill="#fff"/></g><g transform="translate(25.382)"><path d="M159.566,361.854c-.025.02-.055.035-.079.055a.2.2,0,0,1-.025.089c-.02.045-.04.094-.06.139-.278.327-.54.669-.808,1.031v0c-.218.3-.431.61-.644.932-3.679,5.577-6.108,13.639-11.492,16.926a8.706,8.706,0,0,1-1.016.545,8.281,8.281,0,0,1-.917.377,20.413,20.413,0,0,1-2.861-.074.353.353,0,0,1-.183-.065c.114,0,.233-.01.347-.02.025,0,.05,0,.074,0a9.468,9.468,0,0,0,1.091-.154,8.8,8.8,0,0,0,1.378-.377c6.683-2.38,9.167-11.809,13.3-17.942.258-.382.525-.754.8-1.106.109-.149.228-.292.342-.436l0,0c.079-.1.164-.2.248-.292a2.7,2.7,0,0,1,.223-.253C159.625,361.075,159.913,361.621,159.566,361.854Z" transform="translate(-141.48 -361.199)" fill="#ffbe40"/></g><g transform="translate(0 10.032)"><path d="M120.985,381.491c-.149.025-.3.05-.441.079-.055.01-.109.02-.164.035-.283.055-.56.124-.833.2a11.733,11.733,0,0,0-1.314.451,41.142,41.142,0,0,0-6.881,4.15,21.357,21.357,0,0,1-8.086,3.337,21.115,21.115,0,0,1-9.831-.625c-.441-.134-.882-.288-1.314-.451,0,0,0,0-.01,0-.372-.139-.744-.293-1.106-.456q-.312-.283-.61-.565a.406.406,0,0,1-.035-.521c.159.084.322.164.486.238.01.01.015.015.02.015h0c.263.129.53.248.8.357a1.009,1.009,0,0,0,.129.055,20.2,20.2,0,0,0,14.025.615c3.857-1.269,6.956-4.13,10.481-5.989.367-.193.739-.377,1.12-.545h.01c.337-.154.679-.3,1.031-.421h0c.818-.025,1.641-.015,2.469.04C120.955,381.486,120.97,381.491,120.985,381.491Z" transform="translate(-90.283 -381.434)" fill="#ffbe40"/></g></g><g transform="translate(-970.446 1495.459)"><path d="M104.784,131.8a7.151,7.151,0,0,1-2.371,1.526,2.9,2.9,0,0,1,1.224.132,1.718,1.718,0,0,1,1.139,1.2.786.786,0,0,1,.023.185,1.223,1.223,0,0,1-.078.589,3.1,3.1,0,0,1-1.518,1.511,17.35,17.35,0,0,1-7.824,2.2c-.1,0-.21.008-.31.008a5.549,5.549,0,0,1-.62-.016,5.667,5.667,0,0,1-1.023-.14,2.874,2.874,0,0,1-.364-.092,2.065,2.065,0,0,1-.2-.062,1.6,1.6,0,0,1-.271-.108.239.239,0,0,1-.077-.032,2.962,2.962,0,0,1-.442-.24,2.331,2.331,0,0,1-.457-.364l.17.271a2.178,2.178,0,0,1-.178-.194,8.327,8.327,0,0,1-.551-.628,15.918,15.918,0,0,1-3.409-7.181.47.47,0,0,1,.163-.465.492.492,0,0,1,.5-.116,2.725,2.725,0,0,1,.325.116,7.541,7.541,0,0,1,3.617,2.812,12.787,12.787,0,0,1-.387-7.692,2.381,2.381,0,0,1,.209-.558.848.848,0,0,1,.481-.449c.007,0,.007,0,.015-.008.62-.194,1.139.511,1.395,1.116A26.21,26.21,0,0,1,95.7,130.84a9.765,9.765,0,0,1,3.571-5.423,2.368,2.368,0,0,1,2.262-.6,1.947,1.947,0,0,1,.179.086,1.617,1.617,0,0,1,.318.232A2.062,2.062,0,0,1,102.6,127a4.762,4.762,0,0,1-1.89,2.712,4.524,4.524,0,0,1,3.207-1.3,1.96,1.96,0,0,1,1.588,1.061c.032.07.062.147.086.217a1.5,1.5,0,0,1,.062.6A2.543,2.543,0,0,1,104.784,131.8Z" transform="translate(-87.636 -123.974)" fill="#fffd00"/><g transform="translate(5.225 5.719)" style="mix-blend-mode:multiply;isolation:isolate"><path d="M106.709,131.456c-4.826,1.79-9.839,4.021-12.224,8.7a2.881,2.881,0,0,1-.364-.092,2.066,2.066,0,0,1-.2-.062,11.549,11.549,0,0,1,.961-1.612c2.7-3.85,7.29-5.872,11.768-7.538A1.5,1.5,0,0,1,106.709,131.456Z" transform="translate(-93.919 -130.851)" fill="#ffbe40"/></g><g transform="translate(6.813 10.871)" style="mix-blend-mode:multiply;isolation:isolate"><path d="M106.179,137.046a1.223,1.223,0,0,1-.078.589,19.6,19.6,0,0,0-9.342,3.711c-.1,0-.21.008-.31.008a5.553,5.553,0,0,1-.62-.016A20.271,20.271,0,0,1,106.179,137.046Z" transform="translate(-95.829 -137.046)" fill="#ffbe40"/></g><g transform="translate(4.876 0.846)" style="mix-blend-mode:multiply;isolation:isolate"><path d="M103.013,125.309a48.353,48.353,0,0,0-8.2,12.093c-.271.55-.519,1.109-.759,1.674a2.074,2.074,0,0,1-.2-.062,1.6,1.6,0,0,1-.271-.108.24.24,0,0,1-.077-.032c.085-.2.17-.4.264-.6a49.163,49.163,0,0,1,8.753-13.286,1.942,1.942,0,0,1,.179.086A1.615,1.615,0,0,1,103.013,125.309Z" transform="translate(-93.5 -124.991)" fill="#ffbe40"/></g><g transform="translate(4.435 0.033)" style="mix-blend-mode:multiply;isolation:isolate"><path d="M93.674,138.113c-.062.21-.125.418-.186.628a.24.24,0,0,1-.077-.032,2.969,2.969,0,0,1-.442-.24c1.41-4.579,1.022-9.3.007-14a.847.847,0,0,1,.481-.449c.007,0,.007,0,.015-.008C94.511,128.746,94.944,133.5,93.674,138.113Z" transform="translate(-92.969 -124.013)" fill="#ffbe40"/></g><g transform="translate(0.173 5.786)" style="mix-blend-mode:multiply;isolation:isolate"><path d="M91.649,139.262v.008a.271.271,0,0,1-.007.077,8.327,8.327,0,0,1-.551-.628,10.3,10.3,0,0,0-3.246-7.646.492.492,0,0,1,.5-.116,2.723,2.723,0,0,1,.325.116A10.788,10.788,0,0,1,91.649,139.262Z" transform="translate(-87.845 -130.932)" fill="#ffbe40"/></g></g></g><g transform="translate(50.379 155.589)"><g transform="translate(-15 2)" clip-path="url(#c)"><g transform="translate(27.044 -49)"><path d="M446.18,374.855c-.418-2.9-.721-6.04.209-8.737a2.128,2.128,0,0,1,3.048-1.145,9.151,9.151,0,0,1,1.819,1.363,3.769,3.769,0,0,1,2.231-2.188,1.814,1.814,0,0,1,2.31,1.543c.4-1.579,2.83-1.732,3.981-.58s1.338,2.927,1.425,4.553c.4,7.447.156,15.209,3.3,21.972-.259-7-.069-14.016.121-21.023a29.5,29.5,0,0,1,1.159-8.863,1.561,1.561,0,0,1,2.567-.6,6.34,6.34,0,0,1,.963,1.244,2.118,2.118,0,0,1,4.178-.631,2.513,2.513,0,0,1,2.644-.764,5.114,5.114,0,0,0,1.343.443,6.284,6.284,0,0,0,1.346-.308,2.845,2.845,0,0,1,2.944,1.989,7.909,7.909,0,0,1,.115,3.823,110.565,110.565,0,0,1-6.57,25.019,67.045,67.045,0,0,0,8.421-19.759c.471-1.911.9-3.925,2.159-5.436a1.972,1.972,0,0,1,1.621,1.718c.065-.774,1.2-.778,1.939-.542l4.7,1.5a2.359,2.359,0,0,1,1.8,3.207,37.887,37.887,0,0,1-4.3,15.464c-5.269,9.325-16.676,14.92-27.191,12.88C452.137,398.6,447.758,385.8,446.18,374.855Z" transform="translate(-445.779 -360.107)" fill="#f4c245"/><g transform="translate(2.728 6.032)"><path d="M450.019,381.014c.254,5.1,2.009,10,3.973,14.72.8,1.917,1.782,3.975,3.662,4.854" transform="translate(-450.019 -373.594)" fill="none" stroke="#ffdf97" stroke-linecap="round" stroke-linejoin="round" stroke-width="1.201"/><path d="M461.285,398.208a32.687,32.687,0,0,0,4.975,10.233" transform="translate(-454.036 -379.725)" fill="none" stroke="#ffdf97" stroke-linecap="round" stroke-linejoin="round" stroke-width="1.201"/><path d="M464.02,382.646a31.543,31.543,0,0,0,3.23,10.8" transform="translate(-455.012 -374.176)" fill="none" stroke="#ffdf97" stroke-linecap="round" stroke-linejoin="round" stroke-width="1.201"/><path d="M457.3,376.606a30.968,30.968,0,0,0,.9,7.812" transform="translate(-452.614 -372.022)" fill="none" stroke="#ffdf97" stroke-linecap="round" stroke-linejoin="round" stroke-width="1.201"/><path d="M470.529,405.1a27.7,27.7,0,0,0,2.531,5.244" transform="translate(-457.333 -382.183)" fill="none" stroke="#ffdf97" stroke-linecap="round" stroke-linejoin="round" stroke-width="1.201"/><path d="M478.309,382.555a72.618,72.618,0,0,0-.509,11.354" transform="translate(-459.911 -374.143)" fill="none" stroke="#ffdf97" stroke-linecap="round" stroke-linejoin="round" stroke-width="1.201"/><path d="M482.256,389.279q-1.4,9.167-3.292,18.25" transform="translate(-460.341 -376.541)" fill="none" stroke="#ffdf97" stroke-linecap="round" stroke-linejoin="round" stroke-width="1.201"/><path d="M486.33,408.935,484,414.695" transform="translate(-462.137 -383.55)" fill="none" stroke="#ffdf97" stroke-linecap="round" stroke-linejoin="round" stroke-width="1.201"/><path d="M491.09,390.434a51.393,51.393,0,0,1-1.061,5.309" transform="translate(-464.287 -376.953)" fill="none" stroke="#ffdf97" stroke-linecap="round" stroke-linejoin="round" stroke-width="1.201"/><path d="M489.435,372.016q-.491,2.856-.983,5.711" transform="translate(-463.724 -370.385)" fill="none" stroke="#ffdf97" stroke-linecap="round" stroke-linejoin="round" stroke-width="1.201"/><path d="M494.769,369.481a35.476,35.476,0,0,1-1.543,7.974" transform="translate(-465.427 -369.481)" fill="none" stroke="#ffdf97" stroke-linecap="round" stroke-linejoin="round" stroke-width="1.201"/><path d="M483.114,370.059q-.962,4.094-1.528,8.267" transform="translate(-461.276 -369.687)" fill="none" stroke="#ffdf97" stroke-linecap="round" stroke-linejoin="round" stroke-width="1.201"/><path d="M508.982,382.427l-.535,1.812c-.322,1.089-.643,2.179-1.056,3.237a20.164,20.164,0,0,1-3.211,5.477" transform="translate(-469.333 -374.098)" fill="none" stroke="#ffdf97" stroke-linecap="round" stroke-linejoin="round" stroke-width="1.201"/><path d="M511.495,394.749a66.323,66.323,0,0,1-8.136,11.647" transform="translate(-469.04 -378.492)" fill="none" stroke="#ffdf97" stroke-linecap="round" stroke-linejoin="round" stroke-width="1.201"/><path d="M501.136,404.552a19.381,19.381,0,0,1-4.9,5.595" transform="translate(-466.501 -381.987)" fill="none" stroke="#ffdf97" stroke-linecap="round" stroke-linejoin="round" stroke-width="1.201"/><path d="M495.276,416.537a11.73,11.73,0,0,1-5.217,2.736" transform="translate(-464.297 -386.261)" fill="none" stroke="#ffdf97" stroke-linecap="round" stroke-linejoin="round" stroke-width="1.201"/><path d="M466.373,416.242a9.24,9.24,0,0,0,3.268,2.058" transform="translate(-455.851 -386.156)" fill="none" stroke="#ffdf97" stroke-linecap="round" stroke-linejoin="round" stroke-width="1.201"/><path d="M517.765,379.964a8.031,8.031,0,0,1-1.256,3.688" transform="translate(-473.729 -373.219)" fill="none" stroke="#ffdf97" stroke-linecap="round" stroke-linejoin="round" stroke-width="1.201"/></g><path d="M468.266,408.341c-1.15.311,1.869,5.406,2.175,6.557a9.185,9.185,0,0,0-6.739-2.709.845.845,0,0,0-.6.182c-.283.29-.05.775.217,1.082,1.407,1.613,3.5,2.422,5.5,3.173l-5.985-1.28a3.676,3.676,0,0,0-1.414-.115,1.252,1.252,0,0,0-1.034.865c-.17.748.6,1.36,1.293,1.677,3.173,1.446,6.826,1.195,10.254,1.829,2.2.409,4.335,1.189,6.556,1.5a31.28,31.28,0,0,0,3.182.221,2.872,2.872,0,0,0,1.322-.161.986.986,0,0,0,.6-1.078,10.337,10.337,0,0,0-4.23-.833,6.55,6.55,0,0,0,4.848-.591c.6-.333,1.2-.881,1.156-1.565a1.457,1.457,0,0,0-1.175-1.2,4.27,4.27,0,0,0-1.783.09l-5.961,1.156a8.724,8.724,0,0,0,2.529-1.6,2.546,2.546,0,0,0,.978-1.634c.037-.65-.558-1.349-1.188-1.183a1.622,1.622,0,0,0-.806.691c-.411.555-1.793,2.125-2.2,2.68.2-1.086,1.365-3.187,1.562-4.272a2.081,2.081,0,0,0-.087-1.446c-.807-1.34-2.373.006-2.8.886-.3.621-1.194,4-1.194,4C473.66,415.356,470.668,407.691,468.266,408.341Z" transform="translate(-450.982 -377.293)" fill="#7b823c"/><path d="M469.264,420.443A147,147,0,0,1,448.3,490.727" transform="translate(-446.678 -381.623)" fill="none" stroke="#7b823b" stroke-miterlimit="10" stroke-width="1.801"/></g></g></g><g transform="matrix(0.391, 0.921, -0.921, 0.391, 355.989, 114.833)"><g transform="translate(0)"><path d="M627.557,177.4c-1.335-2.834-.6-6.268.95-8.988s3.843-4.929,5.868-7.32a46.027,46.027,0,0,0,9.993-20.82c1.233,4.289,2.474,8.631,2.644,13.091s-.84,9.122-3.675,12.57c-4.067,4.948-11.055,6.569-15.53,11.151Z" transform="translate(-626.709 -140.132)" fill="#fff"/><path d="M644.759,163.546c-3.67,6.735-11.872,8.3-17.066,13.439a.144.144,0,0,1-.2-.2c4.007-3.965,9.576-5.652,13.771-9.348,4.554-4.018,5.856-10.19,5.27-16.025a56.431,56.431,0,0,0-2.032-9.6c-.245-.865-.107-1.381-.474-.425-.035.092-.065.184-.092.279-.161.516-.237,1.094-.375,1.607-.03.115-.061.226-.1.341-.318,1.137-.677,2.262-1.079,3.367a46.222,46.222,0,0,1-7.708,13.519c-3.4,4.14-8.711,8.847-7.8,14.59a8.547,8.547,0,0,0,.268,1.148,7.873,7.873,0,0,0,.3.838.922.922,0,0,0,.035.092c.073.168-.207.245-.275.076-.054-.13-.107-.26-.153-.39a8.311,8.311,0,0,1-.337-1.137c-1.378-5.969,4-10.917,7.551-15.172a46.1,46.1,0,0,0,9.151-17.939q.253-.953.459-1.917c.05-.218.1-.433.138-.651a.146.146,0,0,1,.279,0C646.454,147.566,648.77,156.184,644.759,163.546Z" transform="translate(-626.492 -139.929)" fill="#fff"/></g><g transform="translate(3.735 1.969)"><path d="M635.656,165.812c.588-2.831.194-5.762.273-8.653a52.846,52.846,0,0,1,2.361-12.438c1.28,2.739,2.492,5.624,2.459,8.647a17.74,17.74,0,0,1-1.541,6.392,22.312,22.312,0,0,1-3.625,6.32Z" transform="translate(-635.583 -144.721)" fill="#fffd00"/></g><g transform="translate(0.221 0.754)"><path d="M640.058,161.524c-3.9,5.02-11.4,9.237-12.6,15.788q-.035.173-.057.344v0c-.015.092-.027.176-.038.268a8.292,8.292,0,0,1-.337-1.137c.019-.092.042-.184.065-.271v0c.031-.118.065-.233.1-.352,1.454-4.821,6.085-8.5,9.667-11.988a21.153,21.153,0,0,0,6.365-11.181,35.752,35.752,0,0,0,.551-8.307c-.008-.157-.011-.318-.019-.474v-.007c-.008-.173-.016-.352-.027-.525q.253-.953.459-1.917c.011.184.023.364.031.547v.008c.012.138.019.279.027.421C644.593,149.321,644.264,156.113,640.058,161.524Z" transform="translate(-627.03 -141.764)" fill="#ffb12a"/></g><g transform="translate(3.599 1.826)"><path d="M635.816,165.1c-.027.122-.061.245-.092.367-.027.107-.054.21-.084.318-.046.061-.1.127-.149.188-.119.141-.322-.061-.2-.2a.68.68,0,0,0,.065-.084.146.146,0,0,1-.03-.122c.111-.6.184-1.213.233-1.821.076-.306.145-.616.214-.926.046-.2.088-.4.13-.6a74.481,74.481,0,0,0,1.654-15.471c0-.084,0-.168,0-.256,0-.18,0-.356,0-.536.134-.494.268-.983.4-1.477a.149.149,0,0,1,.146-.1c0,.057,0,.107,0,.164v0c.008.234.011.471.016.7A75.367,75.367,0,0,1,635.816,165.1Z" transform="translate(-635.252 -144.373)" fill="#ffb12a"/></g></g><g transform="translate(6.749 1)"><g transform="translate(600 127.833)"><g transform="matrix(1, 0, 0, 1, -590.75, -31)" filter="url(#d)"><rect width="96" height="64" rx="32" transform="translate(591 31)" fill="#7c56ff"/></g></g><g transform="translate(626.647 133.785)"><g transform="matrix(1, 0, 0, 1, -617.4, -36.95)" filter="url(#f)"><path d="M5.132,16.562c1.872.267,3.89,2.033,4.616,2.76V3.029a3.1,3.1,0,0,1,6.2,0v9.387c0,1.215,1.261,1.371,1.424.16.335-2.486,3.9-2.816,4.173.618.067.846,1.125,1.015,1.342.042.505-2.238,3.876-2.259,4.274,1.175.1.9,1.233,1.079,1.314.053s.435-1.447.941-1.447c1.7,0,3.578,3.129,3.578,6.834,0,6.656-4.649,6.673-4.649,17.34h-15.5c-.514-6.109-5.365-11.515-9.718-15.869A3.511,3.511,0,0,1,2,18.9C2,17.456,3.176,16.282,5.132,16.562Z" transform="translate(621.71 50.17)" fill="#fff"/></g><g transform="matrix(1, 0, 0, 1, -617.4, -36.95)" filter="url(#h)"><path d="M16.758,9.907l-2.753,1.371L9.948,3.123,12.7,1.751ZM23.624.457,20.581,0,19.226,9.006l3.043.457ZM11,15.906l1.471-2.7-8-4.354L3,11.552l8,4.354Z" transform="translate(614.4 36.95)" fill="#fff"/></g></g></g><path d="M-193.219-9.464a4.8,4.8,0,0,1,2.444,1.651,4.551,4.551,0,0,1,.884,2.847,4.206,4.206,0,0,1-1.859,3.679A9.5,9.5,0,0,1-197.171,0h-9.412V-18.2h8.892a8.7,8.7,0,0,1,5.109,1.274,4.032,4.032,0,0,1,1.781,3.458,4.438,4.438,0,0,1-.637,2.366A4.462,4.462,0,0,1-193.219-9.464Zm-9.178-5.564v4.29h4.186a4.226,4.226,0,0,0,2.366-.546,1.821,1.821,0,0,0,.806-1.612,1.789,1.789,0,0,0-.806-1.6,4.308,4.308,0,0,0-2.366-.533Zm4.914,11.856a4.667,4.667,0,0,0,2.509-.546,1.87,1.87,0,0,0,.845-1.69q0-2.262-3.354-2.262H-202.4v4.5Zm23.738-10.816V0h-3.848V-1.664a5.379,5.379,0,0,1-1.924,1.391,6.053,6.053,0,0,1-2.418.481A5.957,5.957,0,0,1-186.3-1.378a6.322,6.322,0,0,1-1.612-4.706v-7.9h4.056v7.306q0,3.38,2.834,3.38a3.047,3.047,0,0,0,2.34-.949,4,4,0,0,0,.884-2.821v-6.916Zm16.8,0L-163.267.858a7.306,7.306,0,0,1-2.379,3.406,5.827,5.827,0,0,1-3.419.988,7.1,7.1,0,0,1-2.158-.338,4.765,4.765,0,0,1-1.742-.936l1.482-2.886a3.482,3.482,0,0,0,1.079.65,3.363,3.363,0,0,0,1.209.234,2.145,2.145,0,0,0,1.352-.4,3.421,3.421,0,0,0,.936-1.339l.052-.13-6.058-14.092h4.186L-164.8-4.5l3.952-9.49Zm7.592-4.212h4.212V0h-4.212Zm15.886,4a5.756,5.756,0,0,1,4.2,1.56,6.186,6.186,0,0,1,1.6,4.628V0h-4.056V-7.384a3.646,3.646,0,0,0-.728-2.483,2.67,2.67,0,0,0-2.106-.819,3.228,3.228,0,0,0-2.444.949,3.929,3.929,0,0,0-.91,2.821V0h-4.056V-13.988h3.874v1.638a5.379,5.379,0,0,1,2-1.365A6.975,6.975,0,0,1-133.471-14.2Zm13.312,14.4a13.588,13.588,0,0,1-3.406-.429A8.9,8.9,0,0,1-126.217-1.3l1.352-2.912a8.509,8.509,0,0,0,2.262.975,9.48,9.48,0,0,0,2.6.377q2.574,0,2.574-1.274a.9.9,0,0,0-.7-.858,10.4,10.4,0,0,0-2.158-.442,20.819,20.819,0,0,1-2.834-.6,4.4,4.4,0,0,1-1.937-1.2,3.4,3.4,0,0,1-.819-2.444,3.829,3.829,0,0,1,.767-2.353,4.936,4.936,0,0,1,2.236-1.6,9.55,9.55,0,0,1,3.471-.572,13.623,13.623,0,0,1,2.951.325,8.249,8.249,0,0,1,2.431.9l-1.352,2.886a8.071,8.071,0,0,0-4.03-1.04,4.1,4.1,0,0,0-1.95.364,1.07,1.07,0,0,0-.65.936.929.929,0,0,0,.7.91,12.428,12.428,0,0,0,2.236.494,23.935,23.935,0,0,1,2.808.611,4.218,4.218,0,0,1,1.9,1.183,3.357,3.357,0,0,1,.806,2.392,3.694,3.694,0,0,1-.78,2.314A4.979,4.979,0,0,1-116.61-.351,10.136,10.136,0,0,1-120.159.208ZM-102.9-.676a4.169,4.169,0,0,1-1.469.663A7.427,7.427,0,0,1-106.2.208a5.446,5.446,0,0,1-3.861-1.274,4.875,4.875,0,0,1-1.365-3.744v-5.746h-2.158v-3.12h2.158v-3.406h4.056v3.406h3.484v3.12h-3.484v5.694a1.91,1.91,0,0,0,.455,1.365,1.686,1.686,0,0,0,1.287.481,2.607,2.607,0,0,0,1.638-.52Zm7.072-13.52a7.28,7.28,0,0,1,4.992,1.547,5.92,5.92,0,0,1,1.742,4.667V0h-3.8V-1.742Q-94.029.208-97.149.208a6.618,6.618,0,0,1-2.8-.546,4.168,4.168,0,0,1-1.807-1.508,3.925,3.925,0,0,1-.624-2.184A3.645,3.645,0,0,1-100.906-7.1a7.486,7.486,0,0,1,4.537-1.118h3.224a2.585,2.585,0,0,0-.806-2.041,3.55,3.55,0,0,0-2.418-.715,7.06,7.06,0,0,0-2.2.351,5.812,5.812,0,0,0-1.833.949l-1.456-2.834a8.785,8.785,0,0,1,2.743-1.248A12.288,12.288,0,0,1-95.823-14.2Zm-.312,11.674A3.532,3.532,0,0,0-94.289-3,2.632,2.632,0,0,0-93.145-4.42V-5.85h-2.782q-2.5,0-2.5,1.638a1.459,1.459,0,0,0,.611,1.235A2.752,2.752,0,0,0-96.135-2.522ZM-71.7-13.988V-2.34q0,3.848-2,5.72a8.266,8.266,0,0,1-5.85,1.872A14.631,14.631,0,0,1-83.4,4.758a8.413,8.413,0,0,1-3.016-1.43L-84.8.416a6.634,6.634,0,0,0,2.236,1.157,8.9,8.9,0,0,0,2.7.429,4.385,4.385,0,0,0,3.107-.949,3.782,3.782,0,0,0,1-2.873v-.6a5.675,5.675,0,0,1-4.42,1.742,7.423,7.423,0,0,1-3.523-.845A6.44,6.44,0,0,1-86.229-3.9a6.652,6.652,0,0,1-.936-3.536,6.652,6.652,0,0,1,.936-3.536,6.44,6.44,0,0,1,2.535-2.379,7.423,7.423,0,0,1,3.523-.845,5.552,5.552,0,0,1,4.628,2v-1.794ZM-79.365-4a3.735,3.735,0,0,0,2.639-.949A3.223,3.223,0,0,0-75.7-7.436a3.223,3.223,0,0,0-1.027-2.483,3.735,3.735,0,0,0-2.639-.949,3.783,3.783,0,0,0-2.652.949,3.2,3.2,0,0,0-1.04,2.483,3.2,3.2,0,0,0,1.04,2.483A3.783,3.783,0,0,0-79.365-4Zm14.456-8.138a4.51,4.51,0,0,1,1.963-1.534A7.286,7.286,0,0,1-60.1-14.2v3.744q-.676-.052-.91-.052a3.718,3.718,0,0,0-2.73.975A3.941,3.941,0,0,0-64.727-6.6V0h-4.056V-13.988h3.874ZM-52.975-14.2a7.28,7.28,0,0,1,4.992,1.547,5.92,5.92,0,0,1,1.742,4.667V0h-3.8V-1.742Q-51.181.208-54.3.208A6.618,6.618,0,0,1-57.1-.338,4.168,4.168,0,0,1-58.9-1.846a3.925,3.925,0,0,1-.624-2.184A3.645,3.645,0,0,1-58.058-7.1a7.486,7.486,0,0,1,4.537-1.118H-50.3a2.585,2.585,0,0,0-.806-2.041,3.55,3.55,0,0,0-2.418-.715,7.06,7.06,0,0,0-2.2.351,5.812,5.812,0,0,0-1.833.949l-1.456-2.834a8.785,8.785,0,0,1,2.743-1.248A12.288,12.288,0,0,1-52.975-14.2Zm-.312,11.674A3.532,3.532,0,0,0-51.441-3,2.632,2.632,0,0,0-50.3-4.42V-5.85h-2.782q-2.5,0-2.5,1.638a1.459,1.459,0,0,0,.611,1.235A2.752,2.752,0,0,0-53.287-2.522ZM-25.519-14.2a5.639,5.639,0,0,1,4.173,1.547A6.3,6.3,0,0,1-19.8-8.008V0h-4.056V-7.384a3.79,3.79,0,0,0-.689-2.483,2.423,2.423,0,0,0-1.963-.819,2.893,2.893,0,0,0-2.262.923A3.978,3.978,0,0,0-29.6-7.02V0h-4.056V-7.384q0-3.3-2.652-3.3a2.861,2.861,0,0,0-2.236.923,3.978,3.978,0,0,0-.832,2.743V0h-4.056V-13.988h3.874v1.612a5.119,5.119,0,0,1,1.911-1.352,6.432,6.432,0,0,1,2.483-.468,6.014,6.014,0,0,1,2.678.585,4.743,4.743,0,0,1,1.924,1.7,5.738,5.738,0,0,1,2.171-1.69A6.849,6.849,0,0,1-25.519-14.2Zm19.5-.624v4.81H2.4v3.38H-6.019V0h-4.212V-18.2H3.523v3.38ZM11.531.208A8.388,8.388,0,0,1,7.566-.715,6.862,6.862,0,0,1,4.823-3.276a7.056,7.056,0,0,1-.988-3.718,7.056,7.056,0,0,1,.988-3.718,6.862,6.862,0,0,1,2.743-2.561,8.388,8.388,0,0,1,3.965-.923,8.31,8.31,0,0,1,3.952.923,6.883,6.883,0,0,1,2.73,2.561A7.056,7.056,0,0,1,19.2-6.994a7.056,7.056,0,0,1-.988,3.718,6.883,6.883,0,0,1-2.73,2.561A8.31,8.31,0,0,1,11.531.208Zm0-3.328a3.378,3.378,0,0,0,2.561-1.053,3.925,3.925,0,0,0,1-2.821,3.925,3.925,0,0,0-1-2.821,3.378,3.378,0,0,0-2.561-1.053A3.42,3.42,0,0,0,8.957-9.815,3.9,3.9,0,0,0,7.943-6.994,3.9,3.9,0,0,0,8.957-4.173,3.42,3.42,0,0,0,11.531-3.12Zm9.516-16.172H25.1V0H21.047Zm6.968,0h4.056V0H28.015ZM41.639.208a8.388,8.388,0,0,1-3.965-.923,6.861,6.861,0,0,1-2.743-2.561,7.056,7.056,0,0,1-.988-3.718,7.056,7.056,0,0,1,.988-3.718,6.862,6.862,0,0,1,2.743-2.561,8.388,8.388,0,0,1,3.965-.923,8.31,8.31,0,0,1,3.952.923,6.883,6.883,0,0,1,2.73,2.561,7.056,7.056,0,0,1,.988,3.718,7.056,7.056,0,0,1-.988,3.718,6.883,6.883,0,0,1-2.73,2.561A8.31,8.31,0,0,1,41.639.208Zm0-3.328A3.378,3.378,0,0,0,44.2-4.173a3.925,3.925,0,0,0,1-2.821,3.925,3.925,0,0,0-1-2.821,3.378,3.378,0,0,0-2.561-1.053,3.42,3.42,0,0,0-2.574,1.053,3.9,3.9,0,0,0-1.014,2.821,3.9,3.9,0,0,0,1.014,2.821A3.42,3.42,0,0,0,41.639-3.12Zm31.59-10.868L68.159,0h-3.9L61.113-8.684,57.863,0h-3.9L48.919-13.988h3.822l3.3,9.464,3.432-9.464h3.432l3.328,9.464,3.406-9.464ZM87.581-6.942q0,.078-.078,1.092H76.921A3.3,3.3,0,0,0,78.273-3.8a4.478,4.478,0,0,0,2.652.754,5.37,5.37,0,0,0,1.937-.325,4.692,4.692,0,0,0,1.573-1.027l2.158,2.34A7.252,7.252,0,0,1,80.821.208a9.131,9.131,0,0,1-4.186-.923,6.766,6.766,0,0,1-2.808-2.561,7.056,7.056,0,0,1-.988-3.718,7.148,7.148,0,0,1,.975-3.7,6.831,6.831,0,0,1,2.678-2.574A7.863,7.863,0,0,1,80.3-14.2a7.8,7.8,0,0,1,3.718.884,6.452,6.452,0,0,1,2.613,2.535A7.559,7.559,0,0,1,87.581-6.942Zm-7.254-4.186a3.493,3.493,0,0,0-2.314.78,3.32,3.32,0,0,0-1.144,2.132h6.89a3.354,3.354,0,0,0-1.144-2.119A3.419,3.419,0,0,0,80.327-11.128ZM93.3-12.142a4.51,4.51,0,0,1,1.963-1.534,7.286,7.286,0,0,1,2.847-.52v3.744q-.676-.052-.91-.052a3.718,3.718,0,0,0-2.73.975A3.941,3.941,0,0,0,93.483-6.6V0H89.427V-13.988H93.3ZM104.429.208a13.588,13.588,0,0,1-3.406-.429A8.9,8.9,0,0,1,98.371-1.3l1.352-2.912a8.509,8.509,0,0,0,2.262.975,9.48,9.48,0,0,0,2.6.377q2.574,0,2.574-1.274a.9.9,0,0,0-.7-.858,10.4,10.4,0,0,0-2.158-.442,20.819,20.819,0,0,1-2.834-.6,4.4,4.4,0,0,1-1.937-1.2,3.4,3.4,0,0,1-.819-2.444,3.829,3.829,0,0,1,.767-2.353,4.936,4.936,0,0,1,2.236-1.6,9.55,9.55,0,0,1,3.471-.572,13.623,13.623,0,0,1,2.951.325,8.249,8.249,0,0,1,2.431.9l-1.352,2.886a8.071,8.071,0,0,0-4.03-1.04,4.1,4.1,0,0,0-1.95.364,1.07,1.07,0,0,0-.65.936.929.929,0,0,0,.7.91,12.428,12.428,0,0,0,2.236.494,23.934,23.934,0,0,1,2.808.611,4.218,4.218,0,0,1,1.9,1.183,3.357,3.357,0,0,1,.806,2.392,3.694,3.694,0,0,1-.78,2.314,4.979,4.979,0,0,1-2.275,1.573A10.136,10.136,0,0,1,104.429.208Zm29.016.1-2.184-2.028A9.606,9.606,0,0,1,125.177.312a9.484,9.484,0,0,1-3.562-.637,5.83,5.83,0,0,1-2.483-1.781,4.065,4.065,0,0,1-.9-2.574,4.882,4.882,0,0,1,.949-2.977,9.414,9.414,0,0,1,3.055-2.457,7.522,7.522,0,0,1-1.43-1.937,4.375,4.375,0,0,1-.442-1.911,4.01,4.01,0,0,1,.7-2.34,4.552,4.552,0,0,1,1.989-1.573,7.416,7.416,0,0,1,2.977-.559,5.946,5.946,0,0,1,3.8,1.131,3.69,3.69,0,0,1,1.43,3.055,3.968,3.968,0,0,1-.845,2.5A8.536,8.536,0,0,1,127.7-9.646l3.328,3.094a11.821,11.821,0,0,0,.91-2.834l3.25,1.014a11.886,11.886,0,0,1-1.664,4.134l2.132,1.976Zm-7.41-15.99a2.11,2.11,0,0,0-1.443.468,1.52,1.52,0,0,0-.533,1.2,1.976,1.976,0,0,0,.286,1.027,7.1,7.1,0,0,0,1.118,1.287,7.263,7.263,0,0,0,1.846-1.261,1.747,1.747,0,0,0,.52-1.209,1.391,1.391,0,0,0-.468-1.092A1.93,1.93,0,0,0,126.035-15.678ZM125.463-2.86a5.758,5.758,0,0,0,3.406-1.066l-4.394-4.108a5.9,5.9,0,0,0-1.742,1.378,2.45,2.45,0,0,0-.52,1.534,1.918,1.918,0,0,0,.884,1.638A4.027,4.027,0,0,0,125.463-2.86ZM144.027-18.2h4.212V-3.432h9.126V0H144.027Zm14.56,4.212h4.056V0h-4.056Zm2.028-1.95a2.573,2.573,0,0,1-1.82-.65,2.108,2.108,0,0,1-.7-1.612,2.108,2.108,0,0,1,.7-1.612,2.573,2.573,0,0,1,1.82-.65,2.637,2.637,0,0,1,1.82.624,2,2,0,0,1,.7,1.56,2.208,2.208,0,0,1-.7,1.677A2.543,2.543,0,0,1,160.615-15.938ZM171.561-5.486l-1.95,1.924V0h-4.056V-19.292h4.056v10.92l5.928-5.616h4.836L174.551-8.06,180.9,0h-4.914Zm23.4-1.456q0,.078-.078,1.092H184.3A3.3,3.3,0,0,0,185.653-3.8a4.478,4.478,0,0,0,2.652.754,5.37,5.37,0,0,0,1.937-.325,4.692,4.692,0,0,0,1.573-1.027l2.158,2.34A7.252,7.252,0,0,1,188.2.208a9.131,9.131,0,0,1-4.186-.923,6.766,6.766,0,0,1-2.808-2.561,7.056,7.056,0,0,1-.988-3.718,7.148,7.148,0,0,1,.975-3.7,6.83,6.83,0,0,1,2.678-2.574,7.863,7.863,0,0,1,3.809-.923,7.8,7.8,0,0,1,3.718.884,6.452,6.452,0,0,1,2.613,2.535A7.559,7.559,0,0,1,194.961-6.942Zm-7.254-4.186a3.493,3.493,0,0,0-2.314.78,3.32,3.32,0,0,0-1.144,2.132h6.89A3.354,3.354,0,0,0,190-10.335,3.419,3.419,0,0,0,187.707-11.128ZM201.513.208a13.588,13.588,0,0,1-3.406-.429A8.9,8.9,0,0,1,195.455-1.3l1.352-2.912a8.509,8.509,0,0,0,2.262.975,9.48,9.48,0,0,0,2.6.377q2.574,0,2.574-1.274a.9.9,0,0,0-.7-.858,10.4,10.4,0,0,0-2.158-.442,20.818,20.818,0,0,1-2.834-.6,4.4,4.4,0,0,1-1.937-1.2,3.4,3.4,0,0,1-.819-2.444,3.828,3.828,0,0,1,.767-2.353,4.936,4.936,0,0,1,2.236-1.6,9.55,9.55,0,0,1,3.471-.572,13.623,13.623,0,0,1,2.951.325,8.249,8.249,0,0,1,2.431.9L206.3-10.088a8.071,8.071,0,0,0-4.03-1.04,4.1,4.1,0,0,0-1.95.364,1.07,1.07,0,0,0-.65.936.929.929,0,0,0,.7.91,12.428,12.428,0,0,0,2.236.494,23.935,23.935,0,0,1,2.808.611,4.219,4.219,0,0,1,1.9,1.183,3.357,3.357,0,0,1,.806,2.392,3.694,3.694,0,0,1-.78,2.314,4.979,4.979,0,0,1-2.275,1.573A10.136,10.136,0,0,1,201.513.208Z" transform="translate(371 172.924)" fill="#7c56ff"/></g></svg>