<svg xmlns="http://www.w3.org/2000/svg" xmlns:xlink="http://www.w3.org/1999/xlink" width="87" height="43.336" viewBox="0 0 87 43.336"><defs><style>.a{fill:url(#a);}.b{opacity:0.26;fill:url(#b);}.c{fill:#8b5dd8;}.d{clip-path:url(#e);}.e{opacity:0.09;mix-blend-mode:overlay;isolation:isolate;fill:url(#g);}</style><linearGradient id="a" x1="0.5" x2="0.5" y2="1" gradientUnits="objectBoundingBox"><stop offset="0" stop-color="#e484f0"/><stop offset="1" stop-color="#8a86fe"/></linearGradient><linearGradient id="b" x1="0.099" y1="0.094" x2="0.901" y2="0.752" gradientUnits="objectBoundingBox"><stop offset="0" stop-color="#ffbc39"/><stop offset="1" stop-color="#fd9800"/></linearGradient><clipPath id="e"><path class="a" d="M27.526,6.586a8.326,8.326,0,0,1,3.862,6.154,6.682,6.682,0,1,0-3.862-6.154M23.144,20.291A6.687,6.687,0,1,0,16.458,13.6a6.7,6.7,0,0,0,6.687,6.687m2.839.461H20.305a8.571,8.571,0,0,0-8.56,8.56v6.946l.014.1.476.144a38.887,38.887,0,0,0,11.644,1.873,24.016,24.016,0,0,0,10.174-1.9l.447-.231h.043V29.3a8.558,8.558,0,0,0-8.56-8.546m11.068-6.917H31.417a8.232,8.232,0,0,1-2.551,5.75,10.2,10.2,0,0,1,7.278,9.742v2.147a23.122,23.122,0,0,0,8.978-1.888l.447-.231h.043V22.41a8.564,8.564,0,0,0-8.56-8.575m-25.638-.447a6.559,6.559,0,0,0,3.56-1.038,8.332,8.332,0,0,1,3.113-5.289c0-.13.014-.245.014-.375a6.694,6.694,0,1,0-6.687,6.7m6.009,6.2a8.2,8.2,0,0,1-2.536-5.707c-.216-.014-.432-.043-.649-.043H8.56A8.583,8.583,0,0,0,0,22.41v6.946l.014.115.476.159a40.882,40.882,0,0,0,9.656,1.816v-2.09a10.19,10.19,0,0,1,7.278-9.771" transform="translate(96.455 2095.664)"/></clipPath><linearGradient id="g" x1="0.449" y1="0.414" x2="0.917" y2="0.963" gradientUnits="objectBoundingBox"><stop offset="0" stop-color="#fff"/><stop offset="0.072" stop-color="#fff" stop-opacity="0.875"/><stop offset="0.216" stop-color="#fff" stop-opacity="0.647"/><stop offset="0.359" stop-color="#fff" stop-opacity="0.447"/><stop offset="0.5" stop-color="#fff" stop-opacity="0.286"/><stop offset="0.636" stop-color="#fff" stop-opacity="0.161"/><stop offset="0.767" stop-color="#fff" stop-opacity="0.071"/><stop offset="0.891" stop-color="#fff" stop-opacity="0.02"/><stop offset="1" stop-color="#fff" stop-opacity="0"/></linearGradient></defs><g transform="translate(-76 -2095.664)"><ellipse class="b" cx="43.5" cy="9" rx="43.5" ry="9" transform="translate(76 2121)"/><ellipse class="b" cx="41.5" cy="11.5" rx="41.5" ry="11.5" transform="translate(78 2116)"/><ellipse class="b" cx="36.5" cy="13" rx="36.5" ry="13" transform="translate(83 2113)"/><path class="c" d="M27.526,6.586a8.326,8.326,0,0,1,3.862,6.154,6.682,6.682,0,1,0-3.862-6.154M23.144,20.291A6.687,6.687,0,1,0,16.458,13.6a6.7,6.7,0,0,0,6.687,6.687m2.839.461H20.305a8.571,8.571,0,0,0-8.56,8.56v6.946l.014.1.476.144a38.887,38.887,0,0,0,11.644,1.873,24.016,24.016,0,0,0,10.174-1.9l.447-.231h.043V29.3a8.558,8.558,0,0,0-8.56-8.546m11.068-6.917H31.417a8.232,8.232,0,0,1-2.551,5.75,10.2,10.2,0,0,1,7.278,9.742v2.147a23.122,23.122,0,0,0,8.978-1.888l.447-.231h.043V22.41a8.564,8.564,0,0,0-8.56-8.575m-25.638-.447a6.559,6.559,0,0,0,3.56-1.038,8.332,8.332,0,0,1,3.113-5.289c0-.13.014-.245.014-.375a6.694,6.694,0,1,0-6.687,6.7m6.009,6.2a8.2,8.2,0,0,1-2.536-5.707c-.216-.014-.432-.043-.649-.043H8.56A8.583,8.583,0,0,0,0,22.41v6.946l.014.115.476.159a40.882,40.882,0,0,0,9.656,1.816v-2.09a10.19,10.19,0,0,1,7.278-9.771" transform="translate(98.455 2095.664)"/><g class="d"><path class="a" d="M27.526,6.586a8.326,8.326,0,0,1,3.862,6.154,6.682,6.682,0,1,0-3.862-6.154M23.144,20.291A6.687,6.687,0,1,0,16.458,13.6a6.7,6.7,0,0,0,6.687,6.687m2.839.461H20.305a8.571,8.571,0,0,0-8.56,8.56v6.946l.014.1.476.144a38.887,38.887,0,0,0,11.644,1.873,24.016,24.016,0,0,0,10.174-1.9l.447-.231h.043V29.3a8.558,8.558,0,0,0-8.56-8.546m11.068-6.917H31.417a8.232,8.232,0,0,1-2.551,5.75,10.2,10.2,0,0,1,7.278,9.742v2.147a23.122,23.122,0,0,0,8.978-1.888l.447-.231h.043V22.41a8.564,8.564,0,0,0-8.56-8.575m-25.638-.447a6.559,6.559,0,0,0,3.56-1.038,8.332,8.332,0,0,1,3.113-5.289c0-.13.014-.245.014-.375a6.694,6.694,0,1,0-6.687,6.7m6.009,6.2a8.2,8.2,0,0,1-2.536-5.707c-.216-.014-.432-.043-.649-.043H8.56A8.583,8.583,0,0,0,0,22.41v6.946l.014.115.476.159a40.882,40.882,0,0,0,9.656,1.816v-2.09a10.19,10.19,0,0,1,7.278-9.771" transform="translate(96.455 2095.664)"/><path class="e" d="M29.5,0C45.792,0,59,8.5,59,18.983S45.792,37.965,29.5,37.965,0,29.466,0,18.983,13.208,0,29.5,0Z" transform="translate(92.274 2115.072) rotate(-12)"/></g><path class="a" d="M18255.873,21920.873v-3.746h-3.746a1.125,1.125,0,1,1,0-2.25h3.746v-3.752a1.125,1.125,0,0,1,2.25,0v3.752h3.752a1.125,1.125,0,0,1,0,2.25h-3.752v3.746a1.125,1.125,0,1,1-2.25,0Z" transform="translate(-18165.5 -19807)"/></g></svg>