<svg xmlns="http://www.w3.org/2000/svg" xmlns:xlink="http://www.w3.org/1999/xlink" width="375.001" height="394.922" viewBox="0 0 375.001 394.922"><defs><linearGradient id="a" x1="1.148" y1="-0.181" x2="-0.072" y2="1" gradientUnits="objectBoundingBox"><stop offset="0" stop-color="#111ec5"/><stop offset="0.569" stop-color="#ad34d8"/><stop offset="1" stop-color="#ff9161"/></linearGradient><linearGradient id="b" x1="0.027" y1="1.005" x2="0.974" y2="0.003" gradientUnits="objectBoundingBox"><stop offset="0" stop-color="#fefefe" stop-opacity="0.012"/><stop offset="1" stop-color="#fff" stop-opacity="0.678"/></linearGradient><linearGradient id="c" x1="0.5" x2="0.5" y2="1" gradientUnits="objectBoundingBox"><stop offset="0" stop-color="#fff" stop-opacity="0.471"/><stop offset="0.858" stop-color="#ebefff" stop-opacity="0"/><stop offset="1" stop-color="#fff" stop-opacity="0"/></linearGradient></defs><g transform="translate(-0.436)"><g transform="translate(0.437)"><path d="M0,0H375V394.923H0Z" fill="url(#a)"/></g><g transform="translate(0 124.664)"><ellipse cx="142.727" cy="135.129" rx="142.727" ry="135.129" transform="translate(45.775 0)" fill="#fff" opacity="0"/><g transform="translate(0.436 37.569)" fill="#fff" opacity="0.03"><path d="M 373.8643798828125 232.1139068603516 L 0.499989926815033 232.1139068603516 L 0.499989926815033 61.31902694702148 C 13.34044361114502 51.82475280761719 27.08170127868652 43.25214004516602 41.34458923339844 35.83821105957031 C 55.84593963623047 28.30536079406738 71.11454010009766 21.85366058349609 86.72608947753906 16.66241073608398 C 119.0269927978516 5.93786096572876 152.9555969238281 0.5000110864639282 187.5691833496094 0.5000110864639282 C 223.8191375732422 0.5000110864639282 259.2679443359375 6.457311153411865 292.9309387207031 18.20636177062988 C 309.1907043457031 23.88321113586426 325.0210266113281 30.92751121520996 339.9822998046875 39.14361190795898 C 351.7304077148438 45.59762954711914 363.1287536621094 52.86941528320313 373.8643798828125 60.75904083251953 L 373.8643798828125 232.1139068603516 Z" stroke="none"/><path d="M 373.3643798828125 231.6139068603516 L 373.3643798828125 61.01219940185547 C 362.705810546875 53.19307327270508 351.3963317871094 45.98458480834961 339.7416381835938 39.5819091796875 C 324.8046264648438 31.37911033630371 308.9997253417969 24.34616088867188 292.7661437988281 18.6784610748291 C 259.1562805175781 6.947911262512207 223.7628936767578 1.000011086463928 187.5691833496094 1.000011086463928 C 153.0091857910156 1.000011086463928 119.1336364746094 6.429261207580566 86.88388824462891 17.13686180114746 C 71.2972412109375 22.31981086730957 56.0530891418457 28.76116180419922 41.57519149780273 36.2818603515625 C 27.41066741943359 43.64469528198242 13.76121711730957 52.15227127075195 0.999989926815033 61.57125473022461 L 0.999989926815033 231.6139068603516 L 373.3643798828125 231.6139068603516 M 374.3643798828125 232.6139068603516 L 374.3624267578125 232.6139068603516 L 374.3643798828125 232.6139068603516 Z M 374.3643798828125 232.6139068603516 L -1.005859394354047e-05 232.6139068603516 L -1.005859394354047e-05 61.06701278686523 C 12.9097900390625 51.50461196899414 26.74184036254883 42.86531066894531 41.11399078369141 35.39456176757813 C 55.63824081420898 27.84981155395508 70.93074035644531 21.38786125183105 86.56833648681641 16.18796157836914 C 118.9236907958984 5.445311069488525 152.9052429199219 1.105957016989123e-05 187.5691833496094 1.105957016989123e-05 C 223.8769378662109 1.105957016989123e-05 259.3812255859375 5.967260837554932 293.095703125 17.73431015014648 C 309.3728332519531 23.41721153259277 325.2287902832031 30.47116088867188 340.2229919433594 38.70536041259766 C 352.0564270019531 45.20626068115234 363.5447998046875 52.5406608581543 374.3643798828125 60.50611114501953 L 374.3643798828125 232.6139068603516 Z" stroke="none" fill="#707070"/></g><path d="M0,142.1C23.148,60.075,98.1,0,187,0S350.852,60.075,374,142.1Z" transform="translate(1 128.083)" fill="#fff" opacity="0.05"/></g><g transform="translate(13.012 22.327)" opacity="0.38"><path d="M-559.745,302.316l-4.1-13.218-11.635,7.053,4.68,1.834c-14.491,35.467-30.85,54.724-48.623,57.235-5.934.838-11.2-.247-16.287-1.3-7.223-1.49-14.693-3.031-21.876,2.248-7.344,5.4-9.285,13.99-11.162,22.3-1.859,8.231-3.615,16-10.556,19.718a12.821,12.821,0,0,1-5.46,1.493,30.737,30.737,0,0,0-4.676.785c-16,4.134-27.677,23.841-35.7,60.246l7.024,1.547c4.145-18.815,9.349-33.073,15.468-42.378,4.508-6.855,9.556-11.044,15-12.452a24.1,24.1,0,0,1,3.654-.6,19.8,19.8,0,0,0,8.075-2.3c9.839-5.264,12.145-15.47,14.179-24.475,1.659-7.344,3.226-14.281,8.406-18.088,4.39-3.227,8.781-2.522,16.164-1,5.426,1.119,11.576,2.388,18.746,1.375,9.159-1.294,17.926-6.134,26.056-14.385,10.118-10.268,19.626-26.2,28.258-47.348Z" transform="translate(921.115 -128.031)" fill="url(#b)"/><path d="M4.242,0H17.817a4.242,4.242,0,0,1,4.242,4.242V45.816a4.242,4.242,0,0,1-4.242,4.242H4.242A4.242,4.242,0,0,1,0,45.816V4.242A4.242,4.242,0,0,1,4.242,0Z" transform="translate(222.559 290.991)" fill="url(#c)"/><path d="M4.242,0H17.817a4.242,4.242,0,0,1,4.242,4.242V80.177a4.242,4.242,0,0,1-4.242,4.242H4.242A4.242,4.242,0,0,1,0,80.177V4.242A4.242,4.242,0,0,1,4.242,0Z" transform="translate(251.615 282.338)" fill="url(#c)"/><path d="M4.242,0H17.817a4.242,4.242,0,0,1,4.242,4.242v81.45a4.242,4.242,0,0,1-4.242,4.242H4.242A4.242,4.242,0,0,1,0,85.692V4.242A4.242,4.242,0,0,1,4.242,0Z" transform="translate(282.174 269.757)" fill="url(#c)"/><path d="M4.242,0H17.817a4.242,4.242,0,0,1,4.242,4.242v99.267a4.242,4.242,0,0,1-4.242,4.242H4.242A4.242,4.242,0,0,1,0,103.509V4.242A4.242,4.242,0,0,1,4.242,0Z" transform="translate(312.684 255.591)" fill="url(#c)"/><path d="M17.148,9.8a4.9,4.9,0,1,0-4.9-4.9A4.9,4.9,0,0,0,17.148,9.8ZM6.124,7.349V3.674H3.675V7.349H0V9.8H3.675v3.675h2.45V9.8H9.8V7.349Zm11.024,4.9c-3.27,0-9.8,1.641-9.8,4.9V19.6h19.6v-2.45C26.946,13.89,20.418,12.248,17.148,12.248Z" transform="matrix(0.978, -0.208, 0.208, 0.978, 0, 5.602)" fill="#fff"/><path d="M14.218,25.175a3.707,3.707,0,0,1-2.062-.961C4.834,17.574,0,13.194,0,7.82A7.744,7.744,0,0,1,7.82,0a8.514,8.514,0,0,1,6.4,2.972A8.514,8.514,0,0,1,20.616,0a7.744,7.744,0,0,1,7.82,7.82c0,5.374-4.834,9.754-12.157,16.408A3.677,3.677,0,0,1,14.218,25.175Z" transform="matrix(0.875, 0.485, -0.485, 0.875, 67.946, 293.163)" fill="#fff" opacity="0.33"/><path d="M6.664,11.8a1.737,1.737,0,0,1-.966-.451C2.266,8.237,0,6.184,0,3.665A3.63,3.63,0,0,1,3.665,0a3.991,3.991,0,0,1,3,1.393A3.991,3.991,0,0,1,9.663,0a3.63,3.63,0,0,1,3.665,3.665c0,2.519-2.266,4.572-5.7,7.69A1.724,1.724,0,0,1,6.664,11.8Z" transform="matrix(0.883, -0.469, 0.469, 0.883, 6.864, 270.021)" fill="none" stroke="#fff" stroke-width="2" opacity="0.73"/><path d="M6.664,11.8a1.737,1.737,0,0,1-.966-.451C2.266,8.237,0,6.184,0,3.665A3.63,3.63,0,0,1,3.665,0a3.991,3.991,0,0,1,3,1.393A3.991,3.991,0,0,1,9.663,0a3.63,3.63,0,0,1,3.665,3.665c0,2.519-2.266,4.572-5.7,7.69A1.724,1.724,0,0,1,6.664,11.8Z" transform="matrix(0.891, 0.454, -0.454, 0.891, 332.942, 111.571)" fill="none" stroke="#fff" stroke-width="2" opacity="0.73"/></g></g></svg>